<svg height="18" viewBox="0 0 18 18" width="18" xmlns="http://www.w3.org/2000/svg"><g fill="none" stroke="#fff" stroke-linecap="round" stroke-linejoin="round" stroke-width="2" transform="scale(.75)"><path d="m17 4c0 .552083-.447917 1-1 1s-1-.447917-1-1 .447917-1 1-1 1 .447917 1 1zm0 0"/><path d="m18 19 1-7-6 1m-8-5 3-3 5.5 3-2.359375 3.5m-6.901042 3c-.578125 1.885417.010417 3.932292 1.494792 5.229167s3.59375 1.598958 5.385417.770833"/><path d="m13.760417 17.5c.578125-1.885417-.010417-3.932292-1.494792-5.229167s-3.59375-1.598958-5.385417-.770833"/></g></svg>