<svg height="18" viewBox="0 0 18 18" width="18" xmlns="http://www.w3.org/2000/svg"><path d="m0 9c0 7.257812 1.742188 9 9 9s9-1.742188 9-9-1.742188-9-9-9-9 1.742188-9 9m3.628906 1.871094 2.824219-6.417969c.476563-1.082031 1.390625-1.667969 2.546875-1.667969s2.070312.585938 2.546875 1.667969l2.824219 6.417969c.128906.308594.238281.714844.238281 1.0625 0 1.59375-1.117187 2.710937-2.714844 2.710937-.542969 0-.972656-.136719-1.410156-.277343-.445313-.144532-.898437-.289063-1.484375-.289063-.578125 0-1.042969.144531-1.5.289063-.4375.140624-.875.277343-1.394531.277343-1.597657 0-2.714844-1.117187-2.714844-2.710937 0-.347656.109375-.753906.238281-1.0625zm5.371094-5.300782-2.785156 6.308594c.824218-.386718 1.777344-.570312 2.785156-.570312.972656 0 1.960938.183594 2.75.570312zm0 0" fill="#5a45ff" fill-rule="evenodd"/></svg>