<svg height="18" viewBox="0 0 18 18" width="18" xmlns="http://www.w3.org/2000/svg"><path d="m11 21c0-2.5 2-2.5 2-5m3 5c0-2.5 2-2.5 2-5m1-8-.802083 3c-.114584.572917-.614584.989583-1.197917 1h-10c-.583333-.010417-1.083333-.427083-1.197917-1l-.802083-3m16-5c.552083 0 1 .447917 1 1v2c0 1.104167-.895833 2-2 2h-16c-1.104167 0-2-.895833-2-2v-2c0-.552083.447917-1 1-1zm-15 18c0-2.5 2-2.5 2-5" fill="none" stroke="#fff" stroke-linecap="round" stroke-linejoin="round" stroke-width="2" transform="scale(.75)"/></svg>