<svg height="18" viewBox="0 0 18 18" width="18" xmlns="http://www.w3.org/2000/svg"><g fill="none" stroke="#fff" stroke-linecap="round" stroke-linejoin="round" stroke-width="2" transform="scale(.75)"><path d="m5 5h2c1.104167 0 2 .895833 2 2v10c0 1.104167-.895833 2-2 2h-2c-1.104167 0-2-.895833-2-2v-10c0-1.104167.895833-2 2-2zm0 0"/><path d="m17 7h2c1.104167 0 2 .895833 2 2v6c0 1.104167-.895833 2-2 2h-2c-1.104167 0-2-.895833-2-2v-6c0-1.104167.895833-2 2-2zm0 0"/><path d="m3 2v20m18-20v20"/></g></svg>