<svg height="18" viewBox="0 0 18 18" width="18" xmlns="http://www.w3.org/2000/svg"><path d="m7.214844 2.488281h-3.953125c-.785157 0-1.433594.648438-1.433594 1.449219-.027344.773438.589844 1.421875 1.363281 1.449219h4.066406zm0 0" fill="#073042"/><path d="m16.171875 15.371094h-12.910156c-.800781 0-1.433594-.648438-1.433594-1.449219v-10c0 .804687.648437 1.449219 1.433594 1.464844h10.816406s2.109375-.183594 2.109375 1.40625v8.578125zm0 0" fill="#4285f4"/><path d="m10.152344 10.25c.578125-.433594.691406-1.25.253906-1.8125-.238281-.308594-.605469-.507812-1-.519531h.042969c.070312-.015625.15625-.015625.226562 0v-.800781c0-.101563-.042969-.183594-.128906-.226563-.125-.070313-.28125-.027344-.351563.097656-.027343.042969-.039062.085938-.027343.140625v.816406c-.703125.113282-1.195313.773438-1.082031 1.492188v.011719c.054687.339843.238281.648437.519531.84375l-2.375 5.089843h1.546875l1.097656-2.332031c.125-.28125.460938-.410156.757812-.269531.113282.058594.210938.15625.265626.269531l1.140624 2.332031h1.574219zm-.800782-.222656c-.449218 0-.800781-.367188-.800781-.816406 0-.449219.363281-.800782.816407-.789063.210937 0 .390624.085937.546874.226563.324219.308593.324219.816406.015626 1.140624-.140626.140626-.351563.238282-.578126.238282" fill="#3870b2"/><path d="m6.355469 3.191406h5.542969v1.011719h-5.542969zm0 0" fill="#fff"/><path d="m8.929688 8.410156c.4375 0 .800781.363282.789062.816406 0 .433594-.367188.800782-.816406.785157-.4375 0-.789063-.363281-.789063-.800781 0-.210938.085938-.40625.238281-.5625.15625-.15625.367188-.238282.578126-.238282m.308593-.464844v-.84375c0-.097656-.042969-.183593-.125-.226562-.128906-.070312-.28125-.027344-.351562.101562-.027344.039063-.042969.082032-.027344.140626v.8125c-.703125.113281-1.195313.773437-1.085937 1.492187v.015625c.058593.335938.242187.644531.523437.84375l-2.996094 6.425781c-.113281.222657-.097656.503907.054688.714844.226562.324219.660156.410156.984375.183594.113281-.070313.199218-.183594.253906-.292969l1.996094-4.277344c.128906-.28125.464844-.40625.761718-.265625.109376.054688.210938.152344.265626.265625l2.039062 4.234375c.167969.351563.589844.492188.941406.324219.351563-.171875.492188-.59375.324219-.945312l-3.078125-6.398438c.5625-.449219.660156-1.277344.210938-1.839844-.171876-.226562-.410157-.378906-.691407-.464844" fill="#073042"/><path d="m11.082031 4.09375c-.210937 0-.378906-.15625-.378906-.367188 0-.097656.039063-.210937.109375-.28125.15625-.140624.382812-.140624.535156 0 .070313.070313.113282.167969.113282.265626-.015626.210937-.167969.367187-.378907.382812m-4.164062-.015625c-.210938 0-.378907-.167969-.378907-.367187 0-.097657.042969-.195313.113282-.265626.125-.15625.363281-.183593.519531-.054687h.015625c.152344.140625.167969.378906.027344.53125l-.042969.058594c-.070313.070312-.167969.113281-.265625.113281m4.289062-2.28125.742188-1.292969c.042969-.070312.015625-.152343-.039062-.210937-.070313-.027344-.140626-.011719-.183594.042968l-.773438 1.335938c-1.238281-.546875-2.644531-.546875-3.867187 0l-.761719-1.320312c-.027344-.042969-.082031-.085938-.140625-.085938-.054687 0-.109375.027344-.140625.085938-.027344.039062-.027344.109374 0 .152343l.761719 1.292969c-1.324219.71875-2.179688 2.070312-2.308594 3.558594h9.03125c-.113281-1.503906-.984375-2.839844-2.308594-3.558594" fill="#3ddc84"/><path d="m14.851562 8.171875h-.59375c-.027343.011719-.054687.039063-.054687.082031v9.351563c0 .042969.027344.070312.070313.070312h.617187c.71875 0 1.296875-.589843 1.296875-1.292969v-9.519531c0 .714844-.578125 1.292969-1.296875 1.292969h-.039063zm0 0" fill="#073042"/></svg>