<svg height="18" viewBox="0 0 18 18" width="18" xmlns="http://www.w3.org/2000/svg"><path d="m12.390625 13.648438h4.605469l-.25.554687c-.878906 1.785156-2.191406 3.183594-3.867188 3.636719l-.488281.09375zm-5.933594 0h5.148438v4.339843h-.074219c-.46875-.015625-.964844-.101562-1.480469-.269531-1.121093-.363281-1.125-.371094-2.179687-.003906-.421875.148437-.832032.234375-1.226563.273437l-.1875.007813zm-5.425781 0h4.640625v4.3125l-.164063-.019532c-1.855468-.324218-3.316406-1.859375-4.265624-3.820312zm11.359375-6.023438h5.554687l.039063.464844c.070313 1.378906-.109375 2.847656-.511719 4.222656l-.175781.546875h-4.90625zm-5.933594 0h5.148438v5.234375h-5.148438zm-6.4023435 0h5.6171875v5.234375h-4.949219l-.195312-.601563c-.449219-1.53125-.621094-3.15625-.4765628-4.597656zm3.5625005-4.292969c.484374-.011719 1.019531.066407 1.609374.25l.445313.152344v3.105469h-5.496094l.125-.546875c.484375-1.714844 1.554688-2.925781 3.316407-2.960938zm7.988281-.636719v4.144532h-5.148438v-2.761719l.1875.089844c.359375.1875.710938.386719 1.050781.605469 1.238282-.890626 2.351563-1.503907 3.351563-1.890626zm2.09375-.320312c2.289062.09375 3.601562 1.832031 4.085937 4.121094l.058594.34375h-5.453125v-4.351563l.066406-.015625c.441407-.082031.855469-.113281 1.242188-.097656zm-8.839844-2.37109375h2.613281c.1875 0 .308594.07421875.359375.21874975.035157.109375-.082031 1.359375-.359375 3.757813-1.859375-2.402344-2.804687-3.648438-2.835937-3.742188-.027344-.074219-.011719-.132812.042969-.175781.046874-.0390625.105468-.05859375.179687-.05859375" fill="#24a148"/><path d="m2.875 9.289062-.464844 1.203126h.976563zm5.839844-.355468v1.109375h.457031c.003906.003906.015625.003906.023437.003906h.019532c.121094 0 .230468-.011719.320312-.03125.09375-.023437.167969-.054687.230469-.09375.0625-.042969.109375-.101563.140625-.171875.035156-.070312.050781-.15625.050781-.25 0-.101562-.015625-.1875-.050781-.257812-.027344-.070313-.078125-.128907-.140625-.171876-.0625-.042968-.144531-.074218-.253906-.09375-.105469-.023437-.238281-.035156-.390625-.035156zm4.488281-.472656h2.105469v.453124h-.328125c-.046875.007813-.09375.015626-.136719.027344-.039062.011719-.070312.027344-.09375.046875-.019531.015625-.035156.042969-.046875.074219-.011719.039062-.019531.082031-.015625.121094v2.457031h.753906c.191406.003906.347656-.019531.460938-.074219.113281-.054687.195312-.136718.238281-.246094.042969-.117187.074219-.238281.09375-.363281.019531-.136719.035156-.28125.035156-.4375l.519531-.011719v1.601563h-3.585937v-.449219h.285156c.007813.003906.015625.007813.023438.007813h.015625c.042968 0 .082031-.007813.113281-.015625.035156-.007813.058594-.023438.078125-.039063.023438-.019531.039062-.046875.050781-.078125.007813-.039062.015625-.078125.015625-.121094v-2.242187c0-.039063-.007812-.074219-.015625-.109375-.011719-.027344-.027343-.054688-.050781-.074219-.027344-.023437-.058594-.035156-.089844-.046875-.046875-.011718-.09375-.015625-.140625-.015625l-.285156-.011719zm-5.96875 0h2.40625c.207031.007812.390625.035156.546875.082031.15625.042969.289062.109375.394531.199219.105469.085937.1875.195312.238281.320312.054688.128906.082032.277344.082032.449219 0 .167969-.027344.316406-.082032.441406-.058593.128906-.144531.238281-.257812.320313-.109375.082031-.253906.144531-.425781.1875-.175781.042968-.375.0625-.605469.0625l-.816406-.011719v.890625c0 .054687.007812.09375.019531.128906.007813.035156.027344.0625.046875.082031.023438.015625.054688.03125.089844.039063.039062.007812.085937.015625.140625.015625l.34375-.011719v.453125h-2.121094v-.449219h.285156c.007813.003906.015625.007813.023438.007813h.015625c.042968 0 .082031-.007813.113281-.015625.03125-.007813.054687-.019532.078125-.039063.019531-.019531.039062-.046875.046875-.078125.011719-.03125.019531-.074218.019531-.121094v-2.242187c0-.039063-.007812-.074219-.019531-.109375-.007813-.027344-.023437-.054688-.046875-.074219-.027344-.023437-.058594-.035156-.089844-.046875-.046875-.011718-.09375-.015625-.140625-.015625l-.285156-.011719zm-4.589844 0h.832031l1.136719 2.621093c.007813.019531.011719.03125.015625.046875.003906.011719.007813.023438.015625.035156.003907.015626.007813.027344.015625.039063.003906.007813.007813.019531.011719.03125.007813.011719.011719.023437.015625.03125.003906.011719.011719.023437.019531.035156.003907.011719.007813.019531.011719.03125.007812.007813.011719.015625.015625.023438.027344.054687.058594.101562.09375.140625.035156.039062.070313.070312.105469.09375.042968.027344.089844.042968.152344.054687.058593.011719.132812.015625.222656.015625v.449219h-2.023438v-.460937h.191406c.003907.003906.011719.007812.015626.007812h.042968c.039063 0 .074219-.003906.105469-.007812.027344-.007813.054687-.011719.074219-.019532.023437-.007812.042968-.023437.058594-.042968.011718-.019532.019531-.042969.019531-.066407 0-.019531-.003907-.039062-.003907-.058593-.007812-.023438-.011718-.046876-.019531-.066407-.007812-.023437-.015625-.046875-.023437-.070312-.007813-.023438-.015625-.046875-.023438-.074219l-.011718-.019531-.023438-.046875c-.003906-.007813-.007812-.015625-.007812-.027344-.015626-.03125-.03125-.0625-.046876-.097656-.003906-.015625-.011718-.03125-.019531-.046875-.003906-.011719-.011719-.027344-.015625-.039063v-.011718h-1.363281c-.003906.007812-.007813.019531-.011719.027343-.003906.007813-.003906.015625-.003906.023438-.003906.007812-.007812.015625-.011719.027343l-.011719.019532c-.007812.03125-.015624.0625-.03125.089844-.003906.011718-.007812.019531-.015624.03125-.003907.011718-.007813.023437-.011719.03125-.003907.003906-.007813.011718-.007813.015624-.003906.003907-.003906.007813-.003906.011719l-.007812.019531c-.003907.003907-.003907.007813-.003907.015626-.007812.019531-.019531.042968-.023437.066406-.003906.019531-.011719.042968-.019532.0625l-.011718.066406c-.003906.019531-.003906.039062-.003906.0625s.003906.046875.011718.066406c.011719.019532.027344.035156.046875.042969.019531.003906.050781.011719.089844.015625.042969.003906.09375.003906.15625.003906l.160156-.011718v.460937h-1.625v-.460937c.003907.003906.007813.007812.015625.007812h.039063c.058593 0 .113281-.003906.164062-.011719.046875-.007812.089844-.019531.125-.03125.042969-.019531.078125-.050781.117188-.09375.035156-.042969.070312-.101562.101562-.171875.015625-.03125.03125-.0625.046875-.097656l.007813-.019531c.003906-.011719.007812-.019531.011719-.027344l.023437-.046875v-.007812s0-.003907.003906-.007813h.003907c0-.003906.003906-.007813.003906-.011719 0 0 0-.003906 0-.007812.003906-.003906.007812-.007813.007812-.011719.007813-.011719.015625-.023437.019532-.03125 0-.007813.007812-.019531.015624-.03125l.011719-.027344c.007813-.007812.011719-.019531.015625-.03125.011719-.019531.019532-.039062.027344-.058593.011719-.023438.019531-.046876.027344-.066407zm0 0" fill="#defbe6"/></svg>