<svg height="18" viewBox="0 0 18 18" width="18" xmlns="http://www.w3.org/2000/svg"><path d="m17.644531 15.730469-8.121093-14.066407c-.109376-.1875-.308594-.300781-.523438-.300781s-.414062.113281-.523438.300781l-8.121093 14.066407c-.109375.1875-.109375.398437 0 .582031.109375.1875.304687.28125.523437.28125h16.242188c.21875 0 .414062-.09375.523437-.28125.109375-.183594.109375-.394531 0-.582031m-5.167969-1.132813.023438-.609375-2.34375.414063-.105469-.101563.027344-.800781h-.058594s-.644531 1.0625-2.066406 1.0625c-1.054687 0-2.050781-.421875-2.050781-2.132812 0-1.730469 1.300781-2.304688 2.664062-2.304688h1.417969v-.710938c0-.6875-.457031-1.085937-1.3125-1.085937-.964844 0-2.113281.152344-2.113281.152344l-.089844-.105469v-1.164062s1.230469-.152344 2.5-.152344c1.164062 0 2.5625.308594 2.5625 2.019531v3.941406l.789062-.148437-.214843-.570313 1.953125.855469zm-5.089843-2.285156c0 .796875.550781.96875 1.085937.96875.503906 0 1.089844-.136719 1.511719-.761719v-1.269531h-1.019531c-1.042969 0-1.578125.238281-1.578125 1.0625" fill="#ac162c"/></svg>