<svg height="18" viewBox="0 0 18 18" width="18" xmlns="http://www.w3.org/2000/svg"><path d="m13.769531 9.546875c.023438 2.644531 2.316407 3.523437 2.34375 3.535156-.019531.0625-.367187 1.253907-1.210937 2.484375-.726563 1.0625-1.484375 2.125-2.671875 2.144532-1.171875.023437-1.546875-.691407-2.882813-.691407-1.339844 0-1.757812.671875-2.863281.714844-1.148437.042969-2.023437-1.152344-2.757813-2.210937-1.5-2.167969-2.648437-6.128907-1.109374-8.804688.765624-1.324219 2.132812-2.167969 3.617187-2.1875 1.125-.023438 2.191406.757812 2.882813.757812.6875 0 1.984374-.9375 3.34375-.800781.570312.023438 2.167968.230469 3.195312 1.734375-.082031.050782-1.90625 1.113282-1.886719 3.324219m-2.199219-6.492187c.609376-.738282 1.019532-1.765626.90625-2.789063-.878906.035156-1.941406.585937-2.570312 1.324219-.566406.652344-1.0625 1.699218-.929688 2.703125.980469.074219 1.984376-.5 2.59375-1.238281"/></svg>