<svg height="18" viewBox="0 0 18 18" width="18" xmlns="http://www.w3.org/2000/svg"><g fill="none" stroke="#fff" stroke-linecap="round" stroke-linejoin="round" stroke-width="2" transform="scale(.75)"><path d="m12 20.9375c1.5 0 2.75 1.0625 4 1.0625 3 0 6-8 6-12.21875-.072917-2.697917-2.302083-4.833333-5-4.78125-2.21875 0-4 1.4375-5 2-1-.5625-2.78125-2-5-2-2.697917-.057292-4.932292 2.083333-5 4.78125 0 4.21875 3 12.21875 6 12.21875 1.25 0 2.5-1.0625 4-1.0625"/><path d="m10 2c1 .5 2 2 2 5"/></g></svg>