<svg height="18" viewBox="0 0 18 18" width="18" xmlns="http://www.w3.org/2000/svg"><g fill="#1791cf"><path d="m8.59375.6875c-.742188 1.8125-1.191406 3-2.019531 4.761719.507812.535156 1.128906 1.160156 2.140625 1.863281-1.085938-.445312-1.828125-.894531-2.382813-1.355469-1.0625 2.199219-2.722656 5.332031-6.09375 11.355469 2.648438-1.519531 4.703125-2.457031 6.617188-2.816406-.085938-.367188-.128907-.746094-.125-1.128906l.003906-.082032c.039063-1.6875.921875-2.988281 1.96875-2.898437 1.046875.085937 1.859375 1.527343 1.816406 3.214843-.007812.320313-.042969.625-.105469.90625 1.894532.371094 3.925782 1.304688 6.539063 2.804688-.515625-.941406-.976563-1.792969-1.414063-2.601562-.691406-.535157-1.414062-1.230469-2.886718-1.980469 1.011718.261719 1.738281.5625 2.300781.902343-4.464844-8.273437-4.828125-9.371093-6.359375-12.945312m0 0" fill-rule="evenodd"/><path d="m17.035156 15.832031v-.457031h-.171875v-.0625h.414063v.0625h-.171875v.457031zm.3125 0v-.519531h.105469l.121094.367188c.011719.035156.019531.058593.023437.074218.007813-.015625.015625-.042968.03125-.082031l.121094-.359375h.09375v.519531h-.066406v-.433593l-.152344.433593h-.0625l-.148438-.441406v.441406zm0 0"/></g></svg>