<svg height="18" viewBox="0 0 18 18" width="18" xmlns="http://www.w3.org/2000/svg"><g fill="#00979c" fill-rule="evenodd"><path d="m.0429688 9.351562v-1.351562c.0273437-.011719.0273437-.039062.0273437-.070312.4218755-1.839844 1.5742185-2.953126 3.4023435-3.386719.15625-.042969.324219-.027344.480469-.085938h.898437c.015626.027344.054688.015625.085938.015625.898438.097656 1.714844.421875 2.429688.984375.621093.464844 1.097656 1.054688 1.535156 1.6875.054687.082031.082031.082031.140625 0 .253906-.367187.519531-.71875.828125-1.042969.746094-.800781 1.644531-1.363281 2.742187-1.558593.15625-.042969.339844-.027344.492188-.085938h.871093c.015626.027344.042969.015625.070313.015625.269531.027344.523437.082032.773437.152344 1.886719.550781 3.222657 2.28125 3.109376 4.234375-.085938 1.644531-.914063 2.828125-2.363282 3.570313-.714844.394531-1.503906.492187-2.320312.480468-1.066406-.015625-1.996094-.378906-2.796875-1.082031-.5625-.492187-1-1.085937-1.40625-1.703125-.058594-.085938-.085938-.070312-.140625.015625-.253906.378906-.519532.757813-.832032 1.125-.546874.617187-1.179687 1.125-1.96875 1.390625-.96875.335938-1.953124.351562-2.9375.085938-1.421874-.410157-2.390624-1.308594-2.925781-2.6875-.082031-.226563-.125-.476563-.1953122-.703126m4.4726562 2.066407c.800781.027343 1.488281-.238281 2.078125-.785157.605469-.5625 1.042969-1.265624 1.476562-1.957031.015626-.042969.015626-.070312-.011718-.113281-.367188-.574219-.746094-1.152344-1.253906-1.628906-.96875-.929688-2.109376-1.238282-3.386719-.832032-1.054688.351563-1.730469 1.097657-1.886719 2.222657-.152344 1.054687.253906 1.898437 1.097656 2.53125.5625.410156 1.195313.578125 1.886719.5625m8.914063 0c.308593 0 .617187-.011719.914062-.097657 1.109375-.335937 1.84375-1.027343 2.054688-2.179687.210937-1.140625-.226563-2.054687-1.183594-2.699219-1.054688-.730468-2.585938-.660156-3.65625.140625-.714844.535157-1.195313 1.25-1.671875 1.996094-.027344.042969-.015625.070313 0 .113281.378906.605469.757812 1.207032 1.25 1.730469.621093.660156 1.363281 1.039063 2.292969.996094m0 0"/><path d="m4.5 8.226562c.449219 0 .914062.015626 1.363281 0 .113281 0 .128907.027344.128907.140626-.015626.125-.015626.253906 0 .378906.011718.113281-.015626.140625-.140626.140625h-1.800781c-.308593 0-.621093-.011719-.929687 0-.097656 0-.125-.027344-.125-.140625.011718-.125.011718-.253906 0-.394532 0-.097656.027344-.125.125-.125.449218.015626.914062 0 1.378906 0m8.859375-.898437c.113281 0 .226563.011719.324219 0 .070312 0 .097656.027344.097656.097656-.015625.195313 0 .394531-.015625.589844 0 .097656.03125.125.128906.125.183594-.011719.378907 0 .574219-.011719.085938 0 .113281.011719.113281.113282v.644531c0 .070312-.027343.097656-.097656.097656-.195313-.011719-.394531 0-.605469-.011719-.082031 0-.113281.027344-.113281.113282.015625.195312 0 .390624.015625.589843 0 .082031-.027344.125-.113281.125-.210938-.011719-.421875-.011719-.632813 0-.082031 0-.113281-.027343-.113281-.113281.015625-.210938 0-.40625.015625-.617188 0-.070312-.027344-.097656-.097656-.097656-.199219.011719-.394532 0-.589844.011719-.113281 0-.128906-.039063-.128906-.125 0-.195313.015625-.394531 0-.589844-.011719-.113281.042968-.140625.140625-.140625.199219.011719.378906 0 .578125.011719.070312 0 .097656-.027344.097656-.097656-.015625-.195313 0-.40625-.015625-.605469 0-.082031.03125-.109375.113281-.109375.113282.011719.210938 0 .324219 0m4.199219-3.886719c-.019532.027344-.027344.039063-.03125.046875-.035156.050781-.007813.15625-.09375.152344-.078125 0-.058594-.09375-.085938-.148437-.003906-.011719-.015625-.023438-.039062-.0625 0 .070312.003906.109374 0 .152343 0 .027344.007812.058594-.035156.0625-.046876.003907-.042969-.03125-.042969-.058593 0-.097657 0-.191407 0-.289063 0-.03125-.007813-.066406.042969-.070313.039062 0 .074218 0 .089843.046876.019531.0625.027344.128906.074219.1875.042969-.054688.050781-.121094.066406-.179688.015625-.050781.046875-.054688.085938-.054688.050781 0 .046875.035157.046875.070313v.285156c0 .027344.003906.0625-.039063.0625-.042968 0-.039062-.035156-.039062-.0625-.003906-.039062 0-.078125 0-.140625m-.523438-.214844c.011719 0 .027344-.003906.035156 0 .046876.007813.117188-.027343.132813.027344.019531.078125-.058594.039063-.09375.054688s-.027344.046875-.027344.074218c-.003906.066407 0 .132813 0 .199219 0 .035157-.007812.066407-.054687.0625-.042969 0-.042969-.03125-.042969-.058593 0-.0625 0-.125 0-.1875.003906-.050782.003906-.101563-.074219-.09375-.023437 0-.046875-.007813-.046875-.039063 0-.046875.035157-.039063.0625-.039063zm0 0"/></g></svg>