<svg height="18" viewBox="0 0 18 18" width="18" xmlns="http://www.w3.org/2000/svg"><path d="m5.429688 9.417969c-.113282.238281-.210938.433593-.304688.636719-.46875 1.007812-.859375 2.046874-1.058594 3.144531-.113281.613281-.171875 1.226562-.011718 1.839843.136718.527344.421874.800782.910156.820313.210937.011719.4375-.035156.644531-.09375.550781-.15625 1.03125-.457031 1.492187-.78125.113282-.082031.226563-.128906.367188-.078125.25.09375.339844.421875.128906.578125-.753906.566406-1.554687 1.050781-2.535156 1.082031-.804688.023438-1.386719-.40625-1.640625-1.171875-.191406-.570312-.203125-1.160156-.132813-1.75.207032-1.753906.882813-3.347656 1.699219-4.894531.066407-.132812.074219-.238281.023438-.378906-.203125-.582032-.390625-1.171875-.578125-1.761719-.035156-.109375-.070313-.140625-.191406-.117187-.796876.175781-1.582032.390624-2.289063.808593-.273437.164063-.535156.363281-.753906.59375-.363281.378907-.367188.800781-.074219 1.238281.261719.378907.625.636719 1.011719.871094.117187.074219.246093.136719.367187.210938.175782.105468.234375.308594.144532.480468-.089844.167969-.292969.234376-.476563.140626-.542969-.277344-1.046875-.609376-1.449219-1.070313-.25-.285156-.429687-.601563-.492187-.980469-.074219-.46875.0625-.886718.34375-1.257812.292969-.386719.675781-.660156 1.09375-.886719.742187-.40625 1.542969-.644531 2.363281-.824219.054688-.011718.113281-.027344.1875-.046875-.039062-.21875-.078125-.429687-.113281-.644531-.132813-.871094-.195313-1.742188.019531-2.613281.082031-.339844.214844-.667969.445312-.941407.472657-.554687 1.082032-.679687 1.761719-.515624.671875.167968 1.238281.539062 1.765625.972656.148438.121094.152344.34375.03125.484375-.125.148437-.320312.167969-.488281.050781-.265625-.179688-.523437-.375-.800781-.535156-.3125-.1875-.652344-.320313-1.03125-.324219-.3125 0-.554688.128906-.734375.378906-.226563.324219-.304688.691407-.347657 1.074219-.089843.800781.015626 1.589844.171876 2.378906.015624.082032.050781.113282.136718.101563.636719-.0625 1.269532-.125 1.90625-.179688.136719-.011719.226563-.058593.3125-.167969.824219-1.042968 1.730469-2.007812 2.792969-2.8125.59375-.449218 1.222656-.839843 1.941406-1.054687.453125-.132813.910157-.183594 1.363281-.023437.570313.199218.886719.632812 1.050782 1.1875.171875.59375.144531 1.195312.074218 1.796874-.019531.15625-.042968.308594-.074218.460938-.039063.207031-.191406.320312-.398438.292969-.191406-.019531-.3125-.171875-.292968-.382813.027343-.289062.09375-.578125.097656-.871094.003906-.339843-.003906-.691406-.078125-1.027343-.148438-.691407-.625-.964844-1.335938-.808594-.53125.117187-1.003906.367187-1.453125.664063-.921875.609374-1.710937 1.367187-2.441406 2.191406-.136719.152344-.265625.308594-.398438.464844-.007812.011718-.007812.027343-.019531.066406h.191407c1.882812.019531 3.738281.242187 5.554687.765625.863281.246093 1.695313.570312 2.460937 1.050781.410157.253906.785157.546875 1.082032.929688.601562.78125.550781 1.660156-.144532 2.359374-.46875.472657-1.046874.773438-1.660156 1.003907-.175781.066406-.367187-.03125-.433594-.199219-.074218-.183594.003907-.371094.191407-.460938.285156-.140624.582031-.257812.847656-.421874.226563-.136719.433594-.300782.613281-.492188.375-.402344.390625-.839844.070313-1.285156-.238281-.335938-.558594-.582032-.90625-.796875-.851563-.53125-1.785157-.859375-2.75-1.113281-1.003907-.269532-2.023438-.453126-3.058594-.527344-.824219-.058594-1.652344-.078125-2.480469-.117188-.121094-.003906-.199218.03125-.265625.132813-.488281.75-.976562 1.492187-1.457031 2.242187-.035156.054688-.050781.152344-.027344.210938.816406 1.941406 1.851563 3.753906 3.21875 5.363281.578125.679687 1.207032 1.304687 1.96875 1.777344.355469.222656.730469.410156 1.160156.4375.394532.027343.679688-.136719.875-.46875.183594-.3125.257813-.660157.289063-1.015625.105469-1.152344-.121094-2.261719-.421875-3.359375-.308594-1.125-.746094-2.199219-1.246094-3.253907-.042968-.082031-.074218-.183593-.070312-.273437.007812-.167969.140625-.285156.300781-.3125.144531-.019531.296875.058594.367187.210937.179688.386719.363282.769532.527344 1.15625.503906 1.207032.914063 2.445313 1.128906 3.738282.148438.902344.222657 1.808594.011719 2.710937-.046875.203125-.113281.402344-.199219.59375-.355468.777344-1.078124 1.128907-1.914062.945313-.675781-.148438-1.25-.503906-1.785156-.925782-.984375-.78125-1.78125-1.730468-2.5-2.75-.824219-1.160156-1.519532-2.390624-2.101563-3.6875-.019531-.046874-.046875-.09375-.089843-.183593m-.355469-3.085938.449219 1.429688c.355468-.542969.6875-1.046875 1.042968-1.589844zm3.992187 3.691407c-.566406-.003907-1.023437-.460938-1.023437-1.019532 0-.570312.460937-1.023437 1.035156-1.023437.5625 0 1.023437.457031 1.023437 1.019531 0 .566406-.460937 1.023438-1.035156 1.023438" fill="#67595d" fill-rule="evenodd"/></svg>