<svg height="18" viewBox="0 0 18 18" width="18" xmlns="http://www.w3.org/2000/svg" xmlns:xlink="http://www.w3.org/1999/xlink"><linearGradient id="a"><stop offset="0" stop-color="#0052cc"/><stop offset="1" stop-color="#2684ff"/></linearGradient><linearGradient id="b" gradientUnits="userSpaceOnUse" x1="6.309563" x2="6.309563" xlink:href="#a" y1="4.210875" y2="12.153938"/><linearGradient id="c" gradientUnits="userSpaceOnUse" x1="6.282" x2="6.282" xlink:href="#a" y1="4.210875" y2="12.153938"/><path d="m14.644531 9.933594h-2.8125c-.175781 0-.347656.132812-.367187.308594-.152344 1.117187-1.117188 1.984374-2.273438 1.984374l.753906 3.464844c2.734376-.363281 4.871094-2.597656 5.0625-5.375.019532-.210937-.152343-.382812-.363281-.382812m-4.835937-.097656 4.042968-3.464844c.175782-.15625.175782-.40625 0-.558594l-4.042968-3.46875c-.230469-.210938-.597656-.039062-.597656.269531v6.933594c-.019532.328125.347656.5.597656.289063zm0 0" fill="#2684ff"/><path d="m3.414062 10.683594c.367188 2.851562 2.8125 5.066406 5.777344 5.066406v-3.523438c-1.269531 0-2.3125-1.023437-2.3125-2.292968zm0 0" fill="url(#b)"/><path d="m3.375 9.875v.058594h3.523438c0-1.273438 1.042968-2.292969 2.3125-2.292969l-.75-3.46875c-2.851563.367187-5.066407 2.773437-5.085938 5.703125m0 0" fill="url(#c)"/></svg>