<svg height="18" viewBox="0 0 18 18" width="18" xmlns="http://www.w3.org/2000/svg"><g fill="none" stroke="#fff" stroke-linecap="round" stroke-linejoin="round" stroke-width="2" transform="scale(.75)"><path d="m10.166667 6.598958c-.213542.880209-.526042 1.760417-1.166667 2.401042s-1.520833.953125-2.401042 1.166667c-2.958333.708333-4.921875 3.515625-4.5625 6.541666.359375 3.020834 2.921875 5.291667 5.963542 5.291667 7.734375 0 14-6.265625 14-14 0-3.041667-2.270833-5.604167-5.291667-5.963542-3.026041-.359375-5.833333 1.604167-6.541666 4.5625"/><path d="m5.338542 10.619792c.729166 1.630208 2.447916 2.583333 4.213541 2.338541 1.765625-.25 3.15625-1.640625 3.40625-3.40625.244792-1.770833-.708333-3.489583-2.338541-4.213541"/></g></svg>