<svg height="18" viewBox="0 0 18 18" width="18" xmlns="http://www.w3.org/2000/svg"><g fill="none" stroke="#fff" stroke-linecap="round" stroke-linejoin="round" stroke-width="2" transform="scale(.75)"><path d="m17 11h1c1.65625 0 3 1.34375 3 3s-1.34375 3-3 3h-1m-8-5v6m4-6v6m1-10.5c-1 0-1.4375.5-3 .5s-2-.5-3-.5-1.71875.5-2.5.5c-1.380208 0-2.5-1.119792-2.5-2.5s1.119792-2.5 2.5-2.5c.78125 0 1.567708.5 2.5.5s1.4375-1.5 3-1.5 2 1.5 3 1.5 1.71875-.5 2.5-.5c1.380208 0 2.5 1.119792 2.5 2.5s-1.119792 2.5-2.5 2.5c-.78125 0-1.5-.5-2.5-.5"/><path d="m5 8v12c0 1.104167.895833 2 2 2h8c1.104167 0 2-.895833 2-2v-12"/></g></svg>