<svg height="18" viewBox="0 0 18 18" width="18" xmlns="http://www.w3.org/2000/svg"><g fill="none" stroke="#fff" stroke-linecap="round" stroke-linejoin="round" stroke-width="2" transform="scale(.75)"><path d="m13 13v5m4-6.53125v-3.46875m0 3h1c1.015625 0 1.958333.510417 2.515625 1.359375.552083.854167.640625 1.921875.229167 2.854167m-18.744792-13.213542 20 20m-17-14v12c0 1.104167.895833 2 2 2h8c1.104167 0 2-.895833 2-2v-3"/><path d="m7.536458 7.536458c-.770833.114584-1.380208.463542-2.036458.463542-1.010417 0-1.921875-.609375-2.3125-1.541667-.385417-.9375-.171875-2.010416.546875-2.723958m4.994792-.53125c.578125-.4375 1.15625-1.203125 2.270833-1.203125 1.5625 0 2 1.5 3 1.5s1.71875-.5 2.5-.5c1.380208 0 2.5 1.119792 2.5 2.5s-1.119792 2.5-2.5 2.5c-.78125 0-1.5-.5-2.5-.5-.286458 0-.567708.041667-.84375.119792m-4.15625 6.979166v3.401042"/></g></svg>