<svg height="18" viewBox="0 0 18 18" width="18" xmlns="http://www.w3.org/2000/svg"><g fill="none" stroke="#fff" stroke-linecap="round" stroke-linejoin="round" stroke-width="2" transform="scale(.75)"><path d="m18.802083 4c.760417 1.453125 1.182292 3.203125 1.197917 5m-11 0h.010417"/><path d="m16 9c0 3.864583-3.135417 7-7 7s-7-3.135417-7-7 3.135417-7 7-7 7 3.135417 7 7zm0 0"/><path d="m6 16h6c1.104167 0 2 .895833 2 2v2c0 1.104167-.895833 2-2 2h-6c-1.104167 0-2-.895833-2-2v-2c0-1.104167.895833-2 2-2zm0 0"/><path d="m14 19c3 0 4.598958-1.598958 4.598958-1.598958"/><path d="m22 16c0 1.104167-.895833 2-2 2s-2-.895833-2-2 .895833-2 2-2 2 .895833 2 2zm0 0"/></g></svg>