<svg height="18" viewBox="0 0 18 18" width="18" xmlns="http://www.w3.org/2000/svg"><path d="m10.265625 21c.359375.619792 1.020833 1 1.734375 1s1.375-.380208 1.734375-1m1.265625-13h6m-3-3v6m2 3.463542c.229167.302083.473958.59375.739583.864583.265625.291667.333334.713542.177084 1.078125-.161459.359375-.520834.59375-.916667.59375h-16c-.395833 0-.755208-.234375-.916667-.59375-.15625-.364583-.088541-.786458.177084-1.078125 1.328125-1.369792 2.739583-2.828125 2.739583-7.328125 0-2.09375 1.088542-4.036458 2.880208-5.125 1.786459-1.088542 4.010417-1.166667 5.869792-.208333" fill="none" stroke="#fff" stroke-linecap="round" stroke-linejoin="round" stroke-width="2" transform="scale(.75)"/></svg>