<svg height="18" viewBox="0 0 18 18" width="18" xmlns="http://www.w3.org/2000/svg"><g fill="none" stroke="#fff" stroke-linecap="round" stroke-linejoin="round" stroke-width="2" transform="scale(.75)"><path d="m14 11.901042c0 1.104166-.895833 2-2 2s-2-.895834-2-2c0-1.104167.895833-2 2-2s2 .895833 2 2zm0 0"/><path d="m6.697917 3.401042c-.895834 2.5 0 5.197916 2.203125 6.697916-2.401042-1.098958-5.203125-.5-6.901042 1.5m6.901042-1.5 1.401041.802084m7-7.5c.895834 2.5 0 5.197916-2.203125 6.697916 2.401042-1.197916 5.203125-.598958 6.901042 1.5m-6.901042-1.5-1.401041.802084m3 9.901041c-2.598959-.401041-4.598959-2.604166-4.697917-5.302083-.197917 2.598958-2.098958 4.802083-4.697917 5.197917m4.697917-6.796875v1.598958m1.5-10.098958c-1-.203125-2-.203125-3 0m6.5 11c.697917-.703125 1.197917-1.598959 1.5-2.5m-13 0c.302083.901041.802083 1.796875 1.5 2.5"/></g></svg>