<svg height="18" viewBox="0 0 18 18" width="18" xmlns="http://www.w3.org/2000/svg"><path d="m9.328125 9.847656c.035156-.597656.328125-1.121094.769531-1.496094.4375-.363281 1.019532-.589843 1.664063-.589843.636719 0 1.21875.226562 1.65625.589843.441406.375.734375.898438.769531 1.496094.035156.613282-.214844 1.183594-.648438 1.605469-.441406.429687-1.070312.699219-1.777343.699219-.710938 0-1.339844-.269532-1.78125-.699219-.4375-.421875-.683594-.988281-.648438-1.601563zm0 0" fill="#235785"/><path d="m5.519531 11.109375c.003907.234375.078125.6875.191407 1.042969.234374.75.636718 1.441406 1.191406 2.050781.574218.628906 1.277344 1.132813 2.089844 1.492187.855468.375 1.78125.566407 2.742187.566407s1.890625-.195313 2.742187-.574219c.8125-.363281 1.519532-.867188 2.089844-1.5.558594-.613281.957032-1.308594 1.195313-2.058594.117187-.375.191406-.757812.222656-1.148437.03125-.378907.015625-.761719-.035156-1.140625-.105469-.738282-.367188-1.441406-.761719-2.070313-.363281-.582031-.832031-1.089843-1.390625-1.519531l-5.617187-4.292969c-.007813-.003906-.011719-.007812-.015626-.011719-.367187-.28125-.992187-.277343-1.394531.003907-.410156.285156-.457031.757812-.09375 1.054687l2.347657 1.894532-7.144532.007812h-.007812c-.589844 0-1.160156.386719-1.269532.875-.117187.496094.285157.90625.898438.90625v.003906l3.621094-.007812-6.476563 4.921875c-.007812.003906-.015625.011719-.023437.019531-.6132815.460938-.808594 1.234375-.425782 1.71875.390626.496094 1.21875.5 1.835938.003906l3.523438-2.871094s-.050782.390626-.046876.621094zm9.078125 1.296875c-.726562.734375-1.746094 1.15625-2.84375 1.15625-1.101562 0-2.121094-.414062-2.847656-1.148438-.355469-.359374-.617188-.769531-.777344-1.207031-.160156-.429687-.21875-.890625-.179687-1.351562.039062-.445313.171875-.878907.390625-1.269531.210937-.382813.503906-.726563.863281-1.023438.707031-.570312 1.605469-.882812 2.546875-.882812s1.839844.308593 2.546875.878906c.359375.292968.652344.636718.863281 1.019531.222656.390625.355469.824219.390625 1.269531.042969.457032-.019531.917969-.175781 1.351563-.164062.441406-.421875.851562-.78125 1.210937zm0 0" fill="#e87500"/></svg>