<svg height="18" viewBox="0 0 18 18" width="18" xmlns="http://www.w3.org/2000/svg"><path d="m17 10c.697917-.697917 1.6875 0 2.5 0 1.380208 0 2.5-1.119792 2.5-2.5s-1.119792-2.5-2.5-2.5c-.276042 0-.5-.223958-.5-.5 0-1.380208-1.119792-2.5-2.5-2.5s-2.5 1.119792-2.5 2.5c0 .8125.697917 1.802083 0 2.5l-7 7c-.697917.697917-1.6875 0-2.5 0-1.380208 0-2.5 1.119792-2.5 2.5s1.119792 2.5 2.5 2.5c.28125 0 .5.21875.5.5 0 1.380208 1.119792 2.5 2.5 2.5s2.5-1.119792 2.5-2.5c0-.8125-.697917-1.802083 0-2.5zm0 0" fill="none" stroke="#fff" stroke-linecap="round" stroke-linejoin="round" stroke-width="2" transform="scale(.75)"/></svg>