<svg height="18" viewBox="0 0 18 18" width="18" xmlns="http://www.w3.org/2000/svg"><g fill="none" stroke="#fff" stroke-linecap="round" stroke-linejoin="round" stroke-width="2" transform="scale(.75)"><path d="m18 6v-2c0-1.104167-.895833-2-2-2s-2 .895833-2 2v2m6 9v6c0 .552083-.447917 1-1 1h-12.5c-1.380208 0-2.5-1.119792-2.5-2.5s1.119792-2.5 2.5-2.5h13.5"/><path d="m4 19.5v-15c0-1.380208 1.119792-2.5 2.5-2.5h3.5"/><path d="m13 6h6c.552083 0 1 .447917 1 1v3c0 .552083-.447917 1-1 1h-6c-.552083 0-1-.447917-1-1v-3c0-.552083.447917-1 1-1zm0 0"/></g></svg>