<svg height="18" viewBox="0 0 18 18" width="18" xmlns="http://www.w3.org/2000/svg"><g fill="none" stroke="#fff" stroke-linecap="round" stroke-linejoin="round" stroke-width="2" transform="scale(.75)"><path d="m15 7.130208v-1.130208c0-1.21875-.739583-2.3125-1.864583-2.776042-1.130209-.458333-2.421875-.192708-3.276042.677084l-1.859375-1.901042m6.119792 1.880208 1.880208-1.880208"/><path d="m22 13h-4v-2c0-2.208333-1.791667-4-4-4h-1.302083"/><path d="m20.96875 5c0 2.098958-1.598958 3.802083-3.5 4m-15.46875-7 20 20m-14.302083-14.302083c-1.072917.755208-1.708334 1.989583-1.697917 3.302083v3c-.010417 2.692708 1.78125 5.0625 4.375 5.791667 2.59375.734375 5.359375-.359375 6.755208-2.661459m-5.130208 2.869792v-8m-6 1h-4"/><path d="m3 21c0-2.098958 1.697917-3.901042 3.802083-4"/></g></svg>