<svg height="18" viewBox="0 0 18 18" width="18" xmlns="http://www.w3.org/2000/svg"><g fill="none" stroke="#fff" stroke-linecap="round" stroke-linejoin="round" stroke-width="2" transform="scale(.75)"><path d="m8 2 1.880208 1.880208m4.239584 0 1.880208-1.880208m-7 5.130208v-1c-.046875-1.104166.510417-2.145833 1.458333-2.713541.947917-.567709 2.135417-.567709 3.083334 0 .947916.567708 1.505208 1.609375 1.458333 2.713541v1"/><path d="m12 20c-3.302083 0-6-2.697917-6-6v-3c0-2.208333 1.791667-4 4-4h4c2.208333 0 4 1.791667 4 4v3c0 3.302083-2.697917 6-6 6m0 0v-9"/><path d="m6.53125 9c-1.932292-.197917-3.53125-1.901042-3.53125-4m3 8h-4m1 8c0-2.098958 1.697917-3.901042 3.802083-4m14.166667-12c0 2.098958-1.598958 3.802083-3.5 4m4.53125 4h-4m-.802083 4c2.104166.098958 3.802083 1.901042 3.802083 4"/></g></svg>