<svg height="18" viewBox="0 0 18 18" width="18" xmlns="http://www.w3.org/2000/svg"><path d="m15.996094 5.90625c-.039063-.039062-.074219-.074219-.113282-.109375-.039062-.035156-.074218-.074219-.113281-.109375-.039062-.03125-.074219-.070312-.113281-.105469-.035156-.035156-.074219-.074219-.109375-.109375-.039063-.035156-.074219-.074218-.113281-.109375-.039063-.035156-.074219-.074219-.113282-.109375-.039062-.035156-.074218-.074218-.113281-.105468 1.117188 1.054687 1.757813 2.496093 1.78125 4.003906 0 3.59375-3.785156 6.519531-8.4375 6.519531-2.605469 0-4.9375-.917969-6.488281-2.355469l.113281.109375.113281.105469.113282.109375.109375.109375.113281.109375.113281.105469.113281.109375c1.546876 1.5 3.929688 2.464843 6.597657 2.464843 4.652343 0 8.4375-2.925781 8.4375-6.507812 0-1.53125-.683594-2.984375-1.890625-4.125"/><path d="m16.425781 9.152344c0 3.300781-3.527343 5.976562-7.875 5.976562-4.351562 0-7.875-2.675781-7.875-5.976562 0-2.046875 1.347657-3.855469 3.421875-4.925782 2.078125-1.070312 3.367188-2.167968 4.453125-2.167968 1.082031 0 2.011719.894531 4.449219 2.167968 2.074219 1.070313 3.425781 2.878907 3.425781 4.925782" fill="#fbf0df"/><path d="m16.425781 9.152344c0-.425782-.0625-.847656-.179687-1.253906-.617188 7.222656-9.753906 7.570312-13.347656 5.410156 1.613281 1.207031 3.609374 1.847656 5.652343 1.820312 4.339844 0 7.875-2.679687 7.875-5.976562" fill="#f6dece"/><path d="m5.519531 3.828125c1.003907-.578125 2.34375-1.671875 3.65625-1.671875-.203125-.066406-.414062-.097656-.625-.097656-.546875 0-1.125.269531-1.855469.675781-.253906.144531-.519531.304687-.796874.46875-.527344.3125-1.125.664063-1.800782 1.019531-2.140625 1.117188-3.421875 2.960938-3.421875 4.929688v.257812c1.363281-4.644531 3.839844-5 4.84375-5.582031" fill="#fffefc"/><path d="m7.902344 2.605469c.003906.515625-.109375 1.023437-.328125 1.488281-.21875.46875-.539063.882812-.9375 1.21875-.066407.054688-.015625.15625.066406.128906.757813-.285156 1.78125-1.136718 1.351563-2.851562-.019532-.097656-.152344-.074219-.152344.015625m.511718 0c.273438.429687.449219.917969.511719 1.421875.0625.507812.011719 1.019531-.152343 1.5-.027344.078125.070312.140625.125.078125.492187-.605469.921874-1.8125-.363282-3.113281-.066406-.058594-.167968.027343-.121094.105468zm.621094-.035157c.425782.289063.789063.671876 1.054688 1.113282.265625.4375.433594.929687.484375 1.4375 0 .019531.003906.035156.015625.050781.023437.03125.066406.039063.101562.015625.015625-.007812.027344-.023438.03125-.042969.207032-.757812.089844-2.046875-1.613281-2.71875-.089844-.035156-.148437.082031-.074219.132813zm-4.15625 2.253907c.511719-.144531.984375-.394531 1.394532-.734375.402343-.332032.730468-.746094.960937-1.21875.042969-.078125.171875-.046875.148437.039062-.386718 1.738282-1.691406 2.101563-2.5 2.050782-.085937.003906-.082031-.113282-.003906-.136719" fill="#ccbea7"/><path d="m8.550781 15.671875c-4.652343 0-8.4375-2.925781-8.4375-6.519531 0-2.171875 1.390625-4.195313 3.71875-5.40625.675781-.347656 1.253907-.699219 1.769531-1.003906.28125-.167969.550782-.328126.808594-.476563.789063-.449219 1.464844-.75 2.140625-.75s1.265625.257813 2 .679687c.226563.125.453125.257813.691407.40625.5625.335938 1.195312.710938 2.027343 1.144532 2.328125 1.210937 3.71875 3.234375 3.71875 5.40625 0 3.59375-3.785156 6.519531-8.4375 6.519531m0-13.613281c-.546875 0-1.125.269531-1.855469.675781-.253906.144531-.519531.304687-.796874.46875-.527344.3125-1.125.664063-1.800782 1.019531-2.140625 1.117188-3.421875 2.960938-3.421875 4.929688 0 3.296875 3.53125 5.976562 7.875 5.976562 4.339844 0 7.875-2.679687 7.875-5.976562 0-1.96875-1.28125-3.8125-3.425781-4.925782-.851562-.433593-1.515625-.839843-2.050781-1.164062-.246094-.144531-.472657-.277344-.675781-.398438-.683594-.390624-1.179688-.605468-1.722657-.605468"/><path d="m10.136719 10.734375c-.101563.402344-.332031.757813-.65625 1.023437-.25.230469-.566407.375-.902344.40625-.34375-.027343-.671875-.171874-.929687-.40625-.320313-.265624-.546876-.625-.644532-1.023437-.003906-.023437-.003906-.046875.003906-.070313.007813-.019531.023438-.042968.039063-.058593.035156-.035157.085937-.050781.136719-.046875h2.773437c.050781-.003906.097657.011718.132813.046875.035156.035156.054687.082031.046875.128906" fill="#b71422"/><path d="m7.648438 11.773438c.257812.238281.582031.382812.929687.414062.34375-.03125.667969-.175781.921875-.414062.082031-.070313.15625-.148438.226562-.230469-.140624-.152344-.308593-.273438-.496093-.359375-.191407-.085938-.398438-.136719-.605469-.140625-.222656.003906-.445312.0625-.640625.167969-.195313.101562-.359375.25-.484375.433593.050781.046875.097656.089844.148438.128907" fill="#ff6164"/><path d="m7.6875 11.605469c.109375-.140625.253906-.253907.417969-.332031.164062-.078126.339843-.121094.523437-.121094.335938.007812.65625.140625.898438.367187.054687-.054687.101562-.109375.148437-.167969-.285156-.261718-.664062-.410156-1.058593-.417968-.210938 0-.417969.046875-.609376.136718-.1875.085938-.355468.214844-.492187.375.054687.054688.109375.109376.171875.160157"/><path d="m8.570312 12.296875c-.371093-.03125-.722656-.183594-1-.433594-.351562-.285156-.59375-.667969-.699218-1.097656-.007813-.039063-.007813-.078125.003906-.113281.007812-.039063.027344-.074219.054688-.101563.027343-.039062.066406-.066406.113281-.085937.042969-.019532.089843-.027344.140625-.027344h2.773437c.050781 0 .097657.007812.140625.027344.042969.019531.082032.046875.113282.085937.027343.027344.046874.0625.054687.101563.011719.035156.011719.074218.003906.113281-.105469.429687-.351562.8125-.699219 1.097656-.277343.25-.628906.402344-1 .433594m-1.386718-1.605469c-.039063 0-.046875.015625-.050782.019532.097657.371093.3125.703124.617188.945312.222656.214844.511719.347656.820312.382812.308594-.035156.59375-.167968.820313-.378906.304687-.242187.519531-.574218.613281-.945312-.003906-.007813-.011718-.011719-.019531-.015625-.007813-.003907-.015625-.003907-.027344-.003907zm0 0"/><path d="m11.972656 10.871094c.730469 0 1.316406-.335938 1.316406-.746094 0-.414062-.585937-.746094-1.316406-.746094-.726562 0-1.3125.332032-1.3125.746094 0 .410156.585938.746094 1.3125.746094zm-6.808594 0c.726563 0 1.316407-.335938 1.316407-.746094 0-.414062-.589844-.746094-1.316407-.746094-.726562 0-1.316406.332032-1.316406.746094 0 .410156.589844.746094 1.316406.746094zm0 0" fill="#febbd0"/><path d="m5.78125 9.824219c.246094 0 .484375-.070313.691406-.199219.203125-.128906.359375-.316406.457032-.535156.09375-.21875.117187-.460938.070312-.691406-.046875-.234376-.164062-.449219-.335938-.613282-.175781-.167968-.398437-.28125-.636718-.328125-.242188-.046875-.488282-.023437-.714844.066407-.226562.089843-.421875.242187-.558594.441406-.136718.195312-.207031.425781-.207031.664062 0 .316406.128906.621094.359375.84375.234375.226563.546875.351563.875.351563m5.574219 0c.246093.003906.484375-.066407.691406-.195313.203125-.128906.363281-.316406.460937-.535156.09375-.21875.121094-.460938.074219-.691406-.046875-.234375-.164062-.449219-.335937-.617188-.175782-.167968-.398438-.28125-.636719-.328125s-.488281-.023437-.71875.066407c-.222656.089843-.417969.242187-.554687.441406-.136719.195312-.210938.425781-.210938.664062 0 .316406.128906.617188.359375.84375.230469.222656.542969.351563.871094.351563"/><path d="m5.398438 8.703125c.09375.003906.183593-.023437.261718-.074219.074219-.046875.136719-.117187.171875-.199218.035157-.082032.042969-.171876.027344-.261719-.019531-.085938-.0625-.167969-.125-.230469-.066406-.0625-.152344-.105469-.242187-.121094-.089844-.019531-.183594-.007812-.269532.023438-.082031.035156-.15625.089844-.207031.167968-.050781.070313-.078125.160157-.078125.246094 0 .121094.046875.234375.132812.320313.089844.082031.207032.128906.328126.128906zm5.574218 0c.09375.003906.183594-.023437.261719-.074219.074219-.046875.136719-.117187.171875-.199218.035156-.082032.042969-.171876.027344-.261719-.019532-.085938-.0625-.167969-.128906-.230469-.066407-.0625-.148438-.105469-.238282-.121094-.089844-.019531-.183594-.007812-.269531.023438-.082031.035156-.15625.089844-.207031.167968-.050782.070313-.082032.160157-.082032.246094 0 .121094.050782.234375.136719.316406.085938.085938.203125.132813.324219.132813zm0 0" fill="#fff"/></svg>