<svg height="18" viewBox="0 0 18 18" width="18" xmlns="http://www.w3.org/2000/svg"><g stroke="#fff" stroke-linecap="round" stroke-linejoin="round" stroke-width="1.5" transform="scale(.140625)"><path d="m115.388889 30.694444-48.277778-27.805555c-.805555-.5-1.916667-.694445-3.111111-.694445s-2.305556.305556-3.111111.694445l-48 27.916667c-1.694445 1-2.888889 3.5-2.888889 5.388888v55.694445c0 1.111111.194444 2.416667 1 3.5l106.805556-62c-.611112-1.194445-1.5-2.083333-2.416667-2.694445" fill="#659ad3"/><path d="m10.694444 95.305556c.5.805555 1.194445 1.5 1.916667 1.888888l48.194445 27.916667c.805555.5 1.888888.694445 3.083333.694445 1.222222 0 2.305555-.305556 3.111111-.694445l48-27.916667c1.694444-1 2.888889-3.5 2.888889-5.388888v-55.694445c0-.916667-.083333-1.916667-.583333-2.805555zm0 0" fill="#03599c"/><path d="m85.305556 76.111111c-4.194445 7.388889-12.194445 12.388889-21.305556 12.388889-13.5 0-24.5-11-24.5-24.5s11-24.5 24.5-24.5c9.111111 0 17.111111 5 21.305556 12.5l13-7.5c-6.805556-11.888889-19.611112-20-34.305556-20-21.805556 0-39.5 17.694444-39.5 39.5s17.694444 39.5 39.5 39.5c14.611111 0 27.388889-8 34.194444-19.805556zm0 0" fill="#fff"/></g></svg>