<svg height="18" viewBox="0 0 18 18" width="18" xmlns="http://www.w3.org/2000/svg"><path d="m5.097656 2.902344c-.316406.078125-.160156.386718-.210937.558594-.132813.433593-.8125.570312-1.15625.867187-.332031.285156-.53125.621094-.789063.941406-.21875.265625-.488281.527344-.53125.832031-.050781.347657-.03125.738282.125 1.070313.195313.414063.425782.933594.753906 1.300781.25.28125.285157.375.710938.523438.132812.058594.164062.089844.347656.128906l.035156-.226562.15625-.183594c-.210937-.257813-.527343-.28125-.714843-.46875-.304688-.3125-.40625-.632813-.589844-.992188-.175781-.34375-.402344-.609375-.421875-.972656-.007812-.15625-.078125-.4375.003906-.578125.054688-.09375.316406-.210937.40625-.300781.273438-.277344.148438-.628906.464844-.886719.28125-.226563.757812-.40625 1.089844-.613281.230468-.148438.375-.199219.425781-.402344.054687-.226562-.121094-.390625-.105469-.597656m7.804688 0c.015625.207031-.160156.371094-.105469.597656.050781.203125.195313.253906.425781.402344.332032.207031.808594.386718 1.089844.613281.316406.257813.191406.609375.464844.886719.089844.089844.347656.207031.402344.300781.082031.140625.015624.421875.007812.578125-.019531.363281-.246094.628906-.421875.972656-.183594.359375-.285156.679688-.589844.992188-.1875.1875-.503906.210937-.714843.46875l.15625.183594.035156.226562c.183594-.039062.214844-.070312.347656-.128906.425781-.148438.460938-.242188.710938-.523438.328124-.367187.558593-.886718.753906-1.300781.15625-.332031.175781-.722656.125-1.070313-.042969-.304687-.3125-.566406-.53125-.832031-.257813-.320312-.457032-.65625-.789063-.941406-.34375-.296875-1.023437-.433594-1.15625-.867187-.050781-.171876.105469-.480469-.210937-.558594m-3.902344 3.238281c-1.355469 0-2.453125.414063-2.453125.929687 0 .449219 1.097656.324219 2.453125.324219 1.351562 0 2.453125.101563 2.453125-.324219 0-.515624-1.101563-.929687-2.453125-.929687m-1.222656 1.363281c-1.402344 0-2.621094.574219-3.289063 1.429688-.046875.265625-.082031.539062-.101562.808594.171875 0 3.699219-.027344 4.015625.28125l.597656.589843.597656-.589843c.3125-.308594 3.839844-.28125 4.015625-.28125-.023437-.273438-.054687-.546876-.105469-.816407-.667968-.851562-1.886718-1.421875-3.285156-1.421875zm5.835937 2.261719v.027344c-1.023437-.007813-3.730469.019531-3.980469.265625l-.601562.597656.390625.945312-.398437 4.90625c2.464843-.019531 4.472656-2.589843 4.605468-5.824218.003906-.109375-.457031-.234375-.457031-.335938 0-.085937.460937-.199218.457031-.296875-.003906-.09375-.007812-.1875-.015625-.285156m-9.230469 0c-.007812.097656-.011718.191406-.015624.285156-.003907.097657.460937.210938.460937.296875 0 .101563-.464844.226563-.457031.335938.128906 3.234375 2.136718 5.804687 4.601562 5.824218l-.398437-4.90625.003906-.007812.390625-.9375-.605469-.597656c-.25-.246094-2.957031-.273438-3.980469-.265625zm-1.421874.667969c-.597657.023437-.488282.65625-.273438 1.21875.25.652344.363281 1.335937.632812 1.976562.125.296875.304688.582032.628907.667969.019531-.371094-.039063-.46875-.269531-.746094-.191407-.234375-.144532-.554687-.265626-.816406-.160156-.34375-.183593-.691406-.320312-1.035156-.0625-.15625-.367188-.617188-.285156-.789063.140625-.292968.402344-.003906.535156.089844.1875.136719.285156.097656.515625.128906.027344.003906.15625.097656.464844.234375l-.035157-.324219c-.421874-.199218-.457031-.429687-.917968-.546874-.160156-.042969-.296875-.0625-.410156-.058594m12.074218 0c-.109375-.003906-.246094.015625-.410156.058594-.457031.117187-.492188.347656-.914062.546874l-.035157.324219c.304688-.136719.4375-.230469.464844-.234375.226563-.03125.328125.007813.511719-.128906.132812-.09375.398437-.382812.539062-.089844.082032.171875-.226562.632813-.285156.789063-.136719.34375-.164062.691406-.320312 1.035156-.121094.261719-.074219.582031-.269532.816406-.226562.277344-.285156.375-.269531.746094.328125-.085937.507813-.371094.632813-.667969.269531-.640625.382812-1.324218.632812-1.976562.214844-.5625.324219-1.195313-.277344-1.21875m-6.035156.285156-.371094.890625.371094 4.574219c.085938-1.089844.367188-4.5625.367188-4.574219zm-3.832031 3.304688c-.296875.394531-.308594.714843-.445313 1.03125-.230468.539062-.007812 1.269531.433594 1.660156.269531.238281.703125.421875 1.019531.578125.445313.214843.886719.5 1.382813.589843.109375.023438.386718.058594.296875-.152343-.042969-.101563-.359375-.203125-.449219-.253907-.367188-.203124-.722656-.464843-1.0625-.714843-.421875-.300781-.921875-.492188-1.25-.910157-.132812-.171874-.15625-.21875-.125-.414062.03125-.1875.058594-.40625.101562-.59375.042969-.210938.105469-.417969.21875-.605469zm7.664062 0-.121093.214843c.113281.1875.175781.394531.21875.605469.042968.1875.070312.40625.101562.59375.03125.195312.007812.242188-.125.414062-.328125.417969-.828125.609376-1.25.910157-.339844.25-.695312.511719-1.0625.714843-.089844.050782-.40625.152344-.449219.253907-.089843.210937.1875.175781.296875.152343.496094-.089843.9375-.375 1.382813-.589843.316406-.15625.75-.339844 1.019531-.578125.441406-.390625.664062-1.121094.433594-1.660156-.136719-.316407-.148438-.636719-.445313-1.03125zm0 0" fill="#f39914"/><path d="m9 .0976562c-1.5 0-2.722656 1.2226558-2.722656 2.7265628 0 1.5 1.222656 2.722656 2.722656 2.722656s2.722656-1.222656 2.722656-2.722656c0-1.503907-1.222656-2.7265628-2.722656-2.7265628m0 .0898438c1.453125 0 2.632812 1.183594 2.632812 2.636719 0 1.449219-1.179687 2.632812-2.632812 2.632812s-2.632812-1.179687-2.632812-2.632812 1.179687-2.636719 2.632812-2.636719m-1.226562 1.410156v2.449219h2.453124v-2.449219zm.042968.039063h.761719v.765625h-.761719zm.800782 0h.765624v.765625h-.765624zm.804687 0h.761719v.765625h-.761719zm-.421875.101562c-.15625 0-.28125.125-.28125.28125s.125.28125.28125.28125.28125-.125.28125-.28125-.125-.28125-.28125-.28125m-1.183594.703125h.761719v.761719h-.761719zm.800782 0h.765624v.761719h-.765624zm.804687 0h.761719v.761719h-.761719zm.382813.101563c-.15625 0-.28125.125-.28125.28125 0 .152343.125.28125.28125.28125.152343 0 .28125-.128907.28125-.28125 0-.15625-.128907-.28125-.28125-.28125m-1.988282.703125h.761719v.761718h-.761719zm.800782 0h.765624v.761718h-.765624zm.804687 0h.761719v.761718h-.761719zm-1.226563.097656c-.152343 0-.28125.128906-.28125.28125 0 .15625.128907.28125.28125.28125.15625 0 .28125-.125.28125-.28125 0-.152344-.125-.28125-.28125-.28125m.804688 0c-.15625 0-.28125.128906-.28125.28125 0 .15625.125.28125.28125.28125s.28125-.125.28125-.28125c0-.152344-.125-.28125-.28125-.28125m.804688 0c-.15625 0-.28125.128906-.28125.28125 0 .15625.125.28125.28125.28125s.28125-.125.28125-.28125c0-.152344-.125-.28125-.28125-.28125" fill="#162284"/></svg>