<svg height="18" viewBox="0 0 18 18" width="18" xmlns="http://www.w3.org/2000/svg"><g fill="none" stroke="#fff" stroke-linecap="round" stroke-linejoin="round" stroke-width="2" transform="scale(.75)"><path d="m3 10h18v-4c0-1.104167-.895833-2-2-2h-14c-1.104167 0-2 .895833-2 2v14c0 1.104167.895833 2 2 2h7m-4-20v4m8-4v4"/><path d="m21.291667 14.697917c-.697917-.692709-1.744792-.895834-2.651042-.515625-.302083.119791-.572917.296875-.802083.526041l-.338542.34375-.348958-.34375c-.697917-.692708-1.739584-.90625-2.651042-.526041-.302083.119791-.5625.296875-.791667.526041-.947916.942709-1 2.53125.203125 3.739584l3.588542 3.552083 3.598958-3.552083c1.203125-1.208334 1.140625-2.796875.192709-3.739584zm0 0"/></g></svg>