<svg height="18" viewBox="0 0 18 18" width="18" xmlns="http://www.w3.org/2000/svg"><g fill="none" stroke="#fff" stroke-linecap="round" stroke-linejoin="round" stroke-width="2" transform="scale(.75)"><path d="m15.197917 16.901042-.895834-.401042m.895834 2.598958-.895834.401042m1.697917-17.5v4m.901042 9.197917-.401042-.895834m.401042 6.5-.401042.895834m3-7.395834-.401042.895834m.401042 6.5-.401042-.895834m1.901042-10.302083v-4.5c0-1.104167-.895833-2-2-2h-14c-1.104167 0-2 .895833-2 2v14c0 1.104167.895833 2 2 2h6m10.697917-5.5-.895834.401042m.895834 2.598958-.895834-.401042m-17.802083-9.098958h18m-13-8v4"/><path d="m21 18c0 1.65625-1.34375 3-3 3s-3-1.34375-3-3 1.34375-3 3-3 3 1.34375 3 3zm0 0"/></g></svg>