<svg height="18" viewBox="0 0 18 18" width="18" xmlns="http://www.w3.org/2000/svg"><g fill="none" stroke="#fff" stroke-linecap="round" stroke-linejoin="round" stroke-width="2" transform="scale(.75)"><path d="m9.5 7.5-2 2c-1.270833 1.244792-1.776042 3.078125-1.322917 4.802083.458334 1.71875 1.802084 3.0625 3.520834 3.520834 1.723958.453125 3.557291-.052084 4.802083-1.322917l2-2c1.270833-1.244792 1.776042-3.078125 1.322917-4.802083-.458334-1.71875-1.802084-3.0625-3.520834-3.520834-1.723958-.453125-3.557291.052084-4.802083 1.322917m4.5-1v10m-4-9v10"/><path d="m16 7 1-5 1.369792.682292c.411458.203125.869791.3125 1.328125.317708h1.302083v1.302083c0 .458334.098958.916667.317708 1.328125l.682292 1.369792-5 1m-9 9-1 5-1.369792-.682292c-.411458-.203125-.869791-.3125-1.328125-.317708h-1.302083v-1.302083c-.005208-.458334-.114583-.916667-.317708-1.328125l-.682292-1.369792 5-1"/></g></svg>