<svg height="18" viewBox="0 0 18 18" width="18" xmlns="http://www.w3.org/2000/svg"><g fill="none" stroke="#fff" stroke-linecap="round" stroke-linejoin="round" stroke-width="2" transform="scale(.75)"><path d="m18 19v-10c0-2.208333-1.791667-4-4-4h-8c-2.208333 0-4 1.791667-4 4v8c0 1.104167.895833 2 2 2h2"/><path d="m2 9h3c.552083 0 1 .447917 1 1v2c0 .552083-.447917 1-1 1h-3m20 4v1c0 .552083-.447917 1-1 1h-11v-9c0-.552083.447917-1 1-1h2c.552083 0 1 .447917 1 1v9"/><path d="m10 19c0 1.104167-.895833 2-2 2s-2-.895833-2-2 .895833-2 2-2 2 .895833 2 2zm0 0"/></g></svg>