<svg height="18" viewBox="0 0 18 18" width="18" xmlns="http://www.w3.org/2000/svg"><g fill="none" stroke="#fff" stroke-linecap="round" stroke-linejoin="round" stroke-width="2" transform="scale(.75)"><path d="m2.270833 21.697917s9.869792-3.5 12.729167-6.359375c1.760417-1.755209 1.760417-4.604167.005208-6.364584-1.755208-1.760416-4.604166-1.760416-6.364583-.005208-2.869792 2.869792-6.369792 12.729167-6.369792 12.729167m6.369792-7.697917-2.052083-2.041667m8.75 3.041667-2.458334-2.458333"/><path d="m22 9s-1.328125-2-3.5-2c-1.640625 0-3.5 2-3.5 2s1.328125 2 3.5 2 3.5-2 3.5-2"/><path d="m15 2s-2 1.328125-2 3.5 2 3.5 2 3.5 2-1.838542 2-3.5c0-2.171875-2-3.5-2-3.5"/></g></svg>