<svg height="18" viewBox="0 0 18 18" width="18" xmlns="http://www.w3.org/2000/svg" xmlns:xlink="http://www.w3.org/1999/xlink"><filter id="a" height="100%" width="100%" x="0%" y="0%"><feColorMatrix color-interpolation-filters="sRGB" values="0 0 0 0 1 0 0 0 0 1 0 0 0 0 1 0 0 0 1 0"/></filter><mask id="b"><g filter="url(#a)"><path d="m-1.8-1.8h21.6v21.6h-21.6z" fill-opacity=".35"/></g></mask><mask id="c"><g filter="url(#a)"><path d="m-1.8-1.8h21.6v21.6h-21.6z" fill-opacity=".35"/></g></mask><mask id="d"><g filter="url(#a)"><path d="m-1.8-1.8h21.6v21.6h-21.6z" fill-opacity=".35"/></g></mask><clipPath id="e"><path d="m0 0h18v18h-18z"/></clipPath><clipPath id="f"><path d="m0 0h18v18h-18z"/></clipPath><clipPath id="g"><path d="m0 0h18v18h-18z"/></clipPath><path d="m8.972656 5.441406c-1.707031.039063-3.445312.566406-5.414062 1.652344-.355469.414062-.539063.859375-.5 1.316406.132812 1.539063 2.773437 2.574219 5.898437 2.304688 3.128907-.265625 5.554688-1.734375 5.421875-3.277344-.023437-.289062-.136718-.5625-.324218-.808594-1.789063-.800781-3.421876-1.222656-5.082032-1.1875zm0 0" fill="#bae6fa"/><path d="m8.46875 5.308594c-.660156-.039063-1.800781.304687-2.746094.648437-.148437.351563-.226562.726563-.226562 1.105469 0 1.601562 1.453125 2.902344 2.992187 2.902344 1.527344 0 2.878907-1.300782 2.988281-2.902344.039063-.523438-.140624-1.011719-.390624-1.4375-.984376-.171875-2.027344-.277344-2.617188-.3125" fill="#fff"/><g fill="#353333"><path d="m6.773438 6.851562c.082031-.179687.203124-.265624.324218-.417968-.015625-.035156-.042968-.152344-.042968-.191406 0-.109376.054687-.210938.144531-.269532.085937-.0625.203125-.074218.300781-.035156.558594-.425781 1.28125-.585938 1.96875-.429688.066406.011719.128906.03125.191406.050782-.707031-.097656-1.503906.152344-2.042968.589844.015624.039062.058593.148437.058593.195312 0 .179688-.113281.222656-.292969.222656-.042968 0-.082031-.007812-.117187-.019531-.125.164063-.273437.476563-.347656.671875.300781.269531.570312.367188.921875.496094 0-.015625.015625-.03125.015625-.046875 0-.546875.476562-.988281 1.019531-.988281.480469 0 .890625.347656.96875.820312.246094-.15625.480469-.273438.660156-.503906-.042968-.050782-.089844-.195313-.089844-.265625 0-.164063.132813-.296875.296876-.296875.023437 0 .046874.003906.070312.011718.089844-.1875.15625-.386718.203125-.589843-.851563-.628907-2.496094-.542969-2.496094-.542969s-1.308593-.070312-2.195312.363281c.058593.425781.230469.832031.480469 1.175781"/><path d="m10.835938 6.605469c.0625.054687.09375.101562.121093.148437.078125.144532-.082031.273438-.246093.273438-.015626 0-.03125 0-.046876-.003906-.183593.289062-.507812.65625-.792968.84375.4375.070312.851562.246093 1.183594.519531.238281-.429688.425781-1.050781.425781-1.582031 0-.402344-.179688-.695313-.445313-.910157-.015625.214844-.132812.515625-.199218.710938m-3.570313 2.726562c.148437-.402343.507813-.71875.847656-.992187-.046875-.070313-.121093-.238282-.152343-.316406-.414063-.128907-.78125-.359376-1.070313-.679688-.003906.011719-.003906.019531-.007813.027344-.050781.238281-.0625.480468-.035156.71875.203125.039062.347656.214844.347656.421875 0 .125-.109374.304687-.191406.382812.089844.199219.152344.292969.261719.4375"/><path d="m7.242188 9.671875c-.175782-.171875-.296876-.519531-.410157-.738281-.019531.003906-.042969.007812-.066406.007812-.234375 0-.484375-.199218-.425781-.429687.03125-.128907.117187-.210938.261718-.28125-.035156-.261719-.042968-.644531.019532-.917969.015625-.078125.054687-.113281.078125-.1875-.261719-.382812-.429688-.886719-.429688-1.386719 0-.015625 0-.035156 0-.050781-.441406.21875-.773437.570312-.773437 1.117188 0 1.21875.699218 2.410156 1.742187 2.878906zm2.5625-1.679687c-.140626.394531-.511719.65625-.929688.65625-.21875 0-.433594-.074219-.605469-.210938-.347656.269531-.660156.742188-.816406 1.152344.070313.074218.121094.140625.199219.207031.242187.0625.574218 0 .835937 0 1.050781 0 1.980469-.46875 2.515625-1.285156-.355468-.246094-.773437-.480469-1.199218-.519531"/></g><g fill="#1185b0"><path d="m6.746094 6.992188c.082031-.175782.183594-.34375.300781-.496094-.035156-.097656-.023437-.210938.039063-.296875.0625-.089844.160156-.140625.269531-.140625.039062 0 .082031.007812.117187.019531.617188-.46875 1.421875-.609375 2.160156-.378906-.707031-.097657-1.4375.121093-1.976562.558593.050781.117188.023438.257813-.066406.351563-.09375.09375-.230469.125-.351563.078125-.125.167969-.222656.347656-.296875.542969.257813.277343.574219.496093.925782.628906 0-.019531-.003907-.035156-.003907-.050781 0-.542969.441407-.984375.984375-.984375.488282 0 .890625.351562.972656.816406.242188-.15625.457032-.351563.636719-.582031-.042969-.050782-.066406-.117188-.066406-.183594 0-.164062.132813-.296875.292969-.296875.023437 0 .046875.003906.070312.007813.089844-.1875.15625-.386719.203125-.589844-.851562-.628906-2.496093-.542969-2.496093-.542969s-1.308594-.070313-2.195313.363281c.058594.425782.230469.832032.480469 1.175782"/><path d="m10.882812 6.65625c.058594.050781.097657.128906.097657.21875 0 .164062-.132813.292969-.296875.292969-.015625 0-.03125 0-.046875-.003907-.183594.289063-.429688.535157-.714844.71875.421875.066407.820313.246094 1.152344.519532.246093-.445313.378906-.945313.378906-1.453125 0-.402344-.179687-.699219-.445313-.914063-.015624.214844-.058593.421875-.125.621094m-3.570312 2.773438c.148438-.410157.40625-.769532.742188-1.042969-.050782-.070313-.089844-.144531-.121094-.222657-.410156-.125-.78125-.359374-1.070313-.675781l-.007812.027344c-.050781.234375-.0625.476563-.035157.714844.160157.03125.289063.148437.332032.304687.042968.15625-.003906.324219-.121094.433594.078125.164062.171875.316406.28125.460938"/><path d="m7.238281 9.667969c-.171875-.171875-.320312-.371094-.433593-.589844-.019532.003906-.042969.003906-.066407.003906-.234375 0-.425781-.191406-.425781-.429687 0-.167969.097656-.316406.242188-.386719-.035157-.269531-.019532-.542969.039062-.808594.015625-.078125.039062-.15625.0625-.230469-.269531-.398437-.414062-.863281-.414062-1.34375 0-.019531 0-.039062 0-.054687-.441407.222656-.773438.570313-.773438 1.121094 0 1.214843.726562 2.261719 1.769531 2.730469zm2.539063-1.535157c-.140625.394532-.511719.660157-.929688.660157-.21875 0-.433594-.074219-.605468-.210938-.34375.269531-.605469.632813-.765626 1.042969.074219.078125.148438.148438.230469.21875.246094.0625.5.09375.753907.09375 1.050781 0 1.972656-.539062 2.507812-1.359375-.355469-.246094-.765625-.40625-1.191406-.445313"/></g><path d="m8.570312 6.96875-.515624-.921875.28125.980469-.835938-.609375.652344.824219-1.035156-.382813.816406.605469-1.046875.03125 1.070312.277344-1.074219.234374 1.0625.074219-.894531.574219.921875-.332031-.640625.808593.808594-.652343-.292969 1.085937.625-.882812-.089844 1.042968.355469-.945312.300781.992188.074219-.996094.445313.851562-.261719-.972656.816406.632812-.527343-.808593.898437.351562-.6875-.675781.921875.070312-.90625-.347656.910156-.214844-.914062-.046874.742187-.570313-.84375.304687.574219-.792968-.792969.523437.277344-.929687-.542969.765625-.011718-.964844-.359376.859375-.296874-.871094zm0 0" fill="#fff"/><path d="m13.136719 4.238281s-1.136719 1.304688-1.421875 1.15625l.550781-1.113281s-.550781 1.113281-1.289063.921875c.34375-.433594.472657-.832031.472657-.832031s-.566407.910156-1.265625.664062c-.164063-.058594.203125-.476562.203125-.476562s-.46875.457031-.789063.398437c-.324218-.054687.015625-.644531.015625-.644531s-.566406.890625-.679687.855469c-.113282-.039063.058594-.625.058594-.625s-.417969.679687-.644532.640625c-.226562-.035156 0-.699219 0-.699219s-.246094.738281-.4375.683594c-.1875-.058594-.226562-.492188-.226562-.492188s-.050782.589844-.320313.640625c-2.042969.398438-4.296875 1.269532-7.117187 4.089844 2.667968-1.4375 3.730468-3.558594 8.726562-3.746094 3.78125-.144531 5.546875 1.601563 6.132813 1.625 1.777343.078125 2.894531-1.644531 2.894531-1.644531s-1.117188 1.285156-1.929688.972656c.726563-.425781 1.285157-1.464843 1.285157-1.464843s-1.417969 1.464843-2.402344 1.246093c.890625-.699219 1.324219-1.910156 1.324219-1.910156s-1.128906 1.742187-1.835938 1.816406c.8125-.71875 1.15625-1.742187 1.15625-1.742187s-.929687 1.363281-1.648437 1.460937c.964843-.871093 1.003906-1.421875 1.003906-1.421875s-1.335937 1.726563-1.875 1.457032c.644531-.699219 1.078125-1.589844 1.078125-1.589844s-1.117188 1.515625-1.417969 1.269531c-.207031-.039063.339844-.71875.339844-.71875s-.679687.605469-.871094.453125c.339844-.207031.929688-1.230469.929688-1.230469zm1.816406 3.183594c-.191406-.011719-.359375.058594-.445313.292969-.878906 1.675781-2.726562 2.609375-4.882812 2.921875-2.160156.3125-3.75-.140625-5.054688-.507813-1.71875-.484375-3.078124.378906-4.570312-.371094.34375.273438.738281.539063 1.875.542969.382812 0 1.617188-.058593 1.84375.136719.226562.199219-.765625 1.136719-.765625 1.136719s1.679687-1.421875 1.84375-.9375c.101563.304687-.480469 1.109375-.480469 1.109375s.585938-.796875 1.019532-.964844c.300781-.117188.554687-.105469.769531.199219.140625.195312-.683594 1.164062-.683594 1.164062s1.109375-1.082031 1.308594-1.023437c.195312.054687 0 1.023437 0 1.023437s.40625-.980469.621093-1.050781c.300782-.101562-.679687 2.269531-.679687 2.269531s1.195313-2.191406 1.417969-2.242187c.386718-.085938.640625 1.53125.640625 1.53125s-.1875-1.410156.015625-1.503906c1.269531-.574219.539062 2.441406.539062 2.441406s.832032-2.046875.320313-2.5c1.347656.894531 1.183593 2.5 1.183593 2.5s.355469-.765625-.640624-2.644532c.539062-.03125 1.351562 1.398438 1.351562 1.398438s-.882812-1.5625-.285156-1.589844c1.183594-.058594 1.304687 2.070313 1.304687 2.070313s.355469-.296875-.59375-2.386719c.605469-.386719 2.070313 1.933594 2.070313 1.933594s-1.351563-2.261719-1.136719-2.414063c.21875-.152343 1.015625.71875 1.015625.71875s-.605469-.832031-.445312-.917969c.160156-.085937 1.769531 1.65625 1.769531 1.65625s-1.421875-1.703124-1.175781-1.910156c.148437-.125.570312.101563.890624.308594-.449218-.320312-1.097656-.828125-.890624-.9375.4375-.222656 1.675781.542969 1.675781.542969s-.746094-.617188-.625-.765625c.125-.152344 1.589843.964844 1.589843.964844s-1.296874-1.023438-1.363281-1.277344c-.066406-.257813 1.023438.082031 1.023438.082031s-1.203125-.554687-1.21875-.71875c-.019531-.160156.792969.179687.792969.179687s-.527344-.433593-.945313-.460937m-.039063 2.390625c.132813.09375.265626.1875.398438.277344 0 0-.175781-.132813-.398438-.277344" fill="#353333"/><g mask="url(#b)"><g clip-path="url(#e)"><path d="m9.191406 5.441406c-1.386718-.003906-2.789062.3125-4.316406.992188-.0625.242187-.097656.5-.097656.761718 0 1.828126 1.652344 3.3125 3.691406 3.3125s3.691406-1.484374 3.691406-3.3125c0-.492187-.125-.960937-.339844-1.382812-.886718-.242188-1.753906-.371094-2.628906-.371094" fill="#fff"/></g></g><g mask="url(#c)"><g clip-path="url(#f)"><path d="m.128906 9.621094c2.820313-2.820313 5.074219-3.691406 7.117188-4.089844.273437-.050781.324218-.644531.324218-.644531s.035157.4375.226563.492187c.1875.058594.433594-.679687.433594-.679687s-.226563.660156 0 .699219c.226562.039062.644531-.644532.644531-.644532s-.171875.589844-.058594.625c.117188.039063.683594-.851562.683594-.851562s-.339844.589844-.019531.644531c.320312.058594.792969-.398437.792969-.398437s-.371094.417968-.207032.472656c.703125.246094 1.269532-.664063 1.269532-.664063s-.132813.402344-.472657.835938c.738281.191406 1.285157-.921875 1.285157-.921875l-.546876 1.113281c.28125.148437 1.417969-1.15625 1.417969-1.15625s-.585937 1.023437-.925781 1.230469c.1875.152344.871094-.453125.871094-.453125s-.550782.679687-.34375.71875c.304687.246093 1.421875-1.269531 1.421875-1.269531s-.4375.890624-1.078125 1.589843c.535156.269531 1.871094-1.457031 1.871094-1.457031s-.035157.546875-1 1.417969c.71875-.09375 1.644531-1.457031 1.644531-1.457031s-.339844 1.023437-1.15625 1.742187c.707031-.074219 1.835937-1.816406 1.835937-1.816406s-.433594 1.210937-1.324218 1.910156c.984374.21875 2.40625-1.25 2.40625-1.25s-.558594 1.042969-1.289063 1.46875c.816406.3125 1.929687-.976563 1.929687-.976563s-1.113281 1.722657-2.894531 1.648438c-.582031-.023438-2.347656-1.769531-6.132812-1.628906-4.996094.191406-6.054688 2.308594-8.726563 3.75" fill="#353333"/></g></g><g mask="url(#d)"><g clip-path="url(#g)"><path d="m.0585938 9.929688c1.4882812.746093 2.8515622-.113282 4.5703122.371093 1.304688.367188 2.894532.820313 5.050782.507813 2.160156-.3125 4.003906-1.25 4.886718-2.925782.273438-.746093 1.390625.171876 1.390625.171876s-.816406-.339844-.796875-.179688c.019532.160156 1.222656.71875 1.222656.71875s-1.089843-.339844-1.023437-.085938c.066406.257813 1.363281 1.277344 1.363281 1.277344s-1.46875-1.117187-1.589844-.964844c-.125.152344.625.769532.625.769532s-1.242187-.769532-1.675781-.542969c-.3125.164063 1.285157 1.214844 1.285157 1.214844s-1.039063-.796875-1.285157-.589844c-.246093.210937 1.171875 1.914063 1.171875 1.914063s-1.609375-1.742188-1.769531-1.65625c-.160156.082031.445313.917968.445313.917968s-.792969-.871094-1.011719-.71875c-.21875.148438 1.136719 2.410156 1.136719 2.410156s-1.46875-2.316406-2.074219-1.929687c.953125 2.085937.597656 2.386719.597656 2.386719s-.121094-2.128906-1.308594-2.074219c-.59375.027344.285157 1.589844.285157 1.589844s-.808594-1.425781-1.347657-1.398438c.992188 1.882813.636719 2.648438.636719 2.648438s.164062-1.605469-1.183594-2.5c.511719.453125-.320312 2.5-.320312 2.5s.730468-3.015625-.539063-2.441407c-.199219.089844-.015625 1.503907-.015625 1.503907s-.253906-1.617188-.636718-1.53125c-.222657.046875-1.421876 2.242187-1.421876 2.242187s.980469-2.371094.683594-2.273437c-.21875.074219-.625 1.050781-.625 1.050781s.199219-.964844 0-1.019531c-.199218-.058594-1.304687 1.019531-1.304687 1.019531s.824219-.964844.679687-1.164062c-.214844-.300782-.46875-.3125-.765625-.199219-.4375.171875-1.023437.964843-1.023437.964843s.585937-.804687.484375-1.105468c-.164063-.484375-1.847657.9375-1.847657.9375s.996094-.9375.769532-1.136719c-.230469-.199219-1.460938-.136719-1.847656-.136719-1.132813-.003906-1.527344-.269531-1.8710942-.542968" fill="#353333"/></g></g></svg>