<svg height="18" viewBox="0 0 18 18" width="18" xmlns="http://www.w3.org/2000/svg"><g fill="none" stroke="#fff" stroke-linecap="round" stroke-linejoin="round" stroke-width="2" transform="scale(.75)"><path d="m4 4h16c1.104167 0 2 .895833 2 2v12c0 1.104167-.895833 2-2 2h-16c-1.104167 0-2-.895833-2-2v-12c0-1.104167.895833-2 2-2zm0 0"/><path d="m10 10c0 1.104167-.895833 2-2 2s-2-.895833-2-2 .895833-2 2-2 2 .895833 2 2zm0 0"/><path d="m8 12h8"/><path d="m18 10c0 1.104167-.895833 2-2 2s-2-.895833-2-2 .895833-2 2-2 2 .895833 2 2zm0 0"/><path d="m6 20 .697917-2.901042c.145833-.651041.734375-1.114583 1.401041-1.098958h7.802084c.640625-.026042 1.21875.385417 1.401041 1l.697917 3"/></g></svg>