<svg height="18" viewBox="0 0 18 18" width="18" xmlns="http://www.w3.org/2000/svg"><path d="m16.75 12h3.630208c.348959 0 .671875.177083.854167.473958s.197917.661459.041667.973959l-2.036459 4.067708c-.15625.3125-.463541.520833-.8125.552083-.348958.026042-.6875-.130208-.890625-.416666l-2.125-2.96875m1.692709-5.630209c.494791.25.697916.848959.447916 1.34375l-3.104166 6.208334c-.25.494791-.848959.692708-1.34375.447916l-9.494792-4.75c-1.4375-.723958-2.015625-2.473958-1.296875-3.911458l1.375-2.791667c.723958-1.442708 2.479167-2.020833 3.921875-1.296875zm-15.104167 9.947917h3.760417c.760416.005208 1.458333-.421875 1.802083-1.098958l1.4375-2.901042m-7 6v-4m5-8h.010417" fill="none" stroke="#fff" stroke-linecap="round" stroke-linejoin="round" stroke-width="2" transform="scale(.75)"/></svg>