<svg height="18" viewBox="0 0 18 18" width="18" xmlns="http://www.w3.org/2000/svg"><path d="m8.300781 9.027344-3.839843 3.75-3.839844-3.75 3.839844-3.75zm0 0" fill="#932279"/><path d="m9.101562 8.257812-3.78125-3.769531 3.78125-3.773437 3.78125 3.773437zm0 0" fill="#efa724"/><path d="m12.890625 13.578125-3.839844 3.75-3.839843-3.75 3.839843-3.746094zm0 0" fill="#9ccd2a"/><path d="m13.691406 12.8125-3.78125-3.773438 3.78125-3.773437 3.78125 3.773437zm0 0" fill="#262577"/><path d="m9.851562 9.769531h5.128907v5.121094h-5.128907zm0 0" fill="#efa724"/><path d="m9.875 3.15625h5.144531v5.097656h-5.144531zm0 0" fill="#932279"/><path d="m2.96875 9.769531h5.355469v5.3125h-5.355469zm0 0" fill="#262577"/><path d="m2.96875 2.941406h5.355469v5.28125h-5.355469zm0 0" fill="#9ccd2a"/><path d="m9.101562.0664062-2.3125 2.3554688h-4.011718v3.992187l-2.429688 2.421876 2.429688 2.421874v3.960938h3.894531l2.378906 2.375 2.382813-2.375h3.933594v-3.949219l2.375-2.421875-2.339844-2.386718v-4.007813h-3.957032zm0 .5468748 1.804688 1.839844h-1.222656v4.734375l-.582032.589844-.585937-.597656v-4.757813h-1.1875zm-5.945312 2.199219h3.25l-1.355469 1.382812 3.082031 3.144532v.480468h-.578124l-3.09375-3.085937-1.304688 1.296875zm3.789062 0h1.1875v3.976562l-2.542968-2.59375zm3.121094.03125h1.222656l1.324219 1.351562-2.550781 2.601563zm1.761719 0h3.191406v3.226562l-1.328125-1.351562-3.074218 3.132812h-.550782v-.507812l3.085938-3.148438zm1.863281 2.421875 1.328125 1.355469v1.230468h-3.863281zm-9.230468.011719 2.546874 2.542968h-3.851562v-1.242187zm-1.683594 1.683594v1.246093h4.621094l.628906.628907-.566406.566406h-4.683594v1.3125l-1.882813-1.878906zm12.625.046874 1.800781 1.839844-1.835937 1.871094v-1.316406h-4.644532l-.542968-.554688.597656-.609375h4.621094zm-6.886719.722657.585937.597656.578126-.59375v.503906h.558593l-.597656.609375.542969.554688h-.519532v.59375l-.613281-.609375-.535156.535156v-.519531h-.507813l.566407-.566406-.136719-.132813-.496094-.496094h.574219zm-5.355469 2.058593h3.914063l-2.613281 2.609376-1.300782-1.300782zm4.457032 0h.515624v.515626l-3.191406 3.183593 1.339844 1.339844h-3.121094v-3.1875l1.300782 1.300781zm2.425781 0h.519531l3.128906 3.191407.136719-.136719 1.15625-1.183594v3.171875h-3.164063l1.34375-1.339843-.136718-.136719-2.984375-2.976563zm1.058593 0h3.882813v1.320313l-1.292969 1.320313zm-2.050781.140626.613281.609374v4.679688h1.222657l-1.835938 1.832031-1.835937-1.832031h1.300781v-4.75zm-.917969.917968v3.980469h-1.304687l-1.34375-1.339844zm1.914063.074219 2.574219 2.566406-1.34375 1.34375h-1.234375zm0 0" fill="#fff"/></svg>