<svg height="18" viewBox="0 0 18 18" width="18" xmlns="http://www.w3.org/2000/svg" xmlns:xlink="http://www.w3.org/1999/xlink"><filter id="a" height="100%" width="100%" x="0%" y="0%"><feColorMatrix color-interpolation-filters="sRGB" values="0 0 0 0 1 0 0 0 0 1 0 0 0 0 1 0 0 0 1 0"/></filter><mask id="b"><g filter="url(#a)"><path d="m-1.8-1.8h21.6v21.6h-21.6z" fill-opacity=".45"/></g></mask><radialGradient id="c" cx="93.440002" cy="1113.51001" gradientTransform="matrix(.140625 0 0 -.140625 0 161.438908)" gradientUnits="userSpaceOnUse" r="69.830002"><stop offset="0" stop-color="#fff"/><stop offset="1" stop-color="#ab710a"/></radialGradient><clipPath id="d"><path d="m0 0h18v18h-18z"/></clipPath><path d="m5.683594 12.722656c-.136719-.035156-.265625-.082031-.394532-.140625-.285156.449219-.953124 1.597657-1.050781 2.636719h1.730469c-.214844-.816406-.3125-1.65625-.285156-2.496094m5.605468-.921875c-.347656.777344-.617187 1.585938-.800781 2.417969-.078125.332031.148438.667969.109375 1h2.175782c-.574219-1.585938-.703126-3.886719-1-4.808594-.007813-.015625-.476563 1.402344-.484376 1.390625" fill="#ab710a"/><path d="m17.484375 6.355469c-.496094-.703125-1.625-1.292969-1.890625-2.097657-.066406-.203124-.078125-.625.050781-.824218.128907-.195313-.074219-.140625-.074219-.140625-.28125.109375-.402343-.199219-.402343-.199219-.042969-.109375.015625-.441406-.226563-.261719-.4375.328125-.292968 1.125-.210937 1.445313.148437.550781.433593 1.050781.828125 1.457031.140625.128906 1.027344 1.105469.90625 1.601563-.007813.179687-.128906.328124-.300782.371093-.644531.128907-.855468-.664062-.855468-.664062-.484375-2.066407-1.265625-2.789063-1.265625-2.789063-1.269531-.042968-2.535157.066406-3.777344.332032-4.832031-.179688-8.46875 1.304687-8.46875 1.304687-1.0625 1.527344-1.6875 4.359375-1.6875 4.359375s0 .015625.007813.015625c.015624 0 .03125-.003906.039062-.019531.398438-.5.847656-.953125 1.34375-1.355469-.101562 3.9375.789062 6.328125.789062 6.328125h1.6875c.121094-1.421875 1.234376-2.984375 1.234376-2.984375.628906.476563 2.046874.335937 2.046874.335937.25.945313.757813 2.644532.757813 2.644532h2.035156c.175781-1.296875.546875-2.558594 1.105469-3.746094 0 0 .503906-1.140625.515625-1.484375.03125-.597656.597656-.773437.902344-.773437.308593 0 1.703125.777343 2.746093.726562 1.816407-.09375 2.53125-.933594 2.566407-1.890625.027343-.65625-.128907-1.296875-.402344-1.691406m-5.835937 2.027343c-.007813.027344-.023438.054688-.039063.078126-.019531.027343-.042969.050781-.070313.066406-.03125.015625-.066406.023437-.101562.019531-.035156 0-.066406-.007813-.09375-.019531-.101562-.046875-.1875-.109375-.265625-.183594-.039063-.035156-.074219-.074219-.105469-.109375l-.097656-.101563c-.0625-.050781-.132812-.09375-.210938-.117187-.082031-.03125-.171874-.054687-.265624-.074219-.09375-.023437-.1875-.046875-.292969-.082031-.027344-.007813-.054688-.019531-.082031-.03125l-.039063-.015625c-.019531-.011719-.035156-.023438-.054687-.039062-.03125-.027344-.058594-.0625-.078126-.097657-.015624-.035156-.03125-.066406-.039062-.105469-.011719-.058593-.015625-.121093-.015625-.183593.003906-.054688.011719-.109375.019531-.164063.019532-.101562.046875-.203125.078125-.300781.03125-.09375.066407-.1875.101563-.28125.019531-.046875.039062-.089844.058594-.140625.023437-.046875.046874-.09375.074218-.140625.105469-.175781.246094-.328125.410156-.453125.078126-.058594.164063-.113281.253907-.160156.089843-.046875.183593-.085938.28125-.113282-.15625.109376-.304688.238282-.433594.382813-.125.132813-.230469.285156-.308594.453125-.015625.039062-.03125.082031-.046875.125l-.042968.140625c-.027344.089844-.058594.183594-.078126.273437-.023437.089844-.042968.179688-.058593.269532-.007813.042968-.011719.085937-.011719.125-.003906.035156 0 .074218.007812.105468.003907.019532.011719.035157.023438.050782l.019531.011718.054688.019532c.082031.03125.175781.054687.269531.085937.097656.027344.195312.0625.289062.105469.105469.042969.203126.109375.28125.195312.035157.042969.058594.082032.089844.121094l.085938.113282c.027344.039062.054687.074218.085937.105468.027344.03125.0625.058594.09375.082032.027344.019531.058594.027343.085938.023437.035156-.011719.066406-.039063.085937-.070313.023438-.039062.042969-.082031.058594-.125.019531-.046874.035156-.09375.050781-.140624.007813.097656 0 .199218-.027343.296874m1.796874-1.253906c-.042968.125-.15625.210938-.289062.210938-.132812.003906-.25-.082032-.292969-.207032-.042969-.121093-.003906-.261718.101563-.34375.101562-.078124.246094-.085937.355468-.015624.132813.066406.1875.222656.125.355468" fill="#e3a835"/><g mask="url(#b)"><g clip-path="url(#d)"><path d="m17.484375 6.355469c-.496094-.703125-1.625-1.292969-1.890625-2.097657-.066406-.203124-.078125-.625.050781-.824218.128907-.195313-.074219-.140625-.074219-.140625-.28125.109375-.402343-.199219-.402343-.199219-.042969-.109375.015625-.441406-.226563-.261719-.4375.328125-.292968 1.125-.210937 1.445313.148437.550781.433593 1.050781.828125 1.457031.140625.128906 1.027344 1.105469.90625 1.601563-.007813.179687-.128906.328124-.300782.371093-.644531.128907-.855468-.664062-.855468-.664062-.484375-2.066407-1.265625-2.789063-1.265625-2.789063-1.269531-.042968-2.535157.066406-3.777344.332032-4.832031-.179688-8.46875 1.304687-8.46875 1.304687-1.0625 1.527344-1.6875 4.359375-1.6875 4.359375s0 .015625.007813.015625c.015624 0 .03125-.003906.039062-.019531.398438-.5.847656-.953125 1.34375-1.355469-.101562 3.9375.789062 6.328125.789062 6.328125h1.6875c.121094-1.421875 1.234376-2.984375 1.234376-2.984375.628906.476563 2.046874.335937 2.046874.335937.25.945313.757813 2.644532.757813 2.644532h2.035156c.175781-1.296875.546875-2.558594 1.105469-3.746094 0 0 .503906-1.140625.515625-1.484375.03125-.597656.597656-.773437.902344-.773437.308593 0 1.703125.777343 2.746093.726562 1.816407-.09375 2.53125-.933594 2.566407-1.890625.027343-.65625-.128907-1.296875-.402344-1.691406m-5.835937 2.027343c-.007813.027344-.023438.054688-.039063.078126-.019531.027343-.042969.050781-.070313.066406-.03125.015625-.066406.023437-.101562.019531-.035156 0-.066406-.007813-.09375-.019531-.101562-.046875-.1875-.109375-.265625-.183594-.039063-.035156-.074219-.074219-.105469-.109375l-.097656-.101563c-.0625-.050781-.132812-.09375-.210938-.117187-.082031-.03125-.171874-.054687-.265624-.074219-.09375-.023437-.1875-.046875-.292969-.082031-.027344-.007813-.054688-.019531-.082031-.03125l-.039063-.015625c-.019531-.011719-.035156-.023438-.054687-.039062-.03125-.027344-.058594-.0625-.078126-.097657-.015624-.035156-.03125-.066406-.039062-.105469-.011719-.058593-.015625-.121093-.015625-.183593.003906-.054688.011719-.109375.019531-.164063.019532-.101562.046875-.203125.078125-.300781.03125-.09375.066407-.1875.101563-.28125.019531-.046875.039062-.089844.058594-.140625.023437-.046875.046874-.09375.074218-.140625.105469-.175781.246094-.328125.410156-.453125.078126-.058594.164063-.113281.253907-.160156.089843-.046875.183593-.085938.28125-.113282-.15625.109376-.304688.238282-.433594.382813-.125.132813-.230469.285156-.308594.453125-.015625.039062-.03125.082031-.046875.125l-.042968.140625c-.027344.089844-.058594.183594-.078126.273437-.023437.089844-.042968.179688-.058593.269532-.007813.042968-.011719.085937-.011719.125-.003906.035156 0 .074218.007812.105468.003907.019532.011719.035157.023438.050782l.019531.011718.054688.019532c.082031.03125.175781.054687.269531.085937.097656.027344.195312.0625.289062.105469.105469.042969.203126.109375.28125.195312.035157.042969.058594.082032.089844.121094l.085938.113282c.027344.039062.054687.074218.085937.105468.027344.03125.0625.058594.09375.082032.027344.019531.058594.027343.085938.023437.035156-.011719.066406-.039063.085937-.070313.023438-.039062.042969-.082031.058594-.125.019531-.046874.035156-.09375.050781-.140624.007813.097656 0 .199218-.027343.296874m1.796874-1.253906c-.042968.125-.15625.210938-.289062.210938-.132812.003906-.25-.082032-.292969-.207032-.042969-.121093-.003906-.261718.101563-.34375.101562-.078124.246094-.085937.355468-.015624.132813.066406.1875.222656.125.355468" fill="url(#c)"/></g></g></svg>