<svg height="18" viewBox="0 0 18 18" width="18" xmlns="http://www.w3.org/2000/svg"><g fill="none" stroke="#fff" stroke-linecap="round" stroke-linejoin="round" stroke-width="2" transform="scale(.75)"><path d="m21.661458 17.671875c.21875.208333.338542.5.333334.807292-.005209.302083-.145834.59375-.375.791666-4.770834 3.921875-11.739584 3.578125-16.104167-.786458s-4.708333-11.333333-.786458-16.104167c.203125-.229166.489583-.364583.796875-.369791.307291-.010417.598958.109375.8125.328125zm0 0"/><path d="m19.651042 15.661458c-3.151042 2.984375-8.104167 2.916667-11.166667-.15625-3.067708-3.067708-3.125-8.020833-.135417-11.166666m5.651042 5.661458-5.5 5.5"/><path d="m14 17.848958v-7.848958h-7.848958"/></g></svg>