<svg height="18" viewBox="0 0 18 18" width="18" xmlns="http://www.w3.org/2000/svg"><g fill="none" stroke="#fff" stroke-linecap="round" stroke-linejoin="round" stroke-width="2" transform="scale(.75)"><path d="m15 2h-6c-.552083 0-1 .447917-1 1v2c0 .598958.401042 1 1 1h6c.598958 0 1-.401042 1-1v-2c0-.598958-.401042-1-1-1"/><path d="m8 4h-2c-1.104167 0-2 .895833-2 2v14c0 1.104167.895833 2 2 2h12c1.104167 0 2-.895833 2-2m-4-16h2c1.104167 0 2 .895833 2 2v2m-9 6h10"/><path d="m17 10 4 4-4 4"/></g></svg>