<svg height="18" viewBox="0 0 18 18" width="18" xmlns="http://www.w3.org/2000/svg"><path d="m10.1875 8.5c.682292-2.651042 3.078125-4.5 5.8125-4.5-1.65625 1.65625-1.65625 4.34375 0 6s4.34375 1.65625 6 0c0 2.145833-1.145833 4.125-3 5.197917m-8 4.802083v2m-8-2c-1.229167-1.640625-1.333333-3.869792-.260417-5.614583 1.078125-1.75 3.109375-2.666667 5.130209-2.307292 2.020833.354167 3.619791 1.911458 4.03125 3.921875h1.098958c1.244792 0 2.364583.765625 2.807292 1.932292.442708 1.161458.125 2.479166-.807292 3.307291m-8-2.239583v2" fill="none" stroke="#fff" stroke-linecap="round" stroke-linejoin="round" stroke-width="2" transform="scale(.75)"/></svg>