<svg height="18" viewBox="0 0 18 18" width="18" xmlns="http://www.w3.org/2000/svg"><g fill="none" stroke="#fff" stroke-linecap="round" stroke-linejoin="round" stroke-width="2" transform="scale(.75)"><path d="m15 17c0 1.65625-1.34375 3-3 3s-3-1.34375-3-3 1.34375-3 3-3 3 1.34375 3 3zm0 0"/><path d="m4.197917 15.098958c-2.135417-2.020833-2.786459-5.161458-1.619792-7.864583 1.166667-2.697917 3.895833-4.385417 6.833333-4.213542s5.453125 2.161459 6.296875 4.979167h1.791667c1.958333.026042 3.671875 1.3125 4.244792 3.1875.567708 1.869792-.135417 3.901042-1.744792 5.010417m-4.302083 2.203125-.895834-.302084m-5.604166-2.197916-.895834-.302084m2.296875 5.098959.302084-.895834m2.197916-5.604166.302084-.895834m.197916 7.395834-.401041-1m-2.395834-5.395834-.401041-1m-2.098959 5.296875 1-.401041m5.395834-2.395834 1-.401041"/></g></svg>