<svg height="18" viewBox="0 0 18 18" width="18" xmlns="http://www.w3.org/2000/svg"><path d="m10.1875 8.5c.682292-2.651042 3.078125-4.5 5.8125-4.5-1.65625 1.65625-1.65625 4.34375 0 6s4.34375 1.65625 6 0c0 2.145833-1.145833 4.125-3 5.197917m-6 .802083c1.65625 0 3 1.34375 3 3s-1.34375 3-3 3h-6c-2.630208 0-4.8125-2.041667-4.989583-4.666667-.171875-2.625 1.713541-4.9375 4.322916-5.286458 2.604167-.354167 5.041667 1.375 5.567709 3.953125zm0 0" fill="none" stroke="#fff" stroke-linecap="round" stroke-linejoin="round" stroke-width="2" transform="scale(.75)"/></svg>