<svg height="18" viewBox="0 0 18 18" width="18" xmlns="http://www.w3.org/2000/svg"><path d="m17.660156 5.613281-8.226562-5.484375c-.28125-.1718748-.582032-.1718748-.867188 0l-8.226562 5.484375c-.210938.140625-.339844.394531-.339844.644531v5.484376c0 .25.128906.5.339844.640624l8.226562 5.488282c.28125.171875.582032.171875.867188 0l8.226562-5.488282c.210938-.140624.339844-.390624.339844-.640624v-5.484376c0-.25-.128906-.503906-.339844-.644531m-7.886718-3.394531 6.058593 4.039062-2.703125 1.808594-3.355468-2.242187zm-1.546876 0v3.605469l-3.355468 2.242187-2.703125-1.808594zm-6.679687 5.484375 1.9375 1.296875-1.9375 1.296875zm6.679687 8.078125-6.058593-4.039062 2.703125-1.808594 3.355468 2.238281zm.773438-4.953125-2.730469-1.828125 2.730469-1.828125 2.730469 1.828125zm.773438 4.953125v-3.609375l3.355468-2.238281 2.703125 1.808594zm6.679687-5.484375-1.9375-1.296875 1.9375-1.296875zm0 0"/></svg>