<svg height="18" viewBox="0 0 18 18" width="18" xmlns="http://www.w3.org/2000/svg"><path d="m7.882812.382812.007813.730469.511719.269531v.054688c0 .078125.019531.144531.074218.222656.023438.035156.042969.070313.042969.070313 0 .003906-.082031.007812-.1875.007812l-.191406.007813-.09375.050781c-.398437.210937-.40625.78125-.015625.992187.078125.042969.082031.042969.050781.058594-.144531.058594-.300781.136719-.390625.199219-.214844.140625-.410156.382813-.496094.597656-.019531.054688-.042968.101563-.046874.097657-.003907 0-.183594-.121094-.394532-.261719l-.386718-.257813v-1.496094h-.214844v1.613282l.472656.320312c.40625.269532.472656.320313.464844.34375-.003906.015625-.011719.070313-.019532.121094-.015624.09375-.027343.117188-.066406.105469-.160156-.039063-.316406-.078125-.476562-.117188-.171875-.042969-.339844-.085937-.507813-.128906-.039062-.007813-.097656-.070313-.339843-.335937-.382813-.421876-.382813-.421876-.414063-.421876-.039063 0-.148437.101563-.148437.136719 0 .011719.097656.128907.214843.261719.121094.132812.242188.265625.363281.398438.09375.105468.160157.167968.183594.175781.023438.003906.292969.074219.601563.152343l.558593.140626h1.855469v-1.675782h.210938v1.675782h1.855469l.558593-.140626c.199219-.050781.402344-.101562.601563-.152343.023437-.007813.089844-.070313.183594-.175781.082031-.089844.246093-.269532.363281-.398438.117187-.132812.214843-.25.214843-.261719 0-.035156-.109374-.136719-.148437-.136719-.03125 0-.03125 0-.414063.421876-.242187.265624-.300781.328124-.339843.335937-.027344.007813-.253907.0625-.507813.128906-.25.0625-.464844.117188-.476562.117188-.039063.011719-.050782-.011719-.066406-.105469-.007813-.039062-.011719-.082031-.019532-.121094-.007812-.023437.058594-.074218.464844-.34375l.472656-.320312v-1.613282h-.214844v1.496094l-.386718.257813c-.128906.089843-.261719.175781-.394532.261719-.003906.003906-.027343-.042969-.046874-.097657-.085938-.214843-.28125-.457031-.496094-.597656-.089844-.0625-.246094-.140625-.390625-.199219-.03125-.015625-.027344-.015625.050781-.058594.390625-.210937.382812-.78125-.015625-.992187l-.09375-.050781-.191406-.007813c-.105469 0-.1875-.003906-.1875-.007812 0 0 .019531-.035157.042969-.070313.054687-.078125.074218-.144531.074218-.222656v-.054688l.511719-.269531.007813-.730469h-.171876l-.007812.628907-.195312.097656c-.1875.097656-.199219.101563-.210938.078125-.035156-.058594-.140625-.148438-.230469-.1875-.09375-.046875-.195312-.070312-.300781-.070312s-.207031.023437-.300781.070312c-.089844.042969-.195313.128906-.230469.1875-.011719.023438-.023438.019531-.210938-.078125l-.195312-.097656-.007812-.628907zm-.917968 4.320313-.046875.09375c-.042969.082031-.050781.09375-.078125.089844-.078125-.019531-.792969-.15625-.8125-.15625-.027344 0-1.109375 1.070312-1.109375 1.097656 0 .007813.03125.046875.070312.085937l.074219.074219 1.03125-1.027343.335938.066406c.203124.039062.335937.070312.335937.082031 0 .007813-.148437.320313-.328125.699219l-.324219.683594 2.886719 2.878906 2.886719-2.878906-.324219-.683594c-.179688-.378906-.328125-.691406-.328125-.699219 0-.011719.132813-.042969.335937-.082031l.335938-.066406 1.03125 1.027343.074219-.074219c.039062-.039062.070312-.078124.070312-.085937 0-.027344-1.082031-1.097656-1.109375-1.097656-.019531 0-.734375.136719-.8125.15625-.027344.003906-.035156-.007813-.078125-.089844l-.046875-.09375h-.40625c-.273437 0-.40625.003906-.40625.015625 0 .007812.089844.363281.199219.789062.109375.429688.199219.78125.199219.789063 0 .015625-.183594.0625-.195313.046875-.007812-.003906-.101562-.355469-.207031-.773438l-.210938-.816406-.011718-.050781h-.890625v4.019531h-.210938v-4.019531h-.890625l-.011718.050781-.210938.816406c-.105469.417969-.199219.769532-.203125.773438-.015625.015625-.199219-.03125-.199219-.046875 0-.007813.089844-.359375.199219-.789063.109375-.425781.199219-.78125.199219-.789062 0-.011719-.132813-.015625-.40625-.015625zm-2.558594.28125-4.125 4.121094.207031.207031.203125.207031.328125-.328125 2.1875 2.1875c1.808594 1.8125 2.191407 2.191406 2.222657 2.191406.023437.003907.675781-.035156 1.453124-.078124l1.414063-.082032.277344.277344-2.195313 2.195312-.195312-.199218c-.109375-.109375-.207032-.195313-.214844-.191406-.019531.007812-.902344.65625-.90625.664062 0 .003906.328125.335938.730469.738281.691406.691407.734375.730469.753906.703125.007813-.011718.160156-.21875.335937-.457031l.320313-.433594-.203125-.203125-.199219-.203125 2.199219-2.199219 2.199219 2.199219-.199219.203125-.203125.203125.320313.433594c.175781.238281.328124.445313.335937.457031.019531.027344.0625-.011718.753906-.703125.402344-.402343.730469-.734375.730469-.738281-.003906-.007812-.886719-.65625-.90625-.664062-.007812-.003907-.105469.082031-.214844.191406l-.195312.199218-2.195313-2.195312.277344-.277344 1.414063.082032c.777343.042968 1.429687.082031 1.453124.078124.03125 0 .414063-.378906 2.222657-2.191406l2.1875-2.1875.328125.328125.203125-.207031.207031-.207031-4.121094-4.121094-.414062.410156.324218.324219-4.375 4.378906.085938 1.441406.082031 1.445313-.136719.140625c-.085937.082031-.148437.136719-.164062.140625-.015625-.003906-.078125-.058594-.160156-.140625l-.140625-.140625.082031-1.445313.085938-1.441406-4.375-4.378906.324218-.324219zm-.160156 1.53125.835937.835937-2.433593 2.433594-.851563-.851562.792969-.785156c.40625-.40625.8125-.808594 1.222656-1.210938zm9.507812 0 .433594.421875c.40625.402344.816406.804688 1.222656 1.210938l.792969.785156-.851563.851562-2.433593-2.433594zm-8.160156 1.347656 1.324219 1.324219-1.011719 1.007812-.210938-.210937-.414062.410156.214844.214844-1.011719 1.011719-1.324219-1.324219zm6.8125 0 2.433594 2.433594-1.324219 1.324219-1.011719-1.011719.214844-.214844-.414062-.410156-.210938.210937-1.011719-1.007812zm-4.96875 1.839844.6875.6875-.054688.9375c-.019531.320313-.039062.636719-.054687.957031 0 .011719-.359375-.335937-.792969-.773437l-.796875-.796875zm3.125 0 1.011719 1.011719-.796875.796875c-.433594.4375-.792969.785156-.792969.773437 0-.011718-.023437-.441406-.054687-.957031l-.054688-.9375zm-4.546875 1.425781.792969.792969c.726562.726563.792968.796875.757812.800781-.054687.007813-1.6875.105469-1.785156.105469h-.085938l-.347656-.34375-.34375-.347656zm5.96875 0 1.011719 1.007813-.34375.347656-.347656.34375h-.085938c-.097656 0-1.730469-.097656-1.785156-.105469-.035156-.003906.03125-.074218.757812-.800781zm0 0"/></svg>