<svg height="18" viewBox="0 0 18 18" width="18" xmlns="http://www.w3.org/2000/svg"><path d="m16.703125 13.476562c.125-.21875.199219-.464843.199219-.683593v-7.621094c0-.21875-.074219-.464844-.199219-.679687l-7.78125 4.492187zm0 0" fill="#00599c"/><path d="m9.613281 17.800781 6.601563-3.808593c.1875-.109376.363281-.300782.488281-.515626l-7.78125-4.492187-7.78125 4.492187c.125.214844.300781.40625.488281.515626l6.601563 3.808593c.378906.21875 1.003906.21875 1.382812 0zm0 0" fill="#004482"/><path d="m16.703125 4.492188c-.125-.21875-.300781-.40625-.488281-.515626l-6.601563-3.8125c-.378906-.2187495-1.003906-.2187495-1.382812 0l-6.601563 3.8125c-.378906.21875-.691406.757813-.691406 1.195313v7.621094c0 .21875.078125.464843.203125.679687l7.78125-4.488281zm0 0" fill="#659ad2"/><path d="m8.921875 3.660156c-2.933594 0-5.320313 2.386719-5.320313 5.324219 0 2.933594 2.386719 5.320313 5.320313 5.320313 1.894531 0 3.660156-1.019532 4.609375-2.660157l-2.304688-1.332031c-.472656.820312-1.359374 1.332031-2.304687 1.332031-1.46875 0-2.660156-1.195312-2.660156-2.660156 0-1.46875 1.191406-2.664063 2.660156-2.664063.945313 0 1.832031.511719 2.304687 1.332032l2.304688-1.332032c-.949219-1.640624-2.714844-2.660156-4.609375-2.660156zm4.140625 4.4375v.589844h-.59375v.589844h.59375v.59375h.589844v-.59375h.589844v-.589844h-.589844v-.589844zm2.214844 0v.589844h-.589844v.589844h.589844v.59375h.59375v-.59375h.589844v-.589844h-.589844v-.589844zm0 0" fill="#fff"/></svg>