<svg height="18" viewBox="0 0 18 18" width="18" xmlns="http://www.w3.org/2000/svg"><path d="m4 9c-1.104167 0-2 .895833-2 2v2c0 1.104167.895833 2 2 2h4c.552083 0 1 .447917 1 1v4c0 1.104167.895833 2 2 2h2c1.104167 0 2-.895833 2-2v-4c0-.552083.447917-1 1-1h4c1.104167 0 2-.895833 2-2v-2c0-1.104167-.895833-2-2-2h-4c-.552083 0-1-.447917-1-1v-4c0-1.104167-.895833-2-2-2h-2c-1.104167 0-2 .895833-2 2v4c0 .552083-.447917 1-1 1zm0 0" fill="none" stroke="#fff" stroke-linecap="round" stroke-linejoin="round" stroke-width="2" transform="scale(.75)"/></svg>