<svg height="18" viewBox="0 0 18 18" width="18" xmlns="http://www.w3.org/2000/svg"><path d="m11.5625 3.265625c.088542-.161458.255208-.260417.4375-.260417s.348958.098959.4375.260417l2.953125 5.604167c.140625.260416.395833.447916.6875.505208s.598958-.020833.828125-.213542l4.276042-3.661458c.166666-.135417.40625-.151042.588541-.03125.182292.119792.265625.338542.208334.552083l-2.833334 10.244792c-.119791.432292-.510416.729167-.953125.734375h-12.380208c-.447917-.005208-.838542-.302083-.958333-.734375l-2.833334-10.244792c-.057291-.208333.026042-.432291.208334-.552083.182291-.119792.421875-.104167.588541.03125l4.276042 3.666667c.229167.1875.536458.265625.828125.208333s.546875-.239583.6875-.505208zm-6.5625 17.734375h14" fill="none" stroke="#fff" stroke-linecap="round" stroke-linejoin="round" stroke-width="2" transform="scale(.75)"/></svg>