<svg height="18" viewBox="0 0 18 18" width="18" xmlns="http://www.w3.org/2000/svg"><g fill="none" stroke="#fff" stroke-linecap="round" stroke-linejoin="round" stroke-width="2" transform="scale(.75)"><path d="m21.119792 6.401042-6.052084-4.0625c-.645833-.442709-1.5-.458334-2.166666-.046875l-9.953125 6.119791c-.588542.364584-.947917 1.005209-.947917 1.697917v5.822917c0 .661458.328125 1.286458.880208 1.65625l6.052084 4.072916c.645833.442709 1.5.458334 2.166666.046875l9.953125-6.119791c.588542-.364584.947917-1.005209.947917-1.697917v-5.828125c0-.666667-.328125-1.291667-.880208-1.661458"/><path d="m10 22v-8l-7.75-4.848958m7.75 4.848958 11.770833-6.869792"/></g></svg>