<svg height="18" viewBox="0 0 18 18" width="18" xmlns="http://www.w3.org/2000/svg"><g fill="none" stroke="#fff" stroke-linecap="round" stroke-linejoin="round" stroke-width="2" transform="scale(.75)"><path d="m11 11.3125c1.171875.557292 1.541667 1.6875 3.5 1.6875 2.5 0 2.5-2 5-2 1.302083 0 1.901042.5 2.5 1m-10.25 6c.348958.5 1.447917 1 2.75 1 2.5 0 2.5-2 5-2 1.302083 0 1.901042.5 2.5 1m-20-8h4m-4 4h4m-4 4h4m-4-12h4"/><path d="m7 3c-.552083 0-1 .447917-1 1v16c0 .552083.447917 1 1 1h4c.552083 0 1-.447917 1-1l-2-16c0-.552083-.447917-1-1-1zm0 0"/></g></svg>