<svg height="18" viewBox="0 0 18 18" width="18" xmlns="http://www.w3.org/2000/svg"><path d="m4.949219 4.90625-1.167969-1.164062v8.394531l.015625.394531c0 .179688.027344.390625.097656.601562l9.226563 3.25 2.292968-1.011718zm0 0" fill="#00c4b3"/><path d="m15.414062 15.371094-2.292968 1.011718-9.199219-3.25c.183594.675782.5625 1.421876.984375 1.859376l2.996094 2.980468 6.695312.011719zm0 0" fill="#22d3c5"/><path d="m.238281 9.15625c-.2929685.308594-.1406248.96875.324219 1.460938l2.066406 2.082031 1.292969.464843c-.039063-.210937-.097656-.421874-.097656-.605468l-.011719-.394532-.03125-8.410156m11.632812 11.617188 1.011719-2.308594-3.234375-9.222656c-.210937-.042969-.421875-.085938-.605468-.097656l-.40625-.015626-8.382813.015626" fill="#0075c9"/><path d="m13.164062 3.839844c.027344 0 .027344 0 0 0m2.25 11.53125 2.488282-.816406v-6.847657l-2.871094-2.882812c-.421875-.421875-1.164062-.816407-1.855469-.984375l3.25 9.222656" fill="#00a8e1"/><path d="m12.726562 2.558594-2.082031-2.066406c-.476562-.476563-1.125-.617188-1.460937-.324219l-5.402344 3.574219h8.367188l.410156.011718c.183594 0 .394531.027344.605468.097656zm0 0" fill="#00c4b3"/></svg>