<svg height="18" viewBox="0 0 18 18" width="18" xmlns="http://www.w3.org/2000/svg" xmlns:xlink="http://www.w3.org/1999/xlink"><linearGradient id="a" gradientTransform="matrix(.171429 .00031117 -.00031117 .171429 0 0)" gradientUnits="userSpaceOnUse" x1="92.389999" x2="95.190002" y1="40.619999" y2="65.059998"><stop offset=".16" stop-color="#21d789"/><stop offset=".54" stop-color="#419fbc"/><stop offset="1" stop-color="#6b57ff"/></linearGradient><linearGradient id="b" gradientTransform="matrix(.171429 .00031117 -.00031117 .171429 0 0)" gradientUnits="userSpaceOnUse" x1="66.849998" x2="73.949997" y1="30.120001" y2="11.96"><stop offset="0" stop-color="#6b57ff"/><stop offset=".95" stop-color="#21d789"/></linearGradient><linearGradient id="c" gradientTransform="matrix(.171429 .00031117 -.00031117 .171429 0 0)" gradientUnits="userSpaceOnUse" x1="27.620001" x2="34.52" y1="52.970001" y2="83.010002"><stop offset="0" stop-color="#6b57ff"/><stop offset=".02" stop-color="#685cfb"/><stop offset=".28" stop-color="#4a91ca"/><stop offset=".51" stop-color="#34b7a7"/><stop offset=".69" stop-color="#26ce91"/><stop offset=".8" stop-color="#21d789"/></linearGradient><linearGradient id="d" gradientTransform="matrix(.171429 .00031117 -.00031117 .171429 0 0)" gradientUnits="userSpaceOnUse" x1="10.48" x2="94.599998" y1="52.509998" y2="98.959999"><stop offset=".08" stop-color="#21d789"/><stop offset=".89" stop-color="#6b57ff"/></linearGradient><linearGradient id="e" gradientTransform="matrix(.171429 .00031117 -.00031117 .171429 0 0)" gradientUnits="userSpaceOnUse" x1="10.99" x2="95.540001" y1="41.310001" y2="41.310001"><stop offset=".31" stop-color="#21d789"/><stop offset=".49" stop-color="#59a3b2"/><stop offset=".77" stop-color="#b74af7"/><stop offset="1" stop-color="#ff45ed"/></linearGradient><path d="m16.179688 3.328125 1.050781 6.738281-1.941407 1.128906zm0 0" fill="url(#a)"/><path d="m16.179688 3.328125-5.890626-2.558594-1.644531 1.367188zm0 0" fill="url(#b)"/><path d="m11.890625 17.230469-9.140625-7.285157-1.835938 5.519532zm0 0" fill="url(#c)"/><path d="m13.164062 12.625-12.394531-4.257812 11.121094 8.863281zm0 0" fill="url(#d)"/><path d="m.769531.886719v7.480469l14.285157 4.90625 1.125-9.945313zm0 0" fill="url(#e)"/><path d="m3.855469 3.835938h10.289062v10.285156h-10.289062zm0 0"/><path d="m4.902344 5.171875h1.660156c1.335938 0 2.261719.921875 2.261719 2.121094v.007812c0 1.203125-.925781 2.132813-2.261719 2.132813h-1.660156zm.933594.847656v2.570313h.726562c.34375.019531.679688-.105469.925781-.347656.242188-.246094.375-.578126.355469-.921876v-.019531c.019531-.34375-.109375-.679687-.355469-.925781-.246093-.242188-.582031-.375-.925781-.355469zm3.15625 1.296875v-.015625c-.003907-.589843.230468-1.15625.648437-1.570312.417969-.414063.988281-.640625 1.578125-.628907.613281-.035156 1.214844.175782 1.675781.582032l-.589843.710937c-.300782-.28125-.699219-.4375-1.113282-.429687-.6875 0-1.226562.601562-1.226562 1.328125v.007812c0 .78125.539062 1.351563 1.292968 1.351563.3125.011718.625-.078125.882813-.253906v-.609376h-.941406v-.808593h1.851562v1.851562c-.507812.4375-1.152343.675781-1.820312.675781-1.328125 0-2.238281-.9375-2.238281-2.191406zm-4.1875 4.875h3.855468v.644532h-3.855468zm0 0" fill="#fff"/></svg>