<svg height="18" viewBox="0 0 18 18" width="18" xmlns="http://www.w3.org/2000/svg"><path d="m8.394531.292969h1.175781c3.335938.34375 5.765626 2.007812 7.289063 4.984375.453125.996094.722656 2.035156.8125 3.117187v1.175781c-.34375 3.335938-2.007813 5.765626-4.984375 7.289063-.996094.453125-2.035156.722656-3.117188.8125h-1.175781c-3.335937-.34375-5.765625-2.007813-7.285156-4.984375-.453125-.996094-.726563-2.035156-.816406-3.117188v-1.175781c.34375-3.335937 2.007812-5.765625 4.984375-7.285156.996094-.453125 2.035156-.726563 3.117187-.816406m0 0" fill="#382a24"/><path d="m15.664062 8.914062c-.039062-.925781-.28125-1.792968-.726562-2.597656.089844-.265625.117188-.550781.085938-.828125-.070313-.179687-.203126-.277343-.398438-.296875-.300781-.015625-.601562-.023437-.898438-.015625.0625-.027343.128907-.046875.207032-.054687-.394532-.589844-.886719-1.113282-1.453125-1.539063-.730469-.601562-1.574219-.898437-2.527344-.898437-.757813.015625-1.460937.214844-2.113281.605468-1.378906.789063-2.519532 1.835938-3.425782 3.148438-.28125.035156-.566406.050781-.847656.050781-1.472656-.230469-1.898437.335938-1.28125 1.699219.25.496094.480469 1.007812.691406 1.523438-.03125.414062-.054687.828124-.070312 1.246093-.445312.722657-.867188 1.460938-1.261719 2.214844-.023437.046875-.046875.046875-.070312 0-1.128907-2.117187-1.378907-4.332031-.742188-6.648437.949219-2.84375 2.847657-4.742188 5.691407-5.691407 3.089843-.8124998 5.835937-.179687 8.238281 1.902344 2.203125 2.152344 3.0625 4.753906 2.582031 7.804687-.398438 1.976563-1.347656 3.621094-2.855469 4.933594-.078125.066406-.160156.113282-.242187.140625-.21875-.644531-.175782-1.273437.121094-1.886719.4375-.71875.785156-1.484374 1.035156-2.285156.25-.832031.335937-1.675781.261718-2.527344m0 0" fill="#e1d7cb"/><path d="m12.480469 3.582031c.566406.425781 1.058593.949219 1.453125 1.539063-.074219.007812-.144532.023437-.207032.054687-.59375.039063-1.175781.167969-1.730468.378907-.542969.027343-1.085938.042968-1.628906.050781-.136719.058593-.277344.0625-.414063.019531-.390625-.015625-.714844-.171875-.96875-.46875-.386719-.234375-.789063-.28125-1.214844-.136719-.296875.203125-.40625.488281-.328125.847657.183594.328124.238282.671874.15625 1.039062-.03125.054688-.0625.113281-.085937.171875-.960938.882813-1.820313 1.867187-2.5625 2.941406-.21875.382813-.394531.789063-.519531 1.214844-.066407.597656.179687 1.007813.746093 1.226563.308594.125.636719.207031.96875.242187-.277343.210937-.589843.28125-.933593.207031-.4375-.074218-.863282-.207031-1.265626-.398437-.414062.75-.800781 1.511719-1.160156 2.285156-.230468-.257813-.453125-.523437-.671875-.792969-.023437-.046875-.023437-.097656 0-.140625.292969-.691406.617188-1.375.96875-2.042969.179688.320313.4375.535157.777344.640626-.269531-.257813-.4375-.578126-.5-.949219-.066406-.597657-.007813-1.195313.171875-1.765625.695312-2.230469 1.945312-4.070313 3.753906-5.523438.78125-.558594 1.648438-.914062 2.597656-1.074218.902344-.058594 1.765626.082031 2.597657.433593zm0 0" fill="#fcfcfc"/><path d="m9.953125 5.625c-.484375.171875-.960937.375-1.421875.605469-.316406.234375-.621094.484375-.917969.746093-.015625-.019531-.019531-.046874-.015625-.070312.082032-.367188.027344-.710938-.15625-1.039062-.078125-.359376.03125-.640626.328125-.847657.425781-.144531.828125-.097656 1.214844.136719.253906.296875.578125.453125.96875.46875m0 0" fill="#382a24"/><path d="m13.726562 5.175781c.296876-.007812.597657 0 .898438.015625.195312.019532.328125.117188.398438.296875.03125.277344.003906.5625-.085938.828125-.214844.59375-.535156 1.117188-.96875 1.574219-.304688.207031-.628906.242187-.972656.105469-.757813-.226563-1.363282-.660156-1.816406-1.296875-.144532-.363281-.046876-.648438.296874-.847657.171876-.101562.34375-.199218.519532-.296874.554687-.210938 1.136718-.339844 1.730468-.378907m0 0" fill="#372923"/><path d="m11.996094 5.554688c-.175782.097656-.347656.195312-.519532.296874-.34375.199219-.441406.484376-.296874.847657.453124.636719 1.058593 1.070312 1.816406 1.296875.34375.136718.667968.101562.972656-.101563.433594-.460937.753906-.984375.96875-1.578125.445312.804688.6875 1.671875.726562 2.597656-.167968.542969-.394531 1.0625-.675781 1.558594-.128906.1875-.277343.367188-.433593.535156-.164063.113282-.328126.234376-.484376.363282l-.035156-.050782c.160156-.582031.199219-1.1875.121094-1.785156-.027344-.15625-.085938-.308594-.171875-.449218-.054687.769531-.253906 1.523437-.589844 2.214843-.445312.839844-1.128906 1.132813-2.058593.882813-1.386719-.394532-2.601563-1.082032-3.652344-2.058594.066406.417969.183594.824219.347656 1.210938.214844.644531.269531 1.304687.171875 1.972656-.03125.144531-.078125.28125-.136719.417968-.46875.761719-.875 1.558594-1.210937 2.386719-.113281.304688-.207031.617188-.277344.933594-.019531.035156-.050781.0625-.089844.070313-1.441406-.453126-2.675781-1.226563-3.703125-2.320313.359375-.773437.746094-1.535156 1.160156-2.285156.402344.191406.828126.324219 1.265626.398437.34375.074219.65625.003906.933593-.207031-.332031-.035156-.660156-.117187-.96875-.242187-.566406-.21875-.8125-.628907-.746093-1.226563.125-.425781.300781-.832031.519531-1.214844.742187-1.074219 1.601562-2.058593 2.5625-2.941406.023437-.058594.054687-.117187.085937-.171875-.003906.023438 0 .050781.015625.070312.296875-.261718.601563-.511718.917969-.746093.460938-.230469.9375-.433594 1.421875-.605469.136719.042969.277344.039062.414063-.015625.542968-.011719 1.085937-.027344 1.628906-.054687m0 0" fill="#887363"/><path d="m14.347656 11.683594c-.191406.808594-.464844 1.597656-.8125 2.351562-.074218.136719-.183594.230469-.328125.277344l-.035156-.050781c.148437-.417969.21875-.855469.207031-1.296875-.125.515625-.316406 1.019531-.570312 1.488281-.265625.109375-.539063.125-.8125.050781-.085938-.109375-.152344-.230468-.191406-.363281-.089844-.433594-.140626-.875-.15625-1.316406 1.097656.074219 1.996093-.304688 2.699218-1.140625zm0 0" fill="#fbfbfb"/></svg>