<svg height="18" viewBox="0 0 18 18" width="18" xmlns="http://www.w3.org/2000/svg"><path d="m10.378906 7.144531h1.589844v1.617188h.800781c.363281 0 .746094-.070313 1.097657-.183594.167968-.054687.363281-.140625.53125-.238281-.222657-.296875-.335938-.660156-.363282-1.027344-.042968-.492188.054688-1.140625.394532-1.519531l.167968-.195313.195313.152344c.507812.410156.914062.957031 1 1.605469.605469-.183594 1.308593-.140625 1.839843.167969l.210938.125-.109375.226562c-.453125.871094-1.394531 1.152344-2.308594 1.097656-1.378906 3.417969-4.359375 5.035156-7.988281 5.035156-1.867188 0-3.585938-.703124-4.570312-2.363281l-.011719-.027343-.140625-.296876c-.339844-.730468-.4375-1.53125-.367188-2.335937l.027344-.238281h1.351562v-1.601563h1.589844v-1.574219h3.164063v-1.589843h1.898437zm0 0" fill="#3a4d54" fill-rule="evenodd"/><path d="m15.523438 7.75c.113281-.832031-.503907-1.476562-.898438-1.789062-.4375.507812-.507812 1.859374.183594 2.421874-.394532.335938-1.195313.660157-2.039063.660157h-10.152343c-.085938.871093.070312 1.671875.421874 2.363281l.109376.210938c.070312.125.15625.238281.242187.363281.421875.027343.800781.042969 1.152344.027343.6875-.011718 1.25-.097656 1.6875-.238281.070312-.027343.125.015625.152343.070313.03125.070312-.011718.128906-.070312.15625-.054688.011718-.109375.042968-.179688.054687-.339843.097657-.703124.15625-1.167968.183594h-.085938c-.183594.015625-.378906.015625-.589844.015625-.226562 0-.4375 0-.6875-.015625.84375.957031 2.164063 1.519531 3.824219 1.519531 3.515625 0 6.496094-1.5625 7.804688-5.050781.941406.101563 1.839843-.140625 2.25-.941406-.632813-.378907-1.476563-.253907-1.957031-.011719" fill="#00aada"/><path d="m15.523438 7.75c.113281-.832031-.503907-1.476562-.898438-1.789062-.4375.507812-.507812 1.859374.183594 2.421874-.394532.335938-1.195313.660157-2.039063.660157h-9.5625c-.042969 1.335937.449219 2.347656 1.335938 2.953125.6875-.015625 1.25-.097656 1.6875-.238282.070312-.03125.125.011719.152343.070313.03125.070313-.011718.125-.070312.152344-.054688.015625-.109375.042969-.179688.058593-.339843.097657-.734374.167969-1.195312.195313l-.015625-.015625c1.195313.621094 2.925781.605469 4.921875-.152344 2.222656-.859375 4.304688-2.488281 5.75-4.347656-.027344.015625-.054688.015625-.070312.03125" fill="#28b8eb"/><path d="m2.628906 10.097656c.058594.464844.199219.898438.410156 1.308594l.109376.210938c.070312.125.15625.238281.242187.363281.421875.027343.800781.042969 1.152344.027343.6875-.011718 1.25-.097656 1.6875-.238281.070312-.027343.125.015625.152343.070313.03125.070312-.011718.128906-.070312.15625-.054688.011718-.109375.042968-.179688.054687-.339843.097657-.734374.167969-1.195312.199219h-.058594c-.183594.011719-.378906.011719-.574218.011719-.226563 0-.453126 0-.691407-.011719.84375.953125 2.179688 1.515625 3.839844 1.515625 3.007813 0 5.625-1.136719 7.144531-3.65625h-11.96875zm0 0" fill="#028bb8"/><path d="m3.304688 10.097656c.183593.816406.605468 1.460938 1.238281 1.898438.6875-.015625 1.25-.097656 1.6875-.238282.070312-.03125.125.011719.152343.070313.03125.070313-.011718.125-.070312.152344-.054688.015625-.109375.042969-.179688.058593-.339843.097657-.734374.167969-1.210937.195313 1.195313.617187 2.925781.605469 4.90625-.15625 1.195313-.460937 2.363281-1.152344 3.40625-1.980469zm0 0" fill="#019bc6"/><g fill-rule="evenodd"><path d="m3.992188 7.410156h1.378906v1.378906h-1.378906zm.113281.113282h.113281v1.140624h-.113281zm.199219 0h.109374v1.140624h-.109374zm.210937 0h.109375v1.140624h-.109375zm.210937 0h.109376v1.140624h-.109376zm.210938 0h.109375v1.140624h-.109375zm.210938 0h.109374v1.140624h-.109374zm.421874-1.6875h1.375v1.378906h-1.375zm.125.113281h.113282v1.136719h-.113282zm.195313 0h.113281v1.136719h-.113281zm.210937 0h.113282v1.136719h-.113282zm.210938 0h.113281v1.136719h-.113281zm.199219 0h.113281v1.136719h-.113281zm.210937 0h.113282v1.136719h-.113282zm0 0" fill="#00acd3"/><path d="m5.570312 7.410156h1.375v1.378906h-1.375zm.125.113282h.113282v1.140624h-.113282zm.195313 0h.113281v1.140624h-.113281zm.210937 0h.113282v1.140624h-.113282zm.210938 0h.113281v1.140624h-.113281zm.199219 0h.113281v1.140624h-.113281zm.210937 0h.113282v1.140624h-.113282zm0 0" fill="#23c2ee"/><path d="m7.15625 7.410156h1.378906v1.378906h-1.378906zm.113281.113282h.113281v1.140624h-.113281zm.210938 0h.113281v1.140624h-.113281zm.210937 0h.113282v1.140624h-.113282zm.199219 0h.109375v1.140624h-.109375zm.210937 0h.109376v1.140624h-.109376zm.210938 0h.109375v1.140624h-.109375zm0 0" fill="#00acd3"/><path d="m7.15625 5.835938h1.378906v1.378906h-1.378906zm.113281.113281h.113281v1.136719h-.113281zm.210938 0h.113281v1.136719h-.113281zm.210937 0h.113282v1.136719h-.113282zm.199219 0h.109375v1.136719h-.109375zm.210937 0h.109376v1.136719h-.109376zm.210938 0h.109375v1.136719h-.109375zm.433594 1.460937h1.378906v1.378906h-1.378906zm.113281.113282h.113281v1.140624h-.113281zm.210937 0h.113282v1.140624h-.113282zm.195313 0h.113281v1.140624h-.113281zm.210937 0h.113282v1.140624h-.113282zm.210938 0h.113281v1.140624h-.113281zm.210938 0h.113281v1.140624h-.113281zm0 0" fill="#23c2ee"/><path d="m8.746094 5.835938h1.378906v1.378906h-1.378906zm.113281.113281h.113281v1.136719h-.113281zm.210937 0h.113282v1.136719h-.113282zm.195313 0h.113281v1.136719h-.113281zm.210937 0h.113282v1.136719h-.113282zm.210938 0h.113281v1.136719h-.113281zm.210938 0h.113281v1.136719h-.113281zm0 0" fill="#00acd3"/><path d="m8.746094 4.246094h1.378906v1.378906h-1.378906zm.113281.113281h.113281v1.140625h-.113281zm.210937 0h.113282v1.140625h-.113282zm.195313 0h.113281v1.140625h-.113281zm.210937 0h.113282v1.140625h-.113282zm.210938 0h.113281v1.140625h-.113281zm.210938 0h.113281v1.140625h-.113281zm0 0" fill="#23c2ee"/><path d="m10.335938 7.410156h1.378906v1.378906h-1.378906zm.113281.113282h.113281v1.140624h-.113281zm.195312 0h.113281v1.140624h-.113281zm.210938 0h.113281v1.140624h-.113281zm.210937 0h.113282v1.140624h-.113282zm.210938 0h.113281v1.140624h-.113281zm.210937 0h.113281v1.140624h-.113281zm0 0" fill="#00acd3"/><path d="m6.863281 11.011719c.210938 0 .378907.167969.378907.378906s-.167969.378906-.378907.378906c-.210937 0-.378906-.167969-.378906-.378906s.167969-.378906.378906-.378906" fill="#d4eef1"/><path d="m6.863281 11.125c.027344 0 .070313 0 .097657.011719-.027344.015625-.054688.058593-.054688.097656 0 .058594.054688.113281.109375.113281.042969 0 .085937-.027344.101563-.054687.011718.027343.011718.070312.011718.097656 0 .15625-.125.265625-.265625.265625-.15625 0-.269531-.125-.269531-.265625s.113281-.265625.269531-.265625m-6.707031-.886719h17.632812c-.378906-.097656-1.210937-.226562-1.082031-.730469-.703125.800782-2.378906.5625-2.8125.167969-.480469.6875-3.234375.421875-3.417969-.113281-.589843.703125-2.433593.703125-3.023437 0-.195313.535156-2.953125.800781-3.417969.113281-.421875.394531-2.109375.632813-2.8125-.167969.15625.492188-.6875.632813-1.066406.730469" fill="#3a4d54"/></g><path d="m7.875 13.753906c-.941406-.449218-1.449219-1.054687-1.742188-1.714844-.351562.097657-.773437.167969-1.253906.195313-.183594.015625-.378906.015625-.574218.015625-.242188 0-.480469 0-.734376-.015625.84375.84375 1.914063 1.503906 3.867188 1.519531zm0 0" fill="#bfdbe0"/><path d="m6.484375 12.640625c-.128906-.179687-.253906-.390625-.351563-.601563-.351562.097657-.773437.167969-1.253906.195313.324219.167969.800782.335937 1.605469.40625" fill="#d4eef1"/></svg>