<svg height="18" viewBox="0 0 18 18" width="18" xmlns="http://www.w3.org/2000/svg"><g fill="none" stroke="#fff" stroke-linecap="round" stroke-linejoin="round" stroke-width="2" transform="scale(.75)"><path d="m11.25 16.25h1.5l-.75.75zm4.75-2.25v.5"/><path d="m4.421875 11.244792c-.28125 1.083333-.421875 2.192708-.421875 3.3125 0 4.171875 3.583333 6.442708 8 6.442708s8-2.270833 8-6.442708c-.005208-1.119792-.171875-2.234375-.494792-3.3125m-11.505208 2.755208v.5"/><path d="m8.5 8.5c-.385417 1.052083-1.083333 2.026042-2.34375 2.5-1.932292.723958-3.578125-.296875-3.65625-1-.114583-.994792 1.177083-6.53125 4-7 1.921875-.322917 3.651042.84375 3.651042 2.234375 1.265625-.322917 2.59375-.307292 3.848958.041667 0-1.390625 1.84375-2.598959 3.765625-2.276042 2.822917.46875 4.114583 6.005208 4 7-.078125.703125-1.723958 1.723958-3.65625 1-1.260417-.473958-1.854167-1.447917-2.239583-2.5"/></g></svg>