<svg height="18" viewBox="0 0 18 18" width="18" xmlns="http://www.w3.org/2000/svg" xmlns:xlink="http://www.w3.org/1999/xlink"><linearGradient id="a" gradientTransform="matrix(0 21.056484 21.056484 0 -11854.162354 -1292.064423)" gradientUnits="userSpaceOnUse" x1="61.631001" x2="62.021999" y1="563.346985" y2="563.346985"><stop offset="0" stop-color="#0994dc"/><stop offset=".35" stop-color="#66cef5"/><stop offset=".846" stop-color="#127bca"/><stop offset="1" stop-color="#127bca"/></linearGradient><linearGradient id="b" gradientTransform="matrix(0 21.593109 21.593109 0 -12156.007324 -1326.933105)" gradientUnits="userSpaceOnUse" x1="61.705002" x2="62.095001" y1="563.340027" y2="563.340027"><stop offset="0" stop-color="#0e76bc"/><stop offset=".36" stop-color="#36aee8"/><stop offset=".846" stop-color="#00adef"/><stop offset="1" stop-color="#00adef"/></linearGradient><linearGradient id="c" gradientTransform="matrix(0 -17.181281 -17.181281 0 9717.087524 1171.552917)" gradientUnits="userSpaceOnUse" x1="67.486" x2="67.875999" y1="564.984985" y2="564.984985"><stop offset="0" stop-color="#1c63b7"/><stop offset=".5" stop-color="#33bdf2"/><stop offset="1" stop-color="#33bdf2" stop-opacity=".42"/></linearGradient><linearGradient id="d" gradientTransform="matrix(0 22.419141 22.419141 0 -12618.807495 -1382.078842)" gradientUnits="userSpaceOnUse" x1="61.852001" x2="62.243" y1="563.281006" y2="563.281006"><stop offset="0" stop-color="#166ab8"/><stop offset=".4" stop-color="#36aee8"/><stop offset=".846" stop-color="#0798dd"/><stop offset="1" stop-color="#0798dd"/></linearGradient><linearGradient id="e" gradientTransform="matrix(0 23.839875 23.839875 0 -13421.776245 -1472.817947)" gradientUnits="userSpaceOnUse" x1="61.974998" x2="62.366001" y1="563.367004" y2="563.367004"><stop offset="0" stop-color="#124379"/><stop offset=".39" stop-color="#1487cb"/><stop offset=".78" stop-color="#165197"/><stop offset="1" stop-color="#165197"/></linearGradient><linearGradient id="f" gradientTransform="matrix(.567844 0 0 -.567844 -566.526524 -794.43045)" gradientUnits="userSpaceOnUse" x1="1006.453979" x2="1008.770996" y1="-1412.079956" y2="-1412.079956"><stop offset="0" stop-color="#33bdf2" stop-opacity=".698"/><stop offset="1" stop-color="#1dacd8"/></linearGradient><linearGradient id="g" gradientTransform="matrix(0 -16.736906 -16.736906 0 9479.331642 1142.678695)" gradientUnits="userSpaceOnUse" x1="67.564003" x2="67.954002" y1="565.47998" y2="565.47998"><stop offset="0" stop-color="#136ab4"/><stop offset=".6" stop-color="#59caf5" stop-opacity=".549"/><stop offset="1" stop-color="#59caf5" stop-opacity=".235"/></linearGradient><linearGradient id="h" gradientTransform="matrix(.567844 0 0 -.567844 -566.526524 -794.43045)" gradientUnits="userSpaceOnUse" x1="998.231018" x2="1006.825989" y1="-1414.828979" y2="-1414.828979"><stop offset="0" stop-color="#05a1e6" stop-opacity=".247"/><stop offset="1" stop-color="#05a1e6"/></linearGradient><linearGradient id="i" gradientTransform="matrix(0 -17.137265 -17.137265 0 9674.682495 1168.662415)" gradientUnits="userSpaceOnUse" x1="67.490997" x2="67.880997" y1="564.359009" y2="564.359009"><stop offset="0" stop-color="#318ed5"/><stop offset="1" stop-color="#38a7e4"/></linearGradient><linearGradient id="j" gradientTransform="matrix(0 -16.658437 -16.658437 0 9405.670051 1138.087787)" gradientUnits="userSpaceOnUse" x1="67.593002" x2="67.984001" y1="564.409973" y2="564.409973"><stop offset="0" stop-color="#05a1e6"/><stop offset="1" stop-color="#05a1e6" stop-opacity=".549"/></linearGradient><linearGradient id="k" gradientTransform="matrix(0 -14.076562 -14.076562 0 7950.452454 973.729797)" gradientUnits="userSpaceOnUse" x1="68.291" x2="68.681999" y1="564.525024" y2="564.525024"><stop offset="0" stop-color="#1959a6"/><stop offset=".5" stop-color="#05a1e6"/><stop offset=".918" stop-color="#7ec5ea"/><stop offset="1" stop-color="#7ec5ea"/></linearGradient><linearGradient id="l" gradientTransform="matrix(-2.691273 -15.262966 -15.262966 2.691273 8792.327363 -469.096926)" gradientUnits="userSpaceOnUse" x1="67.891998" x2="68.281998" y1="563.820007" y2="563.820007"><stop offset="0" stop-color="#165096"/><stop offset="1" stop-color="#0d82ca"/></linearGradient><linearGradient id="m" gradientTransform="matrix(0 -7.976391 -7.976391 0 4535.455353 573.789654)" gradientUnits="userSpaceOnUse" x1="70.847" x2="71.237" y1="566.882019" y2="566.882019"><stop offset="0" stop-color="#05a1e6"/><stop offset=".874" stop-color="#0495d6"/><stop offset="1" stop-color="#0495d6"/></linearGradient><linearGradient id="n" gradientTransform="matrix(-3.243197 18.393086 18.393086 3.243197 -10125.640967 -2951.706735)" gradientUnits="userSpaceOnUse" x1="61.633999" x2="62.023998" y1="562.213013" y2="562.213013"><stop offset="0" stop-color="#38a7e4" stop-opacity=".329"/><stop offset=".962" stop-color="#0e88d3"/><stop offset="1" stop-color="#0e88d3"/></linearGradient><linearGradient id="o" gradientTransform="matrix(0 17.401218 17.401218 0 -9776.759766 -1058.510948)" gradientUnits="userSpaceOnUse" x1="61.148998" x2="61.539001" y1="562.653992" y2="562.653992"><stop offset="0" stop-color="#168cd4"/><stop offset=".5" stop-color="#1c87cc"/><stop offset="1" stop-color="#154b8d"/></linearGradient><linearGradient id="p" gradientTransform="matrix(20.233271 8.392068 -8.392068 20.233271 -33734.72446 -21960.814135)" gradientUnits="userSpaceOnUse" x1="1806.959961" x2="1807.349976" y1="336.15799" y2="336.15799"><stop offset="0" stop-color="#97d6ee"/><stop offset=".703" stop-color="#55c1ea"/><stop offset="1" stop-color="#55c1ea"/></linearGradient><linearGradient id="q" gradientTransform="matrix(15.980734 -7.244138 7.244138 15.980734 -31327.671208 7754.013045)" gradientUnits="userSpaceOnUse" x1="1808.848022" x2="1809.238037" y1="335.17099" y2="335.17099"><stop offset="0" stop-color="#7accec"/><stop offset="1" stop-color="#3fb7ed"/></linearGradient><linearGradient id="r" gradientTransform="matrix(0 17.020125 17.020125 0 -9564.146851 -1033.136444)" gradientUnits="userSpaceOnUse" x1="61.049" x2="61.438999" y1="562.705994" y2="562.705994"><stop offset="0" stop-color="#1da7e7"/><stop offset="1" stop-color="#37abe7" stop-opacity="0"/></linearGradient><path d="m6.367188 6.96875c.621093 1.898438.859374 5.289062 2.675781 5.289062.136719 0 .277343-.015624.417969-.042968-1.652344-.382813-1.847657-3.734375-2.855469-5.46875-.082031.070312-.160157.148437-.238281.222656" fill="url(#a)"/><path d="m6.605469 6.746094c1.007812 1.734375 1.203125 5.085937 2.855469 5.46875.132812-.023438.261718-.058594.386718-.101563-1.480468-.726562-1.890625-3.984375-3.035156-5.550781-.066406.058594-.136719.121094-.207031.183594" fill="url(#b)"/><path d="m8.058594 5.710938c-.140625 0-.28125.015624-.421875.042968-.367188.066406-.738281.226563-1.117188.464844.105469.101562.203125.21875.292969.34375.382812-.316406.765625-.550781 1.144531-.691406.136719-.050782.28125-.09375.425781-.117188-.105468-.027344-.214843-.042968-.324218-.042968" fill="#14559a"/><path d="m11.007812 11.441406c.15625-.125.308594-.257812.453126-.398437-.628907-1.890625-.855469-5.328125-2.683594-5.328125-.132813 0-.265625.011718-.394532.039062 1.664063.414063 1.878907 4.035156 2.625 5.6875" fill="url(#c)"/><path d="m8.382812 5.753906c-.105468-.027344-.214843-.042968-.324218-.042968l.71875.003906c-.132813 0-.265625.011718-.394532.039062" fill="#3092c4"/><path d="m10.972656 11.84375c-.070312-.070312-.140625-.144531-.203125-.222656-.308593.21875-.617187.382812-.921875.492187.109375.050781.222656.089844.34375.113281.09375.019532.191406.03125.292969.03125.339844 0 .613281-.042968.839844-.152343-.125-.066407-.242188-.15625-.351563-.261719" fill="#1969bc"/><path d="m7.957031 5.871094c1.492188.78125 1.621094 4.316406 2.8125 5.75.078125-.054688.15625-.117188.238281-.179688-.746093-1.652344-.960937-5.277344-2.625-5.6875-.144531.023438-.285156.0625-.425781.117188" fill="url(#d)"/><path d="m6.8125 6.5625c1.144531 1.566406 1.554688 4.824219 3.035156 5.550781.304688-.109375.613282-.273437.921875-.492187-1.191406-1.433594-1.320312-4.96875-2.8125-5.75-.378906.140625-.761719.375-1.144531.691406" fill="url(#e)"/><path d="m5.636719 6.921875c-.179688.40625-.363281.941406-.582031 1.636719.4375-.621094.878906-1.15625 1.3125-1.589844-.054688-.171875-.117188-.339844-.191407-.507812-.1875.144531-.367187.300781-.539062.460937" fill="url(#f)"/><path d="m6.332031 6.34375c-.050781.039062-.105469.078125-.15625.117188.066407.152343.132813.324218.191407.507812.078124-.074219.15625-.152344.238281-.222656-.082031-.140625-.171875-.273438-.273438-.402344" fill="#2b74b1"/><path d="m6.519531 6.21875c-.0625.039062-.125.082031-.1875.125.097657.121094.1875.253906.273438.402344.070312-.0625.140625-.125.207031-.183594-.089844-.125-.1875-.242188-.292969-.34375" fill="#125a9e"/><path d="m16.699219 5.566406c-.84375 3.257813-2.605469 5.871094-4.085938 6.53125l-.082031.03125-.007812.003906-.023438.007813-.011719.007813-.035156.011718-.015625.003906-.019531.007813-.015625.003906-.015625.007813-.046875.011718-.019532.007813-.015624.003906-.023438.003907-.027344.007812c.066406.023438.136719.035156.210938.035156 1.402344 0 2.816406-2.511718 5.152344-6.6875zm0 0" fill="url(#g)"/><path d="m4.75 5.84375.003906-.003906h.003906l.019532-.007813.007812-.003906h.003906l.023438-.007813h.003906l.050782-.019531.007812-.003906.023438-.007813h.011718l.023438-.007812.007812-.003906.078125-.019532.011719-.003906.019531-.003906.011719-.003906.023438-.003906h.003906l.046875-.007813h.011719l.019531-.003906h.011719l.023437-.003907.011719-.003906.050781-.003906c-.050781-.003906-.101563-.007812-.152344-.007812-1.578125 0-3.75 2.929687-4.730469 6.722656h.1875c.292969-.523438.578126-1.054688.855469-1.585938.683594-2.6875 2.082031-4.519531 3.324219-5.003906" fill="url(#h)"/><path d="m5.636719 6.921875c.171875-.160156.351562-.316406.539062-.460937-.039062-.082032-.082031-.167969-.128906-.246094-.144531.175781-.277344.40625-.410156.707031" fill="#0d82ca"/><path d="m5.765625 5.867188c.105469.085937.195313.203124.28125.347656.027344-.03125.054687-.0625.082031-.089844-.113281-.109375-.242187-.199219-.382812-.269531l.015625.007812zm0 0" fill="#0d82ca"/><path d="m1.425781 10.847656c1.4375-2.773437 2.117188-4.527344 3.324219-5.003906-1.242188.488281-2.640625 2.316406-3.324219 5.003906" fill="url(#i)"/><path d="m6.128906 6.125c-.027344.027344-.054687.058594-.082031.089844.042969.074218.085937.15625.128906.246094.050781-.039063.105469-.078126.15625-.117188-.0625-.078125-.128906-.152344-.203125-.21875" fill="#127bca"/><path d="m2.078125 12.417969-.027344.003906h-.003906l-.023437.003906h-.003907l-.050781.003907h-.007812c1.457031-.042969 2.125-.769532 2.453124-1.828126.25-.804687.457032-1.476562.636719-2.046874-.609375.859374-1.222656 1.882812-1.835937 3.03125-.296875.550781-.75.78125-1.136719.832031" fill="url(#j)"/><path d="m2.078125 12.417969c.386719-.046875.839844-.277344 1.136719-.832031.613281-1.144532 1.226562-2.171876 1.835937-3.027344.222657-.699219.40625-1.230469.585938-1.636719-1.214844 1.15625-2.433594 3.078125-3.558594 5.496094" fill="url(#k)"/><path d="m1.425781 10.847656c-.277343.53125-.5625 1.0625-.855469 1.585938h.550782c.070312-.535156.171875-1.0625.304687-1.585938" fill="#05a1e6"/><path d="m5.214844 5.726562h-.011719l-.023437.003907h-.011719l-.019531.003906-.011719.003906-.046875.007813h-.003906l-.023438.003906-.011719.003906-.019531.003906-.011719.003907-.078125.019531h-.007812l-.058594.019531h-.007812l-.054688.019531-.023438.007813-.039062.019531c-1.203125.472656-1.886719 2.226563-3.324219 5-.132812.523438-.234375 1.050782-.304687 1.585938h.078125l.527343-.003906h.242188l.054688-.003907h.03125l.023437-.003906c1.125-2.417969 2.34375-4.339844 3.558594-5.496094.136719-.300781.265625-.535156.410156-.707031-.082031-.144531-.175781-.261719-.277344-.347656l-.003906-.003906-.019531-.007813-.03125-.015625-.019532-.007812-.046874-.023438-.015626-.003906-.035156-.011719-.03125-.011719h-.003906l-.039062-.011718-.007813-.003907-.03125-.007812-.007813-.003907c-.027343-.003906-.054687-.011718-.082031-.015624l-.007812-.003907-.035157-.003906-.007812-.003906-.039062-.003907h-.007813l-.03125-.003906z" fill="url(#l)"/><path d="m13.402344 7.371094c-.277344.886718-.5 1.617187-.695313 2.21875.757813-1.046875 1.507813-2.359375 2.21875-3.878906-.828125.261718-1.273437.859374-1.523437 1.660156" fill="url(#m)"/><path d="m12.730469 12.039062c-.039063.019532-.078125.039063-.117188.058594 1.480469-.660156 3.242188-3.273437 4.085938-6.53125h-.171875c-1.9375 3.464844-2.5625 5.785156-3.796875 6.472656" fill="url(#n)"/><path d="m11.765625 11.75c.320313-.394531.582031-1.058594.941406-2.160156-.414062.566406-.828125 1.054687-1.242187 1.453125h-.003906c.089843.273437.191406.511719.304687.707031" fill="#079ae1"/><path d="m11.765625 11.75c-.109375.132812-.226563.234375-.355469.308594-.027344.019531-.054687.035156-.085937.046875.140625.078125.292969.125.453125.144531l.074218.003906h.003907l.035156.003906h.121094l.011719-.003906h.039062l.03125-.003906.011719-.003906.027343-.003906h.011719l.035157-.003907h.003906l.070312-.015625c-.191406-.070312-.351562-.234375-.488281-.46875" fill="#1969bc"/><path d="m9.042969 12.257812c.136719 0 .277343-.015624.417969-.042968.132812-.023438.261718-.058594.386718-.101563.109375.050781.222656.089844.34375.113281.09375.019532.191406.03125.292969.03125zm1.441406 0c.339844 0 .613281-.042968.839844-.152343.140625.078125.292969.125.453125.144531l.074218.003906h.003907l.035156.003906h.042969zm0 0" fill="#1e5cb3"/><path d="m11.933594 12.257812h.078125l.011719-.003906h.042968l.027344-.003906h.003906l.007813-.003906.03125-.003906h.007812l.035157-.007813h.003906l.070312-.015625c.066406.027344.136719.039062.210938.039062zm0 0" fill="#1d60b5"/><path d="m11.460938 11.042969c-.144532.140625-.296876.273437-.453126.398437-.078124.0625-.15625.121094-.238281.179688.066407.078125.132813.152344.207031.222656.105469.105469.222657.195312.351563.261719.027344-.015625.054687-.027344.085937-.046875.128907-.074219.242188-.175782.351563-.308594-.113281-.195312-.210937-.433594-.300781-.707031" fill="#175fab"/><path d="m15.988281 5.566406h-.863281l-.136719.007813-.0625.136719c-.710937 1.515624-1.460937 2.832031-2.21875 3.878906-.359375 1.097656-.621093 1.765625-.941406 2.15625.136719.234375.296875.402344.488281.472656l.011719-.003906h.003906l.011719-.003906.023438-.003907.015624-.003906.019532-.007813.011718-.003906.035157-.007812.015625-.007813.015625-.003906.019531-.007813.015625-.003906.035156-.015625h.011719l.03125-.015625.082031-.03125c.039063-.019531.078125-.039062.117188-.058594 1.234375-.6875 1.859375-3.007812 3.796875-6.472656h-.542969zm0 0" fill="url(#o)"/><path d="m5.265625 5.71875.007813.003906.023437.003906h.007813l.039062.003907.007812.003906.035157.003906.007812.003907.078125.015624.007813.003907.03125.007812.011719.003907.035156.007812.003906.003906.070312.023438.015626.007812.03125.011719.015624.007813.019532.007812.03125.015625c.136718.066406.265625.15625.382812.265625.042969-.042969.085938-.085938.132813-.121094-.253907-.183594-.546875-.285156-.878907-.285156-.039062 0-.078124 0-.117187.003906" fill="#7dcbec"/><path d="m6.128906 6.125c.070313.066406.140625.140625.203125.21875.0625-.042969.125-.085938.1875-.125-.078125-.078125-.164062-.152344-.257812-.21875-.046875.035156-.089844.078125-.132813.125" fill="#5ec5ed"/><path d="m5.226562 5.730469.117188-.007813c.335938 0 .625.105469.882812.285156.269532-.210937.597657-.285156 1.050782-.285156h-2.199219zm0 0" fill="url(#p)"/><path d="m7.277344 5.722656c-.453125 0-.78125.074219-1.050782.285156.089844.066407.175782.136719.257813.222657.375-.242188.75-.398438 1.117187-.46875.140626-.027344.28125-.039063.417969-.039063zm0 0" fill="url(#q)"/><path d="m12.707031 9.589844c.195313-.601563.417969-1.332032.695313-2.21875.25-.800782.695312-1.398438 1.523437-1.660156l.066407-.132813c-1.355469.078125-1.988282.769531-2.308594 1.789063-.558594 1.78125-.894532 2.9375-1.21875 3.675781.414062-.398438.828125-.886719 1.242187-1.453125" fill="url(#r)"/></svg>