<svg height="18" viewBox="0 0 18 18" width="18" xmlns="http://www.w3.org/2000/svg"><g fill="none" stroke="#fff" stroke-linecap="round" stroke-linejoin="round" stroke-width="2" transform="scale(.75)"><path d="m7 16.302083c2.197917 0 4-1.833333 4-4.052083 0-1.161458-.567708-2.260417-1.708333-3.1875-1.140625-.932292-2-2.3125-2.291667-3.760417-.291667 1.447917-1.140625 2.838542-2.291667 3.760417-1.145833.916667-1.708333 2.036458-1.708333 3.1875 0 2.21875 1.802083 4.052083 4 4.052083"/><path d="m12.5625 6.598958c.682292-1.098958 1.171875-2.3125 1.4375-3.578125.5 2.5 2 4.901042 4 6.5 2 1.598959 3 3.5 3 5.5.010417 2.828125-1.682292 5.380209-4.291667 6.46875-2.609375 1.088542-5.614583.494792-7.619791-1.5"/></g></svg>