<svg height="18" viewBox="0 0 18 18" width="18" xmlns="http://www.w3.org/2000/svg"><path d="m14.401042 14.401042-4.802084-4.802084m9.057292 11.885417c-.78125.78125-2.046875.78125-2.828125 0s-.78125-2.046875 0-2.828125l-1.765625 1.770833c-.78125.78125-2.046875.78125-2.828125 0s-.78125-2.052083 0-2.833333l6.359375-6.359375c.78125-.78125 2.052083-.78125 2.833333 0s.78125 2.046875 0 2.828125l-1.770833 1.765625c.78125-.78125 2.046875-.78125 2.828125 0s.78125 2.046875 0 2.828125zm2.84375.015625-1.401042-1.401042m-16.197916-16.197916-1.401042-1.401042m3.90625 10.265625c-.78125.78125-2.052083.78125-2.833333 0s-.78125-2.046875 0-2.828125l1.770833-1.765625c-.78125.78125-2.046875.78125-2.828125 0s-.78125-2.046875 0-2.828125l2.828125-2.828125c.78125-.78125 2.046875-.78125 2.828125 0s.78125 2.046875 0 2.828125l1.765625-1.770833c.78125-.78125 2.046875-.78125 2.828125 0s.78125 2.052083 0 2.833333zm0 0" fill="none" stroke="#fff" stroke-linecap="round" stroke-linejoin="round" stroke-width="2" transform="scale(.75)"/></svg>