<svg height="18" viewBox="0 0 18 18" width="18" xmlns="http://www.w3.org/2000/svg" xmlns:xlink="http://www.w3.org/1999/xlink"><linearGradient id="a" gradientUnits="userSpaceOnUse" x1="-3.7272" x2="21.7272" y1="21.7272" y2="-3.7272"><stop offset="0" stop-color="#2e27ad"/><stop offset="1" stop-color="#527fff"/></linearGradient><path d="m-1.8-1.8h21.6v21.6h-21.6z" fill="url(#a)"/><path d="m7.980469 2.992188c-1.976563 0-4.082031.582031-4.082031 1.679687v1.929687c.015624.277344.148437.535157.363281.707032-.21875.179687-.351563.441406-.363281.722656v1.917969c.011718.28125.144531.542969.363281.722656-.21875.175781-.351563.4375-.363281.71875v1.921875.046875c.066406 1.054687 2.128906 1.621094 4.082031 1.621094 1.949219 0 4.015625-.566407 4.078125-1.625.003906-.015625.003906-.03125 0-.050781v-1.917969c-.007813-.28125-.140625-.546875-.359375-.722657.21875-.175781.347656-.4375.359375-.71875v-.230468l-1.585938 1.585937c.285156-.082031.5625-.191406.820313-.335937.15625.097656.257812.253906.285156.433594 0 .4375-.929687.917968-2.3125 1.109374-.425781.058594-.855469.089844-1.285156.09375h-.242188c-1.9375-.046874-3.359375-.660156-3.359375-1.203124.027344-.175782.132813-.335938.285156-.429688.753907.417969 1.976563.667969 3.316407.667969h.027343l.132813-.480469h-.160156c-1.320313 0-2.542969-.261719-3.195313-.671875-.257812-.171875-.402344-.355469-.40625-.515625v-1.113281c.734375.5625 2.199219.855469 3.601563.855469.1875 0 .378906 0 .5625-.015626l.136719-.480468c-.238282.015625-.460938.023437-.699219.023437-2.058594 0-3.601563-.632812-3.601563-1.199219.027344-.179687.132813-.339843.285156-.433593.664063.371093 1.679688.605469 2.835938.65625l.011719-.480469c-1.136719-.054688-2.160157-.296875-2.726563-.660156-.257812-.167969-.398437-.351563-.40625-.515625v-1.109375c.734375.5625 2.199219.855468 3.601563.855468h.050781l.257812-.480468h-.308593c-2.058594 0-3.601563-.632813-3.601563-1.199219 0-.570313 1.542969-1.203125 3.601563-1.203125.691406 0 1.382812.078125 2.058593.242188h1.316407c-.71875-.441407-1.960938-.71875-3.375-.71875zm1.800781 1.195312c-.089844 0-.175781.050781-.214844.132812l-1.441406 2.878907c-.039062.074219-.039062.167969.007812.238281.042969.074219.121094.117188.207032.117188h1.359375l-1.347657 4.492187c-.035156.105469.011719.21875.109376.273437.035156.023438.078124.035157.117187.035157.074219 0 .140625-.027344.1875-.082031l5.28125-5.519532c.0625-.070312.082031-.171875.042969-.257812-.035156-.089844-.121094-.148438-.21875-.148438h-1.34375l.613281-1.84375c.023437-.078125.007813-.160156-.039063-.222656-.046874-.0625-.121093-.097656-.203124-.09375zm.132812.484375h2.640626l-.613282 1.839844c-.027344.078125-.015625.160156.035156.222656.046876.066406.125.101563.203126.097656h1.117187l-4.199219 4.390625 1.152344-3.839844c.023438-.074218.007812-.152343-.039062-.210937-.042969-.0625-.117188-.097656-.191407-.097656h-1.289062zm-4.8125 1.632813c-.167968 0-.300781.132812-.300781.300781 0 .164062.132813.300781.300781.300781.164063 0 .296876-.136719.296876-.300781 0-.167969-.132813-.300781-.296876-.300781m0 3.359374c-.167968 0-.300781.136719-.300781.300782 0 .164062.132813.300781.300781.300781.164063 0 .296876-.136719.296876-.300781 0-.164063-.132813-.300782-.296876-.300782m-.722656 2.546876c.734375.558593 2.199219.851562 3.601563.851562 1.402343 0 2.863281-.292969 3.597656-.851562v1.105468c0 .566406-1.539063 1.199219-3.597656 1.199219-2.058594 0-3.601563-.625-3.601563-1.199219zm.722656.8125c-.167968 0-.300781.136718-.300781.300781 0 .167969.132813.300781.300781.300781.164063 0 .296876-.132812.296876-.300781 0-.164063-.132813-.300781-.296876-.300781" fill="#fff"/></svg>