<svg height="18" viewBox="0 0 18 18" width="18" xmlns="http://www.w3.org/2000/svg" xmlns:xlink="http://www.w3.org/1999/xlink"><linearGradient id="a" gradientTransform="matrix(.0182391 0 0 .028125 -6.472969 2.418469)" gradientUnits="userSpaceOnUse" x1="835.59198" x2="821.210999" y1="-36.546001" y2="553.414001"><stop offset="0" stop-color="#d9d8dc"/><stop offset="1" stop-color="#fff" stop-opacity=".385"/></linearGradient><linearGradient id="b" gradientTransform="matrix(.0160594 0 0 .0319359 -6.616828 2.422828)" gradientUnits="userSpaceOnUse" x1="942.356995" x2="824.692017" y1="-40.592999" y2="472.243011"><stop offset="0" stop-color="#8d67af" stop-opacity=".672"/><stop offset="1" stop-color="#9f8daf"/></linearGradient><linearGradient id="c" gradientTransform="matrix(.0172547 0 0 .0297422 -6.538078 2.419594)" gradientUnits="userSpaceOnUse" x1="924.645996" x2="924.645996" y1="120.513" y2="505.851013"><stop offset="0" stop-color="#26053d" stop-opacity=".762"/><stop offset="1" stop-color="#b7b4b4" stop-opacity=".278"/></linearGradient><linearGradient id="d" gradientTransform="matrix(.0259875 0 0 .0197438 -5.961656 2.410031)" gradientUnits="userSpaceOnUse" x1="428.033997" x2="607.325012" y1="198.447998" y2="559.255005"><stop offset="0" stop-color="#91739f" stop-opacity=".46"/><stop offset="1" stop-color="#32054f" stop-opacity=".54"/></linearGradient><linearGradient id="e" gradientTransform="matrix(.0199406 0 0 .0257203 -6.360469 2.415938)" gradientUnits="userSpaceOnUse" x1="907.89502" x2="590.242004" y1="540.635986" y2="201.281006"><stop offset="0" stop-color="#463d49" stop-opacity=".331"/><stop offset="1" stop-color="#340a50" stop-opacity=".821"/></linearGradient><linearGradient id="f" gradientTransform="matrix(.0149062 0 0 .034425 -6.693047 2.424656)" gradientUnits="userSpaceOnUse" x1="1102.296997" x2="1008.070984" y1="100.542" y2="431.64801"><stop offset="0" stop-color="#715383" stop-opacity=".145"/><stop offset="1" stop-color="#f4f4f4" stop-opacity=".234"/></linearGradient><linearGradient id="g" gradientTransform="matrix(.0128995 0 0 .0397687 -6.825375 2.43)" gradientUnits="userSpaceOnUse" x1="1354.66394" x2="1059.233032" y1="140.059998" y2="84.466003"><stop offset="0" stop-color="#a5a1a8" stop-opacity=".356"/><stop offset="1" stop-color="#370c50" stop-opacity=".582"/></linearGradient><g fill-rule="evenodd"><path d="m9.054688.0703125c-3.894532 1.8828125-8.789063 11.6562495-4.710938 15.9453125 3.769531 4.710937 12.011719.183594 9.621094-5.695313-3.023438-5.0625-4.921875-5.328124-4.910156-10.2499995" fill="url(#a)"/><path d="m9.054688.0273438c-3.878907 1.8867182-8.789063 11.6289062-4.695313 15.9335942 1.503906 1.742187 3.9375 2.320312 5.300781 1.28125 3.714844-2.644532 1.042969-7.46875 1.464844-11.039063-1.546875-1.4375-2.097656-4.613281-2.070312-6.1757812" fill="url(#b)"/><path d="m7.972656.605469c-3.136718 2.234375-3.964844 10.546875-3.386718 13.246093 1.152343 6.765626 10.574218 3.980469 9.785156-2.320312-.84375-4.105469-6.863282-5.511719-6.398438-10.925781" fill="url(#c)"/><path d="m11.082031 7.003906c1.460938 1.882813 1.785157 3.175782.957031 3.921875-3.898437 2.730469-8.621093 1.042969-7.59375-5.246093-1.335937 3.179687-3.8125 7.933593 1.644532 8.609374 2.925781.503907 7.59375.28125 8.28125-2.265624-.027344-2.234376-1.519532-3.21875-3.289063-5.019532" fill="url(#d)"/><path d="m5.359375 5.117188c-.410156 2.984374 4.933594 10.957031 8.195313 9.984374-2.488282 5.007813-8-2.980468-9-5.863281.210937-1.546875.3125-2.304687.804687-4.121093" fill="url(#e)"/><path d="m8.492188 6.988281c.113281 1.113281.550781 2.882813 0 4.050781-.546876 1.167969-3.050782 3.304688-2.359376 5.175782 1.601563 3.488281 5.214844-.621094 5.1875-2.671875.15625-1.660157-.929687-5.441407-.253906-7.382813l-.308594-.394531-1.914062-.5625c-.308594.449219-.421875 1.054687-.351562 1.785156" fill="url(#f)"/><path d="m9.183594 1.519531c-4.121094 2.332031-2.433594 5.988281-2.25 9.957031l2.683594-7.792968c-.195313-.800782-.320313-1.335938-.433594-2.164063" fill="url(#g)"/><path d="m9.605469 3.671875c-2.082031 1.644531-1.984375 4.398437-2.617188 7.59375 1.140625-2.996094.578125-5.375 2.617188-7.59375" fill="#330a4c" fill-opacity=".316"/><path d="m6.441406 16.832031c1.125.15625 1.699219.308594 1.757813.421875.042969.589844-1.5625.167969-1.757813-.421875" fill="#fff"/><path d="m7.003906 1.519531c-.972656 1.082031-2.027344 3.066407-2.558594 4.175781-.140624.914063-.070312 2.207032.082032 3.304688.128906-2.558594 1.054687-5.511719 2.476562-7.480469" fill="#ededed" fill-opacity=".603"/></g></svg>