<svg height="18" viewBox="0 0 18 18" width="18" xmlns="http://www.w3.org/2000/svg"><path d="m8.523438 1.125c-1.371094.085938-2.695313.523438-3.84375 1.277344-.484376.316406-.824219.59375-1.253907 1.023437-.652343.65625-1.125 1.316407-1.527343 2.136719-1.117188 2.296875-1.039063 5.054688.210937 7.277344.363281.652344.773437 1.191406 1.316406 1.734375.429688.429687.769531.707031 1.25 1.023437 2.625 1.722656 6.023438 1.722656 8.648438 0 .480469-.316406.820312-.59375 1.25-1.023437.542969-.542969.953125-1.082031 1.316406-1.734375 1.25-2.222656 1.328125-4.984375.210937-7.277344-.402343-.820312-.875-1.480469-1.527343-2.136719-.429688-.429687-.769531-.707031-1.253907-1.023437-1.417968-.933594-3.101562-1.378906-4.796874-1.277344m3.84375 3.082031c.640624.167969 1.0625.636719 1.09375 1.222657.023437.472656-.222657.839843-.652344.980468-.117188.039063-.175782.042969-.335938.042969-.234375.003906-.359375-.015625-.9375-.125-.546875-.105469-.761718-.136719-1.191406-.160156-1.046875-.054688-1.609375.039062-1.742188.285156-.066406.128906.011719.3125.234376.542969.117187.121094.449218.386718 1.570312 1.242187.785156.597657 1.414062 1.089844 1.402344 1.089844-.011719.003906-.664063.027344-1.445313.058594-1.4375.054687-1.582031.066406-1.90625.140625-.601562.144531-1.175781.414062-1.410156.664062-.316406.335938-.21875.667969.28125 1.003906.492187.328126 1.3125.605469 2.769531.933594 1.367188.308594 1.976563.507813 2.382813.769532.140625.089843.21875.171874.257812.261718.09375.226563-.257812.445313-.929687.578125-.449219.085938-.742188.105469-1.648438.105469-1.453125-.003906-2.898437-.117188-3.722656-.300781-.386719-.085938-.378906-.09375.101562-.082031.9375.019531 3.28125-.085938 3.664063-.164063.21875-.042969.289063-.121094.1875-.207031-.113281-.09375-.296875-.136719-.695313-.171875-.78125-.058594-1.648437-.257813-2.414062-.554688-1.144531-.441406-2.027344-1.070312-2.5-1.777343-.507812-.761719-.21875-1.410157.800781-1.820313.675781-.269531 1.65625-.421875 2.558594-.390625.679687.019531 1.132813.097656 1.648437.285156.015626.007813-.070312-.046875-.191406-.121094-1.453125-.859374-2.277344-1.617187-2.714844-2.492187-.089843-.175781-.148437-.382813-.148437-.5 0-.203125.109375-.375.304687-.464844.191407-.089843.347657-.117187.722657-.117187.371093.003906.453125.011718 1.152343.125.632813.101562 1.039063.160156 1.351563.191406.671875.070312 1.351563.078125 1.542969.019531.109375-.035156.179687-.109375.179687-.195312 0-.234375-.699219-.5-1.949219-.738281-.5-.09375-.550781-.109376-.386718-.113282.0625 0 .527344-.023437 1.035156-.050781 1.117188-.0625 1.421875-.0625 1.679688.003906m0 0" fill="#421f5f"/></svg>