<svg height="18" viewBox="0 0 18 18" width="18" xmlns="http://www.w3.org/2000/svg"><g fill="#b3b3b3"><path d="m16.03125 13.496094h1.6875c.15625 0 .28125.101562.28125.226562v.675782c0 .125-.125.222656-.28125.222656h-1.6875c-.15625 0-.28125-.097656-.28125-.222656v-.675782c0-.125.125-.226562.28125-.226562zm0 0"/><path d="m16.03125 8.433594h1.6875c.15625 0 .28125.101562.28125.226562v.675782c0 .125-.125.222656-.28125.222656h-1.6875c-.15625 0-.28125-.097656-.28125-.222656v-.675782c0-.125.125-.226562.28125-.226562zm0 0"/><path d="m16.03125 5.902344h1.6875c.15625 0 .28125.101562.28125.226562v.675782c0 .125-.125.222656-.28125.222656h-1.6875c-.15625 0-.28125-.097656-.28125-.222656v-.675782c0-.125.125-.226562.28125-.226562zm0 0"/><path d="m16.03125 3.371094h1.6875c.15625 0 .28125.101562.28125.226562v.675782c0 .125-.125.222656-.28125.222656h-1.6875c-.15625 0-.28125-.097656-.28125-.222656v-.675782c0-.125.125-.226562.28125-.226562zm0 0"/><path d="m16.03125 10.964844h1.6875c.15625 0 .28125.101562.28125.226562v.675782c0 .125-.125.222656-.28125.222656h-1.6875c-.15625 0-.28125-.097656-.28125-.222656v-.675782c0-.125.125-.226562.28125-.226562zm0 0"/><path d="m4.503906 16.03125v1.6875c0 .15625-.101562.28125-.226562.28125h-.675782c-.121093 0-.222656-.125-.222656-.28125v-1.6875c0-.15625.101563-.28125.222656-.28125h.675782c.125 0 .226562.125.226562.28125zm0 0"/><path d="m9.566406 16.03125v1.6875c0 .15625-.101562.28125-.226562.28125h-.675782c-.121093 0-.222656-.125-.222656-.28125v-1.6875c0-.15625.101563-.28125.222656-.28125h.675782c.125 0 .226562.125.226562.28125zm0 0"/><path d="m12.097656 16.03125v1.6875c0 .15625-.101562.28125-.226562.28125h-.675782c-.121093 0-.222656-.125-.222656-.28125v-1.6875c0-.15625.101563-.28125.222656-.28125h.675782c.125 0 .226562.125.226562.28125zm0 0"/><path d="m14.628906 16.03125v1.6875c0 .15625-.101562.28125-.226562.28125h-.675782c-.121093 0-.222656-.125-.222656-.28125v-1.6875c0-.15625.101563-.28125.222656-.28125h.675782c.125 0 .226562.125.226562.28125zm0 0"/><path d="m7.035156 16.03125v1.6875c0 .15625-.101562.28125-.226562.28125h-.675782c-.121093 0-.222656-.125-.222656-.28125v-1.6875c0-.15625.101563-.28125.222656-.28125h.675782c.125 0 .226562.125.226562.28125zm0 0"/><path d="m.28125 13.496094h1.6875c.15625 0 .28125.101562.28125.226562v.675782c0 .125-.125.222656-.28125.222656h-1.6875c-.15625 0-.28125-.097656-.28125-.222656v-.675782c0-.125.125-.226562.28125-.226562zm0 0"/><path d="m.28125 8.433594h1.6875c.15625 0 .28125.101562.28125.226562v.675782c0 .125-.125.222656-.28125.222656h-1.6875c-.15625 0-.28125-.097656-.28125-.222656v-.675782c0-.125.125-.226562.28125-.226562zm0 0"/><path d="m.28125 5.902344h1.6875c.15625 0 .28125.101562.28125.226562v.675782c0 .125-.125.222656-.28125.222656h-1.6875c-.15625 0-.28125-.097656-.28125-.222656v-.675782c0-.125.125-.226562.28125-.226562zm0 0"/><path d="m.28125 3.371094h1.6875c.15625 0 .28125.101562.28125.226562v.675782c0 .125-.125.222656-.28125.222656h-1.6875c-.15625 0-.28125-.097656-.28125-.222656v-.675782c0-.125.125-.226562.28125-.226562zm0 0"/><path d="m.28125 10.964844h1.6875c.15625 0 .28125.101562.28125.226562v.675782c0 .125-.125.222656-.28125.222656h-1.6875c-.15625 0-.28125-.097656-.28125-.222656v-.675782c0-.125.125-.226562.28125-.226562zm0 0"/><path d="m4.503906.28125v1.6875c0 .15625-.101562.28125-.226562.28125h-.675782c-.121093 0-.222656-.125-.222656-.28125v-1.6875c0-.15625.101563-.28125.222656-.28125h.675782c.125 0 .226562.125.226562.28125zm0 0"/><path d="m9.566406.28125v1.6875c0 .15625-.101562.28125-.226562.28125h-.675782c-.121093 0-.222656-.125-.222656-.28125v-1.6875c0-.15625.101563-.28125.222656-.28125h.675782c.125 0 .226562.125.226562.28125zm0 0"/><path d="m12.097656.28125v1.6875c0 .15625-.101562.28125-.226562.28125h-.675782c-.121093 0-.222656-.125-.222656-.28125v-1.6875c0-.15625.101563-.28125.222656-.28125h.675782c.125 0 .226562.125.226562.28125zm0 0"/><path d="m14.628906.28125v1.6875c0 .15625-.101562.28125-.226562.28125h-.675782c-.121093 0-.222656-.125-.222656-.28125v-1.6875c0-.15625.101563-.28125.222656-.28125h.675782c.125 0 .226562.125.226562.28125zm0 0"/><path d="m7.035156.28125v1.6875c0 .15625-.101562.28125-.226562.28125h-.675782c-.121093 0-.222656-.125-.222656-.28125v-1.6875c0-.15625.101563-.28125.222656-.28125h.675782c.125 0 .226562.125.226562.28125zm0 0"/></g><path d="m2.503906 1.855469h12.992188c.296875 0 .535156.191406.535156.425781v13.320312c0 .234376-.238281.425782-.535156.425782h-12.992188c-.296875 0-.535156-.191406-.535156-.425782v-13.320312c0-.234375.238281-.425781.535156-.425781zm0 0"/><g fill="#fff"><path d="m11.996094 10.695312c-.589844 1.046876-1.714844 1.746094-2.996094 1.746094-1.898438 0-3.445312-1.542968-3.445312-3.445312 0-1.898438 1.546874-3.441406 3.445312-3.441406 1.28125 0 2.40625.710937 2.996094 1.753906l1.828125-1.054688c-.957031-1.675781-2.757813-2.8125-4.824219-2.8125-3.066406 0-5.554688 2.484375-5.554688 5.554688 0 3.074218 2.488282 5.558594 5.554688 5.558594 2.054688 0 3.851562-1.125 4.808594-2.777344zm0 0"/><path d="m3.65625 3.238281c0 .234375-.1875.425781-.421875.425781s-.421875-.191406-.421875-.425781c0-.238281.1875-.429687.421875-.429687s.421875.191406.421875.429687zm0 0"/></g></svg>