<svg height="18" viewBox="0 0 18 18" width="18" xmlns="http://www.w3.org/2000/svg"><path d="m17.8125 13.84375c-.640625.164062-1.039062.007812-1.394531-.527344-.796875-1.199218-1.679688-2.339844-2.53125-3.503906-.109375-.148438-.222657-.296875-.363281-.484375-1.007813 1.359375-2.011719 2.652344-2.957032 4-.335937.480469-.691406.6875-1.320312.519531l3.785156-5.082031-3.523438-4.585937c.605469-.121094 1.023438-.058594 1.394532.484374.820312 1.195313 1.722656 2.335938 2.625 3.542969.90625-1.199219 1.800781-2.34375 2.644531-3.53125.339844-.480469.703125-.664062 1.3125-.484375-.460937.609375-.914063 1.210938-1.367187 1.808594-.613282.808594-1.214844 1.625-1.851563 2.414062-.226563.28125-.1875.460938.011719.726563 1.175781 1.546875 2.339844 3.109375 3.535156 4.703125m-17.625-5.160156c.101562-.507813.167969-1.027344.308594-1.523438.84375-3.015625 4.304687-4.265625 6.679687-2.398437 1.390625 1.09375 1.738281 2.636719 1.667969 4.378906h-7.84375c-.121094 3.125 2.128906 5.007813 4.996094 4.046875 1.003906-.335938 1.597656-1.125 1.894531-2.109375.148437-.492187.398437-.570313.863281-.429687-.238281 1.230468-.777344 2.261718-1.902344 2.90625-1.6875.964843-4.097656.652343-5.363281-.6875-.75-.789063-1.066406-1.769532-1.207031-2.828126-.019531-.167968-.066406-.335937-.097656-.5.003906-.285156.003906-.570312.003906-.855468m.824219-.210938h7.09375c-.046875-2.257812-1.453125-3.863281-3.375-3.878906-2.109375-.015625-3.625 1.550781-3.71875 3.878906"/></svg>