<svg height="18" viewBox="0 0 18 18" width="18" xmlns="http://www.w3.org/2000/svg"><g fill="none" stroke="#fff" stroke-linecap="round" stroke-linejoin="round" stroke-width="2" transform="scale(.75)"><path d="m10.734375 5.078125c4.786458-.572917 9.364583 2.114583 11.203125 6.572917.083333.223958.083333.473958 0 .697916-.369792.890625-.854167 1.723959-1.442708 2.489584m-6.411459-.682292c-1.177083 1.140625-3.046875 1.125-4.203125-.036458-1.161458-1.15625-1.177083-3.026042-.036458-4.203125"/><path d="m17.479167 17.5c-2.682292 1.588542-5.927084 1.932292-8.885417.947917-2.958333-.989584-5.34375-3.213542-6.53125-6.098959-.083333-.223958-.083333-.473958 0-.697916.885417-2.151042 2.447917-3.953125 4.447917-5.140625m-4.510417-4.510417 20 20"/></g></svg>