<svg height="18" viewBox="0 0 18 18" width="18" xmlns="http://www.w3.org/2000/svg"><path d="m17.976562 9c0-4.957031-4.019531-8.9765625-8.976562-8.9765625-4.953125 0-8.9726562 4.0156245-8.9765625 8.9687505v6.945312c.0039063 1.125.9179685 2.039062 2.0429685 2.039062h6.9375c4.953125-.003906 8.972656-4.019531 8.972656-8.976562" fill="#294172"/><path d="m36.972222 68.111111h22.944445v22.944445c0 12.666666-10.277778 22.944444-22.944445 22.944444-12.666666 0-22.944444-10.277778-22.944444-22.944444 0-12.666667 10.277778-22.944445 22.944444-22.944445zm0 0" fill="none" stroke="#3c6eb4" stroke-width="14.003" transform="scale(.140625)"/><path d="m82.75 68.166667h-22.944444v-22.944445c0-12.638889 10.277777-22.916666 22.944444-22.916666 12.638889 0 22.916667 10.25 22.916667 22.916666 0 12.666667-10.277778 22.944445-22.916667 22.944445zm0 0" fill="none" stroke="#3c6eb4" stroke-width="14.003" transform="scale(.140625)"/><path d="m9.410156 8.597656v4.203125c0 2.324219-1.882812 4.210938-4.210937 4.210938-.351563 0-.605469-.039063-.929688-.125-.476562-.125-.867187-.515625-.867187-.96875 0-.550781.398437-.949219.996094-.949219.28125 0 .386718.054688.800781.054688 1.226562 0 2.222656-.992188 2.222656-2.21875v-1.933594c0-.171875-.140625-.3125-.3125-.3125h-1.460937c-.542969 0-.984376-.433594-.984376-.980469s.445313-.980469.996094-.980469" fill="#fff"/><path d="m7.421875 10.566406v-4.203125c0-2.324219 1.886719-4.210937 4.214844-4.210937.351562 0 .601562.039062.929687.125.476563.125.863282.515625.863282.96875 0 .550781-.398438.949218-.992188.949218-.285156 0-.386719-.054687-.800781-.054687-1.226563 0-2.222657.996094-2.226563 2.21875v1.933594c.003906.171875.140625.3125.316406.3125h1.460938c.542969 0 .984375.4375.984375.980469 0 .550781-.445313.980468-.996094.980468" fill="#fff"/><path d="m16.425781 16.421875v-.375l-.167969.390625-.167968-.390625v.375h-.09375v-.589844h.097656l.164062.375.164063-.375h.101563v.589844zm-.695312-.492187v.492187h-.101563v-.492187h-.167968v-.097657h.4375v.097657" fill="#3c6eb4"/></svg>