<svg height="18" viewBox="0 0 18 18" width="18" xmlns="http://www.w3.org/2000/svg"><path d="m6.398438 18.140625c1.671874 0 3.023437-1.351563 3.023437-3.023437v-3.023438h-3.023437c-1.671876 0-3.023438 1.351562-3.023438 3.023438 0 1.671874 1.351562 3.023437 3.023438 3.023437m0 0" fill="#0acf83"/><path d="m3.375 9.070312c0-1.671874 1.351562-3.023437 3.023438-3.023437h3.023437v6.046875h-3.023437c-1.671876 0-3.023438-1.351562-3.023438-3.023438m0 0" fill="#a259ff"/><path d="m3.375 3.023438c0-1.671876 1.351562-3.023438 3.023438-3.023438h3.023437v6.046875h-3.023437c-1.671876 0-3.023438-1.351563-3.023438-3.023437m0 0" fill="#f24e1e"/><path d="m9.421875 0h3.023437c1.671876 0 3.023438 1.351562 3.023438 3.023438 0 1.671874-1.351562 3.023437-3.023438 3.023437h-3.023437zm0 0" fill="#ff7262"/><path d="m15.46875 9.070312c0 1.671876-1.351562 3.023438-3.023438 3.023438-1.671874 0-3.023437-1.351562-3.023437-3.023438 0-1.671874 1.351563-3.023437 3.023437-3.023437 1.671876 0 3.023438 1.351563 3.023438 3.023437m0 0" fill="#1abcfe"/></svg>