<svg height="18" viewBox="0 0 18 18" width="18" xmlns="http://www.w3.org/2000/svg"><g fill="none" stroke="#fff" stroke-linecap="round" stroke-linejoin="round" stroke-width="2" transform="scale(.75)"><path d="m4 22h14c1.104167 0 2-.895833 2-2v-13l-5-5h-9c-1.104167 0-2 .895833-2 2v2"/><path d="m14 2v4c0 1.104167.895833 2 2 2h4m-9.708333 2.697917c-.697917-.697917-1.75-.901042-2.661459-.515625-.291666.119791-.5625.296875-.78125.526041l-.348958.34375-.348958-.34375c-.697917-.692708-1.739584-.90625-2.651042-.526041-.302083.119791-.5625.296875-.791667.526041-.947916.942709-1 2.53125.203125 3.739584l3.588542 3.552083 3.598958-3.552083c1.203125-1.208334 1.140625-2.796875.192709-3.739584zm0 0"/></g></svg>