<svg height="18" viewBox="0 0 18 18" width="18" xmlns="http://www.w3.org/2000/svg"><g fill="none" stroke="#fff" stroke-linecap="round" stroke-linejoin="round" stroke-width="2" transform="scale(.75)"><path d="m10.5 22h7.5c1.104167 0 2-.895833 2-2v-13l-5-5h-9c-1.104167 0-2 .895833-2 2v8.401042"/><path d="m8 18v-7.697917l8-1.302083v7"/><path d="m16 16c0 1.104167-.895833 2-2 2s-2-.895833-2-2 .895833-2 2-2 2 .895833 2 2zm0 0"/><path d="m8 18c0 1.104167-.895833 2-2 2s-2-.895833-2-2 .895833-2 2-2 2 .895833 2 2zm0 0"/></g></svg>