<svg height="18" viewBox="0 0 18 18" width="18" xmlns="http://www.w3.org/2000/svg"><g fill="none" stroke="#fff" stroke-linecap="round" stroke-linejoin="round" stroke-width="2" transform="scale(.75)"><path d="m15 2h-9c-1.104167 0-2 .895833-2 2v16c0 1.104167.895833 2 2 2h12c1.104167 0 2-.895833 2-2v-13zm0 0"/><path d="m14 2v4c0 1.104167.895833 2 2 2h4"/><path d="m14 14.5c0 1.380208-1.119792 2.5-2.5 2.5s-2.5-1.119792-2.5-2.5 1.119792-2.5 2.5-2.5 2.5 1.119792 2.5 2.5zm0 0"/><path d="m13.302083 16.302083 1.697917 1.697917"/></g></svg>