<svg height="18" viewBox="0 0 18 18" width="18" xmlns="http://www.w3.org/2000/svg"><g fill="none" stroke="#fff" stroke-linecap="round" stroke-linejoin="round" stroke-width="2" transform="scale(.75)"><path d="m14 2v4c0 1.104167.895833 2 2 2h4"/><path d="m16 22h2c1.104167 0 2-.895833 2-2v-13l-5-5h-9c-1.104167 0-2 .895833-2 2v3.5m.015625 4.010417c-1.666667 1.479166-2.375 3.760416-1.84375 5.927083.536458 2.161458 2.223958 3.848958 4.385417 4.385417 2.161458.536458 4.442708-.171875 5.927083-1.833334"/><path d="m9 16c-.552083 0-1-.447917-1-1v-4c0-.552083.447917-1.010417.994792-.916667 2.520833.421875 4.5 2.401042 4.921875 4.921875.09375.541667-.364584.994792-.916667.994792zm0 0"/></g></svg>