<svg height="18" viewBox="0 0 18 18" width="18" xmlns="http://www.w3.org/2000/svg"><g fill="none" stroke="#fff" stroke-linecap="round" stroke-linejoin="round" stroke-width="2" transform="scale(.75)"><path d="m17.5 22h.5c1.104167 0 2-.895833 2-2v-13l-5-5h-9c-1.104167 0-2 .895833-2 2v3"/><path d="m14 2v4c0 1.104167.895833 2 2 2h4m-18 11c0-1.104167.895833-2 2-2s2 .895833 2 2v1c0 1.104167-.895833 2-2 2s-2-.895833-2-2v-4c0-3.3125 2.6875-6 6-6s6 2.6875 6 6v4c0 1.104167-.895833 2-2 2s-2-.895833-2-2v-1c0-1.104167.895833-2 2-2s2 .895833 2 2"/></g></svg>