<svg height="18" viewBox="0 0 18 18" width="18" xmlns="http://www.w3.org/2000/svg"><g fill="none" stroke="#fff" stroke-linecap="round" stroke-linejoin="round" stroke-width="2" transform="scale(.75)"><path d="m14 2v4c0 1.104167.895833 2 2 2h4m-16.802083 4.901042-.895834-.401042m.895834 2.598958-.895834.401042"/><path d="m4.677083 21.5c.364584.317708.828125.5 1.3125.5h12.010417c1.104167 0 2-.895833 2-2v-13l-5-5h-9c-1.104167 0-2 .895833-2 2v2.5m.901042 4.697917-.401042-.895834m.401042 6.5-.401042.895834m3-7.395834-.401042.895834m.401042 6.5-.401042-.895834m2.598959-4.302083-.895834.401042m.895834 2.598958-.895834-.401042"/><path d="m9 14c0 1.65625-1.34375 3-3 3s-3-1.34375-3-3 1.34375-3 3-3 3 1.34375 3 3zm0 0"/></g></svg>