<svg height="18" viewBox="0 0 18 18" width="18" xmlns="http://www.w3.org/2000/svg" xmlns:xlink="http://www.w3.org/1999/xlink"><filter id="a" height="100%" width="100%" x="0%" y="0%"><feColorMatrix color-interpolation-filters="sRGB" values="0 0 0 0 1 0 0 0 0 1 0 0 0 0 1 0 0 0 1 0"/></filter><mask id="b"><g filter="url(#a)"><path d="m-1.8-1.8h21.6v21.6h-21.6z" fill-opacity=".2"/></g></mask><clipPath id="c"><path d="m0 0h18v18h-18z"/></clipPath><path d="m2.457031 14.523438 2.214844-14.175782c.027344-.175781.164063-.3124998.335937-.3398435.175782-.03125.347657.0546875.429688.2070315l2.292969 4.273437.910156-1.738281c.074219-.132812.210937-.21875.363281-.21875s.292969.085938.363282.21875l6.183593 11.773438zm0 0" fill="#ffa000"/><path d="m10.113281 9-2.386719-4.511719-5.269531 10.035157zm0 0" fill="#f57c00"/><path d="m15.550781 14.523438-1.699219-10.5c-.023437-.152344-.132812-.277344-.277343-.324219-.144531-.042969-.304688-.007813-.414063.101562l-10.703125 10.722657 5.921875 3.320312c.371094.207031.824219.207031 1.199219 0zm0 0" fill="#ffca28"/><path d="m13.851562 4.023438c-.023437-.152344-.132812-.277344-.277343-.324219-.144531-.042969-.304688-.007813-.414063.101562l-2.125 2.128907-1.667968-3.179688c-.074219-.132812-.210938-.21875-.363282-.21875s-.292968.085938-.363281.21875l-.914063 1.738281-2.289062-4.273437c-.082031-.152344-.257812-.2382815-.429688-.2070315-.175781.0273437-.308593.1640625-.335937.3398435l-2.214844 14.175782h-.007812l.007812.007812.058594.027344 10.640625-10.652344c.109375-.109375.269531-.148438.414062-.101562.148438.046874.253907.171874.28125.320312l1.683594 10.410156.015625-.011718zm-11.375 10.480468 2.195313-14.054687c.027344-.175781.164063-.3125.335937-.34375.175782-.027344.347657.054687.429688.210937l2.292969 4.273438.910156-1.738282c.074219-.136718.210937-.21875.363281-.21875s.292969.082032.363282.21875l1.636718 3.113282zm0 0" fill="#fff" fill-opacity=".2"/><g mask="url(#b)"><g clip-path="url(#c)"><path d="m9.578125 17.742188c-.375.210937-.828125.210937-1.199219 0l-5.90625-3.308594-.015625.089844 5.921875 3.320312c.371094.207031.824219.207031 1.195313 0l5.976562-3.320312-.015625-.09375-5.960937 3.316406zm0 0" fill="#a52714"/></g></g></svg>