<svg height="18" viewBox="0 0 18 18" width="18" xmlns="http://www.w3.org/2000/svg"><g fill="none" stroke="#fff" stroke-linecap="round" stroke-linejoin="round" stroke-width="2" transform="scale(.75)"><path d="m12 5c0-1.65625 1.34375-3 3-3s3 1.34375 3 3-1.34375 3-3 3m-3-3c0-1.65625-1.34375-3-3-3s-3 1.34375-3 3 1.34375 3 3 3m3-3v1m-3 2c-1.65625 0-3 1.34375-3 3s1.34375 3 3 3 3-1.34375 3-3m-3-3h1m5 0c1.65625 0 3 1.34375 3 3s-1.34375 3-3 3-3-1.34375-3-3m3-3h-1m-2 3v-1"/><path d="m14 8c0 1.104167-.895833 2-2 2s-2-.895833-2-2 .895833-2 2-2 2 .895833 2 2zm0 0"/><path d="m12 10v12m0 0c4.197917 0 7-1.666667 7-5-4.197917 0-7 1.666667-7 5m0 0c-4.197917 0-7-1.666667-7-5 4.197917 0 7 1.666667 7 5"/></g></svg>