<svg height="18" viewBox="0 0 18 18" width="18" xmlns="http://www.w3.org/2000/svg"><g fill="none" stroke="#fff" stroke-linecap="round" stroke-linejoin="round" stroke-width="2" transform="scale(.75)"><path d="m17 19c0 1.104167-.895833 2-2 2s-2-.895833-2-2 .895833-2 2-2 2 .895833 2 2zm0 0"/><path d="m20.901042 19.802083c.677083-.34375 1.104166-1.041666 1.098958-1.802083v-10c0-1.104167-.895833-2-2-2h-7.901042c-.677083.005208-1.317708-.333333-1.6875-.901042l-.8125-1.197916c-.369791-.5625-.994791-.901042-1.666666-.901042h-3.932292c-1.104167 0-2 .895833-2 2v13c0 1.104167.895833 2 2 2h5.098958m5.901042-9v-1m0 7v-2"/></g></svg>