<svg height="18" viewBox="0 0 18 18" width="18" xmlns="http://www.w3.org/2000/svg"><g fill="none" stroke="#fff" stroke-linecap="round" stroke-linejoin="round" stroke-width="2" transform="scale(.75)"><path d="m9 20h-5c-1.104167 0-2-.895833-2-2v-13c0-1.104167.895833-2 2-2h3.901042c.677083-.005208 1.317708.333333 1.6875.901042l.8125 1.197916c.369791.5625.994791.901042 1.666666.901042h7.932292c1.104167 0 2 .895833 2 2v.5"/><path d="m12 10v4h4"/><path d="m12 14 1.536458-1.604167c1.161459-1.119791 2.796875-1.609375 4.385417-1.3125 1.588542.302084 2.932292 1.348959 3.614583 2.8125m.463542 8.104167v-4h-4"/><path d="m22 18-1.536458 1.604167c-1.161459 1.119791-2.796875 1.609375-4.385417 1.3125-1.588542-.302084-2.932292-1.348959-3.614583-2.8125"/></g></svg>