<svg height="18" viewBox="0 0 18 18" width="18" xmlns="http://www.w3.org/2000/svg"><g fill="none" stroke="#fff" stroke-linecap="round" stroke-linejoin="round" stroke-width="2" transform="scale(.75)"><path d="m2 11.5v-6.5c0-1.104167.895833-2 2-2h3.901042c.697916 0 1.296875.302083 1.697916.901042l.802084 1.197916c.401041.598959 1 .901042 1.697916.901042h7.901042c1.104167 0 2 .895833 2 2v10c0 1.104167-.895833 2-2 2h-9.5"/><path d="m11.380208 13.625c.828125-.828125.828125-2.171875 0-3.005208-.833333-.828125-2.177083-.828125-3.005208 0l-5.010417 5.015625c-.239583.234375-.411458.53125-.505208.854166l-.838542 2.869792c-.052083.171875 0 .364583.125.489583.130209.130209.317709.182292.494792.130209l2.869792-.838542c.322916-.09375.614583-.265625.854166-.505208zm0 0"/></g></svg>