<svg height="18" viewBox="0 0 18 18" width="18" xmlns="http://www.w3.org/2000/svg"><g fill="none" stroke="#fff" stroke-linecap="round" stroke-linejoin="round" stroke-width="2" transform="scale(.75)"><path d="m11 20h-7c-1.104167 0-2-.895833-2-2v-13c0-1.104167.895833-2 2-2h3.901042c.677083-.005208 1.317708.333333 1.6875.901042l.8125 1.197916c.369791.5625.994791.901042 1.666666.901042h7.932292c1.104167 0 2 .895833 2 2v1.5"/><path d="m13.901042 17.447917c-1.203125-1.197917-1.140625-2.796875-.203125-3.729167.458333-.453125 1.078125-.713542 1.723958-.713542s1.260417.260417 1.71875.713542l.359375.34375.338542-.34375c.458333-.458333 1.078125-.71875 1.723958-.723958.645833 0 1.270833.255208 1.729167.713541.947916.953125 1 2.53125-.203125 3.739584l-3.588542 3.552083zm0 0"/></g></svg>