<svg height="18" viewBox="0 0 18 18" width="18" xmlns="http://www.w3.org/2000/svg"><path d="m4 16v-2.380208c0-2.119792-1.03125-3.119792-1-5.619792.03125-2.71875 1.489583-6 4.5-6 1.869792 0 2.5 1.802083 2.5 3.5 0 3.109375-2 5.661458-2 8.682292v1.817708c0 1.104167-.895833 2-2 2s-2-.895833-2-2m16 4v-2.380208c0-2.119792 1.03125-3.119792 1-5.619792-.03125-2.71875-1.489583-6-4.5-6-1.869792 0-2.5 1.802083-2.5 3.5 0 3.109375 2 5.661458 2 8.682292v1.817708c0 1.104167.895833 2 2 2s2-.895833 2-2m-4-3h4m-16-4h4" fill="none" stroke="#fff" stroke-linecap="round" stroke-linejoin="round" stroke-width="2" transform="scale(.75)"/></svg>