<svg height="18" viewBox="0 0 18 18" width="18" xmlns="http://www.w3.org/2000/svg"><path d="m2.667969 0c-.804688 0-2.667969 1.546875-2.667969 2.625v12.71875c0 .800781 1.578125 2.660156 2.640625 2.660156l12.734375-.007812c.949219 0 2.628906-1.359375 2.628906-2.613282v-12.734374c0-.855469-1.492187-2.648438-2.59375-2.648438zm-.195313 1.921875h13.128906v5.863281l-1.546874-.023437c-.011719-.011719-.054688-.425781-.085938-.808594-.160156-1.792969-.5625-2.824219-1.339844-3.226563-.410156-.210937-1.046875-.273437-3.097656-.273437h-1.90625v4.398437h.339844c.570312-.007812 1.296875-.140624 1.539062-.289062.308594-.191406.570313-.742188.660156-1.40625.070313-.484375.125-.847656.125-.847656h1.5v6.988281h-1.550781v-.273437c0-.453126-.214843-1.503907-.363281-1.824219-.230469-.484375-.625-.65625-1.75-.761719l-.515625-.046875.03125 2.265625c.019531 2.152344.035156 2.273438.167969 2.457031.167968.222657.351562.265625 1.476562.351563l.75.035156-.003906 1.539062h-7.558594v-1.539062l.691406-.042969c1.402344-.09375 1.390626-.085937 1.460938-1.183593.0625-1.046876-.015625-9.226563-.0625-9.390626-.078125-.269531-.371094-.425781-1.238281-.425781l-.851563-.003906zm0 0" fill="#734c94"/></svg>