<svg height="18" viewBox="0 0 18 18" width="18" xmlns="http://www.w3.org/2000/svg"><g fill-rule="evenodd"><path d="m3.238281 17.171875c.003907.050781-.019531.058594-.058593.03125-.078126-.054687-.164063-.101563-.226563-.171875-.316406-.347656-.542969-.746094-.652344-1.207031-.042969-.191407-.046875-.378907-.035156-.574219.027344-.371094 0-.742188-.097656-1.105469-.007813-.023437-.023438-.046875-.050781-.101562l-.191407.234375-.019531-.015625c.003906-.535157-.015625-1.070313-.109375-1.609375l-.210937.5-.035157-.003906c-.015625-.082032-.035156-.160157-.046875-.242188-.082031-.46875-.09375-.945312-.070312-1.417969.042968-.734375.164062-1.453125.503906-2.117187.097656-.183594.214844-.359375.367188-.519532-.078126.023438-.160157.046876-.234376.074219-.082031.027344-.164062.066407-.257812.105469.101562-.265625.234375-.5.410156-.710938.175782-.203124.359375-.402343.546875-.609374l-.433593-.160157-.03125-.03125c.03125-.015625.0625-.027343.089843-.046875.421875-.320312.90625-.503906 1.417969-.632812.164062-.039063.132812-.007813.144531-.179688.019531-.273437.050781-.546875.074219-.820312l.023438-.003906.375.710937c-.042969-1.089844.035156-2.160156.335937-3.207031h.027344c0 .035156.003906.070312.003906.105468-.007813.230469.015625.453126.105469.667969.0625.148438.15625.269531.308594.363281.066406-.640624.234374-1.25.4375-1.867187l.304687.339844c.042969-.421875.140625-.835938.289063-1.230469l.429687.546875.257813-1.207031.179687.398437c-.011719.632813.296875 1.117188.730469 1.554688l-.480469.242187c.503906-.039062.863281-.214844 1.121094-.535156.078125-.117188.164062-.230469.226562-.359375.09375-.1875.085938-.191406-.085937-.308594-.464844-.308593-.777344-.730469-.945313-1.261719.199219-.253906.472657-.386718.761719-.488281l.035156.570313c.078125-.042969.132813-.070313.1875-.101563.472656-.261719.980469-.4375 1.511719-.539062.101563-.019531.203125-.035157.308594-.050781.011719 0 .023437.007812.035156.011718l-.496094.398438c-.179687.144531-.324219.320312-.449219.515625l-.019531.015625v.019531c-.015625.019531-.039062.035156-.050781.054687-.097656.175782-.195312.351563-.28125.535157-.046875.105469-.078125.21875-.121094.335937l.800782.074219.011718.03125c-.570312.515625-1.148437 1.03125-1.679687 1.613281l.570312.078125c-.160156.066407-.308593.117188-.445312.183594-.398438.195313-.773438.425781-1.042969.796875-.210938.285156-.425781.5625-.640625.847656-.167969-.167968-.335937-.335937-.503906-.503906l-.125.585938.355469.320312c-.019532.035156-.039063.070312-.058594.105469-.109375.234375-.230469.464843-.328125.703125-.101563.25-.125.519531-.144531.785156-.023438.308594-.054688.613281-.066407.921875-.011719.371094-.011719.746094.050781 1.117187.054688.324219.097657.652344.160157.976563.039062.199219.113281.394531.167969.589844l.027343-.003907.234375-.476562.027344.003906c.082031.410156.207031.8125.382812 1.195313.171876.378906.375.742187.6875 1.039062v-.503906h.035157c.066406.035156.132812.066406.195312.101563.441407.253906.902344.476562 1.378907.664062.570312.230469 1.144531.464844 1.6875.757812.171874.09375.339843.1875.488281.308594.335937.273438.65625.566406.984375.851563l-.027344.0625c-.109375.214843-.21875.425781-.324219.640625-.089843.191406-.179687.382812-.273437.574218l-.023438-.003906v-.660156c-.035156.082031-.050781.167969-.074218.253906-.09375.339844-.1875.679688-.28125 1.015625-.03125.101563-.101563.164063-.203126.203125-.117187.046875-.226562.03125-.339843-.003906l-.03125-.015625c-.171875-.128906-.34375-.253906-.515625-.382813-.042969-.03125-.089844-.0625-.132813-.089843l.0625.632812-.03125.015625c-.703125-.570312-1.558593-.855468-2.335937-1.285156-.253906-.160156-.503906-.320312-.757813-.484375-.066406-.042969-.125-.09375-.207031-.152344l.039062.308594-.019531.015625-.71875-.492188c.011719-.097656.03125-.195312.035157-.292968.011718-.179688.035156-.359375.011718-.539063-.046875-.425781-.269531-.75-.621094-.992187-.144531-.101563-.285156-.207032-.417968-.320313-.070313-.0625-.128906-.144531-.144532-.234375l.414063.035156c-.125-.226562-.246094-.429687-.34375-.644531-.09375-.214843-.1875-.433593-.175781-.707031.070312.097656.117187.191406.226562.234375-.039062-.363281.015625-.703125.074219-1.042969s.140625-.675781.210937-1.011718c-.25.4375-.503906.871093-.582031 1.402343l-.203125-.21875c-.011718.128907-.027344.25-.023437.367188.003906.265625.015625.53125.03125.792969.023437.300781.105469.589843.222656.867187.136719.316406.371094.5625.585937.824219.136719.164062.253907.34375.285157.5625.03125.234375.054687.46875.082031.707031l.054688.796875c-.15625.035156-.59375-.070312-.6875-.171875l.074218-.039063c-.078125-.066406-.164062-.125-.230468-.203124-.101563-.117188-.121094-.269532-.144532-.414063-.003906-.039063-.035156-.074219-.054687-.109375-.039063.035156-.085938.058594-.105469.101562-.019531.035157-.015625.085938-.003906.128907.015625.074219.039062.152343.070312.222656.097656.214844.199219.429687.292969.644531.117187.265625.214844.535156.207031.832032-.003906.085937-.019531.105468-.097656.070312-.109375-.042969-.214844-.089844-.320312-.144531-.078126-.042969-.15625-.09375-.246094-.144531v.09375l-.007813.007812c-.023437-.015625-.050781-.023438-.074219-.039062-.089843-.078126-.179687-.152344-.269531-.230469l-.019531-.035157-.160156-.402343-.015625.058593-.023438.054688c-.125-.222656-.1875-.445312-.21875-.675781-.058593.199219.003907.390625.03125.59375l.050781-.058594c.046876.09375.085938.183594.132813.269531.050781.085938.105469.167969.164063.25.027343.039063.070312.070313.105468.105469.085938.214844.175782.425781.21875.679687l-.460937-.136718c-.1875-.085938-.378907-.160156-.527344-.308594-.007813-.003906-.019531-.003906-.03125-.007812l-.007813-.023438-.007812.003906.015625.019532.152344.320312-.011719.023438-.238281-.085938zm0 0-.007812-.003906zm.1875-.289063-.179687-.433593-.058594.039062-.121094-.566406c-.117187.222656.109375.855469.359375.960937m1.984375-7.074218-.003906-.007813h-.007812l.003906.007813zm0 0" fill="#d3edf6"/><path d="m12.308594 15.230469c-.328125-.285157-.648438-.574219-.984375-.851563-.148438-.121094-.316407-.214844-.484375-.308594-.546875-.292968-1.117188-.527343-1.691406-.757812-.476563-.1875-.9375-.410156-1.378907-.664062-.0625-.035157-.128906-.066407-.191406-.101563h-.035156v.503906c-.316407-.296875-.519531-.660156-.691407-1.039062-.175781-.382813-.296874-.78125-.382812-1.195313l-.023438-.003906-.238281.476562-.023437.003907c-.058594-.195313-.128906-.390625-.171875-.589844-.0625-.324219-.105469-.652344-.160157-.976563-.0625-.371093-.0625-.742187-.050781-1.117187.011719-.304687.042969-.613281.066407-.917969.019531-.269531.042968-.539062.144531-.785156.097656-.242188.21875-.472656.332031-.703125.015625-.039063.035156-.074219.054688-.109375l.035156.023438c.222656.183593.449218.367187.667968.554687.039063.035156.070313.101563.082032.15625.015625.105469.011718.214844.015625.320313.007812.183593.054687.261718.226562.316406.582031.183594 1.175781.289062 1.792969.21875.171875-.019532.316406-.085938.414062-.230469.089844-.125.175782-.253906.257813-.386719.09375-.148437.121094-.160156.292969-.132812.078125.011718.101562.046875.101562.121094-.003906.109374 0 .222656-.003906.332031 0 .246093.132812.386719.359375.441406.195313.042969.390625.074219.585937.09375.25.023437.503907.046875.746094-.046875-.058594.15625-.117187.308594-.179687.464844-.023438.066406-.050781.136718-.082031.199218-.050782.09375-.066407.175782.035156.246094l.015625.019532.046875.09375c.113281.226562.238281.453124.335937.6875.152344.375.207031.769531.21875 1.171874.015625.46875-.074219.921876-.25 1.355469-.054687.125-.097656.265625-.1875.363281-.390625.453126-.886719.65625-1.488281.59375l-.171875-.019531c.007813.019531.023437.03125.039063.042969.40625.234375.808593.46875 1.210937.703125.023437.011719.046875.019531.070313.027344.078124.066406.152343.132812.226562.199219l.359375.320312.027344.019531c.121093-.105469.234375-.210937.355469-.308593.359374-.292969.753906-.523438 1.175781-.714844.308593-.136719.605469-.300782.90625-.453125.019531-.011719.039062-.019531.082031-.015625l-.109375.410156-.023437.085938-.007813.003906.003906.003906.003907-.007812c.140624-.066407.285156-.125.417968-.203126.113282-.0625.210938-.144531.316406-.21875-.019531.042969-.035156.089844-.058593.132813-.183594.316406-.425781.585937-.691407.832031-.074218.070313-.15625.136719-.246093.210938l.023437-.398438c-.390625.324219-.714844.667969-1.03125 1.027344l-.023437-.007812-.03125-.46875c-.34375.308593-.683594.597656-.953125.957031m-4.621094-7.15625c.003906.050781.007812.082031.011719.117187.050781.242188.1875.425782.375.574219.390625.304687.847656.449219 1.328125.527344.433594.074219.871094.042969 1.304687.03125.019531 0 .039063-.003907.074219-.011719l-.097656-.210938c-.050782-.101562-.101563-.203124-.148438-.304687-.035156-.074219-.011718-.125.058594-.175781.148438-.105469.292969-.21875.441406-.332032-.101562-.085937-.230468-.140624-.363281-.148437-.371094-.027344-.746094-.058594-1.117187-.0625-.617188-.011719-1.234376-.003906-1.867188-.003906m1.960938 2.539062.035156-.003906c.050781-.101563.105468-.199219.148437-.304687.050781-.128907.097657-.25.242188-.308594.078125-.027344.148437-.078125.222656-.117188l-.003906-.027344c-.648438.039063-1.28125-.03125-1.921875-.238281.019531.273438.089844.507813.203125.738281l.246093-.273437c.078126.210937.128907.414063.285157.589844l.300781-.445313zm.578124 2.429688-.007812-.007813v.011719zm-3.554687-7.351563c.214844-.285156.433594-.5625.640625-.847656.269531-.371094.644531-.601562 1.042969-.796875.140625-.066406.285156-.117187.445312-.183594l-.570312-.078125c.535156-.582031 1.109375-1.097656 1.683593-1.613281l-.015624-.03125-.796876-.074219c.039063-.117187.070313-.230468.121094-.335937.085938-.183594.183594-.355469.277344-.535157.011719-.019531.035156-.035156.050781-.054687.03125.011719.058594.027344.089844.035156.433594.09375.867187.183594 1.300781.277344.117188.027344.121094.027344.121094-.097656v-.652344c.140625-.039063.28125-.085937.425781-.117187.335938-.070313.671875-.136719 1.007813-.199219.167968-.027344.335937-.039063.519531-.0625l-.355469.617187.023438.011719c.148437-.042969.300781-.097656.453125-.128906.152343-.035157.3125-.050781.484375-.074219v.25c.421875-.054688.828125-.046875 1.246094.035156-.027344.054688-.050782.097656-.070313.140625-.070313.152344-.140625.308594-.214844.460938-.027343.066406-.015625.101562.058594.121093.171875.050782.339844.105469.507813.15625.03125.011719.066406.027344.109374.042969-.070312.089844-.140624.167969-.207031.253907-.179687.238281-.355469.480468-.535156.71875-.007813.015624-.011719.03125-.015625.050781l-.359375.558593c-.109375.183594-.21875.371094-.328125.558594-.007812.011719-.003906.035156-.003906.050782-.050782.078124-.113282.152343-.160156.234374-.207032.390626-.417969.78125-.613282 1.179688-.191406.390625-.371094.785156-.554687 1.179688-.011719.023437-.015625.050781-.019531.074218l-.890626-.179687c-.097656-.132813-.242187-.144531-.351562-.03125-.246094.007812-.496094.019531-.742188.023437-.128906 0-.257812-.003906-.382812-.03125-.378906-.082031-.757812-.179687-1.136719-.269531-.0625-.152344-.28125-.175781-.386719-.082031h-.027343c-.46875-.078125-.941407-.136719-1.421875-.117188-.023438.003906-.050782-.011718-.066406-.027344-.128907-.136718-.253907-.273437-.382813-.410156m1.617187.273438.046876-.019532c.203124-.105468.414062-.171874.644531-.125.042969.011719.089843.011719.144531.019532-.136719-.207032-.476562-.226563-.667969-.101563-.082031.050781-.164062.113281-.167969.226563l-.003906.007812zm.871094-.464844c-.082031-.195312-.339844-.292969-.570312-.230469-.191406.054688-.375.261719-.351563.421875.257813-.292968.566407-.316406.921875-.191406m2.542969.371094c.25.023437.46875.105468.625.328125.007813-.183594-.0625-.289063-.210937-.371094-.136719-.074219-.304688-.054687-.414063.042969m.441406.703125c-.019531-.203125-.085937-.367188-.285156-.425781-.105469-.03125-.210937-.015626-.300781.070312.265625.074219.359375.082031.585937.355469" fill="#e9f5fa"/><path d="m12.363281 10.753906c-.011719-.398437-.066406-.792968-.21875-1.167968-.097656-.234376-.222656-.460938-.335937-.6875l-.046875-.09375c.085937.027343.171875.054687.257812.078124.128907.03125.253907.070313.382813.089844.066406.011719.140625-.011718.214844-.023437.027343-.003907.050781-.011719.09375-.023438l-.03125.171875c.285156-.136718.492187-.339844.660156-.582031.167968-.238281.3125-.492187.460937-.738281l.070313.113281c.121094-.1875.035156-.75-.164063-1.082031.050781 0 .09375-.003906.132813 0 .265625.019531.535156.015625.773437.160156.1875.109375.320313.269531.414063.476562l-.203125-.007812c.199219.324219.277343.660156.246093 1.046875l-.15625-.125c-.007812.039063-.011718.074219-.023437.113281-.03125.109375-.0625.214844-.09375.324219-.007813.03125-.003906.0625-.007813.09375.03125 0 .070313.011719.097657 0 .164062-.058594.328125-.121094.492187-.183594.066406-.023437.136719-.046875.203125-.074219.070313-.03125.097657-.003906.09375.066407-.1875.066406-.371093.128906-.554687.195312-.023438.007813-.046875.023438-.070313.035157.234375-.027344.328125-.015626.449219.070312.085938.058594.097656.136719.019531.210938-.058593.054687-.128906.101562-.199219.148437-.042968.027344-.089843.046875-.148437.078125l.082031.03125c-.128906.082031-.253906.15625-.363281.238281-.144531.105469-.285156.214844-.410156.339844-.097657.097656-.066407.164063.070312.175781.171875.015625.34375.015625.515625.019532h.109375l-.082031.105468-.003906.007813.003906-.007813c.066406 0 .128906.007813.191406 0 .042969-.007812.097656-.027344.113282-.054687.03125-.066407.082031-.074219.140624-.085938.109376-.019531.222657-.039062.332032-.0625.089844-.019531.175781-.046875.261718-.070312l.011719.015625-.195312.183594-.027344-.109376c-.308594.144532-.617187.273438-.910156.425782-.140625.070312-.261719.1875-.390625.285156l-.007813.007812.007813-.007812.082031.007812-.324219.273438c.050782.046875.09375.105469.148438.125.105468.039062.21875.066406.328125.074219.167969.011719.339843.003906.507812.003906l.003907-.039063-.132813-.054687.671875-.078125c-.457031.28125-.988281.25-1.492188.335938 0 .136718.113282.203124.1875.296874l-.054687.042969.160156.132813c.027344.050781 0 .050781-.039062.054687-.292969.015625-.574219-.035156-.84375-.140625-.167969-.0625-.324219-.144531-.484375-.21875-.015625-.007812-.035156-.007812-.050782-.011718l-.007812-.007813.007812.011719.070313.15625c-.09375-.019532-.1875-.042969-.28125-.050782-.21875-.015624-.421875.046876-.625.117188l-.074219.023438c.003906-.074219.015625-.152344.015625-.226563 0-.304687 0-.609375-.003906-.914063 0-.011718-.019531-.023437-.027344-.035156" fill="#b3e0ee"/><path d="m12.308594 15.230469c.269531-.359375.609375-.648438.953125-.957031l.03125.46875.023437.007812c.316406-.355469.640625-.703125 1.03125-1.027344l-.023437.398438c.089843-.074219.171875-.140625.246093-.210938.265626-.246094.507813-.515625.691407-.832031.023437-.042969.039062-.089844.058593-.132813h.019532c-.058594.191407-.109375.386719-.175782.574219-.144531.414063-.417968.75-.65625 1.109375-.238281.363282-.453124.738282-.679687 1.113282-.015625.027343-.023437.0625-.03125.097656l-.007813.007812.007813-.007812c.105469-.050782.207031-.105469.308594-.160156.097656-.046876.191406-.09375.304687-.128907l-.070312.132813c-.246094.472656-.492188.949218-.742188 1.421875-.097656.1875-.207031.371093-.320312.550781-.019532.03125-.074219.058594-.113282.058594-.5.003906-1-.007813-1.496093.003906-.363281.007812-.636719-.164062-.894531-.382812l-.011719-.023438c.113281.035156.222656.050781.339843.003906.101563-.039062.171876-.097656.203126-.199218l.28125-1.019532c.023437-.082031.039062-.167968.074218-.253906v.660156l.023438.003906c.09375-.191406.183594-.382812.273437-.570312.105469-.214844.214844-.429688.324219-.644531zm0 0" fill="#65c1dd"/><path d="m6.113281 15.382812.71875.492188.019531-.015625-.039062-.308594c.082031.058594.140625.109375.207031.15625.253907.160157.507813.320313.757813.480469l-.535156.148438c.625.265624 1.191406.644531 1.460937 1.359374-.183594.011719-.351563.027344-.519531.035157-.363282.015625-.726563.027343-1.085938.039062-.523437.015625-1.046875.023438-1.570312.035157-.152344.003906-.300782.007812-.453125.015624-.242188.007813-.433594-.085937-.570313-.28125-.015625-.023437-.035156-.046874-.058594-.074218l-.167968.117187c-.097656-.085937-.183594-.183593-.234375-.304687l.460937.136718c-.042968-.25-.132812-.464843-.214844-.679687l-.050781-.160156c.089844.078125.179688.15625.269531.230469.023438.015624.050782.023437.078126.039062l.011718.019531-.007812-.027343v-.09375c.089844.054687.167968.105468.25.144531.101562.054687.207031.101562.316406.148437.078125.03125.097656.015625.097656-.074218.007813-.292969-.089844-.566407-.203125-.832032-.097656-.214844-.199219-.425781-.296875-.644531-.03125-.070313-.054687-.144531-.070312-.222656-.011719-.042969-.015625-.09375.003906-.128907.019531-.039062.070312-.066406.105469-.101562.019531.035156.050781.070312.054687.109375.023438.148437.042969.296875.144532.414063.066406.078124.152343.136718.230468.203124l-.074218.039063c.09375.101563.53125.207031.6875.175781l-.054688-.800781.050781.027344c.09375.0625.1875.121093.28125.183593" fill="#65c2dd"/><path d="m14.707031 11.996094-.160156-.132813.054687-.042969c-.074218-.09375-.1875-.160156-.1875-.296874.503907-.085938 1.035157-.054688 1.492188-.335938l-.671875.078125.132813.054687-.003907.039063c-.167969 0-.339843.007813-.503906-.003906-.113281-.007813-.226563-.035157-.332031-.074219-.054688-.019531-.09375-.078125-.148438-.125l.324219-.273438-.082031-.007812c.128906-.097656.25-.214844.390625-.285156.292969-.152344.601562-.28125.910156-.425782l.03125.109376.191406-.183594-.011719-.015625c-.085937.023437-.171874.050781-.261718.070312-.109375.023438-.222656.042969-.332032.066407-.058593.007812-.109374.015624-.140624.082031-.015626.027343-.070313.046875-.109376.054687-.066406.007813-.128906 0-.195312 0l.082031-.105468h-.109375c-.171875-.003907-.34375-.003907-.515625-.019532-.136719-.011718-.167969-.078125-.070312-.175781.125-.125.269531-.234375.410156-.339844.113281-.082031.234375-.15625.363281-.238281l-.082031-.03125c.058594-.03125.105469-.050781.148437-.078125.070313-.046875.140626-.09375.203126-.148437.074218-.074219.0625-.152344-.023438-.210938-.121094-.085938-.214844-.097656-.449219-.070312.023438-.011719.046875-.027344.070313-.035157.183594-.066406.371094-.128906.554687-.195312.152344.007812.304688 0 .453125.023437.203125.027344.3125.1875.425782.335938l-.011719.023437-.207031-.066406c.125.207031.234374.402344.242187.644531-.015625-.007812-.03125-.011718-.039063-.019531-.007812-.011719-.011718-.027344-.019531-.054687-.058593.132812-.085937.25-.148437.34375-.109375.152343-.105469.285156-.023438.449218.058594.117188.058594.265625.085938.398438l-.03125.011718-.089844-.105468c-.007812.183594-.011719.347656-.101562.5l-.039063-.09375c-.066406.0625-.128906.113281-.1875.175781-.015625.015625-.015625.054687-.007813.082031.027344.152344.078126.304688.023438.46875l-.070312-.03125c-.09375.203125-.261719.308594-.472657.332032-.226562.023437-.453125-.015626-.667969-.097657-.027343-.007812-.054687-.015625-.082031-.023437" fill="#ebf7fe"/><path d="m11.570312 6.636719.890626.179687.074218.023438c.058594.019531.082032.0625.0625.125-.023437.074218-.042968.148437-.078125.21875-.019531.039062-.058593.074218-.097656.09375-.066406.027344-.105469.070312-.136719.136718-.039062.089844-.082031.179688-.136718.261719-.050782.074219-.117188.132813-.175782.199219-.242187.09375-.496094.070312-.746094.046875-.195312-.019531-.390624-.050781-.585937-.09375-.226563-.054687-.359375-.195313-.359375-.441406.003906-.109375 0-.222657.003906-.332031 0-.074219-.023437-.109376-.101562-.121094-.171875-.027344-.199219-.015625-.292969.132812-.082031.132813-.167969.261719-.257813.386719-.097656.144531-.242187.210937-.414062.230469-.617188.070312-1.210938-.035156-1.792969-.222656-.171875-.054688-.21875-.128907-.226562-.3125-.003907-.105469 0-.214844-.015625-.320313-.011719-.054687-.042969-.121094-.082032-.15625-.21875-.1875-.445312-.371094-.667968-.554687l-.035156-.023438-.355469-.320312.128906-.585938.5.503906c.128906.136719.253906.273438.382813.410156.015624.015626.042968.03125.066406.027344.480468-.019531.953125.039063 1.421875.117188h.027343l.386719.082031c.378907.089844.757813.1875 1.136719.269531.125.027344.253906.03125.382812.03125.246094-.003906.496094-.015625.742188-.023437zm-3.191406-.238281c-.257812-.015626-.519531-.035157-.777344-.042969-.105468-.003907-.164062.054687-.175781.160156-.019531.179687-.039062.363281-.050781.546875-.011719.1875.007812.210938.1875.273438.5.167968 1.011719.21875 1.535156.210937.191406-.003906.332032-.085937.429688-.242187.078125-.128907.144531-.265626.210937-.402344.058594-.121094.039063-.175782-.085937-.214844-.195313-.066406-.394532-.113281-.589844-.167969zm2.882813.371093-.003907.019531c-.097656 0-.199218-.003906-.296874.003907-.085938.003906-.175782.015625-.261719.03125-.113281.019531-.183594.085937-.195313.203125-.011718.121094-.019531.242187-.019531.367187 0 .210938.039063.257813.242187.308594.292969.070313.585938.097656.886719.082031.070313-.003906.144531-.019531.214844-.035156.09375-.015625.164063-.066406.203125-.160156.070312-.164063.148438-.328125.214844-.496094.058594-.140625.042968-.175781-.101563-.199219-.292969-.050781-.589843-.082031-.882812-.125" fill="#515053"/><path d="m8.484375 2.71875c-.257813.320312-.621094.496094-1.125.535156l.480469-.242187c-.433594-.4375-.742188-.921875-.730469-1.554688.023437-.390625.140625-.742187.367187-1.0625.023438-.027343.050782-.054687.074219-.085937l.011719.007812.003906.035156c-.015625.023438-.039062.046876-.046875.078126-.085937.382812-.085937.765624.039063 1.144531.136718.40625.394531.726562.730468.988281.066407.050781.128907.105469.195313.15625" fill="#4f4e51"/><path d="m12.363281 10.753906c.007813.011719.027344.023438.027344.035156.003906.304688.003906.609376.003906.914063 0 .078125-.011719.152344-.015625.226563-.066406.265624-.117187.535156-.195312.792968-.128906.40625-.335938.769532-.597656 1.101563-.023438-.007813-.046876-.015625-.070313-.027344-.402344-.234375-.804687-.46875-1.210937-.703125-.015626-.011719-.03125-.023438-.039063-.042969.058594.007813.117187.015625.171875.019531.601562.0625 1.097656-.140624 1.488281-.59375.089844-.097656.132813-.238281.1875-.363281.175781-.433593.265625-.886719.25-1.359375" fill="#66c2dd"/><path d="m11.0625.703125v.652344c0 .125-.003906.125-.121094.097656-.433594-.09375-.867187-.183594-1.300781-.277344-.03125-.007812-.058594-.023437-.089844-.035156v-.019531l.019531-.015625c.125-.195313.269532-.371094.449219-.515625l.496094-.394532c0 .027344.007813.058594-.003906.085938-.035157.125-.078125.246094-.128907.394531.242188-.089843.449219-.199219.679688-.238281zm0 0" fill="#ebf7fd"/><path d="m8.484375 2.71875c-.066406-.050781-.128906-.105469-.195313-.15625-.335937-.261719-.59375-.582031-.730468-.988281-.125-.378907-.125-.761719-.039063-1.144531.007813-.03125.03125-.054688.046875-.078126l.113282.4375c.164062.53125.476562.953126.941406 1.261719.171875.117188.179687.121094.085937.308594-.058593.128906-.148437.242187-.222656.359375" fill="#737f84"/><path d="m13.808594 4.148438c.003906-.015626-.003906-.039063.003906-.050782.109375-.1875.21875-.375.328125-.558594.191406-.039062.382813-.066406.570313-.121093.414062-.117188.78125-.320313 1.074218-.644531.035156-.035157.070313-.074219.105469-.109376-.148437.421876-.371094.796876-.695313 1.109376-.308593.296874-.6875.402343-1.105468.394531-.09375-.003907-.1875-.011719-.28125-.019531" fill="#4f4e51"/><path d="m15.890625 2.664062c-.035156.035157-.070313.074219-.105469.109376-.292968.324218-.660156.527343-1.074218.644531-.1875.054687-.378907.082031-.570313.121093l.359375-.558593c.503906.082031.949219-.074219 1.363281-.359375l.058594-.035156zm0 0" fill="#737f84"/><path d="m15.339844 12.945312.003906-.027343.007812.003906zm-4.609375 4.351563.03125.015625zm0 0" fill="#65c1dd"/><path d="m13.359375 11.839844.007813.003906zm-1.597656-3.035156-.015625-.019532zm0 0" fill="#b3e0ee"/><path d="m7.550781.308594.007813-.007813.003906.015625zm0 0" fill="#737f84"/><path d="m6.113281 15.382812-.28125-.183593-.050781-.027344c-.027344-.238281-.050781-.472656-.082031-.707031-.03125-.21875-.148438-.398438-.285157-.5625-.214843-.261719-.449218-.507813-.585937-.824219-.117187-.277344-.199219-.566406-.21875-.867187-.019531-.261719-.03125-.527344-.035156-.792969-.003907-.117188.011719-.234375.023437-.367188l.207032.21875c.074218-.53125.328124-.964843.578124-1.402343-.070312.335937-.152343.671874-.210937 1.011718s-.109375.683594-.074219 1.042969c-.109375-.042969-.15625-.132813-.226562-.234375-.011719.273438.082031.492188.179687.707031.09375.214844.21875.417969.339844.644531l-.414063-.035156c.019532.089844.074219.171875.148438.234375.128906.113281.269531.222657.414062.320313.351563.242187.574219.566406.621094.992187.023438.179688 0 .359375-.007812.539063-.007813.097656-.027344.195312-.039063.292968m-1.875 1.191407.046875.160156c-.035156-.035156-.078125-.066406-.105468-.105469-.058594-.082031-.113282-.164062-.160157-.25-.050781-.085937-.089843-.175781-.136719-.265625l-.050781.054688c-.027343-.203125-.089843-.394531-.03125-.59375.03125.234375.097657.457031.21875.675781l.023438-.054688.015625-.058593.160156.402343zm0 0" fill="#b3e0ee"/><path d="m3.425781 16.882812c-.25-.105468-.476562-.738281-.359375-.960937l.121094.566406.058594-.039062zm0 0" fill="#b4e1ee"/><path d="m5.410156 9.808594h-.007812l-.003906-.007813h.007812zm0 0" fill="#b3e0ee"/><path d="m4.238281 16.574219-.019531-.035157zm0 0" fill="#65c2dd"/><path d="m9.570312 1.105469-.019531.015625zm0 0" fill="#e9f5fa"/><path d="m7.6875 8.074219c.632812 0 1.25-.007813 1.867188.003906.371093.003906.746093.035156 1.117187.0625.132813.007813.261719.0625.363281.148437-.148437.113282-.292968.226563-.441406.332032-.070312.050781-.09375.101562-.058594.175781.046875.101563.097656.203125.148438.304687l.101562.210938c-.039062.007812-.058594.011719-.078125.011719-.433593.011719-.871093.042969-1.304687-.03125-.480469-.078125-.9375-.222657-1.328125-.527344-.1875-.148437-.324219-.332031-.375-.574219-.003907-.035156-.007813-.066406-.011719-.117187" fill="#4f4e51"/><path d="m9.648438 10.613281-.242188-.390625-.300781.445313c-.15625-.175781-.207031-.378907-.285157-.589844l-.246093.273437c-.113281-.230468-.183594-.464843-.203125-.738281.640625.207031 1.273437.277344 1.917968.238281l.007813.027344c-.074219.039063-.144531.089844-.222656.117188-.144531.058594-.191407.179687-.242188.308594-.042969.105468-.097656.203124-.148437.304687zm0 0" fill="#d3edf6"/><path d="m10.226562 13.042969-.007812.003906v-.011719zm0 0" fill="#66c2dd"/><path d="m9.160156 5.5c-.355468-.125-.664062-.101562-.921875.191406-.023437-.160156.160157-.367187.351563-.421875.230468-.0625.488281.035157.570312.230469m-.871094.464844c.003907-.113282.085938-.175782.167969-.226563.1875-.125.53125-.105469.667969.101563-.054688-.007813-.101562-.007813-.144531-.019532-.230469-.046874-.441407.015626-.644531.125zm3.414063-.09375c.109375-.097656.277344-.117188.414063-.042969.148437.082031.21875.1875.210937.371094-.15625-.222657-.375-.304688-.625-.328125" fill="#d4edf6"/><path d="m12.144531 6.574219c-.226562-.273438-.320312-.28125-.585937-.355469.089844-.085938.195312-.101562.300781-.070312.199219.058593.265625.222656.285156.425781" fill="#cdebf4"/><path d="m8.289062 5.964844-.003906.007812zm0 0" fill="#d4edf6"/><path d="m15.09375 10.347656-.003906.007813zm-.472656.527344-.007813.007812zm0 0" fill="#ebf7fe"/><path d="m4.589844 16.835938.007812.027343-.015625-.019531zm0 0" fill="#d3edf6"/><path d="m9.0625 6.519531c.195312.054688.394531.101563.589844.167969.125.039062.144531.09375.085937.214844-.066406.136718-.132812.273437-.210937.402344-.097656.15625-.238282.238281-.429688.242187-.523437.007813-1.035156-.042969-1.535156-.210937-.179688-.0625-.199219-.085938-.1875-.273438.011719-.183594.03125-.367188.050781-.546875.011719-.105469.070313-.164063.175781-.160156.257813.007812.519532.027343.777344.042969l-.070312.222656c-.066406.160156-.078125.335937-.035156.503906.046874.183594.203124.277344.371093.234375.148438-.039063.3125-.234375.328125-.394531.078125-.136719.085938-.289063.089844-.445313" fill="#e8f4f8"/><path d="m11.261719 6.769531c.292969.042969.589843.074219.882812.125.144531.023438.160157.058594.101563.199219-.066406.167969-.144532.332031-.214844.496094-.039062.09375-.109375.144531-.203125.160156-.070313.015625-.144531.03125-.214844.035156-.296875.015625-.597656-.015625-.886719-.082031-.203124-.050781-.242187-.097656-.242187-.308594 0-.125.007813-.246093.019531-.367187.011719-.117188.082032-.183594.195313-.203125.085937-.015625.175781-.027344.261719-.03125.097656-.007813.199218-.003907.296874-.003907zm.390625.367188c-.015625.03125-.023438.054687-.035156.070312-.054688.082031-.101563.167969-.167969.234375-.148438.136719-.332031.09375-.414063-.089844-.035156-.074218-.050781-.152343-.078125-.234374-.015625.210937.003907.359374.066407.464843s.148437.144531.261718.121094c.207032-.039063.382813-.300781.367188-.566406m-.578125-.039063-.015625.015625c.035156.046875.0625.109375.105468.128907.0625.027343.105469-.035157.132813-.085938.011719-.023438.023437-.050781.027344-.074219.011719-.085937-.023438-.171875-.078125-.1875-.0625-.015625-.132813.046875-.15625.136719zm0 0" fill="#ecf5f9"/><path d="m8.308594 6.621094c.003906.101562.003906.203125.023437.304687.023438.117188.082031.21875.210938.253907.128906.035156.234375-.011719.324219-.101563.039062-.035156.070312-.074219.105468-.113281-.015625.160156-.179687.355468-.328125.394531-.167969.042969-.324219-.050781-.371093-.234375-.042969-.167969-.03125-.34375.035156-.503906m3.34375.515625c.015625.265625-.160156.527343-.363282.566406-.117187.023437-.203124-.015625-.265624-.121094s-.082032-.253906-.066407-.464843c.027344.082031.042969.160156.078125.234374.082032.183594.265625.226563.414063.089844.066406-.066406.113281-.15625.167969-.234375.011718-.015625.019531-.039062.035156-.070312" fill="#778287"/><path d="m11.074219 7.097656.015625-.066406c.023437-.089844.09375-.152344.15625-.136719.054687.015625.089844.101563.078125.1875-.003907.023438-.015625.050781-.027344.074219-.027344.050781-.070313.113281-.132813.085938-.042968-.019532-.070312-.082032-.105468-.128907zm-2.648438-.335937c.003907-.097657.066407-.179688.144531-.179688.0625 0 .113282.078125.109376.164063-.003907.09375-.078126.183594-.152344.183594-.066406-.003907-.105469-.070313-.101563-.167969" fill="#1c1c1c"/></g></svg>