<svg height="18" viewBox="0 0 18 18" width="18" xmlns="http://www.w3.org/2000/svg"><path d="m14.351562 12.980469c.5-.296875.929688-.695313 1.261719-1.171875h.582031c.292969-.003906.523438-.242188.523438-.535156 0-.289063-.230469-.527344-.523438-.53125l-.046874-.003907c.113281-.339843.183593-.695312.203124-1.058593h.570313c.195313.003906.375-.097657.472656-.261719.09375-.167969.09375-.375 0-.542969-.097656-.164062-.277343-.265625-.472656-.261719h-.585937c-.039063-.363281-.125-.71875-.257813-1.058593h.109375c.292969-.007813.523438-.246094.523438-.535157 0-.292969-.230469-.53125-.523438-.535156h-.71875c-.777344-.96875-1.953125-1.535156-3.195312-1.539063h-.914063c-.558594 0-1.109375.117188-1.621094.339844h.960938c2.125.003906 3.882812 1.652344 4.015625 3.773438.136718 2.121094-1.402344 3.984375-3.507813 4.25-.121093.011718-.242187.019531-.371093.019531h-4.148438c.671875-.367187 1.25-.890625 1.6875-1.519531.03125.007812.0625.011718.089844.007812h3.613281c.292969 0 .53125-.238281.53125-.53125 0-.296875-.238281-.535156-.53125-.535156h-3.140625c.128906-.34375.222656-.699219.273438-1.058594h4.136718c.296875 0 .535156-.242187.535156-.535156 0-.296875-.238281-.535156-.535156-.535156h-4.089844c-.027343-.359375-.097656-.714844-.203124-1.058594h3.042968c.292969 0 .53125-.238281.53125-.535156s-.238281-.535156-.53125-.535156h-3.511718c-.886719-1.496094-2.496094-2.417969-4.238282-2.421876h-.351562c-1.585938.003907-3.074219.773438-3.996094 2.066407 1.019531-1.179688 2.585938-1.730469 4.117188-1.449219 1.535156.28125 2.800781 1.355469 3.335937 2.820312h-2.230469c-.644531-.808593-1.734375-1.117187-2.707031-.765624-.972656.351562-1.617187 1.28125-1.601563 2.316406.015626 1.035156.6875 1.945312 1.671876 2.265625.984374.316406 2.0625-.023438 2.683593-.851563h-2.304687c0-1.0625.863281-1.925781 1.925781-1.925781h2.808594c.019531.15625.03125.316406.03125.472656 0 1.8125-1.117188 3.4375-2.804688 4.09375-1.691406.65625-3.609375.207031-4.832031-1.128906.929688 1.222656 2.375 1.941406 3.914062 1.945313h7.222657c3.738281 0 6.769531-.222657 6.769531-.507813 0-.183594-1.484375-.359375-3.648438-.441406" fill="#f78557"/></svg>