<svg height="18" viewBox="0 0 18 18" width="18" xmlns="http://www.w3.org/2000/svg"><path d="m9 0c-4.964844 0-9 4.035156-9 9s4.035156 9 9 9 9-4.035156 9-9-4.035156-9-9-9m-7.144531 9 7.144531 7.144531c-3.953125 0-7.144531-3.191406-7.144531-7.144531m8.746093 6.960938-8.5625-8.578126c.730469-3.164062 3.570313-5.527343 6.960938-5.527343 2.335938 0 4.402344 1.113281 5.695312 2.839843l-1.054687 1.015626c-1.027344-1.464844-2.714844-2.40625-4.640625-2.40625-2.476562 0-4.570312 1.574218-5.359375 3.769531 1.015625.941406 6.960937 6.820312 7.34375 7.269531 1.785156-.660156 3.132813-2.179688 3.570313-4.0625h-3.039063v-1.324219l4.640625.027344c-.011719 3.417969-2.375 6.257813-5.554688 6.976563" fill="#64328b"/></svg>