<svg height="18" viewBox="0 0 18 18" width="18" xmlns="http://www.w3.org/2000/svg"><path d="m8.230469.675781c-1.292969.117188-2.773438.648438-3.878907 1.386719-.609374.398438-1.835937 1.449219-2.136718 1.820312-.742188.90625-1.324219 2.136719-1.527344 3.226563-.09375.527344-.105469 2.125-.023438 2.835937.164063 1.296876.46875 2.359376.992188 3.386719.476562.945313.882812 1.546875 1.375 2.035157.480469.472656.878906.714843 1.566406.960937.257813.082031.609375.25.78125.359375.976563.625 2.03125.921875 3.261719.921875.675781 0 1.070313-.070313 1.699219-.292969.964844-.339844 1.710937-.789062 2.351562-1.414062.398438-.390625.453125-.425782.785156-.539063.726563-.242187 1.246094-.570312 1.886719-1.183593.976563-.945313 1.628907-2.0625 1.964844-3.371094.304687-1.175782.222656-2.09375-.351563-3.878906-.449218-1.40625-.820312-2.003907-2.105468-3.324219-.90625-.9375-1.644532-1.457031-2.921875-2.078125-1.476563-.71875-2.542969-.960938-3.71875-.851563m.925781.128907c.054688.023437-.058594.046874-.3125.0625-.914062.058593-2.640625.402343-3.15625.617187-.117188.050781-.21875.085937-.230469.074219-.019531-.023438.578125-.277344.976563-.410156.367187-.125 1.058594-.289063 1.417968-.339844.351563-.042969 1.195313-.046875 1.304688-.003906m-.277344.640624c1.046875.0625 1.457032.125.636719.097657-1.160156-.042969-2.628906.097656-3.621094.347656-.285156.070313-.523437.125-.527343.117187-.027344-.027343.753906-.382812.976562-.449218.542969-.160156 1.300781-.191406 2.535156-.113282m-3.480468.152344c0 .007813-.058594.050782-.132813.089844-.171875.085938-.179687.050781-.007813-.039062.136719-.078126.140626-.082032.140626-.050782m5.042968.304688c.976563.222656 1.691406.46875 2.585938.914062.894531.445313 1.148437.636719 1.632812 1.234375 1.140625 1.398438 1.710938 2.53125 1.851563 3.667969.085937.710938.066406 1.074219-.105469 1.75-.1875.738281-.421875 1.238281-.933594 1.960938-.199218.285156-.546875.777343-.769531 1.101562-.488281.703125-.847656 1.164062-1.210937 1.550781-.210938.21875-.359376.324219-.644532.457031-.441406.207032-2.058594.761719-2.222656.761719-.0625 0-.386719-.140625-.726562-.3125-.644532-.332031-.820313-.394531-1.597657-.570312-.347656-.078125-.621093-.175781-.941406-.335938-1.976563-1.003906-3.136719-2.070312-3.902344-3.59375-.253906-.503906-.289062-.511719-.058593-.015625.304687.660156.839843 1.414063 1.355468 1.90625.609375.585938 1.71875 1.351563 2.539063 1.753906.207031.105469.589843.3125.851562.464844.570313.339844.824219.445313 1.335938.585938.269531.066406.402343.125.410156.175781.027344.140625-.152344.242187-.648437.363281-.269532.0625-.515626.148438-.550782.183594-.105468.105469-.039062.089844.953125-.152344l.890625-.222656.496094.050781c.269531.027344.488281.066407.488281.082031 0 .027344-.523437.28125-.859375.414063-.597656.242187-1.71875.46875-2.539062.507813-.464844.023437-.484375.019531-.367188-.046876.066406-.042968.121094-.078124.121094-.085937s-.1875.027344-.414062.070313c-.402344.085937-.4375.085937-.800782.015624-.914062-.175781-2.195312-1.019531-2.988281-1.957031-.773437-.917969-1.511719-2.324219-1.839844-3.511719-.222656-.792968-.273437-1.210937-.28125-2.183593 0-.875.007813-.914063.152344-1.484375.347656-1.355469.855469-2.632813 1.246094-3.105469l.105469-.132813-.089844.28125c-.128906.433594-.097656.492188.039062.078126.234375-.699219.5625-1.089844 1.351563-1.601563.265625-.175781.523437-.28125 1.351562-.554687 1.773438-.585938 1.933594-.613282 3.226563-.59375.859375.011718 1.054687.03125 1.507812.128906m-8.734375 3.28125c-.398437.789062-.582031 1.382812-.738281 2.355468-.097656.605469-.101562.621094-.136719.40625-.042969-.285156.003907-1.015624.089844-1.335937.09375-.363281.316406-.871094.519531-1.21875.164063-.277344.386719-.574219.429688-.574219.011718 0-.0625.164063-.164063.367188m.449219.125c-.195312.445312-.445312 1.28125-.554688 1.800781-.125.621094-.207031 1.738281-.160156 2.226563.058594.660156.171875 1.367187.292969 1.859374.128906.535157.832031 1.96875 1.347656 2.753907.339844.523437.386719.628906.28125.628906-.179687 0-.9375-.734375-1.273437-1.238281-.320313-.480469-.421875-.78125-.441406-1.320313-.019532-.375-.046876-.496093-.203126-.90625-.207031-.519531-.253906-.746093-.316406-1.566406-.070312-.871094.058594-1.964844.332032-2.773437.199218-.59375.785156-1.867188.855468-1.867188.007813 0-.066406.183594-.160156.402344m15.03125 2.800781c.371094 1.722656.070312 3.375-.878906 4.84375-.441406.671875-1.273438 1.453125-1.957032 1.824219-.269531.148437-.761718.34375-.859374.34375-.085938 0 .386718-.5 1.023437-1.085938.773437-.707031 1.140625-1.144531 1.410156-1.691406.109375-.214844.300781-.5625.433594-.761719.308594-.472656.484375-.828125.632813-1.261719.15625-.464843.195312-1.183593.089843-1.855468-.082031-.519532-.09375-.972656-.03125-.859375.023438.035156.082031.265625.136719.503906m-.6875 1.394531c-.011719.035156-.023438.023438-.023438-.027344-.007812-.050781.007813-.074218.019532-.058593.015625.015625.019531.054687.003906.085937m-.097656.75c-.1875 1.050782-.636719 1.992188-1.28125 2.675782-.269532.292968-.917969.808593-1.285156 1.023437l-.179688.109375.140625-.179688c.082031-.097656.421875-.585937.769531-1.082031.347656-.492187.777344-1.113281.964844-1.375.398438-.566406.664062-1.066406.808594-1.527343.089844-.273438.113281-.308594.121094-.199219.007812.070312-.015626.324219-.058594.554687m-13.292969 4.4375c.347656.289063 1.164063 1.117188 1.164063 1.179688 0 .117187-.3125-.023438-.746094-.328125-.394532-.277344-.78125-.792969-.78125-1.039063 0-.082031.097656-.03125.363281.1875m5.894531.050782c.117188.035156.25.109374.289063.152343.082031.085938.078125.089844-.035157.089844-.113281 0-.53125-.140625-.65625-.21875-.03125-.023437-.050781-.058594-.03125-.085937.03125-.050782.109376-.035157.433594.0625m3.625.148437c-.015625.019531-.136718.121094-.273437.226563-.230469.179687-.253907.1875-.523438.171874l-.28125-.011718.535157-.210938c.621093-.242187.574218-.226562.542968-.175781m-6.820312 1.457031c.222656.105469.402344.203125.402344.222656 0 .09375-.84375-.121093-1.058594-.277343-.164063-.117188-.605469-.609375-.605469-.683594 0-.015625.191406.101563.433594.261719.238281.15625.613281.375.828125.476562m6.753906-.5625c-.660156.789063-1.835938 1.445313-3.023438 1.699219-.414062.085937-1.3125.085937-1.8125 0-.855468-.148437-1.773437-.539063-1.667968-.703125.015625-.027344.183594-.035156.433594-.019531.441406.03125 1.347656-.027344 2.191406-.140625 1.234375-.164063 1.933594-.351563 2.703125-.726563.414062-.203125.570312-.242187 1.292969-.320312.039062 0-.015626.09375-.117188.210937m0 0"/><path d="m2.84375 4.996094c0 .0625.007812.085937.023438.050781.007812-.023437.007812-.078125 0-.109375-.015626-.027344-.023438-.003906-.023438.058594m-.046875.292968c0 .070313.011719.097657.023437.050782.011719-.039063.011719-.101563 0-.132813-.011718-.027343-.023437.003907-.023437.082031m.3125 4.429688c0 .039062.019531.101562.039063.136719.054687.082031.054687.007812 0-.113281-.027344-.058594-.039063-.066407-.039063-.023438m0 0"/></svg>