<svg height="18" viewBox="0 0 18 18" width="18" xmlns="http://www.w3.org/2000/svg"><g fill="none" stroke="#fff" stroke-linecap="round" stroke-linejoin="round" stroke-width="2" transform="scale(.75)"><path d="m8 6c0 1.65625-1.34375 3-3 3s-3-1.34375-3-3 1.34375-3 3-3 3 1.34375 3 3zm0 0"/><path d="m12 6h5c1.104167 0 2 .895833 2 2v7"/><path d="m15 9-3-3 3-3"/><path d="m22 18c0 1.65625-1.34375 3-3 3s-3-1.34375-3-3 1.34375-3 3-3 3 1.34375 3 3zm0 0"/><path d="m12 18h-5c-1.104167 0-2-.895833-2-2v-7"/><path d="m9 15 3 3-3 3"/></g></svg>