<svg height="18" viewBox="0 0 18 18" width="18" xmlns="http://www.w3.org/2000/svg"><g fill="#181616"><path d="m9 .71875c-4.6875 0-8.492188 3.800781-8.492188 8.492188 0 3.75 2.433594 6.933593 5.808594 8.058593.421875.078125.578125-.1875.578125-.410156 0-.203125-.007812-.871094-.011719-1.582031-2.363281.515625-2.859374-1-2.859374-1-.386719-.984375-.945313-1.242188-.945313-1.242188-.769531-.527344.058594-.515625.058594-.515625.855469.058594 1.304687.875 1.304687.875.753906 1.296875 1.984375.921875 2.46875.703125.078125-.546875.296875-.921875.539063-1.132812-1.886719-.214844-3.867188-.945313-3.867188-4.199219 0-.925781.332031-1.683594.875-2.277344-.089843-.214843-.378906-1.078125.082031-2.25 0 0 .710938-.226562 2.335938.871094.675781-.1875 1.402344-.28125 2.125-.285156.722656.003906 1.449219.097656 2.128906.285156 1.621094-1.097656 2.332032-.871094 2.332032-.871094.460937 1.171875.171874 2.035157.082031 2.25.546875.59375.875 1.351563.875 2.277344 0 3.261719-1.988281 3.980469-3.878907 4.191406.304688.261719.578126.78125.578126 1.570313 0 1.136718-.011719 2.050781-.011719 2.332031 0 .226563.152343.492187.585937.40625 3.371094-1.125 5.800782-4.304687 5.800782-8.054687 0-4.691407-3.800782-8.492188-8.492188-8.492188zm0 0" fill-rule="evenodd"/><path d="m3.722656 12.910156c-.015625.042969-.082031.054688-.144531.027344s-.09375-.085938-.074219-.128906c.015625-.042969.082032-.054688.144532-.027344s.097656.085938.074218.128906zm.34375.382813c-.039062.039062-.117187.019531-.171875-.039063-.054687-.058594-.066406-.136718-.023437-.175781.039062-.039063.117187-.019531.171875.039063.058593.058593.066406.140624.027343.175781zm.335938.488281c-.050782.039062-.136719.003906-.1875-.070312-.054688-.078126-.054688-.167969 0-.203126.050781-.035156.136718-.003906.191406.070313.050781.078125.050781.167969-.003906.203125zm.460937.472656c-.046875.054688-.148437.039063-.21875-.03125-.074219-.066406-.097656-.164062-.050781-.214844.050781-.054687.148438-.039062.222656.03125.074219.066407.09375.164063.046875.214844zm.632813.277344c-.023438.066406-.117188.09375-.214844.066406-.09375-.027344-.15625-.105468-.136719-.171875.019531-.070312.113281-.101562.210938-.070312.097656.03125.160156.105469.140625.175781m.695312.050781c0 .070313-.082031.125-.183594.128907-.101562 0-.183593-.054688-.183593-.125 0-.070313.082031-.128907.183593-.128907.097657-.003906.183594.054688.183594.125zm.644532-.109375c.011718.066406-.058594.136719-.15625.15625-.101563.015625-.191407-.023437-.203126-.09375-.011718-.070312.058594-.140625.15625-.15625.101563-.019531.191407.023438.203126.09375zm0 0"/></g></svg>