<svg height="18" viewBox="0 0 18 18" width="18" xmlns="http://www.w3.org/2000/svg"><path d="m17.542969 7.226562-.023438-.066406-2.40625-6.277344c-.050781-.121093-.136719-.226562-.246093-.296874-.230469-.144532-.523438-.128907-.738282.039062-.101562.082031-.175781.195312-.214844.324219l-1.621093 4.96875h-6.578125l-1.625-4.96875c-.035156-.128907-.109375-.242188-.214844-.324219-.210938-.167969-.507812-.183594-.734375-.039062-.113281.070312-.199219.171874-.25.296874l-2.410156 6.277344-.023438.0625c-.710937 1.859375-.105469 3.964844 1.480469 5.164063l.011719.003906.019531.015625 3.664062 2.746094 1.816407 1.371094 1.101562.835937c.265625.199219.632813.199219.898438 0l1.105469-.835937 1.8125-1.371094 3.6875-2.761719.007812-.007813c1.585938-1.199218 2.191406-3.300781 1.480469-5.15625" fill="#e24329"/><path d="m17.542969 7.226562-.023438-.066406c-1.171875.242188-2.277343.738282-3.234375 1.457032l-5.285156 3.996093c1.800781 1.359375 3.367188 2.542969 3.367188 2.542969l3.683593-2.761719.011719-.007812c1.585938-1.199219 2.191406-3.300781 1.480469-5.160157" fill="#fc6d26"/><path d="m5.632812 15.15625 1.816407 1.371094 1.101562.835937c.265625.199219.632813.199219.898438 0l1.105469-.835937 1.8125-1.371094s-1.566407-1.1875-3.367188-2.542969c-1.121094.84375-2.246094 1.691407-3.367188 2.542969" fill="#fca326"/><path d="m3.714844 8.617188c-.957032-.71875-2.0625-1.21875-3.234375-1.457032l-.023438.0625c-.710937 1.859375-.105469 3.964844 1.480469 5.164063l.011719.003906.019531.015625 3.664062 2.746094 3.367188-2.542969zm0 0" fill="#fc6d26"/></svg>