<svg height="18" viewBox="0 0 18 18" width="18" xmlns="http://www.w3.org/2000/svg"><path d="m22 13.291667-3.328125-10c-.03125-.072917-.078125-.135417-.140625-.182292-.0625-.057292-.135417-.098958-.21875-.109375-.083333 0-.166667.026042-.234375.067708-.0625.046875-.109375.109375-.140625.182292l-2.255208 6.671875h-7.364584l-2.21875-6.661458c-.015625-.067709-.052083-.130209-.098958-.182292-.072917-.057292-.166667-.083333-.260417-.078125-.083333 0-.161458.026042-.229166.067708-.0625.046875-.114584.109375-.140625.182292l-3.369792 10.041667c-.098958.302083.010417.640625.270833.828125l9.729167 6.880208 9.6875-6.880208c.286458-.171875.416667-.515625.3125-.828125" fill="none" stroke="#fff" stroke-linecap="round" stroke-linejoin="round" stroke-width="2" transform="scale(.75)"/></svg>