<svg height="18" viewBox="0 0 18 18" width="18" xmlns="http://www.w3.org/2000/svg"><path d="m11.335938 5.667969h.054687l-.027344-.027344 1.96875-1.96875v-.042969c-1.660156-1.464844-3.953125-1.96875-6.074219-1.335937-2.125.632812-3.757812 2.320312-4.347656 4.457031.027344-.015625.070313-.027344.113282-.027344.730468-.480468 1.601562-.761718 2.515624-.761718.3125 0 .605469.03125.902344.085937.011719-.015625.027344-.015625.042969-.015625 1.265625-1.390625 3.402344-1.558594 4.863281-.363281zm0 0" fill="#ea4535"/><path d="m15.203125 6.722656c-.324219-1.195312-1-2.277344-1.941406-3.109375l-2.011719 1.996094c.84375.691406 1.335938 1.730469 1.308594 2.8125v.351563c2.375 0 2.375 3.546874 0 3.546874h-3.574219v2.8125h-.011719l.011719.027344h3.574219c2.050781.011719 3.867187-1.308594 4.472656-3.25.601562-1.941406-.140625-4.050781-1.828125-5.1875" fill="#557ebf"/><path d="m5.484375 15.171875h3.699219v-2.839844h-3.699219c-.265625 0-.519531-.054687-.757813-.152343l-2.140624 2.050781v.027343c.84375.605469 1.859374.929688 2.914062.929688zm0 0" fill="#36a852"/><path d="m5.652344 5.890625c-2.09375.015625-3.949219 1.308594-4.625 3.207031-.675782 1.914063 0 4.007813 1.660156 5.246094l2.191406-2.09375c-1.207031-.523438-1.488281-2.039062-.5625-2.925781.929688-.902344 2.503906-.621094 3.050782.535156l2.195312-2.097656c-.929688-1.167969-2.375-1.855469-3.910156-1.839844zm0 0" fill="#f9bc15"/></svg>