<svg height="18" viewBox="0 0 18 18" width="18" xmlns="http://www.w3.org/2000/svg"><g fill="none" stroke="#fff" stroke-linecap="round" stroke-linejoin="round" stroke-width="2" transform="scale(.75)"><path d="m18 11.5v-2.5c0-1.104167-.895833-2-2-2s-2 .895833-2 2v1.401042m0-.401042v-2c0-1.104167-.895833-2-2-2s-2 .895833-2 2v2m0-.098958v-.901042c0-1.104167-.895833-2-2-2s-2 .895833-2 2v5m0 0c0-1.104167-.895833-2-2-2s-2 .895833-2 2"/><path d="m18 11c0-1.104167.895833-2 2-2s2 .895833 2 2v3c0 4.416667-3.583333 8-8 8h-4c-4.416667 0-8-3.583333-8-8 0-1.104167.895833-2 2-2s2 .895833 2 2"/></g></svg>