<svg height="18" viewBox="0 0 18 18" width="18" xmlns="http://www.w3.org/2000/svg"><g fill="none" stroke="#fff" stroke-linecap="round" stroke-linejoin="round" stroke-width="2" transform="scale(.75)"><path d="m22 5v-3l-5.890625 5.890625"/><path d="m19.598958 15.890625c0 1.65625-1.34375 3-3 3s-3-1.34375-3-3 1.34375-3 3-3 3 1.34375 3 3zm0 0"/><path d="m11.109375 7.401042c0 1.65625-1.34375 3-3 3s-3-1.34375-3-3 1.34375-3 3-3 3 1.34375 3 3zm0 0"/><path d="m15.348958 11.651042c0 1.65625-1.34375 3-3 3s-3-1.34375-3-3 1.34375-3 3-3 3 1.34375 3 3zm0 0"/><path d="m16.911458 5.848958c0 1.65625-1.34375 3-3 3s-3-1.34375-3-3 1.34375-3 3-3 3 1.34375 3 3zm0 0"/><path d="m21.151042 10.088542c0 1.65625-1.34375 3-3 3s-3-1.34375-3-3 1.34375-3 3-3 3 1.34375 3 3zm0 0"/><path d="m9.5625 13.197917c0 1.661458-1.34375 3-3 3-1.661458 0-3-1.338542-3-3 0-1.65625 1.338542-3 3-3 1.65625 0 3 1.34375 3 3zm0 0"/><path d="m13.802083 17.4375c0 1.661458-1.34375 3-3 3-1.661458 0-3-1.338542-3-3 0-1.65625 1.338542-3 3-3 1.65625 0 3 1.34375 3 3zm0 0"/><path d="m8 19c0 1.65625-1.34375 3-3 3s-3-1.34375-3-3 1.34375-3 3-3 3 1.34375 3 3zm0 0"/></g></svg>