<svg height="18" viewBox="0 0 18 18" width="18" xmlns="http://www.w3.org/2000/svg"><g fill="none" stroke="#fff" stroke-linecap="round" stroke-linejoin="round" stroke-width="2" transform="scale(.75)"><path d="m3 7v-2c0-1.098958.901042-2 2-2h2m10 0h2c1.098958 0 2 .901042 2 2v2m0 10v2c0 1.098958-.901042 2-2 2h-2m-10 0h-2c-1.098958 0-2-.901042-2-2v-2"/><path d="m8 7h5c.552083 0 1 .447917 1 1v3c0 .552083-.447917 1-1 1h-5c-.552083 0-1-.447917-1-1v-3c0-.552083.447917-1 1-1zm0 0"/><path d="m11 12h5c.552083 0 1 .447917 1 1v3c0 .552083-.447917 1-1 1h-5c-.552083 0-1-.447917-1-1v-3c0-.552083.447917-1 1-1zm0 0"/></g></svg>