<svg height="18" viewBox="0 0 18 18" width="18" xmlns="http://www.w3.org/2000/svg"><g fill-rule="evenodd"><path d="m13.476562 12.503906c.503907-.375.761719-.851562.882813-1.4375.585937.578125.789063 1.257813.742187 2.027344-.066406 1.039062-.542968 1.800781-1.53125 2.207031-.078124.03125-.148437.117188-.191406.191407-.460937.839843-1.144531 1.371093-2.101562 1.523437-.082032.011719-.160156.058594-.230469.105469-1.140625.769531-2.957031.765625-4.101563-.003906-.078124-.054688-.167968-.089844-.257812-.105469-.863281-.148438-1.519531-.605469-1.964844-1.351563-.128906-.21875-.277344-.363281-.511718-.46875-1.664063-.761718-1.636719-3.226562-.59375-4.085937.101562.253906.179687.515625.3125.75.132812.238281.316406.445312.476562.664062l.082031-.023437c.027344-.273438.0625-.550782.078125-.824219.023438-.390625.039063-.78125.039063-1.167969.003906-.476562-.175781-.847656-.625-1.078125-.328125-.167969-.65625-.355469-.941407-.585937-.699218-.566406-.679687-1.332032.027344-1.878906.167969-.132813.269532-.28125.289063-.492188.042969-.449219.113281-.894531-.210938-1.289062-.085937-.109376-.132812-.261719-.175781-.402344-.207031-.675782.128906-1.214844.828125-1.328125.203125-.03125.3125-.082031.339844-.316407.042969-.421874-.046875-.710937-.433594-.910156-.308594-.164062-.652344-.257812-.992187-.386718.398437-.570313.988281-.828126 1.679687-.871094.914063-.054688 1.632813.363281 2.242187 1.003906.101563.105469.1875.230469.292969.328125.054688.050781.140625.089844.207031.085937.035157-.003906.082032-.113281.089844-.179687.042969-.535156.289063-.96875.683594-1.324219.066406-.058594.152344-.097656.230469-.148437l.195312.910156.085938-.003906c.136719-.726563.636719-1.097657 1.285156-1.332031-.011719.21875-.042969.421874-.03125.625.011719.191406.066406.382812.113281.609374.371094-.257812.691406-.523437 1.113282-.515624-.089844.347656-.1875.683593-.265626 1.027343-.039062.175781.011719.34375.234376.335938.082031 0 .183593-.0625.238281-.128907.484375-.558593 1.015625-1.039062 1.757812-1.222656.949219-.234375 1.902344.082032 2.441407.835938-.101563.027344-.199219.042968-.289063.074218-.234375.082032-.484375.140626-.699219.261719-.449218.257813-.523437.503907-.414062 1.082031.007812.050782.09375.105469.152344.128907.097656.035156.203124.035156.304687.066406.578125.167969.851563.648437.6875 1.222656-.058594.210938-.148437.40625-.265625.589844-.292969.46875-.183594.949219-.0625 1.425781.027344.105469.167969.1875.265625.269532.609375.484374.667969 1.222656.082031 1.742187-.324218.289063-.71875.503906-1.097656.722656-.351562.199219-.558594.488281-.558594.871094-.003906.726563.039063 1.449219.066406 2.175781m-2.519531-1.246094c-.003906.015626.003907.03125.015625.039063l.042969.105469c.15625.410156.304687.824218.46875 1.230468.199219.488282.0625.46875.683594.414063l.515625-.09375c.269531-.007813.339844-.140625.316406-.402344-.050781-.636719-.070312-1.277343-.105469-1.914062-.046875-.8125.273438-1.394531 1.035157-1.738281.277343-.125.539062-.316407.753906-.535157.328125-.328125.234375-.828125-.164063-1.054687l-.035156.28125c-.304687-.472656-.390625-.957032-.46875-1.441406l-.007813-.257813c.011719-.011719.011719-.03125.003907-.046875l.121093-.9375.046876.007812.070312.292969c.101562-.175781.183594-.296875.242188-.425781.234374-.515625.023437-.859375-.546876-.855469-.34375.007813-.691406.058594-1.023437.140625-.863281.21875-1.570313.734375-2.277344 1.253906-.070312.050782-.144531.097657-.214843.148438l-.035157-.039062.367188-.527344.089843-.105469c.011719-.007813.019532-.019531.023438-.03125l1.367188-1.097656-.832032-.445313-.011718.003906-.058594-.046874c-.960938-.449219-1.984375-.542969-3.015625-.417969-.566407.066406-1.113281.277343-1.671875.421875-.328125.128906-.636719.277344-.851563.511718l1.371094 1.113282.046875.066406.386719.554688c-.4375-.242188-.828125-.519532-1.230469-.78125-.625-.402344-1.304688-.671876-2.050781-.722657-.316407-.023437-.691407-.0625-.855469.277344-.171875.351563.058594.660156.257812.949219.003907.011718.027344.011718.054688.019531l.03125-.273437c.0625.132812.101562.265624.117188.402343.03125.265625.046874.53125.070312.796875-.050781.253906-.085938.511719-.160156.757813-.074219.25-.191406.488281-.289063.730469l-.058593-.027344-.015626-.25c-.449218.273437-.476562.835937-.042968 1.183594.261718.207031.558594.375.855468.53125.558594.296874.8125.769531.804688 1.375-.007812.699218-.050781 1.398437-.09375 2.097656-.019531.375-.03125.375.3125.457031l.5625.09375c.179688-.011719.410156.152344.519531-.113281.214844-.527344.414063-1.058594.617188-1.585938.007812-.015625.011719-.027344.011719-.042968l.054687-.113282.207031-.398437.0625.023437c-.09375.933594-.421875 1.8125-.703125 2.726563h4.601563c.027344 0 .050781-.011719.066406-.015625l-.761719-2.878906.085938-.027344.285156.570312zm1.78125 4.300782c-.574219-.027344-.773437.140625-.910156.789062.375-.199218.703125-.421875.90625-.789062l.007813-.019532zm1.667969-3.324219c-.492188 1.007813-1.425781 1.238281-2.394531 1.351563l.464843.882812-.074218.578125c.777344-.050781 1.460937-.28125 1.898437-.953125.40625-.621094.390625-1.3125.171875-2.011719zm-10.859375-.078125c-.003906-.015625-.003906-.042969-.011719-.046875-.015625-.003906-.050781.003906-.054687.007813-.035157.289062-.101563.578124-.097657.863281.019532 1.003906.558594 1.6875 1.527344 1.953125.222656.0625.457032.082031.695313.125l-.089844-.589844.480469-.890625c-1.027344-.09375-1.960938-.378906-2.449219-1.421875m8.046875 3.503906.054688-.101562c.082031-.1875.179687-.371094.246093-.566406.210938-.625-.027343-.96875-.691406-.996094-.042969 0-.085937 0-.128906 0-1.382813 0-2.765625-.003906-4.148438 0-.136719 0-.273437.015625-.40625.046875-.410156.097656-.574219.339843-.464843.746093.070312.261719.195312.511719.296874.769532l.050782.09375.039062.066406c.226563.289062.40625.636719.683594.859375.914062.742187 1.960938.800781 3.035156.425781.664063-.230468 1.140625-.699218 1.433594-1.34375zm2.71875-13.996094c-1.027344-.449218-2.085938-.054687-2.695312 1l.359374.175782c.46875-.695313 1.117188-1.128906 1.925782-1.046875.113281.011719.238281-.070313.410156-.128907m-10.558594.042969c.15625.03125.308594.085938.460938.082031.457031-.003906.875.105469 1.222656.410157.214844.191406.410156.410156.621094.628906l.328125-.167969c-.550781-1.011718-1.683594-1.453125-2.632813-.953125m9.722656.5c-.042968.007813-.117187.011719-.1875.03125-.367187.097657-.589843.355469-.722656.6875-.039062.101563-.0625.265625-.007812.335938.113281.148437.210937.351562.492187.253906.191407-.0625.242188-.171875.265625-.328125.054688-.3125.101563-.625.160156-.980469m-8.960937.015625c.042969.238282.082031.460938.121094.6875.023437.121094.039062.238282.0625.355469.046875.246094.28125.3125.429687.261719.15625-.050782.351563-.253906.367188-.402344.039062-.414062-.542969-.90625-.980469-.902344m.734375 13.339844c.226562.339844.527344.597656.972656.796875-.242187-.4375-.316406-.960937-.972656-.796875" fill="#493310"/><path d="m4 6.097656c-.023438-.265625-.039062-.53125-.070312-.796875-.015626-.140625-.058594-.277343-.117188-.402343l-.03125.273437c-.027344-.007813-.050781-.007813-.058594-.019531-.195312-.289063-.425781-.597656-.253906-.949219.164062-.339844.539062-.300781.855469-.277344.746093.050781 1.425781.320313 2.050781.722657.402344.261718.792969.539062 1.230469.78125l-.386719-.554688-.050781-.066406h.003906c-.085937-.199219-.15625-.410156-.257813-.601563-.171874-.324219-.414062-.621093-.261718-1.023437.558594-.144532 1.105468-.355469 1.671875-.421875 1.03125-.125 2.054687-.03125 3.015625.417969l.058594.046874.011718-.003906c.011719.355469-.125.660156-.304687.957032-.105469.179687-.15625.390624-.230469.585937-.003906.011719-.011719.027344-.023438.03125l-.089843.105469-.367188.527344.035157.039062c.070312-.050781.144531-.097656.214843-.148438.707031-.515624 1.414063-1.035156 2.277344-1.253906.332031-.082031.679687-.132812 1.023437-.136718.570313-.007813.78125.335937.546876.851562-.058594.128906-.140626.25-.242188.425781l-.070312-.292969-.046876-.007812-.125.9375-.007812.015625.003906.03125.011719.257813c-.027344.074218-.078125.148437-.082031.222656-.003906.597656.050781 1.183594.507812 1.710937-.363281.183594-.683594.363281-1.019531.515625-.300781.136719-.617187.257813-.726563.609375-.089843.289063-.140624.589844-.210937.882813l-.167969-.464844c-.046875 1.136719.003906 2.25.367188 3.328125l-.515625.09375c-.34375-.523437-.6875-1.046875-1.03125-1.566406-.023438-.035157-.082031-.050781-.121094-.078125l-.042969-.105469.019532-.03125-.035157-.007813-.035156-.066406-.285156-.570312-.085938.027344.761719 2.878906c-.015625.003906-.042969.015625-.066406.015625-1.519532.003906-3.039063.003906-4.601563.003906.28125-.917969.609375-1.796875.703125-2.730469l-.0625-.019531-.207031.398437-.054687.109376c0 .015624-.003907.03125-.011719.042968-.050781.039063-.117188.070313-.148438.121094-.253906.375-.503906.753906-.75 1.136719-.089843.140625-.160156.292969-.238281.441406l-.566406-.09375c.378906-1.074219.425781-2.1875.378906-3.3125l-.179688.46875c-.039062-.761719-.265624-1.335937-1.070312-1.570313-.304688-.089843-.570312-.316406-.792969-.445312.140625-.347656.296875-.609375.335938-.882812.054687-.363282.015625-.742188.019531-1.113282m5.824219.058594.054687-.054688.125-.148437c-.328125.035156-.652344.089844-.972656.089844-.324219-.003907-.648438-.0625-.972656-.097657l-.066406-.019531.066406.019531.105468.207032c.578126.65625 1.058594.671875 1.640626.046875.011718-.011719.015624-.03125.023437-.046875zm-3.21875 3.476562.621093-.382812c.136719-.273438.304688-.535156.402344-.824219.046875-.136719.074219-.210937.222656-.25.328126-.085937.496094-.308593.488282-.59375l-.328125.042969c-.351563-.199219-.617188-.476562-.832031-.820312-.121094-.191407-.308594-.347657-.484376-.496094-.378906-.316406-.851562-.386719-1.3125-.398438-.285156-.003906-.570312.128906-.855468.203125-.007813.007813-.019532.007813-.027344 0l-.078125.035157-.011719.019531c-.003906.007812 0 .019531.003906.023437.105469.035156.207032.070313.328126.113282-.273438.34375-.238282.671874-.03125 1.03125l.109374-.382813.054688.003906.027344.273438.03125.117187.023437.082032c-.03125.871093.75 1.496093 1.90625 1.476562l-.257812.730469-.011719.019531zm4.78125 0 .019531.015626-.019531-.011719-.25-.738281c1.347656.132812 1.902343-.785157 1.953125-1.621094l.050781-.316406h.042969l.101562.378906c.207032-.363282.257813-.695313-.027344-1.027344l.339844-.136719-.140625-.054687c-.070312-.039063-.136719-.113282-.207031-.121094-.3125-.027344-.625-.066406-.9375-.046875-.617188.03125-1.125.300781-1.46875.820313-.234375.34375-.480469.664062-.863281.851562l-.355469-.042969c.054688.339844.25.515625.542969.609375.070312.019532.140625.097656.175781.164063.148438.296875.285156.597656.421875.898437zm0 0" fill="#f5a900"/><path d="m6.351562 15.558594c-.101562-.257813-.226562-.507813-.296874-.769532-.109376-.40625.054687-.648437.464843-.746093.132813-.03125.269531-.046875.40625-.046875 1.382813-.003906 2.765625 0 4.148438 0h.128906c.664063.027344.902344.371094.691406.996094-.066406.195312-.164062.378906-.246093.566406l-.054688.101562c-.179688.117188-.355469.242188-.539062.347656-.464844.265626-.96875.386719-1.5.449219-.722657.089844-1.429688.03125-2.109376-.226562-.347656-.132813-.671874-.339844-1.003906-.511719l-.039062-.066406zm4.976563-.417969.058594-.105469c.15625-.40625.085937-.515625-.34375-.523437-.320313 0-.640625-.003907-.960938.003906-.3125.003906-.382812.105469-.296875.402344.035156.15625.050782.320312.117188.464843.160156.367188.453125.570313.710937.527344.351563-.058594.664063-.398437.714844-.773437zm-4.667969 0v-.003906c.058594.390625.296875.628906.65625.75.257813.082031.480469-.035157.605469-.234375.136719-.21875.195313-.480469.289063-.726563.089843-.304687.027343-.402343-.28125-.410156-.277344-.007813-.554688-.003906-.832032 0-.59375.003906-.605468.015625-.488281.570313zm0 0" fill="#f5a800"/><path d="m4 6.097656c-.003906.371094.035156.75-.019531 1.109375-.039063.277344-.195313.539063-.335938.886719.222657.128906.488281.355469.796875.445312.800782.234376 1.027344.808594 1.066406 1.566407l.179688-.464844c.050781 1.125 0 2.238281-.375 3.3125-.34375-.082031-.332031-.082031-.3125-.457031.042969-.699219.085938-1.398438.09375-2.097656.007812-.605469-.246094-1.078126-.804688-1.375-.296874-.15625-.59375-.324219-.855468-.53125-.433594-.347657-.40625-.910157.042968-1.183594l.015626.25.058593.027344c.097657-.242188.214844-.480469.289063-.730469.074218-.246094.109375-.503907.160156-.757813m8.683594 6.855469c-.363282-1.078125-.414063-2.191406-.367188-3.328125l.167969.464844c.070313-.292969.121094-.59375.210937-.882813.109376-.351562.425782-.472656.726563-.609375.335937-.152344.65625-.332031 1.019531-.515625-.457031-.527343-.511718-1.113281-.507812-1.710937.003906-.074219.054687-.148438.082031-.222656.078125.484374.164063.96875.46875 1.441406l.035156-.28125c.398438.226562.492188.726562.164063 1.054687-.214844.21875-.476563.410157-.753906.535157-.761719.34375-1.082032.925781-1.035157 1.738281.035157.640625.054688 1.277343.105469 1.914062.023438.261719-.046875.394531-.316406.402344m1.84375-5.332031-.003906.015625h.007812zm0 0" fill="#e08700"/><path d="m6.441406 15.71875c.335938.171875.65625.378906 1.003906.511719.679688.257812 1.386719.316406 2.109376.226562.53125-.0625 1.035156-.183593 1.5-.449219.183593-.105468.359374-.230468.539062-.347656-.292969.644532-.773438 1.113282-1.433594 1.34375-1.078125.375-2.121094.316406-3.035156-.425781-.277344-.222656-.460938-.570313-.683594-.859375" fill="#e08600"/><path d="m3.546875 12.15625c.488281 1.042969 1.421875 1.328125 2.449219 1.421875l-.480469.890625c-1.226563-.101562-2.019531-1.027344-1.96875-2.3125m8.929687 2.3125-.464843-.882812c.96875-.113282 1.902343-.34375 2.394531-1.347657.015625.0625.046875.125.042969.191407-.035157 1.054687-.761719 1.941406-1.972657 2.039062" fill="#fff"/><path d="m3.546875 12.15625c-.050781 1.285156.742187 2.210938 1.96875 2.3125l.089844.589844c-.238281-.042969-.472657-.0625-.695313-.125-.96875-.265625-1.507812-.949219-1.527344-1.953125-.003906-.285157.0625-.574219.097657-.863281.003906-.003907.039062-.011719.054687-.007813.007813.003906.007813.03125.011719.046875m8.929687 2.3125c1.210938-.097656 1.9375-.984375 1.972657-2.042969.003906-.0625-.027344-.125-.042969-.191406l.066406-.152344c.21875.699219.234375 1.390625-.171875 2.011719-.4375.671875-1.121093.902344-1.898437.953125zm0 0" fill="#c7c6c6"/><path d="m14.3125 1.664062c-.171875.058594-.296875.140626-.410156.128907-.808594-.082031-1.457032.351562-1.925782 1.046875l-.359374-.175782c.609374-1.054687 1.667968-1.449218 2.695312-1m-10.558594.042969c.949219-.5 2.082032-.058593 2.632813.953125l-.328125.167969c-.210938-.21875-.40625-.4375-.621094-.628906-.347656-.304688-.765625-.414063-1.222656-.410157-.152344.003907-.304688-.050781-.460938-.082031" fill="#f0a500"/><path d="m13.476562 2.207031c-.058593.355469-.105468.667969-.160156.980469-.023437.15625-.074218.265625-.265625.328125-.28125.097656-.378906-.105469-.492187-.253906-.054688-.070313-.03125-.234375.007812-.335938.132813-.332031.355469-.589843.722656-.6875.070313-.019531.144532-.023437.1875-.03125m-8.960937.015625c.4375-.003906 1.019531.488282.980469.902344-.015625.152344-.210938.351562-.367188.402344-.148437.050781-.382812-.015625-.429687-.261719-.023438-.117187-.039063-.234375-.0625-.355469-.039063-.226562-.078125-.449218-.121094-.6875" fill="#de8500"/><path d="m6.652344 3.183594c-.152344.402344.089844.699218.261718 1.023437.101563.191407.171876.402344.257813.601563l-1.371094-1.113282c.214844-.230468.523438-.382812.851563-.511718" fill="#e08600"/><path d="m10.875 4.765625c.074219-.195313.125-.40625.230469-.585937.179687-.296876.316406-.601563.304687-.957032.28125.152344.5625.300782.832032.445313zm.140625 6.636719c.039063.027344.097656.042968.121094.078125.347656.519531.6875 1.042969 1.03125 1.566406-.621094.054687-.484375.074219-.683594-.414063-.164063-.40625-.3125-.820312-.46875-1.230468m-5.140625 1.644531c.078125-.148437.148438-.300781.238281-.441406.246094-.382813.496094-.761719.75-1.136719.035157-.050781.097657-.082031.148438-.121094-.207031.527344-.402344 1.058594-.617188 1.585938-.109375.265625-.339843.101562-.519531.113281" fill="#de8600"/><path d="m5.25 15.5625c.65625-.164062.730469.359375.972656.796875-.445312-.199219-.746094-.457031-.972656-.796875m7.484375-.003906c-.203125.367187-.53125.589844-.90625.789062.136719-.648437.335937-.816406.910156-.789062zm.003906 0 .003907-.019532-.007813.019532zm0 0" fill="#eca200"/><path d="m10.957031 11.257812.035157.007813-.019532.03125c-.011718-.007813-.019531-.023437-.015625-.039063" fill="#de8600"/><path d="m14.007812 5.890625-.007812-.035156.011719-.011719c.007812.015625.007812.035156-.003907.046875" fill="#e08700"/><path d="m10.765625 9.253906c-.136719-.300781-.273437-.601562-.421875-.898437-.035156-.066407-.105469-.144531-.175781-.164063-.292969-.09375-.488281-.269531-.542969-.609375l.355469.042969c.066406.003906.132812.019531.199219.011719.308593-.042969.519531-.238281.726562-.457031.691406-.730469 1.503906-1.179688 2.550781-1.058594l.140625.058594-.339844.132812c.285157.332031.234376.664062.027344 1.027344l-.097656-.378906h-.046875l-.050781.316406c-.148438.347656-.292969.703125-.65625.898437-.527344.285157-1.058594.410157-1.589844.03125-.230469.34375-.09375.699219-.078125 1.046875m1.75-1.960937v-.652344c-.546875.324219-1.015625.636719-1.390625 1.070313l-.152344.1875c.519532.390624 1.542969.132812 1.542969-.605469" fill="#49330e"/><path d="m4.957031 7.429688-.023437-.082032-.03125-.117187-.027344-.273438-.054688-.003906-.109374.382813c-.207032-.359376-.242188-.6875.03125-1.03125-.121094-.042969-.222657-.078126-.328126-.113282-.003906-.003906-.007812-.015625-.003906-.023437l.011719-.019531.078125-.035157c.007812.007813.019531.007813.027344 0 .390625.042969.796875.039063 1.171875.136719.59375.15625 1.050781.550781 1.457031.996094.230469.25.488281.4375.855469.378906l.328125-.042969c.007812.285157-.160156.507813-.488282.59375-.148437.039063-.175781.113281-.222656.25-.097656.289063-.265625.550781-.40625.824219.035156-.347656.15625-.707031-.074218-1.050781-.277344.210937-.582032.285156-.910157.226562-.597656-.109375-1.042969-.421875-1.28125-.996093m1.914063.277343c-.375-.433593-.84375-.746093-1.390625-1.066406v.652344c.007812.753906 1.042969.996093 1.539062.613281-.015625-.027344-.027343-.058594-.046875-.085938-.03125-.039062-.070312-.074218-.101562-.113281" fill="#49330f"/><path d="m10.765625 9.253906c-.015625-.347656-.152344-.703125.078125-1.046875.53125.378907 1.0625.253907 1.589844-.03125.363281-.199219.507812-.550781.65625-.898437-.050782.835937-.605469 1.753906-1.953125 1.621094l.25.738281v-.003907zm-5.808594-1.824218c.238281.574218.683594.886718 1.28125.996093.328125.058594.632813-.015625.910157-.226562.230468.34375.109374.703125.078124 1.050781l-.621093.382812v.003907l.257812-.730469c-1.15625.019531-1.9375-.605469-1.90625-1.476562" fill="#e08700"/><path d="m8.011719 7.625c-.363281.058594-.625-.128906-.855469-.378906-.40625-.445313-.863281-.839844-1.457031-.996094-.375-.097656-.78125-.09375-1.171875-.136719.285156-.074219.570312-.207031.855468-.203125.460938.011719.933594.082032 1.3125.398438.175782.144531.363282.304687.484376.496094.214843.34375.480468.621093.832031.820312" fill="#de8600"/><path d="m13.457031 6.121094c-1.046875-.121094-1.859375.328125-2.550781 1.058594-.207031.21875-.417969.414062-.726562.457031-.066407.007812-.132813-.007813-.199219-.011719.382812-.1875.628906-.507812.859375-.851562.347656-.519532.855468-.789063 1.472656-.820313.3125-.019531.625.019531.9375.046875.070312.007812.136719.082031.207031.121094m-5.292969.03125-.105468-.207032c.324218.035157.648437.09375.972656.097657.320312 0 .644531-.054688.972656-.089844l-.125.148437-.054687.054688.003906-.003906c-.324219.054687-.648437.144531-.972656.152344-.230469.007812-.460938-.097657-.691407-.152344" fill="#df8600"/><path d="m8.164062 6.152344c.230469.054687.460938.160156.691407.152344.324219-.007813.648437-.097657.972656-.152344-.007813.015625-.011719.03125-.023437.046875-.582032.625-1.0625.609375-1.640626-.046875" fill="#52380b"/><path d="m9.785156 14.917969c-.085937-.296875-.015625-.398438.296875-.402344.320313-.007813.640625-.003906.960938-.003906.429687.007812.5.117187.34375.523437l-.058594.105469v-.003906c-.074219.082031-.144531.164062-.222656.242187-.351563.359375-.738281.335938-1.042969-.0625-.097656-.128906-.1875-.265625-.277344-.398437" fill="#47310d"/><path d="m6.609375 15.085938c-.117187-.554688-.105469-.566407.488281-.570313.277344-.003906.554688-.007813.832032 0 .308593.007813.371093.105469.28125.410156-.105469.148438-.203126.300781-.316407.441407-.257812.332031-.628906.355468-.941406.058593-.097656-.09375-.195313-.191406-.292969-.289062v.003906zm0 0" fill="#47310e"/><path d="m6.660156 15.136719c.097656.097656.195313.195312.292969.289062.3125.296875.683594.273438.941406-.058593.113281-.140626.210938-.292969.316407-.441407-.09375.246094-.152344.507813-.289063.726563-.125.199218-.347656.316406-.605469.234375-.359375-.117188-.597656-.359375-.65625-.75" fill="#dc8400"/><path d="m9.785156 14.917969c.089844.132812.179688.269531.277344.398437.304688.398438.691406.421875 1.042969.0625.078125-.078125.148437-.160156.222656-.242187-.050781.375-.363281.714843-.714844.773437-.257812.042969-.550781-.160156-.710937-.527344-.066406-.144531-.082032-.308593-.117188-.464843" fill="#de8500"/><path d="m14.527344 7.621094.003906.015625h-.007812zm0 0" fill="#493310"/><path d="m11.125 7.710938c.375-.433594.84375-.746094 1.390625-1.070313v.652344c-.226563.285156-.480469.542969-.875.542969-.171875 0-.34375-.078126-.515625-.125" fill="#fff"/><path d="m11.125 7.710938c.171875.046874.34375.125.515625.125.394531 0 .648437-.257813.875-.542969 0 .738281-1.023437.996093-1.542969.605469zm0 0" fill="#c5c4c3"/><path d="m5.480469 7.289062v-.648437c.546875.320313 1.015625.632813 1.390625 1.066406-.21875.195313-.65625.199219-.972656-.015625-.15625-.109375-.277344-.265625-.417969-.402344" fill="#fff"/><path d="m5.480469 7.289062c.140625.136719.261719.292969.417969.402344.316406.214844.753906.210938.972656.015625.03125.039063.070312.074219.101562.113281.019532.027344.03125.058594.046875.085938-.496093.382812-1.53125.140625-1.539062-.617188" fill="#c5c4c3"/></g></svg>