<svg height="18" viewBox="0 0 18 18" width="18" xmlns="http://www.w3.org/2000/svg"><g fill="none" stroke="#fff" stroke-linecap="round" stroke-linejoin="round" stroke-width="2" transform="scale(.75)"><path d="m11 17 2 2c.828125.828125 2.171875.828125 3 0s.828125-2.171875 0-3"/><path d="m14 14 2.5 2.5c.828125.828125 2.171875.828125 3 0s.828125-2.171875 0-3l-3.880208-3.880208c-1.171875-1.171875-3.067709-1.171875-4.239584 0l-.880208.880208c-.828125.828125-2.171875.828125-3 0s-.828125-2.171875 0-3l2.8125-2.8125c1.875-1.869792 4.78125-2.229167 7.057292-.869792l.46875.28125c.427083.260417.932291.348959 1.421875.25l1.739583-.348958"/><path d="m21 3 1 11h-2m-17-11-1 11 6.5 6.5c.828125.828125 2.171875.828125 3 0s.828125-2.171875 0-3m-8.5-13.5h8"/></g></svg>