<svg height="18" viewBox="0 0 18 18" width="18" xmlns="http://www.w3.org/2000/svg"><g fill="none" stroke="#fff" stroke-linecap="round" stroke-linejoin="round" stroke-width="2" transform="scale(.75)"><path d="m11 14h2c1.104167 0 2-.895833 2-2s-.895833-2-2-2h-3c-.598958 0-1.098958.197917-1.401042.598958l-5.598958 5.401042"/><path d="m7 20 1.598958-1.401042c.302084-.401041.802084-.598958 1.401042-.598958h4c1.098958 0 2.098958-.401042 2.802083-1.197917l4.598959-4.401041c.802083-.760417.838541-2.026042.078125-2.833334-.760417-.802083-2.026042-.838541-2.828125-.078125l-4.203125 3.901042m-12.447917 1.609375 6 6"/><path d="m19.5 8.5c.697917-.697917 1.5-1.598958 1.5-2.697917.145833-1.260416-.59375-2.453125-1.786458-2.880208-1.192709-.427083-2.520834.015625-3.213542 1.078125-.734375-.973958-2.015625-1.359375-3.166667-.947917-1.145833.416667-1.890625 1.53125-1.833333 2.75 0 1.197917.802083 2 1.5 2.796875l3.5 3.401042zm0 0"/></g></svg>