<svg height="18" viewBox="0 0 18 18" width="18" xmlns="http://www.w3.org/2000/svg"><g fill="none" stroke="#fff" stroke-linecap="round" stroke-linejoin="round" stroke-width="2" transform="scale(.75)"><path d="m11 15h2c1.104167 0 2-.895833 2-2s-.895833-2-2-2h-3c-.598958 0-1.098958.197917-1.401042.598958l-5.598958 5.401042"/><path d="m7 21 1.598958-1.401042c.302084-.401041.802084-.598958 1.401042-.598958h4c1.098958 0 2.098958-.401042 2.802083-1.197917l4.598959-4.401041c.802083-.760417.838541-2.026042.078125-2.833334-.760417-.802083-2.026042-.838541-2.828125-.078125l-4.203125 3.901042m-12.447917 1.609375 6 6"/><path d="m18.901042 9c0 1.604167-1.296875 2.901042-2.901042 2.901042s-2.901042-1.296875-2.901042-2.901042 1.296875-2.901042 2.901042-2.901042 2.901042 1.296875 2.901042 2.901042zm0 0"/><path d="m9 5c0 1.65625-1.34375 3-3 3s-3-1.34375-3-3 1.34375-3 3-3 3 1.34375 3 3zm0 0"/></g></svg>