<svg height="18" viewBox="0 0 18 18" width="18" xmlns="http://www.w3.org/2000/svg" xmlns:xlink="http://www.w3.org/1999/xlink"><linearGradient id="a" gradientUnits="userSpaceOnUse" x1="3.484033" x2="3.484033" y1="12.58062" y2="3.801423"><stop offset="0" stop-color="#edcf00"/><stop offset=".33" stop-color="#f0d500"/><stop offset=".77" stop-color="#f9e500"/><stop offset="1" stop-color="#fff100"/></linearGradient><linearGradient id="b" gradientUnits="userSpaceOnUse" x1="16.304952" x2="16.304952" y1="12.644854" y2="6.293578"><stop offset="0" stop-color="#edcf00"/><stop offset=".59" stop-color="#f7e100"/><stop offset="1" stop-color="#fff100"/></linearGradient><radialGradient id="c" cx="0" cy="0" gradientTransform="matrix(6.690405 0 0 6.644863 1.008562 18.578531)" gradientUnits="userSpaceOnUse" r="1"><stop offset="0" stop-color="#fff100"/><stop offset=".23" stop-color="#f9e500"/><stop offset=".67" stop-color="#f0d500"/><stop offset="1" stop-color="#edcf00"/></radialGradient><path d="m18 13.90625v-.875c0-.160156-.273438-.316406-.765625-.453125l.011719-1.089844c0-1.675781-.519532-3.3125-1.488282-4.679687-.972656-1.378906-2.34375-2.421875-3.929687-2.992188l-.035156-.21875c-.015625-.117187-.066407-.226562-.144531-.316406-.078126-.085938-.179688-.152344-.296876-.1875-1.523437-.441406-3.140624-.441406-4.664062 0-.113281.035156-.214844.097656-.292969.1875s-.128906.199219-.148437.316406l-.035156.203125c-1.59375.566407-2.972657 1.609375-3.953126 2.988281-.976562 1.371094-1.5 3.015626-1.503906 4.699219v1.09375c-.480468.136719-.74999975.289063-.74999975.453125v.871094c-.0078125.054688 0 .105469.03124995.148438.2382818-.179688.5156248-.304688.8085938-.367188.75-.179688 1.507812-.304688 2.277344-.375.433594-.050781.867187.089844 1.191406.378906.59375.539063 1.367188.835938 2.167969.835938h5.039062c.800781 0 1.574219-.296875 2.167969-.835938.324219-.292968.761719-.433594 1.195312-.386718.765626.074218 1.527344.199218 2.273438.378906.277344.050781.539062.164062.769531.332031.011719.011719.027344.023437.039063.035156.027344-.042969.039062-.09375.035156-.144531zm0 0" fill="#fff100"/><path d="m4.324219 12.066406c-.007813-.199218-.011719-.402344-.011719-.601562.003906-3.039063.71875-5.761719 1.898438-7.664063-1.59375.566407-2.972657 1.609375-3.953126 2.988281-.976562 1.375-1.5 3.015626-1.503906 4.699219v1.09375c1.171875-.277343 2.367188-.449219 3.570313-.515625zm0 0" fill="url(#a)"/><path d="m17.246094 11.488281c0-1.898437-.664063-3.738281-1.882813-5.195312.527344 1.671875.792969 3.417969.78125 5.171875 0 .292968-.007812.585937-.023437.878906.375.054688.746094.132812 1.109375.230469zm0 0" fill="url(#b)"/><path d="m17.15625 13.6875c-.75-.183594-1.507812-.308594-2.273438-.378906-.433593-.046875-.871093.089844-1.195312.382812-.59375.539063-1.367188.835938-2.167969.835938h-5.039062c-.800781 0-1.570313-.296875-2.164063-.835938-.324218-.292968-.761718-.433594-1.195312-.386718-.765625.070312-1.527344.199218-2.273438.378906-.292968.0625-.570312.1875-.8124998.363281.3828128.582031 4.2539058 1.191406 8.9687498 1.191406s8.582032-.613281 8.964844-1.1875c-.015625-.011719-.027344-.023437-.039062-.039062-.230469-.160157-.496094-.273438-.773438-.324219" fill="url(#c)"/><path d="m9 5.328125-1.929688 3.253906 1.929688 1.1875zm0 0" fill="#0a0a0a"/><path d="m9 5.328125v4.441406l1.929688-1.183593zm0 5.085937v1.546876c.035156-.050782 1.929688-2.734376 1.929688-2.734376zm0 0" fill="#4b4d4d"/><path d="m9 10.414062-1.929688-1.1875 1.929688 2.738282zm0 0" fill="#0a0a0a"/></svg>