<svg height="18" viewBox="0 0 18 18" width="18" xmlns="http://www.w3.org/2000/svg"><path d="m16.03125 1.953125c0-.925781-.746094-1.671875-1.671875-1.671875h-10.71875c-.925781 0-1.671875.746094-1.671875 1.671875v14.105469c0 .929687.746094 1.675781 1.671875 1.675781h10.730469c.929687 0 1.675781-.746094 1.675781-1.675781v-14.105469zm-.5625.015625v13.964844c0 .660156-.492188 1.222656-1.152344 1.222656h-10.589844c-.660156 0-1.195312-.5625-1.195312-1.222656v-13.964844c0-.660156.546875-1.125 1.195312-1.125h10.574219c.660157 0 1.183594.507812 1.183594 1.167969zm-10.265625 13.316406 1.984375-1.980468-1.984375-1.984376zm1.96875-8.5625v-4.136718l-1.953125.015624s.011719 6.453126.027344 6.425782c6.019531-2.347656 5.582031-.675782 5.582031-.675782v6.949219l-.015625.027344h1.84375v-6.960937c0-3.8125-5.484375-1.644532-5.484375-1.644532m2.671875-1.660156h2.082031c1.125-1.40625 1.503907-2.390625 1.503907-2.390625h-2.152344s-.6875 1.546875-1.433594 2.390625" fill="#6762a6"/></svg>