<svg height="18" viewBox="0 0 18 18" width="18" xmlns="http://www.w3.org/2000/svg"><g fill="none" stroke="#fff" stroke-linecap="round" stroke-linejoin="round" stroke-width="2" transform="scale(.75)"><path d="m10 12v-3.036458m4 3.036458v-3.036458m1 3.036458c.552083 0 1 .447917 1 1v2c0 1.104167-.895833 2-2 2h-4c-1.104167 0-2-.895833-2-2v-2c0-.552083.447917-1 1-1zm0 0"/><path d="m8.5 21h-3.5c-1.104167 0-2-.895833-2-2v-9c0-.588542.260417-1.145833.708333-1.526042l7-6c.744792-.630208 1.838542-.630208 2.583334 0l7 6c.447916.380209.708333.9375.708333 1.526042v9c0 1.104167-.895833 2-2 2h-5c-1.104167 0-2-.895833-2-2v-2"/></g></svg>