<svg height="18" viewBox="0 0 18 18" width="18" xmlns="http://www.w3.org/2000/svg"><path d="m10.011719 1.195312 5.160156 2.996094c.605469.351563.984375 1.011719.984375 1.714844v6.144531c0 .789063-.421875 1.503907-1.09375 1.886719l-5.121094 2.882812c-.675781.378907-1.503906.378907-2.179687-.015624l-4.710938-2.714844c-.746093-.421875-1.195312-1.207032-1.195312-2.066406v-5.820313c0-.859375.449219-1.660156 1.183593-2.109375l4.609376-2.855469c.71875-.449219 1.632812-.464843 2.363281-.042969" fill="#ff4088"/><path d="m8.859375 17.71875c-.492187 0-.96875-.125-1.40625-.378906l-4.710937-2.714844c-.929688-.535156-1.503907-1.53125-1.503907-2.601562v-5.820313c0-1.085937.546875-2.054687 1.460938-2.632813l4.628906-2.851562c.914063-.5625 2.050781-.578125 2.980469-.042969l5.160156 2.996094c.800781.460937 1.292969 1.320313 1.292969 2.234375v6.144531c0 1-.535157 1.925781-1.40625 2.417969l-5.117188 2.882812c-.421875.242188-.902343.367188-1.378906.367188m0-16.214844c-.308594 0-.617187.085938-.886719.253906l-4.640625 2.855469c-.5625.335938-.886719.941407-.886719 1.589844v5.835937c0 .632813.339844 1.222657.886719 1.546876l4.710938 2.710937c.492187.28125 1.097656.28125 1.589843.015625l5.117188-2.882812c.492188-.28125.789062-.789063.789062-1.351563v-6.15625c0-.492187-.265624-.945313-.6875-1.195313l-5.148437-2.996093c-.253906-.15625-.546875-.226563-.84375-.226563" fill="#c9177e"/><path d="m5.429688 13.625v-9.335938h1.953124v3.402344h3.234376v-3.402344h1.953124v9.335938h-1.953124v-4.078125h-3.234376v4.078125zm0 0" fill="#fff"/></svg>