<svg height="18" viewBox="0 0 18 18" width="18" xmlns="http://www.w3.org/2000/svg" xmlns:xlink="http://www.w3.org/1999/xlink"><linearGradient id="a" gradientTransform="matrix(.171429 .00031117 -.00031117 .171429 0 0)" gradientUnits="userSpaceOnUse" x1="11.16" x2="58.939999" y1="59.209999" y2="56.779999"><stop offset=".09" stop-color="#fc801d"/><stop offset=".23" stop-color="#b07f61"/><stop offset=".41" stop-color="#577db3"/><stop offset=".53" stop-color="#1e7ce6"/><stop offset=".59" stop-color="#087cfa"/></linearGradient><linearGradient id="b" gradientTransform="matrix(.171429 .00031117 -.00031117 .171429 0 0)" gradientUnits="userSpaceOnUse" x1="89.050003" x2="73.120003" y1="54.119999" y2="6.52"><stop offset="0" stop-color="#fe2857"/><stop offset=".08" stop-color="#cb3979"/><stop offset=".16" stop-color="#9e4997"/><stop offset=".25" stop-color="#7557b2"/><stop offset=".34" stop-color="#5362c8"/><stop offset=".44" stop-color="#386cda"/><stop offset=".54" stop-color="#2373e8"/><stop offset=".66" stop-color="#1478f2"/><stop offset=".79" stop-color="#0b7bf8"/><stop offset="1" stop-color="#087cfa"/></linearGradient><linearGradient id="c" gradientTransform="matrix(.171429 .00031117 -.00031117 .171429 0 0)" gradientUnits="userSpaceOnUse" x1="18.719999" x2="78.800003" y1="26.610001" y2="125.989998"><stop offset="0" stop-color="#fe2857"/><stop offset=".08" stop-color="#fe295f"/><stop offset=".21" stop-color="#ff2d76"/><stop offset=".3" stop-color="#ff318c"/><stop offset=".38" stop-color="#ea3896"/><stop offset=".55" stop-color="#b248ae"/><stop offset=".79" stop-color="#5a63d6"/><stop offset="1" stop-color="#087cfa"/></linearGradient><path d="m3.304688 12.378906-2.421876-1.910156 1.425782-2.640625 2.140625.71875zm0 0" fill="url(#a)"/><path d="m17.15625 5.15625-.296875 9.535156-6.339844 2.539063-3.453125-2.230469zm0 0" fill="#087cfa"/><path d="m17.15625 5.15625-3.140625 3.0625-4.027344-4.941406 1.988281-2.238282zm0 0" fill="url(#b)"/><path d="m7.066406 15-5.042968 1.820312 1.058593-3.695312 1.367188-4.578125-3.75-1.253906 2.382812-6.523438 5.382813.636719 5.550781 6.8125zm0 0" fill="url(#c)"/><path d="m3.855469 3.855469h10.289062v10.289062h-10.289062zm0 0"/><path d="m5.140625 12.199219h3.855469v.644531h-3.855469zm1.925781-6.351563v-.699218h-1.917968v.699218h.535156v2.429688h-.535156v.703125h1.917968v-.703125h-.539062v-2.429688zm1.835938 3.1875c-.261719.007813-.519532-.050781-.75-.171875-.191406-.101562-.363282-.238281-.5-.40625l.527344-.589843c.097656.109374.210937.203124.332031.28125.113281.066406.238281.105468.371093.101562.140626.007812.277344-.046875.375-.148438.101563-.140624.152344-.3125.136719-.484374v-2.472657h.855469v2.507813c.003906.207031-.027344.40625-.09375.601562-.113281.324219-.371094.574219-.695312.683594-.183594.0625-.375.09375-.570313.089844" fill="#fff"/></svg>