<svg height="18" viewBox="0 0 18 18" width="18" xmlns="http://www.w3.org/2000/svg"><path d="m.199219.199219h17.601562v17.601562h-17.601562zm0 0" fill="#f0db4f"/><path d="m16.359375 13.601562c-.128906-.800781-.652344-1.476562-2.203125-2.105468-.539062-.246094-1.136719-.425782-1.316406-.832032-.066406-.238281-.074219-.371093-.03125-.515624.113281-.46875.671875-.613282 1.113281-.480469.285156.097656.554687.316406.714844.664062.761719-.488281.757812-.488281 1.289062-.824219-.195312-.300781-.296875-.441406-.425781-.570312-.457031-.507812-1.078125-.773438-2.074219-.753906l-.519531.070312c-.496094.125-.96875.386719-1.246094.734375-.835937.945313-.597656 2.601563.417969 3.28125 1 .75 2.464844.921875 2.652344 1.621094.183593.859375-.628907 1.136719-1.4375 1.039063-.597657-.125-.925781-.425782-1.285157-.976563-.660156.378906-.660156.378906-1.335937.769531.160156.351563.328125.511719.597656.816406 1.273438 1.292969 4.464844 1.230469 5.039063-.730468.023437-.066406.175781-.515625.050781-1.207032m-6.589844-5.3125h-1.648437l-.007813 4.257813c0 .90625.046875 1.734375-.097656 1.988281-.242187.5-.867187.4375-1.152344.339844-.289062-.140625-.433593-.34375-.605469-.628906-.046874-.082032-.082031-.144532-.09375-.152344l-1.339843.820312c.222656.457032.550781.855469.972656 1.113282.625.375 1.46875.492187 2.351563.289062.574218-.167968 1.070312-.515625 1.328124-1.042968.375-.6875.292969-1.527344.292969-2.453126.007813-1.507812 0-3.015624 0-4.53125" fill="#323330"/></svg>