<svg height="18" viewBox="0 0 18 18" width="18" xmlns="http://www.w3.org/2000/svg" xmlns:xlink="http://www.w3.org/1999/xlink"><clipPath id="a"><path d="m7 7h10v10h-10zm0 0"/></clipPath><clipPath id="b"><path d="m11.398438 8.480469c-.019532.179687-.054688.355469-.105469.527343-.019531 1.191407-.957031 2.160157-2.136719 2.230469-.214844.070313-.4375.117188-.660156.144531l-1.304688 1.304688 3.832032 3.832031 1.214843-1.214843c.09375-1.675782 1.433594-3.015626 3.109375-3.109376l1.019532-1.019531-3.832032-3.832031zm0 0"/></clipPath><clipPath id="c"><path d="m1 7h10v10h-10zm0 0"/></clipPath><clipPath id="d"><path d="m1.734375 11.0625 1.136719 1.136719c1.519531.171875 2.726562 1.378906 2.902344 2.898437l1.304687 1.304688 3.832031-3.832032-1.214844-1.214843c-.234374-.011719-.46875-.050781-.695312-.113281-1.199219-.011719-2.179688-.953126-2.25-2.136719-.089844-.277344-.148438-.566407-.164062-.855469l-1.019532-1.019531zm0 0"/></clipPath><clipPath id="e"><path d="m1 1h10v10h-10zm0 0"/></clipPath><clipPath id="f"><path d="m5.800781 2.699219c-.09375 1.675781-1.433593 3.015625-3.105469 3.109375l-1.019531 1.019531 3.832031 3.832031 1.136719-1.136718c.019531-.179688.054688-.351563.101563-.519532 0-.011718 0-.023437 0-.035156 0-1.257812 1.019531-2.273438 2.273437-2.273438h.109375c.136719-.03125.277344-.058593.417969-.074218l1.304687-1.304688-3.835937-3.832031zm0 0"/></clipPath><clipPath id="g"><path d="m7 1h10v10h-10zm0 0"/></clipPath><clipPath id="h"><path d="m7.066406 5.433594 1.214844 1.214844c.160156.011718.316406.03125.472656.0625.085938-.011719.175782-.015626.265625-.015626 1.257813 0 2.273438 1.015626 2.273438 2.273438 0 .046875 0 .097656-.003907.144531.054688.207031.089844.421875.101563.644531l1.019531 1.019532 3.832032-3.832032-1.136719-1.136718c-1.523438-.175782-2.726563-1.382813-2.902344-2.902344l-1.304687-1.304688zm0 0"/></clipPath><linearGradient id="i" gradientTransform="matrix(-4.07883 4.708731 -4.708731 -4.07883 -1119.161454 1392.57429)" gradientUnits="userSpaceOnUse" x1="-286.662994" x2="-285.993011" y1="7.854" y2="7.854"><stop offset="0" stop-color="#09e09c"/><stop offset="1" stop-color="#00bfff"/></linearGradient><linearGradient id="j" gradientTransform="matrix(4.150647 4.358609 -4.358609 4.150647 1236.277037 1175.424455)" gradientUnits="userSpaceOnUse" x1="-281.398987" x2="-280.730011" y1="14.666" y2="14.666"><stop offset="0" stop-color="#ffc800"/><stop offset="1" stop-color="#00bfff"/></linearGradient><linearGradient id="k" gradientTransform="matrix(4.078125 -4.148438 4.148438 4.078125 1096.638451 -1280.444046)" gradientUnits="userSpaceOnUse" x1="-289.459991" x2="-288.790009" y1="21.371" y2="21.371"><stop offset="0" stop-color="#ffc800"/><stop offset="1" stop-color="#ff664a"/></linearGradient><linearGradient id="l" gradientTransform="matrix(-4.849228 -4.715668 4.715668 -4.849228 -1472.939268 -1317.610295)" gradientUnits="userSpaceOnUse" x1="-294.235992" x2="-293.56601" y1="12.616" y2="12.616"><stop offset="0" stop-color="#09e09c"/><stop offset="1" stop-color="#ff664a"/></linearGradient><g clip-path="url(#a)"><g clip-path="url(#b)"><path d="m20.90625 11.273438-8.46875 9.785156-9.785156-8.46875 8.46875-9.785156zm0 0" fill="url(#i)"/></g></g><g clip-path="url(#c)"><g clip-path="url(#d)"><path d="m6.550781 2.648438 8.9375 9.394531-9.394531 8.941406-8.941406-9.394531zm0 0" fill="url(#j)"/></g></g><g clip-path="url(#e)"><g clip-path="url(#f)"><path d="m-2.910156 6.152344 9.09375-9.253906 9.253906 9.097656-9.097656 9.25zm0 0" fill="url(#k)"/></g></g><g clip-path="url(#g)"><g clip-path="url(#h)"><path d="m11.789062 15.359375-9.308593-9.035156 9.039062-9.308594 9.308594 9.039063zm0 0" fill="url(#l)"/></g></g><path d="m3.367188 12.269531c-1.820313 0-3.3007818-1.480469-3.3007818-3.300781 0-1.824219 1.4804688-3.300781 3.3007818-3.300781 1.824218 0 3.300781 1.476562 3.300781 3.300781 0 1.820312-1.476563 3.300781-3.300781 3.300781" fill="#ffc800"/><path d="m8.933594 6.703125c-1.824219 0-3.300782-1.476563-3.300782-3.300781 0-1.824219 1.476563-3.300782 3.300782-3.300782 1.824218 0 3.300781 1.476563 3.300781 3.300782 0 1.820312-1.476563 3.300781-3.300781 3.300781" fill="#ff664a"/><path d="m9.019531 17.898438c-1.820312 0-3.300781-1.476563-3.300781-3.300782 0-1.824218 1.480469-3.300781 3.300781-3.300781 1.824219 0 3.300781 1.476563 3.300781 3.300781 0 1.824219-1.476562 3.300782-3.300781 3.300782" fill="#00bfff"/><path d="m14.632812 12.378906c-1.824218 0-3.300781-1.476562-3.300781-3.300781s1.476563-3.300781 3.300781-3.300781c1.820313 0 3.300782 1.476562 3.300782 3.300781s-1.480469 3.300781-3.300782 3.300781" fill="#09e09c"/></svg>