<svg height="18" viewBox="0 0 18 18" width="18" xmlns="http://www.w3.org/2000/svg"><path d="m15.3125 8.671875c0 3.566406-2.824219 6.460937-6.3125 6.460937s-6.3125-2.894531-6.3125-6.460937c0-3.5625 2.824219-6.457031 6.3125-6.457031s6.3125 2.894531 6.3125 6.457031" fill="#d33833"/><path d="m2.945312 10.273438s-.457031-6.734376 5.746094-6.925782l-.433594-.722656-3.367187 1.128906-.960937 1.109375-.839844 1.609375-.480469 1.875.140625 1.253906" fill="#ef3d3a"/><path d="m4.675781 4.269531c-1.105469 1.132813-1.792969 2.695313-1.792969 4.429688 0 1.730469.6875 3.292969 1.792969 4.425781 1.109375 1.132812 2.636719 1.835938 4.324219 1.835938s3.214844-.703126 4.324219-1.835938c1.105469-1.132812 1.792969-2.695312 1.792969-4.425781 0-1.734375-.6875-3.296875-1.792969-4.429688-1.109375-1.132812-2.636719-1.832031-4.324219-1.832031s-3.214844.699219-4.324219 1.832031zm-.28125 9.132813c-1.175781-1.207032-1.902343-2.871094-1.902343-4.703125 0-1.835938.726562-3.5 1.902343-4.703125 1.179688-1.207032 2.808594-1.953125 4.605469-1.953125s3.425781.746093 4.605469 1.953125c1.175781 1.203125 1.902343 2.867187 1.902343 4.703125 0 1.832031-.726562 3.496093-1.902343 4.703125-1.179688 1.203125-2.808594 1.949218-4.605469 1.949218s-3.425781-.746093-4.605469-1.949218" fill="#231f20"/><path d="m11.65625 8.710938-.960938.144531-1.296874.140625-.84375.027344-.816407-.023438-.625-.195312-.554687-.601563-.433594-1.226563-.09375-.261718-.578125-.195313-.335937-.550781-.242188-.792969.265625-.699219.625-.214843.503906.238281.242188.53125.289062-.050781.09375-.117188-.09375-.554687-.027343-.699219.144531-.960937-.003907-.550782.4375-.699218.769532-.554688 1.347656-.574219 1.492188.214844 1.296874.9375.601563.960937.386719.699219.09375 1.730469-.289063 1.492188-.527343 1.324218-.503907.695313" fill="#f0d6b7"/><path d="m12.378906 8.011719-.578125.578125v2.234375l-.503906 2.0625-.242187.007812.195312 2.308594.914062-.121094-.21875-2.210937-.40625.011718 1.105469-.0625s.550781-1.394531.550781-1.464843c0-.074219.484376-2.019531.484376-2.019531l-1.085938-1.132813zm-5.796875.359375-.601562.242187-1.921875 1.324219.121094.382812.550781 1.636719.242187 2.71875.167969.285157 2.402344.820312.144531-.167969-.285156-2.023437v-.574219l3.4375-.144531.265625-.144532-2.09375-.988281.386719-.742187-.554688.191406-.214844-.265625-.289062-1.25-.242188-.074219-.527344-.167968-.457031-.40625zm0 0" fill="#335061"/><path d="m5.140625 4.476562.625-.214843.503906.238281.242188.53125.289062-.050781.070313-.289063-.144532-.550781.144532-1.324219-.121094-.71875.433594-.507812.9375-.746094-.261719-.359375-1.324219.648437-.554687.433594-.3125.671875-.480469.652344-.144531.769531zm0 0" fill="#6d6b6d"/><path d="m8.359375.566406c-.164063-.003906-.359375.015625-.359375.015625l-1.5625.601563-.601562.601562-.261719.480469.550781-.050781s.363281-.886719 1.804688-1.320313c.902343-.273437.703124-.324219.429687-.328125m-1.609375 1.53125-1.320312.3125-.386719 1.25.097656.816406.265625-.167968s-.507812-1.683594 1.417969-1.925782zm0 0" fill="#dcd9d8"/><path d="m9.839844.0664062c-.183594.0039063-.367188.0390628-.539063.1054688-1.441406.554687-2.5 1.5625-2.476562 2.210937.039062 1.105469.023437 1.109376.023437 1.109376s.410156-2.117188 2.476563-2.527344c1.703125-.335938 2.597656.074218 2.933593.457031 0 0-1.160156-1.3789062-2.414062-1.3554688zm2.578125 1.5976558c-.074219 0-.691407.015626-.710938.601563 0 0 0 .09375.046875.191406 0 0 .554688-.625.890625-.289062l-.21875-.503907s0 0-.007812 0zm-3.539063.28125c-.121094.003907-.265625.050782-.445312.175782-.527344.359375-.480469.863281-.382813.960937.09375.097657.070313.289063.144531.15625.070313-.132812.046876-.566406.3125-.683593.265626-.121094.699219-.257813.867188-.03125 0 0-.074219-.585938-.496094-.578126zm3.714844 1.472657s-.394531.085937-.429688.433593c-.039062.347657.429688.070313.503907.046876zm-2.910156.023437s-.527344.074219-.527344.410156c0 .335938.601562.3125.769531.167969zm-4.277344.867188-.554688.578125.097657.71875.285156.746093.316406.097657c-.457031-.554688-.242187-.9375-.144531-1.46875.09375-.527344 1.007812.027343 1.007812.027343l-.023437-.363281-.359375-.289062zm5.425781 1.105468c-.15625-.007812-.21875.507813-.230469.644532.042969-.128906.445313-.390625.445313-.390625s0-.195313-.195313-.253907c-.003906 0-.011718 0-.019531 0m-.230469.644532c-.003906.007812-.003906.019531-.003906.03125 0 0 .003906-.011719.003906-.03125zm-4.113281.179687-.3125.308594.070313 1.054687.769531 1.203126s.863281.195312.769531.121093c-1.035156-.816406-1.105468-2.332031-1.128906-2.5s-.167969-.1875-.167969-.1875m2.707031.359375c-.09375.003906-.15625.03125-.175781.054688-.058593.082031.066407.519531.066407.519531l.117187.023437c-.023437-.480468.265625-.53125.265625-.53125-.105469-.050781-.199219-.066406-.273438-.066406" fill="#f7e4cd"/><path d="m6.414062 8.347656-2.355468 1.589844.261718.746094.628907 2.691406.023437 1.417969.335938.121093c.480468-1.15625-.457032-4.882812-.457032-4.882812l2.261719-1.007812zm.929688 2.734375-.0625.152344s-.050781.433594-.050781.554687c0 .117188.050781 1.128907.050781 1.128907h.382812v-1.441407zm.007812 2.050781-1.082031.050782.3125.214844.769531.121093zm5.027344-5.121093-.457031.503906 1.683594 1.253906.046875-.578125zm-.480468 4.714843-.84375.167969.121093.671875c.3125.144532.84375-.238281.84375-.238281zm0 0" fill="#49728b"/><path d="m7.113281 8.804688v.21875l.304688.335937.960937.433594.023438-.722657-.664063-.074218zm7.039063 3.417968-.769532.238282-.738281.359374-.394531-.070312-.304688.121094.257813 2.019531.9375-.265625 1.78125-.09375.261719-.820312-.480469-1.417969zm-3.097656.671875h-1.398438l-2.253906.121094.039062 1.105469.246094 1.492187.5 2.019531 1.105469.238282 1.828125-.144532.023437-.359374-.214843-1.949219zm.1875-.191406-.53125-1.347656-.550782-.792969s.121094-.335938.289063-.335938h.550781l.53125.191407-.050781.890625zm0 0" fill="#fff"/><path d="m7.328125 9.144531-.070313.09375.40625.289063.675782.144531-.023438-.289063c-.242187.074219-.988281-.238281-.988281-.238281m3.34375 1.03125-.554687.074219.9375 2.210938.195312.023437.09375-.238281s-.671875-1.300782-.671875-1.492188c0 0 .121094-.289062.289063-.214844.167968.070313.527343.261719.527343.261719v-.457031zm2.285156 2.527344-.3125.117187.261719 1.324219c-.09375-.023437-.71875.265625-.71875.265625l.070312.382813.265626-.09375.839843-.121094.242188.3125.722656.023437.433594-.097656.382812-.574218-.023437-.433594-.265625-.769532c.074219.578126-.214844 1.128907-.214844 1.128907-.121094 0-1.46875-.070313-1.46875-.070313 0-.144531-.214844-1.394531-.214844-1.394531zm-1.851562.023437-.363281.144532s-.117188 2.5.242187 4.28125c0 0-.722656.457031-1.78125.574218l2.019531-.070312.242188-.144531-.289063-3.945313zm.628906 2.570313c-.105469.003906-.257813.074219-.367187.070313-.015626.378906.035156.988281.054687 1.386718.253906 0 .359375-.054687.550781-.121094.019532-.46875-.148437-.902343-.199218-1.328124-.011719-.003907-.027344-.007813-.039063-.007813zm0 0" fill="#dcd9d8"/><path d="m11.921875 8.972656c-.308594.015625-.722656.410156-.917969.476563.023438.074219.066406.128906.070313.222656.136719-.035156.300781-.011719.417969.046875-.136719.015625-.285157.015625-.375.078125-.035157.097656.007812.226563-.015626.359375.324219.089844.691407.136719 1.097657.152344.082031-.105469.109375-.300782.097656-.496094-.011719-.234375-.070313-.71875-.21875-.800781-.046875-.03125-.097656-.039063-.15625-.039063m-3.167969.105469c-.328125.007813-.292968.578125-.277344.929687.011719.292969.167969.605469.234376.800782.03125.09375.035156.191406.113281.207031.140625.035156.597656-.148437.726562-.21875.273438-.152344.488281-.390625.722657-.550781l.007812-.230469c-.140625-.070313-.300781-.121094-.507812-.128906.140624-.070313.34375-.070313.472656-.152344l.003906-.09375c-.234375-.019531-.320312-.121094-.476562-.207031-.25-.136719-.625-.285156-.949219-.347656-.023438-.003907-.046875-.007813-.070313-.007813m1.886719.488281c-.0625 0-.136719.023438-.21875.078125-.015625.179688.023437.238281.058594.441407.492187.152343.496093-.523438.160156-.519532" fill="#d33833"/><path d="m11.890625 8.804688-.914063.53125-.046874.261718v.53125l.335937.121094s-.167969-.242188-.046875-.3125c.117188-.074219.238281 0 .3125-.121094.070312-.121094 0-.191406.023438-.335937.023437-.144531.144531-.167969.265624-.195313.117188-.023437.457032-.070312.503907.050782l-.144531-.433594zm-3.027344.144531c-.121093 0-.230469.019531-.308593.074219-.566407.382812-.109376 1.273437.167968 1.796874-.023437-.300781-.050781-.601562-.074218-.902343-.050782-.558594.132812-.460938.617187-.460938.074219 0 .457031.085938.484375.144531.132812.265626-.21875.207032.152344.410157.3125.167969.863281-.105469.738281-.484375-.070313-.085938-.367187-.027344-.476563-.082032l-.5625-.292968c-.164062-.085938-.476562-.195313-.738281-.203125zm-.140625 1.871093.015625.222657.089844-.027344c-.03125-.054687-.066406-.121094-.105469-.195313zm0 0" fill="#ef3d3a"/><path d="m9.5 0c-.503906.0117188-.996094.09375-1.410156.246094-.304688.113281-.601563.214844-.871094.371094-.71875.421874-1.480469.703124-1.691406 1.554687-.527344.234375-.683594.90625-.660156 1.683594.007812.152343.089843.34375.0625.488281-.015626.070312-.113282.164062-.132813.210938-.253906.601562-.050781 1.390624.238281 1.816406.175782.257812.46875.484375.851563.546875.015625.230469.070312.425781.175781.660156.066406.148437.320312.414063.226562.601563-.046874.09375-.453124.300781-.589843.378906-.457031.277344-.789063.445312-1.210938.75-.273437.195312-.703125.222656-.636719.675781.046876.304687.222657.683594.320313.992187.109375.332032.261719.636719.351563.980469.199218.765625.238281 1.488281.289062 2.234375.015625.292969-.015625.605469.0625.765625.078125.167969.367188.222657.578125.320313.609375.28125 1.25.707031 2.046875.625.191406.636718.371094 1.316406.597656 1.875.816406.292968 2.105469.246094 2.953125.144531.257813-.03125.527344-.160156.589844-.382813-.019531-.136718-.039063-.273437-.03125-.4375.265625-.054687.628906-.097656.6875-.390624.082031-.414063-.261719-1.003907-.148437-1.457032.15625-.046875.320312-.085937.292968-.328125.261719-.136719.566406-.167969.894532-.152343.042968.082031.101562.160156.15625.203124.457031.09375.902343.101563 1.285156-.023437.429687-.140625.636718-1.023437.539062-1.441406-.070312-.300781-.230468-.785157-.363281-1.074219-.367187-.78125-1.457031-.292969-2.039063 0 .28125-.746094.523438-1.519531.773438-2.351562.074219-.253907.222656-.605469.191406-.867188-.03125-.242188-.414062-.5-.613281-.691406-.109375-.109375-.628906-.5-.660156-.648438-.027344-.144531.210937-.464844.289062-.628906.113281-.230469.191407-.511719.246094-.707031.40625-1.433594.449219-3.402344-.132813-4.582031-.222656-.445313-.839843-1.0625-1.226562-1.355469-.566406-.429688-1.4375-.621094-2.28125-.605469m.070312.398438c.679688-.003907 1.4375.234374 1.949219.523437.429688.242187.746094.710937 1.050781 1.101563-.425781-.125-.785156.089843-.71875.4375.355469-.324219.957032-.003907 1.136719.355468.171875.34375.171875.851563.199219 1.363282.0625 1.238281-.226562 2.511718-.851562 3.40625-.164063.242187-.304688.5-.539063.664062-.5625.398438-1.417969.757812-2.152344.511719-.96875-.328125-1.410156-.972657-1.941406-1.710938.015625.40625.300781.738281.582031 1.050781.246094.269532.542969.574219.859375.703126-.265625-.0625-.671875-.082032-.785156.15625-.617187-.042969-1.195313-.105469-1.488281-.527344-.230469-.332032-.464844-.894532-.570313-1.328125-.023437-.089844-.058593-.28125-.050781-.328125.035156-.191406.371094-.273438.238281-.539063-.242187 0-.296875.222657-.523437.246094-.578125.058594-.988282-.769531-.960938-1.265625.019532-.425781.378906-.832031.871094-.777344.34375.039063.460938.414063.53125.753906.199219.007813.488281-.011718.582031-.164062-.015625-.382812-.191406-.6875-.179687-1.035156.023437-.65625.382812-1.25.105468-1.894532.296876-.671874 1.160157-1.199218 1.800782-1.519531.25-.125.542968-.179687.855468-.179687zm-1.765624.332031c.027343.003906.054687.027343.078124.050781-.003906.117188-.117187.113281-.191406.148438-.117187.148437-.292968.214843-.433594.375-.148437.160156-.3125.601562-.507812.648437-.097656.023437-.210938-.015625-.296875-.011719-.226563.015625-.382813.128906-.613281.164063.296875-.648438 1.21875-1.167969 1.9375-1.375zm1.230468 1.402343c-.371094 0-.792968.398438-.902344.699219-.046874.121094-.117187.363281.058594.40625.199219-.441406.527344-.867187 1.183594-.714843.125-.207032-.101562-.359376-.265625-.386719-.027344-.003907-.050781-.003907-.074219-.003907zm-2.34375.066407c.253906.644531-.179687 1.414062-.019531 2.117187.050781.214844.222656.550782-.050781.558594.003906-.613281-.757813-1.003906-1.332032-.644531-.039062-.464844-.105468-1.121094.214844-1.46875.292969-.324219.695313-.523438 1.1875-.5625m5.875 1.070312c-.019531.351563.109375.566407.203125.816407-.160156.097656-.464843.039062-.644531.113281-.011719.523437.8125.265625.9375-.023438-.1875-.273437-.316406-.597656-.464844-.90625zm-2.859375.007813c-.09375.273437.167969.742187.316407.980468-.191407.1875-.539063.03125-.796876.019532-.246093.390625.480469.464844.792969.371094.085938-.023438.234375-.152344.253907-.210938.085937-.242188-.089844-.351562-.179688-.4375-.199219-.195312-.246094-.464844-.386719-.722656m1.484375.253906c-.019531-.003906-.039062.003906-.066406.023438-.019531.648437.464844 1.1875.824219 1.621093.175781.210938.386719.332031.191406.660157-.316406.121093-.824219.460937-1.261719.386718-.230468-.039062-.179687-.300781-.261718-.445312-.160157.210937-.097657.527344.066406.671875.769531.078125 1.296875-.253907 1.765625-.554688-.019531-.117187.144531-.332031.097656-.507812-.015625-.0625-.15625-.152344-.238281-.246094-.347656-.375-.820313-.9375-1.007813-1.375-.015625-.039063-.027343-.222656-.109375-.234375zm-5.480468 1.214844c-.179688-.003906-.339844.113281-.378907.390625.078125-.050781.144531-.199219.285157-.128907-.125.242188-.09375.71875.074218.875 0-.289062-.042968-.785156.203125-.769531.171875.007813.207031.378907.355469.464844.101562-.492187-.242188-.828125-.539062-.832031m7.039062 1.457031c-.375.171875-.679688.421875-1.171875.46875-.023437.078125-.011719.285156 0 .417969.640625-.011719.953125-.472656 1.171875-.886719zm-3.078125.269531c.1875.503906 1.035156.679688 1.75.644532 0-.148438 0-.300782-.03125-.421876-.554687.015626-1.308594-.007812-1.71875-.222656zm-.078125.402344c-.363281 0-.054688.199219.003906.28125.128906.160156.277344.441406.507813.5625.367187.195312 1.089843.113281 1.355469.007812.097656-.042968.175781-.148437.210937-.242187-.820313.019531-1.792969.101563-2.078125-.609375m2.734375 1.382812c.28125.226563.449219.4375.71875.679688.148437.132812.433594.289062.464844.5.015625.121094-.058594.410156-.082031.542969-.121094.585937-.386719 1.355469-.636719 1.96875-.09375.222656-.183594.5-.304688.546875-.332031.132812-.734375-.011719-1.015625.164062.378906-.660156.792969-1.28125 1.164063-1.949218-.058594-.128907-.195313-.1875-.234375-.332032.257812-.496094.140625-2.027344-.527344-1.703125.09375-.136719.339844-.25.453125-.417969m-5.867187.347657c.058593-.023438.5.550781.566406.597656.359375.253906.804687.457031 1.222656.65625.023438.191406.082031.4375.1875.769531.113281.363282.207031.882813.691406.617188-.046875.210937-.316406.339844-.242187.582031.046875.152344.554687.34375.714843.433594.296876.167969.570313.257812.796876.355469-1.035157.03125-2.007813.113281-2.96875.246093-.113282-.179687-.066407-.453125-.078126-.734375-.015624-.308594.113282-1-.007812-1.042968-.136719-.050782-.160156.226562-.167969.289062-.023437.324219.15625 1.011719-.019531 1.398438-.195312-.054688-.292969-.199219-.472656-.265626-.074219.222657.148437.234376.125.378907-.03125.1875-.386719.027343-.386719.308593.234375.039063.589844-.070312.839844.035157.066406.761719.167969 1.488281.285156 2.296875-.992187-.050782-1.632813-.542969-2.363281-.882813-.046875-1.617187-.304688-3.292969-.941406-4.660156.667968-.515625 1.417968-1.0625 2.21875-1.378906zm5.496093.367187c.042969.003906.085938.015625.121094.039063.148437.082031.207031.566406.21875.800781.011719.195312-.015625.390625-.097656.496094-.40625-.011719-.773438-.0625-1.097657-.152344.023438-.132812-.019531-.261719.015626-.359375.089843-.0625.238281-.0625.375-.078125-.117188-.058594-.28125-.082031-.417969-.046875-.003907-.09375-.046875-.148437-.070313-.222656.199219-.070313.640625-.488281.953125-.476563m-.734375.019532c-.167968.113281-.316406.25-.480468.371093-.363282.019531-.5625-.027343-.832032-.234375.003906-.015625.03125-.011718.035156-.03125.386719.175782.886719-.070312 1.277344-.105468zm-3.84375.007812c.203125.140625.597656.105469.898438.160156.011718.09375-.0625.21875-.0625.355469-.253906-.015625-1.042969-.304687-.835938-.515625m1.375.078125c.019532 0 .042969.003906.070313.007813.324219.0625.699219.210937.949219.347656.15625.085937.242187.1875.476562.207031l-.003906.09375c-.128906.082031-.332032.082031-.472656.152344.207031.007812.367187.058593.507812.128906l-.007812.230469c-.234376.160156-.449219.398437-.722657.550781-.128906.070313-.585937.253906-.722656.21875-.082031-.015625-.085937-.113281-.117187-.207031-.066407-.195313-.222657-.507813-.234376-.800782-.015624-.351562-.050781-.921874.277344-.929687m1.867188.488281c.019531 0 .039062 0 .054687.003906.300781.042969.277344.664063-.195312.515626-.035157-.203126-.074219-.261719-.058594-.441407.074219-.050781.140625-.074219.199219-.078125m.273437.707032c.171875.015624.308594.253906.550781.238281-.039062.636719-.019531 1.277343-.195312 1.859375-.332031-.605469-.527344-1.339844-.957031-1.859375.046875-.046875.085937-.101563.132812-.148438.191407.082031.320313-.105469.46875-.089843m.984375.203124c.238282-.003906.429688.152344.535156.320313-.332031.570313-.648437 1.15625-1.042968 1.65625.164062-.484375.234375-1.300781.261718-1.917969.078126-.039062.160157-.058594.246094-.058594m-1.792968.214844c.390624.5.632812 1.144532.894531 1.761719-.621094-.1875-1.257813-.492187-1.804688-.800781.105469-.464844.527344-.703125.910157-.960938m4.148437 1.648438c.171875.003906.339844.144531.414063.257812.136718.203125.261718.800782.332031 1.117188.105469.472656-.132813.933594-.507813 1.023437-.273437.066407-.691406.085938-.871094-.003906.21875-.117187.546876-.117187.800782-.199219-.363282-.160156-.898438-.011718-1.335938-.039062-.054687-.539063-.09375-1.125-.21875-1.546875.253906-.273438.867188-.339844 1.21875-.5625.050782-.03125.109375-.046875.167969-.046875m-.03125.503906c-.445313.011719-.796875.132812-.996094.414062.363281.023438.625-.339843.996094-.414062m-1.761719.109375c.03125.003906.0625.007813.09375.011719.238282.410156.289063 1.089844.28125 1.585937-.148437.027344-.246094.113281-.425781.105469-.046875-.5625-.175781-1.152344-.230469-1.6875.085938-.003906.1875-.019531.28125-.015625zm-2.757812.007813c.46875-.007813.925781.019531 1.320312.101562.097656.625.0625 1.242188.132813 1.859375.089843.816406.023437 1.746094.179687 2.511719-.867187.269531-2.050781.242187-3.03125-.054688-.445312-1.355468-.683594-2.644531-.851562-4.175781.644531-.121094 1.46875-.230469 2.25-.242187m2.085937.054687c.15625.558594.144531 1.273437.222657 1.90625-.234376.050781-.40625.078125-.660157.113281-.050781-.65625-.089843-1.304687-.078125-1.960937.179688-.0625.335938-.058594.515625-.058594m2.035157.320313c-.175782.003906-.335938.042968-.402344.148437.308594.023437.664062-.027344.964844-.058594-.136719-.046875-.359376-.089843-.5625-.089843m-.050782.457031c-.15625.003906-.296875.03125-.367187.109375.320312.027344.746093.035156 1.085937.027344-.136718-.066407-.453125-.140626-.71875-.136719zm-2.066406 1.511719c.03125-.007813.0625-.007813.085938 0 .050781.425781.21875.859374.199218 1.328124-.191406.066407-.296875.121094-.550781.121094-.019531-.398437-.070313-1.007812-.054687-1.386718.09375.003906.21875-.046876.320312-.0625" fill="#231f20"/><path d="m11.878906 10.472656c-.085937.003906-.167968.023438-.246094.0625-.027343.617188-.097656 1.433594-.261718 1.917969.394531-.5.710937-1.085937 1.042968-1.65625-.105468-.167969-.296874-.324219-.535156-.324219m-1.792968.21875c-.382813.257813-.804688.496094-.910157.960938.546875.308594 1.183594.613281 1.804688.800781-.261719-.617187-.503907-1.261719-.894531-1.761719" fill="#81b0c4"/><path d="m11.222656 8.992188c-.167968.113281-.316406.25-.480468.371093-.363282.019531-.5625-.027343-.832032-.234375.003906-.015625.03125-.011718.035156-.03125.386719.175782.886719-.070312 1.277344-.105468" fill="#f0d6b7"/><path d="m11.128906 10.789062c0 .074219-.058594.132813-.132812.132813-.074219 0-.132813-.058594-.132813-.132813 0-.070312.058594-.132812.132813-.132812.074218 0 .132812.0625.132812.132812m.132813.613282c0 .074218-.058594.132812-.132813.132812-.074218 0-.132812-.058594-.132812-.132812 0-.074219.058594-.132813.132812-.132813.074219 0 .132813.058594.132813.132813" fill="#1d1919"/></svg>