<svg height="18" viewBox="0 0 18 18" width="18" xmlns="http://www.w3.org/2000/svg" xmlns:xlink="http://www.w3.org/1999/xlink"><filter id="a" height="100%" width="100%" x="0%" y="0%"><feColorMatrix color-interpolation-filters="sRGB" values="0 0 0 0 1 0 0 0 0 1 0 0 0 0 1 0 0 0 1 0"/></filter><mask id="b"><g filter="url(#a)"><path d="m-1.8-1.8h21.6v21.6h-21.6z" fill-opacity=".1"/></g></mask><mask id="c"><g filter="url(#a)"><path d="m-1.8-1.8h21.6v21.6h-21.6z" fill-opacity=".1"/></g></mask><mask id="d"><g filter="url(#a)"><path d="m-1.8-1.8h21.6v21.6h-21.6z" fill-opacity=".1"/></g></mask><mask id="e"><g filter="url(#a)"><path d="m-1.8-1.8h21.6v21.6h-21.6z" fill-opacity=".1"/></g></mask><clipPath id="f"><path d="m0 0h18v18h-18z"/></clipPath><clipPath id="g"><path d="m0 0h18v18h-18z"/></clipPath><clipPath id="h"><path d="m0 0h18v18h-18z"/></clipPath><clipPath id="i"><path d="m0 0h18v18h-18z"/></clipPath><path d="m5.796875 10.796875c-.03125-.054687-.054687-.117187-.066406-.179687.011719.0625.035156.125.066406.179687m.082031.101563c.03125.03125.066406.054687.105469.074218l2.65625 1.488282-2.65625-1.488282c-.039063-.019531-.074219-.042968-.105469-.074218zm0 0" fill="#083042"/><path d="m9.046875 14.339844h-.019531c-.195313 0-.390625-.050782-.5625-.144532l-3.964844-2.214843c-.234375-.128907-.375-.375-.375-.636719v-4.503906c0-.195313.03125-.378906.113281-.542969l-3.097656-1.722656c-.128906.269531-.195313.574219-.191406.894531v7.441406c.007812.441406.246093.839844.628906 1.054688l6.535156 3.65625c.289063.164062.613281.242187.929688.242187v-.003906c.007812-.46875.003906-2.339844.003906-3.519531zm0 0" fill="#083042"/><path d="m12.160156 7.117188-.023437-.035157c-.019531-.027343-.039063-.050781-.058594-.078125.019531.023438.039063.050782.058594.078125.007812.007813.015625.019531.023437.035157m-3.265625-1.808594c.019531 0 .035157-.003906.054688-.003906-.019531.003906-.039063.003906-.054688.003906" fill="#3ddb85"/><path d="m4.234375 6.292969c.089844-.179688.226563-.328125.398437-.429688l3.730469-2.179687c.347657-.207032.777344-.210938 1.128907-.011719l3.769531 2.109375c.167969.09375.3125.226562.421875.386719l3.050781-1.804688c-.183594-.257812-.421875-.476562-.699219-.632812l-6.222656-3.480469c-.582031-.3242188-1.289062-.3203125-1.863281.015625l-6.152344 3.597656c-.285156.164063-.515625.414063-.65625.710938zm0 0" fill="#3ddc84"/><path d="m8.742188 5.339844c.007812-.003906.015624-.003906.023437-.007813-.007813.003907-.015625.003907-.023437.007813m-2.9375 1.824218c.007812-.015624.015624-.03125.023437-.042968-.007813.015625-.015625.027344-.023437.042968l-.011719.03125zm0 0" fill="#3ddb85"/><path d="m16.730469 4.363281-3.050781 1.804688c.117187.167969.1875.367187.191406.574219v4.289062c.003906.402344-.207032.773438-.550782.972656l-3.730468 2.179688c-.164063.097656-.351563.148437-.542969.15625.003906 1.175781.003906 3.046875-.003906 3.515625v.003906c.328125-.003906.648437-.09375.929687-.257813l6.15625-3.597656c.574219-.335937.921875-.945312.914063-1.605468v-7.082032c-.003907-.339844-.121094-.667968-.3125-.953125" fill="#4285f4"/><path d="m12.230469 10.574219c-.003907.007812-.003907.015625-.007813.023437.003906-.007812.003906-.015625.007813-.023437m-.039063-3.40625c-.007812-.019531-.019531-.035157-.03125-.054688.011719.019531.023438.039063.03125.054688zm-2.796875 5.289062 2.5-1.464843c.015625-.007813.027344-.019532.042969-.027344-.015625.007812-.027344.019531-.042969.027344zm2.804688-1.796875c-.007813.019532-.019531.039063-.027344.058594.007813-.023438.015625-.042969.027344-.058594" fill="#4285f4"/><path d="m5.792969 7.195312c-.03125.078126-.050781.15625-.058594.238282-.003906.03125-.003906.058594-.003906.09375v3.023437c0 .023438 0 .042969.003906.066407.007813.0625.03125.125.066406.179687.023438.039063.050781.070313.078125.101563.03125.03125.066406.054687.105469.074218l2.65625 1.488282c.113281.0625.246094.097656.375.09375h.027344c.125-.003907.246093-.039063.351562-.101563l2.5-1.464844c.015625-.007812.027344-.019531.042969-.027343.027344-.015626.054688-.035157.078125-.058594.035156-.035156.070313-.070313.101563-.109375.019531-.027344.039062-.054688.054687-.082031.011719-.019532.019531-.039063.027344-.058594.007812-.015625.019531-.039063.027343-.0625.003907-.007813.003907-.015625.007813-.023438.023437-.074218.035156-.152344.035156-.234375v-2.871093c0-.054688-.007812-.105469-.019531-.15625-.007812-.035157-.019531-.066407-.03125-.097657l-.023438-.042969c-.007812-.019531-.019531-.035156-.03125-.054687l-.023437-.035156c-.019531-.027344-.039063-.050781-.058594-.078125-.066406-.074219-.140625-.136719-.226562-.179688l-2.527344-1.417968c-.042969-.023438-.089844-.042969-.136719-.0625-.0625-.019532-.128906-.03125-.195312-.035157h-.050782c-.019531 0-.035156 0-.054687.003907-.042969.003906-.085937.011718-.128906.023437-.007813.003906-.015625.003906-.023438.007813-.058593.015624-.113281.042968-.167969.074218l-2.5 1.464844c-.074218.039062-.136718.097656-.1875.164062-.019531.027344-.039062.054688-.054687.082032-.007813.015625-.015625.027344-.023437.042968zm0 0" fill="#d6f0ff"/><path d="m9.042969 12.554688h-.027344c-.132813.003906-.261719-.03125-.375-.09375l-2.65625-1.488282c-.039063-.019531-.074219-.046875-.105469-.074218-.03125-.03125-.058594-.066407-.078125-.101563-.03125-.054687-.054687-.117187-.066406-.179687-.003906-.023438-.003906-.042969-.003906-.066407v-3.023437c0-.03125 0-.0625.003906-.09375.007813-.082032.027344-.160156.058594-.238282l-.714844-.433593-.84375-.46875c-.078125.164062-.117187.347656-.117187.542969v4.503906c.007812.265625.148437.507812.378906.636718l3.960937 2.21875c.171875.097657.367188.144532.5625.144532h.019531c0-.574219-.003906-.984375-.003906-.984375zm0 0" fill="#083042"/><path d="m9.042969 12.554688h-.027344c-.132813.003906-.261719-.03125-.375-.09375l-2.65625-1.488282c-.039063-.019531-.074219-.046875-.105469-.074218-.03125-.03125-.058594-.066407-.078125-.101563-.03125-.054687-.054687-.117187-.066406-.179687-.003906-.023438-.003906-.042969-.003906-.066407v-3.023437c0-.03125 0-.0625.003906-.09375.007813-.082032.027344-.160156.058594-.238282l-.714844-.433593-.84375-.46875c-.078125.164062-.117187.347656-.117187.542969v4.503906c.007812.265625.148437.507812.378906.636718l3.960937 2.21875c.171875.097657.367188.144532.5625.144532h.019531c0-.574219-.003906-.984375-.003906-.984375zm0 0" fill="#041619"/><path d="m13.257812 5.78125-3.769531-2.109375c-.351562-.199219-.78125-.195313-1.128906.011719l-3.730469 2.179687c-.171875.097657-.3125.25-.398437.429688l.847656.46875.714844.433593.011719-.03125c.007812-.015624.015624-.03125.023437-.042968.015625-.027344.035156-.054688.054687-.082032.050782-.066406.113282-.121093.1875-.167968l2.5-1.460938c.050782-.03125.109376-.054687.164063-.074218.007813-.003907.015625-.003907.023437-.007813.046876-.011719.089844-.019531.132813-.023437.019531 0 .035156-.003907.054687-.003907h.050782c.066406.003907.132812.015625.195312.035157.046875.015624.09375.035156.136719.0625l2.527344 1.417968c.085937.046875.160156.105469.226562.179688.019531.023437.039063.050781.058594.078125l.023437.035156.644532-.429687.875-.519532c-.113282-.152344-.257813-.285156-.425782-.378906zm0 0" fill="#3ddb85"/><path d="m13.257812 5.78125-3.769531-2.109375c-.351562-.199219-.78125-.195313-1.128906.011719l-3.730469 2.179687c-.171875.097657-.3125.25-.398437.429688l.847656.46875.714844.433593.011719-.03125c.007812-.015624.015624-.03125.023437-.042968.015625-.027344.035156-.054688.054687-.082032.050782-.066406.113282-.121093.1875-.167968l2.5-1.460938c.050782-.03125.109376-.054687.164063-.074218.007813-.003907.015625-.003907.023437-.007813.046876-.011719.089844-.019531.132813-.023437.019531 0 .035156-.003907.054687-.003907h.050782c.066406.003907.132812.015625.195312.035157.046875.015624.09375.035156.136719.0625l2.527344 1.417968c.085937.046875.160156.105469.226562.179688.019531.023437.039063.050781.058594.078125l.023437.035156.644532-.429687.875-.519532c-.113282-.152344-.257813-.285156-.425782-.378906zm0 0" fill="#37bf6e"/><path d="m12.160156 7.117188c.011719.019531.019532.035156.03125.050781l.023438.046875c.03125.082031.046875.167968.046875.253906v2.871094c.003906.082031-.007813.160156-.035157.234375 0 .007812 0 .015625-.003906.023437-.007812.019532-.019531.042969-.027344.0625-.007812.019532-.019531.039063-.027343.058594-.015625.027344-.035157.054688-.054688.082031-.03125.039063-.066406.074219-.101562.109375-.023438.023438-.050781.039063-.078125.058594-.015625.007812-.027344.019531-.042969.027344l-2.5 1.464844c-.109375.058593-.226563.09375-.351563.101562v.800781s0 .410157.003907.984375c.191406-.003906.378906-.058594.542969-.15625l3.730468-2.179687c.34375-.203125.554688-.574219.550782-.972657v-4.289062c-.003907-.210938-.074219-.40625-.191407-.574219l-.875.519531zm0 0" fill="#4285f4"/><path d="m12.160156 7.117188c.011719.019531.019532.035156.03125.050781l.023438.046875c.03125.082031.046875.167968.046875.253906v2.871094c.003906.082031-.007813.160156-.035157.234375 0 .007812 0 .015625-.003906.023437-.007812.019532-.019531.042969-.027344.0625-.007812.019532-.019531.039063-.027343.058594-.015625.027344-.035157.054688-.054688.082031-.03125.039063-.066406.074219-.101562.109375-.023438.023438-.050781.039063-.078125.058594-.015625.007812-.027344.019531-.042969.027344l-2.5 1.464844c-.109375.058593-.226563.09375-.351563.101562v.800781s0 .410157.003907.984375c.191406-.003906.378906-.058594.542969-.15625l3.730468-2.179687c.34375-.203125.554688-.574219.550782-.972657v-4.289062c-.003907-.210938-.074219-.40625-.191407-.574219l-.875.519531zm0 0" fill="#3870b2"/><g fill="#d6f0ff"><path d="m8.742188 5.339844c-.058594.015625-.113282.042968-.167969.074218l-2.5 1.460938 2.5-1.460938c.050781-.03125.105469-.054687.167969-.074218zm0 0"/><path d="m12.078125 7.003906c-.066406-.074218-.140625-.136718-.226563-.179687l-2.527343-1.417969 2.527343 1.417969c.085938.042969.160157.105469.226563.179687"/><path d="m12.214844 7.210938c.011718.03125.019531.066406.027344.097656-.007813-.03125-.019532-.0625-.03125-.097656zm0 0"/><path d="m12.226562 10.574219c.027344-.074219.039063-.152344.035157-.234375v-2.871094 2.871094c.003906.082031-.011719.160156-.035157.234375zm0 0"/></g><g mask="url(#b)"><g clip-path="url(#f)"><path d="m8.742188 5.339844c-.058594.015625-.113282.042968-.167969.074218l-2.5 1.460938 2.5-1.460938c.050781-.03125.105469-.054687.167969-.074218zm0 0"/></g></g><g mask="url(#c)"><g clip-path="url(#g)"><path d="m12.078125 7.003906c-.066406-.074218-.140625-.136718-.226563-.179687l-2.527343-1.417969 2.527343 1.417969c.085938.042969.160157.105469.226563.179687"/></g></g><g mask="url(#d)"><g clip-path="url(#h)"><path d="m12.214844 7.210938c.011718.03125.019531.066406.027344.097656-.007813-.03125-.019532-.0625-.03125-.097656zm0 0"/></g></g><g mask="url(#e)"><g clip-path="url(#i)"><path d="m12.226562 10.574219c.027344-.074219.039063-.152344.035157-.234375v-2.871094 2.871094c.003906.082031-.011719.160156-.035157.234375zm0 0"/></g></g></svg>