<svg height="18" viewBox="0 0 18 18" width="18" xmlns="http://www.w3.org/2000/svg" xmlns:xlink="http://www.w3.org/1999/xlink"><linearGradient id="a"><stop offset=".176" stop-color="#0052cc"/><stop offset="1" stop-color="#2684ff"/></linearGradient><linearGradient id="b" gradientUnits="userSpaceOnUse" x1="12.394125" x2="9.628875" xlink:href="#a" y1="5.497313" y2="8.348625"/><linearGradient id="c" gradientUnits="userSpaceOnUse" x1="9.360563" x2="6.163313" xlink:href="#a" y1="8.75475" y2="11.865375"/><path d="m15.191406 2.25h-6.5c0 1.621094 1.3125 2.933594 2.929688 2.933594h1.195312v1.15625c0 1.617187 1.3125 2.929687 2.933594 2.929687v-6.460937c0-.308594-.25-.558594-.558594-.558594m0 0" fill="#2684ff"/><path d="m11.96875 5.488281h-6.5c0 1.621094 1.3125 2.933594 2.933594 2.933594h1.195312v1.15625c0 1.621094 1.3125 2.933594 2.933594 2.933594v-6.460938c-.003906-.308593-.253906-.558593-.5625-.5625zm0 0" fill="url(#b)"/><path d="m8.75 8.730469h-6.5c0 1.621093 1.3125 2.929687 2.933594 2.929687h1.195312v1.160156c0 1.617188 1.308594 2.929688 2.929688 2.929688v-6.460938c0-.308593-.25-.558593-.558594-.558593zm0 0" fill="url(#c)"/></svg>