<svg height="18" viewBox="0 0 18 18" width="18" xmlns="http://www.w3.org/2000/svg" xmlns:xlink="http://www.w3.org/1999/xlink"><linearGradient id="a"><stop offset="0"/><stop offset="1" stop-color="#fff"/></linearGradient><linearGradient id="b" gradientTransform="matrix(.140456 0 0 -.140442 96.89217 -36.422999)" gradientUnits="userSpaceOnUse" x1="-670.564026" x2="-583.10498" xlink:href="#a" y1="-280.830994" y2="-368.306"/><linearGradient id="c" gradientTransform="matrix(.140456 0 0 -.140442 96.89217 -36.422999)" gradientUnits="userSpaceOnUse" x1="-579.14801" x2="-666.606995" xlink:href="#a" y1="-364.339996" y2="-276.872986"/><g fill-rule="evenodd"><path d="m8.984375 13.261719c3.859375 5.257812 7.632813-1.46875 7.628906-5.511719-.007812-4.785156-4.855469-7.457031-7.632812-7.457031-4.453125 0-8.699219 3.683593-8.699219 8.722656 0 5.601563 4.863281 8.703125 8.699219 8.703125-.867188-.125-3.757813-.746094-3.796875-7.40625-.027344-4.507812 1.46875-6.308594 3.792968-5.515625.050782.019531 2.5625 1.011719 2.5625 4.246094 0 3.21875-2.554687 4.21875-2.554687 4.21875" fill="url(#b)"/><path d="m8.980469 4.792969c-2.550781-.878907-5.671875 1.222656-5.671875 5.429687 0 6.871094 5.09375 7.496094 5.710937 7.496094 4.453125 0 8.699219-3.683594 8.699219-8.722656 0-5.601563-4.863281-8.703125-8.699219-8.703125 1.0625-.148438 5.722657 1.148437 5.722657 7.523437 0 4.15625-3.480469 6.417969-5.746094 5.453125-.050782-.019531-2.5625-1.011719-2.5625-4.246093 0-3.222657 2.546875-4.230469 2.546875-4.230469" fill="url(#c)"/></g></svg>