<svg height="18" viewBox="0 0 18 18" width="18" xmlns="http://www.w3.org/2000/svg"><path d="m14.117188 17.894531c-.015626.070313-.085938.105469-.210938.105469h-2.351562c-.140626 0-.261719-.0625-.371094-.1875l-3.882813-4.941406-1.085937 1.03125v3.832031c0 .175781-.085938.265625-.261719.265625h-1.824219c-.175781 0-.265625-.089844-.265625-.265625v-17.46875c0-.1757812.089844-.265625.265625-.265625h1.824219c.175781 0 .261719.0898438.261719.265625v10.757813l4.652344-4.707032c.125-.121094.246093-.183594.371093-.183594h2.433594c.105469 0 .175781.042969.210937.128907.035157.109375.027344.1875-.027343.238281l-4.917969 4.757812 5.128906 6.371094c.070313.070313.085938.160156.054688.265625" fill="#20beff"/></svg>