<svg height="18" viewBox="0 0 18 18" width="18" xmlns="http://www.w3.org/2000/svg"><path d="m-1.8-1.8h21.6v21.6h-21.6z" fill="#d00000"/><path d="m4.796875 13.964844c0 .011718.011719.027344.011719.042968l.308594.308594c.015624.011719.03125.011719.042968.011719h1.054688c.015625 0 .027344-.011719.042968-.011719l.308594-.308594c.015625-.015624.015625-.03125.015625-.042968v-3.347656c0-.015626.011719-.027344.011719-.042969l1.335938-1.277344c.015624-.015625.03125-.015625.03125 0l3.386718 5.003906c.015625.015625.027344.015625.042969.015625h1.492187c.011719 0 .027344-.015625.039063-.027344l.269531-.523437v-.039063l-3.953125-5.726562c-.011719-.011719 0-.027344 0-.039062l3.644531-3.628907c.011719-.015625.011719-.027343.011719-.042969v-.070312c0-.015625 0-.027344-.011719-.042969l-.210937-.476562c0-.015625-.015625-.027344-.03125-.027344h-1.476563c-.011718 0-.027343.011719-.039062.011719l-4.515625 4.542968c-.015625.015626-.015625 0-.015625-.015624v-4.148438c0-.011719-.011719-.027344-.011719-.039062l-.308593-.324219c-.015626-.015625-.03125-.015625-.042969-.015625h-1.070313c-.011718 0-.027344.015625-.042968.015625l-.308594.335937c-.011719.015625-.011719.027344-.011719.042969zm0 0" fill="#fff"/></svg>