<svg height="18" viewBox="0 0 18 18" width="18" xmlns="http://www.w3.org/2000/svg"><g stroke="#fff" stroke-linecap="round" stroke-linejoin="round" stroke-width="2" transform="scale(.75)"><path d="m2.588542 17.411458c-.380209.375-.588542.885417-.588542 1.416667v2.171875c0 .552083.447917 1 1 1h3c.552083 0 1-.447917 1-1v-1c0-.552083.447917-1 1-1h1c.552083 0 1-.447917 1-1v-1c0-.552083.447917-1 1-1h.171875c.53125 0 1.041667-.208333 1.416667-.588542l.8125-.8125c2.859375 1 6.03125-.114583 7.645833-2.682291 1.609375-2.567709 1.229167-5.90625-.911458-8.052084-2.145834-2.140625-5.484375-2.520833-8.052084-.911458-2.567708 1.614583-3.682291 4.786458-2.682291 7.645833zm0 0" fill="none"/><path d="m17 7.5c0 .276042-.223958.5-.5.5s-.5-.223958-.5-.5.223958-.5.5-.5.5.223958.5.5zm0 0" fill="#fff"/></g></svg>