<svg height="18" viewBox="0 0 18 18" width="18" xmlns="http://www.w3.org/2000/svg"><path d="m17.828125 9.980469-2.195313-1.0625 2.082032-.976563c.160156-.074218.253906-.273437.144531-.460937l-.21875-.25c-.136719-.152344-.289063-.265625-.472656-.191407l-1.546875.582032c-.035156.011718-.074219.015625-.105469.003906l-.601563-.167969c-.042968-.011719-.089843 0-.125.03125l-.640624.609375c-.140626-.808594-.46875-1.570312-.957032-2.226562l.933594-.007813c.042969 0 .078125-.019531.097656-.054687l.332032-.601563c.019531-.03125.046874-.058593.078124-.070312l1.53125-.652344c.09375-.042969.152344-.238281.136719-.363281l-.050781-.457032c-.042969-.132812-.226562-.25-.316406-.214843l-2.304688.800781.785156-2.160156c.0625-.167969-.011718-.375-.222656-.429688l-.332031-.023437c-.207031-.007813-.390625.019531-.472656.203125l-.679688 1.503906c-.015625.035156-.039062.0625-.074219.078125l-.542968.304687c-.039063.023438-.0625.0625-.066406.109376l-.023438.882812c-.667969-.46875-1.4375-.777344-2.25-.894531l.660156-.667969c.027344-.027344.035156-.070312.027344-.109375l-.191406-.65625c-.011719-.035156-.007813-.074219.003906-.105469l.621094-1.546875c.039062-.09375-.058594-.273437-.160156-.351562l-.359376-.285157c-.121093-.0664058-.335937-.0156245-.375.066407l-1.058593 2.199219-.976563-2.082032c-.074218-.160156-.273437-.2578122-.460937-.144531l-.25.214844c-.152344.140625-.265625.292969-.191407.476562l.582032 1.546875c.011718.035156.015625.070313.003906.105469l-.167969.601563c-.011719.042968 0 .089843.03125.125l.605469.640624c-.804688.140626-1.566406.46875-2.222656.957032l-.007813-.9375c0-.039063-.019531-.074219-.054687-.09375l-.601563-.332032c-.03125-.019531-.058593-.046874-.070312-.078124l-.65625-1.53125c-.039063-.09375-.234375-.152344-.359375-.136719l-.460938.050781c-.128906.042969-.246094.226562-.210937.3125l.800781 2.308594-2.160156-.785156c-.167969-.0625-.375.011718-.429688.222656l-.023437.332031c-.007813.207031.019531.390625.199219.472656l1.507812.679688c.035156.015625.058594.039062.078125.070312l.304687.542969c.023438.042969.0625.066406.109376.070312l.882812.023438c-.46875.667969-.777344 1.4375-.894531 2.25l-.667969-.660156c-.027344-.027344-.070312-.039063-.109375-.027344l-.660156.191406c-.03125.011719-.070313.007813-.101563-.003906l-1.546875-.621094c-.09375-.039062-.273437.058594-.351562.160156l-.2890628.359376c-.0625.121093-.015625.332031.0703128.371093l2.199219 1.0625-2.082032.976563c-.160156.074218-.2578122.273437-.144531.460937l.214844.25c.140625.152344.292969.265625.476562.191407l1.546875-.582032c.035156-.015625.070313-.015625.105469-.003906l.601563.167969c.042968.011719.089843 0 .125-.03125l.640624-.609375c.140626.808594.46875 1.570312.957032 2.226562l-.9375.007813c-.039063 0-.078125.019531-.097656.054687l-.328126.601563c-.019531.03125-.046874.058593-.078124.070312l-1.53125.652344c-.097657.042969-.152344.238281-.136719.363281l.050781.457032c.039062.132812.226562.25.3125.214843l2.304688-.800781-.78125 2.160156c-.0625.167969.011718.375.222656.429688l.332031.023437c.207031.007813.390625-.019531.46875-.203125l.683594-1.503906c.015625-.035156.039062-.0625.070312-.078125l.542969-.304687c.042969-.023438.066406-.0625.066406-.109376l.023438-.882812c.671875.46875 1.441406.777344 2.253906.894531l-.660156.667969c-.027344.027344-.039063.070312-.027344.109375l.191406.65625c.007813.035156.007813.074219-.003906.105469l-.625 1.546875c-.035156.09375.0625.273437.164062.351562l.359376.289063c.121093.0625.332031.011718.371093-.070313l1.0625-2.199219.976563 2.082032c.074218.160156.273437.257812.460937.144531l.25-.214844c.152344-.140625.265625-.292969.191407-.476562l-.582032-1.546875c-.015625-.035156-.015625-.070313-.003906-.105469l.167969-.601563c.011719-.042968 0-.089843-.03125-.125l-.609375-.640624c.808594-.140626 1.570312-.46875 2.222656-.957032l.007812.9375c0 .039063.023438.074219.058594.09375l.601563.332032c.03125.019531.054687.046874.070312.078124l.652344 1.53125c.042969.09375.238281.152344.363281.136719l.457032-.050781c.132812-.042969.246093-.226562.214843-.3125l-.804687-2.308594 2.164062.785156c.167969.0625.375-.011718.429688-.222656l.023437-.332031c.007813-.207031-.019531-.390625-.203125-.472656l-1.503906-.679688c-.035156-.015625-.0625-.039062-.078125-.070312l-.304687-.546875c-.023438-.039063-.0625-.0625-.109376-.066406l-.882812-.023438c.46875-.667969.777344-1.4375.890625-2.25l.667969.660156c.03125.027344.070312.039063.109375.027344l.660156-.191406c.035156-.011719.070313-.007813.105469.003906l1.546875.621094c.09375.039062.273437-.058594.351562-.160156l.285157-.359376c.066406-.121093.015624-.332031-.070313-.371093zm-5.078125-1.5625h-1.113281c-.078125-.363281-.234375-.703125-.449219-1.003907l.777344-.777343c.414062.515625.683594 1.128906.785156 1.78125m-2.296875-1.695313c-.3125-.199218-.664063-.332031-1.027344-.390625v-1.101562c.671875.074219 1.292969.328125 1.8125.707031zm-.136719 2.277344c0 .726562-.589844 1.316406-1.316406 1.316406s-1.316406-.589844-1.316406-1.316406.589844-1.316406 1.316406-1.316406 1.316406.589844 1.316406 1.316406m-1.898437-3.75v1.113281c-.363281.078125-.703125.230469-1.003907.449219l-.777343-.777344c.515625-.414062 1.128906-.683594 1.78125-.785156m-1.695313 2.296875c-.199218.3125-.332031.660156-.390625 1.027344h-1.101562c.074219-.65625.316406-1.28125.707031-1.8125zm-1.472656 2.035156h1.113281c.078125.363281.230469.703125.449219 1.003907l-.777344.777343c-.414062-.515625-.683594-1.128906-.785156-1.78125m2.296875 1.695313c.3125.199218.660156.332031 1.027344.390625v1.101562c-.65625-.074219-1.28125-.316406-1.8125-.707031zm2.035156 1.472656v-1.113281c.363281-.078125.703125-.234375 1-.449219l.78125.777344c-.515625.414062-1.128906.683594-1.78125.785156zm1.695313-2.296875c.199218-.3125.332031-.660156.390625-1.027344h1.101562c-.074219.65625-.316406 1.28125-.707031 1.8125zm0 0" fill="#e16426"/></svg>