<svg height="18" viewBox="0 0 18 18" width="18" xmlns="http://www.w3.org/2000/svg"><path d="m17.007812 4.308594c-.722656-.359375-1.410156-.722656-2.140624-1.066406-1.417969-.667969-2.78125-1.425782-4.210938-2.078126-.464844-.210937-.90625-.457031-1.355469-.691406-.152343-.078125-.285156-.078125-.441406 0-.589844.300782-1.1875.582032-1.78125.871094-1.414063.683594-2.894531 1.417969-4.316406 2.089844-.617188.289062-1.214844.601562-1.917969.898437v9.351563c.140625.003906.144531.003906.164062.011718.449219.222657.945313.4375 1.390626.667969.453124.234375.9375.445313 1.398437.664063 1.425781.679687 2.84375 1.402344 4.261719 2.105468.273437.136719.558594.257813.828125.402344.136719.074219.242187.066406.382812 0 .421875-.203125.847657-.402344 1.269531-.605468 1.628907-.796876 3.183594-1.628907 4.824219-2.40625.570313-.269532 1.089844-.5625 1.652344-.855469v-9.34375c0-.007813.007813-.007813-.007813-.015625m-2.046874 8.640625c-.339844.355469-.738282.621093-1.175782.835937-.109375.054688-.222656.117188-.339844.136719-.179687.027344-.242187.171875-.324218.289063-.144532.203124-.492188.40625-.730469.410156-.066406 0-.132813-.003906-.199219 0-.257812.023437-.492187-.042969-.726562-.160156-.316406-.160157-.664063-.183594-1.019532-.175782-.1875.003906-.347656.046875-.507812.136719-.207031.121094-.316406.394531-.273438.621094.011719.054687-.042968.121093-.078124.214843-.078126-.066406-.160157-.101562-.164063-.144531-.023437-.285156-.042969-.585937.160156-.820312.277344-.320313.640625-.5 1.066407-.53125.109374-.007813.222656.003906.332031 0 .265625-.007813.519531.039062.777343.113281.214844.058594.46875.070312.683594-.066406.078125-.285156-.074218-.492188-.28125-.628906-.21875-.140626-.441406-.289063-.710937-.351563-.195313-.042969-.367188-.179687-.554688-.253906-.191406-.070313-.382812-.148438-.574219-.214844-.179687-.066406-.386718-.066406-.550781-.183594-.300781.015625-.59375-.121093-.898437-.066406-.394532.074219-.792969.140625-1.167969.292969-.28125.113281-.570313.21875-.839844.363281-.160156.085937-.34375.128906-.507812.207031-.132813.058594-.257813.136719-.371094.222656-.191406.152344-.324219.34375-.261719.613282.238282.109375.480469.125.734375.039062.277344-.09375.570313-.074218.859375-.09375.363282-.019531.683594.09375.976563.277344.28125.175781.472656.425781.460937.78125-.003906.078125.011719.15625-.003906.230469-.011719.066406-.058594.125-.101562.21875-.09375-.097657-.242188-.121094-.105469-.265625-.085938-.15625-.035157-.375-.210938-.496094-.152343-.105469-.300781-.222656-.507812-.210938-.121094.007813-.242188.011719-.363281 0-.28125-.027343-.539063.070313-.777344.195313-.332032.167969-.683594.132813-1.035156.136719-.195313-.109375-.433594-.160156-.578126-.347656-.078124-.097657-.109374-.265626-.199218-.296876-.117188-.042968-.222656-.125-.335938-.140624-.292968-.046876-.496094-.25-.734375-.382813-.203125-.109375-.367187-.296875-.539062-.457031-.1875-.179688-.285157-.398438-.328125-.65625-.066406-.382813.082031-.738282.289062-.953125.269532-.285157.605469-.433594.96875-.566407-.089844-.175781-.15625-.375-.277344-.53125-.117187-.152343-.125-.332031-.171874-.492187-.054688-.183594-.050782-.402344-.003907-.589844.046875-.179687.160157-.355469.269531-.511719.105469-.140624.242188-.257812.375-.375.039063-.035156.113282-.039062.164063-.058593.074219.101562.050781.167969-.019531.242187-.074219.074219-.136719.164063-.203125.246094-.191407.230469-.132813.507812-.128907.769531.003907.167969.101563.308594.199219.445313.183594.261718.375.503906.691407.632812.167968.070313.328124.128906.511718.125.164063-.007812.328125-.003906.570313-.003906-.144531-.0625-.214844-.09375-.285157-.128906-.503906-.230469-.765624-.628906-.765624-1.15625 0-.1875.019531-.378906-.007813-.5625-.019531-.160156.074219-.285156.078125-.433594.003906-.136719-.0625-.285156.0625-.402344-.035156-.257812.0625-.519531-.050781-.773437-.0625-.132813-.011719-.28125-.070313-.433594-.117187-.289063-.199218-.574219-.574218-.609375-.039063-.003906-.074219-.070312-.109376-.105469.0625-.140625.132813-.171875.28125-.125.378907.121094.609376.378907.792969.71875.195313.363281.261719.753907.335938 1.152344.070312.402344.03125.800781.058593 1.199219.007813.132812.042969.265625.085938.390625.039062.125.132812.199219.257812.210937.183594.019532.210938.003906.492188-.164062v-.335938c-.28125-.066406-.148438-.238281-.34375-.234375-.074219.003907-.109375-.105469-.105469-.207031.007813-.285156.023438-.574219 0-.859375-.027343-.304687.042969-.601563.089844-.894531.039063-.257813.070313-.527344.175781-.78125.09375-.238282.113282-.503906.207032-.742188.175781-.433594.371093-.859375.613281-1.265625.140625-.234375.324219-.429687.441406-.675781.007813-.019531.019531-.035156.035156-.050781.167969-.195313.332031-.398438.515625-.578125.222656-.21875.460938-.417969.703125-.632813.25.222657.511719.417969.726563.652344.582031.644531 1.09375 1.34375 1.421875 2.152344.152343.375.296875.761719.375 1.167969.070312.371093.144531.738281.203125 1.109374.082031.476563.015625.953126.054687 1.425782.007813.09375-.128906.183594-.179687.179687-.195313-.011719-.292969.164063-.433594.234375v.339844c.140625.125.335938.171875.503906.167969.207032-.007813.351563-.121094.40625-.332031.0625-.238282.09375-.46875.074219-.703126-.03125-.339843.046875-.667968.089844-.996093.054687-.382813.191406-.753907.390625-1.09375.136718-.222657.539062-.535157.773437-.578125.105469-.023438.191407.011718.230469.15625-.039062.03125-.082031.09375-.132812.101562-.335938.03125-.433594.289063-.53125.542969-.054688.132813-.042969.296875-.082032.429687-.070312.226563-.050781.445313-.050781.667969 0 .136719.039063.269531.0625.402344.023437.125-.054687.261719.0625.375.027344.027344.003906.105469.003906.160156 0 .210938-.003906.417969 0 .628907.015625.523437-.351562 1.105468-.984375 1.265624.394532.03125.777344.066407 1.152344-.164062.359375-.222656.554688-.5625.757812-.90625.003907-.394531.058594-.804688-.308593-1.09375-.078125-.0625-.101563-.132812-.078125-.261719.070312.007813.140625-.003906.167968.027344.203126.214844.472657.382813.566407.6875.027343.085937.113281.167969.109375.25-.011719.214844.035156.425781-.03125.644531-.050782.167969-.101563.332032-.175782.488282-.070312.148437-.167968.285156-.253906.4375.125.058593.242188.136718.375.175781.277344.082031.46875.277343.660156.476562.195313.195313.21875.460938.289063.707031-.101563.265626-.125.5625-.335937.785157m-10.289063-1.105469c-.109375.007812-.21875-.003906-.328125.003906-.179688.011719-.34375.074219-.488281.171875-.148438.097657-.15625.191407-.089844.359375.070313.167969.171875.308594.304687.4375.230469.230469.472657.445313.757813.605469.101563-.5625.417969-.972656.898437-1.273437-.082031-.042969-.148437-.070313-.210937-.105469-.261719-.148438-.539063-.226563-.84375-.199219m9.667969.199219c-.082032-.074219-.394532-.195313-.515625-.199219-.152344 0-.308594.011719-.460938 0-.230469-.019531-.429687.070312-.628906.15625-.09375.039062-.183594.089844-.292969.148438.480469.300781.796875.710937.898438 1.285156.128906-.089844.257812-.167969.371094-.269532.207031-.179687.402343-.367187.59375-.5625.058593-.0625.085937-.160156.117187-.246093.050781-.121094.019531-.222657-.082031-.3125m-6.257813-3.171875c-.152343.003906-.195312.066406-.1875.265625.003907.148437.070313.207031.222657.195312.121093-.007812.253906-.144531.238281-.25-.011719-.105469-.152344-.214843-.273438-.210937m2.011719 0c-.140625-.007813-.289062.117187-.28125.238281.003906.109375.140625.222656.265625.222656.148437 0 .195313-.054687.195313-.222656.003906-.175781-.039063-.234375-.179688-.238281" fill="#0081c2" fill-rule="evenodd"/></svg>