<svg height="18" viewBox="0 0 18 18" width="18" xmlns="http://www.w3.org/2000/svg" xmlns:xlink="http://www.w3.org/1999/xlink"><clipPath id="a"><path d="m0 0h18v18h-18z"/></clipPath><clipPath id="b"><path d="m0 0h18v18h-18z"/></clipPath><clipPath id="c"><path d="m0 0h18v18h-18z"/></clipPath><g clip-path="url(#a)"><path d="m14.777344 8.414062c-.273438 0-.496094.222657-.496094.5v.1875c0 .273438.222656.496094.496094.496094h2.726562c.273438 0 .496094-.222656.496094-.496094v-.1875c0-.277343-.222656-.5-.496094-.5zm-14.28125-2.535156c-.273438 0-.496094.222656-.496094.496094v.191406c0 .273438.222656.496094.496094.496094h2.726562c.273438 0 .496094-.222656.496094-.496094v-.191406c0-.273438-.222656-.496094-.496094-.496094zm0 5.070313c-.273438 0-.496094.222656-.496094.5v.1875c0 .273437.222656.496093.496094.496093h2.726562c.273438 0 .496094-.222656.496094-.496093v-.1875c0-.277344-.222656-.5-.496094-.5zm0 0" fill="#bec7cc"/></g><g clip-path="url(#b)"><path d="m4.183594 3.160156c-.621094-.015625-1.132813.417969-1.132813.957032v9.765624c0 .738282.921875 1.199219 1.660157.828126l9.773437-4.882813c.738281-.367187.738281-1.289063 0-1.65625l-9.773437-4.882813c-.164063-.082031-.34375-.125-.527344-.128906zm0 0" fill="#ffd500"/></g><g clip-path="url(#c)"><path d="m9.074219 9.433594h-1.679688v1.683594h-.863281v-1.683594h-1.683594v-.855469h1.683594v-1.683594h.863281v1.683594h1.679688zm0 0" fill="#727b84"/></g></svg>