<svg height="18" viewBox="0 0 18 18" width="18" xmlns="http://www.w3.org/2000/svg"><path d="m3.835938.015625c-.027344.0117188-.820313.460937-1.757813 1-1.136719.652344-1.71875.996094-1.75 1.03125-.027344.03125-.046875.066406-.0625.105469-.023437.078125-.023437 11.667968 0 11.753906.007813.03125.035156.078125.0625.105469.058594.0625 6.84375 3.964843 6.925781 3.980469.039063.011718.082032.007812.121094-.003907.09375-.023437 6.859375-3.914062 6.917969-3.976562.027343-.027344.054687-.074219.0625-.105469.011719-.039062.015625-.644531.015625-1.921875v-1.863281l1.648437-.949219c1.554688-.894531 1.652344-.949219 1.691407-1.011719l.039062-.0625v-2.011718c0-2.183594.003906-2.0625-.082031-2.140626-.023438-.019531-.8125-.484374-1.761719-1.027343l-1.71875-.988281h-.191406l-1.683594.964843c-.925781.53125-1.710938.988281-1.75 1.011719-.039062.027344-.082031.074219-.101562.105469l-.035157.058593-.007812 1.894532-.007813 1.890625-1.386718.800781c-.765626.441406-1.402344.804688-1.414063.808594-.027344.003906-.027344-.175782-.027344-3.652344v-3.660156l-.035156-.066406c-.046875-.074219.160156.046874-1.90625-1.140626-1.730469-.9960932-1.6875-.9726558-1.804687-.929687zm1.589843 1.449219c.726563.414062 1.316407.757812 1.316407.761718 0 .007813-.632813.375-1.410157.820313l-1.410156.808594-1.410156-.808594c-.777344-.445313-1.410157-.8125-1.410157-.820313 0-.003906.632813-.371093 1.40625-.8125l1.40625-.8125.097657.054688c.472656.269531.945312.539062 1.414062.808594m10.078125 1.863281c.761719.441406 1.394532.804687 1.398438.808594.019531.015625-2.777344 1.621093-2.816406 1.621093-.039063 0-2.800782-1.59375-2.800782-1.613281 0-.023437 2.78125-1.621093 2.808594-1.617187.011719.003906.648438.363281 1.410156.800781m-13.210937.234375 1.34375.773438.015625 7.664062.03125.050781c.015625.027344.050781.066407.074218.082031.019532.015626.769532.441407 1.660157.945313l1.621093.914063v1.621093c0 .890625-.007812 1.621094-.015624 1.621094-.003907 0-1.40625-.800781-3.109376-1.78125l-3.097656-1.785156-.007812-5.480469v-5.476562l.066406.039062c.042969.019531.675781.386719 1.417969.8125zm4.746093 2.695312v3.53125l-.054687.035157c-.074219.046875-2.765625 1.59375-2.773437 1.59375-.003907 0-.007813-1.59375-.007813-3.542969v-3.539062l1.40625-.808594c.773437-.445313 1.410156-.808594 1.417969-.804688.007812.003906.011718 1.59375.011718 3.535156m5.363282-.8125 1.410156.8125v1.605469c0 1.523438 0 1.605469-.023438 1.597657-.015624-.007813-.652343-.371094-1.417968-.8125l-1.394532-.800782v-1.605468c0-.882813.003907-1.605469.007813-1.605469.007813 0 .644531.363281 1.417969.808593m4.804687.789063c0 .878906-.003906 1.601563-.011719 1.609375-.007812.015625-2.796874 1.625-2.816406 1.625-.003906 0-.007812-.722656-.007812-1.609375v-1.605469l1.40625-.808594c.773437-.445312 1.414062-.808593 1.417968-.808593.007813 0 .011719.71875.011719 1.597656m-3.707031 3.742187-6.1875 3.527344-2.804688-1.59375s6.179688-3.574218 6.203126-3.566406zm.308594 2.082032-.003906 1.609375-3.097657 1.785156c-1.703125.980469-3.105469 1.78125-3.109375 1.78125-.007812 0-.015625-.65625-.015625-1.621094v-1.621093l3.105469-1.769532c1.707031-.972656 3.109375-1.769531 3.117188-1.773437.003906 0 .007812.726562.003906 1.609375zm0 0" fill="#f0513f"/></svg>