<svg height="18" viewBox="0 0 18 18" width="18" xmlns="http://www.w3.org/2000/svg"><g fill="none" stroke="#fff" stroke-linecap="round" stroke-linejoin="round" stroke-width="2" transform="scale(.75)"><path d="m7 22c-1.260417-.942708-2-2.427083-2-4m2-1.067708c.958333.427083 1.958333.739583 2.989583.90625m-6.651041-3.838542c-.859375-1.15625-1.328125-2.557292-1.338542-4 0-4.421875 4.479167-8 10-8s10 3.578125 10 8c-.015625.677083-.125 1.354167-.328125 2"/><path d="m5 18c1.104167 0 2-.895833 2-2s-.895833-2-2-2-2 .895833-2 2 .895833 2 2 2m9.328125 4h-.088542c-.140625-.046875-.234375-.171875-.239583-.317708v-10c0-.1875.145833-.338542.328125-.34375.083333 0 .151042.03125.213542.083333l7.338541 6c.109375.083333.15625.234375.109375.369792-.046875.135416-.177083.21875-.317708.21875h-4.489583l-2.572917 3.848958c-.067708.088542-.166667.140625-.28125.140625"/></g></svg>