<svg height="18" viewBox="0 0 18 18" width="18" xmlns="http://www.w3.org/2000/svg"><g fill="none" stroke="#fff" stroke-linecap="round" stroke-linejoin="round" stroke-width="2" transform="scale(.75)"><path d="m16.020833 12 5.479167 3.130208c.3125.177084.505208.510417.505208.869792s-.192708.692708-.505208.869792l-8.5 4.869791c-.619792.359375-1.380208.359375-2 0l-8.5-4.869791c-.3125-.177084-.505208-.510417-.505208-.869792s.192708-.692708.505208-.869792l5.479167-3.130208"/><path d="m13 13.739583c-.619792.359375-1.380208.359375-2 0l-8.5-4.869791c-.3125-.177084-.505208-.510417-.505208-.869792s.192708-.692708.505208-.869792l8.5-4.869791c.619792-.359375 1.380208-.359375 2 0l8.5 4.869791c.3125.177084.505208.510417.505208.869792s-.192708.692708-.505208.869792zm0 0"/></g></svg>