<svg height="18" viewBox="0 0 18 18" width="18" xmlns="http://www.w3.org/2000/svg"><g fill="none" stroke="#fff" stroke-linecap="round" stroke-linejoin="round" stroke-width="2" transform="scale(.75)"><path d="m12.828125 2.182292c-.526042-.244792-1.130208-.244792-1.65625 0l-8.572917 3.895833c-.359375.161458-.59375.520833-.59375.916667 0 .395833.234375.755208.59375.916666l8.583334 3.90625c.526041.244792 1.130208.244792 1.65625 0l8.583333-3.895833c.359375-.161458.59375-.520833.59375-.916667 0-.395833-.234375-.755208-.59375-.916666zm0 0"/><path d="m2 12c0 .390625.223958.744792.578125.911458l8.604167 3.90625c.520833.239584 1.125.239584 1.645833 0l8.583333-3.895833c.359375-.166667.59375-.526042.588542-.921875"/><path d="m2 17c0 .390625.223958.744792.578125.911458l8.604167 3.90625c.520833.239584 1.125.239584 1.645833 0l8.583333-3.895833c.359375-.166667.59375-.526042.588542-.921875"/></g></svg>