<svg height="18" viewBox="0 0 18 18" width="18" xmlns="http://www.w3.org/2000/svg"><g fill="none" stroke="#fff" stroke-linecap="round" stroke-linejoin="round" stroke-width="2" transform="scale(.75)"><path d="m4 3h16c.552083 0 1 .447917 1 1v5c0 .552083-.447917 1-1 1h-16c-.552083 0-1-.447917-1-1v-5c0-.552083.447917-1 1-1zm0 0"/><path d="m4 14h5c.552083 0 1 .447917 1 1v5c0 .552083-.447917 1-1 1h-5c-.552083 0-1-.447917-1-1v-5c0-.552083.447917-1 1-1zm0 0"/><path d="m15 14h5c.552083 0 1 .447917 1 1v5c0 .552083-.447917 1-1 1h-5c-.552083 0-1-.447917-1-1v-5c0-.552083.447917-1 1-1zm0 0"/></g></svg>