<svg height="18" viewBox="0 0 18 18" width="18" xmlns="http://www.w3.org/2000/svg"><path d="m2 22c1.25-.989583 2.270833-1.973958 3.901042-2.197917 1.411458 0 2.770833.53125 3.796875 1.5 1.088541.760417 2.479166.932292 3.71875.458334 1.239583-.46875 2.166666-1.526042 2.46875-2.8125 1.328125.234375 2.666666-.307292 3.453125-1.401042.786458-1.088542.880208-2.536458.239583-3.713542 1.166667-.380208 2.046875-1.338541 2.328125-2.53125.28125-1.192708-.083333-2.442708-.958333-3.302083 1.369791-1.364583 1.369791-3.583333 0-4.947917-1.364584-1.369791-3.583334-1.369791-4.947917 0-.859375-.875-2.109375-1.239583-3.302083-.958333-1.192709.28125-2.151042 1.161458-2.53125 2.328125-1.177084-.640625-2.625-.546875-3.713542.239583-1.09375.786459-1.635417 2.125-1.401042 3.453125-1.276041.307292-2.322916 1.229167-2.791666 2.458334-.46875 1.229166-.302084 2.609375.442708 3.692708.796875 1.15625 1.708333 2.447917 1.494792 3.833333-.270834 1.645834-1.182292 2.635417-2.197917 3.901042m0 0 15-15" fill="none" stroke="#fff" stroke-linecap="round" stroke-linejoin="round" stroke-width="2" transform="scale(.75)"/></svg>