<svg height="18" viewBox="0 0 18 18" width="18" xmlns="http://www.w3.org/2000/svg"><g fill="none" stroke="#fff" stroke-linecap="round" stroke-linejoin="round" stroke-width="2" transform="scale(.75)"><path d="m22 12c0 5.520833-4.479167 10-10 10s-10-4.479167-10-10 4.479167-10 10-10 10 4.479167 10 10zm0 0"/><path d="m4.932292 4.932292 4.239583 4.239583m5.65625 0 4.239583-4.239583m-4.239583 9.895833 4.239583 4.239583m-9.895833-4.239583-4.239583 4.239583"/><path d="m16 12c0 2.208333-1.791667 4-4 4s-4-1.791667-4-4 1.791667-4 4-4 4 1.791667 4 4zm0 0"/></g></svg>