<svg height="18" viewBox="0 0 18 18" width="18" xmlns="http://www.w3.org/2000/svg"><path d="m9.058594 0c.582031.03125 1.046875.0390625 1.503906.0820312 1.070312.1054688 2.117188.3281248 3.117188.7539068.578124.25 1.125.554687 1.546874 1.046874.421876.503907.445313 1.015626.050782 1.511719-.160156.195313-.34375.371094-.546875.519531-.640625.484376-1.375.753907-2.136719.972657-1.351562.378906-2.730469.5-4.125.429687-.683594-.03125-1.363281-.140625-2.035156-.242187-.765625-.117188-1.496094-.355469-2.195313-.6875-.46875-.21875-.898437-.492188-1.242187-.875-.398438-.433594-.492188-.886719-.226563-1.34375.136719-.246094.34375-.464844.558594-.644531.507813-.429688 1.113281-.707032 1.742187-.898438.558594-.167969 1.128907-.304688 1.703126-.433594.226562-.050781.464843-.070312.695312-.089844.574219-.0429682 1.140625-.0742182 1.589844-.101562m6.421875 9.425781c.003906.089844.015625.15625.015625.21875v1.492188c0 .597656-.25 1.074219-.675782 1.460937-.605468.546875-1.328124.875-2.082031 1.125-.847656.28125-1.710937.527344-2.570312.765625-.8125.21875-1.640625.398438-2.453125.609375-1.144532.304688-2.28125.625-3.347656 1.15625-.207032.105469-.410157.21875-.605469.34375-.105469.0625-.195313.070313-.289063-.007812-.195312-.171875-.414062-.335938-.589844-.527344-.429687-.476562-.402343-1.046875-.136718-1.582031.28125-.570313.777344-.925781 1.3125-1.222657.804687-.441406 1.671875-.738281 2.550781-.964843.90625-.234375 1.816406-.449219 2.726563-.679688.71875-.179687 1.433593-.359375 2.152343-.535156.824219-.199219 1.640625-.441406 2.414063-.796875.457031-.203125.886718-.480469 1.324218-.726562.058594-.03125.109376-.070313.164063-.101563.019531-.007813.039063-.011719.089844-.027344zm.019531-3.160156c0 .222656-.007812.449219 0 .671875.035156.742188-.308594 1.269531-.871094 1.679688-.632812.464843-1.351562.75-2.085937.984374-.628907.199219-1.261719.378907-1.898438.546876-.722656.183593-1.445312.339843-2.167969.511718-.472656.117188-.949218.234375-1.414062.355469-.496094.128906-.992188.261719-1.484375.417969-.992187.316406-1.960937.695312-2.800781 1.335937-.050782.039063-.121094.050781-.179688.078125-.011718-.0625-.035156-.128906-.035156-.199218-.011719-.828126.148438-1.605469.609375-2.300782.390625-.59375.90625-1.035156 1.488281-1.402344.773438-.484374 1.609375-.828124 2.476563-1.082031.84375-.242187 1.699219-.46875 2.546875-.6875.878906-.230469 1.773437-.429687 2.652344-.667969.859374-.230468 1.714843-.488281 2.488281-.953124.164062-.09375.316406-.210938.472656-.3125.042969-.03125.101563-.046876.152344-.066407.015625.050781.042969.105469.050781.160157.003906.304687 0 .613281 0 .929687m-.027344 7.300781c.011719.085938.027344.144532.027344.195313v1.476562c-.007812.492188-.285156.824219-.625 1.125-.4375.386719-.949219.636719-1.484375.851563-.640625.257812-1.304687.421875-1.976563.539062-.886718.148438-1.78125.21875-2.671874.191406-.234376-.003906-.460938-.011718-.691407-.03125-.855469-.050781-1.699219-.1875-2.523437-.410156-.199219-.058594-.402344-.128906-.601563-.199218v-.066407c.132813-.0625.265625-.132812.402344-.191406.824219-.339844 1.664063-.597656 2.527344-.8125.898437-.222656 1.796875-.441406 2.695312-.671875 1.039063-.269531 2.074219-.546875 3.066407-.960938.585937-.238281 1.152343-.511718 1.65625-.910156.046874-.046875.117187-.070312.199218-.125zm0 0" fill="#ff3c00"/></svg>