<svg height="18" viewBox="0 0 18 18" width="18" xmlns="http://www.w3.org/2000/svg"><g fill="none" stroke="#fff" stroke-linecap="round" stroke-linejoin="round" stroke-width="2" transform="scale(.75)"><path d="m19.432292 12.9375c.354166-.96875.567708-1.958333.567708-2.9375 0-4.416667-3.583333-8-8-8s-8 3.583333-8 8c0 4.994792 5.536458 10.192708 7.401042 11.796875.354166.270833.84375.270833 1.197916 0 .276042-.234375.546875-.479167.8125-.723958"/><path d="m15 10c0 1.65625-1.34375 3-3 3s-3-1.34375-3-3 1.34375-3 3-3 3 1.34375 3 3zm0 0"/><path d="m16 18 2 2 4-4"/></g></svg>