<svg height="18" viewBox="0 0 18 18" width="18" xmlns="http://www.w3.org/2000/svg"><g fill="none" stroke="#fff" stroke-linecap="round" stroke-linejoin="round" stroke-width="2" transform="scale(.75)"><path d="m18 8c0 3.614583-3.869792 7.427083-5.390625 8.796875-.359375.270833-.859375.270833-1.21875 0-1.520833-1.369792-5.390625-5.182292-5.390625-8.796875 0-3.3125 2.6875-6 6-6s6 2.6875 6 6"/><path d="m14 8c0 1.104167-.895833 2-2 2s-2-.895833-2-2 .895833-2 2-2 2 .895833 2 2zm0 0"/><path d="m8.713542 14h-3.708334c-.432291 0-.8125.276042-.947916.682292l-2.005209 6c-.104166.307291-.052083.640625.135417.901041.1875.260417.489583.416667.8125.416667h18c.322917 0 .625-.15625.8125-.416667.1875-.260416.239583-.59375.135417-.901041l-2-6c-.135417-.40625-.520834-.682292-.947917-.682292h-3.713542"/></g></svg>