<svg height="18" viewBox="0 0 18 18" width="18" xmlns="http://www.w3.org/2000/svg"><path d="m17.917969 3.203125c-.050781-.042969-.113281-.0625-.175781-.058594-.175782 0-.398438.117188-.519532.179688l-.046875.023437c-.203125.097656-.425781.15625-.648437.164063-.230469.007812-.460938.023437-.691406.046875-1.53125.160156-2.21875 1.335937-2.875 2.472656-.359376.617188-.730469 1.261719-1.238282 1.75-.105468.105469-.21875.199219-.335937.285156-.523438.390625-1.183594.671875-1.699219.867188-.496094.191406-1.035156.359375-1.554688.523437-.480468.152344-.929687.292969-1.34375.449219-.164062.058594-.324218.113281-.488281.167969-.378906.121093-.652343.214843-1.050781.492187-.140625.097656-.28125.199219-.414062.304688-.316407.253906-.597657.546875-.832032.875-.203125.304687-.4375.585937-.699218.839844-.082032.082031-.234376.121093-.457032.121093-.261718 0-.578125-.050781-.914062-.109375-.34375-.0625-.703125-.121094-1.011719-.121094-.246094 0-.4375.042969-.582031.125 0 0-.238282.140626-.339844.320313l.0976562.042969c.1562498.085937.2968748.1875.4257818.308594.132812.125.28125.230468.441406.3125.050781.019531.097656.050781.136718.089843-.039062.058594-.101562.140625-.167968.222657-.351563.464843-.558594.757812-.441406.917968.058593.027344.121093.042969.183593.039063.773438 0 1.1875-.199219 1.710938-.453125.152343-.074219.308593-.148438.492187-.226563.308594-.132812.636719-.347656.988282-.570312.457031-.300781.9375-.605469 1.402343-.753907.382813-.117187.78125-.171874 1.179688-.167968.492187 0 1.007812.066406 1.507812.132812.371094.046875.753907.09375 1.132813.117188.136718.007812.273437.015625.414062.015625.175782 0 .351563-.011719.527344-.027344l.042969-.015625c.265625-.164062.386719-.511719.507812-.851562.078125-.214844.144531-.410157.246094-.535157.003906-.007812.011719-.011719.019531-.015625.011719-.007812.023438-.003906.03125.003906v.011719c-.0625 1.316407-.59375 2.15625-1.132812 2.902344l-.359375.382813s.503906 0 .789062-.109376c1.042969-.3125 1.832031-1 2.40625-2.09375.140625-.28125.265625-.570312.378907-.867187.007812-.023437.097656-.070313.089843.058594-.003906.035156-.003906.078125-.007812.121093 0 .027344 0 .054688-.007813.078126-.011718.1875-.054687.574218-.054687.574218l.320312-.171875c.777344-.492187 1.375-1.480469 1.832031-3.023437.1875-.640625.324219-1.277344.449219-1.839844.144531-.675781.269531-1.253906.414063-1.476562.226562-.355469.574218-.59375.90625-.824219.046875-.03125.09375-.0625.136718-.09375.421876-.296875.839844-.636719.929688-1.269531v-.015626c.066406-.472656.011719-.59375-.050781-.648437zm0 0" fill="#003545"/></svg>