<svg height="18" viewBox="0 0 18 18" width="18" xmlns="http://www.w3.org/2000/svg" xmlns:xlink="http://www.w3.org/1999/xlink"><linearGradient id="a" gradientUnits="userSpaceOnUse" x1="14.171766" x2="12.174749" y1="11.966344" y2="12.805031"><stop offset=".09" stop-color="#1a5964"/><stop offset=".3" stop-color="#137078"/><stop offset=".5" stop-color="#0e8085"/><stop offset=".66" stop-color="#0c858a"/><stop offset="1" stop-color="#0a8b8f"/></linearGradient><linearGradient id="b" gradientUnits="userSpaceOnUse" x1="14.003578" x2="18.304594" y1="7.892297" y2="10.620422"><stop offset="0" stop-color="#079ea0"/><stop offset=".43" stop-color="#14878e"/><stop offset="1" stop-color="#256a77"/></linearGradient><linearGradient id="c" gradientUnits="userSpaceOnUse" x1="15.75" x2="15.75" y1="2.367422" y2="16.944891"><stop offset="0" stop-color="#b4b4b4"/><stop offset=".8" stop-color="#03abab"/><stop offset="1" stop-color="#137980"/></linearGradient><linearGradient id="d" gradientUnits="userSpaceOnUse" x1="8.345953" x2="19.052578" y1="8.074266" y2="5.98711"><stop offset="0" stop-color="#0f5d64"/><stop offset=".1" stop-color="#097a7e"/><stop offset=".23" stop-color="#049395"/><stop offset=".34" stop-color="#01a3a3"/><stop offset=".43" stop-color="#00a8a8"/><stop offset="1" stop-color="#4ebcc1"/></linearGradient><linearGradient id="e" gradientUnits="userSpaceOnUse" x1="-1.406672" x2="3.764812" y1="10.12964" y2="7.136438"><stop offset="0" stop-color="#00a9a9"/><stop offset=".65" stop-color="#049496"/><stop offset="1" stop-color="#088286"/></linearGradient><linearGradient id="f" gradientUnits="userSpaceOnUse" x1=".289688" x2="4.501969" y1="12.887297" y2="12.654141"><stop offset="0" stop-color="#20626e"/><stop offset="1" stop-color="#069d9f"/></linearGradient><linearGradient id="g" gradientUnits="userSpaceOnUse" x1="5.770687" x2="5.10975" y1=".740531" y2="14.284407"><stop offset="0" stop-color="#99cbd2"/><stop offset=".9" stop-color="#498f93"/><stop offset="1" stop-color="#2e7b7d"/></linearGradient><path d="m13.78125 17.015625h.421875v-10.125l-.84375 1.265625v7.875zm0 0" fill="url(#a)"/><path d="m13.78125 17.015625v-9.84375l3.234375-6.1875h.703125v7.59375l-3.09375 8.4375zm0 0" fill="url(#b)"/><path d="m17.71875 17.015625h-3.9375c.40625-.800781 1.984375-4.105469 2.671875-6.75 1.195313-4.65625 1.265625-8.15625 1.265625-8.15625zm0 0" fill="url(#c)"/><path d="m17.71875.984375h-5.203125l-3.65625 8.71875 1.546875 4.21875h.140625c.054687 0 .140625-.042969.28125-.28125.578125-1.070313 6.890625-12.65625 6.890625-12.65625" fill="url(#d)"/><path d="m.28125 17.113281.421875-.097656 3.796875-6.890625v-2.25l-3.796875-6.609375-.421875-.226563zm0 0" fill="url(#e)"/><path d="m4.5 8.3125c-.324219.96875-1.109375 3.316406-1.914062 4.820312-1.433594 2.757813-2.304688 3.980469-2.304688 3.980469s3.332031.28125 4.21875-.800781zm0 0" fill="url(#f)"/><path d="m7.3125 13.640625c.140625.253906.226562.28125.28125.28125h2.953125c.027344-.027344.054687-.054687.054687-.097656-.011718-.058594-.027343-.128907-.054687-.183594l-5.203125-13.078125-5.0625.476562s6.425781 11.503907 7.03125 12.601563" fill="url(#g)"/></svg>