<svg height="18" viewBox="0 0 18 18" width="18" xmlns="http://www.w3.org/2000/svg" xmlns:xlink="http://www.w3.org/1999/xlink"><linearGradient id="a" gradientTransform="matrix(.00154969 0 0 -.00154969 7.988625 17.651391)" gradientUnits="userSpaceOnUse" x1="-2901.951904" x2="-2061.249023" y1="923.572998" y2="1420.331055"><stop offset="0" stop-color="#909ca9"/><stop offset="1" stop-color="#ededee"/></linearGradient><linearGradient id="b" gradientTransform="matrix(.00154969 0 0 -.00154969 7.988625 17.651391)" gradientUnits="userSpaceOnUse" x1="-2882.699951" x2="-2206.249023" y1="10288.80957" y2="10288.80957"><stop offset="0" stop-color="#939fab"/><stop offset="1" stop-color="#dcdee1"/></linearGradient><radialGradient id="c" cx="-14217.448242" cy="7277.705078" gradientTransform="matrix(-.00148922 -.000225 -.00045141 .00297844 -9.064968 -18.341718)" gradientUnits="userSpaceOnUse" r="898.119995"><stop offset="0" stop-color="#ee352c"/><stop offset="1" stop-color="#a91d22"/></radialGradient><path d="m11.160156 8.402344-3.605468 1.175781-3.136719 1.386719-.875.230468c-.230469.222657-.46875.4375-.710938.644532-.277343.242187-.539062.460937-.738281.617187-.21875.175781-.546875.5-.710938.707031-.25.3125-.445312.640626-.53125.894532-.148437.457031-.074218.921875.214844 1.347656.371094.546875 1.109375 1.101562 1.96875 1.480469.4375.195312 1.175782.441406 1.734375.582031.921875.234375 2.710938.488281 3.695313.523438.195312.011718.464844.011718.476562 0 .019532-.011719.171875-.304688.351563-.664063.601562-1.234375 1.039062-2.394531 1.277343-3.382813.140626-.601562.253907-1.398437.324219-2.34375.019531-.265624.027344-1.148437.011719-1.449218-.023438-.492188-.066406-.886719-.136719-1.277344-.007812-.058594-.011719-.109375-.007812-.113281.011719-.007813.042969-.019531.488281-.144531zm-.824218.484375c.035156 0 .121093.835937.144531 1.363281.003906.113281 0 .1875-.003907.1875-.023437 0-.460937-.261719-.773437-.457031-.273437-.171875-.789063-.515625-.871094-.582031-.027343-.015626-.027343-.019532.199219-.097657.378906-.125 1.277344-.414062 1.304688-.414062zm-1.835938.601562c.027344 0 .089844.039063.238281.128907.5625.351562 1.324219.777343 1.652344.917968.097656.042969.109375.027344-.121094.1875-.496093.335938-1.113281.667969-1.871093 1.003906-.132813.058594-.246094.105469-.25.105469-.003907 0 .011718-.066406.035156-.148437.179687-.679688.285156-1.363282.289062-1.914063.003906-.273437.003906-.273437.027344-.28125-.003906 0 0 0 0 0zm-.378906.144531c.019531.019532.007812.628907-.015625.792969-.046875.402344-.132813.800781-.25 1.1875-.03125.101563-.058594.183594-.0625.191407-.011719.011718-.382813-.351563-.507813-.496094-.210937-.242188-.378906-.488282-.5-.730469-.0625-.121094-.160156-.359375-.152344-.367187.042969-.03125 1.480469-.585938 1.488282-.578126m-1.78125.703126h.007812c.007813.007812.027344.050781.042969.101562.085937.234375.28125.582031.453125.808594.183594.242187.425781.503906.628906.675781.0625.054687.125.109375.132813.117187.015625.015626.019531.011719-.421875.179688-.515625.199219-1.078125.394531-1.71875.601562-.15625.050782-.308594.097657-.460938.148438-.027344.007812-.015625-.003906.054688-.117188.316406-.496093.800781-1.476562 1.074218-2.167968.046876-.121094.09375-.238282.101563-.265625.011719-.039063.023437-.054688.058594-.074219.019531-.003906.039062-.007812.046875-.007812m-.542969.226562c.007813.003906-.132813.296875-.269531.5625-.261719.515625-.550782 1.023438-.9375 1.636719-.066406.105469-.128906.207031-.136719.214843-.015625.019532-.019531.015626-.0625-.070312-.09375-.183594-.167969-.417969-.210937-.632812-.039063-.210938-.03125-.582032.015624-.8125.035157-.167969.03125-.164063.113282-.207032.347656-.175781 1.476562-.703125 1.488281-.691406zm4.699219.1875v.117188c0 .605468-.066406 1.441406-.160156 2.046874-.015626.105469-.03125.195313-.035157.195313 0 0-.078125-.019531-.171875-.046875-.433594-.136719-.851562-.316406-1.25-.535156-.265625-.144532-.648437-.382813-.640625-.394532.003907-.003906.117188-.0625.25-.132812.535157-.277344 1.046875-.578125 1.492188-.875.167969-.113281.417969-.292969.472656-.339844zm-6.757813.808594c.011719 0 .007813.019531-.007812.121094-.015625.09375-.023438.191406-.03125.289062-.019531.398438.042969.691406.242187 1.097656.054688.109375.097656.203125.09375.207032-.019531.015624-1.824218.542968-2.390625.699218-.167969.046875-.316406.085938-.324219.089844-.019531.003906-.023437.003906-.015624-.042969.0625-.402343.367187-.925781.792968-1.367187.285156-.292969.511719-.464844.898438-.683594.277344-.160156.703125-.398438.738281-.40625 0-.003906 0-.003906.003906-.003906m4.25.757812c.003907 0 .070313.035156.148438.082032.582031.335937 1.394531.648437 2.085937.8125l.0625.011718-.085937.050782c-.363281.199218-1.554688.695312-2.773438 1.152343-.175781.0625-.351562.128907-.382812.144531-.03125.011719-.0625.019532-.0625.015626 0 0 .050781-.097657.113281-.214844.339844-.636719.683594-1.414063.855469-1.953125.023437-.050781.035156-.097657.039062-.101563zm-.433593.144532c.003906 0-.019532.058593-.046876.125-.234374.574218-.546874 1.199218-.945312 1.902343-.097656.179688-.183594.324219-.1875.324219 0 0-.082031-.046875-.183594-.105469-.574218-.355469-1.089844-.792969-1.421875-1.214843l-.050781-.058594.25-.070313c.886719-.242187 1.640625-.503906 2.390625-.824219.105469-.042968.195313-.078124.195313-.078124zm2.691406.9375s.003906.003906 0 0c.003906.0625-.132813.625-.25 1.03125-.09375.339843-.175782.609374-.324219 1.078124-.066406.207032-.125.378907-.128906.378907 0 0-.015625 0-.035157-.007813-.808593-.148437-1.53125-.351562-2.214843-.625-.191407-.074218-.460938-.199218-.476563-.210937-.007812-.003907.15625-.082031.363282-.171875 1.238281-.542969 2.527343-1.15625 2.96875-1.421875.050781-.03125.089843-.050781.097656-.050781m-6.214844.214843c.007812.003907-.339844.503907-.824219 1.183594-.167969.234375-.363281.511719-.4375.617187-.085937.121094-.167969.242188-.25.363282l-.113281.179687-.121094-.105469c-.144531-.121093-.398437-.375-.507812-.515624-.234375-.292969-.394532-.601563-.457032-.882813-.027343-.128906-.027343-.195313 0-.203125.480469-.113281.964844-.230469 1.449219-.339844.324219-.074218.648438-.152344.972657-.230468.160156-.035157.289062-.066407.289062-.066407m.351562.132813.085938.097656c.390625.4375.792969.761719 1.277344 1.046875.085937.050781.152344.09375.148437.09375-.019531.015625-1.683593.605469-2.457031.875-.261719.089844-.527344.183594-.792969.273437 0 0-.027343-.015624-.054687-.035156l-.046875-.035156.078125-.113281c.257812-.371094.578125-.777344 1.277344-1.621094zm2.171876 1.554687c.003906 0 .125.042969.269531.097657.355469.132812.636719.21875 1.011719.3125.464843.117187 1.132812.230468 1.527343.265624.0625.003907.09375.007813.082031.015626-.019531.011718-.417968.144531-.710937.238281-.46875.148437-1.902344.570312-3.066406.90625-.136719.039062-.273438.078125-.410157.117187-.027343.003906-.117187-.019531-.117187-.03125 0-.003906.0625-.089844.144531-.183594.390625-.46875.78125-.992187 1.105469-1.488281.089844-.132812.164063-.246093.164063-.25m-.476563.015625s-.191406.3125-.53125.847656c-.144531.226563-.304687.480469-.363281.570313-.054688.085937-.132813.222656-.179688.300781l-.082031.136719-.039063-.007813c-.097656-.027343-.789062-.269531-.96875-.34375-.21875-.085937-.429687-.183593-.636718-.292968-.21875-.117188-.488282-.289063-.46875-.296875.007812-.003907.378906-.101563.828125-.226563 1.195312-.324218 1.855469-.511718 2.289062-.648437.078125-.023438.148438-.042969.148438-.039063zm3.390625.792969h.003906c.007813.027344-.433594 1.253906-.59375 1.640625-.035156.089844-.046875.109375-.066406.109375-.046875-.003906-.6875-.09375-1.078125-.152344-.675781-.101562-1.816406-.300781-2.101563-.367187l-.066406-.011719.40625-.09375c.871094-.195313 1.292969-.304687 1.714844-.433594.550781-.167969 1.085938-.375 1.605469-.617187.085937-.039063.15625-.070313.175781-.074219zm0 0" fill="url(#a)"/><path d="m7.445312 0c-.0625-.0078125-1.027343.339844-1.652343.59375-.84375.34375-1.496094.671875-1.898438.953125-.152343.105469-.339843.296875-.367187.367187-.011719.03125-.019532.0625-.019532.09375l.367188.347657.867188.277343 2.070312.371094 2.363281.40625.027344-.207031c-.011719 0-.015625 0-.023437 0l-.3125-.050781-.0625-.113282c-.320313-.566406-.675782-1.269531-.882813-1.742187-.160156-.367187-.3125-.792969-.394531-1.097656-.046875-.183594-.054688-.19531275-.082032-.199219zm-.046874.140625h.003906c.003906 0 .015625.078125.023437.167969.046875.382812.132813.75.265625 1.148437.101563.296875.101563.28125-.015625.246094-.277343-.078125-1.523437-.292969-2.425781-.417969-.144531-.019531-.265625-.035156-.265625-.039062-.011719-.011719.648437-.359375.941406-.492188.375-.171875 1.398438-.601562 1.476563-.613281m-2.628906 1.21875.105468.035156c.578125.195313 2.03125.476563 2.832032.539063.089843.007812.167968.019531.167968.019531.003906 0-.074218.042969-.171875.089844-.386719.191406-.8125.429687-1.105469.609375-.085937.054687-.164062.101562-.175781.101562s-.070312-.011718-.128906-.019531l-.109375-.019531-.273438-.265625c-.328124-.320313-.664062-.644531-1-.960938zm-.109376.085937.386719.480469c.207031.261719.421875.519531.46875.578125.042969.058594.082031.105469.078125.105469-.007812.007813-.554687-.097656-.84375-.164063-.296875-.066406-.417968-.097656-.601562-.15625l-.148438-.050781v-.035156c0-.183594.234375-.457031.625-.734375zm3.265626.652344c.011718 0 .023437.023438.054687.097656.09375.207032.382813.753907.453125.863282.023438.035156.0625.035156-.324219-.027344-.921875-.148438-1.21875-.199219-1.21875-.203125s.027344-.019531.0625-.039063c.285157-.160156.574219-.359374.832031-.578124.0625-.050782.117188-.097657.128907-.105469.003906-.007813.007812-.011719.011719-.007813" fill="url(#b)"/><path d="m3.546875 1.878906s-.0625.09375-.003906.234375c.035156.089844.136719.195313.253906.304688 0 0 1.214844 1.179687 1.359375 1.351562.671875.773438.964844 1.535157.992188 2.585938.015624.675781-.113282 1.269531-.433594 1.960937-.566406 1.238282-1.761719 2.601563-3.605469 4.117188l.269531-.089844c.175782-.132812.410156-.269531.96875-.574219 1.28125-.703125 2.726563-1.351562 4.496094-2.015625 2.550781-.957031 6.746094-2.082031 9.132812-2.445312l.246094-.039063-.039062-.058593c-.21875-.339844-.367188-.550782-.546875-.773438-.523438-.648438-1.15625-1.171875-1.933594-1.609375-1.070313-.597656-2.449219-1.0625-4.199219-1.410156-.328125-.0625-1.054687-.1875-1.644531-.277344-.980469-.152344-1.960937-.3125-2.941406-.480469-.320313-.054687-.796875-.136718-1.113281-.207031-.160157-.035156-.476563-.105469-.71875-.191406-.199219-.078125-.480469-.152344-.542969-.382813zm.699219.679688c.003906-.003906.046875.015625.105468.03125.128907.046875.261719.085937.394532.121094.121094.03125.238281.066406.359375.09375.164062.042968.300781.082031.304687.082031.015625.019531.292969.898437.386719 1.234375.035156.128906.0625.238281.058594.238281-.003907.003906-.03125-.042969-.066407-.105469-.320312-.5625-.824218-1.132812-1.40625-1.589844-.078124-.054687-.136718-.101562-.136718-.105468zm1.34375.371094c.011718 0 .074218.007812.144531.023437.464844.105469 1.296875.261719 1.828125.351563.089844.015624.160156.03125.160156.035156 0 .007812-.035156.023437-.074218.046875-.089844.046875-.453126.261719-.574219.34375-.300781.203125-.574219.417969-.769531.617187-.078126.078125-.148438.144532-.148438.144532s-.015625-.046876-.027344-.105469c-.097656-.378907-.304687-.941407-.488281-1.335938-.03125-.0625-.054687-.117187-.054687-.125 0 .007813 0 .003907.003906.003907zm2.359375.449218c.015625.003906.042969.097656.097656.300782.101563.410156.144531.828124.128906 1.25-.003906.113281-.011719.21875-.015625.234374l-.007812.027344-.140625-.046875c-.292969-.09375-.765625-.230469-1.171875-.347656-.230469-.0625-.421875-.117187-.421875-.125 0-.015625.339843-.351563.484375-.480469.273437-.242187 1.019531-.820312 1.046875-.8125m.1875.027344c.007812-.007812 1.128906.183594 1.636719.28125.378906.074219.929687.191406.960937.203125.015625.003906-.039063.039063-.222656.121094-.71875.324219-1.253907.613281-1.785157.96875-.136718.09375-.253906.167969-.257812.167969s-.003906-.078126-.003906-.171876c0-.519531-.105469-1.042968-.296875-1.484374-.019531-.042969-.035157-.082032-.03125-.085938zm2.894531.570312c.007812.007813-.027344.230469-.058594.359376-.097656.40625-.363281 1.011718-.6875 1.578124-.058594.097657-.109375.179688-.113281.183594-.007813.003906-.078125-.039062-.164063-.085937-.316406-.1875-.675781-.359375-1.066406-.523438-.109375-.046875-.207031-.085937-.207031-.089843-.019531-.015626.855469-.597657 1.320313-.875.367187-.222657.96875-.554688.976562-.546876zm.207031.035157c.027344 0 .519531.136719.78125.210937.640625.191406 1.375.460938 1.855469.679688l.199219.089844-.140625.03125c-1.171875.269531-2.171875.582031-3.140625.972656-.078125.035156-.148438.0625-.15625.0625-.003907 0 .023437-.0625.058593-.140625.289063-.617188.480469-1.265625.523438-1.816407.003906-.050781.011719-.089843.019531-.089843m-4.9375 1.132812c.011719-.007812.386719.082031.59375.140625.308594.085938.96875.304688.96875.324219 0 0-.074219.0625-.160156.140625-.355469.296875-.699219.609375-1.113281 1.007812-.121094.117188-.226563.210938-.230469.210938s-.007813-.015625-.003906-.035156c.0625-.460938.046875-1.046875-.039063-1.644532-.007812-.078124-.015625-.140624-.015625-.144531zm7.960938.007813c.003906.003906-.175781.289062-.289063.449218-.164062.234376-.402344.546876-.945312 1.226563-.238282.300781-.476563.601563-.714844.902344-.109375.136719-.199219.25-.203125.25 0 0-.035156-.046875-.074219-.109375-.304687-.457032-.671875-.859375-1.105468-1.21875-.0625-.054688-.132813-.109375-.199219-.160156-.03125-.023438-.054688-.046876-.054688-.046876 0-.007812.460938-.207031.8125-.351562.617188-.25 1.457031-.550781 2.085938-.742188.328125-.105468.679687-.203124.6875-.199218m.210937.054687c.007813-.003906.074219.03125.152344.078125.664062.375 1.3125.863282 1.824219 1.367188.144531.140625.5.511718.496093.511718 0 0-.125.011719-.273437.023438-1.148437.085938-2.613281.328125-4.027344.671875-.09375.019531-.179687.039063-.183593.039063-.007813 0 .101562-.105469.234374-.234376.828126-.796874 1.207032-1.300781 1.652344-2.199218.0625-.136719.117188-.25.125-.257813-.003906 0-.003906 0 0 0zm-6.070312.621094c.039062.007813.394531.175781.660156.308594.246094.121093.613281.316406.632812.335937.003907 0-.128906.070313-.289062.148438-.480469.238281-.949219.496094-1.410156.777344-.128906.078124-.238282.144531-.242188.144531-.011718 0-.007812-.011719.066406-.144531.246094-.449219.441407-.980469.554688-1.503907.007812-.039062.019531-.066406.027344-.066406m-.355469.066406c.011719.007813-.082031.34375-.140625.523438-.109375.347656-.300781.78125-.480469 1.109375-.042969.074218-.109375.1875-.144531.25l-.070312.109375-.152344-.148438c-.175782-.171875-.320313-.277343-.503906-.375-.074219-.035156-.132813-.070312-.132813-.074219 0-.023437.464844-.445312.824219-.75.253906-.21875.792968-.652343.800781-.644531m2.167969.890625.132812.085938c.304688.199218.664063.464844.941406.695312.15625.128906.453126.398438.515626.464844l.03125.035156-.21875.0625c-1.25.34375-2.214844.652344-3.339844 1.066406-.125.046876-.230469.085938-.238282.085938-.015624 0-.03125.011719.25-.246094.71875-.660156 1.355469-1.390625 1.832032-2.101562zm-.570313.140625c.007813.007813-.367187.53125-.589843.828125-.265626.355469-.742188.949219-1.070313 1.335938-.132813.160156-.25.292968-.257813.296875-.007812.003906-.011718-.039063-.011718-.101563 0-.328125-.082032-.679687-.230469-.980468-.0625-.125-.074219-.15625-.058594-.167969.050781-.046875.84375-.5 1.34375-.769531.339844-.179688.867188-.445313.875-.441407m-3.441406.84375c.007813 0 .070313.035157.140625.070313.164062.09375.320312.199218.46875.316406.003906.007812-.066406.0625-.160156.132812-.257813.183594-.648438.480469-.878906.664063-.238282.191406-.246094.195313-.21875.15625.179687-.277344.269531-.429687.363281-.628906.089843-.1875.164062-.375.230469-.570313.019531-.078125.046874-.140625.054687-.140625m.917969.71875c.011718 0 .027344.023438.101562.132813.15625.230468.277344.542968.304688.792968l.007812.054688-.375.144531c-.667968.257813-1.28125.515625-1.699218.707031-.152344.070313-.304688.140626-.457032.214844-.132812.070313-.242187.121094-.242187.117188 0 0 .085937-.0625.1875-.140625.816406-.589844 1.523437-1.238281 2.050781-1.886719.058594-.070312.109375-.132812.113281-.132812zm-.421875.105469c.007812.011719-.300781.363281-.515625.578125-.523438.535156-1.042969.957031-1.691406 1.363281-.082032.054688-.15625.097656-.164063.105469-.015625.011719.007813-.015625.289063-.324219.167968-.179687.324218-.367187.472656-.558594.105468-.132812.121094-.152343.273437-.257812.398438-.289062 1.324219-.917969 1.335938-.90625zm0 0" fill="url(#c)"/></svg>