<svg height="18" viewBox="0 0 18 18" width="18" xmlns="http://www.w3.org/2000/svg"><g fill="none" stroke="#fff" stroke-linecap="round" stroke-linejoin="round" stroke-width="2" transform="scale(.75)"><path d="m8 2h8m-7 0v1.34375m6-1.34375v2.786458c0 .791667.234375 1.5625.671875 2.223959l.65625.979166c.4375.661459.671875 1.432292.671875 2.223959v1.130208m-9.197917-3.541667-.130208.1875c-.4375.661459-.671875 1.432292-.671875 2.223959v9.786458c0 1.104167.895833 2 2 2h6c1.104167 0 2-.895833 2-2v-3"/><path d="m7 15c1.598958-.671875 3.401042-.671875 5 0 1.083333.453125 2.270833.604167 3.4375.4375m-13.4375-13.4375 20 20"/></g></svg>