<svg height="18" viewBox="0 0 18 18" width="18" xmlns="http://www.w3.org/2000/svg"><g fill-rule="evenodd"><path d="m12.378906 6.019531c.226563.652344.390625 1.320313.441406 2.011719.066407.855469.039063 1.707031-.144531 2.550781-.003906.023438-.015625.046875-.023437.066407-.054688 0-.113282-.003907-.167969.003906-.46875.074218-.9375.148437-1.402344.222656-.484375.082031-.96875.15625-1.453125.238281-.167968.03125-.382812-.003906-.449218.230469-.003907.007812-.023438.007812-.035157.011719l.023438-1.414063-.023438-3.410156.226563-.039062c.367187-.058594.738281-.121094 1.105468-.179688.441407-.070312.878907-.136719 1.320313-.207031.195313-.027344.390625-.054688.582031-.085938" fill="#439934"/><path d="m8.679688 15.476562c-.238282-.203124-.484376-.398437-.710938-.613281-1.226562-1.15625-2.121094-2.519531-2.5625-4.160156-.121094-.449219-.203125-.910156-.230469-1.375-.019531-.328125-.042969-.65625-.019531-.980469.058594-.867187.183594-1.722656.4375-2.554687l.015625-.019531c.023437.035156.058594.0625.070313.101562.25.726562.496093 1.457031.738281 2.183594.769531 2.292968 1.535156 4.585937 2.304687 6.878906.011719.042969.050782.082031.082032.121094zm0 0" fill="#45a538"/><path d="m12.378906 6.019531c-.191406.03125-.386718.058594-.582031.085938-.441406.070312-.878906.136719-1.320313.207031-.367187.058594-.738281.121094-1.105468.179688l-.226563.039062v-.144531c-.007812-.121094-.019531-.242188-.023437-.363281-.007813-.769532-.015625-1.542969-.023438-2.3125-.007812-.480469-.015625-.964844-.027344-1.445313-.003906-.300781-.011718-.597656-.023437-.898437-.007813-.160157-.035156-.320313-.042969-.480469-.007812-.09375 0-.1875.003906-.28125.113282.222656.226563.449219.34375.667969.1875.351562.484376.609374.75.890624 1.058594 1.109376 1.8125 2.398438 2.277344 3.855469" fill="#46a037"/><path d="m9.144531 11.355469c.011719-.003907.03125-.003907.035157-.011719.066406-.234375.28125-.199219.449218-.230469.484375-.082031.96875-.160156 1.453125-.238281.464844-.074219.933594-.148438 1.402344-.222656.054687-.011719.113281-.003906.167969-.003906-.085938.3125-.15625.632812-.265625.9375-.125.34375-.277344.679687-.441407 1.007812-.242187.492188-.539062.953125-.890624 1.375-.269532.324219-.570313.621094-.875.917969-.164063.164062-.363282.296875-.542969.445312l-.050781-.03125-.167969-.148437-.175781-.386719c-.121094-.449219-.1875-.914063-.199219-1.382813l.003906-.078124.023437-.339844c.007813-.117188.019532-.234375.023438-.351563.019531-.417969.035156-.839843.050781-1.257812" fill="#409433"/><path d="m9.144531 11.355469c-.015625.417969-.03125.839843-.050781 1.257812-.003906.117188-.015625.234375-.023438.351563l-.105468.039062c-.238282-.703125-.480469-1.398437-.710938-2.097656-.386718-1.152344-.769531-2.308594-1.15625-3.464844-.3125-.933594-.625-1.863281-.941406-2.792968-.015625-.042969-.058594-.078126-.085938-.117188l.6875-1.265625c.023438.042969.054688.078125.070313.125.316406.941406.636719 1.882813.949219 2.828125.410156 1.226562.820312 2.457031 1.230468 3.683594.015626.050781.042969.09375.066407.148437l.09375-.109375zm0 0" fill="#4faa41"/><path d="m6.070312 4.53125c.027344.039062.070313.074219.085938.117188.316406.929687.628906 1.863281.941406 2.792968.386719 1.15625.769532 2.3125 1.15625 3.464844.230469.699219.472656 1.394531.710938 2.097656l.105468-.039062-.023437.339844-.019531.078124c-.039063.375-.070313.75-.117188 1.121094-.019531.1875-.070312.371094-.105468.554688-.03125-.039063-.070313-.078125-.082032-.121094-.769531-2.292969-1.535156-4.585938-2.304687-6.875-.242188-.730469-.488281-1.460938-.738281-2.1875-.011719-.039062-.046876-.066406-.070313-.101562zm0 0" fill="#4aa73c"/><path d="m9.167969 9.941406-.09375.109375c-.023438-.054687-.050781-.097656-.070313-.148437-.40625-1.226563-.816406-2.457032-1.226562-3.683594-.316406-.945312-.632813-1.886719-.949219-2.828125-.015625-.046875-.046875-.082031-.070313-.125l.851563-1.121094c.027344.039063.0625.070313.078125.109375.234375.691406.46875 1.386719.703125 2.078125.21875.648438.433594 1.296875.652344 1.941407.015625.042968.066406.074218.101562.113281v.144531c.007813 1.136719.015625 2.273438.023438 3.410156" fill="#57ae47"/><path d="m9.144531 6.386719c-.035156-.039063-.085937-.070313-.101562-.113281-.21875-.644532-.433594-1.292969-.652344-1.941407-.230469-.691406-.464844-1.386719-.703125-2.078125-.015625-.039062-.050781-.074218-.078125-.109375.277344-.269531.542969-.550781.832031-.808593.257813-.230469.460938-.476563.472656-.839844 0-.015625.007813-.03125.019532-.074219l.074218.183594c-.003906.09375-.011718.1875-.003906.28125.007813.160156.035156.320312.042969.480469.011719.296874.019531.597656.027344.898437.007812.480469.015625.964844.023437 1.445313.007813.769531.015625 1.542968.023438 2.3125.003906.121093.015625.242187.023437.363281" fill="#60b24f"/><path d="m8.804688 15.058594c.035156-.183594.082031-.367188.105468-.554688.046875-.371094.078125-.746094.117188-1.121094h.015625c.011719.46875.078125.933594.199219 1.382813-.027344.035156-.0625.0625-.074219.101563-.101563.285156-.199219.578124-.300781.867187-.015626.039063-.054688.066406-.082032.101563l-.105468-.359376zm0 0" fill="#a9aa88"/><path d="m8.785156 15.835938c.027344-.03125.066406-.0625.082032-.101563.101562-.289063.199218-.582031.300781-.867187.011719-.039063.046875-.066407.074219-.101563l.175781.390625c-.035157.046875-.082031.09375-.101563.148438l-.339844.992187c-.015624.039063-.0625.066406-.09375.101563zm0 0" fill="#b6b598"/><path d="m8.882812 16.398438c.03125-.035157.078126-.0625.09375-.101563l.339844-.992187c.019532-.054688.066406-.101563.101563-.152344l.171875.148437c-.085938.082031-.128906.175781-.101563.292969l-.054687.171875c-.023438.027344-.054688.054687-.066406.085937-.121094.339844-.230469.679688-.351563 1.015626-.015625.042968-.054687.078124-.085937.113281-.015626-.191407-.03125-.386719-.046876-.582031" fill="#c2c1a7"/><path d="m8.929688 16.980469c.03125-.035157.070312-.070313.085937-.113281.121094-.335938.230469-.675782.351563-1.015626.011718-.03125.042968-.058593.066406-.085937l-.070313.777344c-.019531.023437-.046875.042969-.054687.070312-.082032.226563-.15625.453125-.238282.679688-.015624.046875-.050781.089843-.074218.132812-.023438-.027343-.0625-.058593-.0625-.085937-.007813-.121094-.003906-.238282-.003906-.359375" fill="#cecdb7"/><path d="m8.996094 17.425781c.023437-.042969.058594-.085937.074218-.132812.082032-.226563.15625-.453125.238282-.679688.007812-.027343.035156-.046875.054687-.070312l.003907.511719-.171876.441406zm0 0" fill="#dbdac7"/><path d="m9.195312 17.496094.171876-.441406.035156.523437zm0 0" fill="#ebe9dc"/><path d="m9.488281 15.59375c-.027343-.117188.015625-.210938.101563-.292969l.046875.03125zm0 0" fill="#cecdb7"/><path d="m9.042969 13.382812h-.015625l.019531-.078124zm0 0" fill="#4faa41"/></g></svg>