<svg height="18" viewBox="0 0 18 18" width="18" xmlns="http://www.w3.org/2000/svg"><g fill="none" stroke="#fff" stroke-linecap="round" stroke-linejoin="round" stroke-width="2" transform="scale(.75)"><path d="m5.5 20h2.5m9-11h.010417"/><path d="m14 4h6c1.104167 0 2 .895833 2 2v12c0 1.104167-.895833 2-2 2h-6c-1.104167 0-2-.895833-2-2v-12c0-1.104167.895833-2 2-2zm0 0"/><path d="m8 6h-4c-1.104167 0-2 .895833-2 2v6c0 1.104167.895833 2 2 2h4"/><path d="m18 15c0 .552083-.447917 1-1 1s-1-.447917-1-1 .447917-1 1-1 1 .447917 1 1zm0 0"/></g></svg>