<svg height="18" viewBox="0 0 18 18" width="18" xmlns="http://www.w3.org/2000/svg"><path d="m8.90625 4.578125c-.730469.125-1.34375.421875-1.804688.882813-.542968.542968-.820312 1.195312-.914062 2.160156-.042969.441406-.066406 2.175781-.027344 2.175781.007813 0 .097656-.03125.195313-.074219.230469-.097656.726562-.097656.984375-.003906l.199218.070312.023438-1.132812c.023438-1.203125.050781-1.386719.273438-1.835938.15625-.300781.53125-.652343.851562-.796874.363281-.167969.898438-.234376 1.3125-.167969.878906.144531 1.40625.621093 1.625 1.476562.089844.339844.09375.519531.09375 2.402344v2.03125h1.414062l-.023437-2.21875c-.011719-2.09375-.023437-2.234375-.121094-2.609375-.265625-1.039062-.914062-1.796875-1.816406-2.136719-.484375-.183593-.945313-.253906-1.578125-.25-.3125.003907-.621094.019531-.6875.027344"/><path d="m3.195312 8.042969c-.402343.203125-.617187.5625-.617187 1.050781 0 .15625.027344.351562.066406.441406.089844.21875.339844.488282.5625.605469.265625.140625.773438.140625 1.035157.003906l.191406-.097656.601562.40625.597656.414063v.621093l-.597656.414063-.605468.410156-.15625-.09375c-.222657-.128906-.660157-.15625-.925782-.054688-.28125.109376-.574218.367188-.679687.609376-.117188.25-.117188.734374 0 .984374.097656.21875.328125.464844.535156.570313.082031.042969.285156.085937.453125.101563.394531.027343.726562-.105469.964844-.386719.191406-.222657.320312-.617188.285156-.890625l-.023438-.191406.605469-.40625.605469-.410157.214844.097657c.328125.140624.816406.109374 1.125-.078126.339844-.210937.507812-.511718.527344-.933593.011718-.292969 0-.359375-.117188-.589844-.304688-.582031-.984375-.800781-1.566406-.511719l-.175782.085938-.59375-.410156-.59375-.40625-.015624-.328126c-.007813-.394531-.121094-.648437-.398438-.875-.351562-.300781-.875-.363281-1.304688-.152343" fill="#018bff"/></svg>