<svg height="18" viewBox="0 0 18 18" width="18" xmlns="http://www.w3.org/2000/svg"><path d="m10.59375.0546875c-.128906 0-.253906.03125-.367188.0703125.238282.15625.367188.367188.4375.605469 0 .027343.011719.054687.011719.082031 0 .03125.015625.058594.015625.085938.011719.40625-.113281.460937-.199218.699218-.136719.308594-.097657.648438.070312.914063.015625.027343.03125.070312.058594.097656-.183594-1.179687.800781-1.347656.980468-1.710937.015626-.324219-.25-.535157-.460937-.6875-.210937-.1250005-.378906-.1562505-.546875-.1562505zm1.472656.2539065c-.015625.113281 0 .085937-.015625.140625 0 .042969 0 .082031-.011719.125-.015624.042969-.015624.070312-.03125.113281-.011718.042969-.027343.070312-.039062.113281-.015625.027344-.03125.054688-.042969.097657-.015625.011718-.027343.042968-.042969.054687-.011718.015625-.011718.027344-.027343.042969-.027344.027344-.042969.070312-.070313.097656l-.085937.085938c-.027344.027343-.054688.054687-.082031.070312-.097657.070312-.210938.125-.308594.195312-.027344.027344-.070313.042969-.097656.070313-.027344.027344-.058594.042969-.085938.070313l-.082031.082031c-.03125.03125-.058594.058593-.070313.101562-.03125.027344-.042968.066407-.070312.097657-.015625.039062-.03125.070312-.058594.109374-.011719.042969-.027344.070313-.039062.113282-.015626.042968-.03125.085937-.03125.113281 0 .011719 0 .042969-.011719.054687 0 .015626 0 .042969-.015625.058594v.195313c0 .042969 0 .070312.015625.113281 0 .039062.011719.070312.027343.109375.015626.042969.027344.070313.042969.113281.011719.027344.027344.042969.027344.070313l-1.066406-.40625c-.175781-.054688-.355469-.101563-.535157-.140625-.097656-.027344-.195312-.042969-.292968-.070313-.277344-.054687-.558594-.097656-.839844-.125h-.03125c-.277344-.03125-.546875-.042969-.828125-.042969-.207031 0-.40625.011719-.601563.027344-.28125.015625-.5625.054688-.839843.097656l-.210938.042969c-.140625.027344-.28125.054688-.421875.097657-.070312.015624-.140625.042968-.210937.058593-.070313.027344-.140625.054688-.195313.082031-.058594.027344-.097656.042969-.15625.070313-.011718 0-.011718 0-.027344.015625-.042968.027344-.082031.039062-.125.070312-.015624 0-.027343.011719-.027343.011719-.058594.027344-.101563.058594-.140625.070313-.03125.015625-.070313.027344-.097656.042968-.015626.011719-.03125.011719-.042969.027344-.042969.027344-.085938.042969-.128907.070313-.039062.027343-.082031.042969-.109374.070312-.03125.027344-.070313.042969-.097657.070313 0 0-.015625 0-.015625.015625-.027344.011719-.054687.039062-.085937.066406l-.011719.015625c-.027344.015625-.042969.042969-.070312.054688-.015626 0-.015626.015624-.027344.015624-.03125.015626-.042969.042969-.070313.054688 0 .015625-.015625.015625-.015625.015625l-.082031.085937-.015625.011719-.085938.085938s0 .011719-.011718.011719l-.070313.070312c-.015625.015625-.027343.015625-.027343.027344l-.085938.085937c0 .015625-.011719.015625-.011719.027344l-.113281.113281-.015625.011719c-.070313.085937-.152344.15625-.238281.226563-.082032.070312-.167969.140624-.265625.210937-.097657.070313-.183594.125-.28125.183594-.097657.054687-.195313.097656-.292969.136719-.097656.042968-.199219.085937-.296875.113281-.195313.042969-.390625.125-.558594.140625 0-.070313-.042969-.054688-.085937-.054688-.042969.011719-.085938.011719-.113282.027344-.042968.011719-.070312.027344-.109374.042969-.042969.011719-.078126.03125-.113282.054687-.027344.027344-.070312.042969-.097656.070313-.027344.027343-.070312.054687-.097656.085937-.03125.027344-.070313.054688-.101563.082032-.027343.027343-.054687.054687-.082031.097656-.027344.042968-.058594.070312-.070312.113281-.027344.027344-.042969.070313-.070313.113281-.015625.039063-.0429688.082032-.0546875.125l-.0429687.125c-.015625.042969-.015625.070313-.0273438.113282v.015624c-.015625.039063-.015625.097657-.015625.125.015625-.015624.015625.015626.015625.042969v.054688c0 .027343.0117188.054687.0117188.085937.015625.027344.015625.054688.0273437.082032.015625.027343.03125.058593.0585935.085937.011719.027344.042969.054687.054688.082031.027343.03125.054687.058594.085937.070313.027344.027343.054688.058593.082032.070312.113281.097657.140624.128907.28125.210938.027343.015625.042968.027343.070312.042969h.015625v.027343c0 .042969.011719.070313.027344.113281.011719.042969.027343.082032.042969.113282l.039062.082031c0 .015625.015625.015625.015625.027344.011719.042969.042969.070312.054687.097656.027344.03125.042969.070313.070313.101563l.085937.082031.082032.085937h.015625c.027343.027344.054687.039063.082031.070313.03125.027343.070312.039062.101562.054687.027344.015625.070313.042969.109376.054688.03125.015625.058593.03125.097656.03125 0 0 .015625 0 .015625.011718.015625 0 .042969.015626.054687.015626-.011718.25-.011718.488281.015625.574218.042969.097656.253907-.195312.449219-.519531-.027344.324219-.042969.703125 0 .8125.054688.113281.324219-.25.574219-.644531 3.285156-.757813 6.285156 1.515625 6.609375 4.730468-.058594-.507812-.675782-.789062-.96875-.71875-.140625.339844-.378906.785157-.757813 1.054688.027344-.308594.015625-.617188-.042969-.925781-.097656.417969-.292968.828125-.574218 1.164062-.433594.027344-.882813-.183593-1.109375-.507812-.011719-.011719-.027344-.039063-.039063-.054688-.015625-.027343-.03125-.070312-.042968-.097656-.015626-.027344-.027344-.070313-.027344-.097656v-.167969c0-.027344.011718-.070312.027344-.097656.011718-.03125.011718-.070313.027343-.101563.015625-.027343.027344-.070312.054688-.097656.085937-.222656.085937-.40625-.070313-.503906l-.082031-.042969c-.015625 0-.042969-.011719-.058594-.011719-.011719 0-.027343-.015625-.039062-.015625-.03125-.015625-.070313-.015625-.097657-.027344-.03125-.015624-.070312-.015624-.101562-.015624-.027344 0-.070312-.011719-.097656-.011719h-.070313c-.039062 0-.070312 0-.097656.011719-.027344 0-.070313.015624-.097656.015624-.027344.011719-.070313.011719-.097657.027344-.027343.015625-.058593.027344-.097656.042969l-.085937.042969c-1.078125.699218-.433594 2.355468.296875 2.832031-.28125.054687-.5625.113281-.648438.167969l-.011718.015625c.195312.125.40625.222656.628906.308593.296875.097657.617187.179688.757812.222657.378906.085937.773438.113281 1.164063.085937 2.050781-.140625 3.734375-1.710937 4.042969-3.761718.011718.042968.011718.085937.027343.128906.015625.082031.027344.167968.042969.265625.011719.042969.011719.082031.011719.125v.015625c0 .042968.015625.082031.015625.125 0 .054687.015625.097656.015625.15625v.585937c0 .042969-.015625.070313-.015625.113281v.042969c0 .042969-.015625.085938-.015625.140625-.011719.042969-.011719.082032-.027344.125v.015625c-.011719.042969-.011719.082031-.027344.125v.015625c-.015625.042969-.015625.082032-.027343.125v.015625l-.042969.125v.015625c-.015625.039063-.027344.097656-.042969.136719-.011719.042969-.027344.085937-.054688.140625-.015624.042969-.027343.101562-.054687.140625-.015625.042969-.042969.085937-.058594.140625-.011719.042969-.042969.085938-.054687.128906 0 .011719-.015625.027344-.015625.027344s0 .011719-.011719.011719c-.296875.605469-.746094 1.136719-1.304688 1.558593-.042968.027344-.070312.054688-.113281.085938-.015625.011719-.027343.011719-.027343.027344-.03125.027344-.070313.039062-.097657.070312l.011719.027344c.070312-.015625.125-.015625.195312-.027344.128907-.015625.238282-.042968.367188-.070312.027344 0 .070312-.015625.097656-.03125.027344 0 .042969-.011719.070313-.011719.027343 0 .070312-.015625.097656-.015625.027344-.011719.054687-.011719.085937-.027344.460938-.113281.910157-.265625 1.34375-.449218-.742187 1.011718-1.722656 1.824218-2.875 2.359374.535157-.042968 1.066407-.128906 1.585938-.28125 1.863281-.546874 3.4375-1.808593 4.378906-3.507812-.199218 1.066406-.621094 2.089844-1.25 2.988281.449219-.296875.855469-.644531 1.234375-1.023437 1.039063-1.082032 1.726563-2.46875 1.949219-3.945313.15625.730469.210938 1.488281.140625 2.234375 3.351563-4.671875.28125-9.515625-1.007813-10.789062 0-.015625-.015624-.015625-.015624-.03125 0 .058594 0 .113281-.015626.171875-.011718.109375-.027343.207031-.039062.308593-.03125.097657-.058594.207032-.085938.308594-.027343.097656-.070312.195313-.113281.292969s-.082031.195313-.140625.28125c-.054687.082031-.109375.183594-.167968.265625-.054688.085938-.125.167969-.195313.253906-.070313.082032-.140625.152344-.226563.238282-.039062.042968-.082031.082031-.136718.109374-.042969.03125-.070313.058594-.113282.101563-.085937.070313-.167968.125-.265624.179687-.085938.058594-.183594.113282-.28125.15625l-.296876.125c-.097656.042969-.195312.070313-.292968.097657-.097656.027343-.210938.058593-.308594.070312-.113281.015625-.210938.027344-.308594.042969-.070312 0-.15625.015625-.226562.015625-.109375 0-.207032-.015625-.308594-.015625-.109375-.015625-.207031-.027344-.308594-.042969-.105468-.011719-.207031-.039062-.308594-.082031.101563-.015625.210938-.015625.308594-.042969.113282-.015625.210938-.042969.308594-.070312.101562-.027344.210938-.054688.296875-.097657l.292969-.128906c.097656-.039062.183594-.097656.28125-.152344.085937-.054687.183594-.125.265625-.183593.085937-.070313.167969-.140625.238281-.210938.085938-.070312.15625-.152343.226562-.222656.070313-.085937.140626-.167969.195313-.253906.015625-.011719.015625-.027344.027344-.039063.042969-.070312.097656-.15625.140625-.226562.054687-.089844.101562-.183594.140625-.28125.042969-.097656.085937-.195313.113281-.292969l.082031-.296875c.015625-.109375.042969-.207031.042969-.308594.015625-.109375.015625-.207031.015625-.308594 0-.070312 0-.152343-.015625-.222656-.011719-.113281-.027344-.210937-.042969-.308594-.011719-.113281-.039062-.210937-.070312-.308593-.027344-.097657-.066407-.195313-.097657-.296875-.039062-.097656-.082031-.195313-.125-.277344-.054687-.101562-.097656-.183594-.152343-.28125-.058594-.085938-.128907-.167969-.183594-.253906-.070313-.082032-.140625-.152344-.210937-.238282-.042969-.042968-.085938-.082031-.125-.113281-.210938-.167969-.421876-.308593-.648438-.449219-.027344-.011718-.054688-.027343-.097656-.039062-.179688-.15625-.320313-.199219-.460938-.253906zm0 0" fill="#df234f"/></svg>