<svg height="18" viewBox="0 0 18 18" width="18" xmlns="http://www.w3.org/2000/svg" xmlns:xlink="http://www.w3.org/1999/xlink"><linearGradient id="a" gradientUnits="userSpaceOnUse" x1="11.844681374" x2="5.446447286" y1="3.14614093" y2="16.117438504"><stop offset="0" stop-color="#3f873f"/><stop offset=".33" stop-color="#3f8b3d"/><stop offset=".637" stop-color="#3e9638"/><stop offset=".934" stop-color="#3da92e"/><stop offset="1" stop-color="#3dae2b"/></linearGradient><linearGradient id="b" gradientUnits="userSpaceOnUse" x1="7.9271120518" x2="25.7788462038" y1="9.9514396122" y2="-3.157285176"><stop offset=".138" stop-color="#3f873f"/><stop offset=".402" stop-color="#52a044"/><stop offset=".713" stop-color="#64b749"/><stop offset=".908" stop-color="#6abf4b"/></linearGradient><linearGradient id="c" gradientUnits="userSpaceOnUse" x1=".888705766" x2="17.10000089" y1="8.996402278" y2="8.996402278"><stop offset=".092" stop-color="#6abf4b"/><stop offset=".287" stop-color="#64b749"/><stop offset=".598" stop-color="#52a044"/><stop offset=".862" stop-color="#3f873f"/></linearGradient><path d="m9.414062.117188c-.261718-.1523442-.582031-.1523442-.847656 0l-7.003906 4.066406c-.269531.152344-.417969.4375-.417969.738281v8.15625c0 .300781.167969.585937.417969.734375l7.003906 4.070312c.261719.148438.585938.148438.847656 0l7.007813-4.070312c.265625-.148438.414063-.433594.414063-.734375v-8.15625c0-.300781-.164063-.585937-.414063-.738281zm0 0" fill="url(#a)"/><path d="m16.4375 4.183594-7.039062-4.066406c-.066407-.0351568-.140626-.0664068-.214844-.085938l-7.886719 13.582031c.0625.078125.140625.148438.230469.199219l7.039062 4.070312c.199219.117188.433594.148438.648438.082032l7.40625-13.628906c-.046875-.0625-.109375-.117188-.183594-.152344" fill="url(#b)"/><path d="m16.4375 13.8125c.199219-.117188.351562-.316406.417969-.535156l-7.707031-13.261719c-.199219-.0351562-.414063-.015625-.597657.101563l-6.988281 4.050781 7.539062 13.832031c.097657-.019531.214844-.050781.316407-.101562zm0 0" fill="url(#c)"/></svg>