<svg height="18" viewBox="0 0 18 18" width="18" xmlns="http://www.w3.org/2000/svg"><path d="m9 17.691406c-.167969 0-.324219-.042968-.4375-.097656l-6.789062-3.910156c-.242188-.140625-.4375-.492188-.4375-.761719v-7.84375c0-.269531.210937-.621094.4375-.761719l6.789062-3.910156c.113281-.070312.269531-.097656.4375-.097656s.324219.042968.4375.097656l6.777344 3.925781c.238281.140625.433594.492188.433594.757813v7.832031c0 .269531-.210938.621094-.433594.761719l-6.777344 3.921875c-.113281.058593-.269531.085937-.4375.085937" fill="#3d3b47"/><path d="m9 .519531c.125 0 .253906.027344.335938.070313l6.78125 3.910156c.167968.097656.335937.378906.335937.578125v7.832031c0 .195313-.167969.476563-.335937.574219l-6.78125 3.925781c-.082032.042969-.210938.070313-.335938.070313s-.253906-.027344-.335938-.070313l-6.78125-3.910156c-.167968-.097656-.335937-.378906-.335937-.578125v-7.84375c0-.199219.167969-.480469.335937-.578125l6.78125-3.910156c.082032-.042969.210938-.070313.335938-.070313m0-.4218748c-.195312 0-.394531.0429688-.546875.1289058l-6.78125 3.90625c-.292969.183594-.546875.605469-.546875.945313v7.832031c0 .351563.238281.773438.546875.941406l6.78125 3.921876c.152344.085937.351563.128906.546875.128906s.394531-.042969.546875-.128906l6.78125-3.921876c.292969-.167968.546875-.589843.546875-.941406v-7.832031c0-.351563-.238281-.773437-.546875-.945313l-6.78125-3.90625c-.152344-.085937-.351563-.1289058-.546875-.1289058" fill="#ccc"/><path d="m9 8.394531h.042969c.195312.015625.378906.128907.492187.296875.054688.097656.082032.222656.082032.351563-.027344.324219-.28125.5625-.601563.5625h-.042969c-.199218-.015625-.378906-.128907-.492187-.296875-.058594-.097656-.085938-.222656-.085938-.351563.015625-.308593.28125-.5625.605469-.5625m0-.042969c-.335938 0-.617188.269532-.648438.605469-.011718.128907.015626.253907.085938.367188.113281.183593.296875.308593.519531.324219h.042969c.335938 0 .617188-.269532.648438-.605469.011718-.128907-.03125-.253907-.085938-.367188-.113281-.183593-.296875-.308593-.519531-.324219zm0 0" fill="#eff3f3"/><path d="m9.015625 8.789062c.109375.015626.210937.113282.195313.226563-.015626.109375-.113282.210937-.226563.195313-.109375-.015626-.210937-.113282-.195313-.226563 0-.109375.113282-.210937.226563-.195313m-.015625 1.070313h-.054688c-.28125-.015625-.550781-.183594-.691406-.421875-.082031-.15625-.125-.324219-.113281-.492188.015625-.199218.101563-.382812.226563-.523437v-.011719l-5.554688 4.230469 6.382812-2.8125c-.070312.015625-.125.03125-.195312.03125" fill="#eff3f3"/><path d="m8.789062 8.171875c.085938-.015625.167969-.03125.265626-.03125.28125.015625.550781.183594.691406.421875.082031.15625.125.324219.113281.492188-.015625.210937-.101563.394531-.242187.535156l5.613281-4.132813zm0 0" fill="#0977f7"/></svg>