<svg height="18" viewBox="0 0 18 18" width="18" xmlns="http://www.w3.org/2000/svg"><path d="m1.308594.351562c-.472656.0625-.886719.339844-1.117188.753907-.128906.222656-.1835935.453125-.18749975.71875 0 .25.04296875.4375.15234375.660156.199219.410156.578125.703125 1.050781.804687.121094.027344.414063.027344.539063.003907.539062-.101563.972656-.472657 1.148437-.988281.058594-.171876.070313-.253907.070313-.476563 0-.214844-.003906-.265625-.058594-.433594-.148438-.492187-.546875-.875-1.039062-1.003906-.167969-.042969-.398438-.058594-.558594-.039063zm6.636718 3.238282c-1.957031.167968-3.59375 1.558594-4.0625 3.457031-.0625.238281-.082031.371094-.121093.710937-.015625.121094-.023438 5.382813-.007813 5.617188.019532.371094.074219.683594.171875 1.023438.433594 1.511718 1.632813 2.707031 3.144531 3.136718.257813.070313.527344.125.816407.15625.144531.011719.292969.015625 2.914062.015625 2.929688 0 2.824219 0 3.128907-.042969.765624-.105468 1.488281-.402343 2.105468-.863281.246094-.183593.550782-.46875.734375-.6875.179688-.207031.382813-.492187.515625-.726562.269532-.472657.464844-1.050781.542969-1.582031.046875-.320313.042969-.117188.046875-3.0625 0-1.921876 0-2.773438-.007812-2.875-.066407-.988282-.421876-1.882813-1.0625-2.65625-.105469-.128907-.433594-.453126-.5625-.5625-.65625-.542969-1.386719-.878907-2.207032-1.011719-.347656-.058594-.105468-.054688-3.171875-.054688-2.242187-.003906-2.808593 0-2.917969.007813m-.40625 2.09375c.675782.121094 1.230469.59375 1.449219 1.234375.136719.40625.132813.832031-.011719 1.234375-.09375.265625-.28125.546875-.480468.730468-.359375.328126-.789063.496094-1.261719.496094-.511719 0-.960937-.1875-1.320313-.542968-.300781-.304688-.484374-.675782-.535156-1.097657-.015625-.113281-.011718-.351562.003906-.46875.117188-.847656.785157-1.496093 1.640626-1.601562.109374-.011719.402343-.003907.515624.015625m5.988282 4.585937c.660156.085938 1.238281.363281 1.710937.828125.355469.34375.597657.734375.753907 1.203125.097656.300781.136718.523438.140624.859375.007813.34375-.019531.582032-.105468.882813-.1875.660156-.621094 1.257812-1.191406 1.644531-.738282.5-1.636719.640625-2.507813.394531-.328125-.09375-.722656-.292969-1-.511719-.726563-.574218-1.144531-1.429687-1.140625-2.351562 0-1.023438.53125-1.972656 1.40625-2.523438.394531-.246093.839844-.394531 1.328125-.4375.117187-.011718.476563-.003906.605469.011719m0 0" fill="#004880"/></svg>