<svg height="18" viewBox="0 0 18 18" width="18" xmlns="http://www.w3.org/2000/svg"><path d="m7.734375 3.65625-3.003906-1.515625-3.300781 1.644531 3.085937 1.550782zm1.382813.695312 3.152343 1.59375-3.273437 1.640626-3.09375-1.550782zm4.210937-2.1875 3.238281 1.621094-2.898437 1.457032-3.160157-1.59375zm-1.394531-.703124-2.917969-1.460938-2.882813 1.441406 3.003907 1.515625zm-2.28125 12.558593v3.980469l3.53125-1.761719v-3.980469zm3.527344-3.152343-.003907-3.941407-3.523437 1.753907v3.941406zm4.242187-.738282v3.996094l-3.015625 1.5v-3.976562zm0-1.398437v-3.914063l-3.019531 1.5.003906 3.949219zm0 0" fill="#4dabcf"/><path d="m8.40625 8.679688-2.378906-1.199219v5.171875s-2.914063-6.191406-3.179688-6.75c-.035156-.070313-.179687-.148438-.214844-.167969-.523437-.273437-2.054687-1.046875-2.054687-1.046875v9.136719l2.117187 1.132812v-4.777343s2.878907 5.53125 2.90625 5.59375c.03125.058593.320313.640624.628907.847656.410156.273437 2.171875 1.332031 2.171875 1.332031zm0 0" fill="#4c75cf"/></svg>