<svg height="18" viewBox="0 0 18 18" width="18" xmlns="http://www.w3.org/2000/svg"><g fill="none" stroke="#fff" stroke-linecap="round" stroke-linejoin="round" stroke-width="2" transform="scale(.75)"><path d="m12 4v-2m-7 8v4c0 3.203125 2.171875 5.994792 5.276042 6.786458.411458.104167.802083.291667 1.104166.59375l.619792.619792.619792-.619792c.302083-.302083.692708-.489583 1.104166-.59375 1.692709-.432291 3.166667-1.479166 4.125-2.9375m1.151042-7.848958v3.34375"/><path d="m12 12c-1.348958-.572917-1.90625-1.005208-2.5-2-.546875.901042-1.046875 1.354167-2.5 2-1.015625-.645833-1.458333-1.078125-2-2-1.026042.708333-1.6875.916667-3 1 1.083333-1.046875 1.755208-2.03125 2-3 .192708-.776042.838542-1.552083 1.791667-2.208333m11.651041 5.994791c.890625-.458333 1.28125-.890625 1.557292-1.786458 1.03125.916667 1.682292 1.15625 3 1-1.296875-1.036458-1.760417-2.03125-2-3-.5-2-4-4-8-4-.739583 0-1.463542.067708-2.151042.192708m-7.848958-2.192708 20 20"/></g></svg>