<svg height="18" viewBox="0 0 18 18" width="18" xmlns="http://www.w3.org/2000/svg"><path d="m8.355469.0273438c3.976562-.2773438 6.613281 1.6718752 8.121093 4.0429682.757813 1.1875 1.5 2.992188 1.503907 4.851563.003906 2.015625-.652344 3.761719-1.503907 5.042969-.875 1.316406-2.007812 2.402344-3.425781 3.117187-2.371093 1.195313-5.683593 1.226563-7.855469.078125-2.414062-1.28125-4.273437-3.109375-4.964843-6.277344-.277344-1.265624-.308594-2.90625.078125-4.3125.089844-.328124.253906-.675781.382812-1 .625-1.558593 1.691406-2.914062 3.003906-3.851562.527344-.375 1.167969-.75 1.734376-1 .703124-.308594 1.882812-.6210938 2.925781-.6914062m0 0" fill="#fff"/><path d="m9.085938 0c-.246094 0-.488282.0078125-.730469.0273438-1.042969.0703124-2.222657.3828122-2.925781.6914062-.566407.25-1.207032.625-1.734376 1-1.3125.9375-2.378906 2.292969-3.003906 3.851562-.128906.324219-.292968.671876-.382812 1-.386719 1.40625-.355469 3.046876-.078125 4.3125.691406 3.167969 2.550781 4.996094 4.96875 6.277344 2.167969 1.148438 5.480469 1.117188 7.851562-.078125 1.417969-.714843 2.550781-1.800781 3.425781-3.117187.851563-1.28125 1.507813-3.027344 1.503907-5.042969-.003907-1.859375-.746094-3.664063-1.503907-4.851563-1.414062-2.226562-3.820312-4.07421825-7.390624-4.070312m.042968.433594c2.671875-.003906 4.757813 1.257812 6.078125 2.710937.375.410157.746094.816407 1 1.234375.472657.765625.773438 1.671875 1.003907 2.539063.859374 3.25-.433594 6.335937-2.042969 8.007812-1.199219 1.25-2.675781 2.097657-4.617188 2.464844-2.1875.414063-4.285156-.125-5.777343-.964844-1.53125-.859375-2.617188-2.082031-3.425782-3.65625-.78125-1.515625-1.144531-3.933593-.578125-5.929687.507813-1.792969 1.375-3.28125 2.734375-4.347656.941406-.742188 2.027344-1.429688 3.503906-1.8125.53125-.136719 1.019532-.195313 1.578126-.230469.179687-.011719.359374-.015625.542968-.015625zm-.207031.375c-.175781.003906-.351563.011718-.527344.027344-2.292969.195312-3.898437 1.222656-5.121093 2.425781-.859376.839843-1.5 1.875-1.925782 3.078125-.625 1.769531-.585937 3.859375.113282 5.660156.601562 1.535156 1.578124 2.773438 2.964843 3.734375 1.304688.902344 3.175781 1.601563 5.277344 1.425781 2.558594-.21875 4.429687-1.53125 5.660156-3.042968.3125-.386719.625-.824219.808594-1.347657.175781-.375.261719-.632812.34375-.769531.34375-.765625.523437-1.570312.578125-2.464844.171875-2.746094-.886719-4.890625-2.347656-6.351562-.707032-.707032-1.578125-1.347656-2.617188-1.734375-.945312-.347657-1.996094-.652344-3.207031-.640625zm0 0"/><path d="m9.042969.6875-.042969.042969.082031.082031c.027344 0 .058594.003906.085938.003906zm-.625.675781v.726563c-.003907.402344.226562.589844.59375.589844.367187.003906.609375-.179688.609375-.597657l.003906-.714843-.363281-.003907-.003907.730469c0 .179688-.09375.265625-.238281.265625s-.238281-.089844-.238281-.277344l.003906-.71875zm2.242187.183594-.09375.300781.371094.113282-.285156.9375.34375.105468.285156-.9375.371094.113282.09375-.300782zm-3.757812.113281-.328125.105469-.128907 1.410156.359376-.117187.019531-.25.472656-.152344.160156.191406.367188-.117187zm-.039063.457032.25.308593-.277343.085938zm5.851563.179687-.71875 1.078125.300781.199219.273437-.410157.382813.253907-.273437.410156.296874.199219.71875-1.078125-.300781-.199219-.265625.402344-.382812-.253906.265625-.402344zm-7.703125.335937c-.128907.007813-.261719.054688-.382813.140626-.324218.234374-.386718.65625-.167968.953124v.003907c.21875.300781.632812.367187.957031.132812.320312-.238281.386719-.65625.167969-.957031h-.003907c-.128906-.183594-.34375-.285156-.570312-.273438zm-.003907.339844c.105469 0 .210938.054688.28125.152344h.003907c.109375.152344.097656.355469-.0625.472656-.160157.117188-.363281.066406-.472657-.085937l-.003906-.003907c-.109375-.148437-.097656-.355468.0625-.472656.054688-.039062.121094-.0625.191406-.0625m3.9375.324219.054688.054687-.613281.613282-.507813-.507813-.066406.019531.53125.53125-.613281.613282-.613281-.613282.464843-.460937-.125.039063-.378906.378906-.183594-.183594c-.023437.007812-.042969.019531-.0625.027344l.203125.199218-.613281.613282-.402344-.402344c-.019531.011719-.035156.023438-.054687.03125l.414062.414062-.613281.613282-.488281-.492188c-.015625.015625-.03125.027344-.046875.042969l.492187.492187-.613281.613282-.46875-.472656c-.011719.015624-.027344.03125-.039063.046874l.46875.46875-.613281.609376-.34375-.339844c-.011719.015625-.019531.035156-.03125.054687l.332031.328125-.613281.613282-.097656-.097657c-.007813.019531-.015625.042969-.023437.0625l.078124.078125-.15625.15625c-.007812.035156-.019531.074219-.027343.113282l.226562-.226563.613281.613281-.613281.613282-.339843-.339844c-.003907.023437-.003907.050781-.007813.078125l.304687.300781-.339843.34375c0 .027344-.003907.058594-.003907.085938l.386719-.386719.613281.613281-.613281.613281-.371093-.371093c0 .03125 0 .058593.003906.089843l.324218.324219-.261718.261719c.003906.023437.011718.046875.015625.070312l.289062-.289062.613281.613281-.613281.613281-.066406-.066406c.019531.050781.03125.078125.0625.152344l.003906-.003907.613281.613282-.195312.195312c.011719.015625.023438.035156.035156.050782l.203125-.203126.609375.613282-.273437.273437c.015625.015625.027343.03125.042969.042969l.273437-.273438.613281.613282-.246094.246094c.019532.011718.035157.023437.050782.035156l.238281-.238282.613281.613282-.105468.105468c.019531.007813.039062.019532.054687.027344l.09375-.09375.265625.265625c.046875.023438.097656.046875.148438.066407l-.371094-.371094.613281-.613282.609375.613282-.5.5c.019531.007812.042969.015625.0625.023437l.480469-.484375.613281.613282-.09375.097656c.023438.003906.046875.007812.070312.011718l.066407-.066406.082031.085938c.03125 0 .0625.003906.09375.007812l-.132812-.136718.613281-.613282.613281.613282-.125.125c.03125-.003907.0625-.007813.09375-.011719l.074219-.070313.054687.058594c.023438-.003906.050782-.007812.074219-.011719l-.085937-.089843.609374-.613282.464844.464844.0625-.023438-.484375-.480468.613281-.613282.613282.613282-.308594.308594c.054688-.027344.109375-.050782.160156-.078126l.191406-.191406.058594.0625c.019532-.011718.039063-.019531.054688-.03125l-.070313-.070312.613281-.613282.1875.1875.042969-.039062-.191406-.191406.613281-.613282.207032.207032c.011718-.015625.027343-.03125.039062-.046875l-.203125-.203125.613281-.613282.125.125c.011719-.019531.019532-.035156.03125-.054687l-.113281-.113281.316406-.3125.003907-.011719c.027343-.050781.054687-.105469.082031-.160156l-.445313.445312-.613281-.613281.613281-.613281.558594.554687c.007812-.019531.015625-.039062.023438-.058594l-.539063-.539062.613281-.613281.234375.238281c.007813-.027344.011719-.046875.015625-.070312l-.207031-.210938.296875-.296875c.003906-.035156.011719-.066406.011719-.097656l-.351563.351562-.613281-.613281.613281-.613281.386719.386719c0-.027344 0-.054688 0-.082032l-.34375-.34375.308594-.308594-.011719-.074218-.339844.339844-.613281-.613282.613281-.613281.210938.210937c-.011719-.042968-.023438-.082031-.035156-.121093l-.132813-.132813.066406-.066406c-.007812-.019531-.015625-.042969-.023437-.0625l-.085938.085938-.613281-.613282.3125-.3125-.03125-.054687-.324219.324219-.613281-.609376.457031-.457031-.042968-.042969-.457032.457032-.609375-.613282.453125-.457031-.039062-.042969-.457032.457032-.613281-.613282.425781-.429687c-.015624-.007813-.03125-.019531-.050781-.03125l-.417969.417969-.613281-.613282.21875-.21875-.058593-.027343-.203126.203125-.429687-.425782c-.039063-.011718-.078125-.023437-.117187-.035156l.503906.503906-.613282.613282-.609374-.613282.546874-.546874-.070312-.015626-.519531.519532-.613281-.613282.054687-.050781c-.03125-.003906-.058594 0-.085937 0l-.011719.011719-.011719-.011719c-.027344 0-.058594-.003906-.085938-.003906m.097657.097656.613281.613281-.613281.613282-.613281-.613282zm-1.964844.65625.609375.613281-.609375.613282-.613281-.613282zm1.308594 0 .613281.613281-.613281.613282-.613281-.613282zm1.3125 0 .613281.613281-.613281.613282-.613281-.613282zm1.308593 0 .613282.613281-.613282.613282-.613281-.613282zm-4.585937.65625.613281.613281-.613281.613282-.613281-.613282zm1.308594 0 .613281.613281-.199219.199219c.046875-.023437.09375-.042969.144531-.058593l.097657-.097657.0625.0625c.027343-.003906.054687-.007812.078125-.007812l-.097656-.097657.613281-.613281.613281.613281-.097656.097657c.023437 0 .050781.003906.078125.007812l.0625-.0625.097656.097657c.046875.015624.09375.03125.140625.054687l-.195312-.195313.609374-.613281.613282.613281-.609375.609376c.023437.042968.042969.089843.058593.136718l.003907.015625.546875.546875-.273438.277344.019532.0625.296874-.296875.613282.613281-.601563.605469.050781.152344.550782.554687-.277344.273438.023438.066406.296874-.300781.613282.613281-.605469.605469.050781.152343.554688.554688-.277344.277344.019531.0625.300781-.296875.613282.613281-.613282.613281-.019531-.023437c.003907.042968 0 .082031 0 .125l.019531-.019532.613282.613282-.613282.613281-.433593-.429687c-.015625.007812-.03125.023437-.046875.035156l.4375.4375-.613282.613281-.613281-.613281.308594-.308594h-.003906c-.023438 0-.050781-.003906-.074219-.007812l-.273438.273437-.613281-.613281.136719-.136719c-.011719-.015625-.019531-.035156-.027344-.054687l-.152344.148437-.609374-.613281.449218-.449219-.019531-.066406-.472656.476562-.613281-.613281.195312-.199219h-.082031l-.15625.15625-.15625-.15625h-.085938l.199219.199219-.613281.613281-.402344-.402343-.019531.0625.378906.378906-.613281.613281-.089844-.089844c-.011719.019531-.019531.035157-.03125.054688l.082031.078125-.613281.613281-.273437-.273437c-.035157-.003907-.070313-.007813-.101563-.015626l.332031.332032-.613281.613281-.613281-.613281.484375-.484375c-.019531-.011719-.035157-.019531-.050781-.035157l-.476563.476563-.613281-.613281.613281-.613282.121094.121094c-.003907-.027344-.003907-.058594-.003907-.085937l-.074218-.078125.082031-.082032c.003906-.035156.011719-.070312.019531-.101562l-.144531.144531-.613281-.613281.613281-.613281.363281.363281.023438-.0625-.34375-.34375.613281-.613281.023437.023437.019532-.0625v-.003906l.003906-.003906.039062-.125-.085937.085937-.613281-.613281.613281-.613281.339844.339843.019531-.0625-.316406-.316406.605468-.609375.042969-.125-.035156.035157-.613281-.613282.613281-.613281.3125.3125.019531-.0625-.289062-.292969.554687-.554687c.019531-.054688.039063-.101563.066407-.152344l-.011719.011719-.613281-.613282zm3.933593 0 .613282.613281-.613282.613282-.613281-.613282zm-5.898437.65625.613281.613281-.613281.609376-.613281-.609376zm1.3125 0 .609375.613281-.609375.609376-.613281-.609376zm3.929687 0 .613282.613281-.613282.609376-.613281-.609376zm1.3125 0 .613282.613281-.613282.609376-.613281-.609376zm-3.742187.230469c-.335937 0-.628906.222656-.730469.539062l-1.753906 5.558594c-.125.40625.101562.84375.503906.964844.078125.023438.160156.035156.238282.039062.335937-.003906.632812-.21875.738281-.535156l.40625-1.320312h2.210937l.433594 1.328125c.109375.324219.40625.527343.730469.527343.085937 0 .167969-.015624.246093-.039062.40625-.132812.617188-.570312.488282-.972656l-1.847656-5.5625c-.101563-.3125-.40625-.527344-.730469-.527344zm-3.46875.425781.613281.609375-.613281.613282-.613281-.613282zm1.3125 0 .613281.609375-.613281.613282-.613281-.613282zm5.242187 0 .613282.609375-.613282.613282-.613281-.613282zm1.308594 0 .613282.609375-.609376.613282-.617187-.613282zm-8.519531.652344.613281.613281-.613281.613282-.609375-.613282zm1.3125 0 .613281.613281-.613281.613282-.613281-.613282zm6.554687 0 .609376.613281-.609376.613282-.613281-.613282zm1.308594 0 .613282.613281-.613282.613282-.613281-.613282zm-8.519531.65625.613281.613281-.613281.613282-.613281-.613282zm1.3125 0 .613281.613281-.613281.613282-.613281-.613282zm5.242187 0 .613282.613281-.613282.613282-.613281-.613282zm1.308594 0 .613282.613281-.613282.613282-.613281-.613282zm-8.519531.65625.613281.613281-.613281.613282-.609375-.613282zm1.3125 0 .613281.613281-.613281.613282-.613281-.613282zm6.554687 0 .609376.613281-.609376.609375-.613281-.609375zm1.308594 0 .613282.613281-.613282.609375-.613281-.609375zm-8.519531.652344.613281.613281-.613281.613281-.613281-.609375zm7.863281 0 .613282.613281-.613282.613281-.613281-.609375zm4.132813.117187c0 .03125.003906.058594.003906.085938l.117187.117187.042969-.042969zm-16.199219.070313-.363281.367187.042969.039063.320312-.320313c0-.027344 0-.058594 0-.085937zm-.324219.445312-.042969.042969.398438.394531c-.003906-.027343-.003906-.058593-.007812-.089843zm3.871094.023438.613281.613281-.613281.613281-.609375-.613281zm1.3125 0 .613281.613281-.613281.613281-.613281-.613281zm6.554687 0 .609376.613281-.609376.613281-.613281-.613281zm1.308594 0 .613282.613281-.613282.613281-.613281-.613281zm3.722656.128906-.269531.265625-.007812.09375.316406-.316406zm-12.242187.527344.613281.613281-.613281.613281-.613281-.613281zm7.863281 0 .613282.613281-.613282.613281-.613281-.613281zm-8.515625.65625.613281.613281-.613281.613281-.613281-.613281zm.652344.65625.613281.609375-.613281.613281-.613281-.613281zm3.933594 0 .613281.609375-.613281.613281-.613281-.613281zm3.929687 0 .613282.609375-.609376.613281-.617187-.613281zm-4.585937.652343.613281.613282-.613281.613281-.613281-.613281zm1.3125 0 .613281.613282-.613281.613281-.613281-.613281zm-1.96875.65625.613281.613282-.613281.613281-.613281-.613281zm1.3125 0 .613281.613282-.613281.613281-.613281-.613281zm1.308593 0 .613282.613282-.613282.613281-.609374-.613281zm-1.964843.65625.613281.613282-.613281.613281-.613281-.613281zm1.3125 0 .613281.613282-.613281.613281-.613281-.613281zm3.570312.589844c-.027343 0-.054687 0-.082031.003906-.136719.015626-.269531.066407-.378906.15625-.3125.246094-.363282.667969-.132813.960938l.003907.003906c.230468.289063.644531.339844.960937.09375.3125-.25.359375-.671875.128906-.960937v-.003907c-.121093-.152343-.304687-.246093-.5-.253906zm-8.023437.316406-.664063 1.109376.308594.183593.246094-.414062.394531.234375-.246094.417968.304688.183594.667968-1.109375-.308593-.183593-.253907.421874-.394531-.238281.253907-.421875zm7.949218.03125c.105469-.007812.214844.046876.285157.136719l.003906.003907c.117187.144531.113281.351562-.042969.472656-.15625.125-.363281.078125-.476562-.066406l-.003906-.003907c-.113282-.144531-.109376-.351562.046874-.476562.050782-.042969.117188-.066407.1875-.066407zm-1.386718.542969-.351563.132813-.007812.246094-.46875.171874-.167969-.183593-.359375.136719.96875 1.027343.324219-.117187zm-4.539063.363281-.253906.949219-.375-.101562-.082031.300781 1.097656.296875.082031-.304687-.375-.097657.253907-.949219zm1.996094.238282c-.367187.015625-.597656.210937-.578125.628906l.03125.714844.363281-.015625-.03125-.726563c-.007812-.183594.082031-.269531.226563-.277344.140625-.007812.242187.078126.25.265626l.03125.71875.363281-.015626-.03125-.726562c-.019531-.40625-.257813-.582031-.625-.566406m2.179687.078125-.007812.394531-.261719-.296875zm-3.058593 1.769531.175781.179688.042969-.042969-.125-.128907c-.03125 0-.0625-.003906-.09375-.007812m1.308593.003906c-.03125.003906-.058593.003906-.089843.003906l-.121094.125.042969.039063zm0 0" fill="#fff"/></svg>