<svg height="18" viewBox="0 0 18 18" width="18" xmlns="http://www.w3.org/2000/svg"><path d="m3.402344 15.625c-.261719-.019531-.457032-.09375-.640625-.238281-.089844-.074219-.171875-.15625-.242188-.25-.128906-.171875-.214843-.40625-.253906-.664063-.023437-.15625-.023437-.019531-.023437-2.023437l-.023438-2.035157c-.027344-.207031-.078125-.355468-.191406-.546874-.191406-.324219-.46875-.621094-.714844-.761719-.050781-.03125-.0625-.039063-.074219-.058594-.007812-.015625-.011719-.027344-.011719-.050781 0-.023438.003907-.035156.015626-.050782.011718-.019531.015624-.023437.09375-.070312.101562-.0625.1875-.132812.300781-.25.191406-.1875.359375-.417969.460937-.628906.082032-.167969.113282-.296875.136719-.542969.003906-.042969.003906-.519531.007813-1.910156l.023437-2.023438c.039063-.257812.125-.488281.253906-.660156.09375-.128906.242188-.265625.371094-.34375.113281-.066406.238281-.109375.367187-.132813.113282-.019531.136719-.019531.558594-.019531h.40625l.015625.011719c.023438.011719.039063.03125.050781.054688.003907.011718.003907.0625.003907.242187v.226563l-.007813.023437c-.015625.027344-.039062.046875-.070312.050781-.015625.003906-.121094.007813-.316406.007813l-.339844.003906c-.222656.019531-.375.089844-.480469.21875-.101563.125-.144531.25-.160156.453125 0 .042969-.003907.75-.003907 2.015625l-.003906 2.003906c-.019531.273438-.089844.496094-.230468.730469-.101563.175781-.234376.335938-.390626.46875-.074218.070312-.085937.082031-.082031.125.003907.039062.011719.054688.066407.101562.125.105469.238281.230469.332031.367188.167969.246094.261719.484375.292969.738281l.011718.070313c0 .011718.003906.933594.003906 2.050781l.007813 2.074219c.007813.058594.027344.136718.039063.175781.027343.082031.078124.171875.144531.242187.085937.09375.210937.152344.386719.179688.054687.011719.078124.011719.390624.011719.375.003906.355469.003906.382813.035156.03125.03125.027344.023437.027344.273437 0 .179688 0 .230469-.003907.242188-.011718.023438-.027343.042969-.050781.054688l-.015625.011718h-.386718c-.210938 0-.40625 0-.433594-.003906zm10.371094 0c-.027344-.007812-.046876-.027344-.058594-.050781l-.011719-.023438.003906-.234375v-.230468l.011719-.023438c.015625-.023438.035156-.039062.0625-.042969.015625-.003906.128906-.007812.3125-.007812l.34375-.003907c.117188-.007812.230469-.039062.308594-.078124.09375-.046876.152344-.101563.21875-.203126.054687-.082031.089844-.175781.105468-.296874.007813-.046876.007813-.179688.011719-2.078126l.007813-2.074218c.027344-.230469.074218-.394532.164062-.574219.117188-.230469.277344-.4375.460938-.59375.050781-.039063.066406-.0625.074218-.089844.011719-.042969-.003906-.078125-.058593-.125-.164063-.136719-.300781-.300781-.410157-.484375-.132812-.226562-.199218-.421875-.230468-.695312-.003906-.039063-.003906-.503906-.007813-2.074219l-.011719-2.078125c-.015624-.105469-.042968-.195312-.082031-.261719-.046875-.078125-.113281-.15625-.171875-.195312-.09375-.066407-.222656-.105469-.375-.121094-.027344-.003906-.164062-.003906-.34375-.003906-.1875 0-.300781-.003907-.316406-.003907-.027344-.007812-.046875-.023437-.0625-.046874l-.011719-.019532v-.234375l-.003906-.230469.011719-.023437c.011718-.027344.035156-.046875.066406-.054687.023438-.007813.808594-.003907.863281.003906.246094.027344.417969.097656.589844.230468.050781.042969.160156.148438.203125.199219.085938.109375.152344.226563.203125.355469.054687.148438.089844.304688.113281.523438.003906.039062.003906.527343.007813 1.90625l.007812 1.921874c.03125.261719.078125.414063.203125.617188.191406.320312.449219.597656.691406.75.019532.011719.046876.03125.058594.035156.03125.019532.046875.042969.046875.078125.003907.050781-.011719.074219-.070312.109375-.253907.144532-.523438.429688-.726563.769532-.125.203124-.171875.355468-.203125.617187-.007812.0625-.007812.207031-.007812 1.921875l-.007813 1.90625c-.03125.28125-.078125.46875-.171875.65625-.0625.125-.132812.21875-.242187.324219-.078125.074219-.113282.105469-.1875.15625-.125.085937-.277344.140625-.441406.164062-.105469.015625-.179688.019531-.554688.015625-.296875 0-.371094 0-.382812-.003906zm-4.945313-2.195312c-.453125-.019532-.84375-.09375-1.253906-.230469-.792969-.269531-1.488281-.757813-2.035157-1.425781-.484374-.589844-.796874-1.285157-.921874-2.027344-.039063-.25-.054688-.441406-.054688-.707032 0-.222656.007812-.359374.035156-.566406.105469-.851562.460938-1.671875 1.003906-2.324218.1875-.226563.398438-.433594.632813-.621094 1.082031-.867188 2.519531-1.175782 3.875-.828125.949219.242187 1.789063.796875 2.394531 1.574219.511719.65625.828125 1.445312.910156 2.277343.019532.167969.019532.230469.019532.445313s0 .277344-.019532.449218c-.066406.675782-.289062 1.328126-.652343 1.90625-.289063.464844-.664063.867188-1.101563 1.195313-.769531.578125-1.710937.890625-2.671875.886719zm.3125-2.222657c.902344-.054687 1.679687-.652343 1.964844-1.511719.132812-.398437.148437-.828124.046875-1.234374-.132813-.535157-.464844-1.003907-.929688-1.3125-.359375-.242188-.785156-.367188-1.21875-.371094-.953125 0-1.800781.609375-2.105468 1.511718-.078126.226563-.117188.46875-.113282.707032 0 .207031.019532.355468.066406.546875.15625.625.589844 1.15625 1.167969 1.441406.273438.132813.550781.207031.863281.226563.085938.003906.171876.003906.257813-.003907zm0 0" fill="#bfbfc2"/><path d="m8.855469 13.421875-.386719-.03125c-.816406-.097656-1.585938-.417969-2.226562-.933594-.242188-.191406-.464844-.410156-.664063-.652343-.570313-.683594-.910156-1.496094-.992187-2.371094-.019532-.261719-.019532-.527344.003906-.792969.078125-.886719.421875-1.742187.96875-2.429687.402344-.496094.90625-.902344 1.480468-1.183594.71875-.355469 1.523438-.507813 2.320313-.445313 1.242187.101563 2.371094.714844 3.140625 1.699219.308594.398438.550781.847656.707031 1.332031.117188.359375.183594.703125.214844 1.105469.007813.105469.007813.449219 0 .554688-.03125.402343-.097656.746093-.214844 1.105468-.214843.65625-.582031 1.253906-1.070312 1.742188-.492188.492187-1.074219.855468-1.730469 1.074218-.359375.121094-.730469.191407-1.105469.21875-.085937.003907-.378906.011719-.445312.007813zm.355469-2.207031c.082031-.011719.160156-.023438.242187-.039063.761719-.15625 1.390625-.703125 1.648437-1.441406.066407-.183594.105469-.378906.121094-.574219.003906-.070312.003906-.257812 0-.328125-.035156-.429687-.183594-.832031-.441406-1.171875-.148438-.199218-.332031-.371094-.539062-.511718-.082032-.058594-.171876-.109376-.261719-.152344-.234375-.113282-.488281-.1875-.75-.214844-.125-.011719-.25-.011719-.375-.007812-.800781.058593-1.496094.523437-1.847657 1.234374-.15625.308594-.234374.644532-.234374.988282 0 .433594.128906.859375.367187 1.222656.082031.125.175781.238281.28125.34375.378906.382812.867187.609375 1.414063.65625.0625.003906.320312 0 .375-.003906zm0 0" fill="#0f82c2"/></svg>