<svg height="18" viewBox="0 0 18 18" width="18" xmlns="http://www.w3.org/2000/svg"><path d="m11.253906 4.261719c-.554687 0-1.007812.449219-1.007812 1.007812v2.664063h-.214844v.214844h.214844v2.882812c0 .558594.453125 1.007812 1.007812 1.007812.554688 0 1.003906-.449218 1.003906-1.007812v-2.882812h.214844v-.214844h-.214844v-2.664063c0-.558593-.449218-1.007812-1.003906-1.007812zm0 .464843v3.207032h-.613281v-2.59375c0-.335938.273437-.609375.613281-.613282m-1.507812.398438-1.28125.027344 1.050781.6875.023437-.007813v.011719zm-.207032.71875v.011719l-.023437-.015625-1.199219.371094 1.199219.375.023437-.015626v.011719zm0 .738281v.011719l-.023437-.007812-1.050781.691406 1.28125.023437zm3.21875-1.457031.207032.71875v-.011719l.023437.007813 1.050781-.6875zm.230469.714844-.019531.015625-.003906-.011719v.738281l.003906-.011719.019531.015626 1.199219-.375zm0 .746094-.023437.007812v-.011719l-.207032.71875 1.28125-.027343zm-2.039062-.742188c-.121094 0-.21875.097656-.21875.21875 0 .117188.097656.214844.21875.214844.117187 0 .214843-.097656.214843-.214844 0-.058594-.023437-.113281-.0625-.15625-.042968-.039062-.097656-.0625-.152343-.0625m.609375 0c.117187 0 .214844.097656.214844.21875 0 .117188-.097657.214844-.214844.214844-.121094 0-.214844-.097656-.214844-.214844 0-.121094.09375-.21875.214844-.21875m-.609375.578125c-.121094 0-.21875.09375-.21875.214844 0 .121093.097656.214843.21875.214843.117187 0 .214843-.09375.214843-.214843 0-.058594-.023437-.113281-.0625-.152344-.042968-.039063-.097656-.0625-.152343-.0625m.609375 0c.117187 0 .214844.09375.214844.214844 0 .121093-.097657.214843-.214844.214843-.121094 0-.214844-.09375-.214844-.214843 0-.121094.09375-.214844.214844-.214844m-.609375.574219c-.121094 0-.21875.097656-.21875.21875 0 .003906 0 .011718.003906.019531.007813.109375.101563.195313.214844.195313.109375 0 .203125-.085938.210937-.195313.003906-.007813.003906-.015625.003906-.019531 0-.121094-.097656-.21875-.214843-.21875zm.609375 0c.117187 0 .214844.097656.214844.21875v.019531c-.011719.109375-.105469.195313-.214844.195313-.113282 0-.207032-.085938-.214844-.195313 0-.007813 0-.015625-.003906-.019531 0-.121094.097656-.21875.21875-.21875zm-1.992188.9375v3.132812c0 .9375.753906 1.695313 1.6875 1.695313.929688 0 1.683594-.757813 1.683594-1.695313v-3.132812h-.214844v3.132812c0 .816406-.65625 1.476563-1.46875 1.476563s-1.472656-.660157-1.472656-1.476563v-3.132812zm1.6875.214844h.609375v2.15625h-.003906l.003906.007812v.609375l-.007812.101563-.601563-.71875h.605469l-.605469-.71875h.605469l-.605469-.71875h.605469zm.601563 2.875c-.023438.144531-.101563.277343-.214844.371093l-.386719-.371093zm-1.5 2.140624v.574219h1.792969v-.574219zm0 0" fill="#e3b019" fill-rule="evenodd"/><path d="m5.894531 7.933594c-.554687 0-1.003906.453125-1.003906 1.007812v1.074219c0 .558594.449219 1.011719 1.003906 1.011719.554688 0 1.003907-.453125 1.003907-1.011719h-.574219c.003906.238281-.191407.433594-.429688.433594s-.429687-.195313-.429687-.433594v-.246094h.859375v-.578125h-.859375v-.246094c0-.238281.191406-.433593.429687-.433593s.433594.191406.429688.433593h.574219c0-.558593-.449219-1.011718-1.003907-1.011718zm3.3125 3.089844h-.574219v-2.082032c0-.238281-.191406-.429687-.429687-.429687s-.433594.191406-.433594.429687l.003907 2.082032h-.578126v-2.082032c0-.554687.453126-1.007812 1.007813-1.007812s1.003906.453125 1.003906 1.007812zm-6.980469-2.082032v1.074219c0 .558594-.449218 1.007813-1.003906 1.007813-.554687 0-1.003906-.449219-1.003906-1.007813v-1.074219c0-.554687.449219-1.007812 1.003906-1.007812.554688 0 1.003906.453125 1.003906 1.007812m-.574218 0c0-.238281-.191406-.429687-.429688-.429687-.238281 0-.429687.191406-.429687.429687v1.074219c0 .238281.191406.433594.429687.433594.238282 0 .429688-.195313.429688-.433594zm2.925781 0v1.074219c0 .558594-.449219 1.007813-1.003906 1.007813-.148438.003906-.296875-.03125-.429688-.09375v1.003906h-.574219v-3.785156s.234376.019531.382813 0c.253906-.03125.261719-.214844.621094-.214844.554687 0 1.003906.453125 1.003906 1.007812zm-.574219 0c.003906-.238281-.191406-.429687-.429687-.429687s-.429688.191406-.429688.429687v1.074219c0 .238281.191407.433594.429688.433594s.433593-.195313.429687-.433594zm10.335938-1.007812c-.558594 0-1.007813.453125-1.007813 1.007812v2.085938h.578125c-.003906-.402344-.003906-.804688-.003906-1.207032h.863281v1.207032h.574219s0-.621094 0-1.207032v-.878906c0-.554687-.449219-1.007812-1.003906-1.007812zm0 .578125c.238281 0 .429687.191406.429687.429687v.300782h-.863281v-.300782c0-.238281.195312-.429687.433594-.429687zm2.007812 1.9375h.429688c.238281 0 .429687-.195313.429687-.433594h.574219c0 .558594-.449219 1.007813-1.003906 1.007813h-1.003906v-3.089844h.574218zm0 0" fill="#7d000c"/></svg>