<svg height="18" viewBox="0 0 18 18" width="18" xmlns="http://www.w3.org/2000/svg"><path d="m7.789062 9.347656h1.171876l-.621094-.996094-1.136719 1.800782h-.515625l1.382812-2.164063c.0625-.089843.164063-.140625.269532-.140625.109375 0 .207031.050782.265625.136719l1.390625 2.167969h-.519532l-.242187-.402344h-1.1875zm5.375.402344v-1.882812h-.4375v2.066406c0 .058594.023438.113281.0625.152344.042969.042968.101563.066406.160157.066406h2.003906l.257813-.402344zm-7.265624-.335938c.425781 0 .773437-.34375.773437-.773437 0-.425781-.347656-.773437-.773437-.773437h-1.921876v2.285156h.441407v-1.878906h1.453125c.203125 0 .367187.164062.367187.367187 0 .207031-.164062.371094-.367187.371094h-1.238282l1.308594 1.140625h.640625l-.882812-.738282zm-4.625.738282c-.628907 0-1.140626-.511719-1.140626-1.140625 0-.628907.511719-1.144531 1.140626-1.144531h1.328124c.628907 0 1.140626.515624 1.140626 1.144531 0 .628906-.511719 1.140625-1.140626 1.140625zm1.296874-.402344c.199219 0 .386719-.078125.523438-.214844.140625-.140625.21875-.328125.21875-.523437 0-.410157-.332031-.738281-.742188-.738281h-1.265624c-.410157 0-.742188.328124-.742188.738281 0 .40625.332031.738281.742188.738281zm8.34375.402344c-.632812 0-1.144531-.511719-1.144531-1.140625 0-.628907.511719-1.144531 1.144531-1.144531h1.574219l-.257812.40625h-1.289063c-.40625 0-.738281.328124-.738281.738281 0 .410156.332031.738281.738281.738281h1.585938l-.261719.402344zm5.371094-.402344c-.332031 0-.621094-.21875-.710937-.539062h1.875l.261719-.402344h-2.136719c.089843-.316406.378906-.535156.710937-.535156h1.289063l.257812-.40625h-1.578125c-.628906 0-1.140625.515624-1.140625 1.144531 0 .628906.511719 1.140625 1.140625 1.140625h1.355469l.257813-.402344zm0 0" fill="#ea1b22"/></svg>