<svg height="18" viewBox="0 0 18 18" width="18" xmlns="http://www.w3.org/2000/svg"><path d="m14.619792 17.895833-10.677084-2.911458m14.432292-12.364583c.828125-.828125 2.171875-.828125 3.005208 0 .828125.833333.828125 2.177083 0 3.005208l-4.020833 4.015625c-.192708.197917-.192708.515625 0 .708333l.942708.942709c.942709.942708.942709 2.46875 0 3.411458l-.942708.942708c-.192708.197917-.510417.197917-.708333 0l-8.296875-8.296875c-.197917-.197916-.197917-.510416 0-.708333l.942708-.942708c.942708-.942709 2.46875-.942709 3.411458 0l.942709.942708c.192708.197917.510416.197917.708333 0zm-9.375 5.380208c-1.802083 2.708333-3.96875 3.458333-6.583333 3.947917-.177084.03125-.322917.15625-.385417.322916-.0625.166667-.03125.359375.083333.494792l7.322917 8.885417c.302083.322916.786458.40625 1.182292.203125 2.114583-1.447917 5.380208-5.0625 5.380208-6.854167" fill="none" stroke="#fff" stroke-linecap="round" stroke-linejoin="round" stroke-width="2" transform="scale(.75)"/></svg>