<svg height="18" viewBox="0 0 18 18" width="18" xmlns="http://www.w3.org/2000/svg"><g stroke="#fff" stroke-linecap="round" stroke-linejoin="round" stroke-width="2" transform="scale(.75)"><g fill="#fff"><path d="m14 6.5c0 .276042-.223958.5-.5.5s-.5-.223958-.5-.5.223958-.5.5-.5.5.223958.5.5zm0 0"/><path d="m18 10.5c0 .276042-.223958.5-.5.5s-.5-.223958-.5-.5.223958-.5.5-.5.5.223958.5.5zm0 0"/><path d="m9 7.5c0 .276042-.223958.5-.5.5s-.5-.223958-.5-.5.223958-.5.5-.5.5.223958.5.5zm0 0"/><path d="m7 12.5c0 .276042-.223958.5-.5.5s-.5-.223958-.5-.5.223958-.5.5-.5.5.223958.5.5zm0 0"/></g><path d="m12 2c-5.5 0-10 4.5-10 10s4.5 10 10 10c.927083 0 1.645833-.744792 1.645833-1.6875 0-.4375-.177083-.833333-.432291-1.125-.291667-.291667-.442709-.651042-.442709-1.125-.005208-.442708.166667-.875.484375-1.1875.3125-.317708.739584-.489583 1.1875-.479167h1.994792c3.052083 0 5.552083-2.505208 5.552083-5.557291-.026041-4.828125-4.526041-8.838542-9.989583-8.838542" fill="none"/></g></svg>