<svg height="18" viewBox="0 0 18 18" width="18" xmlns="http://www.w3.org/2000/svg"><g fill="none" stroke="#fff" stroke-linecap="round" stroke-linejoin="round" stroke-width="2" transform="scale(.75)"><path d="m11 15h2m-1-3v3m0 4v3m3.28125-3c.432292 0 .8125-.270833.947917-.682292l2.369791-6.984375c1.026042-2.901041.036459-6.130208-2.4375-7.963541-2.473958-1.828125-5.848958-1.828125-8.322916 0-2.473959 1.833333-3.463542 5.0625-2.4375 7.963541l2.369791 6.984375c.135417.411459.515625.682292.947917.682292zm0 0"/><path d="m9 9c0-1.65625 1.34375-3 3-3s3 1.34375 3 3"/></g></svg>