<svg height="18" viewBox="0 0 18 18" width="18" xmlns="http://www.w3.org/2000/svg"><path d="m10 10-6.15625 6.161458c-.234375.234375-.40625.520834-.5.833334l-1.322917 4.359375c-.052083.177083-.005208.369791.125.5.130209.130208.322917.177083.494792.125l4.359375-1.322917c.3125-.098958.598958-.265625.833333-.5l6.166667-6.171875m-1.171875-6.8125 4.359375-4.34375c1.098958-1.104167 2.885417-1.104167 3.984375 0 1.104167 1.098958 1.104167 2.885417 0 3.984375l-4.348958 4.354167m-1.822917-6.166667 4 4m-17-7 20 20" fill="none" stroke="#fff" stroke-linecap="round" stroke-linejoin="round" stroke-width="2" transform="scale(.75)"/></svg>