<svg height="18" viewBox="0 0 18 18" width="18" xmlns="http://www.w3.org/2000/svg"><path d="m5.132812 7.875.351563-1.519531-1.195313 2.363281zm0 0" fill="#22a882"/><path d="m12.488281 1.40625-.253906 1.320312-1.6875 2-3.148437 1.644532zm0 0" fill="#99d5b5"/><path d="m12.136719 0-.984375 2.699219-3.753906 3.65625-2.210938 2.742187-.125.140625-.265625.042969.855469-3.613281zm0 0" fill="#c5e4d3"/><path d="m4.835938 9.183594 2.574218-2.828125 9.4375-4.933594-2.378906 3.273437-6.3125 3.6875-2.96875.714844zm0 0"/><path d="m8.15625 8.382812 6.300781-3.6875.222657-.308593 1.816406-1.066407-1.5625 2.207032-.6875.535156-3.53125 2.53125-2.152344.714844zm0 0" fill="#16a880"/><path d="m10.714844 8.59375 2.277344-.71875.605468-.40625 1.984375-1.816406-1.335937.410156zm0 0"/><path d="m5.1875 9.097656 2.96875-.714844.40625.914063-1.742188 1.136719-1.757812.535156v-1.730469zm0 0" fill="#76c39b"/><path d="m8.789062 9.183594-2.574218 1.292968 1.984375-.125 3.402343-.972656 2.839844-1.953125zm0 0" fill="#c5e4d3"/><path d="m11.882812 9.195312-.28125.183594-3.402343.972656 2.277343-.171874.632813-.125 2.023437-1.097657zm0 0" fill="#99d5b5"/><path d="m12.488281 12.390625.886719.703125v.449219zm0 0"/><path d="m5.863281 11.109375 1.6875-.15625 2.417969 1.746094 1.113281 2.726562-1.378906 2.546875.226563-2.167968-.058594-.109376-1.039063-2.265624-3.417969-2.234376zm0 0" fill="#c5e4d3"/><path d="m9.96875 12.699219 1.519531 3.738281v1.183594l.648438-2.238282v-1.546874l-3.320313-1.980469zm0 0"/><path d="m8.789062 16.679688-.421874 1.082031 1.773437-2.417969-1.085937-2.378906-.25.394531v3.320313zm0 0" fill="#16a880"/><path d="m8.480469 13.203125-.128907 1.957031-.914062.871094.042969.675781.789062.308594.519531-1v-2.628906zm0 0" fill="#76c39b"/><path d="m8.101562 12.964844.28125.183594-.128906.660156-.464844 1-1.304687-.519532-.042969-.523437.082032-.027344.410156-.28125.253906-.605469zm0 0" fill="#178d6d"/><path d="m5.414062 11.195312 2.6875 1.757813h-.875l-1.617187-1.351563-1.488281-.40625zm0 0"/><path d="m7.679688 10.941406 2.65625-.253906 1.546874-.507812h-1.40625l-3.8125.269531-1.417968.125-.421875.730469 1.039062-.195313zm0 0" fill="#178d6d"/><path d="m6.453125 15.636719v.238281l.5625-.238281.070313.113281-.503907.28125-.238281.535156.503906-.480468.113282.03125-.113282 1.347656.621094-.773438-.042969-.675781.113281-.082031-.28125-.675782zm-.210937-2.671875-.800782.378906v.242188l.550782-.253907.082031.113281-.519531.292969-.210938.519531.492188-.460937.113281.011719-.113281 1.335937.675781-.816406-.058594-.617187h.101563zm0 0"/><path d="m4.640625 9.828125-1.097656.464844h1.097656l-1.742187.703125-.957032.535156-.070312.195312 1.558594-.53125h1.449218l.183594-.324218v-1.660156l-1.757812.4375zm0 0" fill="#c5e4d3"/><path d="m1.953125 11.546875.957031-.535156 1.746094-.703125h-1.097656l1.097656-.464844-1.324219-.183594-1.519531.449219-.644531 1.027344zm0 0" fill="#1fa780"/><path d="m1.574219 12.375-.40625-.351562v-.898438l.785156.421875-.179687.492187.195312.335938zm0 0"/><path d="m14.888889 78.611111-1.888889-1.416667-2.805556 1.5" fill="none" stroke="#000" stroke-width=".3" transform="scale(.140625)"/><path d="m8.804688 10.460938 2.953124 1.929687 1.039063 1.433594.367187 1.308593-1.015624-1.28125-4.75-2.839843zm0 0" fill="#76c39b"/><path d="m10.984375 11.011719-.734375-.339844-.953125.101563.109375.082031zm0 0" fill="#99d5b5"/><path d="m12.65625 15.652344-.015625 1.152344-.335937.226562.183593-.929688zm0 0" fill="#178d6d"/></svg>