<svg height="18" viewBox="0 0 18 18" width="18" xmlns="http://www.w3.org/2000/svg"><path d="m10.682292 13.3125c1.010416 1.015625 2.161458 1.885417 3.40625 2.598958l1.270833-1.270833c.557292-.552083 1.380208-.723958 2.109375-.453125.90625.34375 1.848958.578125 2.8125.703125.994792.140625 1.729167.994792 1.71875 2v3c0 .5625-.234375 1.098958-.645833 1.479167-.416667.380208-.973959.572916-1.536459.520833-3.072916-.333333-6.03125-1.385417-8.630208-3.072917-1.203125-.760416-2.317708-1.65625-3.328125-2.666666m-2.671875-3.338542c-1.682292-2.598958-2.734375-5.557292-3.067708-8.630208-.052084-.5625.135416-1.114584.515625-1.53125.380208-.411459.911458-.651042 1.473958-.651042h3c1.005208-.010417 1.859375.723958 2 1.71875.125.963542.359375 1.90625.703125 2.8125.270833.729167.098958 1.552083-.453125 2.109375l-1.270833 1.270833m13.911458-7.911458-20 20" fill="none" stroke="#fff" stroke-linecap="round" stroke-linejoin="round" stroke-width="2" transform="scale(.75)"/></svg>