<svg height="18" viewBox="0 0 18 18" width="18" xmlns="http://www.w3.org/2000/svg"><path d="m3.1875.226562h11.625c1.761719 0 3.1875 1.421876 3.1875 3.1875v11.171876c0 1.765624-1.425781 3.1875-3.1875 3.1875h-11.625c-1.761719 0-3.1875-1.421876-3.1875-3.1875v-11.171876c0-1.765624 1.425781-3.1875 3.1875-3.1875" fill="#001e36"/><path d="m6.449219 4.6875c-.222657 0-.449219 0-.679688.007812-.234375.007813-.453125.007813-.65625.015626-.199219.007812-.386719.007812-.566406.015624-.175781.007813-.292969.007813-.421875.007813-.050781 0-.074219.027344-.074219.082031v7.714844c0 .070312.027344.097656.089844.097656h1.453125c.054688-.007812.089844-.050781.082031-.105468v-2.40625c.144531 0 .25 0 .324219.007812s.195312.007812.375.007812c.613281 0 1.175781-.066406 1.6875-.253906.488281-.179687.90625-.496094 1.207031-.917968.300781-.417969.449219-.949219.449219-1.597657 0-.335937-.058594-.660156-.171875-.972656-.117187-.320313-.304687-.613281-.546875-.855469-.285156-.277344-.628906-.488281-1.003906-.617187-.421875-.15625-.929688-.230469-1.546875-.230469m.167969 1.476562c.265624.003907.527343.050782.769531.152344.21875.082032.398437.230469.527343.425782.117188.203124.179688.433593.171876.667968 0 .328125-.074219.585938-.234376.773438-.164062.1875-.375.328125-.613281.398437-.277343.089844-.570312.132813-.863281.132813h-.398438c-.089843 0-.1875-.007813-.292968-.015625v-2.519531c.054687-.007813.160156-.015626.308594-.007813.144531-.007813.316406-.007813.511718-.007813zm6.289062.382813c-.53125 0-.972656.082031-1.328125.261719-.320313.152344-.597656.390625-.785156.691406-.164063.277344-.253907.585938-.253907.90625-.007812.265625.050782.53125.171876.765625.140624.253906.335937.46875.570312.636719.328125.226562.6875.410156 1.0625.542968.367188.140626.617188.253907.738281.351563.117188.097656.179688.195313.179688.300781 0 .132813-.085938.261719-.203125.3125-.136719.070313-.339844.105469-.625.105469-.296875 0-.597656-.035156-.882813-.113281-.328125-.070313-.640625-.195313-.929687-.367188-.023438-.015625-.046875-.019531-.070313-.007812-.019531.015625-.027343.046875-.027343.070312v1.304688c-.007813.058594.027343.113281.082031.140625.242187.113281.5.195312.765625.242187.335937.066406.675781.097656 1.019531.097656.539063 0 .988281-.085937 1.355469-.242187.339844-.132813.632812-.367187.839844-.667969.199218-.292968.300781-.640625.292968-.996094.007813-.269531-.050781-.535156-.171875-.773437-.140625-.253906-.34375-.464844-.59375-.621094-.359375-.226562-.75-.410156-1.152343-.546875-.183594-.078125-.359376-.160156-.535157-.25-.097656-.050781-.1875-.117187-.253906-.203125-.042969-.058593-.074219-.125-.074219-.191406 0-.070313.023438-.144531.058594-.203125.054688-.074219.136719-.128906.234375-.152344.140625-.035156.300781-.058594.449219-.050781.285156 0 .5625.035156.839844.097656.253906.050781.496093.132813.71875.253907.03125.015624.070312.015624.136718 0 .023438-.015626.039063-.046876.039063-.074219v-1.222657c0-.03125-.007813-.058593-.015625-.089843-.015625-.03125-.046875-.058594-.074219-.066407-.207031-.085937-.425781-.144531-.648437-.175781-.304688-.042969-.617188-.066406-.929688-.066406zm0 0" fill="#31a8ff"/></svg>