<svg height="18" viewBox="0 0 18 18" width="18" xmlns="http://www.w3.org/2000/svg"><g fill="none" stroke="#fff" stroke-linecap="round" stroke-linejoin="round" stroke-width="2" transform="scale(.75)"><path d="m14.53125 12.46875-7.911458 7.911458c-.828125.828125-2.171875.828125-3 0s-.828125-2.171875 0-3l7.911458-7.911458m4.15625-5.15625c-3.057292-1.901042-6.78125-2.395833-10.223958-1.354167-.3125.197917-.489584.546875-.463542.911459.026042.364583.25.6875.578125.838541 2.28125.78125 4.411458 1.927084 6.317708 3.395834"/><path d="m17.697917 3.697917c-.385417-.380209-1.010417-.380209-1.395834 0l-4.604166 4.604166c-.380209.385417-.380209 1.010417 0 1.395834l2.604166 2.604166c.385417.380209 1.010417.380209 1.395834 0l4.604166-4.604166c.380209-.385417.380209-1.010417 0-1.395834zm0 0"/><path d="m19.6875 8.3125c1.901042 3.057292 2.395833 6.78125 1.354167 10.223958-.197917.3125-.546875.489584-.911459.463542-.364583-.026042-.6875-.25-.838541-.578125-.776042-2.28125-1.927084-4.416667-3.395834-6.322917"/></g></svg>