<svg height="18" viewBox="0 0 18 18" width="18" xmlns="http://www.w3.org/2000/svg"><path d="m2 22h20m-18.229167-11.229167-1.770833-1.770833 2-4.5 1.098958.552083c.552084.276042.901042.838542.901042 1.447917s.348958 1.171875.901042 1.447917l1.098958.552083 3-6 1.052083.53125c.588542.291667 1 .864583 1.088542 1.520833l.71875 5.395834c.088542.65625.5 1.229166 1.088542 1.520833l4.401041 2.203125c.421875.21875.78125.546875 1.010417.958333l.598958 1.03125c.489584.880209-.057291 1.979167-1.057291 2.098959l-1.182292.151041c-.46875.057292-.947917-.020833-1.369792-.239583l-13.057291-6.520833c-.192709-.098959-.369792-.229167-.520834-.380209" fill="none" stroke="#fff" stroke-linecap="round" stroke-linejoin="round" stroke-width="2" transform="scale(.75)"/></svg>