<svg height="18" viewBox="0 0 18 18" width="18" xmlns="http://www.w3.org/2000/svg"><g fill="none" stroke="#fff" stroke-linecap="round" stroke-linejoin="round" stroke-width="2" transform="scale(.75)"><path d="m3 2v1c0 1 2 1 2 2s-2 1-2 2 2 1 2 2-2 1-2 2 2 1 2 2m13-7h.010417m-12.010417 12h.010417m14.817708-9.171875c1.5625-1.5625 1.5625-4.09375 0-5.65625s-4.09375-1.5625-5.65625 0l-12 12c-1.5625 1.5625-1.5625 4.09375 0 5.65625s4.09375 1.5625 5.65625 0zm0 0"/><path d="m18 11.661458v10.338542c2.208333 0 4-1.791667 4-4v-12"/></g></svg>