<svg height="18" viewBox="0 0 18 18" width="18" xmlns="http://www.w3.org/2000/svg"><path d="m13.105469 8.410156c.019531.128906.042969.261719.066406.386719h1.257813v-.386719zm.207031.96875c.027344.089844.054688.179688.085938.265625.070312.039063.144531.078125.210937.125h1.597656v-.390625zm-2.589844.179688c-.0625.023437-.121094.046875-.175781.078125.054687-.027344.113281-.054688.175781-.078125m-5.800781 4.863281v.386719h4.660156v-.386719zm2.714844.96875v.386719h3.839843v-.386719zm0 0" fill="#3c6eb4"/><path d="m8.59375 2.285156c-.691406 0-1.367188.082032-1.769531.242188-1.109375.40625-1.960938 1.515625-2.214844 2.859375-.332031 1.570312-.3125 2.804687-.640625 3.960937.148438-.113281.316406-.207031.496094-.273437.257812-.101563.6875-.152344 1.128906-.152344s.894531.050781 1.1875.152344c.640625.234375 1.148438.839843 1.359375 1.585937h1.367187c.28125-.515625.707032-.914062 1.214844-1.101562.550782-.21875 1.851563-.214844 2.476563 0 .066406.027344.132812.054687.199219.089844-.429688-1.25-.375-2.554688-.738282-4.261719-.253906-1.34375-1.105468-2.453125-2.214844-2.859375-.457031-.160156-1.160156-.242188-1.851562-.242188" fill="#ccc"/><path d="m6.367188 7c-.261719 0-.46875.222656-.46875.496094 0 .273437.207031.496094.46875.496094.257812 0 .46875-.222657.46875-.496094 0-.273438-.210938-.496094-.46875-.496094zm4.75 0c-.257813 0-.46875.222656-.46875.496094 0 .273437.210937.496094.46875.496094.125 0 .246093-.050782.335937-.144532.085937-.09375.136719-.21875.136719-.351562 0-.132813-.050782-.257813-.136719-.351563-.089844-.089843-.210937-.144531-.335937-.144531" fill="#e7e8e9"/><path d="m7.160156 7.128906-1.75.46875.050782.1875 1.746093-.46875zm3.304688 0-.050782.1875 1.75.46875.050782-.1875zm-3.132813.285156-1.757812 1.015626.097656.164062 1.757813-1.011719zm2.960938 0-.097657.167969 1.757813 1.011719.097656-.164062zm-2.832031.335938-1.210938 1.210938c.082031.011718.164062.023437.238281.039062l1.109375-1.113281zm2.703124 0-.136718.136719 1.519531 1.523437c.085937-.007812.171875-.011718.261719-.011718zm-2.644531.441406-.554687.964844c.058594.027344.113281.058594.167968.09375l.554688-.960938zm2.585938 0-.167969.097656.742188 1.289063c.015624-.007813.027343-.011719.042968-.019531.042969-.015625.09375-.03125.144532-.046875zm0 0" fill="#a7a9ac"/><path d="m10.300781 7.148438c0 .792968-.675781 1.4375-1.507812 1.4375-.835938 0-1.511719-.644532-1.511719-1.4375 0-.792969.675781-1.4375 1.511719-1.4375.832031 0 1.507812.644531 1.507812 1.4375zm0 0" fill="#fff"/><path d="m9.4375 6.890625c-.050781-.132813-.050781-.394531-.203125-.394531s-.292969-.097656-.441406-.097656c-.148438 0-.289063.097656-.441407.097656-.152343 0-.152343.261718-.203124.394531-.050782.132813.644531.558594.644531.558594s.695312-.425781.644531-.558594" fill="#808080"/><path d="m8.070312 10.445312c.046876.125.085938.257813.113282.390626h1.238281c.0625-.136719.132813-.265626.214844-.390626zm6.214844 0c.082032.125.152344.253907.214844.390626h1.554688v-.390626zm0 0" fill="#3c6eb4"/><path d="m5.59375 8.921875c-.441406 0-.871094.050781-1.128906.152344-.710938.261719-1.253906.96875-1.417969 1.824219-.082031.398437-.132813.757812-.171875 1.097656h5.496094c-.042969-.339844-.089844-.699219-.171875-1.097656-.164063-.855469-.707031-1.5625-1.417969-1.824219-.292969-.101563-.746094-.152344-1.1875-.152344zm0 0" fill="#ccc"/><path d="m4.171875 11.929688c-.066406.003906-.125.027343-.175781.066406h.359375c-.054688-.042969-.117188-.066406-.183594-.066406zm3.039063 0c-.0625.003906-.125.027343-.175782.066406h.359375c-.050781-.042969-.117187-.066406-.183593-.066406zm0 0" fill="#e7e8e9"/><path d="m4.667969 11.980469-.066407.015625h.074219zm2.132812 0-.003906.015625h.074219zm0 0" fill="#a7a9ac"/><path d="m5.722656 11.109375c-.519531 0-.945312.394531-.960937.886719h1.921875c-.015625-.492188-.441406-.882813-.960938-.886719" fill="#fff"/><path d="m5.722656 11.546875c-.09375 0-.183594.0625-.28125.0625s-.097656.167969-.128906.25c-.011719.03125.035156.082031.101562.136719h.617188c.066406-.054688.113281-.105469.101562-.136719-.03125-.082031-.03125-.25-.128906-.25-.09375 0-.183594-.0625-.28125-.0625" fill="#808080"/><path d="m12.898438.207031-7.835938.023438c-.058594 0-.113281.027343-.152344.070312l-4.8671872 6.152344c-.03906255.046875-.0507813.105469-.03906255.164063l1.76562475 7.644531c.015625.054687.054688.105469.109375.128906l7.070313 3.382813c.050781.027343.113281.027343.167969 0l7.050781-3.425782c.054687-.023437.09375-.074218.105469-.132812l1.722656-7.652344c.011718-.058594 0-.117188-.039063-.164062l-4.902343-6.121094c-.039063-.046875-.09375-.070313-.152344-.070313zm-.089844.386719 4.789062 5.972656-1.683594 7.476563-6.882812 3.339843-6.902344-3.300781-1.722656-7.460937 4.75-6.003906zm0 0" fill="#892ca0"/><path d="m14.996094 13.464844c-.085938-.582032-.125-1.210938-.285156-1.953125-.171876-.917969-.753907-1.675781-1.511719-1.953125-.625-.21875-1.925781-.21875-2.476563 0-.761718.277344-1.34375 1.035156-1.515625 1.953125-.15625.742187-.199219 1.371093-.285156 1.953125" fill="#ccc"/><path d="m10.410156 12.613281c-.179687 0-.324218.152344-.324218.335938 0 .1875.144531.339843.324218.339843.175782 0 .320313-.152343.320313-.339843 0-.183594-.144531-.335938-.320313-.335938m3.25 0c-.179687 0-.324218.152344-.324218.335938 0 .1875.144531.339843.324218.339843.175782 0 .320313-.152343.320313-.339843 0-.183594-.144531-.335938-.320313-.335938" fill="#e7e8e9"/><path d="m10.941406 12.671875-1.195312.320313.050781.1875 1.195313-.320313zm2.277344 0-.050781.1875 1.195312.320313.050781-.1875zm-2.164062.195313-1.203126.691406.097657.167968 1.203125-.691406zm2.054687 0-.097656.167968 1.199219.691406.097656-.167968zm0 0" fill="#a7a9ac"/><path d="m13.101562 12.714844c0 .539062-.464843.980468-1.035156.980468-.570312 0-1.03125-.441406-1.03125-.980468 0-.542969.460938-.980469 1.03125-.980469.570313 0 1.035156.4375 1.035156.980469" fill="#fff"/><path d="m12.507812 12.535156c-.035156-.085937-.035156-.265625-.136718-.265625-.105469 0-.199219-.066406-.304688-.066406-.101562 0-.195312.066406-.300781.066406s-.105469.179688-.136719.269531c-.035156.085938.4375.378907.4375.378907s.476563-.292969.441406-.382813" fill="#808080"/><path d="m8.792969 5.566406c-.910157 0-1.65625.707032-1.65625 1.582032 0 .878906.746093 1.582031 1.65625 1.582031.910156 0 1.65625-.703125 1.65625-1.582031 0-.875-.75-1.582032-1.65625-1.582032m0 .292969c.757812 0 1.363281.578125 1.363281 1.289063 0 .710937-.605469 1.292968-1.363281 1.292968-.757813 0-1.363281-.582031-1.363281-1.292968 0-.710938.605468-1.289063 1.363281-1.289063m-3.070313 5.105469c-.597656 0-1.09375.457031-1.109375 1.03125h.289063c.015625-.410156.371094-.742188.820312-.742188.449219 0 .804688.332032.820313.742188h.289062c-.015625-.574219-.511719-1.03125-1.109375-1.03125m6.34375.625c-.644531 0-1.175781.5-1.175781 1.125 0 .621094.53125 1.125 1.175781 1.125.644532 0 1.179688-.503906 1.179688-1.125 0-.625-.53125-1.125-1.179688-1.125zm0 .289062c.496094 0 .890625.375.890625.835938 0 .457031-.394531.832031-.890625.832031-.492187 0-.886718-.375-.886718-.832031 0-.460938.394531-.835938.886718-.835938zm0 0" fill="#60605b"/><path d="m2.246094 11.996094v.390625h6.8125c.019531-.128907.035156-.257813.058594-.390625zm3.453125 1.457031v.386719h10.074219v-.386719h-.777344v.007813h-6.074219l.003906-.007813zm0 0" fill="#3c6eb4"/><path d="m8.59375 2.140625c-.699219 0-1.382812.078125-1.820312.25-1.164063.429687-2.042969 1.578125-2.304688 2.964844-.234375 1.097656-.292969 2.027343-.417969 2.871093-.054687.359376-.117187.703126-.210937 1.035157-.472656.375-.8125.953125-.9375 1.613281-.085938.40625-.132813.777344-.175782 1.121094h.292969c.039063-.332032.089844-.683594.167969-1.066406h.003906v-.003907c.152344-.8125.667969-1.476562 1.320313-1.710937l.003906-.003906c.222656-.089844.648437-.144532 1.078125-.144532s.875.054688 1.136719.144532c.652343.242187 1.171875.902343 1.324219 1.714843v.003907c.082031.382812.128906.734374.167968 1.066406h.292969c-.039063-.34375-.089844-.714844-.175781-1.125-.167969-.898438-.742188-1.652344-1.507813-1.933594h-.003906c-.320313-.113281-.78125-.160156-1.234375-.160156-.449219 0-.886719.046875-1.183594.164062-.070312.027344-.140625.058594-.210937.09375.054687-.253906.101562-.511718.140625-.765625.125-.859375.183594-1.777343.410156-2.855469h.003906v-.003906c.242188-1.296875 1.070313-2.363281 2.121094-2.746094h.003906c.367188-.148437 1.035156-.230468 1.714844-.230468s1.375.082031 1.800781.230468c1.054688.382813 1.878907 1.449219 2.121094 2.746094l.003906.003906c.226563 1.078126.285157 1.996094.414063 2.855469.054687.386719.128906.757813.234375 1.128907-.335938-.101563-.789063-.148438-1.234375-.148438-.484375 0-.949219.050781-1.261719.175781-.816406.296875-1.425781 1.097657-1.605469 2.054688-.160156.753906-.203125 1.390625-.289062 1.960937l.289062.042969c.085938-.589844.128906-1.214844.28125-1.945313h.003906c.164063-.875.71875-1.585937 1.421876-1.84375h.003906c.238281-.09375.695312-.152343 1.15625-.152343.457031 0 .933594.054687 1.214844.152343h.003906c.699218.257813 1.253906.96875 1.417968 1.84375.15625.730469.195313 1.355469.28125 1.945313l.289063-.042969c-.082031-.570312-.125-1.207031-.285156-1.960937-.160157-.851563-.660157-1.578125-1.339844-1.9375-.140625-.421875-.226563-.855469-.296875-1.316407-.121094-.839843-.183594-1.769531-.414062-2.867187-.261719-1.390625-1.140626-2.542969-2.308594-2.96875-.488282-.171875-1.199219-.25-1.902344-.25m-2.1875 1.753906c-.304688-.003906-.589844.136719-.777344.375l-.085937.117188.230469.175781.089843-.113281c.121094-.15625.304688-.253907.503907-.265625.183593-.007813.371093.066406.503906.195312l.101562.105469.207032-.207031-.105469-.101563c-.179688-.179687-.417969-.277343-.667969-.28125zm4.691406 0c-.25.003907-.492187.101563-.671875.28125l-.101562.101563.203125.207031.105468-.105469c.132813-.128906.316407-.199218.5-.195312.195313.011718.390626.109375.507813.265625l.089844.113281.230469-.175781-.089844-.117188c-.183594-.238281-.472656-.378906-.773438-.375m-4.699218 1.28125c-.402344 0-.726563.335938-.726563.746094s.324219.746094.726563.746094c.402343 0 .726562-.332031.726562-.746094s-.324219-.746094-.726562-.746094m4.707031 0c-.402344 0-.726563.335938-.726563.746094s.324219.746094.726563.746094c.398437 0 .726562-.335938.726562-.746094s-.328125-.746094-.726562-.746094zm-2.3125 1.078125c-.105469 0-.195313.03125-.265625.054688-.074219.027344-.132813.042968-.175782.042968-.082031 0-.160156.042969-.203124.09375-.039063.050782-.0625.105469-.078126.15625-.027343.101563-.042968.203126-.058593.238282-.03125.078125 0 .144531.023437.1875.023438.039062.054688.074218.089844.109375.066406.066406.152344.136719.242188.199219.085937.066406.175781.125.242187.167968l-.003906.058594c-.03125.027344-.113281.097656-.242188.140625-.078125.027344-.160156.039063-.226562.019531-.058594-.015625-.117188-.066406-.175781-.144531.003906-.027344.003906-.042969.011718-.09375.011719-.085937.03125-.195313.039063-.226563l-.28125-.070312c-.019531.070312-.03125.167969-.046875.257812-.011719.089844-.019532.167969-.019532.167969l-.007812.054688.027344.042969c.105468.160156.242187.257812.382812.292968.140625.039063.277344.015625.390625-.023437.144531-.050781.265625-.128907.332031-.179688.066407.050781.1875.128907.335938.179688.113281.039062.246094.0625.386719.023437.140625-.035156.277343-.132812.382812-.292968l.027344-.042969-.007813-.054688s-.007812-.078125-.019531-.167969c-.015625-.089843-.027343-.1875-.046875-.257812l-.28125.070312c.007813.03125.027344.140626.039063.226563.007812.050781.007812.0625.011719.09375-.058594.078125-.117188.128906-.175782.144531-.066406.019532-.148437.007813-.226562-.019531-.128906-.042969-.210938-.113281-.242188-.140625l-.003906-.054688c.066406-.042968.160156-.105468.25-.171874.089844-.0625.175781-.132813.242188-.199219.035156-.035157.0625-.070313.089843-.109375.023438-.042969.054688-.109375.023438-.1875-.015625-.035156-.03125-.136719-.0625-.238282-.015625-.050781-.035157-.105468-.078125-.15625-.039063-.050781-.121094-.09375-.199219-.09375-.042969 0-.101563-.015624-.175781-.042968-.070313-.023438-.160156-.054688-.265625-.054688m0 .289063c.042969 0 .097656.015625.171875.042969.066406.023437.152344.046874.25.050781.003906.003906.011718.023437.019531.050781.015625.050781.03125.128906.054687.203125-.007812.007813-.015624.023437-.035156.039063-.046875.050781-.125.113281-.207031.171874-.125.089844-.199219.136719-.253906.171876-.054688-.035157-.132813-.082032-.257813-.171876-.078125-.058593-.15625-.121093-.203125-.171874-.019531-.015626-.027343-.03125-.035156-.039063.023437-.074219.039063-.152344.054687-.203125.003907-.015625.011719-.035156.019532-.050781.097656-.003907.179687-.027344.246094-.050781.074218-.027344.132812-.042969.175781-.042969m-4.632813 3.351562c-.195312.007813-.382812.105469-.5.261719l-.089844.117188.230469.175781.089844-.117188c.066406-.085937.171875-.140625.28125-.144531.105469-.003906.207031.035156.285156.109375l.101563.101563.207031-.207032-.105469-.101562c-.132812-.132813-.3125-.203125-.5-.195313m3.070313 0c-.183594-.007812-.367188.0625-.5.195313l-.101563.101562.203125.207032.105469-.101563c.074219-.074219.175781-.113281.28125-.109375.113281.003906.214844.058594.285156.144531l.085938.117188.234375-.175781-.089844-.117188c-.121094-.15625-.304687-.25-.503906-.261719m6.414062.550781c-.183593.003907-.359375.074219-.492187.207032l-.101563.101562.203125.207032.105469-.105469c.082031-.078125.191406-.121094.308594-.117188.117187.003907.238281.066407.3125.160157l.085937.117187.230469-.179687-.089844-.113282c-.125-.167968-.320312-.265625-.527343-.277344-.011719 0-.023438 0-.035157 0m-3.210937 0c-.011719 0-.023438 0-.035156 0-.207032.011719-.402344.109376-.53125.277344l-.085938.113282.230469.179687.089843-.117187c.074219-.09375.1875-.152344.308594-.160157.117188-.003906.226563.039063.308594.117188l.105469.105469.203125-.207032-.101563-.101562c-.132812-.132813-.308593-.203125-.492187-.207032zm-6.242188.320313c-.257812 0-.464844.214844-.464844.476563 0 .125.046876.246093.136719.335937.085938.089844.203125.140625.328125.140625.121094 0 .242188-.050781.328125-.140625.085938-.089844.136719-.210937.136719-.335937 0-.261719-.207031-.476563-.464844-.476563m3.011719 0c-.125 0-.242187.050781-.332031.140625-.085938.089844-.136719.210938-.136719.335938s.050781.246093.136719.335937c.089844.089844.207031.140625.332031.140625.121094 0 .242187-.050781.328125-.140625s.136719-.210937.136719-.335937c0-.261719-.210938-.476563-.464844-.476563m3.226563.601563c-.273438 0-.496094.226562-.496094.507812s.222656.507812.496094.511719c.273437 0 .496093-.230469.496093-.511719s-.222656-.507812-.496093-.507812m3.21875 0c-.273438 0-.496094.226562-.496094.507812s.222656.511719.496094.511719c.273437-.003907.496093-.230469.496093-.511719s-.222656-.507812-.496093-.507812m-7.925782.035156c-.078125 0-.140625.023437-.1875.039062s-.078125.023438-.09375.023438c-.066406 0-.136718.039062-.171875.078125-.03125.042969-.046875.082031-.058593.117187-.019532.070313-.03125.136719-.035157.148438-.03125.074218 0 .132812.019531.164062.003907.011719.007813.015625.015626.023438h.445312c-.023438-.011719-.042969-.027344-.066406-.042969-.050782-.039063-.097656-.078125-.125-.105469.007812-.035156.019531-.078125.023437-.101562h.003907c.050781-.007813.101562-.019532.136718-.03125.046875-.015625.078125-.023438.09375-.023438s.046875.007813.09375.023438c.035156.011718.085938.023437.136719.03125h.003906c.003907.023437.015625.066406.023438.101562-.027344.027344-.074219.066406-.125.105469-.023438.015625-.042969.03125-.0625.042969h.441406c.007813-.007813.011719-.011719.019531-.023438.019532-.03125.046875-.089844.015625-.164062-.003906-.011719-.015625-.078125-.035156-.148438-.011719-.042968-.035156-.082031-.0625-.117187-.035156-.039063-.101563-.078125-.167969-.078125-.015625 0-.046875-.007813-.09375-.023438s-.109375-.039062-.1875-.039062m6.34375.652344c-.082031 0-.144531.027343-.195312.042968-.050782.015625-.085938.027344-.105469.027344-.066406 0-.136719.035156-.171875.078125s-.050781.085937-.0625.125c-.023438.074219-.035156.140625-.039062.15625-.03125.078125-.003907.132813.019531.167969.019531.035156.042969.058594.066406.085937.050781.046875.109375.09375.171875.140625.050781.035156.097656.070313.140625.097656-.027344.019532-.066406.050782-.132813.074219-.046874.015625-.089843.019531-.128906.007813-.023437-.003906-.054687-.035156-.082031-.066406.003906-.019532.003906-.019532.007813-.042969.007812-.058594.019531-.132813.023437-.148438l-.28125-.070312c-.015625.050781-.023437.117187-.03125.179687-.011719.0625-.015625.117188-.015625.117188l-.007812.050781.03125.042969c.074218.117187.179687.195312.285156.222656.109375.027344.210937.007812.292968-.019531.074219-.027344.148438-.0625.214844-.109375.050782.035156.125.078125.214844.109375.082031.027343.183594.046875.289062.019531.109376-.027344.214844-.105469.289063-.222656l.027344-.042969-.007813-.050781s-.003906-.054688-.015625-.117188c-.007812-.0625-.015625-.128906-.027343-.179687l-.285157.070312c.003907.015625.019531.089844.027344.148438.003906.023437.003906.023437.003906.042969-.027343.03125-.054687.0625-.082031.066406-.035156.011718-.082031.007812-.128906-.007813-.0625-.023437-.097656-.050781-.125-.074219.039062-.027343.089844-.0625.140625-.097656.058593-.046875.121093-.09375.171875-.140625.023437-.027343.046875-.054687.066406-.085937.019531-.035156.046875-.09375.019531-.167969-.007812-.015625-.019531-.082031-.042969-.15625-.007812-.039063-.023437-.082031-.058593-.125-.035157-.042969-.105469-.082031-.171875-.082031-.023438 0-.054688-.007813-.105469-.023438s-.113281-.042968-.199219-.042968m0 .292968c.019532 0 .054688.007813.105469.023438s.101563.027344.152344.03125v.011718c.007812.023438.019531.070313.03125.113282l-.003907.003906c-.042968.042969-.089843.078125-.136718.113281-.070313.050781-.105469.070313-.148438.097657-.039062-.027344-.074218-.046876-.144531-.097657-.050781-.035156-.09375-.070312-.136719-.113281-.003906-.003906-.003906-.003906-.003906-.003906.007812-.042969.019531-.089844.027344-.113282.003906-.007812 0-.007812.003906-.007812.050781-.007812.101562-.019531.152344-.035156.046875-.015625.082031-.023438.101562-.023438zm0 0"/><path d="m6.398438 5.03125c-.234376 0-.457032.09375-.617188.261719-.101562.101562-.175781.226562-.214844.363281-.03125.101562-.042968.207031-.039062.3125.011718.277344.15625.53125.382812.691406.058594.039063.121094.074219.1875.097656.207032.078126.4375.074219.640625-.015624.078125-.035157.148438-.078126.214844-.132813.074219-.066406.140625-.140625.191406-.226563.105469-.179687.148438-.390624.117188-.597656-.019531-.113281-.058594-.222656-.117188-.324218-.066406-.109376-.152343-.203126-.257812-.277344-.058594-.039063-.121094-.074219-.1875-.097656-.097657-.035157-.199219-.054688-.300781-.054688zm4.707031 0c-.105469 0-.207031.019531-.300781.054688-.082032.03125-.15625.070312-.222657.125-.078125.058593-.144531.132812-.199219.214843-.132812.199219-.179687.441407-.132812.675781.035156.167969.117188.324219.238281.449219.058594.058594.125.113281.199219.152344.074219.042969.15625.074219.242188.089844.085937.019531.175781.023437.261718.015625.171875-.019532.335938-.089844.46875-.199219.085938-.074219.15625-.164063.210938-.265625.082031-.15625.117187-.335938.101562-.511719-.015625-.132812-.054687-.257812-.125-.371093-.070312-.121094-.171875-.222657-.292968-.300782-.070313-.042968-.148438-.078125-.234376-.101562-.070312-.019532-.144531-.027344-.214843-.027344zm-4.707031.289062c.027343 0 .058593.003907.085937.007813.066406.007813.132813.03125.191406.0625.046875.027344.09375.0625.132813.105469.054687.054687.097656.117187.125.191406.027344.0625.042968.132812.046875.203125.003906.070313-.007813.144531-.027344.210937-.019531.074219-.058594.144532-.105469.203126-.046875.058593-.105468.109374-.171875.148437-.113281.058594-.242187.082031-.367187.0625-.140625-.023437-.269532-.097656-.359375-.210937-.050781-.058594-.085938-.128907-.109375-.203126-.015625-.058593-.023438-.117187-.023438-.179687s.007813-.121094.027344-.179687c.019531-.074219.054688-.144532.105469-.203126.046875-.058593.105469-.109374.171875-.148437.074218-.039063.160156-.0625.246094-.070313zm4.707031 0c.058593 0 .117187.007813.171875.027344.070312.023438.140625.058594.195312.109375.058594.050781.109375.109375.144532.175781.035156.070313.058593.148438.066406.226563.011718.121094-.011719.242187-.066406.351563-.039063.066406-.085938.125-.144532.175781-.042968.035156-.089844.066406-.140625.089843-.144531.0625-.308593.0625-.453125 0-.070312-.03125-.132812-.074218-.1875-.128906-.050781-.054687-.09375-.121094-.125-.191406-.023437-.0625-.039062-.132812-.042968-.203125-.003907-.050781 0-.101563.011718-.152344.015625-.078125.042969-.152343.085938-.214843.042968-.066407.097656-.121094.15625-.164063.054687-.039063.117187-.066406.179687-.082031.050781-.011719.097657-.019532.148438-.019532m-6.929688 5.300782c-.007812 0-.011719 0-.015625 0-.324218.015625-.578125.292968-.578125.621094 0 .339843.269531.621093.609375.621093.335938 0 .609375-.28125.609375-.621093 0-.339844-.273437-.621094-.609375-.621094zm3.011719 0c-.007812 0-.011719 0-.015625 0-.324219.015625-.582031.292968-.582031.621094 0 .339843.273437.621093.613281.621093.335937 0 .609375-.28125.609375-.621093 0-.339844-.273438-.621094-.609375-.621094zm-2.996094.289062c.175782 0 .320313.144532.320313.332032s-.144531.332031-.320313.332031c-.175781 0-.320312-.144531-.320312-.332031s.144531-.332032.320312-.332032m3.011719 0c.175781 0 .316406.144532.316406.332032s-.140625.332031-.316406.332031-.320313-.144531-.320313-.332031.144532-.332032.320313-.332032m3.226563.3125c-.355469 0-.644532.296875-.644532.652344 0 .359375.289063.65625.644532.65625.355468 0 .640624-.296875.640624-.65625 0-.355469-.285156-.652344-.640624-.652344m3.21875 0c-.355469 0-.640626.296875-.640626.652344 0 .359375.285157.65625.640626.65625.355468 0 .644531-.296875.644531-.65625 0-.355469-.289063-.652344-.644531-.652344m-3.226563.289063h.007813c.195312 0 .351562.160156.351562.363281 0 .207031-.15625.363281-.351562.363281-.195313 0-.351563-.15625-.351563-.363281 0-.195312.148437-.351562.332031-.363281zm3.21875 0h.007813c.195312 0 .351562.160156.351562.363281 0 .207031-.15625.363281-.351562.363281-.195313 0-.351563-.15625-.351563-.363281 0-.195312.148437-.351562.332031-.363281zm0 0" fill="#892ca0"/><path d="m6.15625 5.339844c-.199219 0-.359375.167968-.359375.371094 0 .097656.039063.195312.105469.265624.066406.066407.15625.105469.253906.105469.09375 0 .183594-.039062.253906-.105469.066406-.070312.101563-.167968.101563-.265624 0-.203126-.160157-.371094-.355469-.371094m4.703125 0c-.199219 0-.359375.167968-.359375.371094 0 .097656.039062.195312.105469.265624.066406.066407.160156.105469.253906.105469s.1875-.039062.253906-.105469c.066407-.070312.105469-.167968.105469-.265624-.003906-.203126-.160156-.371094-.359375-.371094m-6.824219 5.53125c-.125 0-.226562.105468-.226562.238281 0 .0625.023437.121094.066406.167969.042969.042968.101562.066406.160156.066406.0625 0 .121094-.023438.164063-.066406.042969-.046875.066406-.105469.066406-.167969 0-.132813-.101563-.238281-.230469-.238281zm3.042969.035156c-.128906 0-.230469.105469-.230469.234375 0 .132813.101563.238281.230469.238281.058594 0 .117187-.023437.160156-.070312.042969-.042969.066407-.101563.066407-.167969 0-.0625-.023438-.121094-.066407-.167969-.042969-.042968-.101562-.066406-.160156-.066406m3.1875.574219c-.136719 0-.246094.113281-.246094.25 0 .070312.027344.132812.070313.183593.046875.046876.109375.074219.175781.074219.0625 0 .125-.027343.171875-.074219.046875-.050781.070312-.113281.070312-.183593 0-.136719-.109374-.25-.242187-.25m3.269531.03125c-.066406 0-.128906.027343-.175781.074219-.046875.046874-.070313.113281-.070313.179687 0 .140625.109376.253906.246094.253906.132813 0 .242188-.113281.242188-.253906 0-.066406-.023438-.132813-.070313-.179687-.046875-.046876-.109375-.074219-.171875-.074219" fill="#fff"/></svg>