<svg height="18" viewBox="0 0 18 18" width="18" xmlns="http://www.w3.org/2000/svg"><path d="m10 4.5v-.5c0-.604167-.270833-1.171875-.739583-1.552083-.46875-.380209-1.083334-.526042-1.671875-.40625m6.3125 6.359375c-.192709-.609375-.661459-1.088542-1.260417-1.296875m9.057292 9.09375c.203125-.713542.307291-1.453125.302083-2.197917v-3c0-1.104167-.895833-2-2-2s-2 .895833-2 2v-1c0-.869792-.5625-1.640625-1.390625-1.90625-.828125-.260417-1.734375.041667-2.239583.75m-7.369792 6.15625-1.802083-1.802083c-.796875-.708334-2.010417-.661459-2.755209.104166-.744791.760417-.760416 1.979167-.03125 2.760417l3.588542 3.635417c1.572917 1.604166 3.760417 2.442708 6 2.302083h2c2.119792 0 4.15625-.84375 5.65625-2.34375m-13.65625-13.65625v8m-4-12 20 20" fill="none" stroke="#fff" stroke-linecap="round" stroke-linejoin="round" stroke-width="2" transform="scale(.75)"/></svg>