<svg height="18" viewBox="0 0 18 18" width="18" xmlns="http://www.w3.org/2000/svg"><path d="m13.191406 12.953125c.109375-.917969.078125-1.054687.761719-.90625l.175781.015625c.523438.023438 1.210938-.082031 1.617188-.269531.871094-.40625 1.386718-1.078125.527344-.902344-1.957032.402344-2.089844-.257813-2.089844-.257813 2.066406-3.070312 2.929687-6.964843 2.183594-7.917968-2.035157-2.597656-5.554688-1.371094-5.617188-1.339844l-.015625.003906c-.386719-.078125-.820313-.125-1.308594-.132812-.886719-.015625-1.558593.230468-2.066406.617187 0 0-6.285156-2.589843-5.992187 3.253907.0625 1.246093 1.78125 9.410156 3.832031 6.941406.75-.898438 1.476562-1.664063 1.476562-1.664063.359375.242188.789063.363281 1.242188.320313l.035156-.03125c-.011719.113281-.007813.222656.011719.351562-.527344.589844-.371094.695313-1.429688.910156-1.066406.222657-.441406.613282-.03125.714844.5.125 1.648438.300782 2.425782-.785156l-.03125.121094c.207031.167968.195312 1.195312.222656 1.925781.03125.734375.078125 1.417969.226562 1.820313.152344.40625.328125 1.445312 1.714844 1.144531 1.160156-.246094 2.046875-.605469 2.128906-3.933594"/><path d="m10.609375 17.613281c-.613281 0-1.011719-.238281-1.253906-.464843-.367188-.347657-.511719-.792969-.601563-1.058594l-.035156-.113282c-.175781-.46875-.234375-1.148437-.269531-2.027343-.007813-.128907-.007813-.265625-.015625-.410157 0-.105468-.003906-.234374-.011719-.375-.21875.105469-.453125.179688-.695313.222657-.433593.074219-.898437.050781-1.382812-.070313-.34375-.085937-.699219-.265625-.902344-.539062-.589844.519531-1.15625.449218-1.460937.34375-.542969-.179688-1.027344-.6875-1.484375-1.550782-.324219-.613281-.636719-1.417968-.933594-2.382812-.511719-1.679688-.839844-3.453125-.867188-4.035156-.089843-1.820313.398438-3.121094 1.457032-3.867188 1.667968-1.179687 4.195312-.488281 5.113281-.171875.621094-.375 1.347656-.554687 2.171875-.542969.441406.007813.863281.046876 1.253906.117188.40625-.128906 1.214844-.3125 2.136719-.300781 1.699219.019531 3.105469.683593 4.070313 1.914062.6875.878907.347656 2.726563.082031 3.75-.371094 1.4375-1.019531 2.964844-1.820313 4.296875.214844 0 .53125-.023437.980469-.117187.878906-.183594 1.136719.292969 1.207031.503906.28125.847656-.9375 1.492187-1.316406 1.667969-.488281.226562-1.285156.363281-1.933594.332031h-.027344l-.171874-.015625-.019532.144531-.015625.136719c-.042969 1.6875-.285156 2.757812-.78125 3.464844-.519531.738281-1.242187.945312-1.878906 1.082031-.214844.046875-.414063.066406-.59375.066406m-1.289063-6.140625c.394532.316406.429688.914063.460938 2.03125.003906.136719.007812.269532.011719.394532.015625.371093.050781 1.242187.1875 1.613281.019531.050781.035156.105469.054687.160156.152344.464844.230469.699219.886719.558594.554687-.117188.835937-.222657 1.058594-.539063.324219-.460937.503906-1.386718.539062-2.753906l.671875.015625-.667968-.078125.019531-.167969c.066406-.550781.109375-.949219.476562-1.210937.296875-.210938.632813-.191406.898438-.140625-.292969-.222657-.375-.484375-.394531-.589844l-.058594-.277344.160156-.234375c.90625-1.347656 1.65625-3.003906 2.054688-4.542968.40625-1.582032.28125-2.421876.15625-2.582032-1.648438-2.105468-4.507813-1.234375-4.804688-1.136718l-.050781.027343-.253907.046875-.128906-.027344c-.359375-.074218-.757812-.113281-1.179687-.121093-.671875-.011719-1.210938.144531-1.652344.480469l-.308594.234374-.355469-.148437c-.761718-.308594-2.996093-.933594-4.175781-.101563-.65625.464844-.953125 1.375-.886719 2.703126.023438.4375.320313 2.097656.8125 3.707031.679688 2.226562 1.296876 2.964843 1.554688 3.050781.042969.015625.160156-.074219.277344-.214844.484375-.578125.984375-1.144531 1.503906-1.695312l.390625-.410156.46875.3125c.191406.125.398437.199218.613281.210937l1.125-.957031-.164062 1.660156c-.003906.035156-.003906.085938.011718.183594l.046876.3125-.210938.238281-.023438.027344.617188.285156zm0 0"/><path d="m16.273438 10.890625c-1.957032.402344-2.089844-.257813-2.089844-.257813 2.066406-3.070312 2.929687-6.964843 2.183594-7.917968-2.035157-2.597656-5.554688-1.371094-5.617188-1.335938h-.015625c-.386719-.078125-.820313-.125-1.308594-.132812-.886719-.015625-1.558593.230468-2.066406.617187 0 0-6.285156-2.589843-5.992187 3.257813.0625 1.242187 1.78125 9.40625 3.832031 6.941406.75-.902344 1.476562-1.664062 1.476562-1.664062.359375.238281.789063.359374 1.242188.316406l.035156-.03125c-.011719.113281-.007813.222656.011719.351562-.527344.589844-.371094.695313-1.429688.910156-1.066406.222657-.441406.613282-.03125.714844.496094.125 1.648438.300782 2.425782-.785156l-.03125.125c.207031.164062.351562 1.078125.328124 1.90625-.023437.828125-.042968 1.394531.121094 1.839844.164063.441406.328125 1.441406 1.714844 1.144531 1.160156-.25 1.761719-.894531 1.847656-1.96875.058594-.765625.191406-.652344.199219-1.335937l.109375-.324219c.125-1.035157.019531-1.367188.734375-1.214844l.175781.015625c.523438.023438 1.214844-.082031 1.617188-.269531.871094-.40625 1.386718-1.078125.527344-.902344" fill="#336791"/><path d="m10.679688 17.199219c-1.15625 0-1.523438-.917969-1.671876-1.292969-.21875-.546875-.269531-2.679688-.21875-4.429688 0-.058593.027344-.113281.070313-.15625.042969-.039062.101563-.0625.160156-.0625.058594.003907.117188.027344.15625.070313.042969.042969.0625.101563.0625.160156-.058593 2.019531.023438 3.847657.183594 4.253907.253906.632812.640625 1.1875 1.726563.953124 1.035156-.21875 1.421874-.613281 1.59375-1.609374.132812-.765626.394531-2.945313.425781-3.378907.003906-.058593.03125-.113281.078125-.152343.042968-.039063.101562-.058594.160156-.054688.125.011719.21875.117188.207031.242188-.03125.449218-.292969 2.625-.429687 3.417968-.203125 1.179688-.730469 1.714844-1.941406 1.976563-.203126.042969-.390626.0625-.5625.0625m-6.273438-4.476563c-.101562 0-.203125-.019531-.300781-.050781-.75-.25-1.464844-1.476563-2.128907-3.640625-.5-1.644531-.820312-3.367188-.847656-3.925781-.082031-1.65625.34375-2.828125 1.269532-3.484375 1.828124-1.296875 4.90625-.0625 5.035156-.007813.113281.046875.167968.175781.121094.292969-.046876.113281-.175782.167969-.292969.121094-.027344-.011719-2.976563-1.191406-4.605469-.039063-.792969.558594-1.152344 1.601563-1.078125 3.09375.023437.472657.320313 2.152344.828125 3.820313.589844 1.929687 1.261719 3.152344 1.84375 3.34375.089844.03125.367188.125.765625-.351563.460937-.558593.941406-1.097656 1.4375-1.621093.085937-.085938.222656-.089844.3125-.003907.089844.082031.09375.222657.011719.3125-.007813.007813-.683594.714844-1.417969 1.597657-.347656.417968-.683594.542968-.953125.542968m9.761719-1.890625c-.082031 0-.160157-.046875-.199219-.121093-.039062-.070313-.03125-.160157.011719-.230469 2.089843-3.101563 2.824219-6.847657 2.195312-7.652344-.789062-1.007813-1.90625-1.535156-3.316406-1.566406-1.046875-.023438-1.878906.242187-2.011719.289062l-.035156.015625c-.136719.042969-.242188-.03125-.28125-.121094-.046875-.101562-.007812-.226562.089844-.285156.003906-.003906.027344-.011718.058594-.023437h-.003907.003907c.230468-.085938 1.074218-.335938 2.121093-.324219 1.558594.015625 2.851563.617188 3.730469 1.742188.414062.53125.417969 1.753906.003906 3.355468-.425781 1.636719-1.21875 3.394532-2.179687 4.820313-.042969.066406-.117188.101562-.1875.101562m.105469 1.433594c-.355469 0-.675782-.050781-.867188-.164063-.195312-.117187-.234375-.277343-.238281-.363281-.054688-.945312.464843-1.109375.730469-1.183593-.035157-.054688-.089844-.121094-.144532-.1875-.152344-.195313-.367187-.460938-.527344-.855469-.027343-.0625-.105468-.207031-.199218-.371094-.503906-.90625-1.550782-2.78125-.878906-3.746094.3125-.441406.933593-.617187 1.84375-.519531-.265626-.820312-1.546876-3.382812-4.582032-3.429688-.914062-.015624-1.664062.265626-2.226562.832032-1.261719 1.273437-1.214844 3.574218-1.214844 3.597656.003906.125-.09375.226562-.21875.230469-.121094.003906-.226562-.09375-.226562-.21875-.003907-.101563-.050782-2.515625 1.339843-3.925781.652344-.65625 1.511719-.980469 2.554688-.964844 1.941406.03125 3.191406 1.019531 3.898437 1.84375.769532.894531 1.148438 1.882812 1.179688 2.214844.023437.246093-.152344.292968-.1875.300781l-.082032.003906c-.898437-.144531-1.472656-.046875-1.710937.292969-.511719.734375.480469 2.507812.902344 3.269531.109375.191406.1875.332031.222656.417969.136719.335937.320313.5625.464844.746094.128906.160156.238281.296874.277343.460937.019532.03125.28125.417969 1.832032.097656.390625-.078125.621094-.011719.695312.207031.140625.421876-.648437.917969-1.082031 1.117188-.390625.183594-1.015625.296875-1.554687.296875m-.660157-.5625c.050781.046875.296875.132813.804688.113281.457031-.019531.933593-.121094 1.21875-.253906.367187-.167969.613281-.359375.738281-.488281l-.070312.011719c-.988282.203124-1.691407.175781-2.082032-.082032-.027344-.015625-.054687-.035156-.078125-.054687-.042969.015625-.082031.027343-.109375.035156-.222656.0625-.453125.125-.421875.71875m-6.40625 1.25c-.246093 0-.503906-.03125-.769531-.097656-.273438-.070313-.738281-.277344-.730469-.613281.007813-.382813.5625-.496094.769531-.539063.753907-.15625.800782-.21875 1.039063-.515625.066406-.085938.152344-.195312.269531-.324219.171875-.195312.359375-.292969.5625-.292969.136719 0 .25.046876.328125.078126.238281.097656.4375.339843.523438.628906.074219.257812.039062.507812-.101563.703125-.457031.636719-1.109375.972656-1.890625.972656m-1.015625-.691406c.066406.050781.203125.121093.355469.15625.226563.058593.449219.089843.660156.089843.640625 0 1.152344-.265624 1.527344-.789062.078125-.109375.054687-.246094.03125-.320312-.042969-.152344-.152344-.289063-.261719-.335938-.0625-.023438-.113281-.042969-.15625-.042969-.027344 0-.101562 0-.226562.140625-.089844.097656-.171875.199219-.253906.304688-.292969.371094-.425782.5-1.300782.675781-.210937.046875-.320312.089844-.375.121094m1.726563-1.035157c-.113281 0-.207031-.082031-.222657-.191406-.003906-.039062-.007812-.074218-.011718-.113281-.570313-.011719-1.121094-.253906-1.539063-.691406-.53125-.554688-.773437-1.320313-.664062-2.101563.121093-.847656.074219-1.597656.050781-2-.003906-.113281-.011719-.191406-.011719-.25.003907-.070312.003907-.257812.632813-.578125.222656-.113281.671875-.308593 1.164062-.359375.8125-.085937 1.347656.277344 1.507813 1.019532.433593 2 .035156 2.882812-.257813 3.53125-.054687.121093-.105468.234374-.144531.34375l-.035156.097656c-.15625.410156-.289063.765625-.246094 1.03125.015625.125-.066406.238281-.1875.257812zm-1.945313-5.285156.007813.160156c.023437.417969.070312 1.199219-.054688 2.089844-.089843.644532.105469 1.273438.539063 1.726563.34375.359375.796875.554687 1.257812.554687h.011719c.050781-.21875.136719-.449218.230469-.695312l.035156-.097656c.046875-.125.101562-.246094.15625-.371094.28125-.625.628906-1.398438.230469-3.253906-.082031-.367188-.273438-.582032-.589844-.652344-.652344-.144532-1.621094.347656-1.824219.539062m1.351563-.09375c-.007813.078125.148437.292969.351562.320313.203125.027343.378907-.136719.386719-.21875.011719-.078125-.144531-.164063-.347656-.195313-.203125-.027344-.378906.015625-.390625.09375m.398437.398438-.058594-.003906c-.125-.019532-.253906-.097657-.339843-.214844-.03125-.039063-.082031-.121094-.074219-.191406.015625-.101563.140625-.164063.339844-.164063.042968 0 .089844.003906.136718.007813.105469.015624.207032.046874.28125.089843.125.070313.136719.148438.128907.191407-.015625.113281-.195313.285156-.414063.285156m-.324218-.386719c.007812.050781.128906.210937.285156.234375h.039062c.144532 0 .253906-.113281.265625-.148438-.011719-.027343-.105469-.089843-.285156-.117187-.035156-.003906-.074219-.007813-.113281-.007813-.113282 0-.175782.027344-.191406.039063m6.132812-.171875c.011719.078125-.144531.289062-.347656.316406-.203125.03125-.378906-.136718-.390625-.214844-.011719-.078124.144531-.167968.351562-.195312.203125-.027344.375.011719.386719.09375m-.394531.359375c-.199219 0-.367188-.152344-.378907-.253906-.019531-.117188.179688-.207031.378907-.238281.046875-.003907.089843-.007813.132812-.007813.171875 0 .289063.050781.300781.132813.007813.054687-.035156.136718-.105468.210937-.046875.046875-.144532.132813-.277344.152344zm.132812-.425781c-.039062 0-.082031.003906-.121093.007812-.203126.03125-.324219.109375-.316407.15625.003907.046875.132813.1875.304688.1875l.039062-.003906c.113281-.015625.195313-.089844.234375-.128906.0625-.066406.085938-.128906.085938-.148438-.003906-.027344-.078125-.070312-.226563-.070312m.554688 4.621094c-.082031 0-.15625-.046876-.195313-.121094-.039062-.074219-.035156-.160156.011719-.230469.476563-.710937.390625-1.441406.304687-2.144531-.035156-.300782-.074218-.609375-.0625-.90625.007813-.308594.046876-.558594.085938-.804688.042969-.289062.085938-.5625.070312-.886718-.007812-.125.085938-.230469.210938-.234376.125-.007812.230469.085938.234375.210938.019531.371094-.027344.679688-.074219.980469-.035156.230469-.070312.46875-.078125.746093-.011719.265626.023438.542969.058594.839844.089844.75.191406 1.597656-.378906 2.449219-.039063.0625-.109375.101563-.1875.101563" fill="#fff"/></svg>