<svg height="18" viewBox="0 0 18 18" width="18" xmlns="http://www.w3.org/2000/svg"><g fill="none" stroke="#fff" stroke-linecap="round" stroke-linejoin="round" stroke-width="2" transform="scale(.75)"><path d="m6 18h-2c-1.104167 0-2-.895833-2-2v-5c0-1.104167.895833-2 2-2h16c1.104167 0 2 .895833 2 2v5c0 1.104167-.895833 2-2 2h-2m-12-9v-6c0-.552083.447917-1 1-1h10c.552083 0 1 .447917 1 1v6"/><path d="m7 14h10c.552083 0 1 .447917 1 1v6c0 .552083-.447917 1-1 1h-10c-.552083 0-1-.447917-1-1v-6c0-.552083.447917-1 1-1zm0 0"/></g></svg>