<svg height="18" viewBox="0 0 18 18" width="18" xmlns="http://www.w3.org/2000/svg" xmlns:xlink="http://www.w3.org/1999/xlink"><filter id="a" height="100%" width="100%" x="0%" y="0%"><feColorMatrix color-interpolation-filters="sRGB" values="0 0 0 0 1 0 0 0 0 1 0 0 0 0 1 0 0 0 1 0"/></filter><radialGradient id="b" cx="0" cy="0" gradientTransform="matrix(8.704823 -7.912452 7.912452 8.704823 5.137404 6.490497)" gradientUnits="userSpaceOnUse" r="1"><stop offset="0" stop-color="#fff"/><stop offset=".181" stop-color="#fbfbfb"/><stop offset=".365" stop-color="#efeff0"/><stop offset=".552" stop-color="#dadbdc"/><stop offset=".738" stop-color="#bebfc2"/><stop offset=".824" stop-color="#aeb0b3"/></radialGradient><radialGradient id="c" cx="0" cy="0" gradientTransform="matrix(10.525095 0 0 11.601256 2.246766 6.893015)" gradientUnits="userSpaceOnUse" r="1"><stop offset="0" stop-color="#fafdff"/><stop offset=".079" stop-color="#eef5fa"/><stop offset=".22" stop-color="#cfdfec"/><stop offset=".407" stop-color="#9dbbd5"/><stop offset=".631" stop-color="#588ab5"/><stop offset=".745" stop-color="#326fa4"/><stop offset=".799" stop-color="#2b6698"/><stop offset=".897" stop-color="#174e78"/><stop offset=".994" stop-color="#003152"/></radialGradient><radialGradient id="d" cx="0" cy="0" gradientTransform="matrix(10.441014 0 0 11.267167 5.983031 6.502078)" gradientUnits="userSpaceOnUse" r="1"><stop offset="0" stop-color="#ffd540"/><stop offset=".667" stop-color="#ec1c24"/><stop offset=".994" stop-color="#760000"/></radialGradient><linearGradient id="e"><stop offset="0" stop-color="#dddfe0"/><stop offset=".174" stop-color="#d9dbdc"/><stop offset=".351" stop-color="#cdcfd0"/><stop offset=".531" stop-color="#b8babb"/><stop offset=".711" stop-color="#9c9e9f"/><stop offset=".891" stop-color="#78797b"/><stop offset="1" stop-color="#5e5f61"/></linearGradient><radialGradient id="f" cx="0" cy="0" gradientTransform="matrix(1.383251 0 0 1.303196 6.773906 15.537937)" gradientUnits="userSpaceOnUse" r="1" xlink:href="#e"/><radialGradient id="g" cx="0" cy="0" gradientTransform="matrix(1.383251 0 0 1.303196 10.872844 15.537937)" gradientUnits="userSpaceOnUse" r="1" xlink:href="#e"/><radialGradient id="h" cx="0" cy="0" gradientTransform="matrix(1.672425 0 0 1.681847 8.724797 9.452813)" gradientUnits="userSpaceOnUse" r="1" xlink:href="#e"/><mask id="i"><g filter="url(#a)"><path d="m-1.8-1.8h21.6v21.6h-21.6z" fill-opacity=".53"/></g></mask><clipPath id="j"><path d="m0 0h18v18h-18z"/></clipPath><path d="m15.054688 15.660156c3.675781-3.34375 3.949218-9.035156.605468-12.714844-3.34375-3.675781-9.035156-3.949218-12.714844-.605468-3.675781 3.34375-3.949218 9.035156-.605468 12.714844 3.34375 3.675781 9.035156 3.949218 12.714844.605468" fill="url(#b)"/><path d="m11.503906 2.835938c-1.144531-.988282-2.601562-1.519532-4.105468-1.496094-3.074219 0-6.097657 2.386718-6.332032 7.03125-.253906 4.988281 3 8.226562 7.574219 8.226562 6.777344 0 10.523437-6.257812 6.328125-13.042968 2.949219 6.78125-.332031 11.054687-4.566406 11.054687-3.433594 0-6.066406-2.335937-6.066406-6.617187 0-6.179688 4.570312-6.609376 7.167968-5.15625" fill="url(#c)"/><path d="m13.191406 5.410156c-.183594-.597656-.402344-1.78125.402344-2.464844-.457031-.097656-.925781-.058593-1.355469.117188-.433593.175781-.804687.476562-1.066406.863281-.738281-.335937-1.542969-.511719-2.355469-.507812-.8125 0-1.617187.175781-2.355468.515625-.261719-.390625-.628907-.691406-1.0625-.871094-.429688-.175781-.90625-.214844-1.359376-.117188.824219.703126.574219 1.917969.386719 2.507813-1.085937 1.238281-1.683593 2.84375-1.675781 4.503906 0 1.390625.878906 2.96875 1.050781 5.085938l1.113281-.980469c1.191407.667969 2.546876.984375 3.910157.917969 1.363281.066406 2.714843-.253907 3.90625-.917969l1.113281.980469c.175781-2.117188 1.054688-3.695313 1.054688-5.085938.011718-1.679687-.597657-3.300781-1.707032-4.546875zm0 0" fill="url(#d)"/><path d="m5.734375 16.625c-.003906-.136719.019531-.269531.070313-.398438.054687-.128906.132812-.242187.230468-.339843.101563-.097657.222656-.175781.355469-.230469.132813-.050781.277344-.078125.421875-.078125s.285156.027344.417969.078125c.132812.054688.253906.132812.355469.230469.097656.097656.175781.210937.230468.339843.050782.128907.074219.261719.070313.398438v.035156c.191406-.203125.316406-.457031.355469-.730468.042968-.273438-.003907-.550782-.128907-.792969-.121093-.25-.320312-.457031-.570312-.597657-.25-.144531-.539063-.210937-.824219-.203124-.292969.011718-.574219.101562-.808594.261718s-.417968.382813-.519531.636719c-.105469.253906-.125.535156-.0625.800781.0625.269532.207031.511719.414063.703125-.003907-.035156-.007813-.074219-.007813-.113281zm0 0" fill="url(#f)"/><path d="m11.914062 16.625c.003907-.136719-.019531-.269531-.074218-.398438-.050782-.128906-.128906-.242187-.230469-.339843-.101563-.097657-.21875-.175781-.351563-.230469-.132812-.050781-.277343-.078125-.421874-.078125-.144532 0-.285157.027344-.421876.078125-.128906.054688-.25.132812-.351562.230469-.101562.097656-.179688.210937-.230469.339843-.050781.128907-.078125.261719-.070312.398438v.035156c-.191407-.203125-.316407-.457031-.359375-.730468-.039063-.273438.003906-.550782.128906-.792969.125-.25.324219-.457031.574219-.597657.25-.144531.535156-.210937.824219-.203124.289062.011718.570312.101562.808593.261718.234375.160156.417969.382813.519531.636719.105469.253906.125.535156.0625.800781-.0625.273438-.210937.515625-.417968.703125.007812-.035156.007812-.074219.007812-.113281zm0 0" fill="url(#g)"/><path d="m6.070312 10.097656c1.363282 0 2.46875-1.074218 2.46875-2.402344 0-1.324218-1.105468-2.402343-2.46875-2.402343-1.367187 0-2.472656 1.078125-2.472656 2.402343 0 1.328126 1.105469 2.402344 2.472656 2.402344" fill="#fff"/><path d="m6.703125 9.109375c.703125 0 1.273437-.507813 1.273437-1.128906 0-.625-.570312-1.132813-1.273437-1.132813-.699219 0-1.269531.507813-1.269531 1.132813 0 .621093.570312 1.128906 1.269531 1.128906" fill="#bdbfc1"/><path d="m6.703125 8.828125c.390625 0 .707031-.351563.707031-.777344 0-.429687-.316406-.777343-.707031-.777343s-.707031.347656-.707031.777343c0 .425781.316406.777344.707031.777344" fill="#231f20"/><path d="m6.351562 7.980469c.117188 0 .210938-.128907.210938-.285157s-.09375-.28125-.210938-.28125c-.117187 0-.210937.125-.210937.28125s.09375.285157.210937.285157m5.226563 2.117187c1.367187 0 2.472656-1.074218 2.472656-2.402344 0-1.324218-1.105469-2.402343-2.472656-2.402343-1.363281 0-2.472656 1.078125-2.472656 2.402343 0 1.328126 1.109375 2.402344 2.472656 2.402344" fill="#fff"/><path d="m12.144531 9.109375c.664063 0 1.199219-.507813 1.199219-1.128906 0-.625-.535156-1.132813-1.199219-1.132813-.664062 0-1.203125.507813-1.203125 1.132813 0 .621093.539063 1.128906 1.203125 1.128906" fill="#bdbfc1"/><path d="m12.214844 8.828125c.46875 0 .847656-.351563.847656-.777344 0-.429687-.378906-.777343-.847656-.777343s-.847656.347656-.847656.777343c0 .425781.378906.777344.847656.777344" fill="#231f20"/><path d="m11.71875 7.980469c.117188 0 .214844-.128907.214844-.285157s-.097656-.28125-.214844-.28125-.210938.125-.210938.28125.09375.285157.210938.285157" fill="#fff"/><path d="m8.894531 12.5c0-.882812 1.34375-2.136719 1.34375-3.058594-.007812-.351562-.152343-.6875-.40625-.9375-.25-.246094-.585937-.382812-.9375-.382812-.351562 0-.6875.136718-.9375.382812-.253906.25-.398437.585938-.40625.9375 0 .921875 1.34375 2.175782 1.34375 3.058594" fill="url(#h)"/><g mask="url(#i)"><g clip-path="url(#j)"><path d="m4.140625 10.503906c-.082031.425782-.621094.558594-.621094.558594-.238281-.171875-.375-.457031-.359375-.753906-.03125.40625.066406.808594.28125 1.148437.332032-.234375.578125-.570312.699219-.953125zm1.0625.214844c-.082031.425781-.621094.558594-.621094.558594-.242187-.171875-.378906-.457032-.359375-.753906-.03125.402343.066406.804687.28125 1.144531.332032-.230469.578125-.566407.699219-.949219m-.75.964844c-.085937.425781-.621094.5625-.621094.5625-.242187-.175782-.375-.460938-.359375-.757813-.03125.402344.066406.804688.285156 1.148438.328126-.234375.570313-.566407.695313-.953125m1.066406.214844c-.085937.425781-.621093.5625-.621093.5625-.242188-.175782-.378907-.460938-.363282-.757813-.03125.402344.066406.804687.28125 1.148437.332032-.234374.578125-.566406.703125-.953124zm-.75.984374c-.082031.425782-.621093.558594-.621093.558594-.242188-.171875-.378907-.457031-.363282-.753906-.03125.402344.070313.804688.285156 1.144531.328126-.230469.574219-.566406.699219-.949219zm1.492188-1.953124c-.082031.425781-.621094.5625-.621094.5625-.242187-.175782-.375-.460938-.359375-.757813-.03125.402344.066406.804687.28125 1.148437.332031-.234374.578125-.566406.699219-.953124zm7.351562-.425782c.082031.425782.621094.558594.621094.558594.117187-.085938.214844-.199219.277344-.332031.0625-.132813.089843-.277344.082031-.421875.03125.402344-.066406.804687-.28125 1.144531-.332031-.234375-.574219-.566406-.699219-.949219m-1.0625.214844c.082031.425781.621094.558594.621094.558594.242187-.171875.378906-.457032.359375-.753906.03125.402343-.066406.804687-.28125 1.144531-.332031-.230469-.578125-.566407-.699219-.949219zm.75.964844c.082031.425781.621094.5625.621094.5625.117187-.085938.214844-.199219.277344-.332032.0625-.132812.089843-.277343.082031-.425781.035156.402344-.066406.804688-.28125 1.148438-.328125-.234375-.574219-.566407-.699219-.953125m-1.0625.214844c.085938.425781.621094.5625.621094.5625.242187-.175782.378906-.460938.359375-.757813.035156.402344-.066406.804687-.28125 1.148437-.332031-.234374-.574219-.570312-.699219-.953124zm.746094.984374c.085937.425782.621094.558594.621094.558594.242187-.171875.378906-.457031.363281-.753906.03125.402344-.070312.804688-.285156 1.144531-.332032-.230469-.574219-.566406-.699219-.949219zm-1.496094-1.953124c.085938.429687.625.5625.625.5625.238281-.171876.375-.457032.359375-.757813.03125.40625-.066406.804687-.285156 1.148437-.328125-.234374-.574219-.566406-.699219-.953124zm0 0" fill="#231f20"/></g></g></svg>