<svg height="18" viewBox="0 0 18 18" width="18" xmlns="http://www.w3.org/2000/svg"><path d="m9.015625.0703125c4.9375.0039063 8.992187 4.0273435 8.984375 8.9218755-.007812 4.972656-4.042969 8.941406-9.085938 8.9375-4.929687-.003907-8.91796825-4.035157-8.914062-9.007813.00390625-4.867187 4.0625-8.8515625 9.015625-8.8515625m-2.726563 3.1367185c.113282.554688.003907 1.074219-.164062 1.585938-.117188.351562-.277344.695312-.371094 1.054687-.160156.589844-.335937 1.183594-.402344 1.789063-.09375.867187.246094 1.632812.832032 2.394531l-2.6875-.566406c.003906.085937 0 .117187.007812.144531.253906.75.703125 1.378906 1.207032 1.972656.050781.0625.171874.097657.261718.097657 2.679688.003906 5.359375.003906 8.039063 0 .082031 0 .195312-.015626.246093-.070313.574219-.601563 1.011719-1.289063 1.285157-2.15625l-2.84375.558594c.1875-.371094.402343-.691407.523437-1.046875.421875-1.214844.25-2.390625-.355468-3.5-.484376-.890625-.933594-1.773438-.691407-2.847656-.511719.507812-.707031 1.152343-.832031 1.816406-.125.652344-.195312 1.316406-.292969 1.980468-.011719-.023437-.03125-.035156-.035156-.054687-.011719-.070313-.019531-.136719-.023437-.207031-.058594-1.089844-.269532-2.136719-.71875-3.136719-.261719-.585937-.554688-1.1875-.28125-1.890625-.183594.097656-.351563.195312-.46875.332031-.355469.410157-.503907.902344-.539063 1.445313-.035156.460937-.078125.921875-.164063 1.378906-.089843.476562-.230468.941406-.554687 1.378906-.128906-.933594-.140625-1.859375-.976563-2.453125zm6.90625 9.292969h-8.402343v1.457031h8.402343zm-6.734374 2.214844c-.007813 1.214844 1.230468 2.117187 2.761718 2.054687 1.265625-.054687 2.390625-1.054687 2.292969-2.054687zm0 0" fill="#e75225"/></svg>