<svg height="18" viewBox="0 0 18 18" width="18" xmlns="http://www.w3.org/2000/svg"><path d="m18 9c0 4.96875-4.03125 9-9 9-4.972656 0-9-4.027344-9-9s4.027344-9 9-9c4.96875 0 9 4.027344 9 9" fill="#ed163a"/><path d="m13.644531 4.660156-3.058593-.027344-1.789063-1.792968-2.101563 1.398437.363282.359375-.851563-.007812-2.890625 4.863281h-1.132812l.710937.710937-.714843 1.203126 6.628906 6.628906.191406.003906c4.964844 0 8.992188-4.023438 9-8.988281z" fill="#d51c2f"/><path d="m4.566406 9.65625c0-2.449219 1.984375-4.433594 4.433594-4.433594s4.433594 1.984375 4.433594 4.433594zm9.964844.203125v-.40625h1.285156c-.046875-1.667969-.707031-3.257813-1.851562-4.472656l-.960938.960937-.289062-.289062.960937-.960938c-1.214843-1.144531-2.804687-1.804687-4.472656-1.851562v1.285156h-.410156v-1.285156c-1.664063.046875-3.257813.707031-4.46875 1.851562l.957031.960938-.289062.289062-.957032-.960937c-1.144531 1.214843-1.804687 2.804687-1.851562 4.472656h1.28125v.40625h-1.289063v1.503906h13.644531v-1.5h-1.289062" fill="#f5f5f5"/></svg>