<svg height="18" viewBox="0 0 18 18" width="18" xmlns="http://www.w3.org/2000/svg"><path d="m17.886719 0-5.773438 4.835938-.449219 1.164062c-.078124-.027344-.152343-.046875-.21875-.046875-.148437 0-.296874.058594-.402343.167969-.222657.226562-.222657.589844 0 .816406.109375.109375.257812.167969.414062.167969.152344 0 .300781-.058594.410157-.167969.171874-.167969.21875-.421875.125-.628906l1.160156-.449219 4.839844-5.757813zm-5.648438.769531c-.507812.011719-1.042969.078125-1.597656.207031-.554687.121094-1.105469.296876-1.660156.53125-2.679688-1.09375-5.304688-.972656-6.871094.59375-1.210937 1.207032-1.613281 3.074219-1.125 5.238282.121094.554687.308594 1.105468.535156 1.652344-.9375 2.304687-.984375 4.574218.007813 6.15625l.496094-.589844c-.671876-1.226563-.671876-2.886719-.082032-4.640625.46875.910156 1.066406 1.800781 1.78125 2.625l.476563-.5625c-.796875-.945313-1.433594-1.957031-1.894531-2.988281.601562-1.351563 1.53125-2.710938 2.757812-3.9375 1.199219-1.203126 2.550781-2.140626 3.929688-2.757813 1.011718.449219 2.03125 1.078125 3 1.894531l.5625-.480468c-.808594-.6875-1.691407-1.28125-2.636719-1.769532.289062-.101562.585937-.1875.882812-.253906 1.480469-.335938 2.773438-.214844 3.769531.328125l.589844-.496094c-.804687-.515625-1.800781-.769531-2.921875-.75zm-6.527343.730469c.742187.011719 1.535156.15625 2.351562.429688-1.238281.640624-2.445312 1.519531-3.523438 2.609374-1.097656 1.09375-1.96875 2.304688-2.597656 3.523438-.09375-.289062-.1875-.582031-.253906-.882812-.421875-1.921876-.09375-3.542969.929688-4.5625.773437-.773438 1.855468-1.132813 3.09375-1.117188zm10.734374 1.3125-.488281.601562c.410157.757813.570313 1.703126.476563 2.765626.210937.328124.40625.671874.582031 1.019531.355469-1.714844.160156-3.234375-.570313-4.386719zm-7.453124 1.640625c-2.496094 0-4.53125 2.035156-4.53125 4.527344 0 .871093.253906 1.6875.6875 2.382812l.242187-.09375c.039063-.246093.148437-.46875.328125-.65625.039062-.039062.074219-.066406.121094-.105469-.234375-.472656-.355469-.996093-.355469-1.527343 0-1.929688 1.574219-3.503907 3.507813-3.503907.527343 0 1.050781.121094 1.527343.355469.027344-.039062.054688-.085937.09375-.121093.175781-.179688.402344-.292969.65625-.328126l.101563-.246093c-.691406-.429688-1.507813-.683594-2.378906-.683594zm5.285156.976563-.488282.5625c.808594.964843 1.445313 1.984374 1.894532 2.988281l-.007813.027343c-.621093 1.378907-1.566406 2.730469-2.738281 3.902344-1.726562 1.722656-3.757812 2.914063-5.738281 3.363282-1.480469.339843-2.773438.21875-3.769531-.328126l-.589844.5c.777344.496094 1.726562.75 2.785156.75.554688 0 1.132812-.066406 1.734375-.207031 2.109375-.480469 4.273437-1.734375 6.09375-3.554687 1.070313-1.066406 1.960937-2.277344 2.605469-3.523438.730468 2.175782.554687 4.207032-.683594 5.445313-.9375.9375-2.410156 1.285156-4.105469 1.011719-.3125.195312-.636719.375-.964843.535156.71875.1875 1.414062.292968 2.0625.292968 1.421874 0 2.652343-.453124 3.523437-1.324218 2.269531-2.269532 1.507813-6.777344-1.613281-10.441406zm-1.433594 1.171874-.242188.09375c-.039062.242188-.152343.46875-.328124.65625-.039063.035157-.078126.0625-.125.101563.226562.460937.359374.984375.359374 1.527344-.011718 1.941406-1.585937 3.507812-3.515624 3.507812-.554688 0-1.070313-.132812-1.53125-.355469-.027344.035157-.054688.082032-.09375.121094-.175782.175782-.40625.292969-.65625.328125l-.09375.242188c.695312.433593 1.511718.683593 2.382812.683593 2.492188 0 4.527344-2.03125 4.527344-4.527343 0-.871094-.253906-1.6875-.683594-2.378907zm-3.851562.203126c-1.203126 0-2.175782.976562-2.175782 2.175781 0 1.203125.972656 2.175781 2.175782 2.175781 1.199218 0 2.171874-.972656 2.171874-2.175781 0-1.199219-.972656-2.175781-2.171874-2.175781m-2.457032 4.0625c-.15625-.003907-.304687.058593-.414062.167968-.167969.167969-.214844.421875-.121094.628906l-1.164062.449219-4.835938 5.753907.101562.105468 5.757813-4.839844.460937-1.160156c.074219.027344.148438.046875.222657.046875.152343 0 .296875-.0625.402343-.167969.226563-.226562.226563-.59375 0-.816406-.109374-.109375-.257812-.171875-.410156-.167968zm-.527344 2.90625-.570312.484374c.507812.433594 1.023438.816407 1.566406 1.164063.195313-.074219.628906-.242187.816406-.355469-.667968-.386718-1.203124-.777344-1.8125-1.292968zm0 0" fill="#2c3e50"/></svg>