<svg height="18" viewBox="0 0 18 18" width="18" xmlns="http://www.w3.org/2000/svg"><path d="m9.777344 2.789062h4.398437v2.847657h-4.398437zm0 0" fill="#0403ff"/><path d="m9.777344 2.660156v3.105469h-.265625l.007812-3.105469zm0 0" fill="#0808bd"/><path d="m9.777344 2.789062h4.398437v-.257812h-4.65625v.257812zm0 0" fill="#000373"/><path d="m9.390625 2.402344h4.914063v3.359375h-3.230469v-.128907h3.105469v-3.101562h-4.660157v3.230469l-.128906.132812zm0 0" fill="#000473"/><path d="m3.308594 10.941406h4.398437v2.847656h-4.398437zm0 0" fill="#0403ff"/><path d="m3.308594 10.8125v3.105469h-.265625l.007812-3.105469zm0 0" fill="#0808bd"/><path d="m3.308594 10.941406h4.398437v-.261718h-4.65625v.261718zm0 0" fill="#000373"/><path d="m7.707031 13.789062v-3.109374h-4.65625v3.234374h-.132812v-3.363281h4.917969v3.363281h-.128907" fill="#000473"/><path d="m3.308594 13.789062h4.398437v.128907h-4.398437zm0 0" fill="#0001df"/><path d="m.980469 16.503906v-1.292968h7.890625l1.035156-1.039063h.648438l-1.554688 1.558594h-7.503906v.777343h-.515625zm0 0" fill="#fffffd"/><path d="m.980469 15.210938 1.160156-1.164063v1.164063zm0 0" fill="#bfbfc0"/><path d="m.980469 16.503906h.515625v.515625h-.515625zm0 0" fill="#bcbfb1"/><path d="m8.871094 15.210938 1.035156-1.039063h-.386719l-1.039062 1.039063zm0 0" fill="#c2c2c2"/><path d="m10.550781 14.175781v1.8125l-1.035156 1.035157h-8.019531v-.515626h7.503906v-.777343zm0 0" fill="#7e7e7e"/><path d="m5.898438 16.117188v.390624h-4.402344v-.777343h7.503906v.777343h-.519531v-.390624zm0 0" fill="#c0c0c0"/><path d="m5.898438 16.117188h2.585937v.390624h-2.585937zm0 0" fill="#010101"/><path d="m7.449219 8.351562v-1.292968h7.890625l1.035156-1.035156h.648438l-1.550782 1.550781h-7.507812v.777343zm0 0" fill="#fffffd"/><path d="m7.449219 7.058594 1.160156-1.160156v1.160156zm0 0" fill="#bfbfc0"/><path d="m7.449219 8.351562h.519531v.519532h-.519531zm0 0" fill="#bcbfb1"/><path d="m15.339844 7.058594 1.035156-1.035156h-.386719l-1.039062 1.035156zm0 0" fill="#c2c2c2"/><path d="m17.019531 6.023438v1.808593l-1.035156 1.039063h-8.019531v-.519532h7.503906v-.777343zm0 0" fill="#7e7e7e"/><path d="m12.363281 7.964844v.386718h-4.398437v-.777343h7.503906v.777343h-.519531v-.386718zm0 0" fill="#c0c0c0"/><path d="m12.363281 7.964844h2.585938v.386718h-2.585938zm0 0" fill="#010101"/><path d="m9.390625 6.542969h5.175781v-4.402344l1.292969-1.160156v4.917969l-.910156.90625h-5.820313" fill="#808080"/><path d="m8.871094 1.882812 5.691406.257813-.261719.261719.648438-.519532.910156-.90625h-6.082031zm0 0" fill="#bfc1bb"/><path d="m9.390625 6.023438h5.175781v.519531h-5.175781zm0 0" fill="#c6bcbf"/><path d="m9.128906 5.898438h.128906l.132813-.132813v-3.363281h4.914063l.261718-.261719h-5.4375zm0 0" fill="#817f87"/><path d="m9.257812 5.898438.132813-.132813h4.914063v-3.363281l.261718-.261719v3.882813h-5.308594zm0 0" fill="#fefffa"/><path d="m8.871094 1.882812h5.820312l-.128906.257813h-5.433594v4.011719l-.257812.128906zm0 0" fill="#fff"/><path d="m9.128906 5.898438h.128906v.128906l-.128906.128906zm0 0" fill="#bebebe"/><path d="m2.660156 14.691406h5.433594v-4.398437l1.292969-1.164063v4.917969l-.910157.90625h-6.074218" fill="#808080"/><path d="m2.402344 10.035156 5.691406.261719-.261719.257813.648438-.519532.910156-.90625h-6.082031zm0 0" fill="#bfc1bb"/><path d="m8.09375 14.175781v.519531h-5.433594v-.648437h.128906v.128906zm0 0" fill="#c6bcbf"/><path d="m2.660156 14.046875h.128906l.128907-.128906v-3.363281h4.917969l.261718-.257813h-5.4375zm0 0" fill="#817f87"/><path d="m2.789062 14.046875.128907-.128906h4.917969v-3.363281l.261718-.257813v3.878906h-5.308594zm0 0" fill="#fefffa"/><path d="m2.402344 10.035156h5.820312l-.128906.261719h-5.433594v4.398437l-.257812.257813zm0 0" fill="#fff"/><path d="m2.660156 14.046875h.128906v.128906h-.128906zm0 0" fill="#bebebe"/><path d="m.71875 15.210938 1.292969-1.292969h.128906v.257812h-.128906l-1.035157 1.039063v1.808594h8.539063l1.035156-1.035157v-1.8125h-1.160156l.257813-.257812h1.164062v2.070312l-1.292969 1.292969h-8.800781zm0 0"/><path d="m2.402344 10.035156v4.917969l-.261719.261719v-5.179688l1.164063-1.160156h6.34375v5.175781l-1.164063 1.164063h-6.34375l.261719-.261719h6.078125l.910156-.90625v-4.917969h-6.082031zm0 0"/><path d="m7.1875 7.058594 1.292969-1.292969h.128906v.261719h-.128906l-1.035157 1.035156v1.8125h8.539063l1.035156-1.039062v-1.808594h-1.160156l.257813-.261719h1.164062v2.070313l-1.292969 1.292968h-8.800781zm0 0"/><path d="m8.871094 1.882812v4.917969l-.261719.257813v-5.175782l1.167969-1.164062h6.339844v5.179688l-1.164063 1.160156h-6.34375l.261719-.257813h6.078125l.910156-.90625v-4.914062h-6.082031zm0 0"/><path d="m6.542969 8.480469h2.199219l-3.492188 3.492187v.261719h.386719l5.691406-4.53125v-.257813h-2.070313l3.363282-3.492187v-.257813h-.257813l-5.820312 4.527344zm0 0" fill="#ffff01"/><path d="m5.679688 12.363281h-.5625v-.445312l3.3125-3.308594h-2.015626v-.453125l5.90625-4.589844h.429688v.441406l-3.1875 3.3125h1.894531v.449219zm-.300782-.257812h.210938l5.609375-4.460938v-.066406h-2.246094l3.539063-3.675781v-.078125h-.085938l-5.734375 4.460937v.066406h2.382813l-3.675782 3.675782zm0 0"/></svg>