<svg height="18" viewBox="0 0 18 18" width="18" xmlns="http://www.w3.org/2000/svg"><g fill="#ee4c2c"><path d="m14.078125 5.386719-1.296875 1.292969c2.125 2.125 2.125 5.539062 0 7.636718-2.121094 2.121094-5.539062 2.121094-7.632812 0-2.125-2.125-2.125-5.542968 0-7.636718l3.851562-3.851563v-2.546875l-5.089844 5.089844c-2.828125 2.828125-2.828125 7.398437 0 10.238281 2.824219 2.839844 7.394532 2.828125 10.179688 0 2.828125-2.839844 2.828125-7.382813-.011719-10.222656"/><path d="m11.558594 3.1875c.519531.011719.933594.441406.925781.960938-.011719.519531-.441406.933593-.960937.921874-.519532-.007812-.933594-.4375-.925782-.957031.011719-.519531.441406-.933593.960938-.925781zm0 0"/></g></svg>