<svg height="18" viewBox="0 0 18 18" width="18" xmlns="http://www.w3.org/2000/svg" xmlns:xlink="http://www.w3.org/1999/xlink"><linearGradient id="a" gradientUnits="userSpaceOnUse" x1="-.36703125" x2="14.32265596875" y1="14.13421903125" y2="12.02203096875"><stop offset=".18" stop-color="#fc801d"/><stop offset=".63" stop-color="#ff318c"/></linearGradient><linearGradient id="b" gradientUnits="userSpaceOnUse" x1="-2.51015625" x2="18.38109473437" y1="-.22078125" y2="15.3056244375"><stop offset="0" stop-color="#ff318c"/><stop offset=".4" stop-color="#b74af7"/><stop offset=".87" stop-color="#ff318c"/></linearGradient><linearGradient id="c" gradientUnits="userSpaceOnUse" x1="-4.93734389063" x2="18.23062485937" y1="6.65859346875" y2="1.22484375"><stop offset="0" stop-color="#ff318c"/><stop offset=".2" stop-color="#d73bab"/><stop offset=".51" stop-color="#9d4ad8"/><stop offset=".75" stop-color="#7953f4"/><stop offset=".87" stop-color="#6b57ff"/></linearGradient><path d="m12.09375 7.835938-8.679688 1.820312c-.226562.035156-.453124.085938-.671874.148438-.691407.203124-1.296876.621093-1.734376 1.191406-2.59375 3.367187.1875 7.765625 4.160157 6.890625l9.523437-1.378907c1.003906-.222656 1.882813-.828124 2.453125-1.6875 2.453125-3.664062-.726562-8.25-5.050781-6.984374" fill="url(#a)"/><path d="m7.324219 1.144531c-1.070313-.984375-2.644531-1.441406-4.410157-.921875-.730468.214844-1.378906.65625-1.84375 1.265625-1.773437 2.308594-1.179687 5.066407.597657 6.492188l9.476562 7.910156c1.046875.683594 2.332031.90625 3.546875.613281 1.003906-.226562 1.882813-.832031 2.453125-1.6875 1.460938-2.175781.925781-4.691406-.660156-6.097656zm0 0" fill="url(#b)"/><path d="m4.125.0195312c-.410156.0273438-.8125.0937498-1.210938.2031248-.730468.214844-1.378906.65625-1.84375 1.265625-2.757812 3.574219.195313 8.257813 4.425782 7.324219l11.351562-4.28125c.328125-.074219.617188-.269531.804688-.550781.703125-1.0625-.015625-2.351563-1.167969-2.359375l-11.886719-1.621094c-.167968 0-.328125.0117188-.472656.0195312" fill="url(#c)"/><path d="m3.375 3.375h11.25v11.25h-11.25zm0 0"/><path d="m4.78125 12.515625h4.21875v.703125h-4.21875zm3.65625-3.402344-.464844-.421875c-.371094.238282-.804687.363282-1.25.359375-1.296875.007813-2.222656-.960937-2.222656-2.160156 0-1.195313.945312-2.175781 2.25-2.175781s2.230469.964844 2.230469 2.164062v.011719c0 .429687-.132813.851563-.371094 1.207031l.429687.367188zm-1.148438-1.023437-.679687-.582032.589844-.660156.691406.625c.074219-.183594.113281-.382812.109375-.582031.011719-.347656-.117188-.683594-.359375-.933594-.238281-.246093-.570313-.390625-.917969-.390625-.746094 0-1.265625.589844-1.265625 1.3125v.011719c-.011719.347656.117188.679687.359375.929687.238282.25.570313.390626.914063.390626.195312.003906.382812-.035157.558593-.121094m2.394532-3.308594h1.585937c1.324219 0 2.238281.910156 2.238281 2.09375v.015625c0 1.183594-.914062 2.109375-2.238281 2.109375h-1.585937zm.925781.84375v2.53125h.660156c.757813 0 1.265625-.511719 1.265625-1.257812v-.007813c.019532-.339844-.109375-.671875-.351562-.914063-.242188-.238281-.570313-.367187-.914063-.351562zm0 0" fill="#fff"/></svg>