<svg height="18" viewBox="0 0 18 18" width="18" xmlns="http://www.w3.org/2000/svg"><path d="m2.472656 2.390625-2.5078122 2.488281v10.71875h15.5585942l2.503906-2.488281v-10.71875zm4.214844 2.308594c1.175781 0 2.003906.332031 2.46875.996093.476562.660157.710938 1.683594.710938 3.0625 0 .910157-.101563 1.644532-.289063 2.199219-.199219.5625-.511719.992188-.957031 1.285157l.960937 1.535156-1.175781.542968-1.015625-1.65625c-.148437.046876-.382813.066407-.703125.066407-1.1875 0-2.019531-.316407-2.484375-.953125-.46875-.636719-.703125-1.644532-.703125-3.011719 0-1.375.238281-2.394531.714844-3.0625.472656-.667969 1.304687-1.003906 2.472656-1.003906zm4.773438.449219h1.238281v1.640624h1.574219v1.054688h-1.574219v2.496094c0 .464844.035156.773437.101562.925781.070313.152344.246094.226563.523438.226563l.9375-.039063.054687.992187c-.511718.097657-.898437.144532-1.167968.144532-.648438 0-1.089844-.144532-1.332032-.441406-.238281-.292969-.363281-.847657-.363281-1.667969v-2.632813h-.867187v-1.058594h.875zm-4.765626.660156c-.714843 0-1.207031.230468-1.476562.699218-.265625.472657-.402344 1.21875-.402344 2.25 0 1.027344.128906 1.765626.390625 2.207032.257813.441406.753907.667968 1.488281.667968.730469 0 1.226563-.222656 1.484376-.65625.25-.433593.378906-1.171874.378906-2.207031 0-1.039062-.128906-1.789062-.390625-2.261719-.265625-.46875-.753907-.699218-1.472657-.699218zm0 0" fill="#41cd52"/></svg>