<svg height="18" viewBox="0 0 18 18" width="18" xmlns="http://www.w3.org/2000/svg"><path d="m16 3c-1.104167 0-2 .895833-2 2v6c0 1.104167.895833 2 2 2 .552083 0 1 .447917 1 1v1c0 1.104167-.895833 2-2 2-.552083 0-1 .447917-1 1v2c0 .552083.447917 1 1 1 3.3125 0 6-2.6875 6-6v-10c0-1.104167-.895833-2-2-2zm-11 0c-1.104167 0-2 .895833-2 2v6c0 1.104167.895833 2 2 2 .552083 0 1 .447917 1 1v1c0 1.104167-.895833 2-2 2-.552083 0-1 .447917-1 1v2c0 .552083.447917 1 1 1 3.3125 0 6-2.6875 6-6v-10c0-1.104167-.895833-2-2-2zm0 0" fill="none" stroke="#fff" stroke-linecap="round" stroke-linejoin="round" stroke-width="2" transform="scale(.75)"/></svg>