<svg height="18" viewBox="0 0 18 18" width="18" xmlns="http://www.w3.org/2000/svg"><path d="m13.453125 15.828125-2.449219-2.4375-.035156.003906v-.023437l-5.214844-5.15625 1.289063-1.238282-.757813-4.339843-3.582031 4.445312c-.605469.613281-.722656 1.617188-.285156 2.355469l2.238281 3.714844c.34375.570312.882812.9375 1.632812.910156 1.589844-.058594 2.289063-.058594 2.289063-.058594zm0 0" fill="#18b6f6"/><path d="m14.664062 8.996094c.355469-.730469.480469-1.367188.132813-2.007813l-.496094-.910156-.257812-.46875-.097657-.179687-.011718.007812-1.347656-2.335938c-.339844-.59375-.972657-.953124-1.65625-.945312l-1.179688.03125-3.53125.011719c-.664062.003906-1.277344.355469-1.617188.929687l-2.144531 4.257813 3.835938-4.773438 5.035156 5.535157-.902344.914062.539063 4.332031.007812-.011719v.011719h-.007812l.011718.011719.417969.410156 2.03125 1.980469c.085938.082031.222657-.015625.167969-.117187l-1.257812-2.46875" fill="#ac7ef4"/><path d="m11.339844 8.136719-5.046875-5.507813.71875 4.3125-1.285157 1.246094 5.230469 5.195312-.472656-4.3125zm0 0" fill="#fff"/></svg>