<svg height="18" viewBox="0 0 18 18" width="18" xmlns="http://www.w3.org/2000/svg"><path d="m16.808594 7.199219h-5.660156c-.28125 0-.511719-.230469-.511719-.511719v-5.898438c.003906-.207031-.082031-.410156-.230469-.558593-.148438-.1484378-.347656-.230469-.558594-.230469h-2.019531c-.210937 0-.414063.0820312-.5625.230469-.148437.148437-.230469.351562-.230469.558593v5.859376c0 .144531-.058594.285156-.160156.390624-.101562.101563-.242188.160157-.390625.160157l-1.855469.007812c-.304687 0-.558594-.246093-.550781-.554687l.011719-5.863282c.003906-.207031-.082032-.410156-.230469-.558593-.148437-.1484378-.347656-.230469-.558594-.230469h-2.019531c-.210938 0-.414062.0820312-.5625.230469-.148438.148437-.230469.351562-.230469.558593v16.507813c0 .382813.3125.703125.703125.703125h15.617188c.386718 0 .703125-.316406.703125-.703125v-9.394531c0-.1875-.074219-.367188-.207031-.5-.128907-.132813-.308594-.207032-.496094-.203125m-2.652344 6.195312c-.003906.503907-.414062.914063-.917969.917969h-1.597656c-.503906-.003906-.914063-.414062-.914063-.917969v-1.597656c0-.503906.410157-.914063.914063-.914063h1.597656c.503907 0 .914063.410157.917969.914063zm0 0" fill="#f60"/></svg>