<svg height="18" viewBox="0 0 18 18" width="18" xmlns="http://www.w3.org/2000/svg"><g fill="none" stroke="#fff" stroke-linecap="round" stroke-linejoin="round" stroke-width="2" transform="scale(.75)"><path d="m13 22h-9c-1.104167 0-2-.895833-2-2s.895833-2 2-2h12m-2.765625 0c.786458-.875.984375-2.130208.510417-3.208333-.473959-1.078125-1.53125-1.776042-2.708334-1.791667m4.963542-4h.010417"/><path d="m16.817708 3.9375c.848959-.895833 2.161459-1.182292 3.307292-.71875s1.890625 1.583333 1.875 2.817708-.786458 2.338542-1.942708 2.770834l1.8125 2.588541c.213541.484375.15625 1.046875-.151042 1.473959-.307292.432291-.817708.671875-1.348958.625l-2.869792-.453125c-.880208-.145834-1.776042.098958-2.453125.682291-.677083.578125-1.057292 1.427084-1.046875 2.317709"/><path d="m17 4.989583c-.005208-1.34375-.901042-2.520833-2.192708-2.880208-1.296875-.359375-2.671875.182292-3.369792 1.328125s-.552083 2.619792.364583 3.604167c-1.989583-.229167-3.979166.401041-5.46875 1.734375-1.489583 1.333333-2.338541 3.239583-2.333333 5.239583.010417 2.203125 1.796875 3.984375 4 3.984375"/></g></svg>