<svg height="18" viewBox="0 0 18 18" width="18" xmlns="http://www.w3.org/2000/svg"><path d="m5.785156.535156c-.375 0-.707031.085938-.988281.25-.273437.15625-.503906.394532-.683594.699219-.167969.289063-.292969.636719-.371093 1.039063-.144532.777343-.113282 1.746093.09375 2.804687.027343.136719.054687.269531.085937.40625-.160156.046875-.320313.097656-.480469.152344-1 .351562-1.835937.804687-2.417968 1.320312-.304688.265625-.539063.546875-.695313.835938-.171875.308593-.2578125.621093-.2578125.9375 0 .628906.3476565 1.265625 1.0078125 1.84375.621094.546875 1.5 1.019531 2.539063 1.375.097656.035156.195312.066406.292968.097656-.03125.148437-.066406.300781-.09375.453125-.199218 1.039062-.222656 1.992188-.066406 2.753906.078125.394532.207031.738282.375 1.019532.183594.300781.410156.535156.683594.691406.285156.164062.625.25 1.003906.25.515625 0 1.089844-.152344 1.710938-.457032.609374-.292968 1.230468-.71875 1.847656-1.257812.097656-.085938.195312-.171875.292968-.261719h.144532v-.003906h4.425781c.648437 0 1.203125-.09375 1.671875-.28125s.851562-.441406 1.152344-.761719c.300781-.316406.519531-.699218.660156-1.140625.140625-.4375.210938-.914062.210938-1.421875 0-.882812-.160157-1.613281-.476563-2.203125-.316406-.578125-.777344-.953125-1.390625-1.125-.007812-.003906-.015625-.011719-.015625-.023437 0-.007813.003906-.019532.011719-.023438.457031-.253906.804687-.613281 1.050781-1.074218.246094-.460938.371094-1.019532.371094-1.671876 0-1.078124-.273438-1.878906-.816407-2.410156-.539062-.53125-1.261718-.796875-2.160156-.796875h-4.847656c-.074219-.070312-.152344-.140625-.226562-.210937-.644532-.566406-1.28125-1.015625-1.902344-1.324219-.632813-.316406-1.222656-.480469-1.742188-.480469m.003906 1.265625c.324219 0 .742188.125 1.207032.367188.507812.261719 1.058594.648437 1.589844 1.121093.03125.027344.066406.058594.101562.089844-.46875.519532-.929688 1.09375-1.375 1.714844-.753906.070312-1.480469.183594-2.164062.328125-.023438-.109375-.046876-.21875-.066407-.324219l-.003906-.011718c-.160156-.828126-.199219-1.585938-.113281-2.1875.074218-.519532.246094-.890626.464844-1.019532.089843-.050781.210937-.078125.359374-.078125zm3.839844 2.394531v9.609376l-.570312-.703126-.371094-.460937c-.1875-.234375-.488281-.660156-.847656-1.207031-.203125-.316406-.402344-.632813-.589844-.957032l-.011719-.015624c-.171875-.296876-.300781-.535157-.402343-.730469-.128907-.238281-.253907-.484375-.378907-.726563l.023438-.046875c.136719-.273437.277343-.550781.421875-.816406l.003906-.003906.152344-.300781.226562-.375.003906-.003907c.085938-.144531.171876-.289062.261719-.433593l.15625-.257813c.210938-.347656.378907-.597656.640625-.964844.144532-.195312.28125-.371093.492188-.636719h.003906l.007812-.015624.003907-.003907c.089843-.109375.175781-.21875.261719-.324219l.003906-.003906v-.003906c.167968-.207031.339844-.414062.507812-.617188m1.78125.1875h2.847656c.476563 0 .84375.132813 1.097657.398438.25.265625.378906.726562.378906 1.378906 0 .578125-.140625 1.023438-.421875 1.335938-.28125.308594-.632812.460937-1.054688.460937h-2.847656c-.011718 0-.019531-.007812-.019531-.023437v-3.527344c0-.011719.007813-.023438.019531-.023438m-5.015625 2.097657c-.207031.335937-.402343.679687-.589843 1.023437-.113282-.285156-.214844-.570312-.3125-.863281.300781-.058594.601562-.113281.902343-.160156m-2.132812.472656c.214843.664063.484375 1.351563.796875 2.046875-.320313.703125-.589844 1.402344-.808594 2.074219-.074219-.023438-.148438-.046875-.222656-.070313-.863282-.296875-1.585938-.679687-2.082032-1.105468-.382812-.324219-.609374-.667969-.609374-.917969 0-.257813.226562-.589844.625-.910157.460937-.371093 1.117187-.714843 1.898437-.984374.132813-.046876.265625-.089844.402344-.132813zm7.148437 2.636719h3.085938c.535156 0 .945312.167968 1.242187.515625.296875.347656.445313.835937.445313 1.480469 0 .652343-.148438 1.160156-.445313 1.515624-.292969.359376-.707031.535157-1.242187.535157h-3.085938c-.011718 0-.019531-.011719-.019531-.023438v-4c0-.011719.007813-.023437.019531-.023437zm-5.605468.898437c.195312.355469.398437.707031.609374 1.050781-.3125-.042968-.621093-.09375-.929687-.15625.097656-.300781.203125-.597656.320313-.894531m-.664063 2.117188c.671875.136719 1.40625.242187 2.1875.308593.449219.625.914063 1.203126 1.386719 1.722657-.058594.054687-.117188.109375-.175782.160156-.683593.597656-1.371093 1.027344-1.984374 1.246094l-.011719.003906c-.277344.097656-.523438.148437-.730469.148437-.15625 0-.277344-.027343-.371094-.078124-.222656-.128907-.394531-.492188-.472656-.996094-.09375-.585938-.0625-1.324219.09375-2.136719.023438-.125.046875-.253906.078125-.378906zm0 0" fill="#41e0ff"/></svg>