<svg height="18" viewBox="0 0 18 18" width="18" xmlns="http://www.w3.org/2000/svg"><path d="m8.101562 8.671875c-.238281.035156-.402343.253906-.367187.484375.023437.171875.144531.3125.3125.355469 0 0 1.050781.347656 2.835937.496093 1.4375.117188 3.066407-.105468 3.066407-.105468.238281-.003906.425781-.203125.421875-.441406-.003906-.113282-.050782-.222657-.136719-.300782-.082031-.078125-.191406-.121094-.308594-.121094-.027343 0-.054687.007813-.085937.011719 0 0-1.59375.199219-2.886719.09375-1.710937-.136719-2.640625-.449219-2.640625-.449219-.066406-.023437-.140625-.035156-.210938-.023437zm0-2.136719c-.238281.03125-.402343.25-.367187.480469.023437.171875.144531.3125.3125.355469 0 0 1.050781.347656 2.835937.496094 1.4375.117187 3.066407-.101563 3.066407-.101563.238281-.007813.425781-.207031.421875-.445313-.003906-.113281-.050782-.222656-.136719-.300781-.082031-.078125-.191406-.121093-.308594-.117187-.027343 0-.054687.003906-.085937.007812 0 0-1.59375.199219-2.886719.09375-1.710937-.136718-2.640625-.449218-2.640625-.449218-.066406-.023438-.140625-.035157-.210938-.023438zm0-2.140625c-.238281.03125-.402343.25-.367187.480469.023437.171875.144531.3125.3125.359375 0 0 1.050781.34375 2.835937.492187 1.4375.121094 3.066407-.101562 3.066407-.101562.238281-.007812.425781-.207031.421875-.445312-.003906-.113282-.050782-.222657-.136719-.300782-.082031-.078125-.191406-.121094-.308594-.117187-.027343 0-.054687.003906-.085937.007812 0 0-1.59375.199219-2.886719.09375-1.710937-.136719-2.640625-.449219-2.640625-.449219-.066406-.023437-.140625-.027343-.210938-.023437zm0-2.136719c-.238281.035157-.402343.25-.367187.484376.023437.167968.144531.308593.3125.355468 0 0 1.050781.347656 2.835937.492188 1.4375.121094 3.066407-.101563 3.066407-.101563.238281-.003906.425781-.203125.421875-.441406-.003906-.117187-.050782-.222656-.136719-.304687-.082031-.078126-.191406-.121094-.308594-.117188-.027343 0-.054687.007812-.085937.011719 0 0-1.59375.199219-2.886719.089843-1.710937-.136718-2.640625-.445312-2.640625-.445312-.066406-.027344-.140625-.035156-.210938-.023438zm-2.996093-2.257812c-2.246094.015625-3.082031.710938-3.082031.710938v16.785156s.816406-.703125 3.449218-.597656c2.636719.109374 3.175782 1.035156 6.410156 1.097656 3.238282.0625 4.046876-.5 4.046876-.5l.046874-17.109375s-1.453124.414062-4.292968.4375c-2.832032.019531-3.511719-.722657-6.113282-.808594-.15625-.01171875-.3125-.015625-.464843-.015625m1.878906 1.09375s1.363281.449219 3.878906.574219c2.128907.109375 4.257813-.207031 4.257813-.207031v15.207031s-1.078125.570312-3.777344.375c-2.085938-.148438-4.386719-.941407-4.386719-.941407l.027344-15.003906zm-1.308594.398438c.238281 0 .4375.195312.4375.4375 0 .246093-.195312.4375-.4375.4375 0 0-.707031.007812-1.136719.046874-.722656.070313-1.214843.332032-1.214843.332032-.210938.117187-.476563.03125-.585938-.179688-.113281-.210937-.027343-.476562.183594-.585937.207031-.105469.640625-.339844 1.53125-.425781.515625-.054688 1.222656-.0625 1.222656-.0625m-.421875 2.148437c.238282-.007813.421875 0 .421875 0 .238281.027344.40625.242187.378907.480469-.023438.199218-.179688.355468-.378907.378906 0 0-.707031.007812-1.136719.046875-.722656.074219-1.214843.335937-1.214843.335937-.210938.113282-.476563.027344-.585938-.183593-.113281-.210938-.027343-.476563.183594-.585938 0 0 .640625-.339843 1.53125-.425781.261719-.03125.5625-.042969.800781-.050781zm.421875 2.132813c.238281 0 .4375.191406.4375.4375 0 .246093-.195312.4375-.4375.4375 0 0-.707031-.003907-1.136719.039062-.722656.074219-1.214843.335938-1.214843.335938-.210938.113281-.476563.027343-.585938-.183594-.113281-.207032-.027343-.476563.183594-.582032 0 0 .640625-.339843 1.53125-.425781.515625-.0625 1.222656-.058593 1.222656-.058593" fill="#32322a"/></svg>