<svg height="18" viewBox="0 0 18 18" width="18" xmlns="http://www.w3.org/2000/svg"><g fill="none" stroke="#fff" stroke-linecap="round" stroke-linejoin="round" stroke-width="2" transform="scale(.75)"><path d="m7 19h-2.1875c-.640625 0-1.234375-.333333-1.567708-.880208-.317709-.552084-.317709-1.234375-.005209-1.786459l3.958334-6.833333m3.802083 9.5h8.203125c.640625-.005208 1.229167-.34375 1.557292-.890625.3125-.546875.3125-1.223958 0-1.776042l-1.229167-2.119791"/><path d="m14 16-3 3 3 3m-5.708333-8.40625-1.09375-4.09375-4.098959 1.098958m6.244792-4.786458 1.09375-1.895833c.317708-.552084.90625-.901042 1.546875-.916667.635417 0 1.229167.338542 1.546875.885417l3.942708 6.84375"/><path d="m13.380208 9.635417 4.09375 1.09375 1.098959-4.09375"/></g></svg>