<svg height="18" viewBox="0 0 18 18" width="18" xmlns="http://www.w3.org/2000/svg"><path d="m17.128906 13.09375c-.941406.492188-5.824218 2.488281-6.863281 3.035156-1.039063.550782-1.617187.535156-2.433594.140625-.816406-.394531-6.003906-2.472656-6.945312-2.925781-.464844-.222656-.703125-.40625-.703125-.589844v-1.785156s6.75-1.476562 7.847656-1.855469c1.09375-.394531 1.460938-.410156 2.390625-.070312.925781.335937 6.480469 1.335937 7.394531 1.671875v1.757812c0 .183594-.210937.378906-.6875.621094" fill="#a41e11"/><path d="m17.128906 11.320312c-.941406.492188-5.824218 2.488282-6.863281 3.039063-1.039063.546875-1.617187.53125-2.433594.140625-.816406-.394531-6.003906-2.492188-6.945312-2.941406-.9296878-.449219-.9570315-.757813-.042969-1.109375.914062-.367188 6.074219-2.390625 7.171875-2.769531 1.097656-.394532 1.460937-.410157 2.390625-.070313.929688.335937 5.78125 2.261719 6.695312 2.601563.941407.335937.96875.617187.027344 1.109374" fill="#d82c20"/><path d="m17.128906 10.195312c-.941406.492188-5.824218 2.488282-6.863281 3.039063-1.039063.53125-1.617187.53125-2.433594.140625-.816406-.394531-6.003906-2.492188-6.945312-2.941406-.464844-.222656-.703125-.40625-.703125-.589844v-1.785156s6.75-1.476563 7.847656-1.855469c1.09375-.394531 1.460938-.410156 2.390625-.070313.925781.335938 6.480469 1.335938 7.394531 1.671876v1.757812c0 .183594-.210937.378906-.6875.632812" fill="#a41e11"/><path d="m17.128906 8.410156c-.941406.492188-5.824218 2.488282-6.863281 3.035156-1.039063.535157-1.617187.535157-2.433594.140626-.816406-.390626-6.003906-2.488282-6.945312-2.9375-.9414065-.449219-.9570315-.757813-.042969-1.109376.914062-.367187 6.074219-2.390624 7.171875-2.773437 1.097656-.390625 1.460937-.40625 2.390625-.070313.929688.339844 5.78125 2.265626 6.695312 2.601563.941407.339844.96875.621094.027344 1.113281" fill="#d82c20"/><path d="m17.128906 7.171875c-.941406.492187-5.824218 2.488281-6.863281 3.039063-1.039063.53125-1.617187.53125-2.433594.140624-.816406-.382812-6.003906-2.476562-6.945312-2.925781-.464844-.226562-.71875-.410156-.71875-.589843v-1.789063s6.75-1.476563 7.847656-1.855469c1.097656-.394531 1.460937-.40625 2.390625-.070312.929688.339844 6.484375 1.335937 7.398438 1.675781v1.757813c.011718.179687-.199219.363281-.675782.617187" fill="#a41e11"/><path d="m17.128906 5.386719c-.941406.492187-5.824218 2.488281-6.863281 3.035156-1.039063.535156-1.617187.535156-2.433594.140625-.816406-.390625-6.003906-2.472656-6.945312-2.921875-.9414065-.453125-.9570315-.761719-.042969-1.113281.914062-.363282 6.074219-2.390625 7.171875-2.769532 1.097656-.394531 1.460937-.40625 2.390625-.070312s5.78125 2.265625 6.695312 2.601562c.941407.335938.96875.617188.027344 1.097657" fill="#d82c20"/><path d="m11.304688 3.671875-1.515626.167969-.351562.816406-.550781-.914062-1.757813-.15625 1.308594-.476563-.394531-.734375 1.238281.480469 1.152344-.378907-.308594.757813zm-1.953126 3.992187-2.855468-1.179687 4.09375-.621094zm0 0" fill="#fff"/><path d="m7.578125 4.976562c0 .46875-.972656.84375-2.179687.84375-1.203126 0-2.179688-.375-2.179688-.84375 0-.464843.976562-.84375 2.179688-.84375 1.207031 0 2.179687.378907 2.179687.84375zm0 0" fill="#fff"/><path d="m13.121094 3.894531 2.417968.957031-2.417968.957032zm0 0" fill="#7a0c00"/><path d="m10.449219 4.964844 2.671875-1.070313v1.914063l-.269532.113281zm0 0" fill="#ad2115"/></svg>