<svg height="18" viewBox="0 0 18 18" width="18" xmlns="http://www.w3.org/2000/svg"><g fill="none" stroke="#fff" stroke-linecap="round" stroke-linejoin="round" stroke-width="2" transform="scale(.75)"><path d="m12 11.21875c-1-1.223958-2-2.21875-2-3.21875 0-1.104167.895833-2 2-2s2 .895833 2 2c0 1-1 2-2.010417 3.21875m.010417 6.78125 2.567708-3.5"/><path d="m6.244792 9.015625c1.302083-1.885417 3.453125-3.015625 5.75-3.015625 2.296875-.005208 4.447916 1.119792 5.755208 3.005208m-8.401042 5.526042 2.651042-3.3125"/><path d="m9.348958 14.53125c-1.619791-2.286458-3.348958-4.3125-3.348958-7.53125 0-2.760417 2.6875-5 6-5s6 2.239583 6 5c-.005208 3.21875-1.776042 5.234375-3.432292 7.5l3.557292 4.526042c.171875.213541.244792.489583.203125.760416-.036458.270834-.182292.510417-.40625.671875l-1.890625 1.359375c-.442708.317709-1.057292.21875-1.385417-.213541l-2.645833-3.604167-2.677083 3.59375c-.328125.4375-.947917.536458-1.390625.213542l-1.864584-1.354167c-.21875-.161458-.364583-.401042-.40625-.666667-.036458-.270833.036459-.541666.203125-.755208zm0 0"/></g></svg>