<svg height="18" viewBox="0 0 18 18" width="18" xmlns="http://www.w3.org/2000/svg"><path d="m12.046875 11.992188-2.441406.058593-.921875 2.109375-2.390625.625-1.5 1.367188h12.066406c.625 0 1.136719-.511719 1.136719-1.132813v-5.996093l-4.28125 1.066406zm-8.796875.175781-2.027344 1.742187c-.019531-.125-.070312-.25-.15625-.355468l-1.066406.898437c.226562.269531.605469.320313.898438.140625l1.984374-.898438zm11.785156-6.121094.246094.644531c.378906-.09375.96875-.515625 1.378906-.835937-.015625.113281-.007812.226562.03125.335937l1.308594-.484375c-.136719-.359375-.535156-.542969-.898438-.410156-.007812.003906-.023437.007813-.03125.019531l.003907-.003906zm2.257813 1.09375h-.007813l-2.398437-.207031-.546875-1.433594v-1.523438c.109375.058594.226562.09375.359375.09375.398437 0 .71875-.304687.757812-.6875l.574219-.378906-.027344-.769531c-.003906-.078125-.066406-.140625-.140625-.140625l-.71875-.011719c-.148437-.207031-.425781-.300781-.671875-.1875l-1.574218.742188c.003906.003906.003906.007812.003906.011719.050781.105468.128906.191406.226562.25-1.917968.992187-2.730468 2.332031-2.730468 2.332031l-7.328126 3.945312c-.429687.230469-.96875.070313-1.199218-.359375-.230469-.425781-.070313-.964844.359375-1.199218l2.078125-1.117188c.527344-.28125.835937-.808594.875-1.363281l-1.246094.671875-2.078125 1.117187c-.8125.4375-1.117187 1.453125-.683594 2.265625.300781.558594.878907.878906 1.476563.878906.269531 0 .539062-.0625.789062-.199218l.941406-.507813c-.070312.382813-.035156.777344.109376 1.140625.050781.128906.082031.207032.082031.207032.332031.71875-.105469 1.285156-.679688 1.285156h-.183593l-.660157 2.871094c-.089843-.09375-.207031-.160157-.332031-.191407l-.328125 1.355469c.332031.078125.660156-.09375.792969-.394531l1.496094-2.679688c1.890624-.183593 2.882812-1.464843 2.839843-3.269531 1.960938.117188 4.566407-1.113281 5.730469-2.792969.878906 1.117188 2.546875.960938 3.285156.679688l.144532-.050781c-.058594.09375-.082032.207031-.082032.332031l1.394532-.015625c-.003907-.398438-.316407-.703125-.699219-.699219zm-12.992188-2.539063c.066407.125.097657.261719.101563.398438l.734375-.394531c-.03125-.132813-.078125-.261719-.144531-.378907l-.035157-.074218-.695312.375zm-.269531-.5.691406-.371093-.089844-.164063c-.101562-.191406-.34375-.265625-.535156-.164062-.191406.097656-.261718.339844-.164062.53125zm0 0" fill="#ffbe00"/><path d="m14.664062 2.265625c-.125 0-.226562.101563-.226562.226563s.101562.230468.226562.230468c.121094 0 .226563-.101562.226563-.230468 0-.125-.105469-.226563-.226563-.226563m-1.316406 1.683594c-.054687.03125-.085937.070312-.085937.070312s.097656.109375.210937.109375c.113282 0 .210938-.109375.210938-.109375s-.03125-.039062-.085938-.070312c.050782-.023438.097656-.050781.140625-.085938 0 0-.054687-.058593-.140625-.089843.054688-.03125.085938-.070313.085938-.070313s-.097656-.109375-.210938-.109375c-.113281 0-.210937.109375-.210937.109375s.03125.039063.085937.070313c-.082031.035156-.140625.089843-.140625.089843s.058594.058594.140625.085938m-.757812.277343s-.097656-.109374-.210938-.109374c-.117187 0-.210937.109374-.210937.109374s.03125.039063.085937.074219c-.082031.03125-.140625.085938-.140625.085938s.054688.054687.140625.085937c-.054687.03125-.085937.074219-.085937.074219s.097656.109375.210937.109375c.117188 0 .210938-.109375.210938-.109375s-.035156-.042969-.089844-.074219c.082031-.03125.144531-.085937.144531-.085937s-.054687-.054688-.144531-.085938c.054688-.039062.089844-.074219.089844-.074219m1 1.066407s-.03125-.042969-.085938-.074219c.050782-.019531.101563-.050781.140625-.085938 0 0-.054687-.054687-.140625-.085937.054688-.03125.085938-.074219.085938-.074219s-.09375-.109375-.207032-.109375c-.117187 0-.210937.109375-.210937.109375s.03125.042969.085937.074219c-.082031.03125-.140624.085937-.140624.085937s.054687.054688.140624.085938c-.054687.03125-.085937.074219-.085937.074219s.09375.109375.210937.109375c.113282 0 .207032-.109375.207032-.109375m-1.136719.378906c.054687-.03125.085937-.074219.085937-.074219s-.097656-.109375-.210937-.109375-.210937.109375-.210937.109375.035156.042969.089843.074219c-.054687.019531-.101562.050781-.144531.085937 0 0 .054688.054688.144531.085938-.054687.03125-.089843.074219-.089843.074219s.097656.109375.210937.109375.210937-.109375.210937-.109375-.03125-.042969-.085937-.074219c.082031-.03125.140625-.085938.140625-.085938s-.054688-.050781-.140625-.085937m-1.082031-.328125c.054687-.03125.085937-.074219.085937-.074219s-.09375-.109375-.210937-.109375c-.117188 0-.207032.109375-.207032.109375s.03125.042969.085938.074219c-.082031.03125-.140625.085938-.140625.085938s.054687.054687.140625.085937c-.054688.03125-.085938.074219-.085938.074219s.09375.109375.207032.109375c.121094 0 .210937-.109375.210937-.109375s-.03125-.042969-.085937-.074219c.082031-.03125.140625-.085937.140625-.085937s-.054688-.050782-.140625-.085938m-.414063 1.28125s-.03125-.042969-.085937-.074219c.082031-.03125.140625-.085937.140625-.085937s-.054688-.054688-.140625-.085938c.054687-.03125.085937-.074218.085937-.074218s-.097656-.109376-.210937-.109376c-.117188 0-.210938.109376-.210938.109376s.035156.042968.089844.074218c-.085938.03125-.144531.085938-.144531.085938s.054687.054687.144531.085937c-.054688.03125-.089844.074219-.089844.074219s.097656.109375.210938.109375c.113281 0 .210937-.109375.210937-.109375m-1.851562.1875s.09375.109375.210937.109375c.113282 0 .207032-.109375.207032-.109375s-.03125-.042969-.085938-.074219c.082031-.03125.140625-.085937.140625-.085937s-.054687-.054688-.140625-.085938c.054688-.035156.085938-.074218.085938-.074218s-.09375-.109376-.207032-.109376c-.117187 0-.210937.109376-.210937.109376s.03125.039062.085937.074218c-.082031.03125-.140625.085938-.140625.085938s.054688.054687.140625.085937c-.03125.019531-.0625.046875-.085937.074219zm1.015625.652344c.054687-.035156.085937-.074219.085937-.074219s-.09375-.109375-.207031-.109375c-.121094 0-.210938.109375-.210938.109375s.03125.039063.085938.074219c-.050781.019531-.097656.046875-.140625.085937 0 0 .054687.054688.140625.085938-.054688.03125-.085938.074219-.085938.074219s.09375.109374.210938.109374.207031-.109374.207031-.109374-.03125-.042969-.085937-.074219c.050781-.019531.101562-.050781.140625-.085938 0 0-.058594-.058593-.140625-.085937m1.117187.238281c.054688-.03125.085938-.070313.085938-.070313s-.09375-.109374-.207031-.109374c-.121094 0-.210938.109374-.210938.109374s.03125.039063.085938.070313c-.050782.023437-.097657.050781-.140626.089844 0 0 .054688.054687.140626.085937-.054688.03125-.085938.070313-.085938.070313s.09375.109375.210938.109375c.117187 0 .207031-.109375.207031-.109375s-.03125-.039063-.085938-.070313c.082031-.03125.140625-.085937.140625-.085937s-.058594-.050781-.140625-.089844m.914063-.878906c.054687-.03125.085937-.070313.085937-.070313s-.097656-.113281-.210937-.113281c-.117188 0-.210938.113281-.210938.113281s.03125.039063.085938.070313c-.082032.03125-.140625.085937-.140625.085937s.054687.054688.140625.089844c-.054688.03125-.085938.070312-.085938.070312s.097656.109376.210938.109376c.117187 0 .210937-.109376.210937-.109376s-.03125-.039062-.085937-.070312c.082031-.035156.140625-.089844.140625-.089844s-.058594-.054687-.140625-.085937m1.628906-.734375c.054688-.03125.089844-.070313.089844-.070313s-.097656-.109375-.210938-.109375c-.113281 0-.210937.109375-.210937.109375s.03125.039063.085937.070313c-.082031.03125-.140625.085937-.140625.085937s.054688.054688.140625.089844c-.054687.03125-.085937.070313-.085937.070313s.097656.109374.210937.109374c.113282 0 .210938-.109374.210938-.109374s-.035156-.039063-.089844-.070313c.082031-.035156.144531-.089844.144531-.089844s-.0625-.058593-.144531-.085937m-5.359375 1.386718c.054687-.03125.085937-.074218.085937-.074218s-.097656-.109375-.210937-.109375-.207031.109375-.207031.109375.03125.042968.085937.074218c-.082031.03125-.140625.085938-.140625.085938s.054688.054688.140625.085938c-.054687.035156-.085937.074218-.085937.074218s.09375.109375.207031.109375.210937-.109375.210937-.109375-.03125-.039062-.085937-.074218c.082031-.03125.140625-.085938.140625-.085938s-.058594-.054688-.140625-.085938m1.085937 1.070313c.054688-.03125.085938-.070313.085938-.070313s-.097656-.109374-.210938-.109374c-.113281 0-.210937.109374-.210937.109374s.035156.039063.089844.070313c-.054688.023437-.101563.050781-.144531.089844 0 0 .054687.054687.144531.085937-.054688.03125-.089844.070313-.089844.070313s.097656.109375.210937.109375c.113282 0 .210938-.109375.210938-.109375s-.03125-.039063-.085938-.070313c.082032-.03125.140626-.085937.140626-.085937s-.054688-.054688-.140626-.089844zm-1.386718.199219c.054687-.035156.085937-.074219.085937-.074219s-.097656-.109375-.210937-.109375c-.117188 0-.207032.109375-.207032.109375s.03125.039063.085938.074219c-.082031.03125-.140625.085937-.140625.085937s.054687.054688.140625.085938c-.054688.03125-.085938.074219-.085938.074219s.09375.109374.207032.109374c.121094 0 .210937-.109374.210937-.109374s-.03125-.042969-.085937-.074219c.082031-.03125.140625-.085938.140625-.085938s-.054688-.054687-.140625-.085937m-1.132813-.800782c.054688-.03125.085938-.070312.085938-.070312s-.09375-.109375-.207031-.109375c-.121094 0-.210938.109375-.210938.109375s.03125.039062.085938.070312c-.050782.023438-.097657.050782-.140626.085938 0 0 .054688.058594.140626.089844-.054688.03125-.085938.070312-.085938.070312s.097656.109375.210938.109375c.117187 0 .207031-.109375.207031-.109375s-.03125-.039062-.085938-.070312c.082031-.03125.140625-.089844.140625-.089844s-.054687-.054688-.140625-.085938zm-1.605469 1.035157c-.054687.03125-.085937.074219-.085937.074219s.097656.109374.210937.109374c.113282 0 .210938-.109374.210938-.109374s-.035156-.042969-.089844-.074219c.082032-.03125.144532-.085938.144532-.085938s-.054688-.054687-.144532-.085937c.054688-.03125.089844-.074219.089844-.074219s-.097656-.109375-.210938-.109375c-.113281 0-.210937.109375-.210937.109375s.03125.042969.085937.074219c-.082031.03125-.140624.085937-.140624.085937s.058593.050781.140624.085938m1.445313.382812c.054687-.03125.089844-.070312.089844-.070312s-.097657-.109375-.210938-.109375c-.117187 0-.210937.109375-.210937.109375s.03125.039062.085937.070312c-.082031.03125-.140625.085938-.140625.085938s.054688.054687.140625.089843c-.054687.03125-.085937.070313-.085937.070313s.097656.109375.210937.109375c.117188 0 .210938-.109375.210938-.109375s-.035157-.039063-.089844-.070313c.082031-.035156.144531-.089843.144531-.089843s-.0625-.058594-.144531-.085938m-.234375 1.175781c.054688-.03125.085938-.070312.085938-.070312s-.097657-.109375-.210938-.109375c-.117188 0-.207031.109375-.207031.109375s.03125.039062.085937.070312c-.082031.035157-.140625.089844-.140625.089844s.054688.054688.140625.085938c-.054687.03125-.085937.070312-.085937.070312s.09375.109375.207031.109375c.121094 0 .210938-.109375.210938-.109375s-.03125-.039062-.085938-.070312c.050781-.023438.097656-.050782.140625-.085938 0 0-.058594-.054687-.140625-.089844m-1.101562-.171874s-.03125-.039063-.085938-.074219c.082031-.03125.140625-.085938.140625-.085938s-.054687-.054687-.140625-.085937c.054688-.03125.085938-.074219.085938-.074219s-.09375-.109375-.207032-.109375c-.121094 0-.210937.109375-.210937.109375s.03125.042969.085937.074219c-.082031.03125-.140625.085937-.140625.085937s.054688.054688.140625.085938c-.054687.035156-.085937.074219-.085937.074219s.097656.109374.210937.109374c.109375.003907.207032-.109374.207032-.109374m.285156 1.113281c.054687-.03125.085937-.074219.085937-.074219s-.09375-.109375-.210937-.109375c-.117188 0-.207032.109375-.207032.109375s.03125.042969.085938.074219c-.082031.03125-.140625.085937-.140625.085937s.054687.054688.140625.085938c-.054688.03125-.085938.074218-.085938.074218s.09375.109376.207032.109376c.121094 0 .210937-.109376.210937-.109376s-.03125-.042968-.085937-.074218c.082031-.03125.140625-.085938.140625-.085938s-.054688-.054687-.140625-.085937" fill="#0f2647"/></svg>