<svg height="18" viewBox="0 0 18 18" width="18" xmlns="http://www.w3.org/2000/svg" xmlns:xlink="http://www.w3.org/1999/xlink"><filter id="a" height="100%" width="100%" x="0%" y="0%"><feColorMatrix color-interpolation-filters="sRGB" values="0 0 0 0 1 0 0 0 0 1 0 0 0 0 1 0 0 0 1 0"/></filter><linearGradient id="b"><stop offset="0" stop-color="#ff6533"/><stop offset=".157" stop-color="#ff5633"/><stop offset=".434" stop-color="#ff4333"/><stop offset=".714" stop-color="#ff3733"/><stop offset="1" stop-color="#f33"/></linearGradient><linearGradient id="c" gradientTransform="matrix(.140625 0 0 -.140625 0 18.28125)" gradientUnits="userSpaceOnUse" x1="51.359001" x2="84.819" xlink:href="#b" y1="61.956001" y2="54.134998"/><linearGradient id="d" gradientTransform="matrix(.140625 0 0 -.140625 0 18.28125)" gradientUnits="userSpaceOnUse" x1="46.123001" x2="106.088997" y1="73.046997" y2="26.551001"><stop offset="0" stop-color="#bf3338"/><stop offset="1" stop-color="#f33"/></linearGradient><linearGradient id="e" gradientTransform="matrix(.140625 0 0 -.140625 0 18.28125)" gradientUnits="userSpaceOnUse" x1="48.083" x2="56.773998" xlink:href="#b" y1="63.893002" y2="54.768002"/><linearGradient id="f" gradientTransform="matrix(.140625 0 0 -.140625 0 18.28125)" gradientUnits="userSpaceOnUse" x1="63.884998" x2="61.278" xlink:href="#b" y1="48.183998" y2="85.555"/><linearGradient id="g" gradientTransform="matrix(.140625 0 0 -.140625 0 18.28125)" gradientUnits="userSpaceOnUse" x1="52.589001" x2="64.933998" y1="64.533997" y2="56.139"><stop offset="0" stop-color="#fbb040"/><stop offset="1" stop-color="#fb8840"/></linearGradient><linearGradient id="h" gradientTransform="matrix(.140625 0 0 -.140625 0 18.28125)" gradientUnits="userSpaceOnUse" x1="65.237" x2="52.636002" y1="111.996002" y2="-26.622"><stop offset="0" stop-color="#fff"/><stop offset="1" stop-color="#fff" stop-opacity="0"/></linearGradient><mask id="i"><g filter="url(#a)"><path d="m-1.8-1.8h21.6v21.6h-21.6z" fill-opacity=".3"/></g></mask><clipPath id="j"><path d="m0 0h18v18h-18z"/></clipPath><path d="m15.671875 6.023438c0-1.027344-.269531-1.988282-.742187-2.824219-1.257813-1.292969-3.988282-1.59375-4.667969-.007813-.695313 1.628906 1.171875 3.4375 1.988281 3.292969 1.039062-.183594-.183594-2.566406-.183594-2.566406 1.589844 2.992187 1.222656 2.078125-1.648437 4.828125-2.875 2.75-5.808594 8.550781-6.234375 8.792968-.019532.015626-.035156.023438-.058594.03125h11.265625c.199219 0 .328125-.210937.238281-.386718l-2.945312-5.828125c-.0625-.128907-.019532-.28125.105468-.351563 1.722657-.992187 2.882813-2.847656 2.882813-4.980468" fill="url(#c)"/><path d="m15.671875 6.023438c0-1.027344-.269531-1.988282-.742187-2.824219-1.257813-1.292969-3.988282-1.59375-4.667969-.007813-.695313 1.628906 1.171875 3.4375 1.988281 3.292969 1.039062-.183594-.183594-2.566406-.183594-2.566406 1.589844 2.992187 1.222656 2.078125-1.648437 4.828125-2.875 2.75-5.808594 8.550781-6.234375 8.792968-.019532.015626-.035156.023438-.058594.03125h11.265625c.199219 0 .328125-.210937.238281-.386718l-2.945312-5.828125c-.0625-.128907-.019532-.28125.105468-.351563 1.722657-.992187 2.882813-2.847656 2.882813-4.980468" fill="url(#d)"/><path d="m4.183594 17.539062c.425781-.242187 3.359375-6.046874 6.234375-8.796874 2.871093-2.75 3.238281-1.832032 1.648437-4.828126 0 0-6.082031 8.523438-8.28125 12.742188" fill="url(#e)"/><path d="m5.039062 9.902344c4.105469-7.550782 4.644532-8.308594 6.78125-8.308594 1.125 0 2.257813.503906 2.992188 1.40625-1-1.609375-2.769531-2.6875-4.792969-2.71875h-6.976562c-.144531 0-.265625.117188-.265625.265625v14.0625c.417968-1.074219 1.121094-2.609375 2.261718-4.707031" fill="url(#f)"/><path d="m10.417969 8.742188c-2.875 2.75-5.808594 8.554687-6.234375 8.796874-.429688.246094-1.144532.277344-1.527344-.152343-.40625-.453125-1.039062-1.191407 2.382812-7.484375 4.105469-7.550782 4.644532-8.308594 6.78125-8.308594 1.125 0 2.257813.503906 2.992188 1.40625.039062.066406.078125.132812.121094.199219-1.257813-1.292969-3.988282-1.59375-4.667969-.007813-.695313 1.628906 1.171875 3.4375 1.988281 3.292969 1.039063-.183594-.183594-2.566406-.183594-2.566406 1.585938 2.992187 1.21875 2.074219-1.652343 4.824219" fill="url(#g)"/><g mask="url(#i)"><g clip-path="url(#j)"><path d="m5.375 10.238281c4.105469-7.550781 4.644531-8.308593 6.78125-8.308593.925781 0 1.859375.34375 2.566406.96875-.730468-.839844-1.820312-1.304688-2.902344-1.304688-2.136718 0-2.675781.757812-6.78125 8.308594-3.421874 6.292968-2.789062 7.03125-2.382812 7.484375.058594.066406.125.121093.195312.167969-.359374-.519532-.515624-1.726563 2.523438-7.316407" fill="url(#h)"/></g></g></svg>