<svg height="18" viewBox="0 0 18 18" width="18" xmlns="http://www.w3.org/2000/svg"><path d="m4.765625 3.15625c0 .972656-.765625 1.757812-1.703125 1.757812-.941406 0-1.703125-.785156-1.703125-1.757812 0-.96875.761719-1.753906 1.703125-1.753906.9375 0 1.703125.785156 1.703125 1.753906zm0 5.984375c0 .96875-.765625 1.753906-1.703125 1.753906-.941406 0-1.703125-.785156-1.703125-1.753906s.761719-1.753906 1.703125-1.753906c.9375 0 1.703125.785156 1.703125 1.753906m0 5.984375c0 .96875-.765625 1.753906-1.703125 1.753906-.941406 0-1.703125-.785156-1.703125-1.753906s.761719-1.757812 1.703125-1.757812c.9375 0 1.703125.789062 1.703125 1.757812zm5.9375-5.984375c0 .96875-.761719 1.753906-1.703125 1.753906s-1.703125-.785156-1.703125-1.753906.761719-1.753906 1.703125-1.753906 1.703125.785156 1.703125 1.753906m0-5.984375c0 .972656-.761719 1.757812-1.703125 1.757812s-1.703125-.785156-1.703125-1.757812c0-.96875.761719-1.753906 1.703125-1.753906s1.703125.785156 1.703125 1.753906zm5.9375 5.984375c0 .96875-.761719 1.753906-1.703125 1.753906-.9375 0-1.703125-.785156-1.703125-1.753906s.765625-1.753906 1.703125-1.753906c.941406 0 1.703125.785156 1.703125 1.753906m0-5.984375c0 .972656-.761719 1.757812-1.703125 1.757812-.9375 0-1.703125-.785156-1.703125-1.757812 0-.96875.765625-1.753906 1.703125-1.753906.941406 0 1.703125.785156 1.703125 1.753906zm0 11.96875c0 .96875-.761719 1.753906-1.703125 1.753906-.9375 0-1.703125-.785156-1.703125-1.753906s.765625-1.757812 1.703125-1.757812c.941406 0 1.703125.789062 1.703125 1.757812zm-5.9375 0c0 .96875-.761719 1.753906-1.703125 1.753906s-1.703125-.785156-1.703125-1.753906.761719-1.757812 1.703125-1.757812 1.703125.789062 1.703125 1.757812zm0 0" fill="#22314e"/></svg>