<svg height="18" viewBox="0 0 18 18" width="18" xmlns="http://www.w3.org/2000/svg"><g fill="none" stroke="#fff" stroke-linecap="round" stroke-linejoin="round" stroke-width="2" transform="scale(.75)"><path d="m9 19c0 1.65625-1.34375 3-3 3s-3-1.34375-3-3 1.34375-3 3-3 3 1.34375 3 3zm0 0"/><path d="m9 19h8.5c1.932292 0 3.5-1.567708 3.5-3.5s-1.567708-3.5-3.5-3.5h-11c-1.932292 0-3.5-1.567708-3.5-3.5s1.567708-3.5 3.5-3.5h8.5"/><path d="m21 5c0 1.65625-1.34375 3-3 3s-3-1.34375-3-3 1.34375-3 3-3 3 1.34375 3 3zm0 0"/></g></svg>