<svg height="18" viewBox="0 0 18 18" width="18" xmlns="http://www.w3.org/2000/svg"><g fill="none" stroke="#fff" stroke-linecap="round" stroke-linejoin="round" stroke-width="2" transform="scale(.75)"><path d="m4 14h16c1.104167 0 2 .895833 2 2v4c0 1.104167-.895833 2-2 2h-16c-1.104167 0-2-.895833-2-2v-4c0-1.104167.895833-2 2-2zm0 0"/><path d="m6.010417 18h-.010417m4.010417 0h-.010417m5-8v4m2.838542-6.828125c-.75-.755208-1.765625-1.177083-2.828125-1.177083s-2.078125.421875-2.828125 1.177083m8.479166-2.833333c-3.125-3.119792-8.1875-3.119792-11.3125 0"/></g></svg>