<svg height="18" viewBox="0 0 18 18" width="18" xmlns="http://www.w3.org/2000/svg" xmlns:xlink="http://www.w3.org/1999/xlink"><linearGradient id="a" gradientUnits="userSpaceOnUse" x1="9.14765667188" x2="7.44046875" y1="8.44171860938" y2="3.9628125"><stop offset="0" stop-color="#fe2857"/><stop offset=".06" stop-color="#fe3052"/><stop offset=".33" stop-color="#fd533b"/><stop offset=".58" stop-color="#fc6c2a"/><stop offset=".81" stop-color="#fc7b20"/><stop offset="1" stop-color="#fc801d"/></linearGradient><linearGradient id="b" gradientUnits="userSpaceOnUse" x1="5.89640625" x2="8.53171846875" y1="2.03203125" y2="4.44796860938"><stop offset="0" stop-color="#6b57ff"/><stop offset="1" stop-color="#fe2857"/></linearGradient><linearGradient id="c" gradientUnits="userSpaceOnUse" x1=".55125" x2="9.22921832813" y1="2.79562485938" y2="13.82625"><stop offset="0" stop-color="#6b57ff"/><stop offset=".3" stop-color="#fe2857"/><stop offset=".63" stop-color="#fe2857"/><stop offset=".64" stop-color="#fe3052"/><stop offset=".7" stop-color="#fd533b"/><stop offset=".76" stop-color="#fc6c2a"/><stop offset=".81" stop-color="#fc7b20"/><stop offset=".85" stop-color="#fc801d"/></linearGradient><path d="m14.285156.769531-4.707031 1.6875-3.710937-1.6875-1.222657 3.082031h-.789062v9.089844l11.425781.097656 1.777344-9.050781zm0 0" fill="url(#a)"/><path d="m14.144531 6.675781-7.519531-4.457031 7.519531 8.816406zm0 0" fill="url(#b)"/><path d="m7.449219 16.800781 6.152343-.820312-.957031-1.835938h1.5v-3.109375l-7.519531-8.828125-6.023438 1.480469.003907 8.636719 3.464843 4.90625 3.359376-.429688zm0 0" fill="url(#c)"/><path d="m3.855469 3.855469h10.289062v10.289062h-10.289062zm0 0"/><path d="m5.140625 12.199219h3.855469v.640625h-3.855469zm3.808594-7.0625h.917969l1.015624 1.636719 1.019532-1.636719h.914062v3.867187h-.84375v-2.523437l-1.089844 1.648437h-.019531l-1.078125-1.632812v2.507812h-.835937zm-3.804688.007812h1.765625c.488282 0 .863282.128907 1.121094.390625.226562.234375.347656.554688.332031.882813v.011719c.011719.273437-.066406.539062-.230469.761718-.152343.199219-.359374.347656-.597656.433594l.945313 1.371094h-.996094l-.796875-1.183594h-.703125v1.1875h-.839844zm1.710938 1.867188c.171875.007812.34375-.046875.476562-.15625.113281-.097657.175781-.246094.171875-.394531v-.011719c.011719-.15625-.050781-.3125-.171875-.414063-.144531-.097656-.316406-.148437-.492187-.136718h-.851563v1.109374zm0 0" fill="#fff"/></svg>