<svg height="18" viewBox="0 0 18 18" width="18" xmlns="http://www.w3.org/2000/svg"><g fill="none" stroke="#fff" stroke-linecap="round" stroke-linejoin="round" stroke-width="2" transform="scale(.75)"><path d="m7 21h10m-5 0c4.96875 0 9-4.03125 9-9h-18c0 4.96875 4.03125 9 9 9"/><path d="m11.380208 12c-1.255208.010417-2.307291-.947917-2.416666-2.197917-.104167-1.255208.776041-2.375 2.015625-2.572916-.192709-.864584.104166-1.765625.770833-2.34375.671875-.578125 1.604167-.744792 2.432292-.427084.359375-.5625.9375-.953125 1.59375-1.072916.661458-.119792 1.338541.041666 1.875.442708.953125-.75 2.317708-.666667 3.177083.192708s.942708 2.223959.192708 3.177084c.458334.609375.598959 1.401041.380209 2.130208-.213542.729167-.765625 1.3125-1.479167 1.572917.088542.359375.098958.734375.026042 1.098958m-6.947917 0 4-4"/><path d="m10.901042 7.25c-1.125-1.197917-2.864584-1.583333-4.390625-.979167-1.520834.609375-2.520834 2.088542-2.510417 3.729167 0 .729167.197917 1.411458.541667 2"/></g></svg>