<svg height="18" viewBox="0 0 18 18" width="18" xmlns="http://www.w3.org/2000/svg"><g fill="none" stroke="#fff" stroke-linecap="round" stroke-linejoin="round" stroke-width="2" transform="scale(.75)"><path d="m3 7v-2c0-1.104167.895833-2 2-2h2m10 0h2c1.104167 0 2 .895833 2 2v2m0 10v2c0 1.104167-.895833 2-2 2h-2m-10 0h-2c-1.104167 0-2-.895833-2-2v-2"/><path d="m13 12c0 .552083-.447917 1-1 1s-1-.447917-1-1 .447917-1 1-1 1 .447917 1 1zm0 0"/><path d="m18.942708 12.328125c.078125-.213542.078125-.442708 0-.65625-1.151041-2.822917-3.895833-4.666667-6.942708-4.666667s-5.791667 1.84375-6.942708 4.666667c-.078125.213542-.078125.442708 0 .65625 1.151041 2.822917 3.895833 4.666667 6.942708 4.666667s5.791667-1.84375 6.942708-4.666667"/></g></svg>