<svg height="18" viewBox="0 0 18 18" width="18" xmlns="http://www.w3.org/2000/svg"><g fill="none" stroke="#fff" stroke-linecap="round" stroke-linejoin="round" stroke-width="2" transform="scale(.75)"><path d="m6 10h-2c-1.104167 0-2-.895833-2-2v-4c0-1.104167.895833-2 2-2h16c1.104167 0 2 .895833 2 2v4c0 1.104167-.895833 2-2 2h-2m-12 4h-2c-1.104167 0-2 .895833-2 2v4c0 1.104167.895833 2 2 2h16c1.104167 0 2-.895833 2-2v-4c0-1.104167-.895833-2-2-2h-2m-12-8h.010417m-.010417 12h.010417"/><path d="m13 6-4 6h6l-4 6"/></g></svg>