<svg height="18" viewBox="0 0 18 18" width="18" xmlns="http://www.w3.org/2000/svg"><g fill="none" stroke="#fff" stroke-linecap="round" stroke-linejoin="round" stroke-width="2" transform="scale(.75)"><path d="m8.302083 10c-.265625.015625-.515625-.119792-.645833-.348958-.130208-.223959-.125-.510417.015625-.729167l3.729167-5.921875c.119791-.213542.338541-.348958.583333-.359375.25-.010417.479167.109375.614583.317708l3.703125 5.942709c.145834.213541.166667.489583.046875.723958-.125.229167-.359375.375-.619791.375zm0 0"/><path d="m4 14h5c.552083 0 1 .447917 1 1v5c0 .552083-.447917 1-1 1h-5c-.552083 0-1-.447917-1-1v-5c0-.552083.447917-1 1-1zm0 0"/><path d="m21 17.5c0 1.932292-1.567708 3.5-3.5 3.5s-3.5-1.567708-3.5-3.5 1.567708-3.5 3.5-3.5 3.5 1.567708 3.5 3.5zm0 0"/></g></svg>