<svg height="18" viewBox="0 0 18 18" width="18" xmlns="http://www.w3.org/2000/svg"><path d="m2 2 20 20m-17-17c-.552083 0-1 .447917-1 1v7c0 5 3.5 7.5 7.671875 8.9375.213542.083333.447917.088542.666667.010417 2.348958-.817709 4.479166-1.96875 5.901041-3.708334m-8.932291-14.588541c.6875-.390625 1.333333-.854167 1.932291-1.369792.4375-.375 1.083334-.375 1.520834 0 1.75 1.53125 4.239583 2.71875 6.239583 2.71875.552083 0 1 .447917 1 1v7c0 .421875-.026042.84375-.078125 1.265625" fill="none" stroke="#fff" stroke-linecap="round" stroke-linejoin="round" stroke-width="2" transform="scale(.75)"/></svg>