<svg height="18" viewBox="0 0 18 18" width="18" xmlns="http://www.w3.org/2000/svg"><g fill="none" stroke="#fff" stroke-linecap="round" stroke-linejoin="round" stroke-width="2" transform="scale(.75)"><path d="m20 13c0 5-3.5 7.5-7.661458 8.947917-.21875.078125-.453125.072916-.666667-.010417-4.171875-1.4375-7.671875-3.9375-7.671875-8.9375v-7c0-.552083.447917-1 1-1 2 0 4.5-1.197917 6.239583-2.71875.4375-.375 1.083334-.375 1.520834 0 1.75 1.53125 4.239583 2.71875 6.239583 2.71875.552083 0 1 .447917 1 1zm0 0"/><path d="m6.375 18.911458c.875-2.354166 3.119792-3.911458 5.625-3.911458 2.510417 0 4.75 1.5625 5.625 3.911458"/><path d="m16 11c0 2.208333-1.791667 4-4 4s-4-1.791667-4-4 1.791667-4 4-4 4 1.791667 4 4zm0 0"/></g></svg>