<svg height="18" viewBox="0 0 18 18" width="18" xmlns="http://www.w3.org/2000/svg"><g fill="none" stroke="#fff" stroke-linecap="round" stroke-linejoin="round" stroke-width="2" transform="scale(.75)"><path d="m12.5 17-.5-1-.5 1zm0 0"/><path d="m15 22c.552083 0 1-.447917 1-1v-1c.770833 0 1.46875-.442708 1.802083-1.135417.333334-.692708.239584-1.515625-.239583-2.114583 2.34375-2.265625 3.078125-5.729167 1.854167-8.75-1.223959-3.020833-4.15625-5-7.416667-5s-6.192708 1.979167-7.416667 5c-1.223958 3.020833-.489583 6.484375 1.854167 8.75-.479167.598958-.572917 1.421875-.239583 2.114583.333333.692709 1.03125 1.135417 1.802083 1.135417v1c0 .552083.447917 1 1 1zm0 0"/><path d="m16 12c0 .552083-.447917 1-1 1s-1-.447917-1-1 .447917-1 1-1 1 .447917 1 1zm0 0"/><path d="m10 12c0 .552083-.447917 1-1 1s-1-.447917-1-1 .447917-1 1-1 1 .447917 1 1zm0 0"/></g></svg>