<svg height="18" viewBox="0 0 18 18" width="18" xmlns="http://www.w3.org/2000/svg"><g fill="none" stroke="#fff" stroke-linecap="round" stroke-linejoin="round" stroke-width="2" transform="scale(.75)"><path d="m14.5 2c.828125 0 1.5.671875 1.5 1.5v5c0 .828125-.671875 1.5-1.5 1.5s-1.5-.671875-1.5-1.5v-5c0-.828125.671875-1.5 1.5-1.5zm0 0"/><path d="m19 8.5v1.5h1.5c.828125 0 1.5-.671875 1.5-1.5s-.671875-1.5-1.5-1.5-1.5.671875-1.5 1.5"/><path d="m9.5 14c.828125 0 1.5.671875 1.5 1.5v5c0 .828125-.671875 1.5-1.5 1.5s-1.5-.671875-1.5-1.5v-5c0-.828125.671875-1.5 1.5-1.5zm0 0"/><path d="m5 15.5v-1.5h-1.5c-.828125 0-1.5.671875-1.5 1.5s.671875 1.5 1.5 1.5 1.5-.671875 1.5-1.5"/><path d="m15.5 13h5c.828125 0 1.5.671875 1.5 1.5s-.671875 1.5-1.5 1.5h-5c-.828125 0-1.5-.671875-1.5-1.5s.671875-1.5 1.5-1.5zm0 0"/><path d="m15.5 19h-1.5v1.5c0 .828125.671875 1.5 1.5 1.5s1.5-.671875 1.5-1.5-.671875-1.5-1.5-1.5"/><path d="m3.5 8h5c.828125 0 1.5.671875 1.5 1.5s-.671875 1.5-1.5 1.5h-5c-.828125 0-1.5-.671875-1.5-1.5s.671875-1.5 1.5-1.5zm0 0"/><path d="m8.5 5h1.5v-1.5c0-.828125-.671875-1.5-1.5-1.5s-1.5.671875-1.5 1.5.671875 1.5 1.5 1.5"/></g></svg>