<svg height="18" viewBox="0 0 18 18" width="18" xmlns="http://www.w3.org/2000/svg"><g fill="#010101"><path d="m8.992188 0c-4.957032 0-8.992188 4.035156-8.992188 8.992188 0 4.957031 4.035156 8.992187 8.992188 8.992187 4.957031 0 8.992187-4.035156 8.992187-8.992187 0-4.957032-4.035156-8.992188-8.992187-8.992188zm0 1.5c4.148437 0 7.492187 3.347656 7.492187 7.492188 0 4.148437-3.34375 7.492187-7.492187 7.492187-4.144532 0-7.492188-3.34375-7.492188-7.492187 0-4.144532 3.347656-7.492188 7.492188-7.492188"/><path d="m6.804688 8.539062c1.96875-1.609374 3.894531-3.273437 5.90625-4.835937-1.054688 1.621094-2.140626 3.222656-3.195313 4.84375-.90625.003906-1.808594.003906-2.710937-.007813m1.664062.894532c.910156 0 1.816406 0 2.722656.015625-1.984375 1.597656-3.902344 3.277343-5.917968 4.832031 1.054687-1.621094 2.140624-3.226562 3.195312-4.847656" fill-rule="evenodd"/></g></svg>