<svg height="18" viewBox="0 0 18 18" width="18" xmlns="http://www.w3.org/2000/svg" xmlns:xlink="http://www.w3.org/1999/xlink"><filter id="a" height="100%" width="100%" x="0%" y="0%"><feColorMatrix color-interpolation-filters="sRGB" values="0 0 0 0 1 0 0 0 0 1 0 0 0 0 1 0 0 0 1 0"/></filter><mask id="b"><g filter="url(#a)"><path d="m-1.8-1.8h21.6v21.6h-21.6z" fill-opacity=".45"/></g></mask><mask id="c"><g filter="url(#a)"><path d="m-1.8-1.8h21.6v21.6h-21.6z" fill-opacity=".6"/></g></mask><mask id="d"><g filter="url(#a)"><path d="m-1.8-1.8h21.6v21.6h-21.6z" fill-opacity=".8"/></g></mask><mask id="e"><g filter="url(#a)"><path d="m-1.8-1.8h21.6v21.6h-21.6z" fill-opacity=".45"/></g></mask><mask id="f"><g filter="url(#a)"><path d="m-1.8-1.8h21.6v21.6h-21.6z" fill-opacity=".6"/></g></mask><mask id="g"><g filter="url(#a)"><path d="m-1.8-1.8h21.6v21.6h-21.6z" fill-opacity=".8"/></g></mask><clipPath id="h"><path d="m0 0h18v18h-18z"/></clipPath><clipPath id="i"><path d="m0 0h18v18h-18z"/></clipPath><clipPath id="j"><path d="m0 0h18v18h-18z"/></clipPath><clipPath id="k"><path d="m0 0h18v18h-18z"/></clipPath><clipPath id="l"><path d="m0 0h18v18h-18z"/></clipPath><clipPath id="m"><path d="m0 0h18v18h-18z"/></clipPath><g mask="url(#b)"><g clip-path="url(#h)"><path d="m11.878906 0-2.894531 5.144531h-5.785156l2.894531-5.144531zm0 0"/></g></g><g mask="url(#c)"><g clip-path="url(#i)"><path d="m8.984375 5.144531h5.785156l-2.890625-5.144531h-5.785156zm0 0"/></g></g><g mask="url(#d)"><g clip-path="url(#j)"><path d="m6.09375 10.285156 2.890625-5.140625-2.890625-5.144531-2.894531 5.144531zm0 0"/></g></g><g mask="url(#e)"><g clip-path="url(#k)"><path d="m6.121094 18 2.894531-5.144531h5.785156l-2.894531 5.144531zm0 0"/></g></g><g mask="url(#f)"><g clip-path="url(#l)"><path d="m9.015625 12.855469h-5.789063l2.894532 5.144531h5.785156zm0 0"/></g></g><g mask="url(#g)"><g clip-path="url(#m)"><path d="m11.90625 7.714844-2.890625 5.140625 2.890625 5.144531 2.894531-5.144531zm0 0"/></g></g></svg>