<svg height="18" viewBox="0 0 18 18" width="18" xmlns="http://www.w3.org/2000/svg"><path d="m9.9375 15.5c-.182292-.703125-.734375-1.255208-1.4375-1.4375l-6.135417-1.583333c-.213541-.057292-.364583-.255209-.364583-.479167s.151042-.421875.364583-.479167l6.135417-1.583333c.703125-.182292 1.255208-.734375 1.4375-1.4375l1.583333-6.135417c.057292-.213541.255209-.364583.479167-.364583s.421875.151042.484375.364583l1.578125 6.135417c.182292.703125.734375 1.255208 1.4375 1.4375l6.135417 1.578125c.21875.0625.364583.260417.364583.484375s-.145833.421875-.364583.484375l-6.135417 1.578125c-.703125.182292-1.255208.734375-1.4375 1.4375l-1.583333 6.135417c-.057292.213541-.255209.364583-.479167.364583s-.421875-.151042-.484375-.364583zm10.0625-12.5v4m2-2h-4m-14 12v2m1-1h-2" fill="none" stroke="#fff" stroke-linecap="round" stroke-linejoin="round" stroke-width="2" transform="scale(.75)"/></svg>