<svg height="18" viewBox="0 0 18 18" width="18" xmlns="http://www.w3.org/2000/svg"><path d="m17.578125 11.25c-.238281 0-.4375.183594-.4375.421875s.183594.421875.4375.421875c.238281 0 .421875-.183594.421875-.421875s-.183594-.421875-.421875-.421875m-.015625.070312c.199219 0 .339844.15625.339844.351563s-.140625.351563-.324219.351563c-.195313 0-.335937-.15625-.335937-.351563s.125-.335937.320312-.351563m-.140625.113282v.476562h.085937v-.210937h.085938l.125.210937h.085938l-.128907-.222656c.085938 0 .113281-.058594.113281-.128906 0-.082032-.054687-.125-.167968-.125zm.070313.210937v-.15625h.101562c.070312 0 .097656.027344.097656.085938 0 .054687-.042968.082031-.085937.082031zm-13.078126 1.460938c-.222656-.167969-.492187-.308594-.855468-.421875-.464844-.152344-1.140625-.308594-1.40625-.40625-.167969-.070313-.238282-.167969-.238282-.308594 0-.199219.238282-.3125.519532-.324219.464844.011719.605468.28125.632812.464844h1.347656zm1.6875 1.253906h1c.871094-.015625 1.574219-.453125 1.925782-1.085937.027344-.054688.058594-.097657.085937-.152344.054688.070312.097657.097656.152344.152344.242187.210937.550781.367187.875.464843.519531.183594.925781.308594 1.066406.367188.269531.113281.4375.195312.4375.433593 0 .28125-.308593.394532-.632812.410157-.4375-.015625-.871094-.226563-.859375-.660157h-1.714844c.085938 1.136719 1.210938 2.023438 2.53125 2.039063.800781-.015625 1.546875-.242187 2.023438-.816406.480468.492187 1.042968.800781 1.828124.816406 1.253907-.015625 2.546876-.632813 2.5625-1.957031 0-.421875-.113281-.785156-.382812-1.097656-.238281-.28125-.574219-.460938-1.039062-.589844-.464844-.152344-1.140626-.308594-1.40625-.40625-.167969-.070313-.238282-.167969-.238282-.308594 0-.199219.238282-.3125.519532-.324219.464843.011719.605468.28125.632812.464844h1.632812c.011719-1.125-.929687-1.871094-2.265624-1.871094-1 0-1.671876.378907-2.011719.925781-.363281-.574218-1.097657-.925781-2.011719-.925781-.953125 0-1.617188.363281-1.96875.886719-.390625-.507812-1.039062-.832031-1.828125-.832031h-2.601563v.859375c-.363281-.578125-1.09375-.914063-1.996093-.914063-1.390625 0-2.152344.773438-2.222657 1.660157 0 .546874.269532 1.039062.675782 1.390624.238281.210938.519531.367188.84375.464844.519531.183594.929687.308594 1.070312.363282.265625.113281.433594.199218.433594.4375 0 .28125-.320312.394531-.632812.40625-.433594-.011719-.871094-.222657-.855469-.660157h-1.730469c.0859375 1.140625 1.210938 2.027344 2.53125 2.039063.730469-.011719 1.40625-.210938 1.855469-.632813v.535157h1.6875zm0-2.660156h.914063c.339844 0 .632813.28125.632813.632812 0 .351563-.28125.632813-.632813.632813h-.914063zm6.90625 1.589843c-.238281-.28125-.578124-.464843-1.039062-.589843-.464844-.15625-1.140625-.308594-1.394531-.410157-.183594-.070312-.265625-.167968-.265625-.308593 0-.195313.238281-.308594.519531-.324219.476563.015625.605469.28125.632813.464844h1.152343c.070313.449218.296875.859375.660157 1.167968.242187.210938.535156.367188.859374.464844.519532.183594.929688.308594 1.054688.363282.28125.113281.4375.199218.4375.4375 0 .28125-.324219.394531-.632812.40625-.4375-.011719-.875-.222657-.859376-.660157h-.773437c0-.40625-.125-.746093-.351563-1.011719" fill="#cc1e4c"/><path d="m0 1.503906v.492188h3.5v-.492188zm3.992188 0v.492188h5.007812s-.507812-.492188-1.179688-.492188zm5.976562 0v.492188h3.023438l-.179688-.492188zm5.191406 0-.183594.492188h2.996094v-.492188zm-15.160156.957032v.492187h3.5v-.492187zm3.992188 0v.492187h5.570312s-.070312-.378906-.183594-.492187zm5.976562 0v.492187h3.347656l-.167968-.492187zm4.824219 0-.167969.492187h3.332031v-.492187zm-13.78125.957031v.492187h1.519531v-.492187zm3.996093 0v.492187h1.515626v-.492187zm2.992188 0v.492187h1.519531s.097657-.269531.097657-.492187zm2.984375 0v.492187h2.683594l-.183594-.492187zm3.484375 0-.179688.492187h2.699219v-.492187zm-13.457031.96875v.492187h1.519531v-.492187zm3.996093 0v.492187h3.878907s.324219-.253906.421875-.492187zm5.976563 0v.492187h1.515625v-.265625l.101562.265625h2.78125l.101563-.265625v.265625h1.515625v-.492187h-2.851562l-.15625.421875-.15625-.421875zm-9.972656.957031v.492188h1.519531v-.492188zm3.996093 0v.492188h4.300782c-.097656-.238282-.421875-.492188-.421875-.492188zm5.976563 0v.492188h1.515625v-.492188zm1.785156 0 .183594.492188h2.078125l.171875-.492188zm2.714844 0v.492188h1.515625v-.492188zm-14.472656.957031v.492188h1.519531v-.492188zm3.996093 0v.492188h1.515626v-.492188zm2.992188 0v.492188h1.617188c0-.238281-.097657-.492188-.097657-.492188zm2.984375 0v.492188h1.515625v-.492188zm2.136719 0 .183594.492188h1.390624l.183594-.492188zm2.363281 0v.492188h1.515625v-.492188zm-15.4570312.957031v.492188h3.5039062v-.492188zm3.9648442 0v.492188h5.402343c.113281-.113281.183594-.492188.183594-.492188zm6.007812 0v.492188h2.5v-.492188zm3.457031 0 .183594.492188h.71875l.167969-.492188zm2.027344 0v.492188h2.515625v-.492188zm-15.4570312.953126v.492187h3.5039062v-.492187zm3.9648442 0v.492187h3.8125c.675781 0 1.179687-.492187 1.179687-.492187zm6.007812 0v.492187h2.5v-.492187zm3.808594 0 .183594.492187h.027343l.183594-.492187zm1.675781 0v.492187h2.515625v-.492187zm0 0" fill="#1f70c1"/></svg>