<svg height="18" viewBox="0 0 18 18" width="18" xmlns="http://www.w3.org/2000/svg"><g fill="none" stroke="#fff" stroke-linecap="round" stroke-linejoin="round" stroke-width="2" transform="scale(.75)"><path d="m4 22c-1.104167 0-2-.895833-2-2v-16c0-1.104167.895833-2 2-2h16c1.104167 0 2 .895833 2 2v16c0 1.104167-.895833 2-2 2m-10 0h-2m8 0h-2"/><path d="m10 8c0 1.104167-.895833 2-2 2s-2-.895833-2-2 .895833-2 2-2 2 .895833 2 2zm0 0"/><path d="m9.411458 9.411458 2.588542 2.588542m2.802083 2.802083 3.197917 3.197917"/><path d="m10 16c0 1.104167-.895833 2-2 2s-2-.895833-2-2 .895833-2 2-2 2 .895833 2 2zm0 0"/><path d="m18 6-8.588542 8.588542"/></g></svg>