<svg height="18" viewBox="0 0 18 18" width="18" xmlns="http://www.w3.org/2000/svg"><path d="m12.036458 12.682292c-.078125-.1875-.03125-.395834.109375-.536459s.348959-.1875.536459-.109375l9 3.5c.197916.072917.322916.270834.317708.479167-.010417.213542-.151042.395833-.354167.463542l-3.442708 1.067708c-.3125.09375-.5625.34375-.661458.65625l-1.0625 3.442708c-.067709.203125-.25.34375-.463542.354167-.208333.005208-.40625-.119792-.479167-.317708zm-7.036458-9.682292c-1.104167 0-2 .895833-2 2m16-2c1.104167 0 2 .895833 2 2m-16 16c-1.104167 0-2-.895833-2-2m6-16h1m-1 18h2m3-18h1m-12 6v1m18-1v2m-18 3v1" fill="none" stroke="#fff" stroke-linecap="round" stroke-linejoin="round" stroke-width="2" transform="scale(.75)"/></svg>