<svg height="18" viewBox="0 0 18 18" width="18" xmlns="http://www.w3.org/2000/svg"><path d="m11.526042 2.296875c.088541-.182292.270833-.296875.473958-.296875s.385417.114583.473958.296875l2.3125 4.677083c.307292.625.901042 1.057292 1.59375 1.161459l5.166667.755208c.197917.026042.364583.166667.427083.359375s.010417.401042-.135416.541667l-3.734375 3.640625c-.5.484375-.729167 1.1875-.609375 1.880208l.880208 5.135417c.036458.203125-.046875.40625-.208333.520833-.166667.119792-.385417.135417-.5625.041667l-4.619792-2.427084c-.614583-.328125-1.354167-.328125-1.973958 0l-4.614584 2.427084c-.177083.09375-.395833.078125-.557291-.041667-.166667-.119792-.25-.317708-.213542-.520833l.880208-5.135417c.119792-.692708-.109375-1.390625-.609375-1.880208l-3.734375-3.635417c-.145833-.140625-.197916-.354167-.135416-.546875s.229166-.333333.427083-.359375l5.166667-.755208c.6875-.104167 1.286458-.536459 1.59375-1.161459zm0 0" fill="none" stroke="#fff" stroke-linecap="round" stroke-linejoin="round" stroke-width="2" transform="scale(.75)"/></svg>