<svg height="18" viewBox="0 0 18 18" width="18" xmlns="http://www.w3.org/2000/svg"><path d="m12 18.338542c-.34375 0-.682292.083333-.989583.244791l-4.614584 2.427084c-.177083.09375-.395833.078125-.557291-.041667-.166667-.119792-.25-.317708-.213542-.520833l.880208-5.135417c.119792-.692708-.109375-1.390625-.609375-1.880208l-3.734375-3.635417c-.145833-.140625-.197916-.354167-.135416-.546875s.229166-.333333.427083-.359375l5.166667-.755208c.6875-.104167 1.286458-.536459 1.59375-1.161459l2.3125-4.677083c.088541-.182292.270833-.296875.473958-.296875" fill="none" stroke="#fff" stroke-linecap="round" stroke-linejoin="round" stroke-width="2" transform="scale(.75)"/></svg>