<svg height="18" viewBox="0 0 18 18" width="18" xmlns="http://www.w3.org/2000/svg"><g fill="#333"><path d="m2.898438 12.007812c.457031-.546874.511718-1.113281.160156-2.160156-.226563-.664062-.597656-1.175781-.324219-1.589844.289063-.4375.910156-.011718.394531.574219l.101563.074219c.621093.070312.925781-.777344.460937-1.019531-1.21875-.636719-2.285156.585937-1.8125 2.003906.199219.601563.480469 1.238281.253906 1.746094-.195312.433593-.578124.691406-.832031.703125-.535156.023437-.175781-1.203125.433594-1.511719.054687-.027344.128906-.0625.058594-.152344-.757813-.085937-1.203125.265625-1.457031.753907-.746094 1.425781 1.410156 1.949218 2.5625.578124m13.320312-4.179687c.175781.429687.441406.855469.28125 1.234375-.128906.324219-.300781.457031-.488281.488281-.265625.046875-.191407-.785156.261719-1.03125.039062-.023437.097656-.128906.042968-.191406-.574218-.03125-.898437.242187-1.070312.605469-.507813 1.0625 1.148437 1.355468 1.960937.308594.320313-.421876.335938-.828126.023438-1.578126-.195313-.476562-.496094-.828124-.308594-1.144531.1875-.3125.6875-.042969.324219.402344l.082031.042969c.46875.027344.660156-.601563.304687-.757813-.949218-.40625-1.832031.613281-1.414062 1.621094"/><path d="m10.226562 6.695312c-.328124-.261718-1.246093.171876-1.507812.820313-.328125.820313-.8125 2.015625-1.285156 2.542969-.503906.550781-.554688.125-.503906-.195313.117187-.746093.84375-2.484375 1.246093-2.972656-.144531-.21875-1.113281-.1875-1.789062.859375-.25.390625-.820313 1.707031-1.464844 2.742188-.140625.222656-.3125.066406-.179687-.457032.152343-.605468.601562-2.269531 1.179687-3.578125 1.515625-.300781 3.125-.511719 4.359375-.515625.164062-.046875.28125-.195312 0-.203125-1.0625-.039062-2.660156.089844-4.152344.28125.28125-.574219.597656-1.03125.910156-1.226562-.339843-.214844-1.03125-.128907-1.425781.453125-.195312.292968-.367187.597656-.515625.917968-1.089844.164063-2.027344.359376-2.5.539063-.476562.175781-.441406.785156-.140625.671875.785157-.28125 1.585938-.511719 2.402344-.691406-.59375 1.347656-1.0625 2.933594-1.175781 3.582031-.28125 1.570313.695312 1.5625 1.171875.941406.515625-.679687 1.59375-3.0625 1.753906-3.3125.050781-.085937.117187-.039062.082031.039063-1.203125 2.398437-1.101562 3.328125-.128906 3.121094.441406-.09375 1.199219-.84375 1.398438-1.238282.039062-.09375.125-.085937.105468-.042968-.753906 1.972656-1.726562 3.574218-2.375 4.078124-.59375.453126-1.03125-.527343 1.0625-1.9375.308594-.210937.164063-.5-.183594-.398437-1.085937.167969-4.179687 1.152344-5.535156 2.09375-.101562.070313-.195312.128906-.191406.28125 0 .085937.152344.050781.222656.007813 1.757813-1.054688 3.199219-1.46875 4.847656-1.8125.023438.011718.046876.011718.070313 0 .078125-.015626.074219.023437.023437.054687-.113281.0625-.222656.121094-.253906.128906-1.109375.433594-1.78125 1.394531-1.546875 1.882813.203125.421875 1.292969.269531 1.808594-.007813 1.265625-.6875 2.183594-2.03125 2.8125-3.890625.546875-1.640625 1.238281-3.503906 1.398437-3.558594m7.351563 3.796876c-2.058594-.269532-6.5.089843-8.457031.609374-.585938.152344-.421875.460938-.125.40625l.140625-.03125c1.609375-.316406 5.515625-.589843 7.792969-.152343.265624.046875 1.089843-.777344.648437-.832031m-6.777344-.242188c.574219-.285156 1.433594-2.0625 1.988281-3.035156.039063-.074219.113282-.015625.070313.035156-1.417969 2.441406-.816406 2.722656-.253906 2.6875.753906-.046875 1.4375-1.125 1.597656-1.359375.0625-.09375.097656-.019531.0625.050781-.035156.109375-.164063.308594-.28125.578125-.167969.378907.007813.527344.160156.59375.230469.113281.867188.042969.96875-.347656-.640625-.015625.886719-3.019531 1.042969-3.203125-.421875-.246094-1.085938.023438-1.386719.613281-.640625 1.265625-1.179687 2.292969-1.515625 2.308594-.652344.039063.753906-2.828125.984375-2.917969-.140625-.203125-1.03125-.117187-1.527343.65625-.179688.28125-1.273438 2.214844-1.546876 2.53125-.476562.5625-.511718.078125-.375-.484375.058594-.242187.132813-.480469.21875-.714843.3125-.703126.648438-.929688.855469-1.160157 1.386719-1.539062 2.179688-2.785156 1.867188-3.273437-.28125-.433594-1.207031-.242188-1.804688.65625-1.097656 1.644531-2.109375 3.898437-2.242187 4.933594-.132813 1.03125.613281 1.101562 1.117187.851562m.589844-3.019531c.050781-.109375.082031-.140625.164063-.328125.488281-1.085938 1.101562-2.230469 1.535156-2.765625.265625-.28125.636718.097656-.035156 1.125-.386719.597656-.832032 1.15625-1.332032 1.664062-.125.140625-.238281.257813-.28125.324219-.042968.054688-.082031.042969-.050781-.019531"/></g></svg>