<svg height="18" viewBox="0 0 18 18" width="18" xmlns="http://www.w3.org/2000/svg" xmlns:xlink="http://www.w3.org/1999/xlink"><linearGradient id="a" gradientUnits="userSpaceOnUse" x1="8.91418454518" x2="15.37733981864" y1="8.80683254518" y2="11.51743727264"><stop offset="0" stop-color="#249361"/><stop offset="1" stop-color="#3ecf8e"/></linearGradient><linearGradient id="b" gradientUnits="userSpaceOnUse" x1="6.04871144236" x2="8.99620255682" y1="4.88349222118" y2="10.43223049982"><stop offset="0" stop-opacity=".2"/><stop offset="1" stop-opacity="0"/></linearGradient><path d="m10.480469 17.699219c-.460938.582031-1.394531.261719-1.40625-.476563l-.160157-10.816406h7.273438c1.316406 0 2.050781 1.523438 1.230469 2.554688zm0 0" fill="url(#a)"/><path d="m10.480469 17.699219c-.460938.582031-1.394531.261719-1.40625-.476563l-.160157-10.816406h7.273438c1.316406 0 2.050781 1.523438 1.230469 2.554688zm0 0" fill="url(#b)"/><path d="m7.519531.300781c.460938-.582031 1.394531-.2617185 1.40625.476563l.070313 10.816406h-7.183594c-1.316406 0-2.050781-1.523438-1.230469-2.554688zm0 0" fill="#3ecf8e"/></svg>