<svg height="18" viewBox="0 0 18 18" width="18" xmlns="http://www.w3.org/2000/svg"><path d="m13.769531 1.453125c2.566407 1.585937 4.277344 4.425781 4.277344 7.664063 0 4.972656-4.027344 9-9 9-1.050781 0-2.097656-.183594-3.085937-.542969l-.101563-.039063.167969-.054687.214844-.070313.210937-.070312.207031-.070313.203125-.074219.199219-.070312.199219-.074219.09375-.035156.191406-.074219c.203125-.078125.394531-.160156.585937-.238281l.136719-.0625.171875-.074219c.074219-.035156.148438-.066406.222656-.101562l.109376-.054688.160156-.074218.15625-.078126.152344-.082031c1.28125-.671875 2.152343-1.398437 2.613281-2.199219.980469-1.695312.125-3.507812-2.328125-5.355468l-.199219-.148438-.121094-.09375-.121093-.089844-.113282-.09375-.109375-.089843-.054687-.046875-.054688-.042969-.101562-.089844-.078125-.066406-.070313-.066406-.097656-.089844-.179688-.171875-.085937-.085938-.078125-.085937c-.972656-1.03125-1.1875-1.914063-.746094-2.675781.222656-.386719.609375-.769532 1.164063-1.140625l.066406-.042969.105469-.070312c.046875-.03125.097656-.058594.148437-.089844l.074219-.046875.117188-.066407.121093-.066406.089844-.050781.097656-.046875.128907-.066406c.101562-.050782.203124-.101563.304687-.148438l.105469-.050781.144531-.066406.070313-.03125.152343-.066407.074219-.03125.15625-.0625.078125-.035156.160156-.0625.082031-.03125.167969-.0625.167969-.066406.085938-.03125.175781-.0625.179687-.0625.183594-.0625.089844-.03125.191406-.058594.191406-.0625.195313-.0625.199219-.058594.203124-.0625.257813-.074218.261719-.074219.324218-.085937zm-4.722656-1.335937c1.09375 0 2.144531.195312 3.113281.554687l.105469.039063-.066406.019531-.320313.097656-.105468.035156-.207032.066407-.203125.066406-.199219.066406-.195312.070312-.191406.066407-.097656.035156-.230469.089844-.226563.085937-.175781.070313-.089844.035156-.171875.074219c-1.75.746094-2.894531 1.582031-3.445312 2.53125-.957032 1.660156-.089844 3.445312 2.367187 5.292968l.199219.148438.121094.09375.175781.140625.109375.089844.082031.066406.082031.070313.101563.089843.050781.042969.101563.089844c.050781.046875.105469.097656.152343.144531l.078126.074219.105468.109375.101563.105469c.964843 1.039062 1.171875 1.9375.714843 2.734374-.296874.515626-.863281 1.019532-1.699218 1.511719l-.078125.042969-.125.070312-.128907.070313c-.070312.042969-.144531.082031-.21875.117187l-.257812.128907-.144531.070312-.148438.066407-.074219.035156-.15625.070312-.15625.066406-.160156.070313-.082031.03125-.167969.070313-.085937.03125-.085938.035156-.171875.066406-.359375.132812-.375.132813-.097656.035156-.191406.0625-.101563.035157-.199218.0625-.203126.066406-.257812.082031-.265625.078125-.21875.066406-.300781.085938c-2.59375-1.582032-4.324219-4.433594-4.324219-7.691406 0-4.96875 4.03125-9 9-9zm0 0"/></svg>