<svg height="18" viewBox="0 0 18 18" width="18" xmlns="http://www.w3.org/2000/svg"><path d="m12.128906 6.546875c-.007812.9375-.773437 1.699219-1.714844 1.699219-.941406 0-1.707031-.761719-1.714843-1.699219 0-.949219.769531-1.714844 1.714843-1.714844.945313 0 1.714844.765625 1.714844 1.714844m0 0" fill="#ffc131"/><path d="m5.816406 11.453125c0-.945313.765625-1.714844 1.714844-1.714844.945312 0 1.714844.769531 1.714844 1.714844 0 .949219-.769532 1.714844-1.714844 1.714844-.949219 0-1.714844-.765625-1.714844-1.714844zm0 0" fill="#24c8db"/><path d="m13.964844 12.042969c-.6875.445312-1.453125.757812-2.257813.917969.167969-.484376.253907-.992188.253907-1.507813 0-.1875-.011719-.375-.035157-.5625.347657-.121094.675781-.285156.984375-.480469.746094-.484375 1.332032-1.167968 1.695313-1.976562.550781-1.222656.542969-2.621094-.027344-3.835938-.566406-1.214844-1.636719-2.121094-2.925781-2.480468-1.742188-.488282-3.609375.089843-4.769532 1.480468-.070312.085938-.140624.175782-.207031.265625-.871093.097657-1.722656.34375-2.507812.730469.640625-2.054688 2.25-3.660156 4.304687-4.300781 1.203125-.371094 2.488282-.3906252 3.703125-.050781 1.214844.339843 2.304688 1.023437 3.140625 1.964843.835938.945313 1.378906 2.109375 1.570313 3.355469.386719 2.546875-.757813 5.082031-2.921875 6.480469m-9.722656-6.253907 1.605468.195313c.039063-.308594.109375-.613281.207032-.910156-.636719.144531-1.246094.386719-1.8125.714843zm0 0" fill="#ffc131"/><path d="m3.964844 5.957031c.695312-.449219 1.46875-.761719 2.277344-.921875-.1875.507813-.28125 1.046875-.28125 1.589844 0 .164062.007812.328125.027343.492188-.339843.121093-.664062.277343-.964843.472656-.746094.480468-1.332032 1.167968-1.699219 1.976562-.363281.804688-.484375 1.703125-.351563 2.578125.132813.875.515625 1.695313 1.101563 2.359375.585937.664063 1.351562 1.140625 2.207031 1.378906.851562.238282 1.757812.226563 2.601562-.035156.847657-.261718 1.597657-.765625 2.167969-1.445312.070313-.085938.140625-.175782.207031-.269532.875-.097656 1.722657-.347656 2.511719-.734374-.257812.824218-.671875 1.589843-1.226562 2.253906-.808594.964844-1.878907 1.679687-3.082031 2.054687-1.203126.371094-2.492188.390625-3.703126.050781-1.214843-.339843-2.304687-1.023437-3.140624-1.964843-.835938-.945313-1.378907-2.109375-1.570313-3.355469-.1875-1.246094-.011719-2.523438.503906-3.671875.519531-1.148437 1.355469-2.125 2.414063-2.808594m9.714844 6.253907c-.007813.003906-.015626.007812-.023438.015624.007812-.003906.015625-.011718.023438-.015624m0 0" fill="#24c8db"/></svg>