<svg height="18" viewBox="0 0 18 18" width="18" xmlns="http://www.w3.org/2000/svg"><g fill="none" stroke="#fff" stroke-linecap="round" stroke-linejoin="round" stroke-width="2" transform="scale(.75)"><path d="m10.0625 12.494792-6.177083 1.317708c-.5.109375-.994792-.208333-1.109375-.703125l-.536459-2.151042c-.130208-.536458.166667-1.083333.692709-1.265625l13.505208-4.4375m-2.875 6.489584 4.328125-.921875m-1.890625 10.177083-3.104167-6.208333"/><path d="m16.484375 5.9375c-.265625-1.067708.385417-2.15625 1.453125-2.421875l1.09375-.270833c.536458-.135417 1.078125.1875 1.208333.723958l1.515625 6.0625c.135417.536458-.1875 1.078125-.723958 1.213542l-1.09375.270833c-1.067708.265625-2.15625-.385417-2.421875-1.453125zm-10.328125 2.697917 1.114583 4.453125m.729167 7.911458 3.104167-6.208333"/><path d="m14 13c0 1.104167-.895833 2-2 2s-2-.895833-2-2 .895833-2 2-2 2 .895833 2 2zm0 0"/></g></svg>