<svg height="18" viewBox="0 0 18 18" width="18" xmlns="http://www.w3.org/2000/svg"><path d="m10.992188 4.21875v.253906c.582031 0 .773437.023438 1.007812.351563l2.050781 3.015625-1.847656 2.699218c-.457031.664063-1.148437.675782-1.351563.675782v.253906c.167969-.011719.410157-.015625.628907-.019531-.210938 1.351562-.460938 2.082031-2.1875 2.082031h-1.476563c-.421875 0-.445312-.054688-.445312-.421875v-2.972656h1.003906c1.003906 0 1.101562.367187 1.101562 1.265625h.167969v-2.765625h-.167969c0 .882812-.097656 1.242187-1.101562 1.242187h-1.003906v-2.632812c0-.359375.023437-.414063.445312-.414063h1.453125c1.648438 0 1.839844.652344 1.988281 2.058594h.191407l-.253907-2.351563h-4.632812l-.171875-2.308593h-6.140625l-.1796875 2.351562h.1914065c.136719-1.757812.289062-2.066406 1.9375-2.066406h.585937c.203125.03125.203125.160156.203125.402344v5.789062c0 .386719-.03125.503907-.925781.503907h-.304688v.253906c.511719-.007813 1.042969-.019532 1.5625-.019532.523438 0 1.054688.011719 1.566407.019532v-.253906h-.296875c-.882813 0-.914063-.117188-.914063-.503907v-5.785156c0-.238281 0-.363281.191407-.40625h.582031c1.613281 0 1.785156.300781 1.921875 2.023437h-.5625v.292969c.753906 0 .875 0 .875.476563v5.738281c0 .480469-.121094.480469-.875.480469v.257812h5.535156l.332031-2.335937h.078125c.285156 0 .785156 0 1.050782.019531v-.253906c-.328126-.035156-.421876-.246094-.421876-.417969 0-.136719.050782-.210937.105469-.289063l1.699219-2.480468 1.851562 2.71875c.082032.117187.082032.148437.082032.179687 0 .085938-.09375.265625-.46875.289063v.257812c.339844-.019531.863281-.019531 1.210937-.019531.277344 0 .808594 0 1.066407.019531v-.257812c-.679688 0-.789063-.050782-1-.351563l-2.335938-3.421875 1.570312-2.273437c.160157-.222657.480469-.683594 1.351563-.695313v-.253906c-.242187.019531-.648437.019531-.902344.019531-.351562 0-.785156 0-1.050781-.019531v.253906c.339844.03125.421875.246094.421875.417969 0 .125-.050781.210937-.125.316406l-1.40625 2.039063-1.570313-2.304688c-.074218-.117187-.085937-.148437-.085937-.179687 0-.097657.117187-.277344.46875-.289063v-.257812c-.339844.023437-.859375.023437-1.210937.023437-.277344 0-.808594 0-1.0625-.023437zm0 0"/></svg>