<svg height="18" viewBox="0 0 18 18" width="18" xmlns="http://www.w3.org/2000/svg"><path d="m6.171875 14.890625h-5.160156l1.335937-3.164063h3.613282l4.023437-9.320312h-4.316406l-3.164063 7.367188h1.941406c.140626.226562.378907.378906.660157.378906.421875 0 .773437-.351563.773437-.773438s-.351562-.773437-.773437-.773437c-.308594 0-.578125.183593-.703125.449219h-.929688l2.628906-5.945313h2.828126l-3.390626 7.902344-3.570312.027343-1.96875 4.554688h6.636719l.871093-1.898438h2.882813l.957031 1.898438h6.652344l-6.003906-13.1875zm1.703125-1.9375 1.039062-2.265625 1.125 2.265625zm3.910156 2.023437-.660156-1.320312h2.050781c.140625.25.394531.421875.691407.421875.421874 0 .773437-.351563.773437-.773437 0-.421876-.351563-.773438-.773437-.773438-.3125 0-.59375.195312-.71875.460938h-2.335938l-1.558594-3.0625 1.152344-2.53125 1.292969 2.640624h.605469c.125.253907.394531.453126.703124.453126.421876 0 .773438-.351563.773438-.773438s-.351562-.773438-.773438-.773438c-.324218 0-.605468.195313-.71875.492188h-.222656l-1.335937-2.730469 1.277343-2.796875 5.007813 11.066406zm0 0" fill="#00bcb4"/></svg>