<svg height="18" viewBox="0 0 18 18" width="18" xmlns="http://www.w3.org/2000/svg"><path d="m12 9c-1.838542-.03125-3.458333 1.192708-3.927083 2.96875-.473959 1.776042.317708 3.640625 1.927083 4.53125m2-13.5v2m-5.401042 13.401042-1.401041 1.401041m14.802083-15.802083v10.541667c1.567708.901041 2.333333 2.75 1.864583 4.5-.46875 1.744791-2.052083 2.963541-3.864583 2.963541s-3.395833-1.21875-3.864583-2.963541c-.46875-1.75.296875-3.598959 1.864583-4.5v-10.541667c0-1.104167.895833-2 2-2s2 .895833 2 2m-16 9h-2m4.338542-5.661458-1.40625-1.40625" fill="none" stroke="#fff" stroke-linecap="round" stroke-linejoin="round" stroke-width="2" transform="scale(.75)"/></svg>