<svg height="18" viewBox="0 0 18 18" width="18" xmlns="http://www.w3.org/2000/svg"><path d="m3.261719.00390625 12.832031 2.80859375h1.386719v15.1875h-14.554688c-.503906 0-.914062-.410156-.914062-.914062v-3.828126l1.222656-13.2148432zm0 0" fill="#36697f"/><path d="m3.261719 0h12.058593c.503907 0 .914063.410156.914063.914062v11.742188h-12.972656zm0 0" fill="#37a5cc"/><path d="m3.261719 12.65625v-12.65625l-2.742188 1.652344v12.65625zm0 0" fill="#7dc6dd"/><path d="m9.636719 2.671875c-1.664063 0-2.59375.960937-2.644531 2.035156h1.644531c.039062-.441406.308593-.8125.898437-.8125.511719 0 .824219.230469.824219.691407v.238281c0 .582031-.511719.742187-1.011719.742187h-.542968v1.171875h.542968c.5 0 1.261719.132813 1.261719.894531v.210938c0 .628906-.402344.921875-1.011719.921875-.703125 0-.992187-.402344-1.042968-.824219h-1.644532c.113282 1.03125.8125 2.066406 2.777344 2.066406 1.53125 0 2.664062-.832031 2.664062-1.964843v-.472657c0-.910156-.832031-1.382812-1.523437-1.5.691406-.160156 1.253906-.671874 1.253906-1.265624v-.378907c0-1.03125-1.023437-1.753906-2.445312-1.753906m-3.828125 11.230469v2.660156h.570312v-1.785156l.46875 1.785156h.625v-.003906l.445313-1.714844v1.71875h.632812v-2.660156h-.8125l.003907.007812-.5625 2.125-.535157-2.132812zm3.839844 0-.757813 2.660156h.660156l.148438-.582031h.796875l.164062.582031h.675782l-.800782-2.660156zm1.960937 0 .753906 1.253906-.839843 1.40625h.726562l.523438-1.003906.511718 1.003906h.746094l-.839844-1.464844.757813-1.195312h-.703125l-.460938.847656h-.003906l-.445312-.847656zm-1.519531.4375.277344 1.144531h-.546876zm0 0" fill="#fff"/></svg>