<svg height="18" viewBox="0 0 18 18" width="18" xmlns="http://www.w3.org/2000/svg"><path d="m2.28125 2.214844c-.046875.003906-.09375.027344-.125.0625-.027344.039062-.039062.089844-.027344.136718l3.429688 13.886719c.015625.054688.058594.097657.113281.113281.050781.015626.109375 0 .152344-.039062l10.320312-9.925781c.039063-.039063.058594-.097657.042969-.152344-.011719-.054687-.054688-.097656-.109375-.117187l-13.75-3.957032c-.015625-.003906-.03125-.007812-.046875-.007812m.222656.390625 13.222656 3.804687-9.925781 9.546875zm0 0"/><path d="m9.160156 4.195312c-.042968 0-.082031.015626-.113281.046876l-5.15625 4.964843c-.042969.039063-.058594.097657-.046875.152344.015625.054687.058594.097656.109375.113281l6.871094 1.980469c.054687.015625.113281 0 .15625-.039063.039062-.039062.058593-.097656.042969-.152343l-1.710938-6.945313c-.019531-.070312-.082031-.117187-.152344-.121094m-.09375.464844 1.582032 6.410156-6.339844-1.828124zm0 0"/><path d="m6.597656 6.652344c-.046875.003906-.09375.023437-.125.0625-.027344.039062-.039062.089844-.027344.136718l.851563 3.449219c.015625.054688.054687.097657.109375.113281.054688.015626.113281 0 .15625-.039062l2.5625-2.46875c.039062-.039062.054688-.097656.042969-.152344-.015625-.054687-.054688-.097656-.109375-.113281l-3.414063-.980469c-.015625-.003906-.03125-.007812-.046875-.007812m.222656.386718 2.886719.828126-2.167969 2.089843zm0 0"/><path d="m5.75 3.207031c-.039062 0-.082031.015625-.113281.042969l-2.5625 2.472656c-.039063.039063-.054688.097656-.042969.152344.015625.054688.054688.097656.109375.113281l3.414063.980469c.054687.015625.113281 0 .15625-.039062.039062-.039063.054687-.097657.042968-.152344l-.851562-3.449219c-.015625-.070313-.078125-.121094-.152344-.121094zm-.089844.464844.71875 2.914063-2.882812-.828126zm6.917969 1.503906c-.039063-.003906-.082031.011719-.113281.042969l-2.5625 2.46875c-.039063.039062-.058594.097656-.042969.152344.011719.054687.054687.097656.109375.113281l3.414062.980469c.054688.015625.113282.003906.152344-.035156.042969-.042969.058594-.097657.046875-.152344l-.851562-3.453125c-.015625-.066407-.078125-.117188-.152344-.117188zm-.089844.460938.71875 2.917969-2.886719-.828126zm-5.042969 4.46875c-.039062 0-.074218.019531-.105468.042969l-2.5625 2.472656c-.039063.039062-.054688.097656-.042969.152344.015625.054687.054687.097656.109375.113281l3.414062.980469c.054688.015624.113282 0 .15625-.039063.039063-.039063.054688-.097656.042969-.152344l-.851562-3.449219c-.019531-.074218-.085938-.125-.160157-.121093m-.082031.464843.71875 2.914063-2.886719-.828125zm0 0"/></svg>