<svg height="18" viewBox="0 0 18 18" width="18" xmlns="http://www.w3.org/2000/svg"><g fill="none" stroke="#fff" stroke-linecap="round" stroke-linejoin="round" stroke-width="2" transform="scale(.75)"><path d="m10.5 17h1.229167c.494791 0 .973958-.1875 1.34375-.520833l4.927083-4.479167m-6 1.5 3.75.5m-11.25-6 10.578125-5.0625c.244792-.114583.520833-.125.776042-.036458.25.09375.458333.28125.567708.526041l2.078125 4.572917m-12.5 2v-2m0 6v1m0 4v2"/><path d="m4 8h16c1.104167 0 2 .895833 2 2v9c0 1.104167-.895833 2-2 2h-16c-1.104167 0-2-.895833-2-2v-9c0-1.104167.895833-2 2-2zm0 0"/></g></svg>