<svg height="18" viewBox="0 0 18 18" width="18" xmlns="http://www.w3.org/2000/svg"><g fill="none" stroke="#fff" stroke-linecap="round" stroke-linejoin="round" stroke-width="2" transform="scale(.75)"><path d="m10 10v.197917c1.354167.520833 2.140625 1.9375 1.869792 3.359375-.270834 1.427083-1.520834 2.453125-2.96875 2.442708h-3.901042c-1.432292-.036458-2.640625-1.078125-2.880208-2.489583-.244792-1.411459.541666-2.796875 1.880208-3.3125v-.197917c0-1.65625 1.34375-3 3-3s3 1.34375 3 3m-3 6v6m6-3v3"/><path d="m12 19h8.302083c.395834-.005208.755209-.25.90625-.619792.15625-.369791.072917-.796875-.208333-1.078125l-3-3.302083h.302083c.395834-.005208.755209-.25.90625-.619792.15625-.369791.072917-.796875-.208333-1.078125l-3-3.302083h.197917c.421875.036458.817708-.1875.994791-.567708.182292-.380209.104167-.833334-.192708-1.130209l-4-4.302083-1.401042 1.5"/></g></svg>