<svg height="18" viewBox="0 0 18 18" width="18" xmlns="http://www.w3.org/2000/svg"><g fill="none" stroke="#fff" stroke-linecap="round" stroke-linejoin="round" stroke-width="2" transform="scale(.75)"><path d="m13 8c0-2.760417-2.458333-5-5.5-5s-5.5 2.239583-5.5 5h2l1-1 1 1h4m3-.859375c1.010417-.75 2.239583-1.151042 3.5-1.140625 3.041667 0 5.5 2.239583 5.5 5h-3l-1-1-1 1h-3"/><path d="m5.890625 9.708333c-2.151042 2.151042-2.302083 5.473959-.348958 7.432292l4.239583-4.25.697917-.703125.708333-.708333 2.125-2.119792c-1.953125-1.958333-5.270833-1.796875-7.421875.348958"/><path d="m11 15.5c.5 2.5-.171875 4.5-1 6.5h4c2-5.5-.5-12-1-14"/></g></svg>