<svg height="18" viewBox="0 0 18 18" width="18" xmlns="http://www.w3.org/2000/svg" xmlns:xlink="http://www.w3.org/1999/xlink"><linearGradient id="a" gradientUnits="userSpaceOnUse" x1="9" x2="9" y1="0" y2="18"><stop offset="0" stop-color="#2684ff"/><stop offset="1" stop-color="#0052cc"/></linearGradient><path d="m1.757812 0h14.484376c.972656 0 1.757812.785156 1.757812 1.757812v14.484376c0 .972656-.785156 1.757812-1.757812 1.757812h-14.484376c-.972656 0-1.757812-.785156-1.757812-1.757812v-14.484376c0-.972656.785156-1.757812 1.757812-1.757812" fill="url(#a)"/><path d="m11.015625 2.339844h3.800781c.46875 0 .84375.375.84375.84375v6.1875c0 .46875-.375.84375-.84375.84375h-3.800781c-.46875 0-.84375-.375-.84375-.84375v-6.1875c0-.46875.375-.84375.84375-.84375m-7.832031 0h3.800781c.46875 0 .84375.375.84375.84375v10.6875c0 .46875-.375.84375-.84375.84375h-3.800781c-.46875 0-.84375-.375-.84375-.84375v-10.6875c0-.46875.375-.84375.84375-.84375" fill="#fff"/></svg>