<svg height="18" viewBox="0 0 18 18" width="18" xmlns="http://www.w3.org/2000/svg"><path d="m0 5.34375c0-2.953125 2.390625-5.34375 5.34375-5.34375h7.3125c2.953125 0 5.34375 2.390625 5.34375 5.34375v7.3125c0 2.953125-2.390625 5.34375-5.34375 5.34375h-7.3125c-2.953125 0-5.34375-2.390625-5.34375-5.34375zm0 0" fill="#398ccb"/><path d="m8.984375 2.644531 2.492187 1.433594v.789063l3.023438 1.757812v2.980469l.8125.464843v2.894532l-2.488281 1.433594-1.109375-.644532-2.699219 1.558594-2.6875-1.546875-1.082031.632813-2.503906-1.445313v-2.882813l.789062-.453124v-2.992188l2.953125-1.71875v-.828125zm2.503906 2.980469v1.351562l-2.503906 1.433594-2.488281-1.433594v-1.308593l-2.320313 1.335937v2.25l1.070313-.621094 2.503906 1.449219v2.882813l-.761719.4375 2.039063 1.167968 2.039062-1.183593-.746094-.421875v-2.882813l2.503907-1.449219 1.042969.605469v-2.234375zm1.011719 7.847656v-1.773437l-1.515625-.871094v1.757813zm2.167969-2.644531-1.519531.886719v1.757812l1.519531-.886718zm-9.746094 2.644531v-1.757812l-1.53125-.886719v1.757813zm2.179687-2.628906-1.519531.871094v1.757812l1.519531-.871094zm5.722657.320312 1.535156-.882812-1.535156-.875-1.519531.875zm-7.578125-1.757812-1.519532.875 1.519532.882812 1.519531-.882812zm3.417968-1.910156v-1.757813l-1.519531-.871093v1.757812zm2.179688-2.644532-1.535156.886719v1.757813l1.535156-.886719zm-1.859375.324219 1.535156-.886719-1.535156-.871093-1.515625.871093zm0 0" fill="#fff"/></svg>