<svg height="18" viewBox="0 0 18 18" width="18" xmlns="http://www.w3.org/2000/svg"><path d="m3.1875 6.609375h14.015625v10.359375h-14.015625zm0 0" fill="#fff"/><path d="m.210938 8.988281v8.789063h17.578124v-17.578125h-17.578124zm14.164062-.703125c.421875.097656.804688.316406 1.101562.632813.164063.167969.304688.359375.421876.5625 0 .023437-.761719.535156-1.222657.820312-.015625.011719-.085937-.058593-.160156-.171875-.171875-.296875-.480469-.484375-.824219-.496094-.53125-.035156-.875.242188-.875.703126-.003906.113281.023438.226562.078125.328124.117188.246094.335938.390626 1.015625.683594 1.261719.542969 1.800782.898438 2.132813 1.40625.375.5625.457031 1.472656.203125 2.144532-.28125.730468-.96875 1.226562-1.941406 1.390624-.445313.050782-.898438.046876-1.339844-.011718-.679688-.113282-1.308594-.441406-1.789063-.933594-.160156-.179688-.476562-.644531-.457031-.679688.050781-.035156.105469-.070312.160156-.101562l.652344-.359375.503906-.292969.105469.15625c.179687.253906.40625.472656.667969.640625.5625.292969 1.328125.253907 1.710937-.089843.261719-.257813.300781-.667969.09375-.972657-.140625-.195312-.421875-.359375-1.207031-.703125-.90625-.390625-1.296875-.632812-1.652344-1.019531-.226562-.253906-.390625-.550781-.484375-.878906-.070312-.371094-.082031-.75-.03125-1.125.1875-.875.84375-1.484375 1.804688-1.667969.441406-.054688.894531-.042969 1.332031.035156zm-4.125.734375v.722657h-2.28125v6.5h-1.621094v-6.503907h-2.285156v-.703125c-.007812-.242187-.003906-.484375.015625-.726562.011719-.011719 1.40625-.011719 3.09375-.011719h3.070313zm0 0" fill="#007acc"/></svg>