<svg height="18" viewBox="0 0 18 18" width="18" xmlns="http://www.w3.org/2000/svg"><path d="m14.71875 0h-11.34375v18h11.34375zm0 0" fill="#e95420"/><path d="m5.96875 12.699219c.648438 0 1.175781-.527344 1.175781-1.183594 0-.652344-.527343-1.183594-1.175781-1.183594s-1.175781.53125-1.175781 1.183594c0 .65625.527343 1.183594 1.175781 1.183594m4.890625-2.59375c.648437 0 1.175781-.53125 1.175781-1.183594s-.527344-1.183594-1.175781-1.183594-1.175781.53125-1.175781 1.183594.527344 1.183594 1.175781 1.183594m-2.242187 4.457031c-.847657-.183594-1.554688-.726562-1.949219-1.5-.316407.144531-.664063.1875-1.003907.125.480469 1.191406 1.5 2.054688 2.75 2.324219.277344.058593.554688.089843.835938.085937-.214844-.285156-.335938-.628906-.34375-.988281-.097656-.011719-.195312-.027344-.289062-.046875zm1.976562 1.191406c.648438 0 1.175781-.53125 1.175781-1.183594 0-.65625-.527343-1.183593-1.175781-1.183593s-1.171875.527343-1.171875 1.183593c0 .652344.523437 1.183594 1.171875 1.183594m1.636719-1.621094c.363281-.460937.621093-1.011718.746093-1.59375.214844-1.015624.015626-2.078124-.554687-2.949218-.136719.324218-.367187.59375-.660156.78125.316406.601562.414062 1.296875.269531 1.964844-.066406.324218-.191406.632812-.363281.917968.273437.226563.472656.535156.5625.882813zm-6.351563-4.3125c.148438-.007812.296875.003907.441406.035157.191407.039062.371094.113281.539063.21875.527344-.769531 1.378906-1.226563 2.304687-1.246094.019532-.347656.144532-.683594.355469-.957031-1.476562-.121094-2.910156.648437-3.640625 1.949218zm0 0" fill="#fff"/></svg>