<svg height="18" viewBox="0 0 18 18" width="18" xmlns="http://www.w3.org/2000/svg"><path d="m3.691406 15.164062v-5.132812l.984375 5.542969 1.601563.796875 1.03125-4.605469v5.039063l1.808594.890624v-8.507812l-2.746094-1.300781-.871094 4.058593-.878906-4.894531-2.730469-1.308593v8.515624zm0 0" fill="#fbbd16"/><path d="m9.371094 9.183594 2.867187-1.488282v6.171876l3.972657-2.050782.015624 2.324219-6.847656 3.597656zm0 0" fill="#452e7f"/><path d="m8.210938.210938-2.027344 1.792968s3.960937 2.035156 4.441406 2.277344c.480469.238281 1.164062.703125.425781 1.386719-.742187.683593-1.554687.589843-2.109375.3125-.558594-.277344-4.664062-2.347657-4.664062-2.347657l-2.089844 1.777344s4.03125 2.050782 4.699219 2.402344c.664062.351562 3.144531 1.21875 5.496093-.609375 2.347657-1.832031 2.015626-2.496094 2.015626-2.628906 0-.128907-.054688-.8125-.460938-1.238281-.40625-.425782-1.59375-1.035157-2.09375-1.292969-.5-.257813-3.632812-1.832031-3.632812-1.832031m0 0" fill="#962444"/><path d="m16.140625 10.628906c0 .300782-.238281.535156-.542969.535156-.304687 0-.546875-.234374-.546875-.535156 0-.292968.242188-.53125.546875-.53125.304688 0 .542969.238282.542969.53125m-.953125 0c0 .234375.171875.425782.414062.425782.230469 0 .402344-.191407.402344-.421876 0-.238281-.171875-.425781-.40625-.425781-.238281 0-.410156.1875-.410156.421875m.324219.277344h-.121094v-.527344c.046875-.011718.113281-.019531.203125-.019531.101562 0 .144531.019531.183594.039063.027344.023437.050781.066406.050781.117187 0 .058594-.042969.105469-.109375.121094v.007812c.050781.019531.082031.058594.097656.128907.015625.082031.027344.113281.039063.132812h-.132813c-.015625-.019531-.027344-.066406-.042968-.128906-.007813-.058594-.042969-.082032-.109376-.082032h-.058593zm.003906-.300781h.058594c.066406 0 .121093-.019531.121093-.074219 0-.050781-.035156-.082031-.113281-.082031-.03125 0-.054687.003906-.066406.003906zm0 0" fill="#6d6e71"/></svg>