<svg height="18" viewBox="0 0 18 18" width="18" xmlns="http://www.w3.org/2000/svg" xmlns:xlink="http://www.w3.org/1999/xlink"><clipPath id="a"><path d="m2 5.625h14v.984375h-14zm0 0"/></clipPath><clipPath id="b"><path d="m17.46875 3.070312-1.539062 2.695313-.433594.769531h-1.039063l-1.328125 2.511719c.480469 2.101563-.691406 4.230469-2.722656 4.949219l-1.40625 2.550781-1.394531-2.550781-.144531-.046875c-1.960938-.773438-3.058594-2.859375-2.589844-4.910157l-1.320313-2.503906h-1.039062l-.441407-.769531-1.539062-2.695313h4.425781l.722657 1.433594.039062.019532.007812-.019532c.132813-1.703125 1.554688-3.019531 3.261719-3.019531 1.710938 0 3.132813 1.316406 3.265625 3.019531l-.019531.019532-.011719-.019532.820313-1.433594zm0 0"/></clipPath><clipPath id="c"><path d="m.421875 3h17.15625v13.59375h-17.15625zm0 0"/></clipPath><clipPath id="d"><path d="m17.46875 3.070312-1.539062 2.695313-.433594.769531h-1.039063l-1.328125 2.511719c.480469 2.101563-.691406 4.230469-2.722656 4.949219l-1.40625 2.550781-1.394531-2.550781-.144531-.046875c-1.960938-.773438-3.058594-2.859375-2.589844-4.910157l-1.320313-2.503906h-1.039062l-.441407-.769531-1.539062-2.695313h4.425781l.722657 1.433594.039062.019532.007812-.019532c.132813-1.703125 1.554688-3.019531 3.261719-3.019531 1.710938 0 3.132813 1.316406 3.265625 3.019531l-.019531.019532-.011719-.019532.820313-1.433594zm0 0"/></clipPath><clipPath id="e"><path d="m.421875 3h17.15625v.234375h-17.15625zm0 0"/></clipPath><clipPath id="f"><path d="m17.46875 3.070312-1.539062 2.695313-.433594.769531h-1.039063l-1.328125 2.511719c.480469 2.101563-.691406 4.230469-2.722656 4.949219l-1.40625 2.550781-1.394531-2.550781-.144531-.046875c-1.960938-.773438-3.058594-2.859375-2.589844-4.910157l-1.320313-2.503906h-1.039062l-.441407-.769531-1.539062-2.695313h4.425781l.722657 1.433594.039062.019532.007812-.019532c.132813-1.703125 1.554688-3.019531 3.261719-3.019531 1.710938 0 3.132813 1.316406 3.265625 3.019531l-.019531.019532-.011719-.019532.820313-1.433594zm0 0"/></clipPath><clipPath id="g"><path d="m2.390625 6.328125h13.21875v10.265625h-13.21875zm0 0"/></clipPath><clipPath id="h"><path d="m17.46875 3.070312-1.539062 2.695313-.433594.769531h-1.039063l-1.328125 2.511719c.480469 2.101563-.691406 4.230469-2.722656 4.949219l-1.40625 2.550781-1.394531-2.550781-.144531-.046875c-1.960938-.773438-3.058594-2.859375-2.589844-4.910157l-1.320313-2.503906h-1.039062l-.441407-.769531-1.539062-2.695313h4.425781l.722657 1.433594.039062.019532.007812-.019532c.132813-1.703125 1.554688-3.019531 3.261719-3.019531 1.710938 0 3.132813 1.316406 3.265625 3.019531l-.019531.019532-.011719-.019532.820313-1.433594zm0 0"/></clipPath><clipPath id="i"><path d="m7.3125 3.515625h3.375v8.15625h-3.375zm0 0"/></clipPath><clipPath id="j"><path d="m17.46875 3.070312-1.539062 2.695313-.433594.769531h-1.039063l-1.328125 2.511719c.480469 2.101563-.691406 4.230469-2.722656 4.949219l-1.40625 2.550781-1.394531-2.550781-.144531-.046875c-1.960938-.773438-3.058594-2.859375-2.589844-4.910157l-1.320313-2.503906h-1.039062l-.441407-.769531-1.539062-2.695313h4.425781l.722657 1.433594.039062.019532.007812-.019532c.132813-1.703125 1.554688-3.019531 3.261719-3.019531 1.710938 0 3.132813 1.316406 3.265625 3.019531l-.019531.019532-.011719-.019532.820313-1.433594zm0 0"/></clipPath><clipPath id="k"><path d="m4.640625 1.40625h8.71875v12.9375h-8.71875zm0 0"/></clipPath><clipPath id="l"><path d="m17.46875 3.070312-1.539062 2.695313-.433594.769531h-1.039063l-1.328125 2.511719c.480469 2.101563-.691406 4.230469-2.722656 4.949219l-1.40625 2.550781-1.394531-2.550781-.144531-.046875c-1.960938-.773438-3.058594-2.859375-2.589844-4.910157l-1.320313-2.503906h-1.039062l-.441407-.769531-1.539062-2.695313h4.425781l.722657 1.433594.039062.019532.007812-.019532c.132813-1.703125 1.554688-3.019531 3.261719-3.019531 1.710938 0 3.132813 1.316406 3.265625 3.019531l-.019531.019532-.011719-.019532.820313-1.433594zm0 0"/></clipPath><clipPath id="m"><path d="m4.640625 1.40625h8.71875v8.71875h-8.71875zm0 0"/></clipPath><clipPath id="n"><path d="m17.46875 3.070312-1.539062 2.695313-.433594.769531h-1.039063l-1.328125 2.511719c.480469 2.101563-.691406 4.230469-2.722656 4.949219l-1.40625 2.550781-1.394531-2.550781-.144531-.046875c-1.960938-.773438-3.058594-2.859375-2.589844-4.910157l-1.320313-2.503906h-1.039062l-.441407-.769531-1.539062-2.695313h4.425781l.722657 1.433594.039062.019532.007812-.019532c.132813-1.703125 1.554688-3.019531 3.261719-3.019531 1.710938 0 3.132813 1.316406 3.265625 3.019531l-.019531.019532-.011719-.019532.820313-1.433594zm0 0"/></clipPath><clipPath id="o"><path d="m4.640625 4.640625h8.71875v9.703125h-8.71875zm0 0"/></clipPath><clipPath id="p"><path d="m17.46875 3.070312-1.539062 2.695313-.433594.769531h-1.039063l-1.328125 2.511719c.480469 2.101563-.691406 4.230469-2.722656 4.949219l-1.40625 2.550781-1.394531-2.550781-.144531-.046875c-1.960938-.773438-3.058594-2.859375-2.589844-4.910157l-1.320313-2.503906h-1.039062l-.441407-.769531-1.539062-2.695313h4.425781l.722657 1.433594.039062.019532.007812-.019532c.132813-1.703125 1.554688-3.019531 3.261719-3.019531 1.710938 0 3.132813 1.316406 3.265625 3.019531l-.019531.019532-.011719-.019532.820313-1.433594zm0 0"/></clipPath><radialGradient id="q" cx="78" cy="337" gradientTransform="matrix(.00962567 .00004654 -.00004654 .00962567 0 0)" gradientUnits="userSpaceOnUse" r="1854"><stop offset="0" stop-color="#fff" stop-opacity=".102"/><stop offset="1" stop-color="#fff" stop-opacity="0"/></radialGradient><g clip-path="url(#a)"><g clip-path="url(#b)"><path d="m14.726562 5.667969-.414062.867187h1.175781l.058594-.09375.429687-.773437h-1.257812zm-11.472656 0h-1.230468l.488281.867187h1.164062zm0 0" fill="#9e9e9e"/></g></g><g clip-path="url(#c)"><g clip-path="url(#d)"><path d="m17.46875 3.070312-1.539062 2.695313h-1.078126l-1.722656 3.28125-4.128906 7.5-4.128906-7.507813-1.722656-3.273437h-1.078126l-1.539062-2.695313h4.425781l.722657 1.433594 2.347656 4.285156.960937 1.761719.925781-1.761719 2.308594-4.285156.820313-1.433594" fill="#424242"/></g></g><g clip-path="url(#e)"><g clip-path="url(#f)"><path d="m5.011719 3.167969h-4.429688l-.050781-.097657h4.425781zm8.03125-.097657-.054688.097657h4.425781l.054688-.097657zm0 0" fill="#fff" fill-opacity=".2"/></g></g><g clip-path="url(#g)"><g clip-path="url(#h)"><path d="m15.550781 6.4375-.058593.097656h-1.042969l-1.324219 2.507813-4.125 7.503906-4.125-7.503906-1.320312-2.507813h-1.046876l-.054687-.09375h1.101563l.050781.09375 1.269531 2.410156 4.125 7.503907 4.125-7.5 1.324219-2.511719" fill="#263238" fill-opacity=".2"/></g></g><g clip-path="url(#i)"><g clip-path="url(#j)"><path d="m10.636719 10c0 .90625-.734375 1.636719-1.636719 1.636719s-1.636719-.730469-1.636719-1.636719c0-.902344.734375-1.636719 1.636719-1.636719s1.636719.734375 1.636719 1.636719m-.191407-5.003906c0 .796875-.648437 1.445312-1.445312 1.445312s-1.445312-.648437-1.445312-1.445312.648437-1.445313 1.445312-1.445313 1.445312.648438 1.445312 1.445313m0 0" fill="#fff"/></g></g><g clip-path="url(#k)"><g clip-path="url(#l)"><path d="m13.128906 9.046875c-.214844-.917969-.726562-1.742187-1.460937-2.335937.800781-1.121094.816406-2.625.035156-3.761719s-2.191406-1.660157-3.523437-1.3125c-1.335938.347656-2.308594 1.496093-2.433594 2.867187-.074219.78125.132812 1.566406.585937 2.207032-.730469.589843-1.246093 1.410156-1.460937 2.328124-.074219.316407-.109375.636719-.105469.960938 0 1.792969 1.117187 3.332031 2.695313 3.949219.488281.1875 1.011718.289062 1.539062.289062 1.292969.003907 2.515625-.585937 3.320312-1.597656.804688-1.011719 1.101563-2.332031.808594-3.59375m-4.128906-5.398437c.746094 0 1.347656.601562 1.347656 1.347656 0 .742187-.601562 1.347656-1.347656 1.347656s-1.347656-.605469-1.347656-1.347656c0-.746094.601562-1.347656 1.347656-1.347656m0 7.894531c-.847656 0-1.539062-.695313-1.539062-1.542969 0-.585938.335937-1.121094.863281-1.378906.527343-.257813 1.15625-.191406 1.617187.167968.378906.289063.597656.738282.597656 1.210938 0 .851562-.6875 1.539062-1.539062 1.539062zm0 0" fill="#4285f4"/></g></g><g clip-path="url(#m)"><g clip-path="url(#n)"><path d="m12.273438 4.804688v.046874c-.027344-1.785156-1.484376-3.226562-3.273438-3.226562s-3.246094 1.441406-3.273438 3.226562v-.046874c0-1.808594 1.464844-3.273438 3.273438-3.273438s3.273438 1.464844 3.273438 3.273438m-5.976563 1.9375c-.9375.773437-1.53125 1.949218-1.53125 3.257812v.050781c.011719-1.3125.625-2.480469 1.570313-3.246093l.046874-.035157-.046874-.058593-.039063.039062zm5.40625 0-.039063-.035157-.046874.0625.046874.039063c.945313.769531 1.558594 1.933594 1.570313 3.242187v-.046875c0-1.3125-.59375-2.484375-1.53125-3.253906zm0 0" fill="#fff" fill-opacity=".2"/></g></g><g clip-path="url(#o)"><g clip-path="url(#p)"><path d="m13.234375 9.953125v.046875c0 2.339844-1.894531 4.238281-4.234375 4.238281s-4.234375-1.898437-4.234375-4.238281v-.046875c.023437 2.316406 1.910156 4.1875 4.234375 4.1875s4.210938-1.871094 4.234375-4.1875zm-7.507813-5.199219v.050782c0 .707031.230469 1.394531.65625 1.960937.015626-.007813.03125-.023437.046876-.035156-.445313-.5625-.691407-1.257813-.703126-1.976563m6.546876 0c-.011719.71875-.257813 1.414063-.703126 1.976563.015626.011719.03125.027343.046876.035156.410156-.535156.65625-1.21875.65625-1.960937zm0 0" fill="#263238" fill-opacity=".2"/></g></g><path d="m17.46875 3.070312-1.539062 2.695313-.433594.769531h-1.046875l-1.320313 2.511719c.480469 2.101563-.691406 4.230469-2.722656 4.949219l-1.40625 2.550781-1.394531-2.550781-.144531-.046875c-1.960938-.773438-3.058594-2.859375-2.589844-4.910157l-1.320313-2.503906h-1.039062l-.441407-.769531-1.539062-2.695313h4.425781l.722657 1.433594.039062.019532.007812-.019532c.132813-1.703125 1.554688-3.019531 3.261719-3.019531 1.710938 0 3.132813 1.316406 3.265625 3.019531l-.019531.019532-.011719-.019532.820313-1.433594zm0 0" fill="url(#q)"/></svg>