<svg height="18" viewBox="0 0 18 18" width="18" xmlns="http://www.w3.org/2000/svg"><g stroke="#fff" stroke-linecap="round" stroke-linejoin="round" stroke-width="2" transform="scale(.75)"><path d="m5 3h14c1.104167 0 2 .895833 2 2v14c0 1.104167-.895833 2-2 2h-14c-1.104167 0-2-.895833-2-2v-14c0-1.104167.895833-2 2-2zm0 0" fill="none"/><path d="m8 7.5c0 .276042-.223958.5-.5.5s-.5-.223958-.5-.5.223958-.5.5-.5.5.223958.5.5zm0 0" fill="#fff"/><path d="m7.901042 7.901042 2.697916 2.697916" fill="none"/><path d="m17 7.5c0 .276042-.223958.5-.5.5s-.5-.223958-.5-.5.223958-.5.5-.5.5.223958.5.5zm0 0" fill="#fff"/><path d="m13.401042 10.598958 2.697916-2.697916" fill="none"/><path d="m8 16.5c0 .276042-.223958.5-.5.5s-.5-.223958-.5-.5.223958-.5.5-.5.5.223958.5.5zm0 0" fill="#fff"/><path d="m7.901042 16.098958 2.697916-2.697916" fill="none"/><path d="m17 16.5c0 .276042-.223958.5-.5.5s-.5-.223958-.5-.5.223958-.5.5-.5.5.223958.5.5zm0 0" fill="#fff"/><g fill="none"><path d="m13.401042 13.401042 2.697916 2.697916"/><path d="m14 12c0 1.104167-.895833 2-2 2s-2-.895833-2-2 .895833-2 2-2 2 .895833 2 2zm0 0"/></g></g></svg>