<svg height="18" viewBox="0 0 18 18" width="18" xmlns="http://www.w3.org/2000/svg"><g fill="none" stroke="#fff" stroke-linecap="round" stroke-linejoin="round" stroke-width="2" transform="scale(.75)"><path d="m18 11c-1.5 0-2.5.5-3 2"/><path d="m4 6c-1.104167 0-2 .895833-2 2v4c0 2.760417 2.239583 5 5 5 1.848958.067708 3.614583.776042 5 2 1.385417-1.223958 3.151042-1.932292 5-2 2.760417 0 5-2.239583 5-5v-4c0-1.104167-.895833-2-2-2h-3c-1.848958.067708-3.614583.776042-5 2-1.385417-1.223958-3.151042-1.932292-5-2zm0 0"/><path d="m6 11c1.5 0 2.5.5 3 2"/></g></svg>