<svg height="18" viewBox="0 0 18 18" width="18" xmlns="http://www.w3.org/2000/svg"><g fill="none" stroke="#fff" stroke-linecap="round" stroke-linejoin="round" stroke-width="2" transform="scale(.75)"><path d="m4 4h16c1.104167 0 2 .895833 2 2v12c0 1.104167-.895833 2-2 2h-16c-1.104167 0-2-.895833-2-2v-12c0-1.104167.895833-2 2-2zm0 0"/><path d="m2 8h20"/><path d="m10 14c0 1.104167-.895833 2-2 2s-2-.895833-2-2 .895833-2 2-2 2 .895833 2 2zm0 0"/><path d="m8 12h8"/><path d="m18 14c0 1.104167-.895833 2-2 2s-2-.895833-2-2 .895833-2 2-2 2 .895833 2 2zm0 0"/></g></svg>