<svg height="18" viewBox="0 0 18 18" width="18" xmlns="http://www.w3.org/2000/svg"><path d="m13.507812 5.742188-4.304687 6.21875c-.066406.101562-.179687.160156-.304687.160156-.121094 0-.234376-.058594-.304688-.160156-.042969-.066407-.066406-.144532-.0625-.226563l.171875-3.433594-2.78125-.589843c-.117187-.023438-.21875-.109376-.265625-.222657-.042969-.113281-.03125-.246093.039062-.34375l4.304688-6.222656c.09375-.136719.265625-.195313.421875-.140625.078125.023438.140625.074219.1875.140625s.066406.144531.0625.226563l-.171875 3.433593 2.78125.589844c.058594.011719.113281.039063.160156.078125.144532.121094.175782.335938.066406.488281zm0 0" fill="#fcc72b"/><g fill="#729b1b"><path d="m9 17.183594c-.230469 0-.449219-.09375-.613281-.257813l-4.066407-4.066406c-.25-.246094-.324218-.621094-.1875-.945313.132813-.324218.453126-.539062.804688-.539062.230469 0 .449219.089844.613281.253906l3.449219 3.449219 7.519531-7.515625c.339844-.339844.890625-.339844 1.230469 0s.339844.890625 0 1.234375l-8.132812 8.128906c-.164063.164063-.382813.257813-.617188.257813"/><path d="m9 17.183594c.113281 0 .226562-.023438.332031-.066406.105469-.042969.203125-.109376.28125-.191407l4.066407-4.066406c.339843-.339844.339843-.890625 0-1.230469-.339844-.335937-.890626-.339844-1.230469 0l-3.449219 3.449219-7.519531-7.515625c-.339844-.332031-.886719-.332031-1.222657.007812-.3398432.335938-.3437495.882813-.007812 1.226563l8.132812 8.128906c.164063.164063.382813.257813.613282.257813zm0 0" fill-opacity=".5"/></g></svg>