<svg height="18" viewBox="0 0 18 18" width="18" xmlns="http://www.w3.org/2000/svg"><g fill="none" stroke="#fff" stroke-linecap="round" stroke-linejoin="round" stroke-width="2" transform="scale(.75)"><path d="m11.098958 7.098958c4-.026041 7.869792 1.395834 10.901042 4m-10 .901042c-2.083333 2.796875-5.234375 4.609375-8.697917 5m13.5-3.401042c-1.989583 3.515625-5.1875 6.182292-9 7.5"/><path d="m20.697917 17c-2.098959-2.78125-5.239584-4.588542-8.697917-5-1.302083-3.208333-1.302083-6.791667 0-10m-5.697917 1.802083c-.786458 3.932292-.109375 8.020834 1.895834 11.5"/><path d="m22 12c0 5.520833-4.479167 10-10 10s-10-4.479167-10-10 4.479167-10 10-10 10 4.479167 10 10zm0 0"/></g></svg>