<svg height="18" viewBox="0 0 18 18" width="18" xmlns="http://www.w3.org/2000/svg"><path d="m16 9c.505208.671875.833333 1.463542.947917 2.291667m2.416666-5.65625c2.614584 2.614583 3.364584 6.567708 1.890625 9.958333m-19.255208-13.59375 20 20m-15-15-.588542.588542c-.260416.265625-.619791.411458-.994791.411458h-2.416667c-.552083 0-1 .447917-1 1v6c0 .552083.447917 1 1 1h2.416667c.375 0 .734375.145833.994791.411458l3.385417 3.385417c.203125.203125.505208.260417.765625.151042.265625-.109375.4375-.364584.4375-.651042v-8.296875m-1.171875-6.828125c.197917-.197917.489583-.255208.75-.151042.255208.109375.421875.359375.421875.635417v.6875" fill="none" stroke="#fff" stroke-linecap="round" stroke-linejoin="round" stroke-width="2" transform="scale(.75)"/></svg>