<svg height="18" viewBox="0 0 18 18" width="18" xmlns="http://www.w3.org/2000/svg"><path d="m8.460938.015625h-5.839844s-2.300782.117187-2.621094 2.621094v12.566406s.160156 2.519531 2.78125 2.78125h5.113281l.769531-.769531h-5.796874s-1.832032-.234375-2.066407-2.070313v-12.347656s-.074219-1.863281 2.039063-2.039063h4.9375zm0 0" fill="#00c1d5"/><path d="m9.539062 17.984375h5.839844s2.300782-.117187 2.621094-2.621094v-12.566406s-.160156-2.519531-2.78125-2.78125h-5.097656l-.773438.769531h5.785156s1.832032.234375 2.066407 2.070313v12.347656s.074219 1.863281-2.039063 2.039063h-4.921875zm0 0" fill="#78bd20"/><g fill="#0091da"><path d="m14.257812 15.683594h-7.644531c-.949219 0-1.28125-.84375-1.328125-1.296875v-7.890625c0-1.0625.917969-1.382813 1.398438-1.398438h.015625l7.675781.027344c.960938 0 1.308594.875 1.351562 1.328125v7.746094c0 .4375-.128906.800781-.40625 1.0625-.40625.410156-.976562.421875-1.0625.421875m-8.390624-1.351563c.015624.113281.132812.769531.746093.769531h7.644531c.015626 0 .40625 0 .667969-.246093.148438-.148438.21875-.363281.21875-.640625v-7.707032c-.011719-.128906-.144531-.800781-.785156-.800781l-7.660156-.027343c-.101563 0-.832031.074218-.832031.816406zm0 0"/><path d="m4.515625 12.117188h-1.019531c-.570313 0-.671875-.597657-.699219-.714844v-7.835938c0-.699218.65625-.753906.769531-.769531l7.675782.027344c.582031 0 .699218.628906.730468.742187v.800782h.695313v-.859376c-.054688-.480468-.421875-1.382812-1.410157-1.382812l-7.691406-.027344c-.492187.015625-1.441406.347656-1.441406 1.457032v7.890624c.042969.46875.410156 1.355469 1.382812 1.355469h1.019532v-.683593zm0 0"/></g></svg>