<svg height="18" viewBox="0 0 18 18" width="18" xmlns="http://www.w3.org/2000/svg"><g fill="none" stroke="#fff" stroke-linecap="round" stroke-linejoin="round" stroke-width="2" transform="scale(.75)"><path d="m5 3h14c1.104167 0 2 .895833 2 2v14c0 1.104167-.895833 2-2 2h-14c-1.104167 0-2-.895833-2-2v-14c0-1.104167.895833-2 2-2zm0 0"/><path d="m3 9c0-1.104167.895833-2 2-2h14c1.104167 0 2 .895833 2 2m-18 2h3c.802083 0 1.598958.302083 2.098958.901042l1.098959.901041c1.604166 1.598959 4.104166 1.598959 5.703125 0l1.098958-.901041c.5-.5 1.302083-.901042 2.098958-.901042h2.901042"/></g></svg>