<svg height="18" viewBox="0 0 18 18" width="18" xmlns="http://www.w3.org/2000/svg"><g fill="none" stroke="#fff" stroke-linecap="round" stroke-linejoin="round" stroke-width="2" transform="scale(.75)"><path d="m3 6h3m11 0h.010417"/><path d="m5 2h14c1.104167 0 2 .895833 2 2v16c0 1.104167-.895833 2-2 2h-14c-1.104167 0-2-.895833-2-2v-16c0-1.104167.895833-2 2-2zm0 0"/><path d="m17 13c0 2.760417-2.239583 5-5 5s-5-2.239583-5-5 2.239583-5 5-5 5 2.239583 5 5zm0 0"/><path d="m12 18c1.380208 0 2.5-1.119792 2.5-2.5s-1.119792-2.5-2.5-2.5-2.5-1.119792-2.5-2.5 1.119792-2.5 2.5-2.5"/></g></svg>