<svg height="18" viewBox="0 0 18 18" width="18" xmlns="http://www.w3.org/2000/svg"><g fill="none" stroke="#fff" stroke-linecap="round" stroke-linejoin="round" stroke-width="2" transform="scale(.75)"><path d="m18 12c0 3.3125-2.6875 6-6 6s-6-2.6875-6-6 2.6875-6 6-6 6 2.6875 6 6zm0 0"/><path d="m12 10v2l1 1m3.130208-5.338542-.8125-4.052083c-.1875-.947917-1.03125-1.630208-2-1.609375h-2.677083c-.96875-.020833-1.8125.661458-2 1.609375l-.78125 4.052083m.020833 8.697917.802084 4c.1875.953125 1.03125 1.630208 2 1.609375h2.71875c.96875.020833 1.8125-.65625 2-1.609375l.807291-4.046875"/></g></svg>