<svg height="18" viewBox="0 0 18 18" width="18" xmlns="http://www.w3.org/2000/svg"><g fill="none" stroke="#fff" stroke-linecap="round" stroke-linejoin="round" stroke-width="2" transform="scale(.75)"><path d="m14.5 4.5c0 1.380208-1.119792 2.5-2.5 2.5s-2.5-1.119792-2.5-2.5 1.119792-2.5 2.5-2.5 2.5 1.119792 2.5 2.5zm0 0"/><path d="m10.197917 6.302083-3.895834 3.895834"/><path d="m7 12c0 1.380208-1.119792 2.5-2.5 2.5s-2.5-1.119792-2.5-2.5 1.119792-2.5 2.5-2.5 2.5 1.119792 2.5 2.5zm0 0"/><path d="m7 12h10"/><path d="m22 12c0 1.380208-1.119792 2.5-2.5 2.5s-2.5-1.119792-2.5-2.5 1.119792-2.5 2.5-2.5 2.5 1.119792 2.5 2.5zm0 0"/><path d="m13.802083 17.697917 3.895834-3.895834"/><path d="m14.5 19.5c0 1.380208-1.119792 2.5-2.5 2.5s-2.5-1.119792-2.5-2.5 1.119792-2.5 2.5-2.5 2.5 1.119792 2.5 2.5zm0 0"/></g></svg>