<svg height="18" viewBox="0 0 18 18" width="18" xmlns="http://www.w3.org/2000/svg"><g fill="none" stroke="#fff" stroke-linecap="round" stroke-linejoin="round" stroke-width="2" transform="scale(.75)"><path d="m18 16.979167h-5.989583c-1.098959 0-1.947917.942708-2.479167 1.901041-.864583 1.619792-2.71875 2.442709-4.5 2-1.78125-.442708-3.03125-2.046875-3.03125-3.880208.010417-.697917.197917-1.401042.567708-2"/><path d="m6 17 3.130208-5.78125c.53125-.96875.098959-2.177083-.5-3.098958-.770833-1.234375-.8125-2.786459-.109375-4.057292.708334-1.276042 2.046875-2.0625 3.5-2.0625s2.791667.786458 3.5 2.0625"/><path d="m12 6 3.130208 5.729167c.53125.96875 1.770834 1.270833 2.869792 1.270833 2.208333 0 4 1.791667 4 4s-1.791667 4-4 4"/></g></svg>