<svg height="18" viewBox="0 0 18 18" width="18" xmlns="http://www.w3.org/2000/svg"><g fill-rule="evenodd"><path d="m6.082031 17.046875c.011719.144531.003907.292969.042969.429687.015625.054688.125.085938.195312.128907l.085938.058593c-.03125.019532-.066406.054688-.097656.054688-.261719.003906-.527344.003906-.789063 0-.035156 0-.066406-.035156-.101562-.050781.027343-.019531.054687-.054688.082031-.058594.175781-.015625.230469-.121094.230469-.277344-.003907-.292969 0-.582031 0-.875 0-.160156-.046875-.277343-.238281-.285156-.023438-.003906-.050782-.042969-.074219-.066406.023437-.015625.050781-.042969.074219-.042969.335937.003906.675781-.003906 1.007812.023438.265625.023437.4375.207031.457031.414062.019531.230469-.097656.390625-.367187.492188l-.101563.039062c.171875.160156.324219.320312.492188.460938.078125.058593.183593.097656.28125.113281.195312.035156.300781-.050781.308593-.246094.007813-.3125.003907-.625 0-.941406 0-.140625-.0625-.238281-.222656-.246094-.03125 0-.058594-.035156-.089844-.054687.035157-.019532.066407-.054688.101563-.054688.34375.003906.6875-.007812 1.023437.023438.582032.050781.90625.53125.734376 1.066406-.101563.324218-.351563.507812-.667969.53125-.558594.035156-1.117188.027344-1.675781.03125-.042969.003906-.097657-.046875-.132813-.085938-.128906-.152344-.25-.3125-.375-.464844-.039063-.046874-.078125-.089843-.121094-.136718zm1.847657-.824219c0 .390625-.007813.773438.003906 1.152344 0 .054688.058594.144531.109375.164062.203125.082032.535156-.050781.628906-.257812.125-.277344.136719-.570312-.027344-.832031-.167969-.261719-.441406-.234375-.714843-.226563m-1.832032.640625c.175782.003907.371094.046875.449219-.148437.042969-.109375.03125-.28125-.027344-.378906-.089843-.152344-.269531-.125-.421875-.105469zm0 0" fill="#337ba2"/><path d="m13.609375 16.785156c.117187-.027344.234375-.023437.308594-.078125.0625-.042969.078125-.15625.128906-.265625.027344.050782.050781.078125.054687.101563 0 .195312.003907.390625 0 .585937-.003906.027344-.035156.058594-.050781.089844-.019531-.019531-.046875-.03125-.054687-.050781-.105469-.25-.105469-.25-.402344-.222657.042969.195313-.105469.445313.125.570313.121094.066406.3125.054687.449219.011719.117187-.039063.207031-.164063.3125-.253906v.433593c-.058594.007813-.101563.015625-.144531.015625-.582032 0-1.164063-.003906-1.746094 0-.101563 0-.167969-.023437-.230469-.109375-.121094-.164062-.253906-.324219-.382813-.480469-.03125-.039062-.074218-.070312-.144531-.136718 0 .164062-.003906.277344.003907.394531.007812.121094.066406.199219.199218.214844.039063.003906.074219.046875.109375.070312-.039062.015625-.074219.042969-.113281.042969-.257812.003906-.515625.003906-.769531 0-.039063 0-.078125-.023438-.121094-.039062l.019531-.042969c.316406-.125.316406-.125.316406-.492188 0-.226562 0-.457031-.003906-.683593-.003906-.160157-.046875-.285157-.238281-.289063-.027344-.003906-.054687-.042969-.082031-.0625.03125-.015625.0625-.046875.097656-.046875.324219.003906.648438-.007812.972656.023438.351563.03125.570313.328124.441406.597656-.074218.148437-.238281.25-.382812.398437.136719.125.296875.308594.488281.441407.273438.183593.460938.078124.46875-.246094.003907-.273438 0-.550782-.003906-.824219 0-.160156-.050781-.28125-.242187-.28125-.023438 0-.050782-.027344-.082032-.046875.101563-.074219 1.054688-.101562 1.46875-.046875l.027344.453125-.046875.015625c-.09375-.097656-.082031-.308594-.28125-.308594-.152344 0-.304687-.015625-.46875-.027343zm-1.78125.078125c.367187.015625.515625-.085937.503906-.332031-.007812-.238281-.167969-.335938-.503906-.296875zm0 0" fill="#515151"/><path d="m1.625 16.972656c.140625-.417968.277344-.832031.421875-1.242187.019531-.058594.070313-.105469.105469-.15625.035156.050781.082031.101562.101562.160156.128906.382813.253906.765625.382813 1.148437.007812.03125.023437.0625.050781.136719.132812-.394531.253906-.746093.363281-1.101562.035157-.121094-.011719-.210938-.15625-.226563-.046875-.003906-.09375-.023437-.148437-.039062.097656-.105469.839844-.113282.960937-.015625-.03125.015625-.058593.039062-.085937.039062-.234375.011719-.339844.15625-.40625.355469-.175782.535156-.355469 1.070312-.535156 1.605469-.019532.054687-.042969.109375-.066407.164062l-.058593.003907-.503907-1.519532-.507812 1.515625-.050781.003907c-.023438-.058594-.058594-.113282-.074219-.171876-.164063-.503906-.328125-1.007812-.488281-1.511718-.070313-.214844-.140626-.429688-.425782-.445313-.019531 0-.035156-.03125-.054687-.046875.023437-.019531.046875-.054687.070312-.054687.316407-.003907.636719-.003907.957031 0 .023438 0 .042969.035156.066407.054687-.023438.015625-.046875.042969-.070313.050782-.257812.078124-.277344.105468-.195312.355468.101562.3125.207031.625.308594.941406zm0 0" fill="#3179a1"/><path d="m9.207031 15.644531c.039063-.035156.0625-.070312.085938-.070312.414062.007812.832031-.011719 1.246093.035156.386719.046875.601563.410156.484376.753906-.101563.308594-.363282.40625-.65625.429688-.125.011719-.25.003906-.398438.003906.015625.203125.019531.390625.039062.574219.015626.160156.121094.222656.269532.234375.035156.003906.066406.039062.097656.0625-.035156.015625-.070312.050781-.105469.050781-.308593.003906-.617187.003906-.925781 0-.035156 0-.070312-.03125-.109375-.046875.03125-.023437.0625-.066406.09375-.066406.203125-.007813.28125-.136719.285156-.316407.003907-.433593.003907-.863281 0-1.296874-.003906-.1875-.089843-.304688-.292969-.3125-.027343 0-.058593-.015626-.113281-.035157m.777344.941407c.378906.039062.523437.003906.613281-.164063s.089844-.339844-.015625-.5c-.148437-.21875-.378906-.152344-.597656-.164063zm0 0" fill="#4d4d4d"/><path d="m4.371094 17.785156c-.339844-.015625-.613282-.121094-.816406-.375-.289063-.355468-.246094-.839844.101562-1.152344.371094-.332031.984375-.347656 1.367188-.023437.257812.21875.382812.496094.296874.839844-.09375.382812-.367187.589843-.734374.679687-.074219.019532-.15625.023438-.214844.03125m.636718-.878906-.03125-.023438c-.019531-.097656-.03125-.199218-.0625-.296874-.089843-.277344-.28125-.414063-.558593-.414063-.277344 0-.464844.136719-.554688.417969-.078125.246094-.070312.492187.054688.726562.183593.347656.679687.414063.921875.105469.113281-.144531.15625-.34375.230468-.515625" fill="#3279a1"/><path d="m17.261719 16.074219.125-.109375v.617187l-.035157.027344c-.03125-.042969-.070312-.078125-.085937-.125-.085937-.234375-.265625-.359375-.46875-.296875-.070313.019531-.152344.089844-.171875.152344-.015625.054687.039062.160156.09375.195312.140625.09375.300781.164063.453125.238282.328125.167968.449219.402343.335937.667968-.113281.269532-.457031.410156-.769531.304688-.082031-.027344-.164062-.078125-.242187-.113282l-.121094.15625-.050781-.015624c0-.207032-.003907-.414063 0-.621094 0-.023438.03125-.042969.046875-.0625.027344.03125.0625.058594.074218.09375.074219.234375.214844.386718.46875.414062.144532.015625.285157-.003906.332032-.167968.046875-.148438-.058594-.234376-.167969-.296876-.125-.070312-.257813-.128906-.382813-.195312-.054687-.027344-.113281-.054688-.160156-.089844-.179687-.132812-.25-.320312-.195312-.511718.046875-.167969.214844-.3125.421875-.320313.152343-.003906.308593.035156.5.058594m-2.289063 1.550781c-.023437.046875-.035156.085938-.058594.117188-.015624.019531-.050781.035156-.070312.027343-.015625-.003906-.035156-.039062-.035156-.0625-.003906-.183593-.003906-.367187 0-.546875 0-.023437.023437-.046875.039062-.066406.023438.015625.0625.027344.074219.050781.023437.042969.027344.097657.050781.144531.09375.207032.28125.335938.5.304688.09375-.011719.203125-.082031.25-.160156.0625-.101563-.011718-.210938-.113281-.269532-.136719-.078124-.28125-.152343-.425781-.222656-.320313-.15625-.457032-.414062-.339844-.660156.113281-.246094.464844-.347656.761719-.21875.035156.015625.070312.035156.097656.046875l.152344-.125c.015625.046875.027343.0625.027343.078125v.511719l-.046874.03125c-.027344-.039063-.070313-.074219-.085938-.117188-.078125-.214843-.207031-.332031-.394531-.3125-.085938.011719-.199219.074219-.242188.144531-.0625.105469.027344.191407.125.242188.132813.074219.273438.140625.410157.210938.339843.167968.460937.40625.34375.675781-.117188.265625-.472657.402343-.777344.292969-.078125-.027344-.152344-.074219-.242188-.117188" fill="#505050"/><path d="m9.175781.195312c-3.765625-.066406-6.910156 2.988282-6.914062 6.695313 0 3.8125 3.003906 6.855469 6.761719 6.847656 3.726562-.003906 6.742187-3.035156 6.742187-6.773437 0-3.675782-3.003906-6.703125-6.589844-6.769532m-.160156 13.203126c-3.5625 0-6.425781-2.886719-6.425781-6.476563 0-3.5 2.910156-6.398437 6.421875-6.398437 3.578125 0 6.425781 2.90625 6.425781 6.550781 0 3.445312-2.925781 6.324219-6.421875 6.324219m3.429687-8.34375c-.136718-.230469-.308593-.457032-.390624-.707032-.089844-.285156-.164063-.609375-.117188-.898437.082031-.484375.453125-.726563.960938-.769531-2.761719-2.5625-7.097657-1.644532-8.695313 1.136718.613281-.027344 1.203125-.066406 1.789063-.074218.113281 0 .296874.09375.320312.179687.058594.195313-.105469.261719-.277344.277344-.183594.011719-.367187.027343-.578125.042969l2.097657 6.257812c.050781-.082031.074218-.105469.082031-.132812.386719-1.160157.777343-2.320313 1.15625-3.484376.035156-.109374.019531-.25-.019531-.359374-.199219-.578126-.441407-1.140626-.617188-1.726563-.117188-.402344-.277344-.660156-.75-.613281-.082031.007812-.179688-.167969-.269531-.257813.109375-.0625.214843-.183593.328125-.183593.964844-.015626 1.925781-.015626 2.890625 0 .113281 0 .21875.125.328125.191406-.09375.085937-.175782.21875-.289063.253906-.179687.050781-.378906.042969-.59375.0625l2.105469 6.253906c.316406-1.058594.613281-2.027344.902344-3.003906.257812-.867188.101562-1.679688-.363282-2.445312m-5.03125 7.339843c-.011718.039063-.015624.082031-.023437.144531 1.1875.328126 2.355469.304688 3.546875-.097656l-1.820312-4.996094c-.585938 1.699219-1.144532 3.324219-1.703126 4.949219m-.917968-.222656-2.75-7.539063c-1.238282 2.421876-.296875 6.117188 2.75 7.539063m7.65625-7.792969c-.039063.421875-.011719.890625-.132813 1.316406-.285156 1.007813-.632812 1.996094-.96875 2.984376-.363281 1.078124-.742187 2.152343-1.113281 3.226562 1.75-1.039062 2.710938-2.566406 2.863281-4.578125.085938-1.144531-.308593-2.730469-.648437-2.949219" fill="#494949"/></g></svg>