<svg height="18" viewBox="0 0 18 18" width="18" xmlns="http://www.w3.org/2000/svg"><path d="m5.316406 1.265625c-.480468 0-.929687.265625-1.167968.675781l-3.699219 6.382813c-.238281.421875-.238281.929687 0 1.351562l3.683593 6.382813c.253907.410156.691407.675781 1.167969.675781h7.371094c.476563 0 .925781-.265625 1.164063-.675781l3.6875-6.382813c.238281-.421875.238281-.929687 0-1.351562l-3.671876-6.382813c-.238281-.410156-.6875-.675781-1.167968-.675781zm.070313 3.742187h1.308593c.054688 0 .109376.027344.140626.082032l2.148437 3.839844c.015625.015624.015625.042968.015625.054687 0-.027344.015625-.039063.015625-.054687l2.148437-3.839844c.03125-.054688.085938-.082032.140626-.082032h1.265624c.101563.011719.171876.097657.15625.195313 0 .015625 0 .027344-.015624.054687l-2.078126 3.742188 2.109376 3.753906c.039062.085938 0 .199219-.085938.226563-.015625.011719-.042969.011719-.054688.011719h-1.28125c-.054687 0-.113281-.027344-.140624-.082032l-2.164063-3.839844c-.015625-.015624-.015625-.042968-.015625-.054687 0 .027344-.015625.039063-.015625.054687l-2.164063 3.839844c-.027343.054688-.085937.082032-.140624.082032h-1.265626c-.097656-.011719-.167968-.097657-.15625-.179688 0-.015625.015626-.042969.015626-.058594l2.109374-3.753906-2.109374-3.753906c-.042969-.085938 0-.183594.085937-.226563 0-.011719.011719-.011719.027344-.011719" fill="#3498db"/></svg>