<svg height="18" viewBox="0 0 18 18" width="18" xmlns="http://www.w3.org/2000/svg"><path d="m7.496094 11.4375c-1.191406.003906-2.386719.019531-3.578125.019531h-.171875c1.648437-2.3125 3.273437-4.503906 4.910156-6.75-.054688-.003906-.082031-.015625-.109375-.015625-2.582031 0-5.164063-.003906-7.746094-.003906-.089843 0-.121093.019531-.121093.117188.003906.53125.003906 1.066406.003906 1.597656 0 .152344 0 .152344.152344.152344h3.921874c.050782 0 .101563.007812.179688.011718l-4.9375 6.738282.0859375.007812h7.4375005c.101562 0 .117187-.039062.117187-.125-.003906-.539062-.003906-1.074219 0-1.613281 0-.113281-.03125-.136719-.144531-.136719m10.363281-6.636719c-2.339844 0-4.679687-.003906-7.019531.003907-.261719 0-.523438.035156-.777344.101562-.902344.230469-1.625 1.210938-1.589844 2.148438.003906.101562.066406.0625.128906.0625h3.589844c.605469 0 1.207032.027343 1.8125.023437.660156-.003906 1.320313.023437 1.976563-.015625.679687-.042969 1.222656-.355469 1.597656-.9375.253906-.390625.363281-.824219.421875-1.28125.011719-.125-.066406-.105469-.140625-.105469zm-3.570313 3.058594c-1.183593 0-2.367187-.003906-3.554687 0-.378906 0-.746094.074219-1.085937.257813-.78125.429687-1.082032 1.144531-1.171876 1.984374-.011718.113282.054688.109376.128907.109376h1.871093c.214844 0 .425782 0 .636719-.003907.464844-.007812.933594.011719 1.398438-.035156.601562-.058594 1.089843-.351563 1.4375-.855469.273437-.394531.410156-.839844.457031-1.316406.011719-.140625.019531-.140625-.117188-.140625m-2.371093 3.042969c-.363281 0-.722657-.003906-1.082031.003906-.167969 0-.335938.015625-.503907.042969-1.296875.199219-1.777343 1.285156-1.855469 2.210937-.007812.082032.023438.109375.105469.109375.214844-.007812.429688-.003906.644531-.003906l.003907.011719c.292969-.011719.585937-.003906.878906-.042969 1.089844-.140625 1.917969-1.121094 1.910156-2.234375 0-.085938-.03125-.097656-.101562-.097656" fill="#68b604"/></svg>