<svg height="18" viewBox="0 0 18 18" width="18" xmlns="http://www.w3.org/2000/svg"><path d="m15.605469 1.4375-2 .816406c-.007813.003906-.011719.007813-.011719.015625 0 .003907 0 .011719.003906.015625 1.671875 1.5625 2.625 3.722656 2.628906 6.019532.003907 2.363281-1.039062 4.660156-2.824218 6.191406-1.472656 1.269531-3.199219 1.945312-5.175782 2.03125.109376.015625.21875.023437.328126.03125 2.726562.105468 5.386718-1.003906 7.179687-3.042969 1.40625-1.597656 2.164063-3.484375 2.265625-5.652344v-.675781c-.105469-2.203125-.894531-4.121094-2.363281-5.75zm-8.296875.144531c-1.5-.027343-3.003906.394531-4.285156 1.28125-1.546876 1.066407-2.554688 2.527344-3.023438 4.378907v.007812c.00390625.003906.00390625.003906.00390625.007812.00390625.003907.00390625.003907.00781255 0 .7460932-2.039062 2.4414062-3.652343 4.5429692-4.230468 1.769531-.488282 3.695312-.289063 5.300781.667968.015625.007813.035156.007813.054687 0l1.636719-.664062c.007813-.003906.011719-.007812.011719-.015625 0-.003906-.003906-.011719-.007813-.015625-1.253906-.914062-2.746093-1.390625-4.242187-1.417969zm6.175781.796875-1.632813.664063c-.003906.003906-.007812.007812-.007812.011719 0 .003906 0 .007812.003906.011718.761719.601563 1.398438 1.347656 1.875 2.191406 1.621094 2.851563 1.191406 6.488282-1.089844 8.859376-1.214843 1.261718-2.707031 2.019531-4.472656 2.269531-.003906 0-.007812 0-.007812.003906l-.007813.003906c-.003906.003907-.003906.003907.003907.003907 4.777343-.105469 8.4375-4.269532 7.894531-9.035157-.214844-1.914062-1.128907-3.660156-2.523438-4.976562-.011719-.007813-.023437-.011719-.039062-.007813zm-1.800781.734375-1.652344.671875s-.003906.003906-.003906.003906c0 .003907 0 .003907.003906.003907.941406.597656 1.691406 1.367187 2.25 2.3125.507812.847656.8125 1.757812.917969 2.726562.210937 1.988281-.472657 4.03125-1.867188 5.453125-1.089843 1.109375-2.382812 1.777344-3.875 1.996094-.160156.023438-.160156.035156 0 .027344 3.136719-.09375 5.90625-2.238282 6.804688-5.242188.328125-1.097656.414062-2.320312.191406-3.457031-.359375-1.832031-1.277344-3.328125-2.746094-4.492187-.007812-.007813-.015625-.007813-.023437-.003907zm-5.777344.601563c-.097656 0-.195312.003906-.28125.003906-.011719 0-.015625.007812-.015625.015625l-.007813 1.867187c0 .015626.007813.023438.023438.023438h.234375c.011719 0 .015625-.003906.015625-.015625v-.792969c0-.007812.003906-.011718.011719-.011718.152343-.023438.273437.019531.371093.132812.171876.199219.3125.449219.449219.671875.003907.011719.011719.015625.023438.015625h.292969c.015624 0 .015624-.003906.007812-.015625-.140625-.210937-.28125-.425781-.410156-.644531-.042969-.070313-.113282-.144532-.21875-.230469-.007813-.007813-.007813-.015625.003906-.019531.410156-.191406.371094-.792969-.046875-.949219-.125-.046875-.289063-.050781-.453125-.050781m2.078125.164062c-.253906.003906-.5.101563-.695313.324219-.40625.472656-.320312 1.191406.246094 1.5.273438.148437.574219.195313.902344.136719.007812-.003906.019531-.011719.019531-.019532l.078125-.261718c.003906-.003906 0-.007813-.003906-.011719s-.007812-.003906-.011719-.003906c-.292969.089843-.632812.078125-.894531-.09375-.382812-.257813-.398438-.75-.105469-1.082031.371094-.417969.964844-.203126 1.289063.175781.011718.011719.019531.011719.023437-.003907l.074219-.25c.003906-.011718.003906-.023437-.003906-.03125-.253906-.234374-.589844-.386718-.917969-.378906zm-2.097656.082032h.222656c.164063 0 .296875.117187.296875.261718v.0625c0 .144532-.132812.261719-.300781.261719h-.21875c-.003907 0-.007813-.003906-.007813-.007813v-.574218c.003906 0 .003906-.003906.007813-.003906m-1.765625.0625-.171875.050781c-.003907 0-.007813.003906-.007813.007812l-.230468 2.046875c0 .003906 0 .007813.003906.007813.003906.003906.007812.003906.011718.003906l.246094-.070313c.003906 0 .007813-.003906.007813-.007812l.066406-.589844c0-.003906.003906-.007812.007813-.011718l.738281-.210938c.003906-.003906.007812 0 .011719 0l.386718.460938c0 .003906.003906.003906.011719.003906l.246094-.074219c.003906 0 .007812-.003906.007812-.007813 0-.003906 0-.007812-.003906-.011718l-1.320313-1.59375c-.003906-.003906-.007812-.003906-.011718-.003906m5.328125.242187c-.003907 0-.007813.003906-.007813.007813l-.8125 1.699218c-.003906.003906-.003906.007813-.003906.011719.003906.003906.007812.003906.007812.007813l.226563.105468h.011719c.003906 0 .007812-.003906.007812-.007812l.34375-.722656s.003906-.003907.007813-.003907c.003906-.003906.007812-.003906.011719 0l.902343.429688c.003907 0 .007813.003906.007813.007812v.011719l-.347656.722656v.007813c.003906.003906.003906.007812.007812.011719l.226562.105468h.007813c.003906 0 .007813-.003906.007813-.007812l.816406-1.699219c0-.003906 0-.007813 0-.011719s-.003906-.003906-.007813-.007812l-.226562-.105469s-.003907 0-.007813 0-.007812.003906-.007812.007813l-.347656.71875c0 .003906-.003907.007812-.007813.007812s-.007813 0-.011719 0l-.902344-.429688c-.003906-.003906-.007812-.003906-.007812-.007812s0-.007812 0-.011719l.347656-.722656s.003906-.003906 0-.007813c0-.003906-.003906-.007812-.007812-.007812l-.222656-.109375c-.003907 0-.007813 0-.011719 0m-5.289063.21875c.003906-.003906.007813 0 .007813 0l.441406.535156v.011719s-.003906.003906-.003906.003906l-.515625.152344c-.003906.003906-.003906 0-.007813 0-.003906-.003906-.003906-.003906-.003906-.007812l.074219-.6875c0-.003907.003906-.007813.007812-.007813m-2.171875.382813-.160156.085937c-.003906 0-.003906.003906-.003906.007813l.210937 2.050781c0 .003906.003906.003906.003906.007812h.011719l.226563-.121093c.003906 0 .007812-.003907.003906-.011719l-.058594-.589844c0-.003906 0-.007813.007813-.011719l.671875-.363281h.011718l.476563.367187c.003906.003907.007813.003907.011719 0l.226562-.121093c.003906-.003907.007813-.007813.007813-.011719s-.003907-.007812-.003907-.007812l-1.632812-1.277344c-.003906-.003906-.007812-.003906-.011719-.003906zm.128907.441406h.011718l.546875.429687c.003907.003907.003907.003907.003907.007813s0 .007812-.003907.007812l-.46875.253906c-.003906 0-.007812 0-.007812 0-.003907 0-.007813-.003906-.007813-.007812l-.078125-.683594s0-.003906.003907-.007812m7.234374 2.246094c-.003906 0-.007812 0-.007812.003906l-3.421875 4.175781v.007813.4375c0 .003906.003906.011718.011719.011718h2.847656c.003906 0 .007812 0 .007812.003906.003907 0 .003907.003907.003907.007813v2.191406c0 .007813.007812.015625.011719.015625h.953124s.003907-.003906.007813-.003906c0-.003906.003906-.007812.003906-.011719v-2.191406c0-.007813.003907-.011719.011719-.011719h.703125c.007813 0 .011719-.007812.011719-.011718l.003906-.863282c-.003906-.007812-.007812-.011718-.015625-.011718h-.703125c-.007812 0-.011719-.003907-.011719-.011719v-3.726563c0-.003906-.003906-.007812-.003906-.007812-.003906-.003906-.007813-.003906-.007813-.003906zm-5.347656.003906c-.003906 0-.007812 0-.011718.003906-1.601563 1.035156-2.78125 2.769531-2.703126 4.730469.011719.265625.066407.53125.164063.800781.289063.792969.933594 1.308594 1.78125 1.390625.210937.019531.410156.011719.59375-.019531.960937-.175782 1.652344-1.058594 1.648437-2.019532-.011718-1.585937-1.582031-2.398437-2.933593-1.6875-.015625.007813-.023438.003907-.015625-.015624.324218-1.011719 1.152344-1.894532 2.050781-2.433594.003906-.003906.007813-.003906.007813-.007813 0-.003906 0-.007812-.003907-.011719l-.570312-.722656c0-.003906-.003907-.007812-.007813-.007812m4.785156 1.832031c.003907.003906.003907.003906.003907.007813v1.898437.003906c-.003907.003907-.007813.003907-.007813.003907h-1.527344c-.003906 0-.007812 0-.007812-.003907-.003906-.003906-.003906-.007812 0-.011719l1.527344-1.894531c.003906-.003906.007812-.003906.011718-.003906zm-5.507812 2.03125c.605469-.027344 1.179688.335937 1.207031.992187.023438.550782-.273437 1.011719-.835937 1.132813-.160156.035156-.324219.03125-.484375-.007813-.785157-.1875-1.035157-1.03125-.863281-1.734374 0-.011719.007812-.019532.015624-.023438.25-.195312.53125-.308594.839844-.347656.039063-.007813.078125-.011719.121094-.011719"/></svg>