<svg height="18" viewBox="0 0 18 18" width="18" xmlns="http://www.w3.org/2000/svg"><path d="m6 12h-2c-1.104167 0-2-.895833-2-2v-5c0-1.104167.895833-2 2-2h16c1.104167 0 2 .895833 2 2v5c0 1.104167-.895833 2-2 2h-2m-12-4h12m.302083 9.697917c.875.916666.927084 2.34375.119792 3.322916-.807292.973959-2.21875 1.192709-3.28125.510417-.677083-.447917-1.104167-1.192708-1.140625-2v-7.53125m-7.401042 3.598958c-.651041.640625-.786458 1.635417-.333333 2.427084.453125.786458 1.385417 1.171875 2.265625.932291.875-.244791 1.479167-1.046875 1.46875-1.958333v-5" fill="none" stroke="#fff" stroke-linecap="round" stroke-linejoin="round" stroke-width="2" transform="scale(.75)"/></svg>