<svg height="18" viewBox="0 0 18 18" width="18" xmlns="http://www.w3.org/2000/svg"><path d="m14.835938 14.578125c2.570312 2.050781 4.214843-4.078125.121093-5.207031-3.433593-.953125-6.886719.679687-10.347656 4.484375 0 0 6.394531-2.339844 10.226563.722656m-10.171876-.773437c2.460938-2.554688 6.554688-5.398438 10.367188-4.347657.886719.25 1.515625.765625 1.921875 1.378907l-3.605469-7.273438c-.511718-.824219-1.828125-.652344-2.574218-.023438l-9.527344 7.984376c-.867188.742187-.914063 2.066406-.113282 2.867187.707032.710937 1.832032.773437 2.609376.144531zm0 0"/></svg>