<svg height="18" viewBox="0 0 18 18" width="18" xmlns="http://www.w3.org/2000/svg"><path d="m8.339844 17.945312c-1.578125-.152343-2.988282-.621093-4.121094-1.367187l-.234375-.15625-.058594-.4375c-.0625-.492187-.128906-1.273437-.128906-1.527344v-.167969l.738281-.007812c.402344-.003906.859375-.019531 1.007813-.035156.242187-.023438.289062-.019532.375.035156.804687.503906 2.03125.839844 3.074219.835938 1.675781 0 3.152343-.617188 4.347656-1.8125.527344-.527344.816406-.925782 1.132812-1.554688.871094-1.726562.890625-3.699219.054688-5.429688-.828125-1.707031-2.445313-2.964843-4.289063-3.332031-.476562-.097656-1.132812-.148437-1.523437-.121093l-.320313.023437.082031-.113281c.042969-.0625.339844-.378906.65625-.703125l.578126-.589844-.234376-.222656c-.335937-.3125-.800781-.699219-1.148437-.957031l-.296875-.2187505.109375-.0273437c.222656-.0507813 1.515625-.0351563 1.976563.0234374 3.800781.4960938 6.835937 3.2578128 7.660156 6.9687498.269531 1.214844.273437 2.558594.015625 3.8125-.328125 1.585938-1.160157 3.148438-2.3125 4.347657-1.496094 1.554687-3.5 2.519531-5.648438 2.71875-.359375.035156-1.210937.042968-1.492187.015624zm-5.625-2.582031c-.507813-.507812-1.195313-1.332031-1.148438-1.378906.007813-.011719.199219.019531.425782.066406.34375.070313 1.113281.1875 1.230468.1875.015625 0 .03125.144531.03125.328125 0 .304688.035156.738282.089844 1.1875.011719.125.007812.179688-.019531.179688-.023438 0-.296875-.257813-.609375-.570313zm1.082031-1.816406c0-.273437.070313-1.085937.097656-1.113281.011719-.015625.121094.101562.238281.257812.117188.160156.386719.457032.59375.660156l.382813.378907h-1.3125zm-.695313.125c-.566406-.070313-1.71875-.289063-1.808593-.347656-.03125-.019531.003906-.152344.117187-.480469.148438-.425781.5-1.269531.554688-1.328125.011718-.015625.199218.0625.410156.175781.214844.109375.523438.257813.6875.328125l.300781.128907-.019531.15625c-.050781.363281-.089844.851562-.089844 1.109374 0 .15625-.011718.277344-.023437.277344-.015625-.003906-.074219-.011718-.128907-.019531zm-2.464843-1.457031c-.183594-.488282-.332031-.988282-.433594-1.5-.1054688-.519532-.101563-.523438.222656-.269532.148438.117188.433594.328126.632813.464844.203125.132813.363281.25.363281.257813 0 .007812-.0625.148437-.136719.3125-.101562.226562-.199218.457031-.292968.6875-.082032.214843-.164063.402343-.175782.417969-.015625.015624-.09375-.152344-.179687-.371094m2.4375-.878906c-.257813-.117188-.730469-.359376-.796875-.40625-.011719-.007813.335937-.582032.511718-.84375l.140626-.203126.023437.101563c.15625.648437.25.980469.347656 1.21875.0625.160156.113281.289063.109375.289063 0 0-.152344-.070313-.335937-.15625m-1.773438-1.015626c-.367187-.257812-.976562-.738281-1.015625-.800781-.035156-.058593 1.210938-1.265625 1.308594-1.265625.015625 0 .148438.160156.296875.355469.152344.195313.351563.445313.445313.554687.09375.109376.171874.203126.171874.210938s-.117187.195312-.265624.414062c-.144532.21875-.316407.484376-.375.59375-.0625.105469-.128907.195313-.15625.195313-.023438 0-.207032-.117187-.410157-.257813m-1.2656248-1.625c.0039063-.425781.1484378-1.398437.2890628-1.953124.136719-.550782.109375-.546876.363281-.046876.121094.242188.289062.554688.371094.691407l.148437.25-.253906.222656c-.144531.117187-.40625.363281-.589844.542969-.179687.179687-.3281248.308594-.3281248.292968m2.7226558-.113281c-.265624-.320312-.585937-.761719-.570312-.789062.023438-.039063.417969-.304688.742188-.503907.214843-.128906.230468-.136718.210937-.0625-.082031.269532-.191406.839844-.222656 1.128907-.023438.183593-.042969.339843-.046875.34375-.003906.003906-.054688-.046875-.113282-.117188m-1.175781-1.695312c-.351562-.613281-.757812-1.492188-.710937-1.535157.078125-.070312 1.367187-.429687 1.746094-.488281l.148437-.023437.074219.453125c.042968.25.109375.597656.152344.777343l.082031.324219-.28125.160157c-.152344.085937-.445313.269531-.652344.40625l-.371094.25zm2.082031-1.40625c-.035156-.1875-.066406-.378907-.097656-.570313l-.03125-.191406.175782-.019531c.09375-.011719.355468-.03125.578124-.042969l.40625-.019531-.140624.148437c-.226563.242188-.488282.574219-.660157.832032l-.160156.246093zm-2.269531-1.238281c.230469-.394532.960938-1.324219 1.210938-1.542969l.074219-.066407v1.425782l-.296876.058594c-.257812.046874-.8125.183593-1.007812.242187-.058594.019531-.058594.011719.015625-.117187zm2.070313-1.148438c.003906-.46875.019531-.859375.03125-.871094.035156-.039062 1.625.277344 1.683594.335938.003906.003906-.042969.183594-.105469.394531-.066407.210937-.144531.503906-.175781.644531l-.0625.257813-.476563.019531c-.261719.011719-.574219.03125-.691406.042969l-.214844.023437zm2.265625.695312c0-.015624.132812-.503906.203125-.746093l.066406-.226563.414062.171875c.550782.226563.539063.21875.414063.269531-.285156.121094-.757813.347657-.902344.4375-.152343.09375-.195312.113282-.195312.09375m1.523437-1.363281c-.121094-.0625-.382812-.175781-.582031-.257812l-.359375-.144531.035156-.101563c.042969-.125.539063-1.121094.632813-1.269531l.070312-.113282.210938.144532c.277343.1875.789062.566406.957031.714844l.132812.117187-.355468.402344c-.191406.222656-.390625.453125-.4375.511719l-.085938.105468zm-2.21875-.785156c-.21875-.054687-.441406-.109375-.660156-.15625l-.222656-.046875.296875-.175781c.179687-.105469.359375-.207031.542969-.300781.261718-.132813 1.050781-.457032 1.066406-.4375.003906.003906-.054688.136718-.136719.292968-.078125.15625-.203125.421875-.277344.589844s-.140625.316406-.152343.324219c-.007813.011719-.214844-.027344-.457032-.089844m0 0" fill="#3eb049"/></svg>