<svg height="18" viewBox="0 0 18 18" width="18" xmlns="http://www.w3.org/2000/svg"><g fill="#4285f4"><path d="m3.53125 2.488281 1.882812.015625c-.6875.6875-1.097656 1.574219-1.238281 2.574219l-.714843-.015625c-.773438-.027344-1.378907-.605469-1.367188-1.308594 0-.714844.632812-1.265625 1.4375-1.265625m5.652344 10.855469c.125.3125.96875 2.027344.96875 2.027344h-2.402344s.773438-1.617188.941406-2.027344c.140625-.308594.351563-.320312.492188 0"/><path d="m16.15625 6.734375c-.152344.605469-.773438 1.054687-1.53125 1.054687h-.703125c-.042969.015626-.070313.042969-.054687.085938v7.496094h-1.28125l-2.460938-5.089844c.253906-.28125.40625-.664062.40625-1.070312 0-.675782-.390625-1.28125-.984375-1.519532v-.6875c0-.296875-.25-.507812-.546875-.507812h-.027344c-.296875 0-.550781.253906-.550781.550781v.644531c-.644531.210938-1.125.816406-1.125 1.546875 0 .421875.171875.816407.4375 1.097657l-2.390625 5.046874h-2.09375c-.804688 0-1.4375-.644531-1.4375-1.445312v-9.761719s0-.082031.015625 0c.113281.675781.703125 1.195313 1.421875 1.210938h10.8125c-.015625 0 2.054688-.183594 2.09375 1.347656"/><path d="m8.902344 8.410156c.433594 0 .800781.363282.785156.816406 0 .433594-.363281.800782-.8125.785157-.4375 0-.789062-.363281-.789062-.800781 0-.210938.085937-.40625.238281-.5625.167969-.15625.367187-.238282.578125-.238282m.324218-.464844v-.84375c0-.097656-.042968-.183593-.128906-.226562-.125-.070312-.28125-.027344-.351562.101562-.027344.039063-.042969.082032-.027344.140626v.8125c-.703125.113281-1.195312.773437-1.082031 1.492187v.015625c.054687.335938.238281.644531.519531.84375l-2.996094 6.425781c-.113281.222657-.097656.503907.058594.714844.222656.324219.660156.410156.984375.183594.109375-.070313.195313-.183594.25-.292969l1.984375-4.304688c.125-.28125.464844-.40625.757812-.265624.113282.054687.210938.152343.269532.265624l2.039062 4.261719c.167969.351563.589844.492188.941406.324219.351563-.171875.492188-.59375.324219-.945312l-3.066406-6.398438c.5625-.449219.660156-1.277344.210937-1.839844-.167968-.226562-.40625-.378906-.6875-.464844m1.96875-6.132812h-.015624l.746093-1.292969c.042969-.070312.011719-.152343-.042969-.210937-.070312-.027344-.140624-.011719-.183593.042968l-.785157 1.335938c-1.226562-.546875-2.632812-.546875-3.867187 0l-.761719-1.320312c-.027344-.042969-.082031-.085938-.140625-.085938-.054687 0-.113281.027344-.140625.085938-.027344.054687-.027344.109374 0 .152343l.761719 1.292969c-1.238281.691406-2.054687 1.871094-2.25 3.25h8.96875c-.210937-1.378906-1.054687-2.558594-2.289063-3.25m-3.996093 2.125-.054688.054688c-.070312.070312-.167969.113281-.269531.113281h.015625c-.210937 0-.378906-.167969-.378906-.363281v-.015626c0-.097656.042969-.195312.113281-.265624.125-.15625.363281-.183594.519531-.058594.183594.128906.195313.367187.054688.535156m3.855469.140625c-.210938.015625-.382813-.15625-.382813-.367187v-.011719c0-.097657.042969-.199219.113281-.269531.140625-.140626.378906-.140626.535156 0 .070313.070312.113282.171874.113282.269531 0 .222656-.167969.378906-.378906.378906m3.808593 4.078125h-.589843c-.027344.015625-.054688.042969-.054688.085938v9.351562c0 .039062.027344.070312.070312.070312h.617188c.71875 0 1.292969-.59375 1.292969-1.296874 0 0-.011719-8.589844 0-8.914063.015625-.335937-.070313-.097656-.097657-.027344-.210937.449219-.675781.746094-1.210937.746094h-.027344zm0 0"/><path d="m9.351562 9.210938c0 .25-.203124.449218-.449218.449218-.25 0-.449219-.199218-.449219-.449218s.199219-.449219.449219-.449219c.246094 0 .449218.199219.449218.449219zm0 0"/></g></svg>