<svg height="18" viewBox="0 0 18 18" width="18" xmlns="http://www.w3.org/2000/svg"><g fill="#1a1918"><path d="m9 .28125c-4.808594 0-8.71875 3.910156-8.71875 8.71875s3.910156 8.71875 8.71875 8.71875 8.71875-3.910156 8.71875-8.71875-3.910156-8.71875-8.71875-8.71875m3.570312 13.050781c-.167968 0-.292968-.070312-.476562-.210937l-4.5-3.628906-1.503906 3.769531h-1.308594l3.8125-9.15625c.097656-.238281.308594-.363281.546875-.363281s.4375.125.535156.363281l3.472657 8.355469c.042968.097656.054687.195312.054687.25.015625.367187-.28125.621093-.632813.621093"/><path d="m9.140625 5.609375 2.265625 5.570313-3.417969-2.6875zm0 0"/></g></svg>