<svg height="18" viewBox="0 0 18 18" width="18" xmlns="http://www.w3.org/2000/svg" xmlns:xlink="http://www.w3.org/1999/xlink"><linearGradient id="a" gradientTransform="matrix(13.295105 0 0 17.883546 .058781 .057094)" gradientUnits="userSpaceOnUse" x1=".621" x2="1.082" y1="0" y2=".379"><stop offset="0" stop-color="#4285eb"/><stop offset="1" stop-color="#2ec7ff"/></linearGradient><linearGradient id="b" gradientTransform="matrix(13.295105 0 0 17.883546 .058781 .057094)" gradientUnits="userSpaceOnUse" x1=".696" x2=".54" y1="0" y2="1.085"><stop offset="0" stop-color="#29cdff"/><stop offset=".379" stop-color="#148eff"/><stop offset="1" stop-color="#0a60ff"/></linearGradient><linearGradient id="c" gradientTransform="matrix(4.428589 0 0 6.969178 13.52475 5.540906)" gradientUnits="userSpaceOnUse" x1=".697" x2=".167" y1="-.13" y2="1.174"><stop offset="0" stop-color="#fa816e"/><stop offset=".415" stop-color="#f74a5c"/><stop offset="1" stop-color="#f51d2c"/></linearGradient><linearGradient id="d" gradientTransform="matrix(4.248413 0 0 4.244569 6.922547 6.917062)" gradientUnits="userSpaceOnUse" x1=".681" x2=".304" y1="-.357" y2="1.149"><stop offset="0" stop-color="#fa8e7d"/><stop offset=".513" stop-color="#f74a5c"/><stop offset="1" stop-color="#f51d2c"/></linearGradient><path d="m8.242188.375-7.867188 7.859375c-.203125.203125-.3164062.480469-.3164062.765625s.1132812.5625.3164062.765625l7.867188 7.859375c.421874.421875 1.109374.421875 1.53125 0l3.296874-3.296875c.378907-.378906.378907-.992187 0-1.371094-.378906-.378906-.992187-.378906-1.371093 0l-2.5 2.5c-.105469.105469-.265625.105469-.371094 0l-6.28125-6.277343c-.105469-.105469-.105469-.265626 0-.371094l6.28125-6.277344c.105469-.105469.265625-.105469.371094 0l2.5 2.5c.378906.378906.992187.378906 1.371093 0 .378907-.378906.378907-.992188 0-1.371094l-3.296874-3.296875c-.425782-.410156-1.109376-.410156-1.53125.011719m0 0" fill="url(#a)"/><path d="m8.242188.375-7.867188 7.859375c-.203125.203125-.3164062.480469-.3164062.765625s.1132812.5625.3164062.765625l7.867188 7.859375c.421874.421875 1.109374.421875 1.53125 0l3.296874-3.296875c.378907-.378906.378907-.992187 0-1.371094-.378906-.378906-.992187-.378906-1.371093 0l-2.5 2.5c-.105469.105469-.265625.105469-.371094 0l-6.28125-6.277343c-.105469-.105469-.105469-.265626 0-.371094l6.28125-6.277344c.261719-.226562.6875-.683594 1.316406-.789062.46875-.078126.976563.09375 1.53125.523437-.371093-.367187-1.003906-1.003906-1.902343-1.902344-.425782-.410156-1.109376-.410156-1.53125.011719m0 0" fill="url(#b)"/><path d="m13.832031 12.226562c.378907.378907.992188.378907 1.371094 0l2.433594-2.429687c.203125-.203125.316406-.476563.316406-.765625 0-.285156-.113281-.5625-.316406-.761719l-2.453125-2.445312c-.382813-.378907-.996094-.378907-1.375 0-.179688.183593-.285156.429687-.285156.6875 0 .257812.105468.503906.285156.683593l1.660156 1.65625c.046875.050782.078125.117188.078125.1875 0 .066407-.03125.136719-.078125.183594l-1.636719 1.632813c-.183593.183593-.285156.429687-.285156.6875 0 .253906.101563.503906.285156.683593zm0 0" fill="url(#c)"/><path d="m11.171875 9.039062c0-1.171874-.953125-2.121093-2.125-2.121093s-2.125.949219-2.125 2.121093c0 1.171876.953125 2.121094 2.125 2.121094s2.125-.949218 2.125-2.121094m0 0" fill="url(#d)" fill-rule="evenodd"/></svg>