<svg height="18" viewBox="0 0 18 18" width="18" xmlns="http://www.w3.org/2000/svg"><path d="m.359375 17.859375 8.550781-8.765625c.054688-.054688.0625-.140625.019532-.203125-.523438-.726563-1.480469-.851563-1.835938-1.339844-1.054688-1.445312-1.320312-2.261719-1.773438-2.210937-.03125.003906-.0625.019531-.082031.042968l-3.089843 3.167969c-1.777344 1.820313-2.03125 5.832031-2.0781255 9.191407 0 .070312.0390625.128906.1054685.15625.0625.027343.132813.011718.183594-.039063" fill="#017cee"/><path d="m17.859375 17.644531-8.765625-8.554687c-.054688-.054688-.140625-.0625-.203125-.019532-.726563.523438-.851563 1.480469-1.339844 1.835938-1.445312 1.054688-2.261719 1.320312-2.210937 1.773438.003906.03125.019531.0625.042968.082031l3.164063 3.089843c1.820313 1.777344 5.832031 2.03125 9.195313 2.078126.066406 0 .128906-.039063.152343-.105469.027344-.0625.011719-.132813-.035156-.179688zm0 0" fill="#00ad46"/><path d="m8.550781 15.851562c-.996093-.972656-1.457031-2.890624.449219-6.851562-3.101562 1.386719-4.1875 3.207031-3.652344 3.726562zm0 0" fill="#04d659"/><path d="m17.640625.140625-8.550781 8.765625c-.054688.054688-.0625.140625-.019532.203125.519532.726563 1.480469.851563 1.835938 1.339844 1.054688 1.445312 1.320312 2.261719 1.773438 2.210937.03125-.003906.0625-.019531.082031-.042968l3.089843-3.164063c1.777344-1.820313 2.03125-5.835937 2.078126-9.195313 0-.066406-.042969-.128906-.105469-.152343-.0625-.027344-.136719-.011719-.183594.035156zm0 0" fill="#00c7d4"/><path d="m15.851562 9.453125c-.96875.992187-2.890624 1.453125-6.851562-.453125 1.386719 3.101562 3.207031 4.1875 3.730469 3.652344zm0 0" fill="#11e1ee"/><path d="m.140625.359375 8.765625 8.550781c.054688.054688.140625.0625.203125.019532.726563-.519532.851563-1.480469 1.339844-1.835938 1.445312-1.054688 2.261719-1.320312 2.210937-1.773438-.003906-.03125-.019531-.0625-.042968-.082031l-3.167969-3.089843c-1.820313-1.777344-5.832031-2.03125-9.191407-2.0781255-.070312 0-.128906.0390625-.15625.1054685-.0273432.0625-.0117182.136719.039063.183594" fill="#e43921"/><path d="m9.453125 2.148438c.992187.972656 1.453125 2.890624-.453125 6.851562 3.101562-1.382812 4.1875-3.207031 3.652344-3.726562zm0 0" fill="#ff7557"/><path d="m2.148438 8.550781c.972656-.996093 2.890624-1.457031 6.851562.449219-1.386719-3.097656-3.207031-4.1875-3.726562-3.652344zm0 0" fill="#0cb6ff"/><path d="m9.382812 9c0 .210938-.171874.382812-.382812.382812s-.382812-.171874-.382812-.382812.171874-.382812.382812-.382812.382812.171874.382812.382812zm0 0" fill="#4a4848"/></svg>