<svg height="18" viewBox="0 0 18 18" width="18" xmlns="http://www.w3.org/2000/svg"><path d="m4.5 17.992188c.101562-.023438.234375-.148438.261719-.226563.398437-1.304687 1.070312-3.398437 1.933593-5.714844.769532-2.0625 1.695313-4.304687 2.714844-6.324219.621094-1.226562 1.269532-2.375 1.953125-3.347656.351563-.507812.707031-.964844 1.085938-1.363281-.355469.390625-.683594.859375-1.023438 1.382813-.644531.996093-1.300781 2.179687-1.902343 3.417968-1.078126 2.210938-2.019532 4.589844-2.675782 6.378906-.203125.554688-.402344 1.113282-.589844 1.675782.164063.058594.375.347656.5.589844-.011718-.269532-.125-.53125-.347656-.738282.972656.039063 1.910156-.183594 2.34375-1.105468-.28125.339843-.558594.324218-.890625.324218.257813-.121094.550781-.253906.84375-.511718.289063-.253907.480469-.546876.675781-.9375-.515624.5-1.097656.796874-2.015624.644531.359374-.0625 1.375-.308594 2.285156-1.441407.628906-.78125 1.023437-1.8125 1.285156-2.632812-.171875.097656-.464844.175781-.703125.207031.710937-.277343 1.0625-.839843 1.25-1.222656-.265625.167969-.46875.273437-.871094.339844.347657-.128907.683594-.382813.902344-.671875.21875-.292969.519531-.984375.59375-1.390625-.15625.132812-.625.28125-.902344.3125.226563-.101563.621094-.253907 1.015625-.839844.613282-.90625 1.070313-1.933594 1.203125-2.648437.125-.679688.03125-1.179688-.144531-1.527344-.144531-.277344-.496094-.621094-.832031-.621094-.265625 0-.523438.226562-.863281.574219-.265626.261719-.511719.542969-.738282.832031-.625.785156-1.375 1.820312-2.105468 2.996094-1.167969 1.867187-2.277344 4.105468-2.71875 6.320312-.09375.453125-.15625.90625-.183594 1.355469-.136719-.203125-.375-.425781-.773438-.660156.148438.191406.75 1.09375.75 1.730469-.128906.027343-.503906 0-.84375-.140626.214844.199219.445313.363282.714844.433594-.328125.035156-.652344.238282-1 .507813.4375-.175781.84375-.289063 1.195312-.21875-.445312 1.226562-1.152343 3.464843-1.382812 4.261719" fill-rule="evenodd"/></svg>