<svg height="18" viewBox="0 0 18 18" width="18" xmlns="http://www.w3.org/2000/svg" xmlns:xlink="http://www.w3.org/1999/xlink"><filter id="a" height="100%" width="100%" x="0%" y="0%"><feColorMatrix color-interpolation-filters="sRGB" values="0 0 0 0 1 0 0 0 0 1 0 0 0 0 1 0 0 0 1 0"/></filter><linearGradient id="b" gradientUnits="userSpaceOnUse" x1="11.288953" x2="15.057844" y1="1.528734" y2=".480938"><stop offset="0" stop-color="#f59723"/><stop offset=".312" stop-color="#f69822"/><stop offset=".838" stop-color="#e87726"/></linearGradient><linearGradient id="c"><stop offset=".323" stop-color="#9c2063"/><stop offset=".63" stop-color="#c82037"/><stop offset=".751" stop-color="#cc2135"/><stop offset="1" stop-color="#e87726"/></linearGradient><linearGradient id="d" gradientUnits="userSpaceOnUse" x1="3.039047" x2="10.704938" xlink:href="#c" y1="18.443813" y2="2.004188"/><linearGradient id="e"><stop offset="0" stop-color="#282661"/><stop offset=".095" stop-color="#662e8c"/><stop offset=".788" stop-color="#9e2064"/><stop offset=".949" stop-color="#cc2032"/></linearGradient><linearGradient id="f" gradientUnits="userSpaceOnUse" x1="5.611359" x2="10.179422" xlink:href="#e" y1="17.227265" y2="7.430766"/><linearGradient id="g" gradientUnits="userSpaceOnUse" x1="3.315375" x2="10.981265" xlink:href="#c" y1="17.448469" y2="1.008844"/><linearGradient id="h" gradientUnits="userSpaceOnUse" x1="4.097531" x2="8.126156" xlink:href="#e" y1="16.353562" y2="7.713984"/><linearGradient id="i" gradientUnits="userSpaceOnUse" x1="5.0175" x2="12.68325" xlink:href="#c" y1="18.242156" y2="1.802531"/><linearGradient id="j" gradientUnits="userSpaceOnUse" x1="4.456687" x2="12.122578" xlink:href="#c" y1="19.222313" y2="2.782688"/><linearGradient id="k" gradientUnits="userSpaceOnUse" x1="5.522625" x2="13.188375" xlink:href="#c" y1="18.477704" y2="2.038078"/><linearGradient id="l" gradientUnits="userSpaceOnUse" x1="5.465391" x2="13.131281" xlink:href="#c" y1="18.451124" y2="2.011359"/><mask id="m"><g filter="url(#a)"><path d="m-1.8-1.8h21.6v21.6h-21.6z" fill-opacity=".35"/></g></mask><mask id="n"><g filter="url(#a)"><path d="m-1.8-1.8h21.6v21.6h-21.6z" fill-opacity=".35"/></g></mask><mask id="o"><g filter="url(#a)"><path d="m-1.8-1.8h21.6v21.6h-21.6z" fill-opacity=".35"/></g></mask><mask id="p"><g filter="url(#a)"><path d="m-1.8-1.8h21.6v21.6h-21.6z" fill-opacity=".35"/></g></mask><clipPath id="q"><path d="m0 0h18v18h-18z"/></clipPath><clipPath id="r"><path d="m0 0h18v18h-18z"/></clipPath><clipPath id="s"><path d="m0 0h18v18h-18z"/></clipPath><clipPath id="t"><path d="m0 0h18v18h-18z"/></clipPath><path d="m12.167969.0859375c-.28125.1640625-.753907.6367185-1.3125 1.3203125l.515625.972656c.359375-.515625.726562-.980468 1.097656-1.378906l.042969-.046875-.042969.046875c-.121094.132812-.484375.558594-1.03125 1.398438.527344-.027344 1.339844-.132813 2-.246094.199219-1.105469-.191406-1.609375-.191406-1.609375s-.496094-.800781-1.078125-.4570315zm0 0" fill="url(#b)"/><path d="m10.4375 8.238281c-.0625.011719-.128906.027344-.199219.039063h-.003906l.105469-.015625c.03125-.007813.066406-.015625.097656-.023438" fill="#bd202e"/><path d="m10.609375 7.390625c.011719 0 .023437 0 .03125-.003906.046875-.007813.089844-.011719.128906-.023438-.050781.007813-.101562.019531-.160156.027344" fill="#bd202e"/><path d="m9.855469 4.886719c.152343-.285157.308593-.570313.472656-.855469.160156-.28125.328125-.5625.503906-.835938.007813-.019531.019531-.035156.03125-.050781.160157-.257812.332031-.511719.507813-.765625l-.515625-.96875c-.039063.046875-.078125.09375-.117188.144532-.15625.195312-.308593.394531-.460937.59375-.183594.25-.367188.503906-.546875.757812-.175781.253906-.347657.511719-.519531.769531-.152344.234375-.300782.464844-.445313.703125-.003906.007813-.007813.015625-.015625.027344l.671875 1.320312c.136719-.28125.28125-.5625.433594-.839843" fill="url(#d)"/><path d="m6.804688 12.335938c-.089844.25-.179688.496093-.265626.746093-.003906.003907-.003906.007813-.007812.011719-.011719.035156-.023438.070312-.035156.105469-.0625.171875-.113282.324219-.234375.675781.199219.089844.355469.324219.507812.59375-.015625-.28125-.140625-.550781-.351562-.742188.972656.046876 1.808593-.199218 2.242187-.910156.039063-.0625.074219-.128906.105469-.203125-.195313.25-.441406.355469-.898437.332031h-.003907.003907c.675781-.304687 1.015624-.59375 1.316406-1.074218.070312-.117188.140625-.238282.210937-.378906-.59375.609374-1.277343.78125-1.996093.648437l-.542969.0625c-.019531.042969-.035157.089844-.050781.132813" fill="url(#f)"/><path d="m7.058594 11.125c.113281-.300781.234375-.605469.359375-.914062.117187-.300782.238281-.597657.363281-.894532s.253906-.597656.382812-.898437c.128907-.304688.265626-.609375.40625-.910157.132813-.300781.273438-.597656.414063-.894531.046875-.105469.101563-.210937.152344-.316406.089843-.183594.175781-.363281.269531-.542969.003906-.007812.007812-.019531.011719-.027344l-.667969-1.324218c-.011719.019531-.023438.035156-.035156.054687-.15625.257813-.3125.515625-.460938.78125-.15625.269531-.308594.542969-.453125.820313-.125.234375-.246093.472656-.367187.707031-.023438.050781-.046875.097656-.070313.144531-.140625.289063-.269531.578125-.398437.871094-.125.296875-.246094.601562-.355469.90625-.070313.1875-.128906.367188-.1875.542969-.046875.148437-.089844.300781-.132813.449219-.101562.34375-.1875.695312-.257812 1.046874l.671875 1.328126c.089844-.238282.179687-.480469.273437-.722657.027344-.070312.054688-.140625.082032-.207031" fill="url(#g)"/><path d="m6.023438 10.769531c-.085938.425781-.144532.847657-.175782 1.269531l-.003906.042969c-.210938-.335937-.769531-.664062-.769531-.660156.402343.582031.707031 1.164063.753906 1.730469-.21875.042968-.511719-.019532-.851563-.144532.355469.328126.621094.417969.726563.441407-.328125.023437-.667969.246093-1.007813.503906.5-.203125.90625-.285156 1.195313-.21875-.460937 1.300781-.921875 2.738281-1.382813 4.265625.140626-.042969.226563-.136719.273438-.265625.082031-.277344.625-2.089844 1.480469-4.472656.027343-.066407.050781-.136719.074219-.203125.007812-.019532.015624-.039063.019531-.058594.089843-.25.1875-.503906.28125-.765625.023437-.058594.042969-.117187.066406-.175781 0-.003906 0-.003906 0-.003906l-.671875-1.328126c-.003906.015626-.003906.03125-.007812.042969zm0 0" fill="url(#h)"/><path d="m9.523438 5.835938c-.019532.039062-.039063.078124-.058594.117187-.058594.121094-.117188.242187-.175782.367187-.066406.136719-.128906.273438-.195312.414063-.035156.074219-.066406.144531-.101562.21875-.101563.222656-.203126.449219-.304688.671875-.128906.296875-.257812.59375-.382812.890625-.125.292969-.253907.597656-.382813.910156-.121094.300781-.242187.609375-.367187.925781-.117188.289063-.226563.578126-.335938.871094-.007812.015625-.011719.03125-.015625.042969-.113281.296875-.226563.601563-.339844.914063-.003906.007812-.007812.015624-.007812.023437l.542969-.058594c-.011719-.003906-.023438-.003906-.035157-.007812.648438-.078125 1.507813-.5625 2.066407-1.160157.253906-.273437.488281-.601562.703124-.980468.15625-.28125.308594-.597656.453126-.945313.132812-.324219.25-.652343.359374-.984375-.148437.078125-.320312.136719-.507812.175782-.03125.007812-.066406.011718-.097656.019531-.035156.003906-.070313.011719-.105469.015625.605469-.234375.984375-.683594 1.261719-1.230469-.160156.109375-.417969.25-.726563.316406-.054687.011719-.105469.023438-.160156.03125.210937-.089843.386719-.1875.542969-.304687.03125-.023438.0625-.046875.09375-.074219.046875-.042969.089844-.085937.132812-.128906.027344-.027344.054688-.058594.078125-.089844.0625-.070313.117188-.148437.171875-.230469.015625-.027344.03125-.050781.046875-.078125.019531-.039062.039063-.078125.058594-.113281.074219-.148438.140625-.300781.203125-.453125.027344-.066406.050781-.128906.070312-.1875.007813-.019531.015626-.042969.023438-.066406.023438-.0625.039062-.117188.050781-.167969.023438-.074219.035157-.136719.042969-.175781-.023438.015625-.046875.03125-.074219.046875-.179687.109375-.492187.207031-.746093.253906l.496093-.054688-.496093.054688c-.003907 0-.007813 0-.011719 0-.023438.003906-.046875.011719-.074219.011719l.011719-.003907-1.699219.183594c-.003906.007813-.003906.015625-.007812.019532" fill="url(#i)"/><path d="m11.4375 2.398438c-.167969.261718-.335938.527343-.496094.792968-.175781.300782-.347656.597656-.515625.902344-.15625.285156-.3125.574219-.460937.863281-.148438.285157-.292969.574219-.433594.859375l1.703125-.183594c.496094-.230468.714844-.433593.929687-.734374.054688-.082032.113282-.167969.171876-.257813.179687-.28125.34375-.570313.496093-.871094.148438-.289062.28125-.574219.378907-.832031.058593-.144531.109374-.296875.152343-.449219.03125-.117187.054688-.230469.074219-.335937-.660156.113281-1.472656.21875-2 .246094" fill="url(#j)"/><path d="m10.339844 8.257812c-.035156.007813-.070313.011719-.105469.015626.035156-.003907.070313-.007813.105469-.015626zm0 0" fill="#bd202e"/><path d="m10.339844 8.257812c-.035156.007813-.070313.011719-.105469.015626.035156-.003907.070313-.007813.105469-.015626zm0 0" fill="url(#k)"/><path d="m10.609375 7.390625c.011719 0 .023437 0 .03125-.003906-.007813 0-.019531.003906-.03125.003906" fill="#bd202e"/><path d="m10.609375 7.390625c.011719 0 .023437 0 .03125-.003906-.007813 0-.019531.003906-.03125.003906" fill="url(#l)"/><g mask="url(#m)"><g clip-path="url(#q)"><path d="m10.4375 8.238281c-.0625.011719-.128906.027344-.199219.039063h-.003906l.105469-.015625c.03125-.007813.066406-.015625.097656-.023438" fill="#bd202e"/></g></g><g mask="url(#n)"><g clip-path="url(#r)"><path d="m10.609375 7.390625c.011719 0 .023437 0 .03125-.003906.046875-.007813.089844-.011719.128906-.023438-.050781.007813-.101562.019531-.160156.027344" fill="#bd202e"/></g></g><g mask="url(#o)"><g clip-path="url(#s)"><path d="m10.339844 8.257812c-.035156.007813-.070313.011719-.105469.015626.035156-.003907.070313-.007813.105469-.015626zm0 0" fill="#bd202e"/></g></g><g mask="url(#p)"><g clip-path="url(#t)"><path d="m10.609375 7.390625c.011719 0 .023437 0 .03125-.003906-.007813 0-.019531.003906-.03125.003906" fill="#bd202e"/></g></g></svg>