<svg height="18" viewBox="0 0 18 18" width="18" xmlns="http://www.w3.org/2000/svg"><path d="m.257812.140625c-.046874 0-.078124.027344-.089843.0625-.015625.035156-.011719.070313.023437.105469l5.078125 4.953125c.089844-.070313.203125-.109375.332031-.113281.414063-.007813.976563.296874 1.59375.925781.546876.558593 1.132813 1.390625 1.671876 2.496093.042968-.015624.089843-.023437.132812-.023437s.082031.007813.117188.015625c.804687-1.761719 1.128906-3.105469 1.125-4.109375 0-1.070313-.351563-1.769531-.828126-2.242187l-.011718-.011719c-.894532-.871094-2.339844-1.378907-3.984375-1.667969-1.640625-.292969-3.480469-.367188-5.160157-.390625m17.515626.019531c-.03125-.003906-.0625.007813-.082032.03125l-4.949218 5.074219c.121093.15625.140624.378906.070312.632813-.082031.28125-.269531.609374-.570312.960937-.542969.636719-1.480469 1.359375-2.8125 2.007813.015624.042968.023437.085937.023437.132812 0 .039062-.007813.078125-.015625.117188 1.765625.804687 3.109375 1.128906 4.109375 1.128906 1.070313-.003906 1.765625-.351563 2.238281-.828125l.015625-.015625c.871094-.894532 1.378907-2.339844 1.671875-3.980469.289063-1.644531.363282-3.484375.386719-5.164063.003906-.039062-.023437-.074218-.058594-.089843-.011719-.003907-.019531-.003907-.027343-.007813zm-7.785157 2.609375c.238281.441407.394531.984375.398438 1.683594 0 1.03125-.332031 2.394531-1.140625 4.167969.046875.03125.089844.070312.125.117187 1.316406-.640625 2.238281-1.351562 2.765625-1.972656.292969-.339844.46875-.652344.539062-.90625.0625-.21875.046875-.382813-.03125-.492187l-.015625.015624-.046875-.078124c-.003906-.003907-.007812-.011719-.011719-.015626zm-4.382812 2.519531c-.097657 0-.175781.027344-.238281.070313l.011718.011719-.074218.046875c-.003907.003906-.007813.007812-.011719.007812l-2.523438 2.589844c.4375-.238281.980469-.398437 1.683594-.398437 1.03125 0 2.394531.328124 4.167969 1.140624.03125-.050781.070312-.09375.117187-.125-.53125-1.09375-1.109375-1.914062-1.644531-2.460937-.601562-.613281-1.152344-.890625-1.488281-.882813m-1.152344 2.46875c-1.082031 0-1.78125.355469-2.253906.839844-.871094.894532-1.378907 2.339844-1.667969 3.984375-.292969 1.640625-.367188 3.480469-.390625 5.160157-.003906.039062.023437.078124.058594.089843.035156.015625.074219.011719.109375-.023437l4.949218-5.074219c-.121093-.152344-.140624-.378906-.070312-.632813.082031-.28125.269531-.605468.570312-.957031.546876-.640625 1.480469-1.363281 2.8125-2.011719-.011718-.042968-.019531-.085937-.019531-.132812 0-.039062.003907-.078125.015625-.117188-1.765625-.804687-3.109375-1.125-4.113281-1.125zm4.546875.929688c-.082031 0-.160156.03125-.21875.089844s-.09375.140625-.089844.222656c-.003906.082031.03125.160156.089844.21875s.136719.09375.21875.09375c.085938 0 .164062-.035156.222656-.09375s.089844-.136719.089844-.21875-.03125-.164062-.089844-.222656-.136718-.089844-.222656-.089844m.378906.558594c-.03125.046875-.070312.089844-.117187.121094.644531 1.316406 1.355469 2.238281 1.972656 2.769531.34375.292969.65625.46875.90625.539062.21875.0625.382813.046875.492187-.03125l-.011718-.015625.074218-.046875c.007813-.003906.011719-.007812.015626-.011719l2.519531-2.582031c-.4375.238281-.980469.394531-1.683594.398438-1.03125 0-2.390625-.332031-4.167969-1.140625zm-.746094.015625c-1.316406.640625-2.238281 1.351562-2.769531 1.972656-.289062.339844-.46875.65625-.539062.90625-.0625.21875-.042969.382813.035156.492187l.011719-.011718.046875.074218c.003906.007813.007812.011719.011719.015626l2.582031 2.519531c-.234375-.441407-.394531-.980469-.394531-1.683594-.003907-1.03125.328124-2.394531 1.140624-4.167969-.050781-.03125-.089843-.070312-.125-.117187zm.503907.167969c-.042969.015624-.089844.019531-.136719.023437-.039062 0-.078125-.007813-.117188-.019531-.804687 1.765625-1.128906 3.109375-1.125 4.113281 0 1.074219.351563 1.773437.832032 2.246094l.007812.007812c.894532.871094 2.339844 1.378907 3.984375 1.667969 1.640625.292969 3.480469.367188 5.160157.390625.039062 0 .074218-.023437.089843-.058594.015625-.039062.007813-.082031-.023437-.109375l-5.074219-4.949218c-.152344.121093-.378906.140624-.632813.070312-.277343-.082031-.605468-.269531-.957031-.570312-.640625-.546876-1.359375-1.480469-2.007812-2.8125zm0 0"/></svg>