<svg height="18" viewBox="0 0 18 18" width="18" xmlns="http://www.w3.org/2000/svg"><path d="m11.460938 1.332031c.136718.167969.207031.398438.347656.855469l3.042968 10.003906c-1.144531-.59375-2.371093-1.011718-3.640624-1.234375l-1.980469-6.699219c-.035157-.109374-.132813-.183593-.25-.183593-.113281 0-.214844.074219-.246094.183593l-1.960937 6.695313c-1.273438.222656-2.507813.640625-3.65625 1.234375l3.0625-10.003906c.140624-.457032.207031-.683594.34375-.855469.121093-.148437.277343-.265625.457031-.335937.203125-.082032.441406-.082032.917969-.082032h2.1875c.476562 0 .71875 0 .917968.082032.179688.074218.335938.1875.457032.339843zm.363281 11.335938c-.5.429687-1.503907.722656-2.65625.722656-1.417969 0-2.605469-.441406-2.917969-1.035156-.113281.339843-.140625.726562-.140625.976562 0 0-.074219 1.21875.777344 2.070313 0-.441406.355469-.800782.796875-.796875.753906 0 .753906.65625.753906 1.191406v.046875c0 .8125.496094 1.507812 1.203125 1.800781-.109375-.222656-.167969-.46875-.167969-.714843 0-.777344.457032-1.0625.984375-1.398438.421875-.265625.886719-.5625 1.207031-1.15625.175782-.320312.265626-.679688.265626-1.042969 0-.226562-.035157-.449219-.105469-.664062zm0 0"/></svg>