<svg height="18" viewBox="0 0 18 18" width="18" xmlns="http://www.w3.org/2000/svg"><g fill="none" stroke="#fff" stroke-linecap="round" stroke-linejoin="round" stroke-width="2" transform="scale(.75)"><path d="m15.479167 12.890625 1.510416 8.526042c.036459.203125-.057291.411458-.239583.515625-.182292.104166-.40625.083333-.567708-.046875l-3.578125-2.6875c-.359375-.265625-.84375-.265625-1.197917 0l-3.588542 2.6875c-.161458.130208-.385416.151041-.567708.046875-.177083-.104167-.276042-.3125-.239583-.515625l1.510416-8.526042"/><path d="m18 8c0 3.3125-2.6875 6-6 6s-6-2.6875-6-6 2.6875-6 6-6 6 2.6875 6 6zm0 0"/></g></svg>