<svg height="18" viewBox="0 0 18 18" width="18" xmlns="http://www.w3.org/2000/svg"><path d="m9 1.160156c-.488281 0-.972656.023438-1.460938.066406-.292968.027344-.589843.0625-.882812.109376-.261719.042968-.523438.09375-.785156.15625-.222656.058593-.445313.121093-.667969.199218-.09375.035156-.1875.074219-.28125.113282-.121094.054687-.242187.117187-.355469.183593-.035156.023438-.066406.042969-.101562.066407-.109375.078124-.203125.171874-.285156.277343-.03125.046875-.054688.09375-.074219.148438-.023438.066406-.03125.140625-.019531.214843.003906.042969.015624.089844.035156.128907.019531.042969.042968.085937.074218.125.050782.066406.109376.125.171876.179687.105468.089844.21875.164063.339843.226563.144531.078125.296875.144531.453125.199219l-.050781.015624c.3125.101563.628906.1875.949219.257813.324218.074219.644531.132813.972656.179687.324219.046876.652344.078126.984375.09375.328125.015626.65625.019532.984375.007813.320312.007813.640625.003906.960938-.015625.316406-.019531.636718-.054688.953124-.097656.0625-.011719.128907-.019532.191407-.027344.085937-.015625.171875-.027344.253906-.042969.183594-.027343.367187-.0625.546875-.105469.316406-.066406.628906-.15625.933594-.265624.125-.046876.25-.101563.371094-.160157.101562-.050781.203124-.109375.300781-.171875.078125-.058594.152343-.117187.222656-.1875.054687-.058594.101563-.125.136719-.199218.03125-.0625.046875-.132813.050781-.203126 0-.078124-.019531-.15625-.058594-.226562-.027343-.050781-.058593-.097656-.101562-.140625-.042969-.050781-.089844-.097656-.140625-.140625-.03125-.023438-.058594-.042969-.089844-.066406-.066406-.046875-.136719-.089844-.207031-.125-.167969-.097656-.347657-.175782-.53125-.238282-.339844-.121093-.691407-.214843-1.046875-.285156-.277344-.054687-.554688-.101562-.835938-.136718-.304687-.039063-.613281-.066407-.921875-.085938-.328125-.019531-.65625-.027344-.988281-.027344m-6.410156 1.660156v12.359376c0 1.269531 2.820312 2.300781 6.320312 2.320312h.089844c3.539062 0 6.410156-1 6.410156-2.320312v-12.359376c0 1.289063-2.871094 2.320313-6.410156 2.320313s-6.410156-1-6.410156-2.320313m3.109375 5.128907c.339843-.011719.679687.042969 1 .160156v.859375c-.292969-.203125-.644531-.304688-1-.289062-.148438-.007813-.296875.035156-.417969.121093-.101562.066407-.15625.179688-.152344.300781-.003906.117188.039063.230469.121094.320313.152344.128906.324219.234375.511719.308594.3125.128906.59375.324219.828125.570312.167968.195313.253906.441407.25.699219.039062.339844-.082032.675781-.328125.910156-.347657.238282-.761719.355469-1.179688.328125-.375.015625-.742187-.066406-1.070312-.238281v-.929688c.296875.265626.6875.417969 1.089843.417969.15625.007813.3125-.027343.449219-.109375.101563-.070312.160157-.1875.160157-.308594 0-.125-.054688-.242187-.152344-.320312-.191406-.144531-.398438-.265625-.617188-.359375-.679687-.300781-1-.699219-1-1.210937-.011718-.347657.144532-.679688.417969-.890626.3125-.238281.699219-.359374 1.089844-.339843m3.601562.039062c.351563 0 .695313.089844 1 .261719.300781.175781.542969.4375.699219.75.195312.320312.308594.683594.332031 1.058594.007813.445312-.105469.882812-.332031 1.261718-.230469.367188-.585938.636719-1 .757813l1.230469 1.101563h-1.210938l-.859375-1c-.355468-.011719-.699218-.117188-1-.300782-.296875-.171875-.539062-.429687-.691406-.738281-.15625-.3125-.238281-.652344-.238281-1-.007813-.394531.082031-.785156.257812-1.140625.167969-.3125.421875-.566406.730469-.738281.332031-.1875.703125-.28125 1.082031-.273438m2.699219.011719h.898438v3.398438h1.5625v.730468h-2.460938zm-2.738281.691406c-.304688-.003906-.589844.132813-.78125.367188-.210938.289062-.3125.644531-.289063 1-.023437.359375.078125.710937.289063 1 .179687.238281.464843.371094.757812.359375.296875.011719.578125-.117188.761719-.347657.214844-.289062.316406-.652343.28125-1.011718.019531-.351563-.074219-.703125-.269531-1-.171875-.242188-.453125-.382813-.75-.367188zm0 0" fill="#005ba1"/></svg>