<svg height="18" viewBox="0 0 18 18" width="18" xmlns="http://www.w3.org/2000/svg"><path d="m12.679688 7.101562v.019532h.046874c0-.019532.003907-.039063.011719-.058594v-.039062c-.019531 0-.035156.03125-.054687.082031zm-.410157-.996093v-.039063h-.0625v.039063zm-1.203125 2.25c-.089844-.15625-.199218-.296875-.328125-.421875 0-.042969.070313-.109375.222657-.199219l.429687-.375c.117187-.179687.179687-.394531.179687-.609375v-.066406c-.015624-.191406-.15625-.347656-.421874-.46875-.15625-.105469-.4375-.164063-.84375-.175782-.457032.058594-.902344.183594-1.324219.363282-.164063.117187-.332031.222656-.507813.324218v.03125c.015625-.003906.035156-.011718.050782-.023437.007812-.003906.015624 0 .023437.007813.007813.003906.011719.011718.011719.023437l.019531-.015625h.015625v.015625c-.105469.105469-.226562.203125-.355469.28125l.019531.03125h-.015624l-.039063-.011719c0 .011719-.015625.019532-.046875.019532v.015624l.035156.046876c-.015625 0-.035156-.003907-.054687-.011719-.0625.007812-.121094.039062-.160157.089843l.019532-.097656c.074218-.300781.128906-.605468.164062-.914062l-.003906-.027344c-.058594-.039062-.109375-.085938-.152344-.140625 0-.023437 0-.046875 0-.070313v-.011718h-.015625c-.175781.257812-.507812.703125-1 1.328125-.375.445312-.570312.691406-.582031.742187-.152344.160156-.226562.253906-.21875.28125-.042969.027344-.058594.050782-.050781.082032-.007813 0-.011719 0-.015625 0-.003906-.003907-.007813-.007813-.007813-.011719-.066406.105469-.171875.179687-.292969.203125l-.140624.03125c-.007813 0-.015626.003906-.023438.011718-.003906.007813-.003906.019532-.003906.027344v.015625l.050781-.011719v.015626l-.113281.042968-.207032.050782h-.105468c-.015625.015624.085937 0 .046875.007812l-.140625.03125c-.082032.015625-.125.011719-.140625-.023438h-.015625c.003906.011719.003906.023438 0 .035157l-.007813-.03125-.109375.023437c.007813-.039062-.128906-.210937-.410156-.519531 0-.058594.09375-.148437.296875-.261719l.574219-.503906c.128906-.164062.207031-.429688.230468-.796875l-.007812-.085937c-.023438-.253907-.210938-.460938-.5625-.621094-.207031-.140625-.582031-.214844-1.117188-.226563-.601562.078125-1.1875.234375-1.742187.472657-.214844.152343-.441406.292968-.671875.421874v.042969c.023438-.003906.046875-.011719.066406-.027343.011719-.003907.023438 0 .03125.007812.011719.007812.015625.019531.015625.03125l.046875-.027344h.027344v.027344c-.140625.140625-.300781.261719-.46875.367188l.023438.039062h-.019532l-.046875-.019531c0 .015625-.019531.023437-.066406.027343v.023438l.050781.058594c-.023437 0-.046875-.003906-.070312-.015625-.125.027343-.234375.109375-.296875.222656l.023437.039063c.042969-.046876.09375-.085938.148438-.121094v.066406c-.023438.003906-.046875.015625-.066406.027344l.054687.082031c.101563-.109375.214844-.203125.339844-.28125.0625.015625.09375.035156.097656.054687h.046875c.304688-.230468.644531-.414062 1.003906-.542968v.046875c-.0625.09375-.105468.140625-.125.140625 0 .03125.011719.058594.03125.082031.007813.054687-.144531.4375-.449218 1.140625-.6875 1.621094-1.265626 2.820312-1.738282 3.601562.003906.023438.011719.046876.027344.0625.078125-.011718.152344-.039062.21875-.082031h.027344v.042969h.042968l.046876-.023438c0 .011719.015624.019532.042968.015626v.046874c-.003906.070313-.03125.140626-.070312.199219-.066406.097657-.117188.207031-.148438.324219v.019531h.042969c.171875-.183593.316406-.394531.433594-.617187.433593-.117188.859375-.277344 1.265625-.476563.238281-.007812.472656-.085937.664062-.230469v-.023437l-.109375.03125h-.023437v-.023437c.15625-.007813.308594-.058594.445312-.140626.417969-.320312.734375-.550781.945313-.683593.441406-.324219.726562-.636719.855469-.941407l.074218-.019531c.035156.003907.070313.003907.105469 0 0-.007812 0-.015625.015625-.019531.097656-.007812.050781 0 .113281-.007812l.164063-.039063h.027344l-.011719.007813c.019531.003906.039062.003906.058593 0l.011719.050781-.75 1.191406-.175781.195313-.082031.269531h.015625l.082031-.03125-.027344.105469.007813.03125.023437.027343c-.007812 0-.015625.007813-.011719.019531v.019532l.035157-.011719c.050781-.042969.070312-.082031.0625-.117187.035156.011718.070312.011718.105469.007812v.019531c-.03125.007813-.046876.03125-.050782.078125v.015625h.019532c.273437-.296875.941406-1.3125 1.476562-2.007812-.019531-.074219.261719-.175781.84375-.308594h.015625c.023437.09375-.023437.3125-.140625.65625-.042969.109375-.078125.222656-.097656.339844-.058594.148437-.101563.300781-.128906.453125l-.195313.660156c-.132813.351562-.234375.710938-.300781 1.078125.015625-.003906.035156-.003906.054687 0l.03125-.023437c0 .003906.003907.007812.007813.007812.003906.003906.007812.003906.011718.003906l-.011718-.046875h.089844c.027343 0 .046874-.042969.066406-.101562 0-.089844.015625-.140625.054687-.148438.023438-.113281.054688-.222656.101563-.328125.023437-.125.0625-.25.117187-.363281.074219-.28125.140625-.421875.167969-.429687l.007812.03125-.054687.140624c-.074219.351563-.171875.699219-.296875 1.035157l.027344.125h.019531c.242187-.523438.59375-1.5625 1.050781-3.113281.015625-.125.085938-.238282.191406-.304688l-.023437-.027344v-.015625c.042969-.003906.082031-.027343.109375-.0625 0-.011719-.050781-.027343-.140625-.050781l.226563-.984375c.023437-.027344.054687-.050781.085937-.066406v.046875c-.015625.003906-.035156.011718-.050781.023437l.042968.0625c.078126-.082031.164063-.152343.257813-.214843.046875.011718.070313.027343.074219.042968h.03125c.234375-.175781.492187-.3125.765625-.40625v.03125c-.046875.070313-.078125.105469-.09375.105469 0 .023437.007812.042969.019531.0625-.089844.296875-.203125.585937-.339844.867187-.382812.945313-.824218 1.863282-1.324218 2.75.003906.015626.011718.03125.023437.046876.058594-.011719.113281-.03125.164063-.066407h.015624v.035157h.035157l.035156-.019532c0 .011719.011719.015625.035156.011719v.035156c-.003906.054688-.023437.105469-.058593.148438-.054688.078125-.09375.164062-.117188.257812v.015625h.03125c.132812-.140625.242188-.300781.328125-.46875.328125-.089844.648437-.210937.957031-.363281.183594-.003906.359375-.0625.507813-.171875v-.019531l-.085938.027343h-.019531v-.015624c.121094-.011719.238281-.046876.339844-.109376.316406-.242187.5625-.421874.71875-.519531.507812-.371093.742187-.722656.714844-1.0625zm-.085937.023437.011719.132813c-.015626.03125-.035157.046875-.046876.050781l-.023437-.226562c.039063.011718.058594.027343.058594.042968m-9.921875-1.066406h-.023438v-.039062l.089844-.007813v.019531c-.023438.003906-.046875.015625-.066406.027344zm-.441406 4.414062c-.042969-.019531-.09375-.03125-.140626-.027343v-.066407c0-.023437.011719-.042968.042969-.046874.03125-.003907.046875.019531.046875.0625.039063-.050782.078125-.101563.125-.140626l.046875.019532c-.015625.128906-.054687.195312-.121093.199218zm4.714843-4.933593c-.019531 0-.066406-.066407-.128906-.203125v-.042969c.042969 0 .085937.066406.128906.203125zm-.0625-.488281-.015625.042968-.644531-.269531c.429687.015625.648437.089844.660156.226563m-2.703125 2.324218-.089844.007813v-.042969l.089844-.007812zm-.074218-1.398437h.023437v.066406c-.019531 0-.046875.03125-.082031.09375v-.046875c.039062-.046875.0625-.085938.058594-.109375zm-.1875.449219.007812.085937h-.023438l-.007812-.085937zm-.101563.160156h.042969c0 .070312-.023438.109375-.058594.113281h-.023438c.023438-.03125.039063-.070313.039063-.109375zm-.074219.222656h.027344v.023438l-.042969.066406h-.042969v-.019532c.015626 0 .035157-.007812.046876-.019531.011718-.015625.015624-.035156.011718-.050781zm-.074218.203125-.011719.105469h-.023438l-.007812-.105469zm-.734376 2.085937c-.03125.140626-.0625.222657-.09375.226563v-.023437c-.003906-.078126.03125-.15625.09375-.203126zm-.140624.292969v.023438c.003906.011719 0 .023437-.007813.03125-.007813.011719-.019531.015625-.03125.015625v-.027344c0-.023438.011719-.042969.039063-.046875zm-.035157.605469h.070313v.023438c-.023438.003906-.046875.015624-.070313.027343h-.042969c0-.023437.011719-.039062.039063-.046875zm1.941407-.597656c-.238282.101562-.464844.230468-.675782.382812-.414062.144532-.621094.234375-.617187.269532-.246094.09375-.488281.199218-.726563.320312-.039062 0-.082031-.011719-.117187-.03125-.007813-.074219.03125-.148438.097656-.183594.0625-.003906.125.003906.183594.03125.117187-.050781.234375-.09375.355469-.117187v-.046875l-.140626.011718c.125-.074218.257813-.136718.398438-.179687h.066406v.019531c-.117187.011719-.183594.046875-.195312.105469 0 .03125.019531.039063.046875.039063.085937-.054688.132812-.089844.128906-.097657.167969-.03125.625-.273437 1.378906-.722656v.042969c0 .019531-.0625.074218-.191406.167968zm-1.15625.378906c.105468-.007812.207031-.054688.28125-.132812.03125 0 .046874.011718.050781.039062-.113281.027344-.214844.074219-.308594.140625h-.023437zm1.867187-1.429688-.578125.457032c-.222656.15625-.453125.296875-.695312.421875-.683594.375-1.109376.570312-1.273438.585937h-.027344c.019532-.074218.324219-.699218.914063-1.871094.421875-.066406.835937-.191406 1.226562-.363281l.140625-.011719c.222656-.039062.453125.019532.628906.164063l.011719.085937c-.105469.296876-.222656.472657-.34375.527344zm-1.125-.636718.09375-.007813v.019531l-.09375.007813zm1.304687-.222656h.070313c.0625.03125.09375.058593.097656.082031v.019531c-.070312.003906-.132812-.035156-.167969-.09375zm.1875-1.050782c-.15625.140625-.324218.265625-.507812.367188-.089844.007812-.421875.140625-.996094.390625-.027344-.011719-.058594-.015625-.085937-.011719v-.039062c.003906-.113282.042969-.222657.109375-.3125.046875-.238282.09375-.371094.140625-.40625l.480469-1.074219c-.007813-.066407.09375-.117188.304687-.152344h.066406v.0625c.207031-.03125.335938-.050781.386719-.054687.378906-.03125.578125.042968.59375.230468h.042969l-.011719-.109375h.046875c.09375.03125.164063.109375.1875.203125-.003906.082032-.039063.164063-.097656.222656-.027344 0-.046875-.015624-.046875-.058593h-.046875l-.011719.128906c-.191406.289063-.332031.4375-.421875.445313-.078125.109374-.125.164062-.140625.164062zm.292969.753906c-.027343-.019531-.058593-.035156-.09375-.035156v-.066406h.042969l.09375.058594c.003906.011718 0 .023437-.007812.03125-.007813.011718-.019532.015625-.03125.015625zm.304688.359376c.039062.019531.066406.035156.070312.054687h-.035156l-.03125.023437-.007813-.085937zm.019531.179687v-.015625l.054688-.011719v.015625zm.132812.15625c.054688-.011719.082032-.011719.1875-.035156v.015625l-.199218.046875c0-.007813 0-.019531 0-.027344zm.195313.082031c-.070313.003906-.136719.011719-.203125.027344v-.015625l.167969-.054687.082031-.015626.007812.03125c-.035156.007813-.011718.007813-.050781.027344zm.175781-.042968c-.011718.003906-.019531.003906-.027344-.003907-.007812-.003906-.015624-.011719-.019531-.019531l.050781-.011719c.011719-.003906.019532-.003906.027344 0 .011719.007813.015625.015625.015625.027344zm.480469-.519532v-.019531l.082031-.019531.007813.03125h-.085938zm.511719 3.140625c.003906-.019531.003906-.035156 0-.054687h.019531c.007813 0 .015625 0 .023437.003906.011719.003906.015626.011719.015626.023438v.015624l-.066407.015626zm.359375-3.007812h-.039063c-.046875.019531-.097656.035156-.148437.050781l-.03125.007812c-.011719.003907-.019531 0-.027344-.003906s-.015625-.011718-.015625-.019531l.234375-.0625.078125-.035156.027344.027343c-.03125.003907-.058594.015626-.082032.035157zm.183593-.058594v-.015625c.015626-.007812.03125-.015625.046876-.03125l.164062-.039062v.019531c-.074219.015625-.144531.039062-.214844.066406zm.027344-.34375c-.019531.003906-.035156.015625-.046875.027344 0-.011719-.027343-.011719-.070312 0-.011719-.03125.117187-.078125.375-.140625l.039062-.007813.007813.03125c-.183594.054688-.28125.085938-.304688.085938zm.457032-.496094c-.015626.207031-.089844.328125-.21875.355469v-.015625l-.117188.042969-.050781.011718c-.023438.007813-.046875.007813-.070313 0l-.007812-.046874c.152344-.238282.320312-.46875.5-.6875h.039062c.003906.113281-.019531.230468-.066406.335937zm.8125-.695312h-.015626v-.03125h.066407v.015625c-.019531.007812-.035157.011718-.050781.023437zm-.335938 3.355469c-.03125-.015626-.066406-.023438-.105469-.023438v-.050781c0-.015625.011719-.027344.03125-.035157.023438 0 .035157.015626.039063.050782.027344-.042969.058594-.078125.09375-.109375l.035156.019531c-.011719.101562-.042969.152344-.089844.15625zm3.582031-3.746094c-.015625 0-.046875-.050782-.101562-.15625v-.03125c.035156 0 .070312.046875.101562.152344zm-.046875-.375-.015625.035156-.484375-.203125c.324219.011719.488282.066406.5.167969m-2.054687 1.765625h-.066407v-.03125h.066407zm-.054688-1.0625h.015625v.050781c-.015625 0-.035156.023438-.0625.070312v-.03125c.023438-.023437.039063-.054687.042969-.089843zm-.140625.339843v.066407h-.019531v-.066407zm-.078125.125h.03125c0 .054688-.011719.082032-.042969.085938h-.019531c.015625-.027344.027344-.054688.027344-.085938zm-.054687.167969h.015625v.015625l-.03125.050782h-.035157v-.015626c.035157 0 .050782-.019531.050782-.054687zm-.054688.152344-.011718.082031h-.015626v-.082031h.03125zm-.5625 1.585937c-.023437.109376-.046875.167969-.070312.171876v-.015626c-.003906-.058593.023437-.117187.070312-.15625zm-.105468.222657v.015625c.003906.007812.003906.019531-.003907.027344-.007812.007812-.015625.011718-.027343.011718v-.019531c0-.015625.011718-.027344.03125-.035156m-.027344.460937h.050781v.019532c-.015625.003906-.035156.007812-.050781.019531h-.03125c0-.019531.007812-.03125.027344-.035157zm1.46875-.453125c-.179688.078125-.351563.175781-.511719.289063-.316406.109375-.46875.179687-.46875.207031-.1875.066406-.371094.148437-.546875.242187-.03125-.003906-.0625-.011718-.089844-.027343-.007812-.058594.023438-.113281.074219-.140625.046875-.003906.097656.003906.140625.023437.089844-.039062.179688-.066406.273438-.089843v-.03125l-.105469.007812c.09375-.058594.195312-.105469.300781-.140625h.050781v.015625c-.089843.007812-.140625.035156-.148437.082031 0 .007813.003906.019531.011718.023438.003907.007812.015626.007812.023438.007812.066406-.046875.097656-.070312.097656-.078125.125-.023437.472656-.203125 1.046875-.546875v.03125c0 .011719-.046875.054688-.140625.125zm-.875.28125c.082031-.003906.160156-.035156.222656-.089843.023438 0 .035156.007812.035156.027343-.082031.023438-.160156.054688-.230468.101563h-.019532v-.03125zm1.417968-1.089843-.4375.351562c-.167968.121094-.34375.230469-.53125.324219-.515624.28125-.839843.429687-.96875.445312h-.015624c.015624-.058593.246093-.53125.695312-1.421875.320312-.054687.632812-.148437.929688-.28125l.105468-.007812c.167969-.03125.34375.015625.476563.125v.0625c-.078125.226562-.164063.359375-.257813.398437zm-.859374-.472657h.070312v.015625h-.070312zm.992187-.171875h.054687c.046876.027344.070313.046875.074219.0625v.015625c-.054687 0-.105469-.027343-.128906-.070312zm.140625-.796875c-.113281.109375-.238281.203125-.375.28125-.257812.078125-.511719.175781-.753906.292969-.023438-.007812-.046875-.011719-.070313-.007812v-.035157c.003907-.085937.03125-.167969.085938-.234375.03125-.183594.070312-.28125.109375-.308594l.367187-.816406c0-.046875.070313-.085937.230469-.117187h.050781v.050781c.15625-.027344.253907-.042969.292969-.042969.28125-.027343.4375.03125.449219.171875h.035156v-.078125h.03125c.074219.027344.128906.089844.140625.164063 0 .066406-.023438.125-.066406.171875-.023438 0-.035156-.011719-.039063-.046875h-.035156l-.007813.097656c-.140624.222656-.25.335938-.316406.339844-.0625.082031-.097656.121094-.113281.125zm.152344.546875v-.050781h.035156l.074219.046875c0 .007812-.003907.019531-.007813.023438-.007812.007812-.015625.011718-.023437.011718-.019531-.015625-.046875-.027344-.070313-.027344zm-6.101563 3.179688-.03125.011718-.03125.023438c0 .007812.007813.015625.015625.023438.007813.003906.015625.003906.027344 0 .019531 0 .03125-.019532.023438-.039063v-.015625zm-.128906-.257813v.015625c.023437 0 .03125-.015625.027344-.039062v-.015625c-.007813 0-.015625.007812-.023438.011719-.003906.007812-.003906.019531-.003906.027343m.929687-1.742187.023438-.015625h-.011719c-.007812.003906-.011719.011719-.011719.019531zm0-.449219.039063-.011719-.015625-.035156-.039062.011719.007812.03125zm9.257813 1.320313-.085937-.007813-.015626.03125v.015625l.53125-.046875v-.03125l-.421874.039063zm.488281-.039063v.03125zm2.226563-.292969v.035156l.054687.007813v-.03125zm-.082031 0c-.175782.050782-.351563.078125-.53125.082032v.03125h.054687l.042969-.015626c.394531-.042968.441406-.027343.4375-.074218v-.015625zm-2.390626-.578125-.035156-.011719c-.019531.046876-.035156.09375-.042968.140626v.015624c.027343 0 .050781-.050781.074218-.140624zm-.480468-.257812v-.019531h-.019532l-.03125.023437.019532.03125c.023437 0 .035156-.015625.03125-.039063zm1.042968 1.078125v-.035156h-.011718v.035156zm2.160157-.488282h.023437c.015625 0 .023438-.015624.023438-.035156l-.015625-.03125c-.070313 0-.144531.019532-.207031.050782v-.015626l-.105469.011719c0-.035156-.011719-.050781-.027344-.050781h-.058594c-.066406 0-.09375 0-.128906.03125 0-.011719 0-.019531-.011719-.019531h-.0625l-.035156.023437c0-.011718 0-.019531-.011719-.019531l-.023437.019531v-.015625h-.109375v.03125l.046875.011719h.042968c.011719.007812.03125.011719.046876.011719l.035156-.019531v.015624c-.113282.027344-.226563.050782-.34375.066407-.011719-.011719-.023438-.015625-.035156-.015625-.007813 0-.015626-.003906-.019532-.007813-.003906-.007812-.007812-.015625-.007812-.023437l.074218-.007813c.015626.003907.03125.007813.046876.011719.058593-.027344.0625-.039062.09375-.042969v-.03125c-.125.019531-.25.03125-.375.035157h-.011719v-.035157c.328125-.039062.21875-.015625.328125-.046875 0 .011719 0 .015625.011718.015625.011719-.011719.027344-.019531.046876-.019531h.019531c.125.003906.246093-.007812.363281-.039062v.011718l.035156-.015625h.035156c0-.035156.046876-.039062.066407-.042969v-.035156c-.398438.082032-.5.058594-.609375.089844v-.011719c-.046875.007813-.09375.011719-.140625.007813-.015625.003906-.023438.011718-.035157.023437 0-.011719 0-.019531-.011718-.019531l-.335938.058594c0-.011719 0-.015625-.011718-.015625-.117188.035156-.238282.058593-.359376.066406-.015624.003906-.03125.007813-.042968.019531 0-.011718 0-.015625-.019532-.015625l-.140624.011719-.097657.023438c0-.007813 0-.011719-.015625-.011719-.046875.011719-.09375.023437-.140625.027343-.023437 0 .011719 0 0-.015624l-.03125.019531h-.164062c-.25.03125-.222657.035156-.25.035156h-.097657c.003907.003906 0 .007813 0 .011719-.003906.003906-.007812.003906-.011718.003906-.105469-.015625-.164063-.03125-.164063-.050781.015625-.101563.039063-.15625.074219-.15625h.019531l-.015625.03125h.019532c.03125-.015625.046874-.035157.046874-.050781v-.035157h-.035156v-.03125c-.003906-.023437 0-.046875.011719-.066406l.078125-.125v.03125h.035156v-.03125l-.023437-.027344c.019531-.019531.042969-.035156.066406-.039062v-.019531h-.046875v-.046876c.0625-.113281.109375-.234374.140625-.363281l.035156.015625c.023438 0 .03125-.015625.03125-.039062h-.035156v-.011719c-.003906-.023437.003906-.050781.011719-.070313.050781-.042968.078125-.105468.074218-.171874.011719 0 .015626 0 .015626.015624.046874-.027343.082031-.09375.109374-.210937.136719-.285156.25-.578125.347657-.878906.285156-.777344.28125-.859375.316406-1.042969h-.035156c.003906.023438 0 .046875-.011719.070312-.019531-.007812-.035156-.015624-.054688-.015624v-.011719c0-.089844.03125-.171875.085938-.242188h.015625l.027344.113281h.035156c.003906-.046874.015625-.09375.027344-.140624 0-.015626-.015625-.027344-.042969-.03125l-.03125.023437v-.183594h-.015625c-.023437-.019531-.039063-.042969-.046875-.070312l-.1875.015625c-.003906-.019532-.007812-.039063-.019531-.054688 0-.019531.039062-.035156.125-.050781l.039062.011719.035157-.019532c0 .011719.007812.015626.019531.015626l.035156-.023438c0 .011719.011719.019531.023437.015625h.015626v-.035156h-.203126l-.035156.023437v-.023437c-.882812.074219-1.378906.113281-1.5.125h-.183594c0 .015625-.011718.023437-.039062.027343l-.039062-.015624-.148438.023437c-.050781.003906-.101562.003906-.152344 0-.019531.015625-.046875.027344-.070312.027344l.371094-.027344c-.027344.019531-.058594.027344-.089844.03125-.027344 0-.050782-.003906-.074219-.015625-.09375.03125-.1875.050781-.28125.066406l-.039063-.011718-.613281.09375c-.027343-.011719-.054687-.015626-.082031-.011719-.054688.003906-.109375.015625-.164062.035156l-.296876.121094.023438.039062c.019531-.003906.042969-.015625.058594-.027343l.105468.011718-.011718.097656c-.085938.03125-.148438.101563-.167969.1875-.140625.066407-.21875.109376-.21875.140626v.019531h.023437l.039063-.023438.046875.054688v.078125c0 .023437-.246094.539062-.734375 1.546875-.421875.96875-.644531 1.5-.667969 1.59375-.140625.042969-.226562.101562-.253906.179687 0 .027344.046875.042969.128906.046875v.039063l-.039062.0625v.078125c0 .039062.109375.066406.320312.089843 0-.011718 0-.023437.019532-.023437-.003907.09375-.015626.191406-.039063.28125h.046875c.0625-.066406.105469-.152344.125-.242187h.015625c.019531 0 .042969.019531.070313.070312-.027344.011719-.121094.21875-.28125.628906l.019531.035156h.023437c.191406-.488281.3125-.757812.363282-.808593.253906-.023438.691406-.070313 1.3125-.140625l.039062-.023438c0 .003906.003906.011719.007812.015625.003907.003907.011719.003907.015626.003907h.042968l.039063-.027344c0 .007812 0 .011718.003906.015625.007813.003906.011719.007812.019531.003906l.46875-.039063c.125-.011718.183594-.050781.179688-.113281 0-.015625.070312-.035156.222656-.058593.019531 0 .042969.003906.0625.011718 0-.011718.074219-.023437.222656-.035156 0-.082031.027344-.121094.074219-.125v-.039062c-.050781.003906-.097656.015624-.140625.03125-.0625 0-.125-.007813-.1875-.023438-.019531.011719-.039062.023438-.0625.027344l-.335938-.011719-.039062.019531c0-.011718-.007812-.015625-.023438-.015625h-.019531l-.039062.023438c0-.011719-.035157-.023438-.105469-.03125l-.042969.027343h-.082031v-.023437c.421875-.042969.632812-.101563.625-.171875.011719 0 .023438 0 .03125.007812.011719.007813.015625.019532.015625.03125l.121094-.03125v-.035156l-1.007813.027344c0 .011719 0 .019531-.019531.019531l-.125-.007812c-.027344 0-.054687.011719-.078125.027343l-.050781-.007812c-.09375.007812-.1875.019531-.28125.046875-.09375-.007813-.1875-.007813-.28125 0l-.226563.019531-.105468-.011718c0-.066407.128906-.394532.394531-.984376.039062-.140624.113281-.269531.214843-.371093.023438 0 .046876.003906.066407.015625l.144531-.054688.082031.011719c.167969-.019531.332031-.058594.484375-.117187.039063-.007813.074219-.003907.105469.007812l.125-.027344.367187-.03125c.171876-.019531.34375-.054687.507813-.105468v-.039063c-.066406 0-.101563 0-.105469-.03125 0-.050781-.050781-.070313-.148437-.066406v-.035157l.101562-.03125.265625-.023437v-.035156h-.164062v-.042969l.101562-.007812c.03125 0 .039063-.015626.039063-.042969-.140625 0-.207031 0-.210938-.023438-.957031.046875-1.4375.058594-1.441406.027344-.019531.007813-.042969.015625-.058594.027344l-.042969-.042969c.253907-.539062.402344-.8125.449219-.816406-.003906.035156-.015625.070312-.03125.101562v.011719h.039063c.101562-.242187.1875-.367187.257812-.371094.300782-.027343-.042968-.046875.601563-.140625.019531.007813.039062.015625.058593.015625.253907-.050781.605469-.105469 1.058594-.160156v-.039063l-.242187.023438v-.039062c.027343 0 .054687-.011719.074219-.027344v.019531c.019531-.003906.039062-.011719.054687-.023437.03125-.007813.066406-.003907.09375.007812.066406-.015625.136719-.03125.203125-.039062l.152344-.015626c.035156-.023437.050781-.042968.050781-.0625v-.015624c-.042969 0-.089844 0-.132813-.011719 0-.007813.003907-.019531.007813-.027344.007813-.007813.015625-.011719.027344-.011719l.28125-.027344.128906-.035156c0 .015625.007813.019532.015625.019532.019531-.003907.039062-.011719.054688-.023438h.023437c-.023437.046875-.042969.097656-.058594.152344h-.035156c-.003906-.023438-.007813-.046875-.023437-.066406h-.023438c-.339844.949218-.492188 1.390624-.808594 2.117187-.054687.1875-.105468.289063-.144531.3125-.003906.007813.003906.019531.007813.023437.007812.007813.019531.007813.027343.007813.007813.09375-.015625.1875-.066406.269531-.140625.421875-.242187.648438-.292969.691406l.035156.199219c0 .007813-.003906.015625-.007812.023438-.007812.007812-.015625.011719-.023438.011719h-.035156c0-.054688-.023437-.082032-.058594-.078126h-.019531c-.046875.074219-.082031.15625-.101562.242188h.035156c.039063-.019531.0625-.0625.0625-.105469h.066406l.039063.011719c-.023438.035156-.039063.078125-.042969.121094l.019531.03125-.046875.105468v.015626c.046875 0 .089844.011718.128907.039062.039062-.007812.070312-.023438.101562-.046875h.4375l.128906-.042969c.105469 0 .207032 0 .3125-.011718h.054688l.03125-.019532v.019532c.085937-.011719.171875-.007813.257812.007812v.015625h-.078125v.035156c.023438-.003906.042969-.011719.0625-.023437.019531 0 .03125.007812.03125.03125-.035156.003906-.070312.011718-.105469.023437l-.03125-.011719c-.054687.015626-.042968.019532-.082031.023438l-.050781-.011719c0 .003907 0 .007813-.003906.011719s-.007813.003906-.011719.003906c0 .007813.003906.015625.011719.023438.003906.003906.015625.007812.023437.007812h.054688l.28125-.027344.105469-.023437c0 .007813 0 .015625.015624.011719l.050782-.019532.101562-.007812c.074219 0 .074219-.011719.238282-.039062 0-.007813 0-.011719.011718-.015626v.015626c.109375-.015626.21875-.035157.328125-.0625v.007812c.066407-.015625.027344-.011719.046875-.027344 0 .011719 0 .019532.011719.019532h.046875v-.035157h-.117188c-.035156.003907-.070312.007813-.105468.007813l-.242188.011718v-.015624l.140625-.019532h.046875l.03125-.019531v.015625c.1875-.015625.253906.03125 1.125-.15625.046875 0 .042969-.042969.070313-.125-.015625.003906-.03125 0-.046875-.007812-.082032.019531-.164063.03125-.246094.035156-.011719 0-.023438-.007813-.027344-.027344v-.015625h.140625c.050781-.003906.097657-.019531.140625-.046875 0 .011719-.027344.015625-.011718.015625zm-6.453125.101563h-.0625c.023437-.097656.054687-.191406.101562-.28125h.039063c-.011719.097656-.039063.191406-.078125.28125m.074218-.296875v-.015625c0-.023437.011719-.035156.042969-.042969v.027344c0 .023438-.011719.039062-.042969.042969zm.820313.632812v.015626l-.101563.011718v-.019531zm-.125-.011718c0 .023437-.027344.046875-.097656.070312l-.125-.011718h-.039063v-.039063l.265625-.023437zm.828125-3.8125h-.0625v-.019532c0-.019531.011719-.035156.039062-.042968h.023438l.039062.019531c.003907.007813 0 .019531-.007812.027344-.007812.007812-.019531.015625-.027344.011719zm.9375-.179688h.015625v.035156h-.054687c-.003907-.007812 0-.019531.007812-.027343.003906-.007813.015625-.011719.023438-.011719zm-.234375.082032-.09375-.011719v-.015625c.078125-.003906.160156-.019532.238281-.042969 0 .011719.011719.019531.035156.015625v.039062h-.035156c-.027344 0-.050781-.003906-.074218-.015624-.023438.015624-.046876.023437-.070313.027343zm.109375.34375v-.015626l.152344-.011718v.015625zm.160156-.128907v-.023437h.074219v.023437zm.019532-.257812h-.019532l.015625-.039063.167969-.015625v.019531c-.058594.007813-.113281.019532-.167969.035157zm.085937.363281v-.039062h.070313c.027343 0 .039062.011718.039062.035156l-.109375.007812zm.441406-.605469-.09375.027344h-.015625c-.058594.003906-.117187.003906-.175781 0 .121094-.007813.238281-.015625.28125-.023437zm-.097656.421875v.015625l-.132813.011719v-.015625zm.210937.101563c0-.015625-.027343-.027344-.078124-.03125l-.128907.035156h-.101562c-.019531-.015625-.03125-.027344-.035157-.03125h.117188l.257812-.042969h.132813v.019532c-.054687.003906-.113281.015624-.164063.035156zm1.335938-.355469h.027344c.046875-.042969.097656-.082031.15625-.105469-.027344.171875-.105469.332031-.21875.460938l-.074219-.046875c.042969-.101563.078125-.203125.109375-.3125zm-.226562.386719h.019531c-.027344.046875-.050781.070312-.066407.074219v-.050782c.015626-.003906.035157-.011718.050782-.023437zm-.140626.347656c.011719-.089844.046876-.171875.101563-.242187v.015624c-.019531.132813-.046875.203126-.085937.207032v.082031c-.027344.03125-.042969.066406-.046876.105469h-.015624l-.011719-.113282c.023437 0 .039062-.019531.050781-.054687zm-.054687.1875c-.007813.050781-.019531.097656-.039063.140625h-.019531v-.046875c.027344-.058594.046875-.089844.0625-.089844zm-1.058594 3.070313v-.015626h.03125v.050782c-.015625 0-.027343-.011719-.035156-.035156zm1.507813.039062c0-.011719 0-.019531-.015625-.015625l-.085938.007813v-.015626h.007813l.199218-.019531v.019531c-.035156-.003906-.070312.003907-.105468.023438zm-.097656-.042969c.007812 0 0 .007813 0 .007813 0 .003906-.011719 0 0-.007813m.007812-.238281-.113281.011719v-.015625l.105469-.011719.085937-.023437c0 .011718 0 .015624.019531.015624.105469-.019531.09375-.023437.140625-.03125.015625 0 .027344.011719.027344.03125l-.269531.023438zm.394531-.03125c-.039062-.007812-.074219-.011719-.113281-.007812v-.015626l.101562-.007812v.011719c-.007812 0 .03125 0 .011719.015625zm.007813-.019531v-.011719h.054687v.011719zm.121094-.007813v-.015625c.015624-.003906.027343-.011719.039062-.019531.011719-.003906.023438 0 .03125.007812.007812.007813.015625.015626.015625.027344zm.15625-.019531v-.015625h.070312v.015625zm.09375-.011719c0-.019531 0-.027344.023437-.03125l.023437.027344c0-.003906 0-.003906 0-.007812.003907-.003907.007813-.003907.007813-.007813l.019531.03125-.074218-.007813zm1.308593-.160156c.011719 0 .015625-.015625-.007812-.019531-.027344-.003907.011719.019531-.015625.019531v.015625l.015625-.011719-.015625.011719-.027344.035156.054688-.019531v-.03125zm.097657.074219h-.011719v.03125h.078125c0-.019531-.050782-.027344-.070313-.027344zm0 0" fill="#000305"/></svg>