<svg height="18" viewBox="0 0 18 18" width="18" xmlns="http://www.w3.org/2000/svg"><path d="m12.296875 6.15625v-.035156h-.0625v.035156zm.414063.996094v.019531h.042968c0-.019531.003906-.042969.011719-.058594v-.039062c-.019531 0-.035156.027343-.054687.082031zm-1.617188 1.253906c-.089844-.152344-.199219-.296875-.328125-.421875 0-.042969.070313-.109375.222656-.199219l.4375-.378906c.117188-.183594.175781-.390625.171875-.605469v-.066406c-.015625-.195313-.15625-.351563-.421875-.46875-.15625-.105469-.4375-.164063-.84375-.175781-.457031.0625-.90625.1875-1.332031.371094-.164062.117187-.335938.222656-.511719.320312v.035156c.019531-.003906.035157-.011718.050781-.023437.011719-.003907.019532 0 .027344.003906.007813.007813.011719.015625.011719.023437l.03125-.015624h.015625v.015624c-.105469.105469-.226562.203126-.355469.28125l.015625.03125h-.011718l-.042969-.011718c0 .011718-.015625.019531-.046875.019531v.015625l.039062.046875c-.019531 0-.039062-.003906-.054687-.011719-.0625.007813-.121094.039063-.164063.089844l.023438-.097656c.070312-.300782.125-.605469.164062-.914063v-.015625c-.0625-.042968-.117187-.089844-.160156-.148437 0-.023438 0-.046875 0-.070313v-.011718h-.015625c-.171875.257812-.503906.699218-1 1.328124-.375.445313-.570313.691407-.582031.742188-.152344.15625-.226563.253906-.21875.28125-.042969.027344-.058594.050781-.050782.082031-.003906 0-.011718 0-.015624-.003906-.003907 0-.007813-.003906-.007813-.011719-.0625.105469-.171875.179688-.292969.207032l-.140625.03125c-.007812 0-.015625.003906-.019531.011718-.007812.007813-.007812.015625-.007812.027344v.015625l.050781-.011719v.015625l-.113281.042969-.203126.046875h-.109374c-.015626.015625.085937 0 .046874.011719l-.140624.03125c-.082032.015625-.125.007812-.140626-.023438h-.015624c.003906.011719.003906.023438 0 .035156l.019531-.023437-.109375.023437c-.007813-.046874-.152344-.230468-.433594-.539062 0-.0625.09375-.148438.296875-.261719l.574219-.507812c.128906-.164063.207031-.429688.230468-.792969l-.007812-.082031c-.023438-.257813-.207031-.464844-.5625-.625-.207031-.140625-.578125-.214844-1.117188-.226563-.597656.082032-1.183593.242188-1.738281.480469-.214843.152344-.441406.292969-.671875.421875v.046875c.023438-.007813.046875-.015625.066406-.027344.011719-.003906.023438 0 .03125.003907.011719.007812.015626.019531.015626.03125l.046874-.023438h.023438v.019531c-.144531.140625-.300781.261719-.472656.367188l.027344.039062h-.023438l-.046875-.019531c0 .015625-.019531.023438-.066406.027344v.023437l.050781.058594c-.023438 0-.046875-.003906-.070312-.015625-.125.027344-.234376.109375-.296876.222656l.023438.039063c.042969-.046875.09375-.085938.148438-.121094v.066406c-.023438.003907-.046876.015625-.066407.027344l.058594.078125c.101563-.109375.214844-.203125.339844-.28125.0625.015625.097656.035156.097656.054688h.046875c.304688-.230469.644531-.414063 1.003906-.542969v.046875c-.0625.09375-.101562.140625-.125.140625.003906.03125.011719.058593.03125.082031.007813.058594-.144531.4375-.449218 1.140625-.6875 1.625-1.269532 2.828125-1.742188 3.609375.003906.019531.015625.042969.027344.0625.082031-.015625.15625-.042969.222656-.085938h.023438v.046876h.046874l.042969-.027344c0 .011718.015625.019531.046875.019531v.042969c-.003906.070312-.027344.132812-.066406.191406-.070312.101562-.121094.21875-.152344.335938v.023437h.042969c.171875-.1875.316406-.394531.429687-.621094.4375-.117187.859376-.277343 1.265626-.476562.242187-.003907.472656-.085938.667968-.226563v-.023437l-.109375.03125h-.027343v-.023438c.160156-.011719.3125-.058593.445312-.140625.417969-.324218.734375-.550781.949219-.6875.4375-.320312.722656-.636718.855469-.941406l.070312-.015625h.105469c0-.011719 0-.019531.015625-.023437.097656-.007813.050781 0 .113281-.007813l.164063-.035156c-.007813 0-.011719.007812-.011719.015625l.027343-.015625h-.015624.03125l-.015626.007812c.023438.003907.042969.003907.0625 0l.011719.050781-.761719 1.171876-.167968.207031-.082032.269531h.015626l.082031-.035156-.027344.105468.007813.03125.023437.027344c-.007813 0-.011719.011719-.011719.023438v.015625l.035156-.007813c.050782-.042968.070313-.082031.0625-.117187.035157.007812.070313.011719.109376.007812v.015625c-.035157.007813-.050782.035156-.054688.078125v.019531h.019531c.273438-.300781.941407-1.316406 1.476563-2.007812-.015625-.074219.265625-.179688.84375-.3125h.019531c.019531.09375-.027344.3125-.140625.65625-.046875.113281-.078125.226562-.101562.34375-.054688.148438-.101563.296875-.128907.453125l-.203125.667969c-.136718.351562-.238281.714844-.304687 1.085937.019531-.003906.039062-.003906.054687 0l.03125-.027343c0 .007812.003906.011718.007813.011718.003906.003906.007812.003906.011719.003906l.003906-.054687h.085937c.027344 0 .050781-.039063.070313-.101563 0-.089843.011718-.140624.054687-.148437.019531-.109375.054688-.222656.101563-.324219.019531-.128906.058594-.25.113281-.367187.078125-.28125.140625-.421875.167969-.429688l.007812.035157-.054687.140624c-.074219.351563-.171875.695313-.296875 1.03125l.027344.125h.019531c.242187-.523437.59375-1.5625 1.050781-3.113281.011719-.128906.085938-.246093.195312-.316406l-.027343-.027344v-.015625c.042969-.003906.082031-.027344.113281-.058594 0-.011718-.050781-.03125-.140625-.054687l.226563-.984375c.023437-.027344.054687-.050781.085937-.066406v.050781c-.019531 0-.035156.007813-.050781.019531l.042968.0625c.078126-.082031.164063-.15625.257813-.21875.050781.011719.070313.027344.074219.042969h.035156c.230469-.175781.488281-.3125.761719-.410156v.035156c-.046875.066406-.078125.101563-.09375.105469 0 .019531.007812.042968.019531.0625-.089844.296875-.203125.585937-.335938.867187-.382812.941407-.828124 1.859375-1.328124 2.746094.003906.019531.011718.035156.023437.050781.058594-.011718.117187-.03125.164063-.066406h.015624v.03125h.039063l.03125-.015625c0 .011719.011719.011719.035156.011719v.035156c-.003906.054688-.023437.105469-.054687.148438-.058594.078124-.097656.164062-.121094.257812v.015625h.035156c.128906-.140625.238282-.300781.324219-.472656.332031-.085938.652344-.207031.957031-.359375.183594-.003906.359375-.066406.507813-.171875v-.019531l-.085938.027343h-.015625v-.019531c.117188-.007812.234375-.042969.335938-.105469.316406-.246093.5625-.421875.71875-.519531.507812-.371094.742187-.722656.714844-1.0625zm-.085938.023438.011719.132812c-.015625.03125-.03125.050781-.046875.050781l-.019531-.226562c.035156.015625.054687.027343.054687.042969m-9.921874-1.066407h-.019532v-.039062l.085938-.011719v.019531c-.023438.003907-.046875.015625-.066406.027344zm-.441407 4.417969c-.042969-.023438-.089843-.03125-.140625-.027344v-.066406c0-.027344.011719-.042969.042969-.046875.035156-.007813.046875.015625.050781.058594.035156-.050781.078125-.097657.125-.140625l.046875.019531c-.015625.132813-.054687.199219-.121093.203125zm4.71875-4.9375c-.023437 0-.066406-.066406-.128906-.203125v-.039063c.039063 0 .085937.0625.128906.203126zm-.0625-.488281-.015625.042969-.644531-.265626c.425781.015626.648437.089844.660156.222657zm-2.703125 2.324219-.089844.007812v-.039062l.089844-.011719zm-.074218-1.394532h.023437v.0625c-.023437 0-.050781.035156-.085937.09375v-.042968c.042968-.050782.0625-.085938.058593-.113282zm-.191407.449219.007813.085937h-.023438l-.007812-.085937zm-.101562.160156h.042969c0 .070313-.023438.109375-.058594.109375h-.019532c.019532-.03125.035157-.066406.035157-.105468zm-.074219.222657h.027344v.019531l-.042969.070312h-.042969v-.023437c.019532.003906.035156-.003906.046875-.019532.011719-.011718.015625-.03125.011719-.046874zm-.070312.199218-.015626.109375h-.019531l-.011719-.105469h.046876zm-.738282 2.089844c-.027344.140625-.058594.222656-.09375.222656v-.019531c-.003906-.078125.03125-.15625.09375-.203125m-.140625.292969v.019531c.003907.011719 0 .027344-.007812.035156-.007813.007813-.019531.015625-.03125.015625v-.023437c0-.023438.015625-.039063.039062-.046875m-.039062.605469h.066406v.023437c-.023437.003906-.046875.015625-.066406.027344h-.042969c0-.023438.011719-.039063.039062-.046875zm1.941406-.597657c-.238281.101563-.464844.230469-.675781.382813-.410156.144531-.613282.234375-.605469.269531-.25.089844-.492187.195313-.730469.3125-.042968 0-.082031-.011719-.121094-.03125-.003906-.074219.035157-.144531.101563-.183594.0625-.003906.125.003907.183594.027344.113281-.050781.234375-.089844.355469-.113281v-.046875l-.140626.011719c.125-.078126.253907-.136719.394532-.183594h.066406v.019531c-.117188.011719-.179688.046875-.195312.105469 0 .027344.019531.039062.046874.039062.089844-.054687.132813-.089844.128907-.097656.167969-.03125.628906-.273438 1.382812-.722656v.039062c0 .023438-.066406.078125-.195312.171875zm-1.15625.378907c.105469-.007813.203125-.054688.28125-.132813.03125 0 .046875.011719.046875.039063-.109375.027343-.210938.074218-.308594.140624h-.019531zm1.871094-1.433594-.578125.457031c-.222656.15625-.453125.300781-.695313.421875-.683593.375-1.109375.570312-1.273437.589844h-.027344c.023438-.078125.328125-.703125.914062-1.875.421876-.066406.835938-.1875 1.226563-.363282l.140625-.007812c.222656-.042969.453125.019531.632812.160156l.007813.085938c-.105469.300781-.222656.476562-.34375.527344zm-1.125-.636719.09375-.007813v.023438l-.09375.007812zm1.304687-.21875h.070313c.0625.027344.09375.054687.097656.078125v.023438c-.070313 0-.132813-.035157-.167969-.09375zm.183594-1.050781c-.148438.140625-.316406.261718-.492188.367187-.089843.007813-.421874.140625-.996093.386719-.027344-.011719-.058594-.015625-.089844-.015625v-.039063c.003906-.113281.042969-.222656.109375-.3125.046875-.238281.09375-.371093.140625-.402343l.480469-1.078125c-.007813-.066406.09375-.117188.304687-.152344h.066407v.0625c.207031-.03125.335937-.050781.386718-.054688.378906-.03125.578125.046876.59375.230469h.042969l-.011719-.109375.058594-.019531c.09375.039063.164062.125.179688.222656-.003907.085938-.039063.164063-.097657.222657-.027343 0-.046875-.015626-.046875-.058594h-.046875l-.011719.128906c-.191406.289062-.332031.4375-.421874.445312-.078126.109376-.125.164063-.140626.164063zm.296875.75c-.027344-.019532-.0625-.03125-.09375-.035156v-.0625h.042969l.09375.054687c.003906.011719 0 .023437-.007813.035156-.007812.007813-.019531.011719-.03125.011719zm.296875.363281c.042969.015625.066406.035156.070312.050781h-.03125l-.03125.027344zm.03125.179687v-.015624l.054688-.011719v.015625zm.128906.148438c.058594-.007812.085938-.011719.191406-.035156v.015625l-.199218.046875c0-.007813 0-.015625 0-.027344zm.195313.082031c-.066407.003907-.132813.011719-.199219.03125v-.019531l.164062-.050781.082032-.019531.007812.03125c-.035156.007812-.007812.007812-.050781.027343zm.175781-.039062c-.007812 0-.019531 0-.027344-.003907-.007812-.007812-.011718-.015624-.015625-.023437l.050781-.011719c.007813-.003906.019532-.003906.027344.003906.007813.003907.015625.011719.015625.023438zm.480469-.515625v-.019532l.082031-.019531.011719.03125h-.089844zm.511719 3.140625c.003906-.019531.003906-.035157 0-.054688h.019531c.007812 0 .019531 0 .027343.003907.007813.003906.011719.011718.011719.023437v.015625l-.066406.015625zm.359374-3.007813h-.035156c-.046875.019532-.097656.035156-.148437.046875l-.035157.011719c-.007812 0-.019531 0-.027343-.003906-.007813-.003906-.011719-.011719-.015625-.023438l.242187-.054687.078125-.035157.027344.03125c-.03125.003907-.058594.015626-.082031.03125zm.1875-.058594v-.019531c.015626-.003906.03125-.015625.042969-.027343l.171875-.039063v.015625c-.074218.015625-.148437.039062-.214844.066406zm.023438-.351562c-.015625.007812-.03125.015625-.046875.03125 0-.011719-.027344-.011719-.070313 0-.007812-.035156.117188-.082031.378907-.140625l.035156-.011719.011719.03125c-.183594.054688-.28125.085938-.308594.089844zm.460938-.496094c-.023438.214844-.09375.332032-.222657.355469v-.015625l-.117187.042969-.050782.011719c-.019531.007812-.046874.007812-.070312 0l-.015625-.039063c.152344-.242187.320313-.472656.503906-.691406h.039063c.003906.117187-.019532.230469-.070313.335937zm.808593-.695312h-.011719v-.03125h.066407v.015625c-.019531.007812-.035157.015625-.050781.023437zm-.332031 3.363281c-.035156-.019531-.070312-.027344-.105469-.023437v-.050782c0-.015625.007813-.027344.03125-.035156.019531 0 .035157.011719.035157.046875.027343-.039063.058593-.074219.097656-.105469l.035156.011719c-.015625.101563-.046875.152344-.089844.15625zm3.578125-3.75c-.015625 0-.050781-.050781-.101563-.15625v-.03125c.03125 0 .066407.046875.101563.152344zm-.046875-.371094-.015625.03125-.484375-.203125c.320312.011719.488281.070313.5.171875m-2.050781 1.761719h-.070313v-.03125h.070313zm-.058594-1.058594h.019531v.046875c-.019531 0-.039062.023438-.0625.070313v-.03125c.023438-.023438.039063-.054688.042969-.085938zm-.140625.339844v.0625h-.019531v-.0625zm-.078125.121094h.035156c0 .054687-.015625.085937-.042969.085937h-.019531c.015625-.023437.027344-.054687.027344-.085937zm-.054687.167968h.015624v.015626l-.027343.054687h-.035157v-.015625c.035157 0 .050782-.019531.046876-.054688zm-.054688.152344-.011719.082032h-.015625v-.082032h.035156zm-.5625 1.589844c-.023438.109375-.046875.164062-.070312.167969v-.015625c0-.058594.023437-.117188.074218-.152344zm-.101562.21875v.015625c0 .007813 0 .019531-.007813.027344-.003906.007812-.015625.011719-.023437.007812v-.015625c0-.015625.007812-.027344.03125-.035156m-.03125.460938h.050781v.019531c-.015625 0-.035157.007812-.050781.019531h-.03125c0-.019531.007812-.03125.03125-.035156zm1.472656-.453126c-.179688.078126-.351563.175782-.515625.289063-.3125.109375-.46875.179687-.46875.207031-.183594.070313-.367188.152344-.542969.242188-.03125 0-.0625-.007813-.089844-.023438-.007812-.058594.023438-.113281.074219-.140625.050781-.003906.097656.003907.140625.019531.089844-.035156.179688-.066406.273438-.085937v-.03125l-.105469.007813c.09375-.058594.195312-.105469.300781-.140626h.050781v.011719c-.089843.011719-.140625.035157-.148437.082031 0 .011719.003906.019532.011718.023438.003907.007812.015626.007812.023438.007812.066406-.042968.097656-.066406.097656-.078124.125-.019532.472656-.203126 1.046875-.546876v.03125c0 .015626-.046875.058594-.140625.128907zm-.878906.28125c.082031-.007812.160156-.042968.21875-.097656.007812-.003906.015624 0 .023437.003906.007813.007813.011719.015626.011719.023438-.082032.023438-.160156.054688-.234375.101562h-.015625v-.03125zm1.417968-1.082031-.433594.351563c-.171874.121094-.347656.230468-.53125.324218-.519531.28125-.84375.429688-.96875.445313h-.019531c.015625-.058594.25-.53125.695313-1.421875.320312-.050781.632812-.148438.929687-.28125l.105469-.007812c.171875-.03125.347656.015624.480469.125v.066406c-.082031.222656-.167969.355468-.261719.394531zm-.855468-.480469h.066406v.015626h-.066406zm.992187-.167968h.050781c.046875.023437.074219.042968.074219.0625v.011718c-.050781.003907-.101563-.023437-.128906-.070312zm.140625-.796875c-.113281.105469-.238281.199219-.375.28125-.257812.074219-.511719.171875-.753906.292969-.023438-.007813-.046875-.011719-.070313-.011719v-.03125c.003907-.085938.03125-.171875.082031-.238281.035157-.183594.074219-.28125.113282-.304688l.363281-.816406c0-.050782.074219-.089844.230469-.121094h.054687v.050781c.152344-.023437.25-.039062.289063-.042969.28125-.027343.441406.03125.453125.171876h.03125v-.078126h.035156c.074219.027344.125.089844.140625.167969-.007812.0625-.035156.125-.085938.167969-.019531 0-.035156-.011719-.035156-.046875h-.035156l-.007812.097656c-.140626.21875-.253907.335938-.320313.339844-.058594.082031-.09375.121094-.113281.121094zm.152344.542969v-.046876h.035156l.070312.042969c.003907.011719 0 .019531-.007812.027344-.003906.003906-.011719.007813-.023438.007813-.019531-.015626-.042968-.023438-.070312-.027344zm-6.101563 3.183593-.035156.007813-.027344.023437c0 .011719.003907.019531.011719.023438.011719.003906.019531.003906.027344 0 .023437 0 .03125-.015625.027344-.039063v-.015625zm-.128906-.261719v.019532c.023437 0 .03125-.019532.027344-.039063v-.019531c-.011719.003906-.019531.007812-.023438.015625-.003906.007813-.007812.015625-.003906.023437m.921875-2.191406.039062-.011718-.007812-.03125-.039062.007812zm11.890625.996094c-.175781.050781-.351563.078125-.53125.082031v.03125h.054687l.042969-.015625c.394531-.042968.441407-.027344.4375-.070312v-.015625zm-2.144531.28125v.035156zm-.246094-.863281-.035156-.007813c-.019532.042969-.035156.089844-.042969.140625v.011719c.027344 0 .050781-.046875.074219-.140625zm2.472656.574219v.03125l.054688.011718v-.035156zm-2.714844.335937-.085937-.011719-.015625.035156v.015626l.527344-.042969v-.035157l-.421875.039063zm-.238281-1.164063v-.015624h-.019531l-.03125.019531.015625.03125c.027344 0 .039063-.011719.035156-.035157zm3.203125.585938h.023438c.015625 0 .023437-.011719.019531-.035156l-.011719-.03125c-.074218 0-.144531.019531-.207031.054687v-.015625l-.109375.007813c0-.03125-.007812-.046875-.023438-.046875h-.058593c-.066407 0-.097657 0-.128907.027344 0-.011719 0-.015626-.011718-.015626h-.0625l-.035156.019532c0-.011719 0-.015625-.011719-.015625l-.023438.019531v-.015625h-.109375v.03125l.046875.011719h.042969c.011719.007812.03125.011718.046875.007812l.035156-.015625v.011719c-.113281.03125-.230469.050781-.34375.066406-.011719-.007812-.023437-.015625-.035156-.015625-.007813 0-.015625-.003906-.019531-.007812-.007813-.003907-.007813-.011719-.007813-.019531l.070313-.011719c.019531.007812.035156.011719.050781.011719.058594-.027344.0625-.039063.09375-.042969v-.03125c-.125.023437-.25.035156-.375.035156h-.011719v-.03125c.324219-.039063.21875-.019531.328125-.046875 0 .007812 0 .015625.011719.015625.011719-.011719.027344-.019531.042969-.023437h.023437c.128906.003906.253906-.011719.378906-.050782v.015625l.035157-.019531h.035156c0-.03125.046875-.035156.0625-.039062v-.035157c-.394531.082031-.5.058594-.609375.089844v-.015625c-.042969.011719-.09375.015625-.140625.011719-.011719.003906-.023437.011719-.03125.023437 0-.011718 0-.019531-.011719-.019531l-.335937.054687c0-.007812 0-.011718-.011719-.011718-.117188.035156-.238281.058594-.363281.066406-.015625 0-.027344.007812-.042969.015625 0-.007813 0-.011719-.015625-.011719l-.140625.011719-.097656.023437c0-.007812 0-.011718-.019532-.011718-.042968.011718-.089843.023437-.140624.027344-.023438 0 .011718 0 0-.015626l-.027344.015626h-.164063c-.253906.03125-.222656.035156-.253906.039062h-.09375c0 .003906 0 .007812-.003906.011719 0 .003906-.003907.003906-.007813.003906-.109375-.015625-.164062-.03125-.164062-.050781.011718-.101563.039062-.15625.074218-.15625h.019532l-.015625.03125h.015625c.035156-.019532.050781-.035156.050781-.050782v-.035156h-.035156v-.03125c-.003907-.023437 0-.046875.007812-.066406l.078125-.125v.03125h.039063v-.03125l-.023438-.03125c.019531-.015625.042969-.03125.066407-.035156v-.019532h-.046876v-.046874c.0625-.113282.109376-.234376.140626-.363282l.035156.015625c.019531 0 .03125-.015625.027344-.039062h-.03125v-.011719c-.003907-.027344 0-.050781.011718-.070312.050782-.042969.074219-.105469.074219-.171876.007813 0 .015625 0 .015625.015626.046875-.027344.082031-.097657.105469-.210938.128906-.285156.234375-.578125.320312-.875.28125-.777344.28125-.859375.316407-1.042969h-.03125c0 .023438-.003907.046875-.015626.070313-.015624-.007813-.035156-.015625-.054687-.015625v-.011719c.003906-.089844.03125-.171875.085937-.242188h.007813l.03125.113282h.03125c.007813-.046875.015625-.09375.027344-.140625 0-.015625-.015625-.027344-.039063-.03125l-.035156.023437v-.183594h-.015625c-.023437-.019531-.039063-.042968-.046875-.070312l-.183594.015625c-.003906-.019531-.011718-.039063-.023437-.054687 0-.019532.042969-.035157.128906-.050782l.035156.011719.035157-.019531c0 .011718.007812.015625.023437.015625l.035156-.023438c0 .011719.007813.019531.019531.015625h.015626v-.035156h-.203126l-.035156.023438v-.027344c-.878906.074218-1.378906.113281-1.5.125h-.183594c0 .015625-.011718.023437-.039062.027344l-.035156-.019532-.128906.035156c-.050782.003907-.101563.003907-.152344 0-.019532.015626-.046875.023438-.070313.027344l.375-.023437c-.027343.015625-.058593.027343-.09375.027343-.023437.003907-.050781 0-.074219-.011718-.089843.027344-.183593.050781-.28125.066406l-.039062-.015625-.613281.097656c-.023438-.011719-.054688-.019531-.082031-.015625-.054688.007813-.109376.019532-.164063.035156l-.292969.125.019532.035157c.023437-.003907.042968-.011719.0625-.023438l.105468.011719-.011718.097656c-.085938.03125-.148438.101563-.171876.1875-.140624.066406-.214843.109375-.214843.140625v.015625h.019531l.039062-.019531.046876.054687v.078126c0 .023437-.242188.539062-.730469 1.546874-.421875.96875-.648438 1.5-.667969 1.59375-.140625.042969-.230469.101563-.253906.179688 0 .023438.042968.042969.128906.046875v.039063l-.039062.0625v.074218c0 .042969.105468.070313.316406.09375 0-.015625 0-.023437.019531-.023437 0 .09375-.011719.1875-.039063.28125h.023438c.074219-.074219.125-.167969.140625-.269531h.019531c.019532 0 .042969.019531.066406.070312-.023437.011719-.117187.21875-.28125.628906l.023438.035156h.03125c.191406-.488281.3125-.757812.363281-.808593.253907-.023438.691407-.070313 1.3125-.140625l.039063-.023438c0 .003906 0 .011719.007812.015625.003906.003907.007813.003907.015625 0h.039063l.039062-.023437c0 .007812.003906.011718.007813.015625.007812.003906.011719.007812.019531.003906l.46875-.039063c.125-.011718.183594-.050781.179688-.113281 0-.019531.070312-.039062.21875-.058593.023437 0 .046874.003906.066406.011718 0-.011718.074218-.023437.222656-.035156 0-.082031.027344-.121094.074219-.125v-.039062c-.050781.003906-.097657.015624-.140625.03125-.066406 0-.128906-.007813-.1875-.023438-.019532.011719-.039063.019531-.0625.023438l-.328125.011718-.039063.019532c0-.011719-.007812-.015626-.023437-.015626h-.019531l-.039063.023438c0-.011719-.035156-.023438-.105469-.03125l-.042968.027344h-.082032v-.023438c.421875-.042968.632813-.101562.625-.171875.011719 0 .023438 0 .03125.007813.011719.007812.015625.019531.015625.03125l.121094-.03125v-.039063l-1.007813.03125c0 .011719 0 .019531-.019531.019531l-.125-.007812c-.027343 0-.054687.011719-.078125.027344l-.046875-.015625c-.09375.003906-.1875.019531-.28125.046875-.09375-.007813-.1875-.007813-.28125 0l-.226562.019531-.105469-.011719c0-.066406.125-.394531.394531-.984375.039063-.140625.113281-.269531.214844-.371093.023437 0 .042969.003906.066406.015624l.160157-.054687.082031.011719c.167969-.019532.332031-.058594.484375-.121094.039062-.003906.074218 0 .105468.011719l.125-.03125.367188-.03125c.171875-.015625.34375-.050781.507812-.101563v-.039062c-.066406 0-.101562 0-.105468-.03125 0-.050782-.050782-.074219-.148438-.066406v-.039063l.101563-.027344.265625-.023437v-.039063h-.164063v-.039062l.101563-.011719c.03125 0 .039062-.011719.039062-.039062-.140625 0-.207031 0-.210937-.023438-.957031.046875-1.4375.058594-1.441407.027344-.019531.003906-.042968.015625-.058593.027344l-.027344-.039063c.253906-.539063.402344-.8125.449219-.816406-.003906.035156-.015625.070312-.035156.101562v.015625h.042968c.101563-.238281.183594-.363281.257813-.371094.300781-.027343-.042969-.046874.601562-.140624.019531.011718.039063.015624.058594.015624.253906-.050781.605469-.101562 1.058594-.160156v-.039062l-.242188.023437v-.035156c.027344-.003906.050781-.011719.070313-.03125v.023437c.023437-.007812.039062-.015624.054687-.027343.035157-.007813.066407-.003907.097657.011719.066406-.019532.132812-.03125.199218-.042969l.152344-.011719c.035156-.023438.054688-.046875.050781-.066406v-.015625c-.042969.003906-.085937 0-.132812-.007813 0-.011718.003906-.019531.007812-.03125.007813-.007812.015625-.011718.027344-.011718l.28125-.027344.128906-.03125c0 .011718.007813.019531.015625.019531.023438-.003906.039063-.015625.058594-.027344h.019531c-.023437.050781-.042969.101563-.054687.152344h-.039063c0-.023437-.007812-.046875-.019531-.066406h-.019531c-.339844.949219-.492188 1.390625-.808594 2.117187-.054687.1875-.105469.292969-.144531.3125 0 .011719.003906.019532.007812.023438.007813.007812.019532.007812.027344.007812.007812.09375-.015625.191406-.066406.269532-.140625.421874-.238282.648437-.289063.691406l.03125.199218c0 .007813-.003906.019532-.007812.023438-.007813.007812-.015625.011719-.023438.011719h-.035156c0-.054688-.023437-.082031-.058594-.078125h-.019531c-.046875.074218-.082031.15625-.101562.242187h.035156c.039062-.019531.0625-.0625.0625-.105469h.066406l.039062.015626c-.023437.03125-.039062.074218-.042968.117187l.019531.03125-.046875.105469v.015625c.046875 0 .09375.011719.128906.039062.039063-.003906.074219-.019531.105469-.042969h.4375l.128906-.042968c.089844 0 .179688-.003906.269531-.011719h.054688l.03125-.019531v.015625c.085938-.011719.175781-.011719.265625.003906v.015625h-.078125v.035156c.023438-.003906.042969-.011718.0625-.027344.019531 0 .03125.011719.03125.035157-.035156.003906-.070312.011719-.105469.023437l-.03125-.011718c-.054687.015624-.042969.019531-.078125.019531l-.054687-.007813c0 .003906 0 .007813-.003907.011719 0 0-.003906.003906-.007812.003906-.003906.007813 0 .015625.007812.023438.007813.003906.015626.007812.023438.003906h.054688l.28125-.023437.109374-.023438c0 .007812 0 .011719.011719.011719l.054688-.019531.097656-.007813c.074219 0 .074219-.011719.238281-.039063 0-.007812 0-.011718.007813-.015624v.015624c.113281-.015624.222656-.035156.332031-.0625v.007813c.066406-.015625.027344-.011719.046875-.027344 0 .011719 0 .019531.011719.019531h.046875v-.035156h-.117188c-.035156.003906-.070312.007813-.109375.007813l-.238281.011719v-.015626l.140625-.019531h.046875l.027344-.019531v.015625c.191406-.015625.257812.03125 1.125-.152344.050781 0 .046875-.046875.074219-.125-.015626 0-.03125-.003906-.046876-.011719-.082031.019532-.164062.03125-.25.035157-.007812 0-.019531-.007813-.023437-.027344v-.015625h.140625c.050781-.003906.097656-.019531.140625-.046875 0 .011719-.027344.019531-.011719.015625zm-6.457031.109375h-.0625c.019531-.097656.054687-.191406.097656-.28125h.042969c-.011719.097656-.039062.191406-.078125.28125m.074219-.300781v-.015625c0-.019531.011718-.035157.042968-.042969v.019531c0 .023438-.011718.039063-.042968.039063m.820312.632812v.019532l-.105468.007812v-.015625zm-.125-.007812c0 .019531-.03125.042968-.097656.066406l-.125-.007812h-.042969v-.039063l.269531-.027344zm.832032-3.808594h-.054688v-.019531c0-.023438.011719-.035157.035156-.042969h.023438l.042968.015625c0 .011719 0 .023437-.007812.03125s-.019531.011719-.03125.011719zm.9375-.183594h.019531v.039063h-.054688c-.003906-.011719 0-.019531.007813-.027344.003906-.007813.015625-.015625.023437-.015625zm-.234376.082032-.09375-.007813v-.03125c.082032-.003906.160157-.019531.238282-.046875 0 .015625.011718.023438.035156.019531v.039063h-.035156c-.023438 0-.050782-.003906-.074219-.015625-.019531.015625-.046875.023437-.070313.027343zm.117188.339843v-.015625l.148438-.015625v.019531zm.160156-.128906v-.023437h.074219v.023437zm.015625-.257813h-.019531l.019531-.042968.164063-.015625v.023437c-.054688.003906-.109375.015625-.164063.03125zm.085938.359376v-.035157h.074219c.023437 0 .039062.011719.039062.035157l-.109375.007812zm.445312-.601563-.09375.023437h-.015625c-.058594.007813-.117187.007813-.171875 0 .121094-.007812.238281-.015624.28125-.023437zm-.101562.421875v.015625l-.128907.011719v-.019532zm.210937.097656c0-.011718-.023437-.023437-.074218-.027344l-.128907.035157h-.101562c-.023438-.015625-.035157-.027344-.035157-.035157h.113282l.261718-.042968h.132813v.023437c-.058594.003907-.113281.015625-.167969.035157zm1.335938-.34375h.03125c.042968-.042968.097656-.078125.15625-.105468-.03125.171874-.105469.332031-.222656.460937l-.074219-.046875c.042969-.097656.082031-.203125.109375-.308594zm-.226563.386719h.019531c-.023437.050781-.046874.074219-.066406.074219v-.050782c.019532 0 .035156-.007812.050782-.019531zm-.140625.347656c.011719-.085937.046875-.171875.101563-.242187v.003906c-.015625.128906-.046875.199219-.085938.207031v.082031c-.023437.027344-.039062.066407-.042969.105469h-.019531l-.007812-.113281c.019531 0 .035156-.023438.046875-.054688zm-.054687.1875c-.003907.050781-.019531.097657-.039063.140625h-.015625v-.046875c.023438-.058593.046875-.085937.058594-.085937zm-1.058594 3.0625v-.015625h.035156v.050782c-.019531 0-.03125-.011719-.039062-.03125zm1.511719.039063c0-.011719 0-.015625-.019532-.015625l-.085937.003906v-.015625l.199219-.015625v.015625c-.035156 0-.070313.007812-.105469.027344zm-.101563-.042969c.007813 0 0 .007813 0 .011719 0 0-.011719 0 0-.011719m.007813-.234375-.113282.007812v-.023437h.101563l.089844-.023437c0 .011718 0 .015624.015625.011718.105468-.015625.097656-.023437.140625-.027344.019531 0 .03125.011719.03125.03125l-.273438.023438zm.394531-.035156c-.035156-.007813-.074219-.011719-.109375-.007813v-.015625l.101562-.007812v.011718c-.011718 0 .027344 0 .007813.019532zm.007813-.019532v-.011718h.054687v.011718zm.125-.007812v-.015625c.011718-.003906.027343-.011719.039062-.019531.007812-.003906.019531 0 .027344.007812.011718.007813.015625.015625.015625.027344zm.152343-.019531v-.019531h.070313v.019531zm.09375-.007813c0-.019531 0-.03125.023438-.035156l.023437.027344s0-.003906.003906-.007813c0-.003906.003907-.003906.007813-.003906l.015625.027344zm-.984375.421875v-.035156h-.007812v.035156zm2.304688-.597656c.007812 0 .015625-.011719-.011719-.015625-.023437-.003906.011719.015625-.011719.015625v.011719l.011719-.007813-.011719.011719-.027344.035156.054688-.023437v-.03125zm.09375.074219h-.007813v.03125h.074219c0-.019532-.050781-.027344-.066406-.027344zm-.121094-.058594"/><path d="m12.65625 7.050781v.019531h.042969c0-.019531.003906-.039062.011719-.058593v-.039063c-.015626 0-.035157.027344-.050782.082032zm-.421875-1.003906v-.039063h-.0625v.039063zm-1.199219 2.25c-.089844-.15625-.199218-.296875-.328125-.421875 0-.046875.070313-.109375.222657-.199219l.4375-.363281c.117187-.179688.175781-.390625.175781-.605469v-.066406c-.019531-.191406-.160157-.347656-.421875-.46875-.160156-.105469-.441406-.164063-.84375-.175781-.457032.058594-.902344.183594-1.324219.363281-.164063.117187-.335937.222656-.511719.320313v.035156c.019532-.003906.035156-.011719.050782-.023438.007812-.003906.019531 0 .027343.003906.003907.007813.007813.015626.007813.023438l.035156-.015625h.015625v.015625c-.105469.105469-.226563.203125-.355469.28125l.019532.03125h-.015626l-.039062-.011719c0 .011719-.015625.019531-.050781.023438v.011719l.039062.046874c-.019531 0-.039062-.003906-.054687-.011718-.0625.007812-.121094.039062-.164063.089844l.023438-.097657c.074219-.300781.125-.605469.164062-.914062v-.015625c-.0625-.042969-.117187-.089844-.160156-.148438 0-.023437 0-.046875 0-.070312v-.011719h-.015625c-.171875.257813-.507812.699219-1 1.328125-.375.445312-.570312.691406-.582031.742188-.152344.160156-.226563.253906-.21875.28125-.039063.027343-.058594.050781-.050781.082031-.003907 0-.011719 0-.015626-.003907-.003906 0-.007812-.003906-.007812-.007812-.0625.105469-.171875.175781-.292969.203125l-.140625.03125c-.007812 0-.015625.003906-.019531.011719-.007813.007812-.007813.015625-.003906.027344v.015624l.046875-.011718v.015625l-.113282.042969-.203124.050781h-.109376c-.015624.011719.085938 0 .046876.007812l-.140626.03125c-.082031.015625-.125.007813-.140624-.023437h-.015626c.003907.011718.003907.023437 0 .035156l-.007812-.03125-.105469.023438c-.007812-.050782-.152343-.230469-.433593-.542969 0-.058594.09375-.148438.296874-.261719l.585938-.496094c.128906-.164062.203125-.429687.230469-.792968l-.007813-.085938c-.023437-.257812-.210937-.464844-.5625-.625-.207031-.140625-.582031-.214844-1.117187-.226562-.597657.078124-1.183594.238281-1.738281.472656-.214844.15625-.441407.296875-.671876.421875v.046875c.023438-.003906.046876-.015625.066407-.027344.011719-.003906.023437 0 .03125.007812.011719.003907.015625.015626.015625.027344l.046875-.023437h.019531v.019531c-.140625.140625-.296875.261719-.46875.367188l.027344.039062h-.019532l-.050781-.015625c0 .011719-.019531.019531-.066406.023437v.023438l.050781.058594c-.023437 0-.046875-.003906-.070312-.011719-.125.023437-.234375.105469-.296875.21875l.023437.039063c.042969-.046876.09375-.085938.152344-.117188v.066406c-.023438.003906-.046875.011719-.070312.023438l.054687.082031c.101563-.105469.21875-.199219.34375-.28125.058594.015625.09375.035156.09375.058594h.046875c.304688-.234375.644531-.417969 1.003906-.542969v.042969c-.058594.09375-.101562.140625-.125.140625.003906.03125.015625.058594.035156.082031.003907.058594-.144531.4375-.453124 1.140625-.683594 1.625-1.261719 2.832031-1.738282 3.613281.003906.023438.015625.042969.027344.0625.078125-.011719.15625-.042969.222656-.082031h.023438v.042969h.042968l.046876-.023438c0 .011719.015624.019531.046874.015625v.042969c-.007812.074219-.03125.140625-.074218.203125-.070313.101562-.121094.214844-.152344.335938v.019531h.042969c.171875-.183594.316406-.394531.433593-.617188.433594-.117187.859376-.277343 1.265626-.476562.238281-.007813.472656-.085938.664062-.230469v-.023438l-.109375.03125h-.023437v-.023437c.15625-.011719.308593-.058594.445312-.140625.417969-.320312.734375-.550781.945312-.683594.441407-.324218.726563-.636718.855469-.941406l.074219-.019531c.035156.003906.070312.003906.105469 0 0-.007813 0-.015625.015625-.019531.097656-.011719.050781 0 .113281-.007813l.160156-.0625h.027344l-.011719.007813c.019532.003906.039063.003906.058594 0l.011719.046874-.746094 1.191407-.164063.207031-.082031.273438h.015625l.078125-.035157-.023437.105469.007812.03125.023438.027344c-.011719 0-.015625.011718-.011719.023437v.015625l.03125-.007812c.050781-.042969.070313-.082032.066406-.117188.03125.007813.070313.011719.105469.007813v.015625c-.03125.007812-.050781.035156-.050781.078125v.015625h.015625c.273437-.296875.941406-1.3125 1.476562-2.003906-.015625-.074219.265625-.179688.84375-.3125h.019532c.019531.09375-.027344.3125-.140626.65625-.042968.109374-.074218.222656-.089843.335937-.058594.148437-.101563.296875-.132813.453125l-.203125.671875c-.136719.351563-.238281.714844-.304687 1.085937.019531-.003906.039062-.003906.054687 0l.03125-.027343c0 .003906.003907.007812.007813.011719.003906.003906.011718.003906.015625 0l-.011719-.046876h.089844c.023437 0 .046875-.039062.066406-.097656 0-.09375.011719-.140625.054688-.152344.019531-.109374.054687-.21875.101562-.324218.019531-.128906.058594-.25.113281-.367188.078125-.28125.140625-.421875.171875-.429687l.007813.035156-.058594.140625c-.070313.351562-.171875.699219-.296875 1.035156l.03125.125h.015625c.246094-.523437.59375-1.5625 1.054687-3.113281.007813-.128906.082032-.25.195313-.316406l-.027344-.027344v-.015625c.042969-.003906.082031-.027344.109375-.0625 0-.007812-.046875-.027344-.140625-.050781l.226563-.984375c.027344-.027344.054687-.050782.085937-.066406v.046874c-.015625.003907-.035156.011719-.050781.023438l.046875.0625c.078125-.082031.164063-.15625.257813-.222656.046874.015625.070312.03125.074218.046875h.03125c.230469-.175781.488282-.3125.761719-.40625v.03125c-.046875.070312-.078125.105469-.09375.105469 0 .023437.007813.042968.019531.0625-.089844.296874-.203125.585937-.335937.867187-.382813.945313-.824219 1.863281-1.324219 2.75.003906.015625.011719.035156.023438.046875.058593-.007812.113281-.03125.164062-.0625h.015625v.03125h.035156l.035157-.015625c0 .007813.011718.011719.035156.011719v.035156c-.007813.050781-.027344.105469-.058594.148438-.054688.074218-.09375.164062-.117188.253906v.019531h.03125c.132813-.144531.242188-.300781.328126-.472656.332031-.089844.652343-.214844.960937-.367188.183594-.003906.359375-.066406.507813-.175781v-.015625l-.085938.023437h-.015625v-.015624c.121094-.007813.238281-.046876.339844-.109376.316406-.242187.5625-.421874.71875-.519531.503906-.363281.738281-.71875.710937-1.066406m-.085937.023437.011719.132813c-.015626.03125-.03125.046875-.046876.050781l-.019531-.226562c.035157.011718.054688.027344.054688.042968m-9.921875-1.0625h-.023438v-.039062l.089844-.007812v.019531c-.023438.003906-.042969.015625-.0625.027343zm-.441406 4.414063c-.042969-.023437-.089844-.03125-.140626-.03125v-.0625c0-.027344.011719-.042969.042969-.046875.035157-.007812.046875.015625.050781.058594.035157-.050782.078126-.097656.125-.140625l.046876.019531c-.015626.132812-.058594.199219-.121094.203125zm4.71875-4.9375c-.023438 0-.066407-.066406-.132813-.203125v-.039062c.042969 0 .085937.0625.132813.203124zm-.0625-.488281-.019532.042968-.640625-.265624c.425781.011718.648438.089843.660157.222656m-2.710938 2.332031-.089844.007813v-.039063l.089844-.007813zm-.074219-1.394531h.023438v.0625c-.019531 0-.046875.035156-.082031.09375v-.042969c.039062-.050781.0625-.085937.058593-.113281zm-.1875.449218.007813.085938h-.023438l-.003906-.089844zm-.101562.160157h.042969c0 .070312-.023438.105469-.058594.109375h-.023438c.023438-.03125.039063-.070313.039063-.109375zm-.070313.222656h.027344v.019531l-.042969.070313h-.042969v-.023438c.019532.003907.035157-.003906.046876-.019531.011718-.011719.015624-.03125.011718-.046875zm-.074218.199219-.011719.109375h-.023438l-.007812-.105469h.042969zm-.734376 2.085937c-.027343.140625-.058593.222657-.09375.222657v-.019532c-.003906-.078125.03125-.15625.09375-.203125zm-.140624.292969v.019531c.003906.011719 0 .027344-.007813.035157-.007813.007812-.019531.015624-.03125.015624v-.023437c0-.023437.011719-.039063.039063-.046875m-.039063.605469h.066406v.023437c-.023437.003906-.046875.015625-.066406.027344h-.042969c0-.023438.011719-.039062.039063-.046875zm1.9375-.597657c-.234375.101563-.460937.230469-.671875.382813-.410156.144531-.613281.234375-.609375.265625-.25.09375-.492187.203125-.726563.324219-.042968 0-.082031-.011719-.121093-.03125-.003907-.074219.035156-.148438.101562-.183594.0625-.003906.125.007813.183594.03125.113281-.050781.234375-.089844.355469-.117187v-.042969l-.140625.007812c.125-.074219.253906-.136719.394531-.183593h.066406v.023437c-.117187.007813-.179687.042969-.195312.105469 0 .027344.019531.039062.046875.035156.085937-.054688.132812-.085938.128906-.097656.167969-.03125.625-.269532 1.378906-.71875v.039062c0 .019532-.0625.074219-.191406.167969zm-1.152344.378907c.105469-.007813.203125-.054688.28125-.132813.027344 0 .046875.011719.046875.039063-.109375.027343-.214844.074219-.308594.140625h-.019531zm1.871094-1.433594-.578125.460937c-.222656.15625-.453125.296876-.695312.421876-.683594.375-1.109376.570312-1.277344.585937h-.023438c.019532-.078125.324219-.703125.914063-1.871094.421875-.070312.832031-.191406 1.222656-.363281l.140625-.011719c.226562-.039062.457031.019531.632812.160157l.007813.085937c-.101563.300781-.21875.476563-.34375.527344zm-1.125-.632813.089844-.007812v.019531l-.089844.007813zm1.296875-.222656h.066406c.0625.03125.097656.058594.097656.082032v.019531c-.066406 0-.132812-.039063-.164062-.101563m.183594-1.050781c-.148438.140625-.316406.265625-.496094.367187-.085938.007813-.421875.140626-.992188.390626-.027343-.015626-.058593-.019532-.089843-.015626v-.042968c0-.113282.039062-.222656.109375-.3125.042968-.234375.09375-.371094.140625-.402344l.476562-1.074219c-.003906-.070312.097657-.121093.308594-.15625h.066406v.0625c.207031-.03125.335938-.046875.382813-.054687.382812-.03125.578125.046875.59375.230468h.042968l-.007812-.109374h.046875c.09375.039062.164063.125.179687.226562-.003906.082031-.039062.160156-.097656.222656-.027344 0-.042968-.019531-.046875-.0625h-.046875l-.011718.132813c-.191407.289062-.332032.433593-.421876.445312-.078124.105469-.125.160157-.140624.160157zm.292968.753906c-.023437-.023437-.058593-.035156-.09375-.039062v-.0625h.042969l.097657.054687c.003906.011719 0 .027344-.007813.035156-.007813.007813-.019531.015626-.03125.015626zm.304688.359375c.042969.015625.066406.035156.074219.050782h-.035157l-.03125.027343-.007812-.089843zm.027344.179688v-.015625l.054687-.011719v.015625zm.132812.148437c.058594-.007812.085938-.011719.1875-.035156v.015625l-.199218.046875c0-.007813 0-.015625 0-.027344zm.195313.082031c-.066407.003907-.136719.011719-.199219.03125v-.019531l.167969-.050781.078125-.019531.007812.03125c-.035156.007812-.007812.007812-.050781.027343zm.175781-.039062c-.007812 0-.019531 0-.027344-.003906-.007812-.007813-.015625-.015625-.015625-.023438l.050781-.011718c.007813-.003907.019532-.003907.027344.003906.007813.003906.011719.011718.011719.023437zm.480469-.515625v-.019531l.082031-.019532.007812.03125h-.085937zm.511719 3.140625c.003906-.019531.003906-.035156 0-.054688h.019531c.007812 0 .015625 0 .023437.003907.011719.003906.015625.011719.015625.023437v.015625l-.066406.015625zm.367187-3.007812h-.035156c-.050781.019531-.101563.035156-.152344.046874l-.03125.011719c-.007813 0-.019531 0-.027344-.003906-.007812-.003906-.015625-.011719-.015625-.023437l.234375-.054688.078125-.035156.027344.027344c-.027344.003906-.058594.015624-.082031.035156zm.183594-.058594v-.019532c.019531-.003906.035156-.015624.046875-.027343l.167968-.039063v.015625c-.074218.015625-.144531.039063-.214843.066407zm.027343-.347656c-.019531.007812-.035156.019531-.046874.03125 0-.011719-.027344-.011719-.070313 0-.007813-.03125.117187-.078126.378906-.140626l.035157-.007812.007812.03125c-.183594.050781-.28125.082031-.304688.085938zm.457032-.492188c-.015625.207031-.089844.324219-.21875.355469v-.019531l-.117188.046874-.050781.011719c-.023437.007813-.046875.007813-.070313 0l-.007812-.046875c.152344-.242187.320312-.472656.5-.691406h.039062c.003907.117188-.019531.230469-.066406.335938zm.8125-.695312h-.015625v-.03125h.066406v.015624c-.015625.003907-.03125.011719-.050781.019532zm-.335938 3.355468c-.035156-.019531-.070312-.027344-.105468-.023437v-.050781c0-.015626.007812-.027344.03125-.035157.019531 0 .035156.011719.035156.046875.027344-.039062.058594-.074218.09375-.105468l.035156.011718c-.011719.101563-.042969.152344-.089844.15625zm3.582032-3.753906c-.019532 0-.050782-.050781-.101563-.15625v-.035156c.03125 0 .066406.050781.101563.15625zm-.050782-.375-.015625.035156-.484375-.203125c.324219.011719.492188.066407.5.167969m-2.054687 1.769531h-.066407v-.03125h.066407zm-.054688-1.058593h.019531v.050781c-.019531 0-.039062.023437-.066406.070312v-.035156c.027344-.023437.039063-.050781.046875-.085937zm-.140625.339843v.066407h-.019531v-.066407zm-.078125.121094h.035157c0 .058594-.015626.085937-.042969.085937h-.019531c.015624-.023437.027343-.054687.027343-.085937m-.054687.167969h.015625v.019531l-.027344.050781h-.035156v-.015625c.035156 0 .050781-.019531.046875-.054687m-.058594.160156-.007812.085938h-.019532v-.085938h.035156zm-.5625 1.589844c-.019531.109375-.042969.164062-.070312.167968v-.015624c0-.058594.027343-.117188.074218-.152344zm-.101562.21875v.015625c0 .007812 0 .019531-.007813.027343-.003906.007813-.015625.011719-.023437.011719v-.019531c0-.015625.007812-.027344.03125-.035156m-.023438.457031h.050781v.015625c-.015625.003906-.035156.011719-.050781.019531h-.03125c0-.015625.007812-.027343.03125-.035156zm1.472656-.453125c-.183594.078125-.351562.175781-.515625.289062-.3125.109376-.46875.179688-.46875.203126-.1875.070312-.371093.152343-.546875.242187-.03125 0-.0625-.007813-.089844-.023437-.007812-.058594.023438-.113282.074219-.140626.050781-.003906.097657.003907.140625.019532.089844-.035156.179688-.066406.273438-.085938v-.03125l-.105469.007813c.09375-.058594.195313-.105469.300781-.140625h.050782v.015625c-.089844.007812-.140626.03125-.148438.082031 0 .007812.003906.015625.011719.023438.007812.003906.015625.007812.023437.003906.066406-.042969.097656-.066406.097656-.074219.125-.023437.476563-.207031 1.046876-.550781v.035156c0 .011719-.046876.054688-.140626.125zm-.878906.28125c.082031-.007812.160156-.042969.21875-.101562.019531 0 .035156.011718.035156.03125-.082031.019531-.160156.054687-.234375.101562h-.015625v-.03125zm1.417969-1.089844-.4375.351563c-.167969.125-.347657.234375-.53125.332031-.519531.28125-.84375.429688-.96875.445312h-.019531c.015624-.058593.25-.535156.695312-1.421874.320312-.054688.632812-.148438.929688-.28125l.105468-.007813c.171875-.03125.34375.015625.480469.125v.066406c-.074219.230469-.15625.355469-.257813.394531zm-.855469-.480468h.066406v.015624h-.066406zm.988281-.171876h.054688c.046875.023438.070312.046876.074219.0625v.015626c-.054688 0-.101563-.027344-.128907-.074219zm.140625-.796874c-.113281.109374-.238281.203124-.371094.28125-.261718.082031-.515624.183593-.761718.304687-.019532-.007813-.042969-.011719-.066406-.011719v-.03125c0-.085937.027343-.167968.078124-.238281.03125-.179687.070313-.28125.109376-.304687l.367187-.820313c0-.046875.074219-.085937.230469-.117187h.050781v.046874c.15625-.023437.253906-.039062.292969-.042968.28125-.023438.4375.03125.453125.175781h.03125v-.078125h.035156c.074219.023438.125.089844.140625.164062-.003906.0625-.027344.125-.070312.171876-.023438 0-.035157-.011719-.039063-.046876h-.03125l-.011719.097657c-.15625.214843-.261718.332031-.332031.332031-.058594.082031-.09375.121094-.113281.121094zm.15625.546874v-.050781h.03125l.074219.046875c0 .007813 0 .015625-.007813.023438-.003906.007812-.015624.011718-.023437.011718-.019531-.015624-.046875-.027343-.070313-.027343zm-6.105468 3.1875-.035157.007813-.027343.027344c0 .007812.003906.015625.011718.019531.007813.007812.019532.007812.027344.003906.023438 0 .03125-.019531.027344-.039062v-.019532zm-.132813-.257812v.015625c.023437 0 .03125-.019531.027344-.039063v-.015624c-.011719 0-.019531.003906-.023438.011718-.003906.007813-.007812.019532-.003906.027344m.929687-1.742188.023438-.015624h-.011719c-.007812 0-.011719.007812-.011719.015624zm0-.453124.039063-.007813-.007813-.035156-.042968.011719zm9.257813 1.324218-.085937-.011718-.015626.035156v.015625l.527344-.042969v-.03125l-.421875.035156zm.484375-.039062v.03125zm2.222656-.292969v.03125l.058594.011719v-.03125zm-.082031 0c-.171875.046875-.351563.074219-.53125.082031v.03125h.058594l.042969-.019531c.394531-.042969.4375-.027344.433593-.070313v-.023437zm-2.390625-.578125-.035156-.011719c-.019532.042969-.03125.089844-.039063.140625v.011719c.027344 0 .050781-.046875.074219-.140625zm-.476562-.261719v-.003906h-.019532l-.03125.019531.015625.03125c.027344 0 .039063-.011718.035157-.035156zm1.039062 1.078125v-.03125h-.015625v.03125zm2.164062-.488281h.023438c.015625 0 .023438-.011719.019531-.03125l-.011719-.03125c-.074218 0-.144531.015625-.207031.050781v-.015625l-.109375.007813c0-.03125-.011718-.046875-.027344-.046875h-.054687c-.066406 0-.097656 0-.128906.027343 0-.011718 0-.015624-.011719-.015624h-.0625l-.039062.019531c0-.011719 0-.015625-.007813-.015625l-.023437.019531h-.109376v.03125l.046876.011719h.039062c.015625.007812.03125.011718.050781.011718l.035157-.019531v.015625c-.113282.027344-.230469.050782-.347657.066406-.007812-.011718-.019531-.015624-.035156-.015624-.003906 0-.011719-.003907-.019531-.007813-.003906-.007813-.003906-.015625-.003906-.023437l.070312-.007813c.015625.003906.035156.007813.050781.011719.058594-.027344.0625-.039063.09375-.042969v-.03125c-.125.019531-.25.03125-.375.035156h-.011719v-.035156c.324219-.039063.21875-.015625.328126-.046875 0 .011719 0 .015625.011718.015625.011719-.011719.027344-.019531.042969-.019531h.023437c.128907.003906.253907-.015625.378907-.050782v.015626l.035156-.019532h.035156c0-.03125.046875-.039062.0625-.039062v-.035156c-.394531.078124-.5.058593-.609375.089843v-.015625c-.046875.011719-.09375.015625-.140625.011719-.011719.003906-.023437.011719-.03125.019531 0-.011718 0-.015625-.011719-.015625l-.335937.054688c0-.011719 0-.015625-.015625-.011719-.117188.035156-.234375.054688-.359375.0625-.015625.003906-.027344.011719-.042969.019531 0-.011719 0-.015625-.019531-.011719l-.140625.011719-.09375.023438c0-.011719 0-.015625-.019531-.011719-.042969.011719-.089844.019531-.140625.023438-.023438 0 .011718 0 0-.011719l-.027344.015625h-.164062c-.253907.03125-.226563.035156-.253907.035156h-.09375c0 .003906 0 .011719-.003906.011719 0 .003906-.003906.007812-.011719.003906-.105468-.011719-.160156-.03125-.160156-.050781.011719-.101563.039062-.152344.074219-.15625h.015625l-.011719.035156h.015625c.035156-.019531.050781-.035156.046875-.050781v-.035157h-.03125v-.03125c-.003906-.023437 0-.046874.007813-.066406l.078124-.125v.03125h.035157v-.03125l-.019531-.03125c.019531-.019531.042968-.03125.066406-.039062v-.015625h-.050782v-.050781c.066407-.113282.113282-.234376.140626-.359376l.035156.011719c.023437 0 .035156-.011719.03125-.035156h-.03125v-.015625c-.003906-.023438 0-.046875.011718-.070312.046876-.042969.074219-.105469.074219-.167969.007813 0 .015625 0 .015625.015625.046875-.027344.082032-.097656.105469-.210938.136719-.285156.253906-.578125.347656-.878906.289063-.777344.28125-.859375.316407-1.042969h-.03125c0 .023438-.003907.046875-.015626.066407-.015624-.007813-.035156-.011719-.054687-.011719v-.015625c.003906-.085938.03125-.171875.085937-.238282h.015626l.03125.109376h.03125c.007812-.046876.015624-.09375.027343-.140626 0-.015624-.011719-.027343-.039062-.027343l-.03125.019531v-.183594h-.019531c-.023438-.015625-.039063-.042968-.042969-.070312l-.1875.019531c-.003907-.019531-.011719-.039063-.023438-.058594 0-.015625.042969-.035156.128907-.050781l.039062.015625.035156-.023437c0 .011718.007813.019531.019532.015624l.035156-.019531c0 .011719.007812.015625.019531.015625h.019531v-.039062h-.207031l-.035156.023437v-.019531c-.878907.070312-1.378907.113281-1.496094.125h-.1875c0 .011719-.011719.023438-.039063.023438l-.035156-.015626-.128906.03125c-.050781.003907-.101562.003907-.152344 0-.019531.015626-.046875.027344-.070312.027344l.375-.023437c-.027344.019531-.058594.03125-.09375.03125-.023438.003906-.050782 0-.074219-.011719-.089844.027344-.183594.050781-.28125.066406l-.035156-.015625-.613281.09375c-.027344-.011719-.054688-.015625-.085938-.011719-.054688.007813-.109375.019532-.160156.035157l-.296875.125.023437.035156c.019532-.003906.039063-.011719.058594-.023437l.105469.007812-.011719.101562c-.09375.015626-.167969.078126-.199219.164063-.140625.066406-.21875.109375-.21875.140625v.015625h.023438l.039062-.019531.046875.054687v.074219c0 .023438-.246094.539062-.734375 1.546875-.421875.972656-.648437 1.503906-.667969 1.597656-.140624.039063-.230468.101563-.253906.179688 0 .023437.046875.042969.128906.046875v.039062l-.039062.0625v.074219c0 .039063.105469.070313.320312.089844 0-.011719 0-.019531.019532-.019531-.003906.09375-.015625.1875-.039063.28125h.019531c.066407-.070313.109376-.152344.125-.246094h.019532c.019531 0 .042968.023437.066406.074218-.023438.011719-.117188.21875-.28125.625l.023438.039063h.023437c.191406-.488281.3125-.757813.363281-.808594.253906-.023437.6875-.070312 1.3125-.140625l.039063-.027344c0 .007813 0 .011719.007812.015626.003907.003906.007813.007812.015625.003906h.039063l.039062-.023438c0 .007813.003907.011719.007813.015625.003906.003907.011718.003907.015625.003907l.488281-.058594c.125-.007813.183594-.046875.179688-.109375 0-.019531.070312-.039063.21875-.058594.023437 0 .042968.003906.066406.011719 0-.011719.074218-.023438.222656-.039063 0-.078125.027344-.121093.070312-.125v-.035156c-.046874.003906-.09375.015625-.140624.03125-.0625 0-.125-.007813-.183594-.023437-.019532.011718-.039063.019531-.0625.023437l-.328125.011719-.039063.019531c0-.011719-.007812-.015625-.023437-.015625h-.019531l-.042969.023438c0-.011719-.035157-.023438-.101563-.03125l-.042968.023437h-.082032v-.011719c.421875-.046875.628906-.101562.625-.171875.011719 0 .023438 0 .03125.007813.007813.007812.015625.019531.015625.03125l.121094-.03125v-.039063l-1.007813.03125c0 .011719 0 .019531-.019531.019531l-.125-.007812c-.027343 0-.054687.011719-.078125.027344l-.046875-.015625c-.09375.003906-.191406.019531-.28125.046875-.09375-.007813-.1875-.007813-.28125 0l-.226562.019531-.121094-.015625c0-.066406.125-.394531.394531-.984375.039063-.140625.113282-.269531.214844-.371094.023438 0 .046875.003907.066406.015625l.160156-.054687.082032.011719c.167968-.019532.332031-.058594.488281-.117188.035156-.007812.070313-.003906.105469.007812l.121094-.03125.363281-.023437c.175781-.015625.34375-.050781.511719-.105469v-.035156c-.070313 0-.105469 0-.105469-.035156 0-.050782-.054688-.070313-.152344-.0625v-.039063l.101563-.027343.265624-.023438v-.039062h-.164062v-.039063l.105469-.011719c.027343 0 .039062-.015625.035156-.042968-.140625 0-.207031 0-.207031-.019532-.960938.046875-1.441406.054688-1.445313.027344-.019531.003906-.042969.011719-.058593.027344l-.027344-.042969c.253906-.539063.402344-.808594.449218-.8125-.003906.035156-.015624.070313-.03125.101563v.015624h.039063c.101563-.242187.1875-.367187.257813-.371093.300781-.027344-.042969-.046875.605468-.140625.015625.007812.035156.015625.054688.015625.253906-.050781.605468-.105469 1.058594-.160157v-.039062l-.238282.023438v-.039063c.023438 0 .050782-.011719.070313-.027344v.019531c.019531-.003906.039062-.011718.054687-.027343.03125-.003907.066406 0 .09375.011719.066406-.015626.136719-.03125.203125-.039063l.152344-.015625c.035156-.023438.050781-.042969.050781-.0625v-.019531c-.042968.003906-.089844.003906-.132812-.007813 0-.007812.003906-.019531.007812-.027344.007813-.007812.015625-.011718.027344-.015624l.28125-.023438.128906-.035156c0 .015625.007813.019531.015625.019531.019531-.003906.039063-.011719.054688-.023437h.023437c-.023437.046874-.042968.097656-.058594.152343h-.035156c0-.023437-.007812-.046875-.019531-.066406h-.019531c-.339844.949219-.492188 1.390625-.808594 2.117187-.054688.1875-.105469.289063-.148438.3125 0 .007813.003907.019532.011719.023438.007813.007812.019531.007812.027344.007812.007813.09375-.015625.1875-.066406.269532-.140625.421875-.242188.648437-.292969.691406l.015625.1875c0 .007812 0 .019531-.007813.023438-.003906.007812-.015624.011718-.023437.011718h-.035156c0-.054687-.023438-.082031-.058594-.078125h-.019531c-.046875.074219-.082032.15625-.101563.242188h.035157c.039062-.019531.066406-.058594.0625-.105469h.066406l.042968.015625c-.027343.035156-.042968.074219-.046874.117187l.019531.03125-.042969.105469v.019531c.042969-.003906.089844.007813.125.035157.039062-.003907.074219-.019531.105469-.042969h.4375l.128906-.042969c.101563.003907.207031 0 .3125-.011719h.054687l.03125-.019531v.019531c.085938-.011718.171876-.007812.257813.007813v.019531h-.078125v.03125c.023438-.003906.042969-.011718.0625-.023437.019531 0 .03125.007812.03125.03125-.035156.003906-.070312.011719-.105469.023437l-.035156-.011718c-.050781.015624-.039063.019531-.078125.023437l-.050781-.011719c0 .003906 0 .007813-.003907.011719-.003906.003906-.007812.003906-.011718.003906 0 .007813.003906.015625.011718.023438.003907.003906.015626.007812.023438.007812h.054688l.28125-.027343.105468-.023438c0 .011719 0 .015625.015625.011719l.050781-.019531.101563-.007813c.074219 0 .074219-.011719.238281-.039063 0-.007812 0-.011718.011719-.015624v.015624c.113281-.015624.226563-.039062.335937-.070312v.007812c.070313-.015624.03125-.011718.050782-.023437 0 .011719 0 .015625.011718.015625h.046876v-.035156h-.117188c-.035156.007812-.074219.007812-.109375.007812l-.238281.011719v-.015625l.140625-.019531h.046875l.027344-.019531v.019531c.1875-.015625.257812.03125 1.125-.15625.046874 0 .042968-.042969.074218-.125-.015625 0-.03125-.003907-.046875-.007813-.082031.019532-.164062.03125-.25.035156-.011719 0-.019531-.011718-.023437-.03125v-.011718h.140625c.046875-.007813.097656-.023438.140625-.050782 0 .011719-.03125.019532-.011719.019532zm-6.453124.109375h-.0625c.019531-.097656.054687-.191406.097656-.28125h.042968c-.015624.097656-.039062.191406-.078124.28125m.074218-.296875v-.019531c0-.019532.011719-.035156.039063-.039063v.015625c0 .023438-.007813.039063-.039063.042969m.824219.632813v.019531l-.101563.007812v-.015625zm-.125-.007813c0 .019531-.027344.042969-.097656.066406l-.125-.007812h-.039063v-.039063l.265625-.027344zm.828125-3.8125h-.0625v-.019531c0-.023438.011719-.035156.039062-.042969h.019532l.042968.015625c.003907.011719 0 .023438-.007812.03125s-.019531.011719-.03125.011719zm.9375-.183594h.019531v.039063h-.058593c0-.011719.003906-.019532.007812-.027344.007812-.007812.015625-.015625.027344-.015625zm-.234375.082031-.09375-.011718v-.015625c.082031-.003907.160156-.019531.234375-.042969 0 .015625.015625.019531.039062.015625v.039063h-.039062c-.023438.003906-.050781 0-.074219-.011719-.019531.015625-.042969.023437-.070312.027343zm.117187.339844v-.019531l.148438-.011719v.015625zm.15625-.128906v-.019531h.074219v.019531zm.015626-.257812h-.019532l.015625-.039063.167969-.015625v.019531c-.054688.007813-.109375.019531-.164062.035157zm.085937.363281v-.039063h.074219c.023437 0 .039062.011719.039062.035156l-.109375.007813zm.445313-.605469-.09375.027344h-.023438c-.054688.003906-.113281.003906-.171875 0 .125-.007813.242187-.019532.28125-.023438zm-.101563.421875v.015625l-.128906.011719v-.015625zm.210937.101563c0-.015626-.027343-.027344-.074218-.03125l-.132813.035156h-.097656c-.023437-.015625-.035156-.027344-.035156-.03125h.113281l.261719-.042969h.128906v.019531c-.054687.003906-.109375.015625-.164063.035156zm1.335938-.34375h.03125c.042969-.046876.097656-.082032.152344-.105469-.027344.167969-.101563.328125-.21875.457031l-.074219-.042969c.042969-.101562.082031-.207031.109375-.3125zm-.226562.386718h.019531c-.023438.046875-.046875.070313-.066407.070313v-.046875c.019532-.003906.035157-.011719.050782-.023438zm-.140626.34375c.011719-.085937.046876-.171875.101563-.238281v.015625c-.015625.128906-.046875.199219-.085937.203125v.085937c-.023438.027344-.039063.066407-.042969.105469h-.019531l-.007813-.113281c.019531 0 .035156-.023438.046875-.058594zm-.054687.191406c-.003906.046876-.019531.09375-.039063.140626h-.015624v-.050782c.023437-.058594.042968-.085937.058593-.085937zm-1.058594 3.066407v-.011719h.035157v.046875c-.019532 0-.03125-.007813-.035157-.03125zm1.511719.039062c0-.011719 0-.015625-.019531-.015625l-.085938.011719v-.019531h.007813l.191406-.027344v.015625c-.035156 0-.074219.007813-.105469.027344zm-.101562-.039062c.007812 0 0 .007812 0 .007812s-.011719 0 0-.007812m.007812-.238281-.109375.011718v-.023437l.101563-.011719.089843-.019531c0 .007812 0 .011719.015625.011719.105469-.019532.097656-.023438.140625-.027344.019531 0 .03125.007812.03125.027344l-.273437.023437zm.394531-.035157c-.035156-.003906-.074219-.007812-.109375-.007812v-.011719l.101563-.011719v.011719c-.011719 0 .027343 0 .007812.015625zm.007813-.015625v-.015625h.054687v.015625zm.125-.011718v-.011719c.011718-.003907.027344-.011719.039062-.023438.011719 0 .019532.003907.03125.007813.007813.007812.011719.019531.011719.03125zm.15625-.019532v-.015625h.066406v.015625zm.089844-.007812c0-.019532 0-.03125.027343-.035156l.019531.03125c0-.003907 0-.007813.003907-.011719 0 0 .003906-.003907.007812-.003907l.015625.03125zm1.316406-.167969c.007812 0 .015625-.011719-.011719-.019531-.023437-.003906.011719.019531-.011719.019531v.011719l.015625-.007813-.015625.007813-.027344.035156.054688-.019531v-.03125zm.09375.074219h-.007813v.03125h.074219c0-.019532-.050781-.027344-.066406-.027344zm0 0" fill="#f9dc3e"/></svg>