<svg height="18" viewBox="0 0 18 18" width="18" xmlns="http://www.w3.org/2000/svg"><g fill="none" stroke="#fff" stroke-linecap="round" stroke-linejoin="round" stroke-width="2" transform="scale(.75)"><path d="m9 12h.010417m5.989583 0h.010417m-5.010417 4c.5.302083 1.197917.5 2 .5s1.5-.197917 2-.5"/><path d="m19 6.302083c.90625 1.135417 1.526042 2.473959 1.802083 3.895834.6875.338541 1.125 1.036458 1.125 1.802083s-.4375 1.463542-1.125 1.802083c-.890625 4.145834-4.557291 7.109375-8.802083 7.109375s-7.911458-2.963541-8.802083-7.109375c-.6875-.338541-1.125-1.036458-1.125-1.802083s.4375-1.463542 1.125-1.802083c.854166-4.182292 4.53125-7.1875 8.802083-7.197917 2 0 3.5 1.098958 3.5 2.5s-.901042 2.5-2 2.5c-.802083 0-1.5-.401042-1.5-1"/></g></svg>