<svg height="18" viewBox="0 0 18 18" width="18" xmlns="http://www.w3.org/2000/svg"><path d="m4.089844 0c-.027344 0-.050782.0117188-.066406.0273438-.019532.0195312-.03125.0429687-.027344.0664062v5c0 .039062.023437.074219.058594.089844l4.1875 1.601562c.027343.007813.0625.003906.085937-.011718.027344-.019532.042969-.046876.042969-.078126v-6.601562c0-.0507812-.042969-.09375-.097656-.09375zm5.636718 0c-.054687 0-.097656.0429688-.097656.09375v6.601562c0 .03125.015625.058594.042969.078126.023437.015624.058594.019531.085937.011718l4.1875-1.601562c.035157-.015625.058594-.050782.058594-.089844v-5c.003906-.0234375-.007812-.046875-.027344-.0664062-.015624-.015625-.039062-.0273438-.066406-.0273438zm-5.542968.191406h3.996094v6.363282l-3.996094-1.527344zm5.636718 0h3.996094v4.835938l-3.996094 1.527344zm-5.695312 6.378906c-.03125-.011718-.0625-.007812-.089844.007813-.027344.019531-.042968.050781-.042968.082031v2.191406c0 .03125.015624.058594.042968.078126.027344.015624.058594.019531.089844.007812l2.863281-1.09375c.035157-.015625.0625-.050781.0625-.089844 0-.039062-.027343-.074218-.0625-.089844zm9.75 0-2.863281 1.09375c-.035157.015626-.0625.050782-.0625.089844 0 .039063.027343.074219.0625.089844l2.863281 1.09375c.03125.011719.0625.007812.089844-.007812.027344-.019532.042968-.046876.042968-.078126v-2.191406c0-.03125-.015624-.0625-.042968-.078125-.027344-.019531-.058594-.023437-.089844-.011719m-9.691406.226563 2.503906.957031-2.503906.957032zm9.632812 0v1.914063l-2.503906-.957032zm-5.574218 1.929687-4.1875 1.597657c-.035157.015625-.058594.050781-.058594.089843v7.492188c0 .050781.039062.09375.09375.09375h2.148437c.042969 0 .082031-.027344.09375-.066406l2.035157-6.671875c0-.007813.003906-.015625.003906-.027344v-2.421875c0-.03125-.015625-.058594-.042969-.078125-.023437-.015625-.058594-.019531-.085937-.007813m1.515624 0c-.027343-.011718-.0625-.007812-.085937.007813-.027344.019531-.042969.046875-.042969.078125v2.421875c0 .011719.003906.019531.003906.027344l2.035157 6.671875c.011719.039062.050781.066406.09375.066406h2.148437c.054688 0 .097656-.042969.097656-.09375v-7.492188c0-.039062-.027343-.074218-.0625-.089843zm-1.578124.226563v2.265625l-2.011719 6.589844h-1.984375v-7.328125zm1.640624 0 3.996094 1.527344v7.328125h-1.984375l-2.011719-6.589844zm0 0" fill="#46c0bc"/></svg>