<svg height="18" viewBox="0 0 18 18" width="18" xmlns="http://www.w3.org/2000/svg"><g fill="none" stroke="#fff" stroke-linecap="round" stroke-linejoin="round" stroke-width="2" transform="scale(.75)"><path d="m4 13c3.5-2 8-2 10 2 1.71875-.880208 3.776042-.791667 5.416667.234375 1.635416 1.026042 2.619791 2.833333 2.583333 4.765625"/><path d="m5.151042 17.890625c5.520833-1.520833 8.651041-6.890625 7-12-.598959-1.890625-.651042-3.890625.848958-3.890625 3.21875 0 5 5.5 5 8 0 6.5-4.197917 12-10.489583 12-2.401042 0-5.510417 0-5.510417-2 0-1.5 1.140625-1.552083 3.151042-2.109375"/></g></svg>