<svg height="18" viewBox="0 0 18 18" width="18" xmlns="http://www.w3.org/2000/svg"><path d="m15.328125 4.027344-5.304687-3.148438c-.316407-.1875-.671876-.28125-1.023438-.28125s-.707031.09375-1.023438.28125l-5.308593 3.148438c-.632813.378906-1.023438 1.070312-1.023438 1.824218v6.300782c0 .75.390625 1.445312 1.023438 1.820312l5.308593 3.152344c.316407.1875.667969.28125 1.023438.28125.351562 0 .707031-.09375 1.023438-.28125l5.304687-3.152344c.632813-.375 1.023437-1.070312 1.023437-1.820312v-6.300782c0-.753906-.386718-1.449218-1.023437-1.824218m-4.109375 9.835937.011719.453125c0 .054688-.035157.117188-.078125.140625l-.269532.152344c-.042968.023437-.078124-.003906-.078124-.058594l-.003907-.445312c-.230469.097656-.464843.117187-.609375.058593-.03125-.011718-.042968-.050781-.03125-.097656l.097656-.410156c.007813-.03125.023438-.066406.046876-.085938.007812-.007812.015624-.011718.027343-.015624.015625-.007813.027344-.011719.042969-.003907.160156.050781.363281.027344.558594-.070312.25-.128907.417968-.382813.417968-.636719-.003906-.230469-.128906-.324219-.429687-.328125-.386719 0-.746094-.074219-.75-.644531-.007813-.464844.234375-.953125.621094-1.257813l-.003907-.457031c0-.054688.035157-.117188.078126-.140625l.257812-.167969c.042969-.019531.078125.007813.078125.0625l.007813.457032c.191406-.078126.355468-.097657.507812-.0625.03125.007812.046875.054687.03125.105468l-.101562.40625c-.007813.03125-.023438.0625-.046876.082032-.007812.007812-.015624.011718-.023437.019531-.015625.003906-.027344.007812-.042969.003906-.066406-.011719-.230468-.046875-.488281.082031-.269531.136719-.363281.371094-.363281.542969.003906.210937.109375.273437.476562.277344.492188.007812.703125.222656.707032.714843.007812.484376-.25 1.007813-.648438 1.324219m2.785156-.761719c0 .042969-.007812.082032-.042968.101563l-1.339844.816406c-.035156.023438-.066406.003907-.066406-.039062v-.34375c0-.042969.027343-.066407.0625-.085938l1.320312-.792969c.035156-.019531.066406 0 .066406.039063zm.921875-7.746093-5.023437 3.101562c-.625.367188-1.085938.777344-1.085938 1.53125v6.1875c0 .449219.183594.742188.460938.828125-.089844.015625-.183594.027344-.277344.027344-.292969 0-.582031-.082031-.839844-.230469l-5.304687-3.148437c-.519531-.308594-.839844-.886719-.839844-1.503906v-6.296876c0-.617187.320313-1.195312.839844-1.503906l5.308593-3.148437c.253907-.148438.542969-.230469.835938-.230469.296875 0 .585938.082031.839844.230469l5.308594 3.148437c.4375.261719.730468.710938.8125 1.214844-.175782-.375-.574219-.476562-1.035157-.207031" fill="#293138"/></svg>