<svg height="18" viewBox="0 0 18 18" width="18" xmlns="http://www.w3.org/2000/svg"><g fill="none" stroke="#fff" stroke-linecap="round" stroke-linejoin="round" stroke-width="2" transform="scale(.75)"><path d="m9 9c-.640625.640625-1.520833.953125-2.401042 1.166667-2.958333.708333-4.921875 3.515625-4.5625 6.541666.359375 3.020834 2.921875 5.291667 5.963542 5.291667 3.713542.005208 7.276042-1.46875 9.901042-4.098958m-7.151042-12.807292c1.322917-2.395833 4.104167-3.588542 6.75-2.90625 2.651042.6875 4.5 3.078125 4.5 5.8125 0 2.411458-.609375 4.682292-1.682292 6.661458"/><path d="m5.338542 10.619792c.536458 1.208333 1.630208 2.072916 2.927083 2.3125 1.296875.244791 2.630208-.171875 3.5625-1.104167m-1.208333-6.489583c.911458.40625 1.635416 1.130208 2.041666 2.041666m-10.661458-5.380208 20 20"/></g></svg>