<svg height="18" viewBox="0 0 18 18" width="18" xmlns="http://www.w3.org/2000/svg"><path d="m13.128906 7.625c.242188-.640625.371094-1.316406.371094-2 0-3.105469-2.519531-5.625-5.625-5.625h-6.1875v6.75h8.4375c1.105469 0 2.132812.324219 3.003906.875" fill="#07c"/><path d="m14.457031 8.789062c-1.183593 2.449219-3.683593 4.148438-6.582031 4.148438h-6.1875v5.0625h8.4375c3.105469 0 5.625-2.519531 5.625-5.625.003906-1.308594-.457031-2.578125-1.292969-3.585938" fill="#00bfb3"/><path d="m13.128906 7.625c-.898437-.570312-1.941406-.875-3.003906-.875h-8.4375v4.5h6.1875c2.402344 0 4.445312-1.507812 5.253906-3.625" fill="#343741"/></svg>