<svg height="18" viewBox="0 0 18 18" width="18" xmlns="http://www.w3.org/2000/svg"><g fill="none" stroke="#fff" stroke-linecap="round" stroke-linejoin="round" stroke-width="2" transform="scale(.75)"><path d="m16.401042 13.697917c2.25-1.6875 3.15625-4.640625 2.239583-7.302084-.911458-2.666666-3.4375-4.4375-6.255208-4.390625-2.8125.046875-5.28125 1.901042-6.104167 4.59375-1.098958 3.130209-.78125 3.901042-3.182292 6.083334-.979166.802083-1.348958 2.135416-.921875 3.328125.427084 1.192708 1.557292 1.989583 2.822917 1.989583 4 0 8.401042-1.802083 11.401042-4.302083"/><path d="m18.5 6 2.1875 4.5c.864583 2.640625-.057292 5.541667-2.286458 7.197917-3 2.5-7.401042 4.302083-11.401042 4.302083-1.135417 0-2.171875-.645833-2.682292-1.661458l-1.916666-3.838542"/><path d="m15 8.5c0 1.380208-1.119792 2.5-2.5 2.5s-2.5-1.119792-2.5-2.5 1.119792-2.5 2.5-2.5 2.5 1.119792 2.5 2.5zm0 0"/></g></svg>