<svg height="18" viewBox="0 0 18 18" width="18" xmlns="http://www.w3.org/2000/svg"><g fill="#1d1d1b"><path d="m6.824219 6.785156c0-1.003906-.683594-1.003906-.683594-1.003906h-2.8125v2.15625h2.636719c.457031 0 .859375-.144531.859375-1.152344m-.683594 2.644532h-2.8125v2.585937h2.683594c.40625-.011719 1.152343-.140625 1.152343-1.257813-.003906-1.335937-1.023437-1.328124-1.023437-1.328124m7.207031-1.492188c-1.492187 0-1.699218 1.492188-1.699218 1.492188h3.175781s.019531-1.492188-1.476563-1.492188"/><path d="m15.644531.304688h-13.289062c-1.132813 0-2.050781.917968-2.050781 2.050781v13.289062c0 1.132813.917968 2.050781 2.050781 2.050781h13.289062c1.132813 0 2.050781-.917968 2.050781-2.050781v-13.289062c0-1.132813-.917968-2.050781-2.050781-2.050781m-4.414062 4.324218h3.992187v1.191406h-3.992187zm-2.019531 6.25c0 2.953125-3.070313 2.855469-3.070313 2.855469h-5.035156v-9.675781h5.035156c1.527344 0 2.738281.84375 2.738281 2.578125 0 1.730469-1.476562 1.839843-1.476562 1.839843 1.945312 0 1.808594 2.402344 1.808594 2.402344m7.46875-.15625h-5.007813c0 1.796875 1.703125 1.6875 1.703125 1.6875 1.605469 0 1.546875-1.042968 1.546875-1.042968h1.699219c0 2.761718-3.308594 2.574218-3.308594 2.574218-3.972656 0-3.71875-3.699218-3.71875-3.699218s0-3.71875 3.71875-3.71875c3.914062 0 3.367188 4.199218 3.367188 4.199218zm0 0"/></g></svg>