<svg height="18" viewBox="0 0 18 18" width="18" xmlns="http://www.w3.org/2000/svg"><path d="m10.265625 21c.359375.619792 1.020833 1 1.734375 1s1.375-.380208 1.734375-1m8.265625-13c0-2.302083-.802083-4.302083-2-6m-16.739583 13.328125c-.265625.291667-.333334.713542-.177084 1.072917.161459.364583.520834.598958.916667.598958h16c.395833 0 .755208-.234375.916667-.59375.15625-.364583.088541-.786458-.177084-1.078125-1.328125-1.369792-2.739583-2.828125-2.739583-7.328125 0-3.3125-2.6875-6-6-6s-6 2.6875-6 6c0 4.5-1.411458 5.958333-2.739583 7.328125m.739583-13.328125c-1.197917 1.697917-2 3.697917-2 6" fill="none" stroke="#fff" stroke-linecap="round" stroke-linejoin="round" stroke-width="2" transform="scale(.75)"/></svg>