<svg height="18" viewBox="0 0 18 18" width="18" xmlns="http://www.w3.org/2000/svg"><path d="m10.265625 21c.359375.619792 1.020833 1 1.734375 1s1.375-.380208 1.734375-1m1.265625-13h6m-4.755208-4.244792c-1.71875-1.713541-4.296875-2.229166-6.541667-1.296875-2.239583.927084-3.703125 3.114584-3.703125 5.541667 0 4.5-1.411458 5.958333-2.739583 7.328125-.265625.291667-.333334.713542-.177084 1.072917.161459.364583.520834.598958.916667.598958h16c.395833 0 .755208-.234375.916667-.59375.15625-.364583.088541-.786458-.177084-1.078125-.916666-.953125-1.625-2.083333-2.072916-3.328125" fill="none" stroke="#fff" stroke-linecap="round" stroke-linejoin="round" stroke-width="2" transform="scale(.75)"/></svg>