<svg height="18" viewBox="0 0 18 18" width="18" xmlns="http://www.w3.org/2000/svg"><path d="m10 10h4m5-3v-3c0-.552083-.447917-1-1-1h-2c-.552083 0-1 .447917-1 1v3m5 14c1.104167 0 2-.895833 2-2v-3.848958c0-1.390625-2-2.963542-2-4.833334v-2.317708c0-.552083-.447917-1-1-1h-4c-.552083 0-1 .447917-1 1v11c0 1.104167.895833 2 2 2zm2-5h-20m2 5c-1.104167 0-2-.895833-2-2v-3.848958c0-1.390625 2-2.963542 2-4.833334v-2.317708c0-.552083.447917-1 1-1h4c.552083 0 1 .447917 1 1v11c0 1.104167-.895833 2-2 2zm5-14v-3c0-.552083-.447917-1-1-1h-2c-.552083 0-1 .447917-1 1v3" fill="none" stroke="#fff" stroke-linecap="round" stroke-linejoin="round" stroke-width="2" transform="scale(.75)"/></svg>