<svg height="18" viewBox="0 0 18 18" width="18" xmlns="http://www.w3.org/2000/svg" xmlns:xlink="http://www.w3.org/1999/xlink"><linearGradient id="a" gradientUnits="userSpaceOnUse" x1="16.083563" x2="9.378001" y1="8.002125" y2="13.23675"><stop offset=".176" stop-color="#0052cc"/><stop offset="1" stop-color="#2684ff"/></linearGradient><path d="m2.683594 2.8125c-.269532 0-.472656.246094-.425782.496094l1.820313 11.148437c.042969.292969.292969.496094.582031.496094h8.8125c.203125 0 .382813-.160156.429688-.363281l1.839844-11.261719c.046874-.269531-.15625-.492187-.425782-.492187zm7.734375 8.046875h-2.8125l-.742188-3.976563h4.25zm0 0" fill="#2684ff"/><path d="m15.136719 6.882812h-4.046875l-.671875 3.976563h-2.8125l-3.304688 3.933594s.160157.136719.382813.136719h8.8125c.203125 0 .382812-.160157.425781-.359376zm0 0" fill="url(#a)"/></svg>