<svg height="18" viewBox="0 0 18 18" width="18" xmlns="http://www.w3.org/2000/svg"><g fill="none" stroke="#fff" stroke-linecap="round" stroke-linejoin="round" stroke-width="2" transform="scale(.75)"><path d="m15 13c0-1.65625-1.34375-3-3-3s-3 1.34375-3 3"/><path d="m4 19.5v-15c0-1.380208 1.119792-2.5 2.5-2.5h12.5c.552083 0 1 .447917 1 1v18c0 .552083-.447917 1-1 1h-12.5c-1.380208 0-2.5-1.119792-2.5-2.5s1.119792-2.5 2.5-2.5h13.5"/><path d="m14 8c0 1.104167-.895833 2-2 2s-2-.895833-2-2 .895833-2 2-2 2 .895833 2 2zm0 0"/></g></svg>