<svg height="18" viewBox="0 0 18 18" width="18" xmlns="http://www.w3.org/2000/svg"><g fill="none" stroke="#fff" stroke-linecap="round" stroke-linejoin="round" stroke-width="2" transform="scale(.75)"><path d="m12 5c.005208-1.088542-.583333-2.09375-1.53125-2.625-.953125-.53125-2.114583-.510417-3.041667.0625-.927083.572917-1.473958 1.598958-1.421875 2.6875-1.192708.307292-2.177083 1.145833-2.671875 2.270833-.489583 1.125-.4375 2.416667.145834 3.5-1.03125.833334-1.578125 2.119792-1.463542 3.442709.109375 1.317708.864583 2.494791 2.015625 3.145833-.1875 1.473958.458333 2.9375 1.677083 3.791667 1.223959.854166 2.817709.953125 4.140625.265625 1.317709-.6875 2.151042-2.052084 2.151042-3.541667zm0 0"/><path d="m12 5c-.005208-1.088542.583333-2.09375 1.53125-2.625.953125-.53125 2.114583-.510417 3.041667.0625.927083.572917 1.473958 1.598958 1.421875 2.6875 1.192708.307292 2.177083 1.145833 2.671875 2.270833.489583 1.125.4375 2.416667-.145834 3.5 1.03125.833334 1.578125 2.119792 1.463542 3.442709-.109375 1.317708-.864583 2.494791-2.015625 3.145833.1875 1.473958-.458333 2.9375-1.677083 3.791667-1.223959.854166-2.817709.953125-4.140625.265625-1.317709-.6875-2.151042-2.052084-2.151042-3.541667zm0 0"/><path d="m15 13c-1.71875-.604167-2.901042-2.182292-3-4-.098958 1.817708-1.28125 3.395833-3 4m8.598958-6.5c.239584-.421875.380209-.890625.401042-1.375m-11.994792 0c.015625.484375.15625.953125.395834 1.375m-2.921875 4.395833c.182291-.151041.375-.28125.583333-.395833m15.875 0c.208333.114583.401042.244792.583333.395833m-14.520833 7.104167c-.6875 0-1.364583-.177083-1.96875-.515625m15.9375 0c-.604167.338542-1.28125.515625-1.96875.515625"/></g></svg>