<svg height="18" viewBox="0 0 18 18" width="18" xmlns="http://www.w3.org/2000/svg"><g fill="none" stroke="#fff" stroke-linecap="round" stroke-linejoin="round" stroke-width="2" transform="scale(.75)"><path d="m12 5c-.005208-1.088542-.59375-2.088542-1.541667-2.614583-.953125-.526042-2.114583-.5-3.036458.072916-.927083.572917-1.46875 1.598959-1.416667 2.682292-1.192708.307292-2.177083 1.145833-2.671875 2.270833-.489583 1.125-.4375 2.416667.145834 3.5-1.03125.833334-1.578125 2.125-1.463542 3.442709.109375 1.317708.864583 2.494791 2.015625 3.145833-.255208 1.973958.984375 3.838542 2.90625 4.369792s3.9375-.4375 4.729167-2.265625c.072916-.177084.130208-.359375.166666-.541667.026042-.130208.307292-.130208.333334 0 .036458.182292.09375.364583.166666.541667.791667 1.828125 2.807292 2.796875 4.729167 2.265625s3.161458-2.395834 2.90625-4.369792c1.151042-.651042 1.90625-1.828125 2.015625-3.145833.114583-1.317709-.432292-2.609375-1.463542-3.442709.583334-1.083333.635417-2.375.145834-3.5-.494792-1.125-1.479167-1.963541-2.671875-2.270833.052083-1.083333-.489584-2.109375-1.416667-2.682292-.921875-.572916-2.083333-.598958-3.036458-.072916-.947917.526041-1.536459 1.526041-1.541667 2.614583"/><path d="m17.598958 6.5c.239584-.421875.380209-.890625.401042-1.375m-11.994792 0c.015625.484375.15625.953125.395834 1.375m-2.921875 4.395833c.182291-.151041.375-.28125.583333-.395833m15.875 0c.208333.114583.401042.244792.583333.395833m-14.520833 7.104167c-.6875 0-1.364583-.177083-1.96875-.515625m15.9375 0c-.604167.338542-1.28125.515625-1.96875.515625"/><path d="m15 12c0 1.65625-1.34375 3-3 3s-3-1.34375-3-3 1.34375-3 3-3 3 1.34375 3 3zm0 0"/><path d="m15.697917 10.401042-.895834.401041m-5.604166 2.395834-.895834.401041m5.296875 2.098959-.401041-.895834m-2.395834-5.604166-.401041-.895834m5.296875 5.197917-.895834-.401042m-5.604166-2.197916-.895834-.401042m2.197917 5.197917.401042-.895834m2.197916-5.604166.401042-.895834"/></g></svg>