<svg height="18" viewBox="0 0 18 18" width="18" xmlns="http://www.w3.org/2000/svg"><path d="m9 1.4375c-.734375 0-1.460938.328125-2.300781.804688-.289063.167968-.574219.335937-.859375.503906-.542969.324218-1.152344.691406-1.863282 1.058594h-.003906c-2.480468 1.292968-3.972656 3.460937-3.972656 5.785156 0 1.929687 1.015625 3.675781 2.644531 4.933594 1.632813 1.261718 3.878907 2.039062 6.355469 2.039062s4.722656-.777344 6.355469-2.039062c1.628906-1.257813 2.644531-3.003907 2.644531-4.933594 0-2.328125-1.492188-4.492188-3.976562-5.785156-.875-.457032-1.542969-.851563-2.136719-1.207032-.253907-.15625-.492188-.296875-.730469-.429687h-.003906c-.78125-.449219-1.417969-.730469-2.152344-.730469m0 .148438c.695312 0 1.304688.269531 2.082031.710937.238281.132813.472657.273437.726563.429687h.003906c.589844.351563 1.261719.753907 2.144531 1.210938 2.445313 1.273438 3.894531 3.386719 3.894531 5.652344 0 1.875-.988281 3.578125-2.589843 4.816406-1.601563 1.238281-3.816407 2.007812-6.261719 2.007812s-4.660156-.769531-6.261719-2.007812c-1.601562-1.238281-2.589843-2.941406-2.589843-4.816406 0-2.261719 1.449218-4.378906 3.894531-5.652344.714843-.367188 1.332031-.738281 1.875-1.0625.285156-.171875.570312-.335938.855469-.503906.832031-.472656 1.535156-.785156 2.226562-.785156m0 .425781c-.601562 0-1.222656.292969-2 .726562-.269531.152344-.550781.320313-.84375.496094-.554688.328125-1.1875.703125-1.902344 1.078125v-.003906c-2.285156 1.195312-3.660156 3.167968-3.660156 5.28125 0 1.769531.949219 3.375 2.472656 4.53125 1.523438 1.152344 3.621094 1.867187 5.933594 1.867187s4.410156-.714843 5.933594-1.867187c1.523437-1.15625 2.472656-2.761719 2.472656-4.53125 0-2.113282-1.375-4.085938-3.664062-5.273438-.898438-.460937-1.597657-.890625-2.167969-1.230468-.257813-.152344-.496094-.296876-.714844-.421876-.722656-.414062-1.265625-.652343-1.859375-.652343m.554688.457031c.011718 0 .023437.003906.035156.007812 1.800781.707032 1.925781 2.074219 1.707031 2.875-.003906.019532-.015625.035157-.03125.046876-.035156.023437-.082031.015624-.109375-.015626-.011719-.015624-.015625-.035156-.015625-.054687-.054687-.539063-.230469-1.058594-.511719-1.523437-.28125-.464844-.664062-.867188-1.117187-1.175782v-.011718c-.070313-.046876-.03125-.148438.042969-.148438m-.628907.058594c.023438-.003906.042969.003906.058594.019531 1.359375 1.375.90625 2.652344.382813 3.292969-.054688.066406-.15625 0-.128907-.082032.171875-.511718.226563-1.050781.160157-1.585937-.066407-.535156-.253907-1.050781-.542969-1.503906v-.011719c-.035157-.058594.015625-.125.070312-.128906zm-.539062.054687c.039062-.003906.078125.015625.085937.066407.457032 1.816406-.625 2.714843-1.425781 3.015624-.085937.03125-.140625-.078124-.074219-.136718.421875-.351563.761719-.792969.996094-1.289063.230469-.492187.347656-1.027343.34375-1.570312 0-.046875.035156-.078125.074219-.085938m-.675781.320313c.039062.011718.066406.042968.054687.085937-.410156 1.839844-1.789063 2.222657-2.644531 2.171875-.089844 0-.089844-.121094-.003906-.144531.539062-.15625 1.042968-.421875 1.476562-.777344.425781-.351562.773438-.792969 1.015625-1.289062.019531-.039063.0625-.054688.101563-.046875zm-1.667969 4.871094c.097656-.003907.191406.007812.289062.023437.25.046875.484375.167969.671875.347656.179688.175781.304688.402344.355469.648438.050781.246093.027344.5-.074219.730469-.101562.234374-.269531.429687-.484375.566406-.21875.140625-.46875.214844-.730469.210937-.34375 0-.679687-.132812-.925781-.371093-.242187-.234376-.382812-.558594-.382812-.890626 0-.253906.078125-.496093.222656-.703124.144531-.210938.351563-.371094.589844-.464844.148437-.0625.308593-.09375.46875-.097656m5.90625 0c.097656 0 .191406.007812.289062.023437.25.050781.484375.171875.667969.351563.183594.175781.308594.402343.359375.648437.046875.246094.019531.5-.078125.730469-.105469.234375-.273438.429687-.488281.566406-.21875.136719-.472657.210938-.730469.207031-.347656 0-.679688-.132812-.921875-.371093-.246094-.238282-.382813-.558594-.382813-.890626 0-.25.078126-.496093.222657-.703124.148437-.210938.351562-.375.589843-.46875.152344-.058594.308594-.089844.472657-.09375m-6.253907.394531c-.074218-.003907-.144531.007812-.214843.035156-.085938.035156-.164063.097656-.21875.175781-.054688.078125-.085938.167969-.085938.265625 0 .125.054688.246094.144531.332031.09375.089844.21875.140626.347657.140626.097656 0 .191406-.027344.273437-.078126.082032-.050781.144532-.125.183594-.210937s.046875-.183594.027344-.277344c-.019532-.09375-.066406-.175781-.132813-.242187-.085937-.085938-.203125-.132813-.324219-.140625zm5.894532 0c-.070313-.003907-.144532.007812-.210938.035156-.089844.035156-.167968.097656-.222656.175781s-.082031.167969-.082031.265625c0 .125.050781.242188.140625.332031.09375.089844.214844.140626.34375.140626h.003906c.097656 0 .191406-.027344.273438-.078126.082031-.050781.144531-.125.183593-.210937.039063-.085937.046875-.183594.03125-.277344-.019531-.09375-.066406-.175781-.136719-.242187-.085937-.085938-.203124-.132813-.324218-.140625m-4.023438 3.027343 2.910156.003907c.015626 0 .035157.007812.046876.023437-.0625.246094-.175782.476563-.332032.675782l-.011718-.007813c-.300782-.277344-.695313-.433594-1.109376-.441406-.21875.003906-.4375.050781-.636718.144531-.195313.089844-.371094.222656-.511719.386719-.191406-.21875-.332031-.480469-.402344-.765625 0-.003906.011719-.019532.046875-.019532zm1.515625.484376c.351563.011718.6875.148437.941407.382812l.011718.011719c-.046875.050781-.097656.097656-.152344.140625-.238281.21875-.539062.355468-.863281.390625-.320312-.035157-.621093-.171875-.859375-.394531-.023437-.019532-.042968-.039063-.066406-.058594.121094-.144532.269531-.265625.4375-.34375.171875-.082032.359375-.125.550781-.128906zm0 0"/></svg>