<svg height="18" viewBox="0 0 18 18" width="18" xmlns="http://www.w3.org/2000/svg"><path d="m9 1.449219c-.71875 0-1.441406.320312-2.28125.804687-.289062.164063-.578125.332032-.863281.503906-.550781.328126-1.167969.699219-1.886719 1.070313-2.484375 1.292969-3.96875 3.453125-3.96875 5.769531 0 3.832032 4.035156 6.953125 9 6.953125s9-3.121093 9-6.953125c0-2.316406-1.484375-4.476562-3.96875-5.769531-.886719-.460937-1.5625-.863281-2.160156-1.21875-.253906-.15625-.496094-.300781-.734375-.433594-.789063-.449219-1.417969-.726562-2.136719-.726562m0 .578125c.582031 0 1.109375.230468 1.839844.648437.21875.128907.457031.269531.71875.425781.574218.34375 1.28125.777344 2.1875 1.242188 2.289062 1.1875 3.652344 3.152344 3.652344 5.253906 0 3.511719-3.765626 6.375-8.398438 6.375s-8.398438-2.863281-8.398438-6.375c0-2.101562 1.363282-4.066406 3.648438-5.261718.71875-.375 1.359375-.753907 1.921875-1.085938.296875-.175781.578125-.34375.847656-.496094.78125-.4375 1.398438-.726562 1.980469-.726562m.5625.386718c-.078125 0-.117188.101563-.046875.152344v.007813c.457031.3125.84375.714843 1.128906 1.1875.28125.46875.457031.992187.515625 1.535156-.003906.019531.003906.039063.015625.054687.023438.03125.070313.039063.105469.015626.019531-.007813.03125-.027344.035156-.046876.21875-.804687.09375-2.183593-1.722656-2.898437-.007812-.003906-.019531-.007813-.03125-.007813zm-.636719.058594c-.054687.003906-.109375.070313-.070312.132813v.007812c.289062.460938.476562.976563.546875 1.519531.066406.539063.011718 1.082032-.164063 1.597657-.027343.082031.074219.152343.132813.082031.527344-.644531.984375-1.933594-.386719-3.320312-.015625-.015626-.035156-.023438-.058594-.019532m-.542969.058594c-.042968.003906-.074218.039062-.074218.082031.003906.546875-.117188 1.089844-.347656 1.585938-.238282.5-.578126.945312-1.003907 1.300781-.066406.058594-.015625.167969.074219.136719.808594-.304688 1.898438-1.210938 1.4375-3.042969-.007812-.050781-.050781-.070312-.085938-.0625zm-.710937.320312c-.03125 0-.058594.019532-.074219.046876-.246094.5-.59375.945312-1.027344 1.300781-.433593.359375-.941406.625-1.484374.78125-.085938.027343-.089844.148437.003906.144531.863281.054688 2.25-.332031 2.667968-2.183594.011719-.058594-.035156-.09375-.085937-.089844zm-1.652344 4.910157c-.164062.003906-.324219.039062-.476562.097656-.238281.09375-.445313.257813-.59375.46875-.144531.210937-.222657.457031-.222657.710937 0 .335938.140626.660157.386719.898438.25.242188.585938.375.933594.375.261719 0 .515625-.074219.738281-.214844.214844-.136718.382813-.335937.484375-.570312.101563-.230469.128907-.488282.078125-.738282-.050781-.246093-.179687-.476562-.359375-.652343-.1875-.179688-.425781-.300781-.679687-.347657-.09375-.019531-.191406-.027343-.289063-.027343zm5.953125 0c-.164062.003906-.324218.039062-.472656.097656-.242188.09375-.449219.257813-.597656.46875-.144532.207031-.222656.457031-.222656.710937 0 .335938.136718.660157.382812.898438s.582031.375.929688.375c.261718.003906.515624-.070312.738281-.210938.214843-.136718.386719-.335937.492187-.570312.101563-.230469.128906-.488281.078125-.734375-.050781-.25-.175781-.480469-.359375-.65625-.1875-.179687-.421875-.304687-.675781-.351563-.097656-.019531-.195313-.027343-.292969-.027343m-6.304687.398437c.121093.007813.238281.054688.328125.140625.066406.070313.113281.152344.132812.246094.019532.09375.007813.191406-.027344.277344-.039062.089843-.105468.164062-.183593.214843-.085938.054688-.179688.082032-.277344.082032-.132813-.003906-.257813-.050782-.351563-.144532-.089843-.085937-.144531-.207031-.144531-.335937 0-.09375.03125-.1875.085938-.265625.054687-.082031.132812-.140625.222656-.175781.066406-.027344.140625-.042969.214844-.039063m5.945312 0c.023438.003906.046875.003906.070313.011719.097656.015625.183594.0625.253906.128906.070312.070313.117188.152344.136719.246094s.007812.191406-.027344.277344c-.039063.089843-.105469.164062-.183594.214843-.082031.054688-.179687.082032-.277343.082032h-.007813c-.128906-.003906-.25-.054688-.34375-.144532-.09375-.089843-.144531-.210937-.144531-.335937 0-.09375.03125-.1875.085937-.265625.054688-.082031.132813-.140625.222657-.175781.066406-.027344.140624-.042969.214843-.039063m-4.074219 2.808594c-.050781-.003906-.101562.007812-.148437.027344-.046875.019531-.089844.050781-.121094.089844-.027343.03125-.046875.070312-.058593.109374-.011719.039063-.011719.082032-.003907.121094.113281.457032.375.867188.746094 1.167969.296875.269531.671875.433594 1.066406.464844.402344-.035157.777344-.199219 1.066407-.460938.371093-.304687.632812-.714843.746093-1.171875.011719-.039062.007813-.082031 0-.121094-.011719-.039062-.03125-.078124-.058593-.109374-.035157-.039063-.074219-.066407-.121094-.089844-.046875-.019532-.097656-.027344-.148438-.027344zm0 .269531 2.964844.003907c.015625-.003907.035156.003906.046875.019531-.066406.25-.179687.484375-.339843.6875l-.007813-.007813c-.304687-.277344-.710937-.4375-1.132813-.445312-.222656 0-.445312.050781-.648437.144531-.199219.09375-.375.226563-.519531.394531-.195313-.222656-.335938-.488281-.410156-.777344 0-.003906.011718-.019531.046874-.019531m1.542969.492188c.359375.007812.703125.148437.960938.390625l.011719.007812c-.050782.050782-.101563.101563-.15625.144532-.242188.222656-.550782.363281-.878907.398437-.328125-.035156-.632812-.175781-.875-.402344-.023437-.019531-.042969-.039062-.066406-.058593.121094-.148438.273437-.269532.445313-.351563.175781-.085937.367187-.128906.558593-.128906zm0 0"/></svg>