<svg height="18" viewBox="0 0 18 18" width="18" xmlns="http://www.w3.org/2000/svg"><g fill="none" stroke="#fff" stroke-linecap="round" stroke-linejoin="round" stroke-width="2" transform="scale(.75)"><path d="m17 21v-2c-.552083 0-1-.447917-1-1v-1c0-1.104167.895833-2 2-2h2c1.104167 0 2 .895833 2 2v1c0 .552083-.447917 1-1 1"/><path d="m19 15v-8.5c0-1.932292-1.567708-3.5-3.5-3.5s-3.5 1.567708-3.5 3.5v11c0 1.932292-1.567708 3.5-3.5 3.5s-3.5-1.567708-3.5-3.5v-8.5m16 12v-2h-4m-14-14h4v-2"/><path d="m7 5c.552083 0 1 .447917 1 1v1c0 1.104167-.895833 2-2 2h-2c-1.104167 0-2-.895833-2-2v-1c0-.552083.447917-1 1-1v-2"/></g></svg>