<svg height="18" viewBox="0 0 18 18" width="18" xmlns="http://www.w3.org/2000/svg"><path d="m.28125 10.363281v2.714844c0 1.503906 3.902344 2.722656 8.71875 2.722656v-2.722656c-4.816406 0-8.71875-1.214844-8.71875-2.714844m8.71875-2.722656 6.820312 1.6875c1.1875-.464844 1.898438-1.054687 1.898438-1.6875v-2.71875c0-1.5-3.902344-2.722656-8.71875-2.722656-4.8125 0-8.71875 1.214843-8.71875 2.722656v2.71875c0 1.5 3.902344 2.722656 8.71875 2.722656zm6.820312 4.417969-6.820312-1.695313v2.714844l6.820312 1.695313c1.183594-.460938 1.898438-1.050782 1.898438-1.695313v-2.714844c0 .640625-.714844 1.226563-1.898438 1.695313" fill="#d43d44"/></svg>