<svg height="18" viewBox="0 0 18 18" width="18" xmlns="http://www.w3.org/2000/svg"><g fill="#00c4cc"><path d="m8.351562.0195312c-.066406.0078126-.28125.0351563-.46875.0546876-.753906.0859372-1.613281.3164062-2.363281.6328122-2.722656 1.136719-4.769531 3.632813-5.335937 6.492188-.1328128.679687-.1640628 1.015625-.1640628 1.800781 0 1.011719.0976568 1.710938.3671878 2.59375.871093 2.886719 3.136719 5.148438 6.03125 6.023438.871093.265624 1.574219.363281 2.582031.363281 1.011719 0 1.710938-.097657 2.59375-.367188 2.886719-.871093 5.148438-3.136719 6.023438-6.03125.265624-.871093.363281-1.574219.363281-2.582031 0-.429688-.019531-.917969-.046875-1.097656-.289063-2.082032-1.148438-3.832032-2.574219-5.261719-1.425781-1.417969-3.171875-2.277344-5.207031-2.5703125-.28125-.0390625-1.582032-.07421875-1.800782-.0507813m-2.933593 5.6718748c.191406.058594.28125.113282.410156.242188.253906.253906.308594.394531.308594.78125 0 .289062-.007813.339844-.097657.492187-.164062.28125-.550781.539063-.816406.546875-.1875.003906-.179687-.078125.027344-.292968.273438-.285157.3125-.394532.3125-.820313-.003906-.410156-.054688-.550781-.246094-.664063-.15625-.097656-.332031-.089843-.582031.027344-.65625.3125-1.363281 1.359375-1.640625 2.425782-.367188 1.425781.28125 2.566406 1.355469 2.375.3125-.058594.902343-.359376 1.160156-.597657.210937-.195312.210937-.199219.234375-.441406.046875-.503906.402344-1.007813.878906-1.242187.21875-.105469.273438-.117188.566406-.117188.28125 0 .347657.015625.484376.089844.433593.25.34375.828125-.128907.828125-.273437 0-.414062-.140625-.214843-.214844.195312-.074219.121093-.34375-.101563-.40625-.269531-.066406-.570313.113281-.761719.457031-.230468.417969-.242187.917969-.023437 1.144532.214843.226562.480469.046874.6875-.46875.105469-.261719.261719-.402344.441406-.402344.15625 0 .1875.09375.117187.390625-.101562.457031-.03125.574219.253907.4375.09375-.046875.246093-.144531.339843-.21875l.175782-.140625.121094-.621094c.128906-.699219.179687-.792969.445312-.84375.257812-.046875.3125.082031.21875.480469l-.050781.222656.1875-.191406c.445312-.453125.988281-.675781 1.175781-.488281.101562.101562.089844.226562-.054688.671874-.066406.210938-.160156.546876-.203124.738282-.066407.289062-.070313.355468-.035157.402344.117188.136718.46875-.003907.78125-.308594l.183594-.179688.023437-.398437c.019532-.460938.0625-.628907.1875-.777344.113282-.136719.324219-.234375.433594-.207031.113282.027344.113282.136718.011719.453125-.140625.4375-.125 1.441406.019531 1.441406.054688 0 .351563-.308594.539063-.570313l.140625-.191406-.113282-.113281c-.195312-.207031-.242187-.339844-.242187-.675781 0-.242188.019531-.332032.082031-.453125.101563-.1875.257813-.324219.445313-.375.199219-.0625.441406.039062.542969.21875.101562.183593.078124.59375-.054688.875l-.09375.203125h.128906c.171875 0 .238282-.042969.550782-.332032.160156-.15625.347656-.289062.488281-.355468.550781-.257813 1.199219-.125 1.308593.269531.089844.320313-.109374.542969-.457031.515625-.246093-.015625-.292969-.082031-.148437-.203125.257812-.21875 0-.496094-.371094-.394531-.203125.054687-.429688.28125-.546875.542968-.238281.527344-.113281 1.144532.230469 1.144532.136718 0 .378906-.269532.46875-.53125.113281-.300782.347656-.492188.523437-.425782.097657.035157.105469.132813.042969.441407-.066406.332031-.078125.648437-.023438.789062.019532.054688.085938.15625.148438.226563.113281.128906.117188.175781.019531.234375-.046875.035156-.109375.019531-.257812-.0625-.210938-.109375-.390625-.304688-.457031-.488281l-.039063-.105469-.144531.105469c-.082032.058593-.210938.125-.285156.144531-.300782.082031-.667969-.125-.839844-.46875-.070313-.136719-.089844-.527344-.039063-.679688.027344-.082031.027344-.082031-.085937-.023437-.0625.03125-.191406.066406-.292969.078125-.164063.019531-.191406.035156-.355469.246093-.234375.289063-.648437.683594-.816406.765626-.359375.179687-.480469.128906-.574219-.242188l-.0625-.246094-.15625.136719c-.199219.171875-.59375.378906-.820312.429687-.214844.046876-.449219-.019531-.539063-.164062-.140625-.214844-.09375-.671875.128906-1.289062.164063-.457032.046876-.464844-.371093-.027344-.308594.328125-.445313.558594-.53125.925781-.089844.375-.195313.511719-.441407.570313-.148437.03125-.214843-.058594-.1875-.253907l.023438-.160156-.136719.09375c-.195312.132813-.441406.253906-.609375.300781-.171875.046875-.394531 0-.445312-.09375-.097656-.167968-.097656-.167968-.25-.046875-.328125.265625-.796875.1875-1.03125-.164062l-.078125-.109375-.238281.21875c-.683594.625-1.539063.90625-2.171876.710937-.808593-.242187-1.253906-.933593-1.246093-1.933593.003906-1 .445312-2.054688 1.191406-2.835938.421875-.4375.816406-.699219 1.21875-.796875.292969-.070313.46875-.066406.746094.019531zm0 0"/><path d="m12.714844 8.25c-.078125.082031-.050782.398438.050781.597656.050781.105469.105469.1875.121094.1875s.046875-.082031.074219-.183594c.089843-.375-.074219-.773437-.246094-.601562m0 0"/></g></svg>