<svg height="18" viewBox="0 0 18 18" width="18" xmlns="http://www.w3.org/2000/svg"><g fill="none" stroke="#fff" stroke-linecap="round" stroke-linejoin="round" stroke-width="2" transform="scale(.75)"><path d="m21 8-2 2-1.5-3.697917c-.291667-.776041-1.026042-1.291666-1.854167-1.302083h-7.244791c-.833334-.020833-1.59375.484375-1.90625 1.255208l-1.494792 3.744792-2-2m4 6h.010417m9.989583 0h.010417"/><path d="m5 10h14c1.104167 0 2 .895833 2 2v4c0 1.104167-.895833 2-2 2h-14c-1.104167 0-2-.895833-2-2v-4c0-1.104167.895833-2 2-2zm0 0"/><path d="m5 18v2m14-2v2"/></g></svg>