<svg height="18" viewBox="0 0 18 18" width="18" xmlns="http://www.w3.org/2000/svg"><g fill="none" stroke="#fff" stroke-linecap="round" stroke-linejoin="round" stroke-width="2" transform="scale(.75)"><path d="m19 17h2c.598958 0 1-.401042 1-1v-3c0-.901042-.697917-1.697917-1.5-1.901042-1.802083-.5-4.5-1.098958-4.5-1.098958s-1.302083-1.401042-2.197917-2.302083c-.5-.395834-1.104166-.697917-1.802083-.697917h-7c-.598958 0-1.098958.401042-1.401042.901042l-1.401041 2.901041c-.130209.385417-.197917.791667-.197917 1.197917v4c0 .598958.401042 1 1 1h2"/><path d="m9 17c0 1.104167-.895833 2-2 2s-2-.895833-2-2 .895833-2 2-2 2 .895833 2 2zm0 0"/><path d="m9 17h6"/><path d="m19 17c0 1.104167-.895833 2-2 2s-2-.895833-2-2 .895833-2 2-2 2 .895833 2 2zm0 0"/></g></svg>