<svg height="18" viewBox="0 0 18 18" width="18" xmlns="http://www.w3.org/2000/svg"><path d="m9.089844.804688-1.777344 1.808593h1.1875v4.757813l.589844.597656.578125-.59375v-4.730469h1.226562zm-5.945313 2.199218v3.21875l1.304688-1.300781 3.09375 3.089844h.578125v-.480469l-3.085938-3.144531 1.359375-1.382813zm3.789063 0-1.355469 1.382813 2.542969 2.59375v-3.976563zm3.117187.03125v3.949219l2.550781-2.597656-1.328124-1.351563zm1.886719.121094 1.203125 1.230469-3.089844 3.148437v.507813h.554688l3.074219-3.136719 1.328124 1.355469v-3.105469zm1.742188 2.300781-2.535157 2.585938h3.863281v-1.234375zm-9.230469.011719-1.304688 1.300781v1.242188h3.851563zm-1.683594 1.679688-1.882813 1.878906 1.882813 1.878906v-1.3125h4.683594l.566406-.566406-.628906-.628906h-4.621094zm12.625.050781-.003906 1.230469h-4.621094l-.597656.609374.542969.554688h4.644531v1.316406l1.835937-1.871094zm-12.242187 2.78125v1.308593l1.300781 1.300782 2.613281-2.609375zm4.457031 0-3.15625 3.152343-1.300781-1.300781v3.1875h3.121093l-1.339843-1.339843 3.191406-3.183594v-.515625zm2.425781 0v.585937l2.984375 2.976563.136719.136719-1.210938 1.210937h3.03125v-3.039063l-1.160156 1.183594-.132812.136719-3.128907-3.191406zm1.058594 0 2.589844 2.640625 1.292968-1.320313v-1.320312zm-2.050782.140625-.535156.535156v4.753906h-1.300781l1.835937 1.832032 1.835938-1.832032h-1.222656v-4.679687zm-.917968.917968-2.648438 2.640626 1.34375 1.339843h1.304688zm1.910156.074219v3.910157h1.234375l1.339844-1.34375zm0 0"/></svg>