<svg height="18" viewBox="0 0 18 18" width="18" xmlns="http://www.w3.org/2000/svg"><g stroke="#fff" stroke-linecap="round" stroke-linejoin="round" stroke-width="2" transform="scale(.75)"><g fill="#fff"><path d="m8 7.5c0 .276042-.223958.5-.5.5s-.5-.223958-.5-.5.223958-.5.5-.5.5.223958.5.5zm0 0"/><path d="m19 5.5c0 .276042-.223958.5-.5.5s-.5-.223958-.5-.5.223958-.5.5-.5.5.223958.5.5zm0 0"/><path d="m12 11.5c0 .276042-.223958.5-.5.5s-.5-.223958-.5-.5.223958-.5.5-.5.5.223958.5.5zm0 0"/><path d="m8 16.5c0 .276042-.223958.5-.5.5s-.5-.223958-.5-.5.223958-.5.5-.5.5.223958.5.5zm0 0"/><path d="m18 14.5c0 .276042-.223958.5-.5.5s-.5-.223958-.5-.5.223958-.5.5-.5.5.223958.5.5zm0 0"/></g><path d="m3 3v16c0 1.104167.895833 2 2 2h16" fill="none"/></g></svg>