<svg height="18" viewBox="0 0 18 18" width="18" xmlns="http://www.w3.org/2000/svg"><g fill="none" stroke="#fff" stroke-linecap="round" stroke-linejoin="round" stroke-width="2" transform="scale(.75)"><path d="m9 5v4"/><path d="m8 9h2c.552083 0 1 .447917 1 1v4c0 .552083-.447917 1-1 1h-2c-.552083 0-1-.447917-1-1v-4c0-.552083.447917-1 1-1zm0 0"/><path d="m9 15v2m8-14v2"/><path d="m16 5h2c.552083 0 1 .447917 1 1v6c0 .552083-.447917 1-1 1h-2c-.552083 0-1-.447917-1-1v-6c0-.552083.447917-1 1-1zm0 0"/><path d="m17 13v3m-14-13v16c0 1.104167.895833 2 2 2h16"/></g></svg>