<svg height="18" viewBox="0 0 18 18" width="18" xmlns="http://www.w3.org/2000/svg"><g fill="none" stroke="#fff" stroke-linecap="round" stroke-linejoin="round" stroke-width="2" transform="scale(.75)"><path d="m11 13v4m4-12v4m-12-6v16c0 1.104167.895833 2 2 2h16"/><path d="m8 13h7c.552083 0 1 .447917 1 1v2c0 .552083-.447917 1-1 1h-7c-.552083 0-1-.447917-1-1v-2c0-.552083.447917-1 1-1zm0 0"/><path d="m8 5h10c.552083 0 1 .447917 1 1v2c0 .552083-.447917 1-1 1h-10c-.552083 0-1-.447917-1-1v-2c0-.552083.447917-1 1-1zm0 0"/></g></svg>