<svg height="18" viewBox="0 0 18 18" width="18" xmlns="http://www.w3.org/2000/svg"><g fill="none" stroke="#fff" stroke-linecap="round" stroke-linejoin="round" stroke-width="2" transform="scale(.75)"><path d="m2 17c0 2.760417 2.239583 5 5 5s5-2.239583 5-5-2.5-5-5-3c-2.5-2-5 .239583-5 3m10 0c0 2.760417 2.239583 5 5 5s5-2.239583 5-5-2.5-5-5-3c-2.5-2-5 .239583-5 3"/><path d="m7 14c3.21875-2.911458 4.291667-8.75 5-12 1.661458 2.380208 4.9375 9 5 12"/><path d="m22 9c-4.291667 0-7.140625-2.328125-10-7 5.708333 0 10 4.671875 10 7"/></g></svg>