<svg height="18" viewBox="0 0 18 18" width="18" xmlns="http://www.w3.org/2000/svg"><g fill="none" stroke="#fff" stroke-linecap="round" stroke-linejoin="round" stroke-width="2" transform="scale(.75)"><path d="m10.098958 2.182292c1.255209-.25 2.546875-.25 3.802084 0m3.697916 1.526041c1.0625.71875 1.973959 1.635417 2.692709 2.703125m1.526041 3.6875c.25 1.255209.25 2.546875 0 3.802084m-1.526041 3.697916c-.71875 1.0625-1.635417 1.973959-2.703125 2.692709m-3.6875 1.526041c-1.255209.25-2.546875.25-3.802084 0m-3.697916-1.526041c-1.0625-.71875-1.973959-1.635417-2.692709-2.703125m-1.526041-3.6875c-.25-1.255209-.25-2.546875 0-3.802084m1.526041-3.697916c.71875-1.0625 1.635417-1.973959 2.703125-2.692709"/><path d="m13 12c0 .552083-.447917 1-1 1s-1-.447917-1-1 .447917-1 1-1 1 .447917 1 1zm0 0"/></g></svg>