<svg height="18" viewBox="0 0 18 18" width="18" xmlns="http://www.w3.org/2000/svg"><path d="m6.722656 9c0-1.1875.964844-2.140625 2.140625-2.140625 1.179688 0 2.144531.960937 2.144531 2.140625s-.964843 2.140625-2.144531 2.140625c-1.175781 0-2.140625-.960937-2.140625-2.140625zm2.140625-9c-4.203125 0-7.71875 2.878906-8.71875 6.769531-.007812.027344-.007812.050781-.007812.089844 0 .238281.191406.429687.429687.429687h3.628906c.167969 0 .324219-.097656.386719-.25.746094-1.621093 2.382813-2.753906 4.28125-2.753906 2.601563 0 4.71875 2.113282 4.71875 4.714844s-2.117187 4.714844-4.71875 4.714844c-1.898437 0-3.535156-1.125-4.28125-2.753906-.074219-.144532-.21875-.25-.386719-.25h-3.628906c-.238281 0-.429687.191406-.429687.429687 0 .027344.007812.054687.007812.089844.988281 3.890625 4.519531 6.769531 8.71875 6.769531 4.96875 0 9-4.03125 9-9s-4.03125-9-9-9zm0 0" fill="#343434"/></svg>