<svg height="18" viewBox="0 0 18 18" width="18" xmlns="http://www.w3.org/2000/svg"><path d="m5.769531 0c-3.175781 0-5.7499998 2.578125-5.7499998 5.761719v6.476562c0 3.183594 2.5742188 5.761719 5.7499998 5.761719h6.464844c3.171875 0 5.746094-2.578125 5.746094-5.761719v-6.476562c0-3.183594-2.574219-5.761719-5.746094-5.761719zm1.253907 3.808594c.082031-.003906.167968-.003906.253906.003906v.851562c-.453125-.023437-.890625.144532-1.207032.46875-.300781.421876-.445312.9375-.410156 1.457032v4.800781c-.035156.519531.109375 1.035156.410156 1.460937.3125.34375.765626.53125 1.234376.507813v.835937c-.6875.03125-1.355469-.207031-1.863282-.667968-.5-.5625-.746094-1.308594-.683594-2.058594v-4.9375c-.070312-.746094.167969-1.492188.65625-2.058594.441407-.402344 1.011719-.636718 1.609376-.664062m2.980468 0c.085938-.003906.171875-.003906.253906.003906v.851562c-.449218-.023437-.890624.144532-1.207031.464844-.300781.425782-.445312.941406-.40625 1.460938v4.800781c-.039062.519531.105469 1.035156.40625 1.460937.3125.34375.765625.53125 1.230469.507813v.835937c-.691406.039063-1.371094-.203124-1.882812-.667968-.5-.5625-.746094-1.308594-.679688-2.058594v-4.9375c-.03125-.371094.011719-.746094.128906-1.097656.117188-.355469.304688-.679688.550782-.960938.441406-.398437 1.007812-.632812 1.605468-.664062m2.992188.003906c.085937-.007812.171875-.007812.253906 0v.851562c-.449219-.023437-.894531.144532-1.210938.46875-.296874.429688-.433593.953126-.382812 1.476563v4.78125c-.039062.519531.105469 1.035156.402344 1.460937.316406.34375.769531.527344 1.234375.507813v.835937c-.683594.03125-1.351563-.207031-1.859375-.667968-.507813-.5625-.765625-1.304688-.707032-2.058594v-4.9375c-.066406-.75.171876-1.492188.664063-2.058594.441406-.398437 1.011719-.632812 1.605469-.660156zm0 0"/></svg>