<svg height="18" viewBox="0 0 18 18" width="18" xmlns="http://www.w3.org/2000/svg"><path d="m7.042969.769531-4.75 2.996094-1.523438 9.105469 5.339844 3.882812 2.285156-2.058594 2.125 1.644532 4.117188.890625 2.59375-5.875-3.015625-1.121094v3.980469h-10.429688v-10.429688h10.429688v5.210938l2.6875-3.292969-2.117188-4.304687-4 1.445312zm-3.117188 3.15625v10.148438h10.148438v-10.148438zm2.96875 1.144531c.570313-.03125 1.128907.1875 1.53125.597657l-.539062.628906c-.261719-.269531-.621094-.425781-.996094-.4375-.65625 0-1.128906.542969-1.128906 1.210937v.011719c0 .667969.460937 1.222657 1.128906 1.222657.445313 0 .714844-.171876 1.027344-.457032l.535156.550782c-.398437.460937-.988281.714843-1.597656.6875-.53125.007812-1.039063-.199219-1.417969-.574219-.375-.375-.582031-.886719-.570312-1.417969v-.011719c-.011719-.539062.199218-1.058593.582031-1.441406.382812-.378906.90625-.585937 1.445312-.570313m2.113281.0625h.859376v3.152344h1.6875v.714844h-2.546876zm-3.867187 7.066407h3.855469v.644531h-3.855469zm0 0" fill="#21d789"/></svg>