<svg height="18" viewBox="0 0 18 18" width="18" xmlns="http://www.w3.org/2000/svg"><path d="m9 0c-4.960938 0-9 4.023438-9 8.964844 0 4.945312 4.039062 8.964844 9 8.964844s9-4.019532 9-8.964844c0-4.941406-4.039062-8.964844-9-8.964844" fill="#fff"/><path d="m8.671875 9.125c-.089844.195312-.179687.386719-.261719.582031-.328125.734375-.691406 1.632813-.824218 2.207031-.046876.203126-.074219.457032-.074219.738282 0 .113281.007812.230468.015625.347656.472656.175781.976562.261719 1.480468.265625.460938-.003906.917969-.078125 1.355469-.222656-.101562-.089844-.195312-.191407-.28125-.296875-.578125-.734375-.902343-1.8125-1.410156-3.621094m-2.136719-3.644531c-1.101562.773437-1.824218 2.050781-1.828125 3.5.003907 1.425781.703125 2.6875 1.78125 3.464843.261719-1.09375.925781-2.097656 1.917969-4.105468-.066406-.175782-.132812-.351563-.203125-.523438-.273437-.6875-.671875-1.484375-1.023437-1.847656-.183594-.1875-.402344-.351562-.644532-.488281" fill="#91dc47"/><path d="m12.753906 13.894531c-.570312-.070312-1.039062-.15625-1.449218-.300781-.714844.351562-1.5.535156-2.296876.535156-2.851562 0-5.167968-2.304687-5.167968-5.148437 0-1.542969.683594-2.925781 1.761718-3.871094-.289062-.066406-.589843-.109375-.894531-.109375-1.515625.015625-3.117187.851562-3.785156 3.109375-.0625.328125-.046875.578125-.046875.871094 0 4.472656 3.640625 8.101562 8.132812 8.101562 2.75 0 5.179688-1.363281 6.652344-3.445312-.796875.199219-1.5625.292969-2.214844.296875-.246093 0-.476562-.015625-.691406-.039063" fill="#63b132"/><path d="m11.226562 12.324219c.050782.023437.164063.066406.320313.109375 1.066406-.777344 1.761719-2.035156 1.761719-3.453125-.003906-2.367188-1.925782-4.28125-4.300782-4.285157-.457031.003907-.914062.074219-1.351562.21875.875.992188 1.296875 2.410157 1.703125 3.960938 0 0 .128906.429688.351563 1 .21875.570312.53125 1.273438.875 1.785156.226562.34375.472656.589844.640624.664063" fill="#90b4fe"/><path d="m2.398438 4.261719c.769531-.476563 1.550781-.652344 2.238281-.644531.945312.003906 1.6875.292968 2.042969.492187.085937.050781.167968.105469.25.160156.65625-.289062 1.363281-.4375 2.078124-.4375 2.855469 0 5.167969 2.304688 5.167969 5.148438 0 1.433593-.589843 2.730469-1.535156 3.664062.242187.027344.488281.039063.734375.039063.898438 0 1.871094-.199219 2.601562-.808594.476563-.398438.875-.984375 1.097657-1.863281.042969-.335938.066406-.679688.066406-1.03125 0-4.472657-3.640625-8.101563-8.132813-8.101563-2.722656 0-5.132812 1.335938-6.609374 3.382813" fill="#5881d8"/></svg>