<svg height="18" viewBox="0 0 18 18" width="18" xmlns="http://www.w3.org/2000/svg"><path d="m8.570312.0390625c-4.71875 0-8.5624995 4.0078125-8.5624995 8.9335935 0 4.925782 3.8437495 8.933594 8.5624995 8.933594 4.722657 0 8.5625-4.007812 8.5625-8.933594 0-4.925781-3.839843-8.9335935-8.5625-8.9335935m0 .8593755c4.273438 0 7.738282 3.613281 7.738282 8.074218 0 .347656-.023438.691406-.0625 1.03125-.210938.871094-.589844 1.453125-1.042969 1.851563-.695313.613281-1.621094.808593-2.480469.808593-.230468 0-.464844-.015624-.699218-.042968 1.6875-1.738282 1.945312-4.484375.613281-6.53125s-3.875-2.808594-6.042969-1.8125c-.078125-.054688-.15625-.109375-.238281-.15625-.335938-.199219-1.046875-.488282-1.945313-.492188-.753906-.003906-1.492187.21875-2.128906.644532 1.453125-2.121094 3.796875-3.375 6.289062-3.375zm-1.351562 11c.125-.574219.472656-1.46875.78125-2.203126.085938-.207031.171875-.402343.25-.578124.484375 1.804687.792969 2.875 1.34375 3.609374.082031.105469.171875.203126.265625.296876-.414063.144531-.847656.21875-1.289063.21875-.480468 0-.957031-.089844-1.410156-.261719-.007812-.113281-.011718-.230469-.011718-.347657-.003907-.246093.019531-.492187.070312-.734374zm-1.046875.527343c-1.0625-.800781-1.691406-2.085937-1.691406-3.453125 0-1.390625.648437-2.691406 1.738281-3.488281.230469.136719.441406.300781.613281.488281.335938.359375.710938 1.152344.972657 1.839844.074218.183594.136718.359375.191406.519531-.941406 2.003907-1.570313 3.003907-1.824219 4.09375zm3.066406-2.5625c-.210937-.566406-.332031-.996093-.332031-.996093h-.003906c-.386719-1.546876-.785156-2.957032-1.617188-3.945313.414063-.144531.847656-.21875 1.285156-.21875 2.257813.003906 4.089844 1.914063 4.09375 4.269531-.003906 1.359375-.625 2.640625-1.675781 3.441406-.105469-.027343-.207031-.066406-.308593-.109374-.160157-.074219-.394532-.320313-.609376-.660157-.324218-.511719-.621093-1.214843-.832031-1.78125zm-.667969 7.183594c-4.273437 0-7.738281-3.613281-7.738281-8.074219 0-.292968.015625-.582031.046875-.867187.632813-2.25 2.15625-3.085938 3.597656-3.097657.292969 0 .582032.039063.855469.109376-1.855469 1.699218-2.214843 4.566406-.839843 6.707031 1.371093 2.140625 4.050781 2.886719 6.261718 1.742187.390625.144532.839844.230469 1.378906.300782.203126.027343.425782.039062.65625.039062.714844-.007812 1.421876-.109375 2.109376-.292969-1.445313 2.152344-3.808594 3.433594-6.328126 3.433594zm0 0" fill="#5881d8"/></svg>