<svg height="18" viewBox="0 0 18 18" width="18" xmlns="http://www.w3.org/2000/svg"><path d="m4.324219 16.347656c-.195313-.164062-.355469-.359375-.480469-.578125l-3.273438-5.679687c-.386718-.675782-.386718-1.503906 0-2.179688l3.273438-5.679687c.125-.21875.285156-.414063.480469-.574219l2.191406 3.960938-1.582031 2.851562c-.183594.328125-.183594.730469 0 1.058594l1.585937 2.863281zm9.832031-14.117187 3.269531 5.679687c.390625.675782.390625 1.503906 0 2.179688l-3.269531 5.679687c-.390625.675781-1.109375 1.089844-1.886719 1.089844h-2.566406l4.066406-7.332031c.183594-.328125.183594-.726563 0-1.054688l-4.066406-7.332031h2.566406c.777344 0 1.496094.414063 1.886719 1.089844m-9.078125-.945313c.25-.097656.515625-.144531.785156-.144531h2.988281l4.066407 7.332031c.179687.328125.179687.726563 0 1.054688l-4.066407 7.332031h-2.988281c-.292969 0-.582031-.058594-.84375-.167969l3.898438-7.230468c.125-.226563.140625-.664063.011719-.890626zm0 0"/></svg>