<svg height="18" viewBox="0 0 18 18" width="18" xmlns="http://www.w3.org/2000/svg"><path d="m12.277344 12.519531c.105468-.367187.066406-.707031-.113282-.957031-.164062-.230469-.441406-.363281-.773437-.378906l-6.289063-.082032c-.042968 0-.078124-.019531-.097656-.050781-.019531-.027343-.027344-.070312-.015625-.109375.019531-.0625.082031-.109375.148438-.113281l6.347656-.082031c.75-.035156 1.566406-.644532 1.855469-1.390625l.363281-.945313c.015625-.042968.019531-.082031.007813-.121094-.40625-1.851562-2.058594-3.230468-4.03125-3.230468-1.820313 0-3.363282 1.175781-3.914063 2.804687-.375-.277343-.839844-.410156-1.304687-.363281-.871094.085938-1.574219.789062-1.660157 1.660156-.019531.226563-.003906.445313.046875.648438-1.425781.042968-2.566406 1.207031-2.566406 2.644531 0 .125.011719.253906.027344.382813.007812.0625.058594.105468.121094.105468h11.609374c.066407 0 .128907-.042968.148438-.109375zm2.003906-4.042969c-.058594 0-.121094 0-.175781.003907-.039063 0-.078125.03125-.09375.074219l-.242188.851562c-.109375.367188-.066406.707031.109375.957031.164063.230469.441406.363281.773438.375l1.339844.082031c.039062 0 .074218.023438.097656.050782.019531.03125.023437.078125.015625.113281-.023438.0625-.082031.109375-.148438.113281l-1.398437.082032c-.753906.035156-1.566406.644531-1.851563 1.390624l-.105469.261719c-.019531.050781.015626.101563.074219.101563h4.792969c.054688 0 .105469-.035156.121094-.09375.082031-.296875.128906-.609375.128906-.929688 0-1.890625-1.542969-3.433594-3.4375-3.433594" fill="#404041"/></svg>