<svg height="18" viewBox="0 0 18 18" width="18" xmlns="http://www.w3.org/2000/svg"><path d="m16.171875 7.828125-14.171875 14.171875m2.020833-10c-.796875-.666667-1.166666-1.71875-.958333-2.734375.208333-1.020833.958333-1.84375 1.958333-2.140625.994792-.302083 2.072917-.03125 2.807292.703125-.734375-.734375-1.005208-1.8125-.703125-2.807292.296875-1 1.119792-1.75 2.140625-1.958333 1.015625-.208333 2.067708.161458 2.734375.958333.666667-.796875 1.71875-1.166666 2.734375-.958333 1.020833.208333 1.84375.958333 2.140625 1.958333.302083.994792.03125 2.072917-.703125 2.807292.734375-.734375 1.8125-1.005208 2.807292-.703125 1 .296875 1.75 1.119792 1.958333 2.140625.208333 1.015625-.161458 2.067708-.958333 2.734375.796875.666667 1.166666 1.71875.958333 2.734375-.208333 1.020833-.958333 1.84375-1.958333 2.140625-.994792.302083-2.072917.03125-2.807292-.703125.734375.734375 1.005208 1.8125.703125 2.807292-.296875 1-1.119792 1.75-2.140625 1.958333-1.015625.208333-2.067708-.161458-2.734375-.958333-.666667.796875-1.71875 1.166666-2.734375.958333-1.020833-.208333-1.84375-.958333-2.140625-1.958333-.302083-.994792-.03125-2.072917.703125-2.807292-1.151042 1.057292-2.942708.979167-4-.171875s-.979167-2.942708.171875-4m3.828125-4.171875 8.34375 8.34375" fill="none" stroke="#fff" stroke-linecap="round" stroke-linejoin="round" stroke-width="2" transform="scale(.75)"/></svg>