<svg height="18" viewBox="0 0 18 18" width="18" xmlns="http://www.w3.org/2000/svg"><path d="m12.613281 6.871094-.105469-.058594c.058594.136719.074219.253906.074219.355469.019531-.085938.03125-.171875.035157-.257813 0 .105469-.011719.210938-.039063.3125l.003906-.054687c-.03125.128906-.082031.25-.152343.359375l.035156-.035156c-.40625.679687-1.511719.828124-2.054688.125-.875-1.121094.015625-2.332032.140625-3.523438.15625-1.492188-.777343-2.9375-1.9375-3.804688.636719 1.03125-.203125 2.398438-.875 3.164063-.652343.738281-1.449219 1.359375-2.167969 2.03125-.773437.722656-1.519531 1.484375-2.15625 2.332031-1.269531 1.699219-2.050781 3.835938-1.476562 5.953125.570312 2.117188 2.40625 3.464844 4.476562 3.941407-1.046874-.453126-2.023437-1.601563-2.023437-2.773438-.003906-1.28125.808594-2.367188 1.816406-3.082031-.121093.457031-.1875.878906.113281 1.289062.277344.378907.769532.5625 1.230469.464844 1.078125-.238281 1.128907-1.425781.488281-2.117187-.632812-.683594-1.246093-1.457032-1.003906-2.449219.121094-.5.425782-.964844.8125-1.296875-.296875.78125.550782 1.550781 1.105469 1.9375.96875.664062 2.027344 1.167968 2.917969 1.949218.933594.824219 1.625 1.933594 1.484375 3.222657-.148438 1.394531-1.257813 2.367187-2.503907 2.855469 2.628907-.582032 5.347657-2.621094 5.402344-5.535157.046875-2.402343-1.601562-4.246093-3.640625-5.304687" fill="#ee4323"/></svg>