<svg height="18" viewBox="0 0 18 18" width="18" xmlns="http://www.w3.org/2000/svg"><path d="m9.007812.90625c-4.960937.003906-8.9999995 3.683594-9.00390575 8.207031.49609375.335938.78906275.488281 1.18359375.652344.804688-.5 1.738281-.765625 2.699219-.765625.289062 0 .578125.027344.859375.074219.898437.148437 2.464844.980469 3.117187 1.535156.148438-.304687.328125-.59375.53125-.867187.085938-.113282.175781-.222657.265625-.332032-.816406-.628906-2.566406-1.515625-3.640625-1.695312-.375-.0625-.753906-.09375-1.132812-.089844-.777344-.003906-1.546875.128906-2.269531.386719.585937-3.28125 3.714843-5.722657 7.394531-5.726563 1.996093 0 3.875.707032 5.285156 1.992188 1.125 1.027344 1.84375 2.308594 2.09375 3.722656-.726563-.257812-1.492187-.390625-2.277344-.394531h-.113281c-.214844.003906-.429688.015625-.644531.039062-.042969.003907-.082031.011719-.121094.015625-.097656.011719-.195313.027344-.289063.042969-.042968.003906-.085937.011719-.128906.019531-.09375.019532-.191406.039063-.289062.0625-.03125.007813-.066406.015625-.101563.023438-.121093.027344-.238281.0625-.359375.097656-.003906.003906-.011718.003906-.019531.007812-.265625.082032-.523437.179688-.777344.296876l-.019531.007812c-.117188.054688-.234375.113281-.347656.175781l-.027344.011719c-.597656.328125-1.125.746094-1.566406 1.234375l-.054688.0625c-.097656.109375-.191406.222656-.28125.339844-.089844.125-.175781.25-.257812.378906-.066406.105469-.125.210937-.183594.316406-.128906.230469-.238281.472657-.328125.722657-.21875.601562-.328125 1.238281-.316406 1.878906v.074218c.003906.050782.003906.101563.007812.152344.007813.078125.011719.160156.023438.242188.003906.050781.011719.105468.015625.15625.007812.03125.011718.066406.015625.097656.011719.085938.027343.171875.046875.257812.21875 1.050782.757812 2 1.535156 2.773438.28125-.425781.296875-.515625.582031-1.328125-.691406-.75-.710937-1.453125-.710937-2.492187 0-2.265626 1.945312-4.144532 4.421875-4.28125l.15625-.007813c1.003906-.023437 1.996093.25 2.835937.769531l.566406-.363281.617188-.289063c0-2.191406-.933594-4.25-2.632812-5.796874-1.699219-1.546876-3.953126-2.398438-6.359376-2.398438zm0 0" fill="#e0225c"/></svg>