<svg height="18" viewBox="0 0 18 18" width="18" xmlns="http://www.w3.org/2000/svg"><path d="m7.074219 4.164062c1.644531-.140624 2.109375-1.195312 4.035156-1.378906.941406-.085937 1.546875.113282 1.601563.433594.058593.3125-.40625.523438-.984376.5625-.785156.085938-1.125-.210938-1.179687-.476562-.578125.054687-.675781.308593-.648437.492187.058593.335937.773437.660156 1.984374.546875 1.378907-.109375 1.828126-.644531 1.714844-1.195312-.140625-.703126-1.195312-1.292969-3.09375-1.125-2.433594.226562-2.417968 1.335937-4.0625 1.476562-.675781.058594-1.054687-.097656-1.125-.363281-.042968-.269531.28125-.394531.675782-.421875.363281-.027344.800781.027344 1.011718.140625.152344-.085938.210938-.15625.183594-.253907-.058594-.253906-.5625-.367187-1.195312-.308593-1.226563.113281-1.226563.660156-1.183594.898437.15625.660156 1.097656 1.082032 2.265625.972656m8.238281 2.78125c-1.515625.351563-3.457031.578126-5.792969.578126-2.375 0-4.316406-.253907-5.835937-.578126-1.347656-.351562-2.082032-.730468-2.332032-1.125.125.886719.351563 1.746094.644532 2.5625-.335938.210938-.660156.492188-.941406.84375-.535157.671876-.773438 1.460938-.730469 2.234376.042969.773437.421875 1.40625 1.027343 1.898437.632813.492187 1.304688.632813 2.078126.492187.296874-.042968.632812-.210937.929687-.296874-.632813 0-1.167969-.210938-1.703125-.632813-.574219-.421875-.984375-1.023437-1.066406-1.742187-.140625-.675782 0-1.308594.378906-1.855469.085938-.113281.167969-.199219.265625-.28125.210937.535156.464844 1.039062.734375 1.53125.574219.886719 1.164062 1.660156 1.742188 2.488281.253906.492188.421874.984375.535156 1.464844.378906.535156.925781.914062 1.601562 1.109375.832032.296875 1.703125.410156 2.589844.410156h.097656c.886719 0 1.8125-.140625 2.671875-.421875.632813-.210938 1.167969-.5625 1.558594-1.125h.042969c.097656-.421875.253906-.957031.492187-1.449219.578125-.832031 1.167969-1.605469 1.746094-2.488281.773437-1.40625 1.304687-3.011719 1.601563-4.726562-.296876.421874-1.027344.816406-2.335938 1.109374m-11.628906-1.222656c1.519531.378906 3.460937.578125 5.792968.578125 2.378907 0 4.277344-.210937 5.796876-.578125 1.601562-.378906 2.375-.886718 2.375-1.347656 0-.351562-.351563-.675781-.984376-.929688.140626.097657.253907.253907.253907.421876 0 .492187-.730469.886718-2.195313 1.210937-1.347656.292969-3.09375.503906-5.203125.503906-2.039062 0-3.851562-.210937-5.160156-.492187-1.40625-.351563-2.152344-.730469-2.152344-1.207032 0-.210937.097657-.382812.378907-.578124-.882813.351562-1.347657.632812-1.347657 1.070312.042969.492188.828125.984375 2.445313 1.347656" fill="#28334c"/></svg>