<svg height="18" viewBox="0 0 18 18" width="18" xmlns="http://www.w3.org/2000/svg"><g fill="none" stroke="#fff" stroke-linecap="round" stroke-linejoin="round" stroke-width="2" transform="scale(.75)"><path d="m12 20c4.416667 0 8-3.583333 8-8s-3.583333-8-8-8-8 3.583333-8 8 3.583333 8 8 8"/><path d="m12 14c1.104167 0 2-.895833 2-2s-.895833-2-2-2-2 .895833-2 2 .895833 2 2 2m0-12v2m0 18v-2m5 .661458-1-1.729166m-5-8.661459-4-6.932291m13.661458 13.661458-1.729166-1m-15.59375-9 1.729166 1m8.932292 4h8m-20 0h2m16.661458-5-1.729166 1m-15.59375 9 1.729166-1m11.932292-12.661458-1 1.729166m-5 8.661459-4 6.932291"/></g></svg>