<svg height="18" viewBox="0 0 18 18" width="18" xmlns="http://www.w3.org/2000/svg"><path d="m9.671875 17.914062c-.195313-.136718-.40625-.257812-.625-.355468-.046875-.023438-.09375-.035156-.140625-.042969-.042969 0-.265625-.046875-.496094-.097656-.5-.105469-1.28125-.261719-1.792968-.359375-.554688-.105469-.746094-.117188-2.003907-.140625-.960937-.011719-1.070312-.015625-1.097656-.039063-.03125-.027344-.023437-.074218.011719-.078125.03125-.007812.546875-.0625 1.027344-.113281.101562-.011719.367187-.015625.792968-.015625.339844-.011719.683594 0 1.019532.042969.210937.023437.460937.046875.554687.054687.0625.007813.128906.015625.191406.027344.019531 0 .023438 0 .015625-.03125-.007812-.027344-.019531-.050781-.035156-.070313-.109375-.078124-.234375-.132812-.363281-.164062-.085938-.023438-.308594-.085938-.488281-.140625-.652344-.1875-1.457032-.394531-1.722657-.4375-.15625-.027344-.464843-.0625-.53125-.0625-.019531 0-.035156 0-.03125.011719 0 .007812.148438.125.328125.265625.175782.140625.324219.261719.324219.269531.003906.007812-.058594.011719-.140625-.027344-.046875-.023437-.160156-.082031-.253906-.140625-.226563-.132812-.457032-.246093-.699219-.347656-.125-.046875-.15625-.074219-.140625-.132813l.011719-.035156h.253906c.140625 0 .339844 0 .449219.015625.25.015625.652344.046875.710937.054688l.707031.132812c.023438.003907.046876.003907.066407 0 .015625-.046875.015625-.09375 0-.140625-.042969-.042968-.089844-.082031-.140625-.117187-.117188-.089844-.121094-.09375-.113282-.140625.011719-.046875.027344-.09375.046876-.140625.042968-.089844.046874-.105469.03125-.125-.015626-.023438-.320313-.25-.691407-.527344-.371093-.273437-.84375-.617187-1.039062-.765625l-.433594-.300781c-.066406-.035157-.105469-.105469-.097656-.179688 0-.082031-.03125-.160156-.085938-.21875-.082031-.046875-.171875-.085937-.265625-.113281-.089844-.023438-.171875-.0625-.253906-.109375-.023438-.03125-.03125-.167969-.011719-.46875 0-.089844 0-.324219-.007812-.546875-.015625-.441406-.035157-1.035156-.054688-1.890625-.011719-.523437-.011719-.597656 0-.640625.019531-.042969.019531-.09375 0-.140625-.007812-.011719-.054687-.082031-.105469-.152344-.039062-.050781-.074218-.101562-.101562-.160156.007812-.109375.023438-.222656.046875-.332031.027344-.105469.039063-.210938.042969-.316406-.15625-.039063-.316406-.066407-.476563-.082032-.027343 0-.050781-.011718-.070312-.03125-.007813-.035156-.007813-.070312 0-.109375 0-.046875.039062-.410156.074219-.804687.074218-.84375.070312-.820313.097656-.828125.023437-.007813.71875.164062.78125.1875.027344.011719.039062-.015625.070312-.183594.03125-.144531.066406-.285156.117188-.421875.03125-.082031.027344-.085938-.0625-.28125-.035156-.085938-.109375-.246094-.15625-.363281-.050782-.117188-.09375-.214844-.097656-.21875-.003907-.003907-.03125 0-.054688.015625-.125.078125-.140625.078125-.171875-.007813-.011719-.03125-.035156-.097656-.054687-.140625-.058594-.128906-.050782-.140625.074218-.210937.035156-.015625.066406-.039063.066406-.046875 0-.011719-.054687-.179688-.121093-.378906-.25-.726563-.457031-1.46875-.621094-2.21875-.046875-.257813-.046875-.308594-.015625-.429688.007812-.042969.019531-.082031.039062-.117188.070313-.019531.144532-.011718.210938.023438.117188.058594.164062.128906.546875.800781.15625.273438.296875.496094.296875.492188.125-.164063.242188-.335938.34375-.511719.125-.207031.261719-.40625.410156-.59375.140625-.1875.164063-.207031.265625-.238281l.082031-.027344.09375.058594c.046876.027343.089844.0625.128907.097656l.066406.058594.117187-.03125c.195313-.054688.664063-.210938.890626-.300781.253906-.101563.5-.214844.742187-.339844.082031-.046875.167969-.085938.253906-.117188.101563-.019531.171875.0625.15625.175782-.011719.082031-.042969.15625-.089843.222656-.035157.054687-.410157.410156-.613282.582031-.050781.042969-.097656.089844-.140625.140625.050781.238281.121094.46875.210938.691406.019531.046875.046875.085938.054687.085938.011719 0 .476563-.28125 1.042969-.636719 1.640625-1.023437 1.84375-1.148437 1.871094-1.148437.058593.027343.105469.078124.132812.140624 0 .015626-.203125.148438-1.484375.984376-.210937.140624-.394531.253906-.40625.265624-.007812.007813-.011718.019532.03125.019532.089844-.007813.175782.035156.230469.105468.085937.066407.136719.164063.140625.273438 0 .113281-.03125.164062-.164062.28125-.066407.058594-.214844.207031-.332032.332031-.125.125-.234375.261719-.328125.40625-.15625.242188-.296875.496094-.421875.753907-.28125.5625-.355468.703124-.4375.789062-.148437.128906-.320312.234375-.5.3125-.0625.027344-.121094.0625-.171875.105469-.019531.027343-.027343.0625-.023437.097656-.003906.085937-.039063.171875-.105469.230469-.074219.074218-.097656.140625-.1875.503906-.078125.316406-.085937.359375-.058594.378906.027344.019532.234375.070313.5.140625.269531.070313.5.128907.511719.140625.011719.003906.023438.019532.023438.03125 0 .011719-.03125.132813-.070313.269532-.097656.351562-.140625.507812-.1875.761718-.027344.121094-.054687.234375-.0625.246094-.003906.011719-.023437.023438-.140625.015625-.050781-.003906-.105469-.007813-.15625-.015625-.03125-.007812-.027344.015625.015625.304688.046875.289062.042969.304687.054687.304687.035157-.042969.0625-.089844.082032-.140625.183594-.386719.417968-.746094.703125-1.0625.179687-.203125.640625-.660156.742187-.746094.246094-.183594.503906-.339844.773438-.472656.035156-.015625.101562-.050781.152344-.078125.148437-.082031.308593-.140625.476562-.171875.363281-.066406.734375-.074219 1.101562-.015625.371094.070313.714844.234375 1.011719.46875.117188.078125.21875.179687.292969.300781.03125.050782.066406.097656.109375.140625.011719.011719.050781 0 .140625-.015625.257812-.058594.53125-.058594.789062 0 .179688.03125.347657.101563.492188.210938.226562.121094.429688.292968.585938.503906.367187.445312.507812.671875.613281.972656.019531.066406.042969.113282.046875.101563.027344-.074219.085937-.25.085937-.265625-.039062-.082032-.085937-.160156-.132812-.234375-.074219-.117188-.136719-.230469-.140625-.246094-.007813-.011719.015625-.0625.085937-.175781.054688-.082032.117188-.171875.140625-.199219.027344-.027344.039063-.050781.019532-.089844-.023438-.042969-.027344-.046875-.035157-.046875-.03125.011719-.058593.023438-.089843.039063-.089844.046875-.140626.046875-.171876.011719-.015624-.015626-.210937-.363282-.4375-.769532-.324218-.589844-.40625-.746094-.394531-.761718.011719-.015626.199219-.082032.71875-.238282.105469-.027344.203125-.0625.300781-.101562.023438-.023438.019532-.035156-.0625-.308594-.125-.421875-.097656-.386719-.234374-.449219-.136719-.0625-.1875-.113281-.21875-.222656-.003907-.03125-.015626-.058594-.035157-.085937-.097656-.042969-.195312-.078126-.296875-.105469-.085937-.023438-.167968-.054688-.25-.089844-.292968-.132813-.566406-.304687-.816406-.511719-.085938-.089844-.195312-.152344-.3125-.191406-.308594-.132812-.628906-.242188-.953125-.332031-.0625-.015625-.125-.035157-.1875-.058594-.078125-.042969-.089844-.105469-.042969-.257813.011719-.054687.039063-.105468.078125-.140624.066407-.066407.105469-.082032.4375-.15625.226563-.058594.460938-.097657.695313-.113282.179687-.007812.175781-.007812.113281-.117187-.058594-.109375-.109375-.164063-.421875-.46875-.273438-.28125-.574219-.535157-.898438-.761719-.140624-.101562-.199218-.160156-.222656-.246094-.035156-.121094.023438-.25.140625-.304687.070313-.039063.148438-.058594.226563-.054688.167968 0 .230468.039063.714844.359375.546874.359375.5625.367188.5625.363282 0-.003907-.234376-.238282-.527344-.527344-.667969-.664063-.621094-.613282-.667969-.714844-.035156-.066406-.050781-.140625-.046875-.210938v-.132812l.0625-.0625c.050781-.046875.074219-.0625.101562-.0625.0625 0 .09375-.035156.105469-.121094 0-.101562.066407-.191406.160157-.2187498.171874-.0078124.34375.0078126.511718.046875.070313.0234378.476563.2343748.734375.3828128.453125.257812.875.5625 1.265625.90625.082032.078125.105469.09375.097656.070312-.019531-.066406-.226562-.574218-.324218-.789062-.140625-.304688-.140625-.394532-.046875-.535156.042969-.070313.128906-.1093755.210937-.0898442.128906.0117187.246094.0742182.332032.1718752.269531.363281.503906.746093.703124 1.152343.371094.691407.539063 1.265626.644532 2.238282.035156.195312.035156.394531 0 .589844-.019532.046874-.027344.097656-.023438.148437.011719.097656.335938.992187.464844 1.292969.0625.140625.082031.171875.109375.171875.03125 0 .265625-.074219.5625-.167969.714844-.21875.671875-.207031.6875-.191406.019531.019531-.09375 1.53125-.117187 1.582031-.019532.046875-.03125.039063-.292969.140625-.078125.027344-.140625.050781-.152344.054688.023437.046874.058594.089843.09375.125.125.132812.238281.273437.347656.421874.023438.046876.015625.074219-.042969.140626-.054687.0625-.050781.0625 0 .210937.03125.082031.042969.167969.027344.253906 0 .089844-.011718.199219-.015625.246094-.003906.117187.019531.238281.066407.347656.042968.136719.039062.28125-.015626.410157-.066406.242187-.152343.476562-.261718.703124-.132813.292969-.167969.386719-.316406.761719-.140626.320313-.234376.65625-.28125 1-.027344.160157-.078126.398438-.109376.527344-.039062.164063-.070312.332031-.089843.5-.011719.183594-.042969.363281-.09375.542969-.011719.035156-.082031.207031-.15625.375-.058594.121094-.105469.25-.140625.378906 0 .042969-.019532.183594-.027344.316406-.015625.085938-.015625.175782 0 .261719.117188 0 .234375-.019531.347656-.054687l.339844-.066407c.03125 0 0 .042969-.089844.105469-.15625.121094-.300781.253906-.433594.398438-.296874.320312-.378906.398437-.378906.347656.058594-.132813.128906-.261719.210938-.386719l.085937-.132813c.015625-.023437.003907-.019531-.84375.34375-.785156.335938-1.230469.546876-1.765625.824219-.226562.121094-.269531.140625-.269531.171875 0 .046875.035156.390625.042969.394532.007812.003906.183594-.082032.402344-.191407.492187-.246093 1.265624-.597656 1.601562-.726562.257812-.101563 1.183594-.410157 1.300781-.4375.089844-.023438.1875-.035157.28125-.035157-.105469.085938-.21875.15625-.339843.214844-.03125.011719-.046876.019532-.039063.023438.007813.007812-.046875.054687-.132813.121094-.085937.0625-.152343.117187-.15625.121093-.007812.007813-.015624.011719-.027343.011719-.015625 0-.015625 0 0-.019531.011719-.007813.019531-.015625.035156-.015625.011719 0 .015625 0 .015625-.011719.019531-.03125.042969-.058594.070312-.078125.035157-.042969.046876-.058594.027344-.042969-.03125.023438-.058594.046875-.085937.074219-.023438.027344-.050781.054688-.082031.074219-.019532.015625-.027344.027343-.019532.03125.007813.007812 0 .019531-.011718.035156-.007813.015625-.027344.019531-.039063 0-.007813-.023437-.011719-.019531-.003906 0 .003906.015625-.019531.042969-.054688.078125-.03125.035156-.050781.058594-.042969.058594.007813 0 .085938-.011719.171876-.027344.085937-.015625.234374-.042969.332031-.050781.363281-.042969.421875-.046875.421875-.023438-.070313.027344-.144532.050781-.21875.0625-1.160156.28125-2.296875.644531-3.402344 1.089844-.433594.1875-.929688.445313-.921875.480469 0 .011718 0 .019531-.007813.019531-.074218.046875-.144531.101563-.210937.160156-.042969.035157-.085937.066407-.132813.097657-.046874.027343-.117187.070312-.160156.097656-.027344.019531-.058594.039062-.089844.050781-.023437.003906-.042968.015625-.0625.023437-.066406.027344-.136718.035157-.203124.023438-.113282 0-.15625 0-.140626-.015625.0625-.089844.136719-.171875.214844-.25.054688-.054687.117188-.09375.1875-.125.058594-.023437.117188-.046875.171875-.078125.074219-.042969.738281-.445312.773438-.472656.035156-.023438-.007813-.027344-.203125-.105469-.195313-.078125-.234375-.089844-.25-.078125-.195313.15625-.378906.320312-.554688.5-.125.121094-.28125.269531-.347656.324219-.128906.105469-.140625.125-.140625.199219 0 .023437-.007813.050781-.015625.074218-.007812.027344-.015625.03125-.070312.027344-.050782 0-.09375-.023438-.125-.058594zm.28125-.574218c.128906-.117188.363281-.308594.589844-.484375.074219-.058594.132812-.109375.125-.117188-.066407-.03125-.132813-.058593-.199219-.085937l-.328125-.140625-.140625-.058594-.074219.027344c-.066406.027343-.140625.03125-.210937.019531-.078125 0-.160156-.011719-.1875-.015625-.03125-.003906-.078125 0-.21875.0625-.089844.035156-.308594.121094-.488282.1875-.179687.0625-.328124.121094-.328124.125.054687.023437.109374.042969.167968.054687.367188.125.722656.289063 1.058594.484376.027344.019531.058594.035156.09375.042968.050781-.027344.097656-.0625.140625-.105468zm-1.140625-.074219c0-.011719 0-.019531-.011719-.019531s-.011719.007812-.011719.019531c0 .007813 0 .019531.011719.019531s.019531-.007812.019531-.019531zm-.234375-.109375c-.085937-.042969-.191406-.09375-.230469-.109375-.070312-.027344-.074218-.027344-.128906 0-.117188.046875-.109375.050781.195312.125.15625.039063.292969.070313.304688.070313-.042969-.03125-.089844-.0625-.140625-.085938m-.785156-.09375c.023437-.039062.058593-.074219.097656-.101562.140625-.109376.289063-.203126.445313-.28125.050781-.023438.171874-.082032.265624-.128907.167969-.085937.339844-.15625.519532-.203125.066406-.015625.128906-.03125.140625-.035156.039062-.011719-.074219-.027344-.253907-.035156-.132812-.007813-.265624 0-.398437.019531-.117187.019531-.238281.027344-.359375.023437-.148438-.007812-.191406-.023437-.1875-.058593.007812-.035157.039062-.027344.140625-.054688.207031-.058593.417969-.09375.632813-.113281.097656 0 .109374-.0625.007812-.0625-.148438-.054688-.289062-.125-.421875-.210938-.148437-.105468-.277344-.238281-.375-.398437-.070313-.117187-.152344-.230469-.246094-.332031-.011719 0-.023437.007812-.039062.0625-.015625.054687-.046875.140625-.078125.226562-.039063.078125-.058594.160156-.058594.246094-.003906.054688.003906.109375.027344.15625.050781.113281.046875.128906-.117188.316406l-.152344.167969.011719.089844c-.003906.066406.019531.132812.0625.183593.015625.011719.019531.050782.019531.246094 0 .261719 0 .28125.101563.304688.140625.046875.160156.042968.203125-.03125zm3.808593-.292969c.074219-.035156.132813-.101562.160157-.179687.019531-.066406.007812-.140625-.03125-.199219-.035157-.070313-.042969-.148437-.023438-.222656.015625-.046875.035157-.09375.058594-.132813.019531-.027344.035156-.054687.046875-.085937 0-.023438-.28125-.703125-.292969-.71875-.011719-.019531-.050781.019531-.148437.160156-.105469.140625-.222656.269531-.351563.382813-.078125.050781-.160156.097656-.242187.140624-.101563.039063-.195313.09375-.28125.15625.042968.007813.082031.011719.125.011719.242187.011719.484375.058594.714844.140625.121093.050782.15625.078125.171874.140625.015626.066407.015626.15625 0 .15625-.015624 0-.113281-.03125-.226562-.070312-.117188-.039063-.375-.109375-.5625-.15625-.453125-.109375-.449219-.109375-.46875-.085938-.023438.03125-.023438.074219 0 .105469.015625.011719.203125.074219.421875.140625.257813.070313.503906.167969.734375.296875.035156.023438.074219.042969.113281.054688.03125-.007813.0625-.019532.09375-.035157zm-4.460937-.46875c.042969-.140625.042969-.140625.113281-.1875.15625-.101562.179688-.128906.191406-.222656-.003906-.132813-.023437-.261719-.0625-.386719-.039062-.140625-.023437-.203125.089844-.390625.113282-.191406.125-.238281.089844-.296875-.054688-.074218-.117188-.140625-.1875-.207031-.085938-.105469-.199219-.191406-.324219-.25-.21875-.117187-.222656-.117187-.230469-.089844-.027343.039063-.054687.082031-.082031.121094-.027343.035156-.050781.070313-.066406.113281 0 0 0 .015625-.023437.019532-.019532.007812-.019532.019531-.015626.027343.003907.007813 0 .011719 0 .011719s-.015624.011719-.019531.023438c-.007812.019531-.023437.03125-.039062.039062-.019531.011719-.039063.03125-.050781.054688-.09375.132812-.203126.25-.324219.359374-.023438 0-.023438-.054687 0-.214843l.035156-.1875c.007813-.046875.015625-.179688.023437-.3125.019532-.234375 0-.472657-.054687-.703125l-.027344-.09375-.191406-.09375c-.105469-.050782-.191406-.097656-.195313-.101563-.023437-.019531-.046874-.039062-.070312-.058593-.066406-.050782-.125-.105469-.183594-.164063-.074218-.082031-.113281-.117187-.113281-.101563 0 .015626.003906.03125.015625.039063.007812.011719.007812.015625 0 .011719-.011719 0 0 .140625.027344.214844.015625.039062.042968.074218.078125.101562.058593.042969.066406.0625.023437.085938-.097656.039062-.382812-.1875-.5625-.453126-.097656-.121093-.152344-.269531-.15625-.421874-.035156-.207032-.035156-.21875-.046875-.300782 0-.027344-.003906-.058594-.011719-.085937-.03125-.222657-.03125-.445313 0-.667969l.007813-.050781-.046875.046875c-.097656.113281-.179688.238281-.25.367187-.035156.058594-.078125.132813-.097656.160157-.046875.074218-.09375.152343-.132813.234374-.058593.136719-.128906.273438-.207031.40625-.015625 0-.015625 0 0-.28125.019531-.367187.019531-.367187.074219-.503906.027343-.0625.046875-.128906.066406-.191406.003906-.035156.015625-.066406.03125-.097656.015625-.027344.023437-.058594.03125-.089844.042969-.144531.097656-.289062.160156-.421875.054688-.117187.132813-.292969.191407-.414063.074218-.1875.175781-.367187.304687-.527343.027344-.035157.027344-.039063.011719-.140625-.011719-.125-.035156-.253906-.0625-.378906-.007813-.015626-.011719-.035157-.011719-.054688 0-.03125-.019531-.132812-.035156-.230469-.015625-.097656-.046875-.269531-.066407-.378906-.007812-.074219-.023437-.148437-.046874-.21875-.035157-.019531-.066407-.027344-.105469-.027344l-.128907-.019531-.101562-.015625c-.023438 0-.050781-.007813-.074219-.011719-.089843-.019531-.179687-.03125-.269531-.039062-.046875-.003906-.09375-.011719-.140625-.019532l-.082031-.015624c-.167969-.019532-.375-.046876-.421875-.058594-.046875-.011719-.089844-.015625-.140625-.019532l-.121094-.011718-.089844-.015625c-.03125 0-.070312-.007813-.085937-.011719-.046875-.007812-.191407-.023438-.230469-.023438-.035156 0-.03125.007813-.050781.070313-.011719.035156-.035157.140625-.054688.230469-.039062.179687-.035156.214844.019531.300781.121094.175781.132813.25.132813.648437 0 .171876.011719.492188.023437.714844.011719.222656.023438.488282.027344.582032.003906.097656.007813.203124.011719.230468s.007813.152344.011719.273438c.007812.253906.015625.378906.027344.464844.003906.039062 0 .074218-.007813.113281-.007813.035156-.015625.078125-.019531.117187l-.011719.085938c-.007813.074218-.023437.148437-.046875.222656-.023438.085938-.027344.175781-.011719.265625l.019531.058594.140626.070312c.078124.035157.140624.066407.148437.066407.070313-.050782.136719-.105469.199219-.167969.078125-.078125.117187-.101563.152344-.082031.03125.015624.027343.046874-.027344.164062-.03125.070312-.0625.144531-.085938.21875l-.03125.113281.078125.121094c.027344.042969.058594.085937.09375.125.011719 0 .019531.019531.023438.03125.0625.09375.144531.171875.242187.226563.058594.039062.113282.074218.117188.074218s.042968.03125.09375.0625c.03125.027344.066406.046875.105468.0625.019532.011719.039063.023438.054688.039063.039062.035156.078125.058593.125.082031.046875.027344.105469.066406.132812.089844.027344.019531.070313.050781.09375.066406.046876.027344.089844.058594.128907.09375.011719.011719.078125.0625.152343.117188.070313.050781.15625.113281.1875.140624l.140626.101563c.042968.027344.097656.070313.121093.089844.039063.035156.082031.066406.128907.09375.035156.023437.066406.046875.097656.070312.027344.023438.054687.046875.085937.066407.078125.046874.152344.105468.21875.171874.035157.066407.042969.140626.023438.214844-.011719.050782-.019531.101563-.019531.152344-.015626.0625.007812.128906.054687.171875.050781.050781.078125.125.074219.199219 0 .140625 0 .140625.203125.1875.152343.03125.210937.046875.324219.078125l.171874.042969c.035157.007812.074219.019531.109376.03125.011718 0 .089843.035156.175781.0625l.210937.074218c.019532.011719.042969.019532.066406.023438.023438-.035156.035157-.070313.042969-.109375zm2.882813-.027343c.070312-.035157.027343-.164063-.050782-.140626-.015625 0-.125.007813-.238281.015626-.21875 0-.242187.011718-.226563.0625.015626.054687.050782.054687.140626.074218.125.015625.25.011719.371093-.011718zm-.476563-.332032c.015625 0 .097656-.019531.183594-.035156.179687-.023438.359375-.0625.535156-.121094.5625-.179687.875-.398437 1.132813-.785156.125-.195312.234374-.398438.328124-.609375.050782-.105469.078126-.222656.085938-.339844-.042969.011719-.085938.027344-.128906.046875-.058594.023438-.121094.039063-.183594.050782-.058594 0-.066406 0-.097656-.027344-.058594-.054688-.042969-.082032.082031-.121094.398437-.125.726563-.40625.90625-.78125.027344-.054688.054687-.109375.089844-.160156.035156-.019532.070312-.03125.109375-.03125.164062.011718.320312-.070313.40625-.210938.082031-.113281.148437-.242187.195312-.375.078125-.183594.085938-.261718.03125-.28125-.054687-.019531-.117187-.019531-.175781 0-.019531.015625-.023437.035156-.027344.097656-.003906.046876-.011719.09375-.027343.140626-.015626.03125-.023438.058593-.019532.0625.003906.003906 0 .015624-.019531.023437-.015625.011719-.015625.015625 0 .011719s.019531 0 0 .007812c-.007813.011719-.015625.023438-.019531.035156-.007813.019532-.019532.03125-.03125.042969-.011719.007813-.023438.019531-.027344.035157 0 .015624-.03125.050781-.039062.039062-.011719-.007812-.015626.035156-.042969.0625l-.046875.046875-.007813-.039063c-.011719-.085937.007813-.171874.058594-.242187.027344-.042969.042969-.085937.054687-.132813-.03125-.09375-.097656-.171874-.1875-.21875-.042968-.015624-.09375-.023437-.140624-.027343-.183594-.027344-.363282-.082031-.535157-.160157-.140625-.054687-.273437-.128906-.394531-.21875l-.210938-.140624c-.21875-.144532-.429687-.300782-.625-.476563-.140624-.140625-.257812-.300781-.351562-.476563-.023438-.0625-.035156-.070312-.050781-.03125 0 .015626-.011719.023438-.019531.019532-.007813-.003906 0 0 0 .015625v.011719c0-.007813-.011719 0 0 .011718.011718.011719 0 .019532 0 .011719 0-.003906-.011719 0-.007813.015625.007813.011719 0 .015625 0 .011719 0-.007813-.011719 0 0 .011719.011719.011718 0 .019531 0 .011718 0-.003906-.011719 0 0 .015625.011719.011719 0 .015625-.007813.007813-.007812-.003906-.015624 0 0 0 .015626 0-.023437.070312-.039062.058594-.011719-.015626 0 0 0 .007812s-.058594.121094-.074219.105469c.011719.03125-.15625.203125-.3125.320312-.226562.152344-.492187.234375-.765625.242188h-.070312l.09375-.078125.125-.109375c.015625-.019531.070312-.0625.121094-.101563.09375-.070312.175781-.15625.246093-.25 0 0-.039062 0-.082031.03125-.117188.070313-.46875.25-.601562.308594-.179688.070312-.363282.125-.554688.164062-.453125.066407-.914062.109376-1.375.125-.148438-.003906-.296875.015626-.4375.0625-.34375.089844-.671875.25-.953125.46875-.066406.046876-.101563.128907-.089844.207032.101563.320312.257813.617187.457031.886718.027344.050782.082032.082032.140626.089844.007812 0 .011718 0 .007812.011719s0 .007813.019531.011719c.097657 0 .191407.015625.28125.042968.066407.078126.113281.167969.140625.265626 0 0 0 .011718 0 0 0-.007813.027344.011718.039063.035156.023437.035156.046875.066406.070312.097656.019531.019531.03125.039062.039063.066406 0 0 .007812.019532.027344.035156.015624.015626.03125.023438.03125.019532.074218.054687.148437.109375.21875.171875.007812 0 .082031.054687.167968.109375.140625.085937.269532.1875.386719.300781.019531.023437.042969.042969.070313.058594.078124.066406.148437.144531.210937.230469.039063.054687.082031.105468.125.15625.070313.082031.15625.195312.195313.25.019531.035156.042968.066406.070312.09375 0 0 .042969.054687.09375.171874.042969.097657.117188.179688.210938.234376.042968.035156.089843.066406.097656.078124.058594.035157.121094.066407.183594.097657.117187.066406.25.105469.382812.113281.128906.003906.253906 0 .382812-.011719zm2.628906-.074218c.070313-.03125.140625-.0625.28125-.128907.050781-.023437.128907-.058593.175781-.074219.082032-.035156.21875-.089843.316407-.132812l.152343-.066406c.050782-.023438.140626-.0625.183594-.085938.03125-.015625.066406-.03125.101563-.042968.046875-.015626.097656-.035157.140625-.058594l.191406-.085938c.039062-.019531.082031-.039062.125-.050781.035156-.011719.066406-.027344.09375-.042969.078125-.042968.160156-.074218.242188-.101562.089843-.027344.175781-.0625.261718-.105469.011719-.007813.015625-.058594.015625-.167969 0-.082031 0-.207031.011719-.28125.015625-.074218.019531-.183594.023438-.265625-.003907-.074219.011718-.148437.042968-.214843.019532-.039063.046875-.101563.0625-.140626.015625-.039062.078125-.171874.140625-.292968.09375-.164063.148438-.347656.167969-.535156.003906-.035157.007812-.066407.011719-.101563 0-.011719.007812-.058594.011719-.101563.003906-.035156.007812-.070312.015624-.105468 0-.019532.011719-.074219.015626-.128906.007812-.050782.015624-.109376.019531-.128907.003906-.015625.007812-.058593.015625-.09375.011718-.085937.074218-.40625.113281-.5625 0-.035156.058594-.269531.074219-.355469.011718-.042968.03125-.128906.050781-.1875.011719-.039062.023437-.074218.027344-.113281.046875-.222656.121093-.4375.226562-.640625.0625-.125.117188-.253906.164063-.382812.015625-.035156.03125-.066406.046875-.09375.03125-.0625.0625-.125.085937-.1875.023438-.0625.054688-.125.089844-.1875.066406-.136719.109375-.285156.121094-.4375 0-.019532.015625-.0625.023437-.097656.023438-.054688.023438-.117188 0-.171876-.1875-.128906-.386719-.238281-.597656-.320312-.089844-.03125-.132813-.0625-.109375-.085938.066406-.058593.164062-.074218.246094-.039062.023437.007812.046875.015625.050781.007812.046875.011719.09375.023438.140625.039063.078125.027344.140625.046875.152344.046875.011718 0 .011718-.011719.011718-.023438.003907-.035156.011719-.070312.023438-.105468.023438-.085938.003906-.179688-.058594-.246094-.035156-.042969-.054687-.097656-.054687-.15625v-.039062c.007812-.03125.023437-.0625.046875-.089844.015625-.023438.03125-.046875.042968-.074219-.148437-.164063-.308593-.324219-.476562-.46875-.050781-.023437-.109375-.015625-.15625.011719-.058594.03125-.375.15625-.492188.195312-.089843.03125-.179687.0625-.265624.101563-.015626.007812-.03125.015625-.050782.019531-.007812 0-.476562.171875-.683594.253906l-.171874.0625c-.070313.023438-.082032.039063-.0625.105469.027343.121094.023437.140625-.085938.304687-.050781.078126-.105469.15625-.121094.171876-.011718.019531-.019531.042968-.019531.066406.039063.125.101563.242187.179687.347656.035157.042969.058594.089844.078126.140625.03125.105469.039062.140625.023437.128906s-.015625.023438-.015625.066407v.011718c0-.003906-.050781.058594-.09375.1875-.09375.292969-.121094.460938-.082031.539063.054687.132812.101562.269531.132812.410156.046875.128906.074219.269531.078125.40625 0 .082031.023438.125.066406.125.035157.003906.066407.015625.101563.027344l.195313.074219c.0625.023437.121093.050781.179687.082031.027344.019531.058594.035156.089844.050781.03125.019531.0625.042969.089843.066406.039063.03125.085938.070313.101563.085938.109375.105468.207031.21875.296875.339844.078125.109374.066406.125-.050781.070312-.179688-.082031-.367188-.136719-.5625-.15625l-.40625-.015625c-.28125-.007813-.308594-.007813-.28125.011719.203125.152344.390625.324218.5625.507812.03125.039063.066406.082032.074219.09375.058593.074219.109374.152344.15625.238282.019531.039062.082031.230468.121093.367187.035157.136719.058594.277344.070313.421875 0 .089844 0 .097656-.011719.09375s-.066406-.078125-.140625-.28125c-.015625-.039062-.035156-.082031-.058594-.121094-.023437-.035156-.046875-.070312-.066406-.109375-.089844-.144531-.207031-.273437-.34375-.378906-.03125-.019531-.097656-.0625-.152344-.097656-.03125-.027344-.066406-.046875-.105468-.058594-.015626 0-.035157.101563-.03125.152344v.027343c0-.003906-.011719.03125-.015626.078126-.003906.046874-.019531.140624-.03125.207031-.042968.289062-.054687.585937-.039062.878906.007812.140625.015625.28125.019531.300781.003907.023438.011719.105469.023438.195313.003906.058593.011719.117187.027343.171875.003907.03125.007813.0625.011719.09375 0 .035156.003907.066406.015625.101562 0 .007813 0 0-.015625 0-.015625-.011718-.023437-.03125-.023437-.046875 0-.011719-.011719-.019531-.019532-.019531-.011718 0-.023437 0-.023437-.011719s-.027344-.039062-.0625-.078125c-.074219-.078125-.132813-.175781-.164063-.28125-.015624-.050781-.039062-.113281-.046874-.140625-.015626-.046875-.027344-.097656-.03125-.148437-.011719-.058594-.019532-.117188-.023438-.140625-.003906-.023438-.011719-.117188-.015625-.21875 0-.066407-.003906-.132813-.011719-.195313-.015625.03125-.023437.0625-.027344.097656-.007812.054688-.027343.140626-.042968.207032-.011719.0625-.023438.121094-.027344.140625-.003906.015625-.007812.050781-.011719.074219-.019531.230468-.019531.457031 0 .6875.019531.183593.058594.367187.109375.550781.015625.023437.019532.035156 0 .046875-.015625.007812-.070312-.039063-.152344-.175782-.039062-.0625-.089843-.140624-.113281-.183593-.039062-.066407-.074219-.140625-.097656-.214844-.03125-.082031-.0625-.171875-.078125-.210937-.03125-.070313-.046875-.148438-.054688-.226563 0-.023437-.003906-.046875-.011718-.070313-.007813-.039062-.015625-.074218-.019532-.113281 0-.039062-.007812-.078125-.015624-.113281-.007813-.070312-.007813-.136719-.007813-.207031.003906-.058594 0-.121094-.011719-.183594 0 0-.023437 0-.039062.023437-.019532.019532-.042969.0625-.011719.035157.035156-.027344.019531-.015625 0 0s-.019531.019531-.027344.015625c-.003906-.003906-.046875.054687-.050781.078125-.007812.027343-.011719.019531-.023438.027343-.011718.007813-.023437.019532-.023437.035157-.058594.082031-.125.15625-.207031.21875-.027344.019531-.050782.046875-.0625.078125-.015625.0625-.140625.414062-.167969.46875-.011719.035156-.046875.113281-.070313.179687-.027343.066407-.070312.164063-.09375.214844-.050781.105469-.050781.121094 0 .246094.042969.121093.078126.242187.105469.367187 0 .019532.007813.035156.019531.050782.023438.058593.046876.117187.066407.175781.019531.066406.042969.128906.074219.1875.015624.019531.027343.039062.039062.0625.003906.023437.019531.042969.042969.050781.023437-.007812.046875-.015625.070312-.027344zm-5.648437-1.507813c.039062-.074219.074218-.152344.097656-.230469-.035156-.0625-.082031-.117187-.140625-.15625-.027344-.015625-.066406.007813-.074219.042969-.007812.035156-.011718.121094-.019531.238281-.007813.113282-.019531.230469-.023437.257813-.007813.027343-.011719.046875.027343.046875.039063 0 .042969 0 .140625-.199219zm6.269531-.503906c.03125-.136719.054687-.277344.070313-.421875.003906-.035156.007812-.074219.019531-.109375.039062-.105469-.015625-.140625-.125-.074219-.109375.0625-.121094.074219-.109375.230469.007812.128906.050781.46875.0625.53125 0 .027343.011718.023437.042968-.035157.015626-.039062.027344-.078124.039063-.117187zm-7.503906-1.796875c.058593-.15625.167969-.285156.308593-.367188.140626-.089844.289063-.125.703126-.171875.101562-.007812.234374-.023437.292968-.03125.058594-.007812.28125-.027343.5-.042969.378906-.023437.753906-.070312 1.125-.140624.507813-.101563.738282-.207032 1.300782-.585938.195312-.121094.371093-.273438.515624-.453125.175782-.1875.292969-.417969.34375-.667969.027344-.09375.027344-.195312 0-.289062-.121093-.234375-.300781-.433594-.515624-.582032-.269532-.183593-.585938-.292968-.914063-.308593-.320313-.015625-.640625-.003907-.960937.03125-.644532.117187-1.246094.390625-1.757813.800781-.25.199219-.484375.414062-.703125.644531-.214844.21875-.230469.238281-.511719.6875-.042969.070313-.113281.179688-.152343.246094-.070313.09375-.121094.199219-.15625.308594-.011719.042969-.019532.082031-.019532.085937.074219-.042968.140625-.09375.207032-.152344.140624-.113281.300781-.199218.472656-.265624.394531-.160157.816406-.253907 1.242187-.28125.351563-.023438.699219-.078126 1.039063-.15625.828125-.183594 1.117187-.308594 1.5625-.691407.085937-.066406.121094-.09375.132812-.085937.011719.046875.011719.09375 0 .140625.003906.066406-.007812.132812-.039062.195312-.046875.089844-.113282.171875-.191406.238281-.265626.183594-.550782.332032-.851563.445313-.097656.042969-.488281.171875-.601563.203125l-.113281.03125c-.03125.011719-.128906.03125-.214843.050781l-.394532.085938c-.355468.078125-.445312.097656-.644531.140625-.410156.085937-.703125.210937-.875.371094-.125.121093-.210937.273437-.25.441406-.003906.085937.011719.167968.046875.246094.03125-.039063.054688-.082032.074219-.128907zm7.742187-.1875c.078125-.007813.183594-.023438.234375-.03125l.09375-.015625-.140625-.074219c-.191406-.117188-.429687-.152344-.648437-.097656-.121094.027344-.246094.03125-.371094.015625-.0625-.011719-.128906-.015625-.191406-.011719h-.113281l.171874.085938c.089844.058593.191407.09375.296876.101562.070312 0 .167968.015625.214843.019531.152344.015625.304688.015625.457031 0zm-.539062-.449219c.4375-.050781.878906-.050781 1.320312 0l.183594.019531c-.074219-.066406-.160156-.121094-.25-.164062-.136719-.046875-.277344-.074219-.421875-.078125-.378906-.050781-.777344-.113281-.824219-.128907-.027344-.007812-.054687-.015624-.082031-.019531-.210937-.035156-.410156-.117187-.585937-.246093l-.074219-.0625c-.195313-.15625-.714844-.617188-.890625-.785157-.097656-.09375-.179688-.199219-.25-.3125-.027344-.058593-.070313-.078125-.097656-.050781-.042969.09375-.074219.191406-.09375.292969-.027344.15625-.019532.316406.023437.46875.0625.152343.164063.289062.292969.386719.195312.175781.414062.320312.65625.421874l.140625.0625c.191406.078126.390625.144532.59375.199219.117187.019531.234375.019531.347656 0zm-7.273438-.089844c.25-.1875.539063-.316406.84375-.378906.109375-.019531.171875-.03125.652344-.117187.332031-.050782.660156-.125.984375-.21875.007813 0 .074219-.035157.148437-.066407.148438-.058593.164063-.070312.101563-.058593l-.324219.054687-.355468.054687c-.042969 0-.273438.035157-.511719.066407-.242188.027343-.449219.054687-.460938.0625-.019531.007812-.039062.011719-.058593.011719-.214844.019531-.425782.074218-.625.160156-.34375.160156-.453126.21875-.480469.265625-.03125.0625-.042969.132812-.03125.203125.011719.027344.0625.011718.125-.039063zm8.167969-.320312c.03125-.023438.050781-.0625.050781-.101563 0-.011718-.007812-.039062-.011718-.054687-.019532-.042969-.042969-.082031-.074219-.117188-.046875-.0625-.089844-.132812-.125-.207031-.074219-.160156-.175781-.308594-.304688-.433594-.257812-.25-.539062-.472656-.84375-.667968-.0625-.027344-.179687-.066407-.441406-.140626-.042969-.011718-.085937-.027343-.128906-.046874.066406.011718.136719.027343.203125.046874l.109375.03125c.359375.105469.703125.257813 1.023437.453126.039063.023437.085938.03125.128906.011718.019532-.011718.023438-.007812-.140624-.222656l-.121094-.152344-.265625-.160156c-.164063-.089844-.320313-.195312-.460938-.3125-.074219-.066406-.167969-.113281-.265625-.128906-.199218-.054688-.402344-.078125-.605468-.0625-.113282-.007813-.226563-.003906-.339844.011718-.03125.019532-.054688.054688-.058594.09375 0 .011719 0 .019532-.011719.019532s-.011719.050781-.011719.140625c0 .140625 0 .210937-.027343.210937-.015625.066406-.015625.132813 0 .199219.011719.015625.019531.03125.027343.050781.015626.054688.050782.09375.050782.066406 0-.007812.015625.015626.035156.058594.058594.128906.371094.398438.921875.804688.050781.035156.128906.09375.179687.132812.109376.074219.226563.136719.351563.183594l.253906.097656c.347657.140625.800781.234375.902344.195313zm-8.003906-1.367188c-.007813.035157-.007813.035157.015625.019531l.0625-.050781c.066406-.054687.175781-.15625.402344-.371093.09375-.089844.191406-.175782.296874-.257813l.316407-.203125c.191406-.113281.390625-.210938.601562-.292969.222657-.101562.460938-.164062.703125-.1875l.328125-.058593c.3125-.050782.628907-.046876.9375.015624.488281.0625.925781.320313 1.214844.714844.109375.128906.128906.140625.160156.128906.070313-.046874.121094-.488281.082031-.703124-.046874-.347657-.207031-.667969-.457031-.910157-.15625-.148437-.332031-.273437-.527343-.367187-.539063-.28125-.859376-.296875-1.527344-.109375-.21875.046875-.429688.121093-.628906.226562-.210938.128907-.410157.273438-.601563.429688 0 0-.078125.070312-.171875.152343-.089844.078126-.183594.171876-.210938.195313-.046874.054687-.261718.332031-.320312.414063-.019531.03125-.117188.15625-.214844.28125-.339844.421874-.507812.714843-.570312.984374-.011719.039063-.007813.039063.054687-.023437s.0625-.0625.054688-.027344zm7.371093-.5625c-.046874-.050781-.179687-.214843-.292968-.367187-.121094-.183594-.269532-.351563-.4375-.496094-.054688-.042969-.105469-.085938-.121094-.101562-.109375-.058594-.226562-.105469-.347656-.140626-.070313-.019531-.136719-.046874-.203125-.082031-.050781-.027343-.101563-.050781-.15625-.070312-.117188-.023438-.238281-.023438-.355469 0l-.117188.027343c-.011718.003907-.027343.011719-.039062.023438-.027344.023438-.027344.046875 0 .199219 0 .035156.015625.164062.019531.28125 0 .183593.011719.226562.03125.246093.019531.023438.027344.03125.433594.03125.574219 0 .65625.015626 1.050781.214844.113282.058594.246094.140625.296875.164063.09375.066406.199219.117187.308594.15625.007813 0-.019531-.039063-.066406-.089844zm-7.59375-.546875c.039063-.09375.070313-.195312.097657-.292968.042969-.15625.097656-.335938.117187-.402344.015625-.042969.027344-.089844.03125-.140625 0-.019531-.0625-.035157-.746094-.210938-.3125-.082031-.984374-.257812-1.496093-.394531-.515625-.136719-.941407-.246094-.953125-.246094-.011719 0-.023438.003906-.035156.011719 0 .007813-.023438.195313-.050782.421875-.023437.226562-.050781.5-.0625.609375-.019531.175781-.023437.203125 0 .21875.019532.015625.347656.0625 1.183594.175781l1.503906.210938c.386719.054687.398438.054687.414063.035156zm8.445313-.757812 1.347656-.46875c.523438-.179688.960938-.332032.972657-.339844.050781-.027344.054687-.042969.105468-.6875.011719-.183594.027344-.355469.03125-.382812.003906-.023438 0-.046876-.023437-.046876-.023438 0-.804688.226563-1.753907.503907-1.386718.40625-1.722656.507812-1.726562.527343.011719.050782.027344.097657.054688.140626.132812.234374.480468.84375.496093.875.011719.015624.03125.027343.054688.027343.019531 0 .21875-.066406.441406-.140625zm-9.25-.625c.007813-.011719.015625-.023438.015625-.039063 0-.007812.054688-.195312.121094-.414062l.117187-.394531.0625-.0625c.074219-.078126.117188-.175782.121094-.28125 0-.078126.015625-.15625.046875-.226563.035156-.027344.070312-.050781.113281-.070313.199219-.097656.378907-.230468.535157-.394531.070312-.0625.136718-.132812.199218-.207031.164063-.351562.355469-.6875.574219-1.007812.15625-.25.34375-.484376.550781-.695313.066406-.066406.125-.136719.183594-.210937.070312-.140626.058594-.257813-.039062-.316407-.09375-.058593-.117188-.039062-.289063.078125-.222656.144532-.457031.269532-.703125.371094-.367188.164062-.445312.210938-.503906.304688-.019532.035156-.046875.066406-.082032.085937-.109374.054687-.222656.09375-.339843.117187-.027344 0-.054688.003907-.078125.011719l-.40625.25c-.542969.339844-.832032.519531-1.152344.714844-.261719.160156-.300781.1875-.363281.226563l-.128907.082031c-.046874.027343-.066406.046875-.066406.066406.105469.261719.226563.519531.367188.765625.027344.042969.046875.089844.0625.140625-.003906.027344-.015625.050781-.03125.070313-.085938.132812-.148438.285156-.183594.441406-.023438.085937-.042969.175781-.054688.203125-.007812.027343-.007812.050781 0 .058593.046876.019532.09375.035157.140626.042969.242187.058594 1.105468.28125 1.125.28125.03125.015625.066406.015625.09375 0zm9.445313-.964844c.148437-.046875.421874-.125.589843-.175781.171875-.054688.335938-.101563.347657-.109375.015624-.007813.023437-.023438.023437-.039063 0-.046875-.308594-.832031-.492187-1.242187-.035157-.070313-.058594-.144532-.078126-.21875.003907-.046875.019532-.09375.035157-.140625.074219-.183594.082031-.257813.074219-.628907.003906-.179687-.011719-.355468-.046876-.527343-.019531-.105469-.058593-.265625-.082031-.355469l-.078125-.289062c-.042968-.199219-.082031-.296876-.320312-.808594-.148438-.324219-.320313-.632813-.515625-.929688-.058594-.09375-.117188-.191406-.128907-.21875-.0625-.121094-.167968-.210937-.296874-.25-.039063 0-.085938.066406-.085938.125.027344.101563.0625.195313.109375.289063.246094.570312.28125.636719.3125.761719.054687.160156.09375.324218.117187.492187.007813.066406 0 .082031-.019531.109375l-.023437.03125-.070313-.078125c-.078125-.117187-.226562-.167969-.359375-.117187-.035156.011718-.074218.011718-.109375 0-.078125-.027344-.078125-.0625 0-.117188.078125-.050781.101563-.089844.054688-.15625-.105469-.15625-.242188-.292969-.402344-.394531-.429687-.3125-.886719-.582031-1.367187-.8125-.253907-.125-.296876-.140625-.351563-.140625-.082031 0-.113281.03125-.113281.101562 0 .042969.007812.0625.058594.121094.078124.070312.164062.128906.261718.171875.105469.058594.21875.121094.25.140625.152344.101562.832032.644531 1.019532.8125.128906.109375.242187.234375.339843.375 0 .035156-.054687.066406-.097656.054688-.058594-.035157-.113281-.078126-.160156-.128907-.089844-.085937-.320313-.269531-.757813-.597656-.347656-.261719-.679687-.507813-.738281-.550781-.109375-.082032-.234375-.148438-.363281-.199219-.035156 0-.097656.066406-.105469.117187-.011719.089844.082031.210938.292969.394532.160156.140625 1.367187 1.472656 1.417968 1.566406.011719.027344.015626.058594.015626.085938 0 .085937-.054688.070312-.367188-.109376-.148438-.085937-.308594-.179687-.359375-.207031-.152344-.085937-.410156-.25-.59375-.375l-.28125-.191406c-.144531-.089844-.292969-.167969-.449219-.230469-.039062 0-.078125.054688-.078125.101563s.019531.089843.113281.167969c.046876.035156.183594.152343.308594.261718l.433594.378906c.261719.210938.492188.457032.691406.726563.050782.066406.070313.078125.121094.089844.078125.019531.109375.015625.253906-.058594.125-.074219.265625-.109375.410156-.101563.109376 0 .121094.007813.121094.027344 0 .023438-.03125.042969-.101562.089844-.117188.070312-.265625.167969-.410156.261719-.089844.058593-.101563.0625-.160157.058593-.042969-.007812-.085937-.015624-.132812-.027343-.164063-.046875-.84375 0-1.34375.101562-.054688.011719-.109375.039063-.152344.074219-.011719.019531-.019531.042969-.019531.066406-.011719.078125.023437.109375.140625.128906.050781.011719.222656.046876.382812.082032.160157.035156.332031.070312.378907.078125.078124.011719.113281.03125.296874.148437.117188.074219.308594.207032.421876.289063.152343.128906.332031.222656.523437.28125l.5.117187c.148437.03125.1875.066406.28125.265625.070313.140625.09375.167969.164063.160157.070312-.003907.082031 0 .101562.042968.023438.039063.171875.457032.234375.664063.03125.097656.058594.183593.058594.1875.003906.007812.089843 0 .347656-.074219zm-10.183594-1.910156c.492187-.28125.925781-.515625.960937-.535156.140625-.070313.140625-.050782-.113281-.222657-.128906-.082031-.28125-.191406-.339844-.234375-.035156-.035156-.074218-.058594-.117187-.078125-.015625.035157-.023438.074219-.03125.109375-.023438.113282-.039063.140625-.082031.128906-.054688-.035156-.09375-.089843-.109376-.152343 0-.015625.035157-.109375.074219-.214844.058594-.164063.074219-.191406.09375-.195313.023438-.003906.0625.027344.152344.113282.1875.183594.398437.339844.632813.457031.171874.082031.257812.078125.378906-.019531l.039062-.03125-.023437-.066406c-.019531-.058594-.070313-.113282-.445313-.484376-.375-.375-.429687-.4375-.507812-.554687-.15625-.242187-.203125-.28125-.308594-.28125-.070312.003906-.132812.046875-.160156.113281-.015625.03125-.101563.171875-.191406.308594-.089844.132812-.199219.308594-.246094.382812l-.152344.253907c-.074219.089843-.128906.199219-.15625.3125.015625.070312.039062.140625.070312.207031.085938.199219.113282.296875.085938.3125-.011719.007812-.023438.011719-.035156.011719-.03125 0-.207032-.304688-.503906-.871094-.132813-.277344-.285157-.542969-.453126-.796875-.097656-.152344-.113281-.164062-.152343-.148438-.042969.015626-.046875.046876-.007813.28125.058594.355469.183594.792969.554688 1.929688.152344.46875.144531.46875.179687.46875.039063 0 .421875-.226562.914063-.503906m1.765625-.984375c.070312-.035157.136719-.078125.203125-.125.023437-.019531.019531-.042969-.089844-.34375-.117188-.335938-.140625-.394531-.167969-.402344-.027343-.007813-.140625.042969-.25.132813-.050781.042968-.105469.082031-.160156.117187-.027344.015625-.050781.035156-.070313.0625.066407.089844.136719.175781.210938.257813.121094.140624.230469.265624.242188.28125.015624.019531.03125.042968.082031.015624zm-.519531-.804688c.207031-.097656.394531-.230469.5625-.394531.160156-.140625.164062-.140625.28125-.242188.324218-.28125.339843-.304687.339843-.394531 0-.054687-.023437-.097656-.050781-.097656-.035156.011719-.066406.027344-.09375.046875-.125.070312-.539062.296875-.65625.355469-.09375.046875-.738281.308593-.84375.34375-.035156.007812-.042969.019531-.035156.035156.097656.148437.210937.289063.332031.421875 0 0 .078125-.03125.164063-.074219"/><path d="m5.578125 13.21875-.039063-.042969.042969.039063c.039063.035156.046875.042968.039063.042968-.011719 0-.019532-.019531-.042969-.039062m3.085937 2.1875c-.042968-.054688-.074218-.121094-.082031-.1875.003907-.128906.023438-.257812.066407-.378906.035156-.070313.09375-.132813.164062-.167969.128906-.058594.265625-.105469.402344-.140625.167968-.039062.335937-.054688.507812-.042969.15625.023438.292969.113281.378906.242188.023438.039062.023438.039062-.007812.054687s-.042969.011719-.117188-.023437c-.113281-.050781-.234374-.078125-.355468-.082031l-.140625-.011719-.1875.070312c-.128907.042969-.25.097657-.363281.167969-.066407.074219-.117188.160156-.140626.253906-.0625.234375-.082031.269532-.128906.242188zm.574219-1.089844c-.035156-.011718-.070312-.027344-.101562-.046875-.0625-.054687-.144531-.082031-.226563-.082031-.074218-.003906-.148437.015625-.210937.054688-.070313.035156-.144531.058593-.222657.074218-.097656.015625-.199218-.003906-.28125-.058594-.019531-.019531-.03125-.039062-.027343-.042968.027343-.027344.054687-.050782.082031-.074219l.082031-.058594h.113281c.082032.003907.164063-.015625.230469-.066406.0625-.042969.136719-.0625.210938-.058594.113281.003907.226562.039063.320312.105469.140625.089844.207031.089844.3125.011719.027344-.023438.058594-.039063.09375-.046875.371094-.039063.5-.0625.589844-.105469.019531-.011719.039063-.019531.058594-.023437.027343 0 .105469.128906.105469.171874 0 .042969 0 .046876-.054688.070313-.058594.035156-.128906.035156-.1875 0-.023438-.023437-.035156-.023437-.117188-.011719-.15625.035156-.3125.082032-.460937.140625-.09375.054688-.207031.066407-.308594.035157zm0 0"/><path d="m9.292969 14c-.113281-.039062-.210938-.109375-.28125-.203125-.132813-.140625-.175781-.15625-.28125-.171875-.039063 0-.066407-.015625-.066407-.023438.03125-.070312.078126-.132812.140626-.183593.039062-.03125.066406-.070313.089843-.113281.03125-.054688.035157-.074219.03125-.210938.003907-.175781-.03125-.351562-.109375-.511719-.035156-.105469-.128906-.183593-.238281-.199219l-.421875-.0625c-.199219-.03125-.421875-.0625-.492188-.070312-.238281-.019531-.476562-.011719-.710937.023438l-.140625.027343c-.042969 0 .160156-.214843.308594-.328125l.074218-.054687.207032.015625c.335937.023437.644531.054687 1.035156.109375.101562.015625.203125.023437.304688.027343.125-.015624.207031-.082031.328124-.273437.121094-.191406.128907-.191406.179688-.140625.023438.023438.027344.035156.019531.09375-.007812.097656-.035156.191406-.078125.28125-.039062.078125-.097656.148438-.167968.203125l-.113282.113281.035156.046875c.0625.078125.109376.164063.140626.253907.085937.214843.105468.449218.054687.671874-.058594.164063-.066406.140626.0625.265626.078125.078124.121094.109374.140625.109374s.09375-.042968.203125-.171874c.167969-.203126.28125-.28125.382813-.28125.035156 0 .066406.015624.089843.042968.054688.054688.046875.074219-.03125.101563-.074219.03125-.140625.089843-.261719.292969-.0625.097656-.128906.199218-.148437.222656-.070313.082031-.175781.117187-.28125.101562zm-3.144531-.972656c-.015626-.027344-.03125-.050782-.042969-.078125-.035157-.074219-.09375-.136719-.167969-.171875-.082031-.046875-.148438-.113282-.191406-.195313-.03125-.046875-.042969-.105469-.039063-.160156 0-.097656.015625-.140625.074219-.171875.035156-.015625.035156-.015625.070312.023438.050782.054687.082032.121093.09375.191406.019532.097656.070313.183594.140626.246094.070312.058593.105468.148437.097656.238281 0 .070312-.011719.09375-.035156.078125zm4.949218-.089844c-.105468-.003906-.210937-.039062-.300781-.09375-.050781-.023438-.101563-.035156-.152344-.039062-.074219-.007813-.148437-.027344-.214843-.066407-.117188-.058593-.152344-.101562-.152344-.175781-.003906-.03125-.007813-.058594-.011719-.089844-.015625-.050781-.027344-.058594-.160156-.09375-.113281-.03125-.214844-.09375-.300781-.175781-.128907-.132813-.195313-.320313-.175782-.507813 0-.128906.015625-.148437.078125-.089843.054688.054687.089844.125.097657.203125.066406.234375.117187.265625.542968.328125l.203125.027343c.042969 0 .09375.011719.113281.011719.234376.015625.46875.015625.703126 0l.222656-.019531c.011718 0 .058594-.007812.101562-.011719.078125-.011719.085938 0 .113282.019531l.027343.03125-.066406.027344c-.207031.082032-.417969.148438-.632813.207032-.160156.042968-.332031.046874-.496093.011718-.191407-.035156-.207031-.03125-.160157.054688.058594.082031.144532.140625.238282.175781.078125.023437.164062.03125.242187.023437.191407 0 .382813-.027343.5625-.078124l.203125-.101563c.0625-.035156.128906-.066406.199219-.085937.03125 0 .027344.007812-.09375.125-.136719.132812-.28125.257812-.4375.367187-.0625.042969-.070313.042969-.292969.019531zm0 0"/><path d="m7.648438 12.890625c-.039063-.011719-.078126-.027344-.113282-.050781-.203125-.140625-.246094-.152344-.457031-.101563-.027344.007813-.042969 0-.082031-.035156-.035156-.035156-.046875-.042969-.023438-.070313.039063-.027343.082032-.046874.125-.0625.144532-.042968.300782-.046874.445313-.011718.210937.035156.421875.035156.632812 0 .097657-.015625.195313-.027344.214844-.027344.089844.003906.175781.03125.253906.078125.050781.050781.039063.070313-.070312.078125-.050781 0-.105469.011719-.121094.015625l-.140625.019531c-.082031.003906-.164062.03125-.230469.082032-.121093.09375-.28125.125-.429687.089843zm-5.101563-4.988281c-.0625-.042969-.113281-.105469-.140625-.179688-.039062-.128906-.007812-.269531.082031-.371094.101563-.070312.234375-.070312.335938 0 .050781.0625.082031.136719.09375.214844.015625.125-.039063.25-.140625.324219-.070313.039063-.160156.046875-.234375.011719zm13.0625-1.347656c-.054687-.042969-.089844-.109376-.09375-.183594.011719-.117188.105469-.210938.226563-.21875.050781 0 .101562.023437.140624.058594.03125.0625.039063.132812.027344.199218-.019531.066406-.066406.121094-.125.152344-.058594.027344-.125.023438-.183594-.007812zm0 0"/></svg>