<svg height="18" viewBox="0 0 18 18" width="18" xmlns="http://www.w3.org/2000/svg"><path d="m15.536458 11.291667c-.390625.390625-.390625 1.026041 0 1.416666l2.375 2.375c.390625.390625 1.026042.390625 1.416667 0l2.375-2.375c.390625-.390625.390625-1.026041 0-1.416666l-2.375-2.375c-.390625-.390625-1.026042-.390625-1.416667 0zm-13.239583 0c-.390625.390625-.390625 1.026041 0 1.416666l2.375 2.375c.390625.390625 1.026042.390625 1.416667 0l2.375-2.375c.390625-.390625.390625-1.026041 0-1.416666l-2.375-2.375c-.390625-.390625-1.026042-.390625-1.416667 0zm6.619792 6.619791c-.1875.1875-.291667.442709-.291667.708334s.104167.520833.291667.708333l2.375 2.375c.390625.390625 1.026041.390625 1.416666 0l2.375-2.375c.1875-.1875.291667-.442708.291667-.708333s-.104167-.520834-.291667-.708334l-2.375-2.375c-.390625-.390625-1.026041-.390625-1.416666 0zm0-13.239583c-.390625.390625-.390625 1.026042 0 1.416667l2.375 2.375c.390625.390625 1.026041.390625 1.416666 0l2.375-2.375c.390625-.390625.390625-1.026042 0-1.416667l-2.375-2.375c-.390625-.390625-1.026041-.390625-1.416666 0zm0 0" fill="none" stroke="#fff" stroke-linecap="round" stroke-linejoin="round" stroke-width="2" transform="scale(.75)"/></svg>