<svg height="18" viewBox="0 0 18 18" width="18" xmlns="http://www.w3.org/2000/svg"><path d="m13.675781.375c-.191406.007812-.363281.109375-.460937.273438-.175782.3125-.355469.621093-.542969.925781-1.46875 2.421875-2.964844 2.148437-5.628906.871093l-3.699219-1.742187c-.296875-.136719-.621094 0-.757812.273437l-1.769532 3.996094c-.132812.273438 0 .628906.273438.761719.789062.355469 2.335937 1.089844 3.695312 1.769531 5.03125 2.394532 9.296875 2.257813 12.558594-3.046875.195312-.304687.386719-.613281.574219-.925781.160156-.269531.078125-.625-.191407-.789062l-3.726562-2.285157c-.097656-.058593-.210938-.085937-.324219-.082031m-6.199219 8.621094c-2.59375.058594-4.886718 1.398437-6.820312 4.546875-.195312.304687-.386719.613281-.5742188.925781-.1601562.269531-.07812495.625.1914068.789062l3.726562 2.285157c.269531.160156.621094.078125.785156-.191407.175782-.3125.355469-.621093.542969-.925781 1.46875-2.421875 2.964844-2.148437 5.628906-.871093l3.699219 1.742187c.296875.136719.625 0 .757812-.273437l1.769532-3.996094c.132812-.273438 0-.625-.273438-.761719-.789062-.355469-2.335937-1.089844-3.695312-1.769531-2.042969-.984375-3.960938-1.539063-5.738282-1.5zm0 0" fill="#136be6"/></svg>