<svg height="18" viewBox="0 0 18 18" width="18" xmlns="http://www.w3.org/2000/svg"><g fill="none" stroke="#fff" stroke-linecap="round" stroke-linejoin="round" stroke-width="2" transform="scale(.75)"><path d="m22 7.697917c0-.598959-.401042-1.197917-.802083-1.5l-6.296875-3.895834c-.526042-.302083-1.171875-.302083-1.703125 0l-10.296875 6c-.5.197917-.901042.796875-.901042 1.395834v6.604166c0 .5.401042 1.197917.802083 1.5l6.296875 3.895834c.526042.302083 1.171875.302083 1.703125 0l10.296875-6c.5-.296875.901042-1 .901042-1.5zm0 0"/><path d="m10 21.901042v-7.901042l-7.901042-4.901042m7.901042 4.901042 11.901042-6.901042m-7.901042 12.703125v-8.104166m4 5.802083v-8.098958"/></g></svg>