<svg height="18" viewBox="0 0 18 18" width="18" xmlns="http://www.w3.org/2000/svg"><g fill="none" stroke="#fff" stroke-linecap="round" stroke-linejoin="round" stroke-width="2" transform="scale(.75)"><path d="m16 2v2m1.916667 18c0-3.3125-2.6875-6-6-6-3.317709 0-6 2.6875-6 6m2.083333-20v2"/><path d="m16 12c0 2.208333-1.791667 4-4 4s-4-1.791667-4-4 1.791667-4 4-4 4 1.791667 4 4zm0 0"/><path d="m5 4h14c1.104167 0 2 .895833 2 2v14c0 1.104167-.895833 2-2 2h-14c-1.104167 0-2-.895833-2-2v-14c0-1.104167.895833-2 2-2zm0 0"/></g></svg>