<svg height="18" viewBox="0 0 18 18" width="18" xmlns="http://www.w3.org/2000/svg"><path d="m1.949219 10.53125c.480469 2.222656.878906 4.335938 2.277343 5.855469h-2.667968c-.625 0-1.128906-.5-1.132813-1.117188v-12.644531c0-.621094.507813-1.125 1.132813-1.125h1.925781c-.46875.425781-.878906.910156-1.226563 1.441406-1.523437 2.324219-.898437 4.859375-.308593 7.589844m14.484375-9.03125h-3.027344c.71875.710938 1.320312 1.636719 1.777344 2.78125l-4.597656.964844c-.503907-.960938-1.269532-1.757813-2.769532-1.445313-.828125.175781-1.375.636719-1.617187 1.140625-.296875.621094-.445313 1.320313.269531 4.636719s1.132812 3.894531 1.660156 4.34375c.429688.363281 1.121094.5625 1.949219.390625 1.5-.3125 1.867187-1.351562 1.933594-2.433594l4.597656-.964844c.109375 2.367188-.628906 4.199219-1.925781 5.46875h1.75c.621094 0 1.128906-.5 1.132812-1.121093v-12.636719c0-.621094-.507812-1.125-1.132812-1.125m0 0" fill="#f37a00"/></svg>