<svg height="18" viewBox="0 0 18 18" width="18" xmlns="http://www.w3.org/2000/svg"><g fill="#59b3d8" fill-rule="evenodd"><path d="m14.882812 8.246094c.769532 3.15625-1.191406 6.335937-4.382812 7.097656-3.191406.765625-6.40625-1.175781-7.175781-4.332031-.773438-3.15625 1.1875-6.335938 4.378906-7.097657l.011719-.003906c3.175781-.769531 6.382812 1.15625 7.15625 4.296875zm-6.621093 3.734375c-.003907-.863281-.710938-1.5625-1.582031-1.558594h-.242188c.203125-.835937-.316406-1.671875-1.160156-1.875-.121094-.027344-.25-.042969-.378906-.042969h-1.640626c-.355468 1.808594.175782 3.675782 1.429688 5.035156h1.988281c.875.003907 1.582031-.695312 1.585938-1.558593m1.960937-6.464844c0 .09375.011719.183594.035156.273437h-.683593c-.90625 0-1.640625.726563-1.640625 1.621094 0 .898438.734375 1.625 1.640625 1.625h5.433593c-.175781-1.941406-1.332031-3.660156-3.074218-4.566406h-.648438c-.585937-.003906-1.0625.46875-1.0625 1.046875m4.785156 4.726563h-3.242187c-.738281-.003907-1.339844.585937-1.339844 1.316406 0 .222656.054688.4375.160157.628906-.703126.21875-1.097657.960938-.875 1.65625.171874.554688.691406.929688 1.28125.925781h.902343c1.730469-.90625 2.898438-2.601562 3.113281-4.527343m-12.5625-4.53125c-.050781.003906-.09375-.015626-.128906-.050782-.035156-.03125-.054687-.078125-.054687-.125v-.003906c-.003907-1.132812-.933594-2.050781-2.078125-2.046875-.1015628 0-.183594-.082031-.183594-.179687 0-.101563.0820312-.179688.183594-.179688 1.144531 0 2.074218-.914062 2.078125-2.046875.003906-.050781.023437-.09375.058593-.125.035157-.035156.082032-.050781.132813-.046875.09375.003906.167969.078125.171875.171875.003906 1.132813.933594 2.050781 2.082031 2.050781.101563 0 .179688.078125.179688.179688 0 .097656-.078125.179687-.179688.179687-1.144531-.003906-2.078125.914063-2.082031 2.046875 0 .097656-.082031.175782-.179688.175782m12.828126 11.558593c-.0625 0-.109376-.050781-.109376-.109375-.003906-.675781-.558593-1.226562-1.246093-1.222656-.027344 0-.054688-.011719-.074219-.03125-.023438-.019531-.03125-.046875-.035156-.078125 0-.058594.050781-.105469.109375-.105469.6875 0 1.242187-.546875 1.246093-1.222656 0-.03125.011719-.058594.03125-.078125.019532-.019531.046876-.03125.078126-.03125.027343 0 .054687.011719.074218.03125.023438.019531.03125.046875.035156.078125 0 .675781.554688 1.222656 1.242188 1.222656.027344 0 .054688.011719.074219.03125.023437.019532.035156.046875.035156.074219 0 .03125-.011719.058594-.035156.078125-.019531.019531-.046875.03125-.074219.03125-.6875 0-1.242188.546875-1.242188 1.222656-.003906.0625-.050781.109375-.109374.109375zm0 0"/><path d="m17.761719 4.335938c-.566407-.917969-1.992188-1.132813-4.121094-.617188-.660156.167969-1.3125.375-1.953125.617188.410156.199218.796875.441406 1.152344.726562.363281-.117188.71875-.222656 1.054687-.304688.566407-.148437 1.152344-.230468 1.734375-.242187.699219 0 1.082032.171875 1.210938.378906.210937.339844.019531 1.238281-1.21875 2.652344-.222656.253906-.46875.507813-.730469.761719-1.359375 1.300781-2.859375 2.4375-4.476563 3.398437-1.605468.992188-3.320312 1.800781-5.109374 2.402344-2.152344.695313-3.625.683594-3.953126.148437-.328124-.53125.328126-1.835937 1.9375-3.414062-.097656-.449219-.144531-.910156-.132812-1.371094-2.558594 2.289063-3.386719 4.269532-2.726562 5.34375.347656.558594 1.101562.875 2.207031.875 1.316406-.054687 2.609375-.335937 3.824219-.835937 1.570312-.605469 3.082031-1.355469 4.515624-2.238281 1.441407-.863282 2.804688-1.859376 4.0625-2.972657.492188-.4375.960938-.90625 1.398438-1.398437 1.433594-1.640625 1.894531-2.992188 1.324219-3.910156"/></g></svg>