<svg height="18" viewBox="0 0 18 18" width="18" xmlns="http://www.w3.org/2000/svg"><path d="m15.082031 10.578125c.023438.554687-.371093 1.039063-.925781 1.128906-1.066406.179688-3.289062.296875-5.15625.296875s-4.089844-.113281-5.15625-.296875c-.609375-.105469-.925781-.59375-.925781-1.128906v-3.515625c.003906-.542969.390625-1.011719.925781-1.128906.535156-.070313 1.074219-.105469 1.617188-.105469.21875.007813.394531.1875.390624.410156v2.476563c1.097657 0 2.046876-.066406 3.152344-.066406 1.105469 0 2.042969.066406 3.144532.066406v-2.457032c-.007813-.105468.027343-.210937.097656-.292968.070312-.078125.167968-.128906.273437-.136719h.019531c.542969 0 1.082032.035156 1.617188.105469.535156.117187.921875.585937.925781 1.128906zm-6.082031-10.578125c-4.96875 0-9 4.03125-9 9 0 4.972656 4.03125 9 9 9 4.972656 0 9-4.027344 9-9 0-4.96875-4.03125-9-9-9zm0 0" fill="#ea2328"/></svg>