<svg height="18" viewBox="0 0 18 18" width="18" xmlns="http://www.w3.org/2000/svg"><path d="m63.444444 0c-1.777777 0-3.555555.388889-4.916666 1.166667l-46.944445 27.111111c-2.694444 1.555555-4.916666 5.388889-4.916666 8.5v54.194444c0 1.555556.555555 3.305556 1.444444 4.833334v.027777c.888889 1.527778 2.138889 2.888889 3.472222 3.666667l46.944445 27.083333c2.694444 1.555556 7.138889 1.555556 9.833333 0l46.944445-27.083333c1.333333-.777778 2.555555-2.138889 3.472222-3.666667.888889-1.555555 1.416666-3.305555 1.416666-4.861111v-54.194444c0-1.555556-.527777-3.305556-1.416666-4.833334-.916667-1.555555-2.138889-2.888888-3.472222-3.666666l-46.944445-27.111111c-1.361111-.777778-3.138889-1.166667-4.916667-1.166667m0 26.027778c13.472223 0 26.027778 7.25 32.777778 18.916666l-16.388889 9.472223c-3.361111-5.833334-9.666666-9.472223-16.388889-9.472223-10.444444 0-18.916666 8.5-18.916666 18.944445 0 10.416667 8.472222 18.916667 18.916666 18.916667 6.722223 0 13.027778-3.638889 16.388889-9.472223l16.388889 9.472223c-6.75 11.666666-19.305555 18.916666-32.777778 18.916666-20.861111 0-37.833333-16.972222-37.833333-37.833333 0-20.888889 16.972222-37.861111 37.833333-37.861111zm29.444445 31.555555h4.194444v4.194445h4.194445v4.194444h-4.194445v4.222222h-4.194444v-4.222222h-4.222222v-4.194444h4.222222zm15.75 0h4.222222v4.194445h4.194445v4.194444h-4.194445v4.222222h-4.222222v-4.222222h-4.194445v-4.194444h4.194445zm0 0" fill="none" stroke="#fff" stroke-linecap="round" stroke-linejoin="round" stroke-width="1.5" transform="scale(.140625)"/></svg>