<svg height="18" viewBox="0 0 18 18" width="18" xmlns="http://www.w3.org/2000/svg"><path d="m8.921875-.0703125c-.261719 0-.523437.0546875-.726563.1757815l-6.601562 3.808593c-.40625.234376-.726562.785157-.726562 1.257813v7.621094c0 .21875.078124.453125.191406.664062l-.003906.007813.027343.046875c.128907.222656.308594.421875.511719.539062l6.601562 3.8125c.402344.230469 1.019532.230469 1.429688.007813h.007812l.015626-.007813 6.601562-3.8125c.203125-.117187.382812-.316406.511719-.539062.132812-.226563.210937-.480469.210937-.71875v-7.621094c0-.226563-.078125-.472656-.199218-.695313v-.003906l-.011719-.015625c-.128907-.226562-.308594-.425781-.511719-.542969l-6.601562-3.808593c-.203126-.121094-.464844-.1757815-.726563-.1757815m0 .140625c.242187 0 .480469.0546875.65625.1562495l6.601563 3.808594c.171874.101563.339843.28125.460937.492188.121094.207031.191406.441406.191406.644531v7.621094c0 .203125-.070312.4375-.191406.648437-.121094.207032-.285156.386719-.460937.488282l-6.585938 3.800781-.015625.007812c-.351563.203125-.960937.203125-1.3125 0l-6.601563-3.808593c-.171874-.101563-.339843-.28125-.460937-.488282-.121094-.210937-.195313-.445312-.195313-.648437v-7.621094c0-.40625.304688-.933594.65625-1.136719l6.601563-3.808594c.175781-.101562.414063-.1562495.65625-.1562495m-.070313 3.5195315v.007812c-2.9375.039063-5.320312 2.4375-5.320312 5.386719 0 2.972656 2.417969 5.390625 5.390625 5.390625 1.917969 0 3.707031-1.03125 4.667969-2.695312l.035156-.058594-2.421875-1.40625-.035156.0625c-.464844.800781-1.324219 1.296875-2.246094 1.296875-1.429687 0-2.589844-1.164063-2.589844-2.589844 0-1.429687 1.160157-2.59375 2.589844-2.59375.921875 0 1.78125.5 2.242187 1.296875l.035157.0625 2.425781-1.402344-.035156-.0625c-.960938-1.664062-2.75-2.695312-4.667969-2.695312zm.070313.140625h.003906c1.84375.003906 3.558594.984375 4.503907 2.566406l-2.183594 1.265625c-.496094-.808594-1.375-1.3125-2.324219-1.3125-1.503906 0-2.730469 1.226562-2.730469 2.734375 0 1.503906 1.226563 2.730469 2.730469 2.730469.949219 0 1.828125-.503906 2.324219-1.3125l2.183594 1.265625c-.945313 1.582031-2.664063 2.566406-4.507813 2.566406-2.894531 0-5.25-2.355469-5.25-5.25 0-2.898437 2.355469-5.253906 5.25-5.253906m4.070313 4.296875v.589844h-.59375v.730468h.59375v.59375h.730468v-.59375h.589844v-.730468h-.589844v-.589844zm2.214843 0v.589844h-.589843v.730468h.589843v.59375h.734375v-.59375h.589844v-.730468h-.589844v-.589844zm-2.074219.140625h.449219v.589843h.589844v.449219h-.589844v.59375h-.449219v-.59375h-.59375v-.449219h.59375zm2.214844 0h.453125v.589843h.589844v.449219h-.589844v.59375h-.453125v-.59375h-.589844v-.449219h.589844zm0 0" fill="#004482"/></svg>