<svg height="18" viewBox="0 0 18 18" width="18" xmlns="http://www.w3.org/2000/svg"><g fill="none" stroke="#fff" stroke-linecap="round" stroke-linejoin="round" stroke-width="2" transform="scale(.75)"><path d="m6 4h12c1.104167 0 2 .895833 2 2v12c0 1.104167-.895833 2-2 2h-12c-1.104167 0-2-.895833-2-2v-12c0-1.104167.895833-2 2-2zm0 0"/><path d="m10 9h4c.552083 0 1 .447917 1 1v4c0 .552083-.447917 1-1 1h-4c-.552083 0-1-.447917-1-1v-4c0-.552083.447917-1 1-1zm0 0"/><path d="m15 2v2m0 16v2m-13-7h2m-2-6h2m16 6h2m-2-6h2m-13-7v2m0 16v2"/></g></svg>