<svg height="18" viewBox="0 0 18 18" width="18" xmlns="http://www.w3.org/2000/svg"><path d="m6.589844.0664062c-.027344.0117188-.054688.0273438-.074219.0507818l-6.4648438 6.414062c-.0195312.019531-.0351562.042969-.0429687.070312-.01171875.027344-.0078125.0625 0 .09375l2.3789065 8.765626-.003907-.019532c0 .074219.054688.113282.113282.132813h.003906l8.832031 2.355469-.015625-.007813c.070313.035156.128906.003906.171875-.039063l6.464844-6.414062.019531-.023438v-.011718c.011719-.011719.019532-.023438.023438-.039063.007812-.035156 0-.074219-.023438-.105469l.011719.019532-2.367187-8.769532.003906.019532c0-.074219-.058594-.113282-.113282-.132813l-8.835937-2.3554685.015625.0078125c-.03125-.015625-.066406-.0195312-.097656-.0117188zm.035156.1367188h.007812l8.835938 2.355469h-.003906c.019531.007812.015625.019531.015625 0v.007812l2.371093 8.789063.007813.011719c-.003906 0 0-.003907-.003906 0l-.023438.023437-6.441406 6.394531c-.011719.007813-.027344.003906-.011719.011719h-.003906l-8.839844-2.355469h.003906c-.019531-.007812-.015624-.019531-.015624 0v-.007812l-2.382813-8.78125v-.003906c-.003906-.007813 0-.003907 0-.003907s0-.003906.007813-.011719l6.464843-6.417968c.011719-.007813.027344-.003906.011719-.011719m2.6875 4.140625-.089844.023438-8.675781 2.300781h.019531c-.050781 0-.070312.03125-.082031.058593-.015625.03125-.007813.070313.015625.097657h.003906l6.347656 6.300781c.019532.023438.054688.035156.085938.027344.019531-.003906.039062-.015625.054688-.03125.011718-.015625.015624-.035156.015624-.058594v.019531l2.328126-8.617187-.007813.003906c.007813-.015625.011719-.039062.007813-.046875-.007813-.023437-.015626-.027344-.023438-.035156zm-.140625.179688v.007812l-2.277344 8.4375-6.234375-6.183594zm0 0"/></svg>