<svg height="18" viewBox="0 0 18 18" width="18" xmlns="http://www.w3.org/2000/svg"><path d="m17.972656 11.4375-6.515625 6.464844c-.023437.027344-.0625.039062-.089843.027344l-8.898438-2.371094c-.039062-.011719-.066406-.039063-.066406-.066406l-2.39843775-8.839844c-.01171875-.035156 0-.0625.02734375-.089844l6.515625-6.4648438c.023437-.0273437.0625-.0390624.089844-.0273437l8.898437 2.3710935c.039063.011719.066406.039063.066406.066406l2.382813 8.839844c.027344.035156.015625.0625-.011719.089844zm-8.730468-7.039062-8.742188 2.320312c-.011719 0-.027344.027344-.011719.039062l6.394531 6.351563c.015626.011719.042969.011719.042969-.015625l2.34375-8.679688c.011719 0-.011719-.027343-.027343-.015624zm0 0"/></svg>