<svg height="18" viewBox="0 0 18 18" width="18" xmlns="http://www.w3.org/2000/svg"><path d="m109 50h-4.805556l-1.194444 6h-3.805556l1.194445-6h-4.888889l-1.194444 6h-5.305556v5h4.388889l-.888889 4h-3.5v5h2.5l-1.194444 6h4.805555l1.194445-6h3.805555l-1.222222 6h4.916667l1.194444-6h5v-5h-4.111111l.916667-4h3.194444v-5h-2.194444zm-7.888889 15h-3.805555l.888888-4h3.805556zm15.388889-32.694444c-.611111-1.111112-1.388889-2.111112-2.305556-2.611112l-48.083333-27.805555c-.805555-.5-1.916667-.694445-3.111111-.694445s-2.305556.305556-3.111111.694445l-48.5 27.805555c-1.694445 1-3.388889 3.5-3.388889 5.416667v55.694445c0 1.083333.694444 2.305555 1.388889 3.388888l.111111.111112c.5.805555 1.305556 1.5 2 1.888888l48.305556 27.916667c.805555.5 2 .694445 3.194444.694445s2.305556-.305556 3.111111-.694445l47.5-27.916667c1.694445-1 2.388889-3.5 2.388889-5.388888v-55.694445c0-.805555.388889-1.805555 0-2.611111zm-4.194444 2.083333c0 .305555-.305556.5-.305556.722222v55.694445c0 .805555-.194444 1.694444-.388889 2l-47.611111 27.805555c-.111111.083333-.5.194445-1.111111.194445-.583333 0-1-.111112-1.083333-.194445l-48.194445-27.805555s-.111111-.111112-.222222-.111112l-.583333-.583333c-.416667-.722222.194444-1.111111-.805556-1.222222v-55.694445c1-.5.888889-1.694444 1.388889-1.888888l48.305555-27.916667c.111112 0 .611112-.194445 1.194445-.194445.611111 0 1 .111112 1.111111.194445l48 27.722222.388889.888889c.111111.111111-.083333.305556-.083333.388889m-49.305556 53.111111c-13.5 0-24.5-11-24.5-24.5s11-24.5 24.5-24.5c9.111111 0 17.111111 5 21.305556 12.5l13-7.5c-6.805556-11.888889-19.611112-20-34.305556-20-21.805556 0-39.5 17.694444-39.5 39.5s17.694444 39.5 39.5 39.5c14.611111 0 27.388889-8 34.194444-19.805556l-12.888888-7.583333c-4.194445 7.388889-12.194445 12.388889-21.305556 12.388889" fill="#68217a" stroke="#fff" stroke-linecap="round" stroke-linejoin="round" stroke-width="1.5" transform="scale(.140625)"/></svg>