<svg height="18" viewBox="0 0 18 18" width="18" xmlns="http://www.w3.org/2000/svg"><path d="m16.226562 4.316406-6.789062-3.910156c-.113281-.070312-.269531-.097656-.4375-.097656s-.324219.042968-.4375.097656l-6.75 3.925781c-.238281.140625-.40625.492188-.40625.757813v7.832031c0 .15625.027344.339844.140625.492187l15.019531-8.71875c-.085937-.167968-.210937-.292968-.339844-.378906" fill="#9b4f96"/><path d="m1.503906 13.402344c.070313.113281.167969.210937.269532.265625l6.777343 3.925781c.113281.070312.265625.097656.433594.097656.171875 0 .324219-.042968.4375-.097656l6.75-3.925781c.238281-.140625.40625-.492188.40625-.757813v-7.832031c0-.128906-.011719-.269531-.082031-.394531zm0 0" fill="#68217a"/><path d="m11.996094 10.703125c-.589844 1.039063-1.714844 1.742187-2.996094 1.742187-1.898438 0-3.445312-1.546874-3.445312-3.445312s1.546874-3.445312 3.445312-3.445312c1.28125 0 2.40625.703124 2.996094 1.757812l1.828125-1.054688c-.957031-1.671874-2.757813-2.8125-4.824219-2.8125-3.066406 0-5.554688 2.488282-5.554688 5.554688s2.488282 5.554688 5.554688 5.554688c2.054688 0 3.851562-1.125 4.808594-2.785157zm1.644531-1.394531.125-.605469h-.589844v-.660156h.71875l.167969-.871094h.6875l-.167969.859375h.535157l.167968-.859375h.675782l-.167969.859375h.335937v.660156h-.464844l-.125.605469h.589844v.660156h-.714844l-.171874.84375h-.6875l.167968-.84375h-.535156l-.167969.84375h-.675781l.171875-.84375h-.339844v-.660156h.464844zm.675781 0h.535156l.125-.605469h-.535156zm0 0" fill="#fff"/></svg>