<svg height="18" viewBox="0 0 18 18" width="18" xmlns="http://www.w3.org/2000/svg"><path d="m2.644531 16.046875-1.414062-15.855469h15.539062l-1.417969 15.855469-6.359374 1.761719zm0 0" fill="#1572b6"/><path d="m9 16.460938 5.140625-1.425782 1.210937-13.546875h-6.351562zm0 0" fill="#33a9dc"/><path d="m9 7.230469h2.574219l.175781-1.988281h-2.75v-1.945313h4.878906l-.046875.519531-.480469 5.359375h-4.351562zm0 0" fill="#fff"/><path d="m9.011719 12.285156h-.007813l-2.167968-.585937-.136719-1.550781h-1.953125l.273437 3.054687 3.984375 1.105469h.007813zm0 0" fill="#ebebeb"/><path d="m11.410156 9.09375-.234375 2.605469-2.171875.585937v2.023438l3.988282-1.105469.027343-.328125.339844-3.78125zm0 0" fill="#fff"/><path d="m9.007812 3.296875v1.945313h-4.699218l-.039063-.4375-.089843-.988282-.046876-.519531zm-.007812 3.9375v1.941406h-2.136719l-.039062-.433593-.089844-.988282-.046875-.519531zm0 0" fill="#ebebeb"/></svg>