<svg height="18" viewBox="0 0 18 18" width="18" xmlns="http://www.w3.org/2000/svg" xmlns:xlink="http://www.w3.org/1999/xlink"><linearGradient id="a"><stop offset="0" stop-color="#f9a03c"/><stop offset="1" stop-color="#f7974e"/></linearGradient><linearGradient id="b" gradientTransform="matrix(11.600255 0 0 -11.451136 2339.214752 4317.233368)" gradientUnits="userSpaceOnUse" x1="-201.009003" x2="-200.098007" xlink:href="#a" y1="376.843994" y2="375.872986"/><linearGradient id="c" gradientTransform="matrix(5.654601 0 0 -5.682966 1125.450439 2127.234375)" gradientUnits="userSpaceOnUse" x1="-199.257004" x2="-197.514008" xlink:href="#a" y1="373.61499" y2="371.915985"/><linearGradient id="d" gradientTransform="matrix(5.771292 0 0 -5.61562 1156.570312 2109.049118)" gradientUnits="userSpaceOnUse" x1="-199.835999" x2="-198.285995" xlink:href="#a" y1="374.252014" y2="372.475006"/><linearGradient id="e" gradientTransform="matrix(35.976755 0 0 -34.033501 7238.897644 12907.842407)" gradientUnits="userSpaceOnUse" x1="-201.143005" x2="-200.794998" y1="379.263" y2="378.803986"><stop offset="0" stop-color="#f26d58"/><stop offset="1" stop-color="#f9a03c"/></linearGradient><linearGradient id="f" gradientTransform="matrix(22.602754 0 0 -24.583119 4550.734589 9307.249146)" gradientUnits="userSpaceOnUse" x1="-200.962006" x2="-200.451996" y1="378.553009" y2="378.217987"><stop offset="0" stop-color="#b84e51"/><stop offset="1" stop-color="#f68e48"/></linearGradient><linearGradient id="g" gradientTransform="matrix(24.857621 0 0 -13.025996 4992.834045 4925.047302)" gradientUnits="userSpaceOnUse" x1="-200.619003" x2="-200.595001" xlink:href="#a" y1="377.136993" y2="376.532013"/><path d="m17.765625 12.738281c.007813-.074219.015625-.152343.019531-.230469.003906-.09375-5.539062-5.351562-5.539062-5.351562h-.132813s5.617188 5.925781 5.652344 5.582031" fill="url(#b)"/><path d="m5.941406 10.914062c-.011718.035157-.027344.066407-.042968.101563-.179688.367187 2.472656 2.957031 2.683593 2.640625.011719-.011719.019531-.027344.03125-.039062.007813-.019532.019531-.035157.03125-.050782.171875-.257812-2.625-2.820312-2.703125-2.652344zm0 0" fill="url(#c)"/><path d="m9.6875 14.558594c-.007812.015625-.0625.105468-.109375.152344-.007813.015624 2.585937 2.589843 2.585937 2.589843h.234376s-2.4375-2.632812-2.710938-2.742187zm0 0" fill="url(#d)"/><path d="m17.789062 12.460938c-.125 2.691406-2.347656 4.839843-5.066406 4.839843h-.367187l-2.71875-2.675781c.226562-.3125.433593-.640625.617187-.980469h2.46875c.78125 0 1.414063-.632812 1.414063-1.414062s-.636719-1.414063-1.414063-1.414063h-1.460937c.113281-.601562.171875-1.207031.171875-1.816406 0-.628906-.0625-1.246094-.175782-1.84375h.90625l5.609376 5.527344c.003906-.074219.011718-.148438.015624-.222656m-16.105468-11.789063h-1.476563v3.65625h1.476563c2.574218 0 4.671875 2.09375 4.671875 4.671875 0 .699219-.15625 1.367188-.433594 1.964844l2.691406 2.652344c.914063-1.367188 1.402344-2.972657 1.398438-4.617188 0-4.59375-3.734375-8.328125-8.328125-8.328125zm0 0" fill="url(#e)"/><path d="m12.722656.671875h-5.976562c1.464844.890625 2.667968 2.152344 3.492187 3.65625h2.484375c.78125 0 1.414063.632813 1.414063 1.414063s-.636719 1.414062-1.414063 1.414062h-.558594l5.609376 5.527344c.011718-.152344.019531-.300782.019531-.453125 0-1.234375-.441407-2.363281-1.175781-3.246094.734374-.878906 1.175781-2.007813 1.175781-3.242187 0-2.796876-2.273438-5.070313-5.070313-5.070313zm0 0" fill="url(#f)"/><path d="m12.355469 17.300781h-5.566407c1.121094-.691406 2.089844-1.601562 2.847657-2.675781zm-3.742188-3.683593-2.691406-2.652344c-.746094 1.597656-2.363281 2.707031-4.238281 2.707031h-1.476563v3.65625h1.476563c2.886718 0 5.433594-1.476563 6.929687-3.710937zm0 0" fill="url(#g)"/></svg>