<svg height="18" viewBox="0 0 18 18" width="18" xmlns="http://www.w3.org/2000/svg"><g fill="#00a8e1"><path d="m12.179688 3.515625.421874.015625c.152344.011719.308594.039062.476563.070312l-.351563-1.042968-2.082031-2.066406c-.476562-.476563-1.125-.617188-1.460937-.324219l-5.078125 3.363281zm.855468.507813c-.167968-.03125-.324218-.058594-.464844-.070313l-.40625-.015625-7.875.015625 11.054688 11.050781.855469-1.941406zm-8.972656 8.941406 9.042969 3.191406 1.941406-.855469-11.054687-11.054687v7.890625l.015624.378906c0 .125.015626.28125.054688.449219"/><path d="m15.03125 4.824219c-.363281-.367188-.984375-.71875-1.585938-.914063l3.203126 9.167969-.96875 2.207031 2.222656-.730468v-6.847657zm-1.898438 11.785156-9.140624-3.222656c.199218.605469.535156 1.222656.914062 1.605469l2.996094 2.980468 6.695312.011719.746094-2.347656zm-9.546874-4.078125-.015626-.382812v-8.085938l-3.332031 5.09375c-.2929685.308594-.1406248.96875.324219 1.460938l2.066406 2.082031 1.027344.363281c-.042969-.179688-.070312-.351562-.070312-.53125"/></g></svg>