<svg height="18" viewBox="0 0 18 18" width="18" xmlns="http://www.w3.org/2000/svg"><g fill="none" stroke="#fff" stroke-linecap="round" stroke-linejoin="round" stroke-width="2" transform="scale(.75)"><path d="m21 5c0 1.65625-4.03125 3-9 3s-9-1.34375-9-3 4.03125-3 9-3 9 1.34375 9 3zm0 0"/><path d="m3 12c-.005208 1.140625 1.932292 2.182292 5 2.6875m13-5.385417v-4.302083"/><path d="m3 5v14c0 1.333333 2.635417 2.505208 6.46875 2.880208m2.53125-9.880208v4h4"/><path d="m13 20c1.291667 1.723958 3.541667 2.421875 5.583333 1.744792 2.041667-.682292 3.416667-2.59375 3.416667-4.744792 0-2.484375-2.015625-4.5-4.5-4.5-1.328125 0-2.541667.541667-3.411458 1.411458l-2.088542 2.088542"/></g></svg>