<svg height="18" viewBox="0 0 18 18" width="18" xmlns="http://www.w3.org/2000/svg"><g fill="none" stroke="#fff" stroke-linecap="round" stroke-linejoin="round" stroke-width="2" transform="scale(.75)"><path d="m21 5c0 1.65625-4.03125 3-9 3s-9-1.34375-9-3 4.03125-3 9-3 9 1.34375 9 3zm0 0"/><path d="m3 5v14c-.010417.973958 1.401042 1.890625 3.791667 2.458333 2.385416.5625 5.447916.708334 8.208333.380209m6-16.838542v3m0 4-3 5h4l-3 5"/><path d="m3 12c.005208.947917 1.348958 1.838542 3.635417 2.40625 2.28125.5625 5.229166.734375 7.953125.463542"/></g></svg>