<svg height="18" viewBox="0 0 18 18" width="18" xmlns="http://www.w3.org/2000/svg"><path d="m10.796875 9.699219c.097656-.074219.191406-.15625.28125-.242188-.234375.058594-.472656.058594-.714844.035157-.285156.003906.054688.148437.433594.207031m1.117187-.59375c.171876-.234375.296876-.496094.339844-.761719-.039062.191406-.144531.355469-.242187.527344-.539063.339844-.050781-.199219 0-.40625-.578125.730468-.078125.4375-.097657.640625m.570313-1.484375c.035156-.519532-.101563-.355469-.148437-.15625.054687.027344.097656.363281.148437.15625m-3.214844-7.097656c.15625.027343.335938.046874.308594.085937.167969-.039063.207031-.070313-.308594-.085937m.300781.097656.007813-.011719-.109375.023437zm-.390624 10.730468c-.417969-.191406-.796876-.488281-1.109376-.84375.167969.242188.34375.476563.578126.660157-.390626-.128907-.914063-.945313-1.066407-.980469.671875 1.207031 2.734375 2.117188 3.816407 1.667969-.5.015625-1.136719.007812-1.699219-.199219-.214844-.109375-.5-.328125-.503907-.402344-.007812.027344-.027343.054688-.015624.097656m.019531-.109374-.003907.011718zm6.195312-4.726563c.003907-.261719.074219-.136719.101563-.203125-.054688-.027344-.1875-.230469-.273438-.621094.0625-.089844.160156.238282.242188.25-.050782-.308594-.140625-.542968-.144532-.78125-.238281-.5-.085937.066406-.28125-.214844-.253906-.792968.214844-.183593.246094-.546874.382813.558593.605469 1.425781.707032 1.785156-.078126-.4375-.203126-.863282-.355469-1.273438.117187.050782-.1875-.898437.152343-.269531-.363281-1.339844-1.558593-2.59375-2.65625-3.179687.132813.121093.300782.277343.242188.300781-.546875-.324219-.449219-.351563-.53125-.488281-.445312-.179688-.472656.015624-.769531 0-.835938-.445313-1-.398438-1.769531-.675782l.035156.164063c-.558594-.183594-.648438.070312-1.25 0-.039063-.027344.191406-.101563.378906-.128907-.535156.070313-.511719-.105468-1.035156.019532.128906-.09375.265625-.152344.402344-.230469-.4375.027344-1.046876.257813-.859376.046875-.714843.320312-1.984374.769531-2.695312 1.4375l-.023438-.152344c-.324218.394532-1.421874 1.171875-1.511718 1.679688l-.085938.019531c-.171875.289063-.28125.613281-.414062.910156-.222656.378907-.328125.148438-.296875.207031-.433594.886719-.652344 1.628907-.839844 2.242188.132813.199219.003906 1.203125.054687 2.003906-.222656 3.964844 2.78125 7.8125 6.0625 8.703125.480469.171875 1.195313.164063 1.804688.183594-.71875-.207031-.8125-.109375-1.511719-.355469-.503906-.238281-.613281-.507812-.972656-.816406l.144531.25c-.703125-.25-.410156-.308594-.980468-.488281l.152343-.199219c-.226562-.015625-.601562-.382812-.703125-.582031l-.25.007812c-.296875-.367187-.457031-.632812-.445312-.839843l-.078125.144531c-.09375-.15625-1.097657-1.382813-.578125-1.097657-.097656-.085937-.226563-.144531-.363282-.398437l.105469-.121094c-.253906-.324219-.464843-.738281-.449219-.875.136719.179688.230469.214844.320313.246094-.632813-1.578125-.667969-.085937-1.152344-1.605469l.101563-.007812c-.078125-.117188-.125-.246094-.1875-.371094l.046875-.441406c-.457031-.527344-.128907-2.246094-.0625-3.1875.042969-.382813.378906-.792969.636719-1.433594l-.15625-.027344c.296874-.515625 1.699218-2.082031 2.347656-2 .3125-.398437-.0625-.003906-.125-.101562.691406-.714844.910156-.507813 1.375-.632813.5-.300781-.433594.113281-.195313-.117187.871094-.21875.617188-.503906 1.75-.617188.121094.070313-.277343.105469-.375.195313.722657-.355469 2.289063-.273438 3.308594.195312 1.179687.554688 2.507813 2.183594 2.558594 3.71875l.058593.015625c-.03125.609375.09375 1.316406-.121093 1.964844l.148437-.308594c.015625.46875-.136718.695313-.277344 1.09375l-.25.125c-.203124.394532.019532.25-.125.566406-.316406.285157-.964843.886719-1.171874.941407-.152344-.003907.101562-.179688.132812-.246094-.425781.289063-.339844.4375-.992188.617187l-.019531-.042968c-1.605469.753906-3.839843-.742188-3.8125-2.789063-.015625.128907-.046875.097657-.082031.152344-.082031-1.054687.484375-2.109375 1.445312-2.542969.9375-.464844 2.039063-.273437 2.710938.351563-.371094-.480469-1.105469-.996094-1.976562-.945313-.851563.011719-1.652344.554688-1.917969 1.144532-.4375.273437-.488281 1.058593-.675781 1.203124-.257813 1.882813.480468 2.695313 1.730468 3.652344.101563.070313.113282.109375.101563.144532l.003906-.003907c1.472656.550781 2.996094.417969 4.269531-.605469.324219-.253906.679688-.683593.78125-.6875-.15625.230469.027344.109376-.09375.316407.324219-.523438-.140625-.214844.335938-.902344l.175781.242187c-.066406-.433593.535156-.957031.472656-1.640624.140625-.210938.15625.222656.007813.707031.203125-.535157.054687-.621094.109375-1.0625.054687.148437.128906.304687.167969.460937-.132813-.515625.132812-.867187.199218-1.167968-.0625-.027344-.203125.226562-.234375-.382813m-8.21875 3.574219c.191407.257812.339844.539062.582031.738281-.171874-.339844-.300781-.480469-.539062-.9375zm.488281-.21875c-.097656-.109375-.160156-.246094-.226562-.378906.066406.234374.195312.4375.316406.640624zm7.382813-.011719c.285156-.535156.46875-1.113281.546875-1.710937l-.042969.105468c-.078125.558594-.25 1.101563-.503906 1.605469m-5.03125-9.558594c-.269531.019531-.539063.035157-.804687.066407l.117187.019531c.195313-.074219.480469-.039063.6875-.085938m-7.453125 4.027344c.199219-.453125-.054688-.160156-.078125-.28125.03125.398437-.308594.550781.078125.28125m-.398438 1.015625c-.25.320312-.113281.390625-.140624.605469.089843-.277344.105468-.445313.140624-.605469" fill="#a80030"/></svg>