<svg xmlns="http://www.w3.org/2000/svg" viewBox="0 0 128 128">
    <g color="#000" font-family="sans-serif" font-weight="400">
        <path fill="none" d="M64 27.208H12.154l8.91 76.417 42.892 21.884h.053l42.953-21.884 8.884-76.417zm37.438 48.021c0 .77 0 1.462-.674 1.75L72.097 90.767l-2.118.99-.237-2.758V83.58l.21-1.375.954-.41 20.29-9.087-18.854-8.403-8.036 15.87-4.77 9.217-1.068 1.987-1.795-.788-29.437-13.594a2.12 2.12 0 0 1-1.27-1.75V70.17c.06-.768.538-1.44 1.243-1.751l29.762-13.77 2.81-1.26v8.456l.21 1.173-1.366.613-20.491 9.06 19.126 8.43 7.046-14.006 5.436-11.073.99-1.996 1.584.796 28.448 13.56c.64.306.666.997.666 1.75z" overflow="visible" style="line-height:normal;font-variant-ligatures:normal;font-variant-position:normal;font-variant-caps:normal;font-variant-numeric:normal;font-variant-alternates:normal;font-variant-east-asian:normal;font-feature-settings:normal;font-variation-settings:normal;text-indent:0;text-align:start;text-decoration-line:none;text-decoration-style:solid;text-decoration-color:#000;text-transform:none;text-orientation:mixed;white-space:normal;shape-padding:0;shape-margin:0;inline-size:0;isolation:auto;mix-blend-mode:normal;solid-color:#000;solid-opacity:1"/>
        <path fill="#60be86" d="m11.663 26.77 8.994 77.138 43.194 22.039h.264l43.254-22.04 8.968-77.137H64zm.983.876h102.708l-8.8 75.696-42.571 21.69-42.51-21.69zm47.572 25.066-3.428 1.54-29.756 13.767a2.53 2.53 0 0 0-1.504 2.117v5.13l.001.02a2.56 2.56 0 0 0 1.527 2.11l.003.004 29.432 13.59 2.17.952 1.26-2.346 4.773-9.221 7.849-15.5 17.578 7.834-19.392 8.685-1.175.506-.25 1.646v5.47l.29 3.401 2.689-1.255 28.652-13.78c.453-.194.731-.589.84-.98.107-.392.099-.788.099-1.173l-.01-5.076c0-.382 0-.776-.109-1.163a1.54 1.54 0 0 0-.803-.983h-.002L72.51 54.449l-1.975-.991-1.185 2.39-5.434 11.072-6.86 13.632L39.22 72.69l19.584-8.66 1.679-.752-.264-1.472zm-.875 1.353v7.82l.157.873-1.053.472-21.398 9.461 20.415 8.997 7.234-14.379 5.436-11.075.793-1.598 1.196.6 28.451 13.56c.206.1.277.21.34.433.064.224.078.552.078.924L101 75.23c0 .385-.007.72-.068.939-.06.219-.12.314-.34.408l-.009.004L71.91 90.37l-1.547.723-.182-2.115v-5.366l.168-1.101.735-.317 21.186-9.488-20.13-8.97-8.223 16.238-4.768 9.213-.874 1.627-1.42-.624-29.44-13.593-.004-.002a1.68 1.68 0 0 1-1.005-1.385V70.2c.05-.606.425-1.135.981-1.38l.004-.002 29.763-13.77z" overflow="visible" style="line-height:normal;font-variant-ligatures:normal;font-variant-position:normal;font-variant-caps:normal;font-variant-numeric:normal;font-variant-alternates:normal;font-variant-east-asian:normal;font-feature-settings:normal;font-variation-settings:normal;text-indent:0;text-align:start;text-decoration-line:none;text-decoration-style:solid;text-decoration-color:#000;text-transform:none;text-orientation:mixed;white-space:normal;shape-padding:0;shape-margin:0;inline-size:0;isolation:auto;mix-blend-mode:normal;solid-color:#000;solid-opacity:1"/>
    </g>
    <g style="-inkscape-font-specification:&quot;Damion, Normal&quot;">
        <path fill="#60be86" d="M33.527 1.342a14.6 14.6 0 0 0-3.172.342q-1.53.338-2.89.914-1.359.561-2.506 1.32v-.002a13 13 0 0 0-1.965 1.564q-.83.814-1.316 1.688v.002l-.002.002c-.325.577-.508 1.151-.508 1.717 0 .457.147.9.476 1.191.33.291.772.399 1.256.399.52 0 1.008-.131 1.418-.397.372-.24.71-.55 1.016-.918q.444-.52.883-1.162l.006-.006q.413-.586.949-1.18.463-.425 1.129-.8h.004q.686-.39 1.508-.678a11.5 11.5 0 0 1 1.714-.453l.004-.002h.002a9 9 0 0 1 1.78-.178c.613 0 1.124.101 1.544.287.432.191.768.446 1.032.774l.002.002.002.002c.277.334.485.733.62 1.209v.003l.003.004a5.5 5.5 0 0 1 .222 1.602c0 .682-.127 1.424-.39 2.223l-.002.002v.002q-.381 1.2-1.1 2.418h-.002v.002q-.703 1.2-1.717 2.341a15 15 0 0 1-2.218 2.037 13 13 0 0 1-2.58 1.504c-.514.226-1.065.293-1.6.422.177-.258.35-.49.53-.763h-.003a58 58 0 0 0 1.313-2.077l.002-.004q.647-1.048 1.238-2.084v-.002q.6-1.045 1.104-1.949l.003-.006q.514-.9.903-1.635l.004-.005.634-1.157.002-.006q.27-.46.43-.97.165-.522.166-1.024a2 2 0 0 0-.367-1.181c-.293-.401-.796-.578-1.322-.578-.176 0-.333.035-.526.086-.257.055-.51.167-.777.328l-.004.004-.004.001c-.266.167-.54.387-.834.66l-.004.003-.004.004a6.2 6.2 0 0 0-.888 1.119l-.016.023-5.898 11.725.037-.06a3.6 3.6 0 0 0-.43.827q-.174.47-.176.977c0 .456.161.893.461 1.22.315.353.783.54 1.272.54q2.696 0 5.03-.649 2.333-.644 4.255-1.752a16.4 16.4 0 0 0 3.41-2.568l.002-.002a16.5 16.5 0 0 0 2.494-3.084l.002-.002a14 14 0 0 0 1.54-3.322c.356-1.13.538-2.221.538-3.272a9 9 0 0 0-.47-2.941 6.4 6.4 0 0 0-1.442-2.414c-.646-.697-1.46-1.241-2.426-1.627-.979-.392-2.109-.58-3.38-.58zm0 1c1.173 0 2.175.175 3.01.51.848.339 1.529.797 2.067 1.378l.002.002.003.004a5.4 5.4 0 0 1 1.22 2.047l.001.002v.002a8 8 0 0 1 .416 2.617c0 .936-.161 1.924-.492 2.971v.002l-.002.002a13 13 0 0 1-1.434 3.09v.002h-.002a15.4 15.4 0 0 1-2.345 2.9l-.002.002a15.4 15.4 0 0 1-3.205 2.414h-.002c-1.202.693-2.54 1.245-4.022 1.655h-.002q-2.19.611-4.764.613c-.273 0-.402-.064-.527-.205l-.004-.002-.004-.004c-.137-.15-.197-.3-.197-.549q0-.325.113-.629.123-.331.313-.605l.021-.03 5.885-11.699c.258-.398.508-.711.734-.93a4.7 4.7 0 0 1 .67-.53c.207-.125.374-.19.477-.212l.012-.004.011-.002a2 2 0 0 1 .287-.056c.333 0 .444.072.514.168.117.16.176.335.176.592 0 .22-.037.463-.12.726a3.6 3.6 0 0 1-.341.77l-.004.006-.002.005-.644 1.174-.002.004-.002.002a58 58 0 0 1-.895 1.62l-.002.001-.002.004q-.5.898-1.1 1.941v.002a69 69 0 0 1-1.224 2.063l-.002.002v.002a57 57 0 0 1-1.291 2.045h-.002a44 44 0 0 1-1.273 1.842l-.666.906 1.119-.113a10.3 10.3 0 0 0 3.129-.829 14 14 0 0 0 2.777-1.617h.002a16 16 0 0 0 2.363-2.174 16 16 0 0 0 1.832-2.5l.002-.002a12.8 12.8 0 0 0 1.19-2.615c.29-.882.441-1.728.441-2.535q0-1.005-.264-1.883l-.002-.002a4.3 4.3 0 0 0-.81-1.568 3.7 3.7 0 0 0-1.398-1.057c-.573-.253-1.228-.373-1.952-.373q-.98.001-1.97.197-.965.179-1.862.49a10 10 0 0 0-1.671.753h.003q-.76.424-1.326.94l-.017.017-.014.017q-.592.65-1.055 1.309l-.002.002-.004.004q-.414.608-.824 1.086l-.004.003-.002.004q-.372.448-.789.715c-.239.155-.516.237-.875.237-.336 0-.512-.075-.593-.147-.082-.072-.14-.175-.14-.443 0-.35.116-.757.382-1.229v-.002l.002-.002q.4-.729 1.142-1.46a12 12 0 0 1 1.817-1.444V4.75a13.7 13.7 0 0 1 2.338-1.227l.002-.002h.002a15.6 15.6 0 0 1 2.718-.86 13.7 13.7 0 0 1 2.957-.32zm34.075 5.303a2.4 2.4 0 0 0-1.096.238l-.004.002-.004.002a2.48 2.48 0 0 0-1.215 1.39l-.002.006-.002.006a2.6 2.6 0 0 0-.138.832v.024l.002.023c.04.424.253.822.585 1.088l.006.004.004.004c.397.3.905.375 1.55.375a2.2 2.2 0 0 0 1.054-.248c.279-.152.523-.346.713-.586l.004-.006.003-.004c.176-.234.305-.492.39-.764.087-.255.14-.506.14-.756a1.6 1.6 0 0 0-.483-1.156c-.367-.364-.89-.474-1.507-.474m0 1c.487 0 .735.112.806.183l.004.004.004.004c.128.122.176.228.176.44 0 .11-.025.257-.088.437l-.002.01-.004.007a1.5 1.5 0 0 1-.232.458c-.097.12-.224.228-.4.324-.147.079-.33.127-.579.127-.537 0-.854-.108-.937-.17a.5.5 0 0 1-.204-.381c.004-.151.026-.308.08-.475a1.6 1.6 0 0 1 .282-.486c.117-.138.263-.253.447-.35.167-.083.375-.132.647-.132m-20.524 2.939c-.802 0-1.569.116-2.29.353h-.003a8.3 8.3 0 0 0-1.933.932q-.88.577-1.596 1.336-.69.736-1.178 1.527a7.5 7.5 0 0 0-.752 1.594 4.8 4.8 0 0 0-.267 1.504q-.002.879.267 1.69c.18.54.446 1.026.791 1.447l.002.004.004.002a4.05 4.05 0 0 0 1.29 1.013l.001.002c.524.257 1.117.381 1.754.381q1.068-.001 2.154-.289a14 14 0 0 0 2.05-.681 18 18 0 0 0 1.855-.899h.002c.278-.157.499-.3.744-.45.031.128.03.272.076.391l.002.004.002.006c.163.403.381.757.66 1.047.276.287.609.506.979.647.362.146.748.224 1.144.224.792 0 1.558-.253 2.258-.73.592-.398 1.154-1.015 1.71-1.694.274.157.556.327.774.413.326.128.67.191 1.016.191.828 0 1.584-.179 2.299-.445.103.615.3 1.168.715 1.547l.006.003.003.004c.556.485 1.302.711 2.16.711.61 0 1.215-.12 1.803-.351a9.2 9.2 0 0 0 1.68-.877h.002c.258-.17.505-.372.756-.563.144.28.28.566.5.793l.002.002.004.004c.308.308.683.55 1.11.725h.001l.002.002c.449.18.948.265 1.488.265.69 0 1.389-.108 2.088-.32l.008-.002a12.6 12.6 0 0 0 1.973-.758l.004-.002a15 15 0 0 0 1.789-1.006l.002-.002c.043-.028.079-.055.12-.084.04.092.05.2.098.286.248.441.56.815.93 1.107l.006.006.006.004a3.8 3.8 0 0 0 1.17.592c.386.114.74.18 1.074.18q1.121 0 2.121-.292h.002a7.6 7.6 0 0 0 1.865-.78 7.6 7.6 0 0 0 1.579-1.21c.356-.356.656-.77.953-1.186.137.073.27.172.412.22h.004l.002.001c.288.092.585.137.882.137.36 0 .708-.138 1.051-.287-.123.293-.254.599-.345.846-.143.386-.23.664-.23.96 0 .409.142.81.415 1.11.289.317.718.48 1.158.48.432 0 .85-.164 1.149-.46a3.5 3.5 0 0 0 .676-.868l.002-.004.002-.002q.268-.492.503-1.039l.002-.006q.231-.512.5-.955.453-.692 1.045-1.568.582-.86 1.274-1.621l.002-.002h.002a7.6 7.6 0 0 1 1.437-1.266c.478-.312.95-.453 1.457-.455v.012c0 .032-.031.19-.138.412a14 14 0 0 1-.455.857l-.002.002v.002q-.27.48-.598 1.035-.333.556-.637 1.122l-.004.003-.002.004q-.295.576-.52 1.13l-.001.005-.002.004q-.224.585-.26 1.121l.002-.031-.027.207-.006.035v.22c0 .582.134 1.104.453 1.503l.006.008.006.005c.352.41.898.59 1.496.59q.316-.002.652-.068.344-.063.733-.182a15 15 0 0 0 1.955-.695l.002-.002h.002a17 17 0 0 0 1.564-.814h.004q.732-.44 1.422-.938l.004-.004q.686-.486 1.502-1.072l.01-.006.008-.008c.445-.35.789-.744 1.01-1.185.214-.41.341-.812.341-1.213 0-.271-.08-.543-.244-.762a1 1 0 0 0-.771-.396c-.138 0-.27.028-.39.074q-.212.081-.386.234l-.006.006-.004.006q-.394.366-1.011.844a22 22 0 0 1-1.328.937q-.725.459-1.52.877l-.002.002h-.002a12 12 0 0 1-1.514.69l-.01.003c.086-.15.191-.33.333-.554l.004-.004q.258-.403.556-.873.308-.482.613-1.02l.002-.004q.325-.562.577-1.14a8 8 0 0 0 .443-1.192q.175-.618.176-1.209c0-.679-.232-1.289-.729-1.636-.429-.315-.963-.467-1.547-.467a5.8 5.8 0 0 0-1.568.234h-.002a10 10 0 0 0-1.535.586q-.74.348-1.365.805l-.002.002-.004.002c-.016.011-.022.024-.037.035-.058-.281-.096-.578-.307-.77-.257-.24-.6-.392-.951-.392-.398 0-.784.146-1.133.39-.374.263-.664.646-.883 1.116v.002l-.002.002c-.05.11-.113.238-.176.369-.03.023-.067.03-.093.057l-.012.011-.012.014q-.181.211-.465.523h-.002a18 18 0 0 1-1.308 1.295q-.367.326-.729.58a4.4 4.4 0 0 1-.68.399h-.003l-.004.002a1.1 1.1 0 0 1-.444.123c-.06 0-.1-.015-.146-.026.093-.28.194-.564.25-.832v-.004q.123-.592.125-1.087c0-.623-.136-1.186-.434-1.653a3.3 3.3 0 0 0-1.027-1.072 4.1 4.1 0 0 0-1.318-.555 5.6 5.6 0 0 0-1.274-.156c-.895 0-1.726.15-2.478.453a7 7 0 0 0-1.963 1.15v.003a8 8 0 0 0-1.483 1.603l-.002.002a11 11 0 0 0-1.002 1.768l-.002.002v.002a10 10 0 0 0-.425 1.177l-.032.02a34 34 0 0 1-1.199.719q-.65.375-1.357.695h-.004q-.683.314-1.38.518-.672.197-1.234.195c-.32 0-.509-.07-.64-.174-.116-.097-.162-.183-.162-.4 0-.145.04-.372.14-.659q.169-.44.45-.921.298-.503.666-.979l.002-.002.002-.002q.366-.488.736-.86l.002-.001.004-.004q.381-.365.722-.57l.002-.003h.002a.9.9 0 0 1 .399-.152c.004.033.012.041.012.086q0 .216-.014.459v.4c0 .196.004.403.186.622l.015.017.016.016c.255.255.485.232.726.232.454 0 .889-.15 1.22-.441.291-.258.526-.577.704-.944a4.5 4.5 0 0 0 .373-1.127v-.004q.108-.58.108-1.078c0-.295-.055-.576-.18-.83a1.44 1.44 0 0 0-.488-.59 1.8 1.8 0 0 0-.657-.31 2.8 2.8 0 0 0-.707-.088 5.1 5.1 0 0 0-2.048.441v.002h-.002a9 9 0 0 0-1.852 1.123l-.002.002h-.002q-.87.69-1.617 1.573a14 14 0 0 0-1.293 1.783 10 10 0 0 0-.719 1.447l-.082.078-.004.004-.002.002q-.36.346-.775.694a8 8 0 0 1-.817.574q-.407.25-.804.402l-.004.002h-.002c-.236.095-.45.137-.647.137a.7.7 0 0 1-.27-.041c.032.03.026.061.026-.088 0-.177.032-.392.106-.639l.002-.006q.135-.402.312-.824.193-.427.397-.822l.002-.004.002-.004q.216-.431.39-.793v-.002l.246-.518v-.002l.2-.423.238-.483q.122-.244.32-.61l.002-.005c.074-.134.125-.283.143-.44q.027-.128.043-.257l.004-.028v-.027a1.67 1.67 0 0 0-.57-1.26 1.85 1.85 0 0 0-2.146-.254c-.307.167-.552.43-.747.752l-.012.02-.01.021-.486 1.002q-.201.404-.389.791l-.002.006-.004.008c-.116.26-.199.453-.254.596q-.19.474-.464 1.011c-.143.27-.274.556-.405.844-.271.16-.543.31-.816.432a6 6 0 0 1-1.012.328h-.002a4 4 0 0 1-.943.115c.23-.379.465-.771.666-1.062l.002-.002q.462-.666.8-1.21l.003-.001.002-.002a7 7 0 0 0 .554-1.125c.158-.398.233-.83.233-1.284 0-.426-.103-.83-.323-1.17-.26-.41-.752-.619-1.252-.619-.394 0-.75.207-1.029.496a5.4 5.4 0 0 0-.742.975l-.002.002q-.34.564-.705 1.28l-.002.001v.002a50 50 0 0 1-.723 1.39l-.002.003-.002.004q-.363.697-.783 1.367v.002l-.002.002a7 7 0 0 1-.824 1.094l-.02.021-.017.024a7.6 7.6 0 0 1-.94 1.072c-.16.146-.221.144-.31.18q-.02-.075-.034-.149l-.002-.008a2 2 0 0 1-.021-.181q-.001-.578.16-1.309.181-.765.434-1.562.254-.807.535-1.596l.002-.006q.303-.823.521-1.523l-.029.074a1.15 1.15 0 0 0-.069-1.106 1.5 1.5 0 0 0-.88-.648 1.6 1.6 0 0 0-.53-.1c-.385 0-.765.128-1.12.346-.391.235-.686.609-.906 1.07l-.013.027-.01.03q-.157.472-.428 1.273l-.002.004-.002.004q-.26.808-.535 1.76a25 25 0 0 0-.412 1.683c-.172.1-.342.202-.565.324h-.003l-.002.002q-.548.31-1.24.665-.683.333-1.409.626h-.002q-.699.287-1.428.479a5.3 5.3 0 0 1-1.275.172c-.344 0-.574-.067-.719-.154q0-.002-.002-.002c1.041-.404 2.02-.806 2.764-1.211h.002v-.002c.89-.49 1.61-.967 2.164-1.45l.002-.002.002-.002c.55-.489.958-.984 1.207-1.505.235-.492.365-.986.365-1.475 0-.775-.24-1.462-.738-1.947-.512-.5-1.252-.715-2.125-.715m0 1c.713 0 1.155.166 1.426.43.286.279.437.65.437 1.232 0 .313-.082.658-.267 1.045-.171.357-.488.762-.969 1.19-.477.414-1.139.859-1.984 1.324-.829.45-1.889.915-3.17 1.386l-.393.143.072.41c.07.406.32.768.665.992l.005.004.006.004c.352.217.777.305 1.25.305a6.3 6.3 0 0 0 1.524-.203h.006a12 12 0 0 0 1.55-.522 23 23 0 0 0 1.48-.658l.003-.002.004-.002q.706-.36 1.273-.682l.006-.002c.3-.164.55-.308.77-.44l.19-.112.044-.217q.192-.946.447-1.834.27-.938.528-1.733l.412-1.222c.16-.33.335-.528.513-.635l.002-.002.002-.002c.237-.145.43-.197.598-.197.064 0 .125.01.193.037l.022.008.021.006a.6.6 0 0 1 .2.095q.081.059.13.137c.021.032.024.045.024.076 0 .04-.006.05-.006.049l-.018.035-.011.04q-.21.671-.508 1.478l-.002.004v.002a47 47 0 0 0-.549 1.636q-.264.831-.455 1.639l-.002.004v.002a7 7 0 0 0-.184 1.527c0 .118.014.226.036.354l.002.004v.004q.033.18.082.357l.002.006.002.008q.055.195.168.379l.007.011.01.014c.105.147.317.309.565.309.435 0 .81-.224 1.166-.545.332-.302.677-.702 1.045-1.192q.503-.538.933-1.234l.002-.004q.436-.697.817-1.426l.003-.008q.387-.718.733-1.408l.002-.004q.35-.684.666-1.207l.002-.002c.214-.347.419-.614.6-.795l.003-.004.004-.003c.16-.168.248-.19.31-.19.283 0 .344.049.41.152l.003.004.002.004c.102.157.16.351.16.63 0 .346-.056.648-.164.917l-.002.006-.002.006a5.7 5.7 0 0 1-.475.959q-.32.515-.771 1.164l-.002.002q-.458.663-.992 1.576l-.17.29.203.267c.255.335.686.498 1.113.498q.578-.001 1.174-.143.6-.137 1.184-.383l.006-.002.006-.002a10 10 0 0 0 1.044-.552l.135-.082.062-.145q.221-.498.457-.949v-.002l.002-.002q.296-.578.506-1.104v-.003l.002-.002c.04-.106.121-.294.235-.55q.18-.378.376-.769l.002-.002v-.002l.47-.965c.127-.208.253-.326.366-.388a.8.8 0 0 1 .405-.112c.254 0 .42.066.592.225l.007.006.006.006c.165.14.22.268.223.5a2 2 0 0 1-.027.158l-.006.027-.002.028a.2.2 0 0 1-.028.07l-.002.002v.004q-.201.373-.338.642l-.246.495-.203.435q-.098.21-.242.512-.169.352-.383.78-.219.425-.422.876l-.004.006-.002.006q-.192.459-.343.908l-.002.008-.002.006c-.097.323-.15.635-.15.933 0 .338.082.707.4.926l.017.014.02.01c.247.14.516.18.806.18.337 0 .677-.073 1.012-.206l.006-.002a6 6 0 0 0 .963-.482q.471-.288.926-.65l.004-.004.004-.002q.439-.367.82-.735l.006-.006q.085-.08.142-.136l.082-.077.04-.105q.269-.694.706-1.416.508-.837 1.2-1.654.683-.809 1.472-1.434l.004-.002a8 8 0 0 1 1.639-.994 4.1 4.1 0 0 1 1.646-.36q.255.002.46.057h.005a.8.8 0 0 1 .301.137l.016.012.015.011a.4.4 0 0 1 .149.188l.004.01.006.01a.9.9 0 0 1 .076.394q0 .39-.092.898-.088.464-.287.873a2 2 0 0 1-.467.631c-.132.117-.291.16-.502.172v-.24q.014-.256.014-.486c0-.218-.03-.422-.11-.616a.8.8 0 0 0-.355-.396 1 1 0 0 0-.465-.106c-.349 0-.678.13-1.004.33a5.2 5.2 0 0 0-.904.713l-.002.002-.004.004q-.43.43-.836.971-.403.523-.73 1.076l-.003.002v.002a7.4 7.4 0 0 0-.521 1.076l-.002.006-.002.006c-.127.36-.201.684-.201.996 0 .449.183.89.523 1.174l.004.002.004.004c.346.277.792.395 1.272.395q.727-.001 1.515-.235.766-.224 1.516-.568h-.004a17 17 0 0 0 1.447-.738q.681-.392 1.236-.743h.002c.075-.048.114-.076.174-.115l.16-.101.053-.184q.166-.6.444-1.234l.002-.002v-.002q.365-.813.912-1.606l.002-.002q.546-.786 1.293-1.4l.004-.002.002-.002a6 6 0 0 1 1.693-.99l.002-.003.004-.002c.622-.25 1.318-.378 2.103-.378.32 0 .669.04 1.047.128h.002v.002a3.1 3.1 0 0 1 1 .42c.29.188.524.433.717.754l.004.006.004.006c.178.278.28.637.28 1.12 0 .24-.035.54-.106.888q-.105.5-.32 1.068l-.106.274.187.224c.142.17.325.31.536.391.186.072.384.103.58.103.293 0 .583-.082.869-.218q.419-.194.836-.489a9 9 0 0 0 .818-.65 19 19 0 0 0 1.387-1.37h-.002c.174-.191.313-.347.433-.485l.166-.05.096-.198a27 27 0 0 0 .234-.499c.163-.348.352-.574.55-.712.223-.157.402-.211.558-.211.104 0 .166.02.271.12l.006.005.004.006c.058.051.106.125.106.357a1.5 1.5 0 0 1-.152.646l.845.522c.169-.215.435-.46.799-.717l.004-.002.002-.002a7.3 7.3 0 0 1 1.207-.71l.002-.003h.002a9 9 0 0 1 1.38-.53q.704-.196 1.296-.194c.423 0 .723.098.96.275l.008.004.006.004c.188.13.301.336.301.82q.002.44-.137.94a7 7 0 0 1-.388 1.043l-.004.003-.002.006a10 10 0 0 1-.533 1.053v.002l-.002.002q-.296.52-.588.98-.3.475-.557.874l-.002.002-.002.002a15 15 0 0 0-.4.668l.049-.073a1.35 1.35 0 0 0-.297.844c0 .175.063.375.185.522.166.199.42.265.615.265.098 0 .189-.009.284-.02l.027-.001.027-.006c.187-.042.335-.127.49-.235l-.11.059a13 13 0 0 0 1.634-.742 23 23 0 0 0 1.596-.924l.004-.002.002-.002q.758-.494 1.392-.98h.002a15 15 0 0 0 1.078-.907l-.01.012a.3.3 0 0 1 .077-.05l.017-.007c.02.027.037.057.037.153 0 .187-.065.442-.23.755l-.002.004-.002.006c-.141.283-.379.565-.733.844l-.002.004q-.804.579-1.484 1.058l-.002.002-.002.002q-.656.473-1.355.891h.004q-.678.402-1.471.764a14 14 0 0 1-1.822.646l-.004.002h-.004a6 6 0 0 1-.631.158h-.002l-.002.002a2.5 2.5 0 0 1-.465.05c-.41 0-.603-.1-.728-.24-.137-.175-.233-.441-.233-.866v-.156l.026-.182.002-.016v-.015a3 3 0 0 1 .197-.827v-.002q.205-.5.48-1.037.293-.544.612-1.072l.002-.004.002-.002q.33-.56.603-1.05l.002-.004q.292-.51.488-.916c.141-.293.237-.554.237-.846 0-.233-.092-.477-.248-.664a.97.97 0 0 0-.74-.352c-.71 0-1.396.216-2.02.625h-.002l-.002.002a8.6 8.6 0 0 0-1.625 1.428l-.002.002-.002.002a15.5 15.5 0 0 0-1.36 1.726q-.602.893-1.062 1.598l-.006.008-.004.006q-.303.499-.56 1.07v.004l-.002.002q-.222.512-.467.963c-.149.263-.313.47-.486.629l-.008.008-.008.007c-.12.12-.232.17-.447.17-.228 0-.327-.05-.42-.152-.11-.12-.155-.235-.155-.437 0-.028.043-.274.168-.614q.194-.526.504-1.232c.14-.318.296-.659.46-1.01l-.78-.59-.018.016q-.465.397-.962.672a1.72 1.72 0 0 1-1.418.15l-.006-.002a2.2 2.2 0 0 1-.56-.303l-.429-.306-.285.443a8.3 8.3 0 0 1-1.11 1.377 6.6 6.6 0 0 1-1.37 1.05l-.002.003h-.002a6.6 6.6 0 0 1-1.625.68l-.006.002h-.004a6.6 6.6 0 0 1-1.85.253c-.2 0-.468-.041-.789-.136a2.8 2.8 0 0 1-.855-.436 2.7 2.7 0 0 1-.67-.805 2 2 0 0 1-.223-.66l-.133-.779-.646.455c-.205.144-.416.288-.643.44q-.77.51-1.67.939h-.002l-.002.002a11.5 11.5 0 0 1-1.824.7l-.004.001h-.004a6.2 6.2 0 0 1-1.802.28c-.433 0-.8-.07-1.116-.196h-.002a2.3 2.3 0 0 1-.773-.502 2.2 2.2 0 0 1-.478-.758 3 3 0 0 1-.075-.228l-.204-.748-.598.496q-.574.478-1.168.87a8.3 8.3 0 0 1-1.498.784c-.482.19-.957.281-1.436.281-.685 0-1.154-.167-1.496-.463-.306-.281-.492-.727-.496-1.465l-.004-.795-.715.348c-.103.05-.2.099-.29.139h-.003l-.004.002c-.647.275-1.367.414-2.175.414-.227 0-.44-.04-.649-.121a7 7 0 0 1-.965-.518l-.386-.242-.276.363c-.606.8-1.206 1.389-1.785 1.778v.002h-.002c-.56.382-1.112.558-1.695.558a2 2 0 0 1-.774-.15l-.005-.002-.006-.004a1.6 1.6 0 0 1-.616-.406 2.3 2.3 0 0 1-.453-.727 2.8 2.8 0 0 1-.16-.85l-.043-.87-.73.474c-.383.25-.818.514-1.313.795q-.817.457-1.752.848h-.002q-.907.384-1.902.634h-.006a7.5 7.5 0 0 1-1.906.258c-.509 0-.94-.096-1.313-.28a3 3 0 0 1-.965-.755l-.002-.002a3.5 3.5 0 0 1-.613-1.129 4.3 4.3 0 0 1-.217-1.373 3.8 3.8 0 0 1 .217-1.19v-.001q.223-.682.654-1.383a8.6 8.6 0 0 1 1.057-1.367q.631-.672 1.412-1.184a7.3 7.3 0 0 1 1.701-.818 6.3 6.3 0 0 1 1.979-.303m-.773.96a2.95 2.95 0 0 0-1.225.26 4 4 0 0 0-.998.657 5.2 5.2 0 0 0-.78.871l-.001.004-.004.004q-.313.465-.567.93a9 9 0 0 0-.437.873l-.004.007-.002.006q-.162.41-.256.707l-.361 1.145 1.066-.549q.521-.27 1.067-.61.546-.33 1.021-.632c.317-.202.593-.383.83-.551l.008-.006c.23-.156.398-.265.47-.308l.003-.004.004-.002c.46-.287.802-.556 1.03-.88l.003-.003.004-.004c.194-.285.33-.568.33-.899a1 1 0 0 0-.305-.705 1.1 1.1 0 0 0-.55-.287 1 1 0 0 0-.217-.023zm37.482.575c-.532 0-1.054.139-1.539.402a4.4 4.4 0 0 0-1.244 1 5 5 0 0 0-.844 1.383 4.2 4.2 0 0 0-.324 1.61q0 .31.047.666v.004q.053.385.213.738l.006.014.005.013c.131.248.32.466.551.633.28.202.623.28.98.28.527 0 1.043-.14 1.52-.407l.002-.002c.47-.266.888-.61 1.248-1.023l.002-.002.002-.002c.36-.424.648-.903.858-1.428a4.4 4.4 0 0 0 .273-2.273 1.95 1.95 0 0 0-.226-.748 1.54 1.54 0 0 0-.563-.606c-.28-.183-.61-.252-.967-.252m-37.482.426h.129c-.015 0 0 0 .03.006l.009.002.007.002c.015.002.016.004.024.012a.9.9 0 0 1-.154.324c-.096.134-.341.357-.733.601-.117.07-.284.182-.525.346l-.004.004-.004.002q-.33.233-.795.53c-.221.14-.471.292-.717.443l.032-.061.002-.002v-.004q.23-.42.513-.84l.004-.004.002-.004a4.2 4.2 0 0 1 .621-.695q.349-.31.748-.492c.25-.113.514-.17.81-.17zm37.482.574c.232 0 .362.047.424.088l.008.006.01.004a.5.5 0 0 1 .199.21l.006.01.004.01a.9.9 0 0 1 .11.377l.003.014.002.012a3.36 3.36 0 0 1-.213 1.777c-.172.429-.4.808-.69 1.148v.002a3.8 3.8 0 0 1-.98.803 2.07 2.07 0 0 1-1.031.281c-.215 0-.33-.045-.395-.091a.8.8 0 0 1-.244-.28 1.7 1.7 0 0 1-.125-.44v-.003q-.04-.302-.04-.533c0-.423.08-.827.247-1.227h.002v-.002a4 4 0 0 1 .674-1.107c.287-.33.607-.583.963-.774l.002-.002h.002a2.16 2.16 0 0 1 1.062-.283" aria-label="Devicon" color="#000" font-family="Damion" font-size="29.333" style="-inkscape-font-specification:&quot;Damion, Normal&quot;;-inkscape-stroke:none"/>
    </g>
</svg>
