<svg height="18" viewBox="0 0 18 18" width="18" xmlns="http://www.w3.org/2000/svg"><g fill="none" stroke="#fff" stroke-linecap="round" stroke-linejoin="round" stroke-width="2" transform="scale(.75)"><path d="m4 10h8c1.104167 0 2 .895833 2 2v8c0 1.104167-.895833 2-2 2h-8c-1.104167 0-2-.895833-2-2v-8c0-1.104167.895833-2 2-2zm0 0"/><path d="m17.921875 14 3.5-3.5c.765625-.854167.765625-2.145833 0-3l-5-4.921875c-.854167-.765625-2.151042-.765625-3 0l-3.421875 3.421875m-4 12h.010417m3.989583-4h.010417m4.989583-8h.010417m2.989583 3h.010417"/></g></svg>