<svg height="18" viewBox="0 0 18 18" width="18" xmlns="http://www.w3.org/2000/svg"><path d="m.0195312 3.777344c-.0117187.007812-.0195312 1.75-.0195312 3.863281v3.847656l1.777344-.007812c2.089844-.007813 2.269531-.027344 2.882812-.316407l.132813-.058593.015625-.183594c.074218-.816406.742187-1.46875 1.527344-1.492187.183593-.003907.171874.003906.296874-.308594.269532-.675782.328126-1.820313.140626-2.652344-.335938-1.484375-1.390626-2.429688-2.960938-2.65625-.238281-.035156-3.7617188-.066406-3.7929688-.035156m8.0390628 3.703125v3.71875l-.0625.238281c-.300782 1.179688-1.699219 1.628906-2.625.84375-.039063-.035156-.125-.128906-.195313-.207031l-.125-.148438-.144531.066407c-.3125.140624-1.019531.34375-1.203125.34375-.242187 0 .269531.796874.773437 1.203124.632813.507813 1.148438.679688 2.03125.679688 1.625-.003906 2.6875-.785156 3.128907-2.308594.144531-.503906.144531-.511718.136719-4.492187l-.007813-3.644531-1.707031-.011719zm6.277344-3.703125c-1.847657.097656-3.105469 1.246094-3.105469 2.832031 0 1.269531.59375 2.054687 2.039062 2.6875.175781.078125.464844.207031.640625.285156.230469.101563.464844.203125.695313.300781 1.300781.554688 1.589843.828126 1.589843 1.492188 0 1.589844-2.507812 1.796875-4.230468.347656-.105469-.089844-.199219-.152344-.207032-.140625l-.785156.929688c-.042968.050781-.101562.117187-.132812.152343-.089844.09375-.078125.113282.175781.328126 1.753906 1.492187 4.453125 1.671874 5.988281.394531 1.046875-.867188 1.3125-2.507813.589844-3.636719-.285156-.441406-.886719-.925781-1.421875-1.136719-.050781-.019531-.105469-.042969-.117187-.054687-.015626-.011719-.074219-.039063-.128907-.058594-.109375-.042969-.214843-.085938-.320312-.132812-.21875-.09375-.4375-.1875-.660157-.277344-.082031-.035156-.234374-.097656-.339843-.144532-.09375-.039062-.191407-.078124-.285157-.113281-.859374-.320312-1.292968-.738281-1.328124-1.269531-.074219-1.261719 1.734374-1.683594 3.28125-.765625.050781.027344.179687.121094.289062.203125s.207031.148438.21875.148438c.015625-.003907.65625-.78125.835938-1.019532l.070312-.097656-.125-.109375c-.234375-.210937-.625-.488281-.847656-.605469-.175782-.089844-.226563-.117187-.34375-.167968-.601563-.269532-1.355469-.40625-2.035156-.371094m-10.960938 1.652344c.984375.136718 1.527344.851562 1.570312 2.066406.042969 1.234375-.503906 2.089844-1.480468 2.300781-.25.054687-1.425782.101563-1.578125.0625l-.0625-.015625v-2.203125c0-1.210937.007812-2.210937.015625-2.21875.027344-.027344 1.320312-.019531 1.535156.007813m2.730469 4.667968c-1.054688.425782-.800781 1.945313.324219 1.941406 1.085937-.003906 1.398437-1.4375.417968-1.90625-.1875-.089843-.566406-.105468-.742187-.035156" fill="#fff"/></svg>