<svg height="18" viewBox="0 0 18 18" width="18" xmlns="http://www.w3.org/2000/svg"><path d="m4.914062 11.96875c-.132812.058594-.320312.132812-.46875.179688-.320312.101562-.574218.140624-.835937.179687.316406 1.007813 1.546875 1.996094 2.980469 1.90625 1.351562 0 2.289062-.667969 2.789062-1.636719-1.414062-.019531-3.472656.570313-4.464844-.628906m12.914063.167969c-.496094.058593-.847656-.042969-1.65625.21875-1.960937.804687-3.902344.121093-4.519531-.011719-.203125-.023438-.292969-.320312-.710938.171875l-.203125.238281c.957031.945313 2.269531 1.484375 3.632813 1.484375 1.828125 0 3.066406-.882812 3.476562-2.085937zm0 0" fill="#b75cff"/><path d="m17.933594 10.5625c-1.078125-.75-1.292969-.207031-1.832032.375.046876.128906.074219.273438.074219.441406 0 .789063-.632812 1.300782-1.761719 1.300782-.941406 0-1.914062-.464844-2.640624-1.144532l-.832032.980469c1.128906.050781 2.269532.34375 3.410156.296875 1.25-.050781 2.898438-.445312 3.476563-.675781l.023437.015625c.097657-.292969.148438-.601563.148438-.910156 0-.246094-.023438-.472657-.066406-.679688m-8.132813.015625c-.609375-.464844-1.195312-.308594-1.757812.351563v.113281c0 .890625-.71875 1.609375-1.605469 1.609375-.554688 0-1.070312-.285156-1.363281-.753906 0 0-.070313.03125-.160157.070312.417969.53125.9375.804688 1.960938.84375.835938.035156 1.667969-.113281 2.503906-.214844.277344-.539062.421875-1.175781.421875-1.839844zm0 0" fill="#5c6cff"/><path d="m9.800781 8.667969c-.570312-.5-1.152343-.601563-1.757812.164062v2.097657c.589843-.136719 1.175781-.277344 1.757812-.351563zm6.792969.152343c-.875-.382812-3.5 0-3.964844.175782.191406.113281.390625.210937.597656.296875l1.375.601562c.738282.308594 1.300782.539063 1.5 1.042969.566407-.082031 1.054688-.195312 1.382813-.269531l.445313-.105469c-.171876-.804688-.65625-1.34375-1.335938-1.742188" fill="#5cff9d"/><path d="m11.1875 6.734375c.046875 1.113281.691406 1.816406 1.445312 2.261719.574219.113281 1.148438.214844 1.722657.214844.800781 0 1.601562-.191407 2.238281-.390626-.203125-.117187-.414062-.222656-.632812-.316406l-1.359376-.570312c-.671874-.273438-1.304687-.515625-1.523437-1.011719-1.355469-.6875-.445313-1.125-1.890625-.1875zm-1.386719.132813c-.515625-.355469-1.097656-.25-1.757812.324218v1.640625c.585937-.058593 1.171875-.136719 1.757812-.164062zm0 0" fill="#ffdb5c"/><path d="m11.792969 4.933594c-.386719.464844-.605469 1.039062-.605469 1.671875v.128906c.628906-.007813 1.257812.0625 1.890625.1875-.058594-.128906-.085937-.269531-.082031-.410156 0-.742188.617187-1.191407 1.574218-1.191407.863282 0 1.558594.328126 2.195313.867188l.671875-.828125c-1.964844-.609375-3.722656-.992187-5.644531-.425781zm-1.992188.394531c-.726562-.636719-1.28125-.164063-1.757812.722656v1.140625c.585937-.09375 1.171875-.222656 1.757812-.324218zm0 0" fill="#f79454"/><path d="m8.042969 3.761719v2.289062c.585937-.195312 1.171875-.488281 1.757812-.722656v-1.566406zm6.527343 0c-1.191406 0-2.179687.453125-2.777343 1.171875.847656 0 1.703125.171875 2.558593.273437 1.222657.148438 2.4375.152344 3.085938.152344l.253906-.316406c-.789062-.789063-1.933594-1.28125-3.121094-1.28125zm0 0" fill="#ff5c5c"/><path d="m0 3.761719v7.734375h2.929688c.765624 0 1.355468-.121094 1.898437-.398438 0-.019531 0-.035156 0-.054687 0-.890625.71875-1.613281 1.609375-1.613281h.078125c.277344-.566407.390625-1.128907.390625-1.867188 0-.761719-.144531-1.425781-.429688-2-.300781-.5625-.730468-1.003906-1.304687-1.328125-.574219-.320313-1.269531-.472656-2.101563-.472656zm1.855469 1.65625h1.117187c.652344 0 1.148438.1875 1.480469.574219.332031.386718.496094.917968.496094 1.601562 0 .699219-.175781 1.238281-.519531 1.636719-.339844.410156-.851563.609375-1.523438.609375h-1.050781zm4.585937 4.609375c-.367187-.007813-.710937.183594-.898437.5-.183594.316406-.183594.710937 0 1.027344.1875.316406.53125.511718.898437.503906.554688-.011719 1-.460938 1-1.015625 0-.554688-.445312-1.007813-1-1.015625zm0 0" fill="#5865f2"/></svg>