<svg height="18" viewBox="0 0 18 18" width="18" xmlns="http://www.w3.org/2000/svg"><g fill="#092e20"><path d="m8.359375 0h2.945313v13.625c-1.511719.285156-2.621094.398438-3.824219.398438-3.59375 0-5.464844-1.621094-5.464844-4.738282 0-3 1.988281-4.949218 5.0625-4.949218.480469 0 .84375.039062 1.28125.152343zm0 6.859375c-.34375-.117187-.628906-.15625-.992187-.15625-1.492188 0-2.351563.917969-2.351563 2.523437 0 1.566407.820313 2.429688 2.332031 2.429688.324219 0 .589844-.019531 1.011719-.078125zm0 0"/><path d="m15.984375 4.546875v6.820313c0 2.351562-.171875 3.480468-.6875 4.453124-.476563.9375-1.109375 1.53125-2.40625 2.179688l-2.734375-1.300781c1.300781-.609375 1.929688-1.144531 2.332031-1.96875.417969-.839844.554688-1.8125.554688-4.375v-5.808594zm-2.941406-4.53125h2.941406v3.019531h-2.941406zm0 0"/></g></svg>