<svg height="18" viewBox="0 0 18 18" width="18" xmlns="http://www.w3.org/2000/svg"><path d="m15 2c-1.348958 1.5-2.09375 3-2.5 4.5l1.5 1.5m3-2-2.890625-2.890625m-12.109375 11.890625c3.333333-3 6.666667-3 10-3m-10-10 20 20m-2-13 .890625.890625m1.109375-.890625c-1.5 1.348958-3 2.09375-4.5 2.5l-1-1m-13.390625 3.609375.890625.890625m2.5-2.5 1 1m-.5 4.5 2.890625 2.890625m-.890625 1.109375c1.348958-1.5 2.09375-3 2.5-4.5l-1.5-1.5" fill="none" stroke="#fff" stroke-linecap="round" stroke-linejoin="round" stroke-width="2" transform="scale(.75)"/></svg>