<svg height="18" viewBox="0 0 18 18" width="18" xmlns="http://www.w3.org/2000/svg"><g fill="none" stroke="#fff" stroke-linecap="round" stroke-linejoin="round" stroke-width="2" transform="scale(.75)"><path d="m20.5 10c-.739583-.015625-1.4375-.359375-1.901042-.9375-.463541-.578125-.645833-1.333333-.5-2.0625h-.098958c-1.052083.010417-2.036458-.541667-2.572917-1.447917-.536458-.911458-.546875-2.036458-.026041-2.953125-4.302084-1.572916-9.125-.020833-11.703125 3.765625-2.572917 3.786459-2.25 8.838542.786458 12.265625 3.041667 3.427084 8.020833 4.348959 12.088542 2.239584 4.0625-2.109375 6.177083-6.713542 5.125-11.171875-.296875.203125-.796875.302083-1.197917.302083"/><path d="m15 12c0 1.65625-1.34375 3-3 3s-3-1.34375-3-3 1.34375-3 3-3 3 1.34375 3 3zm0 0"/></g></svg>