<svg height="18" viewBox="0 0 18 18" width="18" xmlns="http://www.w3.org/2000/svg"><path d="m13 4h3c1.104167 0 2 .895833 2 2v14m-16 0h3m8 0h9m-12-8v.010417m3-7.447917v16.15625c0 .307292-.140625.598958-.385417.786458-.239583.192709-.557291.260417-.854166.182292l-6.760417-1.6875v-14.4375c0-.916667.625-1.71875 1.515625-1.942708l4-1c.598958-.145834 1.229167-.010417 1.713542.364583.484375.380208.770833.963542.770833 1.578125zm0 0" fill="none" stroke="#fff" stroke-linecap="round" stroke-linejoin="round" stroke-width="2" transform="scale(.75)"/></svg>