<svg height="18" viewBox="0 0 18 18" width="18" xmlns="http://www.w3.org/2000/svg"><path d="m11.546875 11.03125c.066406-.175781.144531-.34375.199219-.523438.324218-.996093.640625-1.996093.957031-2.996093.121094-.382813.257813-.761719.496094-1.089844.378906-.523437.90625-.796875 1.527343-.890625.246094-.039062.496094-.058594.746094-.058594.738282-.007812 1.480469 0 2.21875 0 .042969 0 .082032.003906.136719.007813-.019531.042969-.027344.070312-.042969.101562-.277344.488281-.546875.984375-.828125 1.46875-.492187.847657-.988281 1.695313-1.496093 2.53125-.324219.539063-.679688 1.058594-1.082032 1.542969-.292968.359375-.605468.703125-1.003906.953125-.269531.171875-.558594.273437-.886719.269531-1.164062-.003906-2.328125 0-3.492187-.003906-.347656 0-.644532-.132812-.894532-.363281-.359374-.335938-.574218-.761719-.75-1.210938-.324218-.820312-.503906-1.683593-.710937-2.535156-.09375-.398437-.203125-.792969-.308594-1.191406-.007812-.027344-.019531-.050781-.035156-.085938l-.082031.074219c-.453125.453125-.855469.949219-1.210938 1.476562-.097656.144532-.132812.335938-.183594.507813-.203124.625-.382812 1.261719-.601562 1.882813-.207031.597656-.578125 1.074218-1.160156 1.351562-.339844.164062-.707032.253906-1.082032.261719-.5625.011719-1.121093.015625-1.679687.019531-.132813 0-.140625-.011719-.105469-.140625.238282-.890625.542969-1.757813.925782-2.597656.390624-.867188.855468-1.695313 1.4375-2.453125.398437-.511719.835937-.988282 1.382812-1.34375.28125-.183594.574219-.328125.914062-.367188.054688-.003906.109376-.007812.164063-.007812 1.195313 0 2.386719.011718 3.578125-.007813.640625-.007812 1.101562.261719 1.449219.777344.214843.320313.371093.667969.5 1.03125.261719.726563.421875 1.480469.609375 2.230469.101562.429687.21875.855468.332031 1.285156.007813.03125.023437.0625.035156.09375zm0 0" fill="#1384c8" fill-rule="evenodd"/></svg>