<svg height="18" viewBox="0 0 18 18" width="18" xmlns="http://www.w3.org/2000/svg"><path d="m8.605469 0h.695312c1.816407.0742188 3.613281.6875 5.070313 1.78125 1.378906 1.027344 2.457031 2.453125 3.054687 4.066406.34375.898438.515625 1.851563.574219 2.8125v.589844c-.058594 1.589844-.515625 3.167969-1.367188 4.511719-.957031 1.53125-2.378906 2.773437-4.039062 3.492187-1.089844.472656-2.257812.726563-3.441406.746094h-.300782c-1.652343-.027344-3.292968-.515625-4.683593-1.40625-1.574219-1-2.828125-2.5-3.519531-4.234375-.382813-.941406-.585938-1.949219-.648438-2.964844v-.695312c.0703125-2.023438.835938-4.023438 2.167969-5.554688 1.089843-1.273437 2.542969-2.234375 4.144531-2.730469.742188-.234374 1.515625-.3554682 2.292969-.414062m-5.0625 5.277344c-.003907 1.707031-.003907 3.417968-.003907 5.125.203126.003906.402344.003906.605469.003906-.011719-1.46875.015625-2.9375-.015625-4.402344.066406.128906.128906.257813.207032.378906.871093 1.339844 1.726562 2.6875 2.597656 4.023438.246094-.003906.488281-.003906.734375 0 0-1.710938 0-3.417969 0-5.128906-.199219-.003906-.398438-.003906-.597657-.003906.011719 1.453124-.019531 2.902343.015626 4.355468-.914063-1.457031-1.839844-2.90625-2.769532-4.351562-.257812-.003906-.515625-.003906-.773437 0m5.460937-.003906c-.015625 1.710937 0 3.421874-.003906 5.132812.90625-.003906 1.816406 0 2.726562-.003906-.003906-.1875 0-.371094.003907-.554688-.703125-.003906-1.410157 0-2.113281-.003906-.011719-.59375-.003907-1.183594-.007813-1.777344.617187-.011718 1.238281 0 1.855469-.007812-.003906-.179688-.003906-.359375-.003906-.539063-.617188.019531-1.234376-.007812-1.851563.003907.003906-.566407.003906-1.132813.003906-1.699219.660157 0 1.320313-.003907 1.980469 0 0-.179688 0-.363281.003906-.546875-.863281-.003906-1.730468-.003906-2.59375-.003906m3.179688.007812v.535156c.492187-.007812.980468.015625 1.472656.003906-.003906 1.527344 0 3.054688-.003906 4.582032.207031.003906.414062.003906.617187-.011719-.015625-.84375.019531-1.6875-.019531-2.53125.007812-.378906-.011719-.757813.015625-1.136719.015625-.300781-.039063-.601562-.003906-.902344.492187.007813.988281.003907 1.484375.003907-.003906-.179688 0-.359375.007812-.539063-1.191406-.015625-2.378906-.015625-3.570312-.003906m-10.277344 4.433594c-.277344.128906-.296875.566406-.023438.707031.242188.167969.605469-.050781.597657-.335937.015625-.285157-.324219-.519532-.574219-.371094m4.109375 2.152344c-.601563.488281-.59375 1.574218.070313 2.003906.375.238281.859374.1875 1.253906.03125.003906-.089844.003906-.175782.007812-.261719-.375.195313-.902344.234375-1.21875-.085937-.417968-.457032-.324218-1.304688.226563-1.617188.308593-.160156.6875-.113281.996093.035156 0-.09375 0-.183594 0-.277344-.4375-.15625-.972656-.148437-1.335937.171876m2.421875.378906c-.269531.03125-.53125.171875-.652344.417968-.175781.351563-.15625.824219.121094 1.121094.285156.320313.835938.324219 1.148438.039063.34375-.324219.378906-.90625.109374-1.289063-.164062-.226562-.460937-.304687-.726562-.289062m2.511719.382812c-.230469.40625-.183594 1.019532.226562 1.296875.308594.171875.695313.117188.996094-.042969-.003906-.085937 0-.175781.003906-.261718-.238281.152344-.554687.261718-.816406.109375-.1875-.101563-.242187-.316407-.269531-.507813.402344-.007812.804687-.011718 1.210937-.011718-.011719-.257813-.015625-.546876-.203125-.746094-.308594-.339844-.933594-.234375-1.148437.164062m-1.179688-.328125v1.691407h.277344c0-.308594-.007813-.617188 0-.929688.003906-.175781.074219-.359375.210937-.480469.113282-.082031.265626-.035156.394532-.03125-.003906-.089843-.003906-.179687-.003906-.269531-.253907-.054688-.46875.09375-.597657.296875-.003906-.085937-.003906-.175781-.007812-.265625-.089844-.003906-.183594-.007812-.273438-.011719m0 0"/><path d="m8.261719 12.546875c.234375-.113281.566406-.058594.695312.183594.148438.265625.144531.617187-.019531.871093-.210938.324219-.777344.253907-.914062-.101562-.144532-.320312-.089844-.773438.238281-.953125zm2.851562.449219c.007813-.222656.164063-.441406.386719-.488282.136719-.023437.292969 0 .386719.109376.097656.101562.117187.242187.140625.371093-.304688.003907-.609375-.003906-.914063.007813zm0 0"/></svg>