<svg height="18" viewBox="0 0 18 18" width="18" xmlns="http://www.w3.org/2000/svg" xmlns:xlink="http://www.w3.org/1999/xlink"><clipPath id="a"><path d="m4 0h10v18h-10zm0 0"/></clipPath><clipPath id="b"><path d="m4.5 16.4375s5.121094 2.542969 9.035156-.476562c-1.019531-2.742188-2.8125-10.652344-3.871094-14.144532-.226562-.746094-.265624-.820312-.355468-1.023437-.519532-1.144531-1.0625 2.21875-1.945313 5.605469-.316406 1.214843-2.863281 10.039062-2.863281 10.039062"/></clipPath><clipPath id="c"><path d="m5 0h9v18h-9zm0 0"/></clipPath><clipPath id="d"><path d="m5.53125 15.875s4.382812 2.570312 8.003906.085938c-.097656-.433594-.34375-1.128907-.511718-1.777344-.890626-3.4375-2.507813-9.246094-3.292969-12.128906-.851563-3.121094-1.128907.527343-2.125 4.414062-.300781 1.179688-2.074219 9.40625-2.074219 9.40625"/></clipPath><linearGradient id="e"><stop offset="0" stop-color="#3871c1"/><stop offset=".515" stop-color="#2c3792"/><stop offset=".865" stop-color="#24265d"/><stop offset="1" stop-color="#252761"/></linearGradient><linearGradient id="f" gradientTransform="matrix(-13.789096 7.321246 -7.321246 -13.789096 18.155644 4.678065)" gradientUnits="userSpaceOnUse" x1="0" x2="1" xlink:href="#e" y1="0" y2="0"/><linearGradient id="g" gradientTransform="matrix(-8.046989 2.099233 -2.099233 -8.046989 11.483886 8.567081)" gradientUnits="userSpaceOnUse" x1="0" x2="1" xlink:href="#e" y1="0" y2="0"/><g clip-path="url(#a)"><g clip-path="url(#b)"><path d="m4.5 16.4375s5.121094 2.542969 9.035156-.476562c-1.019531-2.742188-2.8125-10.652344-3.871094-14.144532-.226562-.746094-.265624-.820312-.355468-1.023437-.519532-1.144531-1.0625 2.21875-1.945313 5.605469-.316406 1.214843-2.863281 10.039062-2.863281 10.039062" fill="url(#f)"/></g></g><g clip-path="url(#c)"><g clip-path="url(#d)"><path d="m5.53125 15.875s4.382812 2.570312 8.003906.085938c-.097656-.433594-.34375-1.128907-.511718-1.777344-.890626-3.4375-2.507813-9.246094-3.292969-12.128906-.851563-3.121094-1.128907.527343-2.125 4.414062-.300781 1.179688-2.074219 9.40625-2.074219 9.40625" fill="url(#g)"/></g></g><path d="m6.71875 13.648438.457031-.785157.425781.828125-.488281 1.066406zm3.71875-2.972657.457031-.785156.421875.828125-.484375 1.066406zm-2.546875-3.136719.457031-.785156.425782.828125-.488282 1.066407zm0 0" fill="#f9a72b"/><path d="m6.71875 13.648438.457031-.917969.425781.960937-.488281.785156zm3.71875-2.972657.457031-.917969.421875.960938-.484375.785156zm-2.546875-3.136719.457031-.917968.425782.960937-.488282.785157zm0 0" fill="#fff200"/><path d="m7.171875 15.800781s3.261719.542969 5.410156-.832031c-.269531.832031-2.675781 1.777344-5.410156.832031" fill="#24265d"/></svg>