<svg height="18" viewBox="0 0 18 18" width="18" xmlns="http://www.w3.org/2000/svg"><g fill="none" stroke="#fff" stroke-linecap="round" stroke-linejoin="round" stroke-width="2" transform="scale(.75)"><path d="m15.401042 15.630208c-3.072917.984375-5.901042-.046875-6.96875-2.546875-1.067709-2.5-.125-5.880208 2.322916-8.328125 2.447917-2.447916 5.828125-3.390625 8.328125-2.322916 2.5 1.067708 3.53125 3.895833 2.546875 6.96875-1.432291-.817709-3.536458-.322917-5.046875 1.182291-1.505208 1.510417-2 3.614584-1.182291 5.046875"/><path d="m8.291667 12.708333-2.604167 2.604167c-.864583-.479167-1.932292-.401042-2.71875.197917-.791667.604166-1.145833 1.614583-.916667 2.578125.234375.958333 1.010417 1.697916 1.989584 1.869791.1875.963542.927083 1.723959 1.880208 1.947917s1.953125-.130208 2.552083-.90625c.598959-.78125.6875-1.833333.223959-2.697917l2.59375-2.59375"/></g></svg>