<svg height="18" viewBox="0 0 18 18" width="18" xmlns="http://www.w3.org/2000/svg"><path d="m12.808594 3.503906c-.894532-.554687-1.734375-.773437-2.578125-1.328125-.523438-.355469-1.246094-1.199219-1.855469-1.921875-.117188 1.160156-.46875 1.632813-.875 1.96875-.859375.675782-1.398438.878906-2.140625 1.28125-.625.320313-4.011719 2.34375-4.011719 6.691406 0 4.351563 3.65625 7.550782 7.71875 7.550782s7.585938-2.949219 7.585938-7.414063c0-4.46875-3.304688-6.488281-3.84375-6.828125m.097656 12.65625c-.085938.085938-.859375.625-1.769531.707032-.910157.085937-2.140625.136718-2.882813-.539063-.117187-.117187-.082031-.285156 0-.351563.085938-.066406.152344-.117187.253906-.117187.101563 0 .085938 0 .132813.03125.339844.269531.84375.488281 1.921875.488281s1.839844-.300781 2.175781-.554687c.152344-.117188.21875-.015625.234375.050781.019532.066406.050782.167969-.066406.285156m-2.949219-1.53125c.183594-.171875.488281-.441406.773438-.558594.289062-.117187.441406-.101562.710937-.101562.269532 0 .554688.019531.757813.152344.203125.136718.320312.4375.386719.605468.066406.171876 0 .273438-.132813.339844-.121094.066406-.136719.03125-.253906-.1875-.117188-.21875-.21875-.4375-.808594-.4375s-.777344.203125-1.0625.4375c-.285156.238282-.386719.320313-.488281.1875-.101563-.136718-.070313-.269531.117187-.4375m4.464844.132813c-.605469-.050781-1.820313-1.9375-2.59375-1.972657-.976563-.03125-3.101563 2.039063-4.769531 2.039063-1.011719 0-1.316406-.148437-1.652344-.371094-.503906-.351562-.757812-.890625-.742188-1.632812.015626-1.316407 1.246094-2.546875 2.796876-2.5625 1.972656-.015625 3.339843 1.957031 4.332031 1.9375.84375-.015625 2.460937-1.667969 3.253906-1.667969.84375 0 1.078125.878906 1.078125 1.398438 0 .523437-.167969 1.46875-.574219 2.058593-.402343.589844-.65625.808594-1.128906.773438" fill="#0073ba"/></svg>