<svg height="18" viewBox="0 0 18 18" width="18" xmlns="http://www.w3.org/2000/svg"><g fill="none" stroke="#fff" stroke-linecap="round" stroke-linejoin="round" stroke-width="2" transform="scale(.75)"><path d="m6 18.5c0 1.932292 1.567708 3.5 3.5 3.5s3.5-1.567708 3.5-3.5c0-1.567708.921875-2.520833 2.041667-3.458333m-9.041667-6.541667c0-.75.130208-1.46875.359375-2.140625m2.442708-3.208333c1.984375-1.380209 4.572917-1.536459 6.71875-.411459 2.140625 1.119792 3.479167 3.34375 3.479167 5.760417 0 1.630208-.4375 2.8125-1.088542 3.760417"/><path d="m12.5 6c1.380208 0 2.5 1.119792 2.5 2.5m-5 4.5c.786458 0 1.5-.463542 1.817708-1.182292m-9.817708-9.817708 20 20"/></g></svg>