<svg height="18" viewBox="0 0 18 18" width="18" xmlns="http://www.w3.org/2000/svg"><g fill="none" stroke="#fff" stroke-linecap="round" stroke-linejoin="round" stroke-width="2" transform="scale(.75)"><path d="m7 3.338542v1.661458c0 1.65625 1.34375 3 3 3m1 13.947917v-3.947917c0-1.104167-.895833-2-2-2s-2-.895833-2-2v-1c0-1.104167-.895833-2-2-2h-2.947917m19.489584 4h-4.541667c-1.104167 0-2 .895833-2 2v4.541667"/><path d="m12 2c-5.130208 0-9.427083 3.880208-9.947917 8.984375-.520833 5.104167 2.90625 9.776042 7.932292 10.8125 5.026042 1.03125 10.015625-1.901042 11.557292-6.796875m-1.541667-9v-2c0-1.104167-.895833-2-2-2s-2 .895833-2 2v2"/><path d="m15 6h6c.552083 0 1 .447917 1 1v3c0 .552083-.447917 1-1 1h-6c-.552083 0-1-.447917-1-1v-3c0-.552083.447917-1 1-1zm0 0"/></g></svg>