<svg height="18" viewBox="0 0 18 18" width="18" xmlns="http://www.w3.org/2000/svg"><path d="m9.125 0c-.652344.0117188-1.335938.109375-2.03125.3125-.652344.1875-1.894531.800781-2.839844 1.789062-.941406.992188-2.082031 2.675782-2.425781 4.796876-.339844 2.121093-.292969 4.324218.71875 6.527343s2.496094 3.367188 3.898437 4.050781c1.402344.683594 3.3125.589844 4.265626.320313.957031-.273437 1.425781-.589844 1.898437-.917969.46875-.332031.457031-.625.386719-.769531-.070313-.140625-.222656-.222656-.601563-.175781-.375.046875-.71875.09375-1.128906.070312-.414063-.019531-1.605469-.304687-2.535156-1.210937-.929688-.90625-1.695313-2.449219-1.871094-3.722657-.179687-1.273437-.191406-3.511718.644531-4.667968.835938-1.152344 1.734375-1.164063 2.261719-1.140625.53125.023437 1.664063.363281 1.96875 1.425781.308594 1.058594.214844 1.757812-.199219 2.320312-.414062.566407-1.011718.730469-1.53125.964844-.519531.238282-1.34375.636719-1.566406 1.402344-.222656.769531-.164062 1.6875.625 2.371094s1.683594.777344 2.34375.707031c.660156-.074219 1.308594-.378906 2.050781-.980469.742188-.597656 2.179688-2.128906 2.652344-3.933594.46875-1.804687.339844-4.324218-.835937-6.375h-.003907c-.957031-1.667968-3.304687-3.2148432-6.144531-3.164062m5.894531 14.671875c-.09375-.003906-.179687.019531-.242187.0625 0 0-.78125.46875-.601563.929687.175781.460938.46875.414063.753907.402344.28125-.011718.578124-.296875.683593-.484375s.070313-.496093-.132812-.707031c-.125-.132812-.304688-.199219-.460938-.203125" fill="#77bf43"/></svg>