<svg height="18" viewBox="0 0 18 18" width="18" xmlns="http://www.w3.org/2000/svg"><path d="m.5625 9c0 .777344.109375 1.53125.296875 2.25h10.953125c1.242188 0 2.25-1.007812 2.25-2.25s-1.007812-2.25-2.25-2.25h-10.953125c-.195313.734375-.292969 1.492188-.296875 2.25m15.144531-4.691406c.316407-.289063.605469-.601563.875-.933594-1.648437-2.054688-4.179687-3.375-7.019531-3.375-3.554688 0-6.617188 2.070312-8.074219 5.0625h12.296875c.714844 0 1.398438-.269531 1.921875-.753906m-1.921875 8.628906h-12.296875c1.460938 2.992188 4.519531 5.0625 8.074219 5.0625 2.839844 0 5.371094-1.320312 7.019531-3.375-.265625-.332031-.558593-.644531-.875-.933594-.523437-.484375-1.207031-.753906-1.921875-.753906" fill="#00bfb3"/></svg>