<svg height="18" viewBox="0 0 18 18" width="18" xmlns="http://www.w3.org/2000/svg"><path d="m12.671875 11.25c.109375-.070312.238281-.140625.351563-.210938.785156-.675781.503906-1.898437-.832032-3.613281.027344.855469.167969 1.742188.308594 2.683594.058594.367187.113281.746094.171875 1.140625m-7.609375 3.261719c.449219 1.925781 1.589844 2.96875 2.882812 3.402343.71875.128907 1.433594.101563 2.152344-.054687.113282-.054687.210938-.125.308594-.195313.28125-.183593.519531-.394531.746094-.605468-.914063-.394532-1.84375-1.152344-2.714844-2.054688-.675781-.042968-1.335938-.113281-1.914062-.195312-.5625-.058594-1.039063-.15625-1.460938-.296875m-.195312-9.070313-.03125.199219c-.195313 1.109375-.210938 2.109375-.054688 2.980469.15625-1.042969.367188-2.109375.660156-3.136719.042969-.15625.085938-.324219.140625-.492187h.015625c.222656-.703126.476563-1.378907.773438-2.011719-.5625.746093-1.054688 1.574219-1.503906 2.460937"/><path d="m4.765625 16.03125c.492187.617188 1.054687 1.070312 1.675781 1.390625-.789062-.644531-1.40625-1.617187-1.6875-3.007813-.535156-.195312-.957031-.464843-1.28125-.800781.226563.898438.648438 1.730469 1.292969 2.417969m-.082031-6.609375c-.253906-.828125-.339844-1.785156-.253906-2.867187-.15625.320312-.296876.671874-.449219 1.023437-.632813 1.84375-.914063 3.757813-.648438 5.445313.296875.449218.730469.8125 1.351563 1.066406-.199219-1.082032-.210938-2.796875 0-4.667969m.308594 4.753906c0 .011719 0 .011719 0 0 .449218.167969.957031.28125 1.5625.351563.492187.082031 1.023437.140625 1.585937.183594-1.164063-1.28125-2.191406-2.785157-2.851563-4.023438-.15625-.226562-.28125-.464844-.394531-.703125-.15625 1.714844-.113281 3.25.097657 4.191406m7.226562-4.035156c-.152344-1.054687-.320312-2.125-.320312-3.136719-1.789063-1.660156-3.515626-3.433594-3.445313-6.285156-.058594.039062-.113281.082031-.15625.125-.308594.265625-.617187.5625-.914063.886719-.632812.898437-1.140624 2.050781-1.53125 3.304687-.226562 1.628906 1.347657 4.824219 3.445313 7.269532 1.011719-.042969 2.078125-.351563 3.105469-.914063-.054688-.40625-.113282-.828125-.183594-1.25m1.40625 5.582031c-.363281-.070312-.730469-.199218-1.09375-.367187-.183594.578125-.480469 1.113281-.902344 1.605469.15625.039062.296875.082031.4375.097656.589844-.351563 1.125-.816406 1.558594-1.335938"/><path d="m8.734375.507812c-.15625 2.742188 1.417969 4.484376 3.132813 6.074219-1.503907-1.996093-2.375-3.191406-2.375-6.5390622-.238282.1250002-.492188.2812502-.757813.4648432m2.964844 14.371094c-.746094.113282-1.519531.152344-2.277344.152344-.195313 0-.40625 0-.605469-.011719.816406.816407 1.6875 1.488281 2.53125 1.828125.449219-.492187.746094-1.042968.929688-1.632812-.199219-.097656-.394532-.210938-.578125-.335938m-.335938-.226562c-.28125-.195313-.535156-.40625-.773437-.617188-.492188-.4375-.972656-.914062-1.421875-1.433594-.996094.011719-1.925781-.226562-2.683594-.71875-.113281-.070312-.226563-.15625-.324219-.238281.644532 1.027344 1.476563 2.152344 2.375 3.09375.914063.042969 1.898438.027344 2.828125-.085937m1.347657.027344c-.027344.140624-.054688.269531-.097657.410156.394531.195312.800781.335937 1.210938.378906.351562-.476562.632812-1.011719.800781-1.589844-.519531.351563-1.179688.621094-1.914062.800782"/><path d="m6.636719 11.644531c.660156.421875 1.449219.644531 2.292969.675781-1.730469-2.054687-3.066407-4.558593-3.332032-6.328124-.324218 1.25-.4375 2.023437-.621094 3.316406v.027344c.128907.324218.296876.71875.523438 1.140624.292969.476563.671875.871094 1.136719 1.167969m5.808593.054688c-.957031.519531-1.953124.816406-2.910156.886719.40625.449218.816406.871093 1.238282 1.238281.292968.265625.632812.535156.996093.773437.238281-.042968.464844-.085937.691407-.128906.140624-.882812.097656-1.8125-.015626-2.769531m.308594 2.6875c.789063-.210938 1.476563-.507813 1.984375-.929688.210938-.96875.140625-2.023437-.324219-3.148437-.40625-.691406-.800781-1.292969-1.167968-1.828125.675781 1.238281.660156 2.136719-.054688 2.753906l-.015625.015625c-.152343.097656-.308593.195312-.476562.296875.125.96875.183593 1.9375.054687 2.839844"/></svg>