<svg height="18" viewBox="0 0 18 18" width="18" xmlns="http://www.w3.org/2000/svg"><path d="m11.710938 2.464844c-.074219-.003906-.152344.007812-.226563.03125-.019531.003906-.035156.011718-.054687.019531l-4.976563 2.125c-.199219.082031-.324219.265625-.320313.480469l.128907 5.257812c.003906.214844.132812.417969.34375.546875l5.097656 3.128907c.1875.113281.414063.144531.601563.085937.019531-.003906.035156-.011719.054687-.019531l4.976563-2.125c.203124-.085938.324218-.273438.320312-.484375l-.125-5.253907c-.003906-.207031-.132812-.417968-.34375-.542968l-5.097656-3.136719c-.113282-.070313-.242188-.109375-.378906-.113281m.078124 1.285156 4.429688 2.722656.109375 4.570313-4.320313 1.84375-4.429687-2.71875-.109375-4.570313zm-3.71875 2.109375-.117187.050781.027344 1.085938 2.890625 1.773437.070312 2.90625 1.105469.675781.0625-.023437-.085937-3.742187c-.007813-.1875-.121094-.371094-.300782-.484376zm-2.378906.375-2.402344 1.023437c-.175781.078126-.28125.234376-.277343.421876l.09375 4.105468c.003906.183594.117187.367188.300781.476563l3.976562 2.445312c.164063.101563.359376.125.527344.078125.015625-.003906.03125-.011718.046875-.019531l2.351563-1.003906-1.171875-.714844-1.488281.632813-3.394532-2.082032-.082031-3.5 1.546875-.660156zm-3.136718 2.378906-1.964844.839844c-.152344.0625-.242188.203125-.238282.359375l.074219 3.101562c.003907.160157.101563.316407.257813.414063l3.007812 1.847656c.140625.085938.3125.113281.449219.066407.015625-.003907.027344-.007813.042969-.015626l1.84375-.785156-1.003906-.617187-1.105469.472656-2.511719-1.539063-.058594-2.582031 1.230469-.527343zm2.109374.03125.027344 1.03125 1.09375.671875-.023437-1.027344zm1.648438 2.660157.027344 1.015624 1 .613282-.023438-1.007813-.960937-.589843c-.011719-.011719-.03125-.023438-.042969-.03125" fill="#e13eaf"/></svg>