<svg height="18" viewBox="0 0 18 18" width="18" xmlns="http://www.w3.org/2000/svg"><path d="m1.597656.679688h14.804688c.507812 0 .917968.410156.917968.917968v14.804688c0 .507812-.410156.917968-.917968.917968h-14.804688c-.507812 0-.917968-.410156-.917968-.917968v-14.804688c0-.507812.410156-.917968.917968-.917968zm0 0" fill="#3d5a98"/><path d="m12.160156 17.320312v-6.445312h2.164063l.324219-2.511719h-2.488282v-1.601562c0-.726563.203125-1.222657 1.246094-1.222657h1.328125v-2.25c-.640625-.066406-1.289063-.101562-1.9375-.097656-1.914063 0-3.234375 1.167969-3.234375 3.320313v1.851562h-2.164062v2.511719h2.164062v6.445312zm0 0" fill="#fff"/></svg>