<svg height="18" viewBox="0 0 18 18" width="18" xmlns="http://www.w3.org/2000/svg"><path d="m17.167969 4.996094.550781-1.421875-.023438-.085938-5.429687 1.429688c.578125-.835938.378906-1.507813.378906-1.507813s-1.734375 1.105469-3.042969 1.078125c-1.3125-.03125-1.734374-.378906-3.746093.261719s-2.578125 2.609375-3.164063 3.03125c-.582031.421875-2.410156 1.796875-2.410156 1.796875l.003906.027344 1.648438-.527344s-.453125.425781-1.414063 1.722656l-.042969-.042969v.011719s.773438 1.179688 1.53125.960938c.074219-.023438.160157-.058594.253907-.105469.308593.167969.707031.335938 1.144531.382812 0 0-.296875-.347656-.546875-.742187.066406-.042969.136719-.085937.207031-.132813l-.03125.023438.625.230469-.066406-.589844s.003906-.003906.003906-.003906l.617188.226562-.074219-.539062c.074219-.039063.152344-.078125.234375-.113281l.640625-2.433594 2.660156-1.8125-.210937.53125c-.539063 1.324218-1.550782 1.636718-1.550782 1.636718l-.425781.160157c-.3125.375-.445312.464843-.550781 1.710937.25-.0625.492188-.078125.714844-.019531 1.132812.308594 1.527344 1.675781 1.222656 2.054687-.078125.09375-.257812.257813-.488281.449219h-.464844l-.003906.371094c-.015625.011719-.03125.027344-.046875.039063h-.46875l-.007813.363281c-.039062.03125-.082031.0625-.121093.09375-.441407.007812-1-.375-1-.375 0 .347656.292968.886719.292968.886719s.019532-.007813.050782-.023438c-.027344.019531-.042969.03125-.042969.03125s1.179687.789062 1.921875.496094c.660156-.257813 2.371094-1.609375 3.847656-2.246094l4.46875-1.179688.589844-1.523437-3.40625.894531v-1.371094l3.996094-1.050781.589843-1.527343-4.585937 1.207031v-1.371094zm-8.109375 2.90625 1.0625-.28125.011718.054687-.328124.855469-1.101563.292969zm.367187 1.835937-1.097656.289063.355469-.921875 1.058594-.277344.015624.050781zm1.433594-.308593-1.101563.289062.355469-.921875 1.0625-.277344.011719.050781zm0 0"/></svg>