<svg height="18" viewBox="0 0 18 18" width="18" xmlns="http://www.w3.org/2000/svg"><path d="m12.609375 3.488281-.023437-.035156-.003907.003906-.015625.007813c-.085937.054687-.175781.109375-.265625.160156-.238281.132812-.480469.257812-.730469.371094-.589843.269531-1.335937.53125-1.972656.519531-.324218-.007813-.59375-.035156-.84375-.0625l-.042968-.003906c-.238282-.023438-.464844-.046875-.707032-.054688-.523437-.007812-1.128906.0625-2.128906.382813-1.003906.320312-1.652344.972656-2.113281 1.59375-.179688.242187-.335938.480468-.472657.691406-.039062.0625-.074218.117188-.113281.175781-.164062.25-.304687.445313-.441406.542969-.289063.210938-.886719.65625-1.410156 1.050781-.226563.167969-.457031.339844-.683594.511719l-.214844.160156-.058593.042969-.015626.011719-.003906.003906.019532.027344-.019532-.027344-.019531.015625.003906.027344.011719.070312.046875-.015625 1.46875-.464844c-.054687.058594-.128906.140626-.226563.25-.226562.261719-.566406.675782-1.027343 1.296876l-.011719-.007813-.09375-.085937.023438.125.003906.007812v.007812l.003906.007813.011719-.007813-.011719.007813.003906.003906.003906.007813c.042969.058594.082032.113281.125.167968.105469.136719.222657.265626.351563.382813.144531.136719.3125.265625.496094.347656.183593.082031.382812.117188.582031.058594.074219-.019531.152344-.054687.238281-.097656.304688.164062.695313.328125 1.128907.371093l.105468.011719-.070312-.078125v-.003906l-.011719-.011719c-.054687-.066406-.109375-.136719-.164063-.203125-.117187-.152344-.230468-.3125-.335937-.472656l.117187-.078125.601563.222656.066406.023438-.007812-.070313-.0625-.519531.550781.203125.066406.023438-.007812-.070313-.070313-.5c.066407-.035156.132813-.070313.203125-.101563l.015625-.007812.007813-.019531.628906-2.390625 2.507812-1.710938-.160156.398438c-.261718.648437-.640625 1.046875-.953125 1.285156-.125.09375-.257812.175781-.394531.246094-.050781.023437-.097656.042968-.148438.0625l-.007812.003906h-.007812l-.417969.160156-.007813.003906-.007812.007813-.050782.058594c-.128906.152343-.230468.269531-.308593.476562-.085938.226563-.144531.5625-.199219 1.179688l-.003906.058593.054687-.011718c.246094-.0625.480469-.078125.6875-.019532.546875.144532.917969.550782 1.113281.964844.097657.207032.152344.417969.164063.59375.011719.183594-.023437.324219-.089844.40625-.070312.085938-.242187.242188-.464843.425782h-.484376v.042968l-.003906.347656-.019531.015626h-.492187v.042968l-.007813.339844-.058594.042969-.035156.027343c-.203125 0-.4375-.085937-.625-.179687-.101563-.050781-.203125-.105469-.300781-.167969l-.019532-.011718-.003906-.003907-.066406-.046875v.082032c0 .179687.074219.40625.148438.585937.039062.097656.082031.195313.132812.289063l-.019531.011718.039062.023438.011719.023437.011719-.003906h.003906l.039063.023437c.203124.125.414062.234376.628906.324219.195312.082031.414062.152344.632812.1875.214844.03125.433594.027344.628906-.050781.167969-.0625.398438-.199219.671876-.367188.1875-.117187.394531-.253906.621093-.402343.101563-.066407.207031-.132813.316407-.203125.683593-.445313 1.46875-.933594 2.195312-1.25l4.421875-1.164063.019531-.003906.007813-.019531.582031-1.511719.03125-.078125-.082031.023438-3.316407.875v-1.273438l3.921876-1.03125.023437-.007812.007813-.019532.582031-1.511718.03125-.074219-.082031.019531-4.484376 1.183594v-1.273438l5.089844-1.339844.019532-.003906.007812-.019531.542969-1.410156.007812-.011719-.003906-.011719-.023437-.089843-.011719-.039063-.042969.011719-5.265625 1.386718c.242187-.382812.328125-.730468.347656-.984374.011719-.136719.007813-.25-.003906-.328126-.003906-.039062-.011719-.078124-.019531-.113281l-.003906-.007812v-.003907zm0 0-.023437-.035156.046874-.027344.015626.050781zm-3.515625 4.484375.984375-.261718-.3125.816406-.988281.257812zm.613281.929688-.316406.816406-.984375.257812.3125-.8125zm1.414063-.304688-.3125.816406-.988282.257813.316407-.8125zm0 0"/><path d="m6.152344 14.640625c-.085938 0-.167969-.007813-.25-.019531-.195313-.027344-.410156-.09375-.640625-.1875-.21875-.089844-.433594-.199219-.636719-.324219l-.023438-.015625-.027343.011719-.023438-.046875-.082031-.054688.039062-.023437-.015624-.035157c-.027344-.054687-.066407-.132812-.101563-.226562-.101563-.246094-.152344-.449219-.152344-.601562v-.160157l.136719.09375.019531.011719c.09375.0625.195313.117188.296875.167969.160156.078125.390625.167969.59375.171875l.023438-.015625.042968-.03125.003907-.40625h.511719l.007812-.40625h.507812c.234376-.195313.386719-.332031.449219-.410157.058594-.074218.089844-.210937.078125-.375-.011718-.179687-.066406-.386718-.160156-.578124-.101562-.214844-.242188-.410157-.414062-.570313-.191407-.179687-.421876-.308594-.671876-.375-.1875-.050781-.40625-.042969-.664062.019531l-.113281.03125.007812-.121094c.054688-.605468.113281-.953124.203125-1.191406.082032-.214844.1875-.335937.316406-.488281l.015626-.015625.035156-.042969.011718-.015625.019532-.007812.421875-.160156.003906-.003907h.007813c.050781-.019531.097656-.039062.144531-.0625.136719-.066406.269531-.148437.390625-.242187.179687-.136719.34375-.300782.484375-.480469.183593-.226563.332031-.488281.453125-.777344v-.007812l.109375-.269531-2.378907 1.621093-.628906 2.378907-.011718.039062-.035157.015625c-.054687.027344-.113281.054687-.175781.085937l.089844.609376-.621094-.226563.066406.589844-.710937-.261719-.0625.042969c.097656.148437.203125.292969.3125.433593.054687.070313.097656.125.125.160157l.035156.042969.023437.023437v.003906l.128907.148438-.210938-.023438c-.367187-.039062-.746093-.160156-1.125-.367187-.070312.035156-.144531.066406-.222656.089844h-.007813l-.003906.003906c-.1875.050781-.390625.03125-.605468-.0625-.164063-.074219-.335938-.195313-.507813-.355469-.167969-.15625-.316406-.332031-.453125-.519531l-.011719-.015625-.023437-.035157-.007813-.007812v-.007812l-.003906-.023438-.046875-.25.160156.148438c.464844-.625.800782-1.03125 1.003906-1.261719.042969-.046875.082032-.09375.121094-.136719l-1.320312.421875-.09375.027344-.027344-.167969.0625-.046875.027344-.019531.109375-.085938.132812-.097656c.160157-.121094.410157-.308594.6875-.515625.476563-.359375 1.109375-.832031 1.410157-1.046875.128906-.09375.265624-.28125.429687-.535156.039063-.054688.074219-.113282.113281-.175782.136719-.210937.292969-.449218.472656-.691406.277344-.371094.558594-.671875.863282-.917968.375-.308594.808594-.542969 1.273437-.691407.882813-.28125 1.523438-.398437 2.140625-.382812.246094.003906.472656.027343.710938.050781l.042968.007812c.273438.027344.527344.050782.839844.058594.285156.007813.621094-.042968.992188-.152344.300781-.085937.625-.207031.964844-.363281.246093-.113281.488281-.234375.722656-.371093.09375-.050782.1875-.105469.277344-.160157l.011718-.007812.089844-.058594.046875.148437h-.003906c.003906.019532.011719.050782.015625.089844.011718.105469.015625.21875.003906.335938-.023438.308594-.125.613281-.300781.914062l5.246093-1.382812.054688.195312-.011719.023438-.558593 1.449218-.039063.011719-5.058594 1.332031v1.183594l4.589844-1.210937-.058594.152343-.597656 1.550782-.042969.011718-3.890625 1.027344v1.179688l3.265625-.859375.15625-.042969-.058594.15625-.597656 1.550781-.042968.011719-4.414063 1.164062c-.710937.304688-1.472656.777344-2.191406 1.242188-.101563.066406-.203125.132812-.300781.195312l-.015626.011719c-.222656.144531-.429687.28125-.617187.398438-.320313.199219-.527344.3125-.679687.371093-.121094.046876-.253907.070313-.402344.070313m-1.519532-.628906.039063.023437c.199219.125.40625.230469.625.320313.222656.09375.429687.152343.617187.183593.234376.035157.441407.019532.609376-.046874.144531-.054688.351562-.167969.664062-.367188.1875-.113281.394531-.25.617188-.394531l.015624-.011719c.101563-.066406.203126-.132812.304688-.195312.71875-.46875 1.488281-.941407 2.203125-1.253907h.007813l4.417968-1.164062.582032-1.511719-3.371094.886719v-1.355469l3.957031-1.042969.582031-1.511719-4.535156 1.199219v-1.359375l5.117188-1.347656.542968-1.40625-.023437-.089844-5.371094 1.414063.058594-.089844c.199219-.316406.316406-.640625.34375-.964844.011719-.140625.003906-.25-.007813-.320312 0-.023438-.003906-.050781-.011718-.074219l-.027344.007812-.015625-.027343-.007813.003906-.003906.027344-.023438-.003907-.003906-.003906h-.003906c-.066406.042969-.136719.082032-.210938.125-.238281.136719-.484374.261719-.730468.375-.34375.15625-.671875.28125-.976563.367188-.378906.109375-.722656.160156-1.019531.15625-.3125-.007813-.570312-.03125-.84375-.0625l-.042969-.003906c-.238281-.023438-.460937-.050782-.707031-.054688-.605469-.011719-1.238281.101562-2.109375.378906-.460937.148438-.871094.367188-1.25.679688-.296875.242187-.574219.535156-.847656.902344-.179688.238281-.332031.476562-.46875.6875-.039063.058593-.074219.117187-.113281.175781-.175782.265625-.3125.453125-.453126.554687-.296874.21875-.929687.691406-1.40625 1.046875-.230468.171875-.457031.34375-.6875.515625l-.132812.097656-.109375.085938-.027344.019531-.019531.015625h-.003906l.003906.023438 1.625-.515625-.109375.117187c-.078125.082032-.152344.164063-.226563.25-.203124.238282-.546874.652344-1.027343 1.296875l-.027344.035157-.023437-.023438v.015625l.015624.027344c.03125.039062.0625.085937.097657.128906.074219.097656.195312.238281.34375.378906.164062.152344.328125.265625.484375.335938.195312.085937.378906.105469.550781.058593l.003906-.003906h.003907c.078124-.023437.15625-.054687.230468-.09375l.019532-.007812.019531.011718c.371093.203126.742187.328126 1.101562.367188v-.011719l-.003906-.003906c-.058594-.066406-.113281-.136719-.164063-.203125-.121093-.15625-.234374-.316406-.339843-.480469l-.023438-.035156.035157-.019531.117187-.078125.015625-.011719.625.230469-.070312-.589844.617187.226563-.074219-.53125.027344-.015626c.070312-.039062.136719-.070312.203125-.101562l.636719-2.40625 2.632812-1.796875-.207031.519531-.003906.007813c-.121094.300781-.277344.570312-.464844.808593-.144531.183594-.316406.351563-.503906.496094-.125.09375-.257813.179688-.402344.25-.050781.023438-.101563.042969-.152344.0625l-.007812.003906h-.003907l-.417968.160157-.035156.042969-.011719.015624c-.132813.152344-.226563.261719-.304688.460938-.085937.234375-.144531.574219-.195312 1.171875.269531-.066406.5-.074219.707031-.019531.261719.070312.503906.207031.703125.394531.183594.167969.332031.371094.4375.597656.09375.199219.152344.417969.164063.609375.011718.1875-.019532.339844-.09375.433594-.070313.082031-.222657.222656-.472657.429688l-.011719.011718h-.457031l-.007812.367188-.019531.019531-.015626.011719-.011718.007812h-.460938l-.007812.359375-.015625.015625c-.019531.011719-.039063.027344-.058594.042969l-.015625.011719-.019531.015625-.011719.007812h-.015625c-.121094 0-.332031-.03125-.644531-.183593-.101563-.050782-.207032-.109376-.304688-.171876l-.019531-.011718-.003906-.003906c0 .140624.050781.335937.144531.570312.039062.09375.082031.1875.128906.277344v.003906l.003906.003906.011719.027344.015625.007812zm3.703126-3.972657.351562-.910156 1.085938-.285156-.351563.910156zm.414062-.839843-.277344.714843.886719-.230468.277344-.71875zm1.003906.535156.351563-.910156 1.085937-.285157-.351562.910157zm.414063-.839844-.277344.71875.886719-.234375.277344-.71875zm-1.457031-.046875.351562-.910156 1.085938-.285156-.351563.910156zm.414062-.839844-.277344.714844.886719-.230468.277344-.71875zm0 0" fill="#fff"/></svg>