<svg height="18" viewBox="0 0 18 18" width="18" xmlns="http://www.w3.org/2000/svg"><path d="m.90625-.152344.023438.1640628s.566406 3.7617192.765624 5.1406252c.070313.492187.164063.855468.339844 1.15625.179688.296875.4375.527344.820313.753906l.304687.164062.527344.285157-.003906.003906 2.46875 1.378906-2.839844-1.34375.042969.148438c.203125.710937.597656 2.078125.765625 2.679687.089844.328125.1875.5625.347656.742188.164062.183594.378906.304687.695312.421875l1.164063.433593.125-.046874-.363281.246093-4.492188 5.820313.105469.09375c2.96875-2.816406 5.476563-3.816406 7.324219-4.640625 1.179687-.519531 2.128906-.949219 2.902344-1.550781.773437-.605469 1.367187-1.386719 1.832031-2.597657.332031-.84375.625-1.804687.917969-2.660156.292968-.851563.585937-1.597656.902343-1.996094l1.519531-1.988281-.199218.054688s-2.878906.777343-3.558594 1.007812l-.046875.015625v.003906c-1.074219.382813-1.617187 1.070313-1.972656 2.105469-.085938.257812-.3125.5625-.5625.757812l-.058594.046876.496094.546874-2.300781-1.648437zm.1875.304688 7.722656 5.511718 2.84375 2.03125.09375-.105468-.851562-.929688c.246094-.214844.460937-.496094.554687-.773437.355469-1.027344.859375-1.667969 1.933594-2.035157l.011719-.003906c.625-.210937 3.039062-.863281 3.332031-.945312l-1.265625 1.65625c-.339844.429687-.628906 1.183594-.921875 2.039062-.292969.855469-.585937 1.816406-.914063 2.652344-.460937 1.191406-1.035156 1.945312-1.792968 2.535156-.753906.589844-1.691406 1.015625-2.867188 1.535156-1.726562.769532-4.0625 1.722657-6.800781 4.164063l4.015625-5.203125.886719-.605469-.066407-.121093-.679687.273437-1.117187-.417969c-.300782-.113281-.496094-.222656-.636719-.382812-.136719-.15625-.230469-.367188-.320313-.6875-.15625-.570313-.511718-1.792969-.71875-2.53125l3.75 1.777344.074219-.179688-2.847656-1.585938.011719-.019531h-.003907l-.011719-.007812-1.28125-.6875-.300781-.164063c-.367187-.21875-.605469-.429687-.769531-.707031-.160156-.273437-.253906-.617187-.324219-1.101563-.1875-1.339843-.703125-4.753906-.738281-4.980468zm0 0" fill="#3a1ab6"/></svg>