<svg height="18" viewBox="0 0 18 18" width="18" xmlns="http://www.w3.org/2000/svg"><path d="m9.03125.179688c-4.867188 0-8.8125 3.960937-8.820312 8.847656v6.851562c.003906 1.109375.898437 2.007813 2.003906 2.007813h6.8125c4.871094-.003907 8.8125-3.960938 8.8125-8.851563s-3.945313-8.851562-8.820313-8.851562zm1.789062 3.644531c1.480469 0 2.878907 1.136719 2.878907 2.707031 0 .144531 0 .292969-.023438.457031-.039062.417969-.417969.71875-.832031.660157-.414062-.0625-.695312-.457032-.621094-.867188.007813-.046875.011719-.121094.011719-.25 0-.890625-.726563-1.234375-1.410156-1.234375-.6875 0-1.304688.578125-1.304688 1.234375.011719.757812 0 1.507812 0 2.265625l1.269531-.007813c.996094-.023437 1.007813 1.480469.011719 1.472657l-1.28125.011719c-.003906.609374.003907.496093 0 .804687 0 0 .011719.746094-.011719 1.308594-.152343 1.660156-1.558593 2.988281-3.25 2.988281-1.792968 0-3.265624-1.472656-3.265624-3.277344.050781-1.851562 1.523437-3.3125 3.378906-3.296875l1.035156-.007812v1.472656l-1.035156.011719h-.003906c-1.019532.027344-1.894532.722656-1.910157 1.820312 0 .476563.1875.9375.527344 1.273438.335937.339844.796875.527344 1.273437.527344.996094 0 1.792969-.730469 1.792969-1.796876v-5.578124c0-.101563.003907-.183594.015625-.296876.167969-1.367187 1.382813-2.40625 2.757813-2.40625zm0 0" fill="#51a2da"/></svg>