<svg height="18" viewBox="0 0 18 18" width="18" xmlns="http://www.w3.org/2000/svg"><g fill="none" stroke="#fff" stroke-linecap="round" stroke-linejoin="round" stroke-width="2" transform="scale(.75)"><path d="m15 2h-9c-1.104167 0-2 .895833-2 2v16c0 1.104167.895833 2 2 2h12c1.104167 0 2-.895833 2-2v-13zm0 0"/><path d="m14 2v4c0 1.104167.895833 2 2 2h4m-10 4c-.552083 0-1 .447917-1 1v1c0 .552083-.447917 1-1 1 .552083 0 1 .447917 1 1v1c0 .552083.447917 1 1 1m4 0c.552083 0 1-.447917 1-1v-1c0-.552083.447917-1 1-1-.552083 0-1-.447917-1-1v-1c0-.552083-.447917-1-1-1"/></g></svg>