<svg height="18" viewBox="0 0 18 18" width="18" xmlns="http://www.w3.org/2000/svg"><g fill="none" stroke="#fff" stroke-linecap="round" stroke-linejoin="round" stroke-width="2" transform="scale(.75)"><path d="m15 2h-9c-1.104167 0-2 .895833-2 2v16c0 1.104167.895833 2 2 2h12c1.104167 0 2-.895833 2-2v-13zm0 0"/><path d="m9 12h6c.552083 0 1 .447917 1 1v4c0 .552083-.447917 1-1 1h-6c-.552083 0-1-.447917-1-1v-4c0-.552083.447917-1 1-1zm0 0"/><path d="m10 12v-2c0-1.104167.895833-2 2-2s2 .895833 2 2v2"/></g></svg>