<svg height="18" viewBox="0 0 18 18" width="18" xmlns="http://www.w3.org/2000/svg" xmlns:xlink="http://www.w3.org/1999/xlink"><linearGradient id="a" gradientTransform="matrix(.102999 0 0 .102997 -10.35886 -10.571203)" gradientUnits="userSpaceOnUse" x1="187.947006" x2="187.947006" y1="123.859001" y2="258.86499"><stop offset="0" stop-color="#bf0000"/><stop offset="1" stop-color="#8f0000"/></linearGradient><path d="m0 .601562v.796876c.332031 0 .601562.269531.601562.601562s-.269531.601562-.601562.601562v.796876c.332031 0 .601562.269531.601562.601562s-.269531.601562-.601562.601562v.796876c.332031 0 .601562.269531.601562.601562s-.269531.601562-.601562.601562v.796876c.332031 0 .601562.269531.601562.601562s-.269531.601562-.601562.601562v.796876c.332031 0 .601562.269531.601562.601562s-.269531.601562-.601562.601562v.796876c.332031 0 .601562.269531.601562.601562s-.269531.601562-.601562.601562v.796876c.332031 0 .601562.269531.601562.601562s-.269531.601562-.601562.601562v.796876c.332031 0 .601562.269531.601562.601562s-.269531.601562-.601562.601562v.796876c.160156 0 .3125.0625.425781.175781s.175781.265625.175781.425781h.796876c0-.332031.269531-.601562.601562-.601562s.601562.269531.601562.601562h.796876c0-.332031.269531-.601562.601562-.601562s.601562.269531.601562.601562h.796876c0-.332031.269531-.601562.601562-.601562s.601562.269531.601562.601562h.796876c0-.332031.269531-.601562.601562-.601562s.601562.269531.601562.601562h.796876c0-.332031.269531-.601562.601562-.601562s.601562.269531.601562.601562h.796876c0-.332031.269531-.601562.601562-.601562s.601562.269531.601562.601562h.796876c0-.332031.269531-.601562.601562-.601562s.601562.269531.601562.601562h.796876c0-.332031.269531-.601562.601562-.601562s.601562.269531.601562.601562h.796876c0-.160156.0625-.3125.175781-.425781s.265625-.175781.425781-.175781v-.796876c-.332031 0-.601562-.269531-.601562-.601562s.269531-.601562.601562-.601562v-.796876c-.332031 0-.601562-.269531-.601562-.601562s.269531-.601562.601562-.601562v-.796876c-.332031 0-.601562-.269531-.601562-.601562s.269531-.601562.601562-.601562v-.796876c-.332031 0-.601562-.269531-.601562-.601562s.269531-.601562.601562-.601562v-.796876c-.332031 0-.601562-.269531-.601562-.601562s.269531-.601562.601562-.601562v-.796876c-.332031 0-.601562-.269531-.601562-.601562s.269531-.601562.601562-.601562v-.796876c-.332031 0-.601562-.269531-.601562-.601562s.269531-.601562.601562-.601562v-.796876c-.332031 0-.601562-.269531-.601562-.601562s.269531-.601562.601562-.601562v-.796876c-.160156 0-.3125-.0625-.425781-.175781s-.175781-.265625-.175781-.425781h-.796876c0 .332031-.269531.601562-.601562.601562s-.601562-.269531-.601562-.601562h-.796876c0 .332031-.269531.601562-.601562.601562s-.601562-.269531-.601562-.601562h-.796876c0 .332031-.269531.601562-.601562.601562s-.601562-.269531-.601562-.601562h-.796876c0 .332031-.269531.601562-.601562.601562s-.601562-.269531-.601562-.601562h-.796876c0 .332031-.269531.601562-.601562.601562s-.601562-.269531-.601562-.601562h-.796876c0 .332031-.269531.601562-.601562.601562s-.601562-.269531-.601562-.601562h-.796876c0 .332031-.269531.601562-.601562.601562s-.601562-.269531-.601562-.601562h-.796876c0 .332031-.269531.601562-.601562.601562s-.601562-.269531-.601562-.601562h-.796876c0 .160156-.0625.3125-.175781.425781s-.265625.175781-.425781.175781" fill="url(#a)"/><path d="m15.332031 7.203125h-8.980469l.46875-2.195313h5.476563l.5-2.359374h-7.867187l-2.480469 11.6875h2.378906l1.089844-5.109376h5.699219l-4.953126 4.90625.871094 1.539063c.402344-.265625 1.054688-.300781 1.503906-.300781.804688 0 1.59375.269531 2.414063.269531.75 0 1.519531-.050781 2.777344-.652344l.4375-2.058593c-.855469.351562-2.117188.683593-3.214844.683593-.453125 0-.871094-.097656-1.308594-.167969l4.804688-4.667968zm0 0" fill="#fff"/></svg>