<svg height="18" viewBox="0 0 18 18" width="18" xmlns="http://www.w3.org/2000/svg"><g fill="none" stroke="#fff" stroke-linecap="round" stroke-linejoin="round" stroke-width="2" transform="scale(.75)"><path d="m12 10c-1.104167 0-2 .895833-2 2 0 1.020833-.098958 2.510417-.260417 4m4.260417-2.880208c0 2.380208 0 6.380208-1 8.880208m4.291667-.979167c.119791-.598958.427083-2.302083.5-3.020833m-15.791667-6c0-4.302083 2.755208-8.125 6.838542-9.484375 4.083333-1.364583 8.578125.041667 11.161458 3.484375m-18 10h.010417m19.791666 0c.197917-2 .130209-5.354167 0-6"/><path d="m5 19.5c.5-1.5 1-4.5 1-7.5 0-.682292.114583-1.359375.338542-2m2.3125 12c.208333-.661458.447916-1.317708.567708-2m-.21875-13.197917c1.859375-1.072916 4.145833-1.072916 6 0 1.859375 1.072917 3 3.052084 3 5.197917v2"/></g></svg>