<svg height="18" viewBox="0 0 18 18" width="18" xmlns="http://www.w3.org/2000/svg"><path d="m1.023438 7.277344-.453126.363281c-.066406-.273437-.007812-.511719.0625-.742187.148438-.476563.402344-.898438.695313-1.300782.105469-.144531.179687-.285156.179687-.484375-.011718-.691406.058594-1.375.296876-2.027343.121093-.335938.285156-.648438.5625-.917969.109374.539062.210937 1.054687.503906 1.441406.214844-.1875.425781-.367187.628906-.554687 1.210938-1.140626 2.640625-1.855469 4.285156-2.089844 2.066406-.292969 3.96875.148437 5.699219 1.328125.164063.109375.351563.1875.53125.273437.816406.410156 1.4375 1.011719 1.824219 1.847656.066406.136719.113281.285157.171875.425782l.050781-.007813-.222656-1.335937c.894531 1.253906 1.175781 2.644531 1.25 4.105468.167968-.234374.167968-.511718.257812-.773437.03125.191406.066406.382813.085938.574219.082031.757812-.0625 1.488281-.203125 2.226562-.328125 1.746094-1.082031 3.289063-2.222657 4.632813-1.296874 1.527343-2.914062 2.546875-4.941406 2.789062-2.941406.351563-5.410156-.59375-7.402344-2.78125-.957031-1.046875-1.589843-2.265625-1.875-3.65625-.214843-1.050781-.164062-2.097656.1875-3.121093l.054688-.15625c.003906-.011719-.003906-.023438-.007812-.058594m13.308593-1.394532.054688-.050781.628906.488281c-.007813-.148437-.003906-.304687-.027344-.453124-.113281-.652344-.507812-1.121094-.996093-1.527344-.617188-.507813-1.320313-.855469-2.050782-1.160156-.074218-.027344-.144531-.0625-.214844-.09375l.007813-.074219 1.03125-.058594c-.378906-.628906-1.035156-.804687-1.695313-.984375l.082032-.042969c-1.34375-.421875-2.675782-.453125-4.015625-.109375-1.246094.316406-3.121094 1.457032-3.410157 2.070313l.085938-.023438c.46875-.113281.941406-.144531 1.414062-.007812.050782.015625.136719-.019531.183594-.058594.441406-.398437.9375-.710937 1.507813-.886719.179687-.054687.367187-.09375.550781-.136718-.015625.0625-.042969.085937-.074219.105468-.59375.410156-.992187.945313-1.105469 1.671875-.003906.039063 0 .097657.027344.125.261719.246094.523438.496094.800782.726563.09375.078125.230468.132812.355468.152344.238282.039062.484375.046874.726563.0625.148437.011718.246093.117187.191406.238281-.078125.179687-.164063.347656-.347656.46875-.34375.230469-.664063.5-.996094.746093-.082031.0625-.085937.121094-.042969.210938.078125.171875.15625.34375.207032.527344.0625.226562.085937.460937.027343.703125-.1875-.042969-.359375-.082031-.535156-.117188-.171875-.035156-.347656-.0625-.523437-.09375-.21875-.042969-.40625.035157-.515626.214844-.128906.203125-.132812.421875.007813.597656.28125.359375.601563.683594.980469.945313.3125.214844.664062.335937 1.039062.253906.257813-.054688.515625-.167969.75-.292969.722656-.378906 1.53125-.25 2.027344.339844.089844.105469.144531.226563.070312.351563-.074218.117187-.195312.144531-.335937.109374-.144531-.035156-.28125-.011718-.410156.078126-.347657.230468-.6875.472656-1.054688.664062-.59375.3125-1.238281.414062-1.90625.390625-.066406-.003906-.136719 0-.230469 0 .035157.039063.046876.058594.0625.074219.480469.464844 1.035157.824218 1.671876 1.035156.699218.230469 1.417968.324219 2.144531.125.816406-.226562 1.457031-.722656 2.003906-1.34375.222656-.253906.421875-.523438.632813-.785156l.050781.011718-.183594 1.265626c1.003906-1.230469 1.035156-2.636719.894531-4.121094.289063.324218.375.699218.542969 1.078125.339844-1.175781.171875-2.292969-.089844-3.410157" fill="#dd732a" fill-rule="evenodd"/></svg>