<svg height="18" viewBox="0 0 18 18" width="18" xmlns="http://www.w3.org/2000/svg"><path d="m4.976562 0c-.019531 0-.039062 0-.054687.00390625-.144531.02343755-.257813.14062475-.28125.28515575l-2.101563 13.445313.132813.042969 1.382813-2.632813 3.515624-6.691406-2.296874-4.28125-.007813-.007813.011719.015626c-.058594-.1093755-.175782-.179688-.300782-.179688zm0 .140625c.074219-.003906.144532.039063.179688.105469l.003906.007812 2.25 4.199219-3.480468 6.628906-1.1875 2.257813 2.035156-13.03125c.015625-.085938.082031-.152344.167968-.164063.007813-.003906.019532-.003906.03125-.003906m3.960938 2.410156c-.125 0-.242188.070313-.300781.183594l-.984375 1.871094v-.003907l-4.816406 9.171876.109374.082031 1.5-1.5 4.808594-4.820313 1.644532-1.644531-1.660157-3.15625c-.058593-.113281-.175781-.179687-.300781-.179687zm0 .140625c.074219 0 .144531.042969.175781.109375l1.613281 3.066407-1.570312 1.570312-4.808594 4.816406-1.175781 1.179688 4.484375-8.539063h.003906l1.097656-2.09375c.035157-.066406.105469-.109375.179688-.109375m4.417969 1.015625v.011719c-.003907 0-.011719 0-.019531 0-.058594.015625-.113282.046875-.160157.09375l-2.066406 2.070312-1.753906 1.753907-6.902344 6.914062 5.90625 3.3125h.003906c.351563.1875.769531.183594 1.113281-.007812l5.84375-3.25.136719-.066407-1.703125-10.542968c-.023437-.125-.113281-.230469-.234375-.269532-.027343-.007812-.058593-.015624-.089843-.015624zm.070312.144531c.015625 0 .035157.003907.054688.007813.070312.023437.121093.085937.136719.160156l1.6875 10.4375-5.894532 3.273438c-.308594.175781-.6875.175781-1 0l-.015625-.007813-5.710937-3.203125 6.773437-6.78125 1.75-1.757812 2.070313-2.070313c.023437-.027344.058594-.046875.09375-.054687.015625-.003907.035156-.003907.054687-.003907zm0 0" fill="#ffa000"/></svg>