<svg height="18" viewBox="0 0 18 18" width="18" xmlns="http://www.w3.org/2000/svg" xmlns:xlink="http://www.w3.org/1999/xlink"><filter id="a" height="100%" width="100%" x="0%" y="0%"><feColorMatrix color-interpolation-filters="sRGB" values="0 0 0 0 1 0 0 0 0 1 0 0 0 0 1 0 0 0 1 0"/></filter><radialGradient id="b" cx="-407.856995" cy="945.153015" gradientTransform="matrix(.140625 0 0 -.140625 66.445312 134.578125)" gradientUnits="userSpaceOnUse" r="103.809998"><stop offset="0" stop-color="#67c5d5"/><stop offset=".16" stop-color="#66c2d3"/><stop offset=".28" stop-color="#62b9ce"/><stop offset=".385" stop-color="#5ca8c6"/><stop offset=".483" stop-color="#5392ba"/><stop offset=".576" stop-color="#4874aa"/><stop offset=".665" stop-color="#3a5097"/><stop offset=".749" stop-color="#2a2781"/><stop offset=".815" stop-color="#1b006d"/><stop offset="1" stop-color="#596aad"/></radialGradient><linearGradient id="c"><stop offset="0" stop-color="#0f80bc"/><stop offset=".338" stop-color="#0a5f9e"/><stop offset="1" stop-color="#00145a"/></linearGradient><radialGradient id="d" cx="-407.873993" cy="938.22998" gradientTransform="matrix(.140625 0 0 -.140625 66.445312 134.578125)" gradientUnits="userSpaceOnUse" r="52.023998" xlink:href="#c"/><radialGradient id="e" cx="-407.872986" cy="938.22998" gradientTransform="matrix(.140625 0 0 -.140625 66.445312 134.578125)" gradientUnits="userSpaceOnUse" r="52.022999" xlink:href="#c"/><radialGradient id="f" cx="-407.877014" cy="938.232971" gradientTransform="matrix(.140625 0 0 -.140625 66.445312 134.578125)" gradientUnits="userSpaceOnUse" r="52.030998" xlink:href="#c"/><radialGradient id="g" cx="-407.02301" cy="933.30603" gradientTransform="matrix(.140625 0 0 -.140625 66.445312 134.578125)" gradientUnits="userSpaceOnUse" r="57.157001"><stop offset="0" stop-color="#0f80bc"/><stop offset=".264" stop-color="#0b629b"/><stop offset=".844" stop-color="#031747"/><stop offset="1" stop-color="#00022f"/></radialGradient><radialGradient id="h" cx="-407.875" cy="938.232971" gradientTransform="matrix(.140625 0 0 -.140625 66.445312 134.578125)" gradientUnits="userSpaceOnUse" r="52.029999" xlink:href="#c"/><radialGradient id="i" cx="-407.872986" cy="938.231995" gradientTransform="matrix(.140625 0 0 -.140625 66.445312 134.578125)" gradientUnits="userSpaceOnUse" r="52.027" xlink:href="#c"/><clipPath id="j"><path d="m9 0h6v6h-6zm0 0"/></clipPath><clipPath id="k"><path d="m17.128906 8.96875c0 4.507812-3.648437 8.160156-8.152344 8.160156-4.503906 0-8.152343-3.652344-8.152343-8.160156 0-4.503906 3.648437-8.15625 8.152343-8.15625 4.503907 0 8.152344 3.652344 8.152344 8.15625zm0 0"/></clipPath><clipPath id="l"><path d="m2 0h8v5h-8zm0 0"/></clipPath><clipPath id="m"><path d="m17.128906 8.96875c0 4.507812-3.648437 8.160156-8.152344 8.160156-4.503906 0-8.152343-3.652344-8.152343-8.160156 0-4.503906 3.648437-8.15625 8.152343-8.15625 4.503907 0 8.152344 3.652344 8.152344 8.15625zm0 0"/></clipPath><clipPath id="n"><path d="m0 0h18v18h-18z"/></clipPath><linearGradient id="o" gradientTransform="matrix(.140625 0 0 -.140625 66.445312 134.578125)" gradientUnits="userSpaceOnUse" x1="-396.101013" x2="-379.307007" xlink:href="#c" y1="935.822998" y2="934.390991"/><linearGradient id="p" gradientTransform="matrix(.140625 0 0 -.140625 66.445312 134.578125)" gradientUnits="userSpaceOnUse" x1="-433.830994" x2="-443.112" xlink:href="#c" y1="933.280029" y2="919.648987"/><linearGradient id="q" gradientTransform="matrix(.140625 0 0 -.140625 66.445312 134.578125)" gradientUnits="userSpaceOnUse" x1="-409.765991" x2="-409.765991" y1="917.940002" y2="940.502014"><stop offset=".014" stop-opacity="0"/><stop offset=".65" stop-color="#c4e0e3" stop-opacity=".2"/><stop offset=".822" stop-color="#c4e0e3"/><stop offset=".85" stop-color="#cde5e8"/><stop offset=".944" stop-color="#e8f4f7"/><stop offset="1" stop-color="#f2fafc"/></linearGradient><linearGradient id="r" gradientTransform="matrix(.140625 0 0 -.140625 66.445312 134.578125)" gradientUnits="userSpaceOnUse" x1="-407.946014" x2="-394.013" y1="896.270996" y2="904.453979"><stop offset="0" stop-color="#df731b"/><stop offset=".545" stop-color="#df731b"/><stop offset=".701" stop-color="#ec8811"/><stop offset=".859" stop-color="#f4950b"/><stop offset="1" stop-color="#f79a09"/></linearGradient><linearGradient id="s" gradientTransform="matrix(.140625 0 0 -.140625 66.445312 134.578125)" gradientUnits="userSpaceOnUse" x1="-430.496002" x2="-419.681" y1="915.534973" y2="914.609009"><stop offset=".011" stop-color="#941403"/><stop offset=".897" stop-color="#e85c0a"/></linearGradient><linearGradient id="t" gradientTransform="matrix(.140625 0 0 -.140625 66.445312 134.578125)" gradientUnits="userSpaceOnUse" x1="-447.820007" x2="-408.777008" y1="918.531982" y2="913.651978"><stop offset=".011" stop-color="#941403"/><stop offset=".136" stop-color="#a32104"/><stop offset=".498" stop-color="#c84107"/><stop offset=".789" stop-color="#df5509"/><stop offset=".972" stop-color="#e85c0a"/></linearGradient><linearGradient id="u" gradientTransform="matrix(.140625 0 0 -.140625 66.445312 134.578125)" gradientUnits="userSpaceOnUse" x1="-423.630005" x2="-420.516998" y1="908.205994" y2="909.575989"><stop offset="0" stop-color="#f2c8a9"/><stop offset="1" stop-color="#ffc"/></linearGradient><linearGradient id="v" gradientTransform="matrix(.140625 0 0 -.140625 66.445312 134.578125)" gradientUnits="userSpaceOnUse" x1="-433.554993" x2="-381.19101" y1="870.093018" y2="867.937012"><stop offset="0" stop-color="#b30000"/><stop offset="1" stop-color="#df731b"/></linearGradient><linearGradient id="w" gradientTransform="matrix(.140625 0 0 -.140625 66.445312 134.578125)" gradientUnits="userSpaceOnUse" x1="-421.095001" x2="-393.791992" y1="878.219971" y2="868.471008"><stop offset="0" stop-color="#941403"/><stop offset="1" stop-color="#df731b"/></linearGradient><linearGradient id="x" gradientTransform="matrix(.140484 .00689062 .00689062 -.140484 63.320625 130.284419)" gradientUnits="userSpaceOnUse" x1="-483.86499" x2="-457.247986" y1="813.411987" y2="813.411987"><stop offset=".056" stop-color="#b30000"/><stop offset="1" stop-color="#de5c01"/></linearGradient><linearGradient id="y"><stop offset=".056" stop-color="#de7210"/><stop offset="1" stop-color="#f6c08f"/></linearGradient><linearGradient id="z" gradientTransform="matrix(.139627 .0167237 .0167237 -.139627 28.461394 149.672415)" gradientUnits="userSpaceOnUse" x1="-301.197998" x2="-286.71701" xlink:href="#y" y1="955.307007" y2="910.442993"/><linearGradient id="A" gradientTransform="matrix(.140484 .00632813 .00632813 -.140484 63.428905 130.721623)" gradientUnits="userSpaceOnUse" x1="-476.095001" x2="-476.095001" xlink:href="#y" y1="843.77301" y2="793.625977"/><linearGradient id="B" gradientTransform="matrix(.140625 0 0 -.140625 66.445312 134.578125)" gradientUnits="userSpaceOnUse" x1="-453.894012" x2="-459.334991" y1="921.625977" y2="935.567993"><stop offset=".011" stop-color="#941403"/><stop offset=".472" stop-color="#e85c0a"/><stop offset="1" stop-color="#f9bd5f"/></linearGradient><linearGradient id="C" gradientTransform="matrix(.140625 0 0 -.140625 66.445312 134.578125)" gradientUnits="userSpaceOnUse" x1="-430.631012" x2="-417.592987" y1="918.427979" y2="935.565002"><stop offset=".197" stop-color="#de7210"/><stop offset=".843" stop-color="#f9bd5f"/><stop offset="1" stop-color="#fffccf"/></linearGradient><linearGradient id="D" gradientTransform="matrix(.140625 0 0 -.140625 66.445312 134.578125)" gradientUnits="userSpaceOnUse" x1="-437.52301" x2="-424.307007" y1="895.036011" y2="868.604004"><stop offset=".017" stop-color="#941403"/><stop offset=".5" stop-color="#e35100"/><stop offset="1" stop-color="#df731b"/></linearGradient><linearGradient id="E" gradientTransform="matrix(.140625 0 0 -.140625 66.445312 134.578125)" gradientUnits="userSpaceOnUse" x1="-417.561005" x2="-414.260986" y1="911.245972" y2="908.255005"><stop offset="0" stop-color="#eea272"/><stop offset=".186" stop-color="#efa777"/><stop offset=".406" stop-color="#f2b585"/><stop offset=".643" stop-color="#f6cd9c"/><stop offset=".89" stop-color="#fceebb"/><stop offset="1" stop-color="#ffc"/></linearGradient><linearGradient id="F" gradientTransform="matrix(.140625 0 0 -.140625 66.445312 134.578125)" gradientUnits="userSpaceOnUse" x1="-436.809998" x2="-421.648987" y1="904.18103" y2="888.710022"><stop offset=".197" stop-color="#df731b"/><stop offset=".843" stop-color="#f9bd5f"/><stop offset="1" stop-color="#fffccf"/></linearGradient><linearGradient id="G" gradientTransform="matrix(.13601 .0357322 .0357322 -.13601 -102.441058 231.501977)" gradientUnits="userSpaceOnUse" x1="311.259003" x2="311.259003" xlink:href="#y" y1="1736.858032" y2="1680.020996"/><linearGradient id="H"><stop offset=".056" stop-color="#de7210"/><stop offset="1" stop-color="#f2c06e"/></linearGradient><linearGradient id="I" gradientTransform="matrix(.139219 -.01125 -.0133594 -.164953 74.280659 154.158182)" gradientUnits="userSpaceOnUse" x1="-428.860992" x2="-448.076996" xlink:href="#H" y1="929.135986" y2="897.84198"/><linearGradient id="J" gradientTransform="matrix(.140625 0 0 -.140625 66.445312 134.578125)" gradientUnits="userSpaceOnUse" x1="-391.562012" x2="-411.976013" y1="884.775024" y2="880.875977"><stop offset=".005" stop-color="#fffaee"/><stop offset=".276" stop-color="#f5f89b"/><stop offset=".31" stop-color="#f3ed91"/><stop offset=".467" stop-color="#ecc267"/><stop offset=".618" stop-color="#e6a046"/><stop offset=".761" stop-color="#e2872e"/><stop offset=".892" stop-color="#e07820"/><stop offset="1" stop-color="#df731b"/></linearGradient><linearGradient id="K" gradientTransform="matrix(.139504 .0177224 .0177224 -.139504 124.212596 76.862135)" gradientUnits="userSpaceOnUse" x1="-924.08197" x2="-924.08197" xlink:href="#H" y1="388.589996" y2="341.085999"/><linearGradient id="L" gradientTransform="matrix(.131081 .0509221 .0509221 -.131081 121.389495 70.336241)" gradientUnits="userSpaceOnUse" x1="-955.606018" x2="-955.606018" xlink:href="#H" y1="121.616997" y2="74.120003"/><linearGradient id="M"><stop offset=".056" stop-color="#de7210"/><stop offset="1" stop-color="#f2c072"/></linearGradient><linearGradient id="N" gradientTransform="matrix(.113941 -.0824188 -.0824188 -.113941 124.483836 170.545081)" gradientUnits="userSpaceOnUse" x1="-30.438" x2="-43.666" xlink:href="#M" y1="1441.927979" y2="1422.08606"/><linearGradient id="O" gradientTransform="matrix(.113941 -.0824188 -.0824188 -.113941 124.483836 170.545081)" gradientUnits="userSpaceOnUse" x1="-23.278999" x2="-36.506001" xlink:href="#M" y1="1448.428955" y2="1428.588013"/><linearGradient id="P"><stop offset=".056" stop-color="#de7210"/><stop offset="1" stop-color="#eed8a5"/></linearGradient><linearGradient id="Q" gradientTransform="matrix(.140625 0 0 -.140625 66.445312 134.578125)" gradientUnits="userSpaceOnUse" x1="-459.904999" x2="-465.691986" xlink:href="#P" y1="914.635986" y2="903.833984"/><linearGradient id="R" gradientTransform="matrix(.140625 0 0 -.140625 66.445312 134.578125)" gradientUnits="userSpaceOnUse" x1="-460.485992" x2="-466.272003" xlink:href="#P" y1="908.033997" y2="897.234009"/><linearGradient id="S" gradientTransform="matrix(.140625 0 0 -.140625 66.445312 134.578125)" gradientUnits="userSpaceOnUse" x1="-453.929993" x2="-459.52301" xlink:href="#M" y1="912.617981" y2="898.731018"/><linearGradient id="T" gradientTransform="matrix(.140625 0 0 -.140625 66.445312 134.578125)" gradientUnits="userSpaceOnUse" x1="-451.803009" x2="-465.028992" xlink:href="#M" y1="919.379028" y2="899.539978"/><linearGradient id="U" gradientTransform="matrix(.140625 0 0 -.140625 66.445312 134.578125)" gradientUnits="userSpaceOnUse" x1="-450.912994" x2="-462.968994" xlink:href="#M" y1="915.372986" y2="897.289001"/><linearGradient id="V" gradientTransform="matrix(.140625 0 0 -.140625 66.445312 134.578125)" gradientUnits="userSpaceOnUse" x1="-412.122009" x2="-411.166992" y1="918.189026" y2="916.487"><stop offset="0" stop-color="#8b8b89"/><stop offset="1" stop-color="#120500"/></linearGradient><linearGradient id="W" gradientTransform="matrix(.140625 0 0 -.140625 66.445312 134.578125)" gradientUnits="userSpaceOnUse" x1="-449.700989" x2="-449.700989" xlink:href="#y" y1="923.971008" y2="929.197021"/><linearGradient id="X" gradientTransform="matrix(.140484 .005625 .005625 -.140484 63.494436 131.058706)" gradientUnits="userSpaceOnUse" x1="-463.880005" x2="-452.941986" xlink:href="#y" y1="875.390015" y2="888.171997"/><linearGradient id="Y" gradientTransform="matrix(.140625 0 0 -.140625 66.445312 134.578125)" gradientUnits="userSpaceOnUse" x1="-456.722992" x2="-462.51001" xlink:href="#P" y1="918.976013" y2="908.174988"/><linearGradient id="Z" gradientTransform="matrix(.139922 .014625 .014625 -.139922 59.180624 125.327808)" gradientUnits="userSpaceOnUse" x1="-490.528015" x2="-479.843994" xlink:href="#y" y1="804.836975" y2="817.322998"/><linearGradient id="aa" gradientTransform="matrix(.140055 .0126474 .0126474 -.140055 59.911783 126.417076)" gradientUnits="userSpaceOnUse" x1="-489.628998" x2="-476.790985" xlink:href="#y" y1="832.598999" y2="830.840027"/><linearGradient id="ab" gradientTransform="matrix(.140625 0 0 -.140625 66.445312 134.578125)" gradientUnits="userSpaceOnUse" x1="-465.213989" x2="-447.09201" xlink:href="#y" y1="929.33197" y2="926.849976"/><linearGradient id="ac" gradientTransform="matrix(.140055 .0126474 .0126474 -.140055 59.911783 126.417076)" gradientUnits="userSpaceOnUse" x1="-487.128998" x2="-475.332001" xlink:href="#y" y1="833.244019" y2="831.627991"/><linearGradient id="ad" gradientTransform="matrix(.140625 0 0 -.140625 66.445312 134.578125)" gradientUnits="userSpaceOnUse" x1="-457.028992" x2="-467.665985" xlink:href="#y" y1="925.518005" y2="926.609009"/><linearGradient id="ae" gradientTransform="matrix(.139922 .014625 .014625 -.139922 59.180624 125.327808)" gradientUnits="userSpaceOnUse" x1="-495.902008" x2="-481.187988" xlink:href="#y" y1="803.547974" y2="820.742981"/><linearGradient id="af"><stop offset="0" stop-color="#de5c01"/><stop offset=".736" stop-color="#fefd00"/><stop offset=".778" stop-color="#fefe26"/><stop offset=".837" stop-color="#fffe54"/><stop offset=".889" stop-color="#ffff76"/><stop offset=".932" stop-color="#ffff8b"/><stop offset=".961" stop-color="#ffff92"/></linearGradient><linearGradient id="ag" gradientTransform="matrix(.140625 0 0 -.140625 66.445312 134.578125)" gradientUnits="userSpaceOnUse" x1="-384.187988" x2="-355.368988" xlink:href="#af" y1="835.447021" y2="879.89801"/><linearGradient id="ah"><stop offset="0" stop-color="#f79a09"/><stop offset=".736" stop-color="#fefd00"/><stop offset=".778" stop-color="#fefe26"/><stop offset=".837" stop-color="#fffe54"/><stop offset=".889" stop-color="#ffff76"/><stop offset=".932" stop-color="#ffff8b"/><stop offset=".961" stop-color="#ffff92"/></linearGradient><linearGradient id="ai" gradientTransform="matrix(.140625 0 0 -.140625 66.445312 134.578125)" gradientUnits="userSpaceOnUse" x1="-367.429993" x2="-386.300995" xlink:href="#ah" y1="929.703003" y2="937.991028"/><linearGradient id="aj" gradientTransform="matrix(.140625 0 0 -.140625 66.445312 134.578125)" gradientUnits="userSpaceOnUse" x1="-354.753998" x2="-381.173004" xlink:href="#af" y1="910.786011" y2="935.312012"/><linearGradient id="ak" gradientTransform="matrix(.140625 -.0039375 -.0039375 -.140625 83.448981 122.149687)" gradientUnits="userSpaceOnUse" x1="-460.091003" x2="-471.153015" xlink:href="#ah" y1="836.710022" y2="848.150024"/><linearGradient id="al" gradientTransform="matrix(.140625 0 0 -.140625 66.445312 134.578125)" gradientUnits="userSpaceOnUse" x1="-359.183014" x2="-352.957001" xlink:href="#ah" y1="896.737" y2="918.153992"/><linearGradient id="am" gradientTransform="matrix(.140507 -.00576615 -.00576615 -.140507 91.147205 116.265829)" gradientUnits="userSpaceOnUse" x1="-507.609985" x2="-507.837006" xlink:href="#ah" y1="782.981995" y2="799.271973"/><linearGradient id="an" gradientTransform="matrix(.14027 -.00998088 -.00998088 -.14027 108.024046 102.396072)" gradientUnits="userSpaceOnUse" x1="-615.185974" x2="-603.965027" xlink:href="#ah" y1="694.291992" y2="716.393005"/><linearGradient id="ao" gradientTransform="matrix(.14027 -.00998088 -.00998088 -.14027 70.691982 142.055697)" gradientUnits="userSpaceOnUse" x1="-343.207001" x2="-341.696991" xlink:href="#af" y1="938.700989" y2="963.18103"/><linearGradient id="ap" gradientTransform="matrix(.140625 0 0 -.140625 66.445312 134.578125)" gradientUnits="userSpaceOnUse" x1="-414.032013" x2="-366.713989" y1="838.940979" y2="867.223999"><stop offset="0" stop-color="#b9120d"/><stop offset=".078" stop-color="#bb180d"/><stop offset=".182" stop-color="#c0290c"/><stop offset=".301" stop-color="#c8450a"/><stop offset=".431" stop-color="#d36c08"/><stop offset=".571" stop-color="#e29e05"/><stop offset=".715" stop-color="#f4da02"/><stop offset=".792" stop-color="#fefd00"/><stop offset=".814" stop-color="#fefd07"/><stop offset=".846" stop-color="#fefd1b"/><stop offset=".884" stop-color="#fefe3c"/><stop offset=".927" stop-color="#fffe69"/><stop offset=".974" stop-color="#ffffa3"/><stop offset="1" stop-color="#ffffc7"/></linearGradient><linearGradient id="aq" gradientTransform="matrix(.139935 .013918 .013918 -.139935 60.449339 125.176934)" gradientUnits="userSpaceOnUse" x1="-451.410004" x2="-402.936005" xlink:href="#y" y1="752.749023" y2="746.182007"/><linearGradient id="ar" gradientTransform="matrix(.139219 .0203906 .0203906 -.139219 57.831748 121.033124)" gradientUnits="userSpaceOnUse" x1="-478.421997" x2="-422.135986" xlink:href="#y" y1="705.757019" y2="688.067017"/><linearGradient id="as" gradientTransform="matrix(.138328 -.0253131 -.0253131 -.138328 152.504299 57.532196)" gradientUnits="userSpaceOnUse" x1="-986.55603" x2="-959.79303" xlink:href="#y" y1="507.388" y2="456.148987"/><mask id="at"><g filter="url(#a)"><path d="m-1.8-1.8h21.6v21.6h-21.6z" fill-opacity=".5"/></g></mask><path d="m17.289062 8.96875c0 4.59375-3.722656 8.316406-8.3125 8.316406-4.589843 0-8.3125-3.722656-8.3125-8.316406 0-4.589844 3.722657-8.316406 8.3125-8.316406 4.589844 0 8.3125 3.726562 8.3125 8.316406zm0 0" fill="#110070"/><path d="m17.128906 8.96875c0 4.507812-3.648437 8.160156-8.152344 8.160156-4.503906 0-8.152343-3.652344-8.152343-8.160156 0-4.503906 3.648437-8.15625 8.152343-8.15625 4.503907 0 8.152344 3.652344 8.152344 8.15625zm0 0" fill="url(#b)"/><path d="m7.808594 13.183594c-.011719-.046875-.121094-.171875-.207032-.203125-.082031-.027344-.164062.125-.21875-.128907-.179687.101563-.253906-.027343-.253906-.027343s-.191406.011719-.230468.246093c-.089844.105469-.324219.496094-.199219.089844.125-.410156-.132813-.03125-.15625.175782-.042969.089843-.117188.097656-.070313-.3125-.164062-.054688-.25-.4375-.160156-.445313-.101562-.144531-.019531-.367187.066406-.355469.085938.011719.234375-.191406.230469-.238281s.070313-.011719.0625-.328125c-.003906-.3125.121094-.390625.128906-.128906.011719.261718.167969-.085938.152344-.21875-.015625-.132813.015625-.433594.113281-.257813-.113281-.4375-.023437-.453125.042969-.164062.164063.015625.171875.105469.171875.105469.183594-.046876.273438.09375.289062.171874.167969-.203124.34375.015626.34375.015626s.117188-.039063.0625.167968c-.058593.207032.246094.09375.175782-.054687.148437-.074219.371094.152343.441406.3125.070312.15625-.121094.378906.027344.433593.152344.054688.085937.316407.085937.316407s.3125.171875.09375.320312l-.074219.175781s.144532.160157.191407.066407.066406.09375.066406.09375c-.019531-.03125.035156.195312.230469.246093.195312.046876.316406.355469.101562.359376-.21875.003906-.234375 0-.292968.125-.058594.125-.335938.128906-.476563-.03125-.152344.050781-.425781-.015626-.34375-.136719-.132813.074219-.257813-.132813-.152344-.222657.101563-.089843-.058593-.210937-.113281-.078124-.054688.128906-.335938.195312-.316406-.027344.003906-.066406.15625-.105469.160156-.050782.027344.0625.035156-.003906.027344-.011718" fill="url(#d)"/><path d="m14.550781 6.804688c.042969.042968.128907.035156.175781.019531.046876-.011719.039063-.046875.082032-.058594.039062-.015625.195312.058594.152344.222656-.09375.011719-.128907.125-.128907.125s-.09375.042969-.140625.019531c-.046875-.019531-.046875-.011718-.113281-.003906-.070313.003906-.230469-.089844-.054687-.089844.175781 0-.019532-.078124-.097657-.078124-.074219 0-.011719-.074219.078125-.054688-.0625-.101562-.027344-.175781.046875-.101562" fill="url(#e)"/><path d="m13.9375 7.171875c-.046875.046875.007812.1875.070312.179687.058594-.007812.15625-.035156.15625-.035156s.046876.097656 0 .125c-.046874.023438-.1875.011719-.007812.078125.183594.066407.230469.046875.242188.015625.015624-.035156.074218-.148437.109374-.144531.027344-.058594-.09375-.113281-.027343-.152344.066406-.042969.015625-.1875.015625-.1875s-.097656.003907-.136719.074219c-.042969.066406-.09375-.007812-.136719-.007812-.003906.027343-.015625.050781-.03125.074218l-.027344-.0625s-.191406-.003906-.226562.042969" fill="url(#f)"/><path d="m12.675781 7.28125c-.007812-.015625.054688-.085938.039063.003906-.039063.0625.148437.121094.199218.050782.171876-.238282-.164062-.355469-.3125-.242188-.144531.109375-.226562-.128906-.058593-.164062.171875-.035157.183593-.339844-.003907-.339844.167969-.082032-.0625-.324219-.25-.367188-.03125-.261718-.308593-.429687-.453124-.332031-.144532.09375-.160157.078125-.375-.054687-.210938-.128907-.316407.269531-.15625.445312.15625.175781.042968.460938.046874.410156 0 0-.058593.109375-.054687.148438-.179687.0625-.234375-.191406-.347656-.25-.082031.109375-.210938.164062-.210938.164062l.007813-.21875s-.5625-.304687-.734375-.21875c-.214844.066406-.265625.558594-.070313.632813.191406.070312-.242187.253906.195313.714843.449219.472657.625.488282.714843.410157.023438-.019531.0625-.046875.109376-.082031.003906.019531.011718.035156.023437.054687.113281.167969-.261719.300781-.3125.542969-.054687.246094-.003906.703125.214844.71875.042969-.242188.460937-.15625.234375.0625-.230469.222656-.070313.265625-.070313.265625s.011719.417969.363281.285156c-.007812.023437-.019531.054687-.023437.089844-.097656-.023438-.339844-.050781-.398437.117187-.074219.210938-.386719-.074218-.609376.023438-.21875.09375-.535156.402344-.429687.621094.207031-.097657.367187.34375.078125.253906s-.234375.082031-.234375.082031-.300781.238281-.019531.492187c-.109375.015626-.300782.136719-.238282.402344 0 0-.121093.003906-.140624.242188-.402344.078125-.378907.207031.230468.066406-.246094.128906.171875.1875.355469.171875.1875-.015625.671875.222656.308594.226563-.367188 0-.257813.179687.179687.1875.4375.007812.390625.109374.457032.105468.066406-.003906.347656.21875.332031.34375s.296875.253906.5.109375c.011719.128907.542969.027344.621093-.203125.582032.089844.566407-.019531.4375-.089844-.289062-.042968-.820312-.425781-.242187-.230468.570313.199218.019531-.152344-.132813-.289063-.328124-.066406-.34375-.339843-.34375-.339843s.179688-.101563.035157-.363282c.355469-.0625.144531-.1875.183593-.308594.039063-.121093.21875-.273437.28125-.285156.011719-.015625.109376.003906.019532.039063-.078125.003906-.023438.222656.070312.230469.3125.039062.222656-.371094.035156-.453126-.183593-.082031-.015624-.308593.113282-.15625.128906.152344.417968-.019531.308594-.210937.175781.121094.265624-.265625.195312-.488281.230469-.199219.222656-.601563.042969-.691406-.085938-.042969-.128907-.070313-.152344-.125.105469-.050782.246094-.085938.304687-.039063.089844.082031.339844-.140625.320313-.402344.105469.058594.273437-.476562.132813-.664062.324218-.453125.238281-.496094.128906-.417969-.164063.226562-.703125.5-.285156.09375.40625-.390625-.109376-.09375-.28125-.027344-.199219.25-.414063.128906-.414063.128906s.007813-.207031-.25-.210937c.117187-.332031-.074219-.210937-.144531-.300781-.066406-.09375-.089844-.316406-.070313-.371094" fill="url(#g)"/><path d="m8.453125 3.949219c-.050781.132812.164063.347656.273437.277343.105469-.066406.261719-.207031.261719-.207031s.164063.132813.097657.226563c-.066407.09375-.332032.199218.054687.160156.394531-.046875.46875-.128906.464844-.203125 0-.074219.019531-.34375.089843-.363281 0-.140625-.269531-.128906-.175781-.265625s-.128906-.363281-.128906-.363281-.171875.097656-.191406.261718c-.023438.164063-.183594.074219-.257813.113282.019532.082031-.003906.171874-.003906.171874l-.101562-.089843s-.359376.164062-.382813.28125" fill="url(#h)"/><path d="m9.097656 10.875c-.046875.046875.003906.1875.066406.179688.0625-.007813.15625-.03125.15625-.03125s.046876.09375 0 .121093c-.046874.023438-.1875.015625-.007812.078125.183594.066406.230469.046875.242188.015625.015624-.035156.074218-.148437.109374-.140625.027344-.0625-.09375-.117187-.027343-.15625.066406-.039062.015625-.1875.015625-.1875s-.097656.007813-.136719.074219-.09375-.007813-.136719-.007813c-.003906.027344-.015625.050782-.03125.074219l-.027344-.0625s-.191406-.003906-.222656.042969" fill="url(#i)"/><path d="m17.601562 6.6875-.203124 1.28125s-.285157-2.371094-.632813-3.257812c-.539063-1.359376-.777344-1.347657-.777344-1.347657.359375.914063.292969 1.40625.292969 1.40625s-.636719-1.738281-2.320312-2.289062c-1.992188-.652344-3.007813-.417969-3-.40625.007812.007812 2.058593.355469 2.425781.855469 0 0-.875 0-1.742188.25-.039062.011718 3.195313.40625 3.855469 3.636718 0 0-.355469-.742187-.792969-.867187.289063.878906.214844 2.539062-.0625 3.367187-.035156.105469-.070312-.460937-.609375-.703125.171875 1.242188-.011718 3.207031-.871094 3.75-.066406.042969.539063-1.941406.121094-1.175781-2.492187 3.824219-5.457031 1.546875-6.660156.734375.964844.238281 1.992188.066406 2.585938-.335937.597656-.410157.953124-.710938 1.269531-.640626.316406.070313.53125-.246093.28125-.53125-.246094-.28125-.847657-.671874-1.660157-.460937-.570312.152344-1.28125.785156-2.363281.144531-.925781-.550781-.917969-.992187-.917969-1.277344 0-.28125.25-.714843.710938-.644531.410156.066407.195312-.175781.636719 0 .121093.050781-.011719-.578125-.183594-.980469.328125-.6875 1.398437-.890624 1.480469-.953124.144531-.109376.066406-.164063.113281-.328126.046875-.152343.078125-.570312-1.121094-.453124-.550781.050781-.902343-.664063-1.019531-.835938.039062-.222656.097656-.421875.179688-.609375.082031-.167969.171874-.320313.261718-.4375l.074219-.101563c.179687-.207031.398437-.386718.660156-.53125.136719-.078124-1.535156-.007812-2.289062.976563-.203125.023437-.480469-.035156-.789063-.035156-.386718 0-.695312.042969-.976562.113281-.042969.011719-.117188.007812-.207032-.015625-.25-.257813-.953124-.875-.984374-1.714844 0 0-1.023438.785157-.871094 2.929688-.011719 1.183593-.363282.84375-.542969 1.488281-.082031.304688.128906.535156.128906.542969-.003906.003906.25-.273438.25-.273438s-1.585937 2.75.460938 6.257813c1.765625 3.023437 4.730469 4.359375 7.804687 4.097656.542969-.035156 1.085938-.117188 1.617188-.242188 7.164062-1.734374 6.386718-10.382812 6.386718-10.382812" fill="url(#r)"/><path d="m6.414062 4.519531s.3125.847657 1.003907.84375c1.324219-.003906 1.351562.015625 1.359375.175781.027344.488282-.214844.648438-.308594.71875-.089844.070313-1.351562.800782-1.398438 1.011719-.046874.207031-1.457031-1.988281-1.457031-1.988281zm0 0" fill="url(#s)"/><path d="m7.121094 5.433594s.429687.546875.105468.769531c-.398437.265625.5625.324219.910157.132813.347656-.195313.558593-.484376.570312-.527344.011719-.042969.128907-.425782-.597656-.292969-.460937.085937-.628906.105469-.988281-.082031" fill="url(#t)"/><path d="m8.46875 6.257812c.070312-.050781.226562-.15625.289062-.421874-.042968.019531-.046874-.03125-.101562-.007813-.972656 1.015625-1.011719.308594-1.542969.449219-.484375.132812-.59375.316406-.613281.328125l.023438.03125c.136718.070312.273437.296875.371093.5.101563.117187.167969.175781.175781.132812.046876-.210937 1.308594-.941406 1.398438-1.011719" fill="url(#u)"/><path d="m1.191406 7.066406c-.199218.417969-1.472656 2.574219.609375 6.164063 2.039063 3.511719 5.566407 4.660156 9.167969 3.882812 1.027344-.222656 2.210938-1.027343 2.96875-1.617187-.488281-1.226563-.199219-1.179688-.460938-1.019532-2.898437 1.796876-5.207031.023438-6.992187-.203124-6.5664062-.832032-5.269531-7.21875-5.269531-7.21875zm0 0" fill="url(#v)"/><path d="m6.660156 11.988281c.617188.1875 1.96875.027344 2.550782-.402343.390624-.292969.683593-.511719.933593-.601563-.4375-.300781-.445312.125-1.371093.335937-1.921876.445313-2.855469-.515624-2.855469-.515624.136719.761718.613281 1.132812.828125 1.265624-.058594-.050781-.085938-.082031-.085938-.082031" fill="url(#w)"/><path d="m4.574219 15.472656s-1.601563-1.808594-2.046875-3.828125c-.660156-.625-1.125-1.148437-1.4375-1.53125.179687 1.441407.914062 3.675781 3.484375 5.359375" fill="url(#x)"/><path d="m3.238281 13.832031s-1.101562-1.574219-.6875-2.910156c.371094-1.199219-.082031-.484375-.34375-.226563-.265625.257813-.402343-.765624-.394531-.882812v-.003906c-.015625-.003906-.527344 2.453125 1.425781 4.023437" fill="url(#z)"/><path d="m1.601562 12.460938s-.25-3.191407.546876-3.644532c1.261718-.714844.105468-.546875-.261719-.347656-.371094.199219-.335938-1.121094-.285157-1.246094.050782-.125-1.304687 1.25 0 5.238282" fill="url(#A)"/><path d="m7.132812 3.066406s-1 1.019532-.992187 1.023438.027344 1.304687.0625 1.671875c.117187.140625.492187 1.0625.207031.859375-.292968-.210938-.082031-.214844-.054687-.109375v.007812c-.019531.007813-.726563-1.53125.777343-3.453125" fill="#a40000"/><path d="m2.375 2.285156s-1.066406.816406-.863281 3.054688c.824219-.738282 1.988281-1.292969 1.988281-1.292969-.195312-.121094-1.089844-.839844-1.125-1.761719" fill="url(#B)"/><path d="m4.996094 4.734375 1.597656 1.984375c-.460938-1.949219-.109375-3.121094 1.027344-3.757812.167968-.097657-2.371094.03125-2.625 1.773437" fill="url(#C)"/><path d="m3.871094 9.640625c.269531-1.714844 2.660156-1.464844 2.660156-1.464844-.105469.082031-.515625.128907-.632812.457031-.386719 1.078126-.019532 3.441407 2.390624 4.433594.253907.101563-4.824218-.886718-4.417968-3.425781" fill="url(#D)"/><path d="m8.742188 5.882812c-.011719 0-.019532 0-.027344.007813-.027344.039063-.140625.171875-.414063.390625-.5.410156-.710937.304688-1.085937.390625-.171875.039063-.332032.152344-.441406.242187.042968.070313.085937.148438.121093.222657.101563.117187.164063.175781.175781.132812.046876-.210937 1.308594-.941406 1.398438-1.011719.066406-.046874.207031-.148437.273438-.375" fill="url(#E)"/><path d="m7.203125 8.480469c.011719-.363281-.011719-1.246094-.390625-1.628907-.285156-.292968-.355469-.625-.394531-1.007812-3.128907 1.171875-3.578125 2.699219-3.265625 2.648438 2.507812-.394532 3.210937-.445313 4.050781-.011719" fill="url(#F)"/><path d="m.523438 10.621094s.21875-2.828125 1.632812-3.863282c1.113281-.8125.25-.515624-.179688-.484374-.453124.039062-.695312.3125-.605468.210937l.003906-.007813c-.015625-.015624-1.0625.863282-.851562 4.144532" fill="url(#G)"/><path d="m.375 8.449219s.757812-2.40625 2.292969-2.386719c1.015625.011719.210937-.859375-.097657-.992188-.320312-.136718-.398437-.132812-.472656-.066406-.113281.101563-1.121094.0625-1.722656 3.445313" fill="url(#I)"/><path d="m10.71875 10.808594c.113281-.113282.035156-.546875-.691406-.8125-.65625-.238282-1.683594.371094-1.988282.488281 0 0 1.164063-.214844 1.597657-.144531.59375.097656.800781.742187 1.082031.46875" fill="url(#J)"/><path d="m1.496094 10.011719s-.128906-2.367188.933594-3.375c.832031-.796875.148437-.457031-.203126-.382813-.371093.078125-.539062.332032-.480468.238282l.003906-.007813c-.015625-.011719-.785156.832031-.253906 3.527344" fill="url(#K)"/><path d="m.679688 9.261719s.445312-2.328125 1.71875-3.054688c1-.570312.257812-.40625-.101563-.417969-.382813-.011718-.605469.191407-.523437.117188l.003906-.007812c-.011719-.015626-.964844.617187-1.097656 3.363281" fill="url(#L)"/><path d="m2.191406 10.21875s-.246094-1.414062.28125-2.105469c.421875-.554687.050782-.285156-.144531-.207031-.203125.085938-.28125.25-.253906.191406.027343-.0625-.90625.664063.117187 2.121094" fill="url(#N)"/><path d="m2.46875 8.886719s-.242188-1.410157.285156-2.105469c.421875-.554688.050782-.285156-.144531-.203125-.203125.082031-.28125.246094-.253906.1875.027343-.058594-.910157.664063.113281 2.121094" fill="url(#O)"/><path d="m.988281 6.957031s.574219-1.171875 1.332031-1.402343c.609376-.1875.191407-.183594.003907-.226563-.195313-.050781-.339844.03125-.289063 0 .050782-.027344-1.027344.007813-1.046875 1.628906" fill="url(#Q)"/><path d="m.90625 7.886719s.574219-1.175781 1.332031-1.40625c.609375-.183594.191407-.179688.003907-.226563-.195313-.046875-.339844.035156-.289063.003906.054687-.03125-1.027344.007813-1.046875 1.628907" fill="url(#R)"/><path d="m1.324219 7.628906s1.007812-2.070312 2.351562-2.476562c1.070313-.324219.332031-.320313.003907-.398438-.347657-.085937-.601563.054688-.507813.003906.089844-.050781-1.8125.011719-1.847656 2.871094" fill="url(#S)"/><path d="m2.011719 6.515625s.628906-1.289063 1.464843-1.539063c.664063-.203124.207032-.203124 0-.25-.214843-.054687-.371093.035157-.316406.003907.058594-.035157-1.125.003906-1.148437 1.785156" fill="url(#T)"/><path d="m2.21875 6.96875s.570312-1.171875 1.332031-1.402344c.605469-.183594.1875-.183594.003907-.226562-.199219-.046875-.34375.03125-.289063 0 .050781-.027344-1.027344.007812-1.046875 1.628906" fill="url(#U)"/><path d="m8.777344 5.539062c-.003906-.125-.023438-.164062-.609375-.171874.066406.027343.183593.089843.3125.195312.167969.136719.195312.289062.210937.449219.058594-.109375.097656-.257813.085938-.472657" fill="url(#V)"/><path d="m5.339844 3.90625-.507813.816406s-2.027343-.320312-3.75 1.34375c-.140625.140625 1.125-2.941406 4.257813-2.160156" fill="url(#W)"/><path d="m3.519531 5.367188s.539063-1.003907 1.242188-1.308594c-.363281.011718-1.179688.292968-1.242188 1.308594" fill="url(#X)"/><path d="m1.4375 6.347656s.570312-1.171875 1.332031-1.40625c.605469-.183594.1875-.179687 0-.226562-.195312-.046875-.339843.035156-.285156.003906.050781-.027344-1.027344.007812-1.046875 1.628906" fill="url(#Y)"/><path d="m2.636719 5.519531s.589843-.945312 1.292969-1.195312c-.355469-.011719-1.167969.210937-1.292969 1.195312" fill="url(#Z)"/><path d="m3.648438 3.90625s-.445313.195312-1.230469-.132812l.699219.351562zm0 0" fill="url(#aa)"/><path d="m3.433594 4.03125s-.59375.230469-1.738282-.113281l.976563.390625c.121094-.113282.761719-.277344.761719-.277344" fill="url(#ab)"/><path d="m3.867188 3.839844s-.394532.121094-1.125-.160156l.703124.351562c.074219-.066406.421876-.191406.421876-.191406" fill="url(#ac)"/><path d="m2.636719 4.292969s-.292969.246093-1.042969.253906l.648438.023437zm0 0" fill="url(#ad)"/><path d="m1.925781 5.539062s1-1.304687 1.824219-1.601562c-.414062-.011719-1.675781.445312-1.824219 1.601562" fill="url(#ae)"/><path d="m17.441406 7.761719s.109375 2.421875-3.253906 5.789062c-.375.371094-2.402344 2.273438-2.332031 2.84375.023437.203125 5.324219-.8125 5.585937-8.632812" fill="url(#ag)"/><path d="m10.921875 2.066406c4.050781.3125 4.835937 3.226563 4.835937 3.046875.011719-2.832031-3.84375-3.046875-4.835937-3.046875" fill="url(#ai)"/><path d="m12.15625 3.175781s2.808594.574219 3.601562 3.550781c.105469.394532-.339843-2.417968-.203124-2.152343.136718.269531-1.128907-1.308594-3.398438-1.398438" fill="url(#aj)"/><path d="m13.277344 3.101562s2.539062.53125 2.5625 4.554688c.019531 2.847656.441406 1.070312.859375.429688.359375-.554688.113281-1.226563.105469-1.226563-.003907 0-.183594-.523437-.0625-.300781.007812.007812-.167969-.144532-.167969-.144532.027343-.003906-.097657-2.894531-3.296875-3.3125" fill="url(#ak)"/><path d="m16.132812 3.648438s.914063 2.371093-.054687 3.554687c-.3125.382813-.347656 2.355469.035156 2.175781.386719-.179687.304688 1.046875.253907 1.1875l-.003907.003906c.027344.015626 1.90625-3.03125-.230469-6.921874" fill="url(#al)"/><path d="m14.867188 6.148438s.574218 1.675781-.027344 2.878906l.457031 1.015625c.332031-.820313.753906-2.550781-.429687-3.894531" fill="url(#am)"/><path d="m15.875 5.945312s.398438 2.667969-1.03125 5.074219c.019531.554688-.078125 1.058594-.210938 1.472657.0625.082031.144532.140624.253907.148437-.046875.046875-.09375.089844-.140625.128906-.085938.035157-.175782.078125-.261719.117188l-.054687.125c.109374-.078125.214843-.15625.316406-.242188.289062-.128906.554687-.230469.554687-.230469l-.183593.066407c-.085938.03125-.164063.042969-.230469.035156 1.105469-1.007813 2.621093-3.257813.988281-6.695313m-1.667969 7.085938c-.125.074219-.214843.144531-.234375.199219-.015625.039062.070313.015625.21875-.066407.007813-.046874.015625-.089843.015625-.132812" fill="url(#an)"/><path d="m14.109375 8.785156s1.128906 3.214844-2.476563 6.226563c-.210937.175781 1.464844.101562 1.609376.035156.433593-.199219.945312-1.507813.882812-1.351563-.058594.15625 1.675781-2.316406-.015625-4.910156" fill="url(#ao)"/><path d="m15.6875 10.824219s-.679688 4.167969-5.386719 4.5c-1.839843.132812-4.488281-.296875-4.253906.40625.074219.214843.417969 1.125 1.210937 1.335937 2.140626.570313 7.832032.382813 8.429688-6.242187" fill="url(#ap)"/><path d="m11.765625 13.976562s-2.882813.660157-4.746094-.929687c-1.707031-1.453125-.859375-.230469-.628906.375.238281.617187-1.101563.144531-1.300781.042969-.199219-.097656 3.167968 2.015625 6.675781.511718" fill="url(#aq)"/><path d="m9.910156 15.546875s-3.4375-.675781-4.523437-3.003906c-.929688-1.988281-.683594-.527344-.726563.136719-.042968.683593-1.007812-.25-1.136718-.414063l-.003907-.003906c-.019531.011719 1.769531 2.820312 6.390625 3.285156" fill="url(#ar)"/><path d="m6.15625 15.246094s-1.640625-1.269532-2.382812-3.015625c-.621094-.214844-1.445313-.707031-1.460938-.792969.261719 1.355469 1.644531 2.933594 3.84375 3.808594" fill="url(#as)"/><g clip-path="url(#j)"><g clip-path="url(#k)"><path d="m9.160156.792969c-.128906.03125.085938.492187.085938.492187s-.007813.308594.042968.324219c.054688.015625.402344.105469.582032.332031.183594.222656.085937.34375-.0625.277344-.152344-.066406-.113282.136719-.113282.136719s.457032.148437.113282.136719c-.347656-.007813.230468.246093.195312.269531-.039062.027343-.0625.175781-.0625.175781s-.304687.023438-.046875.132812c.878907.367188-.09375.269532-.09375.269532l-.121093.152344.242187.308593.191406.132813s.394531-.132813.519531-.152344.4375-.253906.4375-.253906.089844.066406.023438-.070313c-.070312-.136719.257812-.074219.339844.027344l.578125.261719c.007812.019531.019531.039062.039062.050781.113281.078125-.101562.214844-.078125.359375.019532.140625.152344.378906.296875.355469-.027343-.136719.257813-.152344.160157-.003907-.101563.152344.011718.148438.011718.148438s.089844.214844.28125.09375c-.007812.066406.035156.199219.199219.207031 0 0-.015625.070313.121094.121094-.019531.242187.058593.25.078125-.121094.03125.164063.136718-.0625.160156-.171875.019531-.109375.246094-.351562.183594-.140625-.058594.210938.664062.289063.742187.039063.082031-.253906.371094-.386719.378907-.425782.007812-.039062-.640626-.101562-.570313-.070312.074219.03125.207031-.132812.15625-.277344.082031.015625.117187-.324218-.011719-.410156.160156-.335938.09375-.347656.027344-.28125-.082031.167969-.410156.425781-.1875.109375.226562-.316406-.089844-.039063-.199219.03125-.097656.1875-.269531.148437-.269531.148437s-.027344-.125-.210938-.082031c.019532-.226562-.089843-.117187-.15625-.164062-.039062-.027344-.078124-.085938-.101562-.140625.15625.066406.367188.132812.328125.015625-.023437-.074219.296875.089843.308594.054687l.398437-.054687.386719-.246094c-2.476563-2.214844-5.324219-2.097656-5.324219-2.097656" fill="url(#o)"/></g></g><g clip-path="url(#l)"><g clip-path="url(#m)"><path d="m5.472656 1.507812c-1.480468.664063-2.597656 2.035157-2.597656 2.035157s.132812.300781.179688.277343c.042968-.019531-.332032.789063-.054688.835938.277344.042969 1.078125-.503906.929688-.453125-.148438.050781.082031-.292969.082031-.292969s.417969-.1875.171875.027344c-.246094.210938.324218.023438.3125.070312-.007813.042969.074218.160157.074218.160157s-.195312.207031.058594.125c.863282-.292969.113282.246093.113282.246093l.015624.183594.371094.066406.222656-.019531s.195313-.34375.269532-.433593c.074218-.09375.144531-.460938.144531-.460938s.109375-.011719-.03125-.066406c-.140625-.054688.136719-.222656.265625-.199219l.601562-.1875c.019532.007813.042969.015625.066407.011719.136719-.015625.066406.222656.179687.3125.113282.09375.367188.179687.460938.066406-.109375-.082031.09375-.28125.121094-.105469.023437.175781.105468.101563.105468.101563s.21875-.371094.285156-.585938c.039063.054688.390626-.460937.285157-.707031-.109375-.25.066406-.484375.046875-.519531-.019532-.039063-.125.074218-.046875.046875.078125-.027344-.222657.105469-.261719-.289063-.042969-.40625-.101562.035156-.140625.164063.054687.210937.601563-.855469.601563-.855469l.707031-.285156s-1.609375-.136719-3.539063.730468" fill="url(#p)"/></g></g><g mask="url(#at)"><g clip-path="url(#n)"><path d="m13.140625 3.914062c0 1.542969-1.933594 2.796876-4.320313 2.796876-2.382812 0-4.316406-1.253907-4.316406-2.796876 0-1.546874 1.933594-2.796874 4.316406-2.796874 2.386719 0 4.320313 1.25 4.320313 2.796874zm0 0" fill="url(#q)"/></g></g></svg>