<svg height="18" viewBox="0 0 18 18" width="18" xmlns="http://www.w3.org/2000/svg"><path d="m6 14 1.5-2.901042c.333333-.661458 1-1.083333 1.739583-1.098958h10.760417c.619792 0 1.203125.286458 1.583333.776042.380209.489583.510417 1.125.354167 1.723958l-1.536458 6c-.229167.885417-1.036459 1.505208-1.953125 1.5h-14.447917c-1.104167 0-2-.895833-2-2v-13c0-1.104167.895833-2 2-2h3.901042c.677083-.005208 1.317708.333333 1.6875.901042l.8125 1.197916c.369791.5625.994791.901042 1.666666.901042h5.932292c1.104167 0 2 .895833 2 2v2" fill="none" stroke="#fff" stroke-linecap="round" stroke-linejoin="round" stroke-width="2" transform="scale(.75)"/></svg>