<svg height="18" viewBox="0 0 18 18" width="18" xmlns="http://www.w3.org/2000/svg"><g fill="none" stroke="#fff" stroke-linecap="round" stroke-linejoin="round" stroke-width="2" transform="scale(.75)"><path d="m20 10c.552083 0 1-.447917 1-1v-3c0-.552083-.447917-1-1-1h-2.5c-.3125 0-.609375-.145833-.802083-.401042l-.895834-1.197916c-.192708-.255209-.489583-.401042-.802083-.401042h-2c-.552083 0-1 .447917-1 1v5c0 .552083.447917 1 1 1zm0 11c.552083 0 1-.447917 1-1v-3c0-.552083-.447917-1-1-1h-2.901042c-.369791-.005208-.713541-.21875-.880208-.552083l-.416667-.848959c-.161458-.364583-.520833-.598958-.921875-.598958h-1.880208c-.552083 0-1 .447917-1 1v5c0 .552083.447917 1 1 1zm-17-16c0 1.104167.895833 2 2 2h3"/><path d="m3 3v13c0 1.104167.895833 2 2 2h3"/></g></svg>