<svg height="18" viewBox="0 0 18 18" width="18" xmlns="http://www.w3.org/2000/svg"><g fill="none" stroke="#fff" stroke-linecap="round" stroke-linejoin="round" stroke-width="2" transform="scale(.75)"><path d="m21 18c0 1.65625-1.34375 3-3 3s-3-1.34375-3-3 1.34375-3 3-3 3 1.34375 3 3zm0 0"/><path d="m10.302083 20h-6.302083c-1.104167 0-2-.895833-2-2v-13c0-1.104167.895833-2 2-2h3.901042c.677083-.005208 1.317708.333333 1.6875.901042l.8125 1.197916c.369791.5625.994791.901042 1.666666.901042h7.932292c1.104167 0 2 .895833 2 2v3.302083m-.302083 8.098959-.895834-.302084m-5.604166-2.197916-.895834-.302084m2.296875 5.098959.302084-.895834m2.197916-5.604166.302084-.895834m.197916 7.395834-.401041-1m-2.395834-5.395834-.401041-1m-2.098959 5.296875 1-.401041m5.395834-2.395834 1-.401041"/></g></svg>