<svg height="18" viewBox="0 0 18 18" width="18" xmlns="http://www.w3.org/2000/svg"><path d="m6 11h4m-2-2v4m7-1h.010417m2.989583-2h.010417m-.692709-5h-10.635416c-2.052084 0-3.770834 1.552083-3.979167 3.588542l-.015625.151041c-.083333.677084-.6875 5.71875-.6875 7.260417 0 1.65625 1.34375 3 3 3 1 0 1.5-.5 2-1l1.411458-1.411458c.375-.380209.885417-.588542 1.416667-.588542h4.34375c.53125 0 1.041667.208333 1.416667.588542l1.411458 1.411458c.5.5 1 1 2 1 1.65625 0 3-1.34375 3-3 0-1.546875-.604167-6.583333-.6875-7.260417-.005208-.046875-.010417-.098958-.015625-.151041-.208333-2.036459-1.927083-3.588542-3.979167-3.588542" fill="none" stroke="#fff" stroke-linecap="round" stroke-linejoin="round" stroke-width="2" transform="scale(.75)"/></svg>