<svg height="18" viewBox="0 0 18 18" width="18" xmlns="http://www.w3.org/2000/svg"><path d="m4.027344 4.035156c-1.597656.007813-3.089844.777344-4.0195315 2.070313l-.0078125.007812.109375.085938c2.121094-2.453125 6.070313-1.75 7.238281 1.25h-2.074218c-.734376-.894531-1.832032-1.085938-2.742188-.757813-.921875.332032-1.65625 1.191406-1.636719 2.367188.019531 1.175781.777344 2.011718 1.707031 2.3125.933594.304687 2.039063.074218 2.746094-.867188l.082032-.109375h-2.351563c.039063-.984375.839844-1.773437 1.835937-1.773437h2.722657c.015625.132812.023437.265625.023437.398437 0 1.769531-1.085937 3.359375-2.738281 4s-3.527344.203125-4.722656-1.101562l-.105469.089843s.0039062 0 .0039062.003907c0 0 .0039058.003906.0039058.003906.9375 1.226563 2.390626 1.945313 3.933594 1.949219h7.171875c1.859375 0 3.539063-.054688 4.757813-.148438.609375-.042968 1.105468-.097656 1.449218-.160156.171876-.03125.308594-.0625.402344-.097656.050782-.019532.089844-.035156.121094-.0625.03125-.023438.0625-.058594.0625-.105469 0-.03125-.015625-.0625-.039062-.085937-.019532-.019532-.042969-.035157-.066407-.046876-.054687-.023437-.121093-.046874-.210937-.070312-.175782-.042969-.429688-.085938-.75-.125-.59375-.070312-1.457032-.125-2.433594-.167969.421875-.277343.796875-.621093 1.09375-1.035156h.542969c.195312 0 .351562-.074219.449219-.191406.101562-.113281.152343-.261719.152343-.410157 0-.148437-.050781-.296874-.152343-.410156-.089844-.105468-.234376-.171875-.40625-.179687.09375-.300781.152343-.609375.175781-.921875h.503906c.195313 0 .351563-.074219.449219-.1875.101562-.117188.152344-.265625.152344-.414063 0-.148437-.050782-.296875-.152344-.410156-.097656-.113281-.253906-.1875-.449219-.1875h-.523437c-.039063-.3125-.113282-.617187-.21875-.914063h.011718c.195313 0 .351563-.074218.449219-.1875.101563-.117187.152344-.265624.152344-.414062s-.050781-.296875-.152344-.410156c-.097656-.113282-.253906-.1875-.449219-.1875h-.683594c-.785156-.964844-1.960937-1.527344-3.203124-1.527344h-.90625c-.5625-.003906-1.121094.113281-1.636719.34375l.027343.132812h.953126c2.074218 0 3.789062 1.609376 3.921874 3.679688.128907 2.070312-1.367187 3.886719-3.425781 4.148438-.117187.007812-.234375.015624-.359375.015624h-3.898437c.578125-.351562 1.089843-.808593 1.484375-1.367187.019531.003906.042968.007813.066406.007813h3.578125c.195313 0 .351563-.074219.453125-.1875.101562-.113282.148438-.265626.148438-.414063s-.046876-.296875-.148438-.410156-.257812-.1875-.453125-.1875h-3.027344c.105469-.296875.1875-.601563.238281-.914063h4.054688c.191406 0 .347656-.074218.449219-.1875.101562-.113281.148437-.265625.148437-.414062 0-.144532-.046875-.296875-.148437-.410156-.101563-.113282-.257813-.1875-.449219-.1875h-4.003906c-.03125-.308594-.089844-.613282-.175782-.914063h2.933594c.195313 0 .351563-.074219.453125-.1875.097657-.113281.148438-.265625.148438-.414063 0-.144531-.050781-.296874-.148438-.410156-.101562-.113281-.257812-.1875-.453125-.1875h-3.449218c-.894532-1.488281-2.503907-2.402344-4.242188-2.40625zm0 .140625h.347656c1.703125.003907 3.277344.902344 4.148438 2.371094l.019531.035156h3.523437c.160156 0 .269532.054688.347656.140625.074219.085938.113282.199219.113282.316406 0 .117188-.039063.234376-.113282.320313-.078124.085937-.1875.144531-.347656.144531h-3.113281l.03125.089844c.101563.335938.167969.683594.195313 1.035156l.007812.066406h4.125c.15625 0 .269531.054688.34375.140626.078125.085937.117188.199218.117188.316406 0 .117187-.039063.234375-.117188.320312-.074219.085938-.1875.140625-.34375.140625h-4.167969l-.007812.0625c-.054688.351563-.144531.699219-.273438 1.035157l-.035156.09375h3.21875c.160156 0 .273437.058593.347656.144531.074219.085937.113281.199219.113281.316406s-.039062.234375-.113281.320313c-.074219.085937-.1875.140624-.347656.140624h-3.585937c-.023438.003907-.046876 0-.070313-.003906l-.046875-.011718-.027344.039062c-.429687.617188-.992187 1.125-1.652344 1.488281l.035157.128907h4.117187c.132813 0 .253906-.007813.371094-.019532h.003906c2.128906-.269531 3.683594-2.148437 3.550782-4.292968-.136719-2.140626-1.914063-3.8125-4.0625-3.8125h-.507813c.378906-.117188.765625-.199219 1.164063-.199219h.90625c1.214843.003906 2.359374.554687 3.121093 1.503906l.019531.023437h.746094c.160156 0 .269532.058594.347656.144532.074219.085937.113282.199218.113282.316406s-.039063.234375-.113282.320312c-.078124.085938-.1875.140626-.347656.140626h-.210937l.039062.097656c.128907.332031.210938.679687.25 1.03125l.007813.0625h.644531c.160156 0 .269531.058594.347656.144531.074219.085937.113281.199219.113281.316406 0 .117188-.039062.234375-.113281.320313-.078125.085937-.1875.140625-.347656.140625h-.632813l-.003906.066406c-.019531.351563-.085937.699219-.195312 1.035156l-.03125.089844h.140625c.160156 0 .269531.058594.347656.144531.074219.082032.113281.199219.113281.316406 0 .117188-.039062.234376-.113281.320313-.078125.082031-.1875.140625-.347656.140625h-.613281l-.019532.03125c-.324218.464844-.742187.851562-1.230468 1.140625l-.207032.121094.238282.007812c1.074218.042969 1.980468.105469 2.613281.183594.316406.039063.566406.078125.730469.121094.085937.019531.148437.042969.183593.058593.003907.003907.007813.003907.011719.007813-.023438.015625-.046875.027344-.074219.035156-.082031.03125-.210937.0625-.378906.09375-.335937.058594-.828125.113281-1.433594.160157-1.214843.089843-2.894531.144531-4.75.144531h-7.171875c-1.007812 0-1.960937-.339844-2.765625-.910157 1.121094.601563 2.472657.714844 3.703125.238282 1.703125-.664063 2.828125-2.304688 2.828125-4.132813 0-.160156-.007812-.320312-.027343-.476562l-.007813-.0625h-2.851563c-1.09375 0-1.984374.890625-1.980468 1.984375v.070312h2.183594c-.667969.777344-1.636719.976563-2.472657.703125-.878906-.285156-1.59375-1.066406-1.609375-2.183593-.019531-1.113282.671875-1.917969 1.542969-2.230469s1.914063-.132813 2.613281.738281l.019532.023438h2.34375l-.03125-.089844c-.976563-2.6875-4.089844-3.640625-6.367188-2.332032.824219-.617187 1.816406-.984374 2.871094-.988281zm0 0" fill="#f78557"/></svg>