<svg height="18" viewBox="0 0 18 18" width="18" xmlns="http://www.w3.org/2000/svg"><path d="m11.535156 1.550781-.675781 1.035157c1.070313 1.238281 2.136719 2.476562 3.207031 3.71875.148438-.617188.257813.054687.382813.316406.328125.742187.378906 1.574218.480469 2.367187.195312 1.507813.132812 2.390625-.007813 3.214844-.445313 2.664063-2.035156 4.21875-3.554687 5.113281-.519532.308594-1.019532.523438-1.75.621094-.757813.105469-1.496094.0625-2.253907-.085938-.625-.121093-1.253906-.324218-1.832031-.589843-.921875-.421875-1.683594-1.15625-2.28125-1.957031-.574219-.777344-.9375-1.703126-1.214844-2.628907-.503906-1.6875-.714844-3.488281-.3125-5.222656.25-1.082031.609375-2.152344 1.101563-3.140625.523437-1.050781 1.253906-2 2.144531-2.789062.535156-.472657 1.113281-.90625 1.765625-1.171876.480469-.191406.988281-.234374 1.511719-.199218.519531.03125 1.011718.089844 1.503906.265625.671875.238281 1.304688.613281 1.785156 1.132812zm0 0" fill="#ffcfab"/><path d="m10.679688 2.632812-.398438.085938-.542969.285156-.832031-.113281-1.488281 1.828125-.800781.117188-.398438.199218.371094.945313 2.230468-1.832031 1.230469-.144532zm.773437.140626-.316406.515624.058593.457032.65625.058594.890626-.488282-.660157-.199218zm0 0" fill="#f39505"/><path d="m11.9375 2.144531.660156.832031.171875.285157-1.257812-.429688.140625-.402343zm0 0" fill="#ffcfab"/><path d="m6.617188 6.035156.457031.746094-.457031 1.171875 1.089843.199219.226563.230468.6875 1.058594 2.175781-1.144531.644531.175781.699219-.207031-.488281-.511719.085937-.144531.230469-.144531.113281.371094.199219.460937.546875.65625.140625-.085937.027344-.429688.507812-.085938.175782-.140624.449218-.054688.113282-.5625-.328126-1.359375v-.570313l.515626-.085937.457031.34375.65625.171875.257812-.058594-.773437-.972656-.472656-.484375-.269532-.171875-.515625-.34375-1.058593.054688-.828126.203124-.714843.34375-.429688-.058593-.542969-.257813-.171874-.257812-1.117188-.027344zm0 0" fill="#ab9a7e"/><path d="m11.949219 1.328125-.457031.183594-.695313.863281-.746094 1.6875.285157.34375.800781.226562.917969-.371093 1.398437-.351563-.171875-.199218-.195312-.164063-1.863282.316406-.113281-.34375.144531-.371093.683594-1.058594.71875.3125.808594.277344.0625-.113282-.546875-.367187-.527344-.769531zm3.710937 1.675781-.488281.113282s-.398437.199218-.285156.199218.65625.171875.65625.171875l.230469.171875.058593.257813-.316406.628906-.144531.144531-.65625-.429687-.199219-.144531-.203125-.027344-.3125.027344.328125.421874.207031.003907.761719.851562.191406.230469.34375-.21875.398438-.886719.222656-.703125.03125-.59375-.183594-.21875zm-2.320312 2.460938-.257813.027344-.457031.402343.171875.226563.230469-.085938.398437-.429687zm-.476563 1.925781c-.109375-.007813-.351562.179687-.355469.300781-.003906.144532.355469.433594.382813.304688.03125-.128906.050781-.433594.019531-.566406-.003906-.027344-.023437-.039063-.046875-.039063zm.742188.042969c-.132813 0-.324219.03125-.324219.03125s-.078125.261718.035156.261718c.113282 0 .421875-.195312.414063-.261718-.003907-.023438-.054688-.03125-.125-.03125m-1.636719.003906-.257812.144531-.113282.199219.429688.257812.082031-.230468zm0 0" fill="#fff"/><path d="m7.878906 0c-.394531.0078125-.777344.0703125-1.144531.21875-.667969.265625-1.253906.707031-1.789063 1.183594-.894531.792968-1.636718 1.75-2.160156 2.808594-.496094.996093-.859375 2.070312-1.109375 3.15625-.40625 1.753906-.191406 3.566406.3125 5.261718.28125.929688.644531 1.863282 1.230469 2.652344.597656.808594 1.367188 1.546875 2.304688 1.976562.582031.269532 1.21875.476563 1.851562.597657.761719.148437 1.511719.191406 2.277344.085937.742187-.101562 1.253906-.320312 1.777344-.628906 1.53125-.902344 3.136718-2.480469 3.589843-5.167969.136719-.824219.203125-1.71875.007813-3.230469-.101563-.792968-.152344-1.632812-.488282-2.390624-.054687-.117188-.113281-.351563-.183593-.488282-.015625-.035156-.035157-.066406-.0625-.09375-.003907 0-.011719-.003906-.015625-.007812l.035156-.050782c.066406-.101562.222656-.089843.480469.070313.207031.125.484375.148437.777343.167969.484376.035156.445313-.039063.21875-.265625l-.273437-.246094s.101563.058594.269531-.097656c.222656-.203125.648438-1.15625.726563-1.839844.085937-.691406-.027344-.796875-.769531-.710937-.304688.039062-.671876.128906-.820313.222656 0 0-.21875.109375-.183594.167968.03125.0625.320313.09375.320313.09375.542968.085938.6875.265626.6875.464844 0 .207032-.28125.722656-.414063.722656-.046875 0-.21875-.132812-.378906-.285156-.320313-.3125-.496094-.355468-.808594-.261718-.175781-.046876-.429687-.074219-.636719-.191407-.050781-.027343-.015624-.070312-.117187-.195312-.179687-.226563-.316406-.207031-.507813-.160157-.238281.058594-.246093.058594-.066406-.074218.179688-.132813.171875-.152344-.226562-.675782l-.398438-.539062.472656.234375c.484376.25.902344.316406 1 .164063.035157-.046876-.097656-.171876-.296874-.265626-.191407-.097656-.417969-.316406-.503907-.476562-.09375-.171875-.21875-.371094-.273437-.445312-.144532-.164063-.640625-.25-.90625-.148438-.046875.015625-.085938.039062-.125.066406-.484375-.503906-1.105469-.863281-1.757813-1.097656-.503906-.175781-1.003906-.234375-1.527343-.2695312-.128907-.0117188-.261719-.0117188-.394532-.0117188m.003906.144531c.125 0 .253907 0 .382813.011719.515625.03125 1.003906.089844 1.484375.261719.632812.226562 1.226562.574219 1.691406 1.050781-.148437.132812-.273437.320312-.417968.511719-.1875.242187-.289063.421875-.375.570312-.175782-.042969-.480469.085938-.605469.203125-.207031.1875-.257813.199219-.664063.09375-.410156-.113281-.457031-.105468-.675781.09375-.121094.125-.464844.550782-.757813.949219-.285156.410156-.550781.742187-.582031.75-.027343 0-.226562.019531-.433593.039063-.210938.019531-.496094.074218-.636719.132812-.230469.085938-.25.125-.179688.371094.046875.140625.253907.578125.472657.960937l.390624.683594-.238281.566406c-.132812.316407-.21875.609375-.191406.648438.03125.046875.304687.113281.617187.152343l.570313.066407.4375.652343c.410156.621094.480469.65625.628906.582032.046875-.023438.285157-.191406.597657-.34375.3125-.160156.738281-.398438.949218-.539063.296875-.195312.59375-.261719.753906-.203125.09375.039063.140626.121094.101563.25-.082031.265625-.078125.433594-.042969.605469.066406.070313.148438.101563.269532.183594.417968.257812.582031.273437.589843 0v-.210938l.105469.21875c.152344.3125.398438.226563.4375-.160156.027344-.230469-.03125-.382813-.183594-.542969-.113281-.121094-.171875-.285156-.125-.285156.09375 0 .421875.4375.421875.550781 0 .039063.054688.078125.132813.078125.140625 0 .246094-.199218.246094-.476562 0-.105469.28125-.164063.546874-.257813.070313-.023437.070313-.058593.136719-.105469.128907.027344.085938.027344.183594.019532.140625-.007813.203125-.046875.242187-.113282.199219-.320312.230469-.730468.078126-1.089843-.070313-.175781-.128907-.515625-.132813-.703125l.015625.019531.035156-.136719c.015625-.074218.035156-.128906.050782-.164062.003906-.007813 0-.003906.003906-.007813.003906.007813.007812.007813.011718.015625.054688.109375.113282.339844.179688.484375.324219.730469.375 1.550781.476562 2.347657.195313 1.503906.132813 2.375-.007812 3.191406-.441406 2.644531-2.015625 4.179687-3.519531 5.066406-.515625.304688-1 .511719-1.726563.613281-.746094.101563-1.476562.058594-2.226562-.085937-.621094-.121094-1.246094-.324219-1.820313-.585938-.90625-.417968-1.660156-1.140625-2.25-1.933594-.566406-.765624-.929687-1.683593-1.203125-2.609374-.5-1.679688-.710937-3.464844-.3125-5.183594.25-1.078125.605469-2.144532 1.09375-3.128906.519532-1.039063 1.25-1.980469 2.128906-2.761719.53125-.472657 1.105469-.902344 1.746094-1.160157.351563-.140624.71875-.199218 1.097656-.207031m4.132813 1.253907c.105469-.003907.210937.019531.328125.0625.082031.039062.234375.226562.332031.425781.101563.199219.285157.429687.398438.503906.117187.082031.417969.203125.398437.21875-.035156.03125-.582031-.140625-.929687-.332031-.265625-.152344-.542969-.257813-.609375-.226563-.074219.015625-.292969.292969-.503906.617188-.417969.644531-.492188 1.148437-.1875 1.25.179687.058593 1.515624-.257813 1.738281-.292969.15625-.023438.359375.132812.359375.246094 0 .039062-.285156.097656-.628906.125-.40625.039062-.777344.140625-1.054688.304687-.492188.273438-.777344.292969-1.167969.09375-.386719-.199219-.367187-.40625.191407-1.527343.5-1.027344.882812-1.464844 1.335937-1.46875m-.074219.859374c.066406 0 .21875.160157.351563.351563.410156.617187.410156.589844.125.511719-.417969-.121094-.746094-.316406-.824219-.367188.066406-.148437.234375-.496094.347656-.496094m-1.480468.476563c.019531.003906.03125.015625.03125.035156s-.105469.265625-.238282.5625c-.21875.464844-.277344.523438-.601562.578125-.1875.027344-.472656.058594-.632813.058594-.230469 0-.449219.152344-1.046875.738281-.417968.410157-.890625.835938-1.054687.949219l-.292969.203125-.171875-.382813c-.207031-.464843-.152344-.539062.503906-.597656.539063-.046875.597657-.085937 1.035157-.722656.160156-.238281.457031-.617188.664062-.84375.324219-.371094.390625-.410156.570312-.304688.304688.160157.644532.125.894532-.085937.15625-.128906.285156-.195313.339844-.1875m1.019531.175781c.050781.019532.480469.25.710937.328125l.417969.128907-.324219.164062c-.171875.085938-.464844.179688-.65625.207031-.425781.066407-.511718-.066406-.320312-.511719.078125-.199218.128906-.242187.171875-.316406m4.613281.136719c.21875.019531.316406-.003906.328125.390625.019531.335938-.121094.769531-.308594 1.234375-.292969.738281-.585937 1.027344-.757812.722656-.101563-.171875-.328125-.519531-.710938-.832031-.03125-.023438-.066406-.0625-.148437-.082031-.121094-.027344-.152344.019531-.183594-.003907-.160156-.214843-.15625-.308593.050781-.320312.117188 0 .289063.085938.382813.199219.085937.105469.273437.257812.40625.324219.230468.125.265625.113281.464844-.09375.152343-.164063.238281-.390626.253906-.683594.015625-.285156-.089844-.449219-.574219-.550782-.144531-.03125-.425781-.027343-.386719-.054687.085938-.085937.910156-.261719 1.183594-.25zm-2.59375 1.0625c.246094.003906.277344.082031.3125.277344.066406.359375.277344.445312.21875.085937-.035156-.257812-.035156-.257812.105469-.085937.085937.101562.152343.292969.152343.425781s.027344.34375.058594.457031c.046875.160157 0 .207031-.25.265625l-.3125.066406.066406.558594c.03125.304688.125.714844.199219.914063.144531.332031.113281.921875-.046875 1.023437-.039062.03125-.273437.019532-.511718-.007812-.390626-.058594-.4375-.085938-.4375-.3125v-.429688c0-.1875-.039063-.1875-.378907-.007812-.164062.085937-.285156.21875-.285156.304687 0 .21875.273437.503907.484375.503907.09375 0 .550781.082031.675781.085937-.003906.035156-.054687.066406-.089843.078125-.144532.046875-.378907.019531-.464844.003906-.152344-.019531-.167969.03125-.160156.304688.019531.179687 0 .265625-.039063.191406-.027344-.078125-.160156-.246094-.304687-.378906-.148438-.144532-.253907-.371094-.273438-.570313-.046875-.449219-.238281-.789062-.617188-1.113281-.398437-.332031-.550781-.597656-.476562-.863281.039062-.152344.125-.210938.304688-.210938.324218-.007812.933593-.285156 1.320312-.605469.511719-.449218.34375-.464843-.265625-.039062-.503906.351562-.644531.410156-1.214844.4375l-.636719.046875.3125-.324219c.160157-.167968.304688-.339844.304688-.378906 0-.199219.875-.570312 1.527344-.644531.351562-.039063.574218-.0625.722656-.058594m-3.816406.023437c.226562.007813.316406.042969.359375.128907.046875.085937.230469.226562.410156.3125.179687.085937.386719.152343.464844.152343.246093 0-.046875.351563-.445313.53125-.199218.085938-.363281.191407-.363281.230469 0 .035157.191406.105469.429687.140625.378907.046875.425782.085938.378907.246094-.09375.304688.113281.6875.578125 1.085938.371094.304687.417968.378906.304687.484374-.09375.09375-.238281.113282-.550781.054688l-.425781-.074219.027343-.496093c.027344-.539063-.113281-.671876-.210937-.199219-.140625.722656-.054687.855469.617187.980469.191407.027343.4375.160156.550782.285156l.210937.226562-.277343.09375c-.160157.058594-.320313.066406-.359376.019532-.199218-.171876-.675781-.171876-.941406 0l-.273437.179687-.382813-.300781c-.53125-.410156-.597656-.515625-.777344-1.085938-.132812-.453125-.273437-.671875-.371093-.578125-.019531.019531.046875.292969.164062.628907.179688.558593.433594.902343.976563 1.289062.105468.078125.171875.152344.144531.183594-.066406.054687-1.21875.632812-1.273437.632812-.03125 0-.230469-.273437-.445313-.617187-.34375-.53125-.4375-.617188-.695313-.625-.160156-.011719-.410156-.039063-.550781-.078125l-.246093-.054688.226562-.550781.238281-.550781-.210937-.332032c-.121094-.210937-.167969-.390624-.132813-.496093.066407-.140625.085938-.132813.132813.058593.078125.292969.230468.273438.25-.03125 0-.132812.132812-.359374.273437-.5.152344-.144531.246094-.210937.210938-.144531-.066407.132813.027343.410157.140625.410157.046875 0 .085937-.144532.085937-.316407 0-.214843.105469-.414062.378907-.730469.324218-.371093.371093-.398437.378906-.21875 0 .125.058594.21875.125.21875.085937 0 .113281-.085937.085937-.273437l-.039062-.285156.550781-.03125c.09375-.003907.183594-.003907.277344-.003907zm4.746094.441407c.019531-.003907.046874 0 .074218.015625.117188.050781.285156.238281.496094.507812.105469.132813.285156.390625.410156.558594 0 0 .078125.101562.171875.191406.0625.058594.128907.117188.195313.171875 0 0-.152344.007813-.480469-.085937-.757813-.214844-.808594-.324219-.75-.550782.046875-.179687.066406-.179687.3125.058594.132813.132813.285156.207032.3125.167969.105469-.09375-.40625-.585937-.558594-.53125-.132812.046875-.253906-.308594-.21875-.46875.003907-.023437.015625-.035156.035157-.035156m-1.175782.4375c-.105468 0-.078125.066406.105469.257812.140625.140625.292969.226563.320313.1875.097656-.09375-.246094-.445312-.425782-.445312m0 .398437c-.15625 0-.359375.074219-.511718.21875-.210938.199219-.238282.285156-.164063.429688.058594.101562.171875.1875.25.1875.199219 0 .730469-.539063.683594-.691406-.035157-.097657-.132813-.144532-.257813-.144532m.019532.085938c.042968 0 .066406.03125.066406.085937 0 .046875-.066406.09375-.144532.09375-.074218 0-.179687.085938-.234374.191407-.058594.105468-.152344.160156-.210938.132812-.066406-.046875-.019531-.152344.152344-.292969.171875-.144531.300781-.214843.371094-.210937m.828124.179687c.0625 0 .09375.03125.0625.066407-.039062.03125-.089843.03125-.132812 0-.027344-.035157 0-.066407.070312-.066407m-.445312 1.640625c-.171875-.007812-.40625.035156-.453125.082032-.039063.039062-.054687.101562-.0625.152343-.003906.046875.011719.113281.035156.152344.097657.175781.378907.117187.601563-.136719.132812-.140625.132812-.179687.019531-.226562-.035156-.015625-.085937-.023438-.140625-.023438zm-.058594.144532c.035156 0 .058594.011718.058594.039062 0 .050781-.304688.230469-.34375.121094-.039062-.117188.042969-.144532.148438-.152344.054687-.007812.101562-.011719.136718-.007812m-.828125.019531c.046875 0 .09375.105469.09375.238281 0 .246094-.132812.3125-.238281.144531-.082031-.136719.011719-.382812.144531-.382812m-.863281.097656c.058594 0 .105469.050781.105469.140625 0 .078125-.039063.144531-.085938.144531-.125 0-.210937-.152343-.132812-.230469.039062-.039062.078125-.054687.113281-.054687m-6.066406 3.410156c-.324219 0-.613282.054688-.871094.160157-.257812.109374-.476562.257812-.652344.449218-.179687.191406-.316406.417969-.410156.675782-.09375.257812-.140625.539062-.140625.84375 0 .414062.128906.734374.382813.957031.257812.226562.613281.339843 1.066406.339843.125 0 .242187-.011718.351562-.03125.105469-.019531.210938-.042968.316406-.074218.097657-.027344.195313-.058594.292969-.097656l.265625-.105469.328125-1.417969h-1.324219l-.082031.371094h.878907l-.1875.84375c-.117188.042968-.242188.078125-.367188.105468-.136719.027344-.277344.042969-.421875.039063-.339844 0-.59375-.085937-.769531-.257813-.171875-.171874-.257813-.417968-.257813-.734374 0-.214844.03125-.425782.09375-.632813s.152344-.390625.277344-.546875.28125-.289062.460937-.382812c.183594-.09375.398438-.144532.640626-.144532.222656 0 .429687.035156.625.105469.191406.066406.371093.179687.535156.332031h.039062l.101563-.5c-.203125-.105468-.398438-.183594-.59375-.226562-.1875-.046875-.382813-.070313-.578125-.070313zm3.4375 0c-.304688 0-.582032.054688-.832032.167969-.246093.113281-.457031.269531-.628906.460938-.167968.199218-.300781.429687-.390625.691406-.09375.265625-.140625.550781-.140625.855468 0 .394532.121094.703126.359375.917969.238281.21875.566407.324219.984375.324219.226563 0 .441406-.03125.640625-.09375.203125-.0625.382813-.132812.539063-.210938l.101562-.507812h-.03125c-.054687.042969-.121094.089844-.195312.136719-.082032.054687-.171875.101562-.261719.144531-.109375.050781-.226563.09375-.34375.121094-.125.03125-.257813.046875-.398437.046875-.300782 0-.527344-.082031-.6875-.253907-.15625-.167968-.234376-.40625-.234376-.710937-.003906-.230469.03125-.464844.105469-.6875.070313-.214844.167969-.398437.292969-.550781.121094-.152344.273438-.273438.449219-.363282.171875-.085937.363281-.128906.570312-.128906.136719 0 .257813.015625.371094.042969.113281.03125.210937.066406.289063.109375.101562.050781.175781.097656.226562.136719.050781.042969.097656.089843.144531.136719h.035157l.097656-.496094c-.175782-.101563-.351563-.175782-.523438-.21875-.175781-.046875-.355468-.070313-.539062-.070313m3.175781 0c-.308594 0-.585937.054688-.832031.167969-.25.113281-.457032.269531-.628906.460938-.171876.199218-.300782.429687-.394532.691406-.089844.265625-.136718.550781-.136718.855468 0 .394532.117187.703126.355468.917969.238282.21875.566406.324219.984375.324219.230469 0 .441407-.03125.644531-.09375.203126-.0625.382813-.132812.535157-.210938l.105469-.507812h-.03125c-.0625.046875-.128907.09375-.199219.136719-.082031.054687-.167969.101562-.257813.144531-.109375.050781-.226562.09375-.34375.121094-.128906.03125-.261718.046875-.402344.046875-.296874 0-.527343-.082031-.683593-.253907-.15625-.167968-.238281-.40625-.238281-.710937 0-.242187.035156-.472656.105468-.6875.074219-.214844.171875-.398437.296875-.550781.121094-.152344.273438-.273438.449219-.363282.171875-.085937.359375-.128906.566406-.128906.136719 0 .261719.015625.375.042969.113282.03125.207032.066406.289063.109375.097656.050781.175781.097656.222656.136719.050781.042969.101563.089843.148437.136719h.03125l.101563-.496094c-.179687-.101563-.351563-.175782-.523437-.21875-.175782-.050782-.359376-.070313-.539063-.070313zm0 0"/><path d="m11.988281 7.460938s-.0625.066406-.136719.117187c-.070312.050781-.164062.085937-.164062.085937s.34375.441407.390625.382813c.050781-.054687.015625-.152344-.003906-.28125-.023438-.132813-.085938-.304687-.085938-.304687zm0 0" fill="#ffcfab"/></svg>