<svg height="18" viewBox="0 0 18 18" width="18" xmlns="http://www.w3.org/2000/svg"><path d="m56.083333 0c-2.833333.0555556-5.583333.5-8.277777 1.583333-4.777778 1.916667-8.944445 5.055556-12.75 8.444445-6.361112 5.638889-11.638889 12.444444-15.361112 19.944444-3.527777 7.083334-6.083333 14.694445-7.861111 22.416667-2.888889 12.472222-1.361111 25.333333 2.222223 37.333333 1.972222 6.611111 4.555555 13.277778 8.75 18.888889 4.25 5.75 9.75 11.027778 16.444444 14.111111 4.166667 1.888889 8.666667 3.388889 13.166667 4.25 5.444444 1.055556 10.777777 1.361111 16.25.611111 5.305555-.722222 9-2.305555 12.722222-4.5 10.888889-6.416666 22.361111-17.694444 25.555555-36.805555 1-5.861111 1.444445-12.25.083334-22.944445-.75-5.666666-2.388889-15.277777-4.833334-20.777777l-.111111-.222223-.055555-.083333c.111111-.138889.194444-.222222.583333-.194444.416667.055555 1.111111.333333 1.972222.888888h.027778c1.611111.944445 3.611111 1.111112 5.722222 1.25.861111.055556 1.5.083334 1.972223.027778.222222 0 .444444-.055555.638888-.111111.194445-.083333.388889-.194444.5-.416667.111112-.222222.138889-.444444.055556-.666666-.055556-.194445-.166667-.361111-.277778-.5-.222222-.333334-.555555-.666667-.972222-1.083334l-1.138889-1.027777c.333333-.111111.694445-.277778 1.083333-.638889.972223-.888889 2.055556-2.916667 3.083334-5.416667s1.944444-5.388889 2.222222-7.888889c.138889-1.222222.222222-2.222222.138889-3.027778-.083333-.833333-.333333-1.5-.833333-1.972222s-1.194445-.666666-2.055556-.75c-.861111-.055555-1.916667.027778-3.25.166667-2.194444.277778-4.75.861111-6 1.638889-.027778.027778-.388889.194444-.75.444444-.222222.138889-.416667.305556-.555556.5-.083333.083334-.166666.194445-.222222.361111-.055555.194445-.027778.388889.055556.583334.194444.361111.444444.416666.722222.5.277778.111111.555556.166666.833333.222222.555556.111111 1.055556.166667 1.083334.166667 1.861111.305555 3 .75 3.638889 1.25.611111.472222.777777.944444.777777 1.527777 0 .5-.444444 1.805556-1.027777 2.861111-.305556.527778-.611112 1-.888889 1.333334-.25.277778-.444445.361111-.444445.388889.027778 0 .055556.027777-.027778.027777-.027777 0 0-.027777.027778-.027777l-.138889-.055556-.027777-.027778-.166667-.111111c-.5-.305555-1.277778-.944444-2.027778-1.666666h-.027778c-1.138889-1.111112-2.083333-1.805556-3.055555-2.111112-.944445-.277777-1.888889-.166666-2.972222.111112-1.305556-.333334-2.972223-.527778-4.25-1.277778-.027778-.055556-.027778-.111111-.055556-.166667-.083333-.222222-.25-.583333-.638889-1.083333-.666667-.833334-1.333333-1.305556-2.055555-1.444445-.666667-.166666-1.333334-.027777-2 .138889-.222223.055556-.277778.055556-.472223.055556.138889-.055556.194445-.111111.361111-.194445l.305556-.166666.25-.138889.055556-.138889c.166666-.111111.333333-.222222.388888-.416667.138889-.305555.027778-.638889-.111111-.916666-.277777-.527778-.805555-1.194445-1.694444-2.305556v-.027778c-.055556-.083333-.111111-.166666-.166667-.25-.027778-.055555-.055555-.083333-.111111-.138889-.027778-.027777-.027778-.055555-.055555-.083333 0 .027778-.027778 0-.083334-.027778v-.027778c-.083333-.111111-.138889-.166666-.25-.305555l-1.555555-2.111111 1.472222.722222c1.722222.888889 3.361111 1.444444 4.694444 1.666667.638889.111111 1.25.138889 1.75.027777.5-.083333.944445-.333333 1.222223-.722222.083333-.138889.138888-.305555.138888-.472222 0-.138889-.055555-.277778-.111111-.388889-.138889-.222222-.305555-.416667-.527777-.611111-.416667-.388889-1.027778-.805556-1.777778-1.138889-1.194445-.611111-2.805556-2.166667-3.333334-3.138889-.666666-1.222222-1.527777-2.638889-1.972222-3.222222l-.027778-.027778c-.666666-.75-1.861111-1.166666-3.166666-1.388889-1.305556-.194444-2.694445-.194444-3.777778.222223h-.027778c-.222222.083333-.416666.194444-.638889.333333-3.416666-3.472222-7.722222-6-12.277777-7.611111-3.611112-1.277778-7.194445-1.694445-10.888889-1.9444447-.944445-.0833333-1.888889-.0833333-2.833334-.0833333m.027778 1.027778c.916667-.027778 1.833333 0 2.75.055555 3.638889.25 7.138889.666667 10.611111 1.888889 4.555556 1.638889 8.861111 4.138889 12.194445 7.611111l.305555.305556.333334-.25c.25-.166667.527777-.277778.777777-.388889.805556-.305556 2.111111-.361111 3.277778-.166667 1.166667.194445 2.222222.666667 2.555556 1.055556.388889.5 1.25 1.888889 1.888889 3.055555.694444 1.305556 2.305555 2.833334 3.777777 3.555556v.027778c.666667.305555 1.222223.666666 1.555556.972222.111111.083333.138889.166667.194444.222222-.083333.083334-.166666.194445-.444444.222222-.333333.083334-.833333.055556-1.416667-.027777-1.166666-.194445-2.722222-.722223-4.388889-1.583334l-3.361111-1.666666-.611111.75 2.805556 3.833333c.138889.166667.194444.222222.305555.388889l.055556.083333.083333.027778v.027778s0-.027778.027778 0c0 .027778.055555.138889.111111.222222l.055556.055556c.916666 1.194444 1.472222 1.888888 1.638888 2.194444.083334.166667.055556.166667.055556.111111.027778-.027778 0 0-.138889.111111l-.083333.027778-.055556.027778-.027778.027778-.25.138888c-.444444.25-.833333.472223-1.138888.694445-.111112.083333-.25.194444-.361112.305555-.111111.111112-.222222.25-.25.527778 0 .138889.055556.305556.166667.416667.055556.083333.166667.138889.277778.194444.166667.055556.333333.083334.527778.083334.361111 0 .861111-.055556 1.555555-.194445h.055556c.638889-.166666 1.138889-.25 1.583333-.166666.416667.111111.888889.361111 1.472222 1.111111.305556.388889.388889.611111.472223.805555.027777.083334.055555.194445.138888.333334.055556.138888.194445.277777.361112.361111 1.583333.916666 3.444444 1.083333 4.611111 1.388889l.138889.055555.138888-.055555c1.055556-.305556 1.777778-.361112 2.527778-.138889.75.222222 1.555556.805555 2.666667 1.861111v.027778h.027778c.777777.722222 1.583333 1.388888 2.166666 1.777777l.222223.138889c.194444.111111.277777.222222.638888.222222.555556 0 .861112-.361111 1.222223-.75.361111-.416666.694444-.944444 1.027777-1.5.638889-1.138888 1.166667-2.388888 1.166667-3.361111 0-.833333-.361111-1.694444-1.194444-2.333333-.861111-.666667-2.138889-1.138889-4.083334-1.444444h-.027777s-.5-.055556-1-.138889c-.25-.055556-.472223-.111111-.694445-.194445.083333-.055555.111111-.083333.194445-.166666.333333-.222223.694444-.388889.694444-.388889l.027778-.027778c.888889-.555556 3.5-1.222222 5.611111-1.5 1.277778-.138889 2.277778-.194445 3.027778-.138889s1.194444.222222 1.444444.472222c.277778.25.444445.638889.527778 1.305556.055555.694444 0 1.611111-.138889 2.833333-.277778 2.333333-1.138889 5.194445-2.166667 7.611111-1 2.444445-2.194444 4.472222-2.833333 5.055556-.777778.722222-1.166667.638889-1.277778.611111l-.194444-.055556-.805556.5 2.333334 2.083334c.388888.388889.694444.722222.861111.944444.027777.027778 0 .055556.027777.083333-.055555 0-.111111.027778-.222222.027778-.388889.027778-.972222.027778-1.833333-.027778-2.055556-.138888-3.916667-.333333-5.25-1.138888h-.027778c-.916667-.555556-1.694444-.916667-2.388889-1-.666666-.083334-1.333333.166666-1.666666.694444l-.305556.416667.222222.305555v.027778l-.027778-.083333.166667.222222-.111111-.111111v-.027778s-.027778-.027778 0 .027778l.25.416666v.027778h.027778c2.305555 5.25 4.027778 14.861111 4.75 20.472222 1.361111 10.638889.916666 16.861112-.055556 22.666667-3.166666 18.805556-14.388889 29.777778-25.083333 36.083333-3.666667 2.166667-7.194445 3.666667-12.361111 4.388889-5.333334.722223-10.555556.444445-15.916667-.611111-4.416667-.861111-8.861111-2.305555-12.916667-4.166666-6.527777-2.972223-11.888888-8.138889-16.083333-13.805556-4.055555-5.472222-6.638889-12-8.583333-18.555556-3.527778-11.916666-5.027778-24.583333-2.222222-36.833333 1.777777-7.638889 4.305555-15.194444 7.777777-22.166667 3.694445-7.416666 8.861111-14.111111 15.138889-19.666666 3.777778-3.333334 7.861111-6.416667 12.472222-8.25 2.527778-1.027778 5.166667-1.472222 7.916667-1.5m0 .5c-2.666667.055555-5.25.472222-7.722222 1.472222-4.527778 1.805556-8.583333 4.833333-12.333333 8.166667-6.222223 5.5-11.361112 12.166666-15 19.5-3.472223 6.916666-5.972223 14.444444-7.75 22.055555-2.777778 12.138889-1.305556 24.722222 2.222222 36.583334 1.944444 6.5 4.472222 13 8.5 18.388888 4.166666 5.611112 9.472222 10.722223 15.861111 13.638889 4.055555 1.861111 8.444444 3.305556 12.833333 4.138889 5.305556 1.027778 10.472222 1.333334 15.722222.611111 5.111112-.694444 8.555556-2.166666 12.166667-4.305555 10.638889-6.277778 21.722222-17.111111 24.833333-35.75.972223-5.777778 1.416667-11.916667.055556-22.5-.722222-5.583334-2.416667-15.138889-4.666667-20.305556h-.027777c-.111112.305556-.25.75-.416667 1.416667l-.222222.944444-.111111-.138889c0 1.333334.416666 3.722223.916666 4.972223.972222 2.277777.888889 4.805555-.138889 6.972222l-.222222 1.138889-.694444.055555c-.277778.166667-.638889.277778-1.194445.333334-.5.027777-.583333 0-.888889-.055556l-.611111.055556c-.25.25-.361111.444444-.75.583333l-.5.388889-1.388889.25c-1.027777.333333-1.861111.666667-1.944444 1.111111l-.138889 2.111111-.305556.194445c-.333333.694444-.777777 1.111111-1.333333 1.111111-.527778 0-.944444-.25-.944444-.527778 0-.805556-2.277778-3.888889-2.972223-3.888889-.333333 0 .083334 1.138889.888889 2.027778 1.083334 1.138889 1.472223 2.194444 1.277778 3.805555-.25 2.75-2 3.361111-3.083333 1.138889l-.722222-1.527778v1.472223c-.083334 1.944444-1.194445 1.805555-4.166667 0-.861111-.583334-1.444445-.805556-1.888889-1.305556-.277778-1.222222-.305556-2.388889.277778-4.25.166666-.555555.111111-.972222-.083334-1.277778l-2.138888-.611111c-.555556.083334-1.194445.25-1.861112.527778l-1.972222 1.027778c-1.5 1.027778-4.472222 2.666666-6.666666 3.805555-2.222223 1.083334-3.888889 2.25-4.222223 2.416667-.388889.194444-.694444.277778-1.083333.083333l-.361111.194445-.944445-1.472222c-.5-.666667-1.166666-1.583334-2.027777-2.888889l-2.75-4.138889-.527778-.527778-3.833333-.444444c-2.222223-.25-4.166667-.722223-4.361112-1.055556-.027777-.055556-.027777-.111111-.027777-.222222l-.166667-.027778.333333-.833333c.222223-.888889.638889-2.138889 1.194445-3.472223l1.694444-4.027777-2.75-4.833334c-.055555-.111111-.111111-.222222-.194444-.305555l-.027778-.083334c-1.444444-2.583333-2.805556-5.416666-3.138889-6.361111-.472222-1.75-.333333-2.027777 1.277778-2.611111 1-.416666 3.027778-.805555 4.5-.944444s2.888889-.277778 3.083333-.277778c.194445-.055556 2.055556-2.416667 4.083334-5.277778 2.083333-2.833333 4.5-5.833333 5.361111-6.694444 1.527777-1.416667 1.861111-1.5 4.75-.694445 1.305555.333334 2.055555.5 2.666666.472223l1.861111-1c.055556-.027778.111112-.083334.166667-.138889.861111-.805556 3.027778-1.722223 4.277778-1.416667.611111-1.027778 1.333333-2.333333 2.638889-4.027778 1.027778-1.361111 1.916666-2.666666 2.944444-3.611111-3.277778-3.361111-7.472222-5.805555-11.916666-7.416667-3.416667-1.194444-6.861112-1.611111-10.5-1.861111-.888889-.055555-1.805556-.055555-2.694445-.055555m29.166667 8.833333c-3.194445.027778-5.888889 3.111111-9.416667 10.361111-3.972222 7.916667-4.111111 9.388889-1.361111 10.777778 2.75 1.416667 4.777778 1.277778 8.25-.666667 1.944444-1.138889 4.555556-1.861111 7.444444-2.138889 2.416667-.194444 4.416667-.611111 4.416667-.861111 0-.805555-1.416667-1.916666-2.555555-1.75-1.111112.194445-6.5 1.416667-9.777778 1.916667l-.194445.027778h-.027777c-1.083334.166666-1.944445.222222-2.25.138889-.916667-.333334-1.361112-1.166667-1.305556-2.388889l-.166667-.472222.333334-.722223c.194444-.805555.555555-1.722222 1.027777-2.694444l.138889-.361111.166667-.305556.111111-.166666c.333333-.583334.666667-1.166667 1.027778-1.75 1.472222-2.277778 3.027778-4.222223 3.555555-4.333334.472223-.222222 2.416667.527778 4.277778 1.611111 2.472222 1.361111 6.333334 2.555556 6.583334 2.333334.138888-.111111-2-.972223-2.833334-1.555556-.777778-.527778-2.055555-2.138889-2.805555-3.527778-.666667-1.416666-1.75-2.75-2.333334-3.027777-.805555-.305556-1.583333-.444445-2.305555-.444445zm-.527778 6.083333c-.805556 0-1.972222 2.416667-2.444444 3.472223.444444.305555 2.083333 1.277777 4.25 2.083333l1.5.5c0 .027778.027777.027778.055555.027778.833333.222222 1.305556.388889 1.388889.194444-1.416667-2.055555-3.055556-4.138889-4.5-6.222222-.083333-.027778-.166667-.055556-.25-.055556m-10.277778 3.444445-1.111111.25c-.5.277778-1 .611111-1.472222 1-1.722222 1.472222-4.138889 1.722222-6.305556.583333 0 0-.027777 0-.027777-.027778l-1.472223-.194444c-.583333.25-1.277777.972222-2.5 2.388889-.027777.027778-.083333.083333-.111111.111111l-3.277778 4.027778c-.5.666666-.944444 1.277778-1.305555 1.805555-1.666667 2.416667-2.555556 3.583334-3.583333 4.222223l-.194445.222222-.305555.055555c-.805556.333334-1.75.472223-3.222223.583334-1.083333.111111-1.916666.222222-2.555555.361111l-1.555556.777778c-.166666.222222-.222222.527777-.194444.916666l1.722222 4.333334.25.527777 7.305556-6c.722222-.694444 1.472222-1.388889 2.194444-2.111111 3.388889-3.333333 5.055556-4.666666 6.416667-5.055555v-.027778c.333333-.083333.638889-.138889.944444-.138889 1.138889 0 3.166667-.194444 4.5-.388889 2.277778-.416667 2.694445-.805555 4.222222-4.111111.944445-2.055556 1.666667-3.805556 1.666667-3.944444 0-.055556 0-.111112-.027778-.166667zm7.027778 1.138889c-.277778.472222-.611111.833333-1.111111 1.972222l-.5 1.416667-.111111.222222c-.111111.472222-.194445.861111-.166667 1.194444l.277778.75c.416667.444445 1.277778.527778 2.666667.305556.75-.111111 1.694444-.361111 2.638888-.694445h-.027777l3.805555-2.083333-2.472222-.777778c-.194444-.055555-.472222-.194444-.722222-.277777l-.222222-.083334-.166667-.083333c-1.611111-.694445-3.611111-1.75-3.888889-1.861111m32.555556.972222c-1.944445-.055556-7.75 1.166667-8.361112 1.777778-.027777 0-.027777.027778-.027777.027778.25.027777.472222.083333.722222.138888.611111.055556 1.444444.083334 2.027778.194445 3.416666.75 4.166666 1.888889 4.055555 3.888889-.111111 2.055555-.694444 3.694444-1.777778 4.833333-1.416666 1.472222-1.666666 1.527778-3.277777.666667-.944445-.472222-2.277778-1.555556-2.888889-2.277778-.666667-.805556-1.861111-1.416667-2.694445-1.416667-1.472222.083334-1.5.75-.361111 2.25.222222.166667.444445-.166666 1.305556.055556.555555.111111.833333.388889 1.027778.555555 2.694444 2.222223 4.333333 4.666667 5.027777 5.888889 1.194445 2.138889 3.277778.111111 5.333334-5.111111 1.361111-3.305555 2.305555-6.361111 2.194444-8.694444-.083333-2.805556-.777778-2.638889-2.305555-2.777778zm-18.305556 7.5c-1.055556-.027778-2.638889.138889-5.083333.416667-2.055556.222222-4.416667.888889-6.416667 1.666666l-2.944444 1.416667c-.861112.527778-1.444445 1.055556-1.444445 1.472222 0 .25-1 1.472222-2.138889 2.666667l-2.194444 2.277778 4.472222-.333334c4.027778-.194444 5.027778-.611111 8.583333-3.083333 4.277778-3 5.5-2.888889 1.861111.277778-2.722222 2.277778-7.027777 4.222222-9.305555 4.277778-1.277778 0-1.861111.416666-2.138889 1.472222-.527778 1.888889.527778 3.75 3.361111 6.111111 2.666667 2.277778 4 4.694444 4.333333 7.833333.111112 1.111111.583334 2.333334 1.305556 3.277778l.361111.444444c.111111.111112.194445.222223.277778.305556.944444.861111 1.805555 1.972222 2.083333 2.555556l.25.305555c.138889-.055555.194445-.611111.083334-1.527778-.055556-1.944444.083333-2.277777 1.138888-2.138889.25.027778.722223.083334 1.222223.111112l2.138889-.361112.444444-.361111c-.944444-.027777-4.027778-.611111-4.666667-.611111-1.472222 0-3.416666-2-3.416666-3.555555 0-.583334.861111-1.527778 2-2.138889 2.416666-1.277778 2.694444-1.277778 2.694444.083333v3c0 1.611111.333333 1.805556 3.083333 2.222222 1.027778.111111 2.027778.194445 2.75.166667l.861112-.111111c.277777-.166667.5-.555556.666666-1.055556l.222222-1.194444c.083334-.666667.111112-1.444445.055556-2.222222l-.888889-3.583334c-.305555-1.055555-.555555-2.111111-.777778-3.194444l-.416666-1.833333v-1.222223l-.416667-3.305555 2.222222-.472222c1.75-.416667 2.083334-.722223 1.75-1.888889-.194444-.805556-.416666-2.277778-.416666-3.194445 0-.944444-.472223-2.277778-1.055556-3.027778-1.027778-1.194444-1.027778-1.194444-.75.611112.416667 2.527777-1.083333 1.944444-1.527778-.611112-.277778-1.388888-.5-1.916666-2.222222-1.944444zm-28.583333.277778-4.138889.472222.222222 1.666667c.194444 1.333333 0 1.944444-.611111 1.944444-.472222 0-.861111-.666667-.861111-1.555555-.027778-.611112-.138889-.888889-.5-.694445l-.277778.25-.361111.305556c-.361111.361111-.861111.916666-1.527778 1.694444-1.944444 2.222222-2.694444 3.611111-2.694444 5.166667 0 1.194444-.277778 2.194444-.611111 2.194444-.805556 0-1.472223-1.944444-1-2.861111.277777-.472222-.388889 0-1.472223 1-1 1-1.944444 2.611111-1.944444 3.555556-.138889 2.138889-1.194445 2.277777-1.75.194444-.166667-.694444-.277778-1.055555-.416667-1.083333l-.25.222222c-.111111.138889-.194444.305556-.25.444444-.25.638889 0 1.694445.638889 2.944445l1.638889 2.638889-.027778.027778.138889.222222-1.666667 3.888889-1.138888 2.777777-.416667 1.027778 5.527778 1.027778h.055555c.5.027778.916667.083333 1.305556.25l.333333.055556.361111.361111c.333334.25.611111.555555.861111.861111l.555556.527778 3.055555 4.75c.805556 1.166666 1.444445 1.972222 1.555556 1.972222.416667 0 8.527778-4.083334 9-4.5.194444-.194445-.277778-.722222-1.027778-1.277778-3.805555-2.75-5.611111-5.138889-6.888889-9.111111-.805555-2.333333-1.277777-4.277778-1.138889-4.416667.666667-.666666 1.666667.861111 2.611112 4.083334 1.277777 4.027777 1.75 4.75 5.5 7.638888l2.666666 2.138889 1.944445-1.25c.666666-.444444 1.527777-.722222 2.416666-.833333h.027778c1.611111-.222222 3.305556.055556 4.194445.833333.166666.194445.75.25 1.416666.138889l2.305556-.694444.583333-.194445-3.444444-3.083333.027777-.027778c-.611111-.277778-1.222222-.5-1.75-.583333-4.777777-.861111-5.361111-1.805556-4.361111-6.888889.666667-3.361111 1.666667-2.416667 1.472223 1.416667l-.194445 3.472222 3 .527778c1.527778.277777 2.472222.305555 3.138889.055555l.333333-.138889c.138889-.083333.305556-.194444.416667-.305555.805556-.75.472222-1.277778-2.138889-3.416667-3.277778-2.805555-4.75-5.5-4.083333-7.638889.333333-1.138889 0-1.416666-2.694445-1.75-1.666666-.277778-3-.722222-3-1s1.138889-1 2.527778-1.611111c2.833333-1.277778 4.916667-3.75 3.166667-3.75-.527778 0-2-.472222-3.277778-1.083333-.527778-.222222-1-.527778-1.444444-.861111l-.722223-.333334-.416666-.638889c-.111111-.138888-.25-.25-.305556-.361111-.166667-.361111-.472222-.583333-1-.722222zm35.138889 3c-.138889 0-.222223.083333-.25.25-.25 1.138889.611111 3.638889 1.527777 3.305555 1.083334-.388889 4.694445 3.083334 3.972223 3.75-.222223.277778-1.277778-.25-2.222223-1.194444-1.75-1.666667-1.888889-1.666667-2.222222-.416667-.388889 1.611111-.055555 2.388889 5.305556 3.888889 2.333333.666667 3.388889.611111 3.388889.611111s-.722223-.583333-1.361112-1.222222c-.666666-.611111-1.222222-1.333333-1.222222-1.333333-.888889-1.194445-2.138889-3-2.888889-3.944445-.166666-.194444-.305555-.361111-.444444-.555555l-2.111111-2.361111c-.361111-.305556-.666667-.555556-.944445-.666667-.194444-.111111-.388889-.138889-.527777-.111111m-8.305556 3.083333c1.277778 0 3.694444 2.5 3.027778 3.166667-.194445.25-1.277778-.333334-2.277778-1.361111-1.277778-1.333334-1.472222-1.805556-.75-1.805556m-.361111 2.833333c1.027778-.083333 1.916667.222223 2.166667 1 .333333 1.055556-3.416667 4.888889-4.805556 4.888889-.555556 0-1.361111-.611111-1.75-1.333333-.527778-1.027778-.333333-1.611111 1.138889-3.027778.972222-.916666 2.194444-1.416666 3.25-1.527778m.5.583334c-.5-.027778-1.388889.472222-2.611111 1.472222-1.194445 1.027778-1.527778 1.75-1.083334 2.083333.416667.194445 1.083334-.194444 1.5-.944444.388889-.722222 1.111112-1.333333 1.666667-1.333333.527778 0 1-.333334 1-.666667 0-.388889-.166667-.611111-.472222-.611111m6.027778 1.305555v.138889l-.305556.055556.305556.333333c.111111 0 .194444-.027778.277777-.083333.166667-.222222.027778-.388889-.277777-.444445zm-3.333334 11.527778c.416667.027778.75.083333 1 .166667.805556.333333.805556.611111-.138889 1.611111-1.583333 1.777778-3.555555 2.194444-4.25.944444-.138888-.25-.277777-.722222-.222222-1.055555.055556-.361111.138889-.805556.416667-1.083334.333333-.333333 2-.638888 3.194444-.583333zm-.388889 1.027778c-.25-.027778-.583333 0-.972222.055555-.75.055556-1.333333.25-1.055555 1.083334.305555.777778 2.416666-.5 2.416666-.861111 0-.194445-.138889-.25-.388889-.277778m-5.861111.138889c-.944444 0-1.611111 1.75-1 2.694444.75 1.194445 1.666667.722222 1.666667-1 0-.944444-.333333-1.694444-.666667-1.694444m-5.972222.611111-1.138889.5-.138889.25c.055556.388889.527778.777778 1.305556 1.333333.416667.305556.666667.416667.805555.444445l-.166666-.444445zm-42.916667 24.138889c1.388889 0 2.75.166666 4.083334.472222 1.361111.333333 2.75.861111 4.166666 1.611111l-.694444 3.527778h-.277778c-1.166666-1.083333-2.416666-1.861111-3.777778-2.333333-1.361111-.5-2.833333-.75-4.388888-.75-1.722223 0-3.222223.361111-4.527778 1.027777-1.25.666667-2.388889 1.583334-3.25 2.694445s-1.527778 2.416666-1.972222 3.861111c-.444445 1.444444-.666667 2.944444-.666667 4.444444 0 2.25.611111 3.972223 1.833333 5.194445s3.055556 1.833333 5.444445 1.833333c1 0 2-.083333 2.972222-.277778.861111-.194444 1.75-.444444 2.583333-.75l1.333334-5.972222h-6.222223l.611111-2.583333h9.305556l-2.305556 9.972222-1.861111.777778c-.694444.25-1.388889.5-2.083333.694444-.75.194445-1.472222.361111-2.222222.5-.833334.138889-1.638889.222222-2.472222.222222-3.222223 0-5.722223-.805555-7.527778-2.388888-1.805556-1.583334-2.694445-3.833334-2.694445-6.75 0-2.166667.333334-4.138889 1-5.972223.638889-1.805555 1.611111-3.416666 2.861111-4.777777 1.277778-1.333334 2.805556-2.388889 4.611112-3.138889 1.833333-.777778 3.861111-1.138889 6.138888-1.138889m24.25 0c1.305556-.027778 2.583334.138889 3.833334.472222 1.194444.333333 2.416666.861111 3.694444 1.555556l-.722222 3.527777h-.222222c-.333334-.333333-.694445-.666666-1.055556-.972222-.333333-.305555-.861111-.611111-1.555555-.972222-.583334-.305556-1.25-.555556-2.055556-.777778-.805555-.194444-1.666667-.305555-2.638889-.277778-1.444444 0-2.777778.277778-4 .888889-1.222222.638889-2.333333 1.5-3.194444 2.555556-.861111 1.083333-1.555556 2.361111-2.055556 3.888889-.5 1.583333-.75 3.222222-.75 4.861111 0 2.138889.555556 3.833333 1.666667 5.027778 1.138889 1.194444 2.722222 1.777777 4.833333 1.777777.972222 0 1.916667-.111111 2.833334-.333333.833333-.194444 1.638888-.5 2.416666-.861111.638889-.277778 1.25-.638889 1.833334-1 .555555-.361111 1.027777-.694445 1.388888-1h.222223l-.722223 3.611111c-1.111111.555556-2.361111 1.055556-3.777777 1.472222-1.416667.444445-2.944445.666667-4.555556.666667-2.944444 0-5.25-.75-6.944444-2.277778-1.666667-1.527778-2.5-3.694444-2.5-6.5 0-2.138889.305555-4.138889.972222-6 .638889-1.861111 1.555555-3.5 2.777778-4.888889 1.194444-1.361111 2.666666-2.472222 4.416666-3.25 1.75-.805555 3.722223-1.194444 5.861111-1.194444m22.388889 0c1.305556-.027778 2.583334.138889 3.833334.472222 1.194444.333333 2.416666.861111 3.694444 1.555556l-.722222 3.527777h-.222222c-.333334-.333333-.666667-.666666-1.027778-.972222-.361111-.305555-.888889-.611111-1.583333-.972222-.583334-.305556-1.25-.555556-2.055556-.777778-.777778-.194444-1.666667-.305555-2.611111-.277778-1.472222 0-2.805556.277778-4.027778.888889-1.222222.638889-2.305555 1.5-3.166667 2.555556-.888888 1.083333-1.583333 2.361111-2.083333 3.888889-.5 1.527777-.75 3.138889-.75 4.861111 0 2.138889.555556 3.833333 1.694445 5.027778 1.111111 1.194444 2.722222 1.777777 4.805555 1.777777 1 0 1.944445-.111111 2.833333-.333333.833334-.194444 1.666667-.5 2.444445-.861111.611111-.277778 1.222222-.638889 1.833333-1 .472222-.305556.916667-.638889 1.388889-1h.222222l-.75 3.611111c-1.083333.555556-2.361111 1.055556-3.777777 1.472222-1.472223.472222-3 .694445-4.527778.666667-2.972222 0-5.277778-.75-6.944445-2.277778-1.694444-1.527778-2.527777-3.694444-2.527777-6.5 0-2.138889.333333-4.138889.972222-6s1.555555-3.472222 2.777778-4.888889c1.194444-1.361111 2.666666-2.472222 4.416666-3.25 1.75-.805555 3.722222-1.194444 5.861111-1.194444" fill="none" stroke="#fff" stroke-linecap="round" stroke-linejoin="round" stroke-width="1.5" transform="scale(.140625)"/></svg>