<svg height="18" viewBox="0 0 18 18" width="18" xmlns="http://www.w3.org/2000/svg" xmlns:xlink="http://www.w3.org/1999/xlink"><linearGradient id="a" gradientTransform="matrix(11.297958 59.169874 -59.169874 11.297958 -2.302503 -41.166634)" gradientUnits="userSpaceOnUse" x1="0" x2="1" y1="0" y2="0"><stop offset="0" stop-color="#fff"/><stop offset=".34" stop-color="#fff"/><stop offset=".51" stop-color="#bebdf3"/><stop offset=".75" stop-color="#867fb7"/><stop offset=".87" stop-color="#9f99c7"/><stop offset="1" stop-color="#524c76"/></linearGradient><linearGradient id="b"><stop offset="0" stop-color="#fff"/><stop offset=".34" stop-color="#fff"/><stop offset=".51" stop-color="#bebbdb"/><stop offset=".75" stop-color="#928bbe"/><stop offset=".87" stop-color="#9f99c7"/><stop offset="1" stop-color="#524c76"/></linearGradient><linearGradient id="c" gradientTransform="matrix(-3.412531 -15.300654 15.300654 -3.412531 11.600966 13.299397)" gradientUnits="userSpaceOnUse" x1="0" x2="1" xlink:href="#b" y1="0" y2="0"/><radialGradient id="d" cx="0" cy="0" gradientTransform="matrix(3.036909 0 0 2.327687 7.597266 3.997969)" gradientUnits="userSpaceOnUse" r="1" xlink:href="#b"/><radialGradient id="e" cx="0" cy="0" gradientTransform="matrix(-.416326 26.416285 -22.529642 -.354727 .687797 4.74286)" gradientUnits="userSpaceOnUse" r="1" xlink:href="#b"/><path d="m.40625 14.351562c0-.757812.644531-1.816406 1.5625-2.78125.613281-.644531 1.234375-1.207031 2.59375-2.363281-.941406-.515625-2.398438-1.136719-3.132812-1.953125-.269532-.300781-.761719-.984375-.667969-1.894531.195312-1.855469 2.488281-4.675781 5.75-5.2734375 1.082031-.1953125 2.328125-.0546875 3.351562.4062505 3.214844 1.445312 7.148438 5.035156 7.632813 6.789062.167968.617188.136718 1.601562-.15625 2.148438-.367188.679687-1.625 2.058593-3.347656 3.484374-2.703126 2.234376-6.492188 4.632813-9.320313 5.039063-.914063.128906-1.847656-.007813-2.503906-.375-1.027344-.582031-1.367188-1.351563-1.484375-1.585937-.320313-.613282-.28125-1.394532-.277344-1.640626m7.605469-8.53125c.035156-.429687 1.726562 0 1.617187.339844-.113281.359375-1.65625.15625-1.617187-.335937zm0 0" fill="url(#a)"/><path d="m5.476562 8.492188c-.890624.75-1.480468 1.257812-2.222656 1.933593-1.78125 1.628907-2.992187 2.871094-2.367187 4.566407.71875 1.957031 2.300781 1.859374 4.152343 1.496093 4.773438-.941406 12.625-6.976562 12.222657-9.207031-.324219-1.804688-4.707031-5.386719-7.304688-6.664062-.8125-.398438-1.746093-.6054692-2.683593-.5625005-3.570313.1679685-6.359376 3.4218745-6.214844 5.1796875.136718 1.714844 4.46875 3.207031 4.417968 3.257813m-.539062-5.980469c-1.074219 1.195312-.386719 3.507812 1.394531 4.769531 2.085938 1.472656 5.460938 1.742188 6.132813.605469 1.253906-2.125-.113282-4.367188-2.15625-5.367188-2.019532-.988281-4.699219-.753906-5.371094-.007812zm0 0" fill="url(#c)"/><path d="m8.601562 7.230469c1.507813.210937 2.808594-.394531 3.011719-1.882813.15625-1.136718-1.582031-2.375-2.625-2.660156-.871093-.238281-2.761719.066406-2.890625 1.714844-.132812 1.714844 1.625 2.707031 2.503906 2.828125zm-.738281-2.851563c-.988281 1.535156 1.441407 2.007813 1.8125 1.726563 1.605469-1.207031-1.375-2.402344-1.8125-1.726563" fill="url(#d)"/><path d="m6.984375.464844c-1.753906.183594-2.089844.410156-3.675781 1.613281-.53125.402344-1.511719 1.378906-1.761719 2.542969-.097656.441406.015625.824218.335937 1.09375 1.019532.859375 2.730469 1.554687 4.128907 2.226562.414062.199219.140625.554688-.523438 1.128906-1.667969 1.445313-3.929687 3.207032-4.085937 4.550782-.074219.632812.140625 1.492187.910156 1.929687.894531.515625 2.757812.179688 4-.285156 1.816406-.675781 4.203125-2.167969 6.09375-3.632813 1.96875-1.527343 3.800781-3.464843 3.890625-3.78125.113281-.386718.101563-.746093-.113281-1.160156-.335938-.644531-.789063-1.125-1.269532-1.664062-1.300781-1.367188-2.671874-2.570313-4.316406-3.492188-1.1875-.667968-2.230468-1.214844-3.613281-1.070312m2.578125 3.066406c1.265625.613281 2.566406 2.222656-.011719 3.148438-.703125.25-2.925781-.617188-2.859375-1.804688.101563-1.753906 1.324219-2.089844 2.871094-1.34375" fill="url(#e)"/></svg>