<svg height="18" viewBox="0 0 18 18" width="18" xmlns="http://www.w3.org/2000/svg"><path d="m7.578125.0078125c-1.433594-.0195313-3.050781.5703125-4.351563 1.6015625-1.375 1.085937-2.328124 2.554687-2.457031 3.78125-.042969.402344.039063.820313.25 1.242187.140625.285157.28125.476563.53125.726563.460938.460937.953125.773437 2.34375 1.488281.507813.261719.675781.351563.675781.363282 0 .003906-.089843.078124-.195312.171874-1.101562.929688-2.078125 1.839844-2.582031 2.398438-.730469.808594-1.234375 1.664062-1.355469 2.292969-.027344.148437-.03125.75-.003906.988281.039062.378906.125.675781.289062.996094.199219.394531.394532.660156.695313.949218.617187.597657 1.316406.902344 2.242187.980469.160156.011719.761719-.007812.941406-.03125 1.0625-.140625 2.34375-.585937 3.769532-1.304687 2.84375-1.433594 6.1875-3.953125 8.125-6.121094.378906-.421875.746094-.917969.859375-1.152344.15625-.324218.230469-.722656.230469-1.242187 0-.464844-.058594-.808594-.199219-1.132813-.644531-1.492187-3.214844-3.960937-5.808594-5.574218-.628906-.390626-1.480469-.839844-1.9375-1.019532-.5625-.21875-1.117187-.3398435-1.777344-.3906248-.09375-.0039062-.1875-.0078124-.285156-.0117187zm-.050781.0429687c.230468 0 .457031.0078126.613281.0273438.734375.089844 1.339844.277344 2.027344.636719 1.699219.878906 3.9375 2.570312 5.417969 4.082031 1.027343 1.054687 1.628906 1.953125 1.691406 2.53125.0625.585937-.351563 1.390625-1.242188 2.40625-.238281.273437-1.023437 1.050781-1.355468 1.347656-2.414063 2.136719-5.519532 4.054688-8.070313 4.972657-.847656.304687-1.726563.511718-2.617187.613281-.261719.03125-.859376.046875-1.046876.023437-.359374-.039062-.613281-.109375-.878906-.242187-.34375-.167969-.609375-.402344-.832031-.734375-.242187-.363282-.40625-.773438-.492187-1.203125-.039063-.21875-.035157-.59375.007812-.828125.105469-.527344.378906-1.042969.878906-1.644532.554688-.667968 1.753906-1.78125 3.605469-3.355468l.222656-.1875-.058593-.03125c-.035157-.015625-.207032-.09375-.382813-.167969-1.632813-.695313-2.714844-1.332031-3.363281-1.976563-.289063-.289062-.472656-.566406-.558594-.847656-.101562-.320312-.039062-.832031.160156-1.335937.355469-.894531 1.167969-1.890625 2.140625-2.621094 1.070313-.808594 2.261719-1.296875 3.503907-1.4375.164062-.0195312.394531-.0273438.628906-.0273438zm-.214844.4062498c-.207031.007813-.410156.023438-.613281.050781-1.109375.132813-1.640625.328126-2.441407.878907-.292968.207031-1.007812.742187-1.167968.882812-.664063.574219-1.207032 1.332031-1.4375 2.003907-.144532.425781-.167969.714843-.078125.984374.089843.269532.265625.449219.765625.792969.597656.410157 1.28125.769531 2.902344 1.523438.84375.394531.921874.4375.957031.53125.042969.113281-.003907.25-.15625.4375-.148438.1875-.339844.359375-1.183594 1.082031-1.191406 1.019531-1.628906 1.417969-2.101563 1.898438-.816406.835937-1.238281 1.476562-1.335937 2.027343-.082031.453125.035156 1.027344.292969 1.421875.3125.488282.777344.75 1.453125.816406.898437.089844 2.242187-.160156 3.417969-.632812 2.113281-.855469 5.074218-2.785156 7.246093-4.722656 1.042969-.929688 2.203125-2.132813 2.425781-2.507813.0625-.113281.109376-.375.097657-.582031-.011719-.273438-.078125-.472656-.253907-.78125-.292968-.503906-.707031-1.019531-1.460937-1.800781-.972656-1.015625-2.054687-1.9375-3.078125-2.621094-.855469-.574219-1.980469-1.175781-2.648438-1.417969-.554687-.199218-1.03125-.28125-1.601562-.265625m.894531 2.699219c.140625.003906.28125.015625.421875.042969 1.113282.234375 2.128906.992187 2.371094 1.769531.054688.179688.054688.445312-.007812.609375-.023438.070313-.058594.140625-.09375.207031-.082032.136719-.335938.386719-.511719.503906-.308594.199219-.769531.402344-.988281.433594-.070313.007813-.144532.015625-.171876.015625-.714843-.035156-1.589843-.414062-2.089843-.902343-.335938-.328126-.472657-.632813-.449219-.996094.058594-.925782.453125-1.507813 1.128906-1.652344.101563-.023438.242188-.03125.390625-.03125m.152344 1.039062c-.210937.003907-.375.058594-.46875.167969-.054687.066407-.164063.285157-.203125.398438-.09375.289062-.054688.554687.121094.789062.046875.058594.109375.128907.144531.15625l.066406.050781.046875-.039062c.070313-.058594.152344-.078125.34375-.074219.175782 0 .320313.015625.484375.058594.371094.089844.644531.226563.722657.351563.027343.050781.035156.054687.066406.035156.019531-.007813.09375-.078125.171875-.15625.152343-.152344.242187-.308594.273437-.472656.0625-.351563-.261718-.761719-.8125-1.027344-.339844-.160156-.683594-.242188-.957031-.238282zm0 0" fill="#9991d9"/></svg>