<svg height="18" viewBox="0 0 18 18" width="18" xmlns="http://www.w3.org/2000/svg"><path d="m5.019531 7.613281c-.160156 0-.320312-.085937-.390625-.230469l-.117187-.234374-.042969.261718-.015625.117188c0 .476562.378906.851562.855469.851562.476562 0 .851562-.375.851562-.851562 0-.449219-.359375-.824219-.808594-.855469l-.246093-.011719.203125.15625c.101562.085938.171875.21875.171875.347656-.015625.246094-.214844.449219-.460938.449219m-.074219-1.9375c.722657 0 1.34375.492188 1.53125 1.140625.113282-.3125.304688-.589844.550782-.808594-2.355469-.144531-3.367188-2.242187-3.367188-2.242187l-.058594 2.648437c.292969-.460937.800782-.738281 1.34375-.738281zm3.730469 3.035157c.535157 0 .96875-.433594.96875-.96875 0-.519532-.40625-.953126-.925781-.96875l-.214844-.015626.171875.132813c.128907.101563.203125.257813.203125.433594 0 .300781-.246094.546875-.550781.546875-.203125 0-.390625-.113282-.492187-.289063l-.101563-.1875-.027344.21875-.015625.128907c.015625.519531.449219.96875.984375.96875zm9.296875 6.824218c-.058594-.199218-.113281-.394531-.175781-.59375-.359375-1.300781-.636719-2.3125-1.777344-2.210937-.171875.015625-.316406.070312-.449219.160156l-1.140624-.722656h-.042969l-.085938-.277344-.175781.117187c-.359375-.230468-.765625-.433593-1.171875-.621093 1.300781-1.546875 2.011719-4.28125 1.519531-8.746094-.042968-.390625-.261718-.449219-.40625-.03125-.113281.363281-.878906 2.648437-4.828125 3.28125.523438.335937.867188.914063.867188 1.578125.003906.496094-.195313.976562-.546875 1.328125-.355469.355469-.832032.550781-1.332032.550781-.878906 0-1.632812-.621094-1.820312-1.445312-.246094.578125-.808594.980468-1.476562.980468-.664063 0-1.226563-.402343-1.472657-.980468-.015625.027344-.027343.058594-.042969.070312-.015624-.027344-.042968-.054687-.058593-.101562-.78125-1.066406-2.023438-1.5-2.789063-.953125-.765625.566406-.753906 1.878906.027344 2.949219.652344.898437 1.621094 1.34375 2.371094 1.144531 2.183594 1.617187 6.21875 3.019531 8.921875 1.300781.53125.300781 1.140625.589844 1.703125.792969v.015625l.058594.171875.230468-.085938.03125.027344 1.269532.464844c.015624.40625.261718.851562.78125 1.054687.96875.375 1.894531.839844 1.894531.851563l.144531.074219zm-17.492187-7.53125c0-.464844.316406-.839844.691406-.839844.390625 0 .695313.375.695313.839844 0 .460938-.320313.835938-.695313.835938-.390625 0-.691406-.375-.691406-.835938zm5.289062 2.6875c2.644531.535156 4.003907.042969 4.785157-.578125-.203126-.273437-.5625-.5625-.5625-.5625s.925781.257813 1.257812.679688c.144531.1875.1875.34375.171875.503906-.460937-.15625-.808594-.257813-.882813-.289063-.289062-.128906-.5625-.042968-.632812.175782-.058594.15625-.015625.34375.128906.488281-.910156.421875-2.398437.246094-4.265625-.417969" fill="#716955"/></svg>