<svg height="18" viewBox="0 0 18 18" width="18" xmlns="http://www.w3.org/2000/svg"><path d="m17.542969 8.210938-7.753907-7.75c-.445312-.4492192-1.167968-.4492192-1.617187 0l-1.609375 1.609374 2.042969 2.039063c.476562-.160156 1.019531-.050781 1.398437.328125s.484375.925781.320313 1.402344l1.96875 1.96875c.476562-.164063 1.023437-.058594 1.40625.324218.53125.53125.53125 1.390626 0 1.921876s-1.394531.53125-1.925781 0c-.386719-.386719-.503907-.972657-.296876-1.480469l-1.832031-1.832031v4.828124c.132813.066407.253907.152344.359375.257813.53125.53125.53125 1.390625 0 1.921875s-1.394531.53125-1.925781 0-.53125-1.390625 0-1.921875c.128906-.128906.28125-.230469.445313-.296875v-4.875c-.164063-.066406-.316407-.167969-.445313-.296875-.402344-.402344-.5-.992187-.292969-1.488281l-2.011718-2.011719-5.3125 5.3125c-.4492192.449219-.4492192 1.171875 0 1.617187l7.75 7.753907c.445312.445312 1.167968.445312 1.617187 0l7.714844-7.714844c.445312-.449219.445312-1.171875 0-1.617187" fill="#f34f29"/></svg>