<svg height="18" viewBox="0 0 18 18" width="18" xmlns="http://www.w3.org/2000/svg"><path d="m9.421875 2.894531c-.226563.003907-.453125.0625-.65625.167969l-7.585937 4.003906c-.203126.109375-.382813.253906-.527344.433594-.238282.300781-.371094.671875-.371094 1.054688v.457031c0 .203125.027344.402343.082031.597656.082031.285156.222657.550781.414063.78125.191406.234375.429687.421875.699218.558594l4.714844 2.355469c-.042968.285156-.007812.578124.105469.84375.058594.140624.136719.269531.234375.386718.160156.195313.367188.347656.597656.445313.191406.082031.398438.125.609375.125.105469 0 .210938-.011719.3125-.035157.203125-.039062.390625-.117187.5625-.234374.25-.167969.445313-.40625.566407-.6875.058593-.140626.097656-.292969.113281-.449219.015625-.140625.007812-.285157-.015625-.429688l5.792968-3.054687c.105469.101562.222657.1875.355469.257812.273438.144532.582031.207032.890625.171875.152344-.015625.304688-.054687.449219-.113281.136719-.058594.269531-.136719.382813-.234375.195312-.160156.347656-.367187.449218-.597656.058594-.144531.097656-.292969.113282-.449219.019531-.210938 0-.421875-.0625-.625-.058594-.191406-.15625-.371094-.285157-.527344-.164062-.195312-.367187-.347656-.597656-.449218-.195313-.078126-.402344-.121094-.609375-.121094-.105469 0-.210938.011718-.316406.03125-.25.050781-.484375.164062-.679688.324218-.195312.164063-.347656.367188-.445312.597657-.082032.195312-.125.402343-.121094.609375-.003906.09375.007812.183594.023438.277344l-5.789063 3.054687c-.105469-.105469-.226563-.191406-.355469-.261719-.226562-.121094-.480468-.183594-.734375-.183594-.109375 0-.214843.011719-.320312.03125-.203125.042969-.394531.125-.5625.242188-.085938.058594-.164063.121094-.234375.195312l-4.644532-2.324218c-.332031-.164063-.578124-.460938-.683593-.820313-.03125-.117187-.050781-.242187-.050781-.363281 0-.074219.011718-.152344.03125-.222656.035156-.136719.101562-.265625.199218-.367188.070313-.078125.152344-.140625.246094-.1875s.191406-.078125.296875-.089844c.144531-.019531.289063 0 .421875.054688l4.636719 2.316406c.417969.210938.90625.203125 1.320312-.011718l7.378907-3.898438c.035156-.015625.0625-.035156.085937-.058594.046875-.046875.082031-.105468.097656-.167968.023438-.09375.007813-.195313-.039062-.277344-.019531-.027344-.039063-.054688-.0625-.078125-.027344-.023438-.054688-.042969-.085938-.058594l-5.683593-2.84375c-.207032-.101563-.433594-.152344-.664063-.148437zm6.734375 5.59375c.078125 0 .160156.015625.234375.046875.105469.046875.199219.121094.261719.21875.09375.136719.125.300782.09375.457032-.015625.078124-.046875.152343-.09375.214843-.0625.097657-.15625.171875-.261719.21875-.074219.03125-.15625.046875-.234375.046875-.082031 0-.160156-.015625-.234375-.046875-.109375-.046875-.199219-.121093-.265625-.21875-.136719-.203125-.136719-.46875 0-.671875.089844-.128906.222656-.21875.378906-.253906.039063-.007812.078125-.011719.121094-.011719m-8.417969 4.449219c.078125 0 .160157.019531.234375.050781.105469.042969.199219.121094.265625.214844.113281.167969.132813.382813.054688.570313-.046875.109374-.121094.199218-.21875.265624-.238281.160157-.558594.128907-.761719-.074218-.054688-.054688-.097656-.117188-.128906-.191406-.03125-.074219-.046875-.152344-.046875-.234376 0-.078124.015625-.160156.046875-.234374.03125-.070313.074218-.132813.128906-.1875.054688-.054688.121094-.101563.191406-.128907.074219-.035156.152344-.050781.234375-.050781" fill="#346ddb" fill-rule="evenodd"/></svg>