<svg height="18" viewBox="0 0 18 18" width="18" xmlns="http://www.w3.org/2000/svg" xmlns:xlink="http://www.w3.org/1999/xlink"><linearGradient id="a" gradientUnits="userSpaceOnUse" x1="13.042917" x2="13.042917" y1="7.9224" y2="15.514867"><stop offset="0" stop-color="#0196ca"/><stop offset="1" stop-color="#0065a9"/></linearGradient><linearGradient id="b" gradientUnits="userSpaceOnUse" x1="13.042917" x2="13.042917" y1="9.76638" y2="17.916953"><stop offset="0" stop-color="#01a7de"/><stop offset="1" stop-color="#007acc"/></linearGradient><linearGradient id="c" gradientUnits="userSpaceOnUse" x1="16.360296" x2="16.360296" y1="7.9224" y2="17.916953"><stop offset="0" stop-color="#2ec2f6"/><stop offset="1" stop-color="#1f9cf0"/></linearGradient><path d="m.0703125 9.011719c0-4.933594 3.9960935-8.9296878 8.9296875-8.9296878 4.164062 0 7.65625 2.8476568 8.648438 6.6992188h-3.382813c-.132813-.230469-.289063-.441406-.464844-.636719.089844-.222656.402344-1.140625-.089843-2.367187 0 0-.75-.246094-2.457032.914062-.714844-.199218-1.472656-.300781-2.230468-.300781-.761719 0-1.519532.101563-2.234376.300781-1.707031-1.148437-2.453124-.914062-2.453124-.914062-.492188 1.226562-.179688 2.144531-.089844 2.367187-.570313.625-.917969 1.429688-.917969 2.398438 0 2.398437 1.027344 3.492187 2.324219 4.011719v1.820312c-.492188-.039062-1.023438-.28125-1.429688-.964844-.167968-.265625-.667968-.925781-1.371094-.914062-.75.011718-.304687.421875.007813.589844.382813.214843.816406 1.003906.917969 1.261718.144531.40625.546875 1.109375 1.875 1.148438v1.796875c-3.273438-1.328125-5.5820315-4.527344-5.5820315-8.28125zm0 0" fill="#24292e"/><path d="m17.574219 8.980469-2.070313-.996094c-.238281-.113281-.527344-.066406-.714844.121094l-6.496093 5.621093c-.085938.078126-.136719.191407-.136719.308594 0 .117188.050781.230469.136719.308594l1.113281 1.0625c.148438.136719.371094.144531.535156.023438l5.753906-4.464844 1.359376-1.496094c.136718-.152344.292968-.332031.5-.3125.199218.019531.375.183594.375.414062v-.023437c0-.242187-.136719-.460937-.355469-.566406" fill="url(#a)"/><path d="m17.574219 16.859375-2.070313.996094c-.238281.113281-.527344.066406-.714844-.121094l-6.496093-6.179687c-.085938-.078126-.136719-.191407-.136719-.308594 0-.117188.050781-.230469.136719-.308594l1.113281-1.0625c.148438-.136719.371094-.144531.535156-.023438l5.753906 5.023438 1.359376 1.496094c.136718.152344.292968.332031.5.3125.199218-.023438.375-.183594.375-.414063v.023438c0 .242187-.136719.460937-.355469.566406zm0 0" fill="url(#b)"/><path d="m15.503906 17.855469c-.238281.113281-.527344.066406-.714844-.121094.234376.230469.90625.066406.90625-.261719v-9.105468c0-.328126-.671874-.492188-.90625-.261719.1875-.1875.476563-.234375.714844-.121094l2.070313.714844c.214843.105469.355469.328125.355469.566406v7.308594c0 .238281-.140626.460937-.355469.566406zm0 0" fill="url(#c)"/></svg>