<svg height="18" viewBox="0 0 18 18" width="18" xmlns="http://www.w3.org/2000/svg"><path d="m15.285156 9.054688c-.222656-.167969-.535156-.265626-.84375-.265626-.011718-.507812-.027344-1.011718-.027344-1.503906-.015624-1.335937-.015624-2.714844-.367187-4.023437.914063-.351563.875-1.066407.832031-1.292969-.097656-.535156-.5625-1.109375-1.265625-1.109375-.269531 0-.550781.082031-.816406.265625-1.070313-.898438-2.53125-1.0546875-4.007813-1.0546875-1.335937.1132815-2.265624.3242185-3.023437.6874995-.324219.15625-.589844.339844-.84375.550782-.253906-.15625-.519531-.238282-.773437-.238282-.71875 0-1.238282.574219-1.320313 1.136719-.085937.5625.222656 1.027344.84375 1.253907-.3125 1.25-.210937 2.542968-.101563 3.796874.042969.519532.085938 1.066407.101563 1.601563h-.070313c-.324218 0-.648437.097656-.886718.265625-.097656.070312-.296875.28125-.28125.464844 0 .058594.027344.128906.125.183594.027344.296874.210937.335937.324218.335937.226563 0 .476563-.152344.546876-.210937.070312-.039063.128906-.070313.171874-.082032l.070313-.027344c-.015625.308594-.042969.632813-.070313.984376-.128906 1.644531-.28125 3.515624.546876 4.863281.167968.269531.367187.507812.605468.71875l-.128906.082031c-.378906.269531-.941406.664062-.601562 1.195312v.015626c.054687.054687.082031.070312.125.070312h.015624c.039063.070312.125.226562.335938.226562.085938 0 .183594-.03125.28125-.085937.15625-.085937.296875-.195313.421875-.308594.210937-.183593.421875-.367187.703125-.410156l.085938-.011719.097656.042969c.898437.363281 1.8125.460937 2.433594.476563h.363281c1.082031 0 2.082031-.167969 2.882812-.492188.167969-.070312.339844-.15625.492188-.238281.167969.070312.324219.238281.480469.421875.195312.222656.390624.449218.632812.449218.109375 0 .222656-.054687.335938-.15625.167968-.097656.253906-.238281.253906-.40625 0-.367187-.410156-.800781-.730469-1.011718.28125-.28125.503906-.589844.6875-.941406.828125-1.660157.703125-3.6875.589844-5.484376l.070312.039063c.070313.058594.324219.210937.550781.210937.109376 0 .292969-.039062.320313-.335937.101563-.054687.113281-.125.128906-.183594 0-.183593-.199219-.394531-.296875-.464843m-2.402344-7.875c.238282-.152344.476563-.238282.730469-.238282.617188 0 1.082031.519532 1.167969 1.027344.082031.519531-.199219.957031-.761719 1.179688 0-.027344-.011719-.039063-.027343-.070313l-.085938-.292969-.039062-.113281-.128907-.335937c0-.015626 0-.015626-.011719-.03125 0 0 0-.011719-.015624-.011719-.054688-.097657-.097657-.199219-.15625-.28125l-.027344-.042969-.167969-.253906c-.015625-.011719-.027344-.027344-.042969-.054688-.054687-.070312-.113281-.140625-.183594-.210937-.011718-.027344-.039062-.042969-.070312-.070313l-.167969-.167968c.015625.011718 0-.015626-.011719-.03125m-9.183593 2.179687c-.5625-.210937-.859375-.632813-.773438-1.136719.082031-.519531.5625-1.054687 1.222657-1.054687.238281 0 .464843.070312.6875.195312l-.011719.015625-.042969.042969c-.070312.070313-.140625.140625-.195312.210937l-.042969.039063c-.070313.085937-.140625.171875-.210938.269531l-.027343.042969c-.070313.097656-.128907.179687-.183594.28125 0 0 0 .011719-.015625.011719-.054688.097656-.113281.210937-.152344.324218 0 .027344-.015625.054688-.015625.070313-.042969.113281-.097656.226563-.125.335937 0 .015626 0 .015626-.015625.03125l-.085937.28125zm-.128907 6.359375c-.039062.011719-.109374.039062-.195312.097656-.140625.097656-.335938.195313-.492188.195313-.085937 0-.195312-.027344-.226562-.238281.070312-.027344.140625-.054688.199219-.125.011719-.03125.011719-.058594-.015625-.070313-.027344-.015625-.054688-.015625-.070313.011719-.042969.042968-.082031.070312-.152343.085937h-.015626c-.042968-.027343-.070312-.058593-.085937-.097656.015625-.128906.15625-.296875.253906-.382813.226563-.167968.519531-.25.832031-.25h.082032v.40625l-.011719.140626c-.015625.195312-.03125.195312-.101563.226562m2.222657 7.3125.015625.011719c-.269532.070312-.480469.238281-.675782.410156-.125.109375-.253906.222656-.40625.292969-.085937.058594-.15625.070312-.226562.070312-.140625 0-.210938-.113281-.238281-.167968.011719-.113282.070312-.210938.140625-.308594.042968-.058594.082031-.128906.113281-.199219.011719-.027344 0-.054687-.03125-.070313-.027344-.011718-.054687 0-.070313.03125-.027343.054688-.070312.109376-.097656.179688-.054687.101562-.125.199219-.152344.3125h-.015624c-.015626 0-.027344-.015625-.054688-.042969-.28125-.449219.195312-.773437.589844-1.054687l.125-.085938h.027344l.03125.015625.167968.125.054688.042969c.058594.042969.113281.085938.183594.125l.070312.042969.183594.113281.082031.042969c.058594.042969.113281.070312.183594.113281m7.355469-.746094c.296874.195313.703124.617188.703124.941406 0 .113282-.054687.210938-.15625.28125-.011718-.042968-.027343-.085937-.054687-.125-.042969-.128906-.097656-.269531-.210937-.367187-.015626-.015625-.054688-.015625-.070313 0s-.015625.054687 0 .070313c.097656.085937.140625.210937.183594.335937l.054687.15625c-.082031.070313-.167968.113281-.253906.113281-.195312 0-.363281-.210937-.546875-.421875-.140625-.15625-.28125-.324219-.4375-.421875l.042969-.027344c.042968-.015624.070312-.042968.097656-.070312l.183594-.128906.113281-.082032.195313-.15625c.03125-.027343.058593-.054687.101562-.085937.027344.015625.039062 0 .054688-.011719m.660156-1.054687c-.167969.351562-.476563.800781-.996094 1.195312l-.03125.011719c-.039062.042969-.097656.070312-.152344.113281l-.15625.097657-.027344.015624-.226562.125-.097656.058594c-.757813.394532-1.800782.675782-3.261719.675782h-.367187c-1.136719-.042969-2.007813-.28125-2.65625-.59375h-.015626c-.152343-.070313-.292968-.152344-.433593-.238282-.648438-.40625-1-.855468-1.167969-1.125-.816406-1.320312-.675781-3.164062-.535156-4.792968.027344-.421876.070312-.804688.085937-1.183594l.011719-.253906.015625-.011719v-.015625l-.015625-.070313v-.378906c-.011719-.5625-.054688-1.082031-.097656-1.617187-.113282-1.265626-.210938-2.585938.128906-3.851563.027344-.113281.054688-.226563.097656-.324219v-.015625l.011719-.042969c.015625-.054687.042969-.109374.070313-.167968.015624-.042969.03125-.070313.042968-.097656l.042969-.113282.054687-.113281.042969-.082031c.015625-.042969.042969-.085938.058594-.113282.011719-.027343.027344-.054687.039063-.070312.03125-.054688.070312-.113281.101562-.15625.027344-.039062.054688-.082031.082031-.109375.015625-.03125.027344-.042969.058594-.070313l.082031-.113281c.015625-.015625.027344-.027343.042969-.058593l.125-.140626.015625-.011718.167969-.167969.027343-.03125c.984376-.84375 2.390626-1.09375 3.8125-1.207031.828126 0 1.898438.042968 2.8125.378906.449219.167969.84375.394531 1.179688.6875.042969.042969.085938.085938.128906.113281l.125.128907.140625.167968.085938.097656.140625.195313.070312.101563.125.210937.058594.109375c.039062.085938.070312.183594.097656.28125 0 .015625.011719.03125.011719.058594.03125.082031.058594.167968.085937.238281l.015626.042969c.421874 1.390625.433593 2.839844.433593 4.273437 0 .492188 0 1.042969.027344 1.464844v.082031c0 .128906.015625.253906.015625.351563v.015625l.015625.265625c0 .085937.011719.183593.011719.28125v.042969c.128906 1.773437.269531 3.8125-.5625 5.457031m1.574218-5.625c-.070312-.027344-.125-.042969-.167968-.097657-.011719-.03125-.042969-.03125-.070313-.015624-.027343.015624-.027343.042968-.011719.070312.054688.070312.125.097656.195313.125-.027344.210938-.140625.242188-.226563.242188-.152343 0-.351562-.101563-.492187-.199219-.054687-.042969-.097656-.054688-.140625-.070313l-.027344-.335937c0-.058594 0-.113281-.011718-.15625 0-.082031-.015626-.183594-.015626-.28125.296876.015625.578126.097656.789063.253906.097656.070313.25.253906.238281.367187.011719.039063-.015625.082032-.058594.097657m-4.457031-8.59375c-.535156 0-1.054687.226562-1.390625.578125-.308594.335937-.464844.757812-.4375 1.238281v.011719c.183594 1.011718 1.027344 1.378906 1.703125 1.378906.589844 0 1.136719-.253906 1.460938-.660156.28125-.351563.378906-.816406.253906-1.308594-.210937-.898438-.957031-1.238281-1.589844-1.238281m1.253907 2.460937c-.296876.378906-.832032.605469-1.394532.605469-.378906 0-.730468-.097656-1.011718-.296875-.308594-.222656-.507813-.546875-.578126-.96875-.027343-.449219.113282-.84375.410157-1.152344.324219-.351562.816406-.550781 1.320312-.550781.589844 0 1.292969.296875 1.492188 1.140625.113281.476562.027343.898438-.238281 1.222656m-3.796876-.773437c-.058593-1.027344-.875-1.488281-1.660156-1.488281-.578125 0-1.113281.238281-1.449218.632812-.296876.363281-.394532.828125-.296876 1.347656.226563.886719.984376 1.195313 1.617188 1.195313.535156 0 1.042969-.210938 1.378906-.5625.296875-.308594.4375-.703125.410156-1.125m-1.773437 1.589843c-.589844 0-1.308594-.296874-1.519531-1.125-.097656-.492187 0-.929687.28125-1.265624.308594-.378907.816406-.605469 1.363281-.605469 1.085937 0 1.519531.761719 1.5625 1.40625.027344.410156-.097656.773437-.367187 1.054687-.320313.339844-.8125.535156-1.320313.535156m-.757813-1.953124c-.269531 0-.492187.238281-.492187.53125 0 .296874.222656.535156.492187.535156.265626 0 .492188-.238282.492188-.535156 0-.292969-.226562-.53125-.492188-.53125m.222657.800781c-.070313 0-.113281-.058594-.113281-.140625 0-.070313.058593-.140625.113281-.140625.070312 0 .113281.054687.113281.140625 0 .070312-.054688.140625-.113281.140625m3.925781-.929688c-.269531 0-.492188.238281-.492188.535157 0 .296874.222657.535156.492188.535156.265625 0 .492188-.238282.492188-.535156 0-.296876-.210938-.535157-.492188-.535157m.222656.789063c-.070312 0-.113281-.058594-.113281-.140625 0-.070313.058594-.140625.113281-.140625.070313 0 .113282.054687.113282.140625 0 .082031-.042969.140625-.113282.140625m-.589844 1.265625c.015626-.042969.015626-.097657 0-.15625-.15625-.574219-1.460937-.492188-1.460937.183593 0-.054687-.015625-.085937-.015625-.113281 0 .042969.015625.085938.015625.113281-.210937.027344-.394531.167969-.507813.378907-.097656.199219-.113281.410156-.015624.589843.085937.15625.226562.242188.394531.242188-.054688.292969 0 .644531.140625.84375.070312.097656.167968.152344.253906.152344.125 0 .265625-.097656.394531-.253906.082031.140624.210938.242187.378907.269531h.027343c.027344-.015625.058594-.027344.085938-.027344.097656-.03125.195312-.070313.265625-.183594v-.015625c.042968-.195312.015625-.40625 0-.605468l-.011719-.167969c.070313.027343.140625.042969.210937.042969.140626 0 .25-.054688.351563-.167969.125-.140625.167969-.28125.140625-.421875-.015625-.324219-.339844-.5625-.648438-.703125m-.828124 1.855469c-.128907.15625-.242188.238281-.339844.238281-.070313 0-.125-.042969-.183594-.097657-.125-.167968-.179688-.519531-.125-.789062l.070312-.011719h.027344l.085938-.015625h.011718l.171876-.054687.082031-.027344c.015625 0 .015625 0 .027343-.015625.03125-.015625.042969-.015625.070313-.015625.03125-.011719.058594-.011719.101563-.027344h.027343l-.015625.183594c-.011718.183594-.027344.40625-.011718.632813m.730468-.464844c.011719.183594.027344.378906 0 .5625-.042968.085937-.113281.097656-.210937.140625l-.085938.027343c-.140625-.027343-.253906-.109374-.308593-.25-.027344-.210937-.015626-.421874.015624-.648437l.011719-.210937h.015625c.152344 0 .292969.070312.433594.125l.101562.042968c.011719.058594.027344.128906.027344.210938m.574219-.378906c-.082031.097656-.179687.140624-.28125.140624-.082031 0-.152344-.027343-.238281-.054687-.042969-.015625-.082032-.03125-.125-.058594-.15625-.054687-.308594-.125-.480469-.125h-.179687l-.058594.011719c-.011719 0-.027344 0-.042969.015625-.027344 0-.039063.015625-.070313.027344-.011718 0-.027343 0-.027343.015625l-.113281.042968c-.011719.011719-.039063.011719-.054688.011719l-.042969.015625-.042969.011719c-.027343.015625-.039062.015625-.070312.015625-.011719 0-.027344 0-.039062.015625l-.070313.011719h-.03125l-.082031.015625c-.140625 0-.238282-.058594-.308594-.183594-.085938-.140625-.085938-.324219.011719-.492187.097656-.167969.269531-.296876.4375-.324219.167969.351562 1.136719.308593 1.390625-.027344.28125.125.589844.351563.632812.589844.027344.097656-.011718.210937-.113281.324219m-1.953125-1.140626"/></svg>