<svg height="18" viewBox="0 0 18 18" width="18" xmlns="http://www.w3.org/2000/svg"><path d="m7.339844 1.351562c-.742188.164063-1.480469.394532-2.171875.742188.015625.613281.054687 1.195312.132812 1.789062-.265625.171876-.546875.320313-.800781.523438-.253906.195312-.511719.382812-.742188.613281-.46875-.3125-.953124-.59375-1.453124-.847656-.539063.585937-1.046876 1.214844-1.460938 1.917969.324219.511718.675781 1.023437.996094 1.421875v4.320312h.023437l2.648438.257813c.140625.011718.246093.125.257812.261718l.082031 1.171876 2.308594.164062.160156-1.078125c.019532-.140625.140626-.246094.28125-.246094h2.796876c.140624 0 .261718.105469.28125.246094l.160156 1.078125 2.308594-.164062.082031-1.171876c.011719-.136718.117187-.25.257812-.261718l2.648438-.253906c.007812-.003907.015625-.003907.023437-.003907v-4.320312c.371094-.46875.726563-.988281.996094-1.421875-.414062-.703125-.921875-1.332032-1.460938-1.917969-.5.253906-.984374.535156-1.453124.847656-.230469-.230469-.488282-.417969-.742188-.613281-.253906-.203125-.535156-.351562-.800781-.523438.078125-.59375.117187-1.175781.132812-1.789062-.691406-.347656-1.425781-.578125-2.171875-.742188-.300781.5-.570312 1.042969-.808594 1.570313-.28125-.046875-.5625-.0625-.847656-.066406h-.003906c-.003906 0-.003906 0-.003906 0-.285156.003906-.566406.019531-.847656.066406-.238282-.527344-.507813-1.070313-.808594-1.570313zm-2.09375 6.320313c.882812 0 1.59375.714844 1.59375 1.59375 0 .882813-.710938 1.597656-1.59375 1.597656-.882813 0-1.597656-.714843-1.597656-1.597656 0-.878906.714843-1.59375 1.597656-1.59375zm7.507812 0c.882813 0 1.597656.714844 1.597656 1.59375 0 .882813-.714843 1.597656-1.597656 1.597656-.882812 0-1.59375-.714843-1.59375-1.597656 0-.878906.710938-1.59375 1.59375-1.59375zm-3.753906.933594c.285156 0 .515625.207031.515625.464843v1.46875c0 .257813-.230469.46875-.515625.46875s-.511719-.210937-.511719-.46875v-1.46875c0-.257812.226563-.464843.511719-.464843zm0 0"/><path d="m13.78125 12.632812-.082031 1.175782c-.007813.140625-.121094.253906-.261719.265625l-2.824219.199219c-.003906.003906-.011719.003906-.019531.003906-.140625 0-.261719-.105469-.28125-.246094l-.160156-1.097656h-2.304688l-.160156 1.097656c-.023438.148438-.152344.253906-.300781.242188l-2.824219-.199219c-.140625-.011719-.253906-.125-.261719-.265625l-.082031-1.175782-2.382812-.230468c0 .257812.003906.539062.003906.59375 0 2.515625 3.191406 3.722656 7.15625 3.738281h.007812c3.964844-.015625 7.15625-1.222656 7.15625-3.738281 0-.054688 0-.335938.003906-.59375zm0 0" fill="#010102"/><path d="m6.457031 9.359375c0 .585937-.472656 1.0625-1.058593 1.0625-.585938 0-1.058594-.476563-1.058594-1.0625 0-.582031.472656-1.058594 1.058594-1.058594.585937 0 1.058593.476563 1.058593 1.058594m5.085938 0c0 .585937.472656 1.0625 1.058593 1.0625.585938 0 1.058594-.476563 1.058594-1.0625 0-.582031-.472656-1.058594-1.058594-1.058594-.585937 0-1.058593.476563-1.058593 1.058594"/></svg>