<svg height="18" viewBox="0 0 18 18" width="18" xmlns="http://www.w3.org/2000/svg"><path d="m6.269531.59375c-3.691406 1.277344-6.117187 4.820312-5.976562 8.722656.140625 3.90625 2.8125 7.265625 6.585937 8.277344 1.492188.382812 3.050782.402344 4.550782.050781 1.359374-.304687 2.613281-.957031 3.640624-1.894531 1.074219-1.003906 1.851563-2.28125 2.25-3.691406.4375-1.539063.515626-3.152344.226563-4.722656h-8.367187v3.472656h4.847656c-.195313 1.117187-.839844 2.109375-1.78125 2.742187-.59375.394531-1.257813.65625-1.960938.773438-.699218.132812-1.421875.132812-2.121094 0-.710937-.144531-1.386718-.4375-1.976562-.859375-.949219-.675782-1.664062-1.628906-2.039062-2.730469-.382813-1.125-.382813-2.34375 0-3.464844.265624-.789062.707031-1.503906 1.289062-2.097656 1.363281-1.40625 3.394531-1.9375 5.269531-1.375.71875.21875 1.375.605469 1.917969 1.125.546875-.542969 1.089844-1.089844 1.636719-1.636719.28125-.292968.585937-.574218.863281-.875-.828125-.769531-1.800781-1.371094-2.863281-1.765625-1.933594-.6992185-4.046875-.7187498-5.992188-.050781" fill="#587dbd"/></svg>