<svg height="18" viewBox="0 0 18 18" width="18" xmlns="http://www.w3.org/2000/svg"><path d="m14.613281 2.417969c-.582031.082031-1.125.339843-1.558593.742187-.054688.050782-.085938.121094-.085938.195313s.027344.144531.082031.199219l.355469.367187c.09375.09375.246094.105469.355469.023437.28125-.210937.625-.328124.976562-.324218.664063-.003906 1.261719.394531 1.515625 1.007812.253906.609375.113282 1.3125-.355468 1.78125-2.265626 2.265625-5.289063-4.082031-12.152344-.816406-.234375.113281-.414063.316406-.492188.5625-.082031.25-.050781.519531.078125.746094l1.175781 2.035156c.253907.441406.816407.59375 1.261719.347656l.027344-.015625-.023437.015625.523437-.292968c.582031-.363282 1.128906-.773438 1.640625-1.226563.109375-.09375.269531-.09375.375 0 .066406.050781.101562.125.105469.207031 0 .078125-.03125.15625-.089844.207032-.539063.480468-1.117187.910156-1.734375 1.285156h-.015625l-.519531.292968c-.222656.121094-.472656.1875-.726563.1875-.53125 0-1.023437-.28125-1.292969-.742187l-1.113281-1.921875c-2.136719 1.507812-3.433593 4.414062-2.738281 8.105469.027344.128906.136719.21875.269531.21875h1.265625c.136719 0 .253906-.101563.269532-.234375.117187-.929688.90625-1.625 1.839843-1.625.9375 0 1.726563.695312 1.84375 1.625.015625.132812.132813.234375.269531.234375h1.234376c.136718 0 .25-.101563.269531-.234375.117187-.925782.90625-1.621094 1.839843-1.621094.933594 0 1.722657.695312 1.84375 1.621094.015626.132812.132813.234375.269532.234375h1.21875c.148437.003906.269531-.117188.269531-.265625.03125-1.71875.492187-3.691406 1.816406-4.683594 4.578125-3.421875 3.375-6.359375 2.316407-7.425781-.632813-.632813-1.523438-.933594-2.410157-.8125m-2.703125 5.015625c.253906-.054688.511719.074218.617188.3125.109375.234375.035156.515625-.175782.667968v-.003906l-.875-.4375c0-.257812.179688-.484375.433594-.539062" fill="#02303a"/></svg>