<svg height="18" viewBox="0 0 18 18" width="18" xmlns="http://www.w3.org/2000/svg"><path d="m9.726562 0c-1.394531.898438-1.65625 2.089844-1.65625 2.089844s0 .03125-.015624.058594c-.085938.015624-.144532.042968-.214844.058593-.101563.027344-.203125.058594-.304688.117188l-.304687.128906c-.203125.101563-.40625.1875-.609375.304687-.191406.117188-.378906.21875-.566406.347657-.015626-.007813-.03125-.015625-.046876-.027344-1.871093-.726563-3.527343.144531-3.527343.144531-.144531 2.003906.757812 3.238282.929687 3.46875-.042968.132813-.085937.246094-.128906.363282-.148438.453124-.25.921874-.304688 1.394531-.015624.058593-.015624.144531-.03125.203125-1.726562.855468-2.234374 2.613281-2.234374 2.613281 1.4375 1.652344 3.121093 1.753906 3.121093 1.753906.203125.378907.464844.757813.742188 1.089844.113281.144531.246093.277344.363281.421875-.523438 1.496094.085938 2.757812.085938 2.757812 1.609374.058594 2.671874-.699218 2.886718-.886718.160156.042968.320313.101562.480469.144531.488281.128906.988281.203125 1.496094.21875h.652343c.753907 1.089844 2.089844 1.234375 2.089844 1.234375.945313-1 1-1.972656 1-2.207031v-.085938c.191406-.144531.378906-.289062.582032-.449219.378906-.335937.699218-.742187.988281-1.148437.027343-.027344.042969-.085937.085937-.117187 1.074219.058593 1.816406-.667969 1.816406-.667969-.175781-1.117188-.8125-1.652344-.945312-1.753907l-.015625-.015624-.011719-.015626-.015625-.011718c0-.058594.015625-.132813.015625-.203125.011719-.132813.011719-.25.011719-.363281v-.480469c0-.027344 0-.058594-.011719-.101563l-.03125-.203125c-.015625-.128906-.042968-.246093-.058594-.363281-.113281-.476562-.304687-.941406-.535156-1.335938-.261718-.421874-.566406-.769531-.914062-1.089843-.347656-.304688-.742188-.5625-1.148438-.738281-.421875-.1875-.828125-.304688-1.261718-.347657-.203126-.03125-.4375-.03125-.640626-.03125h-.332031c-.117187.015625-.21875.03125-.320312.042969-.433594.089844-.828125.25-1.175781.453125-.347657.203125-.652344.476563-.914063.78125s-.449219.625-.582031.972656c-.128906.335938-.203125.6875-.214844 1.046875v.378906c0 .042969 0 .085938.011719.128907.015625.175781.046875.332031.101562.492187.101563.320313.25.609375.4375.859375.179688.234375.394531.441407.636719.609375.25.160156.480469.273438.742188.347656.261718.070313.492187.117188.726562.101563h.332031c.03125 0 .058594-.015625.085938-.015625.03125 0 .046875-.015625.089843-.015625.042969-.011719.113282-.027344.160157-.042969.101562-.027344.1875-.085937.289062-.113281.101563-.046875.175781-.101563.246094-.148437.015625-.011719.042969-.027344.058594-.042969.085937-.058594.101562-.171875.027343-.261719-.054687-.058594-.15625-.085938-.246093-.042969-.015625.015625-.027344.015625-.058594.03125-.054687.027344-.144531.058594-.203125.085938-.085938.015625-.160156.042969-.246094.058593-.042968 0-.085937.015626-.128906.015626h-.363281c-.015625 0-.042969 0-.058594-.015626-.175781-.03125-.363281-.085937-.539063-.160156-.171874-.085937-.347656-.1875-.492187-.335937-.15625-.140625-.292969-.308594-.40625-.492188-.117187-.1875-.175781-.40625-.203125-.609375-.015625-.117187-.027344-.21875-.015625-.332031v-.175781c0-.058594.015625-.117188.03125-.175782.085937-.476562.320313-.941406.679687-1.289062.101563-.101562.191407-.175781.304688-.246094.117188-.089844.21875-.148437.335938-.191406.117187-.042969.246093-.101562.363281-.128906.128906-.03125.261719-.058594.375-.058594.058593 0 .132812-.015625.191406-.015625h.171875c.148438.015625.292969.03125.421875.058594.277344.058593.539063.160156.800781.304687.507813.289063.941406.726563 1.203125 1.25.128907.261719.21875.535156.277344.839844.011719.089844.011719.144531.027344.21875v.390625c0 .089844-.015625.160156-.015625.246094-.011719.089843-.011719.160156-.027344.25-.015625.085937-.03125.15625-.042969.246093-.03125.160157-.101562.304688-.144531.464844-.117188.304688-.277344.59375-.464844.839844-.378906.523438-.914062.960938-1.496094 1.234375-.304687.132813-.609374.246094-.929687.289063-.15625.03125-.320313.046874-.480469.046874h-.246094c-.085937 0-.171874 0-.261718-.015624-.347656-.03125-.679688-.101563-1.015625-.1875-.332031-.105469-.652344-.21875-.957031-.378907-.609376-.320312-1.148438-.785156-1.582032-1.308593-.203125-.273438-.40625-.5625-.566406-.855469-.160156-.289063-.277344-.625-.363281-.941407-.101563-.320312-.144531-.65625-.160157-.988281v-.507812c0-.160157.015626-.335938.042969-.507813.015625-.175781.042969-.335937.089844-.507812.027344-.175782.085937-.335938.128906-.507813.101563-.335937.203125-.652343.347657-.960937.292968-.609375.652343-1.144532 1.089843-1.582032.109375-.109374.226563-.210937.347657-.304687.042968-.042969.160156-.144531.289062-.214844.132812-.074219.261719-.160156.410156-.21875.054688-.03125.128906-.058593.203125-.101562.027344-.015625.054688-.03125.113281-.042969.03125-.015625.058594-.03125.117188-.042969.144531-.058593.289062-.117187.433594-.160156.03125-.015625.089844-.015625.117187-.03125.03125-.011719.085938-.011719.117188-.027344.085937-.015625.144531-.03125.21875-.058593.027343-.015626.085937-.015626.113281-.03125.03125 0 .089844-.011719.117188-.011719.03125 0 .085937-.015625.117187-.015625l.058594-.015625.058593-.011719c.027344 0 .085938-.015625.113282-.015625.042968 0 .089844-.015625.132812-.015625.027344 0 .101563-.011719.128906-.011719.03125 0 .042969 0 .089844-.015625h.101563c.042969 0 .085937 0 .128906-.015625h.652344c.292969.015625.582031.042969.84375.101563.535156.101562 1.074219.277344 1.539062.507812.464844.21875.898438.507813 1.246094.8125.015625.015625.042969.03125.058594.058594.015625.015625.042969.03125.058593.058594.042969.027344.085938.085937.128907.117187.046875.027344.089843.085938.132812.113281.027344.046876.085938.089844.117188.132813.15625.160156.304687.332031.433593.492187.242188.308594.449219.640626.625.988282.015626.015625.015626.027344.027344.058594.015625.015624.015625.027343.03125.058593.011719.027344.027344.085938.058594.113281.011719.03125.027344.089844.042969.117188.011719.03125.027343.085938.042969.117188.058593.144531.117187.289062.160156.433593.085937.21875.128906.421875.171875.582031.015625.058594.089843.117188.148437.117188.085938 0 .128906-.058594.128906-.144531-.042968-.25-.042968-.453125-.058593-.699219-.027344-.304688-.085938-.652344-.171875-1.042969-.089844-.394531-.261719-.800781-.464844-1.25-.21875-.433593-.496094-.898437-.859375-1.320312-.144531-.175781-.304687-.335938-.464844-.507813.261719-1.003906-.304687-1.886718-.304687-1.886718-.972656-.058594-1.582032.304687-1.796875.464843-.03125-.015625-.089844-.03125-.117188-.046875-.160156-.054687-.335937-.128906-.507812-.1875-.175781-.042968-.347657-.117187-.523438-.144531-.175781-.042969-.363281-.085937-.566406-.117187-.027344 0-.058594-.011719-.101563-.011719-.40625-1.335938-1.625-1.917969-1.625-1.917969" fill="#f7a525"/></svg>