<svg height="18" viewBox="0 0 18 18" width="18" xmlns="http://www.w3.org/2000/svg"><path d="m9.71875 0-.03125.0195312c-1.402344.9062498-1.671875 2.1171878-1.671875 2.1171878l-.003906.007812v.007813c-.066407.015625-.125.035156-.171875.046875h-.007813c-.097656.03125-.207031.058593-.316406.121093h.007813l-.304688.128907c-.199219.101562-.402344.1875-.609375.304687h-.003906c-.167969.105469-.34375.203125-.523438.324219l-.003906-.007813-.015625-.003906c-1.886719-.730468-3.554688.148438-3.554688.148438l-.03125.015625-.003906.039062c-.144531 1.964844.710938 3.183594.914063 3.453125-.039063.109375-.078125.21875-.121094.328125v.003907c-.144531.449218-.246094.917968-.300781 1.386718-.015625.0625-.019532.128906-.027344.175782-1.710938.867187-2.21875 2.613281-2.21875 2.613281l-.011719.035156.027344.027344c1.394531 1.609375 3.003906 1.753906 3.105469 1.761719.207031.375.449218.730468.71875 1.058593.113281.140625.230468.261719.339844.390625-.503907 1.492188.097656 2.746094.097656 2.746094l.019531.039062.042969.003907c1.578125.054687 2.613281-.652344 2.878906-.871094.144531.039063.292969.089844.445312.132813.488282.128906.992188.203124 1.496094.21875h.617188c.773437 1.078124 2.097656 1.222656 2.097656 1.222656l.035156.003906.023438-.023438c.949218-1.011718 1.011718-1.996093 1.011718-2.238281v-.050781c.179688-.136719.359376-.273438.550782-.425781l.003906-.003907c.378906-.335937.699219-.742187.988281-1.148437l-.007812.007813c.027343-.023438.039062-.050782.046875-.070313.007812-.011719.015625-.019531.023437-.027344 1.074219.039063 1.8125-.675781 1.8125-.675781l.027344-.027344-.003906-.035156c-.175781-1.121094-.8125-1.667969-.957031-1.78125l-.015626-.011719-.003906-.007812c0-.042969.011719-.101563.011719-.167969.015625-.132812.015625-.25.015625-.367188v-.472656c0-.042968-.007812-.085937-.019531-.125l.003906.011719-.015625-.097656-.015625-.101563c-.015625-.136718-.042969-.25-.054687-.359375v-.003906l-.003907-.003906c-.117187-.480469-.304687-.949219-.539062-1.34375-.261719-.425781-.570313-.773438-.917969-1.09375h-.003906v-.003907c-.347656-.304687-.742188-.566406-1.152344-.742187-.421875-.191406-.832031-.308594-1.273438-.351563-.207031-.03125-.441406-.03125-.640624-.03125h-.339844c-.117188.015626-.21875.03125-.316406.046876h-.003907c-.441406.085937-.835937.25-1.1875.453124-.355469.207032-.664062.484376-.925781.792969-.265625.308594-.457031.632813-.589844.984375-.128906.335938-.203125.695313-.21875 1.058594v.375c0 .042969 0 .097656.015625.152344.015625.171875.046875.332031.101563.492187.105468.320313.25.617188.445312.867188.179688.238281.398438.449219.648438.621093.25.160157.488281.28125.753906.355469.261719.070313.5.117188.742188.101563h.328124c.050782 0 .078126-.015625.085938-.015625.027344 0 .046875-.003907.054688-.007813.011718-.003906.015624-.003906.03125-.003906h.011718l.011719-.003906c.03125-.011719.101563-.027344.152344-.042969.117187-.03125.203125-.089844.289062-.117187h.007813c.109375-.046876.1875-.109376.253906-.148438l.007812-.003906.007813-.007813c-.003906 0 .003906-.003906.015625-.011719.011719-.007812.019531-.015624.03125-.023437.117188-.078125.136719-.246094.042969-.359375l-.003907-.003906v-.003906c-.078124-.078126-.210937-.113282-.328124-.054688l-.007813.003906-.007813.007813s.003907 0 0 0c-.007812.003906-.023437.007812-.039062.015625-.046875.023437-.128906.050781-.191406.082031-.089844.019531-.160156.042969-.238282.058594l.011719-.003907c-.058593 0-.101562.015626-.128906.015626h-.359375c-.015625 0-.027344-.011719-.007812.007812l-.015626-.015625-.023437-.003906c-.164063-.027344-.34375-.085938-.511719-.15625-.171875-.082031-.335937-.179688-.472656-.316407-.152344-.140624-.285156-.300781-.390625-.476562-.109375-.175781-.164063-.378906-.191406-.574219-.015625-.117187-.027344-.210937-.015625-.316406v-.179687c0-.046876.011718-.097657.027344-.15625v-.003907c.085937-.460937.308593-.910156.65625-1.242187l.003906-.003906c.097656-.097657.175781-.164063.289062-.234376l.003906-.003906c.113282-.082031.203126-.136718.3125-.175781.117188-.042969.246094-.101563.351563-.125.128906-.03125.253906-.058594.359375-.058594.070312 0 .140625-.011719.1875-.011719h.167969c.140625.011719.28125.027344.40625.054688.265625.054688.519531.152344.773437.292969.492188.28125.914063.707031 1.164063 1.210937.128906.25.210937.515625.269531.8125.011719.078125.011719.136719.027344.210938v.382812c0 .074219-.011719.148438-.015625.234375-.015625.09375-.015625.164063-.027344.242188-.015625.085937-.027344.160156-.042969.246093-.027344.144532-.09375.285157-.140625.449219-.113281.292969-.269531.578125-.449219.816407h-.003906c-.363281.507812-.890625.933593-1.453125 1.203124-.300781.128907-.597656.238282-.902343.28125h-.003907c-.152343.027344-.304687.042969-.460937.042969h-.246094c-.085938 0-.167969 0-.246094-.015625h-.007812c-.335938-.027344-.664063-.097656-.992188-.183594-.328125-.101562-.640625-.214843-.9375-.371093-.59375-.308594-1.121094-.765625-1.546875-1.277344-.199219-.269531-.398437-.554687-.554687-.835937-.152344-.28125-.265625-.609376-.351563-.921876l-.003906-.003906c-.097656-.308594-.140625-.632812-.152344-.960937v-.5c0-.152344.011719-.324219.042969-.492188v-.003906c.011719-.167969.039062-.324219.082031-.492187l.003907-.003907v-.003906c.027343-.164063.082031-.320313.125-.492187.101562-.332032.203124-.644532.34375-.941407.285156-.597656.640624-1.125 1.066406-1.550781.113281-.113281.210937-.195312.335937-.296875h.003907l.003906-.003906c.082031-.078125.171875-.148438.273437-.207031.132813-.070313.257813-.15625.394531-.210938h.003907c.054687-.027344.125-.058594.203125-.101562.027344-.015626.046875-.027344.101562-.039063h.007813l.003906-.003906c.03125-.015625.050781-.027344.101563-.039063h.003906l.003906-.003906c.144531-.054688.289062-.113281.429688-.15625h.003906l.003906-.003906s.019531-.003906.039062-.007813c.023438-.003906.046876-.003906.078126-.019531-.003907 0 .015624-.003906.039062-.007812.019531-.003907.042969-.007813.074219-.023438l-.019531.007812c.089843-.015624.15625-.03125.230468-.0625h.003906s.019532-.007812.039063-.007812c.015625-.003906.035156-.011719.054687-.015625.019532 0 .042969-.003906.0625-.007813.019532-.003906.042969-.003906.046876-.003906.023437 0 .046874-.007812.066406-.011718.023437-.003907.042968-.003907.046875-.003907h.007812l.066407-.015625.054687-.015625c.019531 0 .039063-.003906.054687-.007812.023438-.003907.042969-.003907.046876-.003907.058593 0 .101562-.015624.128906-.015624s.050781-.003907.074218-.007813c.027344-.003906.050782-.007813.054688-.007813.023438 0 .054688-.003906.085938-.011718h.101562c.042969 0 .097656 0 .152344-.019532l-.023438.003907h.644532c.285156.015625.570312.042969.824218.097656l.003906.003906c.523438.097657 1.050782.269531 1.503907.496094h.003906c.453125.214844.878906.496094 1.21875.796875v-.003906c.03125.03125.042969.035156.042969.039062l.003906.011719.007812.007813c.03125.03125.042969.035156.046876.039062l.007812.015625.015625.011719c.023437.015625.066406.074218.128906.113281.023438.015625.066407.066406.121094.105469.039063.054687.089844.097656.105469.121094l.007812.007812c.15625.15625.296875.328125.425782.484375.234374.300781.441406.625.613281.96875l.003906.007813.007813.007812s-.003907-.003906 0 0c0 .007812.007812.023438.015624.039062l.003907.011719.007812.007813s-.003906-.003906 0 0c.003907.007812.007813.019531.015625.039062.003906.007813.011719.027344.023438.054688.007812.023437.023437.050781.046875.078125l-.011719-.015625c.003906.003906.011719.027344.019531.046875.003907.023437.011719.042969.023438.066406.003906.007813.011719.027344.019531.050781.007812.019532.011719.042969.023438.066406v-.007812c.054687.144531.113281.285156.15625.425781v.007813c.082031.207031.125.40625.171874.566406.011719.050781.042969.085938.078126.117188.035156.027343.078124.050781.132812.050781.058594 0 .113281-.023438.148438-.066407.035156-.039062.050781-.09375.050781-.148437v-.003906l-.003907-.007813c-.039062-.238281-.039062-.4375-.054687-.683594-.03125-.308593-.085937-.65625-.175781-1.046874-.085938-.398438-.261719-.804688-.464844-1.25v-.003907c-.21875-.433593-.492188-.898437-.859375-1.324219-.140625-.167968-.292969-.320312-.441406-.484374.238281-1.007813-.316407-1.882813-.316407-1.882813l-.019531-.027344-.035156-.003906c-.953125-.058594-1.550781.285156-1.789063.453125-.011718-.003906-.023437-.007812-.035156-.011719-.015625-.003906-.03125-.011719-.046875-.015625l-.003906-.003906h-.003906c-.15625-.058594-.328125-.128906-.503907-.1875h-.007812c-.164062-.042969-.335938-.113281-.515625-.144531h-.003906c-.171875-.046875-.363281-.089844-.566407-.117188h-.007812c-.019531-.003906-.035156-.003906-.050781-.007812-.425781-1.324219-1.632813-1.902344-1.632813-1.902344zm.011719.164062c.097656.046876 1.164062.601563 1.539062 1.835938l.015625.050781h.050782c.027343 0 .046874.011719.101562.011719h-.011719c.199219.027344.382813.070312.554688.113281h.003906v.003907c.160156.023437.332031.09375.507813.140624.171874.054688.34375.128907.503906.1875l-.007813-.003906c.023438.011719.046875.015625.066407.023438.023437.007812.042968.015625.050781.019531l.035156.019531.035156-.027344c.203125-.148437.78125-.488281 1.699219-.445312.03125.050781.523438.851562.277344 1.78125l-.007813.039062.027344.027344c.15625.175782.316406.332032.457031.5.355469.414063.625.867188.839844 1.296875.199219.445313.371094.84375.457031 1.222657.085938.386718.140625.730468.167969 1.027343.015625.238281.015625.441407.058594.683594 0 .03125-.007813.050781-.015625.058594-.007813.011719-.015625.015625-.042969.015625-.007812 0-.027344-.007813-.046875-.019532-.015625-.015624-.027344-.035156-.03125-.042968-.042969-.15625-.085937-.359375-.175781-.582032-.042969-.144531-.101563-.289062-.15625-.433593v-.003907h-.003906c-.007813-.015624-.011719-.035156-.015626-.050781-.007812-.019531-.015624-.042969-.027343-.066406-.007813-.015625-.011719-.03125-.019531-.046875-.003907-.023438-.011719-.046875-.023438-.066406l-.003906-.011719-.007813-.007813c-.007812-.011718-.015625-.023437-.019531-.035156-.007812-.019531-.015625-.039062-.027344-.0625-.003906-.007812-.007812-.015625-.011718-.027344-.007813-.019531-.015626-.035156-.027344-.046874l.011718.019531c-.003906-.011719-.007812-.019531-.011718-.03125-.007813-.015625-.015625-.03125-.03125-.046875l.015625.019531c-.175781-.351563-.386719-.683594-.628907-.992187-.128906-.160157-.277343-.335938-.4375-.496094l.007813.011718c-.039063-.0625-.097656-.105468-.113281-.128906l-.007813-.011718-.011719-.007813c-.023437-.015625-.070312-.074219-.128906-.117187-.027344-.015626-.070312-.074219-.128906-.113282l.023438.027344c-.027344-.054688-.074219-.078125-.070313-.078125l.011719.019531c-.027344-.054687-.074219-.078125-.070313-.074218l-.003906-.003907c-.351563-.308593-.785156-.597656-1.253906-.816406-.464844-.234375-1.003907-.40625-1.539063-.507813-.265625-.0625-.558594-.089843-.847656-.105468h-.664062l-.007813.003906c-.03125.011719-.066406.011719-.109375.011719h-.113281l-.007813.003906c-.039062.011719-.035156.011719-.066406.011719-.023438 0-.046875.003906-.074219.007812-.023437.003906-.050781.003906-.054687.003906-.058594 0-.101563.015626-.128906.015626-.027344 0-.046876.003906-.070313.007812-.015625.003906-.03125.003906-.046875.007812h-.007812l-.066407.015626-.054687.015624c-.019532 0-.035156 0-.054688.003907-.015625.003906-.027344.003906-.042968.007812-.027344 0-.050782.003907-.070313.007813-.015625.003906-.03125.003906-.046875.003906h-.015625l-.015625.007812c.003906 0-.015625.003907-.039062.007813-.019532.003906-.042969.007813-.074219.023437l.003906-.003906c-.066406.027344-.117187.039063-.203125.054688h-.007812l-.011719.003906c.003906 0-.015625.007812-.035157.007812-.023437.003907-.046874.007813-.078124.023438 0 0-.015626.003906-.039063.007812-.019531.003907-.046875.003907-.078125.019532l.011719-.003906c-.148438.042968-.292969.101562-.4375.160156l.007812-.003906c-.042969.011718-.085937.027343-.128906.050781-.039063.011719-.078125.023437-.113281.042969h-.003906c-.066407.039062-.132813.066406-.191407.097656-.152343.0625-.285156.148437-.414062.21875-.109375.0625-.210938.140625-.300781.230468-.121094.089844-.238282.191407-.347657.300782-.4375.4375-.800781.976562-1.09375 1.585937-.144531.308594-.246093.628907-.347656.960938v.003906c-.042969.167969-.097656.324219-.128906.503906-.042969.175781-.074219.335938-.089844.515625-.027344.167969-.042969.335938-.042969.507813v.507812c.015625.332031.058594.671875.160156.992188v.003906c.089844.316406.203126.652344.367188.949219.160156.292968.363281.582031.566406.855468v.003907h.003906c.433594.523437.972657.992187 1.589844 1.3125.304688.160156.625.277343.960938.378906h.003906c.332031.085937.664062.160156 1.015625.191406.09375.011719.179687.011719.265625.011719h.246094c.164062 0 .324218-.011719.484375-.042969.328125-.042969.636719-.160156.9375-.292969h.003906c.585937-.277343 1.125-.714843 1.507813-1.242187v-.003906c.191406-.25.351562-.542969.46875-.851563l.003906-.003906c.039062-.152344.113281-.296875.144531-.46875.015625-.085938.03125-.15625.042969-.246094.015625-.089844.015625-.164062.03125-.242187v-.011719c0-.078125.015625-.152344.015625-.246094v-.394531l-.003907-.007813c-.011718-.066406-.011718-.121093-.027343-.214843-.058594-.308594-.148438-.585938-.28125-.851563-.265625-.53125-.707031-.972656-1.222657-1.269531-.261718-.144531-.527343-.25-.808593-.308594-.136719-.03125-.28125-.042969-.425781-.058593h-.179688c-.070312 0-.140625.011718-.1875.011718-.128906 0-.261719.03125-.390625.0625-.125.03125-.257813.089844-.367187.132813-.121094.042969-.230469.105469-.347657.191406-.117187.074219-.207031.152344-.3125.253906-.367187.355469-.605469.828125-.695312 1.316407-.011719.058593-.03125.117187-.03125.1875v.171874l.003906-.007812c-.015625.125 0 .234375.011719.347656.03125.210938.089844.433594.210937.632813.113281.1875.253907.355469.414063.503906.152344.152344.332031.253906.507812.34375h.003906c.179688.074219.367188.132813.546876.164063l-.035157-.019532c.046875.046875.09375.035156.105469.035156h.359375c.058594 0 .101563-.015624.128906-.015624h.011719c.097656-.015626.167969-.046876.246094-.058594h.011718l.007813-.007813c.050781-.023437.136719-.050781.203125-.085937.007812-.003906.015625-.007813.027344-.011719.015625-.007813.03125-.015625.046875-.027344l-.019531.011719c.054687-.027344.125-.007812.164062.03125.042969.054688.035156.117188-.015625.152344h-.007813l-.003906.007812c0-.003906-.007812.003906-.019531.011719-.007813.007813-.023437.015625-.039063.03125l.015626-.011719c-.078126.046875-.148438.101563-.238282.140625l.007813-.003906c-.113281.03125-.199219.089844-.285157.117187h-.003906c-.035156.011719-.105468.023438-.15625.042969-.019531 0-.039062.003907-.046875.003907-.015625.007812-.015625.007812-.019531.007812-.050781 0-.082031.011719-.085938.011719h-.335937c-.21875.015625-.441406-.027344-.695313-.097657-.253906-.070312-.476562-.179687-.714843-.335937-.238281-.164063-.445313-.359375-.617188-.589844-.183593-.238281-.324219-.515625-.421875-.828125-.054687-.152344-.082031-.304687-.097656-.472656v-.007812l-.003906-.007813c-.007813-.03125-.007813-.066406-.007813-.109375v-.371094c.011719-.335937.082031-.6875.210938-1.011718.125-.339844.308593-.648438.5625-.945313.253906-.296875.550781-.566406.890625-.761719.335937-.199218.71875-.355468 1.140625-.4375.101562-.015625.199219-.027344.308593-.042968h.328126c.199218 0 .429687 0 .621093.027343h.003907c.425781.042969.820312.15625 1.230468.339844.394532.171875.78125.425781 1.121094.722656.339844.3125.636719.652344.890625 1.066407.226563.378906.414063.835937.527344 1.300781.015625.121093.042969.230469.054687.351562v.003907l.015625.101562.015625.105469v.007812c.011719.03125.011719.046875.011719.078125v.472656c0 .117188 0 .226563-.015625.351563v.007813c0 .0625-.011719.132812-.011719.203124v.027344l.03125.035156.015625.015626.019532.015624.003906.003907c.117187.09375.71875.601562.898437 1.660156-.046875.039063-.71875.671875-1.71875.621094l-.023437-.003907-.015625.015626c-.039063.023437-.058594.054687-.070313.078124-.011718.015626-.019531.03125-.027344.042969l-.007812.007813c-.289062.402344-.601562.800781-.96875 1.128906-.191406.148438-.382812.292969-.570312.441406l-.027344.019532v.121093c0 .21875-.058594 1.144531-.953125 2.113281-.105469-.015624-1.292969-.183593-1.988281-1.1875l-.019532-.03125h-.683594c-.496093-.015624-.984374-.085937-1.464843-.210937-.15625-.042969-.3125-.101563-.476563-.144531l-.035156-.011719-.027344.027344c-.199218.171875-1.222656.894531-2.773437.855469-.050781-.113282-.546875-1.257813-.066407-2.636719l.011719-.039063-.023437-.027344c-.117188-.148437-.246094-.277343-.359375-.417968v-.003906c-.269531-.324219-.527344-.695313-.726563-1.066407l-.019531-.035156h-.039063s-1.613281-.097656-3.015624-1.691406c.03125-.105469.539062-1.703125 2.167968-2.511719l.027344-.011719.007812-.03125c.019532-.074219.019532-.160156.027344-.203125l.003906-.003906v-.003906c.054688-.464844.15625-.921875.296876-1.367188.042968-.117187.085937-.230468.128906-.359375l.011718-.035156-.019531-.03125c-.171875-.226563-1.035156-1.414063-.910156-3.351563.101563-.050781 1.636719-.808593 3.402344-.125.011719.007813.015625.015626.039062.027344l.035157.019532.035156-.023438c.183594-.128906.367187-.226562.558594-.34375.195312-.113281.394531-.199219.597656-.296875v-.003906l.304687-.128907.003907-.003906c.089843-.050781.183593-.078125.285156-.105468.078125-.019532.132812-.042969.207031-.058594l.035156-.003906.015625-.03125c.023438-.046876.023438-.089844.023438-.089844v.015625s.246094-1.128907 1.578125-2.003907" fill="#f7a525"/></svg>