<svg height="18" viewBox="0 0 18 18" width="18" xmlns="http://www.w3.org/2000/svg"><g fill="#e434aa"><path d="m2.585938 13.621094-.648438-.375 7.207031-12.480469.648438.371094zm0 0"/><path d="m1.789062 12.25h14.414063v.746094h-14.414063zm0 0"/><path d="m9.285156 16.832031-7.207031-4.164062.371094-.644531 7.210937 4.160156zm6.261719-10.847656-7.207031-4.164063.371094-.648437 7.210937 4.164063zm0 0"/><path d="m2.453125 5.980469-.375-.648438 7.210937-4.160156.371094.644531zm0 0"/><path d="m15.414062 13.621094-7.203124-12.484375.644531-.371094 7.207031 12.480469zm-13.050781-8.785156h.746094v8.328124h-.746094zm0 0"/><path d="m14.890625 4.835938h.746094v8.328124h-.746094zm0 0"/><path d="m9.160156 16.515625-.328125-.566406 6.269531-3.621094.328126.566406zm0 0"/><path d="m16.628906 13.40625c-.433594.75-1.394531 1.007812-2.148437.574219-.75-.429688-1.007813-1.394531-.574219-2.144531.429688-.753907 1.394531-1.007813 2.144531-.578126.757813.4375 1.011719 1.394532.578125 2.148438m-12.539062-7.242188c-.429688.753907-1.394532 1.007813-2.144532.578126-.753906-.433594-1.007812-1.394532-.578124-2.148438.433593-.75 1.394531-1.007812 2.148437-.574219.75.433594 1.007813 1.394531.574219 2.144531m-2.71875 7.242188c-.429688-.753906-.175782-1.710938.578125-2.148438.75-.429687 1.710937-.175781 2.144531.578126.433594.75.175781 1.710937-.574219 2.144531-.757812.433593-1.714843.175781-2.148437-.574219m12.539062-7.242188c-.433594-.75-.175781-1.710937.574219-2.144531.753906-.433593 1.710937-.175781 2.148437.574219.429688.753906.175782 1.710938-.578124 2.148438-.75.429687-1.714844.175781-2.144532-.578126m-4.910156 11.648438c-.417969 0-.816406-.167969-1.109375-.460938-.296875-.292968-.460937-.695312-.460937-1.109374 0-.417969.164062-.816407.460937-1.113282.292969-.292968.691406-.460937 1.109375-.457031.417969-.003906.816406.164063 1.109375.457031.296875.296875.460937.695313.460937 1.113282 0 .863281-.703124 1.570312-1.570312 1.570312m0-14.484375c-.417969.003906-.816406-.164063-1.109375-.457031-.296875-.296875-.460937-.695313-.460937-1.113282 0-.414062.164062-.816406.460937-1.109374.292969-.292969.691406-.460938 1.109375-.460938s.816406.167969 1.109375.460938c.296875.292968.460937.695312.460937 1.109374 0 .417969-.164062.816407-.460937 1.113282-.292969.292968-.691406.460937-1.109375.457031"/></g></svg>