<svg height="18" viewBox="0 0 18 18" width="18" xmlns="http://www.w3.org/2000/svg"><path d="m14.5625 13.480469-5.5625-2.15625-5.5625 2.152343 2.195312-3.433593-5.632812-2.105469 6.917969.03125 2.082031-3.453125 2.082031 3.453125 6.917969-.03125-5.632812 2.105469zm0 0"/><path d="m13.808594 12.863281-4.804688-1.863281-4.804687 1.863281 1.898437-2.96875-4.867187-1.816406 5.976562.027344 1.796875-2.984375 1.796875 2.984375 5.976563-.027344-4.863282 1.816406z" fill="#619cbc"/><path d="m5.316406 6.28125c.480469 0 .199219 1.199219.03125 1.558594-.148437.3125-.476562.757812-.867187.757812-.46875 0-.453125-.523437-.269531-.917968.101562-.214844.257812-.453126.472656-.628907-.054688.183594.128906.308594.054687.464844-.050781.109375-.15625.226563-.210937.34375-.089844.1875-.054688.523437.15625.523437.195312 0 .363281-.238281.433594-.386718.144531-.304688.503906-1.597656.101562-1.597656-.460938 0-1.253906 1.121093-1.421875 1.476562-.296875.628906-.082031 1.402344.59375 1.402344.457031 0 .835937-.441406 1.015625-.824219.101562-.210937.164062-.4375.191406-.671875l.089844-.015625c.019531.589844.644531 1.570313.378906 2.136719-.34375.722656-1.363281.714844-1.945312.972656-.121094-.289062-.289063-.554688-.523438-.757812.519532-.175782 1.796875-.46875 2.074219-1.054688.117187-.246094.039063-.65625-.097656-.796875-.023438.089844-.054688.179687-.09375.265625-.238281.503906-.746094.894531-1.273438.894531-.730469 0-1.039062-.523437-.695312-1.253906.207031-.4375 1.257812-1.890625 1.804687-1.890625"/><path d="m37.805556 44.666667c3.416666 0 1.416666 8.527777.222222 11.083333-1.055556 2.222222-3.388889 5.388889-6.166667 5.388889-3.333333 0-3.222222-3.722222-1.916667-6.527778.722223-1.527778 1.833334-3.222222 3.361112-4.472222-.388889 1.305555.916666 2.194444.388888 3.305555-.361111.777778-1.111111 1.611112-1.5 2.444445-.638888 1.333333-.388888 3.722222 1.111112 3.722222 1.388888 0 2.583333-1.694444 3.083333-2.75 1.027778-2.166667 3.583333-11.361111.722222-11.361111-3.277778 0-8.916667 7.972222-10.111111 10.5-2.111111 4.472222-.583333 9.972222 4.222222 9.972222 3.25 0 5.944445-3.138889 7.222222-5.861111.722223-1.5 1.166667-3.111111 1.361112-4.777778l.638888-.111111c.138889 4.194445 4.583334 11.166667 2.694445 15.194445-2.444445 5.138889-9.694445 5.083333-13.833333 6.916666-.861112-2.055555-2.055556-3.944444-3.722223-5.388889 3.694445-1.25 12.777778-3.333333 14.75-7.5.833334-1.75.277778-4.666666-.694444-5.666666-.166667.638889-.388889 1.277778-.666667 1.888889-1.694444 3.583333-5.305555 6.361111-9.055555 6.361111-5.194445 0-7.388889-3.722222-4.944445-8.916667 1.472222-3.111111 8.944445-13.444444 12.833334-13.444444zm0 0" fill="none" stroke="#000" stroke-linejoin="round" stroke-miterlimit="3.864" stroke-width="5.718" transform="scale(.140625)"/><path d="m6.566406 8.015625c.027344.070313.109375.476563.175782.476563.136718 0 .386718-.375.453124-.472657.121094.078125.054688.25.28125.25.101563 0 .152344-.222656.261719-.226562.003907.089843.007813.171875-.039062.273437-.078125.160156-.265625.375-.453125.375-.136719 0-.320313-.160156-.359375-.160156-.039063 0-.113281.019531-.132813.066406-.097656.207032.160156.894532.421875.894532.140625 0 .304688-.101563.453125-.164063-.039062.246094-.042968.457031.007813.671875-.125.074219-.269531.117188-.414063.117188-.644531 0-.289062-1.492188-.878906-1.808594l.21875-.292969"/><path d="m46.694444 57c.194445.5.777778 3.388889 1.25 3.388889.972223 0 2.75-2.666667 3.222223-3.361111.861111.555555.388889 1.777778 2 1.777778.722222 0 1.083333-1.583334 1.861111-1.611112.027778.638889.055555 1.222223-.277778 1.944445-.555556 1.138889-1.888889 2.666667-3.222222 2.666667-.972222 0-2.277778-1.138889-2.555556-1.138889s-.805555.138889-.944444.472222c-.694445 1.472222 1.138889 6.361111 3 6.361111 1 0 2.166666-.722222 3.222222-1.166667-.277778 1.75-.305556 3.25.055556 4.777778-.888889.527778-1.916667.833333-2.944445.833333-4.583333 0-2.055555-10.611111-6.25-12.861111zm0 0" fill="none" stroke="#000" stroke-linejoin="round" stroke-miterlimit="3.864" stroke-width="5.718" transform="scale(.140625)"/><path d="m9.03125 7.898438c.484375 0 .675781.871093.457031 1.332031-.167969.355469-.46875.617187-.851562.617187-.675781 0-.59375-.925781-.328125-1.484375.074218-.152343.320312-.488281.515625-.488281.074219 0 .132812.023438.207031.023438m-.015625.078124c-.078125 0-.144531.039063-.179687.113282-.074219.160156.296874.316406.242187.429687-.03125.070313-.160156.136719-.226563.136719-.320312 0-.316406-.417969-.125-.6875-.121093.074219-.195312.191406-.246093.296875-.191407.398437-.039063.949219.390625.949219.234375 0 .507812-.214844.613281-.441406.132813-.277344-.203125-.796876-.46875-.796876" fill-rule="evenodd"/><path d="m64.222222 56.166667c3.444445 0 4.805556 6.194444 3.25 9.472222-1.194444 2.527778-3.333333 4.388889-6.055555 4.388889-4.805556 0-4.222223-6.583334-2.333334-10.555556.527778-1.083333 2.277778-3.472222 3.666667-3.472222.527778 0 .944444.166667 1.472222.166667zm0 0" fill="none" stroke="#000" stroke-linejoin="round" stroke-miterlimit="3.864" stroke-width="5.718" transform="scale(.140625)"/><path d="m64.111111 56.722222c-.555555 0-1.027778.277778-1.277778.805556-.527777 1.138889 2.111111 2.25 1.722223 3.055555-.222223.5-1.138889.972223-1.611112.972223-2.277777 0-2.25-2.972223-.888888-4.888889-.861112.527777-1.416667 1.361111-1.75 2.111111-1.361112 2.833333-.277778 6.75 2.777777 6.75 1.666667 0 3.611111-1.527778 4.361111-3.138889.944445-1.944445-1.444444-5.666667-3.333333-5.666667zm0 0" fill="none" stroke="#000" stroke-linejoin="round" stroke-miterlimit="3.864" stroke-width="5.718" transform="scale(.140625)"/><path d="m11.234375 9.332031c-.128906.269531-.363281.414063-.628906.414063-.84375 0-1.011719-.769532-.648438-1.542969.089844-.183594.230469-.382813.445313-.382813.679687 0 1.148437.832032.828125 1.511719zm-.675781-1.414062c-.0625 0-.117188.019531-.144532.085937-.066406.136719.289063.261719.289063.40625-.035156.042969-.140625.09375-.183594.09375-.257812 0-.453125-.351562-.234375-.609375-.089844.058594-.140625.140625-.179687.222657-.222657.46875.09375.945312.558593.945312.191407 0 .4375-.105469.539063-.316406.140625-.300782-.363281-.828125-.644531-.828125" fill-rule="evenodd"/><path d="m79.888889 66.361111c-.916667 1.916667-2.583333 2.944445-4.472222 2.944445-6 0-7.194445-5.472223-4.611111-10.972223.638888-1.305555 1.638888-2.722222 3.166666-2.722222 4.833334 0 8.166667 5.916667 5.888889 10.75zm0 0" fill="none" stroke="#000" stroke-linejoin="round" stroke-miterlimit="3.864" stroke-width="5.718" transform="scale(.140625)"/><path d="m75.083333 56.305556c-.444444 0-.833333.138888-1.027777.611111-.472223.972222 2.055555 1.861111 2.055555 2.888889-.25.305555-1 .666666-1.333333.666666-1.805556 0-3.194445-2.5-1.638889-4.333333-.638889.416667-1 1-1.277778 1.583333-1.583333 3.333334.666667 6.722222 3.972222 6.722222 1.361111 0 3.111111-.75 3.833334-2.25 1-2.138888-2.583334-5.888888-4.583334-5.888888zm0 0" fill="none" stroke="#000" stroke-linejoin="round" stroke-miterlimit="3.864" stroke-width="5.718" transform="scale(.140625)"/><path d="m12.105469 7.910156c.726562 0 1.09375 1.335938.769531 2.023438-.0625.132812-.175781.261718-.328125.261718-.832031 0-.621094-1.648437-1.085937-2.117187.042968-.046875.082031-.09375.121093-.140625.316407.371094.15625 1.34375.832031 1.34375.15625 0 .273438-.136719.335938-.269531.167969-.351563-.140625-.96875-.480469-.96875-.003906 0-.054687 0-.050781.019531.011719.226562.1875.085938.007812.472656-.179687-.035156-.375-.332031-.273437-.542968.027344-.0625.101563-.082032.152344-.082032"/><path d="m86.083333 56.25c5.166667 0 7.777778 9.5 5.472223 14.388889-.444445.944444-1.25 1.861111-2.333334 1.861111-5.916666 0-4.416666-11.722222-7.722222-15.055556.305556-.333333.583333-.666666.861111-1 2.25 2.638889 1.111111 9.555556 5.916667 9.555556 1.111111 0 1.944444-.972222 2.388889-1.916667 1.194444-2.5-1-6.888889-3.416667-6.888889-.027778 0-.388889 0-.361111.138889.083333 1.611111 1.333333.611111.055555 3.361111-1.277777-.25-2.666666-2.361111-1.944444-3.861111.194444-.444444.722222-.583333 1.083333-.583333zm0 0" fill="none" stroke="#000" stroke-linejoin="round" stroke-miterlimit="3.864" stroke-width="5.718" transform="scale(.140625)"/><path d="m13.910156 7.898438c.070313.003906.171875 0 .230469.015624.011719.003907.003906.019532.003906.027344.019531.101563.046875.199219.070313.296875.097656.378907.152344.765625.261718 1.144531.117188.410157.242188.871094.097657 1.382813-.011719.050781-.03125.101563-.054688.152344-.164062.34375-1.5625.742187-1.925781.742187-.042969 0-.09375-.015625-.113281-.042968.152343-.097657.25-.199219.320312-.34375.082031-.175782.078125-.339844.070313-.488282.027344.015625 1.101562-.011718 1.140625-.011718.15625 0 .292969-.152344.355469-.285157.117187-.246093.097656-.496093.078124-.707031-.011718-.105469-.023437-.207031-.042968-.308594l-.03125-.148437-.007813-.03125c.019531 0 .003907.03125.003907.046875.007812.253906.003906.609375-.132813.898437-.0625.132813-.164063.273438-.324219.273438-.699218 0-.347656-1.980469-.90625-2.449219.03125-.050781.058594-.105469.082032-.15625.332031.398438.347656 1.5.835937 1.5.117187 0 .238281-.109375.289063-.214844.214843-.460937-.144532-.992187-.300782-1.292968" fill-rule="evenodd"/><path d="m98.916667 56.166667c.5.027777 1.222222 0 1.638889.111111.083333.027778.027777.138889.027777.194444.138889.722222.333334 1.416667.5 2.111111.694445 2.694445 1.083334 5.444445 1.861111 8.138889.833334 2.916667 1.722223 6.194445.694445 9.833334-.083333.361111-.222222.722222-.388889 1.083333-1.166667 2.444444-11.111111 5.277778-13.694444 5.277778-.305556 0-.666667-.111111-.805556-.305556 1.083333-.694444 1.777778-1.416667 2.277778-2.444444.583333-1.25.555555-2.416667.5-3.472223.194444.111112 7.833333-.083333 8.111111-.083333 1.111111 0 2.083333-1.083333 2.527778-2.027778.833333-1.75.694444-3.527777.555555-5.027777-.083333-.75-.166666-1.472223-.305555-2.194445l-.222223-1.055555-.055555-.222223c.138889 0 .027778.222223.027778.333334.055555 1.805555.027777 4.333333-.944445 6.388889-.444444.944444-1.166666 1.944444-2.305555 1.944444-4.972223 0-2.472223-14.083333-6.444445-17.416667.222222-.361111.416667-.75.583334-1.111111 2.361111 2.833334 2.472222 10.666667 5.944444 10.666667.833333 0 1.694444-.777778 2.055556-1.527778 1.527777-3.277778-1.027778-7.055555-2.138889-9.194444zm0 0" fill="none" stroke="#000" stroke-linejoin="round" stroke-miterlimit="3.864" stroke-width="5.718" transform="scale(.140625)"/><path d="m5.316406 6.28125c.480469 0 .199219 1.199219.03125 1.558594-.148437.3125-.476562.757812-.867187.757812-.46875 0-.453125-.523437-.269531-.917968.101562-.214844.257812-.453126.472656-.628907-.054688.183594.128906.308594.054687.464844-.050781.109375-.15625.226563-.210937.34375-.089844.1875-.054688.523437.15625.523437.195312 0 .363281-.238281.433594-.386718.144531-.304688.503906-1.597656.101562-1.597656-.460938 0-1.253906 1.121093-1.421875 1.476562-.296875.628906-.082031 1.402344.59375 1.402344.457031 0 .835937-.441406 1.015625-.824219.101562-.210937.164062-.4375.191406-.671875l.089844-.015625c.019531.589844.644531 1.570313.378906 2.136719-.34375.722656-1.363281.714844-1.945312.972656-.121094-.289062-.289063-.554688-.523438-.757812.519532-.175782 1.796875-.46875 2.074219-1.054688.117187-.246094.039063-.65625-.097656-.796875-.023438.089844-.054688.179687-.09375.265625-.238281.503906-.746094.894531-1.273438.894531-.730469 0-1.039062-.523437-.695312-1.253906.207031-.4375 1.257812-1.890625 1.804687-1.890625"/><path d="m37.805556 44.666667c3.416666 0 1.416666 8.527777.222222 11.083333-1.055556 2.222222-3.388889 5.388889-6.166667 5.388889-3.333333 0-3.222222-3.722222-1.916667-6.527778.722223-1.527778 1.833334-3.222222 3.361112-4.472222-.388889 1.305555.916666 2.194444.388888 3.305555-.361111.777778-1.111111 1.611112-1.5 2.444445-.638888 1.333333-.388888 3.722222 1.111112 3.722222 1.388888 0 2.583333-1.694444 3.083333-2.75 1.027778-2.166667 3.583333-11.361111.722222-11.361111-3.277778 0-8.916667 7.972222-10.111111 10.5-2.111111 4.472222-.583333 9.972222 4.222222 9.972222 3.25 0 5.944445-3.138889 7.222222-5.861111.722223-1.5 1.166667-3.111111 1.361112-4.777778l.638888-.111111c.138889 4.194445 4.583334 11.166667 2.694445 15.194445-2.444445 5.138889-9.694445 5.083333-13.833333 6.916666-.861112-2.055555-2.055556-3.944444-3.722223-5.388889 3.694445-1.25 12.777778-3.333333 14.75-7.5.833334-1.75.277778-4.666666-.694444-5.666666-.166667.638889-.388889 1.277778-.666667 1.888889-1.694444 3.583333-5.305555 6.361111-9.055555 6.361111-5.194445 0-7.388889-3.722222-4.944445-8.916667 1.472222-3.111111 8.944445-13.444444 12.833334-13.444444zm0 0" fill="none" stroke="#000" stroke-miterlimit="3.864" stroke-width=".477" transform="scale(.140625)"/><path d="m6.566406 8.015625c.027344.070313.109375.476563.175782.476563.136718 0 .386718-.375.453124-.472657.121094.078125.054688.25.28125.25.101563 0 .152344-.222656.261719-.226562.003907.089843.007813.171875-.039062.273437-.078125.160156-.265625.375-.453125.375-.136719 0-.320313-.160156-.359375-.160156-.039063 0-.113281.019531-.132813.066406-.097656.207032.160156.894532.421875.894532.140625 0 .304688-.101563.453125-.164063-.039062.246094-.042968.457031.007813.671875-.125.074219-.269531.117188-.414063.117188-.644531 0-.289062-1.492188-.878906-1.808594l.21875-.292969"/><path d="m46.694444 57c.194445.5.777778 3.388889 1.25 3.388889.972223 0 2.75-2.666667 3.222223-3.361111.861111.555555.388889 1.777778 2 1.777778.722222 0 1.083333-1.583334 1.861111-1.611112.027778.638889.055555 1.222223-.277778 1.944445-.555556 1.138889-1.888889 2.666667-3.222222 2.666667-.972222 0-2.277778-1.138889-2.555556-1.138889s-.805555.138889-.944444.472222c-.694445 1.472222 1.138889 6.361111 3 6.361111 1 0 2.166666-.722222 3.222222-1.166667-.277778 1.75-.305556 3.25.055556 4.777778-.888889.527778-1.916667.833333-2.944445.833333-4.583333 0-2.055555-10.611111-6.25-12.861111zm0 0" fill="none" stroke="#000" stroke-miterlimit="3.864" stroke-width=".477" transform="scale(.140625)"/><path d="m9.03125 7.898438c.484375 0 .675781.871093.457031 1.332031-.167969.355469-.46875.617187-.851562.617187-.675781 0-.59375-.925781-.328125-1.484375.074218-.152343.320312-.488281.515625-.488281.074219 0 .132812.023438.207031.023438m-.015625.078124c-.078125 0-.144531.039063-.179687.113282-.074219.160156.296874.316406.242187.429687-.03125.070313-.160156.136719-.226563.136719-.320312 0-.316406-.417969-.125-.6875-.121093.074219-.195312.191406-.246093.296875-.191407.398437-.039063.949219.390625.949219.234375 0 .507812-.214844.613281-.441406.132813-.277344-.203125-.796876-.46875-.796876" fill-rule="evenodd"/><path d="m64.222222 56.166667c3.444445 0 4.805556 6.194444 3.25 9.472222-1.194444 2.527778-3.333333 4.388889-6.055555 4.388889-4.805556 0-4.222223-6.583334-2.333334-10.555556.527778-1.083333 2.277778-3.472222 3.666667-3.472222.527778 0 .944444.166667 1.472222.166667zm0 0" fill="none" stroke="#000" stroke-miterlimit="3.864" stroke-width=".477" transform="scale(.140625)"/><path d="m64.111111 56.722222c-.555555 0-1.027778.277778-1.277778.805556-.527777 1.138889 2.111111 2.25 1.722223 3.055555-.222223.5-1.138889.972223-1.611112.972223-2.277777 0-2.25-2.972223-.888888-4.888889-.861112.527777-1.416667 1.361111-1.75 2.111111-1.361112 2.833333-.277778 6.75 2.777777 6.75 1.666667 0 3.611111-1.527778 4.361111-3.138889.944445-1.944445-1.444444-5.666667-3.333333-5.666667zm0 0" fill="none" stroke="#000" stroke-miterlimit="3.864" stroke-width=".477" transform="scale(.140625)"/><path d="m11.234375 9.332031c-.128906.269531-.363281.414063-.628906.414063-.84375 0-1.011719-.769532-.648438-1.542969.089844-.183594.230469-.382813.445313-.382813.679687 0 1.148437.832032.828125 1.511719zm-.675781-1.414062c-.0625 0-.117188.019531-.144532.085937-.066406.136719.289063.261719.289063.40625-.035156.042969-.140625.09375-.183594.09375-.257812 0-.453125-.351562-.234375-.609375-.089844.058594-.140625.140625-.179687.222657-.222657.46875.09375.945312.558593.945312.191407 0 .4375-.105469.539063-.316406.140625-.300782-.363281-.828125-.644531-.828125" fill-rule="evenodd"/><path d="m79.888889 66.361111c-.916667 1.916667-2.583333 2.944445-4.472222 2.944445-6 0-7.194445-5.472223-4.611111-10.972223.638888-1.305555 1.638888-2.722222 3.166666-2.722222 4.833334 0 8.166667 5.916667 5.888889 10.75zm0 0" fill="none" stroke="#000" stroke-miterlimit="3.864" stroke-width=".477" transform="scale(.140625)"/><path d="m75.083333 56.305556c-.444444 0-.833333.138888-1.027777.611111-.472223.972222 2.055555 1.861111 2.055555 2.888889-.25.305555-1 .666666-1.333333.666666-1.805556 0-3.194445-2.5-1.638889-4.333333-.638889.416667-1 1-1.277778 1.583333-1.583333 3.333334.666667 6.722222 3.972222 6.722222 1.361111 0 3.111111-.75 3.833334-2.25 1-2.138888-2.583334-5.888888-4.583334-5.888888zm0 0" fill="none" stroke="#000" stroke-miterlimit="3.864" stroke-width=".477" transform="scale(.140625)"/><path d="m12.105469 7.910156c.726562 0 1.09375 1.335938.769531 2.023438-.0625.132812-.175781.261718-.328125.261718-.832031 0-.621094-1.648437-1.085937-2.117187.042968-.046875.082031-.09375.121093-.140625.316407.371094.15625 1.34375.832031 1.34375.15625 0 .273438-.136719.335938-.269531.167969-.351563-.140625-.96875-.480469-.96875-.003906 0-.054687 0-.050781.019531.011719.226562.1875.085938.007812.472656-.179687-.035156-.375-.332031-.273437-.542968.027344-.0625.101563-.082032.152344-.082032"/><path d="m86.083333 56.25c5.166667 0 7.777778 9.5 5.472223 14.388889-.444445.944444-1.25 1.861111-2.333334 1.861111-5.916666 0-4.416666-11.722222-7.722222-15.055556.305556-.333333.583333-.666666.861111-1 2.25 2.638889 1.111111 9.555556 5.916667 9.555556 1.111111 0 1.944444-.972222 2.388889-1.916667 1.194444-2.5-1-6.888889-3.416667-6.888889-.027778 0-.388889 0-.361111.138889.083333 1.611111 1.333333.611111.055555 3.361111-1.277777-.25-2.666666-2.361111-1.944444-3.861111.194444-.444444.722222-.583333 1.083333-.583333zm0 0" fill="none" stroke="#000" stroke-miterlimit="3.864" stroke-width=".477" transform="scale(.140625)"/><path d="m13.910156 7.898438c.070313.003906.171875 0 .230469.015624.011719.003907.003906.019532.003906.027344.019531.101563.046875.199219.070313.296875.097656.378907.152344.765625.261718 1.144531.117188.410157.242188.871094.097657 1.382813-.011719.050781-.03125.101563-.054688.152344-.164062.34375-.582031.671875-.945312.671875-.042969 0-.09375-.011719-.113281-.042969.152343-.097656.25-.195313.320312-.34375.082031-.171875.078125-.335937.070312-.488281.027344.019531.121094.058594.160157.058594.15625 0 .292969-.152344.355469-.285157.117187-.246093.097656-.496093.078124-.707031-.011718-.105469-.023437-.207031-.042968-.308594l-.03125-.148437-.007813-.03125c.019531 0 .003907.03125.003907.046875.007812.253906.003906.609375-.132813.898437-.0625.132813-.164063.273438-.324219.273438-.699218 0-.347656-1.980469-.90625-2.449219.03125-.050781.058594-.105469.082032-.15625.332031.398438.347656 1.5.835937 1.5.117187 0 .238281-.109375.289063-.214844.21875-.460937-.144532-.992187-.300782-1.292968" fill-rule="evenodd"/><path d="m98.916667 56.166667c.5.027777 1.222222 0 1.638889.111111.083333.027778.027777.138889.027777.194444.138889.722222.333334 1.416667.5 2.111111.694445 2.694445 1.083334 5.444445 1.861111 8.138889.833334 2.916667 1.722223 6.194445.694445 9.833334-.083333.361111-.222222.722222-.388889 1.083333-1.166667 2.444444-4.138889 4.777778-6.722222 4.777778-.305556 0-.666667-.083334-.805556-.305556 1.083334-.694444 1.777778-1.388889 2.277778-2.444444.583333-1.222223.555556-2.388889.5-3.472223.194444.138889.861111.416667 1.138889.416667 1.111111 0 2.083333-1.083333 2.527778-2.027778.833333-1.75.694444-3.527777.555555-5.027777-.083333-.75-.166666-1.472223-.305555-2.194445l-.222223-1.055555-.055555-.222223c.138889 0 .027778.222223.027778.333334.055555 1.805555.027777 4.333333-.944445 6.388889-.444444.944444-1.166666 1.944444-2.305555 1.944444-4.972223 0-2.472223-14.083333-6.444445-17.416667.222222-.361111.416667-.75.583334-1.111111 2.361111 2.833334 2.472222 10.666667 5.944444 10.666667.833333 0 1.694444-.777778 2.055556-1.527778 1.555555-3.277778-1.027778-7.055555-2.138889-9.194444zm0 0" fill="none" stroke="#000" stroke-miterlimit="3.864" stroke-width=".477" transform="scale(.140625)"/><path d="m5.316406 6.28125c.480469 0 .199219 1.199219.03125 1.558594-.148437.3125-.476562.757812-.867187.757812-.46875 0-.453125-.523437-.269531-.917968.101562-.214844.257812-.453126.472656-.628907-.054688.183594.128906.308594.054687.464844-.050781.109375-.15625.226563-.210937.34375-.089844.1875-.054688.523437.15625.523437.195312 0 .363281-.238281.433594-.386718.144531-.304688.503906-1.597656.101562-1.597656-.460938 0-1.253906 1.121093-1.421875 1.476562-.296875.628906-.082031 1.402344.59375 1.402344.457031 0 .835937-.441406 1.015625-.824219.101562-.210937.164062-.4375.191406-.671875l.089844-.015625c.019531.589844.644531 1.570313.378906 2.136719-.34375.722656-1.363281.714844-1.945312.972656-.121094-.289062-.289063-.554688-.523438-.757812.519532-.175782 1.796875-.46875 2.074219-1.054688.117187-.246094.039063-.65625-.097656-.796875-.023438.089844-.054688.179687-.09375.265625-.238281.503906-.746094.894531-1.273438.894531-.730469 0-1.039062-.523437-.695312-1.253906.207031-.4375 1.257812-1.890625 1.804687-1.890625"/><path d="m37.805556 44.666667c3.416666 0 1.416666 8.527777.222222 11.083333-1.055556 2.222222-3.388889 5.388889-6.166667 5.388889-3.333333 0-3.222222-3.722222-1.916667-6.527778.722223-1.527778 1.833334-3.222222 3.361112-4.472222-.388889 1.305555.916666 2.194444.388888 3.305555-.361111.777778-1.111111 1.611112-1.5 2.444445-.638888 1.333333-.388888 3.722222 1.111112 3.722222 1.388888 0 2.583333-1.694444 3.083333-2.75 1.027778-2.166667 3.583333-11.361111.722222-11.361111-3.277778 0-8.916667 7.972222-10.111111 10.5-2.111111 4.472222-.583333 9.972222 4.222222 9.972222 3.25 0 5.944445-3.138889 7.222222-5.861111.722223-1.5 1.166667-3.111111 1.361112-4.777778l.638888-.111111c.138889 4.194445 4.583334 11.166667 2.694445 15.194445-2.444445 5.138889-9.694445 5.083333-13.833333 6.916666-.861112-2.055555-2.055556-3.944444-3.722223-5.388889 3.694445-1.25 12.777778-3.333333 14.75-7.5.833334-1.75.277778-4.666666-.694444-5.666666-.166667.638889-.388889 1.277778-.666667 1.888889-1.694444 3.583333-5.305555 6.361111-9.055555 6.361111-5.194445 0-7.388889-3.722222-4.944445-8.916667 1.472222-3.111111 8.944445-13.444444 12.833334-13.444444zm0 0" fill="none" stroke="#000" stroke-linejoin="round" stroke-miterlimit="3.864" stroke-width="5.718" transform="scale(.140625)"/><path d="m6.566406 8.015625c.027344.070313.109375.476563.175782.476563.136718 0 .386718-.375.453124-.472657.121094.078125.054688.25.28125.25.101563 0 .152344-.222656.261719-.226562.003907.089843.007813.171875-.039062.273437-.078125.160156-.265625.375-.453125.375-.136719 0-.320313-.160156-.359375-.160156-.039063 0-.113281.019531-.132813.066406-.097656.207032.160156.894532.421875.894532.140625 0 .304688-.101563.453125-.164063-.039062.246094-.042968.457031.007813.671875-.125.074219-.269531.117188-.414063.117188-.644531 0-.289062-1.492188-.878906-1.808594l.21875-.292969"/><path d="m46.694444 57c.194445.5.777778 3.388889 1.25 3.388889.972223 0 2.75-2.666667 3.222223-3.361111.861111.555555.388889 1.777778 2 1.777778.722222 0 1.083333-1.583334 1.861111-1.611112.027778.638889.055555 1.222223-.277778 1.944445-.555556 1.138889-1.888889 2.666667-3.222222 2.666667-.972222 0-2.277778-1.138889-2.555556-1.138889s-.805555.138889-.944444.472222c-.694445 1.472222 1.138889 6.361111 3 6.361111 1 0 2.166666-.722222 3.222222-1.166667-.277778 1.75-.305556 3.25.055556 4.777778-.888889.527778-1.916667.833333-2.944445.833333-4.583333 0-2.055555-10.611111-6.25-12.861111zm0 0" fill="none" stroke="#000" stroke-linejoin="round" stroke-miterlimit="3.864" stroke-width="5.718" transform="scale(.140625)"/><path d="m9.03125 7.898438c.484375 0 .675781.871093.457031 1.332031-.167969.355469-.46875.617187-.851562.617187-.675781 0-.59375-.925781-.328125-1.484375.074218-.152343.320312-.488281.515625-.488281.074219 0 .132812.023438.207031.023438m-.015625.078124c-.078125 0-.144531.039063-.179687.113282-.074219.160156.296874.316406.242187.429687-.03125.070313-.160156.136719-.226563.136719-.320312 0-.316406-.417969-.125-.6875-.121093.074219-.195312.191406-.246093.296875-.191407.398437-.039063.949219.390625.949219.234375 0 .507812-.214844.613281-.441406.132813-.277344-.203125-.796876-.46875-.796876" fill-rule="evenodd"/><path d="m64.222222 56.166667c3.444445 0 4.805556 6.194444 3.25 9.472222-1.194444 2.527778-3.333333 4.388889-6.055555 4.388889-4.805556 0-4.222223-6.583334-2.333334-10.555556.527778-1.083333 2.277778-3.472222 3.666667-3.472222.527778 0 .944444.166667 1.472222.166667zm0 0" fill="none" stroke="#000" stroke-linejoin="round" stroke-miterlimit="3.864" stroke-width="5.718" transform="scale(.140625)"/><path d="m64.111111 56.722222c-.555555 0-1.027778.277778-1.277778.805556-.527777 1.138889 2.111111 2.25 1.722223 3.055555-.222223.5-1.138889.972223-1.611112.972223-2.277777 0-2.25-2.972223-.888888-4.888889-.861112.527777-1.416667 1.361111-1.75 2.111111-1.361112 2.833333-.277778 6.75 2.777777 6.75 1.666667 0 3.611111-1.527778 4.361111-3.138889.944445-1.944445-1.444444-5.666667-3.333333-5.666667zm0 0" fill="none" stroke="#000" stroke-linejoin="round" stroke-miterlimit="3.864" stroke-width="5.718" transform="scale(.140625)"/><path d="m11.234375 9.332031c-.128906.269531-.363281.414063-.628906.414063-.84375 0-1.011719-.769532-.648438-1.542969.089844-.183594.230469-.382813.445313-.382813.679687 0 1.148437.832032.828125 1.511719zm-.675781-1.414062c-.0625 0-.117188.019531-.144532.085937-.066406.136719.289063.261719.289063.40625-.035156.042969-.140625.09375-.183594.09375-.257812 0-.453125-.351562-.234375-.609375-.089844.058594-.140625.140625-.179687.222657-.222657.46875.09375.945312.558593.945312.191407 0 .4375-.105469.539063-.316406.140625-.300782-.363281-.828125-.644531-.828125" fill-rule="evenodd"/><path d="m79.888889 66.361111c-.916667 1.916667-2.583333 2.944445-4.472222 2.944445-6 0-7.194445-5.472223-4.611111-10.972223.638888-1.305555 1.638888-2.722222 3.166666-2.722222 4.833334 0 8.166667 5.916667 5.888889 10.75zm0 0" fill="none" stroke="#000" stroke-linejoin="round" stroke-miterlimit="3.864" stroke-width="5.718" transform="scale(.140625)"/><path d="m75.083333 56.305556c-.444444 0-.833333.138888-1.027777.611111-.472223.972222 2.055555 1.861111 2.055555 2.888889-.25.305555-1 .666666-1.333333.666666-1.805556 0-3.194445-2.5-1.638889-4.333333-.638889.416667-1 1-1.277778 1.583333-1.583333 3.333334.666667 6.722222 3.972222 6.722222 1.361111 0 3.111111-.75 3.833334-2.25 1-2.138888-2.583334-5.888888-4.583334-5.888888zm0 0" fill="none" stroke="#000" stroke-linejoin="round" stroke-miterlimit="3.864" stroke-width="5.718" transform="scale(.140625)"/><path d="m12.105469 7.910156c.726562 0 1.09375 1.335938.769531 2.023438-.0625.132812-.175781.261718-.328125.261718-.832031 0-.621094-1.648437-1.085937-2.117187.042968-.046875.082031-.09375.121093-.140625.316407.371094.15625 1.34375.832031 1.34375.15625 0 .273438-.136719.335938-.269531.167969-.351563-.140625-.96875-.480469-.96875-.003906 0-.054687 0-.050781.019531.011719.226562.1875.085938.007812.472656-.179687-.035156-.375-.332031-.273437-.542968.027344-.0625.101563-.082032.152344-.082032"/><path d="m86.083333 56.25c5.166667 0 7.777778 9.5 5.472223 14.388889-.444445.944444-1.25 1.861111-2.333334 1.861111-5.916666 0-4.416666-11.722222-7.722222-15.055556.305556-.333333.583333-.666666.861111-1 2.25 2.638889 1.111111 9.555556 5.916667 9.555556 1.111111 0 1.944444-.972222 2.388889-1.916667 1.194444-2.5-1-6.888889-3.416667-6.888889-.027778 0-.388889 0-.361111.138889.083333 1.611111 1.333333.611111.055555 3.361111-1.277777-.25-2.666666-2.361111-1.944444-3.861111.194444-.444444.722222-.583333 1.083333-.583333zm0 0" fill="none" stroke="#000" stroke-linejoin="round" stroke-miterlimit="3.864" stroke-width="5.718" transform="scale(.140625)"/><path d="m13.910156 7.898438c.070313.003906.171875 0 .230469.015624.011719.003907.003906.019532.003906.027344.019531.101563.046875.199219.070313.296875.097656.378907.152344.765625.261718 1.144531.117188.410157.242188.871094.097657 1.382813-.011719.050781-.03125.101563-.054688.152344-.164062.34375-.582031.671875-.945312.671875-.042969 0-.09375-.011719-.113281-.042969.152343-.097656.25-.195313.320312-.34375.082031-.171875.078125-.335937.070312-.488281.027344.019531.121094.058594.160157.058594.15625 0 .292969-.152344.355469-.285157.117187-.246093.097656-.496093.078124-.707031-.011718-.105469-.023437-.207031-.042968-.308594l-.03125-.148437-.007813-.03125c.019531 0 .003907.03125.003907.046875.007812.253906.003906.609375-.132813.898437-.0625.132813-.164063.273438-.324219.273438-.699218 0-.347656-1.980469-.90625-2.449219.03125-.050781.058594-.105469.082032-.15625.332031.398438.347656 1.5.835937 1.5.117187 0 .238281-.109375.289063-.214844.21875-.460937-.144532-.992187-.300782-1.292968" fill-rule="evenodd"/><path d="m98.916667 56.166667c.5.027777 1.222222 0 1.638889.111111.083333.027778.027777.138889.027777.194444.138889.722222.333334 1.416667.5 2.111111.694445 2.694445 1.083334 5.444445 1.861111 8.138889.833334 2.916667 1.722223 6.194445.694445 9.833334-.083333.361111-.222222.722222-.388889 1.083333-1.166667 2.444444-4.138889 4.777778-6.722222 4.777778-.305556 0-.666667-.083334-.805556-.305556 1.083334-.694444 1.777778-1.388889 2.277778-2.444444.583333-1.222223.555556-2.388889.5-3.472223.194444.138889.861111.416667 1.138889.416667 1.111111 0 2.083333-1.083333 2.527778-2.027778.833333-1.75.694444-3.527777.555555-5.027777-.083333-.75-.166666-1.472223-.305555-2.194445l-.222223-1.055555-.055555-.222223c.138889 0 .027778.222223.027778.333334.055555 1.805555.027777 4.333333-.944445 6.388889-.444444.944444-1.166666 1.944444-2.305555 1.944444-4.972223 0-2.472223-14.083333-6.444445-17.416667.222222-.361111.416667-.75.583334-1.111111 2.361111 2.833334 2.472222 10.666667 5.944444 10.666667.833333 0 1.694444-.777778 2.055556-1.527778 1.555555-3.277778-1.027778-7.055555-2.138889-9.194444zm0 0" fill="none" stroke="#000" stroke-linejoin="round" stroke-miterlimit="3.864" stroke-width="5.718" transform="scale(.140625)"/><g fill="#fff"><path d="m5.316406 6.28125c.480469 0 .199219 1.199219.03125 1.558594-.148437.3125-.476562.757812-.867187.757812-.46875 0-.453125-.523437-.269531-.917968.101562-.214844.257812-.453126.472656-.628907-.054688.183594.128906.308594.054687.464844-.050781.109375-.15625.226563-.210937.34375-.089844.1875-.054688.523437.15625.523437.195312 0 .363281-.238281.433594-.386718.144531-.304688.503906-1.597656.101562-1.597656-.460938 0-1.253906 1.121093-1.421875 1.476562-.296875.628906-.082031 1.402344.59375 1.402344.457031 0 .835937-.441406 1.015625-.824219.101562-.210937.164062-.4375.191406-.671875l.089844-.015625c.019531.589844.644531 1.570313.378906 2.136719-.34375.722656-1.363281.714844-1.945312.972656-.121094-.289062-.289063-.554688-.523438-.757812.519532-.175782 1.796875-.46875 2.074219-1.054688.117187-.246094.039063-.65625-.097656-.796875-.023438.089844-.054688.179687-.09375.265625-.238281.503906-.746094.894531-1.273438.894531-.730469 0-1.039062-.523437-.695312-1.253906.207031-.4375 1.257812-1.890625 1.804687-1.890625m1.25 1.734375c.027344.070313.109375.476563.175782.476563.136718 0 .386718-.375.453124-.472657.121094.078125.054688.25.28125.25.101563 0 .152344-.222656.261719-.226562.003907.089843.007813.171875-.039062.273437-.078125.160156-.265625.375-.453125.375-.136719 0-.320313-.160156-.359375-.160156-.039063 0-.113281.019531-.132813.066406-.097656.207032.160156.894532.421875.894532.140625 0 .304688-.101563.453125-.164063-.039062.246094-.042968.457031.007813.671875-.125.074219-.269531.117188-.414063.117188-.644531 0-.289062-1.492188-.878906-1.808594zm0 0"/><path d="m9.03125 7.898438c.484375 0 .675781.871093.457031 1.332031-.167969.355469-.46875.617187-.851562.617187-.675781 0-.59375-.925781-.328125-1.484375.074218-.152343.320312-.488281.515625-.488281.074219 0 .132812.023438.207031.023438m-.015625.078124c-.078125 0-.144531.039063-.179687.113282-.074219.160156.296874.316406.242187.429687-.03125.070313-.160156.136719-.226563.136719-.320312 0-.316406-.417969-.125-.6875-.121093.074219-.195312.191406-.246093.296875-.191407.398437-.039063.949219.390625.949219.234375 0 .507812-.214844.613281-.441406.132813-.277344-.203125-.796876-.46875-.796876m2.21875 1.355469c-.128906.269531-.363281.414063-.628906.414063-.84375 0-1.011719-.769532-.648438-1.542969.089844-.183594.230469-.382813.445313-.382813.679687 0 1.148437.832032.828125 1.511719zm-.675781-1.414062c-.0625 0-.117188.019531-.144532.085937-.066406.136719.289063.261719.289063.40625-.035156.042969-.140625.09375-.183594.09375-.257812 0-.453125-.351562-.234375-.609375-.089844.058594-.140625.140625-.179687.222657-.222657.46875.09375.945312.558593.945312.191407 0 .4375-.105469.539063-.316406.140625-.300782-.363281-.828125-.644531-.828125" fill-rule="evenodd"/><path d="m12.105469 7.910156c.726562 0 1.09375 1.335938.769531 2.023438-.0625.132812-.175781.261718-.328125.261718-.832031 0-.621094-1.648437-1.085937-2.117187.042968-.046875.082031-.09375.121093-.140625.316407.371094.15625 1.34375.832031 1.34375.15625 0 .273438-.136719.335938-.269531.167969-.351563-.140625-.96875-.480469-.96875-.003906 0-.054687 0-.050781.019531.011719.226562.1875.085938.007812.472656-.179687-.035156-.375-.332031-.273437-.542968.027344-.0625.101563-.082032.152344-.082032"/><path d="m13.910156 7.898438c.070313.003906.171875 0 .230469.015624.011719.003907.003906.019532.003906.027344.019531.101563.046875.199219.070313.296875.097656.378907.152344.765625.261718 1.144531.117188.410157.242188.871094.097657 1.382813-.011719.050781-.03125.101563-.054688.152344-.546875 1.046875-1.710937.765625-2.074219.765625-.046874 0-.09375-.011719-.113281-.042969.152344-.097656.25-.199219.320313-.34375.082031-.175781.078125-.339844.070312-.488281.027344.015625.121094.058594.160156.058594.15625 0 1.035157.453124 1.484376-.378907.117187-.246093.097656-.496093.078124-.707031-.011718-.105469-.023437-.207031-.042968-.308594l-.03125-.148437-.007813-.03125c.019531 0 .003907.03125.003907.046875.007812.253906.003906.609375-.132813.898437-.0625.132813-.164063.273438-.324219.273438-.699218 0-.347656-1.980469-.90625-2.449219.03125-.050781.058594-.105469.082032-.15625.332031.398438.347656 1.5.835937 1.5.117187 0 .238281-.109375.289063-.214844.214843-.460937-.144532-.992187-.300782-1.292968" fill-rule="evenodd"/></g><path d="m14.554688 13.488281-5.558594-2.160156-5.558594 2.160156 2.195312-3.441406-5.632812-2.105469 6.917969.03125 2.078125-3.460937 2.078125 3.460937 6.914062-.03125-5.628906 2.105469z"/><path d="m13.808594 12.863281-4.804688-1.863281-4.804687 1.863281 1.898437-2.96875-4.867187-1.816406 5.976562.027344 1.796875-2.984375 1.796875 2.984375 5.976563-.027344-4.863282 1.816406z" fill="#619cbc"/><path d="m5.316406 6.28125c.480469 0 .199219 1.199219.03125 1.558594-.148437.3125-.476562.757812-.867187.757812-.46875 0-.453125-.523437-.269531-.917968.101562-.214844.257812-.453126.472656-.628907-.054688.183594.128906.308594.054687.464844-.050781.109375-.15625.226563-.210937.34375-.089844.1875-.054688.523437.15625.523437.195312 0 .363281-.238281.433594-.386718.144531-.304688.503906-1.597656.101562-1.597656-.460938 0-1.253906 1.121093-1.421875 1.476562-.296875.628906-.082031 1.402344.59375 1.402344.457031 0 .835937-.441406 1.015625-.824219.101562-.210937.164062-.4375.191406-.671875l.089844-.015625c.019531.589844.644531 1.570313.378906 2.136719-.34375.722656-1.363281.714844-1.945312.972656-.121094-.289062-.289063-.554688-.523438-.757812.519532-.175782 1.796875-.46875 2.074219-1.054688.117187-.246094.039063-.65625-.097656-.796875-.023438.089844-.054688.179687-.09375.265625-.238281.503906-.746094.894531-1.273438.894531-.730469 0-1.039062-.523437-.695312-1.253906.207031-.4375 1.257812-1.890625 1.804687-1.890625"/><path d="m37.805556 44.666667c3.416666 0 1.416666 8.527777.222222 11.083333-1.055556 2.222222-3.388889 5.388889-6.166667 5.388889-3.333333 0-3.222222-3.722222-1.916667-6.527778.722223-1.527778 1.833334-3.222222 3.361112-4.472222-.388889 1.305555.916666 2.194444.388888 3.305555-.361111.777778-1.111111 1.611112-1.5 2.444445-.638888 1.333333-.388888 3.722222 1.111112 3.722222 1.388888 0 2.583333-1.694444 3.083333-2.75 1.027778-2.166667 3.583333-11.361111.722222-11.361111-3.277778 0-8.916667 7.972222-10.111111 10.5-2.111111 4.472222-.583333 9.972222 4.222222 9.972222 3.25 0 5.944445-3.138889 7.222222-5.861111.722223-1.5 1.166667-3.111111 1.361112-4.777778l.638888-.111111c.138889 4.194445 4.583334 11.166667 2.694445 15.194445-2.444445 5.138889-9.694445 5.083333-13.833333 6.916666-.861112-2.055555-2.055556-3.944444-3.722223-5.388889 3.694445-1.25 12.777778-3.333333 14.75-7.5.833334-1.75.277778-4.666666-.694444-5.666666-.166667.638889-.388889 1.277778-.666667 1.888889-1.694444 3.583333-5.305555 6.361111-9.055555 6.361111-5.194445 0-7.388889-3.722222-4.944445-8.916667 1.472222-3.111111 8.944445-13.444444 12.833334-13.444444zm0 0" fill="none" stroke="#000" stroke-linejoin="round" stroke-miterlimit="3.864" stroke-width="5.718" transform="scale(.140625)"/><path d="m6.566406 8.015625c.027344.070313.109375.476563.175782.476563.136718 0 .386718-.375.453124-.472657.121094.078125.054688.25.28125.25.101563 0 .152344-.222656.261719-.226562.003907.089843.007813.171875-.039062.273437-.078125.160156-.265625.375-.453125.375-.136719 0-.320313-.160156-.359375-.160156-.039063 0-.113281.019531-.132813.066406-.097656.207032.160156.894532.421875.894532.140625 0 .304688-.101563.453125-.164063-.039062.246094-.042968.457031.007813.671875-.125.074219-.269531.117188-.414063.117188-.644531 0-.289062-1.492188-.878906-1.808594l.21875-.292969"/><path d="m46.694444 57c.194445.5.777778 3.388889 1.25 3.388889.972223 0 2.75-2.666667 3.222223-3.361111.861111.555555.388889 1.777778 2 1.777778.722222 0 1.083333-1.583334 1.861111-1.611112.027778.638889.055555 1.222223-.277778 1.944445-.555556 1.138889-1.888889 2.666667-3.222222 2.666667-.972222 0-2.277778-1.138889-2.555556-1.138889s-.805555.138889-.944444.472222c-.694445 1.472222 1.138889 6.361111 3 6.361111 1 0 2.166666-.722222 3.222222-1.166667-.277778 1.75-.305556 3.25.055556 4.777778-.888889.527778-1.916667.833333-2.944445.833333-4.583333 0-2.055555-10.611111-6.25-12.861111zm0 0" fill="none" stroke="#000" stroke-linejoin="round" stroke-miterlimit="3.864" stroke-width="5.718" transform="scale(.140625)"/><path d="m9.03125 7.898438c.484375 0 .675781.871093.457031 1.332031-.167969.355469-.46875.617187-.851562.617187-.675781 0-.59375-.925781-.328125-1.484375.074218-.152343.320312-.488281.515625-.488281.074219 0 .132812.023438.207031.023438m-.015625.078124c-.078125 0-.144531.039063-.179687.113282-.074219.160156.296874.316406.242187.429687-.03125.070313-.160156.136719-.226563.136719-.320312 0-.316406-.417969-.125-.6875-.121093.074219-.195312.191406-.246093.296875-.191407.398437-.039063.949219.390625.949219.234375 0 .507812-.214844.613281-.441406.132813-.277344-.203125-.796876-.46875-.796876" fill-rule="evenodd"/><path d="m64.222222 56.166667c3.444445 0 4.805556 6.194444 3.25 9.472222-1.194444 2.527778-3.333333 4.388889-6.055555 4.388889-4.805556 0-4.222223-6.583334-2.333334-10.555556.527778-1.083333 2.277778-3.472222 3.666667-3.472222.527778 0 .944444.166667 1.472222.166667zm0 0" fill="none" stroke="#000" stroke-linejoin="round" stroke-miterlimit="3.864" stroke-width="5.718" transform="scale(.140625)"/><path d="m64.111111 56.722222c-.555555 0-1.027778.277778-1.277778.805556-.527777 1.138889 2.111111 2.25 1.722223 3.055555-.222223.5-1.138889.972223-1.611112.972223-2.277777 0-2.25-2.972223-.888888-4.888889-.861112.527777-1.416667 1.361111-1.75 2.111111-1.361112 2.833333-.277778 6.75 2.777777 6.75 1.666667 0 3.611111-1.527778 4.361111-3.138889.944445-1.944445-1.444444-5.666667-3.333333-5.666667zm0 0" fill="none" stroke="#000" stroke-linejoin="round" stroke-miterlimit="3.864" stroke-width="5.718" transform="scale(.140625)"/><path d="m11.234375 9.332031c-.128906.269531-.363281.414063-.628906.414063-.84375 0-1.011719-.769532-.648438-1.542969.089844-.183594.230469-.382813.445313-.382813.679687 0 1.148437.832032.828125 1.511719zm-.675781-1.414062c-.0625 0-.117188.019531-.144532.085937-.066406.136719.289063.261719.289063.40625-.035156.042969-.140625.09375-.183594.09375-.257812 0-.453125-.351562-.234375-.609375-.089844.058594-.140625.140625-.179687.222657-.222657.46875.09375.945312.558593.945312.191407 0 .4375-.105469.539063-.316406.140625-.300782-.363281-.828125-.644531-.828125" fill-rule="evenodd"/><path d="m79.888889 66.361111c-.916667 1.916667-2.583333 2.944445-4.472222 2.944445-6 0-7.194445-5.472223-4.611111-10.972223.638888-1.305555 1.638888-2.722222 3.166666-2.722222 4.833334 0 8.166667 5.916667 5.888889 10.75zm0 0" fill="none" stroke="#000" stroke-linejoin="round" stroke-miterlimit="3.864" stroke-width="5.718" transform="scale(.140625)"/><path d="m75.083333 56.305556c-.444444 0-.833333.138888-1.027777.611111-.472223.972222 2.055555 1.861111 2.055555 2.888889-.25.305555-1 .666666-1.333333.666666-1.805556 0-3.194445-2.5-1.638889-4.333333-.638889.416667-1 1-1.277778 1.583333-1.583333 3.333334.666667 6.722222 3.972222 6.722222 1.361111 0 3.111111-.75 3.833334-2.25 1-2.138888-2.583334-5.888888-4.583334-5.888888zm0 0" fill="none" stroke="#000" stroke-linejoin="round" stroke-miterlimit="3.864" stroke-width="5.718" transform="scale(.140625)"/><path d="m12.105469 7.910156c.726562 0 1.09375 1.335938.769531 2.023438-.0625.132812-.175781.261718-.328125.261718-.832031 0-.621094-1.648437-1.085937-2.117187.042968-.046875.082031-.09375.121093-.140625.316407.371094.15625 1.34375.832031 1.34375.15625 0 .273438-.136719.335938-.269531.167969-.351563-.140625-.96875-.480469-.96875-.003906 0-.054687 0-.050781.019531.011719.226562.1875.085938.007812.472656-.179687-.035156-.375-.332031-.273437-.542968.027344-.0625.101563-.082032.152344-.082032"/><path d="m86.083333 56.25c5.166667 0 7.777778 9.5 5.472223 14.388889-.444445.944444-1.25 1.861111-2.333334 1.861111-5.916666 0-4.416666-11.722222-7.722222-15.055556.305556-.333333.583333-.666666.861111-1 2.25 2.638889 1.111111 9.555556 5.916667 9.555556 1.111111 0 1.944444-.972222 2.388889-1.916667 1.194444-2.5-1-6.888889-3.416667-6.888889-.027778 0-.388889 0-.361111.138889.083333 1.611111 1.333333.611111.055555 3.361111-1.277777-.25-2.666666-2.361111-1.944444-3.861111.194444-.444444.722222-.583333 1.083333-.583333zm0 0" fill="none" stroke="#000" stroke-linejoin="round" stroke-miterlimit="3.864" stroke-width="5.718" transform="scale(.140625)"/><path d="m13.910156 7.898438c.070313.003906.171875 0 .230469.015624.011719.003907.003906.019532.003906.027344.019531.101563.046875.199219.070313.296875.097656.378907.152344.765625.261718 1.144531.117188.410157.242188.871094.097657 1.382813-.011719.050781-.03125.101563-.054688.152344-.164062.34375-1.5625.742187-1.925781.742187-.042969 0-.09375-.015625-.113281-.042968.152343-.097657.25-.199219.320312-.34375.082031-.175782.078125-.339844.070313-.488282.027344.015625 1.101562-.011718 1.140625-.011718.15625 0 .292969-.152344.355469-.285157.117187-.246093.097656-.496093.078124-.707031-.011718-.105469-.023437-.207031-.042968-.308594l-.03125-.148437-.007813-.03125c.019531 0 .003907.03125.003907.046875.007812.253906.003906.609375-.132813.898437-.0625.132813-.164063.273438-.324219.273438-.699218 0-.347656-1.980469-.90625-2.449219.03125-.050781.058594-.105469.082032-.15625.332031.398438.347656 1.5.835937 1.5.117187 0 .238281-.109375.289063-.214844.214843-.460937-.144532-.992187-.300782-1.292968" fill-rule="evenodd"/><path d="m98.916667 56.166667c.5.027777 1.222222 0 1.638889.111111.083333.027778.027777.138889.027777.194444.138889.722222.333334 1.416667.5 2.111111.694445 2.694445 1.083334 5.444445 1.861111 8.138889.833334 2.916667 1.722223 6.194445.694445 9.833334-.083333.361111-.222222.722222-.388889 1.083333-1.166667 2.444444-11.111111 5.277778-13.694444 5.277778-.305556 0-.666667-.111111-.805556-.305556 1.083333-.694444 1.777778-1.416667 2.277778-2.444444.583333-1.25.555555-2.416667.5-3.472223.194444.111112 7.833333-.083333 8.111111-.083333 1.111111 0 2.083333-1.083333 2.527778-2.027778.833333-1.75.694444-3.527777.555555-5.027777-.083333-.75-.166666-1.472223-.305555-2.194445l-.222223-1.055555-.055555-.222223c.138889 0 .027778.222223.027778.333334.055555 1.805555.027777 4.333333-.944445 6.388889-.444444.944444-1.166666 1.944444-2.305555 1.944444-4.972223 0-2.472223-14.083333-6.444445-17.416667.222222-.361111.416667-.75.583334-1.111111 2.361111 2.833334 2.472222 10.666667 5.944444 10.666667.833333 0 1.694444-.777778 2.055556-1.527778 1.527777-3.277778-1.027778-7.055555-2.138889-9.194444zm0 0" fill="none" stroke="#000" stroke-linejoin="round" stroke-miterlimit="3.864" stroke-width="5.718" transform="scale(.140625)"/><path d="m5.316406 6.28125c.480469 0 .199219 1.199219.03125 1.558594-.148437.3125-.476562.757812-.867187.757812-.46875 0-.453125-.523437-.269531-.917968.101562-.214844.257812-.453126.472656-.628907-.054688.183594.128906.308594.054687.464844-.050781.109375-.15625.226563-.210937.34375-.089844.1875-.054688.523437.15625.523437.195312 0 .363281-.238281.433594-.386718.144531-.304688.503906-1.597656.101562-1.597656-.460938 0-1.253906 1.121093-1.421875 1.476562-.296875.628906-.082031 1.402344.59375 1.402344.457031 0 .835937-.441406 1.015625-.824219.101562-.210937.164062-.4375.191406-.671875l.089844-.015625c.019531.589844.644531 1.570313.378906 2.136719-.34375.722656-1.363281.714844-1.945312.972656-.121094-.289062-.289063-.554688-.523438-.757812.519532-.175782 1.796875-.46875 2.074219-1.054688.117187-.246094.039063-.65625-.097656-.796875-.023438.089844-.054688.179687-.09375.265625-.238281.503906-.746094.894531-1.273438.894531-.730469 0-1.039062-.523437-.695312-1.253906.207031-.4375 1.257812-1.890625 1.804687-1.890625"/><path d="m37.805556 44.666667c3.416666 0 1.416666 8.527777.222222 11.083333-1.055556 2.222222-3.388889 5.388889-6.166667 5.388889-3.333333 0-3.222222-3.722222-1.916667-6.527778.722223-1.527778 1.833334-3.222222 3.361112-4.472222-.388889 1.305555.916666 2.194444.388888 3.305555-.361111.777778-1.111111 1.611112-1.5 2.444445-.638888 1.333333-.388888 3.722222 1.111112 3.722222 1.388888 0 2.583333-1.694444 3.083333-2.75 1.027778-2.166667 3.583333-11.361111.722222-11.361111-3.277778 0-8.916667 7.972222-10.111111 10.5-2.111111 4.472222-.583333 9.972222 4.222222 9.972222 3.25 0 5.944445-3.138889 7.222222-5.861111.722223-1.5 1.166667-3.111111 1.361112-4.777778l.638888-.111111c.138889 4.194445 4.583334 11.166667 2.694445 15.194445-2.444445 5.138889-9.694445 5.083333-13.833333 6.916666-.861112-2.055555-2.055556-3.944444-3.722223-5.388889 3.694445-1.25 12.777778-3.333333 14.75-7.5.833334-1.75.277778-4.666666-.694444-5.666666-.166667.638889-.388889 1.277778-.666667 1.888889-1.694444 3.583333-5.305555 6.361111-9.055555 6.361111-5.194445 0-7.388889-3.722222-4.944445-8.916667 1.472222-3.111111 8.944445-13.444444 12.833334-13.444444zm0 0" fill="none" stroke="#000" stroke-miterlimit="3.864" stroke-width=".477" transform="scale(.140625)"/><path d="m6.566406 8.015625c.027344.070313.109375.476563.175782.476563.136718 0 .386718-.375.453124-.472657.121094.078125.054688.25.28125.25.101563 0 .152344-.222656.261719-.226562.003907.089843.007813.171875-.039062.273437-.078125.160156-.265625.375-.453125.375-.136719 0-.320313-.160156-.359375-.160156-.039063 0-.113281.019531-.132813.066406-.097656.207032.160156.894532.421875.894532.140625 0 .304688-.101563.453125-.164063-.039062.246094-.042968.457031.007813.671875-.125.074219-.269531.117188-.414063.117188-.644531 0-.289062-1.492188-.878906-1.808594l.21875-.292969"/><path d="m46.694444 57c.194445.5.777778 3.388889 1.25 3.388889.972223 0 2.75-2.666667 3.222223-3.361111.861111.555555.388889 1.777778 2 1.777778.722222 0 1.083333-1.583334 1.861111-1.611112.027778.638889.055555 1.222223-.277778 1.944445-.555556 1.138889-1.888889 2.666667-3.222222 2.666667-.972222 0-2.277778-1.138889-2.555556-1.138889s-.805555.138889-.944444.472222c-.694445 1.472222 1.138889 6.361111 3 6.361111 1 0 2.166666-.722222 3.222222-1.166667-.277778 1.75-.305556 3.25.055556 4.777778-.888889.527778-1.916667.833333-2.944445.833333-4.583333 0-2.055555-10.611111-6.25-12.861111zm0 0" fill="none" stroke="#000" stroke-miterlimit="3.864" stroke-width=".477" transform="scale(.140625)"/><path d="m9.03125 7.898438c.484375 0 .675781.871093.457031 1.332031-.167969.355469-.46875.617187-.851562.617187-.675781 0-.59375-.925781-.328125-1.484375.074218-.152343.320312-.488281.515625-.488281.074219 0 .132812.023438.207031.023438m-.015625.078124c-.078125 0-.144531.039063-.179687.113282-.074219.160156.296874.316406.242187.429687-.03125.070313-.160156.136719-.226563.136719-.320312 0-.316406-.417969-.125-.6875-.121093.074219-.195312.191406-.246093.296875-.191407.398437-.039063.949219.390625.949219.234375 0 .507812-.214844.613281-.441406.132813-.277344-.203125-.796876-.46875-.796876" fill-rule="evenodd"/><path d="m64.222222 56.166667c3.444445 0 4.805556 6.194444 3.25 9.472222-1.194444 2.527778-3.333333 4.388889-6.055555 4.388889-4.805556 0-4.222223-6.583334-2.333334-10.555556.527778-1.083333 2.277778-3.472222 3.666667-3.472222.527778 0 .944444.166667 1.472222.166667zm0 0" fill="none" stroke="#000" stroke-miterlimit="3.864" stroke-width=".477" transform="scale(.140625)"/><path d="m64.111111 56.722222c-.555555 0-1.027778.277778-1.277778.805556-.527777 1.138889 2.111111 2.25 1.722223 3.055555-.222223.5-1.138889.972223-1.611112.972223-2.277777 0-2.25-2.972223-.888888-4.888889-.861112.527777-1.416667 1.361111-1.75 2.111111-1.361112 2.833333-.277778 6.75 2.777777 6.75 1.666667 0 3.611111-1.527778 4.361111-3.138889.944445-1.944445-1.444444-5.666667-3.333333-5.666667zm0 0" fill="none" stroke="#000" stroke-miterlimit="3.864" stroke-width=".477" transform="scale(.140625)"/><path d="m11.234375 9.332031c-.128906.269531-.363281.414063-.628906.414063-.84375 0-1.011719-.769532-.648438-1.542969.089844-.183594.230469-.382813.445313-.382813.679687 0 1.148437.832032.828125 1.511719zm-.675781-1.414062c-.0625 0-.117188.019531-.144532.085937-.066406.136719.289063.261719.289063.40625-.035156.042969-.140625.09375-.183594.09375-.257812 0-.453125-.351562-.234375-.609375-.089844.058594-.140625.140625-.179687.222657-.222657.46875.09375.945312.558593.945312.191407 0 .4375-.105469.539063-.316406.140625-.300782-.363281-.828125-.644531-.828125" fill-rule="evenodd"/><path d="m79.888889 66.361111c-.916667 1.916667-2.583333 2.944445-4.472222 2.944445-6 0-7.194445-5.472223-4.611111-10.972223.638888-1.305555 1.638888-2.722222 3.166666-2.722222 4.833334 0 8.166667 5.916667 5.888889 10.75zm0 0" fill="none" stroke="#000" stroke-miterlimit="3.864" stroke-width=".477" transform="scale(.140625)"/><path d="m75.083333 56.305556c-.444444 0-.833333.138888-1.027777.611111-.472223.972222 2.055555 1.861111 2.055555 2.888889-.25.305555-1 .666666-1.333333.666666-1.805556 0-3.194445-2.5-1.638889-4.333333-.638889.416667-1 1-1.277778 1.583333-1.583333 3.333334.666667 6.722222 3.972222 6.722222 1.361111 0 3.111111-.75 3.833334-2.25 1-2.138888-2.583334-5.888888-4.583334-5.888888zm0 0" fill="none" stroke="#000" stroke-miterlimit="3.864" stroke-width=".477" transform="scale(.140625)"/><path d="m12.105469 7.910156c.726562 0 1.09375 1.335938.769531 2.023438-.0625.132812-.175781.261718-.328125.261718-.832031 0-.621094-1.648437-1.085937-2.117187.042968-.046875.082031-.09375.121093-.140625.316407.371094.15625 1.34375.832031 1.34375.15625 0 .273438-.136719.335938-.269531.167969-.351563-.140625-.96875-.480469-.96875-.003906 0-.054687 0-.050781.019531.011719.226562.1875.085938.007812.472656-.179687-.035156-.375-.332031-.273437-.542968.027344-.0625.101563-.082032.152344-.082032"/><path d="m86.083333 56.25c5.166667 0 7.777778 9.5 5.472223 14.388889-.444445.944444-1.25 1.861111-2.333334 1.861111-5.916666 0-4.416666-11.722222-7.722222-15.055556.305556-.333333.583333-.666666.861111-1 2.25 2.638889 1.111111 9.555556 5.916667 9.555556 1.111111 0 1.944444-.972222 2.388889-1.916667 1.194444-2.5-1-6.888889-3.416667-6.888889-.027778 0-.388889 0-.361111.138889.083333 1.611111 1.333333.611111.055555 3.361111-1.277777-.25-2.666666-2.361111-1.944444-3.861111.194444-.444444.722222-.583333 1.083333-.583333zm0 0" fill="none" stroke="#000" stroke-miterlimit="3.864" stroke-width=".477" transform="scale(.140625)"/><path d="m13.910156 7.898438c.070313.003906.171875 0 .230469.015624.011719.003907.003906.019532.003906.027344.019531.101563.046875.199219.070313.296875.097656.378907.152344.765625.261718 1.144531.117188.410157.242188.871094.097657 1.382813-.011719.050781-.03125.101563-.054688.152344-.164062.34375-.582031.671875-.945312.671875-.042969 0-.09375-.011719-.113281-.042969.152343-.097656.25-.195313.320312-.34375.082031-.171875.078125-.335937.070312-.488281.027344.019531.121094.058594.160157.058594.15625 0 .292969-.152344.355469-.285157.117187-.246093.097656-.496093.078124-.707031-.011718-.105469-.023437-.207031-.042968-.308594l-.03125-.148437-.007813-.03125c.019531 0 .003907.03125.003907.046875.007812.253906.003906.609375-.132813.898437-.0625.132813-.164063.273438-.324219.273438-.699218 0-.347656-1.980469-.90625-2.449219.03125-.050781.058594-.105469.082032-.15625.332031.398438.347656 1.5.835937 1.5.117187 0 .238281-.109375.289063-.214844.21875-.460937-.144532-.992187-.300782-1.292968" fill-rule="evenodd"/><path d="m98.916667 56.166667c.5.027777 1.222222 0 1.638889.111111.083333.027778.027777.138889.027777.194444.138889.722222.333334 1.416667.5 2.111111.694445 2.694445 1.083334 5.444445 1.861111 8.138889.833334 2.916667 1.722223 6.194445.694445 9.833334-.083333.361111-.222222.722222-.388889 1.083333-1.166667 2.444444-4.138889 4.777778-6.722222 4.777778-.305556 0-.666667-.083334-.805556-.305556 1.083334-.694444 1.777778-1.388889 2.277778-2.444444.583333-1.222223.555556-2.388889.5-3.472223.194444.138889.861111.416667 1.138889.416667 1.111111 0 2.083333-1.083333 2.527778-2.027778.833333-1.75.694444-3.527777.555555-5.027777-.083333-.75-.166666-1.472223-.305555-2.194445l-.222223-1.055555-.055555-.222223c.138889 0 .027778.222223.027778.333334.055555 1.805555.027777 4.333333-.944445 6.388889-.444444.944444-1.166666 1.944444-2.305555 1.944444-4.972223 0-2.472223-14.083333-6.444445-17.416667.222222-.361111.416667-.75.583334-1.111111 2.361111 2.833334 2.472222 10.666667 5.944444 10.666667.833333 0 1.694444-.777778 2.055556-1.527778 1.555555-3.277778-1.027778-7.055555-2.138889-9.194444zm0 0" fill="none" stroke="#000" stroke-miterlimit="3.864" stroke-width=".477" transform="scale(.140625)"/><path d="m5.316406 6.28125c.480469 0 .199219 1.199219.03125 1.558594-.148437.3125-.476562.757812-.867187.757812-.46875 0-.453125-.523437-.269531-.917968.101562-.214844.257812-.453126.472656-.628907-.054688.183594.128906.308594.054687.464844-.050781.109375-.15625.226563-.210937.34375-.089844.1875-.054688.523437.15625.523437.195312 0 .363281-.238281.433594-.386718.144531-.304688.503906-1.597656.101562-1.597656-.460938 0-1.253906 1.121093-1.421875 1.476562-.296875.628906-.082031 1.402344.59375 1.402344.457031 0 .835937-.441406 1.015625-.824219.101562-.210937.164062-.4375.191406-.671875l.089844-.015625c.019531.589844.644531 1.570313.378906 2.136719-.34375.722656-1.363281.714844-1.945312.972656-.121094-.289062-.289063-.554688-.523438-.757812.519532-.175782 1.796875-.46875 2.074219-1.054688.117187-.246094.039063-.65625-.097656-.796875-.023438.089844-.054688.179687-.09375.265625-.238281.503906-.746094.894531-1.273438.894531-.730469 0-1.039062-.523437-.695312-1.253906.207031-.4375 1.257812-1.890625 1.804687-1.890625"/><path d="m37.805556 44.666667c3.416666 0 1.416666 8.527777.222222 11.083333-1.055556 2.222222-3.388889 5.388889-6.166667 5.388889-3.333333 0-3.222222-3.722222-1.916667-6.527778.722223-1.527778 1.833334-3.222222 3.361112-4.472222-.388889 1.305555.916666 2.194444.388888 3.305555-.361111.777778-1.111111 1.611112-1.5 2.444445-.638888 1.333333-.388888 3.722222 1.111112 3.722222 1.388888 0 2.583333-1.694444 3.083333-2.75 1.027778-2.166667 3.583333-11.361111.722222-11.361111-3.277778 0-8.916667 7.972222-10.111111 10.5-2.111111 4.472222-.583333 9.972222 4.222222 9.972222 3.25 0 5.944445-3.138889 7.222222-5.861111.722223-1.5 1.166667-3.111111 1.361112-4.777778l.638888-.111111c.138889 4.194445 4.583334 11.166667 2.694445 15.194445-2.444445 5.138889-9.694445 5.083333-13.833333 6.916666-.861112-2.055555-2.055556-3.944444-3.722223-5.388889 3.694445-1.25 12.777778-3.333333 14.75-7.5.833334-1.75.277778-4.666666-.694444-5.666666-.166667.638889-.388889 1.277778-.666667 1.888889-1.694444 3.583333-5.305555 6.361111-9.055555 6.361111-5.194445 0-7.388889-3.722222-4.944445-8.916667 1.472222-3.111111 8.944445-13.444444 12.833334-13.444444zm0 0" fill="none" stroke="#000" stroke-linejoin="round" stroke-miterlimit="3.864" stroke-width="5.718" transform="scale(.140625)"/><path d="m6.566406 8.015625c.027344.070313.109375.476563.175782.476563.136718 0 .386718-.375.453124-.472657.121094.078125.054688.25.28125.25.101563 0 .152344-.222656.261719-.226562.003907.089843.007813.171875-.039062.273437-.078125.160156-.265625.375-.453125.375-.136719 0-.320313-.160156-.359375-.160156-.039063 0-.113281.019531-.132813.066406-.097656.207032.160156.894532.421875.894532.140625 0 .304688-.101563.453125-.164063-.039062.246094-.042968.457031.007813.671875-.125.074219-.269531.117188-.414063.117188-.644531 0-.289062-1.492188-.878906-1.808594l.21875-.292969"/><path d="m46.694444 57c.194445.5.777778 3.388889 1.25 3.388889.972223 0 2.75-2.666667 3.222223-3.361111.861111.555555.388889 1.777778 2 1.777778.722222 0 1.083333-1.583334 1.861111-1.611112.027778.638889.055555 1.222223-.277778 1.944445-.555556 1.138889-1.888889 2.666667-3.222222 2.666667-.972222 0-2.277778-1.138889-2.555556-1.138889s-.805555.138889-.944444.472222c-.694445 1.472222 1.138889 6.361111 3 6.361111 1 0 2.166666-.722222 3.222222-1.166667-.277778 1.75-.305556 3.25.055556 4.777778-.888889.527778-1.916667.833333-2.944445.833333-4.583333 0-2.055555-10.611111-6.25-12.861111zm0 0" fill="none" stroke="#000" stroke-linejoin="round" stroke-miterlimit="3.864" stroke-width="5.718" transform="scale(.140625)"/><path d="m9.03125 7.898438c.484375 0 .675781.871093.457031 1.332031-.167969.355469-.46875.617187-.851562.617187-.675781 0-.59375-.925781-.328125-1.484375.074218-.152343.320312-.488281.515625-.488281.074219 0 .132812.023438.207031.023438m-.015625.078124c-.078125 0-.144531.039063-.179687.113282-.074219.160156.296874.316406.242187.429687-.03125.070313-.160156.136719-.226563.136719-.320312 0-.316406-.417969-.125-.6875-.121093.074219-.195312.191406-.246093.296875-.191407.398437-.039063.949219.390625.949219.234375 0 .507812-.214844.613281-.441406.132813-.277344-.203125-.796876-.46875-.796876" fill-rule="evenodd"/><path d="m64.222222 56.166667c3.444445 0 4.805556 6.194444 3.25 9.472222-1.194444 2.527778-3.333333 4.388889-6.055555 4.388889-4.805556 0-4.222223-6.583334-2.333334-10.555556.527778-1.083333 2.277778-3.472222 3.666667-3.472222.527778 0 .944444.166667 1.472222.166667zm0 0" fill="none" stroke="#000" stroke-linejoin="round" stroke-miterlimit="3.864" stroke-width="5.718" transform="scale(.140625)"/><path d="m64.111111 56.722222c-.555555 0-1.027778.277778-1.277778.805556-.527777 1.138889 2.111111 2.25 1.722223 3.055555-.222223.5-1.138889.972223-1.611112.972223-2.277777 0-2.25-2.972223-.888888-4.888889-.861112.527777-1.416667 1.361111-1.75 2.111111-1.361112 2.833333-.277778 6.75 2.777777 6.75 1.666667 0 3.611111-1.527778 4.361111-3.138889.944445-1.944445-1.444444-5.666667-3.333333-5.666667zm0 0" fill="none" stroke="#000" stroke-linejoin="round" stroke-miterlimit="3.864" stroke-width="5.718" transform="scale(.140625)"/><path d="m11.234375 9.332031c-.128906.269531-.363281.414063-.628906.414063-.84375 0-1.011719-.769532-.648438-1.542969.089844-.183594.230469-.382813.445313-.382813.679687 0 1.148437.832032.828125 1.511719zm-.675781-1.414062c-.0625 0-.117188.019531-.144532.085937-.066406.136719.289063.261719.289063.40625-.035156.042969-.140625.09375-.183594.09375-.257812 0-.453125-.351562-.234375-.609375-.089844.058594-.140625.140625-.179687.222657-.222657.46875.09375.945312.558593.945312.191407 0 .4375-.105469.539063-.316406.140625-.300782-.363281-.828125-.644531-.828125" fill-rule="evenodd"/><path d="m79.888889 66.361111c-.916667 1.916667-2.583333 2.944445-4.472222 2.944445-6 0-7.194445-5.472223-4.611111-10.972223.638888-1.305555 1.638888-2.722222 3.166666-2.722222 4.833334 0 8.166667 5.916667 5.888889 10.75zm0 0" fill="none" stroke="#000" stroke-linejoin="round" stroke-miterlimit="3.864" stroke-width="5.718" transform="scale(.140625)"/><path d="m75.083333 56.305556c-.444444 0-.833333.138888-1.027777.611111-.472223.972222 2.055555 1.861111 2.055555 2.888889-.25.305555-1 .666666-1.333333.666666-1.805556 0-3.194445-2.5-1.638889-4.333333-.638889.416667-1 1-1.277778 1.583333-1.583333 3.333334.666667 6.722222 3.972222 6.722222 1.361111 0 3.111111-.75 3.833334-2.25 1-2.138888-2.583334-5.888888-4.583334-5.888888zm0 0" fill="none" stroke="#000" stroke-linejoin="round" stroke-miterlimit="3.864" stroke-width="5.718" transform="scale(.140625)"/><path d="m12.105469 7.910156c.726562 0 1.09375 1.335938.769531 2.023438-.0625.132812-.175781.261718-.328125.261718-.832031 0-.621094-1.648437-1.085937-2.117187.042968-.046875.082031-.09375.121093-.140625.316407.371094.15625 1.34375.832031 1.34375.15625 0 .273438-.136719.335938-.269531.167969-.351563-.140625-.96875-.480469-.96875-.003906 0-.054687 0-.050781.019531.011719.226562.1875.085938.007812.472656-.179687-.035156-.375-.332031-.273437-.542968.027344-.0625.101563-.082032.152344-.082032"/><path d="m86.083333 56.25c5.166667 0 7.777778 9.5 5.472223 14.388889-.444445.944444-1.25 1.861111-2.333334 1.861111-5.916666 0-4.416666-11.722222-7.722222-15.055556.305556-.333333.583333-.666666.861111-1 2.25 2.638889 1.111111 9.555556 5.916667 9.555556 1.111111 0 1.944444-.972222 2.388889-1.916667 1.194444-2.5-1-6.888889-3.416667-6.888889-.027778 0-.388889 0-.361111.138889.083333 1.611111 1.333333.611111.055555 3.361111-1.277777-.25-2.666666-2.361111-1.944444-3.861111.194444-.444444.722222-.583333 1.083333-.583333zm0 0" fill="none" stroke="#000" stroke-linejoin="round" stroke-miterlimit="3.864" stroke-width="5.718" transform="scale(.140625)"/><path d="m13.910156 7.898438c.070313.003906.171875 0 .230469.015624.011719.003907.003906.019532.003906.027344.019531.101563.046875.199219.070313.296875.097656.378907.152344.765625.261718 1.144531.117188.410157.242188.871094.097657 1.382813-.011719.050781-.03125.101563-.054688.152344-.164062.34375-.582031.671875-.945312.671875-.042969 0-.09375-.011719-.113281-.042969.152343-.097656.25-.195313.320312-.34375.082031-.171875.078125-.335937.070312-.488281.027344.019531.121094.058594.160157.058594.15625 0 .292969-.152344.355469-.285157.117187-.246093.097656-.496093.078124-.707031-.011718-.105469-.023437-.207031-.042968-.308594l-.03125-.148437-.007813-.03125c.019531 0 .003907.03125.003907.046875.007812.253906.003906.609375-.132813.898437-.0625.132813-.164063.273438-.324219.273438-.699218 0-.347656-1.980469-.90625-2.449219.03125-.050781.058594-.105469.082032-.15625.332031.398438.347656 1.5.835937 1.5.117187 0 .238281-.109375.289063-.214844.21875-.460937-.144532-.992187-.300782-1.292968" fill-rule="evenodd"/><path d="m98.916667 56.166667c.5.027777 1.222222 0 1.638889.111111.083333.027778.027777.138889.027777.194444.138889.722222.333334 1.416667.5 2.111111.694445 2.694445 1.083334 5.444445 1.861111 8.138889.833334 2.916667 1.722223 6.194445.694445 9.833334-.083333.361111-.222222.722222-.388889 1.083333-1.166667 2.444444-4.138889 4.777778-6.722222 4.777778-.305556 0-.666667-.083334-.805556-.305556 1.083334-.694444 1.777778-1.388889 2.277778-2.444444.583333-1.222223.555556-2.388889.5-3.472223.194444.138889.861111.416667 1.138889.416667 1.111111 0 2.083333-1.083333 2.527778-2.027778.833333-1.75.694444-3.527777.555555-5.027777-.083333-.75-.166666-1.472223-.305555-2.194445l-.222223-1.055555-.055555-.222223c.138889 0 .027778.222223.027778.333334.055555 1.805555.027777 4.333333-.944445 6.388889-.444444.944444-1.166666 1.944444-2.305555 1.944444-4.972223 0-2.472223-14.083333-6.444445-17.416667.222222-.361111.416667-.75.583334-1.111111 2.361111 2.833334 2.472222 10.666667 5.944444 10.666667.833333 0 1.694444-.777778 2.055556-1.527778 1.555555-3.277778-1.027778-7.055555-2.138889-9.194444zm0 0" fill="none" stroke="#000" stroke-linejoin="round" stroke-miterlimit="3.864" stroke-width="5.718" transform="scale(.140625)"/><g fill="#fff"><path d="m5.316406 6.28125c.480469 0 .199219 1.199219.03125 1.558594-.148437.3125-.476562.757812-.867187.757812-.46875 0-.453125-.523437-.269531-.917968.101562-.214844.257812-.453126.472656-.628907-.054688.183594.128906.308594.054687.464844-.050781.109375-.15625.226563-.210937.34375-.089844.1875-.054688.523437.15625.523437.195312 0 .363281-.238281.433594-.386718.144531-.304688.503906-1.597656.101562-1.597656-.460938 0-1.253906 1.121093-1.421875 1.476562-.296875.628906-.082031 1.402344.59375 1.402344.457031 0 .835937-.441406 1.015625-.824219.101562-.210937.164062-.4375.191406-.671875l.089844-.015625c.019531.589844.644531 1.570313.378906 2.136719-.34375.722656-1.363281.714844-1.945312.972656-.121094-.289062-.289063-.554688-.523438-.757812.519532-.175782 1.796875-.46875 2.074219-1.054688.117187-.246094.039063-.65625-.097656-.796875-.023438.089844-.054688.179687-.09375.265625-.238281.503906-.746094.894531-1.273438.894531-.730469 0-1.039062-.523437-.695312-1.253906.207031-.4375 1.257812-1.890625 1.804687-1.890625m1.25 1.734375c.027344.070313.109375.476563.175782.476563.136718 0 .386718-.375.453124-.472657.121094.078125.054688.25.28125.25.101563 0 .152344-.222656.261719-.226562.003907.089843.007813.171875-.039062.273437-.078125.160156-.265625.375-.453125.375-.136719 0-.320313-.160156-.359375-.160156-.039063 0-.113281.019531-.132813.066406-.097656.207032.160156.894532.421875.894532.140625 0 .304688-.101563.453125-.164063-.039062.246094-.042968.457031.007813.671875-.125.074219-.269531.117188-.414063.117188-.644531 0-.289062-1.492188-.878906-1.808594zm0 0"/><path d="m9.03125 7.898438c.484375 0 .675781.871093.457031 1.332031-.167969.355469-.46875.617187-.851562.617187-.675781 0-.59375-.925781-.328125-1.484375.074218-.152343.320312-.488281.515625-.488281.074219 0 .132812.023438.207031.023438m-.015625.078124c-.078125 0-.144531.039063-.179687.113282-.074219.160156.296874.316406.242187.429687-.03125.070313-.160156.136719-.226563.136719-.320312 0-.316406-.417969-.125-.6875-.121093.074219-.195312.191406-.246093.296875-.191407.398437-.039063.949219.390625.949219.234375 0 .507812-.214844.613281-.441406.132813-.277344-.203125-.796876-.46875-.796876m2.21875 1.355469c-.128906.269531-.363281.414063-.628906.414063-.84375 0-1.011719-.769532-.648438-1.542969.089844-.183594.230469-.382813.445313-.382813.679687 0 1.148437.832032.828125 1.511719zm-.675781-1.414062c-.0625 0-.117188.019531-.144532.085937-.066406.136719.289063.261719.289063.40625-.035156.042969-.140625.09375-.183594.09375-.257812 0-.453125-.351562-.234375-.609375-.089844.058594-.140625.140625-.179687.222657-.222657.46875.09375.945312.558593.945312.191407 0 .4375-.105469.539063-.316406.140625-.300782-.363281-.828125-.644531-.828125" fill-rule="evenodd"/><path d="m12.105469 7.910156c.726562 0 1.09375 1.335938.769531 2.023438-.0625.132812-.175781.261718-.328125.261718-.832031 0-.621094-1.648437-1.085937-2.117187.042968-.046875.082031-.09375.121093-.140625.316407.371094.15625 1.34375.832031 1.34375.15625 0 .273438-.136719.335938-.269531.167969-.351563-.140625-.96875-.480469-.96875-.003906 0-.054687 0-.050781.019531.011719.226562.1875.085938.007812.472656-.179687-.035156-.375-.332031-.273437-.542968.027344-.0625.101563-.082032.152344-.082032"/><path d="m13.910156 7.898438c.070313.003906.171875 0 .230469.015624.011719.003907.003906.019532.003906.027344.019531.101563.046875.199219.070313.296875.097656.378907.152344.765625.261718 1.144531.117188.410157.242188.871094.097657 1.382813-.011719.050781-.03125.101563-.054688.152344-.546875 1.046875-1.710937.765625-2.074219.765625-.046874 0-.09375-.011719-.113281-.042969.152344-.097656.25-.199219.320313-.34375.082031-.175781.078125-.339844.070312-.488281.027344.015625.121094.058594.160156.058594.15625 0 1.035157.453124 1.484376-.378907.117187-.246093.097656-.496093.078124-.707031-.011718-.105469-.023437-.207031-.042968-.308594l-.03125-.148437-.007813-.03125c.019531 0 .003907.03125.003907.046875.007812.253906.003906.609375-.132813.898437-.0625.132813-.164063.273438-.324219.273438-.699218 0-.347656-1.980469-.90625-2.449219.03125-.050781.058594-.105469.082032-.15625.332031.398438.347656 1.5.835937 1.5.117187 0 .238281-.109375.289063-.214844.214843-.460937-.144532-.992187-.300782-1.292968" fill-rule="evenodd"/></g></svg>