<svg height="18" viewBox="0 0 18 18" width="18" xmlns="http://www.w3.org/2000/svg"><path d="m13.988281 9.453125c.402344-.234375.824219-.46875 1.167969-.777344.574219-.515625.496094-1.269531-.113281-1.738281-.113281-.089844-.253907-.199219-.28125-.324219-.113281-.492187-.210938-.992187.128906-1.457031.105469-.152344.171875-.34375.222656-.523438.164063-.5625-.09375-1.035156-.648437-1.21875-.097656-.03125-.203125-.050781-.304688-.0625-.140625-.019531-.207031-.082031-.230468-.234374-.074219-.550782.070312-.855469.585937-1.085938.269531-.121094.5625-.191406.847656-.28125-.40625-.6875-1.53125-1.078125-2.472656-.824219-.757813.203125-1.289063.699219-1.789063 1.261719-.050781.058594-.167968.097656-.25.089844-.242187-.011719-.234374-.207032-.195312-.367188.074219-.332031.175781-.660156.269531-1-.433593.011719-.765625.25-1.089843.507813-.023438-.035157-.039063.007812-.046876-.015625-.164062-.386719-.125-.699219-.058593-1.121094h-.050781c-.59375.28125-1.144532.566406-1.265626 1.3125l-.09375-.042969c-.0625-.296875-.125-.605469-.195312-.933593-.539062.363281-.835938.828124-.917969 1.441406-.011719.085937-.058593.160156-.089843.242187-.082032-.042969-.183594-.074219-.242188-.140625-.558594-.648437-1.191406-1.164062-2.082031-1.296875-.789063-.121093-1.761719.261719-2.132813.875.328125.121094.671875.21875.980469.378907.375.191406.496094.507812.457031.863281-.027344.257812-.128906.359375-.398437.394531-.582031.074219-.925781.535156-.839844 1.117188.027344.199218.089844.429687.214844.578124.289062.351563.257812.746094.246093 1.144532-.003906.3125-.117187.5625-.386718.753906-.582032.421875-.652344 1.195312-.117188 1.675781.351563.316407.773438.558594 1.183594.800781.308594.179688.511719.429688.527344.761719.023437.546875-.007813 1.097657-.023438 1.648438-.007812.222656-.042968.441406-.066406.707031-.472656-.425781-.730469-.90625-.859375-1.492188-.503906.5-.714844 1.074219-.746094 1.738282-.050781 1.1875.460938 2.035156 1.527344 2.53125.09375.039062.171875.136718.226563.226562.445312.785156 1.085937 1.304688 1.980468 1.488282.101563.023437.222656.023437.296875.082031.492188.367187 1.050781.546875 1.648438.597656.90625.082031 1.777343-.015625 2.554687-.546875.074219-.050781.167969-.09375.257813-.109375.933593-.160156 1.601562-.679687 2.078125-1.480469.074218-.125.199218-.238281.328125-.300781.539062-.261719.964843-.625 1.203125-1.183594.246094-.558593.308594-1.148437.195312-1.742187-.09375-.488282-.296875-.9375-.710937-1.289063-.125.585938-.382813 1.066407-.859375 1.4375-.058594-.785156-.101563-1.570312-.078125-2.351562.007812-.296875.214843-.546875.507812-.714844m.332031-7.851563c-.160156.027344-.320312.082032-.484374.082032-.757813-.011719-1.304688.351562-1.734376.9375l-.058593.085937-.042969.035157-.355469-.167969c.582031-1.0625 1.746094-1.496094 2.675781-.972657m-.792968.503907c-.058594.335937-.113282.65625-.167969.976562-.023437.152344-.054687.289063-.238281.332031-.175782.042969-.285156.015626-.425782-.125-.183593-.183593-.164062-.324218-.0625-.519531.203126-.375.480469-.628906.894532-.664062m-9.832032-.527344c.90625-.492187 2.03125-.09375 2.667969.988281l-.367187.183594.09375-.121094c-.246094-.191406-.492188-.386718-.742188-.574218-.347656-.265626-.742187-.371094-1.171875-.371094-.164062 0-.324219-.054688-.480469-.105469m1.753907 1.417969c.007812.148437-.179688.359375-.335938.441406-.085937.042969-.328125-.085938-.414062-.199219-.089844-.117187-.078125-.3125-.105469-.476562-.019531-.109375-.023438-.222657-.050781-.332031-.023438-.101563-.066407-.195313-.109375-.308594.472656.011718.992187.429687 1.015625.875m-1.792969 11.140625c-.417969-.625-.394531-1.324219-.214844-2.035157.488282 1.121094 1.46875 1.390626 2.582032 1.515626-.375.429687-.699219.855468-.4375 1.464843-.804688-.054687-1.484376-.285156-1.929688-.945312m2.433594 2.296875-.945313-.808594c.726563-.1875.804688.351562 1.019531.726562zm3.617187.765625c-1.773437.339843-3.164062-.464844-3.6875-2.359375-.136719-.484375.152344-.800782.707031-.808594.761719-.011719 1.519532-.003906 2.28125-.003906h2.203126c.085937 0 .175781.007812.257812.027344.460938.113281.644531.351562.511719.800781-.347657 1.171875-.988281 2.09375-2.273438 2.34375m2.105469-.78125c.132812-.269531.230469-.488281.351562-.691407.035157-.058593.140626-.09375.21875-.109374.132813-.027344.273438-.027344.429688-.042969-.238281.378906-.554688.640625-1 .84375m2.730469-4.347657c.496093 1.660157-.421875 2.960938-2.109375 2.988282.230468-.582032-.058594-1.007813-.460938-1.4375 1.109375-.132813 2.09375-.394532 2.570313-1.550782m-1.597657-1.742187c-.003906.699219.039063 1.398437.085938 2.09375.03125.453125.039062.484375-.402344.582031-.261718.054688-.535156.074219-.804687.070313-.070313 0-.175781-.117188-.210938-.199219-.285156-.667969-.554687-1.335938-.832031-2.003906-.03125-.078125-.078125-.152344-.117188-.226563l-.085937.066407c.261719.96875.523437 2.085937.773437 2.929687h-4.699218c.25-.84375.507812-1.949219.769531-2.917969l-.101563-.054687c-.15625.355469-.320312.699219-.46875 1.058593-.164062.390626-.320312.785157-.46875 1.183594-.050781.132813-.117187.203125-.269531.179688-.296875-.046875-.601562-.085938-.902343-.128906-.234376-.03125-.265626-.167969-.253907-.386719.046875-.738281.085938-1.484375.097657-2.226563.007812-.59375-.25-1.050781-.792969-1.34375-.308594-.164062-.617188-.335937-.886719-.554687-.4375-.34375-.402344-.925781.058594-1.183594l-.03125.34375c.464844-.558594.695312-1.710937.363281-2.8125l-.035156.3125-.085938.027344c-.101562-.265625-.242187-.527344-.296875-.800781-.054687-.269532.246094-.484376.613282-.5.671874-.023438 1.304687.136718 1.882812.460937.589844.328125 1.152344.710937 1.695312 1.050781-.105468-.375-.566406-.824218-1.785156-1.6875 1.339844-1.394531 5.171875-1.382812 6.507813.015625-.773438.394531-1.402344.941407-1.8125 1.726563.199219-.144532.394531-.292969.597656-.433594.742187-.527344 1.523437-.988281 2.449219-1.105469.269531-.03125.558594-.015625.828125.039063.285156.058594.398437.308594.304687.589844-.074218.214843-.183594.417968-.28125.628906l-.066406-.011719-.054688-.308594c-.261718 1.023438-.1875 1.949219.382813 2.8125l-.046875-.335937c.359375.152344.492188.601562.257812.9375-.128906.1875-.328124.332031-.515624.46875-.171876.128906-.371094.226562-.566407.324218-.542969.273438-.792969.742188-.792969 1.320313m-.457031-4.199219c-.65625.179688-1.175781.570313-1.621093 1.0625-.210938.234375-.453126.390625-.769532.40625-.148437.007813-.300781-.03125-.457031-.050781.058594.425781.359375.566406.636719.628906l.453125 1.054688.082031-.035157c-.082031-.34375-.148438-.683593.054688-1.019531.503906.355469 1.007812.269531 1.515624.023438.542969-.265625.714844-.769531.851563-1.308594l.097656.386719c.214844-.355469.253907-.6875-.03125-1.023438l.363281-.148437c-.421874-.105469-.800781-.078125-1.175781.023437m-.152343 1.632813c-.320313.320312-.851563.367187-1.335938.097656.394531-.546875.933594-.894531 1.488281-1.234375.167969.320312.085938.902344-.152343 1.136719m-5.238282-.605469c-.394531-.445312-.863281-.789062-1.433594-.980469-.421874-.144531-.855468-.195312-1.332031-.0625l.371094.132813c-.273437.328125-.238281.660156-.042969 1.039062l.117188-.40625c.109375.558594.289062 1.046875.824218 1.316406.507813.257813.867188.339844 1.570313-.066406v1.042969c0 .007813.078125.011719.105469.019531.136718-.324218.28125-.652344.433594-1.011718.46875-.15625.617187-.296876.621093-.648438-.5.160156-.894531.007812-1.234375-.375m-1.382812.644531c-.273438-.21875-.378906-.773437-.214844-1.183593.570312.351562 1.117188.695312 1.492188 1.242187-.414063.261719-.917969.234375-1.277344-.058594m4.191406-1.78125c-.617188.324219-1.195312.320313-1.8125 0 .675781.75 1.121094.777344 1.8125 0m1.25 8.535157c-.191406-.007813-.46875 0-.609375 0v.070312h-.488281l-.035156-.035156c-.253907.019531-.351563.144531-.234376.359375.117188.214843.253907.421875.425782.582031.109375.101562.320312.15625.472656.140625.410156-.046875.585938-.386719.75-.714844.113281-.226562-.019531-.390625-.28125-.402343m-3.164062.003906c-.203126-.015625-.402344-.003906-.601563-.003906-.203125 0-.402344-.007813-.601563.003906-.179687.007812-.296874.09375-.269531.300781.035157.273437.445313.730469.71875.800781.230469.0625.4375.019532.585938-.171875.140625-.175781.273437-.363281.378906-.558593.117187-.207032.023437-.359376-.210937-.371094" fill="#fcaa1a" fill-rule="evenodd"/></svg>