<svg height="18" viewBox="0 0 18 18" width="18" xmlns="http://www.w3.org/2000/svg"><path d="m13.964844 9.457031c.382812-.21875.777344-.433593 1.101562-.722656.585938-.519531.527344-1.257813-.082031-1.742187-.097656-.082032-.238281-.164063-.265625-.269532-.121094-.476562-.230469-.957031.0625-1.425781.117188-.183594.203125-.378906.265625-.589844.164063-.574219-.113281-1.054687-.6875-1.222656-.101563-.03125-.207031-.03125-.304687-.066406-.058594-.023438-.144532-.078125-.152344-.128907-.109375-.578124-.035156-.824218.414062-1.082031.214844-.121093.464844-.179687.699219-.261719.089844-.03125.1875-.046874.289063-.074218-.539063-.753906-1.492188-1.070313-2.441407-.835938-.742187.183594-1.273437.664063-1.757812 1.222656-.054688.066407-.15625.128907-.238281.128907-.222657.007812-.273438-.160157-.234376-.335938.078126-.34375.175782-.679687.265626-1.027343-.421876-.007813-.742188.257812-1.113282.515624-.046875-.226562-.101562-.417968-.113281-.609374-.011719-.203126.019531-.40625.03125-.625-.648437.234374-1.148437.605468-1.285156 1.332031l-.085938.003906-.195312-.910156c-.078125.050781-.164063.089843-.230469.148437-.398438.355469-.640625.789063-.683594 1.324219-.007812.066406-.054687.175781-.089844.179687-.066406.003907-.152343-.035156-.207031-.085937-.105469-.097656-.191406-.222656-.292969-.328125-.609374-.640625-1.328124-1.058594-2.242187-1.003906-.691406.042968-1.28125.300781-1.679687.871094.339843.128906.683593.222656.992187.386718.386719.199219.476563.488282.433594.910156-.027344.234376-.136719.285157-.339844.316407-.699219.113281-1.035156.652343-.828125 1.328125.042969.140625.089844.292968.175781.402344.324219.394531.253907.839843.210938 1.289062-.019531.210938-.121094.359375-.289063.492188-.707031.546874-.726562 1.3125-.027344 1.878906.285157.230468.613282.417968.941407.585937.449219.230469.628906.601563.625 1.078125 0 .386719-.015625.777344-.039063 1.167969-.015625.273437-.050781.550781-.078125.824219l-.082031.023437c-.160156-.21875-.34375-.425781-.476562-.664062-.132813-.234375-.210938-.496094-.3125-.75-1.042969.859375-1.070313 3.324219.59375 4.085937.234374.105469.382812.25.511718.46875.445313.746094 1.101563 1.203125 1.964844 1.351563.089844.015625.179688.050781.257812.105469 1.144532.769531 2.960938.773437 4.101563.003906.070313-.046875.148437-.09375.230469-.105469.957031-.152344 1.640625-.683594 2.101562-1.519531.042969-.078125.113282-.164063.191406-.195313.988282-.40625 1.464844-1.167969 1.53125-2.207031.046876-.769531-.15625-1.449219-.742187-2.027344-.121094.585938-.378906 1.0625-.882813 1.4375-.023437-.726562-.070312-1.449218-.066406-2.175781 0-.382813.207032-.671875.554688-.871094m-9.449219-7.234375c.4375-.003906 1.019531.488282.980469.902344-.015625.152344-.210938.351562-.367188.402344-.148437.050781-.382812-.015625-.429687-.261719-.023438-.117187-.039063-.234375-.0625-.355469-.039063-.226562-.078125-.449218-.121094-.6875m1.089844 12.835938c-.238281-.042969-.472657-.0625-.695313-.125-.96875-.265625-1.507812-.949219-1.527344-1.953125-.003906-.285157.0625-.574219.097657-.863281.003906-.003907.039062-.011719.054687-.007813.007813.003906.007813.03125.011719.046875.488281 1.042969 1.421875 1.328125 2.449219 1.421875l-.480469.890625zm-.121094-7.769532v-.648437c.421875.320313 1.011719.632813 1.386719 1.066406.035156.039063.070312.074219.101562.113281.019532.027344.03125.058594.046875.085938-.496093.382812-1.535156.140625-1.535156-.617188m2.726563 7.636719c-.105469.148438-.203126.300781-.316407.441407-.257812.332031-.628906.355468-.941406.058593-.097656-.09375-.195313-.191406-.292969-.289062v.003906l-.050781-.054687c-.117187-.554688-.105469-.566407.488281-.570313.277344-.003906.554688-.007813.832032 0 .308593.007813.371093.105469.28125.410156m3.171874.113281-.054687.097657v.003906-.003906c-.074219.082031-.148437.164062-.222656.242187-.351563.359375-.738281.335938-1.042969-.0625-.097656-.128906-.1875-.265625-.277344-.398437-.085937-.296875-.015625-.394531.296875-.402344.320313-.007813.640625-.003906.960938 0 .429687.003906.5.113281.339843.523437m-.410156-7.140624.152344-.1875c.375-.433594.828125-.746094 1.390625-1.070313v.652344c0 .738281-1.023437.996093-1.542969.605469m3.433594 4.335937.066406-.152344c.21875.699219.234375 1.390625-.171875 2.011719-.4375.671875-1.121093.902344-1.898437.953125l.074218-.578125-.464843-.882812c.96875-.113282 1.902343-.34375 2.394531-1.351563m-1.089844-9.046875c-.023437.15625-.074218.265625-.265625.328125-.28125.097656-.378906-.105469-.492187-.253906-.054688-.070313-.03125-.234375.007812-.335938.132813-.332031.355469-.589843.722656-.6875.070313-.019531.144532-.023437.1875-.03125-.058593.355469-.105468.667969-.160156.980469" fill="#fcaa1a" fill-rule="evenodd"/></svg>