<svg height="18" viewBox="0 0 18 18" width="18" xmlns="http://www.w3.org/2000/svg"><path d="m5.199219 4.988281c.121093 1.296875.246093 2.585938.371093 3.90625.203126-.351562.351563-.6875.574219-.960937.207031-.257813.46875-.496094.753907-.660156.371093-.214844.855468-.011719.976562.367187.03125.105469-.042969.242187-.070312.359375-.09375-.046875-.207032-.074219-.269532-.144531-.25-.3125-.402344-.351563-.683594-.082031-.519531.503906-.8125 1.132812-.921874 1.84375-.023438.136718.0625.289062.101562.433593.140625-.046875.304688-.066406.421875-.152343.371094-.277344.601563-.65625.730469-1.105469.027344-.097657.179687-.164063.273437-.242188.042969.09375.148438.203125.125.277344-.199219.679687-.410156 1.355469-.636719 2.027344-.023437.066406-.148437.101562-.226562.152343-.03125-.089843-.097656-.183593-.085938-.269531.023438-.1875.085938-.375.128907-.550781l-1.019531.46875c.054687.648438.117187 1.378906.1875 2.105469.050781.558593.144531.703125.691406.808593.636718.121094 1.289062.199219 1.9375.25.957031.070313 1.917968-.019531 2.847656-.269531.347656-.09375.484375-.320312.507812-.664062.023438-.3125.074219-.625.109376-.9375.070312-.621094.136718-1.238281.207031-1.878907-.234375.148438-.417969.3125-.632813.382813-.15625.050781-.355468-.023437-.535156-.042969.035156-.164062.03125-.351562.113281-.488281.128907-.226563.3125-.425781.472657-.636719l-.070313-.082031c-.113281.066406-.257813.113281-.339844.207031-.164062.199219-.328125.40625-.4375.636719-.1875.386719-.328125.792969-.496093 1.1875-.070313.167969-.132813.429687-.378907.332031-.257812-.109375-.074219-.335937-.015625-.5.097656-.257812.226563-.507812.3125-.695312-.246094.027344-.496094.0625-.746094.085937-.105468.007813-.230468-.050781-.316406-.011719-.289062.128907-.46875.078126-.527344-.238281-.136718.085938-.246093.203125-.378906.234375-.164062.039063-.382812.0625-.5-.019531-.09375-.0625-.128906-.304687-.097656-.449219.066406-.28125.183594-.554687.300781-.824218.070313-.164063.140625-.429688.378907-.316407.234374.117188.019531.308594-.035157.464844-.082031.238281-.167969.476563-.253906.714844l.136719.082031c.128906-.113281.289062-.203125.378906-.339844.144531-.222656.234375-.484375.375-.714844.058594-.09375.183594-.148437.277344-.222656.019531.121094.0625.246094.050781.363282-.015625.117187-.101563.226562-.140625.34375-.058594.175781-.105469.355468-.167969.558593.289063.011719.410157-.109375.492188-.324219.257812-.675781.515625-1.347656.796875-2.011718.050781-.113282.214844-.175782.324218-.265625.011719.136719.074219.292969.03125.410156-.234374.609375-.492187 1.210937-.738281 1.816406-.039062.105469-.050781.21875-.078125.324219.429688-.191406.789063-.40625.917969-.863281.035156-.109375.164063-.195313.25-.289063l.199219.210938c.0625-.050782.117187-.109375.183594-.152344.207031-.132812.429687-.25.644531-.042969.226562.214844.054687.421875-.0625.605469-.128907.199219-.285157.382812-.429688.574219.324219-.210938.769531-.304688.828125-.757813.144532-1.105468.269532-2.210937.398438-3.320312.039062-.328125.058594-.660156.089844-1-2.5625.621094-5.066407.625-7.605469-.007813m1.097656 8.628907c.125.324218.3125.644531.359375.984374.105469.722657.128906 1.460938.203125 2.1875.011719.105469.082031.253907.167969.300782 1.261718.683594 2.535156.804687 3.824218.054687.191407-.113281.226563-.261719.253907-.46875.121093-1.011719-.148438-2.082031.496093-3.03125-1.808593.449219-3.570312.460938-5.304687-.027343m4.359375-8.449219c.613281-.058594 1.21875-.203125 1.824219-.324219.117187-.019531.21875-.109375.324219-.164062-.140626-.125-.265626-.183594-.390626-.199219-.636718-.078125-1.277343-.132813-1.914062-.214844-.097656-.011719-.269531-.128906-.261719-.152344.1875-.558593.175781-1.191406.597657-1.664062.535156-.59375 1.074218-1.1875 1.605468-1.777344-.394531-.429687-.402344-.429687-.761718-.054687-.203126.210937-.390626.445312-.609376.636718-.820312.707032-1.394531 1.546875-1.503906 2.652344-.027344.253906-.164062.34375-.433594.347656-.878906.015625-1.757812.039063-2.636718.097656-.433594.027344-.863282.140626-1.296875.214844l-.003907.160156c.269532.082032.535157.191407.8125.246094 1.539063.292969 3.089844.34375 4.648438.195313m-.492188-.386719c-.347656.28125-.636718.28125-.914062 0zm0 0" fill="#eb4a4b" fill-rule="evenodd"/></svg>