<svg height="18" viewBox="0 0 18 18" width="18" xmlns="http://www.w3.org/2000/svg"><path d="m9.074219 2.257812c-.851563.207032-1.101563.355469-1.382813 1.339844.359375-.722656.632813-.988281 1.382813-1.339844m2.183593.050782c-.554687.011718-1.148437.179687-1.828124.464844-.378907.160156-.65625.347656-.902344.574218-.230469.214844-.429688.464844-.648438.753906-.125.007813-.238281.027344-.351562.070313-.125.050781-.253906.132813-.402344.265625-.109375.09375-.210938.191406-.3125.289062-.09375.089844-.183594.179688-.273438.273438-.710937.113281-1.289062.242188-1.808593.441406-.527344.207032-.996094.488282-1.476563.914063-.1875.167969-.359375.351562-.515625.550781-.140625.191406-.269531.390625-.378906.601562-.09375.109376-.191406.214844-.296875.3125-.101562.089844-.210938.167969-.332031.214844-.070313.027344-.097657.042969-.101563.039063 0 0-.007812-.023438-.011718-.03125.175781-.167969.203124-.410157.21875-.652344.023437.027344.042968.058594.0625.089844.023437.035156.046874.070312.074218.105469l.117188.148437.042968-.183594c.035157-.15625.0625-.363281.019532-.542969-.027344-.117187-.082032-.21875-.175782-.292968.011719-.023438.019532-.050782.027344-.070313.03125-.074219.058594-.152343.085938-.226562l.050781-.144531-.152344.023437c-.203125.035156-.636719.277344-.945312.59375-.113281.121094-.210938.25-.277344.386719-.066406.144531-.097656.292968-.070313.441406.023438.132812.089844.257812.207032.378906.023437.085938.042968.164063.0625.234375.023437.078125.050781.144531.085937.214844.089844.1875.230469.300781.394531.351563.132813.042968.28125.046874.425782.011718-.027344.171875-.046875.347656-.054688.519532-.007812.242187 0 .511718.027344.820312.011719.144531.03125.289062.058594.433594l-.078125.21875-.128907.339844-.53125.53125c-.007812.003906-.035156.035156-.0625.058593-.175781.167969-.210937.199219-.160156.496094.03125.1875.09375.371094.183594.539063.089844.171874.207031.332031.347656.46875.183594.183593.484375.414062.796875.53125.179688.070312.367188.101562.539063.074218-.007813.027344-.015625.054688-.027344.082032-.027344.074218-.054688.152343-.089844.226562-.214844.464844.003906.710938.347656.867188.167969.078124.371094.128906.5625.179687.035157.007813.074219.019531.125.03125.222657.0625.605469.171875.960938.195313.382812.023437.730469-.054688.820312-.402344.039063-.136719.058594-.238282.070313-.34375.007813-.09375.003906-.1875-.007813-.308594.109376-.238281.15625-.3125.234376-.429688l.042968-.058593c.085938-.125.125-.21875.140625-.320313.011719-.097656 0-.195312-.015625-.34375-.003906-.015625-.007812-.039062-.007812-.066406.222656.03125.445312.046875.667968.050781.109376 0 .222657-.003906.332032-.011719-.03125.015626-.050782.03125-.085938.046876l-.042968.019531c-.296876.152343-.308594.441406-.214844.742187.085937.265625.257812.539063.363281.707032.230469.351562.445313.648437.707031.808593.277344.167969.59375.1875 1-.03125.207032-.113281.269532-.226562.359375-.378906.027344-.050781.058594-.101563.09375-.15625.078125-.050781.289063-.222656.5-.398437.070313-.058594.144531-.117188.222657-.183594.058593.042968.125.070312.203124.089844.105469.023437.230469.035156.378907.046874.113281.007813.476562.007813.710937.007813h.171875c.242188 0 .4375-.011719.585938-.09375.15625-.089844.25-.25.273437-.535156.007813-.125.007813-.203125-.007812-.285157-.015625-.070312-.050782-.140624-.105469-.238281l-.007813-.371093-.011718-.390626c-.003906-.152343-.019532-.277343-.050782-.402343-.03125-.121094-.074218-.238281-.136718-.378907-.039063-.09375-.070313-.183593-.101563-.269531-.050781-.136719-.101562-.269531-.171875-.414062.003906-.027344.007813-.054688.011719-.085938l.136719.128907.199218.191406c.152344.148437.292969.28125.457032.378906.167968.097656.359375.15625.605468.144531.257813-.011719.53125-.121093.761719-.289062.21875-.160157.394531-.378907.46875-.621094l.0625-.210937.050781-.167969c.363282.058593.75.082031 1.125.042969.363282-.039063.710938-.132813 1.015626-.292969.441406-.234375.773437-.582031 1.011718-.996094.269532-.464844.417969-1.007813.472656-1.566406.046876-.453125.023438-1.0625-.070312-1.652344-.085938-.523437-.222656-1.035156-.414062-1.402344-.027344-.046875-.0625-.09375-.101563-.132812-.097656-.09375-.238281-.183594-.382813-.234375-.15625-.050782-.316406-.0625-.445312.003906-.035156.019531-.066406.042969-.09375.070312-.082031.085938-.152344.1875-.226562.289063-.078126.117187-.15625.230469-.25.3125-.109376.09375-.25.152344-.378907.203125-.054687-.132812-.117187-.257812-.195312-.382812-.085938-.140626-.1875-.273438-.296875-.402344-.082032-.097656-.175782-.1875-.273438-.261719s-.195312-.136719-.308594-.207031c-.304687-.191406-.566406-.417969-.832031-.652344-.121093-.105469-.242187-.210938-.359375-.308594-.632812-.523437-1.222656-.773437-1.851562-.816406-.078125-.003906-.160156-.003906-.238282-.003906m-2.859374.007812c-.429688.105469-.511719.183594-.640626.605469.207032-.308594.324219-.410156.640626-.605469zm2.976562.347656c.617188.003907 1.183594.234376 1.8125.761719.308594.261719.578125.511719.890625.738281-.117187.007813-.234375.035157-.339844.078126.15625-.027344.339844 0 .503907.03125.042968.03125.089843.058593.140624.085937.21875.132813.34375.203125.496094.414063.15625.214843.289063.441406.40625.679687-.078125-.027344-.140625-.046875-.199218-.066406-.128907-.058594-.277344-.046875-.398438.027343l-.007812.003907c-.125.058593-.3125.125-.441407.148437.066407.019532.210938.03125.277344.003906.007813-.003906.019531-.007812.027344-.011718-.03125.054687-.050781.113281-.054688.175781-.007812.082031.007813.164063.042969.234375.011719.027344.027344.054688.046875.070312-.039063-.039062-.070313-.109374-.0625-.164062.007813-.089844.078125-.15625.167969-.15625.058594 0 .113281.03125.148437.082031.03125.046875.035157.113281.011719.164063-.089844.015625-.175781.042968-.265625.074218-.058594.023438-.117187.046876-.179687.074219.285156-.042969.539062-.050781.816406-.015625.015625.089844.035156.179688.050781.273438l-.101563.007812h-.007812c-.132812-.101562-.277344-.085937-.476562-.039062-.605469.136718-.460938.476562-.738282.988281.289063-.355469.265625-.722656.738282-.835937.109374-.023438.183593-.058594.257812-.046876-.132812.066407-.25.179688-.296875.308594-.128906.363282-.046875.671875-.191406 1.011719.175781-.304687.1875-.601563.34375-.921875.058593-.113281.265625-.296875.394531-.300781l.109375-.003907c.027344.203126.046875.40625.035156.574219-.019531.304688-.101562.753907-.148437.929688.160156-.207031.230468-.640625.300781-.945313.074219-.316406.054687-.699218-.007813-1.039062-.085937-.46875.394532-.394532.675782-.613282.207031-.164062.347656-.421874.535156-.605468s.484375.085937.554688.261718c.320312.773438.464843 1.988282.382812 2.769532-.09375.871094-.515625 1.828125-1.289062 2.257812-.980469.546875-2.140626.210938-3.117188-.117187-.207031-.070313-.351562-.171875-.535156-.289063.046875.226563.070312.464844.003906.6875-.105469.355469-.273438.9375.207031 1.046875.1875.039063.269531.035157.527344-.097656-.207031.046875-.316406.035156-.460937.007813-.128907-.023438-.199219-.109376-.234376-.207032.046876.035156.121094.050782.246094.082032.359375.085937.699219-.085938.765625-.332032.039063-.144531.035157-.222656.117188-.421875.074219.023438.148437.046875.226562.0625l-.132812.4375c-.113281.375-.5625.675781-.957031.667969-.367188-.003906-.597657-.234375-.851563-.460938-.167969-.148437-.339844-.296874-.507813-.449218-.457031-.140625-.820312-.308594-1.242187-.625.300781.355468.503906.550781.921875.726562-.058594.621094-.277344 1.078125-.460938 1.671875-.082031.269531-.742187 1.351563-.925781 1.453125-.128906.078125-.945312.765625-1.097656.855469-.117187.152344-.214844.359375-.386719.453125-.523437.277344-.859375-.253906-1.144531-.703125-.125-.203125-.484375-.789063-.171875-.957031.292969-.152344.457031-.265625.757812-.460938.042969.078125.117188.15625.167969.238282l-.03125-.265626c-.019531-.15625-.019531-.285156-.007812-.445312l.035156-.464844c-.042969.15625-.132813.3125-.179687.472656-.015626.0625-.03125.113282-.039063.160157-.664063.136719-1.347656.144531-2.011719.027343-.042968-.234374-.085937-.464843-.140625-.695312-.011719.207031-.003906.78125-.003906 1.105469-.003906.25-.011719.335937-.140625.546875-.121094.199218-.171875.246094-.34375.582031.015625.210937.015625.351563-.039062.550781-.09375.335938-1.039063.078125-1.289063.007813-.308594-.082031-.941406-.207031-.78125-.617188.140625-.359375.226563-.738281.296875-1.246093-.5625-.808594-1.085938-1.917969-1.1875-2.902344-.078125-.765625-.03125-1.234375.136719-1.703125.261719-.742188.628906-1.382813 1.214843-1.898438.792969-.695312 1.535157-.976562 2.695313-1.152343-.277344.3125-.554687.644531-.855469.996093-.304687.359375-.484375.722657-.679687 1.117188-.265625.539062-.261719.746093.09375 1.222656.304687.410156.46875.59375.601562.996094-.109375.226562-.148437.417969-.1875.730469.375.40625.652344.6875 1.015625.773437.359375.085937.65625.070313.972656-.09375.707032-.363281 1.363282-.828125 2.160157-.847656.371093-.910157.335937-1.667969.15625-2.546875-.121094-.601563-.167969-1.167969-.207031-1.78125-.148438.632812-.175782 1.183594-.066407 1.8125.132813.757812.238281 1.59375-.136719 2.257812-.71875.054688-1.339843.492188-1.988281.832032-.261719.132812-.535156.148437-.824219.066406-.269531-.074219-.449218-.25-.738281-.585938-.007812-.332031.070313-.488281.222657-.792968.246093-.488282.519531-.941407.820312-1.421876-.367188.445313-.714844.816407-1.003906 1.257813-.109375-.3125-.265625-.472656-.527344-.824219-.257812-.347656-.285156-.5-.09375-.898437.195312-.402344.355469-.757813.683594-1.109375.5625-.609375 1.082031-1.289063 1.699218-1.886719.335938-.328125.472657-.316406.914063-.382813.402344-.0625.796875-.140624 1.207031-.234374-.398437.039062-.78125.050781-1.167968.058593l-.011719.003907c.378906-.488282.601562-.757813 1.21875-1.023438.664062-.289062 1.222656-.464844 1.738281-.488281.042969-.003907.082031-.003907.125-.003907zm.402344 2.097657c-.824219.203125-.980469.550781-.875 1.085937.09375-.402344.253906-.789062.875-1.085937m-2.445313.042969c-.335937.039062-.667969.074218-1.003906.105468-.28125.027344-.324219.019532-.523437.21875-.304688.296875-.597657 1.324219-.691407 1.738282.148438-.34375.519531-1.296876.800781-1.539063.078126-.070313.132813-.109375.195313-.140625-.207031.339844-.191406.425781-.117187.882812.058593-.464843.21875-.644531.484374-.988281.289063-.074219.574219-.167969.855469-.277343m7.667969.039062c-.191406.386719-.484375.710938-.886719.910156-.214843.109375-.355469.070313-.59375.046875.246094.070313.398438.160157.640625.074219.488282-.175781.722656-.566406.839844-1.03125m-1.707031.625c.015625.035156.03125.074219.046875.109375-.011719.007813-.023438.019531-.039063.03125-.019531-.050781-.050781-.097656-.089843-.136719.023437 0 .050781-.003906.082031-.003906zm-2.449219.300781c-.269531.125-.582031.09375-.8125.25-.203125.136719-.484375.574219-.691406.757813.148437-.058594.292968-.160156.425781-.265625.003906.171875.082031.332031.214844.433593-.019531-.019531-.039063-.042968-.050781-.070312-.035157-.070312-.03125-.15625.011718-.222656.042969-.066406.117188-.109375.199219-.109375.089844 0 .167969.054687.207031.132812.007813.011719.011719.023438.015625.035157-.113281.082031-.214843.179687-.296875.289062-.078125.101562-.140625.210938-.183594.332031.394532-.46875.964844-.820312 1.503907-.972656-.152344 0-.328125.027344-.507813.085937-.023437-.210937-.164062-.386718-.363281-.460937.121094-.0625.238281-.132813.328125-.214844m-11.851562.484375c-.71875.503906-.8945318.734375-.796876 1.753906.070313-.800781.226563-1.148437.796876-1.753906m-.609376.304688c-.3593745.25-.4062495.355468-.3749995.792968.078125-.359374.1523435-.496093.3749995-.792968m1.335938.144531c-.050781.113281-.089844.199219-.113281.289063-.113281.378906.046875.71875-.296875.996093.160156.328125.152344.457031.53125.304688.148437-.054688.265625-.136719.375-.234375-.0625.15625-.117188.316406-.164063.480468-.273437.113282-.628906.1875-.761719-.097656-.066406-.136718-.105468-.273437-.152343-.449218-.445313-.460938.21875-1.070313.582031-1.289063m.09375.207031c.089844.054688.113281.152344.125.28125-.054688-.054687-.097656-.089844-.167969-.082031.007813-.066406.019531-.132813.042969-.199219m10.195312.054688c.015626.011718.035157.023437.050782.03125-.019532-.007813-.035156-.019532-.050782-.03125m.953126 2.398437c-.097657.015625-.269532.050781-.367188.066407-.261719.046874-.292969.109374-.332031.363281-.019531.121093-.046875.273437-.066407.394531.050782-.136719.113282-.296875.171876-.425781.0625-.140625.097656-.152344.234374-.226563.09375-.050781.265626-.121094.359376-.171875zm-10.851563 1.800781c.207031.707032.554687 1.402344.941406 1.988282v.011718c-.023437.101563-.050781.199219-.109375.277344-.277344.371094-.980468-.171875-1.183594-.378906-.222656-.230469-.375-.5-.410156-.75-.023437-.183594 0-.191406.128906-.320312l.519532-.527344zm9.304687.460938c.042969.136719.078126.273438.136719.421875.105469.242187.15625.394531.160157.65625l.023437.828125c.089844.152344.105469.1875.089844.363281-.035157.359375-.152344.382813-.472657.378907-.140624-.003907-.714843-.003907-.859374-.019532-.207032-.015625-.320313-.035156-.382813-.082031.320313-.234375.871094-1.214844.976563-1.550781.113281-.355469.238281-.667969.328124-.996094"/></svg>