<svg height="18" viewBox="0 0 18 18" width="18" xmlns="http://www.w3.org/2000/svg"><g fill="none" stroke="#fff" stroke-linecap="round" stroke-linejoin="round" stroke-width="2" transform="scale(.75)"><path d="m15 12-8.375 8.375c-.828125.828125-2.171875.828125-3 0s-.828125-2.171875 0-3l8.375-8.375m6 6 4-4"/><path d="m21.5 11.5-1.911458-1.911458c-.380209-.375-.588542-.885417-.588542-1.416667v-1.171875l-2.260417-2.260417c-1.114583-1.114583-2.625-1.744791-4.203125-1.755208l-3.536458-.026042.921875.822917c1.317708 1.171875 2.078125 2.854167 2.078125 4.619792v1.598958l2 2h1.171875c.53125 0 1.041667.208333 1.416667.588542l1.911458 1.911458"/></g></svg>