<svg height="18" viewBox="0 0 18 18" width="18" xmlns="http://www.w3.org/2000/svg"><g fill="none" stroke="#fff" stroke-linecap="round" stroke-linejoin="round" stroke-width="2" transform="scale(.75)"><path d="m18 12.5v-2.5c0-1.104167-.895833-2-2-2s-2 .895833-2 2v1.401042m0-.401042v-2c0-1.104167-.895833-2-2-2s-2 .895833-2 2v2m0-.5v-5.5c0-1.104167-.895833-2-2-2s-2 .895833-2 2v9"/><path d="m7 15-1.760417-1.760417c-.786458-.71875-2-.6875-2.755208.0625-.755208.755209-.786458 1.96875-.072917 2.760417l3.598959 3.598958c1.489583 1.479167 3.1875 2.338542 5.989583 2.338542h2c4.416667 0 8-3.583333 8-8v-7c0-1.104167-.895833-2-2-2s-2 .895833-2 2v5"/></g></svg>