<svg height="18" viewBox="0 0 18 18" width="18" xmlns="http://www.w3.org/2000/svg"><path d="m1.804688 1.578125c-.996094 0-1.804688.792969-1.804688 1.789063v11.25c0 .996093.808594 1.804687 1.804688 1.804687h14.390624c.996094 0 1.804688-.808594 1.804688-1.804687v-11.234376c0-.996093-.808594-1.804687-1.804688-1.804687zm8.910156 3.859375c.070312-.003906.136718.007812.203125.035156h3.246093c.113282-.042968.246094-.027344.359376.03125.101562.054688.160156.144532.203124.242188l1.746094 3.03125v.011718c.011719.015626.011719.046876.027344.058594.058594.128906.042969.261719-.027344.375l-1.777344 3.074219c-.039062.070313-.101562.128906-.171874.171875-.015626 0-.027344.015625-.027344.015625-.03125.011719-.074219.027344-.101563.027344-.027343 0-.058593.015625-.074219.015625h-3.574218c-.042969 0-.074219 0-.101563-.015625h-.03125l-.085937-.042969c-.070313-.042969-.113282-.101562-.15625-.160156l-1.660156-2.867188h-1.3125l1.253906 2.175782h.59375c.246094.003906.445312.203124.445312.449218 0 .257813-.199218.460938-.460937.460938h-.851563c-.15625 0-.300781-.085938-.386718-.230469l-1.632813-2.855469h-1.3125l1.257813 2.175782h.589843c.246094 0 .445313.199218.445313.449218 0 .257813-.199219.460938-.460938.460938h-.851562c-.15625 0-.300782-.085938-.386719-.230469l-1.632813-2.855469h-1.308593l1.253906 2.175782h.574219c.246094 0 .449218.199218.449218.449218.015626.257813-.1875.460938-.449218.460938h-.847656c-.160157 0-.304688-.085938-.390626-.230469l-1.761718-3.074219c-.070313-.128906-.085938-.273437-.027344-.386718 0-.015626.015625-.03125.015625-.046876v-.011718l1.773437-3.074219c.085938-.144531.230469-.230469.390626-.230469h.847656c.246094.003906.449218.203125.449218.449219s-.203124.445313-.449218.445313h-.574219l-1.257813 2.179687h1.3125l1.644532-2.84375c.089844-.144531.230468-.230469.390625-.230469h.851562c.246094.003906.445313.203125.445313.449219s-.199219.445313-.445313.445313h-.589843l-1.257813 2.179687h1.3125l1.644531-2.84375c.085938-.144531.230469-.230469.390625-.230469h.851563c.246094.003906.445312.203125.445312.449219s-.199218.445313-.445312.445313h-.59375l-1.253906 2.179687h1.3125l1.585937-2.757813c.03125-.113281.101563-.230468.21875-.285156.0625-.039062.132813-.058594.199219-.066406zm.824218.929688.488282.878906h.96875l.503906-.878906zm-.792968.449218-.996094 1.730469h1.039062l.476563-.835937zm3.5625 0-.519532.894532.476563.835937h1.035156zm-2.265625 1.339844-.476563.835938.476563.835937h.964843l.476563-.835937-.476563-.835938zm-2.292969 1.285156.996094 1.730469.519531-.910156-.476563-.820313zm4.515625 0-.492187.835938.519531.90625 1.011719-1.742188zm-2.207031 1.28125-.519532.894532h1.988282l-.519532-.894532zm0 0" fill="#00a580"/></svg>