<svg height="18" viewBox="0 0 18 18" width="18" xmlns="http://www.w3.org/2000/svg"><path d="m2.207031 9 6.808594-6.804688-9.015625-2.195312zm0 0" fill="#f6b214"/><path d="m9 2.207031 6.804688 6.808594 2.195312-9.015625zm0 0" fill="#f17321"/><path d="m15.792969 9-6.808594 6.804688 9.015625 2.195312zm0 0" fill="#ef5e21"/><path d="m9 15.792969-6.804688-6.808594-2.195312 9.015625zm0 0" fill="#f6b214"/><path d="m2.195312 8.984375 6.804688-6.777344 6.792969 6.792969-6.792969 6.792969zm0 0" fill="#ea8220"/><path d="m2.195312 8.984375-2.195312-4.484375v-4.5zm-2.195312 9.015625v-4.5l2.195312-4.515625zm0 0" fill="#f8ef23"/><path d="m0 0h4.5l4.5 2.207031zm18 0-9 2.207031 4.5-2.207031zm0 0" fill="#f8c713"/><path d="m15.792969 9 2.207031-9v4.5zm2.207031 9v-4.5l-2.207031-4.5zm0 0" fill="#ec4822"/><path d="m0 18 9-2.207031-4.5 2.207031zm0 0" fill="#ef5e21"/><path d="m18 18h-4.5l-4.5-2.207031zm0 0" fill="#ea8220"/></svg>