<svg height="18" viewBox="0 0 18 18" width="18" xmlns="http://www.w3.org/2000/svg"><g fill="none" stroke="#fff" stroke-linecap="round" stroke-linejoin="round" stroke-width="2" transform="scale(.75)"><path d="m19 14c1.489583-1.458333 3-3.208333 3-5.5 0-3.036458-2.463542-5.5-5.5-5.5-1.760417 0-3 .5-4.5 2-1.5-1.5-2.739583-2-4.5-2-3.036458 0-5.5 2.463542-5.5 5.5 0 2.302083 1.5 4.052083 3 5.5l7 7zm0 0"/><path d="m12 5-2.958333 2.958333c-.411459.411459-.640625.963542-.640625 1.541667s.229166 1.130208.640625 1.541667c.817708.817708 2.130208.848958 3 .067708l2.067708-1.901042c1.078125-.973958 2.713542-.973958 3.791667 0l2.958333 2.661459m-2.859375 3.130208-2-2m-1 5-2-2"/></g></svg>