<svg height="18" viewBox="0 0 18 18" width="18" xmlns="http://www.w3.org/2000/svg"><path d="m14.359375.28125h-10.71875c-.925781 0-1.671875.746094-1.671875 1.671875v14.105469c0 .929687.746094 1.675781 1.671875 1.675781h10.730469c.929687 0 1.675781-.746094 1.675781-1.675781v-14.105469c-.015625-.925781-.761719-1.671875-1.6875-1.671875m-9.15625 15.003906v-3.964844l1.984375 1.984376zm7.453125.042969h-1.84375l.015625-.027344v-6.949219s.4375-1.65625-5.582031.675782c-.015625.027344-.027344-6.425782-.027344-6.425782l1.953125-.015624v4.136718s5.484375-2.167968 5.484375 1.644532zm-.730469-10.265625h-2.082031c.746094-.84375 1.433594-2.390625 1.433594-2.390625h2.152344s-.367188.984375-1.503907 2.390625" fill="#6762a6"/></svg>