<svg height="18" viewBox="0 0 18 18" width="18" xmlns="http://www.w3.org/2000/svg"><path d="m5.578125 4.636719c-.644531 0-1.1875.441406-1.347656 1.039062-.574219.082031-1.015625.566407-1.015625 1.160157 0 .574218.414062 1.058593.960937 1.164062l.003907.003906c.199218.035156.402343.082032.597656.136719h.003906c.789062.214844 2.320312.503906 4.015625.460937.109375.222657.277344.410157.484375.539063v-.003906c.074219.046875.132812.167969.132812.238281 0 .421875.339844.761719.761719.765625.199219 0 .386719-.0625.53125-.183594.140625-.121093.234375-.304687.234375-.515625v-.113281l-.003906-.011719c-.015625-.230468.035156-.460937.144531-.667968.058594-.113282.097657-.238282.121094-.367188.277344-.074219.550781-.15625.820313-.253906v-.003906c.097656-.035157.195312-.058594.292968-.074219.585938-.082031 1.019532-.578125 1.019532-1.167969 0-.648438-.53125-1.175781-1.179688-1.175781-.1875 0-.359375.046875-.515625.125-.226563-.511719-.738281-.871094-1.332031-.871094-.671875 0-1.234375.464844-1.402344 1.089844-.246094-.289063-.605469-.484375-1.015625-.484375-.363281 0-.679687.15625-.925781.390625-.089844-.6875-.675782-1.21875-1.386719-1.21875zm0 .320312c.351563 0 .683594.171875.886719.457031.203125.289063.253906.65625.136718.988282-.015624.042968-.011718.09375.011719.136718.027344.039063.066407.066407.113281.074219h.003907c.078125.011719.148437-.03125.175781-.105469l.003906-.003906c.136719-.425781.53125-.714844.980469-.714844.445313 0 .839844.285157.980469.707032.023437.078125.105468.125.183594.109375.082031-.019531.136718-.09375.128906-.175781-.035156-.320313.070312-.636719.285156-.875.214844-.238282.519531-.375.84375-.371094.492188 0 .929688.320312 1.078125.789062.027344.082032.113281.128906.195313.109375l.113281-.03125c.011719-.003906.027343-.007812.039062-.015625.128907-.070312.273438-.109375.417969-.109375.226562 0 .445312.089844.605469.25.164062.160157.253906.378907.25.605469.003906.429688-.3125.789062-.738281.847656-.125.019532-.246094.050782-.363282.097656-.289062.105469-.582031.199219-.882812.269532-.066406.019531-.113282.074218-.121094.140625-.011719.125-.050781.25-.109375.359375-.136719.257812-.199219.550781-.179687.84375v-.011719.113281c0 .125-.042969.207032-.117188.269532-.074219.066406-.1875.105468-.324219.105468-.117187 0-.230469-.042968-.3125-.128906-.082031-.082031-.128906-.195312-.128906-.3125 0-.207031-.105469-.402344-.285156-.511719-.183594-.109375-.324219-.277343-.398438-.476562-.023437-.066407-.085937-.105469-.15625-.105469-1.695312.058594-3.25-.242188-4.027343-.449219-.207032-.058593-.417969-.109375-.628907-.148437v.003906c-.398437-.082031-.703125-.429688-.703125-.851562 0-.460938.367188-.839844.828125-.855469.074219-.003907.136719-.058594.152344-.132813.09375-.515625.542969-.890625 1.066406-.890625zm.347656-4.95312475c-.0625.00781255-.109375.05468755-.128906.11328175-.234375.828124.136719 1.613281.628906 2.199218.113281.132813.234375.261719.359375.378906-.167968-.023437-.335937-.019531-.5.015626-.886718.171874-1.644531.738281-2.054687 1.898437-.167969.476563-.175781.96875-.121094 1.417969.082031-.027344.164063-.042969.253906-.046875.019531-.003907.042969-.011719.058594-.023438-.042969-.40625-.03125-.839843.109375-1.242187.382812-1.078125 1.019531-1.53125 1.816406-1.691406.273438-.054688.5-.007813.742188.074218.121094.039063.25.085938.382812.132813l.027344.007812c.125.042969.261719.085938.410156.113281.050782.011719.105469-.003906.144532-.042968.035156-.035156.054687-.089844.046874-.140625-.035156-.195313-.035156-.394531-.003906-.589844.007813-.039063.015625-.078125.023438-.117187.046875-.21875.132812-.421876.230468-.601563.132813-.238281.300782-.457031.496094-.644531.054688.039062.109375.074218.160156.132812.027344.03125.023438.03125.042969.054688-.246093.230468-.800781.859375-.714843 1.839844.007812.085937.082031.148437.167968.148437.351563-.015625.585938-.128906.792969-.226563.203125-.09375.378906-.167968.699219-.160156.65625.019532 1.226562.535156 1.453125.851563.242187.371093.542969.832031.492187 2.09375v.003906c.070313-.019531.144532-.027344.214844-.027344.035156 0 .074219.003907.109375.007813.042969-1.304688-.304687-1.886719-.550781-2.257813l-.003906-.007812c-.273438-.382813-.894532-.960938-1.707032-.984375-.375-.011719-.628906.09375-.84375.191406-.160156.074219-.3125.128906-.5.164062 0-.964843.707032-1.488281.707032-1.488281.070312-.050781.089843-.148437.039062-.222656 0 0-.066406-.089844-.15625-.195313-.09375-.101562-.203125-.21875-.355469-.28125-.054687-.023437-.121093-.015624-.167969.027344-.261718.238282-.484374.515625-.65625.824219-.035156.066406-.066406.136719-.097656.210937-.070312-.230468-.164062-.441406-.289062-.640624-.339844-.539063-.886719-.945313-1.671875-1.2617192-.027344-.0117188-.058594-.01562505-.085938-.00781255m.144531.39062475c.636719.28125 1.074219.621094 1.34375 1.050781.195313.3125.308594.683594.355469 1.125.003907.019532.003907.042969.007813.0625.011718.128907.019531.257813.019531.398438-.046875-.023438-.101563-.0625-.152344-.09375-.035156-.019531-.066406-.035156-.101562-.058594-.273438-.179687-.597657-.445312-.871094-.765625-.410156-.496093-.699219-1.097656-.601563-1.71875zm6.195313 7.238281c-.121094.019532-.242187.046876-.355469.09375-.089844.03125-.179687.066407-.269531.09375-.011719.015626-.015625.023438-.023437.042969-.003907.007813-.019532.03125-.027344.042969h.402344v.472656c0 .238282.191406.429688.429687.429688h.996094c.578125 0 1.046875.46875 1.046875 1.046875v4.355469c0 .277343-.113282.542968-.308594.742187-.148438.144531-.335938.246094-.539062.285156-.066407.011719-.136719.019531-.203126.019531h-.003906c-.335937 0-.6875 0-.980468-.003906-.117188-.003906-.226563.042969-.308594.121094-.082032.082031-.128906.191406-.128906.308594 0 .351562 0 .945312-.003907 1.203125 0 .03125-.011719.058593-.035156.078125-.164063.121094-.636719.371094-1.546875.539062-.199219.039063-.398438.066406-.601562.089844-.433594.050781-.945313.085938-1.539063.085938-2.332031 0-3.441406-.390626-3.742187-.566407-.03125-.019531-.046876-.050781-.046876-.085937l-.019531-9.121094h.570313c-.007813-.015625-.011719-.023438-.019532-.039062-.046874-.011719-.097656-.023438-.140624-.035157h-.003907c-.207031-.058593-.414062-.105469-.628906-.144531h.003906c-.023437-.003906-.046875-.011719-.074219-.019531-.015624.023437-.027343.050781-.03125.078125 0 0 .019532 8.09375.019532 9.28125 0 .144531.078125.28125.199218.359375l.007813.003906c.402344.234375 1.535156.609375 3.90625.609375 2.429687 0 3.523437-.507812 3.886719-.78125l.003906-.003906c.097656-.082032.15625-.203125.15625-.328125 0-.257813 0-.851563 0-1.203125 0-.03125.011719-.058594.03125-.078125.023438-.019531.050781-.03125.078125-.03125.296875.003906.652344.003906.988281.003906.367188 0 .714844-.140625.972656-.398437.257813-.257813.402344-.605469.402344-.96875v-4.355469c0-.753907-.613281-1.367188-1.367187-1.367188h-.996094c-.03125 0-.058594-.011719-.078125-.03125s-.03125-.050781-.03125-.078125v-.632812c0-.042969-.015625-.082032-.046875-.113282zm.222656 1.929688c-.066406 0-.128906.011719-.191406.039062-.058594.023438-.113281.0625-.160156.105469-.046875.046875-.082031.101563-.109375.164063-.023438.058594-.035156.125-.035156.1875v3.90625c0 .066406.011718.132812.035156.191406.027344.058594.0625.117188.109375.160156.046875.046875.101562.082032.160156.109375.0625.023438.125.039063.191406.039063h.855469c.0625 0 .128906-.015625.1875-.039063.0625-.027343.117188-.0625.164062-.109375.042969-.042968.082032-.101562.105469-.160156.027344-.058594.039063-.125.039063-.191406v-3.90625c0-.0625-.011719-.128906-.039063-.1875-.023437-.0625-.0625-.117188-.105469-.164063-.046874-.042969-.101562-.082031-.164062-.105469-.058594-.027343-.125-.039062-.1875-.039062zm0 .324219h.855469c.09375 0 .171875.078125.171875.171875v3.90625c0 .097656-.078125.175781-.171875.175781h-.855469c-.046875 0-.089843-.019531-.125-.050781-.03125-.03125-.050781-.078125-.050781-.125v-3.90625c0-.070313.042969-.132813.109375-.160156.019531-.007813.042969-.011719.066406-.011719zm0 0"/><path d="m6.070312.394531c-.097656.621094.191407 1.222657.605469 1.71875.359375.425781.8125.753907 1.121094.917969-.007813-.648438-.121094-1.167969-.382813-1.585938-.269531-.429687-.707031-.769531-1.34375-1.050781zm2.78125.820313c-.199218.1875-.367187.40625-.5.644531-.195312.359375-.335937.808594-.25 1.308594.007813.050781-.011718.105469-.046874.140625-.039063.039062-.09375.054687-.144532.042968-.316406-.058593-.574218-.175781-.820312-.253906-.242188-.082031-.46875-.128906-.742188-.074218-.796875.15625-1.433594.613281-1.8125 1.691406-.066406.179687-.101562.363281-.121094.550781.25-.378906.679688-.628906 1.164063-.628906.710937 0 1.296875.53125 1.386719 1.21875.246094-.234375.5625-.386719.925781-.386719.410156 0 .769531.191406 1.019531.480469.164063-.625.726563-1.089844 1.402344-1.089844.59375 0 1.101562.359375 1.328125.871094.097656-.046875.199219-.082031.304687-.101563-.011718-1.019531-.277343-1.4375-.496093-1.773437-.226563-.316407-.796875-.832031-1.453125-.851563-.316406-.007812-.496094.066406-.699219.160156-.207031.097657-.441406.214844-.792969.226563-.085937 0-.15625-.0625-.164062-.148437-.089844-.980469.464844-1.609376.710937-1.839844-.019531-.023438-.015625-.023438-.042969-.054688-.050781-.058594-.105468-.09375-.15625-.132812" fill="#d1d3d4"/><path d="m5.070312 8.214844v7.777344c-.003906.097656.050782.1875.132813.234374.339844.160157 1.324219.546876 3.054687.546876 1.738282 0 2.695313-.46875 3.015626-.664063.074218-.046875.121093-.132813.121093-.222656.003907-1.03125.003907-6.816407.003907-7.660157-.066407.015626-.128907.035157-.195313.054688-.011719.0625-.027344.128906-.046875.191406-.019531.058594-.046875.121094-.074219.175782h-.003906c-.105469.207031-.15625.4375-.140625.667968v.015625l.003906.113281c0 .097657-.023437.199219-.066406.289063-.019531.042969-.042969.085937-.070312.121094-.03125.039062-.0625.074219-.097657.101562-.035156.03125-.074219.058594-.117187.082031-.039063.023438-.082032.039063-.128906.054688-.042969.015625-.089844.027344-.136719.035156-.050781.007813-.097657.011719-.148438.011719-.152343 0-.300781-.046875-.425781-.132813-.121094-.082031-.21875-.199218-.277344-.335937-.039062-.09375-.058594-.195313-.058594-.296875 0-.015625-.003906-.039062-.011718-.058594-.007813-.023437-.015625-.046875-.027344-.070312-.011719-.019532-.027344-.042969-.042969-.0625-.015625-.015625-.03125-.03125-.050781-.046875v.003906c-.050781-.03125-.101562-.070313-.148438-.105469-.046874-.039062-.089843-.082031-.128906-.128906-.042968-.042969-.082031-.09375-.113281-.144531-.035156-.050781-.066406-.101563-.09375-.15625-.210937.003906-.421875.003906-.625 0-.203125-.003907-.40625-.011719-.605469-.027344-.191406-.011719-.386718-.027344-.578125-.046875-.347656-.03125-.691406-.078125-1.039062-.136719-.148438-.027343-.296875-.054687-.445313-.082031-.132812-.027344-.261718-.054688-.394531-.085938zm.929688.492187c.046875 0 .09375.011719.140625.03125.042969.015625.085937.042969.121094.078125.03125.035156.058593.074219.078125.121094.019531.042969.027344.09375.027344.140625v6.433594c0 .019531 0 .039062-.003907.058593-.003906.019532-.007812.039063-.011719.054688-.007812.019531-.015624.039062-.023437.054688-.007813.015624-.019531.035156-.03125.050781s-.023437.027343-.035156.042969c-.015625.015624-.03125.027343-.046875.039062s-.03125.019531-.046875.027344c-.019531.011718-.035157.019531-.054688.023437-.019531.007813-.039062.011719-.058593.015625-.015626 0-.035157.003906-.054688.003906-.050781 0-.097656-.011718-.144531-.027343-.042969-.019531-.085938-.046875-.117188-.082031-.035156-.035157-.0625-.074219-.082031-.121094-.019531-.042969-.027344-.09375-.027344-.140625v-6.433594c0-.046875.007813-.097656.027344-.140625.019531-.046875.046875-.085938.082031-.121094.03125-.035156.074219-.0625.117188-.078125.046875-.019531.09375-.03125.144531-.03125zm0 0" fill="#fbb040"/><path d="m6 8.707031c-.207031 0-.371094.167969-.371094.371094v6.433594c0 .097656.039063.191406.109375.261719.070313.070312.164063.109374.261719.109374s.191406-.039062.261719-.109374c.070312-.070313.109375-.164063.109375-.261719v-6.433594c0-.097656-.039063-.191406-.109375-.261719-.070313-.070312-.164063-.109375-.261719-.109375" fill="#ffdb96"/><path d="m5.578125 4.957031c-.523437 0-.972656.375-1.0625.890625-.015625.074219-.078125.128906-.152344.132813-.464843.015625-.828125.394531-.828125.855469 0 .421874.304688.769531.703125.851562h-.003906c.214844.035156.421875.085938.628906.144531h.003907c.773437.210938 2.332031.507813 4.027343.449219.066407 0 .128907.039062.15625.105469.074219.199219.214844.367187.398438.476562.179687.113281.285156.304688.285156.511719 0 .117188.046875.230469.128906.316406.082031.082032.195313.128906.3125.125.132813 0 .246094-.039062.324219-.101562.074219-.066406.117188-.148438.117188-.269532v-.113281c-.019532-.289062.042968-.578125.179687-.835937.058594-.109375.097656-.230469.109375-.359375.007812-.066407.054688-.121094.121094-.136719.300781-.074219.59375-.167969.882812-.273438.117188-.046874.238282-.078124.363282-.09375.425781-.058593.742187-.421874.738281-.851562 0-.226562-.089844-.445312-.25-.605469-.160157-.160156-.378907-.25-.605469-.25-.152344 0-.296875.039063-.417969.109375-.015625.007813-.027343.011719-.039062.015625l-.113281.03125c-.082032.019531-.167969-.027343-.195313-.109375-.148437-.46875-.585937-.789062-1.082031-.789062-.320313 0-.625.132812-.839844.371094-.214844.238281-.320312.558593-.285156.875.007812.082031-.046875.15625-.128906.175781-.078126.015625-.160157-.03125-.183594-.109375-.140625-.421875-.535156-.707032-.980469-.707032-.449219 0-.84375.289063-.980469.714844l-.003906.003906h-.003906c-.023438.074219-.097656.117188-.171875.105469h-.003907c-.046874-.007812-.089843-.035156-.113281-.074219-.023437-.042968-.027343-.09375-.011719-.136718.117188-.332032.066407-.699219-.136718-.988282-.203125-.285156-.535156-.457031-.886719-.457031zm6.414063 3.082031c-.125.042969-.25.085938-.375.125-.074219.023438-.148438.042969-.21875.0625 0 .84375 0 6.628907-.003907 7.660157 0 .089843-.042969.175781-.121093.222656-.039063.027344-.089844.054687-.148438.085937-.0625.03125-.132812.066407-.214844.101563-.089844.039063-.179687.074219-.273437.109375-.113281.039062-.226563.078125-.339844.109375-.207031.058594-.417969.105469-.632813.144531-.167968.027344-.339843.050782-.511718.070313-.089844.007812-.183594.015625-.28125.023437-.203125.011719-.410156.019532-.613282.019532-.207031 0-.410156-.003907-.613281-.015626-.09375-.007812-.1875-.011718-.28125-.019531-.171875-.015625-.34375-.035156-.511719-.058593-.078124-.011719-.152343-.023438-.230468-.035157-.136719-.023437-.273438-.050781-.410156-.082031-.117188-.027344-.234376-.058594-.347657-.09375-.09375-.027344-.1875-.054688-.28125-.089844-.074219-.027344-.148437-.054687-.222656-.082031-.050781-.023437-.105469-.046875-.15625-.070313-.082031-.050781-.132813-.136718-.132813-.234374v-7.777344c-.097656-.023438-.195312-.046875-.289062-.074219h-.003906c-.097656-.027344-.195313-.050781-.296875-.074219l-.023438-.007812.019531 8.96875c0 .035156.015626.066406.046876.085937.039062.023438.089843.046875.152343.074219s.140625.058594.230469.089844c.09375.027344.199219.0625.320312.09375.121094.03125.253907.0625.40625.089844.152344.03125.320313.058593.503907.085937.183593.027344.386719.046875.601562.066406.238281.023438.472657.039063.710938.046875.269531.011719.542969.019532.816406.019532.277344 0 .554687-.007813.828125-.023438.125-.007812.246094-.015625.371094-.027344.113281-.007812.226562-.019531.339844-.035156.105468-.011719.210937-.023438.316406-.039062.09375-.015626.191406-.03125.285156-.050782.109375-.019531.214844-.042968.320312-.066406.097657-.019531.191407-.046875.28125-.070312.082032-.023438.164063-.046876.246094-.074219.070313-.023438.136719-.046875.207032-.074219.0625-.027344.121093-.050781.171874-.074219.050782-.023437.097657-.042969.136719-.066406.035157-.019531.070313-.039063.105469-.0625.027344-.015625.050781-.03125.078125-.050781.011719-.007813.019531-.019532.027344-.035156.003906-.011719.007812-.027344.007812-.042969.003907-.257813.003907-.851563.003907-1.203125 0-.175782.105468-.335938.269531-.398438.054687-.023437.109375-.03125.167969-.03125.292968.003906.644531.003906.980468.003906h.003906c.066407 0 .136719-.007812.203126-.019531.34375-.070312.632812-.304687.765624-.625.054688-.128906.082032-.265625.082032-.402343v-4.355469c0-.242188-.085938-.476563-.238282-.664063-.199218-.242187-.496093-.382812-.808593-.382812h-.996094c-.085937 0-.171875-.023438-.242187-.074219-.042969-.03125-.082032-.070313-.113282-.117187-.050781-.070313-.074218-.152344-.074218-.238282zm.496093 1.523438h.855469c.0625 0 .128906.011719.1875.039062.0625.023438.117188.058594.164062.105469.042969.046875.082032.101563.105469.164063.027344.058594.039063.121094.039063.1875v3.90625c0 .066406-.011719.132812-.039063.191406-.023437.058594-.0625.113281-.105469.160156-.046874.046875-.101562.082032-.164062.109375-.058594.023438-.125.035157-.1875.035157h-.855469c-.066406 0-.128906-.011719-.191406-.035157-.058594-.027343-.113281-.0625-.160156-.109375s-.082031-.101562-.109375-.160156c-.023438-.058594-.035156-.125-.035156-.191406v-3.90625c0-.066406.011718-.128906.035156-.1875.027344-.0625.0625-.117188.109375-.164063s.101562-.082031.160156-.105469c.0625-.027343.125-.039062.191406-.039062zm0 0" fill="#fff"/></svg>