<svg height="18" viewBox="0 0 18 18" width="18" xmlns="http://www.w3.org/2000/svg"><g fill="none" stroke="#fff" stroke-linecap="round" stroke-linejoin="round" stroke-width="2" transform="scale(.75)"><path d="m10.817708 16.119792c1.692709.598958 3.911459.791666 5.182292.848958.28125.010417.53125-.088542.697917-.270833"/><path d="m11.140625 20.567708c.520833.244792 2.4375 1.119792 4.078125 1.369792.463542.0625.859375-.25.901042-.708333.119791-1.520834-.302084-3.427084-.5-4.28125"/><path d="m16.130208 21.052083c1.651042.630209 3.682292.838542 4.869792.90625.260417.020834.515625-.072916.697917-.260416m-3.708334-16.177084c1.244792 1.354167 2.302084 2.864584 3.151042 4.5.109375.239584.09375.515625-.041667.744792-.135416.223958-.375.369792-.640625.385417-1.166666.098958-2.5.020833-3.895833-.25"/><path d="m20.567708 11.140625c.244792.520833 1.119792 2.4375 1.369792 4.078125.041667.302083-.078125.59375-.307292.75m-16.697916-11.036458c-3.635417 3.630208-3.921875 9.421875-.671875 13.395833.348958.432292.958333.401042 1.171875-.119792.6875-1.708333 1.067708-5.067708 1.067708-6.708333 1.338542.447917 3.098958.901042 4.880208.619792.182292-.026042.348959-.109375.479167-.239584"/><path d="m5.520833 17.989583c1.046875.947917 2.911459 2.421875 4.5 3.151042.239584.109375.515625.09375.744792-.041667.223958-.135416.369792-.375.385417-.640625.197916-2.338541-.333334-5.296875-1.572917-8.276041m-1.229167-9.5c3.369792-1.317709 7.182292-.713542 9.979167 1.578125.432292.348958.401042.958333-.119792 1.171875-1.5.598958-4.296875.979166-6.067708 1.046875m-10.140625-4.479167 20 20"/></g></svg>