<svg height="18" viewBox="0 0 18 18" width="18" xmlns="http://www.w3.org/2000/svg"><path d="m2.675781 16.015625-1.40625-15.78125h15.460938l-1.410157 15.777344-6.328124 1.753906zm0 0" fill="#e44d26"/><path d="m9 16.425781 5.117188-1.417969 1.203124-13.484374h-6.320312zm0 0" fill="#f16529"/><path d="m9 7.375h-2.5625l-.175781-1.980469h2.738281v-1.933593h-4.851562l.042968.515624.476563 5.335938h4.332031zm0 5.027344-.007812.003906-2.15625-.582031-.136719-1.542969h-1.945313l.273438 3.039062 3.964844 1.097657h.007812zm0 0" fill="#ebebeb"/><path d="m8.992188 7.375v1.9375h2.382812l-.222656 2.507812-2.160156.585938v2.011719l3.96875-1.097657.027343-.328124.457031-5.097657.046876-.519531zm0-3.914062v1.933593h4.675781l.039062-.433593.089844-.984376.042969-.515624zm0 0" fill="#fff"/></svg>