<svg height="18" viewBox="0 0 18 18" width="18" xmlns="http://www.w3.org/2000/svg"><path d="m15.46875 3.671875-5.160156-2.996094c-.929688-.535156-2.066406-.519531-2.980469.042969l-4.628906 2.851562c-.914063.578126-1.460938 1.546876-1.460938 2.632813v5.820313c0 1.070312.574219 2.066406 1.503907 2.601562l4.710937 2.714844c.4375.253906.914063.378906 1.40625.378906.476563 0 .957031-.125 1.378906-.367188l5.117188-2.882812c.871093-.492188 1.40625-1.417969 1.40625-2.417969v-6.144531c0-.914062-.492188-1.773438-1.292969-2.234375m-8.085938 5.875v4.078125h-1.953124v-9.335938h1.953124v3.402344h3.234376v-3.402344h1.953124v9.335938h-1.953124v-4.078125zm0 0" fill="#ff4088"/></svg>