<svg height="18" viewBox="0 0 18 18" width="18" xmlns="http://www.w3.org/2000/svg"><g fill="none" stroke="#fff" stroke-linecap="round" stroke-linejoin="round" stroke-width="2" transform="scale(.75)"><path d="m16 10h2m-2 4h2m-11.828125 1c.421875-1.203125 1.557292-2.005208 2.828125-2.005208s2.40625.802083 2.828125 2.005208"/><path d="m11 11c0 1.104167-.895833 2-2 2s-2-.895833-2-2 .895833-2 2-2 2 .895833 2 2zm0 0"/><path d="m4 5h16c1.104167 0 2 .895833 2 2v10c0 1.104167-.895833 2-2 2h-16c-1.104167 0-2-.895833-2-2v-10c0-1.104167.895833-2 2-2zm0 0"/></g></svg>