<svg height="18" viewBox="0 0 18 18" width="18" xmlns="http://www.w3.org/2000/svg"><path d="m17.734375 9.398438c0-1.378907-.355469-2.675782-.984375-3.804688 2.667969-6.039062-2.859375-5.152344-3.167969-5.09375-1.167969.230469-2.253906.597656-3.253906 1.0625-.148437-.007812-.296875-.011719-.445313-.011719-3.730468 0-6.851562 2.601563-7.648437 6.089844 1.964844-2.203125 3.339844-3.09375 4.164063-3.449219-.132813.117188-.261719.234375-.386719.355469l-.125.117187c-.082031.082032-.167969.164063-.246094.242188-.050781.050781-.097656.097656-.144531.148438-.074219.070312-.144532.144531-.214844.21875l-.148438.160156c-.066406.070312-.132812.140625-.195312.210937l-.148438.164063c-.167968.1875-.332031.382812-.492187.578125-.050781.058593-.097656.117187-.148437.175781-.050782.0625-.101563.125-.152344.191406-.046875.058594-.097656.121094-.144532.183594l-.132812.175781c-.050781.066407-.101562.132813-.148438.195313l-.105468.140625c-.292969.40625-.578125.816406-.847656 1.238281l-.003907.003906c-.066406.105469-.128906.207032-.195312.308594l-.007813.019531c-.066406.101563-.128906.203125-.1875.300781l-.007812.011719c-.152344.253907-.300782.515625-.445313.773438-.707031 1.28125-1.050781 2.175781-1.066406 2.230469-2.230469 7.980468 4.738281 4.609374 5.707031 4.109374 1.046875.515626 2.226563.839844 3.472656.839844 3.414063 0 6.320313-2.238281 7.398438-5.191406h-4.125c-.609375.984375-1.78125 1.695312-3.132812 1.695312-1.976563 0-3.582032-1.554687-3.582032-3.382812h11.226563c.042969-.28125.066406-.664062.066406-1.007812m-15.832031 7.027343c-.550782-.5625-.648438-1.9375.566406-4.445312.613281 1.765625 1.835938 3.242187 3.417969 4.179687-.785157.433594-2.875 1.40625-3.984375.265625m4.523437-8.128906c.0625-1.828125 1.625-3.234375 3.546875-3.234375s3.484375 1.40625 3.546875 3.234375zm6.296875-6.214844c.726563-.351562 2.523438-1.09375 3.546875-.40625.675781.457031 1.214844 1.175781.285157 3.585938-.894532-1.433594-2.234376-2.5625-3.832032-3.179688" fill="#1ebbee"/></svg>