<svg height="18" viewBox="0 0 18 18" width="18" xmlns="http://www.w3.org/2000/svg"><path d="m.140625.140625v17.691406c.140625.007813.140625.03125.191406.03125h15.320313c.699218 0 1.382812.003907 2.085937 0 .046875 0 .121094-.023437.121094-.03125v-17.691406zm16.03125 8.847656v6.828125c0 .238282-.035156.214844-.265625.214844h-13.6875c-.230469 0-.25.023438-.25-.214844v-13.671875c0-.238281.019531-.316406.265625-.316406h13.65625c.246094 0 .28125.078125.28125.332031zm-7.113281-3.3125c-.03125-.09375-.085938-.097656-.167969-.097656-.4375.003906-.875.011719-1.3125 0-.140625 0-.199219.039063-.242187.175781-.617188 1.9375-1.238282 3.875-1.859376 5.8125-.101562.316406-.199218.632813-.308593.976563.410156 0 .78125-.007813 1.15625.003906.128906 0 .179687-.039063.214843-.160156.160157-.550781.332032-1.101563.492188-1.652344.035156-.128906.097656-.164063.226562-.164063.625.007813 1.246094.007813 1.867188 0 .121094 0 .171875.039063.207031.148438.167969.558594.351563 1.109375.519531 1.664062.035157.113282.082032.160157.214844.148438.183594-.011719.367188-.015625.550782-.015625h.644531v-.046875c-.734375-2.265625-1.472657-4.527344-2.203125-6.792969m-1.746094 3.886719c.285156-.984375.570312-1.949219.851562-2.902344.289063.953125.582032 1.917969.878907 2.902344zm4.21875 2.953125h1.40625v-5.0625h-1.40625zm.714844-7.09375c-.417969 0-.726563.296875-.722656.695313.003906.398437.296874.683593.710937.683593.429687 0 .730469-.285156.730469-.683593-.003906-.410157-.300782-.695313-.71875-.695313" fill="#faa625" fill-rule="evenodd"/></svg>