<svg height="18" viewBox="0 0 18 18" width="18" xmlns="http://www.w3.org/2000/svg"><path d="m6.742188 9.703125h2.164062c-.375-1.265625-.738281-2.4375-1.101562-3.625-.347657 1.195313-.703126 2.359375-1.0625 3.625m10.710937-9.5625h-17.050781c-.3046878 0-.261719.066406-.261719.363281v17.070313c0 .296875-.0429688.285156.242187.285156h17.09375c.285157 0 .382813.011719.382813-.285156v-17.046875c0-.320313-.097656-.386719-.40625-.386719m-6.582031 13.359375c-.230469 0-.460938-.019531-.691406-.003906-.164063.015625-.21875-.054688-.265626-.199219-.210937-.691406-.4375-1.386719-.652343-2.078125-.042969-.140625-.101563-.191406-.253907-.191406-.777343.011718-1.554687.007812-2.332031 0-.164062 0-.238281.042968-.285156.203125-.195313.691406-.414063 1.375-.613281 2.0625-.042969.152343-.109375.203125-.265625.199219-.46875-.011719-.9375-.003907-1.445313-.003907.132813-.429687.257813-.824219.382813-1.21875.773437-2.417969 1.554687-4.839843 2.324219-7.257812.050781-.167969.128906-.222657.300781-.21875.546875.011719 1.09375.003906 1.640625 0 .101562 0 .171875.007812.207031.121093.914063 2.832032 1.832031 5.675782 2.75 8.503907.003906.015625.003906.082031.003906.082031zm2.910156 0h-1.6875v-6.328125h1.6875zm-.894531-7.183594c-.515625 0-.882813-.355468-.886719-.851562s.382812-.867188.902344-.867188c.523437 0 .890625.355469.898437.867188 0 .5-.375.855468-.914062.851562" fill="#faa625" fill-rule="evenodd"/></svg>