<svg height="18" viewBox="0 0 18 18" width="18" xmlns="http://www.w3.org/2000/svg"><g fill="none" stroke="#fff" stroke-linecap="round" stroke-linejoin="round" stroke-width="2" transform="scale(.75)"><path d="m21 9v10c0 1.104167-.895833 2-2 2h-14c-1.104167 0-2-.895833-2-2v-14c0-1.104167.895833-2 2-2h7m4 2h6"/><path d="m11 9c0 1.104167-.895833 2-2 2s-2-.895833-2-2 .895833-2 2-2 2 .895833 2 2zm0 0"/><path d="m21 15-3.088542-3.088542c-.776041-.776041-2.046875-.776041-2.822916 0l-9.088542 9.088542"/></g></svg>