<svg height="18" viewBox="0 0 18 18" width="18" xmlns="http://www.w3.org/2000/svg"><g fill="none" stroke="#fff" stroke-linecap="round" stroke-linejoin="round" stroke-width="2" transform="scale(.75)"><path d="m11 16-5 5m5 0h-6c-1.104167 0-2-.895833-2-2v-14c0-1.104167.895833-2 2-2h14c1.104167 0 2 .895833 2 2v6.5"/><path d="m15.765625 22c-.15625.09375-.348958.098958-.510417.015625-.15625-.088542-.255208-.260417-.255208-.4375v-8.197917c0-.182291.098958-.348958.255208-.4375.161459-.088541.354167-.083333.510417.015625l5.875 3.671875c.296875.182292.473958.505209.473958.848959s-.177083.666666-.473958.848958zm0 0"/><path d="m11 9c0 1.104167-.895833 2-2 2s-2-.895833-2-2 .895833-2 2-2 2 .895833 2 2zm0 0"/></g></svg>