<svg height="18" viewBox="0 0 18 18" width="18" xmlns="http://www.w3.org/2000/svg"><g fill="none" stroke="#fff" stroke-linecap="round" stroke-linejoin="round" stroke-width="2" transform="scale(.75)"><path d="m16 3h5v5m-4 13h2c1.104167 0 2-.895833 2-2m0-7v3m0-12-5 5m-13-1v-2c0-1.104167.895833-2 2-2m0 18 4.145833-4.145833c.46875-.46875 1.239584-.46875 1.708334 0l2.145833 2.145833m-4-16h3"/><path d="m4 11h8c.552083 0 1 .447917 1 1v8c0 .552083-.447917 1-1 1h-8c-.552083 0-1-.447917-1-1v-8c0-.552083.447917-1 1-1zm0 0"/></g></svg>