<svg height="18" viewBox="0 0 18 18" width="18" xmlns="http://www.w3.org/2000/svg"><path d="m13.296875 12.320312 4.128906-.945312c.0625-.015625.125-.039062.175781-.078125.109376-.078125.179688-.195313.195313-.324219.007813-.066406.003906-.128906-.015625-.191406l-1.757812-7.640625c-.03125-.125-.109376-.234375-.222657-.300781-.109375-.066406-.242187-.085938-.371093-.054688l-4.128907.949219c-.125.03125-.230469.113281-.296875.222656-.066406.113281-.085937.246094-.054687.371094l1.753906 7.636719c.03125.128906.109375.234375.222656.300781.109375.070313.242188.089844.371094.054687m-1.425781 4.722657 5.007812-4.648438c.191406-.191406.144532-.308593-.117187-.214843l-3.441407.785156c-.144531.035156-.277343.105468-.382812.203125-.109375.101562-.191406.226562-.234375.363281l-1.046875 3.371094c-.070312.257812.023438.332031.214844.140625m-9.140625-1.519531 7.503906 2.324218c.125.023438.257813.003906.371094-.0625s.199219-.167968.246093-.292968l1.257813-4.03125c.015625-.0625.023437-.128907.015625-.195313-.007812-.0625-.027344-.125-.058594-.183594-.03125-.058593-.074218-.109375-.125-.148437-.050781-.039063-.109375-.070313-.175781-.089844l-7.5-2.300781c-.125-.035157-.261719-.019531-.378906.042969-.117188.0625-.199219.171874-.238281.296874l-1.25 4.027344c-.035157.125-.019532.257813.039062.375.0625.117188.167969.203125.292969.238282m-2.421875-8.253907 1.523437 6.671875c.046875.261719.167969.261719.234375 0l1.042969-3.367187c.039063-.140625.039063-.292969.003906-.4375-.03125-.144531-.097656-.277344-.191406-.390625l-2.398437-2.59375c-.167969-.199219-.289063-.144532-.214844.117187zm5.867187-7.132812-5.746093 5.332031c-.191407.179688-.203126.484375-.023438.679688l2.871094 3.113281c.089844.09375.210937.152343.339844.15625.128906.003906.253906-.042969.347656-.132813l5.746094-5.335937c.195312-.183594.203124-.488281.023437-.683594l-2.867187-3.113281c-.042969-.046875-.097657-.0820315-.15625-.1093752-.058594-.0273438-.121094-.0429688-.1875-.0429688-.0625 0-.128907.0078125-.1875.0351562-.058594.0234376-.113282.0585938-.160157.1015628zm5.550781 12.066406c.265626.070313.429688-.070313.359376-.339844l-1.664063-7.210937c-.070313-.261719-.285156-.332032-.472656-.144532l-5.414063 5.039063c-.1875.191406-.140625.402344.117188.472656zm2.828126-10.058594-6.554688-2.007812c-.257812-.0703128-.304688.023437-.09375.238281l2.398438 2.585938c.109374.097656.238281.171874.378906.214843.140625.039063.292968.042969.4375.011719l3.441406-.78125c.253906-.070312.253906-.191406-.007812-.261719m0 0" fill="#020a47" fill-rule="evenodd"/></svg>