<svg height="18" viewBox="0 0 18 18" width="18" xmlns="http://www.w3.org/2000/svg"><path d="m9 0c-4.96875 0-9 4.03125-9 9s4.03125 9 9 9 9-4.03125 9-9-4.03125-9-9-9m0 .914062c4.464844 0 8.085938 3.621094 8.085938 8.085938s-3.621094 8.085938-8.085938 8.085938-8.085938-3.621094-8.085938-8.085938 3.621094-8.085938 8.085938-8.085938m.101562 1.679688c-.835937 0-1.667968.160156-2.441406.480469.617188.453125 1.019532 1.1875 1.019532 2.011719 0 1.375-1.117188 2.492187-2.492188 2.492187-.824219 0-1.558594-.402344-2.011719-1.019531-.316406.773437-.480469 1.605468-.480469 2.441406 0 3.539062 2.867188 6.40625 6.40625 6.40625 3.539063 0 6.40625-2.867188 6.40625-6.40625s-2.867187-6.40625-6.40625-6.40625"/></svg>