<svg height="18" viewBox="0 0 18 18" width="18" xmlns="http://www.w3.org/2000/svg"><g fill="none" stroke="#fff" stroke-linecap="round" stroke-linejoin="round" stroke-width="2" transform="scale(.75)"><path d="m7 2h10c2.760417 0 5 2.239583 5 5v10c0 2.760417-2.239583 5-5 5h-10c-2.760417 0-5-2.239583-5-5v-10c0-2.760417 2.239583-5 5-5zm0 0"/><path d="m16 11.369792c.255208 1.708333-.614583 3.385416-2.15625 4.161458s-3.40625.473958-4.630208-.744792c-1.21875-1.223958-1.520834-3.088541-.744792-4.630208s2.453125-2.411458 4.161458-2.15625c1.744792.260417 3.109375 1.625 3.369792 3.369792m1.5-4.869792h.010417"/></g></svg>