<svg height="18" viewBox="0 0 18 18" width="18" xmlns="http://www.w3.org/2000/svg"><path d="m3.082031.769531-2.382812 6.523438 1.609375.535156-1.425782 2.640625 2.421876 1.910156-.222657.746094-1.058593 3.695312 5.042968-1.820312 3.453125 2.230469 6.339844-2.539063.296875-9.535156-2.941406 2.871094v6.1875h-10.429688v-10.429688h10.429688v4.242188l2.941406-2.871094-5.179688-4.117188-1.988281 2.238282-1.523437-1.871094zm.84375 3.15625v10.148438h10.148438v-10.148438zm5.46875 1.21875h.855469v2.507813c.003906.207031-.027344.40625-.09375.601562-.113281.324219-.371094.574219-.695312.683594-.183594.0625-.375.09375-.570313.089844l.011719.007812c-.261719.007813-.519532-.050781-.75-.171875-.191406-.101562-.363282-.238281-.5-.40625l.527344-.589843c.097656.109374.210937.203124.332031.28125.113281.066406.238281.105468.371093.101562.140626.007812.277344-.046875.375-.148438.101563-.140624.152344-.3125.136719-.484374zm-4.246093.003907h1.917968v.699218h-.539062v2.429688h.539062v.703125h-1.917968v-.703125h.535156v-2.429688h-.535156zm-.007813 7.050781h3.855469v.644531h-3.855469zm0 0" fill="#087cfa"/></svg>