<svg height="18" viewBox="0 0 18 18" width="18" xmlns="http://www.w3.org/2000/svg"><g fill="#4e8ef7"><path d="m12.386719 9c0 1.871094-1.515625 3.386719-3.386719 3.386719s-3.386719-1.515625-3.386719-3.386719 1.515625-3.386719 3.386719-3.386719 3.386719 1.515625 3.386719 3.386719zm0 0"/><path d="m15.910156 3.253906c0-.457031-.265625-.871094-.679687-1.058594-.414063-.191406-.902344-.121093-1.246094.179688-3.480469-2.621094-8.394531-2.101562-11.253906 1.1875-2.855469 3.289062-2.683594 8.230469.398437 11.308594 3.078125 3.082031 8.019532 3.253906 11.308594.398437 3.289062-2.859375 3.808594-7.773437 1.1875-11.253906.183594-.210937.285156-.480469.285156-.761719m-6.910156 13.761719c-3.488281.003906-6.574219-2.25-7.640625-5.570313-1.0625-3.320312.140625-6.949218 2.980469-8.972656 2.839844-2.023437 6.664062-1.980468 9.457031.109375-.328125.460938-.277344 1.09375.125 1.496094.402344.398437 1.03125.453125 1.496094.125 1.8125 2.429687 2.101562 5.675781.742187 8.386719-1.355468 2.710937-4.128906 4.421875-7.160156 4.425781"/></g></svg>