<svg height="18" viewBox="0 0 18 18" width="18" xmlns="http://www.w3.org/2000/svg"><path d="m8.007812 11.023438.027344-.003907.027344-.007812c.382812-.078125.660156-.296875.664062-.515625 0-.042969-.011718-.085938-.03125-.125-.097656-.183594-.414062-.28125-.773437-.238282l-.058594.007813c-.433593.070313-.753906.328125-.714843.570313.003906.015624.007812.027343.011718.042968.074219.21875.441406.335938.847656.269532m-2.605468 4.960937c-.253906.058594-1 .464844-1.644532.585937-.648437.125-1.207031.1875-1.402343.261719-.195313.070313-.347657.214844.035156.359375.386719.144532 2.25.195313 2.417969 0 .167968-.195312-.117188-.277344-.523438-.273437-.289062.003906-.253906-.097657-.253906-.109375 0 0 .019531-.125.464844-.1875.445312-.058594 2.414062-.246094 2.378906-.453125-.035156-.210938-1.21875-.238281-1.472656-.183594m-.898438 1.464844c-.015625-.058594-.195312-.070313-.402344-.027344-.210937.046875-.367187.132813-.355468.191406.015625.0625.195312.074219.402344.027344.207031-.042969.367187-.128906.355468-.191406m-.867187 0c-.007813-.058594-.191407-.09375-.414063-.074219-.222656.015625-.402344.078125-.398437.140625.003906.058594.191406.089844.414062.074219.222657-.019532.402344-.082032.398438-.140625zm-.851563-.09375c-.007812-.046875-.132812-.066407-.28125-.046875-.148437.019531-.265625.074218-.257812.121094.007812.046874.132812.066406.28125.046874.148437-.019531.265625-.074218.257812-.121093zm-.535156-.082031c-.007812-.035157-.128906-.050782-.273438-.027344-.140624.019531-.253906.066406-.25.101562.007813.039063.128907.054688.269532.03125.144531-.019531.257812-.066406.25-.105468zm-.121094-.148438c-.007812-.035156-.125-.050781-.269531-.027344-.144531.019532-.257813.066406-.25.105469.003906.035156.125.050781.269531.027344.144532-.019531.253906-.066407.25-.105469zm-.066406-.160156c-.003906-.035156-.109375-.046875-.234375-.027344s-.222656.058594-.21875.09375c.007813.03125.109375.042969.234375.023438.128906-.015626.222656-.058594.21875-.089844m7.214844-.777344c-.441406.023438-1.445313-.027344-1.582032.203125-.136718.230469.40625.316406 1.261719.246094.855469-.074219 2.066407-.167969 2.121094-.425781.046875-.261719-.226563-.210938-.257813-.375-.027343-.167969.304688-.167969.371094-.414063s-.449218-.214844-.90625-.214844c-.457031 0-1.21875.042969-1.292968.28125-.070313.238281.351562.238281.648437.296875s.210937.164063.210937.164063c-.015624.152343-.132812.21875-.574218.238281m-.800782.636719c0-.070313-.171874-.125-.382812-.125s-.382812.054687-.382812.125c0 .066406.171874.121093.382812.121093s.382812-.054687.382812-.121093m.859376-.027344c0-.066406-.113282-.113281-.253907-.113281s-.257812.046875-.257812.113281c0 .0625.117187.113281.257812.113281s.253907-.050781.253907-.113281m.824218-.082031c0-.050782-.128906-.09375-.28125-.09375-.15625 0-.28125.042968-.28125.09375 0 .050781.125.089844.28125.089844.152344 0 .28125-.039063.28125-.089844m.539063-.101563c0-.054687-.09375-.101562-.207031-.101562-.113282 0-.203126.046875-.203126.101562 0 .050781.089844.09375.203126.09375.113281 0 .207031-.042969.207031-.09375m.53125-.113281c0-.050781-.09375-.09375-.207031-.09375-.113282 0-.207032.042969-.207032.09375s.09375.09375.207032.09375c.113281 0 .207031-.042969.207031-.09375zm-9.226563-2.664062c0 .125.269532.242187.746094.34375-.03125-.246094-.011719-.496094.019531-.691407-.492187.105469-.765625.222657-.765625.347657zm14.140625-.316407c-.058593.15625-.152343.300781-.277343.417969-.214844.203125-.40625.328125-.574219.371094.9375-.132813 1.492187-.292969 1.492187-.472656 0-.113282-.230468-.222657-.640625-.316407m-1.601562-.261719c-.0625-.433593-.246094-.628906-.410157-.800781-.15625-.160156-.300781-.3125-.253906-.589843.042969-.257813.25-.414063.585938-.457032-.203125-1.371094-.503906-3.097656-.886719-4.574218-.191406-.734376-.496094-1.246094-.902344-1.589844-.464843.238281-1.023437.5-1.648437.769531-.449219.191406-.902344.378906-1.359375.558594-.355469.378906-.746094.757812-.984375.863281-.171875.074219-.320313.105469-.453125.105469-.285157 0-.476563-.140625-.570313-.269531-.105468.03125-.191406.050781-.25.054687-.070312.007813-.175781.015625-.304687.027344.054687.132812.027343.28125-.0625.394531-.105469.125-.273438.1875-.511719.1875-.34375 0-.832031-.132812-1.488281-.394531-.089844-.035157-.175781-.070313-.265625-.105469-.050782 0-.101563 0-.148438 0h-.003906c-.625 0-1.109375-.015625-1.492188-.046875-.421874.863281-.238281 1.820313-.085937 2.613281.148437.757813.65625 2.109375 1.132813 3.269532.160156.390624.320312.78125.488281 1.171874 1.28125.113282 2.925781.179688 4.714843.179688 2.132813 0 4.050782-.097656 5.40625-.25-.101562-.402344-.222656-.964844-.246093-1.109375zm-10.558594-3.695312c0-.8125.664063-1.476562 1.484375-1.476562.816406 0 1.480469.664062 1.480469 1.476562 0 .40625-.164063.777344-.429688 1.042969-.09375.089843-.191406.167969-.300781.234375-.230469.132812-.488281.203125-.75.199218-.820312 0-1.484375-.660156-1.484375-1.476562m3.960937 3.128906c-.3125.09375-.425781-.265625-.457031-.421875 0 0 .003907 0 .003907-.003906.148437-.089844.316406-.195313.507812-.265625.019531.058594.054688.160156.074219.265625.035156.179687.03125.378906-.128907.425781zm.507813-.125c-.078125-.03125-.136719-.160156-.179687-.300781-.03125-.109375-.054688-.21875-.070313-.328125.035156-.007812.074219-.015625.109375-.019531.019531-.003907.0625-.007813.144531-.007813.078125 0 .171875.003906.269531.007813h.085938c.007812.066406.015625.164062.027344.308593.003906.011719.003906.027344.003906.039063.003906.355469-.308594.328125-.390625.300781zm1.335937-.898437c-.152343.066406-.375.09375-.746093.09375-.125 0-.253907-.003907-.367188-.003907-.089843-.003906-.179687-.007812-.273437-.007812-.070313 0-.121094.003906-.152344.007812-.351562.046876-.640625.226563-.871094.371094-.070312.042969-.132812.082032-.191406.113282-.097656.054687-.214844.082031-.34375.082031-.234375 0-.453125-.09375-.589844-.246094-.113281-.128906-.160156-.285156-.136718-.460937.070312-.523438.820312-.789063.90625-.816407l.136718-.046875c-.003906-.015625-.007812-.027344-.011718-.042968-.039063-.242188.28125-.496094.714843-.570313l.058594-.007813c.359375-.042968.675781.054688.773437.238282h.167969c.378907.003906.695313.054687.933594.152344.242187.097656.390625.242187.417969.402343.054687.320313-.105469.597657-.425782.742188m.273438-1.691407c-.816406 0-1.480469-.660156-1.480469-1.476562s.664063-1.476562 1.480469-1.476562c.820312 0 1.484375.660156 1.484375 1.476562s-.664063 1.476562-1.484375 1.476562m-6.433594 4.871094c.347656 0 .59375-.191406.765625-.433594-.292969-.667968-.566406-1.34375-.828125-2.023437-.082031.070313-.179687.175781-.285156.335937-.257812.398438-.46875 1.324219-.203125 1.816407.113281.203125.292969.304687.550781.304687m12.277344-2.300781c-.203125-.523437-.636719-.898437-1.054688-.90625l-.015624-.003906s-.078126-.011719-.1875-.011719c-.226563 0-.503907.050781-.542969.28125-.027344.15625.042969.238281.191406.394531.167969.175781.398437.417969.46875.925781.082031.582032.222656.875.425781.875.09375 0 .261719-.054687.546875-.320312.347657-.332031.316407-.855469.167969-1.234375m-10.105469-2.464844c0 .257813-.210937.46875-.46875.46875-.257812 0-.464843-.210937-.46875-.46875.003907-.257812.210938-.464843.46875-.464843.125 0 .242188.046874.332031.136718.085938.085938.136719.207032.136719.328125m4.53125-1.089843c0 .125-.050781.242187-.136719.328124-.089843.089844-.207031.136719-.332031.136719-.257812 0-.46875-.207031-.46875-.464843 0-.257813.210938-.464844.46875-.464844.257813 0 .464844.207031.46875.464844m-6.269531-4.113282c.367188.097656.777344.148438 1.226562.148438.722657 0 2.253907-.136719 4.40625-1.074219l.050782-.019531c-.007813-.117188 0-.238282.027344-.355469.046874-.214844.144531-.398437.257812-.519531-.019531-.082032-.039062-.144532-.054688-.171875-.246093-.132813-2.292968-.894531-3.363281-.894531-.105469 0-.199219.007812-.277343.023437-.945313.195313-2.382813 1.832031-2.433594 2.066406-.015625.097657-.011719.414063 0 .753907zm-.015625 2.328125c-.03125-.007812-.0625-.011719-.09375-.015625-.199219.011719-.378906-.125-.414063-.324218-.003906-.019532-.007812-.039063-.007812-.058594-.105469.058594-.210938.125-.3125.195312l-.179688.121094-.132812-.171875c-.148438-.195313-.277344-.402344-.390625-.621094-.316406.148438-.566406.3125-.625.464844-.011719.03125-.007813.046875.003906.0625.050781.074219.359375.304687 2.152344.347656zm3.71875-.503906c.152344-.097656.355469-.078125.488281.046875.019532-.003906.054688-.011719.101563-.035156.199219-.09375.90625-.84375 1.441406-1.488282.019531-.023437.039063-.042968.066406-.0625-1.230469.53125-2.945312 1.105469-4.578125 1.105469-.265625 0-.515625-.011719-.746094-.042969l.035157.105469-.203125.078125c-.03125.011719-.0625.023438-.09375.039063.261718.058593.617187.179687 1.0625.359375.820312.328125 1.132812.339844 1.210937.335937.109375-.058593.246094-.058593.359375-.003906.15625-.011719.316406-.023437.476563-.039063.042969-.003906.109375-.015624.195312-.039062-.011719-.144531.058594-.28125.183594-.359375m4.757813-2.417969c-.058594.351563-.175782.742188-.25.847656l-.070313.097657c.289063-.136719.570313-.285157.851563-.441407.847656-.472656.957031-.679687.96875-.730468.007812-.035156 0-.046875-.003907-.050782-.011719-.011718-.070312-.070312-.339843-.070312-.292969 0-.703126.066406-1.128907.160156-.007812.0625-.019531.125-.027343.1875m-.332032.949219-.121094-.007813c-.175781-.011718-.355468-.019531-.53125-.019531-.316406 0-.734374.019531-1.078124.101563.066406.136718.046874.304687-.050782.421875-.128906.15625-.261718.3125-.394531.460937.308594-.125.617187-.253906.921875-.382812.421875-.183594.839844-.375 1.253906-.574219zm-2.40625-1.074219c-.859375.375-2.742187 1.09375-4.496094 1.09375-.441406 0-.878906-.046875-1.285156-.15625.046875.066406.085938.136719.125.207032.152344.265624.265625.527343.324219.679687.210937.035156.488281.058594.832031.058594 1.003906 0 2.578125-.226563 4.734375-1.195313.042969-.128906.085938-.257812.132813-.386718-.003906 0-.007813.003906-.011719.003906-.023437 0-.046875-.003906-.066406-.007813-.136719-.03125-.234375-.140625-.289063-.296875zm-7 2.1875c.089844.160156.191406.320313.300782.46875.523437-.359375 1.203124-.617187 1.203124-.617187s-.015624-.050781-.050781-.136719c-.019531-.050781-.039062-.101562-.0625-.152344-.058593-.136718-.121093-.273437-.195312-.40625-.050781-.097656-.109375-.195312-.171875-.289062-.210938-.3125-.476563-.582032-.773438-.582032-.09375 0-.191406.027344-.289062.089844-.546875.328125-.261719 1.078125.015625 1.585938.007812.011718.015625.027344.023437.039062m.074219-.921875c.003906-.039062.015625-.082031.042969-.125s.066406-.078125.113281-.097656l.011719-.003906.003906-.003907.015625-.003906.007813-.003906h.011718c.003906-.003906.015625-.003906.023438-.003906h.027344.023437c.011719 0 .027344.003906.039063.007812.050781.015625.085937.035156.121093.058594.0625.050781.105469.101562.148438.15625.039062.050781.070312.105469.101562.160156.050781.097656.09375.195313.125.300782.027344.074218.046875.148437.058594.222656.007813.027344.011719.050781.011719.066406l.003906.019531s-.023438-.023437-.054688-.066406c-.046874-.058594-.089843-.121094-.136718-.183594-.050782-.074219-.113282-.164062-.179688-.253906-.035156-.042969-.066406-.085937-.105468-.132813-.035157-.039062-.074219-.082031-.109376-.105468-.015624-.011719-.03125-.019532-.046874-.027344h-.003907v-.003906c0 .003906.003907 0 .003907 0s.003906 0 0 0h-.011719l-.003907.003906c-.007812 0-.015624.003906-.023437.011719-.007813.011719-.015625.023437-.019531.039062-.007813.039063-.007813.089844-.007813.136719.003907.046875.011719.09375.019531.140625.011719.085937.03125.164063.039063.21875.011719.054687.019531.085937.019531.085937s-.007812-.007812-.015625-.019531c-.011719-.011719-.027343-.027343-.042969-.046875-.050781-.0625-.089843-.128906-.125-.199218-.023437-.046876-.046874-.097657-.058593-.148438-.019531-.058594-.03125-.121094-.027344-.199219zm.175781-.90625v.113281zm7.3125-1.617187c.023438 0 .042969.003906.066406.007812.167969.035156.28125.195313.316407.417969.320312-.445313.667969-.671875 1.035156-.671875.15625 0 .296875.039062.410156.109375.109375-.132813.214844-.265625.320313-.398437-.148438.023437-.453125.066406-.453125.066406 1.160156-.425782 1.066406-1.585938 1.066406-1.585938 0 .199219-.601563.679688-.601563.679688.027344-.171875-.066406-.398438-.066406-.398438.027344.226563-.695312.8125-.695312.8125.054687-.109375.015625-.292968.015625-.292968-.042969.210937-.363281.292968-.363281.292968.203124-.242187.574218-1.503906.296874-1.585937-.28125-.078125-.671874.824219-.671874.824219-.011719-.210938-.132813-.210938-.132813-.210938.054687.664062-.480469 1.195312-.480469 1.195312-.039062-.132812-.253906-.199218-.253906-.199218.070312.148437-.007812.824218-.03125 1.015625.070312-.050781.144531-.078125.222656-.078125m-.285156 1.292968v.003907c.003906.003906.011719.011719.015625.015625.003906 0 .003906.003906.007813.003906.003906.003906.007812.007812.015624.007812.003907.003907.011719.007813.019532.007813.011718.003906.027344.003906.039062 0 .035156-.003906.074219-.027344.113282-.0625.035156-.082031.070312-.164063.113281-.25.035156-.070313.070312-.144531.113281-.21875.054688-.300781-.023438-.546875-.132812-.574219-.007813 0-.015626 0-.019532 0-.117187 0-.285156.199219-.351562.5-.046875.21875-.027344.410156.03125.515625v.003907c.007812.019531.019531.035156.035156.046874zm1.714844-.566406h-.003906zm.003906.003906h-.003906v-.003906.003906zm-.015625-.75c-.660156 0-1.148437.992188-1.402344 1.667969-.042969.117188-.085937.234375-.125.355469-.019531.0625-.035156.121094-.054687.183594.03125.007812.0625.019531.09375.03125.382812-.113282.882812-.140625 1.261718-.140625.316407 0 .546876.019531.546876.019531.101562-.140625.683593-2.117188-.320313-2.117188m.230469.8125c-.007813.070313-.023438.140626-.050782.203126-.019531.054687-.042968.109374-.074218.15625-.039063.074218-.085938.148437-.140625.214843-.039063.046875-.0625.070313-.0625.070313s.007812-.03125.023437-.089844c.011719-.058594.035156-.144531.058594-.242188.011719-.046874.023438-.101562.03125-.15625.011719-.050781.015625-.105468.011719-.15625 0-.023437-.003907-.046874-.011719-.058593 0-.003907 0-.003907-.003906-.003907v-.003906l-.011719-.003906-.027344-.007812c-.011719-.003907-.023437-.003907-.035156-.003907-.011719-.003906-.023437-.003906-.035156-.003906s-.023438.003906-.03125.003906c-.046875.007813-.089844.027344-.132813.058594-.046875.035156-.085937.074219-.125.117187-.074218.089844-.132812.1875-.183594.273438-.050781.085938-.09375.164062-.125.214844l-.046874.085937s0-.011719 0-.027343c.003906-.015626.003906-.039063.003906-.070313.007812-.085937.023437-.167969.046875-.253906.027343-.101563.070312-.21875.144531-.339844.039062-.0625.089844-.121094.144531-.171875.066407-.054688.148438-.09375.234375-.109375.023438-.003906.046875-.003906.066406-.007813.023438.003907.046876.003907.070313.007813.019531.003906.042969.003906.0625.011719l.03125.011718.015625.003907v.003906h.003906l.007813.003906h.003906l.003906.003907c.007813 0 .0625.035156.074219.054687l.015625.019531.011719.019532c.003906.011718.011718.023437.015625.039062.015625.050781.019531.09375.015625.132812m-3.765625 3.609376c.109375 0 .226562-.03125.355469-.085938.261718-.117188.90625-.761719 1.636718-1.640625.039063-.046875.050782-.109375.023438-.164063-.027344-.054687-.082032-.089843-.140625-.089843-.046875 0-.09375.019531-.125.054687-.316407.382813-1.210938 1.40625-1.519531 1.550782l-.003907.003906c-.054687.023437-.109375.042968-.167969.050781l-.117187.019531-.085937-.082031c-.027344-.027344-.066407-.042969-.109376-.042969-.027343 0-.058593.007813-.082031.027344-.035156.019531-.058593.054688-.070312.097656-.007813.039063 0 .082032.023437.117188.011719.019531.125.183594.382813.183594m-1.496094.035156c-.023437 0-.050781.003906-.074219.015625l-.042968.023437-.054688.003906c-.011719.003907-.023438.003907-.035156.003907-.148438 0-.507813-.046875-1.277344-.355469-.84375-.339844-1.179688-.390625-1.304688-.390625-.015624 0-.03125 0-.042968 0-.042969.007813-.078125.03125-.101563.066406-.023437.035157-.035156.078125-.027343.117188.015624.074219.078124.128906.15625.128906h.007812.035156c.09375.007813.394532.058594 1.160156.367187.621094.25 1.089844.375 1.398438.375.160156 0 .269531-.03125.324219-.101562.027343-.03125.039062-.070312.035156-.113281s-.023437-.078125-.054687-.105469c-.027344-.023438-.0625-.035156-.101563-.035156m2.125 3.257812s-.042969.515625-.773437.625c-.136719.019532-.257813.027344-.359376.027344-.386718 0-.542968-.125-.632812-.238281 0 0-.699219.234375-.75.636719-.042969.296874.246094.449218.5.449218.085938 0 .167969-.015625.234375-.050781.253906-.140625.632813-.445313 1.140625-.511719.046875-.007812.109375-.007812.183594-.007812.175781 0 .414062.011718.640625.011718.261719 0 .515625-.015624.652343-.078124.316407-.140626.316407-.378907.296876-.5-.023438-.132813-.34375-.355469-1.132813-.363282zm0 0" fill="#67cfe3"/></svg>