<svg height="18" viewBox="0 0 18 18" width="18" xmlns="http://www.w3.org/2000/svg"><path d="m9 0c-4.96875 0-9 4.03125-9 9s4.03125 9 9 9 9-4.03125 9-9-4.03125-9-9-9m1.066406 1.886719c3.457032.546875 6.003906 3.527343 6.003906 7.027343 0 3.933594-3.1875 7.121094-7.117187 7.121094v-.003906c-2.679687 0-5.128906-1.5-6.34375-3.882812-1.214844-2.386719-.988281-5.25.582031-7.417969 1.574219-2.164063 4.230469-3.265625 6.875-2.84375zm-2.144531 1.316406v3.699219l.367187.472656h1.355469l.34375-.472656v-3.699219zm4.25.761719-1.648437 2.269531.453124.332031 1.648438-2.273437zm-6.351563 0-.457031.332031 1.648438 2.269531.457031-.332031zm-1.871093 2.140625-.640625 1.964843 3.519531 1.144532.5625-.203125.417969-1.292969-.339844-.472656zm10.042969 0-3.519532 1.140625-.332031.496094.417969 1.289062.554687.183594 3.519531-1.144532zm-2.109376 3.359375-.175781.535156 2.667969.867188.175781-.535157zm-5.84375 0-2.671874.867187.175781.535157 2.667969-.867188zm1.527344.074218-.550781.175782-2.175781 2.996094 1.671875 1.214843 2.171875-2.996093-.015625-.59375zm2.785156.003907-1.097656.796875v.585937l2.171875 2.992188 1.671875-1.214844-2.171875-2.992187zm-1.699218 2.1875v2.804687h.5625v-2.804687zm0 0" fill="#8a4182"/></svg>