<svg height="18" viewBox="0 0 18 18" width="18" xmlns="http://www.w3.org/2000/svg"><path d="m.28125.140625v17.578125h17.578125v-17.578125zm9.296875 14.976563c-.257813.527343-.753906.875-1.328125 1.042968-.882812.203125-1.726562.085938-2.351562-.289062-.421876-.257813-.75-.65625-.972657-1.113282l1.339844-.820312c.011719.007812.046875.070312.09375.152344.171875.285156.320313.488281.609375.628906.28125.097656.90625.160156 1.148438-.339844.148437-.253906.101562-1.074218.101562-1.976562 0-1.421875.003906-2.839844.003906-4.246094h1.648438c0 1.546875.007812 3.011719 0 4.519531.003906.925781.082031 1.753907-.292969 2.441407m6.832031-.464844c-.574218 1.960937-3.761718 2.023437-5.039062.730468-.269532-.304687-.4375-.464843-.597656-.816406.675781-.390625.675781-.390625 1.335937-.769531.359375.550781.6875.851563 1.285156.976563.808594.097656 1.621094-.179688 1.4375-1.039063-.1875-.699219-1.652343-.871094-2.652343-1.621094-1.015626-.679687-1.25-2.335937-.417969-3.28125.277343-.351562.75-.609375 1.246093-.734375l.519532-.070312c.996094-.019532 1.617187.246094 2.074218.753906.128907.128906.234376.269531.425782.570312-.53125.335938-.527344.335938-1.289063.824219-.160156-.347656-.429687-.566406-.714843-.664062-.441407-.132813-1 .011719-1.113282.480469-.042968.144531-.03125.277343.03125.515624.179688.40625.777344.585938 1.316406.832032 1.554688.628906 2.078126 1.304687 2.207032 2.105468.121094.691407-.03125 1.140626-.054688 1.207032" fill="#f0db4f"/></svg>