<svg height="18" viewBox="0 0 18 18" width="18" xmlns="http://www.w3.org/2000/svg"><path d="m17.457031 8.863281c0-1.082031-.820312-1.992187-1.921875-2.253906l2.464844-6.59375h-12.210938l2.46875 6.617187c-1.066406.277344-1.851562 1.171876-1.851562 2.234376 0 .78125.429688 1.472656 1.082031 1.898437-.257812.332031-.554687.640625-.890625.929687-.636718.542969-1.34375.957032-2.105468 1.234376-.6875-.421876-.984376-1.164063-.714844-1.832032 1.046875-.289062 1.808594-1.179687 1.808594-2.226562 0-1.28125-1.148438-2.324219-2.558594-2.324219-1.417969 0-2.570313 1.046875-2.570313 2.332031 0 .632813.289063 1.214844.746094 1.632813-.039063.070312-.078125.144531-.121094.222656-.382812.71875-.816406 1.527344-.9843748 2.4375-.3320312 1.820313.2109378 3.285156 1.5234378 4.109375.738281.464844 1.554687.699219 2.429687.699219 1.507813 0 3.039063-.6875 4.515625-1.355469 1.054688-.472656 2.144532-.964844 3.214844-1.203125.398438-.089844.808594-.140625 1.246094-.199219.878906-.113281 1.792968-.234375 2.613281-.664062.957031-.507813 1.609375-1.347656 1.796875-2.316406.144531-.742188 0-1.492188-.367188-2.148438.253907-.359375.386719-.792969.386719-1.230469zm-1.117187 0c0 .722657-.648438 1.308594-1.445313 1.308594s-1.445312-.585937-1.445312-1.308594c0-.234375.070312-.457031.191406-.652343.042969-.070313.101563-.144532.160156-.207032.058594-.0625.125-.121094.199219-.171875l.007812-.003906c.042969-.03125.09375-.0625.148438-.09375 0 0 .003906 0 .003906-.007813.023438-.007812.046875-.023437.070313-.035156.003906 0 .011719-.003906.015625-.003906.023437-.011719.050781-.019531.082031-.03125.027344-.011719.050781-.019531.078125-.03125.007812 0 .011719-.007812.019531-.007812.019531-.003907.042969-.011719.066407-.019532.007812 0 .019531-.003906.023437-.003906.027344-.003906.050781-.011719.082031-.015625h.003906l.085938-.015625c.007812 0 .015625 0 .023438-.003906.023437 0 .046874-.007813.070312-.007813h.027344c.027344 0 .058594-.003906.089844-.003906h.074218c.023438 0 .042969 0 .0625.003906h.011719c.046875.007813.09375.011719.140625.023438.652344.121093 1.152344.652343 1.152344 1.289062m-8.953125-7.808593h9.015625l-2.070313 5.539062c-.085937.015625-.171875.042969-.257812.070312l-2.175781-4.03125-2.183594 4.003907c-.085938-.027344-.179688-.042969-.269532-.058594zm4.097656 7.355468c-.109375-.488281-.382813-.925781-.773437-1.25l1.1875-2.171875 1.195312 2.21875c-.355469.324219-.613281.734375-.714844 1.203125zm-2.871094-.820312c.027344-.007813.050781-.011719.082031-.019532h.015626c.023437-.003906.046874-.003906.066406-.007812h.023437c.023438 0 .042969-.003906.066407-.003906h.222656c.023437 0 .039062.003906.054687.003906.011719 0 .019531 0 .03125.003906.023438.003906.039063.003906.0625.011719.003907 0 .011719 0 .023438.003906.027343.007813.054687.011719.078125.015625h.007812c.023438.003906.046875.011719.066406.019532.007813 0 .011719.007812.023438.007812.019531.003906.039062.011719.058594.019531.003906 0 .011718.003907.015625.003907.023437.011718.046875.019531.070312.027343h.003907c.03125.011719.054687.019531.074218.035157h.007813c.023437.011718.046875.027343.070312.039062.003907 0 .003907.003906.007813.003906.023437.011719.042968.027344.066406.035156l.003906.007813c.070313.046875.132813.097656.195313.148437l.003906.007813c.058594.054687.117187.117187.164063.1875.148437.207031.234374.449219.234374.714844 0 .722656-.648437 1.3125-1.445312 1.3125s-1.445312-.589844-1.445312-1.3125c-.003907-.605469.460937-1.121094 1.089843-1.265625m-5.640625-.039063c.796875 0 1.445313.589844 1.445313 1.3125 0 .722657-.648438 1.308594-1.445313 1.308594s-1.441406-.585937-1.441406-1.308594c0-.722656.644531-1.3125 1.441406-1.3125m13.332032 4.511719c-.125.664062-.578126 1.246094-1.246094 1.59375-.625.328125-1.390625.433594-2.199219.535156-.441406.058594-.90625.121094-1.351563.21875-1.191406.265625-2.339843.785156-3.449218 1.285156-1.421875.640626-2.765625 1.242188-4.007813 1.242188-.648437 0-1.226562-.164062-1.777343-.511719-1.257813-.792969-1.195313-2.273437-1.046876-3.085937.136719-.757813.519532-1.472656.886719-2.152344.023438-.042969.042969-.078125.0625-.121094.128907.042969.261719.074219.398438.09375-.21875 1.101563.398437 2.242188 1.601562 2.804688l.21875.101562.234375-.078125c1.003906-.320312 1.933594-.847656 2.753906-1.546875.460938-.398437.859376-.824218 1.191407-1.285156.128906.019531.261719.027344.394531.027344 1.191406 0 2.195312-.746094 2.480469-1.746094h.964843c.285157 1.003906 1.289063 1.746094 2.480469 1.746094.476563 0 .917969-.121094 1.292969-.324219.152344.390625.195312.796875.117188 1.203125m0 0" fill="#99425b"/></svg>