<svg height="18" viewBox="0 0 18 18" width="18" xmlns="http://www.w3.org/2000/svg" xmlns:xlink="http://www.w3.org/1999/xlink"><linearGradient id="a" gradientUnits="userSpaceOnUse" x1="3.263993" x2="8.276983" y1="6.115988" y2="8.553983"><stop offset=".21" stop-color="#fe2857"/><stop offset="1" stop-color="#293896"/></linearGradient><linearGradient id="b" gradientUnits="userSpaceOnUse" x1="1.737996" x2="8.294983" y1="6.985986" y2="2.122996"><stop offset="0" stop-color="#fe2857"/><stop offset=".01" stop-color="#fe2857"/><stop offset=".86" stop-color="#ff318c"/></linearGradient><linearGradient id="c" gradientUnits="userSpaceOnUse" x1="7.416985" x2="16.026968" y1="2.157996" y2="9.97598"><stop offset=".02" stop-color="#ff318c"/><stop offset=".21" stop-color="#fe2857"/><stop offset=".86" stop-color="#fdb60d"/></linearGradient><linearGradient id="d" gradientUnits="userSpaceOnUse" x1="15.54597" x2="5.506989" y1="8.979982" y2="15.889968"><stop offset=".01" stop-color="#fdb60d"/><stop offset=".86" stop-color="#fcf84a"/></linearGradient><path d="m8.15625 8.371094-4.136719-3.5c-.460937-.386719-1.109375-.457032-1.644531-.183594s-.855469.839844-.8125 1.441406c.042969.601563.441406 1.117188 1.011719 1.3125h.015625l.039062.011719 5.214844 1.589844c.039062.011719.078125.019531.117188.019531.167968 0 .3125-.113281.359374-.273438.042969-.160156-.023437-.328124-.164062-.417968zm0 0" fill="url(#a)"/><path d="m8.984375 2.59375c.003906-.402344-.214844-.773438-.566406-.964844-.351563-.191406-.78125-.171875-1.117188.046875l-5.050781 3.066407c-.46875.304687-.726562.84375-.675781 1.398437.054687.558594.414062 1.035156.929687 1.246094.519532.210937 1.109375.117187 1.535156-.246094l4.527344-3.6875.035156-.03125c.242188-.207031.382813-.511719.382813-.828125zm0 0" fill="url(#b)"/><path d="m16.328125 9.199219-7.660156-7.378907c-.285157-.28125-.699219-.390624-1.082031-.277343-.382813.113281-.675782.429687-.757813.820312-.085937.390625.054687.796875.359375 1.058594l.011719.011719 8.140625 6.855468c.21875.1875.527344.226563.785156.105469.257812-.121093.425781-.382812.425781-.667969 0-.199218-.082031-.386718-.222656-.527343m0 0" fill="url(#c)"/><path d="m16.550781 9.730469c0-.277344-.152343-.535157-.398437-.660157-.246094-.128906-.542969-.105468-.769532.058594l-9.269531 4.53125c-.503906.25-.824219.765625-.828125 1.332032-.003906.5625.308594 1.082031.8125 1.339843.5.257813 1.105469.214844 1.5625-.113281l8.574219-5.886719c.195313-.136719.316406-.363281.316406-.601562zm0 0" fill="url(#d)"/><path d="m6 6h6v6h-6zm0 0"/><g fill="#fff"><path d="m6.652344 10.875h2.25v.375h-2.25zm-.09375-3.328125.167968-.15625c.03125.050781.085938.082031.148438.085937.0625 0 .105469-.046874.105469-.132812v-.589844h.257812v.59375c.007813.09375-.027343.191406-.09375.261719-.066406.066406-.160156.101563-.257812.101563-.128907.003906-.253907-.058594-.328125-.164063m.792968-.792969h.753907v.21875h-.5v.140625h.449219v.199219h-.445313v.152344h.5v.21875h-.757813zm1.121094.226563h-.28125v-.226563h.824219v.226563h-.28125v.707031h-.261719zm-1.808594 1.078125h.441407c.09375-.007813.183593.023437.253906.082031.042969.039063.0625.09375.0625.152344 0 .09375-.058594.175781-.144531.207031.109375.023438.1875.121094.183594.230469 0 .167969-.128907.269531-.355469.269531h-.441407zm.5.289062c0-.050781-.042968-.082031-.121093-.082031h-.128907v.164063h.128907c.074219 0 .121093-.027344.121093-.078126zm-.089843.265625h-.160157v.171875h.164063c.078125 0 .125-.03125.125-.085937-.003906-.050781-.042969-.085938-.128906-.085938zm.46875-.554687h.417969c.109374-.007813.21875.027344.304687.097656.054687.058594.085937.140625.082031.21875.003906.128906-.074218.246094-.191406.289062l.222656.335938h-.300781l-.1875-.285156h-.085937v.285156h-.261719zm.402343.449218c.085938 0 .140626-.042968.140626-.113281 0-.074219-.054688-.109375-.140626-.109375h-.140624v.226563zm0 0"/><path d="m8.707031 8.050781h.25l.402344.945313h-.277344l-.070312-.171875h-.363281l-.066407.175781h-.269531zm.230469.574219-.105469-.265625-.105469.265625zm.460938-.570312h.261718v.9375h-.261718zm.359374 0h.242188l.335938.5v-.5h.257812v.9375h-.226562l-.351563-.515626v.515626h-.261719zm.878907.796874.144531-.171874c.082031.070312.191406.109374.300781.113281.070313 0 .105469-.023438.105469-.066407 0-.039062-.027344-.058593-.15625-.089843-.203125-.046875-.355469-.101563-.355469-.292969 0-.171875.140625-.300781.363281-.300781.140626-.003907.277344.039062.386719.125l-.125.179687c-.078125-.058594-.167969-.089844-.261719-.09375-.0625 0-.09375.027344-.09375.0625 0 .042969.03125.0625.160157.089844.214843.046875.347656.117188.347656.292969 0 .191406-.148437.296875-.375.296875-.160156.007812-.316406-.042969-.441406-.144532zm0 0"/></g></svg>