<svg height="18" viewBox="0 0 18 18" width="18" xmlns="http://www.w3.org/2000/svg"><path d="m9 .140625v-.0703125zm.941406.257813-.035156.058593.03125-.058593zm5.992188 3.382812.035156-.0625zm.628906.53125.054688-.039062v-.003907zm.09375.128906.058594-.039062v-.003906zm.011719.015625.058593-.039062zm.105469.167969.058593-.03125v-.003906zm.230468.863281h.070313zm0 6.882813h-.070312zm-.253906.992187.058594.035157zm-.71875.730469.035156.0625zm-5.929688 3.5-.035156-.0625zm-.804687.261719v.070312h.007813zm-.378906.003906-.003907.070313h.003907zm-.796875-.246094-.035156.058594zm-6.296875-3.558593.035156-.0625zm-.699219-1.1875h-.070312v.003906zm0-7.285157-.070312-.003906v.003906zm.132812-.734375-.0625-.03125-.003906.007813zm.164063-.339844-.058594-.035156-.003906.007813zm.609375-.59375.035156.058594zm5.929688-3.5.035156.0625zm.984374-.273437v-.0703125zm-7.355468 4.894531.035156-.0625c-.019531-.011718-.042969-.011718-.0625-.003906s-.03125.023438-.039062.042969zm-.011719.039063-.066406-.019531h-.003907zm-.078125.5625h.070312zm0 7.230469h-.070312zm.507812.859374.035157-.058593zm6.296876 3.558594-.035157.0625zm.605468.195313-.007812.070312zm.015625.003906-.007812.070313c.019531 0 .039062-.007813.054687-.019532.011719-.011718.023438-.03125.023438-.050781zm0-.308594h.070313zm0-1.28125h.070313zm0-1.457031h.070313c0-.035156-.027344-.066406-.066406-.070312zm-.007812 0-.011719.070312h.003906zm-.378907-.113281-.03125.066406h.003907zm-.042968-.019531-.035156.0625h.003906zm-.039063-.023438-.035156.0625zm-3.816406-2.152344.035156-.0625zm-.335937-.328125-.058594.035157zm-.125-.457031h-.070313v.003906zm0-4.378906h.070312zm.054687-.402344-.070313-.019531zm.011719-.042969.066406.023438c.007812-.035157-.003906-.066407-.03125-.082031zm12.203125-1.703125.0625-.03125c-.007813-.015625-.023438-.027344-.042969-.035156-.019531-.003906-.039062-.003906-.054688.007812zm-2.617188 1.566406-.035156-.0625c-.03125.019532-.042969.058594-.027344.089844zm.007813.011719.0625-.03125zm.109375.4375h.070312v-.003906zm0 .042969h.070312v-.003906zm0 4.167969h-.070313zm-.164063.636719-.0625-.03125zm-.464844.472656-.035156-.0625zm-3.589843 2.117187-.035157-.058593zm-.398438.152344.011719.070313zm-.03125.007813-.011719-.070313c-.035156.007813-.058593.035156-.058593.070313zm0 .296874h.070313zm0 1.714844h.070313zm0 1.007813h.070313zm0 .03125-.070312-.003907c0 .023438.007812.042969.023437.054688.015625.015625.035156.019531.054688.019531zm.054688-.007813.007812.066406h.003907zm.511719-.179687.035156.0625zm.042968-.023438.035156.0625zm5.929688-3.496093.035156.058593zm.582031-.59375.0625.035156zm.207031-.808594h-.070312zm0-6.878906h.070313v-.003907zm-.15625-.625.066406-.03125-.003906-.003907zm-7.523437-4.351563v.070313zm-.800781.222656.035156.0625zm-5.925782 3.496094.035156.0625zm-.445312.417969-.058594-.039063v.003907zm-.027344.042968-.058594-.039062c-.011718.015625-.015625.035156-.007812.054688.003906.019531.015625.035156.03125.042968zm2.660156 1.488282-.035156.0625c.03125.015625.070312.007812.09375-.019532zm.027344-.039063-.054688-.042969v.003907zm.292969-.265625-.035157-.0625-.003906.003906zm.035156-.023437-.035156-.058594zm3.589844-2.117188.039062.058594zm.636719-.179687v-.070313zm.640624.167968-.035156.058594zm3.628907 2.050782.035156-.0625zm.335937.265625.054688-.046875v-.003906l-.050782.050781zm.027344.027343-.054688.046876c.023438.023437.0625.027343.089844.011718zm2.613281-1.5625.035157.0625c.015624-.011718.027343-.03125.03125-.050781.003906-.019531 0-.042969-.015626-.058593zm-.03125-.03125.054688-.046874zm-.414062-.34375.035156-.058593zm-.042969-.023437.035156-.0625h-.003906zm-5.996094-3.386719-.035156.0625zm1.976563 6.507813-.035157.058593zm-2.4375-1.40625.035156-.0625zm-.515625 0-.035156-.0625zm-2.4375 1.40625.035156.058593zm0 3.710937.035156-.0625zm2.4375 1.40625-.035156.058594zm.515625 0 .035156.058594zm2.4375-1.40625-.035157-.0625zm-2.734375-10.730468c.320312.003906.632812.089843.910156.246093l.066406-.121093c-.296875-.167969-.632812-.257813-.972656-.2656255zm.910156.246093 5.992188 3.386719.070312-.125-5.996094-3.382812zm5.992188 3.386719c.234374.132812.441406.304688.609374.515625l.109376-.089844c-.179688-.222656-.402344-.40625-.648438-.550781zm.609374.511719.09375.128906.113282-.085937-.097656-.125zm.09375.125.007813.015625.117187-.078125-.011718-.015625zm.007813.011719.101563.171874.121093-.074218-.105469-.171875zm.101563.167968c.140624.257813.21875.542969.222656.828125h.140625c-.003907-.3125-.085938-.617187-.242188-.894531zm.222656.828125v6.882813h.140625v-6.882813zm0 6.882813c.003906.335937-.082032.664062-.246094.957031l.121094.070313c.179687-.3125.269531-.667969.265625-1.027344zm-.246094.957031c-.164062.292969-.402344.535156-.691406.707031l.070312.121094c.308594-.183594.566406-.445312.742188-.757812zm-.691406.707031-5.929688 3.496094.070313.121094 5.929687-3.496094zm-5.929688 3.496094c-.238281.140625-.503906.226562-.777344.253906l.015626.140625c.292968-.027343.578124-.121093.832031-.273437zm-.769531.253906-.378906.003906v.140626l.378906-.003907zm-.371094.003906c-.269531-.023437-.535156-.105468-.769531-.238281l-.070312.121094c.253906.144531.535156.230469.828124.257813zm-.769531-.238281-6.296875-3.558593-.070313.125 6.296876 3.554687zm-6.296875-3.558593c-.40625-.226563-.660156-.65625-.664063-1.125l-.140624.003906c.003906.515625.285156.992187.734374 1.246094zm-.664063-1.125v-7.285157h-.140624v7.285157zm0-7.285157c.003907-.25.046876-.488281.128907-.710937l-.132813-.046875c-.085937.234375-.132812.492187-.136718.753906zm.125-.703125.164063-.339844-.125-.058593-.164063.335937zm.160157-.332031c.148437-.234375.347656-.433594.585937-.574219l-.070312-.121094c-.257813.152344-.476563.367188-.632813.621094zm.585937-.574219 5.929688-3.496094-.074219-.121093-5.925781 3.496093zm5.929688-3.496094c.289062-.171874.617187-.261718.953125-.265624l-.003907-.1406255c-.359374.0039063-.710937.1015625-1.023437.2851565zm.949218-.265624h.054688v-.1406255h-.054688zm-7.421874 4.800781-.011719.042969.132812.042968.011719-.042968zm-.015626.042969c-.054687.1875-.082031.386718-.078124.582031h.140624c-.003906-.183594.023438-.367188.074219-.539063zm-.078124.582031v7.230469h.140624v-7.230469zm0 7.230469c0 .1875.054687.371093.148437.535156l.121094-.074219c-.082031-.140625-.128907-.296875-.128907-.460937zm.148437.535156c.09375.160156.230469.292968.394531.386718l.070313-.121093c-.140625-.082031-.261719-.199219-.34375-.339844zm.394531.386718 6.300782 3.558594.066406-.125-6.296875-3.554687zm6.300782 3.558594c.191406.109375.40625.179688.628906.203125l.015625-.140625c-.203125-.023437-.398438-.085937-.578125-.1875zm.628906.203125.015625.003907.011719-.140626-.011719-.003906zm.09375-.066406v-.308594h-.140625v.308594zm0-.308594v-1.28125h-.140625v1.28125zm0-1.28125v-1.457031h-.140625v1.457031zm-.066406-1.527343h-.007813l-.011719.140624h.007813zm-.003907 0c-.121093-.015626-.242187-.050782-.355469-.105469l-.058593.128906c.125.058594.257812.097656.394531.117187zm-.355469-.105469-.042968-.019531-.0625.125.042968.023437zm-.039062-.019531-.039062-.019532-.070313.121094.039063.023438zm-.039062-.019532-3.816407-2.15625-.066406.121094 3.8125 2.15625zm-3.816407-2.15625c-.128906-.070312-.234375-.175781-.308593-.304687l-.121094.074219c.085937.148437.210937.269531.359375.351562zm-.308593-.304687c-.074219-.125-.113282-.269531-.117188-.417969l-.140625.003906c.003906.171875.050781.339844.136719.488282zm-.117188-.417969v-4.378906h-.140625v4.378906zm0-4.378906c0-.132813.015625-.261719.050781-.382813l-.136719-.039062c-.035156.136719-.054687.28125-.054687.421875zm.050781-.382813.011719-.039062-.136719-.042969-.011719.042969zm-.019531-.121093-2.65625-1.488282-.070312.121094 2.65625 1.488281zm12.132812-1.703126-2.617187 1.5625.070313.121094 2.617187-1.5625zm-2.644531 1.652344.003907.015625.128906-.0625-.007813-.011719zm.003907.011719c.0625.132813.097656.273437.105468.414063l.140625-.007813c-.011719-.160156-.050781-.316406-.117187-.464844zm.105468.414063v.039062l.140625-.003906v-.039063zm0 .039062v4.167969h.140625v-4.167969zm0 4.167969c0 .210937-.050781.417969-.15625.605469l.121094.066406c.117188-.203125.175781-.4375.175781-.671875zm-.15625.605469c-.105468.183593-.253906.335937-.4375.441406l.074219.121094c.203125-.117188.371094-.289063.484375-.496094zm-.4375.441406-3.589844 2.121094.070313.121093 3.59375-2.121093zm-3.589844 2.121094c-.117187.066406-.246093.117187-.378906.144531l.027344.136719c.148438-.03125.292969-.082032.421875-.160157zm-.375.144531-.03125.003906.023438.136719.03125-.003906zm-.089843.074219v.296874l.140625-.003906v-.292968zm0 .296874v1.714844h.140625v-1.71875zm0 1.714844v1.007813h.140625v-1.007813zm0 1.007813v.027343l.140625.003907v-.03125zm.078125.097656.054687-.007813-.019531-.136718-.054688.007812zm.058594-.007813c.1875-.027343.367187-.089843.535156-.183593l-.070313-.121094c-.152343.082031-.316406.140625-.488281.167969zm.535156-.183593.042968-.023438-.070312-.125-.042969.027344zm.042968-.023438 5.929688-3.5-.070312-.121093-5.929688 3.5zm5.929688-3.5c.253906-.148437.464844-.363281.609375-.617187l-.125-.070313c-.132813.234375-.324219.429688-.554687.566407zm.609375-.617187c.144531-.257813.21875-.546875.214844-.84375h-.140625c.003906.273437-.066406.539062-.199219.773437zm.214844-.84375v-6.878906h-.140625v6.878906zm0-6.882813c0-.222656-.058594-.445312-.160157-.652343l-.128906.0625c.097656.191406.148438.390624.148438.59375zm-.164063-.65625-.023437-.046875-.125.066406.023437.046876zm-7.585937-4.386719c-.292969.003907-.582031.082032-.835938.234376l.070313.121093c.234375-.140625.496094-.210937.765625-.214843zm-.835938.234376-5.929687 3.496093.074218.121094 5.925782-3.496094zm-5.929687 3.496093c-.183594.109375-.34375.257813-.464844.4375l.117188.078125c.109374-.160156.253906-.296875.421874-.394531zm-.464844.441407-.027344.039062.117188.074219.027344-.039063zm-.003906.136718 2.660156 1.492188.070312-.125-2.660156-1.488282zm2.753906 1.472656.027344-.039062-.113282-.082031-.027343.035156zm.027344-.039062c.074218-.097656.167968-.183594.273437-.25l-.078125-.117188c-.117187.074219-.222656.171876-.308594.28125zm.269531-.25.035156-.019531-.070312-.121094-.035157.019531zm.035156-.019531 3.59375-2.121094-.074219-.121094-3.589843 2.121094zm3.59375-2.121094c.179688-.105469.386719-.164063.597657-.167969v-.140625c-.234376.003907-.46875.066407-.671876.1875zm.597657-.167969c.210937 0 .421874.054688.605468.15625l.066406-.121094c-.203124-.117187-.4375-.175781-.671874-.175781zm.605468.15625 3.628906 2.050782.070313-.121094-3.632813-2.050782zm3.628906 2.050782c.121094.070312.226563.152343.320313.253906l.105469-.097656c-.105469-.109376-.222656-.203126-.355469-.277344zm.320313.253906.023437.027344.105469-.09375-.023437-.027344zm.113281.039062 2.613282-1.558594-.074219-.121093-2.609375 1.558593zm2.628906-1.667968-.027343-.03125-.105469.09375.027344.03125zm-.027343-.03125c-.128907-.140626-.273438-.261719-.433594-.355469l-.074219.121093c.148438.085938.285156.199219.402344.328126zm-.433594-.355469-.042969-.027344-.070312.121094.039062.027343zm-.046875-.027344-5.992188-3.386719-.070312.125 5.996094 3.382813zm-5.992188-3.386719c-.253906-.144531-.546874-.21875-.839843-.214844l.003906.140626c.265625-.003907.53125.066406.765625.199218zm1.976563 6.507813-2.4375-1.40625-.070313.121093 2.4375 1.40625zm-2.4375-1.40625c-.183594-.105469-.40625-.105469-.589844 0l.070313.121093c.140625-.078124.3125-.078124.449218 0zm-.589844 0-2.433593 1.40625.070312.121093 2.433594-1.40625zm-2.433593 1.40625c-.183594.105469-.296876.300781-.296876.507812h.140626c0-.15625.085937-.304687.226562-.386719zm-.296876.507812v2.816407h.140626v-2.816407zm0 2.816407c0 .210937.113282.402343.296876.507812l.070312-.121094c-.140625-.078125-.226562-.226562-.226562-.386718zm.296876.507812 2.433593 1.40625.070313-.121094-2.433594-1.40625zm2.433593 1.40625c.183594.105469.40625.105469.589844 0l-.070313-.121094c-.136718.082032-.308593.082032-.449218 0zm.589844 0 2.4375-1.40625-.070313-.121094-2.4375 1.40625zm2.4375-1.40625c.179687-.105469.292969-.296875.292969-.507812h-.140625c0 .160156-.085938.308593-.222657.386718zm.292969-.507812v-2.816407h-.140625v2.816407zm0-2.816407c0-.207031-.113282-.402343-.292969-.507812l-.070313.121093c.136719.082032.222657.230469.222657.386719zm0 0" fill="#4285f4"/></svg>