<svg height="18" viewBox="0 0 18 18" width="18" xmlns="http://www.w3.org/2000/svg"><path d="m8.910156.105469c-.285156-.003907-.539062.074219-.789062.210937l-6.046875 3.554688-.242188.140625-.113281.078125c-.152344.089844-.3125.300781-.417969.445312l.585938.328125.394531.21875 1.351562.757813.34375.191406c.175782-.207031.183594-.222656.347657-.359375l3.773437-2.234375c.21875-.121094.558594-.277344.804688-.273438.25.007813.570312.078126.78125.207032l3.304687 1.878906.414063.230469c.191406.125.371094.269531.535156.429687l2.632812-1.574218-.230468-.230469c-.269532-.214844-.359375-.253907-.546875-.351563l-5.996094-3.382812c-.242187-.148438-.601563-.257813-.886719-.265625m.039063 3.355469c-.136719 0-.429688.058593-.542969.125l-3.925781 2.328124c-.117188.066407-.230469.277344-.300781.394532-.066407.113281-.117188.34375-.117188.464844l-.007812 4.675781c0 .132812.058593.28125.125.398437.070312.113282.179687.222656.296874.289063l4.03125 2.277343c.152344.066407.378907.109376.511719.109376.132813 0 .308594-.019532.523438-.109376l3.855469-2.273437c.117187-.066406.296874-.25.363281-.367187.066406-.113282.210937-.40625.207031-.539063l-.019531-4.574219c0-.132812-.117188-.398437-.183594-.515625-.066406-.113281-.320313-.332031-.4375-.398437l-3.820313-2.148438c-.113281-.066406-.425781-.136718-.558593-.136718zm7.761719 1.074218-.164063.101563-2.457031 1.46875c.058594.140625.125.460937.132812.613281v4.449219c.007813.503906-.261718.976562-.695312 1.234375l-3.578125 2.152344c-.128907.078124-.4375.195312-.765625.257812v.214844l-.003906 1.101562-.003907.53125.007813 1.234375c.175781-.003906.46875-.109375.621094-.191406l.042968-.027344h.003906l6.257813-3.691406c.496094-.292969.800781-.832031.796875-1.414063v-7.265624c-.003906-.203126-.101562-.574219-.195312-.769532m-15.519532.21875-.058594.277344c-.050781.410156-.039062.453125-.027343.660156l-.003907 6.917969c0 .285156-.011718.679687.128907.925781.136719.25.410156.394532.652343.539063l6.355469 3.601562h.003907l.042968.023438c.199219.09375.421875.164062.648438.175781v-3.070312c-.253906-.015626-.453125-.089844-.582032-.167969l-3.804687-2.128907c-.214844-.125-.484375-.269531-.605469-.484374-.121094-.21875-.175781-.546876-.171875-.796876v-4.085937l.003907-.296875c.007812-.199219.035156-.335938.09375-.582031zm7.78125.671875c.085938 0 .285156.046875.359375.089844l2.460938 1.386719c.074219.042968.238281.179687.285156.253906.042969.074219.117187.25.117187.332031l.011719 2.949219c0 .085938-.089843.273438-.132812.347656-.042969.074219-.160157.191406-.234375.234375l-2.484375 1.464844c-.140625.058594-.25.074219-.335938.074219-.085937 0-.234375-.027344-.332031-.074219l-2.597656-1.464844c-.078125-.046875-.144532-.109375-.191406-.1875-.042969-.074219-.082032-.171875-.082032-.257812l.007813-3.011719c0-.078125.03125-.226562.074219-.300781.042968-.074219.117187-.210938.195312-.253907l2.527344-1.5c.074218-.042968.265625-.082031.351562-.082031zm0 0" fill="#4285f4"/></svg>