<svg height="18" viewBox="0 0 18 18" width="18" xmlns="http://www.w3.org/2000/svg"><path d="m8.691406 2.25c0 1.621094 1.3125 2.933594 2.933594 2.933594h1.195312v1.15625c0 1.617187 1.308594 2.929687 2.929688 2.929687v-6.460937c0-.308594-.25-.558594-.558594-.558594zm-3.21875 3.238281c0 1.621094 1.308594 2.933594 2.929688 2.933594h1.195312v1.15625c0 1.621094 1.3125 2.933594 2.933594 2.933594v-6.460938c-.003906-.308593-.253906-.558593-.5625-.5625zm-3.222656 3.242188c0 1.621093 1.3125 2.929687 2.929688 2.929687h1.199218v1.160156c0 1.617188 1.308594 2.929688 2.929688 2.929688v-6.460938c0-.308593-.25-.558593-.558594-.558593zm0 0"/></svg>