<svg height="18" viewBox="0 0 18 18" width="18" xmlns="http://www.w3.org/2000/svg"><path d="m9.179688 15.035156c-.117188-.023437-.230469-.0625-.34375-.09375l-.085938-.027344c-.109375-.035156-.21875-.070312-.328125-.105468l-.046875-.019532c-.097656-.035156-.195312-.070312-.292969-.105468l-.082031-.035156c-.105469-.039063-.210938-.082032-.3125-.128907l-.0625-.027343c-.089844-.042969-.179688-.082032-.265625-.125l-.078125-.035157c-.070312-.035156-.136719-.070312-.203125-.105469-.046875-.023437-.09375-.046874-.140625-.070312-.082031-.046875-.164062-.09375-.246094-.140625l-.082031-.046875c-.105469-.0625-.214844-.128906-.320313-.195312l-.085937-.058594c-.078125-.046875-.152344-.097656-.230469-.152344l-.070312-.050781c-.074219-.050781-.144532-.101563-.21875-.15625l-.09375-.070313c-.066406-.050781-.128906-.101562-.195313-.152344l-.085937-.070312c-.082032-.066406-.164063-.136719-.242188-.203125l-.027344-.023437c-.085937-.074219-.171874-.152344-.253906-.230469l-.070312-.070313c-.0625-.058594-.125-.117187-.183594-.179687l-.074219-.070313c-.074219-.078125-.148437-.160156-.222656-.238281l-.011719-.011719c-.078125-.085937-.152344-.171875-.226562-.261718l-.0625-.070313c-.054688-.066406-.109375-.132813-.164063-.203125l-.058593-.074219c-.066407-.082031-.128907-.167969-.191407-.25-1.707031-2.332031-2.320312-5.546875-.957031-8.1875l-1.210938 1.539063c-1.550781 2.226562-1.35546825 5.128906-.171874 7.496094.027343.058593.058593.113281.085937.167968l.058594.105469.03125.0625.0625.113281c.039062.0625.074219.128906.113281.191406l.066406.105469c.042969.070313.085938.140625.128906.207031l.058594.085938c.058594.09375.125.183594.1875.273438l.007813.007812.03125.042969c.054687.078125.113281.15625.171875.230469l.066406.082031c.050781.066406.105469.132812.160156.199219l.0625.070312c.070313.089844.144532.171875.222656.257812l.011719.011719c.074219.082031.148438.160157.226563.242188l.074218.070312c.058594.0625.117188.121094.179688.179688l.074219.070312c.082031.074219.164062.152344.25.226563h.003906l.042969.039062c.074218.0625.148437.125.222656.1875l.09375.078125c.0625.046875.125.097657.1875.144531l.101562.078126c.070313.050781.140626.101562.210938.148437l.078125.054687.019531.015626c.066406.046874.136719.089843.203125.136718l.089844.058594c.105469.066406.210937.132812.320313.195312l.089843.050782c.078125.046875.160157.089844.238281.136718.046876.023438.089844.042969.132813.066407.058594.03125.117187.0625.175781.089843l.109375.054688c.089844.042969.179688.082031.273438.125l.054687.027344c.105469.042968.210938.089844.320313.128906l.078125.03125c.097656.039062.199218.078125.300781.113281l.035156.011719c.109375.039062.222657.074219.335938.109375l.082031.023437c.113281.035157.226562.078126.34375.097657 7.5 1.367187 9.679688-4.507813 9.679688-4.507813-1.828126 2.386719-5.078126 3.015625-8.15625 2.3125m-2.703126-6.078125c.171876.242188.355469.527344.578126.722657.082031.089843.167968.175781.253906.261718l.066406.0625c.082031.082032.167969.164063.257812.238282l.007813.011718h.003906c.097657.085938.199219.167969.300781.25l.066407.054688c.101562.078125.207031.152344.3125.226562l.011719.007813c.046874.03125.09375.0625.144531.09375l.066406.046875c.074219.046875.152344.097656.234375.140625l.03125.019531c.066406.039062.136719.078125.207031.117188l.070313.035156c.050781.027344.097656.050781.144531.074218l.023437.011719c.097657.046875.199219.09375.300782.140625l.066406.027344c.082031.035156.164062.066406.246094.097656l.105468.039063c.074219.027343.148438.054687.226563.078125l.101563.035156c.105468.03125.214843.074219.324218.09375 5.792969.960938 7.128906-3.5 7.128906-3.5-1.203124 1.734375-3.539062 2.5625-6.027343 1.917969-.113281-.027344-.222657-.0625-.328125-.09375l-.101563-.035157c-.074219-.023437-.152343-.050781-.226562-.078124l-.105469-.039063c-.082031-.03125-.164062-.0625-.246094-.097656l-.066406-.027344c-.101562-.046875-.203125-.09375-.300781-.140625-.050781-.027344-.101563-.050781-.152344-.078125l-.089844-.046875c-.0625-.03125-.125-.070312-.191406-.105469l-.042969-.027343c-.078125-.046876-.15625-.09375-.234375-.140626l-.070312-.046874c-.050781-.03125-.097657-.066407-.148438-.101563-.105469-.070313-.210937-.148437-.3125-.226563l-.070312-.054687c-1.089844-.863281-1.957031-2.039063-2.367188-3.371094-.429687-1.382812-.335937-2.9375.410157-4.199219l-.917969 1.296876c-1.121094 1.613281-1.0625 3.773437-.1875 5.480468.148437.289063.3125.5625.496093.828125m6.105469-1.996093c.046875.015624.097657.03125.144531.050781l.0625.019531c.070313.019531.136719.046875.207032.058594 3.199218.617187 4.066406-1.640625 4.296875-1.972656-.761719 1.09375-2.039063 1.355468-3.605469.976562-.121094-.03125-.257812-.074219-.378906-.117188-.152344-.054687-.300782-.117187-.449219-.1875-.277344-.132812-.542969-.296874-.789063-.480468-1.402343-1.066406-2.273437-3.09375-1.359374-4.746094l-.492188.683594c-.664062.972656-.726562 2.179687-.269531 3.253906.484375 1.140625 1.476562 2.035156 2.632812 2.460938" fill="#0868ac"/></svg>