<svg height="18" viewBox="0 0 18 18" width="18" xmlns="http://www.w3.org/2000/svg"><g fill="#505050"><path d="m6.460938 8.960938c0 3.230468 2.511718 4.222656 2.5625 4.242187h.003906l-.007813.003906c2.855469.96875 5.71875-1.445312 5.71875-5.800781 0-2.398438-1.066406-5.253906-3.894531-6.875 3.996094.886719 6.875 4.304688 6.875 8.457031 0 5.035157-4.246094 8.71875-8.699219 8.71875-.292969 0-5.214843-1.539062-5.234375-7.195312-.015625-4.246094 2.699219-5.683594 4.601563-5.40625 0 0-1.925781 1.097656-1.925781 3.855469"/><path d="m11.539062 9.039062c0-3.230468-2.511718-4.222656-2.5625-4.242187h-.003906l.007813-.003906c-2.855469-.96875-5.71875 1.445312-5.71875 5.800781 0 2.398438 1.066406 5.253906 3.894531 6.875-3.996094-.886719-6.875-4.304688-6.875-8.457031 0-5.035157 4.246094-8.71875 8.699219-8.71875.292969 0 5.214843 1.539062 5.234375 7.195312.015625 4.246094-2.699219 5.683594-4.601563 5.40625 0 0 1.925781-1.097656 1.925781-3.855469" fill-rule="evenodd"/></g></svg>