<svg height="18" viewBox="0 0 18 18" width="18" xmlns="http://www.w3.org/2000/svg"><path d="m8.199219 13.148438c0 2.207031-1.785157 3.980468-3.980469 3.980468-2.207031 0-3.980469-1.785156-3.980469-3.980468 0-2.195313 1.785157-3.980469 3.980469-3.980469 2.195312-.011719 3.980469 1.773437 3.980469 3.980469" fill="#cb3c33"/><path d="m4.21875 17.351562c-2.320312 0-4.21875-1.882812-4.21875-4.21875 0-2.332031 1.882812-4.21875 4.21875-4.21875s4.21875 1.886719 4.21875 4.21875c0 2.335938-1.898438 4.21875-4.21875 4.21875m0-7.957031c-2.066406 0-3.753906 1.6875-3.753906 3.753907 0 2.066406 1.6875 3.753906 3.753906 3.753906s3.753906-1.6875 3.753906-3.753906c0-2.066407-1.6875-3.753907-3.753906-3.753907" fill="#eee"/><path d="m17.773438 13.148438c0 2.207031-1.785157 3.980468-3.976563 3.980468-2.195313 0-3.980469-1.785156-3.980469-3.980468 0-2.195313 1.785156-3.980469 3.980469-3.980469 2.191406 0 3.976563 1.773437 3.976563 3.980469" fill="#9558b2"/><path d="m13.78125 17.351562c-2.320312 0-4.21875-1.882812-4.21875-4.21875 0-2.332031 1.882812-4.21875 4.21875-4.21875s4.21875 1.886719 4.21875 4.21875c0 2.335938-1.882812 4.21875-4.21875 4.21875m0-7.957031c-2.066406 0-3.753906 1.6875-3.753906 3.753907 0 2.066406 1.6875 3.753906 3.753906 3.753906s3.753906-1.6875 3.753906-3.753906c0-2.066407-1.671875-3.753907-3.753906-3.753907" fill="#eee"/><path d="m12.992188 4.851562c0 2.195313-1.785157 3.980469-3.976563 3.980469-2.210937 0-3.980469-1.785156-3.980469-3.980469 0-2.195312 1.769532-3.980468 3.964844-3.980468 2.207031 0 3.992188 1.785156 3.992188 3.980468" fill="#389826"/><path d="m9 9.070312c-2.320312 0-4.21875-1.882812-4.21875-4.21875 0-2.335937 1.882812-4.21875 4.21875-4.21875s4.21875 1.882813 4.21875 4.21875c0 2.335938-1.898438 4.21875-4.21875 4.21875m0-7.972656c-2.066406 0-3.753906 1.6875-3.753906 3.753906 0 2.066407 1.6875 3.753907 3.753906 3.753907s3.753906-1.6875 3.753906-3.753907c0-2.066406-1.6875-3.753906-3.753906-3.753906" fill="#eee"/></svg>