<svg height="18" viewBox="0 0 18 18" width="18" xmlns="http://www.w3.org/2000/svg"><path d="m8.972656.0625c-.117187-.0039062-.230468-.0039062-.34375 0-2.058594.0351562-4.027344.648438-5.71875 2.214844-3.78125 3.496094-3.894531 9.480468-.242187 13.109375.65625.648437 1.4375 1.253906 2.300781 1.625l.074219.03125v-.003907c4.789062 2.425782 10.808593-.289062 12.515625-5.246093.730468-2.113281.53125-4.652344-.429688-6.808594-.953125-2.140625-2.664062-3.90625-4.980468-4.492187v-.015626l-.054688-.011718c-1.023438-.234375-2.046875-.3828128-3.050781-.402344zm-.339844.140625c.132813-.003906.269532-.003906.40625 0h.003907c.972656.019531 1.96875.160156 2.96875.386719v.007812l.050781.011719c2.292969.558594 3.992188 2.304687 4.941406 4.429687.945313 2.128907 1.136719 4.636719.425782 6.707032-1.691407 4.902344-7.679688 7.585937-12.398438 5.132812l-.074219-.039062-.003906.007812c-.8125-.363281-1.558594-.9375-2.1875-1.5625-3.59375-3.570312-3.484375-9.464844.238281-12.90625 1.667969-1.542968 3.59375-2.144531 5.628906-2.175781zm-2.984374 2.464844v.070312c0 1.296875-.175782 2.609375-.277344 3.914063-.011719.105468-.023438.214844-.035156.320312-.019532.199219-.089844.535156-.128907.867188-.035156.328125-.046875.660156.09375.875.214844.335937.53125.449218.855469.464844.324219.015624.660156-.058594.949219-.09375.984375-.117188 2.203125-.199219 3.011719.425781.667968.519531.84375 1.320312.660156 2.054687-.179688.738282-.71875 1.398438-1.476563 1.625-.789062.234375-1.476562.152344-2.164062-.027344-.6875-.175781-1.367188-.449218-2.128907-.582031l-.082031-.015625v.082032c0 .203124-.042969.542968-.054687.875-.015625.332031-.007813.660156.128906.867187.011719.019531.027344.03125.039062.042969l.003907.046875.046875.011719c.203125.140624.484375.214843.667968.265624.75.207032 1.527344.308594 2.300782.308594.179687 0 .355468-.003906.535156-.015625.5-.003906 1-.070312 1.496094-.230469.539062-.152343 1.050781-.390624 1.5-.753906.800781-.648437 1.265625-1.6875 1.359375-2.753906.09375-1.070312-.179688-2.167969-.878907-2.9375-.5-.554688-1.175781-.890625-1.890624-1.058594-1.015626-.238281-1.953126-.070312-2.945313.011719l.230469-2.84375h4.632812v-1.8125zm.136718.140625h6.171875v1.535156h-4.621093l-.253907 3.136719.082031-.007813c1.03125-.082031 1.976563-.257812 2.984376-.023437.691406.164062 1.339843.492187 1.816406 1.019531.667968.730469.9375 1.792969.847656 2.828125-.09375 1.039063-.542969 2.042969-1.308594 2.660156-.433594.351563-.925781.582031-1.453125.730469-.484375.15625-.96875.222656-1.457031.226562h-.003906c-.175782.007813-.351563.011719-.53125.011719-.761719 0-1.527344-.097656-2.265625-.304687-.183594-.050782-.453125-.125-.617188-.242188v-.003906l-.019531-.015625c-.015625-.015625-.027344-.03125-.039062-.046875-.097657-.148438-.121094-.460938-.109376-.785156.011719-.292969.046876-.574219.054688-.789063.707031.132813 1.363281.386719 2.039062.5625.699219.179688 1.421876.269531 2.238282.027344.808594-.242187 1.382812-.945313 1.574218-1.726563.191407-.78125.003907-1.644531-.710937-2.199218-.867187-.671875-2.125-.574219-3.113281-.453125-.300782.035156-.628906.105469-.925782.089843-.296874-.011718-.554687-.105468-.746093-.398437-.101563-.15625-.109375-.464844-.070313-.785156.035156-.324219.109375-.652344.128906-.871094.011719-.105469.019532-.210937.03125-.320313.101563-1.277343.269532-2.570312.277344-3.855468zm0 0" fill="#dc514a"/></svg>