<svg height="18" viewBox="0 0 18 18" width="18" xmlns="http://www.w3.org/2000/svg"><path d="m15.4375 1.023438c.007812.210937-.046875.421874-.15625.601562-.105469.179688-.265625.324219-.457031.414062-.191407.089844-.402344.121094-.609375.089844-.210938-.035156-.402344-.128906-.558594-.269531-.316406-.292969-.425781-.75-.277344-1.15625.070313-.199219.199219-.371094.371094-.496094.167969-.1249998.371094-.1953122.578125-.207031.285156-.0117188.558594.0898438.765625.28125.207031.191406.328125.460938.339844.742188zm-6.191406 12.585937c-2.824219 0-5.292969-1.035156-6.574219-2.566406.472656 1.371093 1.363281 2.5625 2.542969 3.410156 1.175781.84375 2.585937 1.296875 4.035156 1.296875 1.445312 0 2.855469-.453125 4.03125-1.296875 1.179688-.847656 2.070312-2.039063 2.542969-3.410156-1.28125 1.53125-3.75 2.566406-6.578125 2.566406m0-9.96875c2.828125 0 5.292968 1.035156 6.578125 2.566406-.476563-1.371093-1.367188-2.5625-2.546875-3.410156-1.175782-.839844-2.585938-1.296875-4.03125-1.296875-1.449219 0-2.855469.457031-4.03125 1.296875-1.183594.847656-2.070313 2.039063-2.546875 3.410156 1.285156-1.527343 3.75-2.566406 6.578125-2.566406m-3.878906 12.949219c.011718.269531-.054688.53125-.191407.761718-.28125.464844-.8125.714844-1.351562.632813-.261719-.039063-.503907-.160156-.699219-.339844-.195312-.183593-.332031-.417969-.394531-.675781s-.046875-.53125.042969-.78125c.089843-.25.253906-.46875.46875-.628906.515624-.375 1.226562-.335938 1.695312.097656.257812.242188.414062.578125.429688.9375zm-2.375-13.296875c-.15625.007812-.308594-.03125-.441407-.113281-.273437-.167969-.417969-.484376-.367187-.800782.023437-.152344.09375-.296875.199218-.414062.101563-.113282.238282-.195313.390626-.234375.152343-.035157.308593-.027344.457031.027343.144531.054688.269531.148438.363281.277344.21875.304688.195312.722656-.058594 1.003906-.136718.152344-.335937.246094-.542968.253907zm0 0" fill-rule="evenodd"/></svg>