<svg height="18" viewBox="0 0 18 18" width="18" xmlns="http://www.w3.org/2000/svg" xmlns:xlink="http://www.w3.org/1999/xlink"><filter id="a" height="100%" width="100%" x="0%" y="0%"><feColorMatrix color-interpolation-filters="sRGB" values="0 0 0 0 1 0 0 0 0 1 0 0 0 0 1 0 0 0 1 0"/></filter><linearGradient id="b" gradientUnits="userSpaceOnUse" x1="9.375" x2="9.375" y1="-.000194" y2="17.999829"><stop offset="0" stop-color="#1abc9c"/><stop offset="1" stop-color="#2980b9"/></linearGradient><linearGradient id="c"><stop offset="0"/><stop offset="1" stop-opacity="0"/></linearGradient><linearGradient id="d" gradientTransform="matrix(.327557 .327557 -.327557 .327557 337.985455 -335.708809)" gradientUnits="userSpaceOnUse" x1="24" x2="49" xlink:href="#c" y1="1028.362061" y2="1028.362061"/><linearGradient id="e" gradientTransform="matrix(.327557 .327557 -.921249 .921249 948.51632 -946.240712)" gradientUnits="userSpaceOnUse" x1="24" x2="49" xlink:href="#c" y1="1028.362061" y2="1028.362061"/><linearGradient id="f" gradientTransform="matrix(.327557 .327557 -1.392106 1.392106 1432.72793 -1430.452979)" gradientUnits="userSpaceOnUse" x1="24" x2="49" xlink:href="#c" y1="1028.362061" y2="1028.362061"/><mask id="g"><g filter="url(#a)"><path d="m-1.8-1.8h21.6v21.6h-21.6z" fill-opacity=".2"/></g></mask><mask id="h"><g filter="url(#a)"><path d="m-1.8-1.8h21.6v21.6h-21.6z" fill-opacity=".2"/></g></mask><mask id="i"><g filter="url(#a)"><path d="m-1.8-1.8h21.6v21.6h-21.6z" fill-opacity=".2"/></g></mask><clipPath id="j"><path d="m0 0h18v18h-18z"/></clipPath><clipPath id="k"><path d="m0 0h18v18h-18z"/></clipPath><clipPath id="l"><path d="m0 0h18v18h-18z"/></clipPath><path d="m18 9c0 4.972656-4.027344 9-9 9s-9-4.027344-9-9 4.027344-9 9-9 9 4.027344 9 9m0 0" fill="url(#b)" fill-rule="evenodd"/><path d="m9 1.125c-.304688 0-.566406.210938-.632812.507812-1.519532.132813-2.964844.730469-4.132813 1.714844-.097656-.058594-.214844-.089844-.328125-.09375-.359375 0-.652344.292969-.652344.652344.003906.113281.035156.226562.09375.328125-.984375 1.167969-1.585937 2.613281-1.71875 4.132813-.292968.070312-.503906.332031-.503906.632812 0 .304688.210938.566406.507812.632812.132813 1.519532.730469 2.964844 1.714844 4.132813-.058594.097656-.089844.214844-.09375.328125 0 .359375.292969.652344.652344.652344.113281-.003906.226562-.035156.328125-.09375 1.167969.988281 2.613281 1.585937 4.132813 1.71875.070312.296875.332031.503906.632812.503906.304688 0 .566406-.210938.632812-.507812 1.523438-.128907 2.96875-.726563 4.136719-1.710938.097657.058594.210938.085938.324219.089844.359375 0 .652344-.292969.652344-.652344-.003906-.113281-.035156-.226562-.09375-.328125.988281-1.167969 1.589844-2.613281 1.726562-4.136719.289063-.070312.496094-.328125.496094-.628906 0-.304688-.210938-.566406-.507812-.632812-.128907-1.523438-.726563-2.96875-1.710938-4.136719.058594-.097657.085938-.210938.089844-.324219 0-.359375-.292969-.652344-.652344-.652344-.113281.003906-.226562.035156-.328125.09375-1.167969-.988281-2.613281-1.589844-4.136719-1.726562-.070312-.289063-.328125-.496094-.628906-.496094m0 .277344c.203125 0 .371094.167968.371094.371094 0 .203124-.167969.371093-.371094.371093s-.371094-.167969-.371094-.371093c0-.203126.167969-.371094.371094-.371094m-.609375.589844c.089844.253906.332031.425781.605469.429687.269531 0 .515625-.167969.609375-.421875 1.4375.128906 2.800781.691406 3.910156 1.621094-.125.246094-.074219.546875.121094.742187.199219.195313.496093.246094.746093.121094.925782 1.105469 1.492188 2.46875 1.621094 3.90625-.257812.09375-.425781.335937-.425781.609375 0 .269531.167969.511719.421875.605469-.128906 1.4375-.691406 2.800781-1.621094 3.910156-.246094-.125-.546875-.074219-.742187.121094-.195313.195312-.246094.496093-.121094.746093-1.105469.925782-2.46875 1.492188-3.90625 1.621094-.09375-.257812-.335937-.425781-.609375-.425781-.269531 0-.511719.167969-.605469.421875-1.4375-.125-2.804687-.6875-3.910156-1.613281.125-.25.078125-.550781-.121094-.746094-.195312-.199219-.496093-.25-.746093-.125-.925782-1.105469-1.496094-2.46875-1.625-3.90625.253906-.089844.425781-.332031.429687-.605469 0-.269531-.167969-.515625-.421875-.609375.125-1.4375.6875-2.804687 1.613281-3.910156.25.125.550781.078125.746094-.121094.199219-.195312.25-.496093.125-.746093 1.105469-.929688 2.46875-1.496094 3.90625-1.625m.609375 1.355468c-.304688 0-.570312.214844-.632812.511719-2.597657.320313-4.550782 2.523437-4.554688 5.140625.003906 2.617188 1.957031 4.824219 4.554688 5.140625.066406.300781.328124.511719.632812.511719s.570312-.214844.632812-.511719c2.597657-.320313 4.550782-2.523437 4.554688-5.140625-.003906-2.617188-1.957031-4.824219-4.554688-5.140625-.066406-.296875-.328124-.511719-.632812-.511719zm-5.09375.1875c.203125 0 .367188.164063.367188.371094 0 .203125-.164063.367188-.371094.367188-.203125 0-.367188-.164063-.367188-.371094 0-.203125.164063-.367188.371094-.367188m10.1875 0c.136719-.003906.261719.066406.328125.183594.070313.113281.070313.257812 0 .371094-.066406.117187-.191406.1875-.328125.183594-.199219-.003907-.363281-.167969-.363281-.367188 0-.203125.164062-.367188.363281-.371094m-5.09375.089844c.203125 0 .371094.167969.371094.371094 0 .207031-.167969.371094-.371094.371094-.136719.003906-.261719-.066407-.328125-.183594-.070313-.113282-.070313-.257813 0-.375.066406-.117188.191406-.1875.328125-.183594m-.605469.601562c.09375.253907.335938.417969.605469.417969s.507812-.164062.605469-.414062c2.402343.304687 4.207031 2.347656 4.210937 4.769531-.003906 2.421875-1.804687 4.46875-4.210937 4.773438-.09375-.253907-.335938-.417969-.605469-.417969s-.507812.164062-.605469.414062c-2.402343-.304687-4.207031-2.347656-4.210937-4.769531.003906-2.421875 1.804687-4.46875 4.210937-4.773438m.605469 2.921876c-1.023438 0-1.851562.828124-1.851562 1.851562s.828124 1.851562 1.851562 1.851562 1.851562-.828124 1.851562-1.851562-.828124-1.851562-1.851562-1.851562m-7.226562 1.480468c.203124 0 .371093.167969.371093.371094s-.167969.371094-.371093.371094c-.203126 0-.371094-.167969-.371094-.371094s.167968-.371094.371094-.371094zm14.453124 0c.203126 0 .371094.167969.371094.371094s-.167968.371094-.371094.371094c-.203124 0-.371093-.167969-.371093-.371094s.167969-.371094.371093-.371094zm-7.226562 5.003906c.203125 0 .371094.164063.371094.371094 0 .203125-.167969.371094-.371094.371094s-.371094-.167969-.371094-.371094c0-.207031.167969-.371094.371094-.371094zm-5.09375.09375c.203125 0 .367188.164063.367188.367188 0 .207031-.164063.371094-.371094.371094-.203125 0-.367188-.164063-.367188-.371094 0-.203125.164063-.367188.371094-.367188zm10.1875 0c.207031 0 .371094.164063.371094.367188 0 .207031-.164063.371094-.367188.371094-.207031 0-.371094-.164063-.371094-.367188 0-.207031.164063-.371094.367188-.371094m-5.09375 2.128907c.203125 0 .371094.167969.371094.371093 0 .203126-.167969.371094-.371094.371094-.136719.003906-.261719-.066406-.328125-.183594-.070313-.117187-.070313-.257812 0-.375.066406-.117187.191406-.1875.328125-.183593m0 0" fill="#fcfcfc"/><g mask="url(#g)"><g clip-path="url(#j)"><path d="m10.308594 7.691406-2.617188 2.617188 6.222656 6.226562c1.046876-.683594 1.9375-1.578125 2.617188-2.625zm0 0" fill="url(#d)" fill-rule="evenodd"/></g></g><g mask="url(#h)"><g clip-path="url(#k)"><path d="m12.683594 5.316406-.164063.164063c.933594.933593 1.457031 2.199219 1.460938 3.519531 0 2.75-2.230469 4.980469-4.980469 4.980469-1.320312-.003907-2.585938-.527344-3.519531-1.460938l-.164063.164063 5.1875 5.1875c3.773438-.640625 6.726563-3.601563 7.363282-7.375zm0 0" fill="url(#e)" fill-rule="evenodd"/></g></g><g mask="url(#i)"><g clip-path="url(#l)"><path d="m14.570312 3.429688-.433593.433593c1.363281 1.363281 2.128906 3.210938 2.128906 5.136719 0 4.011719-3.253906 7.265625-7.265625 7.265625-1.925781 0-3.773438-.765625-5.136719-2.128906l-.433593.433593 3.070312 3.070313c.8125.234375 1.65625.355469 2.5.359375 4.972656 0 9-4.027344 9-9 0-.84375-.121094-1.683594-.359375-2.496094zm0 0" fill="url(#f)" fill-rule="evenodd"/></g></g></svg>