<svg height="18" viewBox="0 0 18 18" width="18" xmlns="http://www.w3.org/2000/svg"><path d="m12.401042 2.697917c.958333-.885417 2.4375-.885417 3.401041 0l5.5 5.5c.885417.963541.885417 2.442708 0 3.401041l-3.703125 3.703125c-.958333.885417-2.4375.885417-3.401041 0l-5.5-5.5c-.885417-.963541-.885417-2.442708 0-3.401041zm1.598958 4.302083 3 3m-7.598958.598958-6.8125 6.8125c-.380209.375-.588542.885417-.588542 1.416667v2.171875c0 .552083.447917 1 1 1h3c.552083 0 1-.447917 1-1v-1c0-.552083.447917-1 1-1h1c.552083 0 1-.447917 1-1v-1c0-.552083.447917-1 1-1h.171875c.53125 0 1.041667-.208333 1.416667-.588542l.8125-.8125" fill="none" stroke="#fff" stroke-linecap="round" stroke-linejoin="round" stroke-width="2" transform="scale(.75)"/></svg>