<svg height="18" viewBox="0 0 18 18" width="18" xmlns="http://www.w3.org/2000/svg"><path d="m1.6875 0v6.75c.328125 0 .648438.011719.972656.035156-.324218-.023437-.648437-.035156-.972656-.035156v9.441406l6.710938-7.726562c-.28125-.152344-.566407-.296875-.855469-.429688.289062.132813.574219.277344.855469.429688l7.351562-8.464844zm1.046875 6.789062c.304687.023438.605469.054688.910156.097657-.304687-.042969-.605469-.074219-.910156-.097657zm.988281.109376c.308594.046874.613282.101562.914063.167968-.304688-.066406-.609375-.121094-.914063-.167968m.960938.175781c.632812.140625 1.253906.320312 1.859375.546875-.605469-.226563-1.226563-.40625-1.859375-.546875m1.949218.578125c.277344.105468.550782.222656.824219.34375-.273437-.121094-.546875-.238282-.824219-.34375m3.214844 1.714844-6.886718 7.933593-.605469.699219h13.113281c-.71875-3.546875-2.777344-6.601562-5.621094-8.632812zm0 0" fill="#f04e98"/></svg>