<svg height="18" viewBox="0 0 18 18" width="18" xmlns="http://www.w3.org/2000/svg"><path d="m8.933594.265625c-.167969.007813-.328125.050781-.480469.125l-6.210937 2.964844c-.34375.164062-.59375.476562-.679688.847656l-1.53125 6.664063c-.0742188.328124-.0117188.671874.171875.957031.023437.03125.046875.066406.070313.097656l4.296874 5.34375c.242188.296875.601563.46875.984376.46875h6.890624c.382813 0 .742188-.171875.984376-.46875l4.296874-5.34375c.238282-.296875.328126-.6875.242188-1.058594l-1.535156-6.664062c-.085938-.371094-.335938-.679688-.679688-.84375l-6.210937-2.964844c-.1875-.09375-.398438-.132813-.609375-.125m.007812.140625c.1875-.007812.375.027344.542969.109375l6.210937 2.964844c.304688.144531.527344.421875.601563.75l1.535156 6.664062c.078125.328125-.003906.675781-.214843.9375l-4.296876 5.34375c-.214843.265625-.535156.417969-.875.417969h-6.890624c-.339844.003906-.660157-.152344-.875-.414062l-4.296876-5.34375c-.023437-.03125-.042968-.058594-.0625-.089844-.164062-.25-.21875-.558594-.152343-.847656l1.53125-6.664063c.078125-.332031.300781-.609375.605469-.753906l6.207031-2.964844c.136719-.066406.28125-.101563.429687-.109375zm.058594 2.128906c-.246094 0-.441406.21875-.441406.480469 0 .015625 0 .019531 0 .011719v.003906.09375c.003906.140625.035156.246094.050781.359375.03125.257813.054687.464844.039063.65625-.007813.050781-.054688.109375-.097657.152344l-.019531.019531-.007812.128906c-.207032.019532-.414063.046875-.621094.09375-.957032.21875-1.78125.707032-2.417969 1.367188-.035156-.027344-.074219-.054688-.085937-.0625l-.023438-.015625h-.027344c-.074218.011719-.109375.027343-.175781-.011719-.15625-.105469-.304687-.253906-.488281-.4375v-.003906c-.078125-.082032-.140625-.171875-.25-.261719-.023438-.023437-.058594-.050781-.082032-.066406v-.003907c-.085937-.066406-.191406-.105468-.300781-.109374-.132812-.007813-.265625.046874-.351562.15625-.15625.191406-.105469.480468.101562.644531.007813.007812.007813.007812.003907.003906.023437.019531.054687.046875.078124.0625.113282.085937.214844.125.3125.1875h.003907c.21875.136719.398437.246094.535156.375.035156.035156.050781.125.058594.175781l.003906.027344.097656.085938c-.613281.945312-.898437 2.101562-.742187 3.285156l-.125.035156-.015625.019531c-.042969.054688-.105469.125-.128907.136719-.183593.058594-.390624.078125-.648437.105469-.117187.011719-.226563.003906-.363281.03125-.03125.003906-.070313.015625-.101563.023437h-.007812v.003906c-.253907.058594-.421875.296876-.367188.535157.054688.238281.308594.378906.5625.324219h.003907v-.003907c.015624 0 .019531-.003906.007812 0 .03125-.007812.070312-.015625.097656-.023437.136719-.035156.230469-.085938.339844-.128906h.003906c.242188-.085938.441406-.160157.628906-.1875.046876 0 .121094.039062.171876.066406l.023437.015625.128906-.023438c.378907 1.125 1.140625 2.035157 2.101563 2.621094l-.058594.136719.011719.027344c.023437.058593.039062.132812.03125.164062-.070313.175781-.1875.367188-.328125.585938-.066406.097656-.136719.179687-.203125.300781-.015625.035156-.035157.078125-.046875.105469-.113282.234374-.03125.515624.1875.621093.222656.105469.492187-.007812.609375-.242187l-.003907.003906.003907-.003906v-.003906l.003906-.003907c.011719-.027343.03125-.0625.042969-.089843.054687-.128907.074218-.234376.109375-.34375v-.003907c.101562-.253906.15625-.507812.273437-.644531.019532-.023438.0625-.039062.125-.054688l.03125-.007812.070313-.132812c.859375.320312 1.816406.40625 2.773437.1875.203125-.046876.398438-.109376.589844-.175782.019531.035156.042969.078125.050781.09375l.015625.023438.023438.007812c.070312.023438.109375.023438.152344.085938.097656.164062.164062.363281.25.609375.035156.113281.050781.21875.109374.347656.011719.03125.03125.070313.046876.097656.113281.234375.382812.351563.605468.242188.222656-.105469.300782-.386719.191406-.621094-.011718-.027344-.035156-.070313-.050781-.101563-.066406-.125-.136719-.207031-.203125-.300781v-.003906c-.140625-.214844-.25-.394531-.320312-.570313-.019532-.074218 0-.105468.027344-.175781l.015624-.039062-.027343-.03125c.007812.011719 0 .003906-.003907-.003907-.003906-.011718-.007812-.027343-.011718-.039062-.007813-.011719-.011719-.023438-.015625-.035156 1-.605469 1.738281-1.550782 2.101562-2.640625.039063.007812.085938.015625.101563.015625l.027344.007812.023437-.015625c.0625-.042969.089844-.070312.164063-.066406.1875.027344.386718.097656.632812.1875.109375.042969.203125.09375.339844.128906.03125.007813.070312.015625.097656.023438h.007812.003907c.253906.054687.507812-.082031.5625-.320313.054687-.242187-.113281-.476562-.363281-.539062h-.003907c-.027343-.007813-.074219-.019532-.109375-.023438-.136718-.027344-.246094-.019531-.363281-.03125-.257813-.027344-.46875-.050781-.648437-.105468-.042969-.019532-.097657-.089844-.128907-.136719l-.011719-.019531-.121093-.035157c.070312-.550781.050781-1.125-.082031-1.699219-.132813-.578124-.371094-1.109374-.675782-1.578124.035156-.03125.074219-.066407.089844-.082032l.019531-.019531.003907-.027344c.003906-.074219 0-.109375.050781-.167969.136719-.128906.316406-.238281.535156-.375h.003906c.097657-.058593.199219-.101562.3125-.183593.027344-.023438.058594-.050781.082031-.070313.207032-.164062.257813-.453125.105469-.644531-.15625-.191406-.449219-.207031-.652343-.042969-.027344.019532-.058594.042969-.085938.066406-.105469.089844-.171875.179688-.25.265626-.183594.183593-.332031.335937-.488281.441406-.039063.023437-.128907.015625-.183594.015625l-.023437-.003907-.117188.082032c-.800781-.816406-1.871094-1.339844-3.023438-1.457032l-.007812-.113281v-.027343l-.019531-.019532c-.054688-.050781-.089844-.070312-.101563-.144531-.011718-.1875.011719-.398437.042969-.65625.015625-.113281.046875-.21875.050781-.359375 0-.035156 0-.078125 0-.109375 0-.261719-.195312-.480469-.441406-.480469m-2.335938 12.652344-.007812.011719.003906-.003907zm2.335938-12.511719c.164062 0 .300781.148438.300781.339844v.003906c0 .03125.003907.078125 0 .101563-.003906.121094-.03125.21875-.046875.34375v.003906c-.03125.257812-.0625.476562-.042968.6875v.003906c.015624.109375.078124.164063.121093.207032.003907.039062.003907.097656.007813.140624l.003906.058594.058594.003906c1.164062.105469 2.246094.636719 3.042968 1.472657l.039063.042969.171875-.121094c.050781.003906.148438.015625.242188-.035156v-.003907h.003906c.171875-.117187.328125-.277343.507812-.460937l.003906-.003906c.085938-.089844.144532-.171876.238282-.253907.019531-.015625.054687-.042969.082031-.0625.152344-.121093.355469-.105469.457031.019531.101563.128907.070313.332032-.082031.453126-.027344.019531-.058594.046874-.078125.0625-.101562.074218-.195312.109374-.304688.175781-.222656.136719-.410156.253906-.5625.398437h-.003906v.003906c-.074218.078126-.082031.160157-.085937.222657-.027344.023437-.078125.070312-.113281.101562l-.042969.039063.03125.050781c.324219.484375.558593 1.019531.6875 1.585937.128906.5625.15625 1.140626.078125 1.710938l-.007813.058594.183594.054687c.027344.042969.078125.128907.175781.167969h.003906c.203126.0625.421876.085938.683594.113281.128906.007813.226563.003907.347656.027344.027344.003906.070313.015625.105469.023437.1875.046876.300781.210938.261719.371094-.035156.15625-.207031.257813-.394531.21875-.011719-.003906-.015625-.003906-.003907-.003906.003907.003906.003907.003906-.007812 0-.035156-.007812-.074219-.015625-.09375-.019531-.121094-.03125-.207031-.082031-.328125-.128907-.246094-.085937-.453125-.164062-.660156-.191406l-.003907-.003906h-.003906c-.109375-.007812-.175781.039062-.226562.074219-.039063-.007813-.09375-.015625-.132813-.023438l-.058593-.007812-.019532.054687c-.351562 1.105469-1.097656 2.058594-2.113281 2.660156l-.050781.027344.023437.058594c.007813.015625.019531.050781.03125.082031.007813.015625.011719.03125.019531.042969v.003906c-.023437.054688-.050781.128906-.019531.234375v.003907c.078125.195312.195313.382812.335938.601562h.003906c.070313.109375.136719.183594.195313.292969.011718.023437.03125.066406.046874.097656.078126.171875.019532.363281-.125.433594-.148437.070312-.339843-.003907-.421874-.179688-.015626-.027343-.035157-.066406-.046876-.089843-.046874-.113282-.066406-.214844-.105468-.335938-.082032-.246094-.152344-.457031-.257813-.636719l-.003906-.003906c-.0625-.09375-.140625-.117187-.199219-.132813-.015625-.03125-.046875-.085937-.066406-.121093l-.03125-.054688-.054688.023438c-.207031.078125-.414062.140625-.628906.1875-.917968.210937-1.875.140625-2.75-.195313l-.058594-.023437-.105468.191406c-.054688.015625-.113282.027344-.160156.082031-.152344.183594-.203126.445313-.300782.6875v.003906c-.039062.121094-.054687.21875-.105468.332032-.007813.023437-.027344.0625-.042969.089844v.003906h-.003907c-.082031.175781-.269531.25-.417968.179687-.144532-.070312-.207032-.261719-.125-.4375.015625-.03125.035156-.074219.046875-.097656.054687-.109375.125-.183594.195312-.289063v-.003906c.140625-.21875.265625-.417968.34375-.613281v-.007813c.023438-.082031-.003906-.152343-.027343-.21875l.082031-.203124-.050781-.03125c-.976563-.578126-1.746094-1.496094-2.113282-2.636719l-.015625-.058594-.210937.039063c-.042969-.027344-.117188-.082032-.21875-.074219h-.007813c-.207031.03125-.414062.105469-.660156.191406v.003906c-.121094.042969-.207031.09375-.328125.125-.023438.003907-.058594.011719-.09375.019531-.015625.003907-.015625.003907-.007812.003907h-.003907c-.1875.039062-.359375-.0625-.394531-.21875-.039062-.160157.074219-.324219.261719-.371094.007812 0 .011719-.003906.003906 0h.003906c.03125-.007813.070313-.019531.097657-.023437.121093-.023438.21875-.015626.347656-.027344.261718-.027344.480468-.050782.683594-.113282h.003906c.085937-.039062.128906-.113281.167968-.164062l.199219-.058594-.007812-.058594c-.171875-1.191406.117187-2.359374.746093-3.304687l.03125-.050781-.144531-.132813c-.003906-.046875-.015625-.148437-.085937-.222656l-.003906-.003906c-.15625-.144531-.34375-.261719-.566407-.398438-.109375-.066406-.203125-.105469-.300781-.175781-.019531-.015625-.050781-.039062-.074219-.0625h-.003906c-.007813-.003906-.007813-.003906-.003906-.003906-.152344-.121094-.183594-.320313-.082031-.449219.058593-.070313.148437-.109375.242187-.105469.078125.003906.15625.035156.214844.082032h.003906v.003906c.023437.019531.058594.046875.078125.0625.09375.078125.152344.160156.238281.253906h.003907c.183593.1875.335937.34375.511718.460938v.003906h.003906c.09375.054687.175782.042968.234376.035156.03125.019531.078124.054688.113281.078125l.050781.035156.042969-.042969c.640625-.683593 1.476562-1.160156 2.390625-1.367187.21875-.050781.441406-.082031.664062-.101563l.058594-.003906.011719-.207031c.046875-.050781.101562-.109375.121093-.195313v-.007812c.015626-.210938-.011718-.429688-.042968-.6875v-.003906c-.015625-.125-.042969-.222656-.046875-.34375-.003907-.023438 0-.058594 0-.09375 0-.011719 0-.015625 0-.011719 0-.191406.136719-.339844.300781-.339844zm-.390625 2.730469-.082031.011719c-.136719.015625-.273438.039062-.40625.070312-.707032.160157-1.359375.511719-1.875 1.023438l-.0625.058593 1.703125 1.207032.019531-.011719c.054688.03125.113281.058594.183594.058594.191406 0 .335937-.144531.371094-.328125l.03125-.015625zm.78125 0 .003906.085938.113281 1.984374.019532.011719c.011718.0625.023437.125.066406.179688.121094.148437.328125.171875.492188.085937l.027343.011719 1.6875-1.195313-.058593-.058593c-.617188-.605469-1.414063-.988281-2.269532-1.09375zm-.929687.164062-.105469 1.820313-.007813.003906v.042969c-.007812.136719-.121094.246094-.257812.246094-.058594 0-.109375-.015625-.152344-.046875l-.035156-.027344h-.003906l-1.492188-1.054687c.488281-.460938 1.09375-.78125 1.746094-.929688.101562-.023438.203125-.039062.308594-.054688zm1.078124.003907c.765626.113281 1.476563.453125 2.039063.980469l-1.480469 1.054687-.007812-.003906-.03125.023437c-.113282.082032-.269532.058594-.355469-.046875-.035156-.042969-.054687-.097656-.054687-.152343l-.003907-.039063zm-3.839843 1.605469-.042969.070312c-.453125.738281-.648438 1.609375-.554688 2.46875l.007813.082031 1.992187-.574219.003907-.023437c.058593-.027344.121093-.054687.164062-.105469.117188-.152344.09375-.355468-.027343-.496094l.007812-.035156zm6.589843 0-.0625.058593-1.480468 1.324219.003906.023438c-.042969.046874-.082031.097656-.097656.164062-.042969.1875.066406.359375.234375.4375l.007812.03125 2 .578125.007813-.085937c.042968-.425782.015625-.851563-.082032-1.269532-.09375-.417968-.257812-.820312-.488281-1.1875zm-6.554687.222656 1.363281 1.214844v.011718l.027344.023438c.105469.09375.121094.246094.035156.355468-.035156.042969-.082031.074219-.132812.089844l-.042969.011719v.003906l-1.746094.503907c-.066406-.769532.105469-1.546876.496094-2.214844m6.519531 0c.191406.324218.34375.683594.429688 1.070312.089844.386719.109375.769532.082031 1.140625l-1.75-.503906-.003906-.011719-.039063-.011718c-.136718-.035157-.214844-.167969-.183594-.304688.011719-.054688.039063-.101562.082032-.136719l.03125-.027343-.003906-.003907zm-3.585937 1.222656-.023438.027344-.390625.488281.148438.644531.597656.289063.597656-.289063.148438-.644531-.414063-.515625zm.066406.140625h.53125l.328125.410156-.117188.515625-.476562.226563-.476562-.226563-.121094-.515625zm1.933594 1.445313-.003907.007812c-.019531 0-.035156-.003906-.050781-.003906-.050781.003906-.105469.015625-.152343.039062-.171876.082032-.242188.277344-.191407.457032l-.019531.023437.800781 1.929687.070313-.046874c.730468-.464844 1.285156-1.164063 1.574218-1.980469l.03125-.078125zm-3.339844.007812-2.042969.347656.03125.078125c.292969.808594.84375 1.5 1.570313 1.964844l.070312.046875.792969-1.910156-.019531-.019532c.019531-.0625.035156-.128906.019531-.195312-.042969-.179688-.199219-.304688-.382812-.308594-.011719 0-.023438.003906-.035157.003906zm3.292969.136719c.019531-.003907.039062 0 .058594.003906l.039062.007813.003906-.003907 1.808594.304688c-.277344.726562-.773438 1.347656-1.417969 1.78125l-.703125-1.695313.003906-.003906-.015624-.035156c-.054688-.128906 0-.273438.125-.335938.03125-.015625.0625-.023437.097656-.023437zm-3.253906.007812c.117187 0 .21875.082031.246093.199219.011719.054688.007813.109375-.015625.160156l-.015625.035156.007813.007813-.695313 1.675781c-.640625-.429687-1.132812-1.046875-1.414062-1.769531l1.792969-.300781.003906.003906.039062-.007812c.015625-.003907.03125-.003907.050782-.003907zm1.617187.644531c-.121094.007813-.226563.074219-.300781.175782h-.015625l-1.003907 1.8125.078126.027344c.6875.234374 1.429687.273437 2.136718.109374.128906-.027343.257813-.0625.382813-.105468l.082031-.027344-1.007812-1.816406h-.023438c-.039062-.054688-.078125-.105469-.140625-.132813-.058594-.03125-.121094-.042969-.1875-.042969zm.003906.140626c.042969 0 .082031.007812.121094.027343.054687.023438.09375.0625.117187.109375l.019532.035156h.007812l.882813 1.597657c-.09375.03125-.191407.058593-.289063.078125-.65625.152344-1.339844.121094-1.976562-.082032l.878906-1.59375h.003906l.019532-.035156c.042968-.082031.125-.132812.214843-.136718zm0 0" fill="#326ce5"/></svg>