<svg height="18" viewBox="0 0 18 18" width="18" xmlns="http://www.w3.org/2000/svg"><path d="m8.9375.269531c-.160156.007813-.316406.046875-.457031.117188l-6.257813 2.988281c-.328125.15625-.566406.453125-.648437.804688l-1.542969 6.714843c-.0742188.3125-.015625.640625.160156.910157.023438.035156.046875.066406.070313.097656l4.332031 5.382812c.226562.28125.570312.449219.933594.449219l6.945312-.003906c.363282 0 .710938-.164063.9375-.445313l4.328125-5.386718c.226563-.28125.3125-.652344.230469-1.003907l-1.546875-6.714843c-.078125-.351563-.316406-.648438-.644531-.804688l-6.257813-2.988281c-.183593-.089844-.382812-.128907-.582031-.117188" fill="#326ce5"/><path d="m8.996094 2.550781v.003907c-.207032 0-.375.1875-.375.417968v.007813.097656c.003906.132813.035156.234375.050781.355469.023437.199218.03125.359375.03125.519531l.007813-.023437c-.003907-.113282-.007813-.226563-.019532-.335938.019532.171875.035156.332031.027344.476562 0-.046874-.007812-.097656-.007812-.140624l-.007813.023437c.003906.050781.015625.113281.011719.160156-.007813.039063-.042969.070313-.066406.101563l-.003907.019531c.023438-.03125.050781-.0625.066407-.097656-.019532.058593-.058594.109375-.101563.152343.011719-.015624.023437-.035156.035156-.054687l.003907-.015625c-.019532.027344-.03125.0625-.054688.085938l-.007812.15625c-.230469.019531-.453126.054687-.675782.105468-.9375.210938-1.789062.699219-2.445312 1.398438-.042969-.03125-.113282-.082032-.136719-.097656-.066406.011718-.132813.03125-.222656-.019532-.164063-.113281-.316407-.269531-.503907-.457031-.082031-.089844-.144531-.175781-.246093-.261719-.023438-.019531-.058594-.046875-.082031-.066406-.074219-.058594-.167969-.09375-.265626-.097656-.113281-.003906-.226562.039062-.300781.132812-.128906.164063-.085937.410156.09375.554688l.007813.003906c.023437.019531.054687.046875.074218.0625.109376.082031.207032.121094.3125.183594.222657.136718.410157.253906.554688.390625.058594.058593.066406.167969.074219.214843l.121093.105469c-.640624.96875-.9375 2.160157-.765624 3.375l-.152344.046875c-.042969.054688-.101563.136719-.160156.164063-.191407.058593-.410157.082031-.671876.109375-.121093.007812-.230468.003906-.359374.027344-.027344.007812-.070313.015624-.101563.023437h-.003906l-.003907.003906c-.222656.054688-.367187.257813-.320312.460938.046875.199219.265625.324219.488281.273437h.007813s.003906 0 .003906-.003906c.03125-.003906.070312-.011719.097656-.019531.128906-.035157.222656-.085938.335938-.128907.25-.089843.453125-.164062.652344-.191406.082031-.007812.171874.050782.214843.074219l.164063-.027344c.375 1.164063 1.160156 2.105469 2.15625 2.695313l-.066406.160156v.003906c.023437.0625.050781.148438.03125.210938-.070313.1875-.195313.382812-.335938.605468-.070312.101563-.140625.183594-.203125.300782-.015625.027344-.03125.070312-.046875.101562-.097656.207032-.027344.445313.160156.535156.1875.089844.421875-.003906.523438-.210937v-.003906c.011718-.027344.03125-.066407.046875-.09375.050781-.121094.070312-.226563.105469-.34375.101562-.25.15625-.511719.289062-.671875.039062-.042969.097656-.0625.160156-.078125h.003906l.082032-.152344c1.113281.425781 2.339844.429687 3.453125.007813.023437.042968.066406.121093.082031.140624v.003907c.0625.019531.132812.03125.191406.113281.101563.175781.167969.378906.253906.628906.039063.117188.054688.222656.109376.34375.011718.027344.03125.066406.046874.097656.101563.207032.332032.304688.523438.210938.183594-.089844.257812-.328125.160156-.535156-.015625-.027344-.035156-.074219-.050781-.101563-.0625-.117187-.132813-.195312-.199219-.296875-.144531-.222656-.261718-.40625-.332031-.59375-.03125-.097656.003906-.15625.027344-.21875v-.003906c-.003907-.007812-.007813-.015625-.011719-.023438-.007812-.015624-.011719-.027343-.019531-.042968-.007813-.027344-.019531-.058594-.03125-.082032 1.035156-.613281 1.800781-1.585937 2.160156-2.714843.046875.007812.128906.023437.15625.027343h.003906c.054688-.035156.105469-.085937.207031-.078124.199219.03125.402344.105468.652344.195312.113282.042969.207032.09375.335938.128906.027344.007813.066406.011719.097656.019532 0 0 .003906.003906.007812.003906h.003907c.222656.046875.441406-.074219.488281-.277344.042969-.199219-.097656-.40625-.320312-.457031-.03125-.007813-.078126-.023438-.109376-.027344-.128906-.023437-.238281-.019531-.359374-.027344-.261719-.027343-.480469-.050781-.671876-.113281-.074218-.027344-.132812-.121094-.160156-.160156l-.148437-.042969c.078125-.582031.050781-1.175781-.078125-1.75-.132813-.578125-.371094-1.125-.703125-1.621094.039062-.035156.109375-.097656.132812-.117187.007813-.066406 0-.136719.070313-.210938.144531-.136718.332031-.253906.554687-.390625.105469-.0625.207031-.101562.3125-.183593.023438-.015626.058594-.042969.082031-.066407.179688-.144531.222657-.390625.09375-.554687-.132812-.164063-.382812-.179688-.5625-.035156-.027343.019531-.0625.046874-.085937.066406-.101563.085937-.160156.171875-.246094.261718-.183593.1875-.335937.34375-.503906.457032-.070313.042968-.175781.027344-.226563.023437l-.140624.101563c-.8125-.851563-1.917969-1.394532-3.109376-1.5 0-.054688-.003906-.109375-.007812-.164063v-.003906c-.050781-.046875-.105469-.085937-.121094-.183594-.015625-.203125.011719-.417969.042969-.679687.015625-.121094.046875-.222656.050781-.355469 0-.03125 0-.074219 0-.109375 0-.230469-.171875-.417969-.378906-.417969zm-.492188 1.925781c-.171875.019532-.339844.042969-.507812.078126.167968-.035157.335937-.058594.507812-.078126zm-.675781.117188c-.175781.042969-.347656.097656-.519531.160156.171875-.0625.34375-.117187.519531-.160156zm-.675781.21875c-.167969.070312-.332032.148438-.492188.234375.160156-.085937.324219-.164063.492188-.234375m-3.101563.164062c.019531 0 .039063.003907.058594.011719-.019531-.007812-.039063-.011719-.058594-.011719m.132813.039063c.019531.007813.035156.019531.050781.03125-.015625-.011719-.035156-.023437-.050781-.03125m2.328125.117187c-.15625.09375-.304688.195313-.449219.300782.144531-.105469.292969-.207032.449219-.300782m2.015625.332032-.109375 1.957031-.007813.003906v.003907c-.003906.003906-.003906.011718-.003906.019531-.003906.042969-.019531.082031-.039062.121093-.003907.007813-.007813.019532-.015626.027344-.027343.039063-.058593.070313-.097656.09375-.007812.007813-.019531.011719-.03125.015625-.039062.019531-.078125.03125-.121094.03125-.007812 0-.011718.003907-.019531.003907-.007812 0-.011719-.003907-.019531-.003907-.046875-.003906-.09375-.019531-.132812-.042969-.007813-.003906-.015626-.007812-.019532-.011718v.003906-.003906c-.007812-.003906-.015625 0-.019531-.003906l-.003906-.003907-.003907.003907-1.605468-1.140626c.015625-.011718.027344-.023437.042968-.035156.140626-.136718.292969-.257812.453126-.371094.03125-.023437.066406-.046874.101562-.070312.167969-.109375.347656-.207031.535156-.289062.035156-.015626.070313-.03125.101563-.042969.183593-.078125.375-.140625.570312-.1875.015625-.003907.03125-.007813.050781-.011719.082032-.019531.164063-.027344.246094-.042969v-.003906.003906c.050782-.007812.097656-.019531.148438-.023437zm.945312 0 .082032.011718c.152343.023438.300781.054688.445312.09375.058594.015626.113281.03125.171875.050782.144531.046875.289063.101562.425781.164062.054688.023438.105469.046875.15625.074219.136719.070313.269532.148437.398438.234375.046875.03125.097656.066406.144531.101562.121094.089844.238281.1875.351563.289063.019531.019531.039062.039063.058593.058594l-1.59375 1.128906h-.007812c-.007813.003906-.011719.007813-.019531.011719-.039063.023437-.078126.039062-.125.046875-.007813 0-.019532.003906-.03125.003906-.046876 0-.09375-.007813-.140626-.023437-.011718-.007813-.023437-.011719-.035156-.019532-.042968-.023437-.078125-.054687-.105468-.089844-.007813-.011718-.011719-.023437-.019532-.03125-.019531-.039062-.035156-.082031-.039062-.125 0-.007812-.003906-.015624-.003906-.023437l-.003907-.003906zm-3.546875.078125c-.140625.113281-.273437.234375-.398437.363281.125-.128906.257812-.25.398437-.363281m7.160157 1.148437c.074218.117188.144531.238282.210937.363282-.066406-.125-.136719-.246094-.210937-.363282m.277343.492188c.070313.140625.132813.28125.1875.425781-.054687-.144531-.117187-.285156-.1875-.425781m-7.671875.097656 1.464844 1.308594v.011718c.132812.113282.148438.3125.042969.449219-.003907.003907-.011719.007813-.015625.011719-.039063.042969-.085938.074219-.140625.09375-.003907 0-.007813.003906-.015625.007812l-.003906.003907-1.878907.542969c-.003906-.023438-.003906-.050782-.003906-.078126-.015625-.15625-.019531-.3125-.015625-.46875.003906-.054687.007812-.109374.011719-.164062.011719-.15625.03125-.308594.0625-.464844.011719-.054687.023437-.113281.039062-.167968.035157-.152344.082031-.300782.140625-.445313.019532-.054687.039063-.105469.0625-.15625.0625-.144531.132813-.285156.210938-.417969.011718-.023437.023437-.046875.039062-.066406m6.609375 0c.011719.023438.023438.046875.035157.066406.082031.136719.152343.277344.214843.425782.023438.046874.042969.097656.0625.144531.058594.152343.105469.304687.144531.464843.007813.023438.015626.046876.023438.070313.097656.425781.121094.84375.078125 1.253906l-1.886719-.546875-.003906-.007812c-.007812 0-.011719-.003906-.019531-.007813-.039063-.011719-.078125-.035156-.109375-.0625-.007813-.007812-.015625-.015625-.023438-.023437-.03125-.03125-.054687-.070313-.070312-.113282-.003906-.011718-.003906-.023437-.007813-.035156-.007812-.039062-.011719-.082031-.003906-.125 0-.007812 0-.015625.003906-.019531 0-.007813.003907-.011719.003907-.019531.015624-.054688.046874-.101563.085937-.140625.003906-.003907.007813-.011719.011719-.015625v-.003906zm1.296875.464844c.046875.136718.085938.273437.121094.414062-.035156-.140625-.074219-.277344-.121094-.414062m-4.898437.949218h.601562l.371094.464844-.132813.582032-.539062.257812-.539062-.257812-.136719-.582032zm1.929687 1.601563c.027344 0 .050782 0 .078125.007813l.003907-.003907 1.945312.328125c-.011719.023438-.023438.046875-.03125.074219-.054688.144531-.121094.285156-.191406.421875-.027344.050781-.054688.101562-.082032.152344-.082031.132812-.167968.265625-.261718.390625-.035156.042969-.070313.085937-.105469.128906-.101563.121094-.207031.238281-.320313.34375-.042968.039063-.085937.074219-.128906.113281-.117187.101563-.242187.195313-.371094.28125-.019531.015625-.042968.03125-.066406.046875l-.753906-1.824219.003906-.003906c-.003906-.007812-.003906-.011718-.007812-.019531-.011719-.039063-.019532-.082031-.019532-.125 0-.011719.003907-.023437.003907-.035156.007812-.042969.023437-.085938.046875-.125.007812-.007813.011718-.019531.019531-.027344.027344-.03125.058594-.058594.097656-.082031.003907-.003906.011719-.007813.015625-.007813.042969-.019531.085938-.03125.125-.035156zm-3.277344.007813h.003907c.003906 0 .007812.003906.011719.003906.0625.003906.121093.023437.171874.0625.011719.003906.019532.011718.027344.019531.046875.042969.082032.097656.097656.15625 0 .003906.003907.007813.003907.011719.015625.070312.007812.140625-.019531.203125l.007812.007812-.75 1.804688c-.019531-.011719-.039062-.027344-.0625-.042969-.128906-.085938-.253906-.179688-.371094-.28125-.042968-.039062-.082031-.078125-.125-.113281-.113281-.109375-.21875-.222657-.320312-.339844-.035156-.042969-.070313-.089844-.105469-.132813-.09375-.121093-.179687-.25-.257813-.382812-.027343-.050781-.058593-.101562-.085937-.15625-.070313-.132812-.132813-.273438-.191406-.414062-.007813-.027344-.019531-.050782-.03125-.078126l1.929687-.324218.003906.003906c.023438-.003906.042969-.007812.0625-.007812zm.324219.28125c.003907.015624.003907.03125.003907.046874 0-.015624 0-.03125-.003907-.046874m0 .097656c-.003906.019531-.007812.039062-.015625.058594.007813-.019532.011719-.039063.015625-.058594m1.3125.414062c.007813 0 .015625.003906.023438.003906.035156 0 .070312.007813.105469.023438.007812 0 .015624.003906.023437.007812.0625.027344.113281.078126.148437.136719v.003907h.007813l.949219 1.714843c-.039063.015625-.078125.027344-.117188.039063-.046875.011718-.09375.023437-.140625.039062-.039062.007813-.078125.019532-.121093.027344-.015626.003906-.035157.007812-.050782.011719-.195312.039062-.390625.066406-.589844.078125-.039062.003906-.078124.003906-.117187.007812-.203125.003906-.40625-.007812-.605469-.03125-.039062-.007812-.078125-.011718-.117187-.019531-.195313-.03125-.386719-.078125-.570313-.136719-.019531-.007812-.039062-.011718-.054687-.015625l.945312-1.714843h.003907v-.003907c.003906-.003906.007812-.011719.011718-.015625.023438-.035156.054688-.066406.085938-.089844.011718-.011718.023437-.019531.039062-.023437.035156-.019531.078125-.035156.117188-.039063.007812 0 .015625-.003906.023437-.003906m-1.632812 2.78125c.171875.0625.347656.117188.527343.160156-.179687-.042968-.355468-.097656-.527343-.160156m3.289062.011719c-.152343.054687-.304687.101563-.460937.136719.15625-.035156.308594-.082032.460937-.136719m-.644531.179687c-.171875.035157-.347656.0625-.523438.078126.175782-.015626.351563-.042969.523438-.078126m-1.960938.003907c.179688.035156.363282.0625.546876.078125-.183594-.015625-.367188-.042969-.546876-.078125m1.253907.089843c-.179688.011719-.363281.011719-.542969 0 .179688.011719.363281.011719.542969 0zm0 0" fill="#fff"/></svg>