<svg height="18" viewBox="0 0 18 18" width="18" xmlns="http://www.w3.org/2000/svg"><path d="m.511719 1.917969-.121094.074219-.035156.023437-.027344.023437h-.003906v.003907l-.074219.125v.003906l-.003906.019531v.039063l-.003906.105469v11.496093l.003906.027344v.027344l.082031.136719.015625.015624.019531.011719 6.769531 3.894531.066407.035157.019531.011719.023438.007812.15625-.003906.023437-.007813.019531-.011719.0625-.035156 6.476563-3.71875.222656-.132812.0625-.039063.019531-.011719.019532-.015624.078124-.132813v-.011719l.019532-3.730468 3.296875-1.933594.058593-.097656-.023437-4.121094-3.566406-2.097656h-.230469l-3.429688 1.976562v.003906l-.125.128906-.042968.074219v.015625l-.015625 3.722656-2.644531 1.515626-.023438-7.144532v-.019531l-.058594-.09375-3.703125-2.0703125-.03125-.0078125zm3.347656-1.769531 3.636719 2.03125.019531.03125.027344 7.246093v.117188l.101562-.058594 2.785157-1.59375.035156-.019531v-.042969l.015625-3.742187.023437-.042969.078125-.078125 3.394531-1.957032h.152344l3.46875 2.039063.019532 4-.019532.035156-3.335937 1.957031-.015625 3.785157-.042969.070312-.011719.007813-.0625.035156-.21875.132812-6.472656 3.71875-.078125.039063-.082031.003906-.015625-.007812-.058594-.03125-6.765625-3.890625-.011719-.007813-.042969-.070312v-11.621094l.003907-.023437.042969-.078126h.003906l.03125-.023437.117187-.070313 3.152344-1.820312.113281-.0625zm.082031.425781-2.933594 1.695312.101563.058594 2.800781 1.617187.035156.023438.035157-.023438 2.605469-1.496093.148437-.089844.039063-.023437.011718-.007813.015625-.007813.007813-.011718.011718-.039063v-.042969l-.035156-.019531zm0 .160156 2.671875 1.535156-.097656.058594-2.570313 1.476563-2.660156-1.535157zm10.101563 1.761719-.015625.007812-.011719.003906-.027344.011719-.09375.050781-2.546875 1.464844-.089844.054688-.023437.019531-.011719.007813-.015625.015624-.011719.035157.011719.042969.007813.011718.007812.007813.011719.003906.023437.019531.089844.050782 2.535156 1.464843.09375.050781.027344.011719.011719.007813.027344.003906h.023437l.007813-.003906.011719-.003906.03125-.015626.09375-.050781 2.558593-1.472656.085938-.050781.023437-.019532.011719-.007812.011719-.011719.011718-.027343-.019531-.066407-.007812-.003906-.003907-.003906h-.003906l-.003906-.003907-.027344-.015624-.089844-.050782-2.539062-1.460937-.09375-.050781-.027344-.015626-.007812-.003906-.019532-.003906-.003906-.003906zm-13.257813.132812.007813 11.046875 6.308593 3.621094.011719-3.378906-3.289062-1.867188-.054688-.058593-.019531-.035157-.015625-7.636719-.035156-.019531zm6.320313.015625-.105469.054688-2.804688 1.601562-.035156.019531v6.960938l.003906.089844v.042968l.003907.011719.066406.042969.027344-.003906h.003906l.003906-.003906.03125-.015626.085938-.050781 2.640625-1.519531.085937-.054688v-.039062zm6.949219 0h.003906l.089844.054688 2.542968 1.457031.023438.011719-.019532.011719-2.550781 1.464843-.09375.050781-.003906.003907-.007813-.003907-.089843-.050781-2.53125-1.457031-.023438-.015625.023438-.015625 2.542969-1.460938.089843-.050781zm-13.128907.226563 2.667969 1.53125.015625 7.59375.042969.070312.089844.097656.003906.003907 3.230468 1.828125-.015624 3.058594-6.03125-3.460938zm6.039063.007812.011718 6.863282-.023437.015624-2.636719 1.515626-.015625.007812-.003906-6.878906zm10.242187 1.660156-2.945312 1.6875.007812 3.355469 2.9375-1.695312zm-6.308593 0-.011719 3.355469 2.933593 1.679688.023438-3.34375-.035156-.019531zm.136718.242188 2.671875 1.53125-.023437 3.023438-2.65625-1.523438zm6.03125 0v3.027344l-2.65625 1.53125-.007812-3.03125zm-6.390625 3.496094-.015625.007812-.019531.007813-.054687.03125-6.089844 3.503906-.105469.058594 2.925781 1.667969 6.285156-3.589844-.101562-.058594-2.773438-1.625h-.007812zm.015625.148437 2.632813 1.539063-6.007813 3.425781-2.644531-1.503906 5.984375-3.441407zm3.144532 1.890625-6.320313 3.601563.011719 3.378906 6.3125-3.621094v-.039062zm-.140626.242188.003907 3.035156-6.03125 3.464844-.011719-3.058594zm-13.269531 3.367187" fill="#f0513f"/></svg>