<svg height="18" viewBox="0 0 18 18" width="18" xmlns="http://www.w3.org/2000/svg"><path d="m4.105469 8.859375h-.167969c-.070312.71875-.167969 1.589844-1.40625 1.589844h-.5625c-.324219 0-.335938-.042969-.335938-.28125v-3.726563c0-.238281 0-.339844.660157-.339844h.222656v-.210937c-.265625.015625-.882813.015625-1.179687.015625-.265626 0-.816407 0-1.054688-.015625v.210937h.15625c.53125 0 .546875.070313.546875.324219v3.671875c0 .253906-.015625.324219-.546875.324219h-.15625v.210937h3.628906zm0 0"/><path d="m3.980469 5.878906c-.027344-.085937-.042969-.113281-.128907-.113281-.082031 0-.109374.027344-.140624.113281l-1.125 2.855469c-.039063.109375-.125.335937-.5625.335937v.167969h1.085937v-.167969c-.210937 0-.351563-.097656-.351563-.238281 0-.027343 0-.042969.011719-.097656l.238281-.605469h1.394532l.28125.714844c.011718.03125.027344.058594.027344.085938 0 .140624-.265626.140624-.394532.140624v.167969h1.378906v-.167969h-.097656c-.324218 0-.367187-.042968-.410156-.183593zm-.269531.503906.621093 1.589844h-1.253906zm0 0"/><path d="m9.589844 5.933594h-4.261719l-.125 1.5625h.167969c.097656-1.125.199218-1.363282 1.265625-1.363282.128906 0 .308593 0 .378906.011719.140625.027344.140625.097657.140625.269531v3.667969c0 .238281 0 .339844-.730469.339844h-.28125v.210937c.28125-.015624 1-.015624 1.324219-.015624.320312 0 1.039062 0 1.335938.015624v-.210937h-.28125c-.734376 0-.734376-.101563-.734376-.339844v-3.65625c0-.140625 0-.238281.128907-.265625.070312-.015625.265625-.015625.394531-.015625 1.054688 0 1.152344.226563 1.25 1.363281h.167969zm0 0"/><path d="m13.34375 10.433594h-.167969c-.167969 1.070312-.335937 1.589844-1.53125 1.589844h-.929687c-.324219 0-.335938-.042969-.335938-.28125v-1.871094h.617188c.675781 0 .761718.226562.761718.816406h.167969v-1.84375h-.167969c0 .59375-.070312.816406-.761718.816406h-.617188v-1.6875c0-.222656.011719-.28125.335938-.28125h.902344c1.066406 0 1.25.378906 1.363281 1.363282h.167969l-.195313-1.574219h-3.925781v.210937h.15625c.535156 0 .546875.070313.546875.324219v3.65625c0 .253906-.011719.324219-.546875.324219h-.15625v.238281h4.023437zm0 0"/><path d="m15.453125 7.960938.957031-1.40625c.140625-.226563.378906-.453126 1.011719-.453126v-.210937h-1.671875v.210937c.28125 0 .4375.15625.4375.324219 0 .070313-.015625.085938-.058594.15625l-.800781 1.179688-.898437-1.347657c-.015626-.015624-.042969-.070312-.042969-.101562 0-.082031.152343-.195312.449219-.210938v-.210937c-.238282.015625-.746094.015625-1.011719.015625-.210938 0-.648438 0-.914063-.015625v.210937h.125c.378906 0 .519532.042969.648438.242188l1.277344 1.9375-1.136719 1.6875c-.097657.140625-.308594.464844-1.011719.464844v.210937h1.671875v-.210937c-.324219 0-.4375-.195313-.4375-.324219 0-.054687.015625-.082031.070313-.167969l.984374-1.460937 1.113282 1.671875c.011718.027344.027344.058594.027344.070312 0 .085938-.15625.199219-.449219.210938v.210937c.238281-.011719.757812-.011719 1.011719-.011719.296874 0 .617187 0 .914062.011719v-.210937h-.125c-.367188 0-.507812-.027344-.664062-.253906zm0 0"/></svg>