<svg height="18" viewBox="0 0 18 18" width="18" xmlns="http://www.w3.org/2000/svg"><g fill="none" stroke="#fff" stroke-linecap="round" stroke-linejoin="round" stroke-width="2" transform="scale(.75)"><path d="m4 3h6c.552083 0 1 .447917 1 1v16c0 .552083-.447917 1-1 1h-6c-.552083 0-1-.447917-1-1v-16c0-.552083.447917-1 1-1zm0 0"/><path d="m7 3v18m13.401042-2.098958c.197916.5-.098959 1.098958-.598959 1.296875l-1.901041.703125c-.5.197916-1.098959-.098959-1.302084-.598959l-5.5-15.203125c-.197916-.5.098959-1.098958.598959-1.296875l1.901041-.703125c.5-.197916 1.098959.098959 1.302084.598959zm0 0"/></g></svg>