<svg height="18" viewBox="0 0 18 18" width="18" xmlns="http://www.w3.org/2000/svg"><g fill="none" stroke="#fff" stroke-linecap="round" stroke-linejoin="round" stroke-width="2" transform="scale(.75)"><path d="m10 13c.869792 1.161458 2.197917 1.890625 3.645833 1.994792 1.447917.098958 2.869792-.427084 3.895834-1.453125l3-3c1.890625-1.963542 1.864583-5.083334-.0625-7.010417-1.927084-1.927083-5.046875-1.958333-7.010417-.0625l-1.71875 1.713542"/><path d="m14 11c-.869792-1.161458-2.197917-1.890625-3.645833-1.994792-1.447917-.098958-2.869792.427084-3.895834 1.453125l-3 3c-1.890625 1.963542-1.864583 5.083334.0625 7.010417 1.927084 1.927083 5.046875 1.958333 7.010417.0625l1.708333-1.713542"/></g></svg>