<svg height="18" viewBox="0 0 18 18" width="18" xmlns="http://www.w3.org/2000/svg"><path d="m113.809896 104.585938c-1.776042-1.460938-3.609375-2.921875-5.299479-4.526042-1.861979-1.776042-3.036459-3.924479-2.778646-6.674479.143229-1.575521-.229167-2.921875-2.119792-3.4375.458334-1.174479.859375-1.947917 1.03125-2.75.200521-.916667.171875-1.890625.200521-2.835938.257813-9.96875-3.322917-18.705729-8.651042-26.841146-2.463541-3.752604-5.01302-7.41927-7.648437-11.057291-4.096354-5.700521-5.557292-12.088542-5.614583-18.992188-.057292-3.179687-.401042-6.359375-1.088542-9.481771-1.317708-6.04427-4.554688-10.770833-10.427084-13.291666-4.497395-1.947917-9.13802-2.320313-13.893229-1.088542-6.903645 1.804687-11.085937 6.932292-11 14.09375.085938 6.875.429688 13.778646.916667 20.653646.286458 3.895833-.315104 7.247396-2.893229 10.341146-2.463542 2.950521-4.697917 6.158854-6.846354 9.395833-1.231771 1.833333-2.320313 3.838542-3.09375 5.929688-2.0625 5.671874-3.953125 11.372395-7.276042 16.5-1.203125 1.890624-1.346354 4.010416-.486979 6.1875.229167.572916.372396 1.432291.085937 1.890625-2.348958 3.895833-5.013021 7.333333-10.054687 8.10677-3.981771.572917-4.182292 1.289063-4.067708 5.414063.114583 3.322917.085937 6.703125-.257813 9.997396-.372396 3.552083 0 4.526041 3.4375 5.385416 7.934896 1.976563 15.898438 3.638021 23.489583 6.846355 3.23698 1.375 6.473959.88802 9.052084-1.747396 2.721354-2.778646 6.158854-3.867188 9.854166-3.867188 6.273438 0 12.575521.286459 18.848959.372396 1.71875.028646 2.692708.658854 3.380208 2.205729.830729 1.890625 2.263021 3.265625 4.440104 3.523438 4.182292.458333 8.020834-.171875 11.200521-3.380209 3.895833-3.924479 8.421875-7.046875 13.606771-9.223958 1.489583-.601562 2.864583-1.575521 4.096354-2.635417 2.234375-1.91927 2.119792-3.151041-.143229-5.01302m-51.390625-80.466146c.773437-2.606771 2.549479-4.296875 5.242187-4.8125 2.291667-.429688 4.210938.6875 5.64323 3.265625 1.546874 2.75 2.0625 5.643229.744791 8.651041-1.088541 2.463542-1.604167 2.692709-4.125 1.86198-.486979-.14323-.945312-.34375-1.776041-.658855.6875-.572916 1.145833-1.03125 1.661458-1.375 1.117187-.773437 1.460937-1.861979 1.346354-3.151041-.143229-1.690104-1.460938-3.179688-2.835938-3.179688-1.23177.028646-2.26302 1.174479-2.40625 2.921875-.085937 1.088542.085938 2.205729.171876 3.580729-3.4375-1.002604-4.697917-3.523437-3.666667-7.104166m-12.747396-2.263021c1.289063-1.919271 3.208333-2.291667 5.098958-1.002604 2.033855 1.375 3.552084 5.242187 2.778646 7.5625-.286458.859375-1.145833 1.518229-1.71875 2.234375l-.601562-.372396c-.229167-1.231771-.286459-2.578125-.773438-3.723958-.286458-.716146-1.260416-1.17448-1.919271-1.747396-.601562.716146-1.690104 1.432291-1.747395 2.205729-.085938 1.088542.486979 2.291667.973958 3.351562.315104.658855 1.002604 1.145834 1.71875 1.890625l-1.947917 1.51823c-3.007812-2.692709-3.895833-8.822917-1.861979-11.916667m37.669271 64.223958c-.200521 2.606771-.486979 2.721354-3.122396 3.09375-1.861979.257813-2.348958.744792-2.463542 2.950521-.085937 2.606771-.085937 5.184896 0 7.763021.057292 1.776042-.54427 3.151042-1.747396 4.382812-6.760416 6.875-14.838541 10.11198-24.520833 8.9375-4.153646-.515625-6.903646-3.036458-9.080729-6.645833.973958-.34375 1.690104-.601562 2.40625-.888021 3.122396-1.260416 3.695313-3.953125 1.203125-6.273437-1.890625-1.747396-3.981771-3.294271-6.015625-4.898438-1.947917-1.546875-3.924479-3.065104-5.872396-4.611979-1.661458-1.346354-2.320312-3.036458-2.348958-5.213542-.085938-5.15625.973958-10.026041 3.122396-14.723958 1.947916-4.210937 3.4375-8.622396 5.242187-12.890625.945313-2.205729 1.919271-4.46875 3.294271-6.388021 1.317708-1.861979 2.119792-3.666666 1.976563-5.958333-.085938-1.260417 0-2.549479 0-3.838542l.6875-.34375c1.145833.973958 2.320312 1.947917 3.4375 2.950521 4.039062 3.666667 7.877604 3.809896 12.317708.6875 1.890625-1.346354 3.924479-2.492187 5.929687-3.666667.48698-.286458 1.088542-.429687 1.919271-.744791 2.148438 5.070312 4.268229 10.054687 6.388021 15.010416 1.059896 2.520834 1.919271 5.15625 3.265625 7.5625 2.664063 4.755209 4.096354 9.796875 4.067708 15.268229-.028645 2.807292.143229 5.671876-.085937 8.479167" fill="none" stroke="#fff" stroke-linecap="round" stroke-linejoin="round" stroke-width="2" transform="scale(.136364)"/></svg>