<svg height="18" viewBox="0 0 18 18" width="18" xmlns="http://www.w3.org/2000/svg"><path d="m61.694444 0c-1.888888 0-3.805555.194444-5.583333.388889l.194445 1.5c1.805555-.194445 3.583333-.388889 5.5-.388889zm5.611112 0-.111112 1.5c1.805556.111111 3.611112.305556 5.416667.5l.277778-1.5c-1.888889-.194444-3.694445-.388889-5.583333-.5m45.694444.805556c-7.888889 0-14.388889 6.305555-14.388889 14.305555s6.388889 14.277778 14.388889 14.277778 14.305556-6.388889 14.305556-14.277778c0-7.916667-6.416667-14.305555-14.305556-14.305555m-62.388889.583333c-1.805555.416667-3.611111.916667-5.416667 1.416667l.416667 1.388888c1.694445-.5 3.5-1 5.277778-1.388888zm27.583333.305555-.305555 1.416667c1.805555.388889 3.611111.777778 5.305555 1.388889l.416667-1.305556c-1.805555-.583333-3.611111-1.083333-5.416667-1.5m-38.305555 3c-1.694445.694445-3.388889 1.5-5.083333 2.305556l.694444 1.305556c1.611111-.805556 3.305556-1.611112 5-2.305556zm49 .305556-.5 1.388889c1.611111.722222 3.305555 1.5 4.916667 2.305555l.583333-1.305555c-1.583333-.888889-3.277778-1.694445-5-2.388889m-58.888889 4.694444c-1.611111 1-3.111111 2.111112-4.611111 3.194445l.916667 1.222222c1.388888-1.111111 2.888888-2.111111 4.5-3.222222zm34 5.416667c-27 0-49 21.888889-49 49 0 27.083333 21.888889 49 49 49s49-21.916667 49-49c0-27.111111-22-49-49-49m-42.888889 1.388889c-1.416667 1.194444-2.722222 2.5-4 3.888889l1.083333 1c1.194445-1.277778 2.5-2.583333 3.916667-3.777778zm-7.611111 8.194444c-1.111111 1.416667-2.194444 2.916667-3.194444 4.5l1.194444.805556c1-1.5 2-3 3.194444-4.388889zm70.805556 4.694445c7.888888 0 14.305555 6.416667 14.305555 14.305555 0 7.916667-6.416667 14.305556-14.305555 14.305556-7.916667 0-14.305556-6.388889-14.305556-14.305556 0-7.888888 6.388889-14.305555 14.305556-14.305555m-76.916667 4.722222c-.888889 1.583333-1.694445 3.277778-2.388889 5l1.388889.5c.722222-1.611111 1.5-3.305555 2.305555-4.805555zm113.611111.777778-1.305556.722222c.916667 1.583333 1.611112 3.277778 2.305556 5l1.305556-.611111c-.694445-1.694444-1.5-3.388889-2.305556-5.111111m-117.888889 9.416667c-.611111 1.805555-1.111111 3.583333-1.5 5.388888l1.388889.305556c.388889-1.805556.888889-3.5 1.5-5.194444zm122.083333 1-1.388888.388888c.583333 1.694445 1 3.5 1.388888 5.305556l1.416667-.305556c-.416667-1.805555-.916667-3.583333-1.416667-5.388888m-124.694444 9.805555c-.194444 1.888889-.388889 3.694445-.5 5.583333l1.5.111112c.111111-1.805556.305556-3.611112.5-5.416667zm127.111111 1.083333-1.5.194445c.194445 1.805555.277778 3.611111.388889 5.416667h1.5c0-1.916667-.194444-3.805556-.388889-5.611112m-96.916667.194445h4.111112v28.5h15.888888v3.611111h-20zm57.694445 8.305555c5.722222 0 8.722222 2.194445 8.722222 6.305556v13.611111c0 1.083333.694445 1.777778 2 1.777778.194445 0 .388889 0 .777778-.083333l-.083333 2.805555c-1.194445.277778-1.805556.388889-2.5.388889-2.416667 0-3.5-1.111111-3.805556-3.388889-2.611111 2.388889-4.888889 3.388889-7.805556 3.388889-4.694444 0-7.583333-2.611111-7.583333-6.805556 0-3 1.388889-5.083333 4.083333-6.194444 1.416667-.611111 2.194445-.694444 7.416667-1.388889 2.888889-.416667 3.777778-1 3.777778-2.611111v-1c0-2.194444-1.888889-3.388889-5.194445-3.388889-3.388888 0-5.083333 1.277778-5.388888 4.083333h-3.694445c.083333-2.305555.5-3.583333 1.583333-4.805555 1.5-1.694445 4.305556-2.694445 7.694445-2.694445m-33.777778.694445h3.694445v16.305555c0 2.805556 1.888888 4.5 4.805555 4.5 3.777778 0 6.277778-3.083333 6.277778-7.805555v-13h3.611111v23.111111h-3.305556v-3.194444c-2.194444 3-4.305555 4.194444-7.694444 4.194444-4.5 0-7.388889-2.5-7.388889-6.305556zm-53.111111.805555-1.5.111112c.111111 1.888888.194444 3.694444.5 5.583333l1.388889-.277778c-.194445-1.805555-.277778-3.611111-.388889-5.416667m124.888889 1.111112c-.083333 1.805555-.277778 3.583333-.5 5.388888l1.5.194445c.305555-1.777778.5-3.694445.5-5.5zm-123.583333 9.805555-1.416667.277778c.416667 1.805555.916667 3.611111 1.416667 5.416667l1.388888-.416667c-.583333-1.777778-1-3.5-1.388888-5.277778m90.583333 0c-1.194445.583333-2 .694445-5.888889 1.277778-3.888889.5-5.611111 1.805555-5.611111 4.222222 0 2.277778 1.722222 3.694445 4.5 3.694445 2.222222 0 4-.694445 5.5-2.111112 1.111111-1 1.5-1.805555 1.5-3zm31.611111.888889c-.5 1.805556-.888889 3.611111-1.5 5.305556l1.388889.5c.611111-1.805556 1.111111-3.611112 1.5-5.5zm-119 9.5-1.305556.5c.694445 1.694444 1.5 3.388889 2.305556 5.111111l1.305556-.611111c-.916667-1.694444-1.611112-3.305556-2.305556-5m115.694444 1c-.805555 1.611111-1.5 3.305556-2.388888 4.888889l1.305555.722222 2.388889-5.111111zm-110.805555 8.694444-1.194445.805556c1 1.611111 2.111112 3.111111 3.194445 4.611111l1.111111-.916667c-1.111111-1.5-2.111111-3-3.111111-4.5m105.611111.916667c-1 1.5-2.111111 3-3.194444 4.388889l1.194444.888889c1.111111-1.388889 2.194444-3 3.194444-4.5zm-98.888889 7.777778-1.111111 1c1.194444 1.416667 2.5 2.722222 3.888889 4l1-1.083333c-1.277778-1.194445-2.583333-2.611112-3.777778-3.916667m92.194445.805555c-1.194445 1.305556-2.611112 2.611112-3.916667 3.805556l1 1.111111c1.305555-1.305555 2.722222-2.611111 4-3.916667zm-84.194445 6.611112-.916667 1.194444c1.416667 1.111111 2.916667 2.194444 4.5 3.194444l.805556-1.194444c-1.5-1-3-2.111111-4.388889-3.194444m76.083333.694444c-1.5 1.111111-3 2.111111-4.5 3.111111l.805556 1.194445c1.5-1 3.111111-2 4.611111-3.111112zm-67 5.305556-.694444 1.305555c1.611111.888889 3.305556 1.694445 5 2.388889l.611111-1.305556c-1.611111-.805555-3.305555-1.5-4.916667-2.388888m57.694445.388888c-1.694445.916667-3.277778 1.611112-5 2.305556l.611111 1.388889c1.694444-.694445 3.388889-1.5 5.111111-2.388889zm-47.694445 3.805556-.5 1.388889c1.805556.611111 3.611112 1.111111 5.416667 1.5l.388889-1.388889c-1.805556-.5-3.611111-.888889-5.305556-1.5m37.611112.305556c-1.805556.583333-3.5 1-5.305556 1.388888l.305556 1.416667c1.888888-.305555 3.694444-.805555 5.388888-1.416667zm-27 2.194444-.194445 1.5c1.888889.194444 3.694445.388889 5.583333.5v-1.5c-1.805555-.111111-3.583333-.305556-5.388888-.5m16.305555.111111c-1.805555.194445-3.611111.277778-5.416667.388889l.111112 1.5c1.805555-.111111 3.694444-.194444 5.5-.388889zm0 0" fill="none" stroke="#fff" stroke-linecap="round" stroke-linejoin="round" stroke-width="2" transform="scale(.140625)"/></svg>