<svg height="18" viewBox="0 0 18 18" width="18" xmlns="http://www.w3.org/2000/svg"><path d="m5.039062 4.988281c.074219 0 .148438-.015625.21875-.046875l7.894532-3.671875c.261718-.121093.378906-.4375.253906-.699219-.121094-.265624-.4375-.378906-.699219-.257812l-7.894531 3.671875c-.222656.101563-.34375.347656-.292969.589844.054688.242187.269531.414062.519531.414062m7.667969-2.433593-7.894531 3.671874c-.125.058594-.222656.164063-.273438.296876-.046874.132812-.039062.277343.019532.402343.121094.265625.4375.378907.699218.257813l7.894532-3.671875c.261718-.121094.378906-.433594.253906-.699219-.121094-.265625-.4375-.378906-.699219-.257812m0 2.265624-7.894531 3.667969c-.222656.105469-.34375.351563-.289062.59375.050781.238281.265624.414063.515624.414063.074219 0 .148438-.019532.21875-.050782l7.894532-3.667968c.257812-.128906.367187-.4375.246094-.699219-.121094-.261719-.429688-.378906-.691407-.261719zm-7.667969-2.066406c.074219 0 .152344-.019531.21875-.050781l3.640626-1.695313c.257812-.128906.367187-.4375.246093-.699218-.121093-.261719-.429687-.3750002-.691406-.2578128l-3.640625 1.6953128c-.222656.105468-.34375.351562-.292969.59375.054688.242187.269531.414062.519531.414062m7.664063 4.308594-2.789063 1.3125c-.183593.085938-.304687.273438-.304687.476562v2.632813h-1.21875v-1.964844c0-.292969-.234375-.527343-.527344-.527343-.289062 0-.527343.234374-.527343.527343v1.964844h-.757813c-.105469 0-.207031.050781-.273437.132813-.070313.082031-.097657.1875-.078126.292968l.175782.988282c.03125.171874.179687.296874.355468.296874h1.851563l-1.960937.355469c-.144532.027344-.238282.164063-.210938.308594.023438.140625.160156.238281.304688.210937l4.5-.816406c.066406-.011718.125-.050781.164062-.105468.097656-.054688.164062-.148438.179688-.257813l.152343-.988281c.015625-.105469-.011719-.210938-.082031-.289063-.066406-.082031-.167969-.128906-.273438-.128906h-.714843v-2.296875l2.484375-1.167969c.265625-.125.378906-.441406.253906-.703125-.125-.265625-.4375-.378906-.703125-.253906m-1.554687 7.015625-4.5.816406c-.09375.015625-.171876.082031-.207032.171875-.03125.089844-.015625.191406.046875.261719.0625.074219.160157.105469.253907.085937l4.5-.816406c.066406-.011718.128906-.050781.167968-.109375.039063-.058593.054688-.128906.042969-.195312-.011719-.070313-.050781-.132813-.109375-.171875-.058594-.039063-.128906-.054688-.195312-.042969zm0 1.394531-4.5.816406c-.09375.015626-.171876.082032-.207032.171876-.03125.089843-.015625.191406.046875.261718.0625.074219.160157.105469.253907.085938l4.5-.816406c.066406-.011719.128906-.050782.167968-.109376.039063-.054687.054688-.128906.042969-.195312-.011719-.070312-.050781-.132812-.109375-.171875s-.128906-.054687-.195312-.042969zm-.539063 1.40625-3.355469.582032c-.144531.023437-.242187.160156-.214844.304687.023438.140625.160157.238281.304688.214844l3.355469-.578125c.066406-.011719.128906-.050782.171875-.109375.039062-.058594.054687-.128907.042968-.195313-.027343-.144531-.160156-.242187-.304687-.21875zm0 0" fill="#e54537"/></svg>