<svg height="18" viewBox="0 0 18 18" width="18" xmlns="http://www.w3.org/2000/svg"><g fill="none" stroke="#fff" stroke-linecap="round" stroke-linejoin="round" stroke-width="2" transform="scale(.75)"><path d="m22 12.5v-6.5c0-1.104167-.895833-2-2-2h-16c-1.104167 0-2 .895833-2 2v12c0 1.098958.901042 2 2 2h7.5"/><path d="m22 7-8.96875 5.697917c-.630208.395833-1.432292.395833-2.0625 0l-8.96875-5.697917m16 14c1.65625 0 3-1.34375 3-3s-1.34375-3-3-3-3 1.34375-3 3 1.34375 3 3 3"/><path d="m21 18c0 1.65625-1.34375 3-3 3s-3-1.34375-3-3 1.34375-3 3-3 3 1.34375 3 3zm0 0"/><path d="m22 22-1.5-1.5"/></g></svg>