<svg height="18" viewBox="0 0 18 18" width="18" xmlns="http://www.w3.org/2000/svg"><path d="m11 19-1.104167-.552083c-.5625-.28125-1.229166-.28125-1.791666 0l-3.65625 1.828125c-.3125.15625-.682292.140625-.973959-.041667-.296875-.182292-.473958-.505208-.473958-.854167v-12.760416c0-.380209.213542-.723959.552083-.895834l4.552084-2.276041c.5625-.28125 1.229166-.28125 1.791666 0l4.208334 2.104166c.5625.28125 1.229166.28125 1.791666 0l3.65625-1.828125c.3125-.15625.677084-.140625.973959.041667s.473958.505208.473958.854167v7.380208m-6-6.234375v6.234375m3 3v6m3-3h-6m-6-14.765625v15" fill="none" stroke="#fff" stroke-linecap="round" stroke-linejoin="round" stroke-width="2" transform="scale(.75)"/></svg>