<svg height="18" viewBox="0 0 18 18" width="18" xmlns="http://www.w3.org/2000/svg"><g fill="none" stroke="#fff" stroke-linecap="round" stroke-linejoin="round" stroke-width="2" transform="scale(.75)"><path d="m19.75 11.901042c.161458-.619792.244792-1.260417.25-1.901042 0-4.416667-3.583333-8-8-8s-8 3.583333-8 8c0 4.994792 5.536458 10.192708 7.401042 11.796875.354166.270833.84375.270833 1.197916 0l.09375-.072917"/><path d="m15 10c0 1.65625-1.34375 3-3 3s-3-1.34375-3-3 1.34375-3 3-3 3 1.34375 3 3zm0 0"/><path d="m21.5 15.5-5 5m5 0-5-5"/></g></svg>