<svg height="18" viewBox="0 0 18 18" width="18" xmlns="http://www.w3.org/2000/svg"><path d="m1.679688 3.425781c-.820313 0-1.492188.683594-1.492188 1.5v8.148438c0 .816406.671875 1.5 1.492188 1.5h14.640624c.820313 0 1.492188-.683594 1.492188-1.5v-8.148438c0-.816406-.671875-1.5-1.492188-1.5h-14.226562v-.003906zm0 1.339844h14.640624c.085938 0 .152344.058594.152344.160156v8.148438c0 .101562-.066406.160156-.152344.160156h-14.640624c-.085938 0-.152344-.058594-.152344-.160156v-8.148438c0-.101562.066406-.160156.152344-.160156"/><path d="m2.914062 11.828125v-5.65625h1.644532l1.644531 2.078125 1.644531-2.078125h1.644532v5.65625h-1.644532v-3.242187l-1.644531 2.078124-1.644531-2.078124v3.242187zm10.28125 0-2.46875-2.746094h1.644532v-2.910156h1.644531v2.910156h1.644531zm0 0"/></svg>