<svg height="18" viewBox="0 0 18 18" width="18" xmlns="http://www.w3.org/2000/svg"><path d="m17.433594 12.921875c-1.019532-2.570313-1.867188-5.210937-2.839844-7.800781-.429688-1.101563-.851562-2.214844-1.4375-3.246094-.230469-.367188-.453125-.777344-.835938-1.011719-.09375-.058593-.203124-.089843-.3125-.085937-.179687.003906-.355468.082031-.492187.199218-.511719.40625-.816406.996094-1.15625 1.539063-.601563 1.007813-1.238281 2.066406-2.242187 2.71875-.472657.335937-1.09375.371094-1.546876.730469-.625.46875-1.046874 1.132812-1.558593 1.710937-.117188.140625-.296875.195313-.453125.269531-1.523438.621094-3.046875 1.242188-4.558594 1.894532 1.277344.988281 2.640625 1.871094 3.945312 2.824218.355469-.070312.714844-.21875 1.085938-.152343.582031.183593.925781.742187 1.195312 1.257812.542969 1.113281.9375 2.292969 1.378907 3.453125.738281-.050781 1.402343-.433594 1.972656-.878906 1.097656-.890625 1.933594-2.039062 2.855469-3.101562.441406-.464844.890625-1.015626 1.554687-1.144532.667969-.164062 1.386719.078125 1.882813.539063.699218.621093 1.3125 1.34375 2.128906 1.820312-.109375-.539062-.371094-1.023437-.566406-1.535156m-11.390625-1.8125c-.644531.382813-1.328125.695313-1.996094 1.027344-1.046875-.703125-2.070313-1.449219-3.101563-2.175781 1.390626-.609376 2.800782-1.171876 4.207032-1.742188.667968.519531 1.355468 1.015625 2.023437 1.539062-.3125.5-.691406.964844-1.132812 1.351563m1.429687-1.742187c-.664062-.5-1.335937-.984376-1.988281-1.496094.417969-.570313.878906-1.121094 1.425781-1.570313.363282-.234375.808594-.296875 1.183594-.507812.898438-.445313 1.507812-1.265625 2.089844-2.050781-.746094 1.941406-1.542969 3.890624-2.710938 5.625zm0 0"/></svg>