<svg height="18" viewBox="0 0 18 18" width="18" xmlns="http://www.w3.org/2000/svg" xmlns:xlink="http://www.w3.org/1999/xlink"><filter id="a" height="100%" width="100%" x="0%" y="0%"><feColorMatrix color-interpolation-filters="sRGB" values="0 0 0 0 1 0 0 0 0 1 0 0 0 0 1 0 0 0 1 0"/></filter><mask id="b"><g filter="url(#a)"><path d="m-1.8-1.8h21.6v21.6h-21.6z" fill-opacity=".9"/></g></mask><mask id="c"><g filter="url(#a)"><path d="m-1.8-1.8h21.6v21.6h-21.6z" fill-opacity=".9"/></g></mask><mask id="d"><g filter="url(#a)"><path d="m-1.8-1.8h21.6v21.6h-21.6z" fill-opacity=".9"/></g></mask><mask id="e"><g filter="url(#a)"><path d="m-1.8-1.8h21.6v21.6h-21.6z" fill-opacity=".9"/></g></mask><mask id="f"><g filter="url(#a)"><path d="m-1.8-1.8h21.6v21.6h-21.6z" fill-opacity=".9"/></g></mask><mask id="g"><g filter="url(#a)"><path d="m-1.8-1.8h21.6v21.6h-21.6z" fill-opacity=".6"/></g></mask><mask id="h"><g filter="url(#a)"><path d="m-1.8-1.8h21.6v21.6h-21.6z" fill-opacity=".6"/></g></mask><mask id="i"><g filter="url(#a)"><path d="m-1.8-1.8h21.6v21.6h-21.6z" fill-opacity=".6"/></g></mask><mask id="j"><g filter="url(#a)"><path d="m-1.8-1.8h21.6v21.6h-21.6z" fill-opacity=".6"/></g></mask><mask id="k"><g filter="url(#a)"><path d="m-1.8-1.8h21.6v21.6h-21.6z" fill-opacity=".6"/></g></mask><mask id="l"><g filter="url(#a)"><path d="m-1.8-1.8h21.6v21.6h-21.6z" fill-opacity=".6"/></g></mask><mask id="m"><g filter="url(#a)"><path d="m-1.8-1.8h21.6v21.6h-21.6z" fill-opacity=".6"/></g></mask><clipPath id="n"><path d="m0 0h18v18h-18z"/></clipPath><clipPath id="o"><path d="m0 0h18v18h-18z"/></clipPath><clipPath id="p"><path d="m0 0h18v18h-18z"/></clipPath><clipPath id="q"><path d="m0 0h18v18h-18z"/></clipPath><clipPath id="r"><path d="m0 0h18v18h-18z"/></clipPath><clipPath id="s"><path d="m0 0h18v18h-18z"/></clipPath><clipPath id="t"><path d="m0 0h18v18h-18z"/></clipPath><clipPath id="u"><path d="m0 0h18v18h-18z"/></clipPath><clipPath id="v"><path d="m0 0h18v18h-18z"/></clipPath><clipPath id="w"><path d="m0 0h18v18h-18z"/></clipPath><clipPath id="x"><path d="m0 0h18v18h-18z"/></clipPath><clipPath id="y"><path d="m0 0h18v18h-18z"/></clipPath><path d="m8.996094 17.589844c-2.292969 0-4.453125-.894532-6.074219-2.515625-1.621094-1.621094-2.515625-3.78125-2.515625-6.074219s.894531-4.453125 2.515625-6.074219c1.621094-1.621093 3.78125-2.515625 6.074219-2.515625 2.296875 0 4.453125.894532 6.074218 2.515625 1.625 1.621094 2.515626 3.78125 2.515626 6.074219s-.890626 4.453125-2.515626 6.074219c-1.621093 1.625-3.777343 2.515625-6.074218 2.515625" fill="#fff"/><path d="m9 17.71875c-2.328125 0-4.519531-.90625-6.164062-2.554688-1.648438-1.644531-2.554688-3.835937-2.554688-6.164062s.90625-4.519531 2.554688-6.164062c1.644531-1.648438 3.835937-2.554688 6.164062-2.554688s4.519531.90625 6.164062 2.554688c1.648438 1.644531 2.554688 3.835937 2.554688 6.164062s-.90625 4.519531-2.554688 6.164062c-1.644531 1.648438-3.835937 2.554688-6.164062 2.554688m0-17.179688c-2.261719 0-4.386719.878907-5.984375 2.476563s-2.476563 3.722656-2.476563 5.984375.878907 4.386719 2.476563 5.984375 3.722656 2.476563 5.984375 2.476563 4.386719-.878907 5.984375-2.476563 2.476563-3.722656 2.476563-5.984375-.878907-4.386719-2.476563-5.984375-3.722656-2.476563-5.984375-2.476563" fill="#11557c"/><g fill="#2c2c2c"><path d="m10.90625 9.027344h-1.910156c-.027344 0-.050782-.019532-.054688-.046875-.007812-.03125.011719-.058594.035156-.066407l1.816407-.589843c.015625-.003907.03125-.003907.046875.003906.011718.007813.023437.019531.027344.035156.0625.195313.097656.398438.097656.605469 0 .03125-.027344.058594-.058594.058594m-1.542969-.117188h1.484375c-.003906-.152344-.03125-.308594-.074218-.457031zm0 0"/><path d="m8.996094 9.027344c-.019532 0-.035156-.007813-.046875-.023438s-.015625-.035156-.007813-.054687l2.011719-5.363281c.007813-.011719.019531-.023438.03125-.03125.015625-.007813.03125-.007813.046875 0 .566406.210937 1.097656.511718 1.574219.890624.023437.019532.027343.058594.007812.082032l-3.570312 4.476562c-.011719.015625-.027344.023438-.046875.023438m2.046875-5.34375-1.863281 4.960937 3.304687-4.144531c-.4375-.339844-.921875-.617188-1.441406-.816406"/><path d="m8.996094 9.027344c-.015625 0-.03125-.007813-.042969-.019532l-4.894531-5.863281c-.011719-.011719-.015625-.027343-.015625-.042969.003906-.015624.011719-.027343.023437-.039062.929688-.777344 2.035156-1.324219 3.21875-1.59375.03125-.007812.0625.011719.070313.042969l1.699219 7.445312c.003906.027344-.007813.054688-.03125.066407-.007813.003906-.019532.003906-.027344.003906m-4.8125-5.914063 4.703125 5.632813-1.632813-7.152344c-1.125.265625-2.175781.789062-3.070312 1.519531"/><path d="m2.421875 10.222656c-.027344 0-.050781-.023437-.058594-.050781-.253906-1.390625-.054687-2.855469.5625-4.125.011719-.03125.046875-.042969.074219-.027344l6.023438 2.898438c.019531.007812.035156.035156.03125.058593-.003907.027344-.023438.046876-.046876.050782l-6.574218 1.191406c-.003906 0-.007813.003906-.011719.003906m.582031-4.074218c-.578125 1.21875-.765625 2.617187-.535156 3.945312l6.339844-1.148438zm0 0"/><path d="m5.859375 11.203125c-.019531 0-.039063-.011719-.050781-.027344-.113282-.164062-.214844-.339843-.304688-.523437-.007812-.015625-.007812-.03125-.003906-.046875.007812-.011719.015625-.023438.03125-.03125l3.441406-1.65625c.027344-.015625.058594-.003907.074219.023437.015625.023438.007813.058594-.015625.074219l-3.140625 2.175781c-.007813.007813-.019531.011719-.03125.011719m-.226563-.550781c.074219.140625.152344.277344.242188.410156l2.480469-1.71875zm0 0"/><path d="m9 13.800781c-.363281 0-.726562-.042969-1.078125-.121093-.03125-.007813-.050781-.039063-.042969-.070313l1.0625-4.652344c.003906-.027343.03125-.050781.054688-.046875.03125 0 .054687.023438.058594.050782l.796874 4.703124c.007813.03125-.015624.0625-.046874.066407-.265626.046875-.535157.070312-.804688.070312m-.996094-.222656c.5625.121094 1.15625.136719 1.726563.046875l-.742188-4.355469zm0 0"/><path d="m13.757812 14.996094c-.019531 0-.035156-.007813-.046874-.019532l-4.761719-5.972656c-.015625-.019531-.015625-.054687.003906-.074218.023437-.023438.054687-.023438.078125-.007813l6.023438 4.695313c.027343.019531.03125.058593.011718.082031-.371094.476562-.800781.910156-1.273437 1.285156-.007813.007813-.023438.015625-.035157.011719m-4.410156-5.679688 4.417969 5.542969c.433594-.351563.828125-.75 1.171875-1.1875zm0 0"/></g><g mask="url(#b)"><g clip-path="url(#n)"><path d="m63.972222 63.777778h61.083334m-61.083334 0 43.194445-43.194445m-43.194445 43.194445v-61.083334m0 61.083334-43.194444-43.194445m43.194444 43.194445h-61.083333m61.083333 0-43.194444 43.194444m43.194444-43.194444v61.083333m0-61.083333 43.194445 43.194444" style="fill:none;stroke-width:.856;stroke-linecap:round;stroke-linejoin:round;stroke:#858585;stroke-dasharray:.407 .8139;stroke-miterlimit:7.976" transform="scale(.140625)"/></g></g><g mask="url(#c)"><g clip-path="url(#o)"><path d="m70.777778 63.777778-.222222-1.638889-.583334-1.527778-.944444-1.361111-1.25-1.083333-1.472222-.75-1.611112-.388889-1.666666.027778-1.583334.444444-1.472222.805556-1.194444 1.111111-.888889 1.388889-.555556 1.583333-.138889 1.638889.25 1.638889.666667 1.527777.972222 1.305556 1.305556 1.055556 1.5.694444 1.611111.305556 1.666667-.083334 1.555555-.472222 1.444445-.861111 1.166666-1.166667.833334-1.416666.5-1.583334z" style="fill:none;stroke-width:.856;stroke-linecap:square;stroke-linejoin:round;stroke:#818181;stroke-dasharray:.407 .8139;stroke-miterlimit:199.408997" transform="scale(.140625)"/></g></g><g mask="url(#d)"><g clip-path="url(#p)"><path d="m84.333333 63.777778-.194444-2.833334-.583333-2.777777-.972223-2.666667-1.333333-2.5-1.666667-2.305556-1.972222-2.055555-2.25-1.75-2.444444-1.416667-2.638889-1.055555-2.777778-.694445-2.805556-.277778-2.861111.083334-2.777777.5-2.694445.861111-2.555555 1.25-2.361112 1.583333-2.111111 1.916667-1.833333 2.166667-1.5 2.416666-1.166667 2.583334-.777777 2.75-.388889 2.805555v2.833333l.388889 2.833334.777777 2.722222 1.166667 2.583333 1.5 2.416667 1.833333 2.166667 2.111111 1.916666 2.361112 1.583334 2.555555 1.25 2.694445.861111 2.805555.5 2.833333.111111 2.805556-.305556 2.777778-.694444 2.638889-1.055556 2.444444-1.416666 2.25-1.75 1.972222-2.055556 1.666667-2.277778 1.333333-2.527777.972223-2.666667.583333-2.777778z" style="fill:none;stroke-width:.856;stroke-linecap:square;stroke-linejoin:round;stroke:#818181;stroke-dasharray:.407 .8139;stroke-miterlimit:199.408997" transform="scale(.140625)"/></g></g><g mask="url(#e)"><g clip-path="url(#q)"><path d="m97.916667 63.777778-.194445-3.555556-.555555-3.5-.916667-3.416666-1.277778-3.333334-1.611111-3.166666-1.916667-2.972223-2.25-2.75-2.5-2.527777-2.777777-2.222223-2.972223-1.944444-3.166666-1.611111-3.305556-1.277778-3.444444-.916667-3.5-.555555-3.555556-.194445-3.555555.194445-3.5.555555-3.416667.916667-3.333333 1.277778-3.166667 1.611111-2.972222 1.944444-2.75 2.222223-2.527778 2.527777-2.222222 2.75-1.944445 2.972223-1.611111 3.166666-1.277778 3.333334-.916666 3.416666-.555556 3.5-.194444 3.555556.194444 3.555555.555556 3.5.916666 3.444445 1.277778 3.305555 1.611111 3.166667 1.944445 2.972222 2.222222 2.777778 2.527778 2.5 2.75 2.25 2.972222 1.916667 3.166667 1.611111 3.333333 1.277778 3.416667.916666 3.5.555556 3.555555.194444 3.555556-.194444 3.5-.555556 3.444444-.916666 3.305556-1.277778 3.166666-1.611111 2.972223-1.916667 2.777777-2.25 2.5-2.5 2.25-2.777778 1.916667-2.972222 1.611111-3.166667 1.277778-3.305555.916667-3.444445.555555-3.5z" style="fill:none;stroke-width:.856;stroke-linecap:square;stroke-linejoin:round;stroke:#818181;stroke-dasharray:.407 .8139;stroke-miterlimit:199.408997" transform="scale(.140625)"/></g></g><g mask="url(#f)"><g clip-path="url(#r)"><path d="m111.5 63.777778-.277778-4.972222-.777778-4.888889-1.277777-4.805556-1.777778-4.638889-2.277778-4.444444-2.694444-4.166667-3.138889-3.861111-3.5-3.527778-3.861111-3.138889-4.194445-2.694444-4.416666-2.25-4.638889-1.777778-4.805556-1.305555-4.916667-.777778-4.972222-.25-4.972222.25-4.888889.777778-4.805555 1.305555-4.638889 1.777778-4.444445 2.25-4.166666 2.694444-3.861112 3.138889-3.527777 3.527778-3.138889 3.861111-2.694445 4.166667-2.25 4.444444-1.805555 4.638889-1.277778 4.805556-.777778 4.888889-.25 4.972222.25 4.972222.777778 4.916667 1.277778 4.805555 1.805555 4.638889 2.25 4.416667 2.694445 4.194444 3.138889 3.861111 3.527777 3.5 3.861112 3.138889 4.166666 2.722222 4.444445 2.25 4.638889 1.777778 4.805555 1.277778 4.888889.777778 4.972222.277778 4.972222-.277778 4.916667-.777778 4.805556-1.277778 4.638889-1.777778 4.416666-2.25 4.166667-2.722222 3.888889-3.138889 3.5-3.5 3.138889-3.861111 2.722222-4.194444 2.25-4.416667 1.777778-4.638889 1.277777-4.805555.777778-4.916667z" style="fill:none;stroke-width:.856;stroke-linecap:square;stroke-linejoin:round;stroke:#818181;stroke-dasharray:.407 .8139;stroke-miterlimit:199.408997" transform="scale(.140625)"/></g></g><g mask="url(#g)"><g clip-path="url(#s)"><path d="m8.996094 8.96875.019531-.003906.015625-.007813.019531-.003906.019531-.007813.015626-.003906.019531-.007812.019531-.003906.015625-.007813.019531-.003906.019532-.007813.015624-.003906.019532-.007812.015625-.003907.019531-.007812.019531-.003907.015625-.007812.019532-.003906.019531-.007813.015625-.007812.019531-.003907.019531-.007812.015625-.003906.019531-.007813.019532-.003906.015625-.007813.019531-.003906.015625-.007812.019531-.003906.019532-.007813.015624-.003906.019532-.007813.019531-.003906.015625-.007812.019531-.003907.019531-.007812.015626-.003907.019531-.007812.019531-.003906.015625-.007813.019531-.003906.019532-.007813.015624-.003906.019532-.007812.015625-.003906.019531-.007813.019531-.003906.015625-.007813.019532-.003906.019531-.007812.015625-.003907.019531-.007812.019531-.003907.015625-.007812.019531-.003906.019532-.007813.015625-.003906.019531-.007813.015625-.003906.019531-.007812.019532-.003906.015624-.007813.019532-.007813.019531-.003906.015625-.007812.019531-.003906.019531-.007813.015626-.003906.019531-.007813.019531-.003906.015625-.007812.019531-.003907.015625-.007812.019531-.003907.019532-.007812.015625-.003906.019531-.007813.019531-.003906.015625-.007813.019532-.003906.019531-.007812.015625-.003906.019531-.007813.019531-.003906.015625-.007813.019531-.003906.015626-.007812.019531-.003907.019531-.007812.015625-.003907.019531-.007812.019532-.003906.015624-.007813.019532-.003906.019531-.007813.015625-.003906.019531-.007812.019531-.003906.015626-.007813.019531-.003906.019531-.007813v.007813l.003906.003906v.007813l.003906.003906v.007812l.003907.003906v.007813l.003906.003906v.011719l.003906.003906v.007813l.003907.003906v.007813l.003906.003906v.011718l.003906.007813v.003906l.003906.007813v.011718l.003906.003907v.011719l.003907.007812v.011719l.003906.003906v.011719l.003906.007812v.011719l.003907.003906v.011719l.003906.007812v.015626l.003906.007812v.011719l.003906.003906v.019531l.003906.003906v.019532l.003907.003906v.023438l.003906.007812v.023438l.003906.003906v.03125l.003907.007812v.035156l.003906.003907v.0625l.003906.003906v.078125zm0 0" fill="#004cff"/></g></g><g mask="url(#h)"><g clip-path="url(#t)"><path d="m8.996094 8.96875.019531-.050781.019531-.054688.023438-.054687.019531-.054688.019531-.050781.058594-.164063.019531-.050781.023438-.054687.019531-.054688.019531-.050781.058594-.164063.019531-.050781.023438-.054687.019531-.054688.019531-.050781.058594-.164063.023438-.050781.039062-.109375.019531-.050781.058594-.164063.023437-.050781.039063-.109375.019531-.050781.058594-.164063.023438-.050781.039062-.109375.019531-.050781.058594-.164063.023437-.050781.039063-.109375.019531-.050781.039063-.109375.023437-.054688.019532-.050781.039062-.109375.019531-.050781.039063-.109375.023437-.054688.019531-.050781.039063-.109375.019531-.050781.039063-.109375.023437-.054688.019532-.050781.039062-.109375.019531-.050781.039063-.109375.023437-.054688.019531-.050781.039063-.109375.019531-.050781.039063-.109375.023437-.054688.019532-.050781.039062-.109375.019531-.050781.019531-.054687.023438-.054688.019531-.054688.019531-.050781.058594-.164062.019532-.050781.023437-.054688.019531-.054688.019532-.050781.058593-.164062.019531-.050781.023438-.058594.019531-.054688.019531-.050781.019532.003906.015625.007813.015625.003906.019531.007812.03125.015626.015625.003906.019531.007812.015625.007813.015625.003906.015625.007813.019532.007812.03125.015625.015624.003906.019532.007813.0625.03125.019531.007812.015625.003906.046875.023438.019531.007812.09375.046876.019532.007812.046874.023438.015626.011718.09375.046875.019531.011719.046875.023438.015625.011718.046875.023438.015625.011718.03125.015626.015625.011718.03125.015625.011718.011719.03125.015625.015626.011719.015624.007812.015626.011719.015624.007813.015626.011718.03125.015625.015624.011719.011719.007812.015625.011719.015625.007813.03125.023437.015625.007813.011719.011718.015625.007813.03125.023437.015625.007813.011719.011719.015625.007812.03125.023438.011719.007812.046874.035156.011719.007813.03125.023437.011719.011719.015625.007813.015625.011718.011719.011719.015625.011719.015625.007812.011719.011719.03125.023438.011718.011719-.035156.042968-.035156.046875-.035156.042969-.035157.046875-.039062.042969-.035157.046875-.070312.085937-.035156.046875-.035156.042969-.035157.046875-.039062.042969-.035157.046875-.035156.042969-.035156.046874-.035156.042969-.035156.046875-.035157.042969-.035156.046875-.039063.042969-.035156.046875-.035156.042968-.035156.046876-.070313.085937-.035156.046875-.039063.042969-.035156.046875-.035156.042968-.035156.046876-.035156.042968-.035157.046875-.035156.042969-.039063.042969-.035156.046875-.035156.042968-.035156.046876-.035156.042968-.035157.046875-.035156.042969-.039063.046875-.070312.085937-.035156.046876-.035156.042968-.035157.046875-.035156.042969-.039063.046875-.035156.042969-.035156.046875-.035156.042969-.035156.046874-.035157.042969-.035156.046875-.039063.042969-.035156.046875-.035156.042969-.035156.046875-.035156.042968-.035157.046876-.035156.042968-.039063.046875-.070312.085938-.035156.046875-.035156.042968-.035157.046876-.035156.042968-.039063.046875-.035156.042969-.035156.046875-.070312.085937-.035157.046876-.035156.042968-.039063.046875-.035156.042969-.035156.046875-.035156.042969-.035156.046875-.035157.042969-.035156.046874-.035156.042969-.039063.046875-.035156.042969-.035156.046875-.035156.042969-.035157.046875-.070312.085937-.039063.046875-.035156.042969-.035156.046875-.035156.042969-.035157.046875-.035156.042968-.039063.046876-.070312.085937zm0 0" fill="#ceff29"/></g></g><g mask="url(#i)"><g clip-path="url(#u)"><path d="m8.996094 8.96875-.046875-.058594-.050781-.058594-.046876-.058593-.101562-.117188-.046875-.058593-.050781-.058594-.046875-.058594-.050781-.058594-.046876-.058594-.050781-.058593-.046875-.058594-.050781-.058594-.046875-.058593-.050781-.058594-.046875-.058594-.050782-.058594-.046874-.058594-.050782-.058593-.046875-.058594-.101562-.117187-.046875-.058594-.050782-.058594-.046874-.058594-.050782-.058594-.046875-.058593-.050781-.058594-.046875-.058594-.050781-.058593-.046875-.058594-.050781-.058594-.046876-.058594-.050781-.058594-.046875-.058593-.050781-.058594-.046875-.058594-.050781-.058593-.046875-.058594-.101563-.117188-.046875-.058594-.050781-.058593-.046875-.058594-.050781-.058594-.046875-.058593-.050782-.058594-.046874-.058594-.050782-.058594-.046875-.058594-.050781-.058593-.046875-.058594-.050781-.058594-.046875-.058593-.050781-.058594-.046876-.058594-.101562-.117188-.046875-.058593-.050781-.058594-.046875-.0625-.050781-.058594-.046876-.058593-.050781-.058594-.046875-.058594-.050781-.058594-.046875-.058594-.050781-.058593-.046875-.058594-.050782-.058594-.046874-.058593-.050782-.058594-.046875-.058594-.050781-.058594-.046875-.058594-.101563-.117187-.046874-.058594-.050782-.058593-.046875-.058594-.050781-.058594-.046875-.058594-.050781-.058594-.046875-.058593-.050781-.058594-.046876-.058594-.050781-.058593-.046875-.058594-.050781-.058594-.046875-.058594-.050781-.058594-.046875-.058593-.050782-.058594-.050781-.054687-.046875-.058594-.050781-.058594-.046875-.058594-.050781-.058594-.046875-.058593-.050782-.058594.054688-.046875.03125-.023438.054688-.046874.027343-.019532.027344-.023437.03125-.023438.027344-.019531.027343-.023438.03125-.019531.027344-.023437.03125-.019532.027344-.023437.027344-.019531.03125-.023438.027344-.019531.03125-.019531.027343-.019532.03125-.023437.03125-.019531.027344-.019532.0625-.039062.027344-.019531.09375-.058594.027343-.019531.09375-.058594.03125-.015625.0625-.039063.03125-.015624.0625-.039063.03125-.015625.03125-.019531.0625-.03125.03125-.019531.03125-.015626.03125-.019531.03125-.015625.035157-.015625.125-.0625.035156-.015625.0625-.03125.035156-.015625.0625-.03125.035157-.015625.03125-.015625.035156-.011719.03125-.015624.035156-.015626.03125-.011718.035156-.015625.03125-.011719.035156-.015625.03125-.011719.035157-.015625.03125-.011719.035156-.011718.035156-.015625.03125-.011719.070313-.023438.03125-.011718.070312-.023438.03125-.011718.070313-.023438.03125-.011719.070312-.023437.035157-.007813.035156-.011719.03125-.011718.035156-.007813.070312-.023437.070313-.015625.035156-.011719.035157-.007812.03125-.011719.140624-.03125.035157-.011719.035156-.007812.019531.074218.03125.148438.019532.078125.03125.148437.019531.074219.03125.148437.019531.074219.03125.148438.019531.074219.015625.074218.019532.074219.03125.148437.019531.074219.03125.148438.019531.074219.03125.148437.019531.074219.03125.148437.019531.078125.015626.074219.019531.074219.03125.148437.019531.074219.046875.222656.019531.074219.015625.074219.015625.078125.019532.074219.03125.148437.019531.074219.015625.074218.019531.074219.03125.148438.019531.074219.03125.148437.019532.074219.03125.148437.019531.074219.03125.148438.019531.074218.015625.074219.019531.074219.03125.148437.019532.078125.03125.148438.019531.074218.03125.148438.019531.074219.03125.148437.019531.074219.015625.074219.019532.074218.03125.148438.019531.074219.03125.148437.019531.074219.03125.148437.019531.074219.015625.074219.015625.078125.019531.074219.015626.074218.019531.074219.03125.148438.019531.074219.03125.148437.019531.074219.03125.148437.019531.074219.03125.148438.019532.074218.015625.074219zm0 0" fill="#ff6800"/></g></g><g mask="url(#j)"><g clip-path="url(#v)"><path d="m8.996094 8.96875-.132813.023438-.0625.011718-.066406.011719-.066406.015625-.265625.046875-.0625.011719-.265625.046875-.0625.011719-.398438.070312-.0625.011719-.066406.011719-.066406.015624-.066407.011719-.0625.011719-.398437.070312-.0625.011719-.398437.070313-.0625.011718-.066407.015626-.265625.046874-.0625.011719-.199218.035157-.0625.011718-.332032.058594-.0625.011719-.199218.035156-.066407.015625-.132812.023438-.0625.011718-.398438.070313-.0625.011719-.332031.058593-.0625.011719-.066406.015625-.332032.058594-.0625.011719-.132812.023437-.0625.011719-.265625.046875-.0625.011719-.332031.058593-.066406.015625-.0625.011719-.132813.023437-.007813-.042968-.007812-.039063-.007812-.042969-.003907-.042968-.007812-.039063-.003907-.042969-.007812-.042968-.003906-.039063-.003906-.042969-.007813-.042968-.003906-.039063-.007813-.085937-.003906-.039063-.011719-.128906-.003906-.039063v-.042968l-.003906-.042969v-.039063l-.003907-.042968v-.042969l-.003906-.042969v-.375l.003906-.042968v-.085938l.003907-.039062.003906-.042969v-.042969l.003906-.039062.011719-.128907.003906-.039062.007813-.085938.003906-.039062.003906-.042969.007813-.042969.003906-.039062.007812-.042969.003907-.042969.007812-.039062.003907-.042969.007812-.039062.015625-.085938.007813-.039062.007812-.042969.007812-.039063.007813-.042968.007813-.039063.007812-.042969.011719-.039062.007812-.042969.011719-.039063.007812-.042968.011719-.039063.007813-.042969.023437-.078124.011719-.042969.023438-.078125.011718-.042969.023438-.078125.011718-.042969.015626-.039062.011718-.039063.015625-.039062.011719-.039063.015625-.039062.011719-.042969.046875-.117188.011719-.039062.03125-.078125.019531-.039063.03125-.078124.015625-.035157.015625-.039062.019531-.039063.015625-.039062.019531-.039063.015625-.035156.019531-.039063.058594.027344.0625.03125.058594.027344.0625.03125.058594.027344.058594.03125.0625.027344.058593.027343.0625.03125.058594.027344.058594.03125.0625.027344.058593.027343.0625.03125.058594.027344.0625.03125.117188.054688.0625.03125.058594.027344.0625.03125.058593.027343.058594.03125.0625.027344.058594.027344.0625.03125.058593.027343.058594.03125.0625.027344.058594.027344.0625.03125.058594.027344.058594.03125.0625.027344.058593.03125.0625.027343.058594.027344.0625.03125.058594.027344.058593.03125.0625.027343.058594.027344.0625.03125.058594.027344.058594.03125.0625.027344.058594.03125.0625.027344.058593.027343.058594.03125.0625.027344.058594.03125.0625.027344.058593.027343.058594.03125.0625.027344.058594.03125.0625.027344.058594.03125.058594.027344.0625.027344.058593.03125.0625.027343.058594.03125.0625.027344.058594.027344.058593.03125.0625.027343.058594.03125.0625.027344.058594.03125.058594.027344.0625.027344.058594.03125.0625.027344.058593.03125.058594.027343.0625.027344.058594.03125.0625.027344.058593.03125.058594.027343.0625.03125.058594.027344.0625.027344.058594.03125.0625.027344.058594.03125.058593.027344.0625.027343.058594.03125.0625.027344.058594.03125.058593.027344.0625.03125.058594.027343.0625.027344.058594.03125.058594.027344zm0 0" fill="#ffc400"/></g></g><g mask="url(#k)"><g clip-path="url(#w)"><path d="m8.996094 8.96875-.03125.023438-.03125.019531-.0625.046875-.03125.019531-.03125.023437-.03125.019532-.03125.023437-.03125.019531-.03125.023438-.03125.019531-.0625.046875-.03125.019532-.03125.023437-.03125.019531-.0625.046875-.03125.019531-.03125.023438-.035156.019531-.03125.023438-.03125.019531-.0625.046875-.03125.019531-.03125.023438-.03125.019531-.03125.023437-.03125.019532-.0625.046875-.03125.019531-.03125.023438-.03125.019531-.0625.046875-.03125.019531-.03125.023437-.03125.019532-.03125.023437-.03125.019531-.0625.046876-.03125.019531-.03125.023437-.03125.019532-.0625.046874-.03125.019532-.03125.023437-.03125.019531-.03125.023438-.03125.019531-.035157.019531-.03125.023438-.03125.019531-.0625.046875-.03125.019532-.03125.023437-.03125.019531-.0625.046875-.03125.019531-.03125.023438-.03125.019531-.03125.023438-.03125.019531-.0625.046875-.03125.019531-.03125.023438-.03125.019531-.0625.046875-.03125.019531-.03125.023438-.03125.019531-.03125.023438-.035156.019531-.0625.046875-.03125.019531-.03125.023437-.03125.019532-.03125.023437-.03125.019531-.0625.046876-.03125.019531-.03125.023437-.03125.019532-.0625.046874-.03125.019532-.03125.023437-.0625.039063-.03125.023437-.003906-.003906-.003907-.007813-.011718-.011718-.003906-.007813v-.003906l-.003907-.003906-.003906-.007813-.011719-.011718-.003906-.007813v-.003906l-.007812-.007813-.003907-.007812-.007812-.007813v-.007812l-.007813-.007813-.003906-.007812-.007812-.007813v-.003906l-.003907-.007813-.007812-.007812-.003907-.007812-.003906-.003907v-.003906l-.003906-.007813-.011719-.011718v-.007813l-.007812-.007812-.003907-.007813v-.003906l-.003906-.003906-.003906-.007813-.007812-.007812v-.007813l-.007813-.007812-.003906-.007813-.003907-.003906v-.003906l-.003906-.007813-.007812-.007812v-.007813l-.007813-.007812-.003906-.007813v-.003906l-.003906-.003906-.003907-.007813-.003906-.003906v-.003906l-.003906-.007813-.007812-.007812v-.007813l-.007813-.007812-.003906-.007813v-.003906l-.003907-.003906-.003906-.007813v-.003906l-.003906-.003906-.003906-.007813-.003906-.003906v-.003906l-.003907-.007813-.003906-.003906v-.007813l-.007813-.007812-.003906-.007812v-.003907l-.003906-.003906-.003906-.007813v-.003906l-.003906-.007812-.003907-.003906v-.003907l-.003906-.007812-.003906-.003907v-.003906l-.003907-.007812-.007812-.007813v-.007812l-.003906-.003907-.003906-.007812.105468-.046875.035156-.019531.035157-.015625.03125-.015625.035156-.015625.035156-.019531.070313-.03125.03125-.015626.035156-.019531.105469-.046875.035156-.019531.03125-.015625.070313-.03125.035156-.019531.035156-.015625.03125-.015625.035156-.015625.035156-.019532.105469-.046874.03125-.019532.105469-.046875.035156-.019531.03125-.015625.070313-.03125.035156-.019531.070313-.03125.03125-.015625.035156-.019531.105468-.046876.035157-.019531.03125-.015625.070312-.03125.035157-.019531.035156-.015625.03125-.015625.035156-.015625.035156-.019531.105469-.046875.03125-.019532.105469-.046874.035156-.019532.03125-.015625.070312-.03125.035157-.019531.070312-.03125.03125-.015625.035157-.019531.105468-.046875.03125-.019531.105469-.046876.035156-.019531.035157-.015625.03125-.015625.035156-.015625.035156-.019531.070312-.03125.03125-.015625.035157-.019531.105469-.046875.035156-.019532.03125-.015624.070312-.03125.035156-.019532.070313-.03125.03125-.015625.035156-.019531.105469-.046875zm0 0" fill="#29ffce"/></g></g><g mask="url(#l)"><g clip-path="url(#x)"><path d="m8.996094 8.96875.03125.1875.007812.050781.015625.09375.011719.046875.101562.609375.007813.050781.03125.1875.011719.046876.078125.46875.007812.050781.0625.375.011719.046875.054688.328125.007812.050781.078125.46875.011719.046875.039062.234375.007813.050781.09375.5625.011719.046875.015624.09375.007813.050782.09375.5625-.015625.003906-.039062.007812h-.019532l-.015625.003906-.019531.003907h-.019531l-.019531.003906-.015626.003906h-.019531l-.039062.007813h-.015625l-.019532.003906h-.019531l-.019531.003906h-.015625l-.019531.003906h-.019532l-.019531.003907h-.035156l-.019531.003906h-.039063l-.019531.003906h-.035156l-.019532.003907h-.054687l-.019531.003906h-.335938l-.023437-.007813h-.054688l-.019531-.003906h-.054688l-.019531-.003906h-.039062l-.015625-.003907h-.019532l-.019531-.003906h-.039062l-.015625-.003906h-.019532l-.019531-.003906h-.019531l-.015625-.003906-.019531-.003907h-.019532l-.019531-.003906h-.015625l-.039062-.007813h-.019532l-.015624-.003906-.019532-.003906h-.019531l-.019531-.003906-.015625-.003906-.039063-.007813h-.019531l-.015625-.003906-.039062-.007813-.015626-.003906-.058593-.011719-.015625-.003906-.039063-.007813-.015625-.003906-.039062-.007812.011718-.046875.011719-.042969.007813-.046875.035156-.140625.007812-.046875.035157-.140625.007812-.046875.023438-.09375.011719-.042969.007812-.046875.035156-.140625.007813-.046875.023437-.09375.007813-.046875.035156-.140625.007813-.042969.035156-.140624.007812-.046876.035156-.140624.007813-.046876.023437-.09375.007813-.046874.011719-.042969.023437-.09375.007813-.046875.035156-.140625.007812-.046875.035157-.140625.007812-.046875.011719-.042969.023438-.09375.007812-.046875.023438-.09375.007812-.046875.035156-.140625.007813-.046875.011719-.046875.011718-.042969.011719-.046875.007813-.046875.035156-.140625.007812-.046875.035156-.140625.007813-.046875.011719-.046875.011718-.042968.007813-.046876.035156-.140624.007813-.046876.035156-.140624.007812-.046876.023438-.09375.011719-.042968.007812-.046875.035157-.140625.007812-.046875.023438-.09375.007812-.046875.023438-.09375.011718-.042969.007813-.046875.011719-.046875zm0 0" fill="#7dff7a"/></g></g><g mask="url(#m)"><g clip-path="url(#y)"><path d="m8.996094 8.96875.0625.046875.117187.09375.0625.046875.058594.046875.0625.046875.117187.09375.0625.046875.058594.046875.0625.046875.058594.050781.058594.046875.0625.046875.058594.042969.0625.046875.058593.046875.0625.050781.117188.09375.0625.046875.058593.046875.0625.046875.117188.09375.0625.046875.058594.046875.0625.046875.058594.046875.0625.046875.117187.09375.0625.046875.058594.046875.0625.046875.117187.09375.0625.046875.058594.046875.0625.046875.117188.09375.0625.046875.058593.046875.0625.046875.117188.09375.0625.046875.058593.046875.0625.046875.117188.09375.0625.046875.058594.046875.0625.046875.058594.046875.0625.046875.117187.09375.0625.050781.058594.046876.0625.046874.117187.09375.0625.046876.058594.046874.0625.046876.117188.09375.0625.046874.058593.046876.0625.046874.117188.09375.0625.046876.058593.046874.0625.046876.058594.046874.0625.046876.117188.09375.0625.046874.058594.046876.0625.046874.117187.09375.0625.046876.058594.046874.0625.046876.117187.09375.0625.046874.058594.046876.0625.046874.117188.09375.0625.046876.058593.046874.0625.046876.058594.046874-.023437.03125-.007813.011719-.023437.03125-.011719.011719-.011719.015625-.011719.011719-.011719.015625-.011718.011719-.011719.015624-.007813.015626-.011718.011718-.011719.015625-.011719.011719-.011718.015625-.011719.011719-.011719.015625-.011719.011719-.011719.015624-.011718.011719-.011719.015625-.011719.011719-.011718.015625-.011719.011719-.011719.015625-.050781.050781-.011719.015625-.011719.011719-.011719.015625-.023437.023437-.011719.015625-.050781.050782-.011719.015624-.0625.0625-.011718.015626-.011719.011718-.015625.011719-.011719.011719-.011719.015625-.011718.011719-.015626.011718-.011718.011719-.011719.015625-.011719.011719-.015625.011719-.011719.011718-.011718.015625-.015625.011719-.023438.023438-.015625.011718-.011718.015625-.011719.011719-.015625.011719-.023438.023437-.015625.011719-.046875.046875-.015625.011719-.011719.011719-.015624.011718-.023438.023438-.015625.011718-.011719.011719-.015625.011719-.011719.015625-.015624.011719-.011719.011718-.015625.011719-.011719.011719-.015625.011719-.011719.011719-.015625.007812-.011718.011719-.015626.011719-.011718.011718-.03125.023438-.011719.011718-.015625.011719-.011719.011719-.015625.011719-.011718.011719-.015626.011718-.046874-.0625-.046876-.058594-.050781-.058593-.046875-.0625-.140625-.175781-.050781-.0625-.09375-.117188-.046875-.0625-.046875-.058594-.050781-.058594-.046875-.0625-.140625-.175781-.050781-.0625-.09375-.117187-.046876-.0625-.046874-.058594-.050782-.058594-.046875-.0625-.1875-.234375-.050781-.0625-.09375-.117187-.046875-.0625-.046875-.058594-.050781-.058594-.046875-.058594-.046875-.0625-.09375-.117187-.050781-.0625-.09375-.117187-.046876-.0625-.046874-.058594-.050782-.058594-.046875-.058594-.046875-.0625-.09375-.117187-.050781-.0625-.09375-.117188-.046875-.0625-.046875-.058593-.050781-.058594-.046875-.058594-.046875-.0625-.09375-.117188-.050782-.0625-.09375-.117187-.046874-.0625-.050782-.058594-.09375-.117187-.046875-.0625-.046875-.058594-.050781-.058594-.046875-.0625-.09375-.117187-.046875-.0625-.050781-.058594-.09375-.117187-.046875-.0625-.046875-.058594-.050782-.058594-.046874-.0625-.09375-.117188-.046876-.0625-.050781-.058593-.09375-.117188-.046875-.0625-.046875-.058593-.050781-.058594-.046875-.0625-.09375-.117188-.046875-.0625-.050781-.058594-.09375-.117187-.046875-.0625-.046875-.058594-.050781-.058593-.046876-.0625zm0 0" fill="#ff6800"/></g></g></svg>