<svg height="18" viewBox="0 0 18 18" width="18" xmlns="http://www.w3.org/2000/svg"><path d="m3.082031 0c-.210937.0117188-.425781.0898438-.535156.34375-.164063.554688-.25 1.128906-.253906 1.707031l.917969.441407c-.019532-.542969.003906-1.089844.0625-1.632813-.042969.539063-.042969 1.078125-.003907 1.613281.476563-.40625.929688-.835937 1.359375-1.285156-.179687-.488281-.550781-.878906-1.023437-1.09375 0 0-.253907-.1054688-.523438-.09375m.1875 2.472656c.015625.257813.039063.542969.066407.863282 0 .015624.003906.035156.003906.050781.027344.277343.0625.578125.105468.90625.039063.28125.078126.578125.128907.898437.042969.277344.09375.570313.144531.878906l-.003906.003907c.007812.007812.011718.011719.011718.015625.007813.042968.015626.078125.019532.121094.023437.121093.046875.246093.070312.371093.027344.136719.054688.273438.082032.414063.011718.074218.027343.144531.042968.21875.042969.214844.09375.441406.140625.671875.066407.28125.128907.574219.199219.878906.066406.285156.140625.585937.21875.886719.074219.292968.148438.589844.230469.894531.070312.273437.148437.550781.226562.835937 0 .015626.011719.027344.011719.042969.082031.289063.164062.582031.25.871094 0 .003906 0 .011719.003906.015625l.371094-.339844c-.007812 0-.015625.007813-.027344.011719.046875-.054687.09375-.117187.136719-.175781.011719.027344.023437.054687.035156.082031-.046875.03125-.09375.058594-.144531.085937l-.371094.339844c.015625.042969.027344.085938.042969.132813.054687.195312.117187.398437.179687.605469-.078124-.03125-.152343-.066407-.226562-.109376-.046875-.160156-.09375-.324218-.136719-.484374-.015625-.058594-.035156-.113282-.050781-.171876-.066406-.230468-.128906-.457031-.195312-.6875-.015626-.066406-.03125-.132812-.050782-.199218-.078125-.292969-.15625-.585938-.234375-.882813-.074219-.289062-.148437-.578125-.21875-.867187-.070312-.292969-.140625-.585938-.207031-.878906-.070312-.292969-.136719-.601563-.199219-.898438-.0625-.300781-.121093-.601562-.179687-.898438-.023438-.105468-.042969-.210937-.0625-.320312-.03125-.183594-.0625-.367188-.097656-.554688 0-.011718 0-.019531-.003907-.03125l-1.21875-.621093c.003907.019531.003907.039062.003907.058593.023437.277344.046874.554688.082031.835938.03125.28125.066406.574219.109375.863281.035156.242188.074218.484375.113281.730469.011719.046875.019531.097656.027344.148438.109375.585937.246093 1.167968.410156 1.738281.054687.175781.105469.347656.160156.511719.046875.136718.097657.273437.144531.40625.113282.316406.242188.625.386719.925781h.003907c0 .015625.003906.027343.011718.039062.167969.359375.355469.707031.566406 1.042969.007813.011719.011719.027344.019532.035156-.304688-.082031-.621094-.109375-.9375-.070312.570312.15625 1.09375.460937 1.511718.878906-.203124.179688-.449218.304688-.714843.359375.265625.042969.535156.019531.785156-.070313-.242187.261719-.40625.582032-.476563.929688.171876-.339844.441407-.625.773438-.820312.058594.195312.121094.394531.183594.589843-.546875 1.066407-1.101563 2.210938-1.667969 3.417969.140625-.019531.261719-.105469.320313-.234375.101562-.210937.625-1.332031 1.433593-2.910156.308594.980469.660157 2.011719 1.039063 3.085937.078125-.097656.097656-.230468.058594-.347656-.074219-.203125-.476563-1.339844-.980469-2.960938.117187-.230468.238281-.464843.359375-.695312.097656.023438.1875.058594.277344.105469.179687.175781.3125.394531.378906.636719.027344-.292969-.0625-.589844-.25-.824219 1 .195312 1.910156.066406 2.464844-.605469.050781-.0625.097656-.125.144531-.191406-.265625.242187-.644531.320312-.988281.203125.597656-.128907 1.136718-.449219 1.527343-.917969.097657-.117188.191407-.238281.28125-.359375-.609375.5-1.4375.640625-2.175781.367187h-.007812c-.007813-.003906-.015626-.003906-.027344-.007812.847656-.046875 1.660156-.359375 2.316406-.894531.328125-.265625.625-.570313.882812-.90625.222657-.289063.425782-.59375.613282-.910157.1875-.316406.363281-.640624.523437-.972656-.179687.0625-.363281.09375-.554687.105469l-.105469.003906h-.113281c.621094-.152343 1.160156-.539062 1.496094-1.082031-.25.121094-.523438.195312-.800782.21875-.042968.003906-.089844.003906-.136718.007812h-.035157c.210938-.050781.414063-.128906.605469-.234374.039062-.019532.074219-.039063.109375-.0625.058594-.035157.109375-.074219.160156-.113282.03125-.027344.0625-.050781.097657-.078125.074218-.066406.144531-.136719.207031-.214843.023437-.023438.042969-.046876.0625-.074219.027343-.039063.054687-.074219.078125-.109375.097656-.140625.191406-.289063.28125-.4375.035156-.066406.070312-.125.101562-.183594.007813-.023438.023438-.042969.035156-.0625.03125-.066406.058594-.121094.082032-.171875.023437-.058594.046875-.117187.066406-.175781-.023438.015625-.050781.027344-.078125.035156-.261719.09375-.539063.144531-.816406.152344 0 0-.003907 0-.007813 0-.019531 0-.039062 0-.058594 0 .410157-.097656.785157-.3125 1.078126-.617188.074218-.078125.144531-.160156.214843-.242187.230469-.265625.445313-.539063.648438-.824219.183593-.257812.355469-.527344.515625-.804688.082031-.144531.15625-.292968.222656-.445312.046875-.109375.089844-.222656.128906-.335938-.703125.019532-1.40625 0-2.105468-.050781-.21875.246094-.429688.492188-.636719.746094-.011719.015625-.023438.03125-.035157.046875-.214843.265625-.425781.535156-.632812.8125-.195312.253906-.398438.527344-.613281.828125-.1875.253906-.375.53125-.578125.816406h-.011719c.003906.011719 0 .019531-.003906.023438-.027344.039062-.050781.074219-.078125.113281-.078125.117188-.160156.230469-.238282.351562-.085937.132813-.175781.265626-.265624.398438-.042969.070312-.089844.136719-.136719.210938-.136719.210937-.277344.429687-.417969.652343-.183594.289063-.363281.574219-.539062.867188-.179688.292969-.355469.589843-.53125.886719-.171876.292968-.347657.589843-.523438.898437-.160156.277344-.320312.5625-.484375.855469-.007813.015625-.015625.03125-.023437.042968-.164063.300782-.328126.601563-.492188.902344-.003906.003906-.007812.011719-.007812.015625-.027344.050781-.050782.09375-.074219.140625-.132813.242188-.261719.488282-.390625.734375 0 0-.003906.003907-.003906.007813-.019532.039062-.039063.070312-.054688.105468-.085938.167969-.164062.324219-.339844.65625-.050781-.050781-.113281-.097656-.175781-.132812.085937-.164062.167969-.324219.261719-.496094.035156-.0625.070312-.132812.105468-.199218l.03125-.058594c.132813-.242188.269532-.496094.410157-.75.03125-.0625.0625-.117188.09375-.175782v-.003906l-.136719-.410156v-.015625l.140625.421875c.128906-.234375.261719-.46875.390625-.707031.035156-.0625.078125-.128907.113281-.199219.167969-.296875.339844-.59375.515625-.898438.167969-.292968.339844-.582031.515625-.871093.175781-.289063.351563-.582031.527344-.875.183594-.296875.371094-.589844.558594-.882813.1875-.292968.378906-.578125.566406-.863281.066406-.105469.136719-.207031.207031-.308594.121094-.175781.242188-.351562.363282-.523437.003906-.011719.011718-.019532.019531-.03125v.003906c.195312-.265625.386719-.535156.578125-.796875.207031-.277344.414062-.546875.625-.820313.210937-.269531.425781-.535156.652344-.792968.011718-.015625.023437-.03125.035156-.046875.210937-.242188.425781-.480469.644531-.714844l-.386719-1.085937c-.046875.042968-.09375.085937-.144531.132812-.191406.179688-.382813.359375-.566406.546875-.230469.230469-.460938.464844-.683594.703125-.222656.234375-.441406.476562-.660156.71875-.191407.214844-.378907.4375-.566407.65625l-.019531.027344v.003906c-.011719.019531-.023437.035156-.039062.046875-.199219.242187-.402344.488281-.601563.738281-.203125.257813-.398437.519532-.59375.785156-.164062.222657-.328125.449219-.488281.679688-.03125.042969-.066406.09375-.097656.136719-.191407.289062-.378907.574219-.542969.84375-.175781.292969-.347656.585937-.507812.886719-.09375.175781-.1875.355468-.277344.535156-.070313.148437-.140625.296875-.207032.445312-.15625.34375-.296874.691406-.425781 1.046875l.066407.195313h-.003907l-.0625-.1875c-.007812.011718-.015625.027344-.019531.042968-.078125.222657-.152344.445313-.214844.671876-.109375.140624-.234375.269531-.378906.375-.03125-.046876-.0625-.09375-.097656-.140626.34375-.488281.5625-1.054687.632812-1.648437.039063-.371094.035156-.746094-.011718-1.117187-.039063-.320313-.101563-.640626-.179688-.957032-.078125-.3125-.171875-.625-.273438-.933594-.074218.148438-.171874.285157-.285156.410157l-.0625.070312c-.023437.023438-.046875.042969-.070312.070313.296875-.484375.394531-1.0625.269531-1.613282-.082031.234376-.207031.449219-.367187.636719-.027344.03125-.054688.058594-.082032.085938-.007812.007812-.015625.015625-.023437.023437.101562-.164062.179687-.339844.238281-.523437.011719-.035157.019531-.074219.027344-.109375.011718-.054688.019531-.113282.027344-.167969.003906-.039063.011718-.074219.015624-.109375.007813-.089844.007813-.179688 0-.265625 0-.03125 0-.058594-.007812-.085937-.007812-.039063-.011719-.078126-.019531-.117188-.027344-.152344-.058594-.300781-.097657-.449219-.015624-.058593-.03125-.117187-.046874-.175781-.007813-.023438-.011719-.042969-.019532-.066406-.019531-.058594-.039062-.113282-.054687-.15625-.019531-.054688-.042969-.105469-.066407-.15625-.007812.027344-.015624.050781-.027343.074218-.105469.214844-.242188.410157-.40625.585938l-.015625.011719c-.003906.003906-.003906.007812-.003906.007812-.019532.019531-.035157.039063-.050782.058594 0-.003906.003906-.007813.003906-.011719l.007813-.003906c.199219-.316406.300781-.6875.292969-1.058594 0-.09375-.007813-.191406-.015625-.289062-.015625-.308594-.050781-.613282-.101563-.917969-.042968-.28125-.097656-.558594-.171875-.828125-.039062-.144531-.082031-.285156-.132812-.421875-.042969-.097656-.085938-.195313-.128907-.289063-.433593.445313-.886718.875-1.363281 1.277344zm11.503907-1.949218c-.082032 0-.160157.019531-.234376.050781-.574218.3125-1.097656.707031-1.558593 1.171875l.382812 1.085937c.421875-.453125.871094-.875 1.351563-1.265625-.460938.398438-.890625.832032-1.285156 1.296875.703124.050781 1.40625.066407 2.113281.042969.238281-.535156.253906-1.144531.042969-1.695312 0 0-.300782-.695313-.8125-.6875m-12.480469 1.527343c0 .054688-.007813.113281-.011719.171875-.007812.222656-.015625.453125-.015625.699219 0 .277344 0 .566406.003906.867187.007813.277344.019531.566407.035157.859376.011718.253906.03125.507812.050781.765624v.03125l1.226562.621094c-.042969-.289062-.085937-.578125-.128906-.863281-.042969-.300781-.082031-.601563-.117187-.902344-.035157-.300781-.0625-.601562-.085938-.902343.003906-.019532 0-.039063.003906-.054688-.023437-.28125-.039062-.566406-.046875-.851562zm10.410156 4.132813h.003906zm-5.9375 5.136718.105469.3125v.007813l-.105469-.316406zm-1.515625 1.726563c.078125.085937.167969.164063.261719.234375.015625.054688.046875.148438.066406.207031-.0625.007813-.128906.015625-.191406.027344-.007813-.027344-.015625-.050781-.023438-.082031-.019531-.0625-.035156-.128906-.058593-.191406-.003907-.019532-.007813-.035157-.015626-.054688zm.269531.667969c.042969.007812.089844.015625.136719.023437.019531.0625.023438.074219.046875.15625.058594-.003906.121094 0 .179687.007813-.078124.148437-.160156.304687-.238281.457031-.0625-.203125-.128906-.421875-.195312-.640625.023437 0 .046875 0 .070312-.003906"/></svg>