<svg height="18" viewBox="0 0 18 18" width="18" xmlns="http://www.w3.org/2000/svg"><path d="m13.5 3.098958c-.5 0-1-.098958-1.5-.098958s-1 .098958-1.5.098958m8.802083 3.703125c-.598958-.796875-1.307291-1.505208-2.104166-2.104166m3.703125 8.802083c.098958-.5.098958-1 .098958-1.5s-.098958-1-.098958-1.5m-3.703125 8.802083c.796875-.598958 1.505208-1.307291 2.104166-2.104166m-8.802083 3.703125c.5.098958 1 .098958 1.5.098958s1-.098958 1.5-.098958m-10-3.401042-1.5 4.5 4.5-1.5m-3.401042-10c0 .5-.098958 1-.098958 1.5s.098958 1 .098958 1.5m3.703125-8.802083c-.796875.598958-1.505208 1.307291-2.104166 2.104166" fill="none" stroke="#fff" stroke-linecap="round" stroke-linejoin="round" stroke-width="2" transform="scale(.75)"/></svg>