<svg height="18" viewBox="0 0 18 18" width="18" xmlns="http://www.w3.org/2000/svg"><g fill="none" stroke="#fff" stroke-linecap="round" stroke-linejoin="round" stroke-width="2" transform="scale(.75)"><path d="m4 4h16c1.104167 0 2 .895833 2 2v11c0 1.104167-.895833 2-2 2h-16c-1.104167 0-2-.895833-2-2v-11c0-1.104167.895833-2 2-2zm0 0"/><path d="m7 8h6c.552083 0 1 .447917 1 1v5c0 .552083-.447917 1-1 1h-6c-.552083 0-1-.447917-1-1v-5c0-.552083.447917-1 1-1zm0 0"/><path d="m18 8v7m-12 4v2m12-2v2"/></g></svg>