<svg height="18" viewBox="0 0 18 18" width="18" xmlns="http://www.w3.org/2000/svg"><path d="m7.402344 0v.0078125c-.011719.0039063-.023438.0078125-.035156.0078125-.035157.0117188-.078126.0273438-.132813.0429688-.109375.0351562-.257813.0859372-.417969.1445312-.347656.125-.691406.257813-1.035156.394531-.839844.34375-1.492188.667969-1.898438.953125-.117187.082031-.234374.203125-.308593.296875l-.011719-.027344-.039062.070313c-.003907.007813-.003907.015625-.007813.023437-.003906.003907-.007813.007813-.011719.019532-.011718.035156-.019531.070312-.019531.105468v.015626l.015625.011718c0 .027344.007812.058594.019531.089844.042969.101562.148438.207031.265625.3125 0 0 .300782.296875.621094.613281.320312.3125.660156.652344.730469.730469.664062.769531.949219 1.515625.976562 2.558594.015625.667968-.109375 1.25-.425781 1.933594-.5625 1.226562-1.75 2.582031-3.585938 4.089843l.007813.007813c-.007813.003906-.015625.011718-.019531.015625-.222656.175781-.546875.5-.714844.710937-.25.3125-.449219.640625-.535156.902344-.152344.464844-.074219.9375.21875 1.371094.375.550781 1.113281 1.109375 1.976562 1.488281.4375.191406 1.175782.441406 1.730469.578125.921875.234375 2.703125.488281 3.6875.523438.097656.003906.214844.007812.308594.007812h.117187c.015625-.003906.027344-.003906.035156-.003906h.015626c.003906-.003906.007812 0 .019531-.007813l.011719-.011719c.003906-.007812.007812-.011718.011718-.015624.007813-.015626.015625-.027344.023438-.042969.023437-.035157.046875-.085938.082031-.144531.0625-.121094.144531-.28125.230469-.464844.605468-1.230469 1.039062-2.386719 1.277344-3.375.140624-.597656.253906-1.394532.324218-2.339844.019532-.265625.027344-1.144531.011719-1.445312-.023437-.492188-.066406-.886719-.136719-1.277344 0-.015625-.003906-.03125-.003906-.046875 2.171875-.644531 4.566406-1.230469 6.15625-1.472657l.296875-.046874-.066406-.105469c-.214844-.335938-.367188-.546875-.546875-.769531-.523438-.648438-1.160156-1.175782-1.9375-1.613282-1.066406-.597656-2.445313-1.0625-4.191406-1.40625-.324219-.066406-1.035157-.1875-1.621094-.277344l-.042969-.082031h-.003906c-.316407-.566406-.671875-1.265625-.875-1.734375-.160157-.363281-.3125-.785156-.394531-1.089844-.023438-.089843-.035157-.1406245-.050782-.1718745-.003906-.015625-.011718-.0273437-.023437-.0390625-.011719-.0078125-.023438-.01171875-.039063-.01171875h.003906-.003906zm.035156.0703125v.0039063h-.003906c.007812 0 .003906 0 .003906-.0039063m-.003906.0039063h.003906s0 0 .003906.0078124c.007813.0234378.023438.0703128.042969.1640628.085937.304687.238281.730468.398437 1.097656.207032.472656.5625 1.175781.882813 1.738281l.0625.113281.015625.003907c.585938.089843 1.308594.214843 1.636719.277343 1.738281.347657 3.109375.808594 4.167969 1.402344.773437.429688 1.398437.953125 1.917968 1.59375.179688.222656.328125.429688.542969.765625l.011719.015625-.195313.027344c-1.601562.246094-4.011719.832031-6.195312 1.480469l-.023438.007812v.027344c0 .03125.003907.058594.011719.085937.066406.386719.109375.78125.132812 1.269532.015626.292968.007813 1.179687-.011718 1.4375-.070313.941406-.183594 1.734375-.324219 2.328125-.234375.980469-.667969 2.132812-1.269531 3.359375-.074219.15625-.152344.308594-.230469.464844-.03125.058593-.058594.105468-.078125.140624-.007812.011719-.015625.027344-.023438.039063l-.003906.003906c-.007812 0-.019531.003907-.035156.003907-.027344 0-.066406 0-.113281 0-.09375 0-.207031 0-.308594-.003907-.972656-.039062-2.753906-.292969-3.671875-.523437-.550781-.136719-1.285156-.386719-1.71875-.578125-.851562-.375-1.585938-.925781-1.949219-1.460938-.28125-.417969-.351562-.867187-.207031-1.3125.082031-.246093.277344-.570312.523438-.878906.160156-.203125.488281-.527344.703124-.699219.015626-.011718.03125-.023437.042969-.035156l-.007812-.007812c1.828125-1.503907 3.015625-2.859376 3.582031-4.09375.320312-.691407.449219-1.289063.433594-1.96875-.027344-1.050782-.324219-1.824219-.996094-2.597657-.078125-.089843-.414062-.425781-.734375-.738281-.320313-.316406-.621094-.609375-.621094-.609375v-.003906c-.117187-.105469-.21875-.214844-.246093-.285157-.011719-.03125-.019532-.058593-.023438-.089843v-.011719l-.003906-.007812c0-.019532.003906-.042969.011718-.066407 0 0 .003907-.003906.003907-.011719h.003906v-.007812l.007813-.007812c.050781-.078126.210937-.234376.335937-.320313.398437-.28125 1.046875-.605469 1.886719-.945313.308594-.128906.703125-.277343 1.03125-.394531.160156-.058593.308594-.109375.414062-.144531.054688-.015625.097656-.03125.132813-.0390625.015625-.0039063.027343-.0078125.039062-.0117187.007813 0 .015625 0 .007813 0zm-.042969.0664062c-.019531.003906-.039063.011719-.078125.027344-.035156.011719-.082031.03125-.140625.054687-.113281.042969-.257813.101563-.414063.167969-.3125.128906-.660156.28125-.84375.363281-.199218.097656-.394531.195313-.585937.292969-.085937.046875-.171875.09375-.253906.140625-.035157.015625-.058594.03125-.078125.042969-.011719.003906-.015625.011719-.023438.015625-.003906 0-.003906.003906-.007812.007812-.003906 0-.003906.003906-.007813.007813l-.003906.007812v.019531l.003906.003907v.003906l.003907.003906h.003906v.003907l.003906.003906h.003906c.003906.003906.003906.003906.007813.003906 0 0 .003906 0 .003906.003906h.019531c.015625.003906.035156.007813.058594.011719.046875.007813.113281.015625.1875.027344.449219.0625.980469.144531 1.4375.222656.457031.082031.839844.152344.972656.191406.027344.007813.046875.015625.070313.019531.011719 0 .027343 0 .039062-.007812.015625-.011719.023438-.027344.023438-.042969.003906-.027343-.003907-.050781-.019531-.089843-.011719-.042969-.03125-.097657-.054688-.171876-.132812-.394531-.214844-.757812-.261719-1.136718-.007812-.050782-.011719-.101563-.019531-.152344l-.003906-.015625v-.003906l-.003906-.003907v-.003906l-.003907-.007812-.011719-.011719zm-.019531.082031v.011719c.003906.027344.011718.070313.015625.113281.046875.382813.132812.753906.265625 1.152344.023437.074219.042968.128906.054687.167969.007813.027343.011719.035156.011719.042969-.011719-.003907-.027344-.007813-.039062-.011719-.144532-.039063-.523438-.109375-.980469-.1875-.476563-.082031-.957031-.160157-1.441407-.226563-.058593-.007812-.117187-.015625-.171874-.023437.007812-.007813.011718-.007813.019531-.015625.085937-.046875.171875-.089844.253906-.136719.199219-.101563.4375-.222656.582031-.289063.183594-.085937.535156-.234374.84375-.363281.136719-.058593.277344-.117187.414063-.171875.054687-.019531.101562-.039062.136719-.050781.019531-.007813.023437-.007813.035156-.011719m-2.582032 1.136719-.035156.058594.144532.128906c.332031.316406.664062.636719.992187.957031l.265625.257813.292969.046875.007812-.003906c.035157-.015626.09375-.050782.160157-.09375.292968-.179688.714843-.417969 1.097656-.609376h.003906c.046875-.023437.089844-.042968.121094-.0625.015625-.003906.027344-.011718.039062-.019531.003906 0 .007813-.003906.011719-.007812.003906 0 .003906 0 .007813-.003907.003906-.003906.003906-.007812.007812-.011718v-.019532l-.003906-.011718-.003906-.007813-.011719-.011719h-.015625l-.046875-.003906-.117188-.011718c-.792969-.0625-2.242187-.34375-2.8125-.535157zm-.109374.070313-.027344.019531-.035156.023437h-.003907c-.195312.140625-.351562.277344-.460937.40625s-.175782.246094-.175782.351563v.054687l.023438.007813c.027344.011719.054688.019531.082031.03125.246094.085937.558594.15625.722657.191406.222656.050781.515624.101563.785156.148437l.070312.011719-.03125-.0625c-.007812-.011719-.015625-.019531-.03125-.039062-.011718-.015625-.03125-.039063-.050781-.0625-.046875-.058594-.257813-.316407-.464844-.578125zm.238281.042968c.601562.195313 1.996093.464844 2.785156.527344l.050781.003906c-.019531.011719-.039062.023438-.066406.035156-.386719.195313-.8125.429688-1.105469.613282-.0625.039062-.117187.070312-.144531.082031l-.25-.039063-.246094-.242187c-.332031-.320313-.664062-.640625-.996094-.957031zm-.253907.050782.363282.453124c.207031.261719.417968.523438.464844.578126l.019531.023437c-.242188-.042969-.496094-.085937-.691407-.128906-.164062-.035157-.472656-.109375-.714843-.191407-.019531-.007812-.039063-.015624-.058594-.023437v-.003906c0-.074219.054687-.183594.15625-.304688.105469-.125.257813-.257812.453125-.394531zm3.238282.574218h-.003906c-.007813.003906-.015626.011719-.019532.019532l.011719-.011719c-.011719.007812-.023437.019531-.046875.039062s-.054688.042969-.085938.070313c-.253906.214844-.539062.414062-.820312.570312-.019531.007813-.039062.019532-.058594.035156l-.066406.046876.082031.015624c.511719.085938 1.023438.167969 1.539063.25l.074218.011719-.050781-.082031c-.03125-.046875-.121093-.210938-.214843-.386719-.089844-.175781-.1875-.363281-.230469-.464843-.011719-.027344-.027344-.054688-.039063-.078126-.003906-.007812-.011718-.015624-.015625-.023437-.003906-.003906-.011719-.003906-.015625-.007813-.011718-.007812-.03125-.011718-.039062-.003906m.011718.078125c.007813.011719.019532.03125.03125.0625.046876.105469.144532.292969.234376.46875.0625.117188.125.230469.191406.34375-.457032-.074219-.917969-.148437-1.375-.222656.285156-.164063.554687-.347656.808594-.558594.03125-.027343.058593-.050781.082031-.070312zm-3.660156.375h-.035156v.035157l.003906.007812v.007812l.011719.011719c.011719.011719.023437.023438.035156.035157.027344.019531.058594.042968.097657.070312.578124.457031 1.078124 1.019531 1.390624 1.574219.019532.03125.035157.058593.046876.078125.007812.007812.011718.015625.015624.023437.003907.003907.007813.007813.007813.007813.003906.003906.003906.003906.011719.007812l.003906.003906h.015625-.003906.011719l.011718-.007812h.003906-.003906l.007813-.011719.003906-.007812v-.003907c0-.003906 0-.003906 0-.007812v-.003906l-.003906-.015625c-.015625-.074219-.035157-.148438-.054688-.21875-.046875-.171875-.140625-.472657-.222656-.738281-.039063-.132813-.078125-.253907-.109375-.34375-.011719-.035157-.023438-.074219-.039062-.109376-.003907-.011718-.007813-.023437-.011719-.035156l-.003907-.007812c0-.003906 0-.007813-.007812-.015625l-.011719-.007813h-.011719v-.003906l-.019531-.003906-.066406-.015625c-.054687-.015625-.128906-.035157-.210937-.054688-.117188-.03125-.238282-.0625-.355469-.097656-.132813-.035156-.261719-.074219-.390625-.117187-.03125-.007813-.054688-.019532-.074219-.023438-.007813-.003906-.015625-.007812-.023437-.007812-.003907 0-.003907-.003907-.007813-.003907s-.007813 0-.011719 0zm.167969.125c.105469.035157.210937.066407.320313.097657.121093.03125.238281.0625.359374.09375.070313.015624.140626.035156.210938.054687.027344.007813.046875.011719.0625.019531h.011719c.003906.007813.003906.015625.011719.027344.007812.027344.019531.0625.035156.109375.03125.089844.070312.210937.109375.339844.082031.265625.175781.566406.21875.734375.007812.015625.007812.027344.011719.042968-.316407-.539062-.796876-1.082031-1.351563-1.519531m1.167969.246094c-.003906 0-.003906 0-.007813 0h.007813l.019531.007813.011719.011718v.007813.003906h-.070313v.003906c.003907.003907.003907.007813.003907.011719v.003906l.003906.007813c.015625.035156.035156.074219.050781.113281.183594.390625.386719.949219.484375 1.320312.015625.058594.03125.109376.03125.109376l.015625.050781.042969-.039063c.046875-.046875.097656-.09375.144531-.144531.195313-.191406.464844-.40625.761719-.609375.117187-.078125.484375-.292969.566406-.339844h.003906c.019532-.011718.039063-.019531.050782-.027344.007812-.007812.015624-.011718.019531-.015624.003906 0 .007812-.003907.007812-.007813.003907-.003906.011719-.007813.011719-.023437l-.003906-.015626s0-.003906-.003906-.007812c-.003907-.003906-.007813-.007812-.015626-.011719-.003906-.003906-.007812-.003906-.011718-.007812-.015625 0-.027344-.003907-.039063-.007813-.039062-.007812-.078125-.015625-.117187-.019531h.003906c-.53125-.089844-1.359375-.25-1.816406-.351563-.035156-.007812-.066406-.011718-.097656-.019531-.019532-.003906-.039063-.003906-.058594-.003906m.054687.074219c.023438.003906.050781.011718.085938.019531.460937.101563 1.289062.257813 1.820312.347656.03125.007813.054688.011719.078125.015625h-.003906c-.09375.050782-.449219.261719-.574219.34375-.300781.203125-.574219.421875-.769531.617188-.035156.035156-.070312.070312-.105469.105468-.007812-.019531-.007812-.019531-.015625-.046874-.097656-.378907-.300781-.941407-.488281-1.335938-.007813-.019531-.019531-.042969-.027344-.066406m2.292969.371094s-.003906 0-.007812 0c-.003907.003906-.011719.007812-.019532.011718-.011718.003906-.019531.011719-.03125.019532-.023437.015624-.054687.035156-.09375.066406-.078125.054687-.183594.132812-.292968.222656-.222657.171875-.476563.375-.617188.5-.101562.089844-.199219.183594-.296875.28125-.050781.050781-.097656.097656-.128906.136719-.015625.011719-.03125.027343-.042969.042969-.003906.007812-.007812.011718-.011719.015624-.003906.003907-.003906.003907-.003906.007813l-.003906.007813-.003907.003906v.007812l.003907.015625.003906.007813s.003906.003906.007813.007812c.003906 0 .003906 0 .007812.003906l.007812.003907c.007813 0 .015626.003906.027344.007812.019532.007813.050782.015625.089844.027344.097656.03125.195312.058594.296875.085937.402344.113282.875.25 1.164063.34375l.175781.054688.015625-.058594v.003906c.003906-.007812.003906-.011718.003906-.019531 0-.003906.003906-.011719.003906-.019531 0-.011719.003906-.03125.003906-.050781.003907-.042969.003907-.097657.007813-.15625.015625-.421875-.027344-.84375-.132813-1.253907-.019531-.074218-.039062-.152343-.0625-.226562-.003906-.019531-.011718-.039062-.019531-.058594-.003906-.007812-.007812-.015625-.011719-.019531-.003906-.007813-.011718-.015625-.023437-.019531 0 0-.007813-.003906-.007813-.003906zm.191406.027343c-.007812 0-.011718 0-.015625.003907l-.011719.007812-.003906.007812s-.003906.003907-.003906.007813v.007813.019531c.003906.007812.007812.015625.007812.023437.007813.015625.015626.035156.027344.058594.1875.433594.289063.953125.289063 1.460938 0 .050781 0 .09375.003906.125v.050781c.003906.007812.003906.011719.007813.015625l.003906.011718.023437.007813.011719-.003906h.007812v-.003907h.007813l.015625-.011718c.078125-.050782.15625-.101563.234375-.15625.527344-.351563 1.058594-.640625 1.773437-.960938.0625-.03125.125-.058594.1875-.089844.019532-.011718.03125-.019531.042969-.027343.003907-.003907.011719-.007813.015625-.023438 0-.011719 0-.023437-.007812-.03125-.003906-.007812-.011719-.011719-.015625-.011719-.011719-.007812-.023438-.007812-.039063-.011718-.027344-.007813-.050781-.011719-.078125-.019532-.078125-.015624-.160156-.035156-.238281-.050781-.1875-.039062-.421875-.085937-.609375-.121093-.480469-.09375-.960937-.175782-1.445313-.257813-.046874-.007813-.089843-.011719-.136718-.019531-.015625-.003906-.035156-.003906-.050782-.007813zm-.203125.054688c.003907.011719.011719.023437.015625.042969.015625.046874.035156.121093.0625.222656.117188.46875.15625.953125.117188 1.4375v.011718l-.109375-.035156c-.289063-.09375-.761719-.230468-1.164063-.34375h-.003906v-.003906c-.097656-.023438-.195312-.050781-.292969-.082031-.03125-.007813-.054687-.015625-.074219-.023438.007813-.007812.011719-.011719.023438-.023437.03125-.035156.078125-.082032.128906-.132813.09375-.097656.191406-.191406.292969-.28125.136719-.121093.390625-.324219.613281-.496093.09375-.074219.191406-.148438.292969-.222657.035156-.027343.070313-.050781.089844-.066406zm.253907.023437c.03125.003906.074218.011719.128906.019532.113281.019531.269531.042968.441406.074218.34375.058594.75.132813 1.003906.179688.1875.039062.417969.085937.605469.125.09375.019531.175781.035156.238281.050781l.035156.007813c-.035156.015624-.078124.039062-.152343.070312-.71875.324219-1.253907.617188-1.785157.96875-.066406.046875-.132812.089844-.175781.121094l-.03125.015625c0-.035157 0-.074219 0-.113281 0-.519532-.101562-1.042969-.296875-1.488282-.003906-.011718-.007812-.023437-.011718-.03125zm2.832031.492188c-.003907 0-.007813 0-.011719 0l-.007812.003906c-.007813.003906-.015626.007812-.023438.011719-.027344.011719-.054688.023437-.078125.039062-.082031.042969-.167969.085938-.25.132813-.207031.117187-.414063.238281-.621094.359375-.230469.140625-.566406.355469-.839843.535156-.117188.078125-.230469.15625-.34375.234375-.046876.03125-.078126.054688-.101563.074219-.011719.007812-.023437.015625-.03125.023437-.003906.003906-.003906.007813-.007813.011719-.003906.003906-.003906.003906-.007812.011719v.019531l.003906.007813v.003906l.007813.007812c.003906.003906.007812.003906.011719.007813.003906 0 .007812.003906.015624.007812.011719.003907.027344.011719.046876.019531.035156.015626.085937.035157.140624.058594.390626.164063.746094.335938 1.058594.519532.042969.023437.082032.046874.113282.0625.015624.007812.027343.015624.039062.019531.003906.003906.007812.003906.011719.007812.007812 0 .011719.003907.015625.003907l.007812-.003907h.007813l.007812-.003906c.003907-.003906.003907-.003906.007813-.007813.003906-.003906.007812-.011718.011718-.015624.007813-.011719.015626-.027344.027344-.042969.019532-.035157.046875-.078125.078125-.128907.324219-.566406.585938-1.167968.683594-1.578124.027344-.105469.046875-.214844.0625-.320313 0-.015625 0-.023437 0-.03125s0-.015625 0-.023437c-.003906-.003907-.003906-.011719-.011719-.015626l-.007812-.007812-.007813-.003906zm.207031.03125c-.011719 0-.023438.007812-.03125.015625-.003906.003906-.003906.007812-.007812.015625-.003907.007812-.003907.015625-.007813.023437-.003906.023438-.007813.046875-.007813.074219v-.003906c-.046874.542968-.230468 1.183594-.519531 1.796875-.019531.039062-.035156.074219-.042969.097656-.007812.011719-.011718.023437-.015624.03125 0 .007813 0 .007813-.003907.015625v.015625l.003907.003906.007812.011719.011719.007812.011719.003907h.011718l.003906-.003907c.003907 0 .007813 0 .011719-.003906.011719-.003906.023438-.007812.035157-.011718.03125-.011719.066406-.027344.105468-.042969.960938-.390625 1.960938-.699219 3.125-.964844l.238282-.058594-.292969-.132812c-.480469-.214844-1.210938-.484375-1.851563-.675781-.226562-.066407-.453125-.128907-.679687-.191407-.027344-.003906-.050781-.011719-.066407-.015625l-.023437-.003906c-.003906 0-.007813-.003906-.015625-.003906zm-.246094.058594c-.011718.097656-.03125.199218-.054687.296874-.097657.398438-.359375.996094-.679688 1.558594-.023437.042969-.050781.085938-.074219.128906-.007812.011719-.015624.019532-.023437.03125-.003906-.003906-.011719-.007812-.019531-.011718-.03125-.015625-.070313-.039063-.109375-.0625h-.003907c-.316406-.1875-.675781-.359375-1.066406-.523438-.054687-.023437-.105468-.046875-.140625-.0625l-.015625-.003906c.019532-.019531.050782-.039062.089844-.066406.085938-.0625.207031-.144532.34375-.234375.273438-.179688.609375-.394531.835938-.53125.207031-.125.414062-.242188.621093-.359375.082031-.046875.164063-.089844.246094-.132813.023437-.011719.035156-.019531.050781-.027343zm.269532.019531c.015624.003906.035156.007812.0625.015625.226562.058594.453124.121094.679687.1875.636719.191406 1.367187.457031 1.84375.675781l.105469.046875-.039063.007812c-1.167969.269532-2.167969.578126-3.132812.972657-.03125.011719-.058594.019531-.082031.03125.007812-.019531.015624-.039063.027343-.0625.292969-.621094.480469-1.265625.527344-1.820313v-.003906c0-.019531.003906-.039062.007813-.050781m-4.941407 1.050781s-.003906 0-.007812.003906c-.003907 0-.003907 0-.007813 0l-.015625.015625v.007813c-.003906.003906-.003906.007812-.003906.011718v.011719c0 .011719.003906.019531.003906.035157.003907.023437.007813.058593.011719.097656v.003906c.085938.589844.097656 1.171875.035156 1.625v.035156c.003906.007813.003906.015625.007813.019532.003906.007812.015625.023437.035156.023437h.007813l.003906-.003906h.003906l.003906-.003907c.003906 0 .003906-.003906.007813-.003906.023437-.019531.046875-.039062.066406-.058594.042969-.039062.097656-.09375.160156-.152343.410157-.394531.75-.707031 1.105469-1.003907.042969-.035156.082031-.070312.113281-.097656.015625-.011718.027344-.023437.035157-.03125.003906-.003906.007812-.003906.011718-.007812 0-.003906 0-.003906.003906-.003906l.003907-.003907v-.007812l.003906-.003907v-.019531s-.003906-.003906-.003906-.007812c0-.003907-.003907-.003907-.003907-.007813-.003906 0-.003906-.003906-.007812-.003906-.011719-.007812-.023438-.011719-.035156-.019531-.023438-.007813-.050782-.019531-.078125-.03125-.085938-.027344-.175781-.058594-.261719-.089844-.203125-.066406-.445312-.144531-.601562-.1875-.121094-.03125-.246094-.0625-.367188-.09375-.0625-.015625-.117188-.027344-.15625-.035156-.015625-.003907-.03125-.003907-.050781-.007813-.003907 0-.007813-.003906-.015625-.003906-.003906 0-.003906 0-.007813 0m7.925781.011719c-.003906 0-.007812 0-.007812 0-.023438.003906-.042969.007812-.0625.011719-.054688.015624-.105469.03125-.160156.046874-.128906.035157-.296875.085938-.460938.140626-.628906.191406-1.464844.492187-2.082031.742187v-.003906c-.179687.074219-.359375.148437-.535156.226562-.082031.035157-.148438.0625-.199219.085938-.023438.011719-.042969.019531-.058594.027343-.003906.003907-.011718.003907-.015625.007813 0 0-.003906.003906-.007812.003906l-.003907.003907-.007812.015624-.003906.011719v.007813s.003906.003906.003906.003906c0 .003906.003906.007812.003906.011719l.007813.003906c.003906.003906.007812.007813.011719.015625.011718.007812.027343.019531.042968.03125.066406.050781.132813.105469.199219.160156.425781.355469.789063.753906 1.089844 1.207032.019531.027343.039062.054687.050781.078124.011719.007813.019531.019532.027344.03125 0 0 0 .003907.003906.003907.003906.003906.007812.003906.011719.007812l.011719.003907.015624-.003907.007813-.007812c.003906 0 .003906 0 .003906-.003907l.003907-.003906c.019531-.023437.039062-.046875.058593-.070312.035157-.042969.085938-.105469.140625-.175782.234375-.300781.472656-.597656.710938-.898437.539062-.675781.777344-.988281.941406-1.222656.089844-.128907.179688-.261719.261719-.398438.007812-.015625.015625-.027343.023437-.039062 0-.003907.003906-.007813.003906-.011719 0 0 .003907-.003906.003907-.007812 0-.003907 0-.003907 0-.007813s0-.011719 0-.011719l-.007813-.015625-.015625-.007812h-.007812c-.003907-.003907-.003907 0-.003907 0m.203126.054687-.015626.003906-.007812.007813c-.003906.007813-.003906.007813-.003906.011719l-.007813.019531c-.039062.074219-.074219.152344-.113281.230469-.441406.890625-.816406 1.386718-1.636719 2.179687-.066406.066407-.128906.125-.171875.167969-.019531.019531-.035156.039062-.046875.050781l-.015625.015625s-.003906.003906-.003906.007813h-.003906l-.003906.011719v.007812l.003906.015625.015625.015625.015625.003906c.011718 0 .007812-.003906.011718-.003906h.015626c.054687-.015625.109374-.027344.164062-.039062h.003906c1.402344-.339844 2.863282-.578126 4.003906-.667969.089844-.003907.179688-.011719.269532-.019531h.007812l.003906-.003907.019532-.015625v-.027344s0 0 0-.003906c-.003906-.003906-.003906-.003906-.003906-.003906l-.003907-.007812c-.003906-.003907-.007812-.007813-.011719-.015626-.011718-.007812-.023437-.023437-.042968-.042968-.035156-.039063-.082032-.089844-.136719-.144532-.105469-.109374-.230469-.238281-.304687-.308593-.511719-.5-1.160157-.988281-1.820313-1.367188-.035156-.019531-.070313-.039062-.105469-.058593-.011718-.003907-.023437-.011719-.039062-.015626-.003906 0-.007813-.003906-.011719-.003906-.007813-.003906-.011719-.003906-.023437 0zm-8.089844.011719.019531.003906c.039063.007813.09375.019531.15625.035157.121094.027343.265625.0625.363281.09375.15625.042968.398438.117187.597656.183593.101563.035157.195313.066407.261719.089844.023438.011719.039063.015625.054688.023437-.003907.003907-.003907.003907-.007813.007813l-.113281.097656c-.355469.296875-.699219.609375-1.105469 1.003907-.054687.050781-.105468.101562-.160156.148437l-.015625.015625c.054687-.453125.042969-1.023438-.039063-1.605469-.007812-.039062-.011718-.074219-.011718-.097656zm7.820312.019531c-.082031.128906-.164062.253906-.25.375-.160156.230469-.398437.542969-.9375 1.21875-.238281.300782-.476562.597656-.710937.898438-.054688.066406-.105469.128906-.140625.175781l-.03125.039063c-.015625-.019532-.03125-.042969-.050782-.070313-.304687-.460937-.671874-.859375-1.105468-1.222656-.066406-.054688-.132813-.109375-.199219-.164063h-.003906c-.003907-.003906-.007813-.003906-.011719-.007812l.03125-.015625c.046875-.019531.117188-.050781.195312-.085938.175782-.074219.355469-.148437.535157-.222656.613281-.25 1.449219-.546875 2.074219-.738281.164062-.050782.332031-.101563.460937-.140625.046875-.011719.09375-.027344.144531-.039063m.292969.042969c.007813.003906.011719.003906.019531.007813.027344.015624.0625.035156.101563.058593.65625.375 1.300781.859375 1.808593 1.355469.070313.070312.195313.199219.300782.308594.054687.054687.101562.105468.136718.140625l.007813.007812c-.042969.003907-.09375.007813-.203125.015625-1.144531.089844-2.605469.332032-4.015625.671875-.027344.003907-.046875.007813-.070313.015625.039063-.042968.09375-.09375.152344-.152344.828125-.796874 1.207032-1.300781 1.65625-2.199218v-.003906l.082032-.171876zm-6.058594.542969c-.023437 0-.03125.011718-.035156.019531-.003906.003906-.007813.011719-.011719.019531-.007812.019532-.011718.035156-.019531.054688-.109375.515625-.304687 1.046875-.546875 1.488281-.035156.066406-.054688.101563-.066406.121094-.003906.011719-.007813.019531-.007813.035156 0 .007813.007813.023437.019531.03125.007813.007813.015626.007813.019532.007813l.007812-.003907h.007813.003906l.003906-.003906.070313-.039063c.042968-.027343.101562-.0625.167968-.101562.453126-.277344.921876-.535156 1.398438-.773438.070312-.035156.140625-.070312.207031-.105468.027344-.011719.046875-.023438.0625-.03125l.019531-.011719.003907-.003906c.003906 0 .003906 0 .007812-.007813l.003907-.003906.003906-.007812v-.015626l-.011719-.019531c-.011719-.007812-.015625-.011719-.027344-.019531-.070312-.039062-.140625-.074219-.210937-.113281-.132813-.070313-.265625-.140625-.398438-.207031-.136718-.066407-.277344-.132813-.414062-.199219-.066406-.03125-.121094-.054688-.164063-.074219-.015625-.007812-.035156-.015625-.054687-.023438-.011719-.003906-.019532-.007812-.03125-.011718zm-.359375.0625c0 .003906 0 .003906-.003906.003906s-.003906 0-.007812 0l-.007813.007812c-.007813.003907-.011719.007813-.023437.011719-.015626.011719-.039063.03125-.066407.050781-.238281.1875-.476562.382813-.707031.578126-.183594.160156-.367188.316406-.546875.480468-.078125.074219-.148437.136719-.199219.183594-.023437.023438-.042968.042969-.058594.058594-.003906.007812-.011718.015625-.015624.019531l-.007813.011719c0 .003906-.003906.003906-.003906.019531v.011719c.003906.003906.003906.007812.007812.011718l.007813.007813s.003906.003906.007812.007813c.007813.003906.019532.011718.03125.015624.023438.015626.054688.035157.09375.050782.179688.09375.320313.199218.496094.367187l.183594.175781.089844-.144531c.035156-.0625.101562-.175781.144531-.25.183593-.328125.371093-.761719.484375-1.109375.027344-.089844.066406-.21875.09375-.328125.015625-.054687.027344-.101562.035156-.136719.007812-.019531.007812-.035156.011719-.046874 0-.003907 0-.007813 0-.011719.003906-.007813 0-.011719 0-.019531v-.003907l-.007813-.011719-.011718-.007812-.011719-.003906s-.003907 0-.007813 0m.375.015625c.011719.003906.03125.011719.050782.019531.042968.019531.097656.046875.160156.074219.125.058593.28125.132812.414062.199219.1875.09375.371094.191406.554688.292968.007812.003906.011718.007813.019531.011719-.007813.003906-.015625.007813-.027344.015625-.054687.023438-.125.0625-.207031.101562-.476562.238282-.945312.496094-1.402344.773438-.058594.035156-.109375.066406-.152344.089844.007813-.015625.011719-.019532.023438-.042969.246094-.449219.441406-.980469.554688-1.503906.003906-.011719.007812-.023438.011718-.03125zm-.421875.101562c-.007812.035157-.015625.070313-.027343.105469-.03125.109375-.0625.21875-.09375.328125-.109376.339844-.296876.769531-.476563 1.09375-.046875.078125-.109375.1875-.144531.25l-.046875.070313-.117188-.117188c-.179687-.171875-.328125-.28125-.515625-.378906-.03125-.015625-.058594-.03125-.089844-.046875l-.003906-.003907c.011719-.011718.027344-.027343.050782-.050781.046874-.046875.117187-.109375.199218-.183593.175782-.160157.359375-.320313.539063-.476563.234375-.199219.46875-.390625.707031-.578125zm2.199219.757813-.019531.03125-.09375.144531c-.46875.707031-1.105469 1.429687-1.820313 2.089844-.136718.128906-.203125.1875-.234375.21875-.007812.003906-.011719.011719-.019531.019531-.003906.003906-.007812.003906-.011719.019531v.007813.007812l.003907.011719.007812.007813s.003906.003906.007812.007812h.003907c.003906.003906.007812.003906.007812.003906h.011719.007812l.007813-.003906.015625-.003906c.015625-.003906.03125-.011719.054688-.019532.042968-.015624.101562-.035156.164062-.058593 1.121094-.414063 2.078125-.71875 3.320312-1.0625l.273438-.078125-.070312-.078125c-.03125-.035157-.121094-.117188-.222657-.210938-.09375-.085937-.191406-.171875-.292969-.253906-.273437-.230469-.632812-.496094-.9375-.695313zm.019531.097656.105469.066406c.300781.199219.660156.460938.933594.691406.074218.0625.1875.160157.289062.253907.097656.085937.183594.167969.210938.199219l-.164063.042968c-1.242187.347656-2.203125.652344-3.324219 1.066406l-.105468.039063c.039062-.039063.0625-.058594.152344-.140625.714843-.660156 1.355468-1.390625 1.828124-2.101562zm-.574219.058594c-.007812 0-.015624 0-.023437.003906l-.019531.007812c-.015625.007813-.039063.019532-.066406.03125-.054688.027344-.132813.066407-.222657.109376-.171875.089843-.390625.199218-.558593.289062-.28125.152344-.558594.308594-.835938.46875-.136719.074219-.253906.144531-.34375.195312-.042969.027344-.082031.050782-.109375.070313-.027344.015625-.042969.027344-.058594.035156v.003907c-.007812.011718-.015625.023437-.015625.039062 0 .011719.003906.023438.007813.039062.011719.027344.03125.066407.0625.128907.140625.292969.226562.640625.226562.960937v.078125c.003907.011719.003907.019531.007813.027344 0 .003906 0 .011719.007812.019531.007813.007813.027344.015625.039063.007813h.003906l.007813-.003907.027343-.027343c.015625-.015625.035157-.039063.058594-.066407.046875-.054687.109375-.125.175781-.207031.328125-.386719.800782-.976562 1.066406-1.332031.179688-.242188.359376-.488281.53125-.734375.015626-.023437.03125-.042969.042969-.066406.007813-.007813.011719-.015625.011719-.019531l.007812-.007813c0-.003906 0-.007813 0-.011719v-.015625l-.007812-.015625-.011719-.007812zm-.097656.117187c-.035156.050781-.085937.121094-.140625.199219-.125.175781-.25.347656-.378906.519531-.265625.355469-.738281.945313-1.0625 1.328125-.070313.082032-.132813.15625-.179687.207032l-.027344.035156c0-.007813 0-.011719 0-.023438 0-.332031-.085938-.6875-.234375-.992187-.03125-.0625-.050781-.101563-.058594-.121094 0-.007813 0-.007813-.003906-.011719.007812-.003906.019531-.011718.042969-.023437.023437-.019531.0625-.039063.105468-.066407.113282-.066406.226563-.132812.339844-.199218.277344-.15625.558594-.3125.839844-.464844.25-.132812.503906-.261719.757812-.386719m-3.335937.722657-.007813.003906h-.007812c-.003906.003906-.003906.003906-.007813.007812-.003906 0-.003906.003906-.007812.007813 0 .003906-.003907.007812-.003907.011719-.007812.007812-.011718.019531-.015624.03125-.015626.03125-.027344.066406-.035157.101562-.0625.191406-.140625.378906-.226562.5625-.09375.195312-.183594.347656-.359375.621094-.003906.007812-.007813.011718-.011719.015625 0 .003906-.003906.011719-.003906.015625-.003907.003906-.003907.007812-.003907.007812 0 .003906.003907.011719.003907.011719s.007812.011719.007812.011719l.011719.011718h.011719.007812c.007813 0 .011719-.003906.015625-.003906.007813-.003906.011719-.007812.019532-.011718.03125-.023438.089843-.070313.210937-.164063.285156-.226563.578125-.449219.875-.664063.046875-.03125.089844-.066406.117187-.089843.015626-.011719.027344-.019531.035157-.03125.003906-.003907.007812-.007813.011719-.011719.003906-.003906.003906-.003906.007812-.011719 0-.003906 0-.003906 0-.007812v-.007813l-.003906-.011718-.007813-.011719c-.148437-.121094-.304687-.226563-.472656-.320313-.03125-.015625-.0625-.03125-.09375-.050781-.011719-.003906-.023437-.007813-.035156-.015625l-.011719-.003906c-.003906 0-.003906-.003906-.019531-.003906m.015625.078124c.007812.003907.011718.007813.015625.007813.1875.097656.363281.210937.523437.339844-.003906.003906-.003906.003906-.007812.011719-.027344.019531-.070313.050781-.117188.085937-.296875.214844-.589844.433594-.875.664063-.054687.042968-.0625.046874-.097656.074218.121094-.1875.21875-.347656.292969-.503906.089843-.1875.164062-.378906.230469-.574219.011718-.039062.023437-.070312.03125-.09375.003906-.003906.003906-.007812.003906-.011719zm.898437.636719-.011719.003907-.007812.003906c-.007812 0-.007812.003906-.007812.003906l-.003907.003906c-.003906.003906-.007812.007813-.011719.011719-.007812.007813-.015624.019531-.023437.027344-.023437.027343-.050781.058593-.078125.09375-.523438.640625-1.222656 1.285156-2.035156 1.875-.058594.042969-.113282.085937-.171875.128906-.003907.003906-.007813.007813-.011719.007813l-.003906.003906c-.003906.003906-.003906.003906-.003906.003906l-.007813.011719v.023437l.007813.011719.007812.007813.007812.003906h.015626.007812l.003906-.003906c.003906 0 .011719-.003907.015625-.007813.011719-.003906.03125-.011719.054688-.023437.042969-.019532.101562-.050782.167969-.085938h.003906c.148437-.074219.300781-.144531.449218-.214844.414063-.191406 1.027344-.445312 1.691407-.703125l.398437-.152343-.007812-.082032c-.03125-.257812-.152344-.570312-.3125-.804687-.035156-.054688-.058594-.089844-.074219-.109375-.007813-.007813-.015625-.019532-.023437-.027344-.011719-.007812-.023438-.011719-.039063-.007812zm.003907.082031c.011718.015626.035156.050782.074218.105469.148438.226563.265625.53125.296875.773438l.003907.027343-.347657.132813c-.667969.257813-1.28125.515625-1.695312.703125v.003906c-.132813.058594-.261719.121094-.394531.1875.777343-.574218 1.457031-1.195312 1.96875-1.824218zm-.421876.023438c-.003906 0-.007812 0-.007812 0-.007812.003906-.015625.003906-.019531.007812-.011719.007813-.023438.015626-.035157.019532-.027343.019531-.066406.042968-.113281.074218-.09375.0625-.222656.148438-.363281.242188-.273438.183594-.542969.371094-.8125.5625-.148438.105469-.175781.132812-.277344.265625-.148437.191406-.304687.378906-.46875.554687-.085937.09375-.171875.1875-.257812.28125-.019532.019532-.027344.03125-.035156.042969 0 0-.003907.003907-.003907.007813l-.003906.007812v.007813l.003906.015625.015625.015625.015625.003906h.007813c.003906 0 .003906-.003906.007812-.003906s.003906 0 .007813-.003907c.003906-.003906.082031-.050781.164062-.101562.644531-.410156 1.164063-.828125 1.691407-1.367188.113281-.117187.226562-.238281.339843-.363281.050781-.058593.09375-.109375.125-.148437.011719-.015625.027344-.03125.039063-.046875.003906-.003907.007812-.011719.007812-.015625.003906-.003906.003906-.007813.007813-.011719 0-.003906 0-.007813 0-.011719v-.015625l-.011719-.011719-.011719-.007812s-.007812 0-.011719 0zm-.152343.167969c-.015625.019531-.027344.035156-.046875.054687-.101563.117188-.230469.257813-.335938.363282-.507812.515624-1.015625.925781-1.628906 1.320312.039062-.046875.050781-.0625.117188-.132812.167968-.179688.324218-.363282.472656-.558594.101562-.132813.117187-.144532.265625-.25.265625-.191406.535156-.378906.808593-.5625.136719-.09375.253907-.171875.347657-.234375zm3.816406.144531-.035156.011719c-.507813.152343-1.011719.3125-1.511719.480469l-.0625.023437.050781.039063c.046875.035156.191407.136718.367188.25.171875.117187.367187.242187.5.328124.164062.101563.332031.203126.496093.300782.074219.042968.140626.082031.191407.109375.023437.015625.046875.023437.058593.03125.011719.007812.019532.011719.03125.015625h.011719.015625l.007813-.007813s.003906-.003906.007812-.003906c0-.003906.003907-.011719.003907-.015625.003906-.003906.003906-.011719.003906-.015625.003906-.011719.003906-.027344.003906-.039063 0-.035156 0-.082031-.003906-.136718-.007813-.238282-.03125-.53125-.058594-.789063-.023438-.253906-.050781-.464843-.070312-.546875zm-.054687.089844c.015624.082031.042968.265625.066406.5.023437.253906.046875.550781.054687.785156.003907.054688.003907.097656.003907.128906-.011719-.007812-.023438-.011718-.039063-.019531-.066406-.039063-.128906-.074219-.191406-.113281-.164063-.097656-.328125-.195313-.492188-.296875-.167969-.109375-.335937-.214844-.503906-.328125-.101563-.066406-.203125-.136719-.300781-.207032.464844-.15625.933594-.304687 1.402344-.449218m-1.773438.503906-.09375.03125-.003906.023438c-.003906.039062-.003906.105468-.003906.242187-.007813.546875-.109376 1.226563-.289063 1.898437-.011719.042969-.019531.078126-.027344.109376-.003906.011718-.003906.023437-.007812.035156v.011718.015626c.003906.003906.007812.007812.011719.011718l.011718.007813.011719.003906h.007813l.003906-.003906h.007812l.015625-.007813c.011719-.003906.03125-.011718.054688-.023437.042969-.019531.105469-.042969.171875-.074219.753906-.335938 1.375-.667969 1.871094-1.003906.054687-.039063.097656-.066406.128906-.089844s.050781-.035156.0625-.054688c.007812-.015624.011718-.03125.007812-.046874-.003906-.011719-.015625-.019532-.027344-.027344-.015624-.011719-.035156-.015625-.058593-.027344-.320313-.140625-1.082031-.5625-1.640625-.914062-.109375-.066407-.164063-.09375-.203125-.113282zm-.003906.074219c.03125.015625.082031.042969.179687.105469.5625.351562 1.320313.773437 1.652344.914062.015625.007812.019531.011719.027344.015625-.003907.007813-.007813.007813-.023438.019531-.03125.023438-.074219.050782-.128906.089844-.492187.335938-1.105469.664062-1.859375 1-.066406.027344-.128906.054688-.171875.074219l-.015625.003906c.003906-.027344.011719-.054687.019531-.082031.183594-.679688.285157-1.363282.292969-1.917969 0-.121094 0-.179687.003906-.210937zm-.386719.0625-.035156.015625c-.089844.03125-.191407.066406-.28125.097656-.402344.152344-.804688.308594-1.203125.472656l-.027344.011719.007812.027344c.003907.03125.027344.085937.054688.15625.03125.070312.066406.148437.09375.203125.125.242187.292969.488281.503906.734375.0625.074219.1875.199219.296875.308593.054688.050782.105469.101563.144531.136719.019532.015625.035157.03125.050782.039063.003906.007812.007812.011718.015625.015625.003906 0 .007812 0 .011719.003906h.015624.003907l.007812-.003906.011719-.007813c.007812-.007812.007812-.011718.007812-.015625.003907-.003906.003907-.007812.007813-.011719.003906-.011718.007813-.027343.011719-.042968.011718-.035156.027344-.082032.042968-.132813.117188-.386719.199219-.785156.25-1.183593v-.003907c.011719-.082031.019532-.253906.023438-.421875 0-.082031 0-.160156 0-.222656 0-.066406 0-.109375-.007812-.132812zm-.058594.097656c.003907.019531.003907.035156.003907.078125v.222656c-.003907.164063-.011719.339844-.023438.414063-.046875.398437-.132812.792969-.246094 1.175781-.015625.042969-.027344.085938-.042968.128906l-.003907.015625c-.007812-.007812-.015625-.011719-.027343-.023437-.046876-.042969-.097657-.085938-.144532-.132813-.105468-.105469-.230468-.234375-.289062-.300781-.210938-.246094-.375-.484375-.496094-.722656-.027344-.054688-.0625-.128906-.089844-.199219-.023437-.054687-.035156-.089844-.042968-.117187.386718-.15625.777343-.308594 1.171874-.457032.070313-.027344.152344-.054687.230469-.082031m-1.738281.601563-.121094.050781-.003906.007812c-.003906.007813-.011719.019531-.019531.039063-.003907.011718-.015625.046875-.035157.097656-.015624.046875-.039062.105469-.0625.164062-.269531.6875-.753906 1.664063-1.070312 2.15625-.035156.054688-.054688.085938-.0625.105469-.003906.007813-.007812.011719-.007812.015625-.003907.015625 0 .027344.007812.035156.007812.011719.019531.015626.035156.015626.003906 0 .011719-.003907.015625-.003907.152344-.050781.304688-.101562.457031-.148437.640626-.207032 1.199219-.402344 1.714844-.597656.21875-.085938.328125-.125.382813-.148438.027343-.011719.039062-.015625.054687-.03125.003906-.007812.007813-.011719.007813-.019531.003906-.007813 0-.015625 0-.023438-.007813-.011719-.011719-.015625-.011719-.015625-.007812-.007812-.023438-.023437-.050781-.042968-.027344-.023438-.054688-.050782-.085938-.074219-.199219-.167969-.4375-.429688-.621093-.671875-.167969-.21875-.359376-.566406-.445313-.796875-.007813-.019531-.015625-.039063-.023437-.058594-.003907-.015625-.011719-.027344-.019532-.039063l-.011718-.015624zm-.011719.082031h.003907c.003906.015625.011718.035156.019531.054687v.003906c.089843.238282.285156.585938.457031.8125.183594.246094.425781.507813.628906.683594.035156.027344.066406.050782.089844.074219.007812.007813.007812.007813.015625.011719-.050781.023437-.160156.066406-.382813.148437-.511718.195313-1.070312.390625-1.710937.597657-.128906.042968-.257813.082031-.386719.125.007813-.015626.007813-.019532.023438-.042969.320312-.5.804687-1.472657 1.074218-2.164063.023438-.058594.046876-.121094.066407-.167968.019531-.046876.03125-.082032.035156-.101563.003906-.003906.003906-.007813.007813-.011719zm-.507812.136719-.050781.023437c-.519532.222656-1.03125.460937-1.539063.714844l-.007813.007812c-.03125.035157-.039062.078125-.058593.179688-.046875.234375-.058594.601562-.015625.820312.042968.21875.117187.453125.210937.640625h.003907c.019531.039063.03125.0625.046874.078125.003907.007813.007813.011719.015626.015625.007812.003906.019531.003906.03125 0 .019531-.003906.023437-.015625.027343-.019531.003907-.007813.007813-.011719.015625-.023437l.03125-.050782c.023438-.039062.058594-.089844.089844-.144531.386719-.613281.671875-1.117187.9375-1.632813.0625-.117187.121094-.238281.167969-.339843.046875-.097657.082031-.167969.089843-.203125l.003907-.003906zm-.105469.125c-.015625.039062-.023438.058593-.050781.117187-.046875.097656-.109375.21875-.167969.335937-.261719.511719-.550781 1.015626-.933594 1.628907-.035156.054687-.066406.101562-.089844.140625-.011718.019531-.019531.03125-.027343.042968-.007813-.011718-.007813-.011718-.019531-.035156-.09375-.179687-.167969-.410156-.207032-.621094-.039062-.203124-.03125-.574218.011719-.796874.023437-.097657.03125-.128907.042969-.140626.476562-.238281.957031-.460937 1.441406-.671874zm4.792969.027343-.054688.042969-.046875.03125v.003906c-.023437.019532-.101562.078125-.1875.144532-.089844.0625-.195312.136718-.277344.191406-.441406.292968-.949218.59375-1.480468.867187-.066406.035157-.128906.070313-.175782.09375l-.070312.035157-.007812.007812s-.003907.003906-.003907.003906l-.007812.015625-.003907.011719s0 .007812.003907.011719v.003906c.003906.003906.007812.007813.007812.011719.007813.003906.011719.007812.015625.011718.011719.007813.027344.019532.046875.03125.039063.027344.09375.0625.15625.101563.128907.078125.289063.175781.421875.246094.402344.21875.820313.398437 1.253906.539062h.003907c.089843.027344.171875.046875.171875.046875l.019531.007813.011719-.015625s.007812-.007813.007812-.007813v-.003906l.003906-.003906v-.007813l.003907-.011718c0-.011719.003906-.023438.007812-.042969.003907-.035157.011719-.082031.019531-.136719.097657-.609375.160157-1.4375.160157-2.046875zm-.070313.140625v.042969c0 .601563-.0625 1.433594-.160156 2.035156-.007812.054688-.015625.101563-.019531.136719l-.003907.019531c-.023437-.003906-.0625-.015625-.132812-.039062-.429688-.132813-.847656-.3125-1.242188-.53125-.140624-.078125-.28125-.15625-.417968-.242188-.054688-.03125-.105469-.066406-.15625-.101562l-.015625-.007813c.011719-.007812.019531-.011718.03125-.015625.042969-.027343.105469-.058593.171875-.09375.535156-.277343 1.042968-.574219 1.488281-.871093.09375-.066407.1875-.128907.277344-.195313.0625-.042969.121093-.089844.179687-.136719m-6.699218.699219-.011719.003906c-.105469.054688-.207031.109375-.3125.167969-.136719.074219-.300781.164062-.429688.238281-.386719.222657-.613281.394531-.898437.691407-.425782.441406-.734375.964843-.800782 1.375 0 .011718-.003906.023437-.003906.03125 0 .007812 0 .015624.003906.027343.003907.015625.023438.027344.035157.03125.011719 0 .019531-.003906.023437-.003906.011719-.003906.046875-.011719.105469-.03125l.21875-.058594c.285156-.078125.875-.25 1.394531-.402343.261719-.074219.507813-.148438.6875-.203126.089844-.027343.164063-.046874.214844-.066406.027344-.007812.054688-.015625.082031-.023437l.003907-.003907h.003906s.003906-.003906.003906-.003906l.011719-.011718.003906-.007813s0-.007813 0-.011719 0-.003906 0-.007812c-.003906-.007813-.003906-.015625-.007813-.019532-.007812-.015624-.015624-.03125-.019531-.046874-.019531-.039063-.042969-.089844-.070312-.144532-.195313-.398437-.257813-.683594-.234375-1.074218.003906-.097657.015625-.191407.027344-.285157.007812-.035156.011718-.066406.015624-.097656 0-.011719 0-.019531 0-.03125-.003906-.007813-.007812-.015625-.011718-.019531-.007813-.007813-.015625-.011719-.027344-.011719zm-.027344.09375c-.003906.015625-.003906.023437-.007813.054687h-.003906c-.011719.097657-.023437.195313-.027344.292969-.023437.402344.042969.703125.242188 1.109375.027343.054688.050781.105469.066406.140625.007813.011719.011719.019531.011719.027344l-.046875.015625c-.050781.015625-.125.039062-.214844.066406-.230469.070313-.457031.136719-.6875.203125-.519531.152344-1.109375.324219-1.390625.398438l-.222656.0625-.074219.019531c.0625-.386719.363281-.902344.78125-1.335938.28125-.289062.5-.457031.882813-.675781.128906-.074219.289062-.164062.429687-.242187.085937-.046875.171875-.089844.261719-.136719m4.265625.664063h-.011719l-.011719.007812zm0 0v.066406l-.023438-.058594s-.003906.003906-.003906.007812l-.007813.007813v.007813l-.007812.023437c-.007812.019531-.015625.042969-.027344.066406-.171875.535157-.515625 1.308594-.851562 1.941407-.035156.066406-.070313.132812-.105469.195312l-.003906.015625-.003907.003906v.003907l-.003906.003906v.007812l.007813.023438.015625.011718h.007812.003906.011719c.007813 0 .011719-.003906.019531-.003906.015626-.003906.03125-.011718.046876-.015625.027343-.015625.203124-.082031.378906-.144531 1.214844-.453125 2.398437-.945312 2.765625-1.152344l.167969-.09375-.152344-.03125c-.6875-.160156-1.492188-.472656-2.070313-.804687-.035156-.019531-.066406-.039063-.101562-.058594l.023437-.023437zm.019531.082031.007812.003906c.027344.011719.0625.03125.101563.054687.578125.335938 1.378906.644532 2.066406.804688l-.011719.007812c-.351562.195313-1.542968.691407-2.753906 1.144532-.167968.0625-.316406.117187-.363281.136718.019531-.035156.042969-.085937.074219-.140624.339844-.632813.679687-1.40625.855468-1.945313v-.003906c.011719-.023438.019532-.046875.023438-.0625m-.449219.058593h-.015625l-.003906.003907-.011719.003906-.042969.015625c-.035156.015625-.082031.035156-.136718.058594-.742188.316406-1.492188.578125-2.378906.820312l-.296876.082032.082032.101562c.335937.421875.851562.859375 1.429687 1.214844.046875.027344.09375.054687.125.074218.015625.011719.03125.019532.039063.023438l.011718.007812.007813.003907h.003906l.003907.003906h.007812l.011719-.003906h.003906l.007813-.003907.007812-.007812.003906-.007812.011719-.019532c.007813-.015625.023437-.039062.039063-.070312.035156-.058594.082031-.136719.132812-.226563.394531-.703125.707031-1.328125.941406-1.902343.015625-.03125.027344-.0625.035156-.085938.003907-.011719.007813-.023438.011719-.03125l.003907-.011719s0-.003906 0-.007812c0 0 0-.003907 0-.007813l-.003907-.007812-.007812-.011719-.011719-.007813zm-.058593.09375c-.007813.015626-.011719.03125-.019532.050782-.238281.570312-.546875 1.195312-.941406 1.894531-.050781.089844-.097656.167969-.128906.226563-.015625.027343-.03125.050781-.039063.066406-.007812-.003906-.015625-.007813-.027343-.015625-.03125-.019531-.074219-.046875-.125-.078125-.570313-.351563-1.078126-.78125-1.410157-1.199219l-.015625-.015625.195313-.054688c.886719-.242187 1.640625-.503906 2.386719-.824218zm2.738281.839844c-.011719 0-.015625.003906-.023438.007813-.007812 0-.015625.003906-.023437.007812-.027344.011719-.050782.027344-.070313.039063-.4375.261718-1.71875.875-2.953125 1.414062-.101562.046875-.195312.085938-.261718.117188-.03125.015625-.058594.03125-.078126.039062-.007812.003906-.015624.007813-.023437.011719 0 .003906-.003906.003906-.007813.007813-.003906.003906-.003906.003906-.007812.011718l-.003906.007813v.023437l.011718.011719c.011719.007813.015626.007813.023438.015625.011719.003906.023438.011719.039062.015625.140626.066406.28125.128906.425782.1875.679687.269531 1.402344.476563 2.210937.621094.011719.003906.023438.007812.03125.007812h.011719.011719l.007812-.003906.011719-.011719v-.003906l.003906-.007812.007813-.023438c.039062-.117188.078125-.234375.113281-.347656.152344-.472656.230469-.738282.328125-1.078125.054687-.203125.121094-.441407.167969-.640625.023437-.101563.046875-.1875.058594-.257813.007812-.03125.015624-.0625.019531-.085937.003906-.019532.003906-.035156.003906-.050782v-.035156zm-.042969.09375c-.003906.019532-.007812.039063-.011719.066406-.019531.082032-.039062.167969-.058593.253907-.054688.210937-.109376.425781-.167969.636719-.097657.339843-.179688.605468-.328125 1.074218-.03125.105469-.0625.199219-.085938.265625-.011718.035157-.019531.0625-.027344.082031h-.007812c-.800781-.148437-1.523438-.351562-2.199219-.621093-.101562-.042969-.199219-.082031-.300781-.128907-.039062-.015624-.074219-.035156-.113281-.050781.011719-.007812.023437-.011719.042969-.023437.085937-.039063.171874-.078125.257812-.113282 1.238281-.542968 2.515625-1.152343 2.960938-1.421874.015624-.007813.027343-.011719.039062-.019532zm-6.144531.117188-.007813.003906h-.003906-.003906l-.019532.003906-.058593.015625c-.054688.011719-.125.027344-.203125.046875-.324219.078125-.648438.152344-.972656.226563-.480469.113281-.960938.226562-1.441407.339843h-.003906c-.015625.007813-.03125.023438-.039063.039063-.003906.015625-.007812.035156-.003906.050781 0 .039063.007813.089844.023438.15625.0625.285156.222656.597656.457031.890625.117187.144531.363281.398438.511719.519531l.152344.128907.132812-.207031c.082031-.125.164062-.246094.246094-.363282.074218-.105468.269531-.378906.4375-.617187.199218-.277344.398437-.558594.597656-.839844.070312-.105469.128906-.1875.167969-.246094.019531-.03125.035156-.050781.046875-.066406l.011718-.019531c0-.003906 0-.007813.003907-.007813 0-.003906 0-.007812 0-.007812v-.003907l.003906-.007812-.011719-.023438-.011718-.011718zm-.078125.089844c-.003906.007812-.003906.011718-.011719.019531-.039063.058593-.097656.140625-.167969.246093-.195312.28125-.394531.558594-.59375.839844-.167968.234375-.363281.511719-.4375.613282-.085937.121093-.167968.242187-.25.367187l-.089844.140625-.09375-.074219v-.003906c-.140624-.113281-.390624-.371094-.5-.507813-.230468-.289062-.382812-.589843-.445312-.863281-.015625-.0625-.019531-.109375-.023438-.140625 0-.007812.003907-.015625.003907-.023437.476562-.113281.957031-.226563 1.433593-.335938.390626-.089843.785157-.183593 1.175782-.277343zm.421875.027343-.023438.03125-.480469.578125c-.699218.839844-1.019531 1.246094-1.277343 1.617188l-.097657.140625.078126.054687c.015624.011719.03125.023438.050781.035156l.003906.003907h.007813l.003906.003906h.019531c.261719-.089844.527344-.183594.789063-.277344.722656-.25 1.445312-.503906 2.164062-.761719.085938-.03125.152344-.058593.203125-.074218.023437-.011719.042969-.015625.058594-.023438l.015625-.003906.007812-.007812.011719-.007813.007813-.015625v-.011719l-.003907-.007812c-.003906-.007813-.003906-.011719-.007812-.011719-.003907-.003906-.007813-.007812-.011719-.011719-.007812-.007812-.019531-.015625-.03125-.023437-.027344-.015625-.066406-.039063-.109375-.0625v-.003906c-.480469-.277344-.875-.597657-1.265625-1.03125zm.003906.105469.058594.066406c.394531.441406.796875.765625 1.28125 1.050782.039062.019531.066406.039062.089843.054687l-.015624.007813c-.050782.015624-.117188.042968-.203126.074218-.71875.257813-1.441406.511719-2.164062.761719-.257812.09375-.515625.183594-.773438.269531h-.003906c-.011718-.007812-.023437-.015625-.035156-.023437l-.019531-.015625.058593-.085938c.253907-.367187.574219-.773437 1.269532-1.613281zm2.164063 1.460938h-.007813l-.007813.003906-.011718.007812-.007813.011719v.003906l-.007812.011719-.035157.050781c-.03125.046875-.074218.109375-.117187.175781-.320313.492188-.710937 1.011719-1.097656 1.480469-.042969.042969-.078125.089844-.105469.121094-.011719.019531-.027344.039063-.039062.058594l-.007813.007812v.015625c0 .011719.003906.019532.007813.023438.003906.003906.007812.007812.011718.007812.003906.003906.007813.007813.015625.011719.011719.003906.023438.007813.039063.011719.011718.003906.027344.007812.042968.007812.011719.003906.023438.003906.039063 0h.003906c.136719-.039062.273438-.074218.410157-.117187 1.160156-.332031 2.585937-.753907 3.054687-.898438.210937-.070312.421875-.136719.632813-.210937.023437-.007813.039062-.011719.054687-.019532l.015625-.003906c.003906-.003906.007812-.003906.011719-.007812h.003906c.011719-.007813.015625-.019532.015625-.03125 0-.011719-.003906-.023438-.015625-.03125-.011719-.007813-.019531-.007813-.027344-.011719-.023437-.003906-.046875-.007813-.070312-.007813-.390625-.03125-1.058594-.148437-1.519531-.261718-.371094-.097656-.648438-.179688-1-.3125-.074219-.027344-.140626-.050782-.191407-.070313-.023437-.007812-.042969-.015625-.058593-.019531l-.015626-.003906-.007812-.003906c-.003906 0-.003906 0-.007812 0zm-.480469.015624c-.003907 0-.011719 0-.019531 0-.046876.011719-.09375.027344-.136719.042969-.433594.132813-1.089844.320313-2.28125.644531-.222657.058594-.425781.117188-.578125.15625l-.175782.046876-.050781.015624-.015625.003907h-.003906c0 .003906-.003906.003906-.003906.003906h-.003906l-.011719.011719-.003907.011718s-.003906.007813-.003906.011719c0 0 .003906.003907.003906.007813s0 .003906.003907.007812c.003906.007813.007812.011719.011719.015625.007812.007813.015624.015625.03125.023438.027343.023437.066406.046875.113281.078125.089843.058594.214843.132812.324219.191406.207031.105469.417968.203125.636718.289062.089844.039063.308594.117188.515625.191407.207031.070312.398438.136719.453125.152343l.066406.019532.089844-.160156.003906-.003907c.042969-.074219.125-.210937.179688-.296875.058594-.089844.21875-.34375.359375-.570312.132813-.203125.261719-.410156.390625-.617188.046875-.074218.082031-.128906.105469-.167968.011719-.019532.019531-.03125.023437-.042969l.007813-.011719.003906-.007812s0 0 0-.003907c0 0 .003906-.007812.003906-.007812l-.003906-.007813-.007813-.019531-.011718-.007813zm.496093.058594c.011719.007813.03125.011719.050782.019532.050781.019531.117187.042968.1875.070312.355468.132812.636718.21875 1.011718.3125.449219.113281 1.085938.21875 1.484376.257812-.195313.066407-.394532.128907-.59375.191407-.464844.148437-1.890626.570312-3.050782.902343-.136718.039063-.273437.078126-.40625.117188 0 0-.007812 0-.019531-.003906-.011719 0-.023437-.003906-.035156-.003906 0-.003907-.003907-.003907-.003907-.003907l.015626-.023437c.027343-.03125.0625-.074219.101562-.121094.394531-.46875.78125-.988281 1.105469-1.484375.042969-.066406.085937-.128906.117187-.175781.015625-.019532.027344-.039063.035156-.054688m-.566406.03125c-.023437.035156-.050781.082032-.09375.148438-.128906.207031-.257812.414062-.390625.621094-.144531.222656-.304687.480468-.359375.570312-.054687.085938-.136718.222656-.183594.296875l-.066406.117187-.011718-.003906c-.046876-.011718-.246094-.082031-.449219-.152344-.207031-.074218-.425781-.152343-.515625-.1875-.214844-.085937-.421875-.183593-.628906-.289062-.109376-.058594-.214844-.121094-.320313-.1875-.039063-.027344-.066406-.046875-.089844-.0625h.007813c.039062-.011719.101562-.03125.175781-.050781l.578125-.15625c1.1875-.324219 1.847656-.511719 2.28125-.644531.023438-.007813.046875-.015626.066406-.019532zm3.414063.699219v.011719c-.011719.003906-.019531.007812-.039063.015625-.03125.011719-.070312.027343-.113281.046875-.515625.242187-1.046875.449218-1.59375.617187-.421875.128907-.839844.234375-1.707031.429688l-.402344.089843v.070313l.0625.011719c.289062.066406 1.421875.265625 2.097656.367187.3125.046875.628906.089844.941406.132813.070313.011718.117188.015625.132813.019531v-.003906c.011719.003906.023437 0 .035156-.007813.011719-.003906.019531-.015625.027344-.023437.011719-.023438.023437-.050781.042969-.09375.078125-.195313.230468-.59375.359375-.953125.0625-.179688.121093-.34375.164062-.46875.019531-.0625.039063-.113282.050781-.152344.003907-.015625.007813-.03125.011719-.042969v-.007812c.003907-.003907.003907-.007813.003907-.011719v-.007812s.003906-.003907-.003907-.015626l-.007812-.023437zm-.011719.089844c-.007812.035156-.027344.085937-.046875.148437-.042969.125-.101563.289063-.164063.46875-.128906.355469-.28125.757813-.359374.949219-.015626.042969-.03125.070313-.035157.082031l-.003906.003906c-.042969-.007812-.082031-.011718-.125-.015624-.3125-.042969-.625-.089844-.9375-.132813-.644531-.097656-1.652344-.277344-1.992187-.351563l.238281-.054687c.867187-.195313 1.289062-.300781 1.710937-.429687.550782-.167969 1.085938-.375 1.605469-.617188.039063-.019531.078125-.035156.109375-.050781zm0 0" fill="#ee352c"/></svg>