<svg height="18" viewBox="0 0 18 18" width="18" xmlns="http://www.w3.org/2000/svg" xmlns:xlink="http://www.w3.org/1999/xlink"><linearGradient id="a" gradientUnits="userSpaceOnUse" x1="13.966875" x2="2.982656" y1="16.814532" y2="5.795155"><stop offset="0" stop-color="#8dc63f" stop-opacity=".2"/><stop offset="1" stop-opacity=".2"/></linearGradient><path d="m-1.8-1.8h21.6v21.6h-21.6z" fill="#8dc63f"/><path d="m5.765625 18-3.683594-3.050781 2.785157-7.582031 2.699218 2.519531v-7.160157h1.109375l2.953125 3.304688.859375-.742188 3.527344 4.554688.296875-.210938 1.6875 2.265626v6.074218zm0 0" fill="url(#a)"/><path d="m5.90625 2.726562h2.769531v12.222657h-2.769531zm3.8125 2.5625h2.769531v9.660157h-2.769531zm3.824219 4.34375h2.769531v5.316407h-2.769531zm-11.460938-2.265624h2.769531v7.582031h-2.769531zm0 0" fill="#fff"/><path d="m2.082031 14.105469 2.785157-1.042969v1.886719h-2.785157zm6.59375-3.996094v4.839844h-2.769531v-2.417969zm1.042969 0 2.769531 2.039063v2.800781h-2.769531zm3.824219 2.011719 2.769531-1.066406v3.894531h-2.769531zm0 0" fill="#d1d1d2"/></svg>