<svg height="18" viewBox="0 0 18 18" width="18" xmlns="http://www.w3.org/2000/svg"><path d="m15.007812 11.613281c-.011718 3.324219-2.71875 6.027344-6.046874 6.027344-3.332032 0-6.042969-2.710937-6.042969-6.042969 0-.011718 0-.019531 0-.03125-1.746094-1.0625-2.917969-2.976562-2.917969-5.164062 0-3.332032 2.710938-6.046875 6.046875-6.046875 1.070313 0 2.078125.285156 2.953125.777343.875-.492187 1.882812-.777343 2.953125-.777343 3.335937 0 6.046875 2.714843 6.046875 6.046875 0 2.21875-1.207031 4.160156-2.992188 5.210937zm-6.007812-9.207031c-1.09375.808594-1.847656 2.050781-1.996094 3.476562.613282-.210937 1.273438-.332031 1.957032-.332031.714843 0 1.402343.132813 2.039062.363281-.140625-1.4375-.898438-2.691406-2-3.507812m-4.96875 8.546875c.632812.28125 1.320312.425781 2.015625.425781s1.359375-.144531 1.964844-.402344c-1-.867187-1.71875-2.046874-1.984375-3.394531-1.070313.789063-1.816406 1.988281-1.996094 3.371094m4.929688-4.335937c-.667969 0-1.328126.136718-1.945313.398437.171875 1.382813.914063 2.59375 1.984375 3.386719 1.0625-.789063 1.796875-1.980469 1.976562-3.355469-.632812-.28125-1.320312-.429687-2.015624-.429687m1.027343 4.359374c.621094.265626 1.289063.40625 1.964844.40625.691406 0 1.347656-.144531 1.945313-.398437-.167969-1.363281-.890626-2.554687-1.933594-3.351563-.277344 1.324219-.988282 2.488282-1.976563 3.34375m-1.027343 5.597657c2.570312 0 4.691406-1.957031 4.953124-4.457031-.617187.210937-1.273437.332031-1.960937.332031-1.035156 0-2.050781-.269531-2.953125-.777344-.902344.507813-1.917969.777344-2.953125.777344-.71875 0-1.402344-.132813-2.039063-.363281.246094 2.515624 2.375 4.488281 4.953126 4.488281m-2.914063-15.152344c-2.746094 0-4.980469 2.234375-4.980469 4.980469 0 1.617187.777344 3.050781 1.976563 3.960937.351562-1.691406 1.417969-3.125 2.867187-3.976562.003906-1.820313.820313-3.449219 2.101563-4.558594-.621094-.265625-1.289063-.40625-1.964844-.40625m5.90625 0c-.675781 0-1.34375.140625-1.964844.40625 1.285157 1.109375 2.101563 2.746094 2.101563 4.574219v.03125c1.421875.863281 2.464844 2.296875 2.800781 3.980468 1.234375-.90625 2.042969-2.363281 2.042969-4.011718 0-2.746094-2.234375-4.980469-4.980469-4.980469m0 0" fill="#010002"/></svg>