<svg height="18" viewBox="0 0 18 18" width="18" xmlns="http://www.w3.org/2000/svg"><path d="m1.378906 0c-.761718 0-1.378906.617188-1.378906 1.378906v15.242188c0 .453125.222656.878906.597656 1.136718.230469.15625.503906.242188.78125.242188h15.242188c.761718 0 1.378906-.617188 1.378906-1.378906v-15.242188c0-.625-.417969-1.152344-.988281-1.3242185-.125-.0351563-.257813-.0546875-.390625-.0546875zm1.996094 4.21875h2.222656v9.535156h-2.234375v-.734375h1.371094v-8.085937h-1.359375zm9.039062 0h2.222657v.714844h-1.359375v8.085937h1.367187v.734375h-2.230469zm-5.738281 2.605469h1c.398438 1.5.851563 2.820312 1.355469 4.011719.574219-1.339844.996094-2.660157 1.351562-4.011719h.945313c-.425781 1.679687-1.117187 3.375-1.910156 5.125h-.835938c-.761719-1.65625-1.40625-3.363281-1.90625-5.125" fill="#de5c0f"/></svg>