<svg height="18" viewBox="0 0 18 18" width="18" xmlns="http://www.w3.org/2000/svg"><path d="m16.441406 13.851562-6.957031 4.019532c-.300781.171875-.667969.171875-.96875 0l-6.957031-4.019532c-.296875-.175781-.480469-.492187-.480469-.832031v-8.039062c0-.347657.183594-.65625.480469-.832031l6.957031-4.019532c.300781-.1718748.667969-.1718748.96875 0l6.957031 4.019532c.296875.175781.480469.492187.480469.832031v8.039062c-.007813.339844-.191406.65625-.480469.832031zm0 0" fill="#8d6748"/><path d="m8.992188 1.222656c-.148438 0-.292969.039063-.417969.117188l-6.007813 3.46875c-.261718.144531-.417968.421875-.417968.714844v6.933593c0 .300781.15625.570313.417968.71875l6.007813 3.464844c.125.078125.269531.117187.417969.117187.144531 0 .289062-.039062.414062-.117187l6.007812-3.464844c.261719-.148437.417969-.425781.417969-.71875v-6.933593c0-.300782-.15625-.570313-.417969-.714844l-6.007812-3.46875c-.125-.078125-.269531-.117188-.414062-.117188zm0 .289063c.09375 0 .183593.03125.269531.078125l6.007812 3.46875c.167969.097656.269531.277344.273438.472656v6.9375c0 .191406-.109375.375-.273438.472656l-6.007812 3.46875c-.085938.046875-.175781.078125-.269531.078125-.097657 0-.191407-.027343-.273438-.078125l-6.007812-3.46875c-.167969-.097656-.269532-.277344-.269532-.472656v-6.9375c0-.191406.105469-.375.269532-.472656l6.007812-3.46875c.089844-.046875.183594-.078125.273438-.078125m.03125 2.726562c-.125.152344-.335938.316407-.105469.664063.078125.085937.117187.273437.105469.328125 0 0 .347656-.203125.136718-.570313-.125-.191406-.183594-.355468-.136718-.421875zm-.386719.355469c-.085938.105469-.222657.214844-.066407.453125.046876.050781.066407.175781.066407.214844 0 0 .234375-.136719.089843-.386719-.089843-.125-.128906-.242188-.089843-.28125zm-.703125.832031c-.054688 0-.097656.042969-.097656.097657 0 .328124.046874 1.457031.53125 2.007812.015624.019531.042968.03125.066406.027344h.8125c.027344.003906.050781-.007813.066406-.027344.484375-.539062.53125-1.671875.53125-2.007812 0-.054688-.042969-.097657-.09375-.097657zm.277344.296875h1.277343c.054688.003906.097657.046875.097657.097656 0 .273438-.050782 1.035157-.378907 1.429688-.027343.019531-.046875.03125-.078125.03125h-.570312c-.023438 0-.046875-.011719-.066406-.03125-.328126-.386719-.367188-1.15625-.375-1.429688 0-.050781.042968-.09375.09375-.097656m1.21875.660156s-.007813.085938-.242188.171876c-.316406.117187-.878906.039062-.878906.039062.050781.203125.125.398438.242187.542969.007813.019531.039063.027343.058594.027343h.484375c.015625 0 .035156-.007812.054688-.027343.164062-.195313.242187-.496094.28125-.753907m-6.589844.472657v.105469h4.9375c0-.039063-.007813-.066407-.007813-.105469zm7.082031 0c0 .039062-.007813.066406-.007813.105469h5.246094v-.105469zm-3.1875 1.050781c-.144531 0-.28125.019531-.40625.078125-.125.050781-.230469.125-.320313.214844-.089843.089843-.160156.199219-.210937.316406-.046875.125-.078125.253906-.078125.386719v.011718c0 .132813.03125.269532.078125.386719.046875.125.117187.230469.203125.316407.085938.089843.191406.164062.320312.214843.128907.050781.265626.074219.40625.074219.144532 0 .277344-.015625.402344-.074219.128906-.050781.234375-.125.320313-.214843.089843-.089844.164062-.199219.210937-.316407.050782-.125.078125-.253906.078125-.386719v-.011718c0-.132813-.027343-.261719-.078125-.386719-.046875-.125-.113281-.230469-.199218-.316406-.089844-.089844-.195313-.164063-.320313-.214844-.128906-.050781-.265625-.074219-.40625-.078125m2.667969 0c-.15625 0-.28125.03125-.40625.078125-.125.050781-.234375.125-.320313.214844-.085937.09375-.152343.199219-.203125.316406-.050781.125-.074218.253906-.078125.386719v.011718c0 .132813.03125.261719.078125.386719.050782.125.117188.230469.203125.316407.085938.089843.195313.164062.308594.214843.125.050781.253906.078125.386719.074219.089844 0 .175781 0 .261718-.015625.066407-.011719.144532-.039063.203126-.070313.058593-.027343.117187-.058593.171874-.105468.058594-.046875.109376-.085938.15625-.144532l-.222656-.222656c-.085937.078125-.171875.136719-.25.183594s-.183594.066406-.300781.066406c-.085937 0-.171875-.027344-.25-.054687-.078125-.03125-.144531-.089844-.203125-.148438-.058594-.066406-.105469-.132812-.136719-.21875-.027343-.089843-.046875-.175781-.046875-.273437v-.007813c0-.085937.019532-.175781.046875-.261719.039063-.078124.078125-.15625.136719-.210937.058594-.058594.128906-.109375.203125-.144531.078125-.039063.152344-.058594.25-.058594.117187 0 .214844.019531.300781.066406.085938.050782.167969.105469.242188.171875l.222656-.25c-.050781-.046875-.097656-.085937-.148438-.125-.046874-.039062-.105468-.066406-.164062-.097656-.066406-.019531-.125-.039063-.203125-.058594-.074219-.007812-.152344-.019531-.238281-.019531m4.539062.03125-.851562 1.941406h.351562l.199219-.464844h.910156l.191407.464844h.359374l-.851562-1.941406zm-10.859375.007812v1.945313h.339844v-1.382813l.597656.898438h.007813l.609375-.910156v1.382812h.339843v-1.933594h-.359374l-.589844.910157-.585938-.910157zm7.757813 0v1.933594h.339844v-.8125h.925781v.8125h.339843v-1.933594h-.339843v.804688h-.925781v-.804688zm-4.113282.273438c.09375 0 .183594.019531.257813.054688.078125.039062.144531.085937.203125.148437.058594.066406.105469.132813.136719.21875.027343.089844.046875.175781.046875.273437v.007813c0 .085937-.019532.175781-.046875.261719-.039063.078125-.078125.15625-.136719.210937-.058594.058594-.125.109375-.203125.144531-.078125.039063-.164063.058594-.257813.058594-.089843 0-.183593-.019531-.261718-.058594-.074219-.035156-.144532-.085937-.203125-.144531-.058594-.066406-.105469-.132812-.136719-.222656-.027344-.085937-.046875-.171875-.046875-.269531v-.007813c0-.089843.019531-.175781.046875-.261719.039062-.078124.078125-.15625.136719-.210937.058593-.0625.128906-.109375.203125-.148437.078125-.035157.164062-.054688.261718-.054688m7.371094.125.328125.773438h-.65625zm-11.257812 2.144531v.105469h12.320312v-.105469zm0 0" fill="#fff"/></svg>