<svg height="18" viewBox="0 0 18 18" width="18" xmlns="http://www.w3.org/2000/svg"><path d="m11.246094 1.410156c-.96875 0-1.753906.785156-1.753906 1.753906 0 .648438.359374 1.242188.929687 1.542969l-.96875 1.839844c-.234375-.078125-.484375-.117187-.730469-.117187-1.320312 0-2.386718 1.070312-2.386718 2.386718.003906.167969.023437.339844.0625.503906l-1.929688.707032c-.371094-.589844-1.015625-.945313-1.710938-.945313-1.117187 0-2.019531.902344-2.019531 2.019531 0 1.117188.902344 2.019532 2.019531 2.019532 1.117188 0 2.019532-.902344 2.019532-2.019532 0-.144531-.015625-.289062-.046875-.433593l1.847656-.808594c.398437.820313 1.230469 1.339844 2.144531 1.339844.523438 0 1.03125-.175781 1.445313-.496094l1.554687 1.480469c-.332031.488281-.511718 1.0625-.511718 1.648437 0 1.621094 1.308593 2.929688 2.929687 2.929688 1.617187 0 2.925781-1.308594 2.925781-2.929688 0-1.617187-1.308594-2.929687-2.925781-2.929687-.675781.003906-1.328125.238281-1.847656.664062l-1.65625-1.34375c.304687-.40625.46875-.898437.46875-1.40625 0-.785156-.386719-1.523437-1.035157-1.964844l.820313-1.972656c.117187.023438.234375.039063.355469.039063.96875 0 1.753906-.785157 1.753906-1.753907s-.785156-1.753906-1.753906-1.753906zm0 0" fill="#3cafce"/></svg>