<svg height="18" viewBox="0 0 18 18" width="18" xmlns="http://www.w3.org/2000/svg"><path d="m12.726562 8.054688c-.054687-.671876-.210937-1.324219-.433593-1.957032-.453125-1.421875-1.1875-2.679687-2.21875-3.761718-.257813-.273438-.550781-.523438-.730469-.867188-.117188-.214844-.226562-.433594-.335938-.648438l-.074218-.179687c-.011719.039063-.019532.054687-.019532.070313-.007812.355468-.207031.59375-.457031.816406-.28125.253906-.542969.527344-.8125.792968l-.832031 1.089844c-.222656.410156-.445312.824219-.667969 1.234375l-.449219 1.210938-.015624.019531c-.246094.8125-.367188 1.644531-.429688 2.488281-.019531.316407.003906.636719.023438.957031.023437.453126.105468.902344.222656 1.339844.429687 1.601563 1.304687 2.925782 2.5 4.054688.222656.207031.449218.398437.679687.597656.039063-.136719.070313-.269531.109375-.40625.035156-.136719.070313-.269531.09375-.40625-.023437.136719-.050781.269531-.078125.40625l-.117187.40625.105468.351562.097657.546876.042969.570312c0 .113281-.003907.230469.003906.347656 0 .027344.039062.054688.0625.085938l.191406.066406.203125.078125-.035156-.507813v-.496093l.070312-.761719.046875-.164062.144532-.257813c.179687-.144531.371093-.273437.535156-.433594.292968-.289062.585937-.582031.847656-.898437.34375-.410156.636719-.859375.871094-1.335938.160156-.320312.308594-.648437.429687-.984375.109375-.296875.175781-.609375.261719-.910156.007812-.023437.015625-.046875.023438-.066406.175781-.824219.203124-1.652344.140624-2.488281m-3.320312 6.945312-.113281-.25zm0 0 .167969.140625zm0 0" fill="#4faa41" fill-rule="evenodd"/></svg>