<svg height="18" viewBox="0 0 18 18" width="18" xmlns="http://www.w3.org/2000/svg" xmlns:xlink="http://www.w3.org/1999/xlink"><filter id="a" height="100%" width="100%" x="0%" y="0%"><feColorMatrix color-interpolation-filters="sRGB" values="0 0 0 0 1 0 0 0 0 1 0 0 0 0 1 0 0 0 1 0"/></filter><radialGradient id="b" cx="532.85498" cy="-537.557007" gradientTransform="matrix(.140625 0 0 -.140625 -41.850001 -64.814062)" gradientUnits="userSpaceOnUse" r="209.759995"><stop offset="0" stop-color="#faaf40"/><stop offset=".043" stop-color="#f9a538"/><stop offset=".112" stop-color="#f89d31"/><stop offset=".227" stop-color="#f89a2f"/><stop offset=".528" stop-color="#f7922d"/><stop offset="1" stop-color="#f37b28"/></radialGradient><linearGradient id="c"><stop offset="0" stop-color="#929497"/><stop offset=".124" stop-color="#757578"/><stop offset=".279" stop-color="#575658"/><stop offset=".44" stop-color="#403e3f"/><stop offset=".609" stop-color="#302d2e"/><stop offset=".788" stop-color="#262223"/><stop offset="1" stop-color="#231f20"/></linearGradient><linearGradient id="d" gradientTransform="matrix(.140625 0 0 -.140625 -41.850001 -64.814062)" gradientUnits="userSpaceOnUse" x1="324.268005" x2="368.932007" xlink:href="#c" y1="-509.951996" y2="-509.951996"/><linearGradient id="e" gradientTransform="matrix(.140625 0 0 -.140625 -41.850001 -64.814062)" gradientUnits="userSpaceOnUse" x1="332.834015" x2="351.377014" y1="-495.050995" y2="-521.533997"><stop offset="0" stop-color="#231f20"/><stop offset="1" stop-color="#231f20" stop-opacity="0"/></linearGradient><linearGradient id="f" gradientTransform="matrix(.140625 0 0 -.140625 -41.850001 -64.814062)" gradientUnits="userSpaceOnUse" x1="299.778015" x2="381.411987" xlink:href="#c" y1="-495.802002" y2="-495.802002"/><mask id="g"><g filter="url(#a)"><path d="m-1.8-1.8h21.6v21.6h-21.6z" fill-opacity=".23"/></g></mask><clipPath id="h"><path d="m0 0h18v18h-18z"/></clipPath><path d="m14.941406 14.871094v-5.453125c0-1.148438-.476562-1.722657-1.410156-1.722657s-1.410156.574219-1.410156 1.722657v5.453125h-2.796875v-5.453125c0-1.148438-.457031-1.722657-1.386719-1.722657-.933594 0-1.414062.574219-1.414062 1.722657v5.453125h-2.773438v-5.761719c0-1.195313.40625-2.082031 1.242188-2.703125.71875-.550781 1.722656-.8125 2.945312-.8125 1.265625 0 2.175781.308594 2.773438.953125.5-.644531 1.433593-.953125 2.796874-.953125 1.242188 0 2.222657.261719 2.941407.8125.835937.621094 1.246093 1.507812 1.246093 2.703125v5.785156h-2.753906zm0 0" fill="url(#b)"/><path d="m4.011719 6.980469-.285157 1.433593c2.628907.882813 5.117188.023438 6.433594-2.273437-1.9375-1.335937-3.730468.023437-6.148437.839844" fill="#58595b"/><path d="m4.011719 6.621094c-.09375.550781-.167969 1.074218-.261719 1.625 2.511719.863281 4.976562.121094 6.289062-2.128906-1.671874-1.9375-3.539062-.335938-6.027343.503906" fill="url(#d)"/><path d="m7.003906 7.265625c-1.148437-.238281-2.394531.359375-3.253906.980469-.550781-4.015625 1.9375-3.921875 5.191406-2.917969-.214844.980469-.574218 2.296875-1.199218 3.085937-.023438-.527343-.261719-.886718-.738282-1.148437" fill="url(#e)"/><path d="m.304688 6.621094c4.210937-2.535156 6.578124-3.015625 11.480468-3.515625-5.691406 4.496093-5.835937 3.515625-11.480468 3.515625" fill="url(#f)"/><g fill="none" stroke-width=".5" transform="scale(.140625)"><path d="m83.805556 22.25-32.138889 23.305556" stroke="#4a4a4c"/><path d="m2.166667 47.083333 49.5-1.527777" stroke="#a8abad"/><path d="m42.472222 35c-8.5 2.388889-36.388889 8.5-36.722222 12.083333-.861111 6.638889-.166667 17.166667-.166667 17.166667" stroke="#f16922"/></g><path d="m1.144531 12.597656c-.433593-1.074218-.957031-2.269531-.335937-3.753906.40625 1.386719.335937 2.441406.335937 3.753906" fill="#f16922"/><path d="m5.777344 4.757812c.097656-.035156.195312-.023437.210937.027344.019531.050782-.046875.117188-.148437.152344-.097656.039062-.195313.027344-.210938-.023438-.019531-.050781.046875-.121093.148438-.15625" fill="#6d6e70"/><g mask="url(#g)"><g clip-path="url(#h)"><path d="m6.40625 4.875c.046875.527344-.074219-.503906 0 0" fill="#231f20"/></g></g></svg>