<svg height="18" viewBox="0 0 18 18" width="18" xmlns="http://www.w3.org/2000/svg"><path d="m14 4.098958-2 1.901042m-6.901042 2-2.901041-.802083m3.802083 4.802083-1.901042 2m3.098959-11.802083.802083 2.901041m1.036458 4.588542c-.078125-.182292-.036458-.401042.109375-.541667.140625-.145833.359375-.1875.541667-.109375l11 4.5c.203125.083334.328125.286459.3125.5-.015625.21875-.171875.401042-.385417.447917l-4.348958 1.041667c-.364583.088541-.651042.375-.739583.739583l-1.036459 4.348958c-.052083.213542-.234375.369792-.453125.385417-.213541.015625-.416666-.109375-.5-.3125zm0 0" fill="none" stroke="#fff" stroke-linecap="round" stroke-linejoin="round" stroke-width="2" transform="scale(.75)"/></svg>