<svg height="18" viewBox="0 0 18 18" width="18" xmlns="http://www.w3.org/2000/svg"><path d="m11.8125 17.4375v.5625h3.375v-.5625zm-.5625-1.125h-.5625v.5625h.5625zm.5625 1.125v-.5625h-.5625v.5625zm-1.125-1.6875h-.5625v.5625h.5625zm1.125-2.25v.5625h.5625v-.5625zm1.6875.5625v-.5625h-.5625v.5625h-.5625v.5625h2.25v-.5625zm1.125-.5625v.5625h.5625v-.5625zm1.6875 3.375h.5625v-.5625h-.5625zm0 .5625v-.5625h-1.125v.5625zm-6.75 0h-2.25v.5625h3.9375v-.5625zm-3.375.5625v-.5625h-5.0625v.5625zm1.6875-2.25v-.5625h-1.125v1.6875h-.5625v.5625h1.125v-1.6875zm-3.9375-9.5625h.5625v-1.125h-.5625zm1.125 4.5v-1.125h-.5625v.5625h-1.6875v4.5h3.375v-.5625h-.5625v-.5625h-.5625v.5625h-1.6875v-3.375h1.125v2.8125h.5625zm1.6875-.5625v2.8125h-.5625v1.125h.5625v-.5625h.5625v-3.9375h-.5625zm0-2.25v-.5625h-.5625v.5625zm-1.125 0v.5625h.5625v-.5625zm0 1.125v-.5625h-.5625v1.125h.5625zm-2.25-8.4375v1.125h.5625v-1.125zm-1.6875 0h1.6875v-.5625h-2.25v6.75h-.5625v10.6875h.5625v-10.125h5.0625v-1.125h-.5625v.5625h-.5625v-.5625h-.5625v.5625h-1.125v-1.6875h.5625v-1.125h-.5625v-.5625h-.5625v3.375h-1.125zm2.8125 2.25v-1.125h-.5625v1.125zm1.125 1.125h.5625v-1.125h-.5625zm1.125 1.125h-.5625v1.125h.5625zm-1.6875-1.125v1.125h.5625v-1.125zm-.5625-1.125v1.125h.5625v-1.125zm2.25-1.125h-.5625v1.125h.5625zm.5625 0v-1.125h-.5625v1.125zm10.125 10.6875h-.5625v3.9375h.5625zm-1.125-.5625v.5625h.5625v-.5625zm0-3.375h.5625v-.5625h-.5625zm.5625 0v1.6875h.5625v-1.6875zm-1.6875 2.8125v.5625h1.125v-.5625zm-.5625-1.125h.5625v-.5625h-.5625zm.5625 0v.5625h1.6875v-.5625zm-5.0625 1.125v-2.8125h-.5625v1.6875h-.5625v-1.125h-1.6875v.5625h1.125v4.5h-.5625v1.125h.5625v-.5625h1.125v1.125h.5625v-2.25h-.5625v.5625h-.5625v-3.375h.5625v.5625zm.5625.5625v-.5625h-.5625v.5625zm1.125-2.25h1.6875v3.9375h1.125v-.5625h-.5625v-1.6875h1.125v-.5625h-1.125v-1.125h.5625v-.5625h-2.8125zm0 1.125v-1.125h-.5625v2.25h-.5625v.5625h.5625v.5625h-1.125v.5625h1.6875zm-1.6875-3.375h.5625v-.5625h-1.125v-6.75h-2.25v.5625h1.6875v6.1875h-1.125v-3.375h-.5625v.5625h-.5625v1.125h.5625v1.6875h-.5625v.5625zm.5625.5625h-.5625v.5625h.5625zm0 0h.5625v-.5625h-.5625zm.5625-1.6875h-.5625v.5625h.5625zm3.9375 1.125v.5625h1.125v-.5625zm0-.5625h-3.9375v.5625h3.9375zm0-.5625v.5625h.5625v-.5625zm-.5625-1.125h-.5625v.5625h.5625zm0-1.125h.5625v-.5625h-1.125v.5625zm-1.125 1.125h.5625v-.5625h-.5625zm-1.6875 0v-.5625h-1.6875v1.6875h.5625v-1.125zm.5625 0h-.5625v1.125h2.25v-.5625h-1.6875zm-.5625-1.125v.5625h1.6875v-.5625zm-.5625-.5625h-.5625v.5625h1.125v-.5625zm1.125-.5625v.5625h1.6875v-.5625zm0-1.125h-.5625v1.125h.5625zm-1.6875-.5625h-.5625v2.25h.5625zm0-.5625v.5625h1.125v-.5625zm3.375 0h.5625v-.5625h-2.8125v.5625zm0 1.125v-.5625h-1.6875v.5625zm1.6875 2.8125v-.5625h-.5625v.5625zm.5625 0h-.5625v1.6875h.5625zm-.5625-3.375v-.5625h-1.125v.5625zm.5625 0h-.5625v1.125h-1.125v-.5625h-.5625v1.125h2.25zm0 0"/><path d="m10.125 16.3125v.5625h.5625v-.5625zm.5625 1.125h.5625v-.5625h-.5625zm1.125-3.9375h.5625v-.5625h-.5625zm-4.5 3.375v.5625h.5625v-.5625zm1.125-.5625h-.5625v.5625h.5625zm.5625.5625h.5625v-.5625h-.5625zm.5625 0v.5625h.5625v-.5625zm-.5625.5625v-.5625h-.5625v.5625zm0-7.3125h.5625v-.5625h-.5625zm-2.8125 1.6875h.5625v-.5625h-.5625zm.5625.5625h-.5625v.5625h.5625zm-.5625-2.25v.5625h.5625v-.5625zm5.625 1.6875v.5625h.5625v-.5625zm0-1.6875h.5625v-.5625h-.5625zm.5625.5625h-.5625v.5625h.5625zm-2.25-2.25v-.5625h-.5625v.5625zm.5625-.5625v-.5625h-.5625v.5625zm0 0" fill="#000080"/><path d="m10.125 16.875v.5625h.5625v-.5625zm-2.8125-.5625v.5625h.5625v-.5625zm.5625 1.125h.5625v-.5625h-.5625zm1.6875-1.125v.5625h.5625v-.5625zm-.5625.5625v-.5625h-.5625v.5625zm0 0v.5625h.5625v-.5625zm-2.25-7.3125h.5625v-.5625h-.5625zm-.5625 2.25v.5625h.5625v-.5625zm0-1.6875h.5625v-.5625h-.5625zm.5625.5625h-.5625v.5625h.5625zm2.8125-1.6875h-.5625v.5625h.5625zm2.25 2.8125h.5625v-.5625h-.5625zm.5625.5625h-.5625v.5625h.5625zm-.5625-2.25v.5625h.5625v-.5625zm0 0" fill="#800080"/><path d="m12.9375 13.5v-.5625h-.5625v.5625zm-7.3125-.5625h-.5625v.5625h.5625zm.5625 1.125v-.5625h-.5625v.5625zm2.8125 1.125h.5625v-.5625h-.5625zm.5625.5625h-.5625v.5625h.5625zm-1.125-.5625v.5625h.5625v-.5625zm0 .5625h-.5625v.5625h.5625zm-2.25-3.375h-.5625v.5625h.5625zm-.5625-1.125v.5625h.5625v-.5625zm-.5625 1.125h.5625v-.5625h-.5625zm.5625-1.6875h-.5625v.5625h.5625zm0-1.125h-.5625v.5625h.5625zm.5625 1.125v-.5625h-.5625v.5625zm0-1.6875h-.5625v.5625h.5625zm0-.5625v.5625h.5625v-.5625zm3.375-.5625h-.5625v.5625h.5625zm-2.25.5625v-.5625h-.5625v.5625zm1.125 0v.5625h.5625v-.5625zm-1.125 0v.5625h.5625v-.5625zm.5625-.5625v-.5625h-.5625v.5625zm.5625-.5625v.5625h.5625v-.5625zm0 .5625h-.5625v.5625h.5625zm5.0625 4.5h-.5625v.5625h.5625zm0-1.125h-.5625v.5625h.5625zm-.5625-.5625h.5625v-.5625h-.5625zm-.5625 0v.5625h.5625v-.5625zm0 1.125v.5625h.5625v-.5625zm0-2.25v.5625h.5625v-.5625zm-2.25-1.6875v-.5625h-.5625v.5625zm0 0" fill="#f0f"/><path d="m12.9375 14.0625v-.5625h-.5625v.5625zm.5625-1.125h-.5625v.5625h.5625zm-3.9375 2.8125v.5625h.5625v-.5625zm-3.375-2.25v-.5625h-.5625v.5625zm2.8125 2.25h-.5625v.5625h.5625zm0-.5625v.5625h.5625v-.5625zm-.5625-.5625v.5625h.5625v-.5625zm-.5625 1.125h-.5625v.5625h.5625zm0 0h.5625v-.5625h-.5625zm-2.25-4.5h.5625v-.5625h-.5625zm0 .5625v.5625h.5625v-.5625zm0 .5625h-.5625v.5625h.5625zm0-1.125h-.5625v.5625h.5625zm-.5625-.5625h.5625v-.5625h-.5625zm1.125-.5625v-.5625h-.5625v.5625zm.5625-1.125h-.5625v.5625h.5625zm0-1.125h-.5625v.5625h.5625zm-1.125.5625v.5625h.5625v-.5625zm3.375 0v.5625h.5625v-.5625zm.5625-.5625v-.5625h-.5625v.5625zm-1.125 0v.5625h.5625v-.5625zm-.5625.5625v-.5625h-.5625v.5625zm0 0v.5625h.5625v-.5625zm-.5625.5625v-.5625h-.5625v.5625zm0-1.125v-.5625h-.5625v.5625zm.5625 0h.5625v-.5625h-.5625zm5.0625 4.5h-.5625v.5625h.5625zm0 0h.5625v-.5625h-.5625zm.5625-1.6875h-.5625v.5625h.5625zm0-1.125h-.5625v.5625h.5625zm-1.125 1.6875v.5625h.5625v-.5625zm0-1.125v.5625h.5625v-.5625zm0 0" fill="#00f"/><path d="m14.625 13.5h.5625v-.5625h-.5625zm1.125 1.6875v.5625h-.5625v.5625h-2.8125v-.5625h-1.125v-.5625h-.5625v-1.125h-.5625v1.6875h.5625v.5625h.5625v.5625h.5625v.5625h3.375v-.5625h1.125v-.5625h.5625v-1.6875h-.5625v.5625zm-1.125-2.8125h-.5625v.5625h.5625zm.5625-2.8125v.5625h1.6875v-1.125h-.5625v.5625zm-3.9375 1.6875h-.5625v.5625h.5625zm-.5625-.5625h-.5625v.5625h.5625zm4.5-1.6875h-.5625v.5625h.5625zm0 0" fill="#808000"/><path d="m6.75 15.75h-.5625v.5625h-4.5v.5625h-.5625v.5625h5.0625v-.5625h.5625zm1.125-1.6875h-.5625v1.125h.5625zm0 0h.5625v-.5625h-.5625zm-2.25-6.75v.5625h.5625v-.5625zm0 .5625h-.5625v.5625h.5625zm-2.8125 1.125v1.125h1.6875v-.5625h.5625v-.5625zm0 0" fill="#800000"/><path d="m2.8125 10.125v-1.125h2.25v-1.125h.5625v-.5625h-4.5v9.5625h.5625v-.5625h4.5v-.5625h.5625v-.5625h.5625v-1.125h.5625v-.5625h.5625v-3.9375h-1.125v3.9375h-.5625v.5625h-.5625v.5625h-3.375zm0 0" fill="#f00"/><path d="m3.375 3.375v-.5625h-.5625v-.5625h-.5625v4.5h.5625v-3.375zm.5625-1.6875h-.5625v.5625h.5625zm-1.125-1.125v.5625h.5625v-.5625zm5.0625 2.8125v-.5625h-.5625v.5625zm-2.25 1.6875h-.5625v.5625h.5625zm-.5625-.5625v-.5625h-.5625v.5625zm-.5625-1.125v-.5625h-.5625v.5625zm4.5-2.8125h-.5625v6.1875h.5625zm6.75 5.625v-1.6875h-.5625v1.6875zm-.5625.5625v-.5625h-.5625v.5625zm0-2.25v-.5625h-.5625v.5625zm-1.125-1.125h-.5625v.5625h.5625zm-2.25-1.6875h-.5625v1.6875h1.125v-.5625h-.5625zm0 0h.5625v-.5625h-.5625zm2.25-1.125v.5625h.5625v-.5625zm1.6875 1.6875v-1.125h-.5625v1.125zm0 0" fill="#808080"/><path d="m7.3125.5625v1.125h-.5625v1.125h-.5625v1.125h-.5625v1.6875h-.5625v-1.125h-.5625v-1.125h-.5625v-1.125h-.5625v-1.125h-.5625v-.5625h-1.125v6.1875h.5625v-4.5h.5625v.5625h.5625v1.125h.5625v1.125h.5625v1.125h.5625v.5625h.5625v-.5625h.5625v-1.125h.5625v-1.125h.5625v-1.125h.5625v3.9375h.5625v-6.1875zm4.5 4.5h-1.125v1.125h.5625v.5625h3.375v-.5625h.5625v-1.6875h-.5625v-.5625h-1.125v.5625h.5625v.5625h.5625v.5625h-.5625v.5625h-2.25zm.5625-1.6875h-.5625v.5625h1.6875v-.5625zm-.5625-1.6875v-.5625h-1.125v2.25h.5625v-1.6875zm2.25-.5625v.5625h.5625v.5625h.5625v-1.125zm0 0v-.5625h-2.25v.5625zm0 0" fill="#c0c0c0"/><path d="m14.0625 11.25v1.125h.5625v.5625h.5625v1.125h-.5625v.5625h-2.25v-.5625h-.5625v-.5625h-1.6875v.5625h.5625v1.125h.5625v.5625h1.125v.5625h2.8125v-.5625h.5625v-.5625h.5625v-.5625h.5625v-2.25h-.5625v-.5625h-1.125v-.5625zm1.125-3.375v-.5625h-3.9375v.5625h-.5625v.5625h-.5625v2.25h.5625v.5625h.5625v-1.6875h.5625v-.5625h3.375v.5625h1.125v-.5625h.5625v-.5625h-.5625v-.5625zm0 0" fill="#ff0"/></svg>