<svg height="18" viewBox="0 0 18 18" width="18" xmlns="http://www.w3.org/2000/svg"><path d="m11.8125 17.4375v.5625h3.375v-.5625zm-.5625-1.125h-.5625v.5625h.5625zm.5625 1.125v-.5625h-.5625v.5625zm-1.125-1.6875h-.5625v.5625h.5625zm1.125-2.25v.5625h.5625v-.5625zm1.6875.5625v-.5625h-.5625v.5625h-.5625v.5625h2.25v-.5625zm1.125-.5625v.5625h.5625v-.5625zm1.6875 3.375h.5625v-.5625h-.5625zm0 .5625v-.5625h-1.125v.5625zm-6.75 0h-2.25v.5625h3.9375v-.5625zm-3.375.5625v-.5625h-5.0625v.5625zm1.6875-2.25v-.5625h-1.125v1.6875h-.5625v.5625h1.125v-1.6875zm-3.9375-9.5625h.5625v-1.125h-.5625zm1.125 4.5v-1.125h-.5625v.5625h-1.6875v4.5h3.375v-.5625h-.5625v-.5625h-.5625v.5625h-1.6875v-3.375h1.125v2.8125h.5625zm1.6875-.5625v2.8125h-.5625v1.125h.5625v-.5625h.5625v-3.9375h-.5625zm0-2.25v-.5625h-.5625v.5625zm-1.125 0v.5625h.5625v-.5625zm0 1.125v-.5625h-.5625v1.125h.5625zm-2.25-8.4375v1.125h.5625v-1.125zm-1.6875 0h1.6875v-.5625h-2.25v6.75h-.5625v10.6875h.5625v-10.125h5.0625v-1.125h-.5625v.5625h-.5625v-.5625h-.5625v.5625h-1.125v-1.6875h.5625v-1.125h-.5625v-.5625h-.5625v3.375h-1.125zm2.8125 2.25v-1.125h-.5625v1.125zm1.125 1.125h.5625v-1.125h-.5625zm1.125 1.125h-.5625v1.125h.5625zm-1.6875-1.125v1.125h.5625v-1.125zm-.5625-1.125v1.125h.5625v-1.125zm2.25-1.125h-.5625v1.125h.5625zm.5625 0v-1.125h-.5625v1.125zm10.125 10.6875h-.5625v3.9375h.5625zm-1.125-.5625v.5625h.5625v-.5625zm0-3.375h.5625v-.5625h-.5625zm.5625 0v1.6875h.5625v-1.6875zm-1.6875 2.8125v.5625h1.125v-.5625zm-.5625-1.125h.5625v-.5625h-.5625zm.5625 0v.5625h1.6875v-.5625zm-5.0625 1.125v-2.8125h-.5625v1.6875h-.5625v-1.125h-1.6875v.5625h1.125v4.5h-.5625v1.125h.5625v-.5625h1.125v1.125h.5625v-2.25h-.5625v.5625h-.5625v-3.375h.5625v.5625zm.5625.5625v-.5625h-.5625v.5625zm1.125-2.25h1.6875v3.9375h1.125v-.5625h-.5625v-1.6875h1.125v-.5625h-1.125v-1.125h.5625v-.5625h-2.8125zm0 1.125v-1.125h-.5625v2.25h-.5625v.5625h.5625v.5625h-1.125v.5625h1.6875zm-1.6875-3.375h.5625v-.5625h-1.125v-6.75h-2.25v.5625h1.6875v6.1875h-1.125v-3.375h-.5625v.5625h-.5625v1.125h.5625v1.6875h-.5625v.5625zm.5625.5625h-.5625v.5625h.5625zm0 0h.5625v-.5625h-.5625zm.5625-1.6875h-.5625v.5625h.5625zm3.9375 1.125v.5625h1.125v-.5625zm0-.5625h-3.9375v.5625h3.9375zm0-.5625v.5625h.5625v-.5625zm-.5625-1.125h-.5625v.5625h.5625zm0-1.125h.5625v-.5625h-1.125v.5625zm-1.125 1.125h.5625v-.5625h-.5625zm-1.6875 0v-.5625h-1.6875v1.6875h.5625v-1.125zm.5625 0h-.5625v1.125h2.25v-.5625h-1.6875zm-.5625-1.125v.5625h1.6875v-.5625zm-.5625-.5625h-.5625v.5625h1.125v-.5625zm1.125-.5625v.5625h1.6875v-.5625zm0-1.125h-.5625v1.125h.5625zm-1.6875-.5625h-.5625v2.25h.5625zm0-.5625v.5625h1.125v-.5625zm3.375 0h.5625v-.5625h-2.8125v.5625zm0 1.125v-.5625h-1.6875v.5625zm1.6875 2.8125v-.5625h-.5625v.5625zm.5625 0h-.5625v1.6875h.5625zm-.5625-3.375v-.5625h-1.125v.5625zm.5625 0h-.5625v1.125h-1.125v-.5625h-.5625v1.125h2.25zm0 0"/></svg>