<svg height="18" viewBox="0 0 18 18" width="18" xmlns="http://www.w3.org/2000/svg"><path d="m16.550781 13.816406c-.980469-.027344-1.730469.0625-2.371093.332032-.179688.078124-.472657.078124-.5.308593.097656.105469.113281.261719.195312.390625.152344.246094.410156.578125.640625.75.25.191406.511719.394532.78125.558594.480469.292969 1.015625.460938 1.476563.753906.273437.171875.542968.390625.808593.585938.128907.09375.21875.246094.390625.304687v-.027343c-.089844-.113282-.113281-.269532-.195312-.390626l-.363282-.363281c-.355468-.46875-.804687-.882812-1.28125-1.226562-.382812-.273438-1.234374-.640625-1.394531-1.085938l-.027343-.027343c.269531-.03125.585937-.128907.835937-.195313.417969-.113281.792969-.082031 1.226563-.195313l.585937-.167968v-.109375c-.21875-.226563-.375-.523438-.613281-.726563-.625-.53125-1.308594-1.0625-2.007813-1.503906-.390625-.246094-.871093-.40625-1.28125-.613281-.140625-.070313-.382812-.105469-.476562-.222657-.214844-.277343-.332031-.625-.5-.949218-.351563-.671875-.695313-1.410156-1.003907-2.117188-.210937-.484375-.347656-.960937-.613281-1.394531-1.265625-2.082031-2.628906-3.335937-4.738281-4.570313-.449219-.261718-.988281-.367187-1.5625-.503906l-.917969-.054687c-.1875-.078125-.382812-.308594-.558593-.417969-.699219-.441406-2.492188-1.402344-3.0117192-.140625-.3242188.796875.4921872 1.574219.7812502 1.980469.207031.28125.46875.601562.613281.917968.097656.210938.113281.421876.195312.640626.203126.546874.378907 1.140624.640626 1.644531.132812.257812.28125.527343.449218.753906.101563.140625.277344.203125.304688.417969-.171875.242187-.183594.617187-.277344.921875-.4375 1.371093-.273438 3.078125.359375 4.097656.195313.3125.652344.980469 1.285156.722656.550781-.222656.425781-.917969.585938-1.53125.035156-.140625.011719-.242187.082031-.335937v.027344l.5 1.003906c.375.597656 1.03125 1.222656 1.589844 1.644531.289062.21875.519531.597656.894531.726563v-.027344h-.03125c-.070313-.113282-.183594-.160156-.277344-.253906-.21875-.210938-.460937-.480469-.640625-.722657-.507812-.691406-.957031-1.445312-1.367187-2.230469-.195313-.375-.363281-.789062-.527344-1.171874-.066406-.144532-.0625-.367188-.195313-.445313-.179687.28125-.445312.507813-.585937.835937-.222656.527344-.253906 1.171876-.335937 1.839844-.046876.019532-.027344.007813-.054688.027344-.386719-.09375-.523438-.492188-.667969-.835938-.367187-.867187-.433593-2.261718-.113281-3.261718.082031-.257813.460938-1.070313.308594-1.308594-.074219-.238281-.3125-.375-.449219-.558594-.164063-.222656-.328125-.519531-.445313-.78125-.296874-.675781-.4375-1.433594-.75-2.117187-.152343-.328125-.40625-.65625-.613281-.949219-.234375-.320312-.492187-.558594-.671875-.945312-.0625-.140626-.148437-.359376-.054687-.503907.03125-.09375.074219-.132812.167969-.164062.160156-.125.613281.039062.78125.109375.445312.1875.820312.363281 1.199218.613281.179688.121094.363282.355469.582032.417969h.253906c.390625.089844.828125.027344 1.195312.140625.648438.195312 1.230469.503906 1.757813.835937 1.605469 1.015625 2.921875 2.457032 3.820312 4.179688.144531.277344.207031.542968.332031.835937.257813.59375.582032 1.203125.835938 1.785157.253906.578124.503906 1.164062.863281 1.644531.191407.253906.921875.390625 1.253907.53125.234374.097656.617187.199219.839843.332031.421875.253906.828125.558594 1.226563.835938.195312.140624.804687.445312.835937.699218zm-12.460937-10.621094c-.203125-.003906-.347656.023438-.5.054688v.027344h.027344c.097656.203125.269531.332031.390624.503906l.277344.585938.027344-.027344c.171875-.125.25-.316406.25-.613282-.070312-.074218-.078125-.164062-.140625-.253906-.078125-.113281-.230469-.179687-.332031-.277344zm0 0" fill="#00618a"/></svg>