<svg height="18" viewBox="0 0 18 18" width="18" xmlns="http://www.w3.org/2000/svg"><path d="m12.375 0v9.910156l3.222656 4.84375.722656-.78125-.027343-10.035156zm-6.820312.0585938-.058594.0625002-2.757813 2.785156 9.777344 14.871094 2.808594-2.808594zm-.019532.2187502 9.613282 14.671875-2.613282 2.613281-9.617187-14.640625zm6.980469.058594 3.640625 3.65625.023438 9.925781-.5625.613281-3.101563-4.664062zm-10.046875 2.738281-.058594.0625-.730468.734375v10.132812l4.007812 3.996094v-10.132812zm-.019531.21875 3.101562 4.613281v9.761719l-3.730469-3.722657v-10.015624zm0 0-.058594.0625-.570313.574219v10.015624l3.726563 3.71875v-9.757812zm-.019531.21875 2.980468 4.4375v9.378906l-3.453125-3.441406v-9.902344zm0 0"/></svg>