<svg height="18" viewBox="0 0 18 18" width="18" xmlns="http://www.w3.org/2000/svg"><path d="m8.289062 16.859375v-3.699219l.101563-.105468h1.238281l.101563.105468v3.699219l-.101563.105469h-1.238281zm0-11.929687v-3.703126l.101563-.101562h1.238281l.101563.101562v3.703126l-.101563.105468h-1.238281zm9.609376 4.835937h-4.9375l-.101563-.101563v-1.238281l.101563-.101562h4.9375l.101562.101562v1.238281zm-12.859376 0h-4.9375l-.101562-.101563v-1.238281l.101562-.101562h4.9375l.105469.101562v1.238281zm6.277344 1.851563h-1.234375l-.105469-.105469v-2.886719c0-.515625-.199218-.914062-.820312-.925781-.320312-.011719-.683594 0-1.074219.015625l-.058593.058594v3.738281l-.105469.101562h-1.234375l-.101563-.101562v-4.933594l.101563-.105469h2.78125c1.078125 0 1.953125.875 1.953125 1.953125v3.085938zm-7.46875-6.863282v-.167968l.847656-.847657h.167969l1.296875 1.296875v.898438l-.117187.117187h-.898438zm1.015625 9.597656h-.167969l-.847656-.847656v-.171875l1.296875-1.296875h.898438l.117187.121094v.898438zm0 0"/></svg>