<svg height="18" viewBox="0 0 18 18" width="18" xmlns="http://www.w3.org/2000/svg"><path d="m3.445312 7.101562c-.210937 0-.351562.167969-.351562.378907v1.984375l-2.234375-2.25c-.113281-.113282-.3125-.140625-.453125-.085938-.140625.058594-.265625.199219-.265625.351563v2.910156c0 .210937.210937.382813.421875.382813s.421875-.171876.421875-.382813v-1.980469l2.265625 2.25c.070312.070313.167969.113282.265625.113282.042969 0 .054687-.015626.097656-.03125.140625-.054688.183594-.195313.183594-.351563v-2.894531c0-.210938-.140625-.394532-.351563-.394532m2.769532 1.660157c-.195313 0-.378906.195312-.378906.394531 0 .195312.183593.390625.378906.390625l.929687.058594-.210937.519531h-1.195313l-.589843-1.109375.601562-1.140625h1.28125l.296875.5625h.773437l-.507812-1.109375-.113281-.15625h-2.191407l-.101562.167969-.828125 1.449218-.097656.183594.097656.183594.816406 1.445312.113281.226563h2.121094l.097656-.238281.605469-1.265625.269531-.605469h-.621093zm2.925781-1.660157c-.195313 0-.421875.183594-.421875.378907v.957031h.84375v-.941406c0-.210938-.226562-.394532-.421875-.394532m4.273437.042969c-.140624-.058593-.335937-.027343-.433593.082031l-2.292969 2.25v-1.980468c0-.210938-.140625-.378906-.351562-.378906-.210938 0-.351563.167968-.351563.378906v2.910156c0 .15625.097656.296875.238281.351562.042969.015626.097656.027344.140625.027344.097657 0 .226563-.042968.296875-.113281l2.277344-2.25v1.984375c0 .210938.140625.378906.351562.378906.210938 0 .351563-.167968.351563-.378906v-2.910156c0-.15625-.085937-.296875-.226563-.351563m3.066407 1.800781 1.183593-1.183593c.152344-.152344.152344-.394531 0-.535157-.15625-.152343-.394531-.152343-.535156 0l-1.183594 1.183594-1.179687-1.183594c-.15625-.152343-.394531-.152343-.535156 0-.152344.15625-.152344.394532 0 .535157l1.183593 1.183593-1.183593 1.179688c-.152344.15625-.152344.394531 0 .535156.070312.070313.167969.113282.269531.113282.097656 0 .195312-.042969.265625-.113282l1.179687-1.183594 1.183594 1.183594c.070313.070313.167969.113282.265625.113282.097657 0 .199219-.042969.269531-.113282.152344-.15625.152344-.394531 0-.535156zm-7.761719 1.445313c0 .199219.210938.382813.421875.382813.195313 0 .421875-.183594.421875-.382813v-1.671875h-.84375zm0 0" fill="#090"/></svg>