<svg height="18" viewBox="0 0 18 18" width="18" xmlns="http://www.w3.org/2000/svg"><path d="m9.015625.195312-8.226563 2.855469 1.179688 10.914063 7.046875 3.839844zm0 0" fill="#412846"/><path d="m8.984375.195312 8.226563 2.855469-1.179688 10.914063-7.046875 3.839844zm0 0" fill="#4b314f"/><path d="m13.105469 6.230469-.011719-.015625c.375.421875.570312.917968.589844 1.492187.007812.570313-.1875 1.175781-.589844 1.8125.296875-.234375.644531-.730469 1.039062-1.488281.167969 1.546875-.464843 2.722656-1.898437 3.527344.460937-.035156 1.0625-.335938 1.8125-.898438-.796875 1.929688-2.265625 2.949219-4.414063 3.050782-2.082031 0-3.417968-1.238282-3.417968-1.238282-.851563-.664062-1.4375-1.503906-1.757813-2.515625-.519531-.550781-.519531-.605469-.574219-.832031-.042968-.222656.039063-.292969.179688-.503906.105469-.152344.128906-.355469.070312-.621094-.121093-.175781-.191406-.453125-.210937-.828125 0-.1875.125-.378906.367187-.578125.242188-.203125.390626-.359375.4375-.460938.046876-.058593.0625-.3125.054688-.761718-.007812-.441406.234375-.679688.730469-.714844.730469-.058594 1.140625-.605469 1.378906-.859375.15625-.167969.378906-.253906.660156-.253906.410157-.011719.773438.140625 1.097657.464843.789062-.042968 1.589843.167969 2.40625.632813 1.160156.683594 1.796874 1.429687 1.910156 2.234375-.128906 1.0625-1.546875 1.03125-4.246094-.082031-1.414062.402343-2.113281 1.269531-2.09375 2.601562 0 1.226563.59375 2.117188 1.785156 2.671875-.578125-.5625-.832031-1.042968-.746094-1.433594 1.199219 1.421876 2.5625 1.957032 4.09375 1.601563-.667968.019531-1.203124-.203125-1.605468-.660156 1.03125-.027344 2.007812-.511719 2.925781-1.449219-.523437.421875-1.082031.582031-1.671875.476562 1.59375-1.246093 2.160156-2.703124 1.699219-4.371093m-2.671875-.4375c0-.125-.097656-.222657-.222656-.222657-.128907 0-.242188.097657-.242188.222657 0 .128906.113281.238281.242188.238281.125 0 .222656-.109375.222656-.238281" fill="#ba2bd2"/></svg>