<svg height="18" viewBox="0 0 18 18" width="18" xmlns="http://www.w3.org/2000/svg"><path d="m9.167969.523438c-2.527344 0-4.808594 1.132812-6.359375 2.921874.230468.015626.457031.054688.675781.117188h.007813c1.433593-1.507812 3.449218-2.457031 5.675781-2.457031h.027343c4.316407 0 7.851563 3.539062 7.851563 7.878906s-3.535156 7.875-7.851563 7.875h-.027343c-4.316407 0-7.851563-3.535156-7.851563-7.875 0-.617187.074219-1.21875.210938-1.796875-.078125-.519531-.175782-.90625-.285156-1.089844-.339844.925782-.511719 1.902344-.511719 2.886719 0 4.660156 3.804687 8.445313 8.4375 8.445313h.027343c4.632813 0 8.445313-3.785157 8.445313-8.445313s-3.8125-8.460937-8.445313-8.460937zm6.589843 5.777343c-.632812-1.804687-2.171874-3.367187-4.097656-4.074219-1.195312-.4375-3.097656-.316406-4.320312.074219-.972656.316407-1.023438.316407-1.925782.851563-.339843.195312-.976562.027344-1.21875.34375-.246093.316406.269532.78125.292969 1.171875 0 .167969.609375-1 .609375-.855469 0 .367188-.414062 1.148438-.488281 1.683594-.144531 1.023437.21875 4.023437.464844 5 .046875.148437.511719-.023438.632812-.074219.195313-.023437.367188-.65625.660157-.851563 1.265624-.902343 1.949218-2.074218 3-2.269531.953124-.171875 2.097656.390625 2.511718 1.171875.21875.414063.390625.878906.390625 1.171875 0 .21875-.074219.339844-.121093.21875-.292969-.828125-.585938-1.464843-.855469-1.683593-.632813-.511719-.925781-.660157-1.851563-.464844-.953125.21875-2.734375 1.953125-3.296875 2.734375-.339843.464843-.460937 1.269531-.21875 1.632812.757813 1.097657 1.367188 1.390625 2.707031 1.488281.050782 0 .441407.269532.269532.269532-1.707032 0-2.5625-.464844-3.707032-2.269532-.121093-.195312-.390624-.925781-.464843-1.144531-.464844-1.246093-.339844-3.320312-.585938-4.980469-.070312-.484374-.171875-1.046874-.414062-1.386718-.390625-.585938-2.757813-.464844-3.097657.144531-.195312.144531-.269531.269531-.125.367187 1.296876.972657 1.296876 2.046876 1.34375 3.097657.050782 1.367187.050782 2.367187.539063 3.636719.972656 2.65625 3.167969 4.414062 5.632813 4.753906 3 .441406 5.171874-.753906 6.808593-2.828125 1.464844-1.855469 1.707031-4.734375.925781-6.929688zm-9.027343-1.5625c.023437-.195312.074219-.65625.21875-.804687.269531-.242188.636719-.390625.953125-.195313.464844.269531.683594.585938.660156 1.097657-.050781.488281-.613281.734374-1.027344.78125.34375-.171876.78125-.363282.707032-.851563-.046876-.171875-.386719-.097656-.511719-.246094-.097657-.121093.023437-.511719-.097657-.535156-.074218 0-.167968 0-.242187.023437-.292969.074219-.5625.339844-.660156.730469m-.5625 3c.101562-.144531.34375-.386719.515625-.632812.242187-.316407.21875-.511719.558594-.875-.292969.484375-.167969.703125-.4375 1-.121094.121093-.246094.316406-.636719.507812zm0 0" fill="#903a36"/></svg>