<svg height="18" viewBox="0 0 18 18" width="18" xmlns="http://www.w3.org/2000/svg"><path d="m9.070312 2.832031s-.6875.542969-1.390624 1.085938c-.988282-.007813-1.96875.136719-2.910157.417969-.707031-.449219-1.332031-.941407-1.332031-.941407s-.53125.914063-.867188 1.449219c-.515624.261719-.996093.578125-1.4375.953125-.515624-.203125-1.1132808-.453125-1.132812-.460937.683594 1.378906 1.144531 2.757812 2.394531 3.589843 1.992188-3.144531 11.234375-2.855469 13.265625-.019531 1.3125-.6875 1.824219-2.15625 2.339844-3.519531-.054688.019531-.757812.253906-1.214844.429687-.386718-.371094-.816406-.695312-1.277344-.972656-.34375-.632812-.847656-1.488281-.847656-1.488281s-.59375.445312-1.285156.925781c-.988281-.21875-1.996094-.328125-3.007812-.328125-.644532-.53125-1.296876-1.121094-1.296876-1.121094m8.351563 5.410157c-.785156 1.042968-1.796875 1.890624-2.957031 2.484374-.617188.25-1.261719.421876-1.917969.511719l-3.515625-1.820312-3.535156 1.785156c-.652344-.101563-1.296875-.265625-1.917969-.492187-1.117187-.605469-2.097656-1.4375-2.871094-2.449219l1.640625 3.976562c2.851563 3.761719 10.132813 4.023438 13.308594.074219.75-1.691406 1.765625-4.070312 1.765625-4.070312" fill="#ffe953"/></svg>