<svg height="18" viewBox="0 0 18 18" width="18" xmlns="http://www.w3.org/2000/svg"><path d="m8.996094 0c-.054688 0-.109375.00390625-.164063.0078125-.109375.0195313-.21875.0546875-.316406.1171875l-6.992187 4.054688.011718.015624c-.253906.167969-.398437.453126-.398437.757813v8.085937c0 .183594.058593.359376.152343.503907l-.019531.035156.03125.039063c.070313.085937.15625.15625.25.214843l6.925781 4.003907.054688.03125c.042969.023437.089844.042968.132812.0625.027344.007812.054688.015624.078126.023437.011718.003906.023437.007813.035156.007813.089844.023437.183594.039062.277344.03125l.003906.007812.050781-.007812c.105469-.019532.226563-.050782.332031-.105469l.003906-.003907 6.964844-4.050781c.214844-.128906.375-.339843.445313-.574219l.007812-.027343-.03125-.058594c.003907-.042969.007813-.085937.007813-.132813v-8.085937c0-.214844-.078125-.417969-.207032-.578125l.007813-.011719-.027344-.035156c-.054687-.070313-.125-.128906-.207031-.167969h.003906l-3.617187-2.089844-3.347657-1.945312c-.078124-.046875-.164062-.078125-.253906-.0976562v-.0039063l-.035156-.0078125c-.015625-.0039062-.03125 0-.042969-.0039062-.007812 0-.015625 0-.019531 0-.035156-.0039063-.066406-.0117188-.097656-.0117188zm-.007813.140625c.027344.003906.054688.007813.082031.007813l-4.945312 8.511718-2.40625-4.417968 6.882812-3.996094c.117188-.066406.25-.101563.386719-.101563zm.320313.085937c.015625.007813.035156.011719.050781.019532h.003906l3.414063 1.972656 3.546875 2.0625c.050781.03125.097656.070312.140625.113281l-2.289063 4.210938zm-.140625.035157 4.929687 8.488281-4.929687 9.074219c-.015625.003906-.027344.003906-.042969.007812l-4.917969-9.027343zm-7.566407 4.054687 2.445313 4.484375-2.675781 4.605469c-.0625-.113281-.09375-.238281-.09375-.367188v-8.085937c0-.257813.117187-.492187.324218-.636719zm14.960938.191406c.085938.128907.140625.285157.140625.445313v7.996094l-2.445313-4.203125zm-2.382812 4.382813 2.503906 4.308594c-.042969.210937-.164063.402343-.359375.511719l-6.949219 4.035156-.007812.003906zm-10.054688.054687 4.851562 8.902344c-.019531 0-.035156 0-.050781-.003906-.035156 0-.066406-.007812-.101562-.011719-.015625-.003906-.03125-.007812-.050781-.015625-.019532-.003906-.039063-.011718-.058594-.019531-.039063-.011719-.074219-.03125-.113282-.050781l-.074218-.042969-6.871094-3.992187c-.078125-.046876-.144531-.105469-.199219-.175782zm0 0" fill="#5fa04e"/></svg>