<svg height="18" viewBox="0 0 18 18" width="18" xmlns="http://www.w3.org/2000/svg"><path d="m9.800781 8.691406c-.097656-.167968-.28125-.296875-.492187-.296875h-.042969c-.320313 0-.574219.253907-.601563.5625-.015624.128907.011719.238281.082032.351563.097656.167968.28125.296875.492187.296875h.042969c.324219 0 .589844-.253907.605469-.5625.011719-.128907-.015625-.238281-.085938-.351563m-.535156.519532c-.109375-.015626-.210937-.113282-.195313-.226563.015626-.109375.113282-.210937.226563-.195313.109375.015626.210937.113282.195313.226563 0 .109375-.113282.210937-.226563.195313m7.34375-5.078126-6.78125-3.90625c-.292969-.1718745-.785156-.1718745-1.082031 0l-6.792969 3.90625c-.292969.171876-.546875.59375-.546875.945313v7.832031c0 .351563.238281.773438.546875.941406l6.78125 3.921876c.292969.171874.785156.171874 1.082031 0l6.777344-3.921876c.296875-.167968.546875-.589843.546875-.941406v-7.832031c.015625-.339844-.238281-.761719-.53125-.945313m-13.515625 8.507813 5.554688-4.230469v.011719c-.125.140625-.210938.324219-.226563.523437-.011719.167969.03125.335938.113281.492188.140625.25.394532.40625.691406.421875h.054688c.070312 0 .125-.015625.183594-.03125zm6.1875-2.992187h-.042969c-.210937-.015626-.40625-.128907-.519531-.324219-.070312-.113281-.097656-.238281-.085938-.367188.03125-.335937.3125-.605469.648438-.605469h.042969c.210937.015626.40625.140626.519531.324219.070312.113281.097656.238281.085938.367188-.03125.335937-.3125.605469-.648438.605469m.617188-.058594c.140624-.140625.226562-.324219.242187-.535156.011719-.167969-.03125-.335938-.113281-.492188-.140625-.25-.410156-.40625-.691406-.421875-.082032 0-.179688 0-.265626.03125l6.441407-2.714844zm0 0" fill="#3d3b47"/></svg>