<svg height="18" viewBox="0 0 18 18" width="18" xmlns="http://www.w3.org/2000/svg" xmlns:xlink="http://www.w3.org/1999/xlink"><linearGradient id="a" gradientTransform="matrix(.0175781 0 0 -.0175781 0 18)" gradientUnits="userSpaceOnUse" x1="205.272003" x2="800.726013" y1="136.063004" y2="855.02301"><stop offset="0" stop-color="#33aae6"/><stop offset=".992" stop-color="#4b3892"/></linearGradient><linearGradient id="b" gradientTransform="matrix(.0175781 0 0 -.0175781 0 18)" gradientUnits="userSpaceOnUse" x1="531.929993" x2="693.400024" y1="357.425995" y2="357.425995"><stop offset="0" stop-color="#3d85c9"/><stop offset="1" stop-color="#4a4198"/></linearGradient><linearGradient id="c" gradientTransform="matrix(.0175781 0 0 -.0175781 0 18)" gradientUnits="userSpaceOnUse" x1="531.919983" x2="944.487976" y1="288.904999" y2="288.904999"><stop offset="0" stop-color="#61c67c"/><stop offset="1" stop-color="#366794"/></linearGradient><linearGradient id="d" gradientTransform="matrix(.0175781 0 0 -.0175781 0 18)" gradientUnits="userSpaceOnUse" x1="843.47998" x2="969.755981" y1="404.529999" y2="404.529999"><stop offset="0" stop-color="#2f6b7f"/><stop offset="1" stop-color="#325d87"/></linearGradient><linearGradient id="e" gradientTransform="matrix(.0175781 0 0 -.0175781 0 18)" gradientUnits="userSpaceOnUse" x1="513.322998" x2="900.783997" y1="718.004028" y2="143.707993"><stop offset="0" stop-color="#3b7fc4"/><stop offset=".467" stop-color="#90b1df"/><stop offset=".764" stop-color="#7381c0"/><stop offset="1" stop-color="#5f5fab"/></linearGradient><path d="m15.625 15.144531c6.601562-9.054687-5.175781-13.523437-10.15625-5.660156-.628906-1.046875-.898438-2.40625-.34375-4.472656-2.300781 2.679687-2.59375 5.464843-.082031 8.394531 2.003906-3.753906 4.527343-4.375 7.148437-4.390625l-.003906 1.917969c-1.183594-.121094-2 .769531-2.835938 1.578125-1.390624 1.035156-2.585937 2.535156-3.367187 4.960937-9.777344-3.675781-6.605469-18.058594 3.761719-17.4023435-1.070313 1.1406255-1.984375 2.3398435-1.929688 3.8945315 7.96875-5.636719 13.539063 5.285156 7.867188 11.125" fill="url(#a)"/><path d="m12.183594 12.511719c-.191406-1.570313-1.730469-1.144531-2.832032 0 .835938-.808594 1.648438-1.699219 2.835938-1.578125zm0 0" fill="url(#b)"/><path d="m12.1875 12.511719-.003906 2.085937c2.167968-1.054687 3.160156-4.46875 3.074218-6.746094 1.84375 2.457032 1.601563 4.863282.421876 7.238282h.003906c-1.609375 1.710937-3.902344 2.8125-6.332032 2.902344v-5.480469c1.101563-1.144531 2.640626-1.570313 2.835938 0" fill="url(#c)"/><path d="m15.679688 15.089844c1.179687-2.375 1.417968-4.78125-.421876-7.238282-.042968-.4375-.164062-.859374-.429687-1.164062 2.730469 1.925781 2.851563 5.644531.851563 8.402344" fill="url(#d)"/><path d="m15.683594 15.089844c1.996094-2.757813 1.875-6.476563-.855469-8.402344-3.105469-1.949219-7.429687 0-9.359375 2.792969 4.996094-7.871094 16.75-3.378907 10.15625 5.664062" fill="url(#e)"/></svg>