<svg height="18" viewBox="0 0 18 18" width="18" xmlns="http://www.w3.org/2000/svg"><path d="m10.722656.0351562c-.027344.0234376-.054687.0664058-.085937.0664058l-1.25.074219-1.484375.105469-.894532.070312-1.617187.140626-.535156.035156-1.25.070312c-.472657.03125-.945313.054688-1.414063.109375-.902344.101563-1.664062.648438-1.839844 1.675781-.015624.097657-.035156.195313-.035156.289063v10.015625c0 .445312.136719.882812.394532 1.246094.433593.628906.90625 1.226562 1.367187 1.835937.375.496094.742187.996094 1.132813 1.476563.28125.351562.648437.59375 1.082031.71875.03125.007812.058593.03125.09375.058594.722656.011718 1.4375.011718 2.152343.011718.027344-.023437.054688-.066406.085938-.066406l.941406-.039062 1.820313-.105469 1.105469-.070313 1.804687-.105468 1.125-.070313c.59375-.035156 1.191406-.058594 1.785156-.109375.378907-.03125.769531-.0625 1.136719-.160156.695312-.183594 1.136719-.65625 1.335938-1.347656.042968-.152344.070312-.3125.070312-.46875v-11.304688c0-.359375-.121094-.695312-.390625-.933594-.363281-.320312-.753906-.613281-1.148437-.894531-.847657-.609375-1.695313-1.21875-2.566407-1.796875-.300781-.199219-.660156-.308594-.992187-.457031-.035156-.0156252-.066406-.0351565-.09375-.058594zm1.101563 1.0507818c.519531.003906.980469.171874 1.414062.488281l3.097657 2.183593c.257812.179688.367187.40625.367187.726563l-.003906 10.667969v.140625c-.011719.652343-.328125 1.003906-.976563 1.054687l-2.191406.140625-4.398438.265625-3.914062.234375c-.574219.039063-1.03125-.140625-1.347656-.636719-.0625-.105468-.148438-.195312-.222656-.292968l-1.738282-2.242188c-.363281-.464844-.550781-.972656-.546875-1.582031l.007813-9.316406c0-.117188.011718-.234375.03125-.347657.082031-.453124.367187-.734374.828125-.777343l2.273437-.175781 3.628906-.269532 3.46875-.253906c.074219-.007812.148438-.011719.222657-.007812m-.125.898437-1.417969.097656-6.742188.492188c-.207031.011719-.410156.027343-.613281.0625-.066406.015625-.152343.082031-.171875.144531-.015625.042969.050782.128906.101563.175781.09375.089844.199219.164063.300781.242188.238281.191406.492188.363281.710938.570312.417968.394531.902343.484375 1.457031.445313l4.363281-.273438 4.699219-.28125.179687-.03125c-.085937-.089844-.136718-.160156-.203125-.207031-.230469-.171875-.460937-.339844-.695312-.503906-.359375-.25-.714844-.5-1.074219-.746094-.289062-.15625-.585938-.207031-.894531-.1875m3.402343 2.730469-3.242187.1875-4.558594.265625-2.28125.136719c-.289062.019531-.421875.144531-.464843.429687-.007813.074219-.015626.148437-.011719.226563v9.207031c.007812.394531.199219.589843.59375.613281l.296875-.003906 3.296875-.195313 6.296875-.359375c.390625-.023437.574218-.195312.609375-.582031l.003906-.210937v-9.070313c0-.050781.003906-.105469 0-.15625-.023437-.359375-.179687-.507813-.535156-.488281m-1.027344 1.699218c.082031.390626-.007813.535157-.375.609376-.363281.074218-.363281.074218-.363281.4375l.007812 6.257812c0 .144531-.042968.21875-.171875.261719-.242187.078125-.484375.179687-.730469.230469-.398437.085937-.753906-.019532-.992187-.363282-.335937-.484375-.664063-.976562-.984375-1.472656l-2.175781-3.394531-.070313-.097657v4.578126l.945313.214843c-.039063.296875-.195313.476563-.492188.523438l-.679687.054687-1.730469.101563c-.078125-.246094.019531-.4375.246094-.503907l.511719-.144531v-6.085937l-.75-.066406c-.097657-.339844.113281-.667969.460937-.699219l1.421875-.105469.769531-.050781c.117188-.011719.179688.019531.242188.117187l1.808593 2.753906v.003907c.421876.636719.839844 1.277343 1.261719 1.914062v-4.242187l-.664062-.074219c-.132813-.007813-.15625-.066406-.136719-.179687.035156-.230469.214844-.429688.453125-.445313zm0 0"/></svg>