<svg height="18" viewBox="0 0 18 18" width="18" xmlns="http://www.w3.org/2000/svg"><path d="m9.015625 0-3.007813 1.503906 3.128907 1.574219 2.917969-1.554687zm0 .15625 2.734375 1.371094-2.617188 1.394531-2.816406-1.417969zm-4.242187 1.960938-.03125.015624-3.390626 1.691407 3.214844 1.613281 3.335938-1.742188zm8.507812.023437-.03125.015625-2.90625 1.53125 3.277344 1.652344 3.019531-1.515625zm-8.507812.132813 2.824218 1.421874-3.035156 1.585938-2.898438-1.457031zm8.507812.023437 3.050781 1.527344-2.710937 1.363281-2.976563-1.503906zm-4.167969 2.011719-.03125.015625-3.296875 1.726562 3.210938 1.613281 3.390625-1.703124zm0 .15625 2.964844 1.496094-3.082031 1.546874-2.90625-1.460937zm-8.515625.136718v9.195313l2.234375 1.195313v-4.558594l1.292969 2.492187.988281 1.898438.332031.636719.09375.183593c.023438.042969.039063.074219.039063.070313.011719.027344.09375.191406.207031.371094.117188.179687.265625.382812.433594.496093.414062.273438 2.15625 1.320313 2.15625 1.320313l.105469.0625v-9.34375l-2.492188-1.253906v4.917968c-.222656-.476562-2.757812-5.863281-3.015625-6.398437-.027344-.058594-.078125-.09375-.125-.128907-.039062-.023437-.074218-.046874-.113281-.070312h-.003906c-.519531-.269531-2.03125-1.035156-2.03125-1.035156zm16.804688.128907-.101563.050781-3.027343 1.503906.003906 4.0625 3.125-1.589844zm-16.664063.097656c.136719.070313 1.4375.726563 1.929688.984375.015625.007812.058593.03125.097656.058594.042969.027344.078125.066406.082031.078125.265625.546875 3.148438 6.675781 3.148438 6.675781l.132812-.027344v-5.003906l2.214844 1.113281-.003906 9.011719c-.15625-.09375-1.664063-1.003906-2.042969-1.253906-.136719-.089844-.28125-.28125-.394531-.453125-.109375-.171875-.183594-.328125-.199219-.359375h-.003906c-.011719-.023438-.023438-.046875-.035157-.074219l-.09375-.179687-.332031-.636719-.988281-1.898438c-.714844-1.378906-1.429688-2.746093-1.429688-2.746093l-.128906.03125v4.613281l-1.953125-1.046875zm16.523438.128906v3.71875l-2.84375 1.445313-.003907-3.75zm-4.058594 1.863281-.101563.046876-3.527343 1.753906v4.054687l3.632812-1.804687zm-.140625.222657.003906 3.742187-3.351562 1.667969v-3.746094zm4.339844 2.941406-.101563.050781-3.023437 1.527344.003906 4.089844 3.121094-1.558594zm-.140625.226563v3.796874l-2.839844 1.417969-.003906-3.777343zm-4.054688 1.878906-3.632812 1.816406v4.09375l3.636719-1.8125zm-.140625.226562.003906 3.785156-3.355468 1.671876v-3.78125zm0 0" fill="#4dabcf"/></svg>