<svg height="18" viewBox="0 0 18 18" width="18" xmlns="http://www.w3.org/2000/svg"><path d="m9.015625 0-2.882813 1.441406 3.003907 1.515625 2.796875-1.496093zm-4.285156 2.140625-3.300781 1.644531 3.085937 1.550782 3.21875-1.679688zm8.597656.023437-2.820313 1.484376 3.160157 1.59375 2.898437-1.457032-3.238281-1.625zm-4.210937 2.1875-3.214844 1.683594 3.09375 1.550782 3.273437-1.640626zm-8.539063.335938v9.136719l2.117187 1.132812v-4.777343s2.878907 5.53125 2.90625 5.59375c.03125.058593.320313.640624.628907.847656.410156.273437 2.171875 1.332031 2.171875 1.332031l.003906-9.273437-2.378906-1.199219v5.171875s-2.914063-6.191406-3.179688-6.75c-.035156-.070313-.179687-.148438-.214844-.167969-.523437-.273437-2.054687-1.046875-2.054687-1.046875m16.84375.128906-3.019531 1.5.003906 3.949219 3.015625-1.535156zm-4.246094 2.109375-3.523437 1.753907v3.941406l3.527344-1.753906zm4.246094 3.203125-3.015625 1.519532v3.976562l3.015625-1.5zm-4.238281 2.128906-3.53125 1.761719v3.980469l3.53125-1.761719zm0 0" fill="#4dabcf"/></svg>