<svg height="18" viewBox="0 0 18 18" width="18" xmlns="http://www.w3.org/2000/svg"><g fill="none" stroke="#fff" stroke-linecap="round" stroke-linejoin="round" stroke-width="2" transform="scale(.75)"><path d="m12 4v-2m-7 8v4c0 3.203125 2.171875 5.994792 5.276042 6.786458.411458.104167.802083.291667 1.104166.59375l.619792.619792.619792-.619792c.302083-.302083.692708-.489583 1.104166-.59375 3.104167-.786458 5.276042-3.583333 5.276042-6.786458v-4"/><path d="m12 4c-4 0-7.5 2-8 4-.244792.96875-.916667 1.953125-2 3 1.3125-.083333 1.973958-.291667 3-1 .541667.921875.984375 1.354167 2 2 1.453125-.645833 1.953125-1.098958 2.5-2 .59375.994792 1.151042 1.427083 2.5 2 1.3125-.619792 1.864583-1.057292 2.5-2 .630208.979167 1.161458 1.421875 2.5 2 1.208333-.546875 1.682292-.96875 2-2 1.03125.916667 1.682292 1.15625 3 1-1.296875-1.036458-1.760417-2.03125-2-3-.5-2-4-4-8-4"/></g></svg>