<svg height="18" viewBox="0 0 18 18" width="18" xmlns="http://www.w3.org/2000/svg"><path d="m9.085938 0c-.246094 0-.488282.0078125-.730469.0273438-1.042969.0703124-2.222657.3828122-2.925781.6914062-.566407.25-1.207032.625-1.734376 1-1.3125.9375-2.378906 2.292969-3.003906 3.851562-.128906.324219-.292968.671876-.382812 1-.386719 1.40625-.355469 3.046876-.078125 4.3125.691406 3.167969 2.550781 4.996094 4.96875 6.277344 2.167969 1.148438 5.480469 1.117188 7.851562-.078125 1.417969-.714843 2.550781-1.800781 3.425781-3.117187.851563-1.28125 1.507813-3.027344 1.503907-5.042969-.003907-1.859375-.746094-3.664063-1.503907-4.851563-1.414062-2.226562-3.820312-4.07421825-7.390624-4.070312m.042968.433594c2.671875-.003906 4.757813 1.257812 6.078125 2.710937.375.410157.746094.816407 1 1.234375.472657.765625.773438 1.671875 1.003907 2.539063.859374 3.25-.433594 6.335937-2.042969 8.007812-1.199219 1.25-2.675781 2.097657-4.617188 2.464844-2.1875.414063-4.285156-.125-5.777343-.964844-1.53125-.859375-2.617188-2.082031-3.425782-3.65625-.78125-1.515625-1.144531-3.933593-.578125-5.929687.507813-1.792969 1.375-3.28125 2.734375-4.347656.941406-.742188 2.027344-1.429688 3.503906-1.8125.53125-.136719 1.019532-.195313 1.578126-.230469.179687-.011719.359374-.015625.542968-.015625zm-.207031.375c-.175781.003906-.351563.011718-.527344.027344-2.292969.195312-3.898437 1.222656-5.121093 2.425781-.859376.839843-1.5 1.875-1.925782 3.078125-.277344.785156-.421875 1.628906-.441406 2.484375v.085937c0 .261719.007812.527344.03125.789063v.007812c.066406.785157.242188 1.5625.523438 2.292969.601562 1.535156 1.578124 2.773438 2.964843 3.734375 1.023438.710937 2.398438 1.289063 3.960938 1.421875.03125.003906.0625.007812.09375.007812.375.027344.75.027344 1.125 0 .03125 0 .058593-.003906.089843-.003906h.007813c2.558594-.21875 4.429687-1.53125 5.660156-3.042968.3125-.386719.625-.824219.808594-1.347657.175781-.375.261719-.632812.34375-.769531.316406-.703125.492187-1.445312.5625-2.253906l.003906-.058594c.003907-.050781.007813-.101562.011719-.152344.015625-.230468.019531-.460937.015625-.695312 0-.027344-.003906-.058594-.003906-.085938-.054688-2.371094-1.039063-4.25-2.359375-5.570312-.707032-.707032-1.578125-1.347656-2.617188-1.734375-.878906-.324219-1.851562-.605469-2.960937-.632813-.027344 0-.058594-.003906-.085938-.003906-.054687 0-.105469-.003906-.160156-.003906zm-.503906.554687h.367187l-.003906.71875c0 .1875.09375.277344.238281.277344s.238281-.085937.238281-.265625l.003907-.730469.363281.003907-.003906.714843c0 .417969-.242188.601563-.609375.597657-.367188 0-.597657-.1875-.59375-.589844zm2.242187.183594 1.085938.332031-.09375.300782-.371094-.113282-.285156.9375-.34375-.105468.285156-.9375-.371094-.113282zm-3.757812.113281.921875 1.070313-.367188.117187-.160156-.191406-.472656.152344-.019531.25-.359376.117187.128907-1.410156zm-.039063.457032-.027343.394531.277343-.085938zm5.851563.179687.296875.199219-.265625.402344.382812.253906.265625-.402344.300781.199219-.71875 1.078125-.296874-.199219.273437-.410156-.382813-.253907-.273437.410157-.300781-.199219zm-7.703125.335937c.226562-.011718.441406.089844.570312.273438h.003907c.21875.300781.152343.722656-.167969.957031-.324219.234375-.738281.167969-.957031-.132812v-.003907c-.21875-.296874-.15625-.71875.167968-.953124.121094-.085938.253906-.132813.382813-.140626zm-.003907.339844c-.070312 0-.136718.023438-.191406.0625-.160156.117188-.171875.324219-.0625.472656l.003906.003907c.109376.152343.3125.203125.472657.085937.160156-.113281.171875-.320312.0625-.472656h-.003907c-.070312-.097656-.175781-.152344-.28125-.152344m3.9375.324219c.027344 0 .058594.003906.085938.003906l.011719.011719.011719-.011719c.027343 0 .054687-.003906.085937 0l-.054687.050781.613281.613282.523437-.519532c.019532.003907.042969.007813.066406.015626l-.546874.546874.609374.613282.613282-.613282-.503906-.503906c.039062.011719.078124.023438.117187.035156l.429687.425782.203126-.203125.058593.027343-.21875.21875.613281.613282.417969-.417969c.019531.011719.035157.023437.050781.03125l-.425781.429687.613281.613282.457032-.457032.039062.042969-.457031.457031.613281.613282.457032-.457032.042968.042969-.457031.457031.613281.609376.324219-.324219.03125.054687-.3125.3125.613281.613282.085938-.085938c.007812.023438.015625.042969.023437.0625l-.066406.066406.132813.132813c.011718.039062.023437.078125.035156.121093l-.210938-.210937-.613281.613281.613281.613282.339844-.339844.011719.074218-.308594.308594.34375.34375v.082032l-.386719-.386719-.613281.613281.613281.613281.351563-.351562c0 .03125-.007813.0625-.011719.097656l-.296875.296875.207031.210938c-.003906.023437-.007812.046874-.015625.070312l-.234375-.238281-.613281.613281.539063.539062c-.007813.019532-.015626.039063-.023438.058594l-.558594-.554687-.613281.613281.613281.613281.445313-.445312c-.027344.054687-.054688.109375-.082031.160156l-.003907.011719-.316406.3125.113281.113281c-.011718.019531-.019531.035156-.03125.054687l-.125-.125-.613281.613282.203125.203125c-.011719.015625-.027344.03125-.039062.046875l-.207032-.207032-.609375.613282.1875.191406c-.015625.011719-.027343.023438-.046875.039062l-.183594-.1875-.613281.613282.070313.070312c-.015625.011719-.035156.019532-.054688.03125l-.058594-.0625-.191406.191406c-.050781.027344-.105468.050782-.160156.078126l.308594-.308594-.613282-.613282-.613281.613282.484375.480468c-.019531.007813-.042968.015626-.0625.023438l-.464844-.464844-.609374.613282.085937.089843c-.023437.003907-.046875.007813-.074219.011719l-.054687-.058594-.074219.070313c-.03125.003906-.0625.007812-.09375.011719l.125-.125-.613281-.613282-.613281.613282.132812.136718c-.03125-.003906-.0625-.007812-.09375-.007812l-.082031-.085938-.066407.066406c-.023437-.003906-.046874-.007812-.070312-.011718l.09375-.097656-.613281-.613282-.480469.484375c-.019531-.007812-.042969-.015625-.0625-.023437l.5-.5-.609375-.613282-.613281.613282.371094.371094c-.050782-.019532-.101563-.042969-.148438-.066407l-.265625-.265625-.09375.09375c-.015625-.007812-.035156-.019531-.054687-.027344l.105468-.105468-.613281-.613282-.238281.238282c-.015625-.011719-.035156-.023438-.050782-.035156l.246094-.246094-.613281-.613282-.273437.273438c-.015626-.011719-.027344-.027344-.042969-.042969l.273437-.273437-.609375-.613282-.203125.203126c-.011718-.015626-.023437-.035157-.035156-.050782l.195312-.195312-.613281-.609375h-.003906c-.03125-.074219-.042969-.101563-.0625-.152344l.066406.066406.613281-.613281-.613281-.613281-.289062.289062c-.003907-.023437-.011719-.046875-.015625-.070312l.261718-.261719-.324218-.324219c-.003906-.03125-.003906-.058593-.003906-.089843l.371093.371093.613281-.613281-.613281-.613281-.386719.386719c0-.027344.003907-.058594.003907-.085938l.339843-.34375-.304687-.300781c.003906-.027344.003906-.054688.007813-.078125l.339843.339844.613281-.613282-.613281-.613281-.226562.226563c.007812-.039063.019531-.078126.03125-.113282l.152343-.15625-.078124-.078125c.007812-.019531.015624-.042969.023437-.0625l.097656.097657.613281-.613282-.332031-.328125c.011719-.019531.019531-.039062.03125-.054687l.34375.339844.609375-.609376-.464844-.46875c.011719-.015624.027344-.03125.039063-.046874l.46875.472656.613281-.613282-.492187-.492187c.015625-.015625.03125-.027344.046875-.042969l.488281.492188.613281-.613282-.414062-.414062c.019531-.007812.035156-.019531.054687-.03125l.402344.402344.613281-.613282-.203125-.199218c.019531-.007813.039063-.019532.0625-.027344l.183594.183594.378906-.378906.125-.039063-.464843.460937.613281.613282.613281-.613282-.53125-.53125.066406-.019531.507813.507813.613281-.613282zm.097657.097656-.613281.613281.613281.613282.613281-.613282zm-1.964844.65625-.613281.613281.613281.613282.609375-.613282zm1.308594 0-.613281.613281.613281.613282.613281-.613282zm1.3125 0-.613281.613281.613281.613282.613281-.613282zm1.308593 0-.613281.613281.613281.613282.613282-.613282zm-4.585937.65625-.613281.613281.613281.613282.613281-.613282zm1.308594 0-.613281.613281.613281.613282.011719-.011719c-.027344.050781-.046876.097656-.066407.152344l-.558593.554687.292968.292969-.019531.0625-.3125-.3125-.613281.613281.613281.613282.03125-.035157-.039063.125-.605468.609375.316406.316406-.023438.0625-.335937-.339843-.613281.613281.613281.613281.085937-.085937-.039062.125-.003906.003906v.003906l-.019532.0625-.023437-.023437-.613281.613281.34375.34375-.023438.0625-.363281-.363281-.613281.613281.613281.613281.144531-.144531c-.007812.03125-.015625.066406-.019531.101562l-.082031.082032.074218.078125c0 .027343 0 .058593.003907.085937l-.121094-.121094-.613281.613282.613281.613281.476563-.476563c.015624.015626.03125.023438.050781.035157l-.484375.484375.613281.613281.613281-.613281-.332031-.332032c.03125.007813.066406.011719.101563.015626l.273437.273437.609375-.613281-.078125-.078125c.011719-.019531.019531-.035157.03125-.054688l.089844.089844.613281-.613281-.378906-.378906.019531-.0625.402344.402343.613281-.613281-.199219-.199219h.085938l.15625.15625.15625-.15625h.082031l-.195312.199219.613281.613281.472656-.476562.019531.066406-.449218.449219.609374.613281.152344-.148437c.007813.019531.015625.039062.027344.054687l-.136719.136719.613281.613281.273438-.273437c.023438.003906.050781.007812.074219.007812h.003906l-.308594.308594.613281.613281.613282-.613281-.4375-.4375c.015625-.011719.03125-.027344.046875-.035156l.433593.429687.613282-.613281-.613282-.613282-.019531.019532c0-.042969.003907-.082032 0-.125l.019531.023437.613282-.613281-.613282-.613281-.300781.296875-.019531-.0625.277344-.277344-.554688-.554688-.050781-.152343.605469-.605469-.613282-.613281-.296874.300781-.023438-.066406.277344-.273438-.550782-.554687-.050781-.152344.601563-.605469-.613282-.613281-.296874.296875-.019532-.0625.273438-.277344-.546875-.546875-.003907-.015625c-.015624-.046875-.035156-.09375-.058593-.136718l.609375-.609376-.613282-.613281-.609374.613281.195312.195313c-.046875-.019531-.09375-.039063-.140625-.054687l-.097656-.097657-.0625.0625c-.027344-.003906-.054688-.007812-.078125-.007812l.097656-.097657-.613281-.613281-.613281.613281.097656.097657c-.023438 0-.050782.003906-.078125.007812l-.0625-.0625-.097657.097657c-.050781.015624-.097656.035156-.144531.058593l.199219-.199219zm3.933593 0-.613281.613281.613281.613282.613282-.613282zm-5.898437.65625-.613281.613281.613281.609376.613281-.609376zm1.3125 0-.613281.613281.613281.609376.609375-.609376zm3.929687 0-.613281.613281.613281.609376.613282-.609376zm1.3125 0-.613281.613281.613281.609376.613282-.609376zm-3.742187.230469h.933594c.324219 0 .628906.214844.730469.527344l1.847656 5.5625c.128906.402344-.082032.839844-.488282.972656-.078124.023438-.160156.039062-.246093.039062-.324219 0-.621094-.203124-.730469-.527343l-.433594-1.328125h-2.210937l-.40625 1.316406c-.105469.320312-.402344.535156-.738281.539062-.078126-.003906-.160157-.015624-.238282-.039062-.402344-.121094-.628906-.558594-.503906-.964844l1.753906-5.558594c.101563-.316406.394532-.539062.730469-.539062m-3.46875.425781-.613281.609375.613281.613282.613281-.613282zm1.3125 0-.613281.609375.613281.613282.613281-.613282zm5.242187 0-.613281.609375.613281.613282.613282-.613282zm1.308594 0-.609375.609375.609375.613282.613282-.613282zm-8.519531.652344-.609375.613281.609375.613282.613281-.613282zm1.3125 0-.613281.613281.613281.613282.613281-.613282zm6.554687 0-.613281.613281.613281.613282.609376-.613282zm1.308594 0-.613281.613281.613281.613282.613282-.613282zm-8.519531.65625-.613281.613281.613281.613282.613281-.613282zm1.3125 0-.613281.613281.613281.613282.613281-.613282zm5.242187 0-.613281.613281.613281.613282.613282-.613282zm1.308594 0-.613281.613281.613281.613282.613282-.613282zm-8.519531.65625-.609375.613281.609375.613282.613281-.613282zm1.3125 0-.613281.613281.613281.609375.613281-.609375zm6.554687 0-.613281.613281.613281.609375.609376-.609375zm1.308594 0-.613281.613281.613281.609375.613282-.609375zm-8.519531.652344-.613281.613281.613281.613281.613281-.609375zm7.863281 0-.613281.613281.613281.613281.613282-.609375zm-8.515625.65625-.613281.613281.613281.613281.609375-.613281zm1.308594 0-.613281.613281.613281.613281.613281-.613281zm6.554687 0-.613281.613281.613281.613281.613282-.613281zm1.308594 0-.613281.613281.613281.613281.613282-.613281zm-8.519531.65625-.613281.613281.613281.613281.613281-.613281zm7.863281 0-.613281.613281.613281.613281.613282-.613281zm-8.515625.65625-.613281.613281.613281.613281.609375-.613281zm.652344.65625-.613281.609375.613281.613281.613281-.613281zm3.933594 0-.613281.609375.613281.613281.613281-.613281zm3.929687 0-.613281.609375.613281.613281.613282-.613281-.609376-.609375zm-4.585937.652343-.613281.613282.613281.613281.613281-.613281zm1.3125 0-.613281.613282.613281.613281.613281-.613281zm-1.96875.65625-.613281.613282.613281.613281.613281-.613281zm1.3125 0-.613281.613282.613281.613281.613281-.613281zm1.308593 0-.609374.613282.609374.613281.613282-.613281zm-1.964843.65625-.613281.613282.613281.613281.613281-.613281zm1.3125 0-.613281.613282.613281.613281.613281-.613281zm3.570312.589844c.195313.007813.378907.101563.5.253906v.003907c.230469.289062.183594.710937-.128906.960937-.316406.246094-.730469.195313-.960937-.09375l-.003907-.003906c-.230469-.292969-.179687-.714844.132813-.960938.109375-.089843.242187-.140624.378906-.15625.027344-.003906.054688-.003906.082031-.003906zm-8.023437.316406.308594.183594-.253907.421875.394531.238281.253907-.421874.308593.183593-.667968 1.109375-.304688-.183594.246094-.417968-.394531-.234375-.246094.414062-.308594-.183593zm7.949218.03125c-.070312 0-.136718.023438-.1875.066407-.15625.125-.160156.332031-.046874.476562l.003906.003907c.113281.144531.320312.191406.476562.066406.15625-.121094.160156-.328125.042969-.472656l-.003906-.003907c-.070313-.089843-.179688-.144531-.285157-.136719zm-1.386718.542969-.0625 1.414063-.324219.117187-.96875-1.027343.359375-.136719.167969.183593.46875-.171874.007812-.246094zm-4.539063.363281.347657.09375-.253907.949219.375.097657-.082031.304687-1.097656-.296875.082031-.300781.375.101562zm1.996094.238282c.367187-.015625.605469.160156.625.566406l.03125.726562-.363281.015626-.03125-.71875c-.007813-.1875-.109375-.273438-.25-.265626-.144532.007813-.234375.09375-.226563.277344l.03125.726563-.363281.015625-.03125-.714844c-.019531-.417969.210938-.613281.578125-.628906zm2.179687.078125-.269531.097656.261719.296875zm0 0"/></svg>