<svg height="18" viewBox="0 0 18 18" width="18" xmlns="http://www.w3.org/2000/svg"><path d="m9.140625 16.222656c-.0625-.125-.140625-.394531-.191406-.507812-.050781-.097656-.203125-.378906-.277344-.46875-.164063-.1875-.203125-.203125-.253906-.453125-.089844-.433594-.304688-1.191407-.570313-1.71875-.140625-.28125-.367187-.507813-.570312-.714844-.175782-.175781-.582032-.464844-.65625-.453125-.671875.125-.875.785156-1.191406 1.304688-.175782.289062-.351563.527343-.492188.835937-.128906.277344-.117188.59375-.328125.832031-.214844.238282-.375.519532-.46875.824219-.027344.0625-.078125.695313-.140625.847656l.984375-.0625c.925781.0625.660156.414063 2.089844.34375l2.265625-.078125c-.054688-.183594-.121094-.359375-.203125-.53125zm6.582031-15.0625h-13.445312c-1.25-.003906-2.2656252 1.011719-2.2656252 2.265625v4.933594c.3320312-.113281.7851562-.808594.9375002-.972656.253906-.289063.304687-.671875.429687-.898438.292969-.53125.34375-.910156 1-.910156.304688 0 .429688.074219.632813.355469.140625.1875.390625.554687.507812.796875.140625.277343.351563.644531.457031.71875.070313.050781.136719.101562.199219.125.101563.039062.191407-.035157.269531-.085938.085938-.078125.125-.214843.214844-.417969.125-.292968.253906-.621093.324219-.746093.128906-.203125.179687-.457031.316406-.570313.207031-.175781.484375-.191406.558594-.203125.417969-.085937.609375.203125.8125.378907.136719.128906.316406.367187.457031.683593.097656.253907.226563.496094.289063.632813.050781.136718.179687.367187.253906.644531.074219.242187.253906.429687.328125.558594 0 0 .113281.304687.769531.582031.199219.085938.402344.15625.609375.214844.292969.101562.570313.089844.925782.050781.25 0 .390624-.367187.503906-.660156.0625-.175781.140625-.667969.175781-.808594.039063-.140625-.058594-.238281.027344-.367187.101562-.136719.164062-.152344.214843-.328126.128907-.394531.835938-.40625 1.242188-.40625.339844 0 .289062.328126.859375.214844.332031-.0625.648437.039063.988281.140625.292969.074219.570313.164063.734375.355469.101563.125.367188.746094.101563.769531.023437.027344.050781.089844.085937.113281-.0625.242188-.316406.066407-.46875.039063-.1875-.039063-.328125 0-.515625.085937-.328125.140626-.796875.128907-1.085937.371094-.242188.203125-.242188.644532-.359375.894532 0 0-.316406.800781-.984375 1.292968-.179688.128906-.519531.429688-1.253907.542969-.332031.050781-.644531.050781-.988281.039063-.164062-.011719-.328125-.011719-.492187-.011719-.101563 0-.433594-.015625-.417969.023437l-.039063.089844c.003907.042969.011719.085938.023438.128906.015625.070313.015625.136719.027344.199219 0 .140625-.011719.292969 0 .433594.011718.289062.125.554687.140625.855469.011719.332031.175781.6875.339843.953124.066407.101563.152344.113282.191407.242188.050781.136719 0 .300781.027343.453125.085938.59375.261719 1.226563.53125 1.773437v.011719c.328126-.050781.667969-.175781 1.101563-.238281.796875-.117188 1.898437-.066406 2.605469-.128906 1.800781-.164063 2.773437.734375 4.378906.367187v-13.316406c-.007812-1.25-1.023438-2.265625-2.277344-2.265625zm-6.710937 10.632813c0-.027344 0-.027344 0 0m-4.84375 2.074219c.125-.28125.199219-.582032.300781-.859376.101562-.265624.253906-.648437.515625-.785156-.03125-.039062-.554687-.050781-.691406-.0625-.152344-.011718-.304688-.039062-.457031-.0625-.289063-.054687-.578126-.113281-.863282-.179687-.164062-.039063-.730468-.238281-.84375-.289063-.292968-.125-.484375-.496094-.699218-.457031-.136719.027344-.277344.074219-.367188.214844-.074219.117187-.101562.316406-.152344.457031-.058594.152344-.164062.304688-.238281.457031-.179687.261719-.46875.503907-.59375.769531-.0273438.0625-.0390625.125-.0664062.191407v3.046875c.1523432.027344.3046872.054687.4687502.105468 1.265625.339844 1.570312.367188 2.808593.226563l.113282-.015625c.089844-.199219.167968-.871094.230468-1.074219.050782-.164062.113282-.289062.140626-.441406.023437-.152344 0-.304687-.015626-.441406-.023437-.371094.265626-.496094.410157-.800781zm0 0"/></svg>