<svg height="18" viewBox="0 0 18 18" width="18" xmlns="http://www.w3.org/2000/svg"><path d="m15 9-6 6m-6.411458 1.723958c-.380209-.375-.588542-.880208-.588542-1.411458v-6.625c0-.53125.208333-1.036458.588542-1.411458l4.6875-4.6875c.375-.380209.880208-.588542 1.411458-.588542h6.625c.53125 0 1.036458.208333 1.411458.588542l4.6875 4.6875c.380209.375.588542.880208.588542 1.411458v6.625c0 .53125-.208333 1.036458-.588542 1.411458l-4.6875 4.6875c-.375.380209-.880208.588542-1.411458.588542h-6.625c-.53125 0-1.036458-.208333-1.411458-.588542zm6.411458-7.723958 6 6" fill="none" stroke="#fff" stroke-linecap="round" stroke-linejoin="round" stroke-width="2" transform="scale(.75)"/></svg>