<svg height="18" viewBox="0 0 18 18" width="18" xmlns="http://www.w3.org/2000/svg"><path d="m17.632812 10.425781c-.050781-.082031-.132812-.140625-.191406-.21875-.035156-.042969-.078125-.085937-.113281-.132812-.0625-.089844-.101563-.152344-.195313-.214844-.050781-.03125-.109374-.050781-.171874-.066406-.035157-.007813-.09375-.015625-.105469-.042969-.007813-.023438.03125-.140625.023437-.1875-.023437-.136719-.101562-.234375-.191406-.304688-.03125-.023437-.050781-.058593-.085938-.078124-.042968-.023438-.105468-.023438-.148437-.015626-.039063.007813-.074219-.003906-.117187.003907-.117188.019531-.265626.09375-.304688.1875l-.007812.007812c-.050782-.097656-.066407-.101562-.152344-.160156l-.0625-.042969-.023438-.003906v-5.375c-.007812-.109375-.101562-.195312-.210937-.1875h-13.703125c-.050782-.003906-.097656.015625-.132813.050781-.035156.039063-.050781.085938-.046875.136719v5.722656l-.035156.046875-.003906.003907c-.015625-.03125-.019532-.066407-.035156-.09375-.050782-.089844-.128907-.15625-.21875-.203126-.078126-.035156-.253907-.03125-.332032.003907l-.015625.015625c-.058593.019531-.125.03125-.15625.074218l-.042969.0625c-.015624.019532-.039062.035157-.050781.058594-.023437.046875-.011719.09375-.011719.152344 0 .167969.003907.316406.050782.4375l-.070313.085938-.121093.136718-.085938.121094-.042969.03125-.027343.039062-.035157.027344c-.035156.042969-.070312.085938-.105469.132813-.015624.023437-.039062.042969-.050781.070312-.054687.183594.007813.425781.152344.472657l-.03125.140624c.007813.042969.03125.085938.039063.117188l-.011719.058594c-.011719.046875-.019531.121094-.011719.175781.027344.15625.015625.335937.050781.480469l-.003906.09375c.007813.042968.023437.085937.035156.125l.03125.273437c.050781.226563.089844.492188.085938.769531l-.066407.035157c-.070312.046875-.148437.097656-.1875.175781-.023437.042969-.03125.109375-.019531.152344.039063.152344.132813.183594.28125.226562l.144531.03125c.023438.152344.066407.234375.179688.300782.03125.019531.070312.023437.113281.035156.203125.054687.382813-.023438.46875-.15625l.023438-.09375c.007812-.03125.023437-.074219.03125-.109375.023437-.125.011719-.269531.015625-.40625l.015625-.386719v-.191406l-.023438-.335938.007813-.132812c.042968.089844-.007813.179687.011718.289062l.019532.085938.003906.09375v.117187l.039062.148438c.011719.027343.035157.0625.046876.089843.007812.03125-.019532.078126-.023438.101563-.015625.082031.027344.195313.066406.238281.074219.089844.261719.121094.390625.066406.035157-.011718.074219-.042968.097657-.066406l.023437-.027344c.050781-.035156.121094-.0625.128906-.136718h.003907c.027343.054687.050781.109375.113281.128906.019531.070312.03125.121094.066406.167969.085937.109375.445313.167969.550781.039062.035156-.039062.050782-.089843.066406-.148437v-.039063l.027344-.03125.023438-.097656c.007812-.046875-.027344-.082031-.023438-.121094l.023438-.085937c.015625-.070313.015625-.132813.03125-.195313l.050781-.238281h.003906l.027344.179688.015625.183593c.007812.035157.023438.074219.035156.101563l.003906.125c.015626.074218.046876.128906.105469.160156.058594.03125.175781.042969.25.054688l.054688-.011719c.050781.003906.109375.023437.164062.035156.160157.027344.371094 0 .449219-.078125.023438-.027344.03125-.058594.042969-.101562.011719-.039063.011719-.097657 0-.136719.074219.015625.195312.011719.257812-.023438l.074219-.058593c.019531-.015626.023438-.03125.046875-.042969.039063.074219.078125.179687.160156.210937l.070313.015625c.027344.007813.074218.015625.113281.007813.035156-.003906.070313-.007813.109375-.007813.027344.019531.058594.046875.09375.0625.109375.046875.289062.03125.378906-.027343l.058594-.050782c.03125-.015625.058594-.023437.082031-.046875.128907.019531.25.082031.371094-.003906.015625-.011719.03125-.015625.039063-.035156.042968-.027344.128906-.023438.179687-.042969.046875-.019531.113281-.070312.140625-.109375l.027344-.042969.0625-.015625c.054687-.035156.128906-.085937.15625-.144531l.023437-.085938v-.046874l.015625-.019532.019532-.085937v-.113281c.015624-.089844.03125-.207032.035156-.300782.019531.109375.0625.191406.082031.292969l.003906.09375.03125.121094c.007813.0625.003907.128906.03125.175781.035157.058594.089844.121094.15625.144531l.058594.011719.027344.042969c.027343.027343.066406.058593.101562.078125l.070313.027344c.136718.054687.28125.058593.394531-.027344.042969-.03125.039063-.085938.066406-.140625.015625-.019531.058594-.011719.078125-.023438.074219-.046875.136719-.113281.214844-.15625.035156.0625.015625.167969.046875.238281.011719.03125.046875.050782.066406.078126l.019531.042968.050782.082032c.015625.023437.042968.039062.066406.054687.085938.058594.230469.027344.285156-.039063l.054688-.078124.019531-.046876c.007813-.015624.03125-.027343.042969-.042968.035156-.042969.078125-.097656.125-.128906.035156-.027344.078125-.039063.105468-.074219l.050782-.074219.015625-.082031c.011719-.023438.042969-.042969.050781-.066407l.027344-.121093.023437-.042969c.023438-.066406.019531-.128906.035157-.207031l.0625-.324219.007812-.109375v-.015625h.113281c-.003906.042969-.011719.089844-.003906.132812l.035156.292969c.015625.066407.03125.136719.046875.203125l-.003906.089844c.007812.035156.023438.074219.03125.105469v.039062l.019531.09375c.03125.058594.09375.109375.148438.144531l.058593.019532.042969.042968c.058594.042969.117188.082032.1875.113282.121094.050781.242188.070312.382813.027344l.066406-.042969c.082031-.027344.175781-.035157.210938-.105469l.007812-.003906c.039062.023437.070312.054687.128906.0625.003906.140625.09375.210937.210938.242187.023437.003907.050781.019531.085937.011719.085938-.015625.160157-.039062.214844-.082031.027344-.015625.050781-.039063.070313-.0625l.039062-.054688.082031-.019531c.027344-.007812.085938-.0625.101563-.082031.058594-.074219.089844-.203125.113281-.3125l.015625-.128907.050781-.285156c.007813.046875.03125.082032.042969.117188l.007812.074218.042969.179688c.015625.050781.058594.097656.078125.148438.019532.058593.007813.121093.039063.167968.035156.050782.085937.085938.136719.117188l.066406.035156c.015625.023438.023437.046875.042968.070312.035157.042969.207032.132813.300782.113282l.144531-.03125.074219-.046875c.070312.078125.273437.09375.375.035156l.066406-.050781.03125-.035156c.050781-.027344.121094-.070313.128906-.136719.015625.03125.023438.054687.039063.078125l.042969.03125c.007812.011718-.011719.035156-.007813.058594.011719.058593.03125.109374.0625.148437.066406.074219.316406.128906.46875.101563l.144531-.027344c-.015625.042968-.007812.082031.003906.125.035157.132812.121094.140625.253907.175781.058593.015625.144531.039063.222656.023437.074219-.011718.144531-.03125.207031-.046874.0625-.015626.128906-.015626.175782-.042969.035156-.019531.074218-.054688.09375-.089844.015624-.03125.027343-.101563.027343-.144531v-.070313c.007813-.023437.023438-.042969.035157-.078125l.015624-.0625c.078126.027344.308594-.039062.359376-.066406.023437.046875.003906.109375-.007813.160156-.011719.082032.054687.1875.105469.210938-.011719.046875-.007813.09375.003906.136718.042969.175782.296875.195313.507812.152344l.117188-.027344c.035156-.003906.066406.019532.105469.011719.046875-.007812.097656-.011719.140625-.019531-.015625.046875-.011719.101562 0 .148438.011718.046874.023437.082031.054687.113281.152344.152343.539063.078125.613281-.09375l.023438-.101563v-.179687l.027344-.03125.015625-.082031v-.101563c-.015625-.109375-.019531-.207031-.035157-.304687-.023437-.132813-.023437-.269532-.050781-.394532l-.070312-.320312-.039063-.113282-.042968-.609374.039062-.050782.027344-.105468-.007813-.0625-.03125-.203126-.015625-.085937.054688-.039063.109375-.117187c.0625-.078125.121093-.15625.175781-.242187l.074219-.136719.101562-.136719c.019531-.039062.03125-.105469.042969-.152344.015625-.089844-.054688-.1875-.085938-.234375m-15.785156-6.613281c0-.035156.027344-.0625.0625-.0625h13.660156c.03125 0 .0625.027344.0625.0625v5.304688c-.007812 0-.011718.003906-.019531.003906l-.128906.03125-.09375.0625-.03125.003906c-.015625.007812-.027344.019531-.039063.03125v-4.773438h-13.160156v4.855469c-.101562-.007812-.203125.007813-.296875.046875l-.015625.011719zm12.84375 1.703125v2.136719h-.832031v-2.136719zm-1.996094.894531c-.007812-.027344-.023437-.050781-.046874-.070312-.019532-.015625-.046876-.027344-.074219-.027344-.066407.003906-.128907.03125-.175781.078125-.066407.054687-.117188.121094-.15625.195313v.542968h-.15625v-1.347656h.15625v.621094c.042968-.066406.097656-.125.160156-.167969.058594-.039063.125-.0625.191406-.0625.050781 0 .101562.015625.144531.039063.039063.023437.070313.058593.089844.101562.015625.027344.023437.058594.03125.09375.003906.066406.007813.136719.007813.203125v.519531h-.15625v-.539062c0-.058594-.003907-.121094-.015626-.179688m-1 .417969c-.035156-.027344-.074218-.050781-.117187-.066406l-.054687-.019531-.105469-.042969c-.117188-.046875-.191407-.085938-.222657-.125-.027343-.039063-.046874-.089844-.042968-.140625-.003906-.074219.03125-.144532.089844-.1875.058593-.054688.152343-.074219.289062-.074219.09375 0 .191406.011719.28125.042969v.140625c-.09375-.035157-.191406-.054688-.292969-.058594-.054687-.003906-.105469.011719-.15625.035156-.03125.015625-.050781.050781-.054687.085938 0 .035156.019531.066406.050781.082031.046875.027344.101563.050781.152344.070312l.105469.039063c.074218.019531.144531.058594.203124.113281.039063.042969.0625.097656.058594.15625 0 .078125-.03125.152344-.09375.199219-.0625.050781-.160156.078125-.296875.078125-.125 0-.25-.027344-.363281-.074219v-.164062c.058594.039062.125.066406.195312.085937.058594.011719.121094.023438.179688.023438.058594.003906.117188-.007813.167969-.039063.035156-.019531.054687-.054687.054687-.09375 0-.023437-.011718-.046875-.027344-.066406m-1.5625-.503906v-.128907h.765626v.128907l-.574219.664062h.597656v.140625h-.800781v-.140625l.570312-.664062zm-1.796874-.128907h.171874l.34375.703126.285157-.703126h.15625l-.359375.871094c-.078125.179688-.148438.300782-.21875.363282-.074219.0625-.171875.09375-.265625.089843-.042969 0-.085938-.003906-.128907-.011719v-.136718c.039063.011718.082032.019531.121094.019531.046875 0 .09375-.011719.136719-.03125.042969-.023437.082031-.058594.105469-.101563.027344-.042968.050781-.085937.070312-.128906l.011719-.035156zm-.296876.191407c0-.019531-.007812-.035157-.019531-.046875-.007812-.007813-.019531-.011719-.03125-.015625-.03125 0-.0625.023437-.09375.070312-.046875.066407-.078125.140625-.101562.21875v.515625h-.132813v-.636718c0-.082032-.003906-.128907-.023437-.144532-.011719-.011718-.027344-.019531-.042969-.023437-.027344.003906-.058594.027343-.089844.078125-.039062.058594-.070312.121094-.09375.1875v.539062h-.136718v-.933594h.132812v.214844c.03125-.070312.070312-.132812.121094-.1875.03125-.03125.070312-.050781.113281-.050781.042969-.003906.082031.015625.109375.050781.03125.042969.042969.097656.042969.148438v.054687c.011719-.050781.035156-.097656.066406-.140625.019531-.03125.046875-.058594.078125-.082031.027344-.023437.0625-.03125.097656-.03125.039063 0 .078125.019531.101563.050781.03125.035156.042969.105469.042969.203125v.703125h-.136719v-.636718c.003906-.035157 0-.070313-.003907-.105469m-1.855468.023437c-.007813-.027344-.027344-.050781-.046875-.070312-.023438-.015625-.050781-.027344-.078125-.027344-.066406.003906-.128906.03125-.175782.078125-.0625.054687-.117187.121094-.15625.195313v.542968h-.152343v-1.347656h.15625v.621094c.039062-.066406.09375-.125.160156-.167969.054687-.039063.121094-.0625.1875-.0625.050781 0 .101563.015625.144531.039063.039063.023437.074219.058593.09375.101562.011719.027344.023438.058594.027344.09375.007812.066406.007812.136719.007812.203125v.519531h-.15625v-.539062c.003907-.058594 0-.121094-.011718-.179688m-.933594.605469c-.082031.09375-.199219.144531-.320312.140625-.125.003906-.242188-.046875-.320313-.140625-.160156-.207031-.160156-.496094 0-.707031.082031-.085938.199219-.136719.320313-.136719.121093 0 .238281.050781.320312.136719.160156.210937.160156.5 0 .707031m-2.136719.109375c-.039062-.003906-.078125-.011719-.113281-.019531-.042969-.007813-.085938-.023438-.125-.042969v-.160156c.035156.015625.074219.035156.109375.046875.039063.015625.074219.023437.113281.03125.042969.007812.085938.015625.128906.019531v-.46875l-.089843-.046875c-.167969-.089844-.253907-.203125-.253907-.332031.003907-.074219.035157-.144532.085938-.199219.066406-.070313.160156-.109375.257812-.113281v-.136719h.117188v.136719c.082031.003906.160156.015625.234375.035156v.144531l-.027344-.007812c-.066406-.019531-.136719-.035157-.207031-.042969v.457031l.09375.050781c.070312.035157.132812.085938.183594.148438.03125.046875.046875.101562.046875.15625 0 .050781-.011719.101562-.035157.144531-.027343.046875-.0625.089844-.109374.121094-.050782.035156-.113282.058594-.179688.070313v.140624l-.117188.003907v-.132813c-.035156 0-.074218 0-.113281-.003906m11.960938 6.417969c.007812.023437.011719.046875.011719.066406-.007813.027344-.007813.054687-.007813.078125.007813.027344.003906.058594-.003906.085938-.023438.015624-.046875.023437-.074219.027343-.019531.007813-.042969.007813-.066406 0-.019532.015625-.042969.023438-.0625.03125-.054688.015625-.109375.023438-.164063.019531-.054687 0-.105469-.007812-.15625-.019531-.023437-.007812-.050781-.011719-.074219-.023437-.023437-.007813-.015624-.058594-.007812-.082032.011719-.023437.042969-.039062.066406-.054687.027344-.023437.054688-.046875.082032-.066406.039062-.042969.09375-.0625.125-.109375-.003907-.003906-.054688-.003906-.019532-.027344-.019531 0-.039062-.003906-.046875-.015625-.003906-.007813 0-.035156 0-.050781 0-.050782-.007812-.101563-.007812-.15625 0-.097656-.019531-.1875-.023438-.296875-.007812-.105469-.015625-.210938-.015625-.3125.003906-.101563-.015625-.199219-.050781-.292969-.027344.09375.011719.210938.019531.3125.007813.117188-.015625.230469-.019531.347656.003906.0625-.003906.125-.015625.183594-.007812.027344-.007812.050781-.007812.078125 0 .023437-.007813.042969-.019532.0625-.03125.027344-.015625.097656-.015625.136719 0 .042968-.085937.050781-.121093.054687-.023438 0-.046876 0-.070313-.003906-.023437-.007813-.042969.007813-.066406.015625-.050781.015625-.105469.023438-.160157.027344-.058593.003906-.117187 0-.175781-.007813-.03125-.007812-.128906-.023437-.128906-.0625 0-.023437.007813-.046875.019531-.066406.007813-.019531.042969-.019531.0625-.027344.03125 0 .066406-.007812.097656-.023437-.015624-.003906-.027343-.007813-.039062-.015625-.003906-.011719-.015625-.011719-.015625-.023438-.03125.003907-.058594.003907-.085937 0-.027344-.023437-.066407-.011719-.089844-.035156-.011719-.015625-.039063-.015625-.039063-.039063-.015625-.039062.019531-.078124-.003906-.117187-.007813-.027344.019531-.054687.003906-.082031 0-.019532-.007812-.039063-.007812-.0625-.011719-.070313.003906-.15625-.027344-.222656-.011719-.0625-.015625-.125-.015625-.1875-.019531-.011719-.015625-.035157-.015625-.054688-.011719-.0625-.039063-.117188-.054687-.175781-.035157-.0625-.050782-.136719-.039063-.207031-.015625-.054688-.039063-.101563-.066406-.152344-.027344-.074219-.085938-.136719-.113281-.210938-.027344-.058594-.0625-.113281-.105469-.160156l-.023438-.019531v.003906c.007813.097656.003907.199219-.007812.296875.011719.0625.015625.128906.011719.191406-.003907.058594 0 .113282.015624.167969.011719.09375.019532.183594.019532.277344.019531.085937.023437.175781.078125.25.042969.125.015625.28125.015625.417969 0 .027343-.011719.054687-.027344.074218-.023438.011719-.046875.011719-.070312.007813-.003907.011719.007812.023437-.003907.039062-.03125.046875-.089843.074219-.148437.066407-.035156-.007813-.066406-.023438-.089844-.042969-.011719-.023438-.015625-.046875-.007812-.070313-.015626-.027344.007812-.058594.007812-.089844.011719-.03125 0-.058593.015625-.085937 0-.027344-.027344-.039063-.039063-.0625-.023437-.0625-.0625-.121094-.050781-.195313-.003906-.050781-.007812-.101562-.007812-.15625-.023438-.082031-.027344-.167968-.007813-.253906.003906-.035156 0-.074218-.015625-.109375-.023437-.09375-.015625-.199219-.042969-.289062 0-.101563-.015624-.203125-.039062-.300781 0-.070313-.003906-.136719-.011719-.207032v.082032.085937c-.015625.007813-.027343-.007813-.039062-.011719.003906.023438.019531.046875.011719.074219-.003907.007813 0 .023437-.011719.023437h-.011719c-.019531-.019531-.015625-.054687-.050781-.0625-.007813-.019531-.039063-.023437-.039063-.046874-.027344-.007813-.019531-.035157-.039062-.046876-.007813-.042968-.039063-.082031-.027344-.128906 0-.046875.035156-.082031.027344-.132812 0-.027344.003906-.058594.015625-.082032-.007813-.097656.019531-.1875.019531-.277343.011719-.09375.039062-.175781.046875-.265625.011719-.035156.019531-.070313.023437-.105469-.023437.011719-.046874.027344-.0625.046875-.050781.027344-.117187.023438-.160156.066406-.003906.035156.007813.066406.007813.097656-.019531.039063-.023438.082032-.015625.121094-.007813.027344-.007813.054688 0 .082032.003906.03125-.003906.058593.019531.082031l-.007813.105469c-.003906.050781 0 .101562.011719.152343.003907.074219-.019531.164063.007813.230469 0 .019531.019531.011719.023437.023438.011719.015624 0 .035156 0 .050781 0 .054687-.011719.121093-.011719.175781.007813.050781.011719.097656.011719.148438 0 .035156-.027343.070312-.003906.101562.007813.027344-.015625.039062-.015625.0625.035156.128906.003906.28125.011719.414062.019531.066407.015625.136719.035156.199219.039063.058594.035156.132813.085937.1875.003907.015625 0 .035157-.007812.050781.007812.027344.007812.058594.003906.085938.035156.078125.136719.117188.128906.214844-.007812.054687-.066406.054687-.109374.0625-.058594.003906-.121094-.015625-.164063-.058594-.035156-.109375-.144531-.113281-.214844-.179688-.019531-.039062-.023437-.082031-.007812-.121093-.019531-.019531-.035157-.042969-.046875-.066407-.007813-.0625-.070313-.101562-.0625-.167968-.035156-.066406-.019532-.152344-.054688-.21875-.019531-.03125-.03125-.070313-.027344-.109375.003907-.097657.003907-.195313-.003906-.292969 0-.050781-.011718-.101562-.03125-.148438l-.011718-.097656c-.027344-.078125-.042969-.15625-.042969-.238281-.015625-.035156-.027344-.070313-.03125-.105469-.011719.015625-.003907.042969-.027344.042969 0 .082031-.011719.160156-.027344.238281-.03125.078125-.050781.15625-.066406.238282-.050781.074218-.042969.175781-.085937.253906-.015626.089844-.03125.179687-.046876.265625-.015624.117187-.050781.226562-.054687.34375-.019531.046875-.035156.097656-.042969.144531-.003906.015625-.015625.027344-.019531.042969-.019531.007812-.035156.023437-.042969.039062-.023437.007813-.039062-.015625-.0625-.007812-.042968.019531-.074218.050781-.097656.09375-.03125.058593-.089844.097656-.15625.113281-.046875.011719-.09375-.007812-.121094-.046875-.007812-.027344 0-.058594.015625-.082031.035157-.042969.0625-.09375.097657-.132813.019531-.019531-.011719-.027343-.015626-.042969.027344-.066406-.011718-.15625.019532-.222656.035156-.058594.0625-.117187.082031-.183594.027344-.078124.023437-.167968.058594-.25-.003907-.058593.007812-.121093.027343-.179687-.003906-.070313-.011718-.140625-.015624-.214844.003906-.070312 0-.140625-.003907-.210937 0-.042969.007813-.085938.015625-.125 0-.007813.015625-.019532.007813-.027344-.007813-.03125-.011719-.0625-.015625-.097656-.003906-.03125.019531-.050782.039062-.070313.015625-.066406.023438-.136719.023438-.207031.015625-.082031-.007813-.179688.046875-.25-.023438-.015625-.007813-.046875-.007813-.066406.011719-.0625.011719-.128906.007813-.191406.003906-.015626.007812-.035157.007812-.050782 0-.011718-.003906-.015625-.011719-.019531-.066406-.011719-.125-.035156-.179687-.074219-.019531-.011718-.039063-.027344-.058594-.035156 0 .003906 0 .011719.003907.019531 0 .089844 0 .179688-.011719.273438.007812.125-.011719.242187.011719.363281.007812.058594.007812.117188-.003907.175781-.003906.03125-.035156.050781-.042969.082031-.015624.011719-.003906.054688-.039062.039063-.007812-.007813-.011719-.019531-.007812-.03125l-.003907.003906c.007813.070313.035157.132813.035157.203125l.03125.253906c.003906.070313-.003907.136719-.023438.199219-.019531.046875-.046875.09375-.070312.136719-.042969.164062-.144532.300781-.179688.46875.003906.042969-.007812.089844.039062.113281.019532.023438.023438.050781.042969.074219.03125.035156.09375.035156.105469.089844.007812.011718.007812.03125.003906.042968-.042968.039063-.097656.050782-.152344.039063-.054687-.015625-.101562-.046875-.132812-.09375-.039062-.011719-.101562 0-.105469-.054687 0-.011719 0-.023438.003907-.035157-.007813-.042969.019531-.074219.011718-.117187.003906-.074219.039063-.136719.050782-.207032.011718-.089843.027343-.179687.035156-.269531.019531-.085937.078125-.160156.089844-.25.011718-.050781.007812-.101562-.019532-.148437-.0625-.128906-.105468-.265625-.175781-.394532-.027344-.007812-.050781.007813-.078125.003907l-.003906.003906c.007812.097656.003906.199219 0 .300781-.019532.082032.003906.167969 0 .25 0 .074219.023437.140625.027344.214844.007812.109375.007812.242188.011718.351562.011719.0625.015625.125.015625.191407l.007813.011719c0 .054687-.015625.109374-.050782.15625-.011718.023437-.007812.054687-.03125.074218-.027343.03125-.070312.046875-.113281.042969-.023437-.003906-.046875-.011719-.066406-.023437v.023437c-.003906.039063-.011719.050781-.050781.058594-.03125.011719-.0625.011719-.09375.007812-.066406-.015625-.128906-.039062-.183594-.070312-.046875-.027344-.089844-.0625-.128906-.101563-.019532-.019531-.054688-.019531-.078125-.035156-.027344-.011719-.050781-.03125-.066407-.058594-.019531-.027344-.007812-.046875 0-.078125.007813-.027343-.007812-.039062-.023437-.054687-.019531-.015625-.015625-.054688-.011719-.078125 0-.035157-.003906-.070313-.015625-.101563-.035156-.144531-.046875-.292968-.066406-.4375-.003906-.050781 0-.097656.007813-.148437 0-.054688-.007813-.109375-.023438-.164063-.035156-.097656-.058594-.199218-.070312-.300781-.003907-.050781-.011719-.101563-.015626-.15625 0-.054687-.007812-.105469-.015624-.160156-.015626-.042969-.027344-.089844-.035157-.140625 0-.050782-.007812-.101563-.007812-.152344-.023438.011719-.023438.042969-.027344.066406-.011719.03125-.015625.066406-.019531.101563-.023438.070312-.046875.140625-.066406.210937-.023438.070313-.039063.136719-.054688.207032-.015625.074218-.042969.148437-.074219.214843-.027343.0625-.046875.128907-.066406.191407-.011719.078124-.019531.152343-.023437.230468-.007813.070313-.027344.140625-.039063.214844-.007813.035156-.015625.074219-.023437.109375 0 .042969-.007813.082031-.015626.121094-.011718.027343-.03125.050781-.042968.078125 0 .03125 0 .058594-.007813.085937-.011719.03125-.058593.015625-.0625.050781-.003906.035157.007813.078126-.011719.109376-.011718.019531-.03125.035156-.050781.046874-.011719.003907-.027343.007813-.039062.011719-.007813.007813-.015625.019531-.023438.027344-.023437.03125-.054687.054687-.089843.078125-.003907.007812-.003907.015625-.007813.023438-.007813.015624-.023437.023437-.027344.035156-.035156.042968-.0625.023437-.085937.101562-.015625.03125-.039063.089844-.078125.078125-.050781-.027343-.058594-.085937-.085938-.128906-.003906-.019531-.027343-.023437-.03125-.039063-.011719 0-.019531-.015624-.023437-.023437-.003906-.058594-.011719-.113281-.03125-.167969-.015625-.089844-.007813-.1875-.027344-.273437-.011719-.105469-.0625-.199219-.085938-.300781-.019531-.085938-.039062-.175782-.054687-.261719-.039063-.125-.0625-.253907-.070313-.386719-.039062-.132812-.074218-.269531-.101562-.40625-.003906-.015625-.007812-.035156-.019531-.042969-.007813.035157-.011719.070313-.007813.109375.011719.035156.015625.078125.011719.117188.015625.160156.007813.3125.023437.472656l.015626.316406c0 .164063.023437.320313.023437.484375l-.011719.019531c.007813.050782-.058594.042969-.082031.082032-.03125.027344-.066406.050781-.101563.078125-.058593.011719-.113281.019531-.171874.023437-.007813.003906-.023438.007813-.035157.007813.019531.027343.035157.058593.035157.089843-.007813.027344.011718.066407-.023438.078126-.074219.039062-.160156-.007813-.230469-.035157-.054687-.023437-.082031-.089843-.128906-.128906-.050781.007813-.101563-.015625-.128906-.054687-.039063-.046876-.019531-.105469-.023438-.164063-.027343-.007813-.023437-.046875-.03125-.070313-.003906-.035156-.003906-.074218 0-.113281-.035156-.0625-.035156-.144531-.074219-.210937-.027343-.113282-.035156-.234375-.03125-.351563-.03125-.125-.039062-.261719-.078124-.382812-.019532-.113281-.058594-.214844-.078126-.328125-.011718.070312-.023437.136718-.042968.203125-.015625.046875-.023438.097656-.023438.144531-.050781.121094-.0625.253906-.09375.378906-.015625.050782-.003906.09375-.011718.144532-.027344.117187-.042969.238281-.046876.355468-.015624.0625-.019531.125-.015624.1875 0 .015625-.015626.019532-.015626.035156-.011718.003907-.023437.011719-.027343.023438.003906.03125.007812.066406.003906.101562-.019531.027344-.046875.046876-.078125.0625-.035156.019532-.085938.015626-.113281.050782-.011719.058594-.070313.089844-.113281.117187-.039063.015625-.082032.019531-.125.015625-.03125 0-.0625-.011718-.085938-.03125-.027344-.046875.003906-.097656.027344-.140625l.058594-.066406c.015624-.042969.042968-.085937.078124-.121094.015626-.03125.007813-.074219.015626-.113281l-.015626-.039062c.011719-.035157.027344-.070313.046876-.105469.011718-.054688.015624-.105469.023437-.164063 0-.035156-.003906-.074218-.011719-.113281 0-.117187.023438-.234375.066406-.347656.003907-.054688.003907-.105469 0-.160157 0-.175781-.019531-.359374-.027343-.53125-.046875-.019531-.09375-.046874-.128907-.082031-.003906-.113281.035157-.207031.042969-.316406l.003907-.027344c-.003907.011719-.007813.019531-.011719.03125-.007813.023438-.03125.027344-.042969.046875-.007812.152344.011719.300782.003906.453125-.007812.152344-.027344.304688-.039062.457031-.003906.039063-.003906.074219-.003906.109376.003906.03125-.015626.058593-.039063.066406-.027344.015625-.054687.023437-.082031.023437-.015625 0-.03125 0-.046875 0-.027344 0-.03125.003907-.039063.03125-.003906.03125-.011718.0625-.023437.089844-.011719.035156-.011719.070313-.007813.105469 0 .074218-.003906.152344-.015625.230468-.015625.136719-.058593.28125-.058593.421876 0 .058593.011718.117187.042968.167968.03125.042969.074219.082032.121094.109375.027344.011719.042969.035157.046875.0625 0 .042969-.03125.042969-.0625.042969-.066406.003906-.128906-.015625-.183594-.050781-.027343-.019531-.050781-.007813-.082031-.019531-.015625-.007813-.027344-.011719-.042969-.023438.003907-.015625.003907-.03125 0-.046875 0-.03125.007813-.058594.023438-.085937.011719-.03125.019531-.066407.019531-.105469.003906-.105469-.003906-.214844-.019531-.320313-.015625.066406-.027344.136719-.035157.207032-.007812.035156-.011718.070312-.015624.105468 0 .039063.011718.078125.011718.105469s-.023437.039063-.015625.066406c.007813.03125.011719.058594.011719.089844-.003906.027344-.003906.058594-.007812.085937-.019532.015626-.046876.023438-.070313.023438h-.007813c0 .011719-.007812.023438-.015624.03125-.007813.011719-.023438.019531-.035157.019531-.035156.019531-.074219.027344-.113281.035157-.027344 0-.054688-.007813-.082031-.019532-.042969-.015625-.0625-.066406-.101563-.078125-.035156-.007812-.074218.007813-.105468-.003906-.050782.011719-.105469.019531-.15625.011719-.046876-.003906-.042969-.054688-.058594-.085938-.050782-.066406-.089844-.136718-.117188-.214844-.003906-.007812 0-.023437-.011718-.027343l-.019532-.082031c-.007812-.097657-.007812-.207032-.011718-.308594.003906-.089844-.019532-.167969-.019532-.257813 0-.054687-.011718-.101562-.011718-.15625.011718-.054687-.023438-.105469-.015626-.164062-.003906-.042969-.027343-.082031-.035156-.125-.046875-.113281-.09375-.226563-.148437-.339844-.007813-.019531-.015625-.042969-.027344-.0625.007813.117187.019531.242187.027344.371094.015625.085937.019531.175781.023437.265625 0 .160156.015625.316406.046875.46875.011719.082031.007813.160156.015625.242187.019532.089844.019532.179688 0 .269531-.015625.035157-.039062-.007812-.0625.007813.003906.015625.003906.03125 0 .050781-.011718.015625-.03125.03125-.050781.042969-.054687.011719-.125.023437-.167969-.019531-.015625-.03125-.019531-.070313-.003906-.101563-.003906-.007812-.011719 0-.015625-.007812.003906-.019531.007813-.035157.015625-.050781.003906-.019532.015625-.042969.007812-.0625.011719-.046876.015626-.097657.007813-.144532-.03125-.113281-.023437-.226562-.0625-.335937-.003906-.039063-.011719-.082031-.03125-.121094-.023437-.054687-.011719-.113281-.03125-.171875 0-.046875-.007813-.097656-.027344-.140625-.015625-.109375-.042969-.222656-.058593-.324219l-.042969-.261718-.003907-.007813c-.007812.046875-.003906.09375.003907.140625-.003907.007812 0 .027344-.015625.019531-.015625-.007812-.023438-.027343-.03125-.046875-.007813-.015625 0-.039062-.011719-.050781-.007813.011719-.003906.023437-.003906.035156-.011719.050781.050781.070313.042969.125 0 .003907-.003907.007813-.011719.007813l-.054688-.042969c-.015625-.003906-.019531-.023437-.035156-.027344-.019531-.027343-.039063-.058593-.050781-.089843 0-.011719-.003906-.027344-.007813-.039063.003907-.054687.015625-.109375.027344-.160156.003906-.082031.007813-.167969.023437-.246094-.007812-.214844.085938-.398437.066407-.617187v-.023438c-.019531.019531-.046875.027344-.070313.023438-.035156-.003907-.070312-.011719-.105468-.015626-.042969 0-.085938-.003906-.128907-.011718-.015625.242187.035157.484375.046875.726562.003906.058594.011719.121094.011719.179688 0 .027344.003906.054687.003906.082031.003907.03125.007813.0625.003907.09375-.011719.046875-.011719.09375-.003907.136719 0 .066406 0 .136718-.003906.203125-.007813.113281-.019531.226562-.035156.34375-.015625.121093-.015625.242187 0 .363281.015625.128906.023437.257812.027343.386719.003907.058593.011719.117187.027344.171875.003906.023437.015625.0625 0 .082031-.019531.015625-.042968.027344-.066406.035156 0 .023438.054688.03125.0625.023438.027344-.019531.082031.027343.097656.050781-.019531-.007812-.054687-.042969-.078125-.042969.015625.019531.039063.035157.0625.046875.019531.007813.0625.007813.070313.03125.070312.023438.15625.027344.210937.078125 0 .023438.003907.042969.003907.066407-.019532.011718-.035157.019531-.054688.023437-.042969.007813-.085938.011719-.128906.007813-.097656 0-.191406-.011719-.28125-.039063-.027344-.007813-.035156-.007813-.050782.003906-.011718.007813-.042968-.003906-.058593-.003906-.042969 0-.085938-.011719-.128907-.027344.007813-.046875-.003906-.089843-.003906-.136719 0-.023437.015625-.050781-.007812-.058593-.03125-.007813-.023438-.039063-.027344-.070313-.019531-.195312-.0625-.390625-.074219-.585937-.007812-.105469-.015625-.214844-.03125-.320313-.027343-.105468-.046875-.214844-.054687-.324218-.03125.09375-.042969.191406-.089844.28125-.007812.019531-.019531.035156-.03125.050781-.007812.027343-.015625.054687-.03125.078125-.023438.050781-.039062.101562-.046875.160156-.023437.113281-.042969.226562-.0625.347656-.019531.117188-.050781.230469-.074219.347656-.003906.027344-.007812.050782-.007812.078126-.003906.03125-.023438.027343-.054688.027343-.035156 0-.039062 0-.035156.035157.007812.019531.015625.042968.019531.066406.035157.011718.070313.019531.070313.066406-.003906.011719.003906.035156-.019532.039062-.011718.007813-.023437.011719-.039062.015626l.007812.050781c.003907.054687.011719.105469-.054687.113281-.054687.007812-.234375 0-.25-.078125-.003906-.042969.003906-.089844.019531-.132813-.007812 0-.015625 0-.019531 0-.023437-.023437-.066406-.011718-.089844-.035156-.011719-.015625-.039062-.015625-.039062-.039062-.015625-.039063.019531-.078125 0-.117188-.011719-.027344.015625-.054687 0-.082031 0-.019531-.007813-.039063-.007813-.0625-.011718-.070313 0-.15625-.027344-.222656-.011718-.0625-.015624-.121094-.019531-.183594-.019531-.015625-.011719-.039063-.011719-.058594-.011718-.058593-.042968-.113281-.058593-.171875-.035157-.0625-.046875-.136718-.039063-.210937-.015625-.050781-.039062-.101563-.066406-.148438-.027344-.078125-.089844-.136719-.117188-.214843-.027343-.054688-.0625-.109376-.101562-.160157l-.023438-.015625-.003906.003906c.007813.097657.003906.195313-.007812.296876.011718.0625.015625.125.011718.191406-.003906.054687.003907.113281.019532.164062.011718.09375.015625.183594.019531.277344.015625.085938.023437.175781.074219.25.046875.125.019531.28125.019531.414062 0 .03125-.011719.058594-.03125.078126-.019531.011718-.046875.011718-.066406.003906-.003907.015625.003906.027344-.003907.039062-.035156.050782-.09375.078125-.152343.066406-.035157-.007812-.066407-.019531-.09375-.039062-.011719-.023438-.011719-.046875-.003907-.070312-.019531-.027344.007813-.0625.007813-.09375.011719-.027344 0-.054688.015625-.082032 0-.027344-.03125-.042968-.042969-.0625-.019531-.066406-.058593-.121094-.050781-.195312 0-.050782-.003906-.105469-.003906-.15625-.027344-.082032-.027344-.171875-.007813-.253906.003907-.039063-.003906-.074219-.019531-.109376-.019531-.09375-.015625-.199218-.042969-.289062 0-.105469-.015625-.210938-.039062-.3125-.003907-.011719-.007813-.019531-.015625-.027344-.015625.003906-.023438-.011718-.039063-.015625.007813.023438.023438.046875.015625.074219-.003906.007812 0 .023438-.015625.023438h-.007812c-.023438-.019532-.019531-.054688-.050781-.0625-.007813-.019532-.042969-.023438-.042969-.046876-.023438-.003906-.019531-.027343-.035157-.039062-.019531.152344-.066406.308594-.085937.460938-.003906.070312-.019531.203124-.027344.382812 0 .046875.019531.160156.027344.34375.003906.1875-.019531.421875-.019531.585938 0 .179687-.007813.296874-.015625.363281-.003907.027343-.011719.007812-.015625.023437-.011719.042969 0 .046875-.011719.082032-.007813.023437-.042969.046874-.058594.058593-.089843.0625-.277343.027344-.332031-.054687 0-.042969-.019531-.089844-.035156-.136719-.007813-.035156-.019532-.070313-.015625-.113281-.355469-.046875-.632813-.105469-.136719-.332032.042969-.234374-.019531-.496093-.027344-.738281-.0625-.15625-.0625-.335937-.085937-.496093-.058594-.074219.007812-.167969-.046875-.238282.007812-.210937-.074219-.460937.019531-.691406-.140625-.039062.007813-.175781.023437-.28125-.160156-.117188-.222656-.015625-.226562-.277344-.003906-.042968.03125-.058594.058594-.082031-.011719-.046875.046875-.046875.058594-.074219-.003907-.019531.011718-.03125.023437-.035156.039063-.011719.035156-.070312.082031-.074219.097656-.175781.269532-.296875.359375-.480469-.105469-.144531-.0625-.390624-.082031-.511718.03125.007812.011719-.027344.035156-.027344-.007812-.019531.035156-.027344.027344-.050781.011719 0 .03125.011719.03125-.015625.019531.015625.03125 0 .039062-.015625.019532.023437.042969-.015625.058594-.019531.011719.027343.023438-.023438.042969-.003907s.042969-.027343.054687.011719c.015626.003906.023438-.023438.039063-.007812.003906-.003907.011719 0 .015625 0 .003906.015624.019531.003906.023438.019531.199218.078125.199218.398437.039062.507812 0 .035157.03125 0 .050781.007813.027344.019531-.011719.074218.03125.078125.035157.085937.121094.085937.175781.152343.078126.101563.046876.234376.019532.34375.019531.042969-.035156.074219-.015625.117188.003906.015625.015625.035156.015625.050781.003906-.0625.015625-.121093.015625-.183593.023437-.070313.027343-.148438.074219-.207032.023437-.027344.054687-.042968.089843-.050781h.003907c.003906-.019531.019531-.035156.003906-.054687-.007813 0-.023438-.003907-.023438-.007813.003906-.003906.007813.003906.011719-.003906.003906-.007813.011719-.015625.003906-.023438-.003906.003907-.011719.003907-.015625 0-.003906 0-.007812-.003906-.007812-.011719.015625.011719.011718-.003906.023437-.003906.015625-.019531.019531-.050781.011719-.074218-.007812-.011719-.027344-.019532-.023438-.039063.003907-.011719.007813-.023437.011719-.035156-.007812-.003907-.007812.015625-.019531.007812.003906-.003906.003906-.007812 0-.011719.003906-.007812.007812-.011718.007812-.019531l-.007812-.007812c.035156-.019531-.015625-.039063 0-.070313-.007812-.015625-.027344-.035156-.011719-.054687 0-.007813.015625 0 .007813-.011719-.003906-.015625-.023438 0-.023438-.015625-.007812 0-.019531.003906-.019531-.003906.019531-.015625.027344-.042969.019531-.066407-.007812-.011718 0-.027343 0-.039062.03125-.015625 0-.082031.050782-.070312.003906 0 .007812-.003907.011718-.007813 0-.011719-.011718-.019531 0-.027344.015625-.027343.050782-.011719.066406-.039062.019532-.015625.039063-.03125.066407-.03125.019531-.027344.054687-.007813.078125-.023438.011718 0 .019531.011719.027344.015625.023437-.003906.050781-.03125.082031-.015625.011719.007813.027343.011719.039062.019531l.03125.035157c.019531 0 .046875-.007813.0625.011719.019531.019531.011719.050781.03125.066406l.003907.003906c.003906.003906.003906.003906.007812.003906.027344.035156.039062.074219.039062.117188.019532.011718.035157.03125.039063.054687.015625.003907.03125.003907.039063.015625.011718.027344.019531.050782.023437.082032.015625-.003907.039063-.015626.042969.007812.019531.019531-.003906.066406.035156.070312.019531.023438 0 .058594.023438.082032.007812.007812.019531.015625.03125.015625l.011718-.007813v.011719c.011719-.007813.007813-.027344.023438-.023437.003906.019531-.019532.03125-.027344.046874-.015625.003907-.023438-.007812-.039062-.007812v.03125c.015624-.003906.03125.007812.035156.019531s-.007813.019531-.011719.03125c-.015625-.003906 0-.03125-.015625-.03125.003906.027344-.023438.066407.007812.082031.011719.003907.027344-.007812.027344-.011718 0-.007813.003906-.007813.007813-.007813v.023438c-.007813.011719-.023438.015625-.035157.011719-.007812 0-.015624-.007813-.019531-.011719-.007812.011719.007813.027343.011719.03125.003906.003906.019531.003906.015625.011719.089844.058593.0625.175781.085937.265624.027344.136719-.007812.292969.035157.425782.007812.140625.027343.269531.027343.410156-.011718.066406 0 .132812-.011718.195312 0 .054688.003906.105469.015625.15625-.011719.054688 0 .125-.046875.164063.011718.035156.023437.0625.042968.09375.027344.089844.097657.164063.117188.261719.007812.03125.011719.0625.011719.09375.015625-.039063.023437-.078125.03125-.117188.003906-.082031.015625-.171875.027343-.246094.011719-.074218.023438-.152343.03125-.226562.003907-.039062.007813-.078125.011719-.117188.003907-.019531.003907-.039062.003907-.058593 0-.03125-.015626-.027344-.039063-.042969-.035156-.023438-.027344-.046875-.019531-.078125.003906-.035156.011718-.066406.019531-.101563.015625-.070312.039063-.140624.054687-.214843.035157-.148438.042969-.300781.019532-.453125-.035156-.152344-.058594-.308594-.066406-.464844 0-.035156-.03125-.027344-.054688-.050781-.019531-.027344-.0625-.050781-.070312-.082031-.015626-.03125-.023438-.066407-.023438-.097657 0-.039062.007812-.078125.027344-.109375.042968-.078125.117187-.128906.203125-.144531.019531 0 .042969 0 .0625.003906.039062.003907.019531-.011719.042969-.027343.035156.003906.046874-.042969.082031-.027344.007812-.023438.015625-.042969.023437-.066406.007813-.03125.007813-.0625.007813-.09375 0-.011719 0-.027344.003906-.039063-.007813-.015625-.011719-.03125-.011719-.046875 0-.027344.003906-.054688.007813-.078125.011719-.085937.050781-.179687.148437-.191406.058594-.007813.117188-.003907.171875.011719.050781.011718.097657.046874.125.097656.011719.023437.015625.054687.015625.082031 0 .023437-.007812.070313.003906.085937.015626.019532.027344.019532.023438.046876-.003906.015624-.007812.035156-.023438.027343h-.003906c0 .015625-.007812.019531-.015625.023438-.023437.011719-.019531.027343-.023437.046875-.003906.035156-.019532.066406-.023438.101562-.011718.0625-.109375 0-.121094.050782.003907.027343.023438.050781.050782.058593.039062.007813.082031.011719.121094.019531.074218.027344.136718.074219.183593.140626.058594.070312.121094.140624.1875.203124l.101563.101563c.007812.007813.019531.015625.027344.023437.003906-.039062.011718-.082031.019531-.125h-.007813c-.019531-.027343-.019531-.066406-.003906-.097656-.003906 0-.003906-.003906-.003906-.007812.011718-.003906.023437-.011719.03125-.019532-.007813-.003906-.015625 0-.023438-.003906-.011718-.003906-.023437-.015625-.023437-.03125.007812.003906.019531.023438.027343.023438.007813.003906.019532.003906.023438-.003906.003906-.011719-.003906-.019532-.007812-.023438-.015626-.015625-.003907-.042969 0-.058594.003906-.015625.019531-.019531.035156-.027344-.003906-.007812 0-.019531-.003906-.027343-.007813.007812-.015626.011719-.027344.011719-.007813-.003907-.011719-.011719-.011719-.019532.003906-.007812.003906-.015625.007813-.015625.003906 0 .003906.003907.003906.007813.003906.003906 0 .015625.007812.015625.003906-.011719-.003906-.027344.003906-.042969 0-.023438.03125-.015625.039063-.035156-.011719-.015625-.015625-.03125-.011719-.046875.011719-.003907.003906-.019531.011719-.019531v.027343c.003906.003907.007813.015625.015625.015625.015625-.007812.003906-.027344.007812-.039062 0-.03125.042969-.042969.042969-.074219.003907-.019531-.011719-.027344-.023437-.039063-.011719-.027343.007812-.050781.011718-.074218-.015624-.011719-.023437-.03125-.019531-.046875.023438-.027344-.003906-.0625.023438-.085938.011719-.03125.015625-.074219.054687-.082031.027344-.007812.015625-.042969.039063-.054688.019531-.007812.039062-.007812.058593 0 .011719-.003906.015626-.015624.027344-.015624.03125-.027344.066406 0 .097656 0 .011719-.003907.023438-.003907.035157 0 0-.007813.003906-.007813.011719-.007813.019531.015625.046874.019531.070312.03125.007812-.003906.015625-.007813.023438-.007813.011718.003907.019531.015626.019531.027344.023437.011719.011719.042969.039062.046875.007813.007813.027344.023438.023438.027344 0 .007813-.011719.003906-.011719.007813 0 0 0 0 .003906.003906s0 .003906 0 .011718c.015625.019532.023438.046876.019532.070313.035156.027344-.003907.066406.019531.09375.007812.011719-.007813.007813-.011719.011719.003906.011718-.007812.023437-.007812.039062-.003907.015625.015624.027344.019531.039063 0 .007812-.007813.023437-.007813.023437-.003906.003906 0 .011719-.007812.011719-.003906-.003906-.007813-.007813-.007813-.011719.011719-.015625 0-.023437 0-.035156-.011719-.023438-.003906-.042969-.003906-.066406-.003906.007812-.011719.011718-.007813.019531-.015624.019531.003907.042969 0 .054687-.003906.011719-.015624.023438-.007812.03125.015625.007813.023438.023438.019531.035157-.003906.007812-.003906.015625-.011719.015625-.003906-.003906-.003906-.007813 0-.011719.003907-.007813.003907-.019531-.003906-.027344-.039062-.003906-.007812-.035156-.015625-.054687-.007812.023437-.007812.046875-.015625.070312.007813.007813.019532.015625.027344.015625.003906.003907.003906.007813 0 .007813-.011719 0-.027344-.003906-.035156-.011719-.011719.003906-.003906.015625-.011719.019531-.007813.007813-.019531-.003906-.019531-.003906 0 .003906.003906.003906.003906.007812-.003906.007813-.015625.015626-.023438.015626-.007812.011718-.011718.027343-.015624.042968v.074219c.066406.058594.152343.09375.242187.097656.027344.015625.0625.011719.082031.039063.007813.03125.035156.058594.039063.089844.011719.054687.03125.109374.042969.160156.007812-.011719.015624-.027344.027343-.039063.058594-.050781.109375-.121093.167969-.175781.054688-.0625.113281-.121094.171875-.175781.027344-.023438.0625-.039063.101563-.039063.019531 0 .042968.011719.058593-.003906.011719-.015625.023438-.03125.03125-.050781-.046875.011719-.085937.070312-.136719.039062.085938-.023437.167969-.058593.167969-.164062-.011719.03125-.03125.058593-.054687.078125-.015625.011718-.03125.019531-.046875.027344-.019531.015624-.023438 0-.042969-.007813.0625-.011719.113281-.0625.128906-.125.003906-.0625.015625-.128906.03125-.1875.023438-.054687.050782-.105469.089844-.152344.015625-.019531.039062-.035156.066406-.046875.011719-.003906.023438 0 .035156.003906.015626.007813.019532-.007812.035157-.015624.039062-.023438.09375.007812.121093.035156.042969.035156.070313.082031.085938.136718.015625.058594.027344.121094.023438.183594 0 .035156-.003907.074219-.007813.109375-.007813.039063.011719.0625.019531.097657-.039062 0-.042968-.070313-.042968-.09375-.011719.03125-.015626.066406-.019532.101562.003906.011719.023438.0625.011719.070312 0 0-.003906-.003906-.003906-.003906-.003907 0 .011719.03125.011719.03125.019531.015625.039062.03125.058593.042969.027344.019531.042969.046875.058594.078125 0-.007812.003906-.011719.003906-.019531.03125-.15625.054688-.320313.09375-.476563.011719-.054687 0-.128906.046875-.167968.058594-.015626.113282-.039063.164063-.0625.070312-.015626.132812-.039063.199219-.050782.03125-.011718.050781-.039062.0625-.070312 0-.027344-.003907-.050782-.011719-.078125h-.003907l-.035156-.035157c0-.0625-.050781-.109374-.042968-.175781-.003907-.03125 0-.0625.011718-.09375 0-.042969.007813-.085937.03125-.125.003906-.042969.023438-.082031.0625-.105469.019532-.015624.046875-.015624.070313-.023437.027343.015625.019531-.023437.039062-.023437v.011718l.035157-.011718c0-.003907-.007813-.007813 0-.007813.007812 0-.003907.003906.003906.007813.046875-.015626.082031.011718.125.015624.023437.011719.050781.042969.078125.015626.003906.011718-.011719.019531-.019531.027343.015624.015625.035156.027344.054687.035157-.015625.011718.003906.023437.011719.03125.027344.039062.042968.085937.042968.132812-.015624.023438.007813.054688-.003906.082031-.003906.027344-.011718.054688-.015625.085938v.003906c0 .015625 0 .035156.003907.050781l-.011719.007813c-.003907.007812-.007813.015625-.015625.023437 0 .003906-.003906.007813-.003906.011719-.003907.003906-.007813.003906-.007813.003906-.015625.015625-.027344.039063-.03125.058594 0 .003906-.003906.007813-.007813.011719-.015624.019531-.015624.046875-.003906.070312l.046875.042969c.121094.023437.238281.058594.355469.101563.066406.035156.050781.117187.066406.179687 0 .109375.050782.191406.050782.300781.011718.105469.019531.199219.023437.3125.007813.140625-.050781.277344-.15625.371094.027344.121094.042969.246094.0625.367188.015625-.039063.027344-.078126.035156-.121094.042969-.164063.125-.316406.144531-.492188.003907-.050781 0-.101562-.011718-.148437-.023438-.09375.011718-.167969.046875-.246094-.007813.003906-.019531 0-.027344-.003906-.019531-.007813-.019531-.03125-.039063-.046875-.015624-.003906-.027343.019531-.03125.019531-.003906.003906-.007812.007813-.011718.003906l.019531-.023437h-.03125c-.003906 0-.015625-.003906-.011719-.015625.007813.007812.019532.011719.03125.007812.035156-.023437.0625-.0625.066406-.105469-.007812.015626-.011718.027344-.019531.042969-.015625.023438-.042969.039063-.070312.039063-.003907 0-.007813 0-.007813-.007813.03125.003907.050782-.015625.070313-.039062.03125-.058594.042969-.128907.035156-.195313-.035156.046875-.050781.109375-.042969.171875h-.003906c-.011719-.058593.003906-.121093.035156-.171875.003906-.03125-.023437.007813-.035156-.003906l.019531-.011719c.011719-.003906.003907-.011719.015625-.011719.042969-.027343.035156-.078124.0625-.117187.015625-.015625.023438-.035156.03125-.058594-.007812-.035156-.007812-.070312 0-.105469-.015625-.050781-.015625-.101562-.003906-.15625 0-.03125.003906-.0625.015625-.09375.03125-.054687.085937-.09375.152344-.097656.019531-.011718.046875.003906.066406-.007812l-.011719-.003906c.019532-.007813.039063.007812.0625.007812-.003906-.007812-.003906-.011719-.007812-.011719-.007813-.007812-.019532-.011719-.023438-.019531.023438.003906.042969.019531.054688.042969.050781-.019531.109375-.011719.152344.019531.007812.011719.03125.023438.023437.035156.03125.035156.058594.070313.078125.113282.039062.097656.035156.210937-.011719.308593v.128907c.023438-.007813.050781-.007813.074219-.003907.105469.03125.117188.144531.160156.226563.027344.078125.078125.148437.089844.234375.003906.015625.007812.03125.015625.046875.015625-.042969.039063-.082032.050781-.136719.015625-.066406.023438-.136719.035156-.207031.03125-.164063.210938-.296875.359376-.339844.039062-.015625.078124-.03125.113281-.054688.050781-.027343.015625-.074218 0-.109374-.003907-.007813-.007813-.015626-.011719-.023438-.003906-.019531-.011719-.015625-.023438-.03125-.011718-.019531-.019531-.042969-.023437-.0625-.007813-.019531-.011719-.042969-.015625-.0625 0-.027344.007812-.019531.027344-.027344-.027344-.085937-.046875-.167968.007812-.25.023438-.035156.054688-.0625.09375-.082031.019532-.003906.035156-.011719.054688-.015625.023437.003906.046875.003906.066406 0 .144531.027344.210938.132812.203125.277344.007813.015625.03125-.003906.035156.023437.003907.027344.003907.050781.003907.074219-.003907.023438-.007813.042969-.023438.0625-.003906.007812-.011719.011719-.023438.015625-.015624.003906-.007812.035156-.007812.054687 0 .03125-.003906.066407-.007812.097657-.003907.015625-.007813.03125-.015626.046875-.007812.023437.007813.019531.027344.03125.066406.035156.140625.054687.207032.09375.054687.03125.105468.070312.148437.113281.046875.050781.078125.117187.089844.1875.023437.113281.082031.214844.125.320313.007812-.003907.011719-.007813.019531-.007813.042969-.042969.039062-.101563.074219-.148437.007812-.015626.011719-.035157.007812-.054688l-.019531.035156h-.007812c.007812-.019531.011718-.042968.011718-.0625-.003906-.003906-.011718.011719-.019531.003906.027344-.027343.042969-.0625.042969-.101562-.011719.019531-.023438.042969-.042969.058594.023437-.03125.035156-.066406.046875-.101563-.015625-.007812 0-.019531 0-.027343.007812-.027344.015625-.054688.023438-.085938-.011719-.058594.003906-.125.039062-.175781.042969-.035157.066406-.089844.125-.09375.03125-.023438.074219-.039063.113281-.039063.027344-.003906.054688.007813.078125.023438v-.003906c.011719-.003907.019532.015624.027344.003906.011719.007812.015625-.007813.023438 0-.003907.015625.011718.023437.023437.027344.011719 0 .015625-.011719.027344-.003907l-.003907.007813c.015626.003906.023438.019531.027344.035156.046875.035156.035156.09375.054688.140625.003906.03125-.007813.054687-.003906.089844-.011719.015625 0 .03125 0 .050781-.007813.066406-.03125.128906-.070313.179688-.007813.03125-.011719.0625-.015625.09375.054688.011718.109375.019531.164062.019531.105469.039062.097657.160156.132813.246093.011719.03125.019531.0625.027344.09375.011719-.035156.019531-.070312.03125-.105468.023437-.054688.046875-.113282.058593-.171875.015626-.027344.03125-.050781.046876-.078125.019531-.085938.058593-.164063.113281-.230469.082031-.054687.171875-.097656.265625-.125.054687.003906.09375-.035156.132812-.0625.003906-.019531.003906-.042969 0-.0625-.007812-.003906-.015625-.007813-.023437-.015625-.007813-.007812-.019531-.007812-.019531-.019531-.015626 0-.011719-.019531-.011719-.03125-.007813-.023438-.015625-.046875-.015625-.070313-.007813-.019531-.011719-.042968-.015625-.0625l-.011719-.035156c-.019531-.039062 0-.085938-.015625-.121094-.011719-.046875.003906-.09375.039063-.125.027343-.070312.09375-.117187.167968-.125.007813-.019531.019532 0 .03125-.011718l-.003906-.019532c.011719-.015625.019531.015625.03125.003906.003906.007813 0 .015626.007812.019532l.015626-.015625c.015624.015625.023437-.015625.035156-.007813 0 .007813-.003906.015625 0 .019532.035156-.003907.070312.007812.097656.03125.050781 0 .0625.058593.09375.089843.03125.035157.042969.078125.035156.125.015625.03125 0 .070313 0 .101563.011719.023437.015625.046875.007813.070312-.003907.011719-.007813.023438-.015625.03125-.003906.007813-.003906.011719-.003906.015625-.003907.011719-.007813.019531-.011719.023438.019531.011719-.011719.03125.011719.039062 0 .023438-.023438.011719-.035157.023438 0 .007812-.003906.015625-.011719.019531v.003906c-.003906.019532-.027343.023438-.019531.046875.007813.027344-.007812.058594.011719.082031.003906.003907.011719.007813.019531.007813.023438.039063.074219.015625.101563.050781.039062.003906.066406.046875.109375.042969.070312.039063.15625.070313.199219.15625.042968.078125.082031.160156.113281.246094-.011719.027343.027343.03125.027343.054687.007813.023438.015626.042969.019532.0625.003906-.007812.011718-.015625.019531-.027344.023437-.023437.054687-.042968.085937-.050781.082032-.003906.160157-.039062.214844-.097656 0-.019531-.003906-.035156-.007812-.050781-.039063-.027344-.058594-.070313-.09375-.097656-.003906-.03125-.015625-.0625-.035156-.089844-.027344-.011719-.046876-.046875-.070313-.070313-.011719-.019531-.003906-.046875-.03125-.058593-.011719-.015626-.007813-.035157-.019531-.050782-.007813-.023437-.003906-.046875.007812-.070312.011719.003906.011719-.007813.015625-.015625.011719-.027344.03125-.050781.054688-.0625.007812-.015625.023437-.011719.035156-.023438l-.011719-.007812c.007813-.007813.027344 0 .03125-.007813.007813-.007812.03125-.011718.019532-.023437.007812-.011719.027343.007812.03125-.011719.019531 0 .035156-.007812.046874-.019531 0-.007813-.015624-.007813-.007812-.015625.019531 0 .039062.007812.058594.007812.019531-.011718.027344.015625.042968.007813.042969-.011719.066407.03125.101563.039062.027344.019531.03125.050781.054687.074219 0 .015625.015626.019531.023438.035156.027344.03125.023438.082032.042969.117188 0 .042968-.011719.085937-.011719.128906l-.007812.003906c-.007813.027344-.007813.058594-.007813.089844-.011719.019531-.015625.039062-.007813.0625 0 0-.003906.003906-.003906.003906.003906.039063.011719.078125.027344.113282.0625.089843.171875.097656.261719.136718.101562.050782.070312.175782.09375.269532.027343.132812-.003907.292968.035156.425781.007813.140625.027344.269531.027344.410156-.011719.066406 0 .132813-.011719.195313 0 .054687.003906.105468.015625.15625-.011719.054687 0 .125-.046875.164062.011719.035156.023438.0625.042969.09375.023437.089844.097656.164062.117187.261719.015625.085937.019532.171875.011719.257812.007813.070313.019531.144531.023437.21875.007813.039063.007813.078125 0 .117188l-.003906.28125c0 .03125-.007812.074219.015625.097656.019531.070313.019531.148437.070313.203125.003906.011719-.015625.011719-.011719.023438.015625.019531.042969.023437.066406.03125.011719-.007813.019531-.015626.015625-.027344-.011718-.027344.003906-.0625.007813-.089844.007812-.074219.007812-.152344 0-.226562-.011719-.144532-.007813-.292969.007812-.441407.011719-.144531.003907-.289062-.019531-.429687-.011719-.070313-.015625-.140625-.019531-.210938-.003907-.074218.007812-.152344.003906-.230468v-.109376c0-.019531 0-.035156-.011719-.042968-.011718-.007813-.027344-.015625-.035156-.023438-.050781-.039062-.097656-.082031-.132812-.132812-.039063-.046875-.0625-.101563-.066407-.160156.003907-.070313.003907-.136719 0-.203126-.011719-.070312-.015625-.136718-.019531-.207031v-.09375c0-.035156 0-.066406.007812-.097656 0-.054687.015626-.109375.046876-.15625.019531-.019531.03125-.046875.035156-.074219-.007813-.039062-.003906-.078125.007812-.113281.011719-.058594.019532-.117187.023438-.175781-.003906-.03125.003906-.058594.019531-.085938.023437-.023437.050781-.046875.078125-.070312.039062-.03125.09375-.027344.132812-.058594.042969-.035156.089844-.066406.140626-.09375.027343-.019531.003906-.140625 0-.175781-.003907-.027344 0-.054688-.03125-.054688-.015626 0-.03125-.042969-.03125-.0625 0-.046875-.003907-.097656-.011719-.144531-.007813-.019531-.007813-.042969 0-.0625.007812-.007812.003906-.023438.011719-.027344.007812-.003906.015624-.007812.015624-.019531-.003906.007813-.023437.011719-.023437.019531-.007813-.035156.039063-.046875.046875-.074218 0-.023438-.011719-.023438.015625-.039063.011719-.007813.023437-.007813.023437-.027344 0 0 .054688-.023437.058594-.027343.039063-.007813.070313-.023438.105469-.035157.003906 0-.003906.015625.007813.007813.007812.003906.015624.007812.019531.015625.003906 0 .003906.003906.003906.007812.003906-.011719.011719-.007812.019531-.007812-.011718.007812.011719.027343.011719.007812.007813 0-.007813.015625 0 .019531.027344-.023437.039063-.023437.0625 0 .007813.019532.011719.039063.007813.0625.011718-.015624.03125.019532.042968.027344.019532.015625.035156.03125.042969.054688-.003906.003906-.011719-.003906-.015625 0 .003906 0 .007812.011718.007812 0 0 .011718.011719.125 0 .125-.003906-.003906-.007812-.007813-.011718-.007813.003906.054688 0 .105469-.015625.15625-.003907.011719-.007813.023438-.015625.035157-.019532 0-.023438-.007813-.023438.011718-.007812.039063-.015625.074219-.015625.113282 0 .015624 0 .03125.003907.046874.003906.019532.019531.015626.035156.015626.035156.003906.070312.011718.101562.019531.0625.015625.117188.050781.179688.066406.042968.011719.074218.054687.070312.101563.003906.027343.011719.058593.023438.082031.011718.035156.019531.074219.027344.109375.003906.035156.007812.070312.003906.105468.003906.027344.015625.058594.027344.085938.019531.066406.019531.136719.035156.207031.003906.03125.003906.0625 0 .09375-.019532.027344-.042969.046875-.058594.074219-.035156.070312-.078125.140625-.125.207031l-.058594.085938c.007813.027343.023438.050781.035156.078125.023438.0625.027344.132812.019532.199218-.003906.0625-.011719.121094-.019532.183594 0 .03125.003907.0625.015626.089844.011718.039062.015624.078125.011718.113281 0 .066407-.007812.132813-.015625.195313 0 .0625.015625.164062-.015625.210937.003906.074219.003906.152344.003906.226563.003907.066406.019532.128906.046876.191406.039062.136719.0625.277344.066406.421875.007812.074219.011718.148437.007812.226563-.003906.03125-.003906.066406.007813.097656.011719.027344.015625.054687.019531.082031.011719.0625 0 .125.007812.191406 0 .027344.003907.15625-.058593.117188m.816406.117187c-.011719-.007812-.027344-.007812-.027344-.023437-.015625-.054688.023438-.089844.039063-.136719 0 0 .003906-.003906.003906-.007812-.011719-.003907-.027344 0-.035156-.011719.015625-.027344-.003906-.0625 0-.097657-.058594-.046874-.019532-.140624-.050782-.199218-.003906-.007813-.003906-.019532-.011718-.023438-.046875.019532-.097656.03125-.148438.039063-.050781.011719-.042968.082031-.097656.082031-.027344.027344-.074219.019531-.113281.027344-.046875.011718-.117188.027344-.152344-.007813 0-.007812 0-.015625 0-.023437.058594-.039063.140625-.089844.152344-.164063-.082031-.132812-.0625-.292969-.066407-.453125-.03125-.136718-.015624-.289062-.046874-.425781-.058594-.125-.101563-.257813-.128907-.394531 0-.0625-.011719-.121094-.035156-.175782-.015625 0-.027344-.011718-.042969-.019531-.003906.015625.007813.035157-.015625.042969l-.011719-.003906c-.027343-.035156-.054687-.070313-.074218-.105469-.003906-.046875-.007813-.09375-.015625-.140625.007812-.054688.050781-.097656.070312-.152344.03125-.109375.023438-.234375.0625-.339844.023438-.050781.054688-.101562.078125-.15625.003906 0 .011719-.007812.003906-.011718.039063-.082032.0625-.171875.070313-.261719-.019531-.066406-.074219-.152344-.015625-.21875.054688-.046875.058594-.113281.082031-.175781.046875-.050782.125-.058594.1875-.082032.027344-.015624.03125-.046874.03125-.074218-.003906-.027344-.007812-.054688-.015625-.082032-.050781-.03125-.085937-.078124-.097656-.136718l-.011719-.015625-.007812-.039063c-.007813 0-.015625 0-.023438 0-.019531-.015625.011719-.054687-.019531-.070312-.011719-.019532.011719-.046875-.011719-.070313.007813-.015625-.011719-.035156 0-.050781 0-.015625.019531-.03125 0-.039062 0-.007813 0-.015626.003907-.023438.003906 0 .007812-.003906.011718 0s-.003906.007812 0 .011719c0 .007812.011719.007812.015625.007812.011719-.011719-.003906-.023437 0-.035156.007813-.011719.023438-.019531.019531-.035156.03125.015625.039063-.03125.070313-.027344.011719-.023437.03125-.023437.050781-.023437.007813-.003907-.003906-.011719.003906-.015626l.023438.003907c.003906-.007813.015625-.015625.027344-.015625.007812 0 .019531 0 .027344.007812.023437-.003906.046874.003906.0625.019532l.007812-.007813c0-.003906.007812 0 .011719 0 .007812.023437.039062.011719.042969.039063.011718.003906.019531.019531.03125.023437.015624 0 .027343.003906.039062.019531-.007812.011719 0 .019532.007812.03125.007813.015625-.007812.042969.015626.042969 0 0 .003906-.003906.003906-.003906.003906-.003907.007812 0 .011718 0 .003907.007812.003907.015625.003907.023437-.007813.003906 0 .015625-.003907.027344-.007812.011719-.011718.023438-.007812.035156.007812.007813.023438.003906.023438.015625-.03125.015625-.007813.050781-.03125.066407.003906.027343-.003907.058593-.023438.078124-.003906.011719.011719.007813.019531.019532.011719.011718.019531.027344.039063.019531.003906-.003906.007812-.003906.007812-.007813.003906-.007812-.007812-.019531 0-.019531.011719 0 .011719.007813.019532.011719.003906.011719 0 .019531-.003907.027344.019531.011718 0 .066406.039063.042968.007812-.003906.015625.007813.019531.011719.011719.007813.015625.019531.011719.03125-.015625.011719-.023438.027344-.027344.042969.011719.007812.027344.019531.039062.007812.007813-.007812.003907-.019531.003907-.023437s-.003907-.007813-.003907-.011719c.007813-.011718.011719.003906.015626.007813.003906.011719.007812.023437.003906.03125-.003906.015625-.027344.019531-.011719.03125v.019531c.007813.003906.015625.003906.023437 0 .082032.03125.089844.125.109376.199219.011718.082031.015624.164062.019531.253906-.003907.003906-.011719.007813-.015625.011719 0 .089844-.011719.183594-.011719.273437-.007813.03125-.019531.066407-.039063.09375-.019531.054688-.035156.105469-.046874.164063-.03125.074218-.066407.152344-.109376.222656-.011718.019531-.015624.042969-.019531.066406-.007812.035156-.019531.070313-.03125.101563-.023437.042969-.050781.085937-.078125.128906-.015625.042969.023438.078125.046875.113281.003907.015625.003907.03125 0 .046875-.007812.007813-.015625 0-.023437 0-.003906.011719.007812.03125-.011719.035157-.003906 0-.011719.003906-.011719.011718.007813.078125-.003906.148438.019532.222656-.007813.046876.019531.082032.03125.121094.054687.078125.050781.179688.105468.261719.054688.113281.074219.238281.113282.359375.035156.1875.082031.367188.144531.546875.011719.058594.023437.117187.03125.175781.003906.011719.003906.023438.003906.035156-.023437.023438-.058594.035157-.089844.03125-.019531.019532-.015625.042969-.023437.066407-.023438.078125-.113282.089843-.175782.125-.03125.003906-.050781.035156-.085937.023437m1.59375-2.902344c-.019531.03125-.042969.058594-.066406.085938-.015625.03125-.035157.066406-.050781.097656-.074219.125-.160157.242188-.261719.34375-.015625.015625-.03125.035156-.046875.035156-.007813 0-.019532.003907-.023438.011719-.023437.011719-.042968 0-.054687.011719-.027344.03125-.019531.050781-.015625.085938.003906.039062.011718.074218.015625.109374.015625.078126.03125.15625.039062.234376.003907.03125.019531.074218-.011719.09375-.011718.003906-.023437.011718-.039062.015624-.019531.007813-.011719.027344-.011719.046876.007813.160156.019531.324218.035157.484374l.011718.132813c-.003906.039063.003906.078125.011719.113281.027344.066406.046875.136719.0625.207032.035156.160156.0625.316406.074219.480468.015625.160156.058594.324219.046875.488282-.023438-.003907-.046875-.015626-.070313-.015626.050782.078126.019532.191407.027344.277344.011719.101563-.101562.117188-.179688.121094-.042968.003906-.085937 0-.121093-.015625-.042969-.023437-.03125-.078125-.023438-.121094.011719-.050781.03125-.097656.039063-.144531.019531-.042969.035156-.085938.042968-.132812-.023437.003906-.066406.011718-.082031-.011719 0-.039063-.003906-.082031-.011719-.125-.011718-.074219-.03125-.148438-.042968-.222657-.03125-.175781-.054688-.351562-.082032-.527343.011719.210937.007813.421875.003907.636719.007812.039062 0 .082031-.019531.121093-.007813.011719.007812.039063.007812.054688.003906.023437.003906.046875 0 .070312 0 .015625.011719.046875-.003906.058594-.011719.007813-.027344.015625-.042969.019531-.035156.007813-.074219.011719-.109375.011719-.019531.003906-.085938.011719-.085938-.003906s-.09375.011719-.109374.015625c-.09375.015625-.1875.023437-.28125.023437-.023438-.003906-.042969-.003906-.0625-.007812-.023438-.007813-.039063-.003907-.039063-.03125 0-.046875-.007813-.0625.042969-.082031.03125-.015626.203125-.039063.203125-.085938.007812 0 .011719.023438.011719.007812.003906-.011718.019531-.011718.03125-.011718-.011719-.015625.023437-.023438.027343-.042969-.019531.011719-.039062.027344-.058593.042969.011718-.035156.0625-.050782.09375-.0625 0 0-.007813.027344.011718.015625.011719-.007813.015625 0 .023438 0 .007812-.003907.011718-.011719.019531-.015625-.027344-.019532-.050781-.039063-.050781-.074219.003906-.03125.019531-.066406.019531-.097656-.011719-.078125-.015625-.152344-.015625-.226563-.007812-.15625.003906-.324218-.023438-.472656-.023437-.152344-.070312-.296875-.09375-.449219-.023437-.152343-.039062-.304687-.042968-.460937-.019532 0-.011719.023437-.027344.027344-.011719.003906-.011719-.0625-.011719-.078126-.003906-.050781-.011719-.105468-.019531-.160156-.011719-.054687-.015625-.113281-.015625-.171875-.003906-.050781-.007813-.097656-.003906-.148437.015625-.109375.058593-.207032.074219-.316406.007812-.054688.015624-.105469.023437-.15625.003906-.03125.007813-.058594.011719-.085938 0-.007812-.007813-.039062-.003906-.042969.023437-.027343.003906-.113281.003906-.148437.003906-.054688.007812-.109375.019531-.164063.007813-.023437.011719-.050781.011719-.078125s.003906-.050781.015625-.074218c.015625-.035157.039062-.066407.0625-.09375.015625-.019532.03125-.03125.050781-.042969.023438-.015625.023438-.042969.035156-.066407.011719-.019531.011719-.046874.003906-.066406-.007812-.023437-.035156-.007812-.050781-.007812-.03125-.039063-.050781-.078125-.066406-.121094-.027344-.035156-.042969-.070312-.054687-.113281-.023438.011719-.03125-.007813-.046876-.023438-.011718-.019531.011719-.042969.027344-.058593 0-.03125-.007812-.0625-.007812-.097657-.003906 0-.007813.003907-.011719.003907-.03125-.003907-.011719-.03125-.019531-.050782.003906-.039062.027344-.078125.054687-.105468.019531-.015626.039063-.03125.058594-.042969.027344-.023438.066406-.035157.101563-.03125.019531 0 .03125-.011719.050781-.003907.023437-.003906.046875.007813.070312.007813 0-.007813-.003906-.011719 0-.015625.003907-.003906.007813.003906.007813.003906.003906.011719.015625.003906.019531 0 .007813.007813.023437.015625.019531.023438.007813.007812.015625.015625.023438.027344.039062.007812.050781.050781.078125.078124.03125.003907.023437.039063.035156.0625 0 .007813.015625.011719.011719.019532l.007812.007812c-.007812.019532.007813.042969-.007812.054688.019531.019531-.023438.023437 0 .042968l-.011719.003907c.011719.011719 0 .019531-.007813.027343l.007813.019532c-.019531.007812.003906.023437-.007813.039062-.019531.007813 0 .019532 0 .03125-.003906 0-.011718 0-.015624 0-.007813 0-.011719.003906-.015626.003906.003907.023438.011719.050782.019532.074219.015625.03125.015625.039063.050781.042969.023437.003906.0625-.003906.070313.015625.015624.039063.023437.039063.058593.039063.097657 0 .191407.039062.265625.105468.03125.039063.058594.078125.085938.121094.039062.046875.082031.09375.121094.144531.03125.042969.074218.078125.109374.121094.015626.019531.03125.039063.050782.054687.007812.023438.023437.046876.039062.0625.050782.058594.015625.136719-.019531.1875" fill-rule="evenodd"/><path d="m2.472656 9.910156v-.007812l-.007812-.011719zm-.085937-.09375.019531.007813c0-.015625-.007812-.027344-.019531-.035157zm.039062.023438c.011719.007812.019531.023437.035157.023437v-.003906c-.003907-.011719-.019532-.027344-.035157-.019531m-.089843-.167969c-.007813.015625.007812.019531.015624.027344-.003906-.011719-.007812-.019531-.015624-.027344m.015624.117187c0 .003907.007813.007813.007813.007813v-.007813c-.003906 0-.007813 0-.007813 0m-.140624-.238281c0 .007813.007812.015625.015624.015625 0-.007812-.007812-.011718-.007812-.015625zm.078124.078125c.015626-.003906 0-.011718 0-.019531-.007812-.007813-.019531-.015625-.03125-.015625.015626.019531.011719.058594.042969.050781.003907-.007812-.007812-.007812-.011719-.015625m.003907-.042968c-.011719-.007813-.03125-.011719-.042969-.007813.027344.003906.050781.019531.0625.042969 0-.011719-.007812-.027344-.015625-.039063zm.269531.449218v-.011718c-.003906-.011719-.011719-.019532-.019531-.019532l-.003907.003906c.007813.007813.015626.023438.023438.027344m.011719.152344h-.003907l.003907.003906zm-.398438-.652344-.007812.003906c.003906.007813-.007813.003907-.007813.003907.011719.011719.03125.011719.042969.015625 0-.007813-.011719-.015625-.015625-.023438-.003906 0-.007812 0-.011719 0m.371094.59375c.007813 0 .007813-.011718.011719-.019531-.011719-.007813-.007813-.019531-.011719-.023437-.003906.015624-.003906.03125 0 .042968m1.4375 3.210938-.003906-.003906c0 .003906.019531.015624.015625.011718-.003906 0-.003906-.007812-.011719-.007812m-1.4375-2.460938c-.003906-.007812-.003906-.023437-.011719-.023437-.019531.03125-.003906.066406-.027344.101562 0 .027344-.003906.058594-.011718.089844.007812.011719.007812.023437.007812.035156-.011718.046875-.015625.09375-.007812.140625-.023438.050782.003906.097656-.003906.148438.011718.050781.019531.105468.015624.15625.003907.007812.007813.011718.007813.019531.023437.03125.039063.066406.054687.097656l.003907.003907c.007812-.023438.019531-.046876.03125-.066407.019531-.035156.007812-.082031.015625-.121093-.011719-.105469-.042969-.203126-.046875-.3125-.03125-.082032-.019531-.183594-.027344-.269532m.003906-.59375v.011719c.011719 0 .019531.003906.027344 0v-.003906c-.003906-.019531-.019531 0-.027344-.007813m-.007812-.226562.007812.011718v-.007812s-.003906-.007812-.007812-.007812zm0 .171875c.003906.011719.007812.019531.007812.03125.003907.007812.007813.019531.015625.011719l-.011718-.015626c-.003907-.007812.003906-.027343-.011719-.027343m-.710938.542969c-.035156.078124-.011719.179687-.027343.261718.015624-.011718.015624-.027344.035156-.042968l.007812-.035157c.019532-.023437-.003906-.066406.019532-.09375-.019532-.039062-.003907-.085937-.019532-.125-.007812.007813-.007812.023438-.015625.035157m10.480469-1.601563.003906-.027344c-.003906.003907-.003906.015625-.003906.027344zm-.519531-.066406.011719.039062c-.003907.003907-.011719 0-.011719 0 .003906.011719.003906.027344.015625.03125h.003906l-.015625-.070312zm-6.929688.441406c-.003906.007813-.011719.015625-.007812.023437.007812-.003906.011719-.015624.007812-.023437m6.058594.199219c.027344-.03125.042969-.070313.054687-.109375h-.003906c-.027344.03125-.042968.070312-.050781.109375m.050781-.121094c.003906 0 .003906-.007812.003906-.015625 0 .003906-.007812.015625-.003906.015625m3.75 3.84375c-.003906.003906-.003906.003906-.003906.007812.007812 0 .03125.007813.039062-.011718-.011718-.003906-.027343-.003906-.035156.003906m-11.011718-3.933594c.007812.003906.007812.007813.007812.015625h.007812c.007813 0 .011719-.003906.011719-.019531-.007812.003906-.023437-.003906-.027343.003906m-1.375.121094-.003907-.003906h-.003906c-.003906.007812.003906.007812.011719.007812zm-.230469-.113281.003906.003906c.003906 0 .011719 0 .011719-.003906h-.003906c-.003907-.003907-.015626-.003907-.011719 0m2.175781.425781c0 .007812-.003906.011719-.003906.015625h.003906c.003906-.003906.003906-.007813 0-.015625m-2.566406 1.808594v.074218c.003906.042969.015625.085938.027344.128907-.003907-.070313-.011719-.140625-.023438-.207031zm.417968-2.253906c.007813.003906.023438.007812.027344 0h-.003906c-.007812-.003907-.015625-.003907-.023438 0m-.53125 1.265624c-.003906.070313 0 .167969-.070312.207032-.03125.136718-.035156.292968.007812.425781-.066406-.015625-.003906.0625-.035156.0625.011719.035156.023438.070313.03125.105469 0-.019532.003906-.039063.011719-.058594-.007813-.09375.023437-.1875.023437-.277344.007813-.089844.039063-.171875.046876-.265625.023437-.074219.03125-.152343.03125-.226562 0-.015625.003906-.03125.003906-.046875-.003906.003906-.003906.011718-.007813.015625-.007812.023437-.050781.027343-.042969.058593m3.21875-1.148437h.003907v.003906c.007812-.003906.007812-.007812.007812-.015625-.007812 0-.011719.007813-.011719.011719m-.066406-.308594h.003906c0 .007813.011719 0 .015626.003907 0-.003907-.003907-.007813-.011719-.007813 0 0-.007813 0-.007813.003906m-1.03125.148438h-.003906c-.003906.015625.015625.039062-.003906.046875.015625-.003906.035156.003906.027344-.019532-.003907-.011718-.011719-.023437-.019532-.027343m-1.902344.433593v.015626c.003907-.003907.007813-.007813.007813-.011719 0 0-.003906-.003907-.007813-.003907m.6875.054688c.011719 0 .011719.011719.019532.019531.003906-.019531-.003906-.042969-.015625-.0625-.007813.003907-.015625 0-.023438.007813-.003906.011718 0 .027344.003907.039062.003906-.003906.007812-.003906.015624-.003906m9.085938.328125c-.011719-.027344-.023438-.050781-.03125-.082031-.019531.027344-.027344.054687-.03125.085937.003906.007813.011719.019531.003906.03125-.011718.019531-.046875.023438-.039062.058594-.003906.007813-.015625.011719-.015625.019531.023437.011719.035156.046875.0625.050782.011719.007812.023437.03125.035156.027343.003906-.015625.007813-.03125.019531-.042969-.007812-.023437-.019531-.050781-.015625-.074218.003907-.023438.027344-.046875.011719-.074219m.992188.019531c-.011719-.015625-.027344-.039062-.019532-.058594 0-.007812-.015625-.015624-.019531-.007812.003906.054688-.007813.109375-.035156.160156.011719.035156-.015625.066406 0 .09375.042969-.023437.074219-.070312.128906-.074218.007813-.015626-.019531-.019532-.011719-.035157-.015625-.023437-.015625-.0625-.042968-.078125m.351562.222656c-.035156.078126-.007812.179688-.023438.261719.015626-.011719.015626-.03125.03125-.042969l.007813-.035156c.019531-.027344 0-.066406.019531-.09375-.019531-.039062-.003906-.085937-.019531-.125-.003906.011719-.011719.023438-.015625.035156m.710938.097657c-.003907-.007813 0-.019531-.007813-.023438-.019531.035157-.007813.070313-.027344.105469 0 .027344-.003906.058594-.011719.085938.003907.011718.007813.027343.007813.039062-.015625.046875-.015625.09375-.007813.140625-.023437.050781 0 .097656-.007812.148437.015625.050782.019531.105469.015625.15625.007813.007813.011719.011719.007813.019532.023437.03125.042968.066406.058593.097656v.003906c.007813-.023437.019531-.046875.03125-.070312.019531-.035156.007813-.078125.015625-.117188-.007812-.109375-.039062-.207031-.046875-.316406-.03125-.082031-.015625-.179688-.027343-.269531m-.324219-1.335938c.003906.011719.007812.027344.015625.027344-.003906-.011719-.007813-.023437-.015625-.027344m-2.1875 1.332031c-.011719-.097656-.023438-.199218-.039063-.296874l-.003906-.003907c-.007812.066407-.027344.125-.039062.1875-.003907.101563.007812.203125.027343.304688h.007813c.011718.042969.015625.089843.011718.132812l-.019531.058594.011719.011719c.011719.039062.003906.089844.011719.132812.027343.027344-.007813.074219.023437.101563.027344-.050781.035156-.109375.027344-.164063.007812-.066406.011719-.132812.007812-.203125-.015624-.085937.007813-.183593-.027343-.261719m-.671875 1.367188c-.027344-.140625-.0625-.277344-.105469-.414062 0-.015626-.011719-.015626-.023437-.019532-.003907.011719 0 .027344.003906.042969.007812.015625.011718.03125.011718.046875-.003906.011719-.015624.011719-.019531.007812-.023437-.011718-.039062-.03125-.042969-.054687-.015624.046875.027344.070313.03125.109375-.003906.011719 0 .027344-.015624.027344-.039063-.011719-.046876-.058594-.082032-.074219-.027344-.007813-.050781-.03125-.058594-.058594-.003906-.007812-.003906-.019531-.007812-.027343v.03125c-.019531.148437-.011719.296874.023438.441406.039062.144531.03125.296875.039062.441406.003906.074219.011719.144531.019531.214844.007813.03125.007813.066406.011719.101562v.046875c-.003906.027344.011719.039063.027344.054688.050781.039062.09375.085937.136718.132812.015626.023438.035157.046875.058594.066407-.003906-.007813-.003906-.015626-.003906-.019532.011719-.050781.070312-.078125.070312-.128906.027344-.042969.089844-.070312.078126-.128906-.015626-.160156-.058594-.316406-.121094-.460938-.039063-.117187-.023438-.25-.03125-.378906m-6.210938-1.9375c-.003906.003906-.003906.007812 0 .011719.003906.003906.007813-.003907.007813-.007813h.003906c.003906-.027344-.015625-.050781-.011719-.078125 0-.003906-.007812 0-.007812.007813-.007813.027344.027344.042968.007812.066406m6.132813.707031c.003906-.003906.007812 0 .011719.003907.007812-.015626.023437-.027344.023437-.042969.003906-.011719.007813-.019531.015625-.023438.035156-.066406-.015625-.132812-.007812-.199219 0-.027343-.011719-.054687-.027344-.074218-.003906.082031-.027344.15625-.03125.238281.015625.046875-.007813.09375-.007813.140625.007813-.015625.015625-.03125.023438-.042969m-.226563.507813c-.003906-.101563.003906-.191406.003906-.289063.019532-.121093.035157-.238281.050782-.359375-.007813-.074218-.011719-.148437-.007813-.222656.003907-.015625.003907-.035156.007813-.050781-.007813.007812-.019532.019531-.027344.027343-.035156.050782-.078125.097657-.121094.144532-.015625.015625-.023437.019531-.019531.035156 0 .015625.003906.03125.007813.046875.007812.035156.015624.074219.019531.109375.003906.039062-.003907.070312 0 .109375.003906.039063.011719.074219.015625.113281.011718.078125.027344.160156.039062.242188.011719.066406.003906.132812.015625.203125l.003907.019531c.003906-.042969.007812-.085938.011718-.128906m-.046875-1.15625c.011719-.027344-.035156-.0625-.054687-.078125-.027344-.023438-.042969-.054688-.050782-.085938-.023437.113281-.023437.226563-.003906.339844.019532-.035156.039063-.070313.058594-.109375.011719-.023438.042969-.042969.050781-.066406m6.164063 3.566406c.003906.007812.007812 0 .015625 0-.003907-.011719-.007813-.011719-.015625 0m-2.117188-.410156c.003906-.007813.011719-.015625.019532-.023438-.015626 0-.023438.007813-.035157.015625.007813.003907.011719.007813.015625.007813m2.960938-2.597656c.003906-.054688-.039063-.066407-.070313-.105469.003907.003906-.007812.160156-.007812.175781-.003907.054688-.011719.105469-.027344.15625.023437-.050781.054687-.101562.09375-.144531.015625-.011719.027344-.03125.039063-.046875.007812-.023438-.011719-.023438-.027344-.035156m-1.25.054687c-.023438.035156-.046875.074219-.0625.113281-.003906.019532.011718.035156.003906.050782-.011719 0-.027344 0-.042969 0l.007813.039062c.027344.054688.042968.109375.046875.167969v.003906c.035156-.074219.058593-.152344.066406-.234375.015625-.070312.042969-.136719.058594-.210938-.003907-.007812.003906-.023437-.007813-.023437-.03125.027344-.042968.0625-.070312.09375m.386718 2.972656c.003907 0 .003907-.003906.007813-.003906l-.003906-.007813c0 .003907-.011719.011719-.003907.011719m-2.097656-3.207031c-.015625.078125-.0625.136719-.054687.21875-.03125.101562-.078125.199219-.078125.308594 0 .027344.003906.058594.011718.085937.023438 0 .042969.007813.0625.015625.03125.023438.054688.058594.0625.09375-.003906-.066406 0-.132812.003907-.199218.003906-.027344.003906-.050782.003906-.085938s.007813-.0625.007813-.097656c0-.054688.011718-.109375.023437-.164063.007813-.058593-.007813-.125-.042969-.175781m.757813-.066406c-.0625.101562-.128907.195312-.097657.320312.050782-.097656.058594-.210937.117188-.304687-.011719 0-.011719-.011719-.019531-.015625m1.011719-.59375.003906.011718c.011718.011719.027344.015626.042968.011719 0-.003906.003907-.007812 0-.015625-.019531-.003906-.035156.007813-.046874-.007812m-.117188-.425782c.003906-.003906.003906-.003906.003906-.007812h-.007812c-.003906.003906 0 .011719.003906.007812m-5.324219-.027343c-.019531.035156-.027343.074219-.023437.113281l.003906-.007812c0-.035157.007812-.070313.019531-.105469m-4.746093 3.621093c-.003907-.035156-.011719-.074218-.019532-.109374-.023437-.136719-.042968-.277344-.050781-.417969 0-.066407.003906-.128907.019531-.195313.011719-.058594.050782-.117187.023438-.179687-.035156-.007813-.070313-.015625-.101563-.027344l-.054687-.015625c-.023438-.003906-.015625-.015625-.015625-.039062.007812-.078126.007812-.15625.007812-.234376.003907-.148437.003907-.300781.015625-.449218.003906-.039063.007813-.078125.011719-.117188-.003906 0-.011719.011719-.015625.011719-.015625.003906-.015625-.03125-.015625-.039063 0-.03125-.003906-.066406-.019531-.09375-.019532-.035156-.039063-.070312-.054688-.105468-.011718-.019532-.015625-.042969-.035156-.050782-.019531-.007812-.035156-.015624-.046875-.03125-.085937-.125-.136719-.261718-.203125-.394531l.003906.011719c-.007812.121094.03125.234375.042969.351562.023437.144532.015625.285157.03125.429688 0 .039062.015625.078125.019531.117188 0 .035156-.003906.070312-.011718.105468-.019532.015625-.011719.050782-.039063.0625-.011719.035156-.054687.046875-.066406.085938.023437.105468.039062.210937.042969.320312.007812.070313.046874.125.046874.195313.03125.058593.042969.125.039063.195312.019531.066407.027344.132813.03125.203125-.003906.105469.039063.191406.058594.289063.011719.039062.007812.082031.019531.117187 0 .042969.03125.074219.039062.109375.035157.03125.066407.058594.101563.089844.007813.003906.015625.015625.007813.023437.023437.023438.054687.039063.085937.046876l.003906.003906c.019531-.019532.039063-.035156.046875-.046875.015625-.015625.027344-.035157.035156-.058594.007813-.027344-.011718-.050781-.003906-.082031.011719-.027344.015625-.054688.019532-.082032m-.144532-2.226562c.011719.019531.023438.03125.015625.054688-.003906.015624-.019531.035156-.019531.046874.03125 0 .027344-.011718.03125-.042968v.003906c.007812-.027344.011719-.054688.011719-.082031 0-.066407-.011719-.132813-.015625-.195313-.003906-.03125-.019532-.363281-.039063-.359375-.039062.078125-.117187.121094-.175781.179688.035156.089843.074219.179687.125.265625.019531.042968.042969.085937.066406.128906m2.300782-1.257812c-.007813.003906-.015626.007812-.019532.011718v.046875c.007813-.019531.015625-.039062.019532-.058593zm-1.65625 1.171874c.007812-.042968.023437-.085937.03125-.132812.007812-.019531.011718-.042969.011718-.066406-.011718-.023438-.023437-.042969-.039062-.0625-.050782.070312-.035156.191406-.003906.261718m-.339844 1.503907h-.003906c.011718-.023438.042968-.058594.019531-.089844-.003907.03125-.015625.0625-.015625.089844m-.320313-.996094c.003907-.023437.03125-.089844-.003906-.09375 0 .03125 0 .0625.003906.09375m-.496093-.199219c-.007813-.054687-.023438-.105468-.027344-.160156-.019532-.0625-.015625-.132812-.035156-.191406-.007813.039062-.042969.074218-.03125.121094.003906.039062-.023438.078124 0 .109374.007812.046876.023437.09375.039062.136719.007812.035157.003906.070313-.003906.105469.011718.046875.019531.097656.019531.144531.007813.042969.019531.085938.03125.125.015625-.039062.023437-.078125.03125-.121093-.007813-.042969-.011719-.085938-.007813-.128907-.011718-.046875-.015624-.09375-.015624-.140625m-.792969-.03125c-.019531.03125-.035157.066406-.046875.101563-.011719.082031-.023438.164062-.027344.246093l.003906-.003906c.003906.03125.011719.058594.023438.082032-.007813-.097657-.003906-.195313.011718-.292969.003907-.035157.019532-.070313.035157-.101563 0-.007812.003906-.011718-.003907-.015625 0-.003906.003907-.011719.003907-.015625m.042969-.152344h.003906c.019531-.058593.019531-.117187.003906-.175781-.007812.058594-.003906.113281-.007812.175781m.027343-1.078124v-.015626l-.011719.011719c.003907.003907.007813.003907.011719.003907m3.339844 1.535156c0-.011719 0-.019532 0-.027344-.003906.003906-.007813.007812-.015625.007812l-.007812.007813c.003906.003906.007812.007813.011718.011719zm.964844-1.085938c-.011719-.039062-.035157-.082031-.058594-.117187-.027344.070312-.042969.144531-.074219.21875-.023437.089843-.027344.183593-.011718.273437.011718-.027344.039062-.050781.050781-.082031.035156-.097656.066406-.191406.09375-.292969m.433593-.003906c.03125.019531.0625.042969.097657.0625-.007813-.085938-.027344-.167969-.054688-.25-.03125.054688-.082031.097656-.109375.148438.003906.03125.039063.035156.066406.039062m-.640624-1.15625-.003907.003906c.003907.0625.046875.113282.042969.179688-.003906.03125-.003906.0625 0 .09375.019531-.066406.015625-.140625-.007812-.207032-.007813-.023437-.015626-.046874-.03125-.070312m.503906 1.34375c-.03125-.015625-.0625-.027344-.097656-.039062-.007813-.003907-.015626-.007813-.023438-.011719-.023438.046875-.050781.09375-.066406.144531-.035156.09375-.089844.179688-.160156.25-.027344.03125-.042969.066406-.058594.101562.003906.0625 0 .125-.007813.1875 0 .039063.023438.070313.011719.113282.007812.148437.003906.300781-.003906.449218l.011718.035157-.015624.027343c.015624.019532.019531.039063.019531.0625.011719.023438.015625.050782.011719.074219l.023437.027344.089844.316406.035156.222657c.011719.109374.027344.21875.054687.328124.015626.042969.027344.089844.039063.136719 0-.003906 0-.011719.003906-.015625.007813-.066406.019531-.132812.03125-.203125.003907-.078125.015625-.15625.027344-.234375.019531-.0625.015625-.132812.027344-.195312.015625-.0625.035156-.121094.054687-.183594.015625-.058594.027344-.121094.03125-.1875.003906-.035156.007813-.0625.011719-.105469s-.003906-.082031.003906-.125c.03125-.160156.0625-.316406.097657-.472656.019531-.066406.035156-.132813.054687-.199219.007813-.03125.011719-.0625.015625-.097656 0-.015625 0-.03125-.003906-.050781.011718-.058594.019531-.121094.023437-.179688v-.058593c-.015625-.007813-.03125-.015626-.046875-.023438-.066406-.03125-.128906-.066406-.195312-.09375m1.601562-1.078125c-.007812 0-.011718.007813-.015625.015625.007813-.003906.011719-.011719.015625-.015625m-2.613281-.269531c.003906.011718-.007813.023437 0 .035156.007813-.066406.082031-.113281.132813-.144531-.0625.007812-.113282.050781-.132813.109375m.519531.335937c-.003906.019531-.007812.035157-.007812.054688.007812-.015625.003906-.035157.007812-.054688"/><path d="m7.894531 12.03125c0-.070312-.027343-.136719-.003906-.207031-.015625-.054688-.027344-.109375-.027344-.164063-.015625-.078125-.03125-.160156-.054687-.238281-.015625-.0625-.03125-.125-.050782-.183594l-.003906.003907c.003906.03125-.003906.066406-.019531.09375.015625.015624.023437.039062.019531.0625-.003906.011718-.015625.03125-.023437.027343-.007813-.007812-.007813-.023437-.015625-.019531-.007813.003906-.007813.011719-.011719.015625s-.007813.003906-.007813 0c-.003906 0-.007812 0-.007812-.003906-.019531-.039063-.039062-.074219-.066406-.109375l-.003906-.007813c-.007813.007813-.015626.011719-.027344.015625-.007813.136719.027344.273438.015625.410156-.007813.039063-.027344.074219-.035157.113282-.007812.074218-.019531.152344-.023437.230468.050781.074219.074219.160157.078125.25 0 .082032.003906.164063.019531.246094-.003906.070313 0 .140625.011719.207032-.03125.023437.007812.042968.007812.066406.015626.039062.03125.074218.058594.105468.007813.042969.039063.074219.066406.109376l.050782-.050782c0-.015625.003906-.027344.011718-.039062.003907-.066406-.003906-.136719.003907-.195313.007812-.058593.039062-.105469.042969-.164062-.019532-.144531.011718-.292969.011718-.429688zm2.597657-2.609375c.011718-.019531.015624-.042969.027343-.058594-.015625.015625-.023437.035157-.027343.058594"/><g fill-rule="evenodd"><path d="m3.34375 6.601562v.386719c.050781-.015625.09375-.042969.125-.082031.019531-.03125.03125-.066406.03125-.105469 0-.035156-.011719-.066406-.03125-.09375-.035156-.042969-.078125-.078125-.125-.105469m1.429688-.25c-.015626.015626-.03125.027344-.042969.046876-.097657.164062-.097657.367187 0 .53125.046875.0625.121093.097656.199219.097656.078124 0 .152343-.035156.195312-.097656.101562-.164063.101562-.367188 0-.53125-.082031-.109376-.242188-.128907-.351562-.046876m-1.722657-.214843c.003907.039062.015625.074219.039063.105469.039062.046874.085937.082031.136718.113281v-.386719c-.046874.007812-.09375.03125-.128906.0625-.027344.027344-.046875.066406-.046875.105469"/><path d="m13.964844 3.9375c-.105469 0-.191406.085938-.191406.195312 0 .105469.085937.191407.191406.191407.109375 0 .195312-.085938.195312-.191407 0-.109374-.085937-.195312-.195312-.195312"/><path d="m14.738281 4.132812c0 .105469-.085937.191407-.191406.191407-.109375 0-.195313-.085938-.195313-.191407 0-.109374.085938-.195312.195313-.195312.105469 0 .191406.085938.191406.195312zm0 0"/><path d="m15.125 3.9375c-.105469 0-.191406.085938-.191406.195312 0 .105469.085937.191407.191406.191407.109375 0 .195312-.085938.195312-.191407 0-.109374-.085937-.195312-.195312-.195312"/></g></svg>