<svg height="18" viewBox="0 0 18 18" width="18" xmlns="http://www.w3.org/2000/svg"><path d="m3.695312 10.550781c-.863281 0-1.292968-.511719-1.460937-1.046875.191406.871094 1.203125 1.71875 4.398437 2.097656 3.019532.355469 4.988282-.542968 5.652344-.960937 0 0 .449219-.191406.179688.105469 0 0-1.898438 1.703125-5.636719 1.726562-3.730469.015625-6.699219-1.808594-6.675781-3.664062-.019532-1.84375 2.945312-3.675782 6.675781-3.660156 3.730469.015624 5.636719 1.726562 5.636719 1.726562.269531.296875-.179688.105469-.179688.105469-.660156-.417969-2.625-1.238281-5.652344-.960938-2.980468.28125-3.949218 1.265625-4.277343 1.921875-.113281.230469-.179688.480469-.191407.734375.078126-.628906.484376-1.371093 1.527344-1.371093 1.179688 0 1.542969.960937 1.542969 1.625 0 .664062-.359375 1.617187-1.542969 1.617187zm12.035157-.636719h1.574219v.554688h-2.242188v-3.078125h.664062v2.519531zm-2.429688-1.101562h1.324219v1.660156h-.441406l-.066406-.382812c-.167969.1875-.410157.464844-.992188.464844-.761719 0-1.460938-.53125-1.460938-1.609376 0-.839843.484376-1.632812 1.554688-1.632812.96875 0 1.351562.613281 1.390625 1.035156h-.660156c0-.121094-.226563-.503906-.695313-.503906-.472656 0-.910156.316406-.910156 1.105469 0 .84375.472656 1.058593.925781 1.058593.144531 0 .628907-.058593.765625-.679687h-.738281v-.519531zm-9.613281-1.128906c-.6875 0-1.101562.527344-1.101562 1.253906 0 .722656.414062 1.253906 1.101562 1.253906.691406 0 1.105469-.527344 1.105469-1.253906 0-.722656-.414063-1.253906-1.105469-1.253906m1.789062.820312h.320313v.277344h.007813c.082031-.113281.234374-.335938.605468-.335938.539063 0 .921875.441407.921875.996094 0 .472656-.277343 1.085938-.96875 1.085938-.269531 0-.449219-.125-.539062-.261719h-.007813v.988281h-.339844zm.863282 1.742188c.371094 0 .621094-.3125.621094-.746094 0-.253906-.105469-.753906-.628907-.753906-.492187 0-.546875.515625-.546875.835937 0 .519531.335938.660157.554688.660157zm3.054687-.390625c-.011719.097656-.101562.375-.359375.539062-.09375.0625-.226562.136719-.550781.136719-.570313 0-.90625-.417969-.90625-.988281 0-.609375.300781-1.09375.976563-1.09375.582031 0 .867187.453125.867187 1.152343h-1.480469c0 .410157.195313.648438.589844.648438.320312 0 .511719-.242188.523438-.390625h.339843zm-.359375-.519531c-.019531-.308594-.152344-.589844-.566406-.589844-.316406 0-.5625.28125-.5625.589844zm2.269532 1.136718h-.339844v-1.210937c0-.34375-.101563-.515625-.4375-.515625-.191406 0-.535156.121094-.535156.652344v1.070312h-.339844v-1.96875h.320312v.277344h.007813c.074219-.105469.265625-.335938.613281-.335938.3125 0 .710938.125.710938.6875v1.335938m6.660156-.097656c0 .050781-.011719.097656-.039063.140624-.023437.046876-.0625.082032-.105469.105469-.042968.027344-.09375.039063-.144531.039063-.054687 0-.101562-.015625-.144531-.039063-.046875-.023437-.082031-.058593-.109375-.105469-.023437-.042968-.039063-.089843-.039063-.140624 0-.050782.015626-.097657.039063-.144532.027344-.042968.0625-.078125.109375-.101562.042969-.027344.09375-.039063.144531-.039063s.101563.011719.144531.039063c.042969.023437.082032.058594.105469.101562.027344.042969.039063.09375.039063.144532m-.054688 0c0-.0625-.023437-.121094-.070312-.164063s-.101563-.066406-.164063-.066406c-.066406 0-.121093.023437-.167969.066406-.042968.042969-.070312.101563-.066406.164063-.003906.0625.023438.121093.066406.164062.046876.042969.105469.066406.167969.066406s.117188-.023437.164063-.066406.070312-.101562.070312-.164062m-.367187-.152344h.140625c.039062 0 .066406.007812.085937.023437.015625.015625.023438.035157.023438.0625 0 .019531-.003907.039063-.019531.054688-.011719.011719-.035157.023437-.0625.03125.007812.003906.019531.007812.027343.011719.007813.011718.015625.019531.023438.03125.015625.03125.035156.058593.050781.089843h-.09375l-.058594-.105469c-.011718-.011718-.019531-.015624-.03125-.015624 0 0-.003906 0-.007812 0v.121093h-.078125zm.078125.128906h.03125c.023437 0 .039062-.003906.050781-.011719.007813-.003906.011719-.015625.011719-.027343 0-.011719-.003906-.019532-.011719-.027344-.011719-.007813-.023437-.011719-.046875-.011719h-.035156zm0 0" fill="#5586a4" fill-rule="evenodd"/></svg>