<svg height="18" viewBox="0 0 18 18" width="18" xmlns="http://www.w3.org/2000/svg"><path d="m17.421875 15.738281v-.003906c.003906-.0625-.019531-.128906-.066406-.175781-.054688-.050782-.128907-.078125-.207031-.074219h-.285157v.765625h.15625v-.253906h.097657l.140624.253906h.183594l-.164062-.285156c.089844-.035156.148437-.125.144531-.226563m-.160156.007813c0 .03125-.011719.0625-.035157.085937-.023437.023438-.058593.03125-.089843.027344h-.117188v-.230469h.113281c.085938 0 .128907.039063.128907.113282zm.648437.136718c0-.433593-.351562-.78125-.78125-.78125-.433594 0-.78125.351563-.78125.78125 0 .433594.347656.78125.78125.78125.429688 0 .78125-.351562.78125-.78125m-.78125.589844c-.328125 0-.589844-.265625-.589844-.589844 0-.328124.261719-.589843.589844-.589843.324219 0 .589844.261719.589844.589843 0 .324219-.265625.589844-.589844.589844zm-4.914062-9.242187h3.539062v3.539062h-3.539062zm-12.1250002 0h3.5390622v3.539062h-3.5390622zm12.1250002 5.109375c0 .433594-.351563.785156-.785156.789062h-7.015626c-.433593-.003906-.785156-.355468-.789062-.789062v-.558594h-3.5351562v3.425781c.0039062.804688.6523442 1.457031 1.4570312 1.457031h12.746094c.808593.003907 1.460937-.648437 1.464843-1.457031v-3.425781h-3.542968zm2.082031-11.003906h-12.75c-.800781 0-1.453125.652343-1.453125 1.453124v3.429688h3.535156v-.558594c0-.433594.351563-.789062.789063-.789062h7.011719c.4375 0 .789062.355468.789062.789062v.558594h3.539062v-3.429688c-.003906-.804687-.65625-1.453124-1.460937-1.453124" fill="#ed1944"/></svg>