<svg height="18" viewBox="0 0 18 18" width="18" xmlns="http://www.w3.org/2000/svg"><path d="m9.097656 4.972656c-.15625 0-.308594.003906-.464844.011719-.035156.101563-.34375 1.035156-.445312 1.335937.5.019532.984375.097657 1.4375.222657.269531.078125.554688.046875.804688-.078125l1.820312-.929688c-.941406-.359375-2.011719-.5625-3.152344-.5625m-.707031.027344c-1.167969.085938-2.25.390625-3.164063.851562.144532.261719.324219.59375.464844.851563.503906-.1875 1.03125-.308594 1.566406-.359375.183594-.019531.351563-.121094.449219-.273438.265625-.417968.582031-.910156.683594-1.070312zm4.101563.632812c-.441407.296876-1.703126 1.140626-1.902344 1.273438.796875.390625 1.132812.730469 1.382812.847656.253906.121094.5.160156.847656.160156h2.480469c-.578125-.957031-1.566406-1.757812-2.808593-2.28125m-7.472657.332032c-1.027343.554687-1.828125 1.316406-2.289062 2.199218l.589843.003907c.160157 0 .3125-.066407.417969-.183594.320313-.351563.714844-.65625 1.164063-.910156.160156-.089844.25-.269531.222656-.453125zm8.578125 2.5c-.273437 0-.523437.046875-.738281.144531-.207031.09375-.394531.226563-.546875.398437-.148438.167969-.261719.367188-.34375.59375-.078125.226563-.117188.472657-.117188.730469 0 .25.039063.492188.117188.714844s.195312.421875.34375.585937c.152344.167969.339844.300782.546875.394532.214844.09375.464844.144531.738281.144531.214844 0 .417969-.035156.601563-.105469.175781-.0625.339843-.164062.476562-.292968.140625-.128907.25-.285157.328125-.457032.082032-.175781.136719-.378906.15625-.597656l.003906-.046875h-.820312l-.003906.039063c-.027344.21875-.105469.398437-.230469.535156-.121094.132812-.296875.203125-.515625.203125-.164062 0-.304688-.03125-.417969-.09375-.109375-.0625-.203125-.148438-.277343-.25-.070313-.109375-.125-.230469-.15625-.359375-.03125-.136719-.050782-.273438-.050782-.414063 0-.148437.019532-.292969.050782-.429687.03125-.132813.085937-.253906.15625-.367188.070312-.105468.167968-.195312.277343-.253906.113281-.0625.257813-.097656.417969-.097656.089844 0 .175781.015625.257812.046875.15625.054687.289063.160156.378907.300781.042969.070312.070312.144531.082031.226562l.003906.035157h.820313l-.003907-.046875c-.023437-.203125-.082031-.390625-.171874-.546875-.085938-.15625-.203126-.292969-.34375-.402344-.140626-.109375-.296876-.195313-.46875-.246094-.171876-.058593-.359376-.085937-.550782-.085937zm-11.90625.019531c-.261718 0-.5.050781-.710937.148437-.203125.09375-.382813.230469-.53125.398438-.144531.167969-.253907.363281-.332031.585938-.0781255.230468-.117188.46875-.117188.710937 0 .25.0390625.492187.117188.714844.078124.222656.1875.417969.332031.585937.144531.167969.320312.300782.53125.398438.210937.09375.449219.144531.710937.144531.261719 0 .5-.050781.707032-.144531.207031-.09375.386718-.230469.535156-.398438.144531-.171875.257812-.371094.332031-.585937.078125-.230469.117187-.472657.117187-.714844 0-.25-.039062-.488281-.117187-.710937-.074219-.214844-.1875-.414063-.332031-.585938-.148438-.167969-.328125-.304688-.53125-.398438-.210938-.097656-.449219-.148437-.710938-.148437zm13.777344.0625v3.539063h2.53125v-.71875h-1.6875v-2.820313zm1.171875 0v.105469h.136719v.351562h.117187v-.351562h.136719v-.105469zm.441406 0v.457031h.113281v-.34375h.003907l.09375.34375h.089843l.097657-.34375v.34375h.113281v-.457031h-.175781l-.078125.304687-.082032-.304687zm-15.390625.4375c.191406 0 .351563.039063.488282.113281.132812.074219.246093.179688.332031.304688.089843.132812.152343.277344.191406.429687.042969.164063.0625.328125.0625.496094s-.023437.332031-.0625.492187c-.042969.160157-.105469.304688-.191406.433594-.085938.125-.199219.230469-.332031.300782-.136719.074218-.300782.113281-.488282.113281s-.347656-.035157-.484375-.113281c-.132812-.070313-.25-.175782-.332031-.300782-.089844-.132812-.152344-.277344-.191406-.433594-.042969-.160156-.0625-.328124-.0625-.492187 0-.167969.019531-.332031.0625-.496094.042968-.160156.105468-.304687.191406-.429687s.199219-.230469.332031-.304688c.136719-.074218.300781-.113281.484375-.113281zm6.0625.484375c-.191406 0-.363281.035156-.515625.105469-.152343.074219-.28125.171875-.386719.296875-.109374.125-.191406.269531-.246093.429687-.058594.160157-.085938.332031-.085938.515625 0 .195313.027344.378906.082031.542969.054688.164063.136719.304687.242188.421875.109375.121094.242188.214844.390625.277344.15625.066406.335937.097656.535156.097656.140625 0 .269531-.015625.398438-.054688.125-.035156.238281-.09375.34375-.167968.105469-.074219.191406-.167969.261719-.273438.074218-.109375.125-.234375.152343-.371094h-.53125c-.050781.140626-.125.246094-.226562.316407-.101563.074219-.234375.109375-.398438.109375-.117187 0-.222656-.023438-.308593-.0625-.082032-.039063-.152344-.097656-.210938-.164063-.058594-.074219-.101562-.15625-.125-.242187-.027344-.09375-.042969-.191406-.042969-.289063h1.878907c.023437-.183593.011718-.375-.039063-.554687-.046875-.171875-.125-.332032-.230469-.476563-.105468-.136719-.242187-.25-.398437-.332031s-.339844-.125-.539063-.125m2.863282 0c-.167969 0-.320313.039062-.457032.121094-.140625.078125-.25.191406-.335937.332031l-.011719-.011719v-.371094h-.53125v2.546876h.5625v-1.503907c0-.089843.015625-.179687.042969-.261719.027343-.078124.070312-.148437.125-.210937.050781-.0625.117187-.109375.191406-.144531s.160156-.050782.257813-.050782c.167968 0 .292968.046876.371093.136719.078125.089844.121094.234375.128907.4375v1.601563h.5625v-1.75c0-.292969-.082032-.507813-.242188-.652344-.164062-.144531-.382812-.21875-.664062-.21875zm-5.515626 0c-.160156 0-.316406.035156-.460937.097656-.140625.066406-.25.171875-.328125.320313h-.011719v-.347657h-.53125v3.492188h.5625v-1.273438h.007813c.042968.070313.097656.128907.160156.179688.066406.050781.136719.09375.210938.125.078124.03125.15625.058594.238281.070312.082031.015626.164062.023438.246093.023438.1875 0 .351563-.039062.492188-.113281.132812-.070313.25-.171875.339844-.296875.09375-.121094.160156-.261719.203125-.425782.046875-.160156.066406-.324218.066406-.496093 0-.191407-.023437-.363281-.074219-.53125-.046875-.152344-.121094-.300781-.222656-.425781s-.226562-.222657-.371094-.292969c-.152344-.070313-.328125-.105469-.527344-.105469m-.074218.441406c.117187 0 .21875.027344.308594.078125.085937.050781.164062.117188.222656.203125.058594.082032.101562.179688.132812.289063.027344.105469.042969.21875.042969.332031s-.011719.222656-.039063.328125c-.023437.109375-.0625.203125-.121093.289063-.058594.082031-.132813.152343-.222657.203124-.085937.054688-.195312.082032-.324218.082032-.113282 0-.21875-.027344-.304688-.070313-.085937-.046875-.164062-.109375-.222656-.1875-.066406-.085937-.113281-.183593-.140625-.285156-.035156-.117187-.050781-.238281-.046875-.359375 0-.269531.058594-.492188.179688-.65625.121093-.164062.300781-.246094.535156-.246094m2.726562.003906c.09375 0 .183594.019532.257813.054688.074219.039062.140625.089844.199219.148438.054687.0625.097656.132812.128906.214843s.046875.167969.054687.257813h-1.3125c0-.09375.019531-.183594.054688-.269532.03125-.078124.078125-.152343.140625-.210937.058594-.0625.128906-.109375.207031-.144531.082031-.035156.171875-.050782.269531-.050782"/></svg>