<svg height="18" viewBox="0 0 18 18" width="18" xmlns="http://www.w3.org/2000/svg"><path d="m15.871094 9.367188c1.269531.742187 2.117187 2.113281 2.121094 3.683593.003906 2.363281-1.914063 4.28125-4.285157 4.285157-2.371093.003906-4.296875-1.910157-4.304687-4.273438 0-1.570312.84375-2.941406 2.109375-3.691406l1.234375 2.078125c.03125.054687.011718.121093-.039063.15625-.464843.316406-.773437.847656-.769531 1.453125 0 .96875.792969 1.753906 1.765625 1.753906.972656-.003906 1.757813-.789062 1.757813-1.757812-.003907-.605469-.308594-1.140626-.777344-1.453126-.050782-.035156-.070313-.101562-.039063-.152343zm0 0" fill="#128dff"/><path d="m6.394531 9.339844c-.640625-.355469-1.363281-.542969-2.09375-.542969-2.375 0-4.29687475 1.914063-4.29687475 4.277344s1.92187475 4.28125 4.29687475 4.28125c2.382813 0 4.351563-2.015625 4.289063-4.390625h-2.414063c-.066406 0-.113281.054687-.117187.117187-.003906.945313-.796875 1.75-1.757813 1.75-.976562 0-1.761719-.785156-1.761719-1.757812 0-.96875.785157-1.753907 1.761719-1.753907.253907 0 .496094.054688.714844.152344.050781.023438.117187.003906.144531-.046875zm0 0" fill="#8bda67"/><path d="m6.742188 8.667969c-1.265626-.742188-2.113282-2.117188-2.113282-3.6875 0-2.363281 1.921875-4.277344 4.292969-4.277344s4.296875 1.914063 4.296875 4.277344c0 1.570312-.851562 2.945312-2.113281 3.6875l-1.230469-2.078125c-.03125-.050782-.015625-.121094.035156-.152344.46875-.316406.773438-.851562.773438-1.457031 0-.96875-.789063-1.753907-1.761719-1.753907s-1.761719.785157-1.761719 1.757813c0 .601563.308594 1.136719.773438 1.453125.050781.03125.070312.101562.039062.152344zm0 0" fill="#ff2a44"/></svg>