<svg height="18" viewBox="0 0 18 18" width="18" xmlns="http://www.w3.org/2000/svg"><path d="m15.757812 0c-.601562 0-1.183593.238281-1.613281.664062-.695312.695313-.839843 1.722657-.445312 2.566407l-4.761719 4.738281c-.84375-.390625-1.878906-.25-2.578125.445312-.890625.886719-.890625 2.328126 0 3.214844.894531.886719 2.339844.886719 3.230469 0 .679687-.675781.851562-1.703125.445312-2.566406l4.761719-4.738281c.84375.390625 1.878906.25 2.578125-.445313.890625-.882812.890625-2.328125 0-3.214844-.429688-.425781-1.011719-.664062-1.617188-.664062zm0 .140625c.550782 0 1.097657.207031 1.515626.625.839843.832031.839843 2.183594 0 3.015625-.667969.664062-1.664063.796875-2.464844.398438l-.046875-.019532-4.890625 4.867188.023437.046875c.40625.820312.246094 1.808593-.40625 2.453125-.835937.832031-2.191406.835937-3.03125 0-.835937-.832032-.835937-2.179688 0-3.015625.671875-.664063 1.667969-.796875 2.46875-.402344l.046875.023437 4.890625-4.867187-.023437-.046875c-.398438-.796875-.265625-1.789062.402344-2.453125h.003906c.398437-.402344.945312-.625 1.511718-.625m-7.78125 1.902344c-.058593 0-.109374 0-.164062.003906-.050781 0-.105469 0-.160156 0-.339844.015625-.675782.050781-1.007813.105469h-.003906c-.003906 0-.011719 0-.019531.003906-.046875.007812-.09375.015625-.136719.023438l-.082031.015624c-.027344.003907-.054688.011719-.082032.019532-.054687.007812-.105468.019531-.160156.03125v.003906c-.667968.152344-1.3125.394531-1.921875.710938-.042969.023437-.082031.046874-.121093.066406h.003906c-.046875.027344-.09375.054687-.140625.078125h-.003907c-.023437.015625-.054687.035156-.085937.050781h-.003906l-.015625.011719-.007813.003906c-.003906 0-.011719.003906-.027343.015625l-.070313.046875.054687.054687.078126.128907 2.390624 3.953125.0625-.035156c.042969-.027344.085938-.050782.132813-.074219.367187-.199219.765625-.320313 1.175781-.359375.054688-.007813.105469-.011719.160156-.015625h-.003906c.054688 0 .105469-.003907.160156-.003907h.066407v-4.839843zm.25.003906v4.847656l.0625.007813c.238282.023437.472657.074218.699219.152344l.042969.011718 3.574219-3.558594-.066407-.046874c-.132812-.089844-.265624-.175782-.398437-.257813v-.003906c-.050781-.027344-.097656-.054688-.148437-.085938-.023438-.011719-.046876-.027343-.074219-.039062-.023438-.015625-.046875-.027344-.074219-.042969-.042969-.023438-.085938-.046875-.128906-.070312l-.015625-.007813h-.003907c-.277343-.144531-.566406-.273437-.855468-.386719h-.003906c-.007813-.003906-.015626-.003906-.023438-.007812h-.003906c-.578125-.21875-1.179688-.371094-1.792969-.449219h-.003906c-.019531-.003906-.042969-.007813-.0625-.007813l-.070313-.007812c-.054687-.007812-.109375-.011719-.164062-.019531-.050782-.003907-.101563-.007813-.152344-.011719h-.003906c-.015625 0-.035156-.003906-.058594-.003906-.042969-.003906-.089844-.003906-.132812-.007813zm-.320312.136719v4.5625c-.03125 0-.066406 0-.09375.003906h-.003906c-.054688.003906-.105469.003906-.160156.011719-.429688.042969-.847657.171875-1.230469.375h.003906c-.027344.011719-.054687.03125-.082031.046875l-2.324219-3.835938-.042969-.074218c.023438-.015626.050782-.03125.074219-.046876h.003906c.046875-.023437.089844-.050781.136719-.074218.039062-.023438.078125-.046875.117188-.066406.597656-.3125 1.230468-.546876 1.886718-.703126v.003907c.054688-.015625.105469-.027344.160156-.035157v-.003906c.023438-.003906.050782-.007812.078126-.015625l.078124-.015625c.046876-.007812.09375-.015625.136719-.023437h.003907c.003906 0 .011718-.003907.023437-.003907h-.003906c.328125-.054687.65625-.085937.988281-.101562.050781 0 .105469 0 .160156-.003906zm.457031.007812c.042969.003906.085938.003906.128907.007813.019531 0 .039062.003906.058593.003906.050781.003906.101563.007813.148438.011719h.003906c.050781.003906.105469.011718.160156.015625l.066407.007812c.023437.003907.046874.007813.066406.007813v.003906c.601562.078125 1.195312.226562 1.765625.441406h.003906c.007813.003906.015625.003906.015625.003906l.003906.003907c.289063.109375.570313.234375.84375.375l.019532.011719c.042968.023437.085937.046874.128906.066406.023437.015625.046875.03125.070312.042968h.003906c.023438.011719.046876.027344.070313.042969.050781.027344.097656.054688.144531.082031.109375.066407.214844.136719.320313.210938l-3.398438 3.378906c-.203125-.0625-.410156-.109375-.625-.136718zm-4.738281 1.125-.058594.042969c-.117187.074219-.226562.148437-.339844.230469-.238281.175781-.46875.363281-.6875.566406l-.054687.050781 3.386719 3.371094.058594.058594.050781-.042969c.035156-.027344.070312-.054688.109375-.082031l.050781-.039063-.042969-.066406zm-.042969.199219 2.371094 3.921875-.011719.007812-3.25-3.234374c.199219-.179688.402344-.351563.621094-.507813.085938-.066406.179688-.125.269531-.1875zm-1.226562.8125-.050781.050781c-.039063.039063-.074219.078125-.109376.117188-.039062.035156-.074218.074218-.113281.113281-.257812.277344-.492187.574219-.710937.882813-.023438.035156-.042969.066406-.066406.101562-.023438.035156-.046876.070312-.070313.105469-.011719.015625-.019531.027343-.023437.039062-.761719 1.1875-1.1914068 2.554688-1.2460942 3.960938 0 .054687-.0039063.109375-.0039063.160156 0 .054687-.0039063.105469-.0039063.160156v.070313h4.8671878v-.070313c0-.046875.003906-.097656.003906-.15625.003906-.054687.003906-.105469.011719-.152343v-.003907c.058594-.613281.300781-1.195312.695312-1.671875.03125-.039062.066406-.074218.105469-.117187s.070313-.082031.105469-.117188l.046875-.046875zm0 .199219 3.242187 3.226562c-.019531.023438-.042968.046875-.0625.070313-.03125.039062-.070312.078125-.109375.121093-.410156.496094-.664062 1.105469-.726562 1.75-.007813.054688-.007813.109376-.011719.164063 0 .027344 0 .058594-.003906.089844h-4.5859378l.0039058-.085938c0-.050781 0-.105469.003907-.160156.054687-1.382813.476562-2.722656 1.222656-3.890625.007813-.011719.015625-.027344.023437-.035156v-.003906c.023438-.035157.046876-.066407.070313-.101563.019531-.035156.042969-.066406.066406-.097656v-.003907c.210938-.300781.445313-.59375.695313-.863281.035156-.039062.074218-.074219.109375-.113281l.003906-.003906c.019531-.019532.039063-.039063.058594-.0625zm12.164062.882812-.058593.058594-3.519532 3.5.015625.042969c.078125.226562.128907.460937.152344.699219l.007813.0625h4.871093l-.007812-.144532-.007813-.128906c0-.019531 0-.039062-.003906-.0625l-.011719-.152344c0-.011718-.003906-.023437-.003906-.035156v-.003906c-.003906-.054688-.011719-.109375-.019531-.167969 0 .003906.003906-.003906 0-.015625v.011719c0-.007813 0-.019531-.003906-.027344l.003906.011719c-.007813-.058594-.015625-.121094-.023438-.179688v.011719s.003906-.011719-.007812-.035156l.003906.019531c-.054688-.378906-.136719-.753906-.246094-1.121094-.015625-.0625-.035156-.121094-.054687-.179687l-.003907-.015625v-.003906l-.003906-.003907c-.015625-.050781-.03125-.101562-.050781-.152343-.003906-.011719-.007813-.027344-.015625-.042969-.023438-.066407-.046875-.128907-.070312-.195313-.015626-.035156-.027344-.070312-.042969-.109375-.011719-.027343-.023438-.054687-.035157-.085937-.011718-.027344-.023437-.054688-.035156-.082032l-.046875-.109374-.03125-.058594c-.019531-.046875-.039062-.089844-.058593-.128906v-.003907c-.007813-.011719-.011719-.023437-.015626-.035156h-.003906c-.023437-.050781-.046875-.097656-.070312-.144531v-.003906c-.003906-.003907-.007813-.011719-.011719-.019532l-.003906-.003906c-.023438-.050781-.050781-.101562-.082031-.15625v-.003906c-.140626-.253906-.292969-.5-.457032-.738282zm-.023437.21875c.144531.210938.28125.429688.402344.652344l.003906.007812c.027344.050782.054687.101563.082031.15625l.003906.003907.007813.015625c.023437.046875.046875.09375.070312.140625.003906.011719.011719.027343.019532.042969.019531.042968.039062.082031.058593.121093l.027344.0625.046875.105469c.011719.03125.023438.054688.035156.082031.011719.027344.023438.054688.035156.085938.011719.035156.027344.070312.039063.105469.027344.066406.050781.128906.074219.191406.003906.011718.007812.027344.011718.042968.019532.050782.035157.097657.054688.152344l.003906.019532c.019532.058593.035156.117187.054688.175781.105468.359375.1875.726562.242187 1.097656v.011719c.007813.054687.015625.117187.023438.175781v.003906h.003906v.007813c.003906.054687.011719.113281.019531.171875v-.003907.042969l.015625.148438c0 .015625 0 .039062.003907.0625l-.003907-.003907.007813.125h-4.605469c-.023437-.210937-.070313-.417968-.136719-.621093zm-3.371094 4.320313v.070312c0 .050781-.003906.101563-.003906.15625-.003906.054688-.003906.109375-.011719.15625-.058594.617188-.300781 1.199219-.695313 1.675781-.03125.039063-.066406.074219-.105468.113282v.003906c-.035156.039062-.070313.078125-.105469.113281l-.050781.050781 3.441406 3.421876.050781-.046876c.039063-.039062.074219-.078124.109375-.117187.039063-.039063.074219-.078125.113282-.117187.246093-.265626.472656-.546876.683593-.839844.007813-.015625.015625-.027344.019531-.035156h.003907c.023437-.035157.046875-.074219.074219-.109376.019531-.03125.042968-.0625.0625-.097656.011718-.015625.019531-.03125.03125-.046875.757812-1.1875 1.1875-2.550781 1.242187-3.957031v-.003906c0-.050782.003906-.105469.003906-.15625v-.003906c0-.050782.003907-.105469.003907-.160157v-.070312zm.140625.140625h4.585937c-.003906.03125-.003906.058594-.003906.089844 0 .054687-.003906.105468-.003906.15625-.054688 1.382812-.476562 2.722656-1.21875 3.890624-.011719.015626-.023438.03125-.03125.046876-.019531.03125-.042969.0625-.0625.09375-.023438.035156-.050781.070312-.074219.105468-.007812.015625-.015625.023438-.023437.035156-.203125.289063-.429688.566407-.671875.828126-.03125.035156-.070313.074218-.109375.113281-.019532.023437-.039063.042969-.058594.0625l-3.242188-3.226563c.019532-.023437.042969-.046875.058594-.066406h.003906c.035157-.039062.070313-.078125.109376-.121094.410156-.5.664062-1.109375.726562-1.75.007812-.058594.007812-.113281.007812-.164062.003907-.027344.003907-.0625.003907-.09375zm-11.3046875.179687.0039063.074219.0039062.066406v.003906c0 .042969.0039062.089844.0078125.132813 0 .019531 0 .039063.0039063.058594.0078124.121093.0195312.238281.0351562.359375v-.007813.023438c.0078125.0625.015625.125.0234375.183593v-.007812c0 .015625.015625.046875.0273437.054688l-.0234374-.042969c.0507812.375.1328122.75.2421872 1.117187l.003906.003906v.007813c.011719.039063.023438.074219.035157.113281l.042969.132813.035156.101562v.003907c.003906.007812.007812.019531.015625.035156.015625.046875.03125.089844.046875.132812v.003906c.007812.019532.015625.035157.023437.058594v.003906c.015625.035157.027344.070313.042969.105469v.003907c.011719.027343.023438.054687.035156.082031.011719.027343.023438.058593.035156.085937.015626.035156.03125.070313.046876.105469.011718.023437.019531.042969.027343.0625.019531.042969.039063.085937.0625.128906l.019531.039063c.023438.050781.046876.097656.070313.144531v.003906c.003906.003907.007813.007813.011719.015625v.003906c.027344.054688.058594.109376.085937.164063.007813.011719.015625.023437.019531.03125l.035157.0625 4.105469-2.460937.070312-.042969-.027344-.054688c-.15625-.324219-.253906-.671875-.289062-1.03125l-.007813-.0625zm.1484375.140625h4.601563c.042968.328125.132812.648438.269531.953125l-3.949219 2.363281c-.019531-.042968-.042969-.085937-.066406-.128906-.003906-.003906-.007813-.011718-.011719-.019531v-.003906c-.023437-.046875-.046875-.09375-.070313-.140625l-.019531-.039063c-.019531-.039062-.039062-.082031-.058593-.121093v-.003907c-.007813-.019531-.019532-.039062-.027344-.0625v.003907c-.015625-.035157-.03125-.070313-.046875-.105469-.011719-.03125-.023438-.058594-.035157-.085938-.011718-.027343-.023437-.054687-.035156-.082031-.011718-.035156-.027344-.070312-.042968-.105469v-.003906c-.007813-.019531-.011719-.039063-.023438-.058594-.015625-.042969-.03125-.089843-.046875-.132812-.003906-.011719-.007813-.023438-.011719-.039063-.019531-.050781-.035156-.101562-.050781-.152344v.003907c-.003906-.011719-.003906-.015625-.003906-.011719v-.003906c-.019531-.058594-.039063-.117188-.058594-.179688l.003906.019532c0-.007813-.003906-.019532-.007812-.03125l.003906.007812c-.109375-.359375-.1875-.730469-.242187-1.101562l-.003907-.03125c-.007812-.050782-.015625-.101563-.019531-.152344v-.003906l-.003906-.003907v-.007812c-.011719-.121094-.023438-.238281-.035156-.355469 0-.019531 0-.039062 0-.054688-.003907-.042968-.007813-.085937-.007813-.128906zm5.128906 1.167969-.058593.035156-4.109376 2.464844.039063.0625c.0625.101563.125.203125.191406.300781l.003907.003906s.003906.003907 0 .003907v.003906l.011718.011719v.003906l.003906.003906c.003907 0 .003907.003906.003907.003906l.011719.019532c.070312.105468.144531.207031.222656.308594v.003906l.007812.007812c.03125.039063.0625.082032.097656.128906h.003907c.003906.003907.003906.007813.007812.011719v.003907h.003907c.03125.042968.066406.085937.105468.128906v.003906c.007813.007812.015625.015625.023438.027344.03125.039062.066406.078125.097656.113281.015625.019531.03125.035156.042969.050781.027343.03125.054687.0625.085937.09375.015625.019532.03125.035156.046875.050782.007813.007812.015625.015624.023438.027343l.0625.066407.027343.027343c.035157.039063.074219.074219.109376.113281l.050781.046876 3.4375-3.417969-.046875-.050781c-.035156-.039063-.070313-.078126-.105469-.117188h-.003906c-.0625-.070312-.125-.148438-.183594-.226562-.03125-.042969-.0625-.085938-.089844-.128907-.03125-.042969-.058593-.085937-.085937-.132812zm-.042969.191406c.015626.027344.03125.054688.050782.078125.03125.046875.0625.089844.09375.132813.0625.082031.125.164062.195312.238281.019532.023438.042969.046875.0625.070312l-3.242187 3.226563c-.019531-.023437-.039063-.042969-.0625-.066406l-.023438-.023438-.0625-.066406v-.003906c-.007812-.003907-.011719-.011719-.019531-.019531-.019531-.019532-.035156-.035157-.050781-.050782-.027344-.03125-.054688-.0625-.082031-.09375-.015626-.015625-.03125-.03125-.042969-.046875-.03125-.035156-.0625-.074219-.09375-.109375l-.003907-.003906c-.007812-.011719-.015624-.023438-.023437-.03125-.03125-.039062-.066406-.082031-.101563-.125v-.003906c-.007812-.003906-.011718-.007813-.015624-.015625l-.003907-.003907c-.03125-.039062-.058593-.082031-.09375-.121093v-.003907l-.003906-.003906c-.070313-.09375-.140625-.191406-.207031-.289062v-.015625l-.019532-.011719c-.003906-.003906-.007812-.007812-.007812-.015625h-.003906v-.003906l-.003906-.007813-.007813-.007812c.003906.003906.003906 0-.003906-.007813-.050781-.078125-.101563-.15625-.152344-.238281zm.730469.636719-.042969.050781-.011718.007813-3.386719 3.371094.054687.050781c.015626.015625.035157.03125.050782.046875h.003906c.03125.027344.0625.058594.09375.085937.015625.011719.03125.027344.046875.042969h.003906c.035157.03125.074219.0625.113281.09375.011719.011719.023438.019531.03125.027344.046876.039062.097657.082031.148438.117187.046875.039063.09375.074219.144531.109375v.003906l.003907.003907c.203124.148437.414062.292969.628906.421875.011718.003906.015625.011718.019531.011718h.003906l.125.074219c.023438.015625.050781.03125.074219.042969.023438.015625.046875.027344.074219.042969.042969.023437.085937.046875.132812.070312.125.066407.257813.128907.386719.1875l.066406.03125.148438-.351562 1.675781-4.058594.03125-.070313-.054687-.03125c-.183594-.097656-.355469-.210937-.515626-.339843zm4.09375.003906-.046875.035156c-.039062.03125-.074218.058594-.113281.085938l-.050781.039062.042968.066407 2.472657 4.085937.058593-.039062c.113282-.074219.226563-.152344.335938-.230469.242188-.175781.472656-.367187.691406-.566406l.054688-.050781-3.386719-3.371094zm-4.078125.183594c.136719.105469.28125.199219.429688.285156l-1.664063 4.015625-.089843.214844c-.105469-.046875-.210938-.097656-.316407-.152344-.042969-.023437-.085937-.046875-.128906-.070312-.023437-.011719-.046875-.023438-.070313-.039063-.027343-.015625-.050781-.027344-.074218-.042968l-.125-.070313c-.007813-.003906-.011719-.011719-.015625-.011719h-.003907v-.003906c-.214843-.128906-.417968-.265625-.617187-.414062l.007813.007812c-.011719-.011719-.019532-.015625-.019532-.015625l.003906.003906c-.046874-.039062-.09375-.074219-.140624-.109375-.050782-.039062-.097657-.078125-.144532-.117187-.011718-.007813-.023437-.015625-.027344-.023438h-.003906c-.039062-.03125-.078125-.0625-.113281-.097656-.015625-.011719-.03125-.027344-.050781-.042969-.027344-.023437-.058594-.050781-.089844-.078125zm4.066406 0 3.25 3.234375c-.199218.179687-.40625.351563-.621093.511719-.089844.0625-.179688.125-.269531.183594l-2.371094-3.917969zm-.347656.074219-.0625.039062c-.042968.027344-.085937.050781-.132812.074219h-.003906c-.042969.023438-.089844.046875-.140626.070312-.421874.199219-.882812.304688-1.351562.304688-.304688 0-.605469-.042969-.898438-.128906-.046874-.015625-.097656-.035156-.148437-.054688-.054687-.015625-.101563-.03125-.148437-.050781l-.0625-.027344-1.707032 4.117188-.0625.160156-.039062.089844h.046875l-.027344.136719.015625.003906.007812.007812.015626.003906h.003906c.035156.015626.074218.03125.109375.042969.050781.019531.101562.039063.148437.058594h.003906c.019532.003906.042969.019531.078126.027344.527343.1875 1.074218.316406 1.632812.390625.019531.003906.042969.003906.066406.007812l.066406.007813c.042969.003906.085938.011719.128907.015625h.03125c.054687.003906.105469.011718.160156.015625h.050781c.046875.003906.09375.007812.140625.011719.027344 0 .058594 0 .082031.003906h.003907.109375c.054687.003906.105468.003906.160156.003906h.035156c.445313 0 .890625-.035156 1.328125-.109375h.003907l.023437-.003906c.046875-.007813.089844-.015625.136719-.023438v-.003906c.027344-.003906.054687-.007813.078125-.015625h.003906c.027344-.003906.054687-.007812.082031-.015625.042969-.007813.089844-.019531.132813-.03125l.023437-.003906h.003906c.667969-.15625 1.3125-.394531 1.921876-.714844.042968-.019531.082031-.042969.117187-.066406.046875-.023438.09375-.050781.140625-.078125.027344-.015625.058594-.03125.085938-.046875.019531-.007813.039062-.019531.058593-.03125l.058594-.035157-.042969-.070312-.078125-.128906-.082031-.136719zm-.050781.191406 2.238281 3.699219.085938.136718.042968.074219-.011718.007813s-.042969.023437-.066406.035156c-.042969.027344-.089844.054688-.136719.078125-.042969.023437-.078125.046875-.117188.066406-.597656.3125-1.230469.546875-1.886719.699219l-.027343.003906v.003906c-.042969.007813-.085938.019532-.132813.027344-.027344.007813-.050781.011719-.078125.015625h-.003906c-.023437.007813-.050781.011719-.074219.015625-.046875.007813-.09375.015625-.140625.027344h-.019531c-.433594.074219-.871094.109375-1.308594.109375h-.035156c-.054688 0-.105469 0-.15625-.003906-.035156 0-.070312 0-.109375 0-.027344-.003907-.054687-.003907-.082031-.003907h-.003906c-.042969-.003906-.085938-.003906-.132813-.007812-.019531-.003906-.035156-.003906-.054687-.003906-.050782-.003906-.101563-.007813-.15625-.011719l-.03125-.003906c-.039063-.003907-.082032-.007813-.125-.015625l-.066407-.007813c-.019531 0-.042969-.003906-.066406-.007812-.546875-.070313-1.085937-.199219-1.605469-.382813h-.003906c-.019531-.007812-.042969-.015625-.070312-.027344h-.003907c-.046875-.019531-.097656-.039062-.144531-.058593h-.003906l-.082032-.03125.03125-.070313.066407-.15625 1.648437-3.992187.089844.03125c.050781.019531.101562.039062.152344.054687h.003906c.304688.089844.621094.136719.9375.136719.488281 0 .972656-.109375 1.414062-.316406v-.003907c.046876-.019531.097657-.042968.144532-.070312.027344-.015625.054687-.03125.082031-.046875zm0 0" fill="#91d400"/></svg>