<svg height="18" viewBox="0 0 18 18" width="18" xmlns="http://www.w3.org/2000/svg" xmlns:xlink="http://www.w3.org/1999/xlink"><linearGradient id="a" gradientUnits="userSpaceOnUse" x1="7.499109375" x2="7.499109375" y1=".294609375" y2="17.73885909375"><stop offset="0" stop-color="#ff1b2d"/><stop offset=".614" stop-color="#ff1b2d"/><stop offset="1" stop-color="#a70014"/></linearGradient><linearGradient id="b" gradientUnits="userSpaceOnUse" x1="12.01823395313" x2="12.01823395313" y1="1.323" y2="16.75139090625"><stop offset="0" stop-color="#9c0000"/><stop offset=".7" stop-color="#ff4b4b"/></linearGradient><path d="m9 0c-4.972656 0-9 4.03125-9 9 0 4.828125 3.800781 8.765625 8.570312 8.988281.144532.007813.285157.011719.429688.011719 2.210938.003906 4.347656-.8125 5.996094-2.289062-1.054688.699218-2.285156 1.101562-3.605469 1.101562-2.144531 0-4.0625-1.0625-5.351563-2.738281-.996093-1.175781-1.640624-2.914063-1.683593-4.863281v-.421876c.042969-1.949218.6875-3.683593 1.683593-4.859374 1.289063-1.675782 3.207032-2.742188 5.351563-2.742188 1.320313 0 2.550781.40625 3.605469 1.105469-1.582032-1.417969-3.671875-2.2812502-5.960938-2.292969zm0 0" fill="url(#a)"/><path d="m6.039062 3.929688c.824219-.976563 1.890626-1.5625 3.054688-1.5625 2.621094 0 4.746094 2.96875 4.746094 6.632812s-2.125 6.636719-4.746094 6.636719c-1.164062 0-2.230469-.589844-3.054688-1.5625 1.289063 1.675781 3.207032 2.738281 5.351563 2.738281 1.320313 0 2.550781-.402344 3.605469-1.101562 1.84375-1.648438 3.003906-4.042969 3.003906-6.710938 0-2.664062-1.160156-5.058594-3-6.707031-1.054688-.699219-2.289062-1.101563-3.609375-1.101563-2.144531 0-4.0625 1.0625-5.351563 2.738282" fill="url(#b)"/></svg>