<svg height="18" viewBox="0 0 18 18" width="18" xmlns="http://www.w3.org/2000/svg"><path d="m9.023438.0078125c-.011719 0-.027344.0039063-.039063.0117187l-4.238281 2.0976568c-.011719.003906-.019532.019531-.019532.03125v1.796874c0 .003907 0 .007813.003907.011719.003906.003907.011719.003907.015625 0l4.25-2.105469c.015625-.007812.03125-.007812.046875 0l4.238281 2.101563c.015625.007813.023438 0 .023438-.015625.007812-.570312.007812-1.144531 0-1.71875 0-.050781.046874-.074219-.03125-.113281-1.410157-.699219-2.8125-1.394531-4.214844-2.0859378-.011719-.0078124-.023438-.0117187-.035156-.0117187m-.003907 4.6992185c-2.371093 0-4.292969 1.921875-4.292969 4.292969s1.921876 4.292969 4.292969 4.292969c2.371094 0 4.292969-1.921875 4.292969-4.292969s-1.921875-4.292969-4.292969-4.292969m-4.273437 9.335938c-.003906-.003907-.011719-.003907-.015625 0-.003907.003906-.003907.007812-.003907.011719v1.808593c0 .003907 0 .007813.007813.011719l4.277344 2.121094c.003906.003906.007812.003906.011719 0l4.277343-2.117188c.003907 0 .007813-.003906.007813-.011718v-1.808594c0-.007813 0-.011719-.003906-.011719-.003907-.003906-.011719-.003906-.015626 0l-4.261718 2.109375c-.003906 0-.007813 0-.011719 0zm0 0" fill="#5528ff"/></svg>