<svg height="18" viewBox="0 0 18 18" width="18" xmlns="http://www.w3.org/2000/svg"><path d="m5.851562 0v2.664062l4.253907 2.457032v7.507812l2.035156 1.167969c.632813.363281 1.21875.445313 1.652344.261719.4375-.1875.707031-.636719.707031-1.273438v-5.507812c0-1.277344-1.023438-2.882813-2.289062-3.613282zm.136719.238281 6.152344 3.546875c1.214844.699219 2.21875 2.292969 2.21875 3.492188v5.507812c0 .597656-.238281.984375-.617187 1.144532-.382813.160156-.925782.097656-1.53125-.253907l-1.96875-1.125v-7.511719l-4.253907-2.457031zm-2.488281 1.933594v12.421875l5.894531 3.40625v-12.421875zm.140625.238281 5.617187 3.246094v12.101562l-5.617187-3.242187zm0 0" fill="#1d94dd"/></svg>