<svg height="18" viewBox="0 0 18 18" width="18" xmlns="http://www.w3.org/2000/svg"><g fill="none" stroke="#fff" stroke-linecap="round" stroke-linejoin="round" stroke-width="2" transform="scale(.75)"><path d="m5.802083 11.302083-3.802083 10.697917 10.697917-3.791667m-8.697917-15.208333h.010417m17.989583 5h.010417m-7.010417-6h.010417m6.989583 18h.010417m-.010417-18-2.239583.75c-1.317709.4375-2.135417 1.744792-1.958334 3.119792.098959.859375-.572916 1.630208-1.453125 1.630208h-.380208c-.859375 0-1.598958.598958-1.760417 1.4375l-.208333 1.0625m8 3-.817708-.328125c-.864584-.34375-1.822917.197917-1.984375 1.109375-.109375.697917-.71875 1.21875-1.427084 1.21875h-.770833m-6-13 .328125.817708c.34375.864584-.197917 1.822917-1.109375 1.984375-.697917.098959-1.21875.71875-1.21875 1.427084v.770833"/><path d="m11 13c1.932292 1.932292 2.828125 4.171875 2 5s-3.067708-.067708-5-2-2.828125-4.171875-2-5 3.067708.067708 5 2"/></g></svg>