<svg height="18" viewBox="0 0 18 18" width="18" xmlns="http://www.w3.org/2000/svg"><g fill="none" stroke="#fff" stroke-linecap="round" stroke-linejoin="round" stroke-width="2" transform="scale(.75)"><path d="m15.708333 21.291667c-.390625.390625-1.026041.390625-1.416666 0l-1.583334-1.583334c-.390625-.390625-.390625-1.026041 0-1.416666l5.583334-5.583334c.390625-.390625 1.026041-.390625 1.416666 0l1.583334 1.583334c.390625.390625.390625 1.026041 0 1.416666zm0 0"/><path d="m18 13-1.375-6.875c-.078125-.380208-.369792-.682292-.744792-.776042l-12.645833-3.322916c-.338542-.078125-.692708.020833-.942708.265625-.244792.25-.34375.604166-.265625.942708l3.322916 12.645833c.09375.375.395834.666667.776042.744792l6.875 1.375m-10.697917-15.697917 7.286459 7.286459"/><path d="m13 11c0 1.104167-.895833 2-2 2s-2-.895833-2-2 .895833-2 2-2 2 .895833 2 2zm0 0"/></g></svg>