<svg height="18" viewBox="0 0 18 18" width="18" xmlns="http://www.w3.org/2000/svg"><path d="m1.507812 0c-.835937 0-1.507812.695312-1.507812 1.53125v13.332031l2.4375-8.660156h2.464844l-.328125 1.136719h.046875c.140625-.164063.324218-.300782.558594-.464844.230468-.164062.464843-.300781.71875-.441406.257812-.140625.535156-.230469.835937-.324219.304687-.09375.605469-.117187.90625-.117187.652344 0 1.1875.117187 1.648437.324218.464844.210938.8125.535156 1.09375.929688.230469.347656.371094.765625.441407 1.253906h.003906c.003906.042969.015625.101562.015625.140625.046875.535156-.019531 1.136719-.207031 1.789063-.164063.601562-.417969 1.183593-.765625 1.742187-.332032.535156-.730469 1.027344-1.183594 1.460937-.457031.417969-.972656.761719-1.535156 1.023438-.558594.253906-1.136719.371094-1.765625.371094-.503907.003906-1.007813-.082032-1.484375-.257813-.441406-.160156-.746094-.460937-.929688-.882812h-.046875l-1.160156 4.113281h14.699219c.410156 0 .796875-.160156 1.085937-.449219.289063-.285156.449219-.675781.449219-1.082031v-12.9375c-.070312-.023438-.140625-.046875-.1875-.070312-.136719-.03125-.277344-.046876-.417969-.046876-.417969 0-.765625.09375-1.042969.277344-.257812.1875-.488281.558594-.652343 1.140625l-.394531 1.367188h1.511718l.371094 1.1875-.976562.949219h-1.511719l-1.832031 6.503906h-2.648438l1.835938-6.503906h-1.023438l-.035156.023437h-.035156v-.023437l.605468-2.136719h1.066406l.417969-1.53125c.140625-.464844.304688-.929688.511719-1.347657.1875-.417968.464844-.789062.789062-1.113281.328126-.328125.746094-.582031 1.230469-.765625.488281-.1875 1.117188-.28125 1.835938-.28125.1875 0 .347656 0 .535156.023438-.167969-.675782-.765625-1.1601565-1.464844-1.183594zm4.925782 8.335938c-.675782 0-1.253906.210937-1.742188.605468-.488281.394532-.8125.929688-1 1.578125-.183594.652344-.160156 1.183594.117188 1.578125.234375.417969.699218.605469 1.394531.605469.671875 0 1.253906-.207031 1.742187-.605469.488282-.394531.835938-.925781 1.019532-1.578125.1875-.648437.140625-1.183593-.117188-1.578125-.253906-.394531-.742187-.605468-1.414062-.605468zm0 0"/></svg>