<svg height="18" viewBox="0 0 18 18" width="18" xmlns="http://www.w3.org/2000/svg"><g fill="#76c39b"><path d="m.535156 11.40625v.742188l.589844.59375h.226562l-.199218-.382813.042968-.632813zm3.488282-1.449219-1.085938-.15625-1.644531.421875-.632813 1 .632813.363282 2.644531-1.109376h-1.320312zm-2.449219 1.265625-.335938-.167968-.410156.140624-.011719-.042968.421875-.296875.335938.296875zm3.039062-1.464844.042969-.476562-1.265625.308594zm0 0"/><path d="m4.570312 10.292969.027344-.394531-1.011718.394531zm-.027343.167969-3.25 1.378906 1.703125-.546875h1.449218zm-.535157-1.996094.859376-.632813.210937-1.054687zm2.910157 8.902344.464843-.492188.042969-.632812-.339843-.660157-.773438.308594.5625-.070313.242188.113282-.605469.351562v.152344l.195312-.167969h.28125zm1.351562-.703126.070313-2.082031-.28125.128907.042968.96875-.523437.449218.085937.449219zm-.871093-3.359374h.914062l-.058594.671874-.5625.804688-1.207031-.480469v-.449219h.6875zm-1.578126 1.617187.453126-.535156.011718-.5625-.238281-.632813-.84375.324219.632813-.210937.210937.222656-.632813.378906-.140624.242188.367187-.226563h.179687zm-1.207031-3.417969.589844-.140625 2.671875 1.671875h-.703125l-1.742187-1.335937zm3.992188 5.917969 1.378906-1.546875-1.070313-2.078125-.308593-.085937zm.773437-7.113281 1.941406-.113282 1.757813-.941406zm1.433594.660156-.433594-.238281-.730468.167969zm-6.101562.226562.210937-.421874 6.554687-.382813-.804687.269531-.210937-.113281-1.503907.296875zm3.136718-.058593 1.152344-.113281.675781.058593 2.574219 1.558594 1.125 1.449219.195312.675781-.757812-.96875zm0 0"/><path d="m12.121094 17.269531.519531-1.519531.070313-1.742188-2.964844-1.578124.746094.492187 1.585937 3.757813zm0 0"/><path d="m10.082031 17.816406 1.28125-2.277344-1.195312-2.644531-2.730469-1.742187-1.882812.183594 3.699218 2.320312 1.011719 2.332031zm-5.175781-8.507812-.109375 1.292968 1.335937-.082031 2.402344-1.210937-.394531-.800782zm1.757812 1.183594 1.746094-.101563 3.640625-1.054687 2.476563-1.601563-5.824219 1.730469zm1.703126-2.070313.394531.832031 2.332031-.730468 4.628906-3.152344 1.417969-1.871094zm3.402343-.082031 1.84375-.5625 2.460938-1.957032-1.125.3125zm-3.246093-2.671875 2.417968-1.183594 1.699219-1.9375.296875-1.054687zm3.867187-5.5820315-6.921875 5.5937505-.632812 3.152343 6.851562-6.457031zm-7.511719 9.0117185 3.277344-.773437 7.226562-4.019531 2.167969-2.785157-9.535156 4.625zm0 0"/></g></svg>