<svg height="18" viewBox="0 0 18 18" width="18" xmlns="http://www.w3.org/2000/svg"><path d="m16 2v6h6m0-6-6 6m6 8.921875v3c0 .5625-.234375 1.098958-.645833 1.479167-.416667.380208-.973959.567708-1.536459.520833-3.072916-.338542-6.03125-1.390625-8.630208-3.072917-2.411458-1.536458-4.463542-3.583333-6-6-1.6875-2.609375-2.739583-5.578125-3.067708-8.666666-.052084-.5625.135416-1.114584.515625-1.53125.380208-.411459.911458-.651042 1.473958-.651042h3c1.005208-.010417 1.859375.723958 2 1.71875.125.963542.359375 1.90625.703125 2.8125.270833.729167.098958 1.552083-.453125 2.109375l-1.270833 1.270833c1.427083 2.5 3.5 4.572917 6 6l1.270833-1.270833c.557292-.552083 1.380208-.723958 2.109375-.453125.90625.34375 1.848958.578125 2.8125.703125 1.005208.140625 1.744792 1.015625 1.71875 2.03125" fill="none" stroke="#fff" stroke-linecap="round" stroke-linejoin="round" stroke-width="2" transform="scale(.75)"/></svg>