<svg height="18" viewBox="0 0 18 18" width="18" xmlns="http://www.w3.org/2000/svg"><path d="m3.277344.222656c-1.808594 0-3.277344 1.464844-3.277344 3.277344v11c0 1.8125 1.464844 3.277344 3.277344 3.277344h11.445312c1.808594 0 3.277344-1.464844 3.277344-3.277344v-11c0-1.8125-1.464844-3.277344-3.277344-3.277344zm0 .277344h11.445312c1.660156 0 3 1.335938 3 3v11c0 1.664062-1.339844 3-3 3h-11.445312c-1.660156 0-3-1.335938-3-3v-11c0-1.660156 1.339844-3 3-3m3.210937 4.117188c-.21875 0-.445312-.003907-.675781.003906-.226562.007812-.441406.007812-.644531.015625-.195313.007812-.378907.007812-.558594.015625-.136719.003906-.273437.007812-.410156.007812-.050781 0-.117188.019532-.160157.070313-.042968.046875-.050781.101562-.050781.148437v7.597656c0 .054688.011719.117188.058594.167969s.113281.066407.167969.066407h1.453125c.117187-.015626.214843-.132813.199219-.261719v.019531-2.226562c.058593 0 .132812 0 .164062.003906.089844.007812.207031.007812.382812.007812.617188 0 1.1875-.066406 1.710938-.261718.503906-.183594.941406-.511719 1.253906-.949219.316406-.441407.46875-.996094.46875-1.652344 0-.347656-.0625-.683594-.179687-1.007813-.125-.335937-.316407-.640624-.570313-.890624v-.003907c-.296875-.285156-.652344-.503906-1.039062-.636719-.433594-.160156-.953125-.234374-1.570313-.234374zm0 .273437c.59375 0 1.082031.074219 1.472657.222656h.003906c.351562.121094.671875.316407.9375.574219.222656.222656.398437.492188.507812.789062.105469.296876.160156.597657.160156.914063 0 .613281-.140624 1.105469-.417968 1.492187-.277344.390626-.667969.683594-1.125.851563-.480469.175781-1.015625.242187-1.613282.242187-.175781 0-.296874 0-.355468-.007812-.085938-.007812-.191406-.007812-.328125-.007812h-.140625v2.476562h-1.324219v-7.503906c.105469 0 .207031 0 .355469-.003906.171875-.007813.355468-.007813.558594-.015626.195312-.007812.410156-.007812.640624-.015624.226563-.007813.449219-.007813.667969-.007813m.167969 1.179687c-.039062 0-.078125 0-.117188 0-.191406 0-.363281 0-.507812.007813h.015625c-.15625-.007813-.265625 0-.332031.007813l-.117188.015624v2.730469l.128906.011719c.101563.007812.203126.015625.296876.015625h.390624c.300782 0 .601563-.046875.890626-.140625.261718-.074219.492187-.230469.667968-.433594h.003906c.179688-.214844.261719-.503906.261719-.847656.007813-.257812-.058593-.511719-.191406-.730469v-.003906c-.140625-.214844-.339844-.382813-.582031-.476563-.257813-.101562-.53125-.152343-.808594-.15625zm-.003906.277344c.246094.003906.488281.046875.707031.136719h.003906c.183594.070313.339844.199219.449219.367187.101562.175782.152344.375.148438.578126v.003906c0 .304687-.066407.515625-.195313.671875-.148437.164062-.332031.289062-.539063.347656h-.003906c-.261718.085937-.535156.128906-.808594.128906h-.390624c-.042969 0-.097657-.007812-.148438-.007812v-2.214844c.046875-.003906.078125-.007813.15625-.003906h.015625c.132813-.007813.300781-.007813.496094-.007813zm6.195312.097656c-.539062 0-.996094.085938-1.367187.273438-.339844.160156-.632813.414062-.832031.730469l-.003907.003906c-.171875.292969-.269531.621094-.269531.960937-.007812.285157.058594.566407.183594.816407l.003906.003906v.003906c.148438.265625.355469.496094.601562.671875h.003907c.332031.230469.695312.414063 1.074219.546875.359374.140625.601562.257813.6875.328125.101562.078125.125.136719.125.1875 0 .074219-.050782.152344-.113282.183594h-.007812c-.101563.050781-.28125.089844-.550782.089844-.285156 0-.570312-.035156-.835937-.105469h-.003906c-.308594-.070313-.605469-.1875-.878907-.347656l.007813.003906c-.027344-.019531-.054687-.03125-.085937-.035156-.046876-.007813-.09375.003906-.132813.027343-.082031.054688-.09375.128907-.09375.183594v1.285156l.003906-.019531c-.015625.125.0625.230469.148438.277344l.003906.003906.007813.003907c.25.117187.511718.199218.785156.246093.339844.066407.683594.097657 1.027344.097657.546874 0 1.007812-.082032 1.390624-.246094.359376-.144532.667969-.390625.886719-.707032h.003907c.207031-.316406.316406-.683593.3125-1.0625.003906-.285156-.058594-.566406-.1875-.820312v-.003906c-.152344-.273438-.371094-.496094-.632813-.664063-.363281-.226562-.757813-.417969-1.167969-.554687l.011719.003906c-.175781-.070312-.34375-.152344-.511719-.238281-.082031-.042969-.15625-.101563-.207031-.160157-.03125-.042968-.046875-.082031-.046875-.109374 0-.035157.015625-.085938.039062-.121094.027344-.042969.078126-.074219.140626-.089844h.003906c.132812-.035156.273437-.054688.402344-.046875h.007812c.269531 0 .53125.035156.796875.089844.242187.050781.464844.128906.671875.238281l.003906.003906c.070313.035156.148438.027344.226563.011719l.023437-.007813.023438-.011718c.070312-.046875.097656-.117188.097656-.191406v-1.203126c0-.054687-.011719-.09375-.019531-.121093l-.007813-.03125c-.03125-.058594-.074218-.113281-.164062-.136719-.207032-.082031-.425782-.140625-.652344-.171875-.308594-.046875-.625-.070313-.933594-.070313zm0 .277344c.296875 0 .597656.023438.894532.066406h.003906c.207031.027344.410156.082032.597656.160157 0 .007812.003906.023437.003906.027343v1.144532c-.222656-.117188-.464844-.203125-.710937-.253906-.277344-.058594-.558594-.097657-.851563-.097657-.164062-.007812-.332031.015625-.480468.054688-.125.03125-.234376.097656-.308594.203125l-.003906.003906c-.050782.082031-.082032.179688-.082032.273438 0 .109374.046875.199218.101563.277343h.003906v.003907c.082031.097656.183594.175781.292969.234374h.003906c.171875.089844.351562.171876.535156.25h.007813c.386719.132813.757812.308594 1.105469.527344.222656.140625.40625.332032.535156.558594.109375.214844.160156.453125.15625.695312v.003907c.003906.316406-.089844.636719-.265625.902343-.191407.273438-.457031.480469-.761719.605469h-.003906v.003907c-.339844.144531-.765625.222656-1.285156.222656-.328126 0-.652344-.027344-.976563-.09375h-.003906c-.246094-.042969-.488281-.117188-.714844-.226563l.007813.007813c-.015626-.011719-.011719-.011719-.011719-.003906v-1.1875c.265625.144531.546875.253906.839843.324218.292969.074219.597657.113282.90625.113282.289063 0 .507813-.035157.667969-.117188.171875-.078125.28125-.246094.28125-.433594 0-.15625-.089843-.292968-.226562-.402344-.152344-.125-.398438-.230468-.761719-.371093h-.003906c-.359375-.128907-.699219-.300781-1.015625-.515625-.214844-.152344-.390625-.351563-.519531-.578125-.105469-.210938-.15625-.449219-.152344-.683594v-.003906c0-.292969.082031-.570313.230468-.824219.171876-.269531.421876-.488281.714844-.625h.003906c.324219-.164062.734376-.246094 1.246094-.246094" fill="#001e36"/></svg>