<svg height="18" viewBox="0 0 18 18" width="18" xmlns="http://www.w3.org/2000/svg"><path d="m3.1875.226562c-1.761719 0-3.1875 1.421876-3.1875 3.1875v11.171876c0 1.765624 1.425781 3.1875 3.1875 3.1875h11.625c1.761719 0 3.1875-1.421876 3.1875-3.1875v-11.171876c0-1.765624-1.425781-3.1875-3.1875-3.1875zm3.261719 4.460938c.617187 0 1.125.074219 1.546875.230469.375.128906.71875.339843 1.003906.617187.242188.242188.429688.535156.546875.855469.113281.3125.171875.636719.171875.972656 0 .648438-.148438 1.179688-.449219 1.597657-.300781.421874-.71875.738281-1.207031.917968-.511719.1875-1.074219.253906-1.6875.253906-.179688 0-.300781 0-.375-.007812s-.179688-.007812-.324219-.007812v2.40625c.007813.054687-.027343.097656-.082031.105468h-1.453125c-.058594 0-.089844-.027344-.089844-.097656v-7.714844c0-.054687.023438-.085937.074219-.085937.128906 0 .246094 0 .421875-.003907.179687-.007812.367187-.007812.566406-.015624.203125-.007813.421875-.007813.65625-.015626.230469-.007812.457031-.007812.679688-.007812zm.167969 1.476562c-.039063 0-.078126 0-.113282 0-.195312 0-.367187 0-.511718.007813-.148438-.007813-.253907 0-.308594.007813v2.519531c.105468.007812.203125.015625.292968.015625h.398438c.292969 0 .585938-.042969.863281-.136719.238281-.066406.449219-.207031.613281-.394531.160157-.1875.234376-.445313.234376-.773438.007812-.234375-.054688-.464844-.171876-.667968-.128906-.195313-.308593-.34375-.527343-.425782-.242188-.101562-.503907-.148437-.769531-.152344zm6.289062.382813c.308594 0 .625.023437.929688.066406.226562.03125.445312.09375.644531.175781.03125.007813.0625.035157.078125.066407.007812.03125.015625.058593.015625.089843v1.222657c0 .027343-.015625.058593-.039063.074219-.066406.015624-.105468.015624-.136718 0-.222657-.121094-.464844-.203126-.71875-.253907-.277344-.0625-.554688-.097656-.839844-.097656-.148438-.007813-.308594.015625-.449219.050781-.097656.023438-.179687.078125-.234375.152344-.035156.058594-.058594.132812-.058594.203125 0 .066406.03125.132813.074219.191406.066406.085938.15625.152344.253906.203125.175781.089844.351563.171875.535157.25.402343.132813.792968.320313 1.152343.546875.25.15625.453125.367188.59375.621094.121094.238281.179688.503906.171875.773437.007813.355469-.09375.703126-.292968.996094-.207032.300782-.5.53125-.839844.667969-.367188.15625-.816406.242187-1.355469.242187-.347656 0-.683594-.03125-1.019531-.097656-.265625-.046875-.523438-.128906-.765625-.242187-.054688-.027344-.089844-.082031-.082031-.140625v-1.304688c0-.023437.007812-.054687.027343-.070312.023438-.011719.046875-.007813.070313.007812.289062.171875.601562.296875.929687.367188.285157.078125.585938.113281.882813.113281.285156 0 .488281-.035156.625-.105469.117187-.050781.203125-.179687.203125-.3125 0-.105468-.0625-.203125-.183594-.300781-.117187-.097656-.367187-.210937-.734375-.351563-.375-.132812-.734375-.316406-1.0625-.542968-.234375-.167969-.429688-.382813-.570312-.636719-.121094-.234375-.179688-.5-.171876-.765625 0-.320312.089844-.628906.253907-.90625.1875-.300781.464843-.539062.789062-.691406.351563-.179688.792969-.261719 1.324219-.261719zm0 0" fill="#001e36"/></svg>