<svg height="18" viewBox="0 0 18 18" width="18" xmlns="http://www.w3.org/2000/svg"><path d="m3.578125.941406-2.808594 3.179688h.003907-.003907l1.570313 9.421875 1.445312-.011719v-9.746094h10.429688v10.429688h-8.890625l.210937 1.25 5.546875 1.933594 6.148438-3.675782-1.992188-3.734375 1.992188-1.976562-2.144531-5.320313-4.152344-.773437-1.324219 1.175781-.300781-.917969zm.347656 2.984375v10.148438h10.148438v-10.148438zm6.085938 1.160157c.519531-.007813 1.03125.164062 1.4375.492187l-.445313.640625c-.289062-.226562-.636718-.359375-1.003906-.378906-.328125 0-.496094.148437-.496094.339844v.015624c0 .253907.167969.339844.832032.511719.785156.207031 1.230468.488281 1.230468 1.160157v.011718c0 .769532-.589844 1.203125-1.421875 1.203125-.605469 0-1.1875-.21875-1.640625-.621093v-.015626l.5-.601562c.316406.292969.726563.460938 1.15625.46875.34375 0 .558594-.136719.558594-.363281v-.011719c0-.214844-.132812-.328125-.78125-.492188-.777344-.195312-1.28125-.414062-1.28125-1.179687v-.015625c0-.699219.566406-1.164062 1.355469-1.164062zm-4.867188.058593h1.574219c.921875 0 1.476562.542969 1.476562 1.332031v.007813c0 .890625-.695312 1.355469-1.558593 1.355469h-.636719v1.15625h-.855469zm.855469.761719v1.179688h.660156c.425782 0 .671875-.253907.671875-.582032v-.011718c0-.378907-.261719-.585938-.683593-.585938zm-.859375 6.292969h3.855469v.644531h-3.855469zm0 0" fill="#b74af7"/></svg>