<svg height="18" viewBox="0 0 18 18" width="18" xmlns="http://www.w3.org/2000/svg"><g fill="none" stroke="#fff" stroke-linecap="round" stroke-linejoin="round" stroke-width="2" transform="scale(.75)"><path d="m12 14-1 1m2.75 3.25-1.25 1.421875m5.276042-14.015625c-6.088542 1.276042-10.84375 6.03125-12.119792 12.119792m13.145833-8.473959c-2.130208.578125-3.380208 2.770834-2.802083 4.895834.578125 2.130208 2.776042 3.380208 4.901042 2.802083"/><path d="m21.963542 20.734375c.098958.34375 0 .71875-.255209.973958-.255208.255209-.630208.354167-.973958.255209l-18-5c-.536458-.145834-.84375-.697917-.697917-1.229167 1.848959-6.651042 7.046875-11.848958 13.697917-13.697917.53125-.145833 1.083333.161459 1.229167.697917zm0 0"/></g></svg>