<svg height="18" viewBox="0 0 18 18" width="18" xmlns="http://www.w3.org/2000/svg"><path d="m10.136719 12.113281-.082031-.019531c-1.847657-.542969-2.132813-2.015625-2.132813-2.015625l2.558594.714844 1.351562-5.199219-.015625-.003906c-1.660156-.445313-2.761718-1.222656-3.199218-1.589844-.617188-.519531-.890626-.878906-1.15625-.332031-.238282.480469-.539063 1.261719-.832032 2.355469-.636718 2.371093-1.109375 7.375 2.816406 8.425781l.078126.019531zm-2.644531-4.339843s.617187-.960938 1.667968-.664063c1.050782.300781 1.132813 1.460937 1.132813 1.460937zm-1.199219 3.296874-1.824219.519532s.199219-1.128906 1.542969-1.578125l-1.03125-3.878907-.089844.027344c-1.28125.347656-2.316406.253906-2.75.179688-.613281-.105469-.933594-.238282-.902344.226562.027344.410156.125 1.046875.347657 1.890625.484374 1.824219 2.089843 5.335938 5.121093 4.519531l.085938-.027343zm-3.542969-2.589843 2.152344-.566407s-.0625.828126-.871094 1.042969c-.804688.210938-1.28125-.476562-1.28125-.476562zm12.628906-2.667969c-.558594.097656-1.902344.222656-3.5625-.222656-1.660156-.445313-2.761718-1.222656-3.195312-1.589844-.621094-.519531-.894532-.878906-1.160156-.332031-.238282.480469-.539063 1.261719-.832032 2.355469-.636718 2.371093-1.109375 7.375 2.816406 8.425781 3.925782 1.050781 6.011719-3.519531 6.648438-5.886719.292969-1.097656.421875-1.925781.457031-2.460938.039063-.605468-.375-.429687-1.171875-.289062zm-7.886718 1.960938s.617187-.960938 1.667968-.664063c1.050782.300781 1.132813 1.460937 1.132813 1.460937zm2.5625 4.320312c-1.847657-.542969-2.132813-2.015625-2.132813-2.015625l4.960937 1.386719s-1 1.160156-2.828124.628906m1.753906-3.027344s.617187-.960937 1.664062-.660156c1.050782.296875 1.132813 1.457031 1.132813 1.457031zm-4.535156 2.738282v-1.011719l-2.804688.796875s.207031-1.203125 1.671875-1.621094c.441406-.125.820313-.125 1.132813-.0625v-4.140625h1.40625c-.152344-.472656-.300782-.835937-.425782-1.089844-.207031-.417969-.417968-.140625-.894531.257813-.335937.28125-1.1875.882812-2.46875 1.226562-1.28125.347656-2.316406.253906-2.75.179688-.613281-.105469-.933594-.238282-.902344.226562.027344.410156.125 1.046875.347657 1.890625.484374 1.824219 2.089843 5.335938 5.121093 4.519531.789063-.214843 1.347657-.636718 1.734375-1.171874zm-4.523438-3.324219 2.152344-.566407s-.0625.828126-.871094 1.042969c-.804688.210938-1.28125-.476562-1.28125-.476562zm0 0"/></svg>