<svg height="18" viewBox="0 0 18 18" width="18" xmlns="http://www.w3.org/2000/svg"><path d="m16.484375 18h-14.96875c-.789063 0-1.4296875-.664062-1.4296875-1.480469v-15.039062c0-.820313.6406245-1.480469 1.4296875-1.480469h14.96875c.789063 0 1.429687.660156 1.429687 1.480469v15.039062c0 .816407-.640624 1.480469-1.429687 1.480469" fill="#3d4c73"/><path d="m7.519531 3.484375c-.054687.003906-.105469.035156-.140625.078125-.039062-.003906-.078125-.003906-.117187-.003906-.027344 0-.050781 0-.070313.003906-.125-.050781-.261718-.050781-.320312.109375-.019532.0625-.03125.128906-.035156.199219-.023438.015625-.042969.039062-.0625.0625-.121094.175781-.105469.484375-.054688.683594.082031.332031.4375.59375.746094.496093.023437-.003906.046875-.015625.070312-.03125.164063.03125.34375-.023437.488282-.195312.210937-.261719.234374-.613281.109374-.902344 0-.046875-.023437-.09375-.0625-.121094-.066406-.113281-.160156-.210937-.269531-.28125-.089843-.0625-.191406-.105469-.28125-.097656zm6.324219 0c-.058594.007813-.109375.035156-.144531.078125-.039063-.003906-.078125-.003906-.117188-.003906-.023437 0-.046875 0-.066406.003906-.128906-.050781-.261719-.050781-.320313.109375-.023437.066406-.035156.128906-.035156.199219-.027344.015625-.046875.039062-.0625.0625-.125.175781-.105468.484375-.058594.683594.082032.332031.4375.59375.746094.496093.027344-.003906.050782-.015625.070313-.03125.164062.03125.34375-.023437.488281-.195312.214844-.261719.234375-.613281.109375-.902344 0-.046875-.023437-.09375-.0625-.121094-.066406-.113281-.15625-.210937-.265625-.28125-.09375-.0625-.195312-.105469-.28125-.097656m-9.75.121094c-.191406-.007813-.378906.066406-.492188.246093-.011718.015626-.019531.035157-.03125.050782-.132812.117187-.222656.273437-.253906.449218-.039062.011719-.070312.050782-.066406.09375-.007812.203126.097656.363282.246094.46875.15625.140626.390625.199219.617187.207032.335938.007812.566407-.175782.671875-.421875l.003906-.003907c.175782-.234374.199219-.5625-.058593-.742187-.015625-.011719-.027344-.023437-.042969-.03125-.050781-.0625-.105469-.121094-.171875-.167969-.125-.089844-.269531-.140625-.421875-.148437m6.507812 0c-.191406-.003907-.375.066406-.492187.246093-.007813.015626-.019531.03125-.027344.050782-.132812.117187-.222656.273437-.253906.449218-.042969.011719-.070313.050782-.070313.09375-.003906.203126.097657.363282.25.472657.15625.140625.386719.195312.613282.203125.335937.007812.570312-.175782.671875-.421875l.003906-.003907c.179687-.234374.199219-.558593-.054687-.742187-.015626-.011719-.03125-.019531-.042969-.03125-.050781-.0625-.109375-.121094-.175781-.167969-.121094-.089844-.269532-.140625-.421876-.148437m-6.273437.375c.074219.019531.144531.046875.210937.082031.023438.035156.042969.066406.058594.101562-.046875-.042968-.105468-.074218-.167968-.09375-.015626-.027343-.039063-.050781-.066407-.058593h-.007812c-.007813-.011719-.019531-.023438-.027344-.03125m6.511719 0c.070312.019531.144531.046875.207031.082031.023437.035156.046875.066406.0625.101562-.050781-.042968-.109375-.074218-.171875-.09375-.011719-.027343-.035156-.050781-.066406-.058593h-.007813c-.007812-.011719-.015625-.023438-.023437-.03125m-3.417969.089843c.011719.003907.019531.007813.03125.011719.003906.003907.007813.007813.015625.011719.011719.070312.007812.164062-.050781.195312-.003907-.070312 0-.144531.003906-.21875zm6.324219 0c.007812.003907.019531.007813.027344.011719l.015624.011719c.011719.070312.007813.164062-.046874.195312-.003907-.074218-.003907-.144531.003906-.21875zm-9.585938.167969c.007813.003907.011719.007813.019532.011719.015624.007812.035156.011719.054687.015625 0 .015625.003906.03125.003906.042969-.03125-.039063-.089843-.042969-.132812-.019532l-.007813-.03125zm6.511719 0c.003906.003907.011719.007813.015625.011719.019531.007812.039062.011719.058594.015625v.042969c-.03125-.039063-.089844-.042969-.132813-.019532l-.007812-.03125zm-6.773437.066407c0 .011718.003906.027343.007812.039062.003906.019531.007812.039062.015625.058594-.019531-.023438-.027344-.054688-.023437-.097656m6.507812 0c.007812.03125.015625.066406.027344.097656-.019532-.023438-.03125-.054688-.027344-.097656m-2.382812.015624c.003906.136719-.03125.273438-.105469.390626-.046875.074218-.105469.125-.164063.15625.039063-.0625.078125-.132813.109375-.214844.007813-.015625.015625-.03125.023438-.050782.023437-.019531.039062-.054687.03125-.085937 0-.003906 0-.003906 0-.003906.046875-.039063.082031-.105469.097656-.179688zm6.320312 0c.003906.136719-.03125.273438-.105469.390626-.046875.074218-.101562.125-.160156.15625.039063-.0625.074219-.132813.109375-.214844.007812-.015625.015625-.03125.023438-.050782.023437-.019531.035156-.054687.027343-.085937v-.003906c.050781-.039063.085938-.105469.097657-.179688zm-7.46875.027344c.03125.117188.078125.230469.125.328125.027344.074219.0625.152344.105469.207031-.023438-.015624-.042969-.03125-.0625-.050781-.105469-.097656-.152344-.242187-.164063-.382812-.003906-.035157-.003906-.066407-.003906-.101563m6.320312 0c.03125.117188.078126.230469.125.328125.027344.074219.0625.152344.109376.207031-.023438-.015624-.046876-.03125-.066407-.050781-.105469-.097656-.148437-.242187-.164062-.382812-.003907-.035157-.003907-.066407-.003907-.101563m-8.75.113282c.011719.03125.011719.066406.003907.097656l-.027344-.050782c.011719-.015624.015625-.03125.023437-.046874zm6.511719 0c.011719.03125.011719.066406.003907.097656l-.027344-.050782c.007812-.015624.015625-.03125.023437-.046874m-6.820312.304687c.007812.011719.019531.019531.027343.03125-.054687.015625-.113281.019531-.171874.011719l.011718-.011719c.046875-.003906.089844-.015625.132813-.03125m6.511719 0c.007812.011719.015624.019531.027343.03125-.058593.015625-.117187.019531-.171875.011719l.007813-.015625c.046875 0 .09375-.011719.136719-.027344m-6.554688 1.804687c-.191406-.007812-.378906.066407-.492188.246094-.011718.015625-.019531.03125-.03125.046875-.132812.117188-.222656.277344-.253906.449219-.039062.015625-.070312.054688-.066406.097656-.007812.203125.097656.363282.246094.46875.15625.140625.390625.195313.617187.203125.335938.007813.566407-.175781.671875-.417969l.003906-.007812c.175782-.234375.199219-.558594-.058593-.742188-.015625-.011718-.027344-.019531-.042969-.027343-.050781-.066407-.105469-.121094-.171875-.171875-.125-.085938-.269531-.136719-.421875-.144532m6.507812 0c-.191406-.007812-.375.066407-.492187.246094-.007813.015625-.019531.03125-.027344.046875-.132812.117188-.222656.277344-.253906.449219-.042969.015625-.070313.054688-.070313.097656-.003906.203125.097657.363282.25.46875.15625.140625.386719.195313.613282.203125.335937.007813.570312-.175781.671875-.417969l.003906-.007812c.179687-.234375.199219-.558594-.054687-.742188l-.042969-.027343c-.050781-.066407-.109375-.121094-.175781-.171875-.121094-.085938-.269532-.140625-.421876-.144532m-6.273437.371094c.074219.019532.144531.046875.210937.085938.023438.03125.042969.066406.058594.101562-.046875-.042968-.105468-.078125-.167968-.097656-.015626-.027344-.039063-.050781-.066407-.054688l-.007812-.003906c-.007813-.011718-.019531-.019531-.027344-.03125m6.511719 0c.070312.019532.140625.046875.207031.085938.023437.03125.046875.066406.0625.101562-.050781-.042968-.109375-.078125-.171875-.097656-.011719-.027344-.035156-.050781-.066406-.054688l-.007813-.003906c-.007812-.011718-.015625-.019531-.023437-.03125m-6.679688.257813c.007813.003906.011719.007812.019532.011719.015624.007812.035156.015624.054687.019531 0 .011719.003906.027343.003906.042969-.03125-.042969-.089843-.046876-.132812-.023438l-.007813-.03125zm6.511719 0c.003906.003906.011719.007812.015625.011719.019531.007812.039062.015624.058594.019531v.042969c-.03125-.042969-.089844-.046876-.132813-.023438l-.007812-.03125zm-6.773437.066406c.003906.035156.011718.066406.023437.097656-.019531-.019531-.027344-.054687-.023437-.097656m6.507812 0c.003906.035156.015625.066406.027344.097656-.019532-.019531-.03125-.054687-.027344-.097656m-5.960938.15625c.011719.035156.011719.066406.003907.097656-.007813-.015625-.015625-.03125-.027344-.050781.011719-.015625.015625-.03125.023437-.046875zm6.511719 0c.011719.035156.011719.066406.003907.097656-.007813-.015625-.019532-.03125-.027344-.050781.007812-.015625.015625-.03125.023437-.046875zm-6.820312.308594.027343.027343c-.054687.015626-.113281.019532-.171874.011719l.011718-.011719c.046875-.003906.089844-.011718.132813-.027343m6.511719 0c.007812.007812.015624.019531.027343.027343-.058593.015626-.113281.019532-.171875.011719l.007813-.011719c.046875-.003906.09375-.011718.136719-.027343" fill="#7fcfbd"/><path d="m4.253906 9.707031c-.4375 0-.789062.359375-.789062.804688v3.21875c0 .445312.351562.804687.789062.804687s.789063-.359375.789063-.804687v-3.21875c0-.441407-.351563-.804688-.789063-.804688m6.324219 0c-.4375 0-.789063.359375-.789063.804688v3.21875c0 .445312.351563.804687.789063.804687s.789063-.359375.789063-.804687v-3.21875c0-.441407-.351563-.804688-.789063-.804688m-3.164063-3.214843c-.433593 0-.789062.359374-.789062.804687v6.433594c0 .445312.355469.804687.789062.804687.4375 0 .792969-.359375.792969-.804687v-6.433594c0-.445313-.355469-.804687-.792969-.804687m6.324219 0c-.433593 0-.789062.359374-.789062.804687v6.433594c0 .445312.355469.804687.789062.804687.4375 0 .792969-.359375.792969-.804687v-6.433594c0-.445313-.355469-.804687-.792969-.804687" fill="#fff"/></svg>