<svg height="18" viewBox="0 0 18 18" width="18" xmlns="http://www.w3.org/2000/svg"><path d="m1.515625 0c-.789063 0-1.4296875.660156-1.4296875 1.480469v15.039062c0 .816407.6406245 1.480469 1.4296875 1.480469h14.96875c.789063 0 1.429687-.664062 1.429687-1.480469v-15.039062c0-.820313-.640624-1.480469-1.429687-1.480469zm6.003906 3.484375c.089844-.007813.191407.035156.28125.097656.109375.070313.203125.167969.269531.28125.039063.027344.0625.070313.0625.121094.125.289063.101563.640625-.109374.902344-.144532.171875-.324219.226562-.488282.195312-.023437.015625-.046875.027344-.070312.03125-.308594.097657-.664063-.164062-.746094-.496093-.050781-.199219-.066406-.507813.054688-.683594.019531-.023438.039062-.046875.0625-.0625.003906-.066406.015624-.136719.035156-.199219.058594-.160156.195312-.160156.320312-.109375.023438-.003906.046875-.003906.066406-.003906.042969 0 .082032 0 .121094.003906.035156-.042969.085938-.070312.140625-.078125m6.324219 0c.085938-.007813.1875.035156.28125.097656.109375.074219.199219.167969.265625.28125.039063.027344.0625.070313.0625.121094.125.289063.105469.640625-.109375.902344-.144531.171875-.324219.226562-.488281.195312-.019531.015625-.042969.027344-.070313.03125-.308594.097657-.664062-.164062-.746094-.496093-.046874-.199219-.066406-.507813.058594-.683594.015625-.023438.035156-.046875.0625-.0625 0-.070313.011719-.132813.035156-.199219.058594-.160156.191407-.160156.320313-.109375.019531-.003906.042969-.003906.066406-.003906.039063 0 .078125 0 .117188.003906.035156-.042969.085937-.070312.144531-.078125m-9.75.121094c.152344.007812.296875.058593.421875.148437.066406.046875.121094.105469.171875.167969.015625.007813.03125.019531.042969.03125.257812.179687.234375.507813.058593.742187l-.003906.003907c-.105468.246093-.335937.429687-.671875.421875-.226562-.007813-.460937-.066406-.617187-.207032-.148438-.105468-.253906-.265624-.25-.46875 0-.042968.03125-.082031.070312-.09375.03125-.175781.121094-.332031.253906-.449218.011719-.019532.019532-.035156.03125-.050782.113282-.179687.300782-.253906.492188-.246093zm6.507812 0c.152344.007812.300782.058593.421876.148437.066406.046875.125.105469.175781.167969.011719.011719.027343.019531.042969.03125.253906.183594.234374.507813.054687.742187l-.003906.003907c-.101563.246093-.335938.429687-.671875.421875-.226563-.007813-.457032-.0625-.613282-.203125-.152343-.109375-.253906-.269531-.25-.472657 0-.042968.027344-.082031.070313-.09375.03125-.175781.121094-.332031.253906-.449218.007813-.019532.019531-.035156.027344-.050782.117187-.179687.300781-.25.492187-.246093zm-6.273437.375c.007813.007812.019531.019531.027344.03125h.007812c.027344.007812.050781.03125.066407.058593.0625.019532.121093.050782.167968.09375-.015625-.035156-.035156-.070312-.058594-.101562-.066406-.035156-.136718-.0625-.210937-.082031m6.511719 0c.007812.007812.015625.019531.023437.03125h.007813c.03125.007812.054687.03125.066406.058593.0625.019532.121094.050782.171875.09375-.015625-.035156-.039063-.070312-.0625-.101562-.0625-.035156-.136719-.0625-.207031-.082031m-3.417969.089843c-.003906.074219-.007813.148438-.003906.21875.058593-.03125.0625-.125.046875-.195312-.003906-.003906-.007813-.007812-.011719-.011719-.011719-.003906-.019531-.007812-.03125-.011719zm6.324219 0c-.007813.074219-.007813.144532-.003906.21875.054687-.03125.058593-.125.046874-.195312l-.015624-.011719c-.007813-.003906-.019532-.007812-.027344-.011719zm-9.585938.167969-.0625.019531.007813.03125c.042969-.023437.101562-.019531.132812.019532 0-.011719-.003906-.027344-.003906-.042969-.019531-.003906-.039063-.007813-.054687-.015625-.007813-.003906-.011719-.007812-.019532-.011719zm6.511719 0-.066406.019531.007812.03125c.042969-.023437.101563-.019531.132813.019532 0-.011719 0-.027344 0-.042969-.019532-.003906-.039063-.007813-.058594-.015625-.003906-.003906-.011719-.007812-.015625-.011719m-6.773437.066407c-.003907.042968.003906.074218.023437.097656-.007813-.019532-.011719-.039063-.015625-.058594-.003906-.011719-.007812-.027344-.007812-.039062m6.507812 0c-.003906.042968.007812.074218.027344.097656-.011719-.03125-.019532-.066406-.027344-.097656m-2.382812.015624-.007813.011719c-.015625.074219-.046875.140625-.097656.179688v.003906c.007812.03125-.007813.066406-.03125.085937-.007813.019532-.015625.035157-.023438.050782-.03125.082031-.070312.152344-.109375.214844.058594-.03125.117188-.082032.164063-.15625.074219-.117188.109375-.253907.105469-.390626zm6.320312 0-.007812.011719c-.011719.074219-.046876.140625-.097657.179688v.003906c.007813.03125-.003906.066406-.027343.085937-.007813.019532-.015626.035157-.023438.050782-.035156.082031-.070312.152344-.109375.214844.058594-.03125.113281-.082032.160156-.15625.074219-.117188.109375-.253907.105469-.390626zm-7.46875.027344c0 .035156 0 .066406.003906.101563.011719.140625.058594.285156.164063.382812.019531.019531.039062.035157.0625.050781-.042969-.054687-.078125-.132812-.105469-.207031-.050781-.105469-.09375-.214843-.125-.328125zm6.320312 0c0 .035156 0 .066406.003907.101563.015625.140625.058593.285156.164062.382812.019531.019531.042969.035157.066407.050781-.046876-.054687-.082032-.132812-.109376-.207031-.050781-.105469-.09375-.214843-.125-.328125zm-8.75.113282c-.007812.015624-.011718.03125-.023437.046874l.027344.050782c.007812-.03125.007812-.066406-.003907-.097656m6.511719 0c-.007812.015624-.015625.03125-.023437.046874l.027344.050782c.007812-.03125.003906-.066406-.003907-.097656m-6.820312.304687c-.042969.015625-.085938.027344-.132813.027344l-.011718.015625c.058593.007812.117187.003906.171874-.011719-.007812-.011719-.019531-.019531-.027343-.03125m6.511719 0c-.042969.015625-.089844.027344-.136719.027344l-.007813.015625c.054688.007812.113282.003906.171875-.011719-.011719-.011719-.019531-.019531-.027343-.03125m-3.230469 1.726563c.433593 0 .789062.359374.789062.804687v6.433594c0 .445312-.355469.804687-.792969.804687-.433593 0-.789062-.359375-.789062-.804687v-6.433594c0-.445313.355469-.804687.789062-.804687zm6.320312 0c.4375 0 .792969.359374.792969.804687v6.433594c0 .445312-.355469.804687-.792969.804687-.433593 0-.789062-.359375-.789062-.804687v-6.433594c0-.445313.355469-.804687.789062-.804687zm-9.644531.078124c.152344.007813.296875.058594.421875.144532.066406.046875.121094.105468.171875.171875.015625.007812.027344.015625.042969.027343.257812.183594.234375.507813.058593.742188l-.003906.007812c-.105468.242188-.335937.425782-.671875.417969-.226562-.007812-.460937-.0625-.617187-.203125-.148438-.105468-.253906-.265625-.25-.46875 0-.042968.03125-.082031.070312-.09375.03125-.175781.121094-.335937.253906-.453125.011719-.015625.019532-.03125.03125-.046875.113282-.183594.300782-.253906.492188-.246094zm6.507812 0c.152344.003907.300782.058594.421876.144532.066406.050781.125.105468.175781.171875l.042969.027343c.253906.183594.234374.507813.054687.742188l-.003906.007812c-.101563.242188-.335938.425782-.671875.417969-.226563-.007812-.457032-.0625-.613282-.203125-.152343-.105468-.253906-.265625-.25-.46875 0-.042968.027344-.082031.070313-.09375.03125-.175781.121094-.335937.253906-.453125.007813-.015625.019531-.03125.027344-.046875.117187-.183594.300781-.253906.492187-.246094zm-6.273437.371094c.007813.011719.019531.019532.027344.03125l.007812.003906c.027344.003907.050781.027344.066407.054688.0625.019531.121093.054688.167968.097656-.015625-.035156-.035156-.070312-.058594-.101562-.066406-.039063-.136718-.066406-.210937-.085938m6.511719 0c.007812.011719.015625.019532.023437.03125l.007813.003906c.03125.003907.054687.027344.066406.054688.0625.019531.121094.054688.171875.097656-.015625-.035156-.039063-.070312-.0625-.101562-.066406-.039063-.136719-.066406-.207031-.085938m-6.679688.257813-.0625.019531.007813.03125c.042969-.023438.101562-.019531.132812.023438 0-.015626-.003906-.03125-.003906-.042969-.019531-.003907-.039063-.011719-.054687-.019531-.007813-.003907-.011719-.007813-.019532-.011719zm6.511719 0-.066406.019531.007812.03125c.042969-.023438.101563-.019531.132813.023438 0-.015626 0-.03125 0-.042969-.019532-.003907-.039063-.011719-.058594-.019531-.003906-.003907-.011719-.007813-.015625-.011719m-6.773437.066406c-.003907.042969.003906.078125.023437.097656-.011719-.03125-.019531-.0625-.023437-.097656m6.507812 0c-.003906.042969.007812.078125.027344.097656-.011719-.03125-.019532-.0625-.027344-.097656m-5.960938.15625c-.007812.015625-.011718.03125-.023437.046875.011719.019531.019531.035156.027344.054688.007812-.035157.007812-.070313-.003907-.101563m6.511719 0c-.007812.015625-.015625.03125-.023437.046875.007812.019531.019531.035156.027344.054688.007812-.035157.003906-.070313-.003907-.101563m-6.820312.308594c-.042969.015625-.085938.023437-.132813.027343l-.011718.011719c.058593.007813.117187.003907.171874-.011719-.007812-.007812-.019531-.019531-.027343-.027343m6.511719 0c-.042969.015625-.089844.023437-.136719.027343l-.007813.011719c.054688.007813.113282.003907.171875-.011719-.011719-.007812-.019531-.019531-.027343-.027343m-6.394532 1.976562c.4375 0 .789063.363281.789063.804688v3.21875c0 .445312-.351563.804687-.789063.804687s-.789062-.359375-.789062-.804687v-3.21875c0-.445313.351562-.804688.789062-.804688m6.324219 0c.4375 0 .789063.363281.789063.804688v3.21875c0 .445312-.351563.804687-.789063.804687s-.789063-.359375-.789063-.804687v-3.21875c0-.445313.351563-.804688.789063-.804688"/></svg>