<svg height="18" viewBox="0 0 18 18" width="18" xmlns="http://www.w3.org/2000/svg"><path d="m12.898438.207031-7.835938.023438c-.058594 0-.113281.027343-.152344.070312l-4.8671872 6.152344c-.03906255.046875-.0507813.105469-.03906255.164063l1.76562475 7.644531c.015625.054687.054688.105469.105469.128906l7.074219 3.382813c.050781.027343.113281.027343.167969 0l7.050781-3.425782c.054687-.023437.09375-.074218.105469-.132812l1.722656-7.652344c.011718-.058594 0-.117188-.039063-.164062l-4.902343-6.121094c-.039063-.046875-.09375-.070313-.152344-.070313zm-.089844.386719 4.789062 5.972656-1.683594 7.476563-6.882812 3.339843-6.902344-3.300781-1.726562-7.460937 4.753906-6.003906zm-4.214844 1.546875c-.699219 0-1.382812.078125-1.820312.25-1.164063.429687-2.042969 1.578125-2.304688 2.964844-.234375 1.097656-.292969 2.027343-.417969 2.871093-.054687.359376-.117187.703126-.210937 1.035157-.472656.375-.8125.953125-.9375 1.613281-.085938.40625-.132813.777344-.175782 1.121094h-.480468v.390625h6.667968c-.050781.378906-.085937.726562-.136718 1.054687l.078125.011719h-3.15625v.386719h10.074219v-.386719h-.707032l.074219-.011719c-.082031-.570312-.125-1.207031-.285156-1.960937-.042969-.222657-.109375-.4375-.195313-.644531h1.394532v-.390626h-1.597657c-.164062-.261718-.367187-.492187-.597656-.675781h1.347656v-.390625h-1.742187c-.058594-.191406-.101563-.382812-.144532-.582031h1.109376v-.386719h-1.179688c-.011719-.0625-.023438-.121094-.03125-.183594-.121094-.84375-.183594-1.769531-.414062-2.867187-.261719-1.390625-1.140626-2.542969-2.308594-2.96875h-.003906c-.484376-.171875-1.195313-.25-1.898438-.25zm0 .292969c.679688 0 1.375.082031 1.800781.230468 1.054688.382813 1.878907 1.449219 2.121094 2.746094l.003906.003906c.226563 1.078126.285157 1.996094.414063 2.855469.054687.386719.128906.757813.234375 1.128907-.335938-.101563-.789063-.148438-1.234375-.148438-.089844 0-.179688.003906-.265625.007812l-1.394531-1.398437c.03125-.0625.058593-.121094.082031-.1875l1.597656.925781.097656-.167968-1.640625-.949219c.011719-.050781.019532-.101563.027344-.15625l1.726562.460937.050782-.1875-1.75-.46875-.019532.074219c.003907-.019531.003907-.035156.003907-.054687 0-.875-.746094-1.582032-1.65625-1.582032-.902344 0-1.648438.699219-1.65625 1.570313l-1.726563.460937.050782.1875 1.6875-.453125c.007812.058594.015624.113281.03125.171875l-1.605469.925782.097656.164062 1.566406-.902344c.023438.066406.054688.132813.089844.191406l-.949219.949219c-.242187-.035156-.511718-.054687-.785156-.054687-.449219 0-.886719.046875-1.183594.164062-.074218.027344-.144531.058594-.214844.09375.058594-.25.105469-.507812.144532-.765625.125-.859375.183594-1.777343.410156-2.855469h.003906v-.003906c.242188-1.296875 1.070313-2.363281 2.121094-2.746094h.003906c.367188-.148437 1.035156-.230468 1.714844-.230468m-2.1875 1.460937c-.304688-.003906-.589844.136719-.777344.375l-.085937.117188.230469.175781.089843-.113281c.117188-.15625.308594-.257813.503907-.265625.1875-.003906.367187.066406.503906.195312l.101562.105469.207032-.207031-.105469-.101563c-.179688-.179687-.417969-.277343-.667969-.28125zm4.691406 0c-.25.003907-.492187.101563-.671875.277344l-.101562.105469.203125.207031.105468-.105469c.132813-.128906.316407-.199218.5-.195312.195313.007812.390626.109375.507813.265625l.089844.113281.230469-.175781-.089844-.117188c-.183594-.238281-.472656-.378906-.773438-.375m-4.699218 1.136719c-.484376 0-.871094.402344-.871094.890625s.386718.890625.871094.890625c.480468 0 .871093-.402344.871093-.890625s-.390625-.890625-.871093-.890625m4.707031 0c-.484375 0-.871094.402344-.871094.890625s.386719.890625.871094.890625c.480469 0 .871093-.402344.871093-.890625s-.390624-.890625-.871093-.890625m-4.949219.308594c.195312 0 .355469.167968.355469.371094 0 .097656-.035157.195312-.101563.265624-.070312.066407-.160156.105469-.253906.105469-.097656 0-.1875-.039062-.253906-.105469-.066406-.070312-.105469-.167968-.105469-.265624 0-.203126.160156-.371094.359375-.371094m4.703125 0c.199219 0 .355469.167968.359375.371094 0 .097656-.039062.195312-.105469.261718-.066406.070313-.160156.109375-.253906.109375s-.1875-.039062-.253906-.105469c-.066407-.070312-.105469-.167968-.105469-.265624 0-.203126.160156-.371094.359375-.371094m-2.066406.519531c.757812 0 1.363281.578125 1.363281 1.289063 0 .710937-.605469 1.292968-1.363281 1.292968-.757813 0-1.363281-.582031-1.363281-1.292968 0-.710938.605468-1.289063 1.363281-1.289063m0 .394531c-.105469 0-.195313.03125-.265625.054688-.074219.027344-.132813.042968-.175782.042968-.082031 0-.160156.042969-.203124.09375-.042969.050782-.0625.105469-.078126.15625-.027343.097657-.042968.203126-.058593.238282-.03125.078125 0 .144531.023437.1875.023438.039062.054688.074218.089844.109375.066406.066406.152344.136719.238281.199219.082031.058593.164063.113281.246094.167968l-.003906.058594c-.03125.027344-.113281.097656-.242188.140625-.078125.027344-.160156.039063-.226562.019531-.058594-.015625-.117188-.066406-.175781-.144531.003906-.027344.003906-.042969.011718-.09375.011719-.085937.03125-.191406.039063-.226563l-.28125-.070312c-.019531.070312-.03125.167969-.046875.257812-.011719.089844-.019532.167969-.019532.167969l-.007812.054688.027344.042969c.105468.160156.242187.257812.382812.292968.140625.039063.273438.015625.390625-.023437.144531-.050781.265625-.128907.332031-.179688.066407.050781.1875.128907.335938.179688.113281.039062.246094.0625.386719.023437.140625-.035156.277343-.132812.382812-.292968l.027344-.042969-.007813-.054688s-.007812-.078125-.019531-.167969c-.015625-.089843-.027343-.1875-.046875-.257812l-.28125.070312c.007813.035157.027344.140626.039063.226563.007812.050781.007812.0625.011719.09375-.058594.078125-.117188.128906-.175782.144531-.066406.019532-.148437.007813-.226562-.019531-.132813-.042969-.210938-.113281-.242188-.140625l-.003906-.054688c.066406-.042968.160156-.105468.25-.171874.085938-.0625.175781-.132813.242188-.199219.035156-.035157.0625-.070313.089843-.109375.023438-.042969.054688-.109375.023438-.1875-.015625-.035156-.03125-.140625-.0625-.238282-.015625-.050781-.035157-.105468-.078125-.15625-.039063-.050781-.121094-.09375-.199219-.09375-.042969 0-.101563-.015624-.175781-.042968-.070313-.023438-.160156-.054688-.265625-.054688m0 .289063c.042969 0 .097656.019531.171875.042969.066406.023437.152344.046874.25.050781.003906.003906.011718.023437.019531.050781.015625.050781.03125.128906.054687.203125-.007812.007813-.015624.019531-.035156.039063-.046875.050781-.125.113281-.207031.171874-.125.089844-.199219.136719-.253906.171876-.054688-.035157-.132813-.082032-.257813-.171876-.078125-.058593-.15625-.121093-.203125-.171874-.019531-.019532-.027343-.03125-.035156-.039063.023437-.074219.039063-.152344.054687-.203125.007813-.027344.015626-.046875.019532-.050781.097656-.003907.179687-.027344.246094-.050781.074218-.023438.132812-.042969.175781-.042969m1.375 1.484375 1.242187 1.246094c-.230468.019531-.441406.054687-.617187.109374l-.6875-1.191406-.15625.089844c.082031-.078125.15625-.160156.21875-.253906zm-2.734375.023437c.042968.0625.09375.121094.144531.171875l-.058594-.03125-.484375.839844c-.066406-.035156-.132812-.066406-.203125-.09375h-.003906c-.070313-.023438-.144531-.042969-.21875-.0625zm2.503906.238281.667969 1.160157c-.464844.191406-.859375.542969-1.140625.996093h-1.238282c-.199218-.5625-.558593-1.035156-1.019531-1.320312l.464844-.8125c.3125.273438.710937.421875 1.121094.417969.421875.003906.832031-.15625 1.144531-.441407m-4.34375.777344c.429688 0 .875.054688 1.136719.144532.652343.242187 1.171875.902343 1.324219 1.714843v.003907c.082031.382812.128906.734374.167968 1.066406h-1.351562l-.039063-.007813c-.003906-.109375-.03125-.214843-.066406-.3125.113281.121094.269531.1875.4375.1875.335937 0 .609375-.28125.609375-.621093 0-.339844-.273438-.621094-.609375-.621094-.011719 0-.023437 0-.03125 0-.324219.015625-.582031.292968-.582031.621094 0 .050781.007812.101562.019531.148437-.214844-.269531-.539063-.429687-.886719-.425781-.597656 0-1.089844.457031-1.109375 1.03125h-1.59375c.039063-.332032.089844-.683594.167969-1.066406h.003906v-.003907c.152344-.8125.667969-1.476562 1.320313-1.710937l.003906-.003906c.222656-.089844.648437-.144532 1.078125-.144532m6.335938.476563c.460937 0 .9375.054687 1.21875.152343h.003906c.699218.257813 1.253906.96875 1.417968 1.84375.152344.71875.195313 1.332032.277344 1.914063h-.722656l-.902344-.519531c.003906-.019532.007813-.039063.011719-.058594l1.128906.304688.050781-.1875-1.167968-.316407c-.003906-.132812-.039063-.261719-.089844-.378906.117188.140625.296875.234375.492188.234375.355468 0 .644531-.296875.644531-.65625 0-.355469-.289063-.652344-.644531-.652344-.355469 0-.640626.296875-.640626.652344 0 .070312.011719.140625.03125.207031-.210937-.296875-.570312-.492187-.972656-.492187-.632812 0-1.160156.484375-1.175781 1.09375l-1.144531.308594.050781.1875 1.105469-.296876c.003906.019532.007812.042969.011718.0625l-.875.507813h-.96875c.085938-.582031.125-1.195313.277344-1.914063h.003906c.164063-.875.71875-1.585937 1.421876-1.84375.242187-.09375.699218-.152343 1.160156-.152343zm-7.769532.351562c-.195312.007813-.382812.105469-.5.261719l-.089844.117188.230469.175781.089844-.117188c.066406-.085937.171875-.140625.28125-.144531.105469-.003906.207031.035156.285156.109375l.101563.101563.207031-.207032-.105469-.101562c-.132812-.132813-.3125-.203125-.5-.195313zm3.070313 0c-.183594-.007812-.367188.0625-.5.195313l-.101563.101562.203125.207032.105469-.101563c.074219-.074219.175781-.113281.28125-.109375.113281.003906.214844.058594.285156.144531l.085938.117188.234375-.175781-.089844-.117188c-.121094-.15625-.304687-.25-.503906-.261719zm3.203125.550781c-.011719 0-.023438 0-.035156 0-.207032.011719-.402344.109376-.53125.277344l-.085938.113282.230469.179687.085937-.117187c.078125-.09375.191406-.152344.3125-.160157.113282-.003906.226563.039063.308594.117188l.105469.105469.203125-.207032-.101563-.105468c-.132812-.128907-.308593-.199219-.492187-.203126m3.210937 0c-.183593.003907-.359375.074219-.492187.203126l-.101563.105468.203125.207032.105469-.105469c.082031-.078125.191406-.121094.308594-.117188.117187.003907.238281.066407.3125.160157l.085937.117187.230469-.179687-.089844-.113282c-.125-.167968-.320312-.265625-.527343-.277344-.011719 0-.023438 0-.035157 0m-9.484375.175782c-.324218.015625-.578125.292968-.578125.621094 0 .339843.269531.621093.609375.621093.335938 0 .609375-.28125.609375-.621093 0-.339844-.273437-.621094-.609375-.621094-.011718 0-.023437 0-.03125 0zm4.171875.214844h.929688c-.089844.207031-.15625.421874-.195313.644531-.039062.171875-.070312.34375-.097656.515625h-.453125c-.042969-.34375-.089844-.714844-.175781-1.125-.003906-.011719-.003906-.023438-.007813-.035156m-4.296875.035156c.128906 0 .230469.105468.230469.238281 0 .0625-.023437.121094-.066406.167969-.042969.042968-.101563.066406-.164063.066406-.058594 0-.117187-.023438-.160156-.066406-.042969-.046875-.066406-.105469-.066406-.167969 0-.132813.101562-.238281.226562-.238281m3.042969.035156c.125 0 .226563.105469.226563.234375 0 .0625-.023438.125-.066407.167969-.042969.046875-.101562.070312-.160156.070312-.0625 0-.121094-.023437-.164063-.070312-.042968-.042969-.066406-.105469-.066406-.167969s.023438-.121094.066406-.167969c.042969-.042968.101563-.066406.164063-.066406zm3.351563.316406c-.355469 0-.644532.296875-.644532.652344 0 .359375.289063.65625.644532.65625.355468 0 .640624-.296875.640624-.65625 0-.355469-.285156-.652344-.640624-.652344m-4.707032.03125c.449219 0 .804688.332032.820313.742188h-.308594c.007813-.007813.011719-.011719.019531-.023438.019532-.03125.046875-.089844.015625-.164062-.003906-.011719-.015625-.078125-.035156-.148438-.011719-.042968-.035156-.082031-.0625-.117187-.035156-.042969-.101563-.078125-.167969-.078125-.015625 0-.046875-.007813-.09375-.023438s-.105468-.039062-.1875-.039062c-.078125 0-.140625.023437-.1875.039062s-.078125.023438-.09375.023438c-.066406 0-.136718.035156-.171875.078125-.03125.042969-.046875.082031-.058593.117187-.019532.070313-.03125.136719-.035157.148438-.03125.074218 0 .132812.019531.164062.003907.011719.007813.015625.015626.023438h-.308594c.015625-.410156.371094-.742188.820312-.742188zm4.542969.226563c.132813 0 .242187.113281.242187.25 0 .070312-.023437.132812-.070312.179687-.046875.050782-.109375.078125-.171875.078125-.066406 0-.128906-.027343-.175781-.078125-.046875-.046875-.070313-.109375-.070313-.179687 0-.136719.109375-.25.246094-.25m3.265625.03125c.066406 0 .128906.027343.175781.074219.046875.046874.070313.113281.070313.179687 0 .140625-.109375.253906-.246094.253906-.132812 0-.242188-.113281-.242188-.253906 0-.066406.023438-.132813.070313-.179687.046875-.046876.109375-.074219.171875-.074219m-7.808594.179687c.015625 0 .046875.007813.09375.023438.035156.011718.085938.023437.136719.03125h.003906c.003907.019531.015625.066406.023438.101562-.039063.039063-.082031.074219-.125.105469-.027344.019531-.046875.03125-.066407.042969h-.132812c-.023438-.011719-.046875-.027344-.066406-.042969-.050782-.039063-.097656-.078125-.125-.105469.007812-.035156.019531-.082031.023437-.101562h.003907c.050781-.007813.101562-.019532.136718-.03125.046875-.015625.078125-.023438.09375-.023438m6.34375.1875c.496094 0 .886719.375.886719.835938 0 .117187-.023437.226562-.070313.328125l-.003906-.015625-.015625-.117188c-.007812-.0625-.015625-.128906-.027343-.179687l-.285157.070312c.003907.015625.019531.089844.027344.148438.003906.023437.003906.023437.003906.042969-.027343.03125-.054687.0625-.082031.066406-.035156.011718-.078125.007812-.128906-.007813-.0625-.023437-.097656-.054687-.128906-.074219.042968-.027343.09375-.0625.144531-.097656.058593-.046875.121093-.09375.171875-.144531.023437-.023437.046875-.046875.066406-.082031s.046875-.09375.019531-.167969c-.007812-.015625-.019531-.082031-.042969-.15625-.007812-.039063-.023437-.082031-.058593-.125-.035157-.042969-.105469-.082031-.171875-.082031-.023438 0-.054688-.007813-.105469-.023438s-.113281-.042968-.199219-.042968c-.082031 0-.144531.027343-.195312.042968-.050782.015625-.085938.023438-.105469.023438-.066406 0-.136719.039062-.171875.082031s-.050781.085937-.0625.125c-.023438.074219-.035156.140625-.039062.15625-.03125.074219-.003907.132813.019531.167969.019531.035156.042969.058594.066406.082031.050781.050781.109375.097656.171875.144531.050781.035156.097656.066406.140625.097656-.027344.019532-.066406.050782-.132813.074219-.046874.015625-.089843.019531-.128906.007813-.023437-.003906-.054687-.035156-.082031-.066406.003906-.019532.003906-.019532.007813-.042969.007812-.058594.019531-.132813.023437-.148438l-.285156-.070312c-.011719.050781-.019531.117187-.027344.179687-.011719.0625-.015625.117188-.015625.117188v.007812c-.046875-.101562-.070312-.210937-.070312-.320312 0-.460938.390624-.835938.886718-.835938zm0 .46875c.019532 0 .054688.007813.105469.023438s.101563.027344.152344.03125v.011718c.007812.023438.019531.070313.03125.113282 0 .003906 0 0-.003907.003906-.03125.03125-.082031.074219-.136718.113281-.070313.050781-.105469.070313-.148438.097657-.039062-.027344-.074218-.046876-.144531-.097657-.054687-.039062-.109375-.082031-.136719-.113281-.003906-.003906-.003906-.003906-.003906-.003906.007812-.042969.019531-.089844.027344-.113282.003906-.007812 0-.007812.003906-.011718.050781-.003906.101562-.015625.152344-.03125.046875-.015625.082031-.023438.101562-.023438zm1.097656.777344.570313.328125h-.78125c.089844-.097656.160156-.207031.210937-.328125m-2.1875.011719c.050782.113281.121094.222656.207032.316406h-.757813zm1.089844.078125c.066406.046875.136719.082031.214844.109375.082031.027343.183594.046875.289062.019531.0625-.015625.125-.050781.183594-.097656-.078125.085937-.171875.15625-.277344.207031h-.816406c-.097656-.046875-.1875-.113281-.261718-.191406.050781.039062.105468.066406.160156.082031.109375.027344.210937.007812.292968-.019531.074219-.027344.148438-.0625.214844-.109375zm-7.144531 1.207031v.386719h4.660156v-.386719zm2.714844.96875v.386719h3.839843v-.386719zm0 0"/></svg>