<svg height="18" viewBox="0 0 18 18" width="18" xmlns="http://www.w3.org/2000/svg" xmlns:xlink="http://www.w3.org/1999/xlink"><defs><filter id="a" height="100%" width="100%" x="0%" y="0%"><feColorMatrix color-interpolation-filters="sRGB" values="0 0 0 0 1 0 0 0 0 1 0 0 0 0 1 0 0 0 -1 1"/></filter><filter id="b" height="100%" width="100%" x="0%" y="0%"><feImage height="21.6" result="source" width="21.6" xlink:href="#u"/><feImage height="21.6" result="destination" width="21.6" xlink:href="#v"/><feBlend color-interpolation-filters="sRGB" in="source" in2="destination" mode="multiply"/></filter><filter id="c" height="100%" width="100%" x="0%" y="0%"><feImage height="21.6" result="source" width="21.6" xlink:href="#w"/><feImage height="21.6" result="destination" width="21.6" xlink:href="#x"/><feComposite color-interpolation-filters="sRGB" in="source" in2="destination" k1="0" k2="1" k3="1" k4="0" operator="arithmetic"/></filter><filter id="d" height="100%" width="100%" x="0%" y="0%"><feImage height="21.6" result="source" width="21.6" xlink:href="#z"/><feImage height="21.6" result="destination" width="21.6" xlink:href="#A"/><feBlend color-interpolation-filters="sRGB" in="source" in2="destination" mode="multiply"/></filter><filter id="e" height="100%" width="100%" x="0%" y="0%"><feImage height="21.6" result="source" width="21.6" xlink:href="#B"/><feImage height="21.6" result="destination" width="21.6" xlink:href="#C"/><feComposite color-interpolation-filters="sRGB" in="source" in2="destination" k1="0" k2="1" k3="1" k4="0" operator="arithmetic"/></filter><filter id="f" height="100%" width="100%" x="0%" y="0%"><feImage height="21.6" result="source" width="21.6" xlink:href="#E"/><feImage height="21.6" result="destination" width="21.6" xlink:href="#F"/><feBlend color-interpolation-filters="sRGB" in="source" in2="destination" mode="multiply"/></filter><filter id="g" height="100%" width="100%" x="0%" y="0%"><feImage height="21.6" result="source" width="21.6" xlink:href="#G"/><feImage height="21.6" result="destination" width="21.6" xlink:href="#H"/><feComposite color-interpolation-filters="sRGB" in="source" in2="destination" k1="0" k2="1" k3="1" k4="0" operator="arithmetic"/></filter><filter id="h" height="100%" width="100%" x="0%" y="0%"><feImage height="21.6" result="source" width="21.6" xlink:href="#J"/><feImage height="21.6" result="destination" width="21.6" xlink:href="#K"/><feBlend color-interpolation-filters="sRGB" in="source" in2="destination" mode="screen"/></filter><filter id="i" height="100%" width="100%" x="0%" y="0%"><feImage height="21.6" result="source" width="21.6" xlink:href="#L"/><feImage height="21.6" result="destination" width="21.6" xlink:href="#M"/><feComposite color-interpolation-filters="sRGB" in="source" in2="destination" k1="0" k2="1" k3="1" k4="0" operator="arithmetic"/></filter><radialGradient id="j" cx="438.299988" cy="639.01001" gradientTransform="matrix(2.582889 0 0 3.584007 53.289036 90.345782)" gradientUnits="userSpaceOnUse" r="569.940002"><stop offset="0" stop-color="#6877ec"/><stop offset=".6" stop-color="#5362cf"/><stop offset="1" stop-color="#4352b9"/></radialGradient><radialGradient id="k" cx="247.19529117176" cy="25.95826630824" gradientUnits="userSpaceOnUse" r="2141.02350766119"><stop offset="0" stop-color="#00d5ff"/><stop offset=".38" stop-color="#00b8eb"/><stop offset="1" stop-color="#0080c5"/></radialGradient><radialGradient id="l" cx="259.679993" cy="-34.709999" gradientTransform="matrix(2.081569 0 0 2.02825 43.388589 51.453681)" gradientUnits="userSpaceOnUse" r="431.369995"><stop offset="0" stop-color="#fff"/><stop offset="1"/></radialGradient><linearGradient id="m" gradientUnits="userSpaceOnUse" x1="2.835515525" x2="8.90921471499" y1="2.76891944" y2="16.13129577001"><stop offset="0" stop-color="#294ca7"/><stop offset=".48" stop-color="#96a7d4"/><stop offset=".84" stop-color="#e1e6f3"/><stop offset="1" stop-color="#fff"/></linearGradient><linearGradient id="n" gradientUnits="userSpaceOnUse" x1="-6.26963278" x2="14.1222275" y1="-3.578674645" y2="20.30632750499"><stop offset="0" stop-color="#6877ec"/><stop offset=".29" stop-color="#97a1f2"/><stop offset=".77" stop-color="#e2e4fb"/><stop offset="1" stop-color="#fff"/></linearGradient><linearGradient id="o" gradientUnits="userSpaceOnUse" x1="-3.94407142" x2="14.09462757001" y1="-7.82690387" y2="13.668637835"><stop offset="0" stop-color="#8397cc"/><stop offset=".15" stop-color="#97a8d4"/><stop offset=".73" stop-color="#e2e6f3"/><stop offset="1" stop-color="#fff"/></linearGradient><clipPath id="p"><path d="m0 0h18v18h-18z"/></clipPath><clipPath id="q"><path d="m0 0h18v18h-18z"/></clipPath><clipPath id="r"><path d="m0 0h18v18h-18z"/></clipPath><clipPath id="s"><path d="m0 0h18v18h-18z"/></clipPath><g id="t"><path d="m0 0h21.6v21.6h-21.6z" fill="none"/><path d="m0 0h21.6v21.6h-21.6z" fill="#fff"/></g><g id="u" mask="url(#P)"><g clip-path="url(#p)" transform="translate(1.8 1.8)"><path d="m2.28125 14.195312.515625.515626c3.648437-.132813 6.941406-1.667969 9.359375-4.085938l-.367188-.367188c-2.519531 2.523438-5.941406 3.941407-9.507812 3.9375m0 0" fill="url(#m)"/></g></g><g id="v" transform="translate(1.8 1.8)"><path d="m5.636719 17.550781c3.316406-.664062 6.359375-2.296875 8.75-4.691406l-12.105469-12.109375v13.445312zm0 0" fill="url(#j)"/><path d="m2.28125 14.195312c7.425781 0 13.445312-6.019531 13.445312-13.445312h-13.445312zm0 0" fill="url(#k)"/></g><g id="w" filter="url(#b)" mask="url(#N)"><path d="m0 0h21.6v21.6h-21.6z"/></g><g id="x" mask="url(#O)"><use xlink:href="#v"/></g><g id="y"><path d="m0 0h21.6v21.6h-21.6z" fill="none"/><path d="m0 0h21.6v21.6h-21.6z" fill="#fff"/></g><g id="z" mask="url(#S)"><g clip-path="url(#q)" transform="translate(1.8 1.8)"><path d="m5.636719 17.550781c3.316406-.664062 6.359375-2.296875 8.75-4.691406l-12.105469-12.109375v13.445312zm0 0" fill="url(#n)"/></g></g><g id="A" transform="translate(1.8 1.8)"><g filter="url(#c)" transform="translate(-1.8 -1.8)"><path d="m0 0h21.6v21.6h-21.6z"/></g></g><g id="B" filter="url(#d)" mask="url(#Q)"><path d="m0 0h21.6v21.6h-21.6z"/></g><g id="C" mask="url(#R)"><use xlink:href="#A"/></g><g id="D"><path d="m0 0h21.6v21.6h-21.6z" fill="none"/><path d="m0 0h21.6v21.6h-21.6z" fill="#fff"/></g><g id="E" mask="url(#V)"><g clip-path="url(#r)" transform="translate(1.8 1.8)"><path d="m14.386719 12.859375-12.105469-12.109375 11.003906 13.113281c.382813-.320312.75-.65625 1.101563-1.003906m0 0" fill="url(#o)"/></g></g><g id="F" transform="translate(1.8 1.8)"><g filter="url(#e)" transform="translate(-1.8 -1.8)"><path d="m0 0h21.6v21.6h-21.6z"/></g></g><g id="G" filter="url(#f)" mask="url(#T)"><path d="m0 0h21.6v21.6h-21.6z"/></g><g id="H" mask="url(#U)"><use xlink:href="#F"/></g><g id="I"><path d="m0 0h21.6v21.6h-21.6z" fill="none"/><path d="m0 0h21.6v21.6h-21.6z" fill="#fff"/></g><g id="J" mask="url(#Y)"><g clip-path="url(#s)" transform="translate(1.8 1.8)"><path d="m2.28125.75 9.507812 9.507812c.082032-.085937.167969-.171874.25-.257812zm0 0" fill="url(#l)"/></g></g><g id="K" transform="translate(1.8 1.8)"><g filter="url(#g)" transform="translate(-1.8 -1.8)"><path d="m0 0h21.6v21.6h-21.6z"/></g></g><g id="L" filter="url(#h)" mask="url(#W)"><path d="m0 0h21.6v21.6h-21.6z"/></g><g id="M" mask="url(#X)"><use xlink:href="#K"/></g><mask id="N"><use xlink:href="#t"/></mask><mask id="O"><use filter="url(#a)" xlink:href="#t"/></mask><mask id="P"><path d="m0 0h21.6v21.6h-21.6z" fill="#fff"/></mask><mask id="Q"><use xlink:href="#y"/></mask><mask id="R"><use filter="url(#a)" xlink:href="#y"/></mask><mask id="S"><path d="m0 0h21.6v21.6h-21.6z" fill="#fff"/></mask><mask id="T"><use xlink:href="#D"/></mask><mask id="U"><use filter="url(#a)" xlink:href="#D"/></mask><mask id="V"><path d="m0 0h21.6v21.6h-21.6z" fill="#fff"/></mask><mask id="W"><use xlink:href="#I"/></mask><mask id="X"><use filter="url(#a)" xlink:href="#I"/></mask><mask id="Y"><path d="m0 0h21.6v21.6h-21.6z" fill="#fff"/></mask></defs><g filter="url(#i)" transform="translate(-1.8 -1.8)"><path d="m0 0h21.6v21.6h-21.6z"/></g></svg>