<svg height="18" viewBox="0 0 18 18" width="18" xmlns="http://www.w3.org/2000/svg"><g fill="none" stroke="#fff" stroke-linecap="round" stroke-linejoin="round" stroke-width="2" transform="scale(.75)"><path d="m22 14c0 4.416667-3.583333 8-8 8m4-11v-1c0-1.104167-.895833-2-2-2s-2 .895833-2 2m0 0v-1c0-1.104167-.895833-2-2-2s-2 .895833-2 2v1m0-.5v-5.5c0-1.104167-.895833-2-2-2s-2 .895833-2 2v10"/><path d="m18 11c0-1.104167.895833-2 2-2s2 .895833 2 2v3c0 4.416667-3.583333 8-8 8h-2c-2.802083 0-4.5-.859375-5.989583-2.338542l-3.598959-3.598958c-.713541-.791667-.682291-2.005208.072917-2.760417.755208-.75 1.96875-.78125 2.755208-.0625l1.760417 1.760417"/></g></svg>