<svg height="18" viewBox="0 0 18 18" width="18" xmlns="http://www.w3.org/2000/svg"><path d="m9 0c4.972656 0 9 4.027344 9 9s-4.027344 9-9 9-9-4.027344-9-9 4.027344-9 9-9m0 0" fill="#fff"/><path d="m12.078125 6.925781c-.238281-.128906-.523437-.128906-.761719 0l-1.714844 1.015625-1.203124.664063-1.714844 1.019531c-.238282.125-.523438.125-.761719 0l-1.367187-.796875c-.226563-.128906-.371094-.371094-.378907-.632813v-1.585937c-.007812-.269531.140625-.515625.378907-.636719l1.367187-.761718c.238281-.128907.523437-.128907.761719 0l1.363281.761718c.230469.132813.375.371094.382813.636719v1.011719l1.171874-.695313v-.984375c.003907-.265625-.140624-.511718-.375-.636718l-2.511718-1.460938c-.238282-.125-.523438-.125-.761719 0l-2.539063 1.460938c-.261718.101562-.429687.359374-.414062.636718v2.953125c-.003906.265625.144531.507813.382812.628907l2.539063 1.464843c.238281.128907.523437.128907.761719 0l1.714844-.984375 1.175781-.699218 1.710937-.980469c.238282-.125.523438-.125.761719 0l1.367187.761719c.226563.132812.371094.371093.378907.636718v1.554688c.003906.269531-.140625.515625-.378907.636718l-1.367187.792969c-.238281.125-.523437.125-.761719 0l-1.363281-.761719c-.230469-.132812-.375-.371093-.382813-.636718v-1.019532l-1.140624.667969v1.015625c-.003907.265625.144531.511719.382812.632813l2.539062 1.460937c.238282.128906.523438.128906.761719 0l2.539063-1.460937c.226562-.132813.371094-.371094.378906-.632813v-2.953125c.003906-.269531-.144531-.515625-.382812-.636719zm0 0" fill="#7950dd"/></svg>