<svg height="18" viewBox="0 0 18 18" width="18" xmlns="http://www.w3.org/2000/svg"><path d="m9 0c-4.972656 0-9 4.027344-9 9s4.027344 9 9 9 9-4.027344 9-9-4.027344-9-9-9m-2.800781 3.761719c.175781-.03125.359375 0 .515625.082031l2.511718 1.460938c.234376.125.378907.371093.375.636718v.984375l-1.171874.695313v-1.011719c-.007813-.265625-.152344-.503906-.382813-.636719l-1.363281-.761718c-.238282-.128907-.523438-.128907-.761719 0l-1.367187.761718c-.238282.121094-.386719.367188-.378907.636719v1.582031c.007813.265625.152344.507813.378907.636719l1.367187.796875c.238281.125.523437.125.761719 0l1.714844-1.019531 1.203124-.664063 1.714844-1.015625c.238282-.128906.523438-.128906.761719 0l2.539063 1.457031c.238281.121094.386718.367188.382812.636719v2.953125c-.007812.261719-.152344.5-.378906.632813l-2.539063 1.460937c-.238281.128906-.523437.128906-.761719 0l-2.539062-1.460937c-.238281-.121094-.386719-.367188-.382812-.632813v-1.015625l1.140624-.667969v1.019532c.007813.265625.152344.503906.382813.636718l1.363281.761719c.238282.125.523438.125.761719 0l1.367187-.792969c.238282-.121093.382813-.367187.378907-.636718v-1.554688c-.007813-.265625-.152344-.503906-.378907-.636718l-1.367187-.761719c-.238281-.125-.523437-.125-.761719 0l-1.710937.980469-1.175781.699218-1.714844.984375c-.238282.128907-.523438.128907-.761719 0l-2.539063-1.464843c-.238281-.121094-.386718-.363282-.382812-.628907v-2.953125c-.015625-.277344.152344-.535156.414062-.636718l2.539063-1.460938c.078125-.039062.160156-.070312.246094-.082031"/></svg>