<svg height="18" viewBox="0 0 18 18" width="18" xmlns="http://www.w3.org/2000/svg"><path d="m17.332031 10.796875c-.0625-.410156-.40625-.679687-.808593-.695313-.144532-.007812-.292969.007813-.4375.027344-.171876.019532-.347657.058594-.519532.085938-.121094.019531-.242187.027344-.363281.039062l-.003906-.015625c.226562-.425781.457031-.84375.671875-1.273437.164062-.332032.300781-.671875.445312-1.011719.238282-.5625.429688-1.144531.585938-1.730469.152344-.566406.28125-1.136718.324218-1.722656.015626-.230469.027344-.46875.023438-.699219 0-.1875-.019531-.375-.039062-.5625-.019532-.210937-.085938-.414062-.175782-.609375-.117187-.253906-.296875-.464844-.488281-.664062-.15625-.160156-.324219-.308594-.492187-.453125-.238282-.207031-.507813-.371094-.785157-.519531-.316406-.167969-.652343-.296876-.996093-.386719-.210938-.054688-.425782-.09375-.636719-.136719-.078125-.015625-.15625-.046875-.230469-.046875h-1.441406c-.050782 0-.101563.027344-.15625.03125-.34375.039063-.683594.105469-1.015625.207031-.125.039063-.238281.015625-.355469.003906-.089844-.007812-.179688-.03125-.269531-.039062-.34375-.015625-.6875-.039062-1.027344-.035156-.332031 0-.65625.054687-.972656.144531-.269531.078125-.527344.167969-.769531.308594-.101563.0625-.179688.050781-.289063.019531-.355469-.101562-.710937-.199219-1.074219-.28125-.222656-.050781-.453125-.074219-.683594-.097656-.222656-.023438-.441406-.035156-.664062-.042969-.214844-.003906-.433594-.003906-.648438.015625-.34375.03125-.683593.101562-1.007812.214844-.359375.121094-.699219.304687-.996094.542968-.304687.238282-.550781.535157-.746094.871094-.207031.355469-.347656.734375-.4375 1.132813-.046874.214843-.078124.4375-.109374.65625-.011719.070312.101562.136719-.039063.207031v.953125c.140625.066406.027344.128906.039063.191406.019531.15625.035156.308594.0625.460938.039062.242187.089843.480469.136718.71875.070313.335937.140625.667969.21875 1 .054688.242187.117188.484375.183594.722656.101562.363281.203125.730469.316406 1.09375.105469.335937.230469.664063.351563.996094.164062.457031.367187.902343.605469 1.324219.210937.367187.445312.710937.765624.996093.210938.1875.445313.328125.714844.402344.214844.054687.433594.0625.652344.015625.25-.050781.480469-.160156.679688-.324219.019531-.019531.046874-.03125.074218.003907.101563.128906.242188.214843.386719.292968.390625.203125.816406.265625 1.246094.289063.105469.003906.210937-.007813.316406-.011719.207031-.007812.40625-.046875.601563-.101562.105468-.03125.203124-.070313.308593-.105469.007813.113281.011719.21875.015625.328125l.015625.585937c.003907.089844.003907.179688.015625.265625.019532.230469.039063.457032.066406.6875.019532.15625.039063.316406.078126.46875.074218.308594.175781.613282.300781.902344.125.285156.3125.535156.550781.730469.3125.257812.675781.367187 1.074219.386719.160156.011718.328125.003906.492187-.027344.253906-.042969.507813-.105469.757813-.179688.503906-.152344.941406-.414062 1.265625-.839844.1875-.242187.339844-.503906.4375-.792968.078125-.242188.15625-.480469.214844-.726563.046874-.195312.074218-.390625.101562-.589843.019531-.128907.03125-.261719.042969-.394532.019531-.210937.039062-.425781.054687-.640625.007813-.148437.007813-.296875.015625-.445312 0-.046875.007813-.089844.011719-.136719.003906-.042969.027344-.054688.066406-.054688.152344.003907.304688.007813.453125 0 .167969-.007812.339844-.015624.503907-.042968.238281-.039063.46875-.089844.703124-.152344.273438-.070312.523438-.199219.765626-.34375.28125-.167969.535156-.367188.742187-.625.183594-.222656.265625-.480469.222656-.765625m-.480469.140625c-.007812.128906-.066406.238281-.152343.332031-.402344.445313-.910157.714844-1.488281.847657-.21875.050781-.445313.074218-.671876.097656-.191406.015625-.386718.019531-.578124.011718-.140626-.003906-.28125-.035156-.425782-.058593-.015625.132812-.027344.269531-.046875.410156l-.066406.523437c-.019531.167969-.035156.335938-.058594.503907-.019531.160156-.042969.320312-.066406.484375-.019531.148437-.035156.300781-.058594.453125-.03125.230469-.066406.460937-.109375.6875-.054687.277343-.136718.539062-.273437.785156-.164063.304687-.398438.53125-.695313.703125-.308594.175781-.640625.265625-.980468.339844-.242188.054687-.488282.066406-.734376.042968-.421874-.039062-.78125-.21875-1.054687-.546874-.261719-.3125-.4375-.671876-.5-1.078126-.027344-.191406-.050781-.386718-.066406-.578124-.019531-.21875-.035157-.433594-.042969-.652344-.011719-.273438-.023438-.550782-.027344-.824219-.007812-.339844-.011718-.675781-.015625-1.015625v-.011719c-.171875.101563-.34375.214844-.523437.308594-.207032.109375-.4375.171875-.671875.191406-.1875.011719-.375.027344-.558594.011719-.300781-.027344-.605469-.074219-.875-.222656-.109375-.058594-.226563-.132813-.300781-.230469-.179688-.230469-.09375-.523437.179687-.664063.1875-.097656.394531-.136718.597657-.183593.179687-.042969.355468-.089844.53125-.148438.171874-.054687.28125-.195312.386718-.332031l.167969-.214844c-.070313-.007812-.136719-.015625-.203125-.023437-.203125-.019531-.394531-.074219-.578125-.15625-.160156-.070313-.160156-.078125-.277344.046875-.195312.210937-.382812.425781-.570312.640625-.140625.15625-.28125.316406-.417969.472656s-.265625.320313-.414062.464844c-.21875.214843-.484376.34375-.800782.332031-.203125-.011719-.390625-.082031-.558594-.199219-.34375-.238281-.574218-.574219-.785156-.929687-.273437-.449219-.480468-.933594-.660156-1.425782-.121094-.34375-.246094-.683593-.351562-1.03125-.117188-.378906-.222657-.761718-.320313-1.140624-.078125-.289063-.144531-.578126-.210937-.871094-.074219-.328125-.140626-.660156-.203126-.996094-.042968-.222656-.066406-.453125-.101562-.679688-.046875-.304687-.054688-.613281-.039062-.917968.015624-.277344.054687-.550782.09375-.824219.054687-.378906.179687-.738281.359374-1.078125.113282-.207031.25-.394531.40625-.570312.257813-.285157.574219-.492188.921876-.648438.246093-.109375.503906-.175781.765624-.226562.390626-.074219.785157-.074219 1.179688-.066407.171875.003907.339844.035157.511719.054688.371093.035156.734375.113281 1.09375.210937.261719.070313.515625.160156.777343.238282.023438.007812.0625.007812.082032-.007813.351562-.226563.734375-.378906 1.144531-.464844.15625-.035156.3125-.046875.472656-.058593.191407-.011719.386719-.023438.578125-.011719.230469.011719.460938.046875.691406.078125.109376.015625.21875.054687.332032.066406.050781.003906.109375-.035156.164062-.046875.289063-.066406.578125-.140625.867188-.195313.214844-.039062.4375-.058593.65625-.070312.246094-.011719.492187-.023438.738281-.011719.3125.015625.621094.058594.921875.128907.378906.089843.738281.214843 1.082031.390624.257813.132813.5.285157.71875.476563.144531.121094.292969.242187.421875.382813.160156.167968.324219.335937.425782.554687.074218.164063.128906.332031.144531.511719.015625.222656.039062.449218.039062.671875-.003906.214843-.03125.425781-.054687.640625-.046875.484375-.152344.960937-.28125 1.429687-.105469.386719-.226563.769531-.363282 1.148438-.121093.347656-.265624.691406-.410156 1.03125-.105468.253906-.21875.503906-.34375.746093-.238281.460938-.480468.921876-.765625 1.355469-.050781.074219-.09375.152344-.144531.230469.125.082031.265625.113281.40625.125.132812.015625.269531.023438.40625.015625.214844-.015625.429688-.046875.640625-.078125.210937-.027344.417969-.089844.636719-.074219s.371094.183594.355468.386719m-3.09375-.472656c-.09375-.121094-.1875-.238282-.277343-.355469-.140625-.191406-.242188-.402344-.34375-.613281-.097657-.203125-.214844-.390625-.316407-.589844-.179687-.347656-.359374-.691406-.523437-1.046875-.207031-.445313-.371094-.902344-.421875-1.394531-.019531-.207032-.027344-.417969.015625-.621094.066406-.332031.238281-.589844.527344-.765625.269531-.164063.570312-.214844.875-.234375.191406-.007812.378906 0 .578125 0l-.007813-.035156c-.121093-.253906-.234375-.515625-.371093-.765625-.1875-.351563-.429688-.671875-.699219-.96875-.199219-.21875-.417969-.417969-.65625-.597657-.230469-.179687-.476563-.335937-.738281-.464843-.3125-.152344-.640626-.273438-.980469-.347657-.328125-.074218-.660157-.117187-.996094-.121093-.285156-.003907-.570313.007812-.851563.074219-.421874.097656-.808593.273437-1.144531.554687-.1875.152344-.351562.332031-.496093.527344-.167969.230469-.300782.480469-.417969.742187-.160157.359375-.269531.734375-.34375 1.117188-.035157.191406-.066407.386718-.097657.578125-.007812.066406-.007812.136719-.015624.214843.050781-.027343.089843-.050781.128906-.066406l.125-.058594c.417968-.191406.855468-.316406 1.324218-.300781.199219.007813.390626.046875.566407.132813.339843.167968.539062.453125.625.8125.058593.25.101562.503906.140625.753906.03125.199219.0625.398438.066406.597656.003906.292969-.011719.582032-.027344.875-.011718.246094-.0625.492188-.152344.722656-.15625.421876-.332031.835938-.496093 1.253907-.054688.136719-.09375.28125-.144531.433593h.207031c.023437 0 .050781 0 .074219.007813.1875.042969.351562.128906.484374.273437.179688.195313.273438.417969.277344.679688.003906.144531-.011718.289062-.011718.433594.003906.671875.007812 1.34375.015624 2.019531 0 .109375.003907.21875.011719.328125.015625.230469.035157.460938.054688.691406.019531.160156.039062.324219.066406.484375.035156.230469.140625.433594.257813.628907.101562.167968.234374.308593.410156.40625.292968.167968.613281.183593.933594.121093.21875-.042969.433593-.109375.644531-.175781.207031-.066406.394531-.179688.550781-.332031.148438-.144531.253906-.320313.324219-.511719.136719-.375.179687-.765625.238281-1.15625.019531-.148438.039062-.292969.058594-.441406.023437-.167969.042968-.332032.066406-.5.015625-.125.03125-.25.042969-.371094.023437-.179688.046875-.359375.066406-.535156.015625-.140625.03125-.277344.042969-.417969.019531-.175781.039062-.351563.054687-.527344.011719-.136719.007813-.273437.03125-.402343.042969-.242188.15625-.449219.371094-.582032.089844-.054687.191406-.089844.289063-.136718zm-8.101562-.992188c-.105469-.25-.167969-.519531-.1875-.789062-.019531-.257813.011719-.515625.039062-.769532.023438-.246093.046876-.496093.054688-.746093.011719-.40625-.015625-.816407-.035156-1.222657-.011719-.242187.015625-.488281.035156-.734374.019531-.21875.046875-.4375.085938-.65625.070312-.363282.164062-.71875.292968-1.066407.125-.328125.269532-.648437.472656-.9375.136719-.199219.296876-.382812.445313-.574219l-.042969-.015624c-.492187-.15625-.992187-.28125-1.507812-.332032-.242188-.027344-.484375-.042968-.730469-.054687-.074219-.003907-.148437.003906-.226563.011719-.183593.019531-.371093.023437-.554687.058593-.3125.058594-.609375.160157-.886719.320313-.25.148437-.457031.335937-.632812.5625-.191406.246094-.324219.53125-.414063.828125-.113281.355469-.164062.722656-.179687 1.089843-.011719.324219-.015625.648438.039062.96875.039063.238282.070313.480469.113282.71875.0625.324219.128906.648438.207031.972657.109375.460937.222656.921875.351562 1.375.125.4375.265625.867187.417969 1.292969.125.347656.269531.691406.425781 1.027343.097657.21875.21875.433594.34375.636719.132813.21875.285157.425781.492188.585938.261719.199218.464843.230468.730469.011718.113281-.09375.207031-.210937.308593-.320312.15625-.175782.308594-.359375.464844-.535156.199219-.222657.398437-.445313.601563-.667969.039062-.046875.082031-.097657.121093-.144531l-.066406-.058594c-.246094-.238282-.445313-.519532-.578125-.835938m7.550781-6.6875c.164063.1875.320313.386719.464844.589844.28125.394531.507813.820312.671875 1.277344.074219.199218.132812.402344.105469.625-.015625.152344-.015625.308594-.027344.464844-.011719.128906-.035156.257812-.050781.386718-.023438.191406-.0625.386719-.070313.582032-.011719.183593 0 .371093.011719.554687.011719.191406.035156.378906.054688.566406.019531.214844.042968.425781.050781.640625.003906.175782-.011719.351563-.027344.527344-.015625.210938-.070313.417969-.148437.613281-.058594.136719-.125.269531-.1875.410157l.023437.027343.039063.027344.039062-.066406c.328125-.519531.621094-1.058594.875-1.617188.164062-.363281.316406-.726562.460938-1.09375.230468-.570312.410156-1.160156.550781-1.757812.0625-.269531.109375-.542969.152343-.816407.035157-.210937.0625-.429687.066407-.644531.007812-.226562-.003907-.457031-.027344-.6875-.015625-.171875-.054687-.34375-.164063-.484375-.171874-.222656-.359374-.441406-.589843-.609375-.195313-.144531-.386719-.292969-.597657-.414062-.328124-.191407-.683593-.316407-1.058593-.402344-.363281-.085937-.730469-.121094-1.101563-.128906-.21875-.007813-.441406.015625-.660156.039062-.195312.015625-.394531.050781-.59375.074219.214844.121094.425781.226562.625.355469.417969.261719.792969.582031 1.113281.960937m-5.429687 7.414063c.132812-.433594.316406-.847657.496094-1.261719.144531-.335938.222656-.691406.25-1.054688.011718-.179687.011718-.363281 0-.542968-.007813-.199219-.027344-.398438-.054688-.597656-.035156-.253907-.078125-.507813-.140625-.757813-.0625-.265625-.226563-.453125-.507813-.523437-.171874-.042969-.339843-.039063-.515624-.011719-.421876.066406-.808594.21875-1.167969.449219-.070313.046874-.113281.082031-.097657.1875.023438.21875.03125.441406.03125.664062-.003906.316406-.015624.628906-.027343.941406-.003907.105469-.019531.207032-.03125.308594-.015625.15625-.046875.3125-.046875.46875 0 .160156.015625.324219.054687.480469.125.492187.386719.894531.816407 1.179687.265624.175782.558593.265625.878906.28125.019531-.074218.039062-.144531.0625-.210937m-.503906-4.234375c-.058594-.117188-.027344-.214844.105468-.261719.03125-.011719.066406-.023437.097656-.027344.046876-.003906.09375 0 .136719 0 .167969 0 .328125.023438.464844.128907.089844.070312.113281.160156.054687.25-.082031.132812-.203124.199218-.355468.210937-.238282.019531-.40625-.089844-.503906-.300781m6.613281-.042969c.019531-.15625.035156-.316406.054687-.472656.007813-.0625-.027344-.082031-.078125-.082031-.167969-.003907-.335937-.011719-.503906-.015626-.1875-.003906-.371094.027344-.546875.101563-.195312.078125-.34375.207031-.402344.417969-.046875.15625-.058594.316406-.042968.480468.023437.246094.082031.492188.167968.726563.117188.3125.242188.625.386719.921875.199219.40625.425781.800781.636719 1.199219.054687.105469.101562.214843.160156.339843.121094-.246093.183594-.515624.191406-.789062.003906-.226562-.011718-.453125-.027344-.679688-.007812-.140624-.027343-.277343-.039062-.417968-.019531-.191406-.046875-.382813-.050781-.578125-.007813-.195313.007812-.394531.023437-.589844.015625-.1875.046875-.375.070313-.5625m-.378907-.152344c-.0625.171875-.195312.269531-.367187.300781-.160156.023438-.300781-.035156-.40625-.164062-.074219-.089844-.046875-.199219.066406-.261719.128907-.070312.269531-.089843.433594-.097656.046875.007813.117187.015625.179687.03125.09375.027344.128907.097656.09375.191406m-4.980468 5.296875c-.089844-.074218-.214844-.078125-.300782.003906-.109374.101563-.203124.21875-.300781.335938-.109375.132812-.214843.273438-.355469.375-.207031.152344-.449218.214844-.691406.273438-.195312.046874-.386718.089843-.582031.136718v.023438c.054687.027344.113281.058594.171875.078125.292969.09375.59375.140625.90625.113281.226562-.019531.441406-.066406.644531-.164062.28125-.132813.496094-.34375.679688-.585938.027343-.042969.042969-.101562.046875-.15625.011718-.183594-.082032-.320312-.21875-.433594m7.277344.074219c-.238282.027344-.476563.050781-.714844.066406-.113282.007813-.230469-.015625-.347656-.023437-.195313-.015625-.382813-.0625-.546876-.164063-.097656-.0625-.175781-.066406-.277343-.035156-.144531.050781-.261719.125-.296875.28125-.023438.105469-.03125.214844-.042969.324219 0 .019531.023437.054687.039063.058594.113281.03125.226562.0625.339843.074218.140625.011719.28125.007813.421875 0 .152344-.003906.308594-.015625.457032-.039062.355468-.0625.695312-.15625 1-.359375.109374-.070313.21875-.144531.328124-.21875l-.011718-.015625c-.113282.015625-.230469.039062-.347656.050781" fill="#336791" fill-rule="evenodd"/></svg>