<svg height="18" viewBox="0 0 18 18" width="18" xmlns="http://www.w3.org/2000/svg"><path d="m15.90625 3.664062c-2.945312-3.8125-8.425781-4.519531-12.242188-1.570312-3.8125 2.945312-4.515624 8.425781-1.570312 12.242188 2.945312 3.8125 8.429688 4.515624 12.242188 1.570312 3.8125-2.949219 4.515624-8.425781 1.570312-12.242188m0 0" fill="#f37036"/><path d="m12.808594 3.398438c-.300782.023437-.585938.144531-.8125.339843-.554688.480469-.648438 1.300781-.21875 1.894531.429687.59375 1.242187.757813 1.867187.382813l.023438.019531c.097656-.054687.191406-.125.277343-.203125.535157-.570312.527344-1.460937-.023437-2.019531l-1.242187 1.234375-.023438-.019531 1.242188-1.238282c-.289063-.28125-.6875-.421874-1.089844-.390624zm-1.636719 2.023437c-.597656 0-1.570313.675781-3.949219 3.050781l.011719.011719c-.011719-.003906-.023437-.003906-.023437-.003906l-.898438.886719c-.046875.046874-.058594.117187-.027344.171874.03125.058594.097656.089844.160156.078126l1.535157-.328126c.007812-.007812.011719-.015624.011719-.023437l.035156.035156-.523438.515625h-.027344l-3.105468 3.132813.996094.957031c.058593.054688.144531.0625.210937.023438.066406-.039063.101563-.117188.089844-.191407l-.144531-.632812c-.019532-.027344-.019532-.0625 0-.085938 1.359374-.648437 2.625-1.480469 3.757812-2.472656l-.636719-.640625h.011719l-.378906-.378906.023437-.023438.027344.023438-.011719.015625 1 1.023437c1.925782-1.820312 3.289063-3.285156 2.9375-4.269531-.019531-.117187-.074218-.226563-.15625-.3125-.023437-.015625-.046875-.027344-.070312-.042969-.011719-.011718-.019532-.023437-.03125-.035156l-.011719.007812c-.027344-.015624-.054687-.027343-.082031-.039062l.042968-.042969c-.253906-.222656-.460937-.410156-.773437-.410156zm-6.820313 7.546875-.726562.726562c-.054688.03125-.082031.097657-.066406.15625.015625.0625.066406.105469.128906.113282l1.785156.121094zm0 0" fill="#fff"/><path d="m12.929688 3.277344c-.40625 0-.800782.160156-1.089844.445312-.421875.433594-.554688 1.074219-.335938 1.636719-.667968-.285156-1.570312.214844-4.375 3.019531 0 .003906-.003906.007813-.003906.011719-.007812.003906-.011719.007813-.019531.007813l-.886719.898437c-.085938.082031-.105469.214844-.050781.324219.050781.085937.140625.136718.242187.140625l.042969-.03125 1.183594-.25-.566407.570312c-.003906.007813-.003906.015625-.007812.023438l-2.777344 2.785156c-.011718.007813-.019531.019531-.027344.03125l-.714843.71875c-.070313.074219-.09375.1875-.058594.285156.039063.097657.128906.167969.234375.179688l1.773438.121093c.03125-.007812.054687-.03125.074218-.058593.03125-.042969.03125-.101563 0-.144531l-.003906-.003907c.039062-.019531.070312-.046875.097656-.082031.058594-.074219.078125-.171875.058594-.261719l-.140625-.589843c1.328125-.632813 2.574219-1.429688 3.707031-2.371094.007813.007812.019532.011718.03125.015625.039063-.003907.070313-.019531.097656-.042969 1.902344-1.804688 3.023438-3.042969 3.023438-4.023438.003906-.136718-.015625-.273437-.058594-.402343.171875.074219.355469.113281.539063.117187.253906-.007812.503906-.074218.726562-.203125.03125.011719.0625.007813.085938-.007812.109375-.0625.207031-.140625.292969-.230469.292968-.289062.457031-.679688.457031-1.089844s-.164063-.804687-.457031-1.09375c-.003907-.003906-.011719-.007812-.015626-.011718-.289062-.277344-.675781-.433594-1.078124-.433594zm-.011719.25c.285156 0 .558593.097656.785156.269531l-1.132813 1.140625c-.003906.003906-.007812.007812-.011718.015625-.019532.019531-.03125.046875-.035156.074219 0 .039062.019531.070312.046874.09375l.855469.855468c-.480469.210938-1.039062.105469-1.410156-.265624-.363281-.367188-.46875-.917969-.273437-1.394532.195312-.476562.65625-.785156 1.175781-.789062m1 .484375c.1875.222656.289062.503906.289062.796875-.003906.339844-.136719.667968-.378906.90625-.050781.046875-.101563.089844-.15625.128906l-.691406-.683594-.136719-.132812.039062-.039063 1.035157-.980469zm-.050781.585937c-.023438-.007812-.050782-.003906-.078126.007813-.023437.011719-.039062.03125-.050781.058593-.007812.027344-.003906.054688.007813.078126.050781.105468.039062.234374-.035156.328124-.019532.015626-.027344.042969-.027344.066407 0 .027343.007812.050781.027344.070312.019531.007813.039062.007813.058593 0 .035157.007813.070313-.003906.09375-.027343.121094-.152344.148438-.359376.066407-.53125-.015626-.023438-.035157-.039063-.0625-.050782m-2.710938.945313c.171875.007812.332031.066406.464844.175781-.140625.019531-.273438.085938-.375.1875l-3.207032 3.191406-.628906-.628906c1.664063-1.65625 2.679688-2.519531 3.3125-2.804688.128906-.082031.28125-.121093.433594-.121093zm.558594.417969c.109375 0 .210937.042968.289062.117187.082032.078125.125.1875.121094.300781-.003906.109375-.054688.214844-.136719.289063l-3.410156 2.96875-.367187-.367188 3.214843-3.191406c.078125-.074219.179688-.117187.289063-.117187zm.421875.941406c-.238281.941406-1.5 2.21875-2.8125 3.460937l-.53125-.53125zm-4.914063 1.753906.039063.035156.496093.496094-1.355468.289062zm.816406.820312.164063.167969.003906.011719.007813.003906.152344.152344-.757813.09375zm.542969.574219.503907.5c-1.113282.925781-2.335938 1.714844-3.636719 2.34375-.085938.042969-.132813.140625-.109375.234375l.144531.632813c.011719.011719.011719.035156 0 .050781-.015625.011719-.039063.011719-.058594 0l-.855469-.867188 2.644532-2.683593zm-4.210937 3.085938.125.113281.628906.632812-1.40625-.09375.652344-.65625zm0 0" fill="#f37036"/></svg>