<svg height="18" viewBox="0 0 18 18" width="18" xmlns="http://www.w3.org/2000/svg"><path d="m8.859375.273438c-1.820313.027343-3.644531.621093-5.195313 1.820312-3.8125 2.945312-4.515624 8.425781-1.570312 12.242188 2.945312 3.8125 8.429688 4.515624 12.242188 1.570312s4.515624-8.425781 1.570312-12.242188c-1.75-2.261718-4.390625-3.433593-7.046875-3.390624m4.058594 3.253906c.285156 0 .558593.097656.785156.269531l-1.132813 1.140625c-.003906.003906-.007812.007812-.011718.015625-.019532.019531-.03125.046875-.035156.074219 0 .039062.019531.070312.046874.09375l.855469.855468c-.480469.210938-1.039062.105469-1.410156-.265624-.363281-.367188-.46875-.917969-.273437-1.394532.195312-.476562.65625-.785156 1.175781-.789062m1 .484375c.1875.222656.289062.503906.289062.796875-.003906.339844-.136719.667968-.378906.90625-.050781.046875-.101563.089844-.15625.128906l-.691406-.683594-.136719-.132812.039062-.039063 1.035157-.980469zm-.050781.585937c-.023438-.007812-.050782-.003906-.078126.007813-.023437.011719-.039062.03125-.050781.058593-.007812.027344-.003906.054688.007813.078126.050781.105468.039062.234374-.035156.328124-.019532.015626-.027344.042969-.027344.066407 0 .027343.007812.050781.027344.070312.019531.007813.039062.007813.058593 0 .035157.007813.070313-.003906.09375-.027343.121094-.152344.148438-.359376.066407-.53125-.015626-.023438-.035157-.039063-.0625-.050782m-2.710938.945313c.171875.007812.332031.066406.464844.175781-.140625.019531-.273438.085938-.375.1875l-3.207032 3.191406-.628906-.628906c1.664063-1.65625 2.679688-2.519531 3.3125-2.804688.128906-.082031.28125-.121093.433594-.121093zm.558594.417969c.109375 0 .210937.042968.289062.117187.082032.078125.125.1875.121094.300781-.003906.109375-.054688.214844-.136719.289063l-3.410156 2.96875-.367187-.367188 3.214843-3.191406c.078125-.074219.179688-.117187.289063-.117187zm.421875.941406c-.238281.941406-1.5 2.21875-2.8125 3.460937l-.53125-.53125zm-4.914063 1.753906.039063.035156.496093.496094-1.355468.289062zm.816406.820312.164063.167969.003906.011719.007813.003906.152344.152344-.757813.09375zm.542969.574219.503907.5c-1.113282.925781-2.335938 1.714844-3.636719 2.34375-.085938.042969-.132813.140625-.109375.234375l.144531.632813c.011719.011719.011719.035156 0 .050781-.015625.011719-.039063.011719-.058594 0l-.855469-.867188 2.644532-2.683593zm-4.210937 3.085938.125.113281.628906.632812-1.40625-.09375.652344-.65625zm0 0" fill="#f37036"/></svg>