<svg height="18" viewBox="0 0 18 18" width="18" xmlns="http://www.w3.org/2000/svg"><path d="m17.566406 2.722656c-.136718-.167968-.339844-.261718-.578125-.261718h-13.023437c-.476563 0-.9375.371093-1.046875.847656l-2.613281 11.320312c-.054688.238282-.007813.476563.128906.648438.136718.167968.339844.261718.578125.261718h13.023437c.476563 0 .9375-.371093 1.046875-.847656l2.613281-11.320312c.054688-.238282.007813-.476563-.128906-.648438m-13.863281 10.851563c-.246094-.335938-.1875-.796875.128906-1.027344l5.257813-3.808594v-.078125l-3.300782-3.511718c-.269531-.289063-.242187-.75.0625-1.035157.300782-.285156.765626-.285156 1.035157 0l3.964843 4.21875c.226563.238281.242188.601563.0625.878907-.050781.109374-.164062.230468-.363281.367187l-5.828125 4.1875c-.320312.230469-.777344.144531-1.019531-.191406m8.371094.074219h-3.140625c-.363282 0-.660156-.292969-.660156-.652344s.296874-.652344.660156-.652344h3.140625c.367187 0 .660156.292969.660156.652344s-.292969.652344-.660156.652344" fill-rule="evenodd"/></svg>