<svg height="18" viewBox="0 0 18 18" width="18" xmlns="http://www.w3.org/2000/svg" xmlns:xlink="http://www.w3.org/1999/xlink"><filter id="a" height="100%" width="100%" x="0%" y="0%"><feColorMatrix color-interpolation-filters="sRGB" values="0 0 0 0 1 0 0 0 0 1 0 0 0 0 1 0 0 0 1 0"/></filter><mask id="b"><g filter="url(#a)"><path d="m-1.8-1.8h21.6v21.6h-21.6z" fill-opacity=".8"/></g></mask><linearGradient id="c" gradientTransform="matrix(.140625 0 0 -.140625 0 18)" gradientUnits="userSpaceOnUse" x1="96.306" x2="25.454" y1="35.144001" y2="98.431"><stop offset="0" stop-color="#a9c8ff"/><stop offset="1" stop-color="#c7e6ff"/></linearGradient><linearGradient id="d" gradientTransform="matrix(.140625 0 0 -.140625 0 18)" gradientUnits="userSpaceOnUse" x1="25.336" x2="94.569" y1="98.330002" y2="36.847"><stop offset="0" stop-color="#2d4664"/><stop offset=".169" stop-color="#29405b"/><stop offset=".445" stop-color="#1e2f43"/><stop offset=".79" stop-color="#0c131b"/><stop offset="1"/></linearGradient><clipPath id="e"><path d="m0 0h18v18h-18z"/></clipPath><g mask="url(#b)"><g clip-path="url(#e)"><path d="m1.011719 15.539062c-.238281 0-.433594-.097656-.574219-.265624-.140625-.171876-.183594-.410157-.128906-.648438l2.617187-11.320312c.113281-.476563.5625-.84375 1.039063-.84375h13.023437c.238281 0 .433594.097656.574219.265624.140625.171876.183594.410157.128906.648438l-2.617187 11.320312c-.113281.476563-.5625.84375-1.039063.84375zm0 0" fill="url(#c)" fill-rule="evenodd"/></g></g><g fill-rule="evenodd"><path d="m16.917969 2.601562h-12.910157c-.40625 0-.800781.324219-.898437.730469l-2.589844 11.335938c-.097656.40625.15625.730469.5625.730469h12.910157c.40625 0 .800781-.324219.898437-.730469l2.589844-11.320313c.097656-.410156-.15625-.746094-.5625-.746094" fill="url(#d)"/><path d="m9.027344 12.417969h3.136718c.367188 0 .660157.308593.660157.6875 0 .378906-.292969.691406-.660157.691406h-3.136718c-.363282 0-.660156-.3125-.660156-.691406 0-.378907.296874-.6875.660156-.6875m2.039062-3.066407c-.054687.113282-.167968.226563-.363281.367188l-5.835937 4.1875c-.324219.226562-.773438.140625-1.027344-.195312-.238282-.335938-.183594-.800782.125-1.027344l5.261718-3.808594v-.085938l-3.304687-3.515624c-.269531-.28125-.242187-.746094.054687-1.039063.308594-.28125.773438-.28125 1.039063 0l3.96875 4.21875c.238281.265625.25.632813.082031.898437" fill="#2c5591"/><path d="m10.914062 9.210938c-.058593.113281-.171874.226562-.367187.367187l-5.820313 4.1875c-.324218.226563-.773437.140625-1.027343-.195313-.238281-.335937-.183594-.800781.125-1.027343l5.261719-3.808594v-.085937l-3.304688-3.515626c-.269531-.28125-.242188-.746093.054688-1.039062.308593-.28125.773437-.28125 1.039062 0l3.96875 4.21875c.238281.25.25.617188.070312.898438m-1.984374 3.136718h3.136718c.363282 0 .660156.292969.660156.644532 0 .367187-.296874.648437-.660156.648437h-3.136718c-.367188 0-.660157-.296875-.660157-.648437 0-.363282.292969-.644532.660157-.644532" fill="#fff"/></g></svg>