<svg height="18" viewBox="0 0 18 18" width="18" xmlns="http://www.w3.org/2000/svg"><g fill="#2a0634"><path d="m7.074219 5.414062h-1.042969v2.910157h1.042969c.703125 0 1.277343-.574219 1.277343-1.277344v-.339844c0-.714843-.574218-1.292969-1.277343-1.292969"/><path d="m0 0v18h18v-18zm7.199219 9.492188h-1.167969v2.996093h-1.347656v-8.226562h2.601562c1.320313-.015625 2.402344 1.039062 2.417969 2.363281v.320312c0 1.394532-1.125 2.53125-2.503906 2.546876m6.484375-1.996094s-.984375 0-1.421875.183594v4.808593h-1.417969v-5.613281s1.433594-.714844 2.839844-.53125zm0 0"/></g></svg>