<svg height="18" viewBox="0 0 18 18" width="18" xmlns="http://www.w3.org/2000/svg"><path d="m9.34375.00390625c-.328125-.02343745-.644531.14062475-.816406.42578175l-6.730469 10.976562c-.179687.292969-.175781.660156.007813.949219l3.3125 5.230469c.214843.335937.632812.492187 1.015624.375l9.5625-2.867188c.25-.074219.453126-.253906.5625-.492188.105469-.234374.105469-.507812-.003906-.742187l-6.148437-13.335937c-.136719-.304688-.429688-.5039068-.757813-.51953175zm.253906 3.36718775c.148438-.019532.289063.0625.34375.199218l4.242188 9.816407c.039062.085937.035156.1875-.003906.273437-.039063.085938-.117188.152344-.207032.179688l-6.609375 1.972656c-.113281.035156-.238281.003906-.324219-.074219-.085937-.078125-.125-.199219-.101562-.3125l2.367188-11.789062c.027343-.144531.148437-.253907.292968-.265625zm0 0" fill="#2d3748"/></svg>