<svg height="18" viewBox="0 0 18 18" width="18" xmlns="http://www.w3.org/2000/svg"><path d="m9 0c-4.96875 0-9 4.03125-9 9s4.03125 9 9 9 9-4.03125 9-9-4.03125-9-9-9zm1.394531 3.125c.992188-.003906 2.046875.339844 2.226563 1.46875.097656.636719.167968 1.699219-1.402344 2.507812 1.214844.328126 1.621094 1.109376 1.636719 1.878907.03125 1.804687-1.722657 2.910156-3.300781 2.734375l.011718-.914063c1.398438.160157 2.078125-.75 2.105469-1.605469.03125-.875-.734375-1.480468-2.105469-1.453124l-.019531-.859376c1.714844-.125 2.195313-1.3125 1.984375-1.972656-.292969-.902344-1.226562-1.066406-2.050781-.75l-.140625 1.003906-.65625-.019531.054687-1.671875c.324219-.183594.976563-.347656 1.65625-.347656m-1.886719 3.796875v6.757813c.359376-.023438.84375.101562 1.285157.171874v.738282h-3.902344v-.753906c.421875-.054688.808594-.152344 1.269531-.164063v-5.800781c-.519531-.007813-1.003906-.121094-1.25-.207032v-.722656zm0 0"/></svg>