<svg height="18" viewBox="0 0 18 18" width="18" xmlns="http://www.w3.org/2000/svg" xmlns:xlink="http://www.w3.org/1999/xlink"><linearGradient id="a" gradientUnits="userSpaceOnUse" x1="64.0018" x2="64.0018" y1="168.4503" y2="297.5639"><stop offset="0" stop-color="#fff" stop-opacity=".918"/><stop offset="1" stop-color="#fff" stop-opacity=".559"/></linearGradient><path d="m18 9c0 4.96875-4.03125 9-9 9s-9-4.03125-9-9 4.03125-9 9-9 9 4.03125 9 9zm0 0"/><path d="m55.027778 180.138889 23.027778 11.444444" fill="#6e8375" stroke="#123859" transform="matrix(.140625 0 0 .140625 0 -23.765625)"/><path d="m67.833333 186.638889 9.111111 4.583333" fill="#6e8375" stroke="#fff" stroke-width=".5" transform="matrix(.140625 0 0 .140625 0 -23.765625)"/><path d="m7.222222 220.25 31.666667 20.916667" fill="none" stroke="#152e44" stroke-width=".65" transform="matrix(.140625 0 0 .140625 0 -23.765625)"/><path d="m4.111111 211.861111c2 2.805556 8.333333 10.638889 10.638889 13" fill="none" stroke="#e5b828" stroke-width=".5" transform="matrix(.140625 0 0 .140625 0 -23.765625)"/><path d="m126.777778 223-19.666667 5.138889" fill="#0f212e" stroke="#1b344c" stroke-width=".3" transform="matrix(.140625 0 0 .140625 0 -23.765625)"/><path d="m124.666667 212.527778-20.611111 28.583333-12.444445-29.638889" fill="none" stroke="#326a9c" transform="matrix(.140625 0 0 .140625 0 -23.765625)"/><path d="m89.888889 208.583333 12.5 30.611111" fill="none" stroke="#e5b828" stroke-width=".514" transform="matrix(.140625 0 0 .140625 0 -23.765625)"/><path d="m73.972222 274.722222 29.333334-33.277778" fill="#1b344b" stroke="#326a9c" stroke-width=".6" transform="matrix(.140625 0 0 .140625 0 -23.765625)"/><path d="m83.861111 249.972222 15.222222 25.527778" fill="#326a9c" stroke="#326a9c" stroke-width=".8" transform="matrix(.140625 0 0 .140625 0 -23.765625)"/><path d="m85.527778 293.666667-11.388889-18.666667" fill="none" stroke="#19344e" stroke-width=".6" transform="matrix(.140625 0 0 .140625 0 -23.765625)"/><path d="m99.083333 275.5-24.666666 10.388889" fill="#0a2035" stroke="#0a2035" stroke-width=".8" transform="matrix(.140625 0 0 .140625 0 -23.765625)"/><path d="m62.055556 291.25 12.361111-5.361111" fill="#0a2035" stroke="#0a2035" stroke-width=".4" transform="matrix(.140625 0 0 .140625 0 -23.765625)"/><path d="m106.888889 280.527778-7.944445-4.361111" fill="#0a2035" stroke="#0a2035" stroke-width=".8" transform="matrix(.140625 0 0 .140625 0 -23.765625)"/><path d="m99.222222 275.638889 22.361111-51.194445" fill="#0a2035" stroke="#10273c" stroke-width=".8" transform="matrix(.140625 0 0 .140625 0 -23.765625)"/><path d="m38.638889 242.277778-19.777778 27.861111" fill="none" stroke="#152e44" stroke-width=".64" transform="matrix(.140625 0 0 .140625 0 -23.765625)"/><path d="m18.777778 236.277778 19.638889 4.75" fill="none" stroke="#152e44" stroke-width=".8" transform="matrix(.140625 0 0 .140625 0 -23.765625)"/><path d="m21.805556 235.583333 13.138888 37.388889" fill="none" stroke="#6e8475" stroke-width=".5" transform="matrix(.140625 0 0 .140625 0 -23.765625)"/><path d="m11.472222 269.194444 10.333334-34.277777" fill="none" stroke="#d0d0d0" stroke-width=".5" transform="matrix(.140625 0 0 .140625 0 -23.765625)"/><path d="m35.444444 273.138889-3.75-36.944445" fill="none" stroke="#33526d" stroke-width=".5" transform="matrix(.140625 0 0 .140625 0 -23.765625)"/><path d="m18.194444 214.777778 20.972223 26.25" fill="none" stroke="#152e44" stroke-width=".65" transform="matrix(.140625 0 0 .140625 0 -23.765625)"/><path d="m6.555556 224.361111 12.555555 11.25" fill="none" stroke="#0c2135" stroke-width=".61" transform="matrix(.140625 0 0 .140625 0 -23.765625)"/><path d="m.361111 230.583333 25.333333-8.694444" fill="none" stroke="#e5b828" stroke-width=".5" transform="matrix(.140625 0 0 .140625 0 -23.765625)"/><path d="m.277778 230.166667 29.055555-10.027778" fill="none" stroke="#d0d0d0" stroke-width=".5" transform="matrix(.140625 0 0 .140625 0 -23.765625)"/><path d="m22.416667 234.222222 6.611111-13.5z" fill="none" stroke="#e5b828" stroke-width=".6" transform="matrix(.140625 0 0 .140625 0 -23.765625)"/><path d="m3.861111 212.083333 17.944445 22.361111" fill="none" stroke="#d0d0d0" stroke-width=".5" transform="matrix(.140625 0 0 .140625 0 -23.765625)"/><path d="m29.305556 220.222222 6.027777 50.333334" fill="none" stroke="#d9d9d9" stroke-width=".5" transform="matrix(.140625 0 0 .140625 0 -23.765625)"/><path d="m35.888889 273.972222v.444445l-12.916667-36.944445" fill="#6e8375" stroke="#3c5b75" stroke-width=".5" transform="matrix(.140625 0 0 .140625 0 -23.765625)"/><path d="m38.888889 241.5 3.444444 15.083333" fill="none" stroke="#152e44" stroke-width=".65" transform="matrix(.140625 0 0 .140625 0 -23.765625)"/><path d="m42.611111 256.833333 2.222222 9.472223 5.583334 29.055555m-11.138889-53.472222 32.694444-8.055556" fill="none" stroke="#152e44" stroke-width=".55" transform="matrix(.140625 0 0 .140625 0 -23.765625)"/><path d="m43.916667 236.083333 29.972222 38.444445" fill="none" stroke="#19344e" stroke-width=".748" transform="matrix(.140625 0 0 .140625 0 -23.765625)"/><path d="m5.890625 14.589844v-.75c.421875-.058594.808594-.15625 1.269531-.167969v-5.800781c-.519531-.007813-1.003906-.121094-1.25-.207032v-.722656l2.597656-.019531v6.761719c.359376-.027344.84375.097656 1.285157.167968v.742188zm0 0" fill="#fff"/><path d="m61.777778 183.944444 7.944444 33.75" fill="none" stroke="#081a26" stroke-width=".714" transform="matrix(.140625 0 0 .140625 0 -23.765625)"/><path d="m114.944444 204.666667-28.5-9.305556" fill="#6e8375" stroke="#0f2c48" stroke-width=".5" transform="matrix(.140625 0 0 .140625 0 -23.765625)"/><path d="m8.683594 5.144531.054687-1.671875c.792969-.453125 3.582031-.777344 3.882813 1.121094.097656.636719.167968 1.699219-1.402344 2.507812 1.214844.328126 1.621094 1.109376 1.636719 1.878907.03125 1.804687-1.722657 2.910156-3.300781 2.734375l.011718-.910156c1.398438.160156 2.078125-.753907 2.109375-1.609376.027344-.875-.738281-1.480468-2.109375-1.453124l-.019531-.859376c1.714844-.125 2.195313-1.3125 1.984375-1.972656-.292969-.902344-1.226562-1.066406-2.050781-.75l-.140625 1.003906zm0 0" fill="#fff"/><g transform="matrix(.140625 0 0 .140625 0 -23.765625)"><path d="m93.5 289.916667-17.555556-13.888889" fill="none" stroke="#19344e" stroke-width=".95"/><path d="m61.444444 233.833333 8.833334-.194444" fill="none" stroke="#0b1620" stroke-width=".5"/><path d="m61.944444 229.527778 8.25 2.694444" fill="none" stroke="#0b1620" stroke-width=".748"/><path d="m71.194444 224.75 1.194445 6.083333" fill="none" stroke="#0b1620" stroke-width=".713"/><path d="m77.305556 227.166667-2.888889 3.861111" fill="none" stroke="#0b1620" stroke-width=".348"/><path d="m74.027778 232.833333 4.027778-4.916666" fill="none" stroke="#0b1620" stroke-width=".248"/><path d="m75.916667 232.416667 5.666666-1.222223" fill="none" stroke="#0b1620" stroke-width=".348"/><path d="m9.027778 252.861111 9.75-16.527778" fill="none" stroke="#0c2135" stroke-width=".825"/><path d="m18.666667 237.777778-2.944445 16.75" fill="none" stroke="#0c2135" stroke-width=".41"/><path d="m0 236 21.694444-1.416667" fill="none" stroke="#e5b828" stroke-width=".4"/><path d="m.305556 236.388889 19.166666-1.222222" fill="none" stroke="#78a657" stroke-width=".5"/><path d="m4.527778 210.055556 10.416666 3.138888" fill="none" stroke="#0c2135" stroke-width=".31"/><path d="m17.138889 215.111111 1.305555 11.638889" fill="none" stroke="#081725" stroke-width=".31"/><path d="m84.972222 218.083333 19.888889-26.277777" fill="none" stroke="#0f2c48" stroke-width=".714"/><path d="m84.194444 193.416667 7.611112-11.638889" fill="none" stroke="#123859" stroke-width=".814"/><path d="m65.472222 181.972222 29.583334 1.833334" fill="none" stroke="#123859" stroke-dasharray="6.512008 .814001" stroke-width=".814"/><path d="m62.444444 182.194444 4.722223.277778" fill="none" stroke="#123859" stroke-dasharray="2.08783 2.08783" stroke-width=".348"/><path d="m61.388889 181.694444-34 23.944445" fill="none" stroke="#123859" stroke-width=".714"/><path d="m53.722222 179.388889 14.083334 7.222222" fill="none" stroke="#e5b828" stroke-width=".714"/><path d="m53.388889 179.166667-22.25 37.722222" fill="none" stroke="#e5b828" stroke-width=".314"/><path d="m29.277778 220.583333 19.027778-31.944444" fill="none" stroke="#d0d0d0" stroke-width=".514"/><path d="m55.972222 175.472222 6.194445 6.083334" fill="none" stroke="#081a26" stroke-width=".714"/><path d="m68.611111 174.944444-6.694444 7.194445" fill="none" stroke="#173149" stroke-width=".714"/><path d="m115.055556 204.055556-28.472223-9.138889" fill="#6e8375" stroke="#fff" stroke-width=".7"/><path d="m27.166667 278.083333 9.194444-3.444444" fill="#6e8375" stroke="#11385e" stroke-width=".6"/><path d="m36.333333 274.972222 7.555556-38.638889m-7.777778 38.861111 36.555556-.333333" fill="none" stroke="#d9d9d9" stroke-width=".714"/><path d="m46.75 171.638889 7.083333 7.611111" fill="none" stroke="#e5b828" stroke-width=".714"/><path d="m52.444444 181.444444-4.25 7.388889" fill="none" stroke="#123859" stroke-width=".514"/><path d="m54.388889 179.555556 29.861111-6.666667" fill="#06111b" stroke="#e5b828" stroke-width=".514"/><path d="m6.638889 205 19.361111 13.083333" fill="none" stroke="#e5b828" stroke-width=".4"/><path d="m6.638889 204.611111 22.611111 15.222222" fill="none" stroke="#d0d0d0" stroke-width=".4"/><path d="m11.861111 269.277778 8.861111-29.444445" fill="none" stroke="#79a6cc" stroke-width=".5"/><path d="m21.777778 234.638889 21.861111 1.277778" fill="none" stroke="#fff" stroke-width=".5"/><path d="m21.972222 235.083333 20.305556 1.25" fill="none" stroke="#32556e" stroke-width=".5"/><path d="m15.166667 225.416667 6.583333 8.583333" fill="none" stroke="#e5b828" stroke-width=".5"/><path d="m14.694444 225.611111 7.222223 8.944445" fill="none" stroke="#fff" stroke-width=".5"/><path d="m29.611111 220.472222 14.027778 14.75" fill="#6e8375" stroke="#405c74" stroke-width=".5"/><path d="m43.527778 235.972222-14.194445-15.027778" fill="#6e8375" stroke="#fff" stroke-width=".6"/><path d="m21.277778 280.888889 13.305555-4.944445" fill="#6e8375" stroke="#c4c32d" stroke-width=".6"/><path d="m78.805556 241.5-4.111112-6.583333" fill="#0f212e" stroke="#11385e" stroke-width=".3"/><path d="m125.333333 233c0 33.861111-27.472222 61.333333-61.333333 61.333333s-61.333333-27.472222-61.333333-61.333333 27.472222-61.333333 61.333333-61.333333 61.333333 27.472222 61.333333 61.333333zm0 0" fill="none" stroke="url(#a)" stroke-width="5.328"/></g></svg>