<svg height="18" viewBox="0 0 18 18" width="18" xmlns="http://www.w3.org/2000/svg"><path d="m5.855469 6.175781c0 .359375-.542969.359375-.542969 0 0-.363281.542969-.363281.542969 0m.125-1.292969c-.878907 0-1.59375.714844-1.59375 1.59375 0 .882813.714843 1.597657 1.59375 1.597657.882812 0 1.597656-.714844 1.597656-1.597657 0-.878906-.714844-1.59375-1.597656-1.59375m.039062 2.601563c-.53125 0-.964843-.433594-.964843-.964844 0-.535156.433593-.964843.964843-.964843.535157 0 .964844.429687.964844.964843 0 .53125-.429687.964844-.964844.964844zm6.867188-1.039063c.363281 0 .363281-.539062 0-.539062-.359375 0-.359375.539062 0 .539062m.496093 1.691407c.878907 0 1.59375-.714844 1.59375-1.59375 0-.882813-.710937-1.597657-1.59375-1.597657-.882812 0-1.597656.714844-1.597656 1.597657 0 .878906.714844 1.59375 1.597656 1.59375zm-.054687-2.566407c.53125 0 .964844.429688.964844.964844 0 .53125-.433594.964844-.964844.964844-.527344-.011719-.945313-.441406-.945313-.964844 0-.527344.417969-.953125.945313-.964844m3.6875 3.066407c0-2.1875-.878906-4.167969-2.296875-5.613281-.265625-.804688-.234375-1.917969.101562-2.425782.117188-.175781.238282-.347656.375-.5390622-1.1875-.2031248-2.199218.1367182-2.875.9843752-.082031.101562-.160156.164062-.238281.191406-.976562-.40625-2.023437-.613281-3.082031-.613281-1.0625 0-2.113281.210937-3.089844.621094-.085937-.03125-.167968-.089844-.253906-.199219-.675781-.847657-1.683594-1.1875-2.875-.9843752.136719.1914062.257812.3632812.375.5390622.339844.515625.367188 1.652344.089844 2.460938-1.398438 1.441406-2.261719 3.410156-2.261719 5.578125 0 1.023437.191406 2 .539063 2.894531.085937.25.167968.496094.25.746094.074218.222656.144531.449218.210937.675781.195313.667969.3125 1.351563.332031 2.046875.003906.1875 0 .378906-.003906.566406l-.007812.195313 1.625-1.484375c.292968.269531.695312.515625 1.175781.726562-.488281.339844-.808594.90625-.808594 1.546875 0 .550781.234375 1.039063.605469 1.386719-.035156-.125-.054688-.25-.054688-.378906 0-.726563.589844-1.316406 1.316406-1.316406.726563 0 1.316407.589843 1.316407 1.316406 0 .148437-.027344.300781-.078125.441406.429687-.359375.675781-.890625.675781-1.449219 0-.316406-.078125-.617187-.21875-.878906.449219.046875.902344.070313 1.351563.066406.320312 0 .628906-.007812.933593-.03125-.132812.261719-.199219.550781-.199219.84375 0 .546875.234376 1.039063.605469 1.386719-.121093-.398438-.042969-.832031.203125-1.167969.25-.332031.640625-.53125 1.058594-.527343.726562 0 1.3125.585937 1.3125 1.3125 0 .152343-.023438.300781-.074219.445312.425781-.359375.675781-.890625.675781-1.449219 0-.554687-.246093-1.085937-.671874-1.441406.5-.191406.925781-.421875 1.253906-.675781l1.402344 1.285156c-.003907-.066406-.003907-.128906-.007813-.195312-.003906-.1875-.007813-.378907 0-.570313.019531-.691406.136719-1.378906.332031-2.042969.0625-.226562.136719-.453125.210938-.679687.085937-.261719.167968-.523438.261718-.78125.335938-.898438.507813-1.851563.507813-2.8125zm-15.101563 2.390625-.296874-.898438.398437.367188.617187-.21875zm.15625.644531.398438.367187.621094-.21875-.71875.753907zm.980469-1.339844.371094.398438.632813-.171875-.773438.695312zm-.296875 3.808594-.300781-.902344.398437.367188.621094-.21875zm.992188-1.28125-.300782-.898437.398438.367187.621094-.21875zm.679687-2.25.371094.394531.632813-.171875-.769532.695313zm4.597657 1.316406c-.160157-.238281-.292969-.503906-.414063-.746093-.144531-.273438-.285156-.550782-.429687-.824219-.273438-.523438-.683594-1.058594-.820313-1.652344-.5625.460937-1.269531.710937-2 .710937-1.753906 0-3.175781-1.421874-3.175781-3.175781 0-1.753906 1.421875-3.175781 3.175781-3.175781.464844 0 .90625.101562 1.308594.28125.179687.078125.351562.171875.515625.277344.824218.570312 1.363281 1.523437 1.363281 2.597656 0 .152344-.011719.304688-.035156.457031.359375-.113281.746093-.105469 1.097656.027344-.027344-.171875-.042969-.34375-.042969-.515625 0-.265625.035156-.535156.101563-.792969l.011719-.039062c.03125-.105469.066406-.214844.105468-.316407.007813-.019531.011719-.039062.019532-.054687.472656-1.160156 1.609374-1.976563 2.9375-1.976563 1.753906 0 3.175781 1.421876 3.175781 3.175782s-1.421875 3.175781-3.175781 3.175781c-.632813 0-1.253907-.191406-1.777344-.546875-.089844-.0625-.179688-.128906-.261719-.199219-.066406.316407-.230469.585938-.386719.886719-.21875.410156-.4375.824219-.652344 1.234375zm5.964843-1.484375-.230469.917969-.773437-.695313.632813.171876zm-2.378906.5.632813.171875.371093-.398437-.230469.921875zm1.683594 2.027344-.714844-.753906.617187.21875.398438-.367188zm.992187 1.277344-.714844-.75.617188.21875.398438-.367188zm.382813-1.566406-.714844-.75.617187.21875.398438-.367188zm.457031-1.542969-.71875-.75.621094.21875.398437-.367188zm-7.105469-4.222657c-.820312 0-1.488281.667969-1.488281 1.488282 0 .65625.464844 1.222656.753906 1.777344l.371094.71875c.109375.207031.226562.441406.363281.648437l.558594-1.035156c.1875-.359375.375-.71875.5625-1.074219.183594-.34375.367187-.636719.367187-1.035156 0-.820313-.667968-1.488282-1.488281-1.488282" fill="#231f20"/></svg>