<svg height="18" viewBox="0 0 18 18" width="18" xmlns="http://www.w3.org/2000/svg"><path d="m3.398438 15.261719c.664062-.382813.664062-1.628907 0-2.777344-.664063-1.152344-1.742188-1.773437-2.40625-1.386719-.667969.382813-.667969 1.628906-.003907 2.777344.664063 1.152344 1.742188 1.773438 2.410157 1.386719" fill="#f26e7e"/><path d="m17.011719 13.878906c.664062-1.152344.664062-2.394531 0-2.78125-.667969-.382812-1.746094.238282-2.410157 1.386719-.664062 1.152344-.664062 2.394531.003907 2.78125.664062.382813 1.742187-.238281 2.40625-1.386719" fill="#893390"/><path d="m7.933594 17.886719c.664062-.386719.667968-1.628907.003906-2.78125-.664062-1.148438-1.742188-1.769531-2.410156-1.386719-.664063.382812-.667969 1.628906 0 2.78125.664062 1.148438 1.742187 1.769531 2.40625 1.386719" fill="#f26e7e"/><path d="m12.476562 16.496094c.664063-1.152344.664063-2.394532-.003906-2.78125-.664062-.382813-1.742187.238281-2.40625 1.386718-.664062 1.152344-.664062 2.398438.003906 2.78125.664063.382813 1.742188-.238281 2.40625-1.386718" fill="#893390"/><path d="m8.996094 2.785156c1.332031 0 2.40625-.625 2.40625-1.394531s-1.074219-1.390625-2.40625-1.390625c-1.328125 0-2.402344.621094-2.402344 1.390625s1.074219 1.394531 2.402344 1.394531" fill="#f6bf29"/><path d="m3.394531 10.019531c.667969-.382812.667969-1.628906.003907-2.777343-.664063-1.152344-1.742188-1.773438-2.410157-1.390626-.664062.386719-.664062 1.628907 0 2.78125.664063 1.152344 1.742188 1.773438 2.40625 1.386719" fill="#f26e7e"/><path d="m4.460938 5.398438c1.328124 0 2.40625-.621094 2.40625-1.390626 0-.769531-1.078126-1.390624-2.40625-1.390624-1.328126 0-2.40625.621093-2.40625 1.390624 0 .769532 1.078124 1.390626 2.40625 1.390626" fill="#f6bf29"/><path d="m17.011719 8.636719c.664062-1.152344.660156-2.394531-.003907-2.78125-.664062-.382813-1.742187.238281-2.410156 1.386719-.664062 1.152343-.660156 2.398437.003906 2.78125.664063.382812 1.746094-.238282 2.410157-1.386719" fill="#893390"/><path d="m13.539062 5.398438c1.328126 0 2.40625-.621094 2.40625-1.390626 0-.769531-1.078124-1.390624-2.40625-1.390624-1.328124 0-2.40625.621093-2.40625 1.390624 0 .769532 1.078126 1.390626 2.40625 1.390626" fill="#f6bf29"/><path d="m7.933594 12.644531c.664062-.386719.664062-1.628906 0-2.78125-.664063-1.152343-1.742188-1.769531-2.40625-1.386719-.667969.382813-.667969 1.628907-.003906 2.777344.664062 1.152344 1.742187 1.773438 2.410156 1.390625" fill="#f26e7e"/><path d="m12.472656 11.253906c.667969-1.152344.664063-2.394531 0-2.777344-.667968-.386718-1.746094.234376-2.410156 1.386719-.664062 1.148438-.660156 2.394531.003906 2.777344.664063.386719 1.742188-.234375 2.40625-1.386719" fill="#893390"/><path d="m8.996094 8.023438c1.332031 0 2.40625-.625 2.40625-1.394532 0-.769531-1.074219-1.390625-2.40625-1.390625-1.328125 0-2.402344.621094-2.402344 1.390625 0 .769532 1.074219 1.394532 2.402344 1.394532" fill="#f6bf29"/></svg>