<svg height="18" viewBox="0 0 18 18" width="18" xmlns="http://www.w3.org/2000/svg"><path d="m14.746094 9.933594v-.59375c0-.355469-.285156-.640625-.636719-.640625h-10.21875c-.351563 0-.636719.285156-.636719.640625v.59375zm0 7.121094v-6.851563h-11.492188v6.851563c0 .351562.285156.636718.636719.636718h10.21875c.351563 0 .636719-.285156.636719-.636718m-10.796875-8.621094.039062-.4375-.167969.4375h.070313zm10.03125-.734375.058593.734375h.070313c.039063 0 .074219 0 .113281.007812zm.808593 1.042969c.144532.164062.226563.375.226563.597656v7.714844c0 .5-.40625.90625-.90625.90625h-10.21875c-.5 0-.90625-.40625-.90625-.90625v-7.714844c0-.242188.097656-.464844.25-.625l.90625-2.34375.390625-4.300782.445312.039063-.355468 3.878906.125.046875-.167969.441406-.179687 1.957032h9.191406l-.507813-6.335938.445313-.035156.300781 3.734375zm-10.808593.394531c.070312-.003907.140625.035156.175781.097656.039062.066406.039062.144531 0 .207031-.035156.0625-.105469.101563-.175781.097656-.113281 0-.199219-.089843-.199219-.199218s.085938-.199219.199219-.203125m.6875 0c.113281 0 .203125.089843.203125.203125 0 .109375-.089844.199218-.203125.199218-.109375 0-.199219-.089843-.199219-.199218 0-.113282.089844-.203125.199219-.203125m.671875 0c.109375 0 .203125.089843.203125.203125 0 .109375-.09375.199218-.203125.199218-.113282 0-.203125-.089843-.203125-.199218 0-.113282.089843-.203125.203125-.203125"/><path d="m4.675781 13.523438c.035157-.039063.054688-.09375.054688-.160157 0-.0625-.019531-.113281-.054688-.15625-.035156-.039062-.085937-.058593-.152343-.058593h-.320313v.433593h.320313c.066406 0 .117187-.019531.152343-.058593zm-.152343-.632813c.140624 0 .25.039063.332031.128906.082031.085938.121093.203125.121093.34375 0 .148438-.039062.261719-.121093.347657-.082031.085937-.191407.132812-.332031.132812h-.320313v.582031h-.25v-1.535156zm1.339843.941406v-.449219h.269531v1.011719h-.269531v-.089843c-.078125.082031-.183593.121093-.316406.121093-.121094 0-.21875-.039062-.292969-.121093-.078125-.078126-.113281-.179688-.113281-.304688v-.617188h.269531v.558594c0 .074219.015625.132813.054688.175782.035156.042968.085937.0625.148437.0625.167969 0 .25-.113282.25-.347657m1.3125.277344c.054688-.054687.082031-.128906.082031-.21875 0-.136719-.027343-.167969-.082031-.222656-.054687-.054688-.121093-.082031-.203125-.082031-.074218 0-.140625.027343-.199218.085937-.058594.054687-.089844.128906-.089844.21875s.03125.164063.089844.21875c.058593.054687.125.082031.199218.082031.082032 0 .148438-.027344.203125-.082031m-.15625-.757813c.132813 0 .25.050782.347657.152344.101562.105469.148437.234375.148437.386719s-.046875.28125-.148437.382813c-.097657.101562-.214844.152343-.347657.152343-.132812 0-.242187-.035156-.335937-.109375v.5625h-.265625v-1.496094h.265625v.082032c.089844-.074219.203125-.113282.335937-.113282zm1.460938.757813c.050781-.054687.078125-.128906.078125-.21875 0-.136719-.027344-.167969-.078125-.222656-.054688-.054688-.121094-.082031-.207031-.082031-.074219 0-.140626.027343-.199219.085937-.058594.054687-.085938.128906-.085938.21875s.027344.164063.085938.21875c.058593.054687.125.082031.199219.082031.085937 0 .152343-.027344.207031-.082031m-.160157-.757813c.132813 0 .25.050782.351563.152344.097656.105469.148437.234375.148437.386719s-.050781.28125-.148437.382813c-.101563.101562-.214844.152343-.351563.152343-.128906 0-.242187-.035156-.332031-.109375v.5625h-.269531v-1.496094h.269531v.082032c.089844-.074219.199219-.113282.332031-.113282zm.894532.421876h.488281c-.015625-.0625-.046875-.109376-.089844-.140626s-.097656-.046874-.148437-.046874c-.054688 0-.109375.015624-.15625.050781-.046875.03125-.082032.078125-.09375.136719m.25-.421876c.136718 0 .257812.050782.355468.144532.101563.097656.152344.222656.15625.375v.089844h-.769531c.011719.070312.042969.128906.089844.171874.046875.042969.101563.0625.164063.0625.113281 0 .199218-.042968.25-.132812l.238281.050781c-.042969.105469-.105469.179688-.191407.234375-.085937.050782-.183593.078125-.296874.078125-.148438 0-.269532-.050781-.371094-.148437-.097656-.101563-.148438-.230469-.148438-.386719s.050782-.285156.152344-.386719c.097656-.101562.222656-.152344.371094-.152344m1.25.824219c.050781 0 .109375-.015625.167968-.046875l.078126.222656c-.09375.050782-.179688.074219-.265626.074219-.121093 0-.21875-.035156-.289062-.101562-.074219-.066407-.105469-.164063-.105469-.300781v-.421876h-.21875v-.21875h.21875v-.304687h.265625v.304687h.332032v.21875h-.332032v.402344c0 .113282.050782.171875.148438.171875zm.5625-.402343h.488281c-.015625-.0625-.046875-.109376-.089844-.140626s-.09375-.046874-.148437-.046874c-.054688 0-.109375.015624-.15625.050781-.046875.03125-.082032.078125-.09375.136719zm.25-.421876c.136718 0 .257812.050782.355468.144532.101563.097656.152344.222656.15625.375v.089844h-.769531c.011719.070312.042969.128906.089844.171874.042969.042969.101563.0625.164063.0625.113281 0 .199218-.042968.25-.132812l.238281.050781c-.039063.105469-.105469.179688-.191407.234375-.085937.050782-.183593.078125-.296874.078125-.148438 0-.269532-.050781-.371094-.148437-.097656-.101563-.148438-.230469-.148438-.386719s.050782-.285156.152344-.386719c.097656-.101562.222656-.152344.371094-.152344zm.953125.421876h.488281c-.015625-.0625-.046875-.109376-.089844-.140626-.042968-.03125-.09375-.046874-.148437-.046874-.054688 0-.109375.015624-.15625.050781-.046875.03125-.082031.078125-.09375.136719m.25-.421876c.136719 0 .257812.050782.355469.144532.101562.097656.152343.222656.15625.375v.089844h-.769532c.011719.070312.042969.128906.089844.171874.042969.042969.101562.0625.164062.0625.113282 0 .199219-.042968.25-.132812l.238282.050781c-.039063.105469-.105469.179688-.191406.234375-.085938.050782-.183594.078125-.296876.078125-.148437 0-.269531-.050781-.371093-.148437-.097657-.101563-.148438-.230469-.148438-.386719s.050781-.285156.152344-.386719c.097656-.101562.222656-.152344.371094-.152344zm1.347656.019532c.027344 0 .054687 0 .070313.007812l-.015626.257813h-.058593c-.242188 0-.359375.140625-.359375.433593v.324219h-.269532v-1.011719h.269532v.183594c.089844-.128906.210937-.195312.363281-.195312m-1.171875-7.136719 1.445312-.699219v-.695312l-3.339843-1.59375 3.339843-1.71875v-.675782l-1.398437-.644531-3.949219 1.964844-4.019531-1.964844-1.296875.695313v.597656l3.140625 1.71875-3.140625 1.59375v.722656l1.347656.699219 3.984375-2.042969zm0 0"/><path d="m13.085938 5.949219v-.300781l1.089843-.5625v.335937zm-9.308594-.871094 1.050781.601563v.242187l-1.050781-.53125zm5.382812-1.269531 3.613282 1.785156v.359375l-3.613282-1.851563zm-4.019531 1.839844 3.707031-1.839844v.292968l-3.707031 1.875zm2.625-3.003907-3.753906-1.8125.972656-.492187 4.019531 2.082031 3.949219-2.082031 1.007813.515625-3.660157 1.839843c-.144531.074219-.144531.28125 0 .355469l3.621094 1.8125-.9375.488281-3.980469-2.042968-4.050781 2.082031-.925781-.53125 3.738281-1.859375c.148437-.074219.148437-.285156 0-.355469zm-3.941406-1.199219v-.328124l3.496093 1.746093-.351562.140625zm7.171875 1.578126c-.003906-.003907-.332032-.160157-.332032-.160157l3.511719-1.765625v.332032zm.351562.171874 3.085938-1.550781c.03125-.015625.050781-.046875.054687-.082031v-.730469c-.003906-.035156-.019531-.066406-.050781-.085937l-1.441406-.7343752c-.027344-.01562505-.058594-.01562505-.082032 0l-3.871093 1.9609372c-.023438.011719-.054688.015625-.082031 0l-3.9375-1.9648435c-.023438-.01171875-.054688-.01171875-.082032.0039063l-1.425781.7226562c-.03125.015625-.050781.046875-.050781.082031v.746094c0 .035156.019531.066406.050781.082031l3.097656 1.53125-3.082031 1.535157c-.03125.011718-.050781.042968-.054688.078124l-.011718.734376c0 .035156.019531.066406.050781.082031l1.480469.75c.027344.015625.058594.015625.085937 0l3.878907-1.945313c.027343-.015625.058593-.015625.082031 0l3.832031 1.945313c.027344.015625.058594.015625.082031.003906l1.476563-.714844c.03125-.015625.050781-.046875.054687-.085937v-.765625c-.003906-.035157-.023437-.066407-.054687-.082031zm0 0"/></svg>