<svg height="18" viewBox="0 0 18 18" width="18" xmlns="http://www.w3.org/2000/svg"><path d="m14.90625 10.089844h-11.832031v-.664063c0-.449219.363281-.8125.8125-.8125h10.207031c.449219 0 .8125.363281.8125.8125zm0 0" fill="#dfdedf"/><path d="m14.082031 17.832031h-10.183593c-.457032 0-.824219-.371093-.824219-.824219v-6.917968h11.832031v6.917968c0 .453126-.367188.824219-.824219.824219" fill="#fff"/><path d="m12.914062 6.246094 1.449219-.699219v-.699219l-3.347656-1.59375 3.347656-1.722656v-.675781l-1.398437-.648438-3.960938 1.972657-4.027344-1.972657-1.300781.699219v.597656l3.148438 1.722656-3.148438 1.597657v.722656l1.347657.699219 3.996093-2.046875zm0 0" fill="#00d8a2"/><path d="m5.015625.0117188c-.027344-.01562505-.054687-.01562505-.082031 0l-1.429688.7265622c-.03125.015625-.050781.046875-.050781.082031v.746094c0 .035156.019531.066406.050781.082032l1.011719.5-.199219 2.175781-.800781.394531c-.027344.015625-.050781.046875-.050781.082031l-.011719.734375c0 .035156.019531.070313.050781.085938l.664063.335937-.039063.429688-.90625 2.347656c-.160156.167969-.25.390625-.25.625v7.734375c0 .5.40625.90625.90625.90625h10.242188c.5 0 .90625-.40625.90625-.90625v-7.734375c0-.21875-.078125-.433594-.222656-.597656l-.929688-2.828125.570312-.277344c.03125-.015625.054688-.046875.054688-.082031v-.769531c0-.035157-.023438-.066407-.054688-.082032l-.726562-.355468-.179688-2.261719.910157-.457031c.03125-.015626.050781-.046876.050781-.082032v-.734375c0-.035156-.019531-.066406-.050781-.082031l-1.445313-.7382812c-.023437-.01562505-.054687-.01562505-.082031 0l-3.878906 1.9648432c-.023438.015626-.054688.015626-.082031 0zm-.039063.3281252 4.027344 2.085937 3.957032-2.085937 1.011718.515625-3.667968 1.847656c-.148438.074219-.148438.28125 0 .355469l3.628906 1.816406-.941406.488281-3.988282-2.046875-4.0625 2.085938-.925781-.53125 3.75-1.863282c.148437-.074218.144531-.285156-.003906-.359374l-3.761719-1.8125zm9.207032.757812v.332032l-3.183594 1.601562c-.003906-.003906-.335938-.160156-.335938-.160156zm-10.371094.023438 3.503906 1.746094-.351562.144531-3.152344-1.5625zm9.292969 1.203125.148437 1.8125-1.898437-.933594zm-8.160157.039062 1.664063.820313-1.820313.90625zm4.214844 1.453125 3.621094 1.792969v.359375l-3.621094-1.859375zm-.3125 0v.292969l-3.714844 1.882813v-.332032zm.113282.601563c.027343-.011719.058593-.011719.082031 0l3.84375 1.953125c.023437.015625.054687.015625.082031 0l.449219-.214844.183593 2.292969h-9.214843l.179687-1.960938.109375-.277343.3125.160156c.027344.011718.058594.011718.085938 0zm-5.195313.671875 1.050781.601562v.242188l-1.050781-.53125zm10.421875.007812v.335938l-1.09375.527344v-.300782zm-.195312 2.621094.242187.738281c-.039063-.003906-.074219-.007812-.113281-.007812h-.070313zm-10.011719.296875-.042969.433594h-.058594c-.023437 0-.046875.003906-.070312.003906zm-.101563.703125h10.242188c.351562 0 .640625.285156.640625.640625v.597656h-11.523438v-.597656c0-.355469.289063-.640625.640625-.640625zm.089844.4375c-.113281 0-.203125.089844-.203125.203125s.089844.203125.203125.203125c.109375 0 .203125-.089844.203125-.203125s-.09375-.203125-.203125-.203125m.691406 0c-.113281 0-.203125.089844-.203125.203125s.089844.203125.203125.203125c.113282 0 .203125-.089844.203125-.203125s-.089843-.203125-.203125-.203125m.671875 0c-.113281 0-.203125.089844-.203125.203125s.089844.203125.203125.203125c.109375 0 .203125-.089844.203125-.203125s-.09375-.203125-.203125-.203125m-2.09375 1.070312h11.523438v6.863282c0 .355468-.289063.640625-.640625.640625h-10.242188c-.351562 0-.640625-.285157-.640625-.640625zm.703125 2.691407v1.539062h.25v-.582031h.320313c.035156 0 .070312-.003906.101562-.011719.03125-.003906.0625-.011719.089844-.023437.054687-.019532.105469-.054688.144531-.097656.039063-.042969.070313-.09375.089844-.152344.011719-.027344.019531-.058594.023438-.089844.003906-.035156.007812-.070312.007812-.105469 0-.035156-.003906-.070312-.007812-.101562-.003907-.03125-.011719-.0625-.023438-.09375-.027344-.085938-.085938-.160157-.160156-.210938-.023438-.015625-.050782-.027343-.078125-.039062-.027344-.011719-.054688-.019531-.085938-.023438-.035156-.003906-.066406-.007812-.101562-.007812zm6.359375.1875v.308593h-.214843v.21875h.214843v.421876c0 .03125.003907.066406.007813.09375.003906.03125.011718.058593.019531.082031.007813.027343.019531.046875.035156.070312.011719.019531.027344.039063.042969.054688.019531.019531.039062.03125.058594.046875.023437.011718.046875.023437.070312.03125.023438.007812.050782.015625.078125.019531.027344.003906.054688.003906.085938.003906.023437 0 .042969 0 .066406-.003906.019531-.003906.042969-.007813.0625-.011719.023437-.007812.046875-.015625.066406-.023437.023438-.011719.046875-.023438.070313-.035157l-.078125-.222656c-.027344.015625-.054688.027344-.085938.035156-.027343.007813-.054687.011719-.082031.011719-.011719 0-.023438 0-.035156 0-.011719-.003906-.019532-.007812-.03125-.011719-.027344-.007812-.046875-.03125-.0625-.054687-.003906-.011719-.007813-.019531-.011719-.03125 0-.011719-.003906-.023437-.003906-.035156-.003907-.015625-.003907-.027344-.003907-.039063v-.402344h.332032v-.21875h-.332032v-.308593zm-6.109375.074219h.320313.015625c.015625 0 .035156.003906.054687.007812l.011719.003906h.007812c.011719.007813.023438.011719.035157.019532.007812.007812.015625.011718.023437.019531l.007813.007812c.007812.007813.015625.019531.023437.03125l.003906.007813.003907.011718c.003906.003907.003906.011719.007812.015626l.007813.023437v.007813c.003906.015624.003906.03125.003906.046874v.023438.011719.011719c0 .007812 0 .015624-.003906.023437v.011719l-.003906.007812c-.003907.015625-.011719.03125-.019532.046875-.003906.011719-.011718.019531-.019531.027344l-.003906.007813c-.019531.019531-.042969.035156-.066407.042968-.003906 0-.007812.003906-.007812.003906l-.011719.003907c-.015625.003906-.03125.003906-.042969.007812-.007812 0-.015624 0-.027343 0h-.320313zm2.824219.203124c-.035156 0-.066406.003907-.097656.007813s-.058594.011719-.085938.019531c-.058593.019532-.109375.046875-.152343.085938v-.082032h-.269532v1.496094h.269532v-.5625c.023437.019532.046874.035156.070312.050782.027344.011718.054688.023437.082031.03125.027344.011718.058594.015624.085938.023437.03125.003906.0625.003906.097656.003906.03125 0 .066406 0 .097656-.007812.0625-.011719.121094-.039063.171875-.078125.058594-.039063.105469-.089844.144532-.144532.019531-.03125.035156-.0625.046874-.09375.011719-.03125.019532-.066406.027344-.101562.007813-.035156.007813-.070312.007813-.109375.003906-.039063 0-.074219-.007813-.113281-.011718-.066406-.035156-.132813-.074218-.191406-.039063-.058594-.085938-.109376-.144532-.148438-.023437-.019531-.054687-.035156-.082031-.046875-.03125-.015625-.0625-.023437-.089844-.03125-.035156-.003906-.066406-.007813-.097656-.007813zm1.304687 0c-.035156 0-.066406.003907-.097656.007813-.027344.003906-.058594.011719-.085937.019531-.054688.019532-.105469.046875-.152344.085938v-.082032h-.269531v1.496094h.269531v-.5625c.023437.019532.046875.035156.074219.050782.023437.011718.050781.023437.078125.03125.027343.011718.058593.015624.089843.023437.027344.003906.058594.003906.09375.003906.0625 0 .128907-.011719.1875-.035156.027344-.015625.058594-.03125.085938-.050781.039062-.027344.078125-.0625.109375-.105469.023437-.027344.042969-.054687.058594-.085937.023437-.046876.039062-.097657.046875-.148438.007812-.035156.011718-.070312.007812-.109375.003906-.039063 0-.074219-.007812-.113281-.007813-.050782-.023438-.101563-.046875-.144532-.007813-.015624-.015625-.03125-.027344-.046874-.019531-.027344-.039063-.058594-.0625-.082032-.027344-.023437-.050781-.046875-.082031-.066406-.050782-.039062-.109375-.0625-.171875-.078125-.035157-.003906-.066407-.007813-.097657-.007813zm1.144532 0c-.039063 0-.074219.003907-.105469.007813-.066406.011719-.132813.039063-.1875.078125-.058594.039062-.105469.085938-.144531.144531-.019532.03125-.035156.0625-.050782.09375-.011718.03125-.019531.066407-.027343.101563-.007813.035156-.007813.074218-.007813.113281 0 .054687.003906.109375.019532.164063.011718.035156.023437.066406.039062.097656.023438.046875.054688.085937.089844.125.027344.023437.050781.046875.078125.066406.058593.035156.121093.0625.1875.074219.035156.003906.070312.007812.105469.007812.027343 0 .054687 0 .082031-.003906.027343-.003906.054687-.007813.078125-.015625.046875-.011719.09375-.03125.140625-.058594.039062-.027344.078125-.058594.109375-.097656.015625-.019531.03125-.039062.046875-.0625.011719-.023438.023437-.046875.035156-.074219l-.242187-.050781c-.011719.023438-.027344.042969-.042969.058594-.019531.015625-.035157.03125-.058594.042968-.019531.011719-.042969.019532-.066406.023438-.027344.007812-.054688.011719-.082031.007812-.015626 0-.03125 0-.046876-.003906-.027343-.003906-.054687-.015625-.078124-.03125-.042969-.027344-.074219-.0625-.097657-.101562-.007812-.015625-.011719-.03125-.019531-.046875-.003906-.015625-.007812-.03125-.011719-.050781h.773438v-.089844c-.003907-.039063-.007813-.074219-.015625-.109375-.003906-.035157-.015625-.066407-.027344-.097657-.027344-.0625-.066406-.121093-.113281-.167968-.027344-.023438-.050781-.042969-.082031-.0625-.050782-.035156-.113282-.0625-.175782-.074219-.035156-.003906-.066406-.007813-.101562-.007813zm2.066406 0c-.035156 0-.070312.003907-.105469.007813-.066406.011719-.128906.039063-.1875.078125-.042969.027344-.082031.0625-.113281.105469-.035156.039062-.058594.082031-.078125.132812-.015625.03125-.023437.066407-.03125.101563-.003906.035156-.007813.074218-.007813.113281 0 .054687.007813.109375.019532.164063.011718.035156.023437.066406.039062.097656.023438.046875.054688.085937.089844.125.027344.023437.054688.046875.082031.066406.054688.035156.117188.0625.183594.074219.035156.003906.070313.007812.105469.007812.03125 0 .058594 0 .082031-.003906.027344-.003906.054687-.007813.078125-.015625.050781-.011719.097656-.03125.140625-.058594s.078125-.058594.113281-.097656c.03125-.042969.058594-.085938.078125-.136719l-.238281-.050781c-.011719.023438-.027344.042969-.046875.058594-.015625.015625-.035156.03125-.054687.042968-.023438.011719-.046876.019532-.070313.023438-.023437.007812-.050781.011719-.082031.007812-.027344 0-.058594-.003906-.085938-.015624-.027344-.011719-.054687-.027344-.074218-.046876-.023438-.023437-.042969-.046874-.058594-.074218-.007813-.015625-.015625-.03125-.019532-.046875-.007812-.015625-.011718-.03125-.015624-.050781h.773437v-.089844c0-.039063-.007813-.074219-.011719-.109375-.007812-.035157-.019531-.066407-.03125-.097657-.027344-.0625-.066406-.121093-.113281-.167968-.023437-.023438-.050781-.042969-.078125-.0625-.054688-.035156-.117188-.0625-.179688-.074219-.03125-.003906-.066406-.007813-.101562-.007813zm1.207031 0c-.039062 0-.074219.003907-.105469.007813-.066406.015625-.132812.039063-.1875.078125-.042968.027344-.082031.0625-.113281.105469-.035156.039062-.0625.082031-.082031.132812-.011719.03125-.019531.066407-.027344.101563-.007812.035156-.007812.074218-.007812.113281 0 .054687.003906.109375.019531.164063.007813.035156.023437.066406.039063.097656.023437.046875.054687.085937.089843.125.027344.023437.050781.046875.078125.066406.058594.035156.121094.0625.1875.074219.03125.003906.066406.007812.105469.007812.027344 0 .054687 0 .082031-.003906s.050782-.007813.078125-.015625c.046875-.011719.09375-.03125.136719-.058594.066406-.039062.121094-.09375.160156-.160156.011719-.023438.023438-.046875.035156-.074219l-.242187-.050781c-.011719.023438-.027344.042969-.042969.058594-.019531.015625-.035156.03125-.058594.042968-.019531.011719-.042968.019532-.066406.023438-.027344.007812-.054687.011719-.082031.007812-.03125 0-.058594-.003906-.089844-.015624-.027343-.011719-.050781-.027344-.074219-.046876-.023437-.023437-.042968-.046874-.058593-.074218-.007813-.015625-.011719-.03125-.019531-.046875-.003907-.015625-.007813-.03125-.011719-.050781h.773437v-.089844c-.003906-.039063-.007812-.074219-.015625-.109375-.007812-.035157-.015625-.066407-.027343-.097657-.027344-.066406-.066407-.121093-.117188-.167968-.023438-.023438-.046875-.042969-.078125-.0625-.054687-.035156-.113281-.0625-.175781-.074219-.035156-.003906-.070313-.007813-.101563-.007813zm1.347657.015626c-.050782 0-.105469.007812-.15625.027343-.046876.019531-.09375.046875-.132813.085938-.011719.011719-.023437.027343-.039063.039062-.011718.015625-.023437.03125-.035156.046875v-.183594h-.265625v1.011719h.265625v-.324219c0-.039062.003906-.070312.007813-.101562.003906-.035156.007812-.0625.015625-.089844.007812-.027344.015625-.050781.027344-.074218.011718-.023438.023437-.042969.039062-.0625.03125-.035157.070312-.0625.113281-.082032.023438-.007812.046875-.015625.074219-.019531s.058594-.007813.085938-.007813h.058593l.015625-.257812c-.011718-.003906-.019531-.003906-.03125-.003906-.015625-.003906-.027344-.003906-.042968-.003906m-8.953126.015624v.617188c0 .03125 0 .0625.007813.089844.003906.027344.011719.054687.019531.082031.027344.074219.078125.140625.144532.1875.023437.015625.042968.027344.070312.039063.023438.007812.050781.015624.078125.019531.027344.007812.054687.007812.085937.007812s.0625 0 .09375-.007812c.03125-.003907.058594-.011719.085938-.023438.050781-.019531.097656-.050781.140625-.089843v.089843h.265625v-1.011719h-.265625v.449219c0 .027344-.003906.054688-.003906.082031-.003907.023438-.007813.046876-.011719.070313-.007812.019531-.011719.039063-.019531.058594-.007813.019531-.019531.035156-.027344.050781-.023437.027344-.046875.050781-.082031.066406-.015625.007813-.03125.011719-.050782.015625-.019531.003907-.039062.003907-.058593.003907-.015625 0-.03125 0-.042969-.003907-.027344-.003906-.054688-.015625-.074219-.03125-.011719-.007812-.023437-.019531-.03125-.027343-.007812-.011719-.015625-.023438-.023437-.035157-.007813-.015625-.015625-.027343-.019532-.042969-.003906-.015624-.007812-.03125-.011718-.046874 0-.015626 0-.03125 0-.050782v-.558594zm1.835938.203126c.019531 0 .039062 0 .058594.003906.027344.003906.054687.015625.078125.027344.007812.003906.015625.011718.023437.015624.003906.003907.007813.003907.011719.007813s.007813.003906.011719.007813l.019531.019531c.019531.019531.039063.042969.050781.070312.007813.019531.015625.035157.019532.054688.003906.023437.007812.042969.007812.0625.003906.035156.003906.066406-.003906.101562-.003906.027344-.011719.054688-.023438.082031-.007812.019532-.019531.035157-.03125.050782-.015625.019531-.039062.039062-.0625.054687-.039062.027344-.082031.042969-.128906.046875-.019531.003906-.039062.003906-.058594 0-.019531 0-.035156-.003906-.054687-.011718-.027344-.007813-.050781-.019532-.074219-.035157s-.046875-.035156-.066406-.058593c-.027344-.03125-.042969-.0625-.054688-.101563-.003906-.019531-.007812-.039063-.011718-.0625 0-.03125 0-.0625.003906-.097656.007812-.027344.015625-.054688.03125-.082031.007812-.019532.019531-.035157.03125-.050782.011718-.015625.027344-.027344.042968-.039062.015626-.015625.03125-.023438.046876-.035156.015624-.007813.035156-.015626.050781-.019532.027343-.007812.054687-.011718.082031-.011718m1.304688 0c.019531 0 .039062 0 .058593.003906.027344.003906.054688.015625.078125.027344.007813.003906.015625.011718.023438.015624.003906.003907.007812.003907.011718.007813l.011719.007813c.003907.003906.007813.007812.011719.011718l.011719.007813c.019531.019531.035156.042969.046875.070312.007812.019531.015625.035157.019531.054688.007813.03125.011719.066406.011719.097656s-.003906.0625-.011719.09375c-.007813.027344-.019531.054687-.035156.082031-.007813.015625-.019531.03125-.03125.042969-.023438.019531-.042969.039063-.070313.050781-.023437.011719-.050781.023438-.078125.027344-.027343.003906-.058593.007812-.085937.003906-.019532 0-.035156-.003906-.054688-.011718-.027344-.007813-.050781-.019532-.074218-.035157-.015626-.011719-.03125-.023437-.046876-.035156-.019531-.023437-.039062-.046875-.050781-.070313-.011719-.019531-.015625-.035156-.023437-.054687-.003906-.019531-.007813-.039063-.011719-.0625 0-.03125 0-.0625.003906-.097656.007813-.027344.015625-.054688.03125-.082031.007813-.019532.019531-.035157.03125-.050782s.027344-.027344.042969-.039062c.015625-.015625.03125-.023438.046875-.035156.015625-.007813.035156-.015626.050781-.019532.027344-.007812.054688-.011718.082032-.011718m1.191406 0h.035156l.007812.003906c.011719 0 .023438.003906.035157.007812s.023437.007813.03125.011719l.011719.003906c.011718.007813.019531.011719.03125.019531.015624.011719.027343.023438.039062.039063.011719.011719.019531.023437.023438.035156.003906.007813.007812.015625.011718.019531l.003906.011719c0 .007813.003907.015625.007813.023438v.011719h-.488281c.003906-.015626.007812-.027344.011718-.039063l.003907-.007813c.003906-.011718.011719-.023437.019531-.03125.007812-.011718.015625-.023437.023438-.03125l.007812-.007812c.007812-.007812.019531-.015625.027344-.023438.011718-.003906.023437-.011718.03125-.015624l.011718-.007813c.007813-.003906.019532-.007813.03125-.011719.011719-.003906.023438-.007812.035157-.007812h.011719c.011718-.003906.023437-.003906.035156-.003906m2.066406 0h.035156l.011719.003906c.011719 0 .023437.003906.03125.007812.011719.003906.023437.007813.035156.011719l.007813.003906c.011718.007813.019531.011719.03125.019531.011718.007813.019531.015626.027344.023438.003906.003906.007812.007812.007812.007812l.007812.007813.003907.007813c.007812.011718.011719.019531.015625.027343.011718.019531.019531.035157.023437.054688l.003907.011719h-.492188c.003906-.015626.007812-.027344.011719-.039063l.003906-.007813c.007813-.011718.011719-.023437.019531-.03125.007813-.011718.015625-.023437.023438-.03125l.007812-.007812c.007813-.007812.019532-.015625.03125-.023438.007813-.003906.019532-.011718.03125-.015624l.007813-.007813c.011719-.003906.023437-.007813.035156-.011719.007813-.003906.019531-.007812.03125-.007812h.011719c.011718-.003906.023437-.003906.035156-.003906m1.207031 0h.035157l.007812.003906c.011719 0 .023438.003906.035156.007812.011719.003906.023438.007813.03125.011719l.011719.003906c.007813.007813.019531.011719.027344.019531.027343.019532.050781.046876.066406.074219.003906.007813.007813.015625.011719.019531l.003906.011719c0 .007813.003906.015625.007812.023438v.011719h-.488281c.003907-.015626.007813-.027344.011719-.039063l.003906-.007813c.003906-.011718.011719-.023437.019532-.03125.007812-.011718.015624-.023437.023437-.03125l.007813-.007812c.007812-.007812.019531-.015625.027343-.023438.011719-.003906.023438-.011718.03125-.019531h.007813c.011718-.007812.023437-.011719.035156-.015625s.023438-.007812.035156-.007812h.011719c.011719-.003906.023437-.003906.035156-.003906"/></svg>