<svg height="18" viewBox="0 0 18 18" width="18" xmlns="http://www.w3.org/2000/svg"><path d="m12.363281 3.695312-5.820312 4.527344v.257813h2.199219l-3.492188 3.492187v.261719h.386719l5.691406-4.53125v-.257813h-2.070313l3.363282-3.492187v-.257813zm-10.296875 10.507813-.5625.519531-.519531.519532v1.773437h8.523437l.519532-.519531.519531-.515625v-1.777344h-1.003906l-.511719.511719-.511719.507812h-6.410156v-.511718c0-.386719-.011719-.507813-.042969-.507813m.359375-1.714844v-2.453125l.449219-.445312.449219-.449219h4.53125l-.894531.898437-.894532.894532h-3.148437v2.882812h4.816406v-2.882812h-.109375c-.101562 0-.007812-.082032.816406-.738282l.929688-.738281.007812 2.277344.007813 2.273437-.464844.46875-.464844.464844h-6.03125zm7.734375-3.644531c0-.007812.292969-.246094.652344-.53125l.648438-.519531v-.480469h-.914063c-.503906 0-.914063-.011719-.914063-.027344s.042969-.074218.097657-.125l.097656-.09375h5.167969l.507812-.511718.507813-.507813h1.003906v1.777344l-.519531.515625-.519532.519531h-2.90625c-1.601562 0-2.910156-.007813-2.910156-.015625m-.050781-2.066406c0-.007813.242187-.265625.539063-.574219l.539062-.558594h1.5l1.5-.003906v-2.863281h-4.800781v2.863281l.117187.003906.121094.007813-.371094.285156-.367187.285156-.003907-2.167968-.007812-2.164063.90625-.90625h6.074219v4.894531l-.90625.90625h-2.421875c-1.332032 0-2.417969-.003906-2.417969-.007812m-2.652344.414062v-.121094l.515625-.515624c.371094-.367188.535156-.515626.574219-.515626.054687 0 .054687.007813.050781.207032l-.007812.203125-.546875.429687-.566407.429688c-.011718 0-.019531-.054688-.019531-.117188zm0 1.558594v-.125h.929688l-.242188.25h-.6875zm0 0" fill="#bfc1bb"/></svg>