<svg height="18" viewBox="0 0 18 18" width="18" xmlns="http://www.w3.org/2000/svg"><path d="m7.808594.769531-6.027344 2.527344-1.011719 10.640625 5.644531 3.292969 1.140626-1.34375 4.65625 1.3125 5.019531-1.707031-1.433594-5.429688 1.320313-2.695312-2.902344-2.414063v9.261719h-10.429688v-10.429688h9.671875l-.445312-3.015625-2.203125 1.96875zm-3.882813 3.15625v10.148438h10.148438v-10.148438zm6.738281 1.152344c.566407-.027344 1.121094.1875 1.519532.59375l-.539063.625c-.261719-.269531-.613281-.425781-.988281-.4375-.648438 0-1.117188.539063-1.117188 1.199219v.011718c0 .660157.457032 1.210938 1.117188 1.210938.441406 0 .710938-.171875 1.015625-.449219l.539063.542969c-.394532.457031-.976563.710938-1.582032.683594-.523437.007812-1.03125-.195313-1.40625-.570313-.371094-.371093-.574218-.878906-.566406-1.40625v-.011719c-.011719-.53125.199219-1.046874.578125-1.425781.378906-.375.894531-.578125 1.429687-.566406m-5.519531.066406h1.574219c.917969 0 1.476562.542969 1.476562 1.332031v.007813c0 .890625-.695312 1.355469-1.558593 1.355469h-.636719v1.15625h-.855469zm.855469.761719v1.179688h.660156c.425782 0 .671875-.253907.671875-.582032v-.011718c0-.382813-.261719-.585938-.683593-.585938zm-.859375 6.292969h3.855469v.640625h-3.855469zm0 0"/></svg>