<svg height="18" viewBox="0 0 18 18" width="18" xmlns="http://www.w3.org/2000/svg"><path d="m12.859375 1.160156-2.472656.898438 2.464843.890625 2.472657-.894531zm2.519531.9375-2.527344.914063v2.921875l2.527344-.917969zm-5.105468 0-2.476563.898438 2.464844.890625 2.472656-.894531zm2.519531.933594-2.503907.910156v2.949219l2.511719-.910156-.007812-.003907zm-5.050781.003906v2.921875l2.492187.902344v-2.917969zm7.671874.210938c.019532.585937.042969 1.167968.023438 1.78125l2.449219-.886719zm2.527344.9375-2.503906.90625v2.921875l2.503906-.90625zm-10.257812.011718-2.445313.886719 2.445313.886719zm3.691406.304688c.203125-.003906.347656.140625.347656.378906 0 .289063-.21875.605469-.496094.707032-.273437.097656-.496093-.058594-.496093-.347657 0-.292969.222656-.605469.496093-.707031.046876-.019531.097657-.027344.148438-.03125m3.980469.617188-2.476563.898437v2.921875l2.476563-.894531zm-10.175781.007812v1.769531l2.441406-.886719zm2.558593.902344-2.5.90625 2.460938.894531 2.503906-.90625zm5.054688.019531-2.476563.894531v2.925782l2.476563-.898438zm-7.671875.234375-2.445313.886719 2.445313.886719zm5.113281.691406-2.503906.90625v2.921875l2.503906-.90625zm-5.054687.003906v2.921876l2.492187.902343v-2.921875zm12.761718.21875-2.503906.90625v2.921876l2.503906-.90625zm-15.320312.015626v1.769531l2.441406-.886719zm12.734375.921874-2.476563.898438v2.921875l2.476563-.898437zm-10.246094.003907-2.433594.886719 2.433594.882812zm7.683594.921875-2.503907.910156v2.917969l2.503907-.90625zm-10.171875.003906v2.921875l2.488281.902344v-2.917969zm7.613281.894531-2.507813.910157.003907.007812v2.96875l2.511719-.90625-.007813-.007812zm-5.054687.035157v2.921874l2.492187.902344v-2.921875zm12.761718.214843-2.503906.910157v2.917968l2.503906-.90625zm-15.378906.015625-2.445312.886719 2.445312.886719zm12.792969.921875-2.476563.898438v2.921875l2.546875-.921875c-.648437.234375-1.125.40625-.070312.023437zm-15.2968752.003907v2.921874l2.4921872.902344v-2.917968zm12.7343752.925781-2.476563.894531v2.921875l2.476563-.898437zm-10.171875.003906v2.921875c1.230468.445312 5.65625 2.050781 2.488281.902344v-2.921875zm2.488281 3.824219-2.488281-.902344 5.050781 1.828125v-2.921875l-2.492187-.902344v2.921875zm9.480469-3.519532h.003906c.199219-.003906.347656.140626.347656.375 0 .292969-.222656.609376-.496094.707032-.277343.101562-.5-.054688-.5-.34375 0-.292969.222657-.609375.5-.707032.046876-.019531.097657-.027343.144532-.03125zm-4.359375.617188-2.5.90625v2.921875l.265625-.097656 2.234375-.808594zm0 0"/></svg>