<svg height="18" viewBox="0 0 18 18" width="18" xmlns="http://www.w3.org/2000/svg"><path d="m4.429688 4.273438h8.621093c.234375 0 .425781.191406.425781.425781 0 .230469-.191406.421875-.425781.421875h-8.621093c-.230469 0-.421876-.191406-.421876-.421875 0-.234375.191407-.425781.421876-.425781m0 0" fill="#696969"/><path d="m4.507812 3.421875h1.730469v.398437h-1.730469zm0 0" fill="#009fe3"/><path d="m6.773438 3.421875h1.734374v.398437h-1.734374zm0 0" fill="#c7d302"/><path d="m9.011719 3.421875h1.730469v.398437h-1.730469zm0 0" fill="#f07e16"/><path d="m11.238281 3.421875h1.730469v.398437h-1.730469zm0 2.136719h1.730469v2.933594h-1.730469zm0 0" fill="#df2815"/><path d="m9.011719 5.558594h1.734375v4.761718h-1.734375zm0 0" fill="#f07e16"/><path d="m6.773438 5.558594h1.734374v7.132812h-1.734374zm0 0" fill="#c7d302"/><path d="m4.507812 5.558594h1.730469v8.691406h-1.730469zm0 0" fill="#009fe3"/></svg>