<svg height="18" viewBox="0 0 18 18" width="18" xmlns="http://www.w3.org/2000/svg"><path d="m11.527344 3.671875-2.527344 1.460937 2.527344 1.460938zm0 0" fill="#4695eb"/><path d="m6.472656 3.671875v2.921875l2.527344-1.460938zm0 0" fill="#ff004a"/><path d="m11.527344 6.59375-2.527344-1.460938-2.527344 1.460938 2.527344 1.460938zm0 0" fill="#091313"/><path d="m3.804688 8.292969 2.527343 1.457031v-2.917969zm0 0" fill="#4695eb"/><path d="m6.332031 12.671875 2.53125-1.460937-2.53125-1.460938zm0 0" fill="#ff004a"/><path d="m6.332031 6.832031v2.917969l2.53125 1.460938v-2.917969zm0 0" fill="#091313"/><path d="m11.667969 12.671875v-2.921875l-2.53125 1.460938zm0 0" fill="#4695eb"/><path d="m14.195312 8.292969-2.527343-1.460938v2.917969zm0 0" fill="#ff004a"/><path d="m9.136719 11.210938 2.53125-1.460938v-2.917969l-2.53125 1.460938zm0 0" fill="#091313"/><path d="m14.488281.789062h-10.976562c-1.5 0-2.722657 1.222657-2.722657 2.722657v10.976562c0 1.5 1.222657 2.722657 2.722657 2.722657h7.515625l-2.027344-4.925782-1.472656 3.109375h-4.015625c-.492188 0-.90625-.414062-.90625-.90625v-10.976562c0-.492188.414062-.90625.90625-.90625h10.976562c.492188 0 .910157.414062.910157.90625v10.976562c0 .492188-.417969.90625-.910157.90625h-2.382812l.75 1.816407h1.632812c1.5 0 2.722657-1.222657 2.722657-2.722657v-10.976562c0-1.5-1.222657-2.722657-2.722657-2.722657m0 0" fill="#4695eb"/></svg>