<svg height="18" viewBox="0 0 18 18" width="18" xmlns="http://www.w3.org/2000/svg"><path d="m10.929688 2.15625-1.179688.03125-3.53125.011719c-.664062.003906-1.277344.355469-1.617188.929687l-2.144531 4.257813.019531-.023438c-.402343.613281-.433593 1.441407-.058593 2.074219l2.238281 3.714844c.34375.570312.882812.9375 1.632812.910156 1.589844-.058594 2.289063-.058594 2.289063-.058594l4.875 1.824219-.125-.125.097656.09375c.085938.082031.222657-.015625.167969-.117187l-1.257812-2.46875 2.328124-4.214844c.355469-.730469.480469-1.367188.132813-2.007813l-.496094-.910156-.257812-.46875-.097657-.179687-.011718.007812-1.347656-2.335938c-.339844-.59375-.972657-.953124-1.65625-.945312m-4.636719.457031 5.035156 5.535157-.902344.914062.535157 4.300781-5.207032-5.148437 1.289063-1.238282-.757813-4.339843-3.515625 4.363281zm4.679687 10.769531v.011719h-.003906v-.003906zm0 0" fill="#18b6f6"/></svg>