<svg height="18" viewBox="0 0 18 18" width="18" xmlns="http://www.w3.org/2000/svg"><path d="m8.992188 0c-3.367188 0-6.296876 1.847656-7.84375 4.582031 1.207031-.003906 3.5625-.003906 3.5625-.003906v-.003906c2.785156 0 2.886718.015625 3.429687.035156l.335937.015625c1.175782.039062 2.613282.164062 3.75 1.023438.613282.464843 1.503907 1.492187 2.03125 2.222656.492188.675781.632813 1.453125.300782 2.199218-.308594.683594-.96875 1.09375-1.765625 1.09375h-12.5s.074219.316407.1875.664063h17.0625c.300781-.910156.457031-1.863281.457031-2.824219 0-4.972656-4.035156-9.003906-9.007812-9.003906m-4.285157 5.480469c-1.277343 0-2.664062.003906-4.015625.007812-.175781.472657-.34375.929688-.425781 1.300781h7.003906v.914063h-7.1874998c-.0429687.300781-.0703124.601563-.0820312.90625h13.671875c-.046875-.09375-.113281-.179687-.175781-.261719-2.335938-3.019531-3.59375-2.757812-5.394532-2.832031-.597656-.027344-1.003906-.035156-3.390624-.035156m-4.7031255 4.042969c.0117187.238281.0351563.480468.0703125.71875h12.714844c.566406 0 .882812-.320313.988281-.71875zm.7851565 3.207031s2.105469 5.175781 8.199219 5.269531c3.640624 0 6.765624-2.164062 8.1875-5.269531zm0 0" fill="#fff"/></svg>