<svg height="18" viewBox="0 0 18 18" width="18" xmlns="http://www.w3.org/2000/svg"><path d="m8.992188 0c-3.367188 0-6.292969 1.851562-7.839844 4.582031l-.058594.105469h.117188c1.199218-.003906 3.535156-.003906 3.535156-.003906h.070312c2.597656 0 2.800782.011718 3.332032.03125l.332031.011718c1.160156.039063 2.574219.167969 3.679687 1.003907.597656.449219 1.480469 1.46875 2.003906 2.191406.472657.65625.605469 1.394531.285157 2.113281-.292969.652344-.917969 1.042969-1.683594 1.042969h-12.488281l.019531.085937s.074219.3125.183594.664063l.015625.046875h17.027344l.019531-.046875c.300781-.910156.457031-1.863281.457031-2.824219 0-4.96875-4.035156-9.003906-9.007812-9.003906zm0 .140625c4.898437 0 8.867187 3.96875 8.867187 8.863281 0 .929688-.152344 1.847656-.4375 2.730469h-16.820313c-.054687-.171875-.101562-.34375-.144531-.515625h12.308594c.816406 0 1.496094-.421875 1.8125-1.128906.339844-.761719.195313-1.5625-.300781-2.25-.53125-.730469-1.410156-1.75-2.035156-2.222656-1.144532-.867188-2.589844-.988282-3.757813-1.027344l-.332031-.011719c-.539063-.023437-.644532-.035156-3.40625-.035156h-.070313c-.082031 0-2.128906 0-3.335937.003906 1.539062-2.632813 4.382812-4.40625 7.652344-4.40625m-4.246094 5.296875c-1.269532 0-2.648438.003906-3.988282.007812h-.046874l-.019532.042969c-.171875.472657-.339844.925781-.425781 1.304688l-.019531.085937h6.96875v.765625h-7.121094l-.0078125.058594c-.0429687.300781-.0703125.601563-.08203125.90625l-.00390625.070313h13.75l-.050781-.101563c-.050781-.097656-.117188-.183594-.183594-.265625-1.164063-1.503906-2.066406-2.199219-2.90625-2.523438-.839844-.328124-1.605469-.277343-2.496094-.316406-.59375-.023437-1-.035156-3.367187-.035156m0 .140625c2.367187 0 2.765625.007813 3.363281.035156.894531.035157 1.640625-.007812 2.449219.304688.8125.3125 1.691406.988281 2.847656 2.480469.039062.046874.066406.09375.097656.144531h-13.355468c.011718-.253907.035156-.507813.070312-.761719h7.136719v-1.042969h-6.925781c.082031-.335937.222656-.734375.378906-1.152343 1.324218-.003907 2.683594-.007813 3.9375-.007813m-4.74218775 3.871094.00781255.074219c.0117187.242187.0351562.480468.0664062.71875l.0117188.058593h12.6757812c.585937 0 .9375-.34375 1.046875-.765625l-.070312.050782v-.136719zm.15234375.136719h13.484375c-.117187.328124-.386719.578124-.875.578124h-12.554687c-.023438-.191406-.042969-.382812-.054688-.578124m.597656 3.046874.039063.097657s2.117187 5.175781 8.199219 5.269531c3.640624 0 6.769531-2.164062 8.1875-5.269531l.046874-.097657zm.21875.140626h16.027344c-1.421875 3-4.464844 5.085937-8.007812 5.085937-5.820313-.089844-7.898438-4.796875-8.019532-5.085937" fill="#fff"/></svg>