<svg height="18" viewBox="0 0 18 18" width="18" xmlns="http://www.w3.org/2000/svg"><path d="m5.71875 0c-.09375.00390625-.191406.0351562-.304688.125-.277343-.1054688-.542968-.140625-.785156.070312-.371094-.046874-.488281.050782-.582031.164063-.082031 0-.605469-.082031-.847656.273437-.609375-.070312-.800781.351563-.582031.746094-.125.191406-.253907.375.035156.738282-.101563.199218-.039063.417968.203125.679687-.0625.285156.0625.484375.289062.636719-.042969.386718.359375.613281.476563.691406.046875.226562.144531.4375.601562.554688.078125.335937.351563.394531.617188.464843-.878906.503907-1.636719 1.167969-1.632813 2.800781l-.128906.226563c-1.011719.605469-1.921875 2.554687-.5 4.136719.09375.496094.25.851562.390625 1.246094.207031 1.589843 1.5625 2.332031 1.917969 2.417968.523437.394532 1.082031.769532 1.839843 1.027344.710938.726562 1.480469 1 2.257813 1h.03125c.777344 0 1.546875-.273438 2.257813-1 .757812-.257812 1.316406-.632812 1.839843-1.027344.355469-.085937 1.710938-.828125 1.917969-2.417968.140625-.394532.296875-.75.390625-1.246094 1.421875-1.582032.511719-3.53125-.5-4.136719l-.128906-.226563c.003906-1.632812-.753907-2.296874-1.632813-2.800781.265625-.070312.539063-.128906.617188-.464843.457031-.117188.554687-.328126.601562-.554688.117188-.078125.519532-.304688.476563-.691406.226562-.15625.351562-.355469.289062-.636719.242188-.261719.304688-.480469.203125-.679687.289063-.363282.160156-.546876.035156-.738282.21875-.394531.027344-.816406-.582031-.746094-.242187-.355468-.765625-.273437-.847656-.273437-.09375-.113281-.210937-.210937-.582031-.164063-.242188-.210937-.507813-.1757808-.785156-.070312-.328126-.253906-.546876-.0507812-.792969.027344-.398438-.1289065-.488281.046875-.683594.117187-.433594-.089843-.566406.105469-.773437.3125l-.242188-.003906c-.652344.378906-.980469 1.152344-1.09375 1.550781-.117188-.398437-.441406-1.171875-1.09375-1.550781l-.242188.003906c-.207031-.207031-.339843-.402343-.773437-.3125-.195313-.070312-.285156-.2460935-.683594-.117187-.164062-.050782-.3125-.15625025-.488281-.152344zm6.574219.457031c-.089844.109375-.214844.21875-.082031.34375.183593-.113281.371093-.230469.8125-.3125-.097657.109375-.304688.222657-.179688.332031.230469-.089843.488281-.152343.773438-.191406-.136719.113282-.25.222656-.136719.308594.25-.074219.59375-.179688.925781-.089844l-.210938.214844c-.023437.027344.496094.019531.839844.027344-.125.171875-.253906.339844-.328125.640625.035157.035156.207031.015625.367188 0-.164063.34375-.453125.433593-.519531.582031.101562.074219.242187.054688.394531.003906-.121094.242188-.367188.410156-.5625.609375.046875.035157.136719.054688.339843.03125-.179687.191407-.398437.367188-.660156.527344.046875.054687.203125.050781.351563.054687-.234375.230469-.539063.347657-.824219.5.144531.097657.246094.074219.351562.074219-.199218.164063-.539062.25-.855468.347657.058594.09375.117187.121093.246094.144531-.332032.1875-.8125.101562-.949219.199219.03125.089843.125.152343.234375.203124-.539063.03125-2.015625-.019531-2.296875-1.136718.550781-.605469 1.558593-1.320313 3.292969-2.199219-1.347657.449219-2.566407 1.050781-3.585938 1.878906-1.199219-.554687-.371094-1.964843.214844-2.523437.027344.148437.0625.242187.101562.269531.1875-.203125.34375-.414063.589844-.609375 0 .117188-.058594.242188.085938.332031.132812-.175781.308593-.335937.546874-.46875-.113281.195313-.019531.257813.039063.335938.179687-.152344.351563-.308594.683594-.429688m-6.539063 0c.332032.121094.503906.277344.683594.429688.0625-.078125.15625-.140625.042969-.335938.234375.136719.414062.292969.542969.46875.148437-.089843.085937-.214843.089843-.332031.242188.195312.398438.40625.589844.609375.039063-.027344.070313-.121094.101563-.269531.585937.558594 1.410156 1.96875.210937 2.523437-1.019531-.828125-2.234375-1.429687-3.585937-1.878906 1.734374.878906 2.742187 1.59375 3.296874 2.199219-.285156 1.117187-1.757812 1.167968-2.300781 1.136718.113281-.050781.203125-.113281.238281-.203124-.136718-.097657-.617187-.011719-.953124-.199219.128906-.023438.191406-.050781.25-.144531-.316407-.097657-.65625-.183594-.859376-.347657.109376 0 .210938.023438.351563-.074219-.285156-.152343-.585937-.269531-.820313-.5.144532-.003906.304688 0 .347657-.054687-.257813-.160156-.476563-.335937-.660157-.527344.207032.023438.292969.003907.34375-.03125-.195312-.199219-.445312-.367187-.5625-.609375.152344.050782.289063.070313.390626-.003906-.066407-.148438-.351563-.238281-.515626-.582031.160157.015625.328126.035156.363282 0-.074219-.300781-.203125-.46875-.328125-.640625.34375-.007813.863281 0 .839843-.027344l-.210937-.214844c.335937-.089844.679687.015625.929687.089844.109376-.085938-.003906-.195312-.140624-.308594.285156.039063.542968.101563.777343.191406.121094-.109374-.082031-.222656-.183593-.332031.441406.082031.628906.199219.816406.3125.132812-.125.003906-.234375-.085938-.34375m3.28125 4.601563c.847656-.011719 1.902344.625 1.898438 1.21875-.003906.527344-.738282.957031-1.890625.949218-1.128907-.015624-1.890625-.539062-1.886719-1.046874.003906-.421876.921875-1.144532 1.878906-1.121094zm-2.796875.355468c.195313-.003906.390625.011719.585938.042969.589843.097657-2.832031 3.042969-2.886719 2.386719-.046875-1.5.96875-2.40625 2.300781-2.429688m5.605469.050782c1.328125.023437 2.347656.929687 2.300781 2.429687-.054687.65625-3.476562-2.289062-2.886719-2.386719.195313-.03125.390626-.046874.585938-.042968m-.746094 1.828125c.6875-.007813 1.417969.375 1.878906 1.0625.671876.996093.515626 2.257812-.34375 2.8125-.863281.554687-2.101562.195312-2.773437-.800781-.667969-1-.515625-2.257813.347656-2.8125.269531-.175782.574219-.257813.890625-.261719m-4.105468.097656c.316406.003906.621093.089844.890624.261719.859376.558594 1.015626 1.816406.347657 2.816406-.671875.996094-1.910157 1.355469-2.773438.800781-.859375-.558593-1.015625-1.816406-.347656-2.816406.460937-.683594 1.191406-1.070313 1.882813-1.0625m7.300781 1.117187c.027343 0 .054687.003907.082031.011719 1.542969.867188 1.273438 2.796875.441406 3.457031-.730468.320313-1.332031-3.457031-.523437-3.46875m-10.578125.050782c.808594.011718.207031 3.789062-.527344 3.464844-.832031-.65625-1.097656-2.589844.445312-3.457032.027344-.007812.054688-.007812.082032-.007812m5.320312 2.589844c1.144532-.007813 2.082032.835937 2.085938 1.878906v.019531c.007812 1.039063-.917969 1.890625-2.066406 1.894531-1.148438.007813-2.082032-.832031-2.089844-1.875v-.019531c-.003906-1.042969.921875-1.894531 2.070312-1.898437zm4.585938.710937c.164062-.003906.324218.046875.453125.144531.367187.363282.585937 1.726563-.058594 2.542969-.890625 1.214844-2.097656 1.265625-2.542969.925781-.46875-.4375-.113281-1.789062.53125-2.53125.550782-.613281 1.132813-1.070312 1.617188-1.082031m-9.261719.289063c.523437.023437 1.148437.429687 1.660156 1.015624.59375.707032.863281 1.945313.367188 2.308594-.46875.28125-1.605469.164063-2.417969-.980468-.546875-.960938-.476562-1.941407-.089844-2.226563.140625-.085937.304688-.125.480469-.117187zm4.75 3.378906c.835937-.035156 1.953125.265625 1.957031.664062.015625.386719-1.015625 1.265625-2.011718 1.246094-1.035157.042969-2.046876-.832031-2.03125-1.136719-.015626-.445312 1.253906-.792969 2.085937-.773437zm0 0" fill="#c51850"/></svg>