<svg height="18" viewBox="0 0 18 18" width="18" xmlns="http://www.w3.org/2000/svg"><path d="m8.859375 0c-1.550781.0195312-3.078125.539062-4.351563 1.414062-2.554687 1.210938-4.289062 3.925782-4.34375 6.75.03125.878907-.0625 1.761719.082032 2.632813.375 2.503906 2.046875 4.769531 4.34375 5.835937 2.332031 1.644532 5.582031 1.820313 8.078125.449219.59375-.371093 1.21875-.675781 1.800781-1.058593 2.253906-1.53125 3.585938-4.308594 3.339844-7.027344.257812-2.839844-1.222656-5.75-3.667969-7.222656-.488281-.277344-.972656-.550782-1.453125-.84375-1.167969-.628907-2.5-.9531255-3.828125-.929688m.011719.542969c.453125-.007813.90625.027343 1.351562.101562-.578125-.03125-1.144531.175781-1.714844.039063-.222656-.03125-.5625-.027344-.714843-.042969.359375-.058594.71875-.089844 1.078125-.097656m-1.40625.65625c-.800782.339843-1.53125.832031-2.136719 1.453125-.835937.207031-1.648437.617187-2.320313 1.117187.515626-.785156 1.171876-1.503906 1.976563-1.984375.78125-.339844 1.625-.550781 2.480469-.585937m3.066406 0c.933594.050781 1.882812.257812 2.703125.714843.695313.503907 1.292969 1.136719 1.753906 1.859376-.691406-.535157-1.511719-.898438-2.34375-1.140626-.601562-.613281-1.324219-1.097656-2.113281-1.433593m-1.535156.105469c.972656.171874 1.898437.585937 2.675781 1.1875-.90625-.078126-1.84375.066406-2.675781.441406-.832032-.378906-1.765625-.515625-2.675782-.441406.78125-.601563 1.707032-1.015626 2.675782-1.1875zm-2.300782 1.707031c.566407 0 1.132813.070312 1.667969.257812-.660156.382813-1.125 1-1.664062 1.523438-.421875.28125-.96875.246093-1.460938.429687-.308593.09375-.605469.214844-.890625.363282.1875-.910157.636719-1.804688 1.300782-2.449219.34375-.078125.695312-.113281 1.046874-.125m4.476563 0c.410156.019531.875.003906 1.246094.175781.605469.667969 1.0625 1.527344 1.222656 2.398438-.617187-.339844-1.316406-.480469-1.996094-.625-.304687-.0625-.585937-.375-.796875-.632813-.355468-.40625-.769531-.773437-1.214844-1.058594.492188-.175781 1.019532-.246093 1.535157-.257812zm-6.476563.417969c-.53125.75-.847656 1.652343-.96875 2.550781-.738281.53125-1.316406 1.265625-1.707031 2.082031-.128906-.980469-.03125-2.007812.328125-2.933594.632813-.738281 1.441406-1.328125 2.347656-1.699218zm8.605469 0c.910157.378906 1.746094.976562 2.371094 1.742187.328125.925781.433594 1.917969.304687 2.890625-.386718-.835938-1.011718-1.5625-1.726562-2.117188-.09375-.898437-.4375-1.769531-.949219-2.515624zm-4.304687.101562c.761718.355469 1.3125 1.023438 1.875 1.617188.398437.359374.8125.363281 1.328125.492187.542969.113281 1.070312.324219 1.535156.628906.070313.851563-.238281 1.652344-.46875 2.453125-.128906.742188.367187 1.402344.425781 2.132813.019532.292969.109375.640625.007813.902343-.695313.480469-1.535157.601563-2.332031.804688-.699219.257812-1.023438 1.011719-1.621094 1.425781-.242188.167969-.507813.417969-.789063.460938-.753906-.355469-1.28125-1.015625-1.839843-1.597657-.550782-.484374-1.355469-.390624-1.996094-.683593-.296875-.121094-.625-.25-.863282-.453125-.070312-.855469.253907-1.65625.476563-2.460938.101563-.730468-.367187-1.382812-.433594-2.101562-.039062-.292969-.054687-.585938-.042969-.882813.679688-.476562 1.535157-.632812 2.304688-.800781.324219-.085938.703125-.410156.945312-.730469.421876-.484375.910157-.914062 1.488282-1.207031m-6.621094.234375c-.324219.5-.441406 1.105469-.855469 1.546875-.113281.125-.347656.558594-.355469.535156.285157-.757812.691407-1.460937 1.210938-2.082031zm13.246094 0c.527344.628906.945312 1.367187 1.226562 2.125-.261718-.523437-.726562-.914063-.898437-1.480469-.097657-.21875-.207031-.4375-.328125-.644531zm-14.148438 2.664063c-.109375.863281-.035156 1.75.191406 2.585937-.242187.828125-.292968 1.703125-.191406 2.558594-.421875-.835938-.71875-1.761719-.730468-2.699219.089843-.847656.332031-1.6875.730468-2.445312m15.050782 0c.417968.824218.699218 1.738281.734374 2.664062-.09375.863281-.332031 1.710938-.734374 2.480469.097656-.859375.046874-1.738281-.195313-2.566407.238281-.835937.296875-1.71875.195313-2.578124zm-12.804688.246093c-.011719.75.308594 1.523438.480469 2.183594.042969.558594-.304688 1.058594-.375 1.609375-.058594.28125-.097657.570312-.109375.859375-.695313-.617187-1.203125-1.4375-1.480469-2.320313.269531-.890624.785156-1.710937 1.484375-2.332031m10.558594 0c.691406.628907 1.246094 1.457031 1.476562 2.363281-.285156.871094-.789062 1.679688-1.476562 2.289063 0-.761719-.292969-1.464844-.480469-2.183594-.058594-.472656.25-.945312.335937-1.441406.082032-.335937.136719-.679687.144532-1.027344m-12.257813 3.265625c.390625.828125.984375 1.5625 1.722657 2.101563.078124.90625.460937 1.804687.945312 2.53125-.917969-.390625-1.777344-.984375-2.382812-1.777344-.304688-.917969-.417969-1.898437-.285157-2.855469m13.953125 0c.125.988282.042969 2.035156-.34375 2.953125-.632812.730469-1.433594 1.316407-2.332031 1.683594.519531-.753906.867187-1.628906.953125-2.539063.742188-.535156 1.332031-1.273437 1.722656-2.097656m-14.824218 2.171875c.246093.511719.710937.886719.875 1.4375.097656.234375.222656.453125.339843.675781-.523437-.625-.929687-1.347656-1.214843-2.113281m15.699218 0c-.285156.765625-.691406 1.488281-1.21875 2.113281.257813-.386718.363282-.859374.625-1.234374.214844-.28125.421875-.566407.59375-.878907zm-12.503906.300781c.660156.382813 1.417969.476563 2.136719.675782.503906.234375.789062.828125 1.25 1.171875.199219.175781.410156.335937.636719.476562-.882813.292969-1.863282.335938-2.761719.109375-.625-.679687-1.082031-1.527344-1.261719-2.433594m9.304688 0c-.179688.914063-.640626 1.765626-1.269532 2.449219-.902344.199219-1.882812.171875-2.746094-.128906.652344-.375 1.113282-.984375 1.636719-1.507813.433594-.300781 1.066407-.265624 1.570313-.472656.28125-.089844.550781-.203125.808594-.339844m-10.652344 1.808594c.691406.53125 1.496094.914063 2.339844 1.128906.597656.628907 1.335937 1.113282 2.132812 1.457032-.949219-.0625-1.921875-.261719-2.746094-.742188-.675781-.507812-1.269531-1.128906-1.726562-1.84375m12 0c-.519532.789063-1.175782 1.519532-1.992188 2-.78125.34375-1.621094.542969-2.476562.585938.796875-.34375 1.535156-.835938 2.136718-1.457032.84375-.214843 1.644532-.597656 2.332032-1.128906m-6 .851563c.832031.367187 1.761718.511719 2.671875.441406-.792969.601563-1.738281 1.050781-2.726563 1.175781-.945312-.179687-1.855468-.585937-2.613281-1.175781.90625.070313 1.832031-.070313 2.667969-.441406zm0 2.179687c.398437.070313.800781.097656 1.203125.105469-.796875.136719-1.609375.136719-2.40625 0 .40625-.007813.804687-.035156 1.203125-.105469" fill="#7b61c1"/></svg>