<svg height="18" viewBox="0 0 18 18" width="18" xmlns="http://www.w3.org/2000/svg"><path d="m9.242188 3.03125 3.761718 3.804688c-.058594.0625-.105468.113281-.152344.164062-1.339843 1.34375-2.679687 2.683594-4.015624 4.027344-1.386719 1.394531-2.773438 2.792968-4.15625 4.191406-.128907.132812-.195313.128906-.324219 0-.769531-.789062-1.554688-1.566406-2.332031-2.351562-.515626-.519532-1.023438-1.042969-1.539063-1.5625-.035156-.039063-.070313-.082032-.105469-.125 2.847656-2.820313 5.6875-5.632813 8.570313-8.488282.0625.070313.171875.203125.292969.339844m0 0" fill="#6ac6e7"/><path d="m16.542969 10.3125c.402343.394531.796875.78125 1.148437 1.125-1.308594 1.359375-2.597656 2.699219-3.878906 4.027344-2.359375-1.734375-2.453125-6.210938-.15625-8.007813.960938.949219 1.917969 1.898438 2.886719 2.855469m0 0" fill="#f45848"/></svg>