<svg height="18" viewBox="0 0 18 18" width="18" xmlns="http://www.w3.org/2000/svg"><g fill="#61dafb"><path d="m10.601562 9c0 .886719-.714843 1.601562-1.601562 1.601562s-1.601562-.714843-1.601562-1.601562.714843-1.601562 1.601562-1.601562 1.601562.714843 1.601562 1.601562zm0 0"/><path d="m15.089844 6.355469c-.308594-.113281-.632813-.222657-.972656-.324219.085937-.335938.15625-.671875.210937-.996094.296875-1.855468-.027344-3.164062-.925781-3.671875-.269532-.152343-.5625-.222656-.902344-.222656-.984375 0-2.234375.730469-3.5 1.953125-1.265625-1.222656-2.515625-1.953125-3.5-1.953125-.339844 0-.632812.070313-.902344.222656-.898437.519531-1.222656 1.828125-.925781 3.671875.054687.324219.125.660156.210937.996094-.339843.101562-.664062.199219-.972656.324219-1.757812.675781-2.714844 1.605469-2.714844 2.644531s.972657 1.96875 2.714844 2.644531c.308594.113281.632813.222657.972656.324219-.085937.335938-.15625.671875-.210937.996094-.296875 1.855468.027344 3.164062.925781 3.671875.269532.152343.5625.222656.902344.222656.996094 0 2.25-.730469 3.5-1.953125 1.265625 1.222656 2.515625 1.953125 3.5 1.953125.339844 0 .632812-.070313.902344-.222656.898437-.519531 1.222656-1.828125.925781-3.671875-.054687-.324219-.125-.660156-.210937-.996094.339843-.101562.664062-.199219.972656-.324219 1.757812-.675781 2.714844-1.605469 2.714844-2.644531s-.957032-1.96875-2.714844-2.644531m-2.082032-4.289063c.578126.339844.773438 1.378906.535157 2.855469-.042969.296875-.113281.605469-.199219.929687-.730469-.171874-1.503906-.28125-2.320312-.351562-.476563-.675781-.96875-1.28125-1.460938-1.828125 1.039062-1.027344 2.09375-1.730469 2.953125-1.730469.183594 0 .351563.042969.492187.125m-1.574218 8.339844c-.253906.449219-.550782.898438-.859375 1.351562-.519531.039063-1.039063.054688-1.574219.054688-.546875 0-1.070312-.015625-1.574219-.054688-.308593-.453124-.589843-.902343-.84375-1.351562-.269531-.464844-.519531-.941406-.746093-1.40625.226562-.464844.476562-.941406.746093-1.40625.253907-.449219.546875-.898438.855469-1.351562.523438-.039063 1.042969-.054688 1.578125-.054688.546875 0 1.066406.015625 1.574219.054688.308594.453124.589844.902343.84375 1.351562.265625.464844.519531.941406.746094 1.40625-.242188.464844-.480469.929688-.746094 1.40625m1.167968-.464844c.210938.492188.378907.972656.53125 1.449219-.476562.113281-.984374.195313-1.515624.265625.167968-.265625.351562-.546875.503906-.84375.167968-.292969.324218-.589844.480468-.871094m-3.601562 3.8125c-.335938-.367187-.660156-.761718-.96875-1.167968.320312.015624.644531.027343.96875.027343s.648438-.011719.96875-.027343c-.308594.40625-.632812.800781-.96875 1.167968m-2.617188-2.109375c-.53125-.070312-1.039062-.15625-1.515624-.269531.152343-.460938.320312-.953125.53125-1.445312.15625.28125.3125.574218.480468.855468.167969.308594.335938.578125.503906.859375m-.984374-3.585937c-.210938-.492188-.378907-.972656-.53125-1.449219.476562-.113281.984374-.195313 1.515624-.265625-.167968.265625-.351562.546875-.503906.84375-.167968.292969-.324218.589844-.480468.871094m3.601562-3.8125c.335938.367187.660156.761718.96875 1.167968-.320312-.015624-.644531-.027343-.96875-.027343s-.648438.011719-.96875.027343c.308594-.40625.632812-.800781.96875-1.167968m3.121094 2.953125-.503906-.84375c.53125.070312 1.039062.15625 1.515624.269531-.152343.460938-.320312.953125-.53125 1.445312-.15625-.292968-.3125-.589843-.480468-.871093m-7.664063-2.277344c-.238281-1.476563-.042969-2.515625.535157-2.855469.140624-.082031.308593-.125.492187-.125.84375 0 1.898437.6875 2.953125 1.730469-.492188.53125-.984375 1.152344-1.460938 1.828125-.816406.070312-1.589843.195312-2.320312.351562-.085938-.324218-.140625-.632812-.199219-.929687m-3.472656 4.078125c0-.660156.800781-1.363281 2.207031-1.882812.28125-.113282.589844-.210938.902344-.296876.222656.703126.503906 1.449219.84375 2.195313-.339844.742187-.632812 1.476563-.84375 2.179687-1.941406-.5625-3.109375-1.40625-3.109375-2.195312m4.007813 6.933594c-.578126-.339844-.773438-1.378906-.535157-2.855469.042969-.296875.113281-.605469.199219-.929687.730469.171874 1.503906.28125 2.320312.351562.476563.675781.96875 1.28125 1.460938 1.828125-1.039062 1.027344-2.09375 1.730469-2.953125 1.730469-.183594 0-.351563-.042969-.492187-.125m8.550781-2.855469c.238281 1.476563.042969 2.515625-.535157 2.855469-.140624.082031-.308593.125-.492187.125-.84375 0-1.898437-.6875-2.953125-1.730469.492188-.53125.984375-1.152344 1.460938-1.828125.816406-.070312 1.589843-.195312 2.320312-.351562.085938.324218.140625.632812.199219.929687m1.265625-2.195313c-.28125.113282-.589844.210938-.902344.296876-.222656-.703126-.503906-1.449219-.84375-2.195313.339844-.742187.632812-1.476563.84375-2.179687 1.941406.5625 3.109375 1.40625 3.109375 2.195312 0 .660156-.816406 1.363281-2.207031 1.882812"/></g></svg>