<svg height="18" viewBox="0 0 18 18" width="18" xmlns="http://www.w3.org/2000/svg"><g fill="none" stroke="#fff" stroke-linecap="round" stroke-linejoin="round" stroke-width="2" transform="scale(.75)"><path d="m4 2v20l2-1 2 1 2-1 2 1 2-1 2 1 2-1 2 1v-20l-2 1-2-1-2 1-2-1-2 1-2-1-2 1zm8 4.5v11"/><path d="m15 9.401042c-1.088542-1.276042-2.854167-1.734375-4.427083-1.151042-1.567709.578125-2.614584 2.072917-2.614584 3.75s1.046875 3.171875 2.614584 3.75c1.572916.583333 3.338541.125 4.427083-1.151042"/></g></svg>