<svg height="18" viewBox="0 0 18 18" width="18" xmlns="http://www.w3.org/2000/svg"><path d="m17.976562.0234375h-17.9531245v17.9531245h17.9531245v-3.371093h-1.164062v2.425781h-.632812v-2.425781h-1.1875v-.609375h2.984374zm-10.261718 13.9726565h3.03125v.609375h-2.425782v.605469h1.1875v.605468h-1.1875v.605469h2.425782v.609375h-3.03125zm3.636718 0h3.007813v.609375h-2.398437v1.816406h2.398437v.609375h-3.007813zm-7.300781 0h3.03125v1.820312h-.605469v.605469h-.605468v-.605469h-1.214844v1.214844h-.605469zm2.425781 2.425781v.609375h.605469v-.609375zm0-1.816406v.605469h-1.820312v-.605469zm0 0" fill="#292929" fill-rule="evenodd"/></svg>