<svg height="18" viewBox="0 0 18 18" width="18" xmlns="http://www.w3.org/2000/svg"><path d="m.871094 7.410156c.941406.449219 6.144531 2.546875 6.960937 2.941406.816407.390626 1.40625.390626 2.449219-.140624 1.039062-.550782 5.933594-2.546876 6.875-3.039063.476562-.253906.6875-.449219.6875-.617187v-1.757813c0-.183594-.238281-.339844-.703125-.507813-.914063-.335937-5.777344-2.265624-6.707031-2.617187-.925782-.335937-1.308594-.320313-2.402344.070313-1.097656.394531-6.257812 2.421874-7.1875 2.785156-.449219.183594-.703125.339844-.703125.519531h-.027344v1.789063c.027344.167968.292969.351562.757813.574218m8.496094.253906-2.855469-1.179687 4.089843-.632813zm6.199218-2.8125-2.417968.957032-.265626.097656-2.421874-.957031 2.6875-1.054688zm-7.113281-1.757812-.394531-.730469 1.238281.476563 1.164063-.378906-.308594.757812 1.183594.453125-1.535157.152344-.335937.832031-.550782-.914062-1.769531-.15625zm-3.054687 1.027344c1.210937 0 2.195312.378906 2.195312.84375s-.984375.84375-2.195312.84375c-1.207032 0-2.191407-.378906-2.191407-.84375s.984375-.84375 2.191407-.84375m11.757812 4.289062c-.941406.492188-5.820312 2.503906-6.863281 3.035156-1.039063.550782-1.617188.535157-2.433594.140626-.8125-.390626-6.046875-2.488282-6.972656-2.9375-.480469-.226563-.746094-.40625-.746094-.589844v1.785156c0 .183594.265625.367188.730469.589844.941406.449218 6.144531 2.546875 6.960937 2.941406.816407.390625 1.40625.390625 2.449219-.140625 1.039062-.550781 5.933594-2.546875 6.875-3.039063.476562-.253906.6875-.449218.6875-.617187v-1.757813c0 .152344-.222656.351563-.6875.589844m0 2.910156c-.941406.492188-5.820312 2.503907-6.863281 3.039063-1.039063.546875-1.617188.53125-2.433594.140625-.8125-.394531-6.046875-2.492188-6.972656-2.941406-.480469-.210938-.746094-.40625-.746094-.589844v1.785156c0 .183594.265625.367188.730469.589844.941406.453125 6.144531 2.546875 6.960937 2.941406.816407.394532 1.40625.394532 2.449219-.140625 1.039062-.550781 5.933594-2.546875 6.875-3.039062.476562-.253907.6875-.449219.6875-.617188v-1.757812c0 .167969-.222656.351562-.6875.589843" fill="#d82c20"/></svg>