<svg height="18" viewBox="0 0 18 18" width="18" xmlns="http://www.w3.org/2000/svg"><g fill="none" stroke="#fff" stroke-linecap="round" stroke-linejoin="round" stroke-width="2" transform="scale(.75)"><path d="m21 8-2.260417-2.260417c-1.807291-1.75-4.223958-2.729166-6.739583-2.739583-1 0-1.96875.161458-2.869792.46875m-1.130208 12.53125h-5v5m0-9c0-2.489583 1-4.739583 2.640625-6.359375"/><path d="m3 16 2.260417 2.260417c1.807291 1.75 4.223958 2.729166 6.739583 2.739583 2.489583 0 4.739583-1 6.359375-2.640625m2.640625-6.359375c0 1-.161458 1.96875-.46875 2.869792m.46875-11.869792v5h-5m6 14-20-20"/></g></svg>