<svg height="18" viewBox="0 0 18 18" width="18" xmlns="http://www.w3.org/2000/svg"><path d="m1.546875 1.125c0-.296875.117187-.585938.332031-.796875.210938-.210937.496094-.328125.796875-.328125h5.265625c.300782 0 .585938.117188.796875.328125.214844.210937.332031.5.332031.796875v4.875h-6.394531c-.300781 0-.585937-.117188-.796875-.328125-.210937-.210937-.332031-.5-.332031-.796875zm7.523437 4.875h6.394532c.300781 0 .585937.117188.796875.328125.214843.210937.332031.5.332031.796875v3.75c0 .296875-.117188.585938-.332031.796875-.210938.210937-.496094.328125-.796875.328125h-6.394532zm-7.523437 7.125c0-.296875.117187-.585938.332031-.796875.210938-.210937.496094-.328125.796875-.328125h6.394531v4.875c0 .296875-.117187.585938-.332031.796875-.210937.210937-.496093.328125-.796875.328125h-5.265625c-.300781 0-.585937-.117188-.796875-.328125-.210937-.210937-.332031-.5-.332031-.796875zm0 0" fill="#f26207"/></svg>