<svg height="18" viewBox="0 0 18 18" width="18" xmlns="http://www.w3.org/2000/svg" xmlns:xlink="http://www.w3.org/1999/xlink"><linearGradient id="a" gradientUnits="userSpaceOnUse" x1="13.26515653125" x2="2.85890625" y1="8.34890610937" y2="2.37796875"><stop offset="0" stop-color="#dd1265"/><stop offset=".48" stop-color="#dd1265"/><stop offset=".94" stop-color="#fdb60d"/></linearGradient><linearGradient id="b" gradientUnits="userSpaceOnUse" x1="7.07765653125" x2="11.2021880625" y1="1.794375" y2="13.18500028125"><stop offset=".14" stop-color="#087cfa"/><stop offset=".48" stop-color="#dd1265"/><stop offset=".96" stop-color="#087cfa"/></linearGradient><linearGradient id="c" gradientUnits="userSpaceOnUse" x1="3.98812514063" x2="7.0340625" y1="2.1459375" y2="12.97406278125"><stop offset=".28" stop-color="#dd1265"/><stop offset=".97" stop-color="#fdb60d"/></linearGradient><path d="m17.230469 7.152344-11.539063-6.402344 7.722656 11.476562 1.589844-1.039062zm0 0" fill="url(#a)"/><path d="m12.625 4.542969-1.445312-3.535157-3.195313 3.148438 1.308594 11.421875 3.097656 1.628906 4.839844-2.824219zm0 0" fill="url(#b)"/><path d="m5.691406.75-4.921875 3.316406 1.832031 11.300782 4.714844 1.8125 6.101563-4.953126zm0 0" fill="url(#c)"/><path d="m3.855469 3.855469h10.289062v10.289062h-10.289062zm0 0"/><path d="m5.140625 12.199219h3.855469v.640625h-3.855469zm.003906-7.070313h1.765625c.410156-.023437.816406.117188 1.125.394532.226563.234374.34375.554687.332032.882812v.011719c.027343.539062-.3125 1.03125-.828126 1.199219l.945313 1.382812h-.996094l-.828125-1.238281h-.660156v1.238281h-.855469zm1.710938 1.886719c.417969 0 .65625-.222656.65625-.546875v-.011719c0-.363281-.253907-.554687-.671875-.554687h-.839844v1.113281zm2.21875-1.886719h1.507812c1.214844 0 2.058594.835938 2.058594 1.921875v.015625c0 1.085938-.839844 1.933594-2.058594 1.933594h-1.507812zm.855469.769532v2.332031h.660156c.3125.015625.617187-.097657.839844-.320313.222656-.21875.339843-.523437.324218-.835937v-.011719c.015625-.3125-.101562-.621094-.324218-.84375-.222657-.222656-.527344-.339844-.839844-.324219zm0 0" fill="#fff"/></svg>