<svg height="18" viewBox="0 0 18 18" width="18" xmlns="http://www.w3.org/2000/svg"><path d="m5.691406.75-4.921875 3.316406 1.832031 11.300782 4.714844 1.8125 1.976563-1.601563 3.097656 1.628906 4.839844-2.824219-1.832031-3.914062 1.832031-3.316406-3.015625-1.671875v8.734375h-10.429688v-10.429688h8.53125l-1.136718-2.777344-1.808594 1.785157zm-1.765625 3.175781v10.148438h10.148438v-10.148438zm1.21875 1.203125h1.765625c.410156-.023437.816406.117188 1.125.394532.226563.234374.34375.554687.332032.882812v.011719c.027343.539062-.3125 1.03125-.828126 1.199219l.945313 1.382812h-.996094l-.828125-1.238281h-.660156v1.238281h-.855469zm3.929688 0h1.507812c1.214844 0 2.058594.835938 2.058594 1.921875v.011719c0 1.089844-.839844 1.9375-2.058594 1.9375h-1.507812zm1.515625.765625-.660156.003907v2.332031h.660156c.3125.015625.617187-.097657.839844-.320313.222656-.21875.339843-.523437.324218-.835937v-.011719c.015625-.3125-.101562-.621094-.324218-.84375-.222657-.21875-.527344-.339844-.839844-.324219m-4.589844.007813v1.113281h.855469c.417969 0 .65625-.222656.65625-.546875v-.011719c0-.363281-.253907-.554687-.667969-.554687zm-.859375 6.296875h3.855469v.640625h-3.855469zm0 0" fill="#dd1265"/></svg>