<svg height="18" viewBox="0 0 18 18" width="18" xmlns="http://www.w3.org/2000/svg"><path d="m14.660156 1.847656c-.0625.003906-.128906.019532-.1875.046875l-1.574218.742188c.003906.003906.003906.007812.003906.011719.050781.105468.128906.191406.226562.25-1.917968.992187-2.730468 2.332031-2.730468 2.332031l-7.328126 3.945312c-.429687.230469-.96875.070313-1.199218-.359375-.230469-.425781-.070313-.964844.359375-1.199218l2.078125-1.117188c.527344-.28125.835937-.808594.875-1.363281l-1.246094.671875-2.078125 1.117187c-.8125.4375-1.117187 1.453125-.683594 2.265625.300781.5625.878907.878906 1.476563.878906.277344 0 .546875-.066406.789062-.199218l.941406-.507813c-.070312.382813-.035156.777344.109376 1.140625.050781.128906.082031.207032.082031.207032.332031.71875-.105469 1.285156-.679688 1.285156h-.183593l-.660157 2.871094c-.089843-.09375-.207031-.160157-.332031-.191407l-.328125 1.355469c.332031.078125.660156-.09375.792969-.394531l1.496094-2.679688c1.890624-.183593 2.882812-1.464843 2.839843-3.269531 1.960938.121094 4.566407-1.113281 5.730469-2.792969.878906 1.117188 2.546875.960938 3.285156.679688l.144532-.050781c-.058594.09375-.082032.207031-.082032.332031l1.394532-.011719c-.003907-.402344-.316407-.707031-.699219-.703125h-.007813l-2.398437-.207031-.546875-1.433594v-1.523438c.109375.058594.226562.09375.359375.09375.398437 0 .71875-.304687.757812-.6875l.574219-.378906-.027344-.769531c-.003906-.078125-.066406-.140625-.140625-.140625l-.71875-.011719c-.109375-.15625-.296875-.246093-.484375-.234375zm.003906.417969c.121094 0 .226563.101563.226563.226563 0 .128906-.105469.230468-.226563.230468-.125 0-.226562-.105468-.226562-.230468s.101562-.226563.226562-.226563zm-10.414062 1.09375c-.050781.003906-.101562.015625-.152344.042969-.191406.097656-.261718.339844-.164062.53125l.097656.167968.691406-.371093-.089844-.164063c-.074218-.144531-.230468-.222656-.382812-.207031m9.222656.234375c.113282 0 .210938.109375.210938.109375s-.03125.039063-.085938.070313c.050782.019531.097656.050781.140625.089843 0 0-.058593.050781-.140625.085938.054688.03125.085938.070312.085938.070312s-.097656.109375-.210938.109375c-.113281 0-.210937-.109375-.210937-.109375s.03125-.039062.085937-.070312c-.082031-.027344-.140625-.085938-.140625-.085938s.058594-.054687.140625-.089843c-.054687-.03125-.085937-.070313-.085937-.070313s.097656-.109375.210937-.109375zm-1.09375.523438c.113282 0 .210938.109374.210938.109374s-.035156.035157-.089844.074219c.089844.03125.144531.085938.144531.085938s-.0625.054687-.144531.085937c.054688.03125.089844.074219.089844.074219s-.09375.109375-.210938.109375c-.113281 0-.210937-.109375-.210937-.109375s.03125-.042969.085937-.074219c-.085937-.03125-.140625-.085937-.140625-.085937s.058594-.054688.140625-.085938c-.054687-.035156-.085937-.074219-.085937-.074219s.089843-.109374.210937-.109374m-7.421875.035156-.695312.375.039062.074218c.0625.121094.101563.257813.101563.398438l.734375-.394531c-.03125-.132813-.078125-.261719-.144531-.378907zm8.425781.710937c.113282 0 .207032.109375.207032.109375s-.03125.042969-.085938.074219c.085938.03125.140625.085937.140625.085937s-.058593.054688-.140625.085938c.054688.035156.085938.074219.085938.074219s-.09375.109375-.207032.109375c-.117187 0-.210937-.109375-.210937-.109375s.03125-.039063.085937-.074219c-.085937-.03125-.140624-.085938-.140624-.085938s.058593-.054687.140624-.085937c-.054687-.03125-.085937-.074219-.085937-.074219s.09375-.109375.210937-.109375m-2.136718.296875c.117187 0 .210937.109375.210937.109375s-.03125.042969-.085937.074219c.085937.035156.140625.085938.140625.085938s-.058594.054687-.140625.085937c.054687.03125.085937.074219.085937.074219s-.089843.109375-.210937.109375c-.113282 0-.207032-.109375-.207032-.109375s.03125-.042969.085938-.074219c-.085938-.03125-.140625-.085937-.140625-.085937s.058594-.054688.140625-.085938c-.03125-.019531-.0625-.042969-.085938-.074219 0 0 .089844-.109375.207032-.109375m6.128906.09375c-.089844-.003906-.183594.011719-.273438.042969-.007812.003906-.023437.007813-.03125.019531l.003907-.003906-2.039063.734375.246094.644531c.378906-.09375.96875-.515625 1.378906-.835937-.015625.113281-.007812.226562.03125.335937l1.308594-.484375c-.097656-.261719-.34375-.4375-.625-.453125m-5.046875.234375c.113281 0 .210937.109375.210937.109375s-.03125.042969-.085937.074219c.085937.035156.140625.085937.140625.085937s-.058594.054688-.140625.085938c.054687.03125.085937.074219.085937.074219s-.097656.109375-.210937.109375-.210937-.109375-.210937-.109375.035156-.042969.089843-.074219c-.089843-.03125-.144531-.085938-.144531-.085938s.0625-.054687.144531-.085937c-.035156-.019531-.0625-.042969-.089843-.074219 0 0 .097656-.109375.210937-.109375m1.332031.421875c.113282 0 .210938.109375.210938.109375s-.035156.039063-.089844.070313c.054688.019531.101562.050781.144531.085937 0 0-.0625.054688-.144531.089844.054688.03125.089844.070313.089844.070313s-.097656.109374-.210938.109374c-.113281 0-.210937-.109374-.210937-.109374s.03125-.039063.085937-.070313c-.085937-.035156-.140625-.089844-.140625-.089844s.058594-.054687.140625-.085937c-.054687-.03125-.085937-.070313-.085937-.070313s.097656-.109375.210937-.109375zm-2.914062.285156c.113281 0 .210937.109376.210937.109376s-.03125.042968-.085937.074218c.085937.03125.140625.085938.140625.085938s-.058594.054687-.140625.085937c.054687.03125.085937.074219.085937.074219s-.097656.109375-.210937.109375c-.113282 0-.210938-.109375-.210938-.109375s.035156-.042969.089844-.074219c-.054688-.019531-.101562-.046875-.144531-.085937 0 0 .0625-.054688.144531-.085938-.035156-.019531-.0625-.042968-.089844-.074218 0 0 .09375-.109376.210938-.109376m-1.433594.1875c.117188 0 .210938.109376.210938.109376s-.03125.042968-.085938.074218c.050781.019532.101562.046875.140625.085938 0 0-.058594.054687-.140625.085937.054688.03125.085938.074219.085938.074219s-.09375.109375-.210938.109375c-.113281 0-.207031-.109375-.207031-.109375s.03125-.039062.085937-.074219c-.085937-.03125-.140625-.085937-.140625-.085937s.058594-.054688.140625-.085938c-.054687-.03125-.085937-.074218-.085937-.074218s.09375-.109376.207031-.109376m2.714844.257813c.113281 0 .210937.113281.210937.113281s-.035156.039063-.089843.070313c.054687.023437.101562.050781.144531.085937 0 0-.0625.054688-.144531.089844.058593.03125.089843.070312.089843.070312s-.09375.109376-.210937.109376c-.113282 0-.210938-.109376-.210938-.109376s.03125-.039062.085938-.070312c-.050782-.019531-.097656-.050781-.140625-.089844 0 0 .058593-.054687.140625-.085937-.054688-.03125-.085938-.074219-.085938-.074219s.09375-.109375.210938-.109375m-2.027344.640625c.113281 0 .207031.109375.207031.109375s-.03125.039063-.085937.074219c.054687.015625.101562.046875.140625.085937 0 0-.058594.054688-.140625.085938.054687.03125.085937.074219.085937.074219s-.089843.109374-.207031.109374-.210938-.109374-.210938-.109374.03125-.042969.085938-.074219c-.085938-.03125-.140625-.085938-.140625-.085938s.058594-.054687.140625-.085937c-.054688-.035156-.085938-.074219-.085938-.074219s.089844-.109375.210938-.109375zm-1.703125.011719c.113281 0 .210937.109375.210937.109375s-.03125.042968-.085937.074218c.082031.03125.140625.085938.140625.085938s-.058594.054688-.140625.085938c.054687.035156.085937.074218.085937.074218s-.097656.109375-.210937.109375-.207031-.109375-.207031-.109375.03125-.039062.085937-.074218c-.085937-.03125-.140625-.085938-.140625-.085938s.058594-.054688.140625-.085938c-.054687-.03125-.085937-.074218-.085937-.074218s.09375-.109375.207031-.109375m2.820313.230469c.113281 0 .207031.109374.207031.109374s-.03125.039063-.085938.070313c.082031.039063.140625.089844.140625.089844s-.058594.054687-.140625.085937c.054688.03125.085938.070313.085938.070313s-.089844.109375-.207031.109375c-.117188 0-.210938-.109375-.210938-.109375s.03125-.039063.085938-.070313c-.085938-.03125-.140626-.085937-.140626-.085937s.058594-.054688.140626-.089844c-.054688-.03125-.085938-.070313-.085938-.070313s.089844-.109374.210938-.109374m-4.25.242187c.113281 0 .207031.109375.207031.109375s-.03125.039062-.085938.070312c.054688.019532.101563.050782.140625.085938 0 .003906-.058594.054688-.140625.089844.054688.03125.085938.070312.085938.070312s-.089844.109375-.207031.109375c-.113282 0-.210938-.109375-.210938-.109375s.03125-.039062.085938-.070312c-.050782-.019532-.097657-.050782-.140626-.085938 0 0 .058594-.058594.140626-.089844-.03125-.019531-.0625-.042968-.085938-.070312 0 0 .089844-.109375.210938-.109375zm2.515624.601563c.113282 0 .210938.109374.210938.109374s-.03125.039063-.085938.070313c.085938.035156.140626.089844.140626.089844s-.058594.054687-.140626.085937c.054688.03125.085938.070313.085938.070313s-.097656.109375-.210938.109375c-.113281 0-.210937-.109375-.210937-.109375s.035156-.039063.089844-.070313c-.089844-.03125-.144531-.085937-.144531-.085937s.0625-.054688.144531-.089844c-.058594-.03125-.089844-.070313-.089844-.070313s.097656-.109374.210937-.109374zm-1.386718.195312c.113281 0 .210937.109375.210937.109375s-.03125.039063-.085937.074219c.085937.03125.140625.085937.140625.085937s-.058594.054688-.140625.085938c.054687.03125.085937.074219.085937.074219s-.089843.109374-.210937.109374c-.113282 0-.210938-.109374-.210938-.109374s.035156-.042969.089844-.074219c-.085938-.03125-.144531-.085938-.144531-.085938s.0625-.054687.144531-.085937c-.054688-.035156-.089844-.074219-.089844-.074219s.09375-.109375.210938-.109375zm-2.488282.0625c.113282 0 .210938.109375.210938.109375s-.035156.042969-.089844.074219c.054688.019531.101563.046875.144532.085937 0 0-.0625.054688-.144532.085938.058594.03125.089844.074219.089844.074219s-.097656.109374-.210938.109374c-.113281 0-.210937-.109374-.210937-.109374s.03125-.042969.085937-.074219c-.082031-.035157-.140624-.085938-.140624-.085938s.058593-.054687.140624-.085937c-.054687-.03125-.085937-.074219-.085937-.074219s.097656-.109375.210937-.109375m12.488282.398438-4.28125 1.066406-1.667969 1.902344-2.441406.058593-.917969 2.109375-2.394531.625-1.5 1.367188h12.066406c.625 0 1.136719-.507813 1.136719-1.132813zm-11.289063.160156c.113281 0 .210938.109375.210938.109375s-.035157.039062-.089844.070312c.054687.019531.101563.050781.144531.085938 0 0-.0625.054687-.144531.089843.054687.03125.089844.070313.089844.070313s-.09375.109375-.210938.109375c-.113281 0-.210937-.109375-.210937-.109375s.03125-.039063.085937-.070313c-.050781-.019531-.097656-.050781-.140625-.089843 0 0 .058594-.054688.140625-.085938-.054687-.03125-.085937-.070312-.085937-.070312s.09375-.109375.210937-.109375m-1.421875.753906c.113282 0 .207032.109375.207032.109375s-.03125.042969-.085938.074219c.054688.019531.101562.050781.140625.085937 0 0-.058594.054688-.140625.085938.054688.035156.085938.074219.085938.074219s-.097657.113281-.207032.109374c-.113281 0-.210937-.109374-.210937-.109374s.03125-.039063.085937-.074219c-.085937-.03125-.140625-.085938-.140625-.085938s.058594-.054687.140625-.085937c-.03125-.019532-.0625-.042969-.085937-.074219 0 0 .089843-.109375.210937-.109375m1.183594.421875c.113281 0 .210938.109375.210938.109375s-.03125.039062-.085938.070312c.082031.035157.140625.089844.140625.089844s-.058594.054688-.140625.085938c.054688.03125.085938.070312.085938.070312s-.089844.109375-.210938.109375c-.113281 0-.207031-.109375-.207031-.109375s.03125-.039062.085937-.070312c-.085937-.03125-.144531-.085938-.144531-.085938s.0625-.054687.144531-.089844c-.054687-.03125-.085937-.070312-.085937-.070312s.089843-.109375.207031-.109375m-.816406.9375c.113281 0 .210937.109375.210937.109375s-.03125.042969-.085937.074219c.085937.03125.140625.085937.140625.085937s-.058594.054688-.140625.085938c.054687.03125.085937.074218.085937.074218s-.089843.109376-.210937.109376c-.113282 0-.207032-.109376-.207032-.109376s.03125-.042968.085938-.074218c-.054688-.019532-.101562-.046875-.140625-.085938 0 0 .058594-.054687.140625-.085937-.035156-.019531-.0625-.042969-.085938-.074219 0 0 .089844-.109375.207032-.109375zm-2.402344.871094-2.027344 1.742187c-.019531-.128906-.074218-.253906-.15625-.355468l-1.066406.898437c.226562.269531.605469.320313.898438.140625l1.984374-.898438zm0 0" fill="#ffbe00"/></svg>