<svg height="18" viewBox="0 0 18 18" width="18" xmlns="http://www.w3.org/2000/svg"><g fill="none" stroke="#fff" stroke-linecap="round" stroke-linejoin="round" stroke-width="2" transform="scale(.75)"><path d="m9 19c0 1.65625-1.34375 3-3 3s-3-1.34375-3-3 1.34375-3 3-3 3 1.34375 3 3zm0 0"/><path d="m9 19h8.5c.401042 0 .901042-.098958 1.302083-.197917m-13.604166-13.604166c-1.546875.635416-2.432292 2.286458-2.114584 3.942708.3125 1.651042 1.744792 2.848958 3.416667 2.859375h5.5m-10-10 20 20m-1-6.697917c-.098958-1.78125-1.520833-3.203125-3.302083-3.302083m-2.697917-7h-4.302083"/><path d="m21 5c0 1.65625-1.34375 3-3 3s-3-1.34375-3-3 1.34375-3 3-3 3 1.34375 3 3zm0 0"/></g></svg>