<svg height="18" viewBox="0 0 18 18" width="18" xmlns="http://www.w3.org/2000/svg"><path d="m9.410156 0-.042968.00390625-1.117188.07031255c-3.5.2304692-6.640625 2.6875002-7.796875 6.1015622-.570313 1.675781-.5625 4.28125.023437 5.816407l.1875.5.472657-.660157c.15625-.21875.269531-.347656.363281-.410156.097656-.058594.175781-.066406.300781-.035156l.734375.179687c.09375.023438.164063.039063.222656.042969.058594.007813.113282.003906.15625-.035156.046876-.039063.050782-.097657.046876-.152344-.003907-.054687-.019532-.121094-.042969-.203125-.734375-2.722656-.222657-4.886719 1.582031-6.691406 1.070312-1.070313 2.15625-1.621094 3.652344-1.851563.511718-.082031.796875-.132812 1.011718-.238281.214844-.105469.34375-.265625.535157-.53125l.4375-.605469-.363281-.648437zm-.078125.144531.316407.574219.320312.574219-.382812.53125c-.1875.265625-.296876.398437-.484376.488281-.1875.09375-.460937.144531-.96875.222656-1.523437.238282-2.644531.804688-3.730468 1.890625-1.835938 1.835938-2.363282 4.074219-1.617188 6.832031.019532.078126.035156.140626.039063.175782.003906.039062-.003907.039062 0 .035156.003906-.003906-.007813.007812-.054688.003906-.042969-.007812-.109375-.019531-.199219-.042968l-.738281-.179688c-.144531-.035156-.28125-.023438-.40625.054688-.125.082031-.246093.222656-.402343.445312l-.320313.449219-.097656-.253907c-.5664065-1.488281-.5781252-4.089843-.023438-5.726562 1.144531-3.359375 4.238281-5.777344 7.675781-6.003906zm.898438.035157c-.070313 0-.125.003906-.171875.050781s-.035156.085937-.03125.128906.011718.09375.03125.152344c.03125.117187.085937.261719.15625.410156.125.261719.179687.382813.164062.488281-.011718.105469-.097656.226563-.289062.480469l-.449219.589844 1.0625.285156c1.832031.5 3.316406 1.761719 4.21875 3.59375.386719.785156.46875 1.140625.523437 2.238281.035157.71875-.015624 1.617188-.101562 1.960938-.152344.59375-.128906.789062.164062 1.394531l.355469.722656.722657-.105469c.1875-.027343.359374-.054687.492187-.078124.0625-.011719.117187-.019532.15625-.03125.019531-.003907.035156-.007813.050781-.011719.007813 0 .015625-.003907.019532-.003907.007812-.003906.015624-.003906.027343-.015624.015625-.011719.015625-.019532.019531-.023438 0-.003906.003907-.007812.007813-.011719 0-.007812.003906-.015625.007813-.027343.007812-.019532.015624-.042969.027343-.074219.019531-.066407.042969-.152344.074219-.261719.0625-.21875.140625-.511719.222656-.832031.53125-2.089844.300782-4.1875-.695312-6.222657-.757813-1.554687-2.421875-3.207031-3.96875-3.945312-.472656-.222656-1.054688-.4375-1.578125-.597656-.519531-.15625-.972657-.261719-1.21875-.253906m.003906.140624c.195313-.007812.660156.089844 1.175781.25.515625.15625 1.09375.367188 1.554688.589844 1.511718.714844 3.164062 2.359375 3.90625 3.878906.980468 2.007813 1.210937 4.066407.683594 6.125-.070313.277344-.144532.554688-.21875.828126-.023438.085937-.050782.171874-.078126.257812-.003906.023438-.011718.046875-.019531.066406-.011719.003906-.023437.007813-.03125.007813-.039062.011719-.089843.019531-.15625.03125-.125.023437-.300781.050781-.484375.078125l-.625.089844-.304687-.632813c-.292969-.597656-.304688-.710937-.160157-1.296875.097657-.386719.140626-1.273438.109376-2.003906-.054688-1.101563-.148438-1.5-.539063-2.292969-.917969-1.863281-2.4375-3.15625-4.308594-3.664063l-.863281-.234374.324219-.425782c.191406-.25.300781-.386718.320312-.542968.019531-.160157-.050781-.304688-.175781-.566407-.070312-.144531-.121094-.285156-.152344-.390625-.011718-.039062-.019531-.082031-.027344-.125 0-.03125.011719-.039062-.007812-.015625-.007812.003907.023438-.011719.078125-.011719m-3.726563 4.765626-.019531.019531-1.238281 1.246093-1.269531 1.277344.328125.644532c.09375.183593.402344.609374.835937 1.179687.4375.570313.996094 1.273437 1.574219 1.976563.574219.699218 1.109375 1.335937 1.511719 1.796874.15625.183594.320312.367188.484375.546876.058594.0625.105468.113281.144531.148437.015625.019531.03125.03125.046875.042969.003906.003906.011719.011718.019531.015625.007813.003906.015625.015625.050781.011719.023438-.003907.03125-.007813.039063-.015626.007813-.003906.015625-.007812.023437-.015624.015626-.011719.03125-.027344.050782-.046876.039062-.039062.089844-.09375.152344-.164062.121093-.140625.289062-.339844.488281-.582031.398437-.480469.917969-1.128907 1.445312-1.796875.503907-.636719 1-1.277344 1.492188-1.921875.429687-.566407.75-1 .855469-1.183594l.363281-.617187-1.28125-1.289063-1.265625-1.273437zm.058594.140624h4.714844l1.222656 1.230469 1.210938 1.214844-.308594.523437c-.097656.160157-.421875.605469-.847656 1.167969-.492188.648438-.988282 1.285157-1.492188 1.921875-.527344.667969-1.046875 1.316406-1.441406 1.796875-.160156.191407-.324219.386719-.488281.574219-.0625.070312-.109375.125-.144531.160156-.011719.007813-.015626.011719-.023438.019532-.003906-.007813-.007812-.007813-.011719-.015626-.050781-.046874-.097656-.09375-.140625-.144531-.164062-.175781-.324218-.359375-.480468-.542969-.398438-.457031-.933594-1.09375-1.511719-1.792968-.574219-.699219-1.132813-1.402344-1.566407-1.972656-.4375-.566407-.75-1.011719-.824218-1.15625l-.285156-.554688 1.203124-1.207031zm-4.734375 6.464844c-.121093-.003906-.21875.023438-.304687.085938-.085938.0625-.160156.15625-.265625.28125-.222657.273437-.34375.496094-.335938.746094.007813.253906.136719.519531.378907.90625 1.3125 2.085937 3.085937 3.414062 5.347656 4.007812 1.324218.34375 3.304687.378906 4.523437.070312 2.0625-.523437 4.136719-1.941406 5.226563-3.582031.207031-.316406.363281-.554687.46875-.734375.109375-.179687.167968-.296875.167968-.40625-.003906-.054687-.027343-.109375-.074218-.140625-.042969-.03125-.09375-.039062-.152344-.042969-.121094-.011718-.28125.007813-.492188.035157l-.675781.078125-.253906-.566406c-.078125-.167969-.160156-.324219-.230469-.441407-.03125-.046875-.066406-.09375-.101562-.136719-.015625-.019531-.03125-.035156-.046875-.046874-.015625-.011719-.035157-.027344-.070313-.027344-.054687 0-.078125.03125-.105468.058594-.03125.035156-.0625.070312-.085938.109374-.058594.089844-.121094.210938-.171875.34375-.050781.113282-.183594.320313-.359375.546876-.1875.242187-.386719.476562-.601562.695312-1.953126 2-4.984376 2.515625-7.476563 1.265625-.792969-.394531-2.152344-1.617187-2.582031-2.316406-.121094-.1875-.242188-.328125-.414063-.429688-.171875-.105469-.386719-.175781-.699219-.25-.285156-.0625-.46875-.105469-.613281-.109375m-.003906.136719c.121094.003906.300781.042969.585937.109375.304688.070312.507813.140625.65625.230469.152344.09375.257813.207031.367188.386719.460938.746093 1.804688 1.949218 2.640625 2.367187 2.542969 1.277344 5.644531.75 7.636719-1.292969.21875-.222656.425781-.460937.617187-.707031.175781-.230469.3125-.4375.371094-.582031.054687-.125.113281-.238282.164063-.316406.027343-.039063.050781-.074219.066406-.089844.007812-.007813 0-.003906.003906-.007813.003906.003907.007812.007813.015625.015625.023437.027344.054687.070313.085937.125.070313.105469.148438.257813.222657.421875l.296875.660157.777344-.09375c.214843-.023438.371093-.042969.464843-.035157.046875.003907.074219.015625.085938.019531.011719.007813.011719.007813.011719.027344 0 .042969-.042969.160156-.144532.335938-.105468.175781-.261718.410156-.46875.726562-1.0625 1.601563-3.117187 3.011719-5.140625 3.523438-1.183593.300781-3.160156.269531-4.457031-.070313-2.230469-.585937-3.96875-1.886719-5.265625-3.945312-.234375-.378907-.351563-.628907-.355469-.835938-.007812-.207031.089844-.386719.304688-.652343.105468-.125.175781-.210938.238281-.257813.066406-.046875.121094-.0625.21875-.0625zm0 0" fill="#6de1fa"/></svg>