<svg height="18" viewBox="0 0 18 18" width="18" xmlns="http://www.w3.org/2000/svg"><path d="m9.371094 0-1.125.0742188c-3.496094.2265622-6.636719 2.6835932-7.796875 6.1015622-.566407 1.667969-.558594 4.292969.023437 5.816407l.144532.382812.398437-.5625c.316406-.445312.46875-.542969.742187-.476562l.742188.179687c.363281.089844.390625.066406.300781-.261719-.746093-2.757812-.222656-4.980468 1.613281-6.816406 1.085938-1.082031 2.199219-1.648438 3.71875-1.882812 1.027344-.160157 1.132813-.210938 1.515626-.746094l.410156-.574219zm.871094.179688c-.0625 0-.109376.011718-.128907.03125-.042969.042968.035157.320312.175781.613281.25.527343.25.542969-.136718 1.050781l-.390625.511719.972656.261719c1.863281.503906 3.382813 1.792968 4.296875 3.65625.394531.796874.480469 1.175781.535156 2.285156.035156.730468-.011718 1.628906-.105468 2-.148438.59375-.132813.746094.164062 1.355468l.332031.683594.679688-.097656c.375-.054688.695312-.113281.71875-.128906.019531-.019532.171875-.558594.335937-1.207032.535156-2.089843.300782-4.179687-.695312-6.222656-.757813-1.546875-2.429688-3.207031-3.96875-3.941406-.941406-.449219-2.339844-.863281-2.785156-.851562zm-3.726563 4.945312-2.492187 2.507812.308593.601563c.167969.332031 1.257813 1.757813 2.421875 3.167969 1.160156 1.410156 2.15625 2.5625 2.214844 2.558594.148438-.011719 4.121094-5.046876 4.53125-5.738282l.335938-.574218-2.507813-2.523438zm-4.742187 6.65625c-.222657-.007812-.308594.089844-.519532.347656-.445312.542969-.433594.8125.046875 1.582032 1.316407 2.089843 3.085938 3.414062 5.351563 4.007812 1.320312.34375 3.316406.378906 4.523437.070312 2.0625-.519531 4.140625-1.945312 5.226563-3.582031.839844-1.265625.839844-1.292969-.015625-1.191406l-.734375.089844-.277344-.617188c-.152344-.339843-.328125-.617187-.386719-.617187-.058593 0-.195312.210937-.304687.46875-.105469.257812-.546875.832031-.980469 1.277344-1.992187 2.039062-5.082031 2.5625-7.617187 1.289062-.820313-.410156-2.183594-1.632812-2.632813-2.359375-.230469-.375-.457031-.511719-1.074219-.652344-.289062-.070312-.472656-.109375-.605468-.113281" fill="#6de1fa"/></svg>