<svg height="18" viewBox="0 0 18 18" width="18" xmlns="http://www.w3.org/2000/svg"><path d="m10.039062 5.457031c-.210937-.085937-.546874-.140625-.96875-.15625-.589843-.011719-1.265624.058594-1.292968.070313v2.8125c1.871094.085937 2.179687-.238282 2.179687-.238282 1.628907-.828124.605469-2.277343.082031-2.488281" fill="#75aadb"/><path d="m9 0c-4.976562 0-9 4.023438-9 9s4.023438 9 9 9 9-4.023438 9-9-4.035156-9-9-9m4.023438 12.628906h-1.492188l-2.476562-3.699218h-1.265626v2.882812h1.265626v.816406h-3.21875v-.800781l1.070312-.015625-.015625-6.453125c-.113281-.03125-1.054687-.113281-1.054687-.113281v-.746094c.140624.140625 1.109374.167969 1.109374.167969.226563.015625.550782.027343.734376-.011719 1.304687-.242188 2.304687-.058594 2.304687-.058594 1.96875.449219 1.996094 2.222656 1.449219 3.179688-.492188.816406-1.449219 1.011718-1.449219 1.011718l2.023437 3.066407 1.015626-.015625zm0 0" fill="#75aadb"/><path d="m41.583333 87.083333v-2.75l1.833334-.138889c1.25-.083333 2.5-.111111 3.75-.138888h1.944444v-46.055556l-.944444-.138889c-1.25-.138889-2.5-.277778-3.75-.388889l-2.833334-.277778v-2.5c0-2.333333.027778-2.5.388889-2.305555 1.583334.861111 10.722222 1.083333 15.833334.388889 4.222222-.555556 11.5-.416667 14.055555.25 5.472222 1.472222 9.111111 4.666666 10.805556 9.472222.722222 2.027778.833333 5.861111.222222 8.222222-.888889 3.583334-2.388889 6.055556-4.861111 8.111111-1.472222 1.222223-4.861111 3.027778-6.138889 3.277778-.416667.083333-.777778.25-.833333.333333-.055556.111112 3.111111 5.083334 7.055555 11.055556l7.194445 10.888889 3.638888-.083333 3.638889-.055556v5.555556h-5.25l-5.25-.027778-8.805555-13.222222-8.833334-13.25h-9.166666v20.75h9.055555v5.75h-22.75zm25.166667-29.166666c3.472222-.555556 7.277778-2.777778 8.972222-5.277778 2.527778-3.666667 1.527778-8.972222-2.277778-12.527778-1.361111-1.277778-2.222222-1.638889-4.805555-2.111111-2.111111-.388889-8.666667-.444444-11.694445-.111111l-1.555555.166667-.111111 20.166666.722222.083334c1.361111.222222 8.666667-.055556 10.75-.388889zm0 0" fill="#fff" stroke="#fff" stroke-width=".788" transform="scale(.140625)"/></svg>