<svg height="18" viewBox="0 0 18 18" width="18" xmlns="http://www.w3.org/2000/svg"><path d="m5.058594 15.65625 11.523437 1.574219c-1.316406-2.195313-2.601562-4.335938-3.894531-6.492188zm12.617187-12.148438-4.527343 6.804688c-.0625.097656-.148438.175781-.054688.328125 1.125 1.859375 2.246094 3.726563 3.367188 5.59375.175781.292969.355468.585937.582031.871094l.679687-13.582031zm-15.390625 5.804688c.054688.050781.183594.078125.246094.046875 1.082031-.53125 2.167969-1.050781 3.226562-1.625.34375-.1875.609376-.523437.90625-.796875.984376-.902344 1.96875-1.804688 2.949219-2.710938.0625-.054687.132813-.109374.167969-.179687.351562-.6875.699219-1.378906 1.058594-2.09375-.429688-.160156-.835938-.316406-1.246094-.460937-.054688-.019532-.140625.019531-.203125.050781-.949219.53125-1.917969 1.035156-2.839844 1.613281-.460937.292969-.835937.71875-1.242187 1.089844-.660156.601562-1.316406 1.203125-1.960938 1.8125-.175781.164062-.328125.34375-.464844.542968-.441406.644532-.871093 1.296876-1.320312 1.972657.25.257812.480469.507812.722656.738281m3.953125-.882812-1.625 6.867187 7.636719-4.921875zm10.773438-4.898438-6.488281 1.082031 2.203124 5.359375zm-10.683594 4.433594 5.890625 1.914062c-.738281-1.800781-1.453125-3.535156-2.179688-5.308594zm-3.960937 2.671875-2.0625 4.929687 3.925781-.117187zm1.910156 3.671875.050781-.011719c.46875-1.960937.949219-3.90625 1.429687-5.945313l-3.148437 1.636719c.535156 1.398438 1.109375 2.871094 1.667969 4.320313m11.945312-11.097656c-.628906-.164063-1.253906-.332032-1.882812-.496094-.902344-.238282-1.804688-.472656-2.707032-.710938-.109374-.03125-.191406-.050781-.257812.085938-.320312.652344-.648438 1.300781-.972656 1.949218-.007813.023438-.007813.046876-.015625.097657l5.832031-.882813zm-3.640625-1.484376 5.113281 1.414063-.84375-2.40625-4.261718.945313zm-7.871093 14.304688c-.632813-.070312-1.28125-.003906-1.925782.007812-.527344.007813-1.054687.027344-1.582031.042969-.050781.003907-.105469.011719-.160156.070313 4.359375.40625 8.71875.808594 13.078125 1.210937l.007812-.058593-4.191406-.570313c-1.742188-.238281-3.480469-.5-5.226562-.703125m-4.320313-1.96875c.5625-1.304688 1.121094-2.609375 1.6875-3.910156.054687-.132813.050781-.222656-.058594-.324219-.238281-.226563-.457031-.46875-.714843-.738281-.347657 1.722656-.6875 3.402344-1.027344 5.082031l.035156.015625c.027344-.042969.058594-.082031.078125-.125m11.074219-12.679688c.945312-.242187 1.90625-.433593 2.863281-.648437.0625-.011719.121094-.035156.183594-.050781l-.011719-.046875-4.101562.550781c.382812.171875.679687.296875 1.066406.195312" fill="#d91404"/></svg>