<svg height="18" viewBox="0 0 18 18" width="18" xmlns="http://www.w3.org/2000/svg" xmlns:xlink="http://www.w3.org/1999/xlink"><linearGradient id="a" gradientTransform="matrix(.140625 0 0 -.140625 -6.679688 353.953125)" gradientUnits="userSpaceOnUse" x1="157.080002" x2="131.682007" y1="2382.050049" y2="2426.89209"><stop offset="0" stop-color="#fb7655"/><stop offset=".41" stop-color="#e42b1e"/><stop offset=".99" stop-color="#900"/><stop offset="1" stop-color="#900"/></linearGradient><linearGradient id="b"><stop offset="0" stop-color="#871101"/><stop offset=".99" stop-color="#911209"/><stop offset="1" stop-color="#911209"/></linearGradient><linearGradient id="c" gradientTransform="matrix(.140625 0 0 -.140625 -6.679688 353.953125)" gradientUnits="userSpaceOnUse" x1="169.731003" x2="136.998001" xlink:href="#b" y1="2419.719971" y2="2441.685059"/><linearGradient id="d" gradientTransform="matrix(.140625 0 0 -.140625 -6.679688 353.953125)" gradientUnits="userSpaceOnUse" x1="143.542007" x2="110.809998" xlink:href="#b" y1="2380.689941" y2="2402.655029"/><linearGradient id="e" gradientTransform="matrix(.140625 0 0 -.140625 -6.679688 353.953125)" gradientUnits="userSpaceOnUse" x1="74.817001" x2="79.890999" y1="2435.62207" y2="2402.644043"><stop offset="0" stop-color="#fff"/><stop offset=".23" stop-color="#e57252"/><stop offset=".46" stop-color="#de3b20"/><stop offset=".99" stop-color="#a60003"/><stop offset="1" stop-color="#a60003"/></linearGradient><linearGradient id="f" gradientTransform="matrix(.140625 0 0 -.140625 -6.679688 353.953125)" gradientUnits="userSpaceOnUse" x1="109.719002" x2="111.588997" y1="2466.413086" y2="2432.75708"><stop offset="0" stop-color="#fff"/><stop offset=".23" stop-color="#e4714e"/><stop offset=".56" stop-color="#be1a0d"/><stop offset=".99" stop-color="#a80d00"/><stop offset="1" stop-color="#a80d00"/></linearGradient><linearGradient id="g" gradientTransform="matrix(.140625 0 0 -.140625 -6.679688 353.953125)" gradientUnits="userSpaceOnUse" x1="140.690994" x2="146.289001" y1="2497.522949" y2="2473.400879"><stop offset="0" stop-color="#fff"/><stop offset=".18" stop-color="#e46342"/><stop offset=".4" stop-color="#c82410"/><stop offset=".99" stop-color="#a80d00"/><stop offset="1" stop-color="#a80d00"/></linearGradient><linearGradient id="h" gradientTransform="matrix(.140625 0 0 -.140625 -6.679688 353.953125)" gradientUnits="userSpaceOnUse" x1="123.599998" x2="147.718994" y1="2506.018066" y2="2518.076904"><stop offset="0" stop-color="#fff"/><stop offset=".54" stop-color="#c81f11"/><stop offset=".99" stop-color="#bf0905"/><stop offset="1" stop-color="#bf0905"/></linearGradient><linearGradient id="i" gradientTransform="matrix(.140625 0 0 -.140625 -6.679688 353.953125)" gradientUnits="userSpaceOnUse" x1="53.674" x2="55.66" y1="2444.028076" y2="2424.153076"><stop offset="0" stop-color="#fff"/><stop offset=".31" stop-color="#de4024"/><stop offset=".99" stop-color="#bf190b"/><stop offset="1" stop-color="#bf190b"/></linearGradient><linearGradient id="j" gradientTransform="matrix(.140625 0 0 -.140625 -6.679688 353.953125)" gradientUnits="userSpaceOnUse" x1="40.026001" x2="133.345001" y1="2418.781006" y2="2514.739014"><stop offset="0" stop-color="#bd0012"/><stop offset=".07" stop-color="#fff"/><stop offset=".17" stop-color="#fff"/><stop offset=".27" stop-color="#c82f1c"/><stop offset=".33" stop-color="#820c01"/><stop offset=".46" stop-color="#a31601"/><stop offset=".72" stop-color="#b31301"/><stop offset=".99" stop-color="#e82609"/><stop offset="1" stop-color="#e82609"/></linearGradient><linearGradient id="k" gradientTransform="matrix(.140625 0 0 -.140625 -6.679688 353.953125)" gradientUnits="userSpaceOnUse" x1="111.507004" x2="83.398003" y1="2409.102051" y2="2416.039062"><stop offset="0" stop-color="#8c0c01"/><stop offset=".54" stop-color="#990c00"/><stop offset=".99" stop-color="#a80d0e"/><stop offset="1" stop-color="#a80d0e"/></linearGradient><linearGradient id="l" gradientTransform="matrix(.140625 0 0 -.140625 -6.679688 353.953125)" gradientUnits="userSpaceOnUse" x1="159.785004" x2="134.813995" y1="2442.836914" y2="2465.217041"><stop offset="0" stop-color="#7e110b"/><stop offset=".99" stop-color="#9e0c00"/><stop offset="1" stop-color="#9e0c00"/></linearGradient><linearGradient id="m" gradientTransform="matrix(.140625 0 0 -.140625 -6.679688 353.953125)" gradientUnits="userSpaceOnUse" x1="168.959" x2="156.520996" y1="2483.900879" y2="2497.198975"><stop offset="0" stop-color="#79130d"/><stop offset=".99" stop-color="#9e120b"/><stop offset="1" stop-color="#9e120b"/></linearGradient><linearGradient id="n" gradientTransform="matrix(.140625 0 0 -.140625 -6.679688 353.953125)" gradientUnits="userSpaceOnUse" x1="67.509003" x2="57.373001" y1="2393.11499" y2="2427.506104"><stop offset="0" stop-color="#8b2114"/><stop offset=".43" stop-color="#9e100a"/><stop offset=".99" stop-color="#b3100c"/><stop offset="1" stop-color="#b3100c"/></linearGradient><linearGradient id="o" gradientTransform="matrix(.140625 0 0 -.140625 -6.679688 353.953125)" gradientUnits="userSpaceOnUse" x1="145.272003" x2="167.996002" y1="2507.075928" y2="2497.044922"><stop offset="0" stop-color="#b31000"/><stop offset=".44" stop-color="#910f08"/><stop offset=".99" stop-color="#791c12"/><stop offset="1" stop-color="#791c12"/></linearGradient><radialGradient id="p" cx="138.703003" cy="2464.789062" gradientTransform="matrix(.140625 0 0 -.140625 -6.679688 353.953125)" gradientUnits="userSpaceOnUse" r="30.601"><stop offset="0" stop-color="#a80d00"/><stop offset=".99" stop-color="#7e0e08"/><stop offset="1" stop-color="#7e0e08"/></radialGradient><radialGradient id="q" cx="96.324997" cy="2424.465088" gradientTransform="matrix(.140625 0 0 -.140625 -6.679688 353.953125)" gradientUnits="userSpaceOnUse" r="40.679001"><stop offset="0" stop-color="#a30c00"/><stop offset=".99" stop-color="#800e08"/><stop offset="1" stop-color="#800e08"/></radialGradient><path d="m13.652344 11.703125-9.667969 5.738281 12.515625-.847656.964844-12.621094zm0 0" fill="url(#a)"/><path d="m16.523438 16.582031-1.078126-7.421875-2.929687 3.867188zm0 0" fill="url(#c)"/><path d="m16.535156 16.582031-7.878906-.617187-4.628906 1.460937zm0 0" fill="url(#d)"/><path d="m4.039062 17.425781 1.96875-6.449219-4.332031.925782zm0 0" fill="url(#e)"/><path d="m12.515625 13.050781-1.8125-7.097656-5.183594 4.859375zm0 0" fill="url(#f)"/><path d="m17.054688 6.054688-4.902344-4.003907-1.363282 4.410157zm0 0" fill="url(#g)"/><path d="m14.761719.625-2.882813 1.59375-1.816406-1.617188zm0 0" fill="url(#h)"/><path d="m.535156 14.066406 1.207032-2.199218-.976563-2.625zm0 0" fill="url(#i)"/><path d="m.699219 9.160156.984375 2.785156 4.269531-.957031 4.875-4.53125 1.375-4.371093-2.164063-1.527344-3.683593 1.378906c-1.160157 1.078125-3.414063 3.214844-3.492188 3.253906-.082031.039063-1.488281 2.699219-2.164062 3.96875" fill="#fff"/><path d="m4.152344 4.152344c2.511718-2.496094 5.753906-3.96875 7-2.710938 1.242187 1.253906-.074219 4.304688-2.589844 6.796875-2.515625 2.492188-5.71875 4.046875-6.960938 2.792969-1.242187-1.253906.035157-4.386719 2.550782-6.878906" fill="url(#j)"/><path d="m4.039062 17.425781 1.953126-6.472656 6.488281 2.085937c-2.347657 2.199219-4.957031 4.058594-8.441407 4.386719" fill="url(#k)"/><path d="m10.835938 6.445312 1.667968 6.597657c1.957032-2.0625 3.714844-4.277344 4.578125-7.015625zm0 0" fill="url(#l)"/><path d="m17.066406 6.058594c.664063-2.007813.820313-4.894532-2.324218-5.429688l-2.578126 1.421875zm0 0" fill="url(#m)"/><path d="m.535156 14.039062c.089844 3.320313 2.488282 3.367188 3.507813 3.398438l-2.355469-5.503906zm0 0" fill="#9e1209"/><path d="m10.847656 6.457031c1.503906.921875 4.539063 2.78125 4.601563 2.816407.09375.054687 1.308593-2.042969 1.582031-3.230469zm0 0" fill="url(#p)"/><path d="m5.988281 10.953125 2.613281 5.039063c1.542969-.835938 2.753907-1.855469 3.859376-2.949219zm0 0" fill="url(#q)"/><path d="m1.675781 11.941406-.371093 4.402344c.699218.957031 1.660156 1.039062 2.667968.964844-.730468-1.816406-2.1875-5.441406-2.296875-5.367188" fill="url(#n)"/><path d="m12.148438 2.0625 5.1875.726562c-.277344-1.171874-1.128907-1.929687-2.578126-2.164062zm0 0" fill="url(#o)"/></svg>