<svg height="18" viewBox="0 0 18 18" width="18" xmlns="http://www.w3.org/2000/svg"><path d="m8.980469 0c-.054688 0-.109375.015625-.160157.0429688-.019531.0117187-.023437.0195312-.03125.0273437-.011718.0117187-.019531.0234375-.03125.0351565-.023437.03125-.050781.066406-.074218.097656-.066406.097656-.128906.195313-.191406.296875-.082032.136719-.144532.238281-.195313.304688-.050781.0625-.082031.082031-.101563.082031-.019531.003906-.054687-.007813-.121093-.0625-.0625-.054688-.144531-.140625-.257813-.261719-.148437-.152344-.238281-.246094-.3125-.300781-.070312-.058594-.136718-.082031-.195312-.082031-.078125 0-.15625.015624-.214844.058593-.03125.023438-.039062.042969-.054688.070313-.015624.027344-.035156.066406-.054687.105468-.042969.097657-.085937.199219-.125.300782-.09375.25-.144531.382812-.175781.441406-.015625.027344-.027344.039062-.03125.042969-.007813.003906-.015625.003906-.039063.011719v-.003907s-.039062 0-.109375-.039062c-.070312-.039063-.175781-.109375-.320312-.214844-.101563-.074219-.203125-.140625-.308594-.207031-.039062-.023438-.078125-.042969-.117188-.0625-.03125-.015625-.046874-.03125-.09375-.03125-.050781 0-.101562.007812-.144531.03125-.046875.027344-.082031.070312-.109375.121094-.054687.105468-.085937.261718-.128906.519531-.027344.164062-.050781.289062-.070312.367187-.023438.082032-.046876.113282-.0625.125-.015626.007813-.054688.011719-.132813-.015625-.078125-.027343-.1875-.074219-.335937-.140625-.105469-.050781-.21875-.097656-.328126-.140625-.046874-.019531-.085937-.035156-.117187-.046875-.035156-.007812-.046875-.015625-.085937-.015625-.042969 0-.074219.015625-.109376.035157-.035156.019531-.070312.042968-.097656.074218-.046875.046875-.089844.097656-.097656.183594s-.003906.210938.011719.460938l.019531.457031-.054688.03125c-.035156.019531-.046874.023437-.109374.019531-.0625-.007812-.171876-.03125-.355469-.074219-.246094-.058593-.394531-.085937-.507813-.082031-.097656 0-.191406.046875-.25.128906l-.09375.121094.105469.445312c.050781.230469.101563.445313.113281.488282 0 .007812-.007812.066406-.023437.082031-.007813.011719-.011719.015625-.019531.019531-.007813.003906-.023438.007813-.058594.011719-.066406.007813-.191406.007813-.414063.003906-.191406-.003906-.339843 0-.453125.015625-.113281.015625-.203125.046875-.253906.125-.050781.074219-.046875.171875-.015625.28125s.089844.246094.167969.417969c.050781.109375.09375.210937.125.289063.019531.039062.03125.074218.039062.097656.003906.011718.007813.019531.011719.027344-.003906.015624-.003906.027343-.011719.035156-.003906.011718-.019531.023437-.050781.039062-.066406.027344-.195313.058594-.410156.09375-.136719.023438-.277344.042969-.417969.066406l-.027344.003907c-.007812 0-.015625 0-.007812 0-.027344 0-.035156.007812-.046875.015625-.011719.003906-.023438.011718-.035157.019531-.019531.015625-.042968.035156-.066406.058594-.039062.039062-.066406.078125-.082031.132812-.015625.050781-.011719.105469.007813.164063.035156.117187.121093.253906.269531.464844.09375.128906.160156.226562.199219.296874.039062.070313.042968.109376.039062.125-.007812.019532-.035156.050782-.109375.089844-.070313.035156-.1875.082032-.339844.136719-.171875.070313-.304687.121094-.402343.175781-.097657.058594-.167969.117188-.1875.203125-.019532.085938.023437.171875.089843.257813.066407.085937.167969.1875.300781.3125.121094.117187.210938.203125.269532.269531.054687.066406.070312.101563.066406.121094 0 .019531-.019531.054687-.082031.105469-.066407.050781-.171875.117187-.308594.203124-.210937.132813-.320313.199219-.3867188.261719-.0664062.0625-.0820312.136719-.0859374.207031-.0039063.046876-.00781255.082032.0039062.125.0078125.046876.03125.085938.0703125.125.0742185.074219.2031245.148438.4531245.300782.125.078125.214844.132812.273438.179687.054688.046875.066406.070313.066406.089844s-.015625.0625-.070312.128906c-.058594.066407-.148438.152344-.273438.269531-.128906.125-.230468.222657-.296875.308594-.066406.089844-.105469.171875-.085937.257813.019531.089843.089844.148437.1875.203125.097656.058594.230468.109375.40625.175781.148437.058594.261718.101563.335937.136719.074219.039062.101563.066406.105469.085937.007812.019531 0 .054688-.039062.125-.039063.070313-.105469.167969-.199219.300781-.210938.296876-.289063.421876-.289063.550782 0 .046875.007813.09375.03125.140625.023438.042969.066406.078125.121094.101562.101562.050781.257812.082031.527344.128907.222656.035156.355468.066406.421875.097656.035156.015625.050781.027344.054687.039062.007813.007813.011719.015625.011719.035156 0-.015624 0-.007812 0 0-.003906.007813-.007813.019532-.011719.027344-.007812.023438-.019531.058594-.039062.097656-.03125.078126-.078125.183594-.125.289063-.078125.171875-.136719.304687-.167969.414063-.03125.109374-.039063.199218.007813.277343.046874.074219.136718.109375.246093.125s.253907.019531.4375.019531c.171875 0 .300781 0 .386719.007813s.125.023437.136719.035156.019531.042969.007812.121094-.039062.195313-.078125.351563c-.054687.234374-.085937.375-.085937.480468-.003907.105469.035156.183594.09375.242188.054687.054687.136719.074218.25.070312.113281-.007812.265625-.039062.496093-.09375.171876-.039062.273438-.0625.335938-.066406.058594-.007812.070312-.003906.105469.015625l.050781.027344-.019531.457031c-.015625.25-.023438.375-.011719.460938.007812.089843.050781.140624.097656.1875.027344.027343.0625.054687.097656.074218.035157.019532.070313.035156.113282.035156.035156 0 .050781-.007812.082031-.019531.035156-.007812.074219-.023437.121094-.042969.09375-.035156.207031-.085937.328125-.140624.148437-.066407.257812-.117188.335937-.140626.074219-.027343.113281-.023437.128907-.015624.015624.011718.039062.042968.0625.121093.023437.082031.042968.203125.070312.367188.042969.261719.074219.417969.128906.523437.027344.050782.0625.09375.109375.117188.046875.027344.097657.03125.148438.03125.042969 0 .0625-.011719.09375-.027344s.070312-.035156.113281-.0625c.101562-.058594.203125-.125.300781-.195312.183594-.132813.300781-.207032.371094-.238282.066406-.027344.078125-.023437.109375 0 .003906.003906.007812.007813.015625.019532.011719.023437.027344.058593.046875.101562.039062.085938.089844.203125.136719.324219.070312.183593.117187.300781.160156.382812.042969.078125.089844.128907.144531.15625.085938.039063.183594.042969.285156-.019531.097657-.0625.207032-.171875.382813-.363281.105469-.113281.183594-.199219.246094-.25.058593-.050781.09375-.0625.113281-.058594s.054688.023437.109375.089844c.050781.066406.117187.167969.203125.308593.09375.15625.171875.273438.246094.355469.074218.082031.152344.136719.242187.136719.089844 0 .167969-.058594.242188-.144531.078125-.082031.15625-.203125.253906-.359375.085937-.136719.144531-.234375.195313-.296875.050781-.0625.082031-.082031.101562-.082031.015625-.003907.054688.011718.117188.0625.0625.054687.148437.144531.261718.261718.148438.15625.242188.25.316406.304688.070313.058594.136719.082031.199219.082031.042969 0 .082031-.007813.121094-.019531.039063-.011719.070313-.027344.101563-.054688.023437-.023437.03125-.042968.046874-.074218.015626-.03125.03125-.070313.054688-.113282.039062-.089844.085938-.207031.132812-.328125.042969-.117187.089844-.226562.125-.308593.019532-.042969.035157-.074219.046876-.097657.007812-.011719.011718-.015625.015624-.023437.007813-.003906.019532-.007813.03125-.007813.015626-.003906.039063.003907.074219.019531.074219.027344.191407.105469.375.234376.109375.078124.214844.148437.304688.199218.042969.023438.082031.042969.113281.058594s.050781.027344.09375.027344c.050781 0 .105469-.007813.152344-.035156.042968-.03125.082031-.074219.109375-.128907.054687-.109375.089843-.273437.128906-.527343.03125-.214844.050781-.332032.070313-.390626.015624-.058593.015624-.054687.050781-.070312.035156-.019531.035156-.019531.097656-.003906.0625.019531.171875.066406.367187.152344.121094.054687.238282.105468.328126.140624.046874.019532.085937.035157.121093.042969.03125.011719.046875.019531.082031.019531.042969 0 .078126-.015624.113282-.035156.035156-.019531.070312-.046875.101562-.078125l.117188-.117187-.027344-.511719c-.015625-.230469-.019531-.351563-.011719-.410156.003907-.0625.003907-.054688.039063-.082031.019531-.019532.027344-.027344.03125-.027344.007812-.003906.015625-.003906.039062-.003906.050782.003906.160156.027343.371094.074218.253906.058594.40625.089844.519531.09375.109375.003906.191407-.03125.246094-.089844.023437-.023437.050781-.046874.066406-.085937.015625-.035156.023438-.078125.019531-.125-.003906-.097656-.039062-.238281-.101562-.507813-.035156-.152343-.066406-.265624-.074219-.339843-.011719-.078125-.003906-.105469.007813-.117188.011718-.011719.050781-.027343.136718-.035156.085938-.007813.214844-.007813.386719-.007813.238281 0 .367188 0 .457031-.011718.085938-.011719.144532-.042969.179688-.082032.058594-.066406.089844-.160156.066406-.273437-.019531-.113281-.078125-.253906-.179687-.472656-.046875-.09375-.089844-.191407-.128907-.285157-.015624-.039062-.03125-.074218-.039062-.097656-.003906-.007812-.003906-.015625-.007812-.023437 0-.019531.003906-.03125.007812-.039063.007812-.011718.023438-.023437.058594-.039062.070312-.03125.210937-.0625.441406-.097656.121094-.019532.242188-.046876.363281-.074219.046875-.011719.089844-.023438.121094-.035157.035156-.011718.058594-.019531.085937-.042968.039063-.035156.070313-.082032.082032-.132813.011718-.050781.007812-.109375-.011719-.167969-.039063-.121093-.125-.265624-.273437-.472656-.09375-.128906-.160157-.226562-.199219-.296875-.039063-.070312-.042969-.105469-.039063-.125.003906-.015625.027344-.042969.101563-.078125.070312-.039062.179687-.078125.328125-.132812.175781-.066406.3125-.121094.410156-.175782.101562-.058593.171875-.121093.195312-.207031.019532-.089843-.019531-.175781-.085937-.265625s-.167969-.191406-.300781-.316406c-.121094-.117188-.210938-.203125-.269532-.269531-.054687-.066407-.070312-.105469-.070312-.125.003906-.015625.019531-.046875.082031-.09375.058594-.050781.160157-.113281.292969-.195313.164062-.097656.289062-.179687.375-.257812.089844-.074219.148438-.152344.148438-.242188 0-.09375-.054688-.167968-.140626-.246094-.085937-.074218-.210937-.15625-.371093-.253906-.136719-.085937-.238281-.152344-.300781-.199218-.066407-.050782-.082032-.082032-.082032-.101563-.003906-.019531.011719-.058594.066406-.125.058594-.066406.148438-.152344.273438-.269531.132812-.125.230469-.222656.296875-.3125.066406-.085938.109375-.171875.089844-.257813-.019531-.085937-.089844-.144531-.1875-.203125-.097657-.054687-.230469-.105468-.402344-.175781-.15625-.058594-.269531-.101563-.34375-.140625-.074219-.035156-.101563-.066406-.105469-.085938-.007812-.019531-.003906-.054687.035156-.125.039063-.066406.109376-.164062.203126-.292968.109374-.152344.179687-.253906.226562-.335938.042969-.082031.0625-.148437.0625-.210937 0-.050781-.007812-.101563-.03125-.148438-.023438-.042969-.0625-.082031-.117188-.105469-.105468-.054687-.261718-.082031-.53125-.125-.222656-.039062-.355468-.066406-.421874-.097656-.035157-.015625-.050782-.027344-.054688-.039062-.007812-.007813-.007812-.015625-.011719-.035156.003907-.007813.007813-.015626.011719-.027344.007812-.023438.019531-.058594.039062-.097656.039063-.09375.082032-.191407.125-.285157.101563-.210937.160157-.363281.179688-.484375.019531-.117187-.011719-.21875-.082031-.285156-.039063-.035156-.097657-.058594-.1875-.070312-.085938-.007813-.214844-.007813-.429688-.003907-.222656.003907-.347656.003907-.417969-.003906-.070312-.007813-.074218-.011719-.097656-.035156-.015625-.015625-.019531-.023438-.023437-.027344 0-.003906-.003907-.011719 0-.039063.003906-.054687.027343-.167968.082031-.386718v-.003906c.0625-.269532.097656-.40625.101562-.503907 0-.050781-.003906-.09375-.027343-.128906-.019531-.039063-.042969-.0625-.070313-.085937-.0625-.058594-.136718-.097657-.242187-.09375-.105469.003906-.246094.035156-.496094.09375-.179687.039062-.285156.0625-.347656.070312-.0625.003906-.074219 0-.109375-.019531l-.054688-.027344.023438-.457031.027344-.53125-.113282-.113282c-.03125-.03125-.0625-.058593-.101562-.078124-.035156-.019532-.066406-.035157-.109375-.035157-.039063 0-.050781.007813-.082031.015625-.035157.011719-.074219.027344-.121094.046875-.089844.035157-.207032.085938-.328125.140625-.195313.089844-.304688.140625-.367188.15625s-.058593.015625-.09375-.003906c-.035156-.019531-.039062-.015625-.058593-.078125-.019532-.0625-.042969-.183594-.078126-.40625-.042968-.261719-.074218-.417969-.128906-.523437-.027344-.050782-.0625-.09375-.109375-.117188-.046875-.027344-.097656-.035156-.148437-.035156-.046875 0-.0625.015625-.09375.03125s-.070313.039062-.117188.0625c-.105468.066406-.207031.132812-.308594.207031-.179687.128906-.28125.199219-.34375.230469-.058593.027344-.054687.023437-.09375.011718-.023437-.007812-.042968-.023437-.058593-.042968-.019531-.027344-.042969-.070313-.066407-.136719-.039062-.105469-.113281-.304687-.167968-.445313-.054688-.144531-.09375-.234374-.15625-.300781-.0625-.066406-.144532-.089843-.234375-.089843-.058594 0-.125.027343-.195313.085937-.074218.054687-.167968.148437-.3125.300781-.113281.117188-.199218.203125-.261718.257813-.0625.050781-.101563.066406-.121094.0625-.019532 0-.050782-.019531-.101563-.085938-.046875-.0625-.109375-.164062-.195312-.300781-.066407-.109375-.132813-.214844-.191407-.296875-.023437-.03125-.050781-.066406-.078124-.097656-.019532-.027344-.03125-.0468752-.066407-.0625002-.050781-.0273438-.105469-.0429688-.164062-.0429688zm-.125.101562.035156.0625c.054687-.03125.125-.035156.1875 0h.003906c-.019531-.007812.003907.007813.023438.027344.019531.023438.042969.054688.070312.09375.066407.09375.128907.191406.1875.289063.082031.136719.144531.238281.203125.3125.058594.078125.121094.132812.199219.140625.078125.007812.148437-.035156.222656-.097656s.160157-.152344.273438-.269532c.144531-.148437.234375-.238281.296875-.285156.0625-.050781.082031-.054688.109375-.054688.070312 0 .097656.007813.132812.042969.035157.039063.074219.117188.128907.257813.050781.140625.125.339844.164062.441406.027344.074219.054688.128906.089844.171875.03125.046875.074218.078125.125.09375.054687.019531.125.019531.203125-.019531.074219-.039063.175781-.113282.359375-.242188.097656-.070312.195312-.136718.300781-.199218.039063-.027344.078125-.046876.105469-.058594.023437-.011719.054687-.015625.03125-.015625.039062 0 .0625.003906.082031.015625.015625.007812.03125.023437.050781.0625.039063.070312.074219.222656.117188.480468.035156.222657.054687.34375.082031.425782.027344.082031.078125.132812.125.15625.050781.027344.117187.039062.199219.015625.082031-.023438.1875-.070313.386718-.164063.105469-.046875.214844-.09375.320313-.136718.046875-.019532.085937-.03125.113281-.042969.027344-.007813.054688-.011719.039063-.011719-.007813 0 .015625.003906.039062.019531.023438.011719.050781.035157.074219.054688l.070312.070312-.050781 1.015625.128907.070313h.003906c.046875.023437.105468.039062.183594.03125.082031-.007813.1875-.03125.367187-.074219.25-.058594.390625-.085938.46875-.085938.078125-.003906.09375.007813.140625.054688.027344.023438.039062.039062.046875.050781s.011719.023438.007813.054688c0 .070312-.03125.210937-.097657.480469-.050781.222656-.078125.332031-.085937.410156-.003906.042968 0 .078125.015625.109375.011719.027343.03125.046875.050781.066406.039062.039063.09375.066406.179688.078125.085937.007812.214843.007812.4375.003906.214843-.003906.339843-.003906.414062.003906.074219.007813.085938.015626.105469.03125.039062.035157.050781.070313.035156.164063s-.066406.238281-.164063.445313c-.050781.109374-.097656.210937-.128906.292968-.019531.039063-.03125.070313-.042968.097656-.003907.011719-.007813.023438-.011719.035157-.003907.011719-.003907.015625-.003907.039062 0 .039063.007813.082031.03125.121094.027344.035156.066407.0625.113282.085937.09375.039063.234375.070313.460937.105469.265625.042969.417969.078125.488281.113281.035157.015626.050782.03125.058594.046876.007813.015624.011719.039062.011719.082031 0 .039062-.007813.074219-.046875.144531s-.105469.171875-.214844.320312c-.09375.128907-.164062.226563-.210937.308594-.046875.082032-.074219.160156-.046875.234375.023437.074219.089844.125.175781.167969s.203125.089844.355469.148438c.171875.066406.300781.117187.386718.167968.082032.046875.113282.082032.117188.109375.007812.023438-.003906.066407-.0625.140625-.058594.074219-.152344.171875-.285156.296875-.121094.117188-.214844.203125-.28125.28125-.0625.074219-.105469.144531-.101563.222657.003907.082031.058594.140624.136719.203124.074219.058594.175781.121094.316406.207032.15625.097656.273438.175781.347656.242187.074219.0625.09375.109375.09375.136719 0 .03125-.023437.078125-.097656.140625-.074218.066406-.195312.144531-.355468.246094-.136719.082031-.238282.144531-.308594.199219-.074219.058593-.128906.121093-.132813.199218-.003906.082032.039063.148438.101563.222656.066406.078126.15625.164063.28125.28125.128906.125.226562.222657.28125.296876.058594.078124.070312.121093.0625.152343-.007813.027344-.039063.066407-.125.117188-.085938.046875-.21875.101562-.394532.167969-.148437.050781-.257812.09375-.34375.136718-.082031.042969-.144531.089844-.167968.164063-.023438.074219.003906.152343.050781.234375.042969.082031.113281.179687.207031.308594.144532.203124.226563.34375.253906.429687.015626.046875.015626.074219.007813.09375-.003906.023437-.015625.042969-.039063.0625.007813-.003906-.011718.007813-.039062.015625-.035156.011719-.070312.023438-.105469.03125-.09375.023438-.214843.046875-.355469.070312-.234374.039063-.375.066407-.472656.109376-.046875.019531-.085937.046874-.113281.082031-.027344.039062-.039063.078125-.039063.125 0 .023437.003907.027343.003907.035156.003906.011719.007812.023437.015625.039063.007812.023437.023437.058593.039062.097656.035156.082031.078125.1875.132813.296875.097656.210937.152343.347656.167969.433593.015624.085938.007812.113282-.035157.15625-.023437.023438-.023437.027344-.09375.039063-.070312.007813-.199219.011719-.4375.011719-.171875 0-.300781-.003906-.398437.003906s-.175782.023438-.226563.082031c-.054687.058594-.058593.136719-.046875.230469.011719.089844.042969.199219.078125.351562.0625.269532.09375.414063.097657.484376.003906.035156 0 .046874-.003907.058593-.007812.011719-.015625.023438-.039062.046875-.039063.039063-.054688.050782-.144531.046875-.085938-.003906-.238282-.03125-.492188-.089843-.210938-.046876-.316406-.074219-.394531-.078126-.039063 0-.074219.003907-.101563.015626-.03125.015624-.050781.035156-.070312.050781-.050782.042969-.082032.105469-.085938.171875-.007812.082031 0 .203125.011719.433594l.023437.449218-.070312.074219c-.023438.019531-.046875.039063-.074219.054687-.023437.011719-.046875.015626-.042969.015626.015626 0-.011718 0-.039062-.011719-.039062-.011719-.074219-.023438-.113281-.039063-.109375-.042968-.214844-.089844-.320313-.136718-.195312-.089844-.304687-.136719-.386718-.160157-.082032-.023437-.148438-.011719-.199219.011719-.046875.023438-.097657.074219-.121094.152344-.027344.082031-.042969.199218-.078125.414062-.035156.25-.074219.40625-.113281.484375-.019531.039063-.039063.058594-.058594.070313-.019531.011718-.042969.019531-.078125.019531.015625 0-.007812-.003906-.035156-.015625-.035156-.015625-.070313-.035156-.101563-.054688-.101562-.058593-.199219-.125-.296875-.191406-.183594-.132812-.300781-.210937-.394531-.25-.046875-.019531-.089844-.03125-.132813-.03125-.042968 0-.082031.015625-.113281.035156-.023437.015626-.027343.023438-.035156.035157-.003906.007812-.011719.023437-.019531.035156-.015625.027344-.03125.0625-.050782.105469-.046874.105468-.089843.210937-.132812.320312-.042969.117188-.089844.230469-.128906.316406-.019532.042969-.035156.082032-.050782.109376-.015624.023437-.03125.046874-.023437.035156 0 0-.019531.015625-.042969.023437-.023437.007813-.050781.011719-.078125.011719-.039062 0-.054687-.003906-.113281-.050781-.0625-.046875-.152344-.136719-.300781-.292969-.113281-.117188-.199219-.207031-.273438-.269531s-.140625-.105469-.222656-.097657c-.078125.007813-.136719.0625-.195313.132813-.058593.074219-.121093.179687-.203124.3125-.097657.15625-.175782.269531-.238282.34375-.066406.070313-.109375.09375-.140625.09375s-.074219-.019531-.136719-.089844c-.0625-.070312-.140624-.183593-.234374-.335937-.085938-.136719-.152344-.242188-.210938-.320313-.0625-.078125-.121094-.132812-.199219-.140625-.082031-.011718-.152343.027344-.222656.089844-.074219.058594-.152344.144531-.257813.261719-.175781.1875-.285156.292969-.355468.339843-.070313.042969-.089844.039063-.152344.007813-.023438-.011719-.042969-.027344-.082031-.09375-.035157-.070313-.082031-.183594-.152344-.367187-.042969-.109376-.089844-.222657-.136719-.332032-.015625-.035156-.035156-.074218-.054687-.109375-.007813-.011719-.015625-.027343-.023438-.039062-.007812-.007813-.007812-.019531-.03125-.035157-.066406-.039062-.152343-.046874-.246093-.003906-.09375.039063-.210938.117188-.398438.25-.09375.066406-.191406.128906-.289062.191406-.035157.019532-.066407.035157-.101563.054688-.027344.011719-.054687.015625-.035156.015625-.039063 0-.0625-.007813-.082031-.015625-.015626-.011719-.03125-.023438-.050782-.0625-.039062-.070312-.074218-.222656-.117187-.480469-.027344-.160156-.046875-.285156-.074219-.378906-.023438-.09375-.058594-.167969-.128906-.207031-.070313-.039063-.148438-.027344-.242188.003906-.089844.03125-.199218.082031-.347656.148438-.105469.046874-.210938.09375-.320312.136718-.046876.015625-.082032.03125-.113282.039063-.027344.011719-.054687.011719-.039062.011719.003906 0-.019532-.003907-.042969-.015626-.027344-.015624-.050781-.03125-.070313-.054687-.046874-.042969-.050781-.039063-.058593-.101563-.003907-.058593 0-.1875.011719-.4375l.027343-.546874-.132812-.070313c-.046875-.023437-.105469-.039063-.183594-.03125-.074219.007813-.179687.03125-.355469.070313-.226562.054687-.375.085937-.46875.089843-.09375.007813-.121094-.007812-.144531-.027343v-.003907c-.042969-.042969-.054687-.058593-.050781-.140625 0-.078125.027344-.21875.082031-.449218.039063-.15625.066406-.269532.078125-.363282.015625-.089844.011719-.171875-.039062-.230468-.054688-.0625-.132813-.078126-.230469-.085938-.097657-.007812-.226563-.007812-.398438-.007812-.183593 0-.320312-.003907-.414062-.015626-.097657-.015624-.136719-.039062-.152344-.0625-.011719-.023437-.019531-.070312.007813-.164062.027343-.09375.082031-.222656.160156-.394531.050781-.109375.097656-.214844.128906-.296875.019531-.039063.03125-.074219.042969-.101563.003906-.011719.007812-.023437.011719-.035156.003906-.011719.003906-.015625.003906-.039063 0-.039062-.007813-.082031-.035156-.117187-.023438-.039063-.0625-.0625-.109376-.085937-.09375-.039063-.234374-.070313-.457031-.105469-.265625-.046875-.417969-.082031-.492187-.117188-.035156-.015625-.050782-.03125-.058594-.046875s-.011719-.035156-.011719-.070312c0-.058594.054688-.175782.261719-.472656.09375-.128907.164062-.226563.210938-.308594.042968-.085938.070312-.160156.046874-.238282-.023437-.074218-.089843-.121093-.175781-.164062-.085937-.046875-.199219-.089844-.351562-.144531-.171875-.066407-.300781-.121094-.386719-.167969-.082031-.046875-.113281-.085938-.117188-.109375-.007812-.027344.003907-.070313.0625-.144531.054688-.074219.152344-.171875.28125-.296875.121094-.113281.214844-.203125.28125-.277344.0625-.074219.105469-.140625.105469-.21875s-.050781-.140625-.121093-.199219c-.066407-.054687-.160157-.113281-.285157-.1875-.253906-.15625-.378906-.234375-.429687-.285156-.023438-.023438-.03125-.035156-.03125-.050781-.003906-.015625-.003906-.042969 0-.085938.003906-.070312-.003906-.074219.042968-.117187.042969-.042969.152344-.113282.363282-.246094.136718-.085938.242187-.152344.320312-.210938.074219-.058593.128906-.121093.136719-.203124.007813-.078126-.035156-.148438-.101563-.222657-.066406-.078125-.15625-.164062-.28125-.28125-.132812-.125-.226562-.222656-.285156-.296875-.054687-.074218-.066406-.117187-.0625-.140625.003906-.027343.035156-.0625.121094-.109375.082031-.050781.210938-.101562.382812-.167968.152344-.058594.269532-.101563.355469-.148438.085938-.042969.152344-.089844.175781-.167969.023438-.074219-.003906-.152343-.050781-.234375-.042969-.082031-.113281-.179687-.207031-.3125-.148438-.207031-.226562-.339844-.25-.421875-.011719-.042969-.011719-.066406-.007812-.089843.007812-.019532.019531-.042969.046874-.070313.019532-.015625.039063-.035156.050782-.042969.007812-.003906.011718-.007812.015625-.011718h.007812l.03125-.003907c.027344-.003906.0625-.007812.105469-.015625.082031-.011718.195312-.03125.316406-.050781.214844-.035156.351563-.0625.445313-.105469.042969-.019531.082031-.046875.109375-.082031.023437-.039063.03125-.082031.03125-.121094 0-.023437 0-.027343-.003906-.039062-.003907-.011719-.007813-.023438-.011719-.035157-.011719-.023437-.023438-.058593-.042969-.101562-.039062-.097656-.082031-.195312-.128906-.292969-.078125-.171875-.132813-.300781-.15625-.394531-.027344-.097656-.023438-.144531-.007813-.167969.019531-.027343.0625-.050781.160157-.066406.097656-.011719.242187-.015625.429687-.011719.226563.003906.351563.003906.433594-.003906.042969-.003906.074219-.011719.105469-.027344s.050781-.039062.066406-.058594c.046875-.058593.066406-.125.050781-.199218-.011719-.039063-.0625-.257813-.113281-.488282l-.089844-.378906.050781-.074218c.042969-.054688.0625-.070313.144531-.074219.085938 0 .230469.023437.472657.082031.183593.042969.292969.066406.375.074219.078125.007812.136719-.007813.1875-.03125l.132812-.074219-.027343-.542969c-.011719-.253906-.015626-.378906-.011719-.441406.007812-.0625.011719-.054687.058593-.101563.019532-.019531.042969-.035156.070313-.050781.023437-.015625.046875-.019531.039063-.019531-.015626 0 .011718.003906.039062.011719.03125.011719.070312.023437.113281.042969.089844.035156.203125.082031.324219.136718.148438.066406.257812.117188.347656.148438.09375.03125.171875.042968.242188.003906.070312-.039062.105468-.113281.128906-.207031.027344-.09375.046875-.21875.074219-.382813.042969-.253906.078125-.40625.117187-.480468.015625-.035157.03125-.050782.050782-.058594.015624-.011719.039062-.015625.078124-.015625-.023437 0 .003907.003906.03125.015625.027344.011718.066407.03125.105469.058594.101563.0625.203125.128906.300781.199218.148438.105469.253907.175782.335938.222656.078125.042969.136719.070313.199219.058594.027343-.007812.058593-.011718.089843-.035156.03125-.019531.054688-.050781.078126-.089844.042968-.078125.09375-.207031.1875-.460937.035156-.097657.074218-.191407.121093-.289063.015625-.039062.035157-.070312.046875-.09375.011719-.023437.03125-.039062.015625-.027344.007813-.007812.085938-.03125.132813-.03125.03125-.003906.050781 0 .109375.050782.058593.046875.152343.136718.296875.289062.113281.117188.195312.207032.269531.269532s.144531.105468.226563.097656c.078124-.007813.136718-.0625.195312-.136719.058594-.078125.125-.179687.207031-.320313.066407-.105468.132813-.210937.1875-.285156.027344-.039062.050781-.070312.066407-.09375.007812-.011718.015624-.019531.023437-.023437.003906-.007813.007813-.007813 0-.003907zm.066406 1.484376c-.140625.011718-.273437.070312-.371094.167968-.191406.179688-.21875.4375-.132812.640625.089843.222657.308593.367188.550781.367188.546875 0 .785156-.75.339844-1.070313-.113282-.078125-.25-.117187-.386719-.105468m.007813.136718c.101562-.007812.207031.019532.296874.082032.34375.246093.164063.816406-.257812.816406-.207031 0-.355469-.121094-.421875-.28125-.066406-.15625-.046875-.34375.097656-.484375.085938-.082031.183594-.125.285157-.132813m-1.160157.714844-.367187.09375c-.960938.25-1.882813.710938-2.597656 1.300781-.128907.109375-.304688.269531-.445313.40625-.074219.070313-.136719.132813-.179687.183594-.019532.019531-.039063.039063-.058594.0625-.007813.007813-.011719.015625-.019532.027344-.003906.007812-.015624.011719-.015624.046875l.015624.042968s.015626.011719.019532.015626c.007812.007812.011718.007812.015625.007812.007812.003906.011719.003906.015625.003906.023437.003906.050781.003906.074218.003906.050782.003907.121094.003907.210938.007813.179688.003906.441406.003906.765625.007813.648437.003906 1.539063.007812 2.519531.007812 1.726563 0 2.621094 0 3.117188.011719.496094.007812.582031.023437.71875.058593 1.152344.296876 1.917968 1.195313 1.847656 2.148438-.035156.496094-.367188 1.007812-.957031 1.449219-.082031.0625-.15625.125-.210938.171875-.027343.023437-.050781.042968-.070312.058594-.007813.007812-.015625.015624-.019531.023437-.003907.003906-.007813.007813-.011719.015625-.003907.003906-.011719.011719-.011719.039062 0 .042969.011719.042969.015625.050782.007813.007812.011719.011718.019531.019531.015625.019531.03125.035156.050782.054687.042968.039063.097656.089844.160156.140626.378906.316406.558594.628906.703125 1.214843.023437.101563.054687.207031.082031.289063.015625.039062.03125.078125.042969.105468.015625.03125.023437.054688.042969.074219.132812.148438.347656.226563.566406.242188.222656.015625.453125-.03125.636718-.148438.222657-.144531.324219-.382812.339844-.765625.007813-.128906.011719-.21875.015625-.285156.007813-.0625.019531-.089844.023438-.101562.007812-.007813.019531-.011719.070312-.015626.046875-.003906.125-.003906.230469-.003906h.414062l.035157-.167968c.019531-.089844.023437-.25.019531-.425782 0-.175781-.007812-.355468-.027344-.464844l-.027344-.199218-.664062-.296875c-.175781-.078125-.335938-.15625-.460938-.214844-.050781-.023437-.101562-.050781-.152343-.074219-.039063-.019531-.070313-.042968-.0625-.035156-.019531-.015625-.058594-.074219-.085938-.140625-.027343-.066406-.046875-.140625-.046875-.183594 0 .007813.003906-.003906.003906-.019531.003907-.011719.011719-.03125.019532-.054688.015625-.050781.039062-.113281.070312-.191406.058594-.148437.144532-.347656.234375-.550781l.347657-.78125-.09375-.164063c-.359376-.628906-1.179688-1.519531-1.8125-1.964843-.6875-.484375-1.851563-1-2.46875-1.082031l-.21875-.03125-.46875.453124c-.296876.285157-.46875.441407-.589844.503907-.117188.066406-.171875.058593-.292969.011719.011719.003906-.019531-.011719-.054687-.039063-.03125-.027344-.074219-.066406-.125-.109375-.121094-.113281-.238282-.226562-.355469-.34375zm-.042969.15625.4375.441406c.128907.132813.257813.253906.359376.347656.050781.046876.09375.085938.132812.117188.035156.027344.054688.046875.089844.058594.136718.054687.265625.0625.414062-.015625.144532-.082031.320313-.242188.617188-.527344l.417968-.40625.15625.019531c.5625.078125 1.742188.589844 2.402344 1.058594.609375.429688 1.429688 1.324219 1.773438 1.921875l.058594.101563-.320313.714843c-.082031.1875-.160156.371094-.234375.558594-.027344.066406-.050781.128906-.074219.195313-.007812.023437-.011719.042968-.019531.066406-.003906.019531-.007812.03125-.007812.054687 0 .074219.019531.160157.054687.238281.03125.078126.070313.148438.125.195313h.003906c.023438.019531.042969.027344.082031.046875.042969.023438.09375.050781.15625.078125.125.0625.292969.136719.464844.214844l.59375.269531.019532.121094c.015624.097656.023437.277344.027343.445312 0 .171875-.007812.339844-.019531.398438l-.011719.054687h-.300781c-.105469 0-.179688 0-.242188.003907-.0625.003906-.121093.019531-.164062.066406-.039062.046875-.050781.105468-.054688.179687-.007812.070313-.011718.164063-.015624.292969-.015626.359375-.09375.53125-.277344.652344-.152344.097656-.359375.140625-.550782.125-.195312-.011719-.375-.082032-.472656-.195313.003906.003907-.011718-.011719-.019531-.035156-.015625-.035156-.027344-.066406-.039063-.097656-.027343-.078125-.054687-.175781-.082031-.277344-.144531-.601563-.347656-.953125-.746093-1.285156-.050782-.046875-.101563-.089844-.152344-.136719-.007813-.007812-.015625-.011719-.019532-.019531.011719-.011719.019532-.019531.039063-.035157.050781-.042968.125-.101562.207031-.164062.609375-.460938.96875-1.003906 1.011719-1.550781.074219-1.035157-.746094-1.988281-1.953125-2.292969-.140625-.039062-.253906-.058594-.75-.066406-.5-.007813-1.394531-.011719-3.121094-.011719-.980468 0-1.871094 0-2.519531-.007813-.320313 0-.582031-.003906-.765625-.007812-.058594 0-.097656-.003906-.136719-.003906.039063-.042969.09375-.097656.15625-.15625.136719-.136719.3125-.296875.4375-.398438.695313-.578125 1.601563-1.03125 2.542969-1.273437zm-5.175781 3.800781c-.125.019531-.242187.082031-.332031.175781-.175781.179688-.25.472657-.089844.734376.226563.363281.785156.34375 1.007813-.027344.078125-.125.085937-.285156.050781-.433594-.039062-.144531-.121094-.285156-.246094-.367188-.113281-.074218-.253906-.105468-.390625-.082031m12.765625.019531c-.101562 0-.199218.023438-.289062.070313-.222656.113281-.332032.324219-.328125.535156.007812.210938.128906.417969.351562.515625.332031.148438.636719-.015625.765625-.261718.125-.246094.082032-.589844-.226562-.78125-.082032-.046876-.175782-.074219-.273438-.078126m-11.777344.070313.140626.308594c.101562.222656.152343.371093.160156.476562.007812.109375-.015625.179688-.082032.285157.003907-.011719-.015624.011718-.046874.03125-.03125.023437-.078126.050781-.136719.078124-.117188.0625-.277344.140626-.476563.230469l-.675781.304688-.027344.414062c-.039062.542969.023438 1.195313.167969 1.832031l.085938.371094h1.980468v-4.332031zm3.902344.039063v1.382812l1.28125-.011719c.59375-.007812.898438-.007812 1.082032-.023437.183593-.011719.253906-.039063.351562-.082032.136719-.0625.242188-.132812.3125-.21875.066406-.089843.101562-.195312.101562-.316406 0-.160156-.0625-.3125-.175781-.425781-.117187-.113281-.277343-.195313-.484375-.25-.179687-.046875-.464844-.054687-1.3125-.054687zm-4.871094.003906c.09375-.015625.195313.003906.292969.066406.089844.058594.160157.167969.1875.285156.03125.117188.019531.242188-.03125.328125-.171875.285157-.601562.296875-.769531.023438-.128906-.203125-.070312-.421875.070312-.5625.070313-.074219.15625-.125.25-.140625m12.742188.027344c.074219 0 .144531.019531.207031.058593.25.152344.269531.402344.171875.597657-.101562.191406-.3125.316406-.582031.199218-.179687-.078125-.265625-.234375-.269531-.394531s.078125-.320313.25-.40625c.070312-.035156.144531-.054687.222656-.054687zm-11.558594.070312h.734375v4.050781h-1.726562l-.0625-.261719c-.144531-.625-.203125-1.269531-.167969-1.789062l.023438-.332031.597656-.269531c.203125-.089844.367187-.171876.488281-.234376.058594-.03125.109375-.058593.148437-.085937.035157-.023437.0625-.035156.082032-.074219.078125-.117187.121094-.230468.109375-.371094-.015625-.136718-.070313-.292968-.175781-.523437zm3.824219.035156h1.019531c.84375 0 1.128906.015625 1.277344.054688.1875.046875.328125.121094.417969.210937.089843.09375.136719.199219.136719.328125 0 .097656-.023438.164063-.070313.230469-.050781.0625-.132813.121094-.261719.175781-.09375.042969-.128906.0625-.304687.074219-.171875.011719-.476563.015625-1.070313.019531l-1.144531.011719zm-.136719 2.886719v1.304687h.867188c.3125 0 .515625.003907.640625.011719.058593.003907.101562.007813.125.015625.019531.003906.019531.003906.015625 0 0 .007813.003906.019532.003906.039063.007812.039062.011719.101562.011719.183593.007812.160157.007812.402344.003906.742188l-.011719.894531-2.636718.007813c-.742188.003906-1.421876.007812-1.910157.011718-.246093.003907-.445312.007813-.582031.011719-.070312 0-.125.003907-.160156.003907-.015625 0-.03125 0-.042969.003906-.007813 0-.011719 0-.019531 0 0 0-.003906 0-.011719.003906l-.007813.003906s-.007812.003906-.007812.003906l-.019531.015626-.011719.042968c0 .039063.007812.039063.015625.046875.003906.011719.011719.019531.019531.03125.015625.023438.035156.050781.058594.082031.058594.074219.121094.144532.183594.21875.066406.074219.132812.152344.1875.207032.027344.03125.050781.054687.070312.070312.007813.011719.015625.019532.027344.023438.003906.003906.007812.007812.015625.011718.003906.003907.011719.011719.039063.011719.015624 0 .015624-.003906.027343-.003906l.035157-.007813c.03125-.003906.074218-.011718.121093-.023437.097657-.019531.226563-.046875.367188-.078125.363281-.082031.582031-.113281.71875-.101562.136719.011718.1875.054687.257812.164062 0 0 .015625.027344.027344.066406.011719.039063.027344.089844.042969.148438.035156.117187.070312.273437.105468.429687.066407.3125.128907.605469.140626.65625.015624.054688.050781.089844.101562.128907.046875.035156.105469.066406.179688.101562.148437.070312.34375.140625.570312.207031.449219.128907 1.007812.242188 1.496094.285157.570312.046874 1.21875.007812 1.816406-.117188.367188-.074219 1.042969-.28125 1.273438-.398438l.15625-.078124.148437-.6875c.054687-.253907.097656-.445313.144531-.582032.046875-.136718.097656-.214844.15625-.253906.058594-.042969.140625-.058594.273438-.046875.132812.007813.3125.042969.550781.09375.191406.042969.378906.082031.570313.121094.019531.003906.03125.007812.039062.007812l.011719.003907h.019531.011719c.007812 0 .011719-.003907.019531-.007813.003906 0 .007812-.003906.011719-.007813.003906 0 .007812-.003906.011719-.007812.007812-.007812.015624-.015625.023437-.023438.019531-.019531.042969-.046874.070313-.074218.066406-.074219.128906-.148438.191406-.226563.066406-.074219.128906-.148437.191406-.226562.023438-.03125.046875-.058594.0625-.082031.007812-.007813.011719-.019532.019531-.027344.003907-.003906.003907-.007813.007813-.015625.003906-.003907.007812-.003907.007812-.035157l-.011718-.039062s-.003907-.007812-.007813-.007812l-.007813-.007813c-.007812-.007813-.011718-.007813-.019531-.011719-.007812-.003906-.011719-.003906-.015625-.003906-.007812 0-.019531-.003906-.027344-.003906-.03125-.003906-.058593-.003906-.085937-.003906-.105469-.003907-.207031-.007813-.308594-.011719-.335937-.003907-.671875-.007813-1.007812-.007813-.816407 0-1.207031.003906-1.417969-.035156-.109375-.019531-.164062-.046875-.222656-.089844-.054688-.042968-.109375-.105468-.191406-.195312-.257813-.28125-.34375-.480469-.488282-1.160156-.175781-.804688-.25-1.054688-.382812-1.253907-.132813-.195312-.371094-.371093-.589844-.433593-.035156-.007813-.074219-.011719-.136719-.015626-.0625-.003906-.144531-.007812-.242187-.011718-.230469-.007813-.460938-.011719-.691406-.011719zm.136719.140625h.851563c.253906 0 .496093.003906.6875.011719.09375 0 .175781.007812.238281.011719.058593.003906.105469.007812.109375.011718.171875.046875.402344.214844.507812.375.117188.171875.1875.402344.363282 1.207032.144531.683593.25.925781.519531 1.222656.082031.089844.140625.15625.214843.214844.070313.054687.15625.089843.277344.113281.242188.042969.628906.039062 1.445313.039062.390625 0 .746093.003907 1.003906.007813.125.003906.21875.003906.292969.007812l-.011719.015625c-.050781.0625-.117187.144531-.1875.222657-.0625.074218-.125.148437-.191406.222656-.027344.027344-.046875.054687-.0625.070312h-.003907l-.015624-.003906-.136719-.027344c-.113281-.023437-.269531-.054687-.4375-.09375-.238281-.050781-.421875-.085937-.570313-.097656-.148437-.011719-.265625.003906-.363281.070312-.09375.066407-.15625.175782-.207031.324219-.050782.148438-.09375.34375-.148438.601563l-.132812.621094-.097656.046874c-.191407.097657-.890626.316407-1.238282.386719-.585937.121094-1.21875.164063-1.777344.117188-.472656-.042969-1.03125-.15625-1.46875-.285157-.222656-.0625-.414062-.132812-.550781-.195312-.066406-.03125-.121093-.0625-.15625-.089844-.035156-.027344-.046875-.050781-.046875-.046875-.011718-.042969-.074218-.339843-.140625-.65625-.03125-.144531-.066406-.292969-.105469-.433593-.019531-.0625-.035156-.117188-.046874-.15625-.015626-.042969-.023438-.070313-.042969-.097657-.082031-.128906-.195313-.214843-.363281-.230469-.167969-.015624-.394532.023438-.761719.105469-.160157.035157-.320313.070313-.480469.101563l-.023438.003906-.003906-.003906c-.019531-.019532-.042968-.039063-.0625-.0625-.0625-.066406-.125-.136719-.183594-.207032-.0625-.070312-.121093-.140624-.179687-.210937l-.007813-.011719c.027344 0 .050782 0 .089844-.003906.191406-.003906.386719-.003906.578125-.007812.492188-.003907 1.167969-.011719 1.910157-.011719l2.777343-.011719.011719-1.03125c0-.339844 0-.582031-.003906-.746094 0-.066406-.003906-.128906-.011719-.195312-.003906-.019532-.003906-.039063-.011719-.058594-.003906-.019531-.003906-.03125-.023437-.054688-.027344-.03125-.058594-.039062-.09375-.046874-.050781-.011719-.101563-.015626-.148438-.019532-.132812-.007812-.332031-.007812-.648437-.007812h-.730469zm1.515625 1.191406c-.003906-.003906 0 0 0 0m-4.058594 3.007813c-.113281 0-.226562.023437-.316406.074219-.246094.152343-.320312.425781-.257812.660156.066406.230468.273437.421875.566406.421875.285156 0 .492187-.195313.5625-.425781.066406-.226563 0-.503907-.242188-.652344l-.070312.121094c.1875.113281.230468.3125.179687.492187-.054687.179687-.207031.328125-.429687.328125-.230469 0-.378906-.148438-.429688-.324219-.050781-.179687 0-.378906.195313-.5.058593-.035156.148437-.058593.238281-.054687.09375 0 .183594.019531.246094.058594l.070312-.121094c-.089844-.054688-.203125-.078125-.3125-.078125m7.964844.015625c-.246094-.039063-.515625.089844-.632812.335937-.082032.164063-.082032.324219-.03125.457031.054687.136719.15625.242188.28125.304688.25.132812.597656.09375.785156-.21875.152344-.25.074218-.605469-.167969-.78125-.070313-.050781-.148437-.085938-.234375-.097656zm-.023438.136718c.0625.007813.121094.03125.175782.070313.179687.132813.242187.421875.132812.597656-.15625.253907-.410156.273438-.601562.171875-.097656-.050781-.175782-.132812-.214844-.230468-.039062-.101563-.042969-.21875.023438-.351563.089843-.1875.296874-.285156.484374-.257813"/></svg>