<svg height="18" viewBox="0 0 18 18" width="18" xmlns="http://www.w3.org/2000/svg"><path d="m8.855469.0351562c-.035157.0195313-.171875.2148438-.304688.4335938-.339843.554688-.34375.554688-.796875.078125-.292968-.308594-.363281-.367187-.460937-.367187-.0625 0-.136719.023437-.171875.046874-.035156.027344-.128906.226563-.210938.449219-.191406.503907-.199218.519531-.304687.542969-.0625.011719-.1875-.058594-.488281-.273438-.21875-.15625-.433594-.285156-.476563-.285156-.183594 0-.234375.097656-.320313.617188-.109374.660156-.105468.660156-.703124.386718-.238282-.109374-.46875-.195312-.503907-.195312-.039062 0-.113281.039062-.164062.089844-.089844.089844-.089844.09375-.066407.597656l.027344.503906-.097656.050782c-.085938.046874-.144531.042968-.519531-.046876-.488281-.117187-.589844-.113281-.691407.019532l-.070312.097656.097656.417969c.050782.230469.101563.449219.113282.488281.007812.042969-.007813.105469-.035157.144531-.050781.0625-.101562.070313-.554687.0625-.769532-.011719-.8125.054688-.496094.746094.101562.21875.183594.417969.183594.441406 0 .128907-.097656.171875-.53125.242188-.242188.039062-.453125.074219-.46875.074219s-.058594.03125-.101563.074218c-.128906.128906-.09375.253906.207031.675782.371094.523437.371094.527343-.246093.761718-.699219.265625-.7109378.332032-.179688.839844.496094.46875.496094.460938-.066406.8125-.4257812.269531-.4296875.273438-.4414062.421875-.0117188.175781-.00781255.175781.4960932.488281.503907.304688.503907.316406.011719.78125-.5312498.5-.51562475.574219.183594.839844.613281.230469.613281.230469.242187.757812-.210937.296876-.28125.421876-.28125.511719 0 .171875.089844.21875.625.308594.453126.074219.550782.117187.550782.242187 0 .027344-.082032.226563-.183594.449219-.3125.683594-.277344.738281.464844.738281.695312 0 .675781-.019531.527344.605469-.113282.472657-.113282.5625-.011719.664063.078125.078125.222656.070312.683593-.042969.351563-.082031.414063-.089844.496094-.042969l.09375.046875-.027344.507813c-.023437.503906-.023437.503906.066407.597656.050781.050781.125.089844.164062.089844.039063 0 .269531-.089844.507813-.195313.59375-.269531.589844-.273437.699218.386719.085938.519531.136719.617188.324219.617188.042969 0 .253907-.125.46875-.277344.371094-.265625.46875-.304688.570313-.242188.023437.015625.125.234375.21875.484375.140625.371094.191406.464844.273437.503907.148438.070312.238281.015624.589844-.367188.425781-.464844.441406-.460938.789063.101562.382812.617188.480468.617188.875-.015624.335937-.542969.332031-.542969.789062-.066407.304688.316407.367188.367188.46875.367188.066406 0 .144531-.023438.175781-.054688.027344-.027343.128907-.25.21875-.488281.09375-.242188.1875-.453125.210938-.46875.097656-.058594.195312-.015625.570312.246094.21875.15625.425781.277344.472657.277344.183593 0 .25-.128907.324218-.636719.066406-.433594.078125-.476563.164063-.519531.082031-.042969.132812-.027344.527343.152343.238282.105469.46875.195313.507813.195313s.113281-.042969.164063-.09375l.09375-.09375-.023438-.484375c-.027344-.464844-.023438-.488281.050781-.554688.074219-.070312.082031-.070312.507813.027344.515625.117187.609375.121094.707031.023437.09375-.09375.09375-.113281-.035156-.660156-.144531-.609375-.164063-.585937.53125-.585937.472656 0 .527343-.007813.585937-.074219.101563-.113281.078125-.242188-.125-.671875-.101562-.21875-.183594-.417969-.183594-.441406.003907-.128907.105469-.171875.570313-.25.285156-.046875.5-.097657.539063-.132813.128906-.117187.082031-.269531-.214844-.6875-.371094-.519531-.371094-.523437.226562-.746094.710938-.261718.730469-.347656.199219-.855468-.496094-.46875-.496094-.464844.046875-.796875.652344-.402344.652344-.492188.011719-.890625-.554688-.34375-.554688-.339844-.058594-.808594.53125-.507812.519531-.574219-.179687-.839844-.617188-.234375-.621094-.242187-.246094-.757812.222656-.304688.277344-.40625.277344-.511719 0-.183594-.082032-.226563-.621094-.3125-.453125-.074219-.554688-.117187-.554688-.246094 0-.023437.085938-.222656.1875-.4375.195313-.425781.222656-.59375.113282-.695312-.0625-.054688-.140626-.0625-.574219-.054688-.449219.007813-.507813 0-.570313-.0625-.070312-.066406-.066406-.078125.039063-.523437.128906-.546875.132812-.558594.023437-.660156-.109375-.101563-.175781-.101563-.679687.015624-.363281.085938-.425781.09375-.507813.050782l-.09375-.050782.027344-.503906.023438-.503906-.09375-.09375c-.050782-.054688-.125-.09375-.164063-.09375-.035156 0-.261719.089844-.503906.199219-.398438.183593-.441407.195312-.527344.148437-.085937-.042968-.101563-.089844-.171875-.539062-.085938-.519532-.140625-.617188-.324219-.617188-.042969 0-.257812.128906-.480469.289063-.363281.257812-.414062.285156-.503906.253906-.074218-.027344-.117187-.085937-.171875-.226563-.039062-.105468-.113281-.304687-.167969-.445312-.105468-.285156-.164062-.351562-.328124-.351562-.085938 0-.167969.066406-.460938.367187-.457031.476563-.457031.476563-.792969-.078125-.132812-.21875-.273437-.4140625-.3125-.4335938-.082031-.046875-.183593-.046875-.257812 0m.414062 1.6562498c.398438.285156.1875.949219-.300781.949219-.472656 0-.710938-.570313-.375-.894531.191406-.179688.464844-.203125.675781-.054688m-.5 1.761719c.261719.097656.367188.039063.964844-.535156l.445313-.433594.191406.027344c.59375.078125 1.773437.597656 2.453125 1.078125.625.441406 1.453125 1.339844 1.808593 1.957031l.074219.132813-.335937.753906c-.183594.417968-.335938.800781-.335938.851562 0 .125.082032.320313.160156.382813.035157.027343.347657.179687.695313.335937l.632813.285156.027343.160157c.03125.210937.035157.726562.007813.875l-.023438.113281h-.363281c-.417969 0-.386719-.035156-.410156.476562-.015625.375-.105469.582032-.3125.714844-.335938.21875-.886719.179688-1.121094-.078125-.035156-.042969-.105469-.242187-.15625-.445312-.144531-.597657-.335937-.933594-.730469-1.261719-.121094-.101562-.222656-.199219-.222656-.214844 0-.011718.136719-.128906.300781-.253906.605469-.453125.953125-.984375.992188-1.511719.070312-1-.726563-1.933593-1.914063-2.238281-.28125-.070312-.402344-.074219-3.882812-.074219-1.980469 0-3.597656-.011719-3.597656-.027343 0-.035157.441406-.464844.699218-.675782.710938-.589844 1.632813-1.050781 2.589844-1.296875l.332031-.085937.46875.476562c.257813.261719.511719.492188.5625.511719m-5.914062 3.0625c.214843.144531.304687.5.175781.710937-.195312.332032-.699219.347657-.894531.027344-.289063-.464844.265625-1.035156.71875-.738281m12.75.019531c.566406.34375.128906 1.195313-.480469.925782-.402344-.179688-.414062-.730469-.019531-.933594.164062-.085938.355469-.082032.5.007812m-11.082031 2.113282v2.113281h-1.867188l-.074219-.324219c-.144531-.632812-.207031-1.285156-.171875-1.820312l.027344-.378907.640625-.289062c.402344-.179688.664063-.316407.695313-.367188.144531-.222656.132812-.382812-.074219-.835937l-.09375-.210938h.917969zm5.375-2.019532c.398437.101563.609374.316406.613281.613282 0 .214843-.109375.351562-.378907.472656-.1875.085937-.21875.089844-1.414062.101562l-1.21875.011719v-1.253906h1.09375c.851562 0 1.140625.011719 1.304688.054687m-.414063 3.03125c.199219.054688.433594.226563.554687.40625.125.1875.199219.429688.375 1.242188.148438.683594.242188.90625.507813 1.199218.332031.359376.253906.347657 1.902344.347657.789062 0 1.433593.011719 1.433593.027343 0 .027344-.542968.667969-.566406.667969-.007812 0-.292968-.058593-.632812-.128906-.957032-.207031-.992188-.183594-1.214844.847656l-.140625.660157-.128906.0625c-.210938.105468-.90625.324218-1.265625.398437-.59375.121094-1.242188.160156-1.8125.113281-.96875-.082031-2.25-.457031-2.300782-.675781-.011718-.042969-.074218-.34375-.144531-.660156-.066406-.316407-.148437-.617188-.183593-.667969-.160157-.242188-.324219-.257812-1.0625-.097656-.277344.0625-.519532.113281-.539063.113281-.035156 0-.550781-.597656-.550781-.636719 0-.015625 1.226562-.027344 2.726562-.035156l2.726563-.007812.011719-.96875c.007812-.683594-.003907-.984376-.03125-1.019532-.035157-.039062-.210938-.050781-.847657-.050781h-.800781v-1.175781h.925781c.511719 0 .988281.019531 1.058594.039062m-4.199219 4.40625c.433594.261719.222656.957032-.289062.957032-.527344 0-.722656-.6875-.273438-.960938.148438-.089844.410156-.089844.5625.003906m7.941406.027344c.210938.15625.28125.480469.152344.695312-.347656.570313-1.210937.117188-.921875-.480468.140625-.292969.519531-.398438.769531-.214844"/></svg>