<svg height="18" viewBox="0 0 18 18" width="18" xmlns="http://www.w3.org/2000/svg" xmlns:xlink="http://www.w3.org/1999/xlink"><linearGradient id="a" gradientUnits="userSpaceOnUse" x1="2.73325465325" x2="11.56510676917" y1="16.51992952707" y2="7.124100384"><stop offset="0" stop-color="#df1c84"/><stop offset=".401" stop-color="#de1c85"/><stop offset=".77" stop-color="#932c86"/><stop offset="1" stop-color="#5c2f87"/></linearGradient><linearGradient id="b" gradientUnits="userSpaceOnUse" x1="4.84238341245" x2="8.68631223912" y1="3.36349733222" y2="3.36349733222"><stop offset="0" stop-color="#df1c84"/><stop offset=".238" stop-color="#d91e85"/><stop offset=".658" stop-color="#c72085"/><stop offset=".999" stop-color="#b42184"/></linearGradient><radialGradient id="c" cx="190.460007" cy="80.199997" gradientTransform="matrix(.0709762 .00016875 -.00014062 .0593494 -1.052297 -.160453)" gradientUnits="userSpaceOnUse" r="121.580002"><stop offset="0" stop-color="#df1c84"/><stop offset=".139" stop-color="#de1e85"/><stop offset=".285" stop-color="#d62085"/><stop offset=".434" stop-color="#c82286"/><stop offset=".586" stop-color="#b72786"/><stop offset=".739" stop-color="#9c2a86"/><stop offset=".891" stop-color="#7c2e87"/><stop offset="1" stop-color="#5c2f87"/></radialGradient><path d="m1.039062 11.382812c-.371093-1.152343-.476562-2.367187-.265624-3.613281.09375-.519531.234374-1.015625.390624-1.519531 0 0 .980469-3.214844 4.296876-4.683594 0 0 1.140624-.605468 2.859374-.648437 0 0-.234374-.226563-.382812-.324219-.8125-.5390625-2.015625-.71875-2.746094.042969-.222656.226562-.40625.476562-.613281.703125-.234375.253906-.515625.46875-.84375.585937-.285156.109375-.566406.085938-.859375.136719-.296875.050781-.601562.15625-.84375.347656-.261719.214844-.371094.496094-.398438.824219-.027343.253906-.019531.515625-.035156.773437-.035156.75-.277344.964844-.816406 1.382813-.226562.171875-.417969.398437-.558594.640625-.425781.75.253906 1.53125.289063 2.292969.007812.152343-.007813.308593-.0625.460937-.058594.160156-.171875.269532-.261719.402344-.1289062.179688-.2148438.390625-.1796875.609375.0351563.222656.1484375.425781.2578125.621094.203125.339843.460937.644531.730469.933593.011718 0 .027344.015626.042968.03125" fill="#e32186"/><path d="m14.578125 14.105469c1.632813-.710938 2.328125-1.9375 2.328125-1.9375 1.527344-2.078125 1.011719-4.273438 1.011719-4.273438-.972657 2.117188-1.863281 2.699219-1.863281 2.699219 2.394531-3.640625.015624-5.84375.015624-5.84375.972657 2.074219-.320312 4.601562-.320312 4.601562-1.085938 2.285157-2.625 3.101563-2.625 3.101563 1.71875.320313 2.980469-.839844 2.980469-.839844-2.460938 2.664063-5.132813 2.535157-5.132813 2.535157 1.125 1.257812 2.804688 1.152343 2.804688 1.152343-2.199219.515625-4.265625-.214843-5.960938-1.628906-.320312-.261719-.625-.546875-.910156-.851563 0 0-.253906-.269531-.304688-.339843l-.007812-.007813c-.035156 1.3125 1.335938 2.535156 1.335938 2.535156-1.71875-.710937-2.503907-2.25-2.503907-2.25s-1.160156-1.972656-.320312-4.222656c.835937-2.25 3.371093-2.734375 3.371093-2.734375 2.09375 1.015625 3.867188 1.335938 3.867188 1.335938 3.742188.625 3.527344-1.207031 3.527344-1.207031.035156-1.574219-2.339844-3.25-2.339844-3.25-4.238281-3.144532-8.070312-1.113282-8.070312-1.113282-3.316407 1.46875-4.296876 4.683594-4.296876 4.683594-.15625.503906-.296874 1-.390624 1.519531-.359376 2.105469.1875 4.101563 1.371093 5.875 1.847657 2.753907 4.839844 3.707031 4.839844 3.707031 4.4375 1.503907 7.46875-.710937 7.46875-.710937 2.789063-1.917969 3.347656-4.132813 3.347656-4.132813-2.25 1.761719-3.21875 1.597657-3.21875 1.597657zm-3.460937-10.355469c.101562 0 .199218.039062.269531.113281.074219.070313.113281.167969.113281.269531 0 .101563-.039062.199219-.113281.273438-.070313.070312-.167969.113281-.269531.109375-.101563.003906-.199219-.039063-.273438-.109375-.070312-.074219-.109375-.171875-.109375-.273438 0-.101562.039063-.199218.109375-.269531.074219-.074219.171875-.113281.273438-.113281" fill="url(#a)"/><path d="m15.863281 5.921875c.035157-1.574219-2.339843-3.25-2.339843-3.25-4.238282-3.136719-8.070313-1.105469-8.070313-1.105469-3.316406 1.46875-4.296875 4.683594-4.296875 4.683594-.191406.546875-.359375 1.382812-.359375 1.382812-.207031 1.050782-.113281 2.023438-.113281 2.023438.082031.929688.289062 1.554688.289062 1.554688.214844.667968.3125.871093.3125.871093-.007812-.019531-.042968-.175781-.042968-.175781s-.296876-1.433594-.019532-2.8125c0 0 .238282-1.433594 1.21875-2.539062 0 0 1.589844-2.265626 4.550782-1.375 0 0 .640624.226562.859374.339843.21875.105469.601563.269531.601563.269531 2.09375 1.015626 3.867187 1.332032 3.867187 1.332032 3.757813.632812 3.542969-1.199219 3.542969-1.199219zm-4.746093-1.398437c-.101563 0-.199219-.039063-.273438-.109376-.070312-.074218-.113281-.171874-.113281-.273437s.042969-.199219.113281-.269531c.070312-.074219.171875-.113282.273438-.113282.101562 0 .199218.039063.269531.113282.070312.070312.113281.167968.113281.269531s-.042969.199219-.113281.273437c-.070313.070313-.167969.109376-.269531.109376" fill="url(#c)"/><path d="m8.6875 3.070312-2.417969-.753906c-.015625 0-.085937-.035156-.214843 0 0 0-1.425782.363282-1.179688 1.144532 0 0 .152344.488281.554688.964843l2.664062-.128906zm0 0" fill="url(#b)"/></svg>