<svg height="18" viewBox="0 0 18 18" width="18" xmlns="http://www.w3.org/2000/svg" xmlns:xlink="http://www.w3.org/1999/xlink"><linearGradient id="a" gradientTransform="matrix(15.75 0 0 -15.75 -4650.398438 4316.484375)" gradientUnits="userSpaceOnUse" x1="295.834991" x2="295.834991" y1="274.049011" y2="272.933014"><stop offset="0" stop-color="#19d7ff"/><stop offset="1" stop-color="#1e64f0"/></linearGradient><path d="m17.789062 9c0 4.855469-3.933593 8.789062-8.789062 8.789062s-8.789062-3.933593-8.789062-8.789062 3.933593-8.789062 8.789062-8.789062 8.789062 3.933593 8.789062 8.789062zm0 0" fill="url(#a)"/><path d="m8.929688 1.070312v1.292969h.140624v-1.292969zm-.546876.035157-.140624.011719.054687.703124.140625-.011718zm1.234376 0-.054688.703125.140625.011718.054687-.703124zm-1.925782.078125-.140625.023437.226563 1.28125.140625-.023437zm2.617188 0-.226563 1.28125.140625.023437.226563-1.28125zm-3.292969.148437-.136719.035157.183594.675781.136719-.035157zm3.96875 0-.183594.675781.136719.035157.183594-.675781zm-4.617187.191407-.132813.046874.433594 1.222657.132812-.046875zm5.265624 0-.433593 1.222656.132812.046875.433594-1.222657zm.652344.261718-.3125.644532.128906.0625.308594-.648438zm-6.566406 0-.128906.058594.292968.644531.128907-.054687zm-.609375.316406-.121094.070313.644531 1.125.125-.070313zm7.78125 0-.648437 1.125.125.070313.644531-1.125zm-8.375.359376-.117187.082031.410156.578125.113281-.082032zm8.96875 0-.40625.578124.113281.082032.410156-.578125zm-9.507813.417968-.105468.089844.828125.984375.109375-.089844zm10.046876 0-.832032.984375.109375.089844.828125-.984375zm-10.570313.460938-.097656.101562.503906.492188.097656-.101563zm-.46875.5-.089844.109375.996094.828125.09375-.105469zm12.03125 0-1 .832031.09375.105469.996094-.828125zm-12.457031.546875-.082032.113281.589844.410156.082032-.117187zm12.882812 0-.589844.40625.082032.117187.589844-.410156zm-13.253906.585937-.070312.121094 1.125.648438.070312-.121094zm13.625 0-1.125.648438.070312.121094 1.125-.648438zm-13.941406.601563-.058594.128906.632812.296875.058594-.128906zm14.257812 0-.632812.296875.058594.125.632812-.292969zm-14.527344.632812-.050781.128907 1.207031.453124.050782-.132812zm14.796876 0-1.207032.449219.050782.132812 1.207031-.453124zm-15.015626.65625-.035156.136719.6875.183594.035156-.136719zm15.234376 0-.6875.183594.035156.136719.6875-.183594zm-15.394532.675781-.023437.136719 1.277343.226563.023438-.140625zm15.554688 0-1.277344.222657.023438.140625 1.28125-.226563zm-15.644532.671876-.015624.140624.703124.070313.015626-.140625zm15.734376 0-.703126.070312.015626.140625.703124-.070313zm-15.769532.703124v.140626h1.292969v-.140626zm14.511719 0v.140626h1.292969v-.140626zm-13.789063.621094-.703124.070313.015624.140625.703126-.070313zm14.359376 0-.015626.140625.703126.070313.015624-.140625zm-13.703126.519532-1.28125.226562.027344.136719 1.277344-.222657zm13.046876 0-.023438.140624 1.277344.222657.023437-.136719zm-13.488282.71875-.6875.183593.035156.136719.6875-.183594zm13.929688 0-.035156.136718.6875.183594.035156-.136719zm-13.207032.398437-1.207031.449219.046875.128906 1.210938-.449219zm12.480469 0-.046875.128906 1.207032.449219.050781-.128906zm-12.792969.789063-.632812.292968.058594.128906.632812-.296874zm13.109376 0-.058594.125.632812.296874.058594-.128906zm-12.3125.269531-1.125.644531.070312.125 1.125-.648438zm11.515624 0-.070312.121093 1.125.648438.070312-.125zm-11.691406.816406-.589844.410156.082032.113281.589844-.40625zm11.867188 0-.082032.117187.589844.40625.082032-.113281zm-11.042969.132813-.996094.828124.089844.109376 1-.832032zm10.21875 0-.09375.105468 1 .832032.089844-.109376zm-9.410156.824218-.828125.984375.105468.089844.832032-.984375zm8.601562 0-.109375.089844.832032.984375.105468-.089844zm.839844.023438-.097656.101562.503906.492188.097656-.101563zm-8.507813.648437-.644531 1.109375.121094.070313.648437-1.109375zm6.734376 0-.125.070313.648437 1.109375.121094-.070313zm-7.558594.160157-.410156.578124.117187.082032.40625-.578125zm8.382812 0-.113281.082031.40625.578125.117187-.082032zm-6.523437.328124-.433594 1.222657.132813.046875.433593-1.222656zm4.664062 0-.132812.046876.433593 1.222656.132813-.046875zm-3.554687.308594-.226563 1.277344.140625.023438.226563-1.277344zm2.445312 0-.140625.023438.226563 1.277344.140625-.023438zm-4.324218.007813-.308594.632812.125.0625.3125-.632812zm6.203124 0-.128906.0625.3125.632812.125-.0625zm-3.171874.113281v1.296875h.140624v-1.296875zm-1.867188.320312-.183594.691407.136719.035156.183594-.691406zm3.875 0-.136719.035157.183594.691406.136719-.035156zm-2.640625.238282-.054687.703125.140624.011719.054688-.703126zm1.40625 0-.140625.011718.054688.703126.140624-.011719zm0 0" fill="#fff"/><path d="m15.003906 2.953125-6.75 5.300781.730469.730469zm0 0" fill="#f00"/><path d="m8.984375 8.984375.84375.84375 5.175781-6.875zm0 0" fill="#d01414"/><path d="m8.253906 8.253906-5.300781 6.75 6.03125-6.019531zm0 0" fill="#fff"/><path d="m2.953125 15.003906 6.875-5.175781-.84375-.84375zm0 0" fill="#acacac"/></svg>