<svg height="18" viewBox="0 0 18 18" width="18" xmlns="http://www.w3.org/2000/svg"><path d="m0 0v18h18v-18zm8.957031 3.199219c2.578125 0 4.070313 1.339843 4.4375 3.222656h-2.335937c-.257813-.742187-.902344-1.320313-2.082032-1.320313-1.257812 0-2.113281.71875-2.164062 1.855469.4375.273438.984375.492188 1.648438.660157l2.0625.46875c1.84375.414062 2.964843 1.449218 2.964843 3.128906.015625.734375-.230469 1.453125-.6875 2.027344 0-.058594-.003906-.113282-.003906-.171876 0 .054688.003906.113282.003906.167969-.730469.917969-2.007812 1.433594-3.511719 1.433594-2.53125 0-4.300781-1.226563-4.695312-3.351563h2.429688c.3125.976563 1.140624 1.429688 2.246093 1.429688 1.347657 0 2.246094-.707031 2.265625-1.941406-.449218-.285156-1.027344-.511719-1.75-.695313l-2.023437-.453125c-1.621094-.363281-2.871094-1.214844-2.871094-3.039062-.011719-.707032.222656-1.398438.652344-1.957032.703125-.910156 1.925781-1.464843 3.414062-1.464843" fill="#f03e2f"/></svg>