<svg height="18" viewBox="0 0 18 18" width="18" xmlns="http://www.w3.org/2000/svg"><g fill="none" stroke="#fff" stroke-linecap="round" stroke-linejoin="round" stroke-width="2" transform="scale(.75)"><path d="m13 13h-5c-.552083 0-1 .447917-1 1v7m7-13h1m2 13v-4m-15-15 20 20"/><path d="m20.411458 20.411458c-.375.375-.880208.588542-1.411458.588542h-14c-1.104167 0-2-.895833-2-2v-14c0-.53125.213542-1.036458.588542-1.411458m25.911458 7.911458s5 5 4 5m-24.5-13.5h6.197917c.53125.005208 1.03125.223958 1.401041.598958l3.802084 3.802084c.375.369791.59375.869791.598958 1.401041v6.197917"/></g></svg>