<svg height="18" viewBox="0 0 18 18" width="18" xmlns="http://www.w3.org/2000/svg"><g fill="none" stroke="#fff" stroke-linecap="round" stroke-linejoin="round" stroke-width="2" transform="scale(.75)"><path d="m15.197917 3c.53125.005208 1.03125.223958 1.401041.598958l3.802084 3.802084c.375.369791.59375.869791.598958 1.401041v10.197917c0 1.104167-.895833 2-2 2h-14c-1.104167 0-2-.895833-2-2v-14c0-1.104167.895833-2 2-2zm0 0"/><path d="m17 21v-7c0-.552083-.447917-1-1-1h-8c-.552083 0-1 .447917-1 1v7m0-18v4c0 .552083.447917 1 1 1h7"/></g></svg>