<svg height="18" viewBox="0 0 18 18" width="18" xmlns="http://www.w3.org/2000/svg"><path d="m9.519531 0c-.792969.00390625-1.570312.410156-1.988281 1.132812l-4.003906 6.875c-.609375 1.046876-.230469 2.363282.847656 2.929688 1.074219.5625 2.441406.171875 3.050781-.875l4.003907-6.875c.609374-1.050781.230468-2.363281-.847657-2.929688-.328125-.1718745-.691406-.257812-1.0625-.257812zm.003907.140625c.34375-.003906.6875.082031.996093.242187 1.007813.53125 1.363281 1.75.789063 2.734376l-4.003906 6.875c-.570313.984374-1.855469 1.351562-2.867188.820312-1.007812-.53125-1.363281-1.75-.789062-2.734375l4.003906-6.875c.394531-.675781 1.121094-1.0625 1.871094-1.0625zm3.039062 6.664063c-.792969.003906-1.570312.410156-1.988281 1.132812l-4.003907 6.875c-.609374 1.046875-.230468 2.363281.847657 2.929688 1.074219.5625 2.441406.171874 3.050781-.875l4.003906-6.875c.609375-1.046876.230469-2.363282-.847656-2.929688-.328125-.171875-.691406-.257812-1.0625-.257812m0 .140624c.347656-.003906.691406.082032 1 .242188 1.007812.53125 1.363281 1.75.789062 2.734375l-4.003906 6.875c-.570312.984375-1.855468 1.351563-2.867187.820313-1.007813-.53125-1.363281-1.75-.789063-2.734376l4.003906-6.875c.390626-.675781 1.121094-1.0625 1.867188-1.0625" fill="#173aee"/></svg>