<svg height="18" viewBox="0 0 18 18" width="18" xmlns="http://www.w3.org/2000/svg"><g fill="none" stroke="#fff" stroke-linecap="round" stroke-linejoin="round" stroke-width="2" transform="scale(.75)"><path d="m14 22v-4c0-1.104167-.895833-2-2-2s-2 .895833-2 2v4"/><path d="m18 10 3.447917 1.723958c.338541.171875.552083.515625.552083.895834v7.380208c0 1.104167-.895833 2-2 2h-16c-1.104167 0-2-.895833-2-2v-7.380208c0-.380209.213542-.723959.552083-.895834l3.447917-1.723958m12-5v17m-14-16 7.104167-3.552083c.5625-.28125 1.229166-.28125 1.791666 0l7.104167 3.552083m-14-1v17"/><path d="m14 9c0 1.104167-.895833 2-2 2s-2-.895833-2-2 .895833-2 2-2 2 .895833 2 2zm0 0"/></g></svg>