<svg height="18" viewBox="0 0 18 18" width="18" xmlns="http://www.w3.org/2000/svg" xmlns:xlink="http://www.w3.org/1999/xlink"><radialGradient id="a" cx="204.899994" cy="-244" gradientTransform="matrix(-.0999422 -.195515 .331171 -.170137 117.547967 8.977024)" gradientUnits="userSpaceOnUse" r="25.719999"><stop offset="0" stop-color="#656f71"/><stop offset="1" stop-color="#d3d4cf"/></radialGradient><path d="m8.410156 13.386719c-2.003906-.070313-3.910156-.523438-5.390625-1.285157-.140625-.070312-.445312-.242187-.445312-.246093 0-.003907.046875.019531.105469.050781.726562.371094 1.640624.6875 2.558593.890625 1.460938.316406 3.058594.402344 4.625.242187 1.480469-.148437 2.863281-.511718 4.042969-1.0625 1.058594-.496093 1.90625-1.128906 2.472656-1.84375.871094-1.101562.984375-2.378906.320313-3.511718-.429688-.734375-1.148438-1.382813-2.132813-1.921875-.097656-.050781-.171875-.09375-.167968-.09375.015624 0 .433593.199219.5625.269531.636718.339844 1.144531.699219 1.585937 1.128906.554687.539063.902344 1.09375 1.074219 1.710938.15625.566406.128906 1.199218-.082032 1.761718-.285156.753907-.863281 1.445313-1.710937 2.046876-1.375.976562-3.34375 1.621093-5.527344 1.8125-.628906.054687-1.261719.070312-1.890625.050781zm0 0" fill="url(#a)"/><g fill="#173354"><path d="m13.421875 10.804688h-.011719c-.007812-.003907-.011718-.003907-.019531-.003907h-.03125c-.015625 0-.03125 0-.042969.003907l-.042968.011718v.265625h-.128907v-.394531h.128907v.058594c.007812-.007813.015624-.015625.023437-.023438.011719-.003906.019531-.011718.027344-.015625.011719-.007812.023437-.011719.035156-.015625s.023437-.003906.035156-.003906h.011719.015625zm-.46875.289062c-.078125 0-.136719-.019531-.179687-.054688-.0625-.054687-.0625-.085937-.0625-.152343 0-.0625.019531-.113281.058593-.152344.058594-.058594.09375-.058594.160157-.058594.066406 0 .113281.015625.144531.046875.050781.050782.046875.082032.046875.140625v.046875h-.28125c0 .015625.003906.03125.011718.042969.007813.011719.015626.023437.027344.03125.011719.007813.027344.011719.039063.015625.015625 0 .03125.003906.046875.003906s.03125-.003906.046875-.003906c.011719-.003906.027343-.007812.039062-.015625.011719-.003906.019531-.007813.027344-.011719l.023437-.015625h.011719v.101563l-.027343.011718c-.011719.003907-.023438.007813-.035157.011719l-.042969.007813c-.019531 0-.039062.003906-.054687.003906zm.042969-.257812c0-.027344-.007813-.046876-.019532-.0625-.011718-.011719-.03125-.019532-.054687-.019532s-.042969.007813-.058594.023438c-.015625.011718-.023437.03125-.023437.058594zm-.257813-.148438-.210937.539062h-.136719l.0625-.15625-.152344-.382812h.136719l.085938.246094.082031-.246094zm-.566406.292969v-.082031l-.050781.003906c-.015625 0-.027344.003906-.039063.007812s-.023437.011719-.027343.019532c-.011719.007812-.007813.015624-.007813.027343 0 .019531.003906.03125.015625.039063.015625.011718.023438.011718.042969.011718.011719 0 .023437-.003906.035156-.007812s.023437-.011719.03125-.019531zm0 .058593-.023437.019532c-.007813.007812-.015626.011718-.027344.015625-.011719.007812-.023438.011719-.03125.015625-.015625 0-.03125.003906-.046875.003906-.035157 0-.066407-.011719-.09375-.035156-.023438-.023438-.035157-.054688-.035157-.089844 0-.03125.007813-.054688.019532-.070312.019531-.027344.03125-.03125.050781-.042969.023437-.011719.050781-.019531.085937-.023438l.105469-.007812v-.003907c0-.019531-.011719-.035156-.027343-.042968-.015626-.011719-.042969-.015625-.074219-.015625-.015625 0-.035157.003906-.054688.007812-.019531.007813-.039062.011719-.058593.023438h-.011719v-.097657c.019531-.003906.042969-.007812.0625-.011718.027343-.003906.054687-.007813.085937-.007813.070313 0 .121094.011719.15625.035157.046875.035156.046875.054687.046875.101562v.269531h-.128906zm-.238281.042969h-.367188v-.523437h.136719v.421875h.230469zm-.726563-.101562v-.082031l-.054687.003906c-.015625 0-.027344.003906-.039063.007812s-.019531.011719-.027343.019532c-.007813.007812-.007813.015624-.007813.027343 0 .019531.003906.03125.015625.039063.015625.011718.023438.011718.042969.011718.015625 0 .027343-.003906.035156-.007812.011719-.003906.023437-.011719.035156-.019531zm0 .058593-.023437.019532c-.011719.007812-.019532.011718-.03125.015625-.011719.007812-.019532.011719-.03125.015625-.015625 0-.03125.003906-.046875.003906-.035157 0-.066407-.011719-.089844-.035156-.027344-.023438-.039063-.054688-.039063-.089844 0-.03125.007813-.054688.019532-.070312.019531-.027344.03125-.03125.054687-.042969.023438-.011719.054688-.019531.082031-.023438l.105469-.007812v-.003907c0-.019531-.007812-.035156-.027343-.042968-.015626-.011719-.039063-.015625-.074219-.015625-.019531.003906-.035157.003906-.054688.007812-.019531.007813-.039062.011719-.058593.023438h-.011719v-.097657c.019531-.003906.042969-.007812.0625-.011718.027343-.003906.058593-.007813.085937-.007813.070313 0 .125.011719.15625.035157.050782.035156.046875.054687.046875.101562v.269531h-.125zm-.285156.042969h-.128906v-.394531h.128906zm.003906-.449219h-.132812v-.097656h.132812zm-.183593.449219h-.128907v-.042969l-.027343.023438c-.011719.003906-.019532.011719-.03125.015625-.019532.011719-.042969.015625-.066407.015625-.042969 0-.085937-.019531-.109375-.058594-.027344-.035156-.042968-.085937-.042968-.148437 0-.035157.003906-.0625.015624-.089844.011719-.035156.019532-.046875.039063-.066406.011719-.015625.03125-.027344.054687-.039063.019532-.007812.042969-.015625.066407-.015625.015625 0 .035156.003907.054687.007813.011719.003906.027344.011718.046875.019531v-.167969h.128907zm-.128907-.109375v-.191406c-.007812-.003906-.015625-.007812-.027343-.007812-.007813-.003907-.015626-.003907-.023438-.003907-.03125 0-.054688.011719-.070312.03125-.023438.03125-.023438.046875-.023438.085938 0 .039062.003906.066406.019531.082031.015625.027344.03125.027344.058594.027344.011719 0 .023437 0 .035156-.003906.011719-.007813.019531-.011719.03125-.019532m-.4375.121094c-.078125 0-.136719-.019531-.179687-.054688-.042969-.035156-.0625-.085937-.0625-.152343 0-.0625.019531-.113281.058594-.152344.058593-.058594.09375-.058594.160156-.058594s.113281.015625.144531.046875c.050781.050782.046875.082032.046875.140625v.046875h-.28125c0 .015625.003906.03125.011719.042969.007812.011719.015625.023437.027343.03125.011719.007813.023438.011719.039063.015625.023437.003906.03125.003906.046875.003906s.03125-.003906.046875-.003906c.011719-.003906.027344-.007812.039063-.015625.011718-.003906.019531-.007813.027343-.011719l.023438-.015625h.011719v.101563l-.027344.011718c-.011719.003907-.023438.007813-.035156.011719l-.042969.007813c-.019531 0-.035157.003906-.054688.003906zm.042969-.257812c0-.027344-.007812-.046876-.019531-.0625-.011719-.011719-.03125-.019532-.054688-.019532-.023437 0-.042969.007813-.058593.023438-.023438.019531-.023438.03125-.023438.058594zm-.433594.246093v-.195312l-.003906-.050781c0-.011719 0-.023438-.003906-.03125-.003906-.007813-.011719-.015626-.019532-.019532-.007812-.003906-.019531-.007812-.03125-.007812-.011718 0-.019531.003906-.03125.007812-.007812.003906-.019531.011719-.03125.015625v.28125h-.128906v-.246093c0-.011719-.003906-.023438-.007812-.03125-.003906-.007813-.007813-.015626-.015625-.019532-.011719-.003906-.023438-.007812-.035157-.007812-.007812 0-.019531.003906-.03125.007812l-.027343.015625v.28125h-.128907v-.394531h.128907v.042969c.019531-.015625.042969-.03125.058593-.039063.019532-.011718.042969-.015625.0625-.015625.023438 0 .046876.007813.066407.019531.019531.011719.035156.027344.046875.050782.023437-.023438.046875-.039063.070312-.050782.019532-.011718.042969-.019531.066406-.019531.019532 0 .035157.003907.050782.011719.015625.003906.027344.011719.039062.023438.011719.015624.019532.027343.023438.046874.007812.019532.011718.042969.011718.066407v.257812zm-.605468.007813c-.054688 0-.089844-.011719-.117188-.03125-.035156-.03125-.035156-.054688-.035156-.101563v-.183593h-.046875v-.085938h.046875v-.113281h.128906v.113281h.125v.085938h-.125v.175781c0 .007812.003906.019531.007812.027343.003907.007813.007813.015626.019532.019532.011718.003906.023437.007812.035156.007812s.019531-.003906.027344-.003906c.007812-.003906.015625-.003906.023437-.007812h.011719v.085937l-.042969.007813c-.019531.003906-.039062.003906-.058593.003906zm-.308594.003906c-.03125 0-.0625-.003906-.09375-.015625-.027344-.003906-.050782-.019531-.074219-.035156-.019531-.019531-.035156-.039063-.046875-.066407-.011719-.027343-.019531-.058593-.015625-.089843 0-.039063.003906-.070313.015625-.097657.011719-.023437.03125-.046874.050781-.0625.023438-.019531.046875-.03125.074219-.039062s.058594-.011719.085938-.011719c.046874 0 .09375.011719.136718.03125v.105469h-.015625c-.003906-.003906-.011719-.007812-.019531-.015625-.007812-.003906-.015625-.007813-.023438-.015625-.011718-.003906-.019531-.007812-.03125-.011719-.011718-.003906-.027343-.003906-.039062-.003906-.035156 0-.058594.011719-.078125.03125-.027344.035156-.027344.054687-.027344.089844 0 .039062.011719.070312.03125.089843.027344.027344.042969.027344.074219.027344.015625 0 .03125 0 .042969-.003906.015625-.003906.023437-.007812.03125-.015625.011719-.003906.015625-.007813.023437-.011719l.015625-.015625h.015625v.105469l-.023437.011719c-.011719.003906-.019531.003906-.03125.007812l-.035157.007813c-.011718 0-.027343.003906-.042968.003906zm-.394532 0c-.078124 0-.136718-.019531-.179687-.054688-.0625-.054687-.058594-.085937-.058594-.152343-.003906-.0625.015625-.113281.054688-.152344.0625-.058594.09375-.058594.164062-.058594.0625 0 .113281.015625.144531.050781.046876.046876.046876.078126.046876.136719v.046875h-.28125c0 .015625.003906.03125.011718.042969.003906.011719.015625.023437.027344.03125s.023438.011719.039062.015625c.015626.003906.03125.003906.046876.003906.015624 0 .03125 0 .042968-.003906.015625-.003906.027344-.007812.039063-.011719l.03125-.015625.023437-.015625h.011719v.101563l-.027344.011718c-.011719.003907-.023437.007813-.039062.011719-.011719.003907-.027344.003907-.042969.007813-.015625 0-.035156.003906-.054688.003906zm.042969-.257812c0-.027344-.003906-.046876-.015625-.0625-.011718-.011719-.03125-.019532-.054687-.019532-.027344 0-.046875.007813-.058594.023438-.015625.015625-.023437.035156-.027344.058594zm-.257812-.03125h-.011719c-.003906-.003907-.011719-.003907-.019531-.003907h-.03125c-.015625 0-.027344 0-.042969.003907-.015625.003906-.027344.007812-.042969.011718v.265625h-.128906v-.394531h.128906v.058594c.007813-.007813.015625-.015625.023438-.019532.011719-.007812.019531-.015624.03125-.019531.007812-.007812.019531-.011719.03125-.015625s.023437-.003906.035156-.003906h.015625.011719zm-.332031.277343h-.128907v-.394531h.128907zm.003906-.449219h-.136719v-.097656h.136719zm-.160156.1875c0 .046876-.011719.09375-.03125.132813-.023438.035156-.050782.066406-.085938.085937-.027344.019532-.058594.03125-.09375.035157-.035156.003906-.070312.007812-.105469.007812h-.171875v-.523437h.167969c.039063 0 .074219.003906.109375.007812s.066406.015625.09375.035156c.035156.019532.066406.050782.085938.089844.019531.035156.03125.078125.03125.128906zm-.140626 0c0-.035156-.007812-.0625-.019531-.089843-.011719-.023438-.03125-.042969-.054687-.054688-.019532-.011719-.039063-.015625-.0625-.015625l-.070313-.003906h-.003906v.328125h.082031c.019532-.003906.039063-.007813.058594-.019531.023438-.015625.039062-.035156.050781-.058594.015625-.027344.019531-.054688.019531-.085938zm-.722656.273438c-.078125 0-.136718-.019531-.179687-.054688-.039063-.035156-.0625-.085937-.0625-.152343 0-.0625.019531-.113281.058593-.152344.039063-.039063.09375-.058594.164063-.058594.0625 0 .109375.015625.140625.050781.046875.046876.050781.078126.050781.136719v.046875h-.285156c0 .015625.007813.03125.011719.042969.007812.011719.015625.023437.027344.03125.011718.007813.027343.011719.039062.015625.015625.003906.03125.003906.050781.003906.011719 0 .027344 0 .042969-.003906s.027344-.007812.039062-.011719c.011719-.007812.019532-.011719.03125-.015625l.019532-.015625h.015625v.101563l-.03125.011718c-.011719.003907-.023438.007813-.035157.011719l-.042968.007813c-.019532 0-.035156.003906-.054688.003906zm.042969-.257812c0-.027344-.007813-.046876-.019531-.0625-.015625-.019532-.03125-.019532-.054688-.019532-.023437 0-.042968.007813-.058594.023438-.019531.019531-.023437.03125-.023437.058594zm-.308594.246093h-.128906v-.546875h.128906zm-.152343-.203125c0 .0625-.015626.113282-.050782.152344-.050781.058594-.074218.058594-.125.058594-.019531 0-.035156-.003906-.050781-.007813-.019531-.003906-.035156-.011719-.050781-.019531v.164062h-.128906v-.539062h.128906v.042969c.019531-.015625.039062-.027344.058594-.039063.023437-.007812.046874-.015625.070312-.015625.046875.003907.082031.019531.109375.054688.039063.054687.039063.085937.039063.148437m-.132813.003906c0-.039062-.003906-.066406-.019531-.082031-.015625-.027343-.03125-.027343-.054688-.027343-.011718 0-.023437 0-.035156.003906s-.023438.007812-.035156.015625v.199219c.007812.003906.015625.003906.023437.003906.011719.003906.019531.003906.03125.003906.03125 0 .054688-.011719.066407-.03125.015624-.015625.023437-.046875.023437-.085938zm-.453125.199219v-.246093c0-.011719-.003906-.023438-.007812-.03125-.003907-.015626-.007813-.015626-.015626-.019532-.011718-.003906-.023437-.007812-.035156-.003906-.007812 0-.019531 0-.027344.003906-.011718.003906-.019531.011719-.03125.019532v.277343h-.128906v-.195312l-.003906-.050781c0-.011719 0-.023438-.003906-.03125-.003906-.007813-.011719-.015626-.019532-.019532-.007812-.003906-.019531-.007812-.03125-.003906-.011718 0-.019531 0-.03125.003906-.007812.007813-.019531.011719-.027343.019532v.277343h-.128907v-.394531h.128907v.042969c.019531-.015625.039062-.027344.058593-.039063.019532-.007812.039063-.015625.0625-.015625.023438 0 .046876.007813.066407.019531.03125.015626.035156.027344.042969.050782.023437-.019532.046874-.035156.070312-.050782.023438-.011718.042969-.019531.066406-.019531.019532 0 .035156.003907.054688.011719.011718.003906.027344.011719.039062.023438.007813.015624.019532.03125.023438.046874.007812.015626.007812.039063.007812.066407v.257812zm-.546875 0h-.128906v-.394531h.128906zm.003906-.449219h-.136719v-.097656h.136719zm-.386719.457032c-.042968 0-.082031-.003906-.113281-.011719-.03125-.003906-.058593-.015625-.085937-.027344v-.125h.011718c.027344.023438.058594.039063.089844.050781.03125.011719.0625.019532.097656.019532.007813 0 .015626 0 .03125-.003906.007813 0 .019532-.003907.03125-.007813.007813-.003906.015626-.007813.023438-.015625s.011719-.015625.007812-.027344c.003907-.011718-.003906-.023437-.015624-.03125-.011719-.007812-.023438-.015625-.039063-.019531l-.058594-.011719c-.019531-.003906-.039062-.011718-.058593-.015625-.042969-.015625-.074219-.035156-.09375-.058593-.027344-.035157-.027344-.054688-.027344-.089844 0-.050782.023437-.089844.066406-.117188.066406-.046875.097656-.046875.164062-.046875.03125 0 .0625.003907.097657.007813.03125.007812.058593.015625.085937.027344v.117187h-.011718c-.023438-.015625-.046876-.03125-.074219-.039063-.03125-.011718-.0625-.019531-.09375-.019531-.007813 0-.019531 0-.03125.003907-.007813 0-.019531.003906-.027344.007812-.011719.003906-.019531.011719-.023437.019531-.007813.003907-.011719.015625-.011719.023438 0 .011719.007812.023437.015625.03125.015625.011719.03125.015625.058594.023437l.054687.007813c.015625.007812.035156.011719.054687.015625.035157.015625.066407.03125.082032.054687.027344.03125.027344.050781.027344.085938 0 .054687-.019532.09375-.0625.125-.066407.046875-.101563.050781-.171876.050781zm8.398438-.886719h-3.542969v-5.046875h1.332031v4.085938h2.210938zm-3.890625-2.519531c0 .46875-.105469.890625-.324219 1.261718-.324218.558594-.488281.660157-.816406.859376-.277344.167968-.582031.277343-.902344.324218-.324218.050782-.667968.074219-1.035156.074219h-1.65625v-5.050781h1.644531c.371094 0 .722657.023437 1.046875.070312.324219.042969.636719.15625.914063.328125.347656.210938.632812.503907.828125.859375.203125.359375.300781.785156.300781 1.273438zm-1.367187-.011719c0-.332031-.058594-.617187-.179688-.851563-.179688-.355468-.304688-.421874-.554688-.554687-.175781-.09375-.367187-.148437-.566406-.15625l-.710937-.011719h-.027344v3.160156h.027344l.757812-.015624c.203125-.011719.398438-.070313.585938-.183594.21875-.128906.382812-.3125.496093-.539063.117188-.230469.171876-.515625.171876-.847656zm-5.910157 2.621094c-.40625 0-.765625-.035157-1.070312-.109375-.460938-.113282-.59375-.167969-.859375-.28125v-1.199219h.121094c.265624.214844.558593.378906.882812.496094.320312.113281.628906.171875.929688.171875.078124 0 .179687-.007813.304687-.023438.183594-.023437.222656-.039062.300781-.074218.085938-.035157.167969-.089844.234375-.160157.0625-.070312.09375-.160156.09375-.273437 0-.128906-.050781-.230469-.15625-.308594-.15625-.121094-.226562-.136719-.371093-.175781l-.582032-.128907c-.191406-.035156-.386718-.085937-.574218-.148437-.410157-.136719-.703126-.324219-.882813-.554687-.265625-.347657-.265625-.523438-.265625-.875 0-.472657.207031-.855469.628906-1.148438.628906-.4375.945313-.441406 1.574219-.441406.316406.003906.632813.03125.941406.09375.3125.0625.59375.144531.839844.246094v1.15625h-.117187c-.199219-.160157-.4375-.296876-.722657-.410157-.425781-.164062-.574219-.164062-.875-.164062-.105469 0-.207031.007812-.3125.023437-.101562.019532-.199219.050782-.292969.089844-.082031.039062-.15625.09375-.214843.164062-.058594.070313-.089844.148438-.089844.238282 0 .128906.046875.230468.144531.304687.144532.113281.28125.144531.554688.207031l.515625.113282c.164062.035156.34375.085937.53125.148437.367187.125.640625.296875.820312.511719.179688.210938.269531.492188.269531.84375 0 .503906-.207031.90625-.621093 1.210938-.621094.457031-.976563.457031-1.679688.457031zm0 0"/><path d="m4.382812 12.53125c-.035156 0-.058593.023438-.058593.050781 0 .027344.023437.054688.058593.054688.03125 0 .058594-.027344.058594-.054688 0-.027343-.027344-.050781-.058594-.050781m2.546876.464844c-.054688 0-.09375.035156-.09375.078125 0 .046875.039062.082031.09375.082031.050781 0 .089843-.035156.089843-.082031 0-.042969-.039062-.078125-.089843-.078125m-1.324219-.175782c-.039063 0-.074219.027344-.074219.0625 0 .039063.035156.066407.074219.066407.042969 0 .074219-.027344.074219-.066407 0-.035156-.03125-.0625-.074219-.0625m2.769531.226563c-.0625 0-.117188.042969-.117188.101563 0 .054687.054688.101562.117188.101562s.117188-.046875.117188-.101562c0-.058594-.054688-.101563-.117188-.101563m1.496094-.078125c-.082032 0-.148438.054688-.148438.125s.066406.128906.148438.128906c.078125 0 .144531-.058594.144531-.128906 0-.066406-.066406-.125-.144531-.125m1.496094-.257812c-.101563 0-.179688.070312-.179688.160156 0 .085937.078125.15625.179688.15625.097656 0 .179687-.070313.179687-.15625 0-.089844-.078125-.160156-.179687-.160156m1.496093-.46875c-.125 0-.226562.089843-.226562.199218s.101562.195313.226562.195313.230469-.089844.230469-.195313c0-.109375-.105469-.199218-.230469-.199218m1.4375-.625c-.140625 0-.253906.097656-.253906.21875 0 .121093.113281.21875.253906.21875.136719 0 .25-.097657.25-.21875 0-.121094-.113281-.21875-.25-.21875m1.308594-.894532c-.15625 0-.28125.105469-.28125.242188 0 .132812.125.242187.28125.242187.152344 0 .277344-.109375.277344-.242187 0-.136719-.125-.242188-.277344-.242188m1.078125-1.265625c-.203125 0-.363281.140625-.363281.316407 0 .175781.160156.316406.363281.316406.199219 0 .363281-.140625.363281-.316406 0-.171876-.164062-.316407-.363281-.316407m.460938-1.308593c-.152344 0-.277344.109374-.277344.242187 0 .136719.125.242187.277344.242187.15625 0 .28125-.109374.28125-.242187s-.125-.242187-.28125-.242187m-.15625-.820313c.113281 0 .203124-.078125.203124-.171875s-.089843-.171875-.203124-.171875c-.109376 0-.199219.074219-.199219.171875s.089843.171875.199219.171875m-.488282-.941406c.082032 0 .144532-.058594.144532-.125 0-.070313-.0625-.125-.144532-.125-.078125 0-.140625.054687-.140625.125 0 .066406.0625.125.140625.125m-.535156-.792969c-.050781 0-.09375.035156-.09375.082031s.042969.082031.09375.082031.09375-.035156.09375-.082031-.042969-.082031-.09375-.082031m-.570312-.324219c.035156 0 .0625-.027343.0625-.054687 0-.03125-.027344-.058594-.0625-.058594-.035157 0-.0625.027344-.0625.058594 0 .027344.027343.054687.0625.054687" fill-rule="evenodd"/></g></svg>