<svg height="18" viewBox="0 0 18 18" width="18" xmlns="http://www.w3.org/2000/svg"><g fill="#cf0a2c"><path d="m11.6875 11.320312c-.664062-.015624-1.238281.476563-1.308594 1.140626 0 .027343.011719.039062.042969.039062h2.53125c.027344 0 .039063-.011719.039063-.039062-.054688-.675782-.632813-1.183594-1.304688-1.140626"/><path d="m17.113281 2.796875-5.398437 6.046875c-.058594.070312-.167969.070312-.238282.015625l-.015624-.015625-2.726563-2.824219c-.058594-.058593-.058594-.140625-.015625-.210937l.914062-1.167969c.054688-.070313.15625-.097656.226563-.042969.011719.015625.027344.015625.027344.027344l1.546875 1.703125c.054687.070313.167968.070313.238281.015625l.015625-.015625 4.316406-5.863281c.042969-.058594.027344-.128906-.027344-.167969-.015624-.015625-.042968-.015625-.070312-.03125h-15.105469c-.070312.015625-.125.070313-.125.140625v17.1875c0 .070312.054688.125.125.125h16.398438c.070312 0 .125-.054688.125-.125v-14.710938c0-.070312-.054688-.113281-.113281-.113281-.039063-.011719-.070313 0-.097657.027344m-11.785156 13.007813c-1.082031.042968-2.136719-.320313-2.9375-1.039063-.054687-.054687-.070313-.140625-.015625-.210937l.632812-.898438c.058594-.070312.15625-.085938.226563-.042969l.015625.011719c.589844.550781 1.347656.84375 2.148438.84375.84375 0 1.253906-.390625 1.253906-.800781 0-1.277344-4.148438-.394531-4.148438-3.105469 0-1.195312 1.039063-2.195312 2.726563-2.195312.972656-.027344 1.925781.296874 2.6875.914062.054687.054688.070312.15625.011719.210938l-.660157.871093c-.054687.070313-.152343.085938-.222656.027344-.5625-.449219-1.253906-.6875-1.96875-.671875-.664063 0-1.027344.292969-1.027344.714844 0 1.140625 4.132813.378906 4.132813 3.066406.015625 1.308594-.925782 2.304688-2.855469 2.304688m9.042969-2.5c0 .082031-.070313.140624-.140625.140624h-3.78125c-.027344 0-.042969.011719-.042969.039063.125.734375.789062 1.238281 1.53125 1.195313.480469-.011719.929688-.152344 1.308594-.433594.058594-.042969.15625-.042969.199218.027344l.011719.015624.464844.671876c.042969.058593.027344.140624-.027344.199218-.605469.449219-1.351562.675782-2.097656.644532-1.628906 0-2.851563-1.09375-2.851563-2.8125-.042968-1.503907 1.136719-2.753907 2.640626-2.796876h.128906c1.589844 0 2.683594 1.195313 2.683594 2.9375zm0 0"/></g></svg>