<svg height="18" viewBox="0 0 18 18" width="18" xmlns="http://www.w3.org/2000/svg"><path d="m10.40625 1.875c-.300781-.503906-.847656-.8125-1.4375-.8125-.585938 0-1.132812.308594-1.4375.8125l-2.367188 4.050781c3.679688 1.835938 6.109376 5.484375 6.382813 9.585938h-1.660156c-.273438-3.515625-2.390625-6.621094-5.558594-8.167969l-2.1875 3.785156c1.777344.800782 3.027344 2.449219 3.316406 4.375h-3.816406c-.089844-.003906-.171875-.058594-.21875-.136718-.042969-.082032-.042969-.179688 0-.261719l1.054687-1.796875c-.359374-.296875-.765624-.53125-1.207031-.683594l-1.046875 1.796875c-.21874975.378906-.2812498.828125-.1640622 1.25.1132812.421875.3906252.78125.7695312.996094.25.136719.53125.210937.8125.214843h5.226563c.195312-2.4375-.894532-4.796874-2.875-6.222656l.828124-1.441406c2.503907 1.71875 3.910157 4.632812 3.703126 7.664062h4.425781c.210937-4.589843-2.035157-8.945312-5.898438-11.433593l1.679688-2.875c.078125-.132813.246093-.175781.375-.097657.191406.101563 7.296875 12.5 7.429687 12.644532.046875.085937.046875.191406-.003906.273437s-.144531.132813-.242188.132813h-1.710937c.023437.457031.023437.914062 0 1.371094h1.71875c.441406 0 .867187-.171876 1.179687-.484376.308594-.3125.484376-.734374.484376-1.175781 0-.289062-.078126-.570312-.222657-.820312zm0 0" fill="#362d59"/></svg>