<svg height="18" viewBox="0 0 18 18" width="18" xmlns="http://www.w3.org/2000/svg"><path d="m14.320312 5.867188v6.226562l-5.296874 3.140625-.046876.042969v2.328125l.046876.046875 7.453124-4.308594v-8.6875l-.070312-.015625-2.109375 1.175781.011719.050782" fill="#2f406a"/><path d="m3.710938 12.148438 5.3125 3.085937v2.417969l-7.507813-4.328125v-8.648438l.078125-.011719 2.097656 1.21875.019532.070313zm0 0" fill="#2379bd"/><path d="m3.710938 5.953125-2.195313-1.277344 7.492187-4.328125 7.476563 4.308594-2.164063 1.210938-5.3125-3.03125zm0 0" fill="#03afef"/><path d="m8.933594 11.4375-.058594-.058594v-2.339844l.058594-.03125.015625-.058593 2.003906-1.167969.0625.011719v2.414062z" fill="#2f406a"/><path d="m6.816406 10.28125v-2.503906h.058594l2.039062 1.1875.019532.046875v2.425781zm0 0" fill="#2379bd"/><path d="m8.898438 6.542969-2.082032 1.234375 2.117188 1.230468 2.082031-1.214843zm0 0" fill="#03afef"/><path d="m6.34375 12.964844-.058594-.058594v-2.339844l.058594-.03125.015625-.058594 2.003906-1.167968.0625.011718v2.410157z" fill="#2f406a"/><path d="m4.226562 11.8125v-2.507812h.058594l2.042969 1.183593.015625.046875v2.429688zm0 0" fill="#2379bd"/><path d="m6.308594 8.070312-2.082032 1.234376 2.117188 1.230468 2.082031-1.214844zm0 0" fill="#03afef"/><path d="m11.710938 13.023438-.058594-.0625v-2.339844l.058594-.027344.011718-.058594 2.007813-1.167968.0625.011718v2.410156zm0 0" fill="#2f406a"/><path d="m9.59375 11.867188v-2.503907h.058594l2.039062 1.183594.019532.046875v2.429688zm0 0" fill="#2379bd"/><path d="m11.671875 8.128906-2.082031 1.234375 2.117187 1.230469 2.082031-1.214844zm0 0" fill="#03afef"/><path d="m9.121094 14.550781-.058594-.0625v-2.339843l.058594-.027344.011718-.058594 2.007813-1.167969.0625.011719v2.410156z" fill="#2f406a"/><path d="m7.003906 13.390625v-2.503906h.058594l2.039062 1.191406.015626.046875v2.425781zm0 0" fill="#2379bd"/><path d="m9.085938 9.65625-2.082032 1.230469 2.117188 1.234375 2.078125-1.214844zm0 0" fill="#03afef"/><path d="m8.933594 8.117188-.058594-.058594v-2.339844l.058594-.027344.015625-.058594 2.003906-1.171874.0625.015624v2.414063l-2.082031 1.230469" fill="#2f406a"/><path d="m6.816406 6.960938v-2.503907h.058594l2.039062 1.1875.019532.046875v2.425782zm0 0" fill="#2379bd"/><path d="m8.898438 3.226562-2.082032 1.230469 2.117188 1.234375 2.082031-1.214844zm0 0" fill="#03afef"/><path d="m6.34375 9.644531-.058594-.058593v-2.339844l.058594-.027344.015625-.058594 2.003906-1.171875.0625.015625v2.410156z" fill="#2f406a"/><path d="m4.226562 8.488281v-2.503906h.058594l2.042969 1.1875.015625.046875v2.425781zm0 0" fill="#2379bd"/><path d="m6.308594 4.753906-2.082032 1.230469 2.117188 1.234375 2.082031-1.21875zm0 0" fill="#03afef"/><path d="m11.710938 9.703125-.058594-.058594v-2.339843l.058594-.03125.011718-.054688 2.007813-1.171875.0625.015625v2.410156zm0 0" fill="#2f406a"/><path d="m9.59375 8.546875v-2.5h.058594l2.039062 1.1875.015625.046875v2.421875zm0 0" fill="#2379bd"/><path d="m11.671875 4.8125-2.078125 1.234375 2.117188 1.230469 2.082031-1.214844zm0 0" fill="#03afef"/><path d="m9.121094 11.230469-.058594-.0625v-2.339844l.058594-.027344.011718-.058593 2.007813-1.167969.0625.011719v2.410156z" fill="#2f406a"/><path d="m7.003906 10.074219v-2.503907h.058594l2.039062 1.1875.015626.046876v2.425781zm0 0" fill="#2379bd"/><path d="m9.085938 6.335938-2.082032 1.234374 2.117188 1.230469 2.078125-1.214843zm0 0" fill="#03afef"/></svg>