<svg height="18" viewBox="0 0 18 18" width="18" xmlns="http://www.w3.org/2000/svg"><g fill="none" stroke="#fff" stroke-linecap="round" stroke-linejoin="round" stroke-width="2" transform="scale(.75)"><path d="m15 12c0 1.65625-1.34375 3-3 3s-3-1.34375-3-3 1.34375-3 3-3 3 1.34375 3 3zm0 0"/><path d="m4.5 10h-.5c-1.104167 0-2-.895833-2-2v-4c0-1.104167.895833-2 2-2h16c1.104167 0 2 .895833 2 2v4c0 1.104167-.895833 2-2 2h-.5m-15 4h-.5c-1.104167 0-2 .895833-2 2v4c0 1.104167.895833 2 2 2h16c1.104167 0 2-.895833 2-2v-4c0-1.104167-.895833-2-2-2h-.5m-13.5-8h.010417m-.010417 12h.010417m9.6875-4.598958-.895834-.302084m-5.604166-2.197916-.895834-.302084m2.296875 5.098959.302084-.895834m2.697916.895834-.401041-1m-2.395834-5.395834-.401041-1m-2.098959 5.296875 1-.401041m5.395834-2.395834 1-.401041m-2.296875-2.098959-.302084.895834"/></g></svg>