<svg height="18" viewBox="0 0 18 18" width="18" xmlns="http://www.w3.org/2000/svg"><g fill="none" stroke="#fff" stroke-linecap="round" stroke-linejoin="round" stroke-width="2" transform="scale(.75)"><path d="m12 10.1875v3.8125m0-12v3m7 8v-6c0-1.104167-.895833-2-2-2h-10c-1.104167 0-2 .895833-2 2v6"/><path d="m19.380208 20c1.072917-1.817708 1.635417-3.890625 1.619792-6l-8.1875-3.640625c-.515625-.229167-1.109375-.229167-1.625 0l-8.1875 3.640625c-.046875 2.84375.953125 5.604167 2.8125 7.760417"/><path d="m2 21c.598958.5 1.197917 1 2.5 1 2.5 0 2.5-2 5-2 1.302083 0 1.901042.5 2.5 1s1.197917 1 2.5 1c2.5 0 2.5-2 5-2 1.302083 0 1.901042.5 2.5 1"/></g></svg>