<svg height="18" viewBox="0 0 18 18" width="18" xmlns="http://www.w3.org/2000/svg"><g fill="none" stroke="#fff" stroke-linecap="round" stroke-linejoin="round" stroke-width="2" transform="scale(.75)"><path d="m20 12c0 4.416667-3.583333 8-8 8s-8-3.583333-8-8 3.583333-8 8-8 8 3.583333 8 8zm0 0"/><path d="m12 2v7.5m7-4.5-5.229167 5.229167m8.229167 1.770833h-7.5m4.5 7-5.229167-5.229167m-1.770833.729167v7.5m-1.770833-8.229167-5.229167 5.229167m4.5-7h-7.5m8.229167-1.770833-5.229167-5.229167"/><path d="m14.5 12c0 1.380208-1.119792 2.5-2.5 2.5s-2.5-1.119792-2.5-2.5 1.119792-2.5 2.5-2.5 2.5 1.119792 2.5 2.5zm0 0"/></g></svg>