<svg height="18" viewBox="0 0 18 18" width="18" xmlns="http://www.w3.org/2000/svg"><path d="m20.380208 3.458333-4.380208-1.458333c0 2.208333-1.791667 4-4 4s-4-1.791667-4-4l-4.380208 1.458333c-.9375.3125-1.505209 1.260417-1.338542 2.229167l.578125 3.473958c.078125.484375.5.838542.989583.838542h2.151042v10c0 1.098958.901042 2 2 2h8c1.104167 0 2-.895833 2-2v-10h2.151042c.489583 0 .911458-.354167.989583-.838542l.578125-3.473958c.166667-.96875-.401042-1.916667-1.338542-2.229167" fill="none" stroke="#fff" stroke-linecap="round" stroke-linejoin="round" stroke-width="2" transform="scale(.75)"/></svg>