<svg height="18" viewBox="0 0 18 18" width="18" xmlns="http://www.w3.org/2000/svg"><g fill="none" stroke="#fff" stroke-linecap="round" stroke-linejoin="round" stroke-width="2" transform="scale(.75)"><path d="m9 21c0 .552083-.447917 1-1 1s-1-.447917-1-1 .447917-1 1-1 1 .447917 1 1zm0 0"/><path d="m20 21c0 .552083-.447917 1-1 1s-1-.447917-1-1 .447917-1 1-1 1 .447917 1 1zm0 0"/><path d="m2.052083 2.052083h2l2.65625 12.416667c.203125.9375 1.041667 1.604167 2 1.583333h9.78125c.9375-.005208 1.75-.65625 1.947917-1.572916l1.651042-7.427084h-16.96875"/></g></svg>