<svg height="18" viewBox="0 0 18 18" width="18" xmlns="http://www.w3.org/2000/svg"><g fill="#179eff"><path d="m14.042969 16.230469c-1.402344.96875-3.09375 1.542969-4.921875 1.5625-4.800782.050781-8.808594-3.808594-8.925782-8.609375-.1249995-4.984375 3.875-9.058594 8.828126-9.058594 2.226562 0 4.253906.820312 5.808593 2.175781.140625.121094.035157.351563-.148437.328125-3.101563-.363281-6.140625-.023437-8.0625 1.46875-2.21875 1.722656-2.429688 4.335938-1.152344 6.636719 1.808594 3.25 5.804688 3.28125 8.574219 5.179687.109375.074219.109375.238282 0 .316407"/><path d="m17.859375 8.957031c0 1.203125-.238281 2.347657-.671875 3.390625-2.226562-1.1875-4.589844-2-5.652344-2.394531-1.253906-.472656-2.355468-1.78125-1.621094-2.929687.734376-1.148438 2.5625-1.359376 4.808594-.785157.960938.246094 1.847656.875 2.65625 1.625.300782.28125.480469.675781.480469 1.085938z"/></g></svg>