<svg height="18" viewBox="0 0 18 18" width="18" xmlns="http://www.w3.org/2000/svg"><path d="m9 .28125c-4.808594 0-8.71875 3.910156-8.71875 8.71875s3.910156 8.71875 8.71875 8.71875 8.71875-3.910156 8.71875-8.71875-3.910156-8.71875-8.71875-8.71875m-.335938 10.574219c-.199218.308593-.523437.5625-.945312.761719-.433594.179687-1.011719.28125-1.757812.28125-1.039063 0-1.785157-.15625-2.234376-.453126-.449218-.308593-.730468-.730468-.859374-1.292968l2.195312-.210938c.085938.269532.210938.449219.378906.5625.15625.113282.378906.167969.648438.167969.292968 0 .519531-.070313.6875-.195313.128906-.097656.183594-.210937.183594-.351562 0-.167969-.085938-.28125-.253907-.378906-.113281-.058594-.433593-.140625-.941406-.226563-.757813-.140625-1.292969-.265625-1.589844-.378906-.292969-.113281-.546875-.308594-.746093-.578125-.195313-.265625-.308594-.589844-.308594-.925781 0-.378907.113281-.71875.324218-.984375.226563-.28125.519532-.492188.898438-.621094.382812-.140625.902344-.210938 1.546875-.210938.691406 0 1.183594.058594 1.519531.15625.324219.113282.589844.265626.816406.492188.210938.226562.394532.519531.535157.898438l-2.082031.210937c-.054688-.179687-.140626-.320313-.265626-.40625-.171874-.113281-.382812-.167969-.632812-.167969-.253906 0-.421875.042969-.535156.125-.113282.097656-.167969.199219-.167969.324219 0 .140625.070313.253906.210937.324219.140626.070312.449219.140625.941407.195312.730469.085938 1.265625.199219 1.628906.351563.351563.15625.632813.367187.816406.632812.183594.28125.28125.578125.28125.914063 0 .339844-.097656.675781-.292969.984375m6.226563.578125-.027344.011718c-.574219.28125-1.363281.453126-2.109375.453126-1.96875 0-3.316406-1.367188-3.316406-3.109376 0-1.730468 1.363281-3.121093 3.261719-3.121093.886719 0 1.546875.210937 1.953125.394531l.027344.011719v1.492187l-.082032-.042968c-.378906-.167969-.957031-.394532-1.773437-.394532-.5625 0-.996094.183594-1.292969.492188-.296875.296875-.449219.703125-.449219 1.140625 0 .886719.617188 1.644531 1.660157 1.644531.195312 0 .40625-.027344.5625-.054688v-1.519531h1.574218v2.601563zm0 0"/></svg>