<svg height="18" viewBox="0 0 18 18" width="18" xmlns="http://www.w3.org/2000/svg"><path d="m17.71875 9c0 4.816406-3.902344 8.71875-8.71875 8.71875s-8.71875-3.902344-8.71875-8.71875 3.902344-8.71875 8.71875-8.71875 8.71875 3.902344 8.71875 8.71875zm0 0"/><path d="m5.0625 9.941406-2.164062.210938c.125.550781.40625.984375.855468 1.292968.4375.296876 1.183594.453126 2.238282.453126.730468 0 1.320312-.101563 1.757812-.28125.421875-.183594.742188-.4375.941406-.761719.195313-.324219.292969-.644531.292969-.984375 0-.335938-.097656-.632813-.28125-.914063-.179687-.28125-.460937-.492187-.8125-.644531-.351563-.15625-.902344-.269531-1.632813-.351562-.476562-.058594-.789062-.128907-.941406-.199219-.140625-.070313-.210937-.183594-.210937-.324219 0-.125.054687-.238281.167969-.320312.113281-.085938.296874-.128907.546874-.128907.242188 0 .453126.058594.621094.167969.125.085938.210938.226562.265625.410156l2.082031-.210937c-.140624-.378907-.324218-.675781-.546874-.902344-.210938-.222656-.492188-.390625-.816407-.492187-.324219-.109376-.832031-.152344-1.519531-.152344-.648438 0-1.167969.070312-1.546875.210937s-.6875.335938-.898437.617188c-.226563.28125-.324219.605469-.324219.984375 0 .351562.097656.660156.308593.941406.195313.28125.449219.464844.746094.578125.292969.113281.828125.238281 1.589844.378906.503906.085938.828125.167969.941406.226563.167969.082031.238282.210937.238282.378906 0 .140625-.054688.265625-.183594.351562-.167969.125-.394532.195313-.6875.195313-.269532 0-.480469-.054687-.648438-.167969-.167968-.113281-.292968-.292968-.378906-.5625m4.375-1.152344c0-1.730468 1.363281-3.121093 3.261719-3.121093.886719 0 1.546875.210937 1.953125.394531l.027344.011719v1.492187l-.082032-.042968c-.378906-.167969-.957031-.394532-1.773437-.394532-.5625 0-.996094.199219-1.292969.492188-.296875.296875-.449219.703125-.449219 1.140625 0 .886719.617188 1.644531 1.660157 1.644531.195312 0 .40625-.027344.5625-.054688v-1.519531h1.574218v2.601563l-.027344.011718c-.578124.28125-1.367187.453126-2.109374.453126-1.957032.011718-3.304688-1.351563-3.304688-3.109376" fill="#fff"/></svg>