<svg height="18" viewBox="0 0 18 18" width="18" xmlns="http://www.w3.org/2000/svg" xmlns:xlink="http://www.w3.org/1999/xlink"><filter id="a" height="100%" width="100%" x="0%" y="0%"><feColorMatrix color-interpolation-filters="sRGB" values="0 0 0 0 1 0 0 0 0 1 0 0 0 0 1 0 0 0 1 0"/></filter><mask id="b"><g filter="url(#a)"><path d="m-1.8-1.8h21.6v21.6h-21.6z" fill-opacity=".3"/></g></mask><mask id="c"><g filter="url(#a)"><path d="m-1.8-1.8h21.6v21.6h-21.6z" fill-opacity=".3"/></g></mask><linearGradient id="d" gradientUnits="userSpaceOnUse" x1="2.6603795" x2="16.754651" y1=".551543" y2="7.4005665"><stop offset=".1" stop-color="#76b3e1"/><stop offset=".3" stop-color="#dcf2fd"/><stop offset="1" stop-color="#76b3e1"/></linearGradient><linearGradient id="e" gradientUnits="userSpaceOnUse" x1="10.39241793962" x2="7.924505" y1="3.90246997359" y2="12.12129806038"><stop offset="0" stop-color="#76b3e1"/><stop offset=".5" stop-color="#4377bb"/><stop offset="1" stop-color="#1f3b77"/></linearGradient><linearGradient id="f" gradientUnits="userSpaceOnUse" x1="1.6301958" x2="15.88295743962" y1="7.47981106038" y2="17.17033093962"><stop offset="0" stop-color="#315aa9"/><stop offset=".5" stop-color="#518ac8"/><stop offset="1" stop-color="#315aa9"/></linearGradient><linearGradient id="g" gradientUnits="userSpaceOnUse" x1="8.06035306038" x2="2.3094378" y1="8.6458435" y2="29.73630624152"><stop offset="0" stop-color="#4377bb"/><stop offset=".5" stop-color="#1a336b"/><stop offset="1" stop-color="#1a336b"/></linearGradient><clipPath id="h"><path d="m0 0h18v18h-18z"/></clipPath><clipPath id="i"><path d="m0 0h18v18h-18z"/></clipPath><path d="m18 4.175781s-6-4.417969-10.640625-3.398437l-.339844.113281c-.679687.226563-1.246093.566406-1.585937 1.019531l-.226563.339844-1.699219 2.941406 2.945313.566406c1.246094.792969 2.828125 1.132813 4.300781.792969l5.207032 1.019531zm0 0" fill="#76b3e1"/><path d="m5.433594 4.175781-.453125.113281c-1.925781.5625-2.488281 2.375-1.472657 3.960938 1.132813 1.472656 3.511719 2.265625 5.433594 1.699219l7.019532-2.378907s-6-4.414062-10.527344-3.394531" fill="#518ac8"/><path d="m14.71875 9.269531c-1.296875-1.621093-3.449219-2.292969-5.4375-1.699219l-7.015625 2.265626-2.265625 3.960937 12.679688 2.152344 2.265624-4.078125c.449219-.792969.335938-1.695313-.226562-2.601563zm0 0" fill="url(#f)"/><path d="m12.453125 13.230469c-1.296875-1.621094-3.445313-2.289063-5.433594-1.699219l-7.019531 2.265625s6 4.527344 10.640625 3.394531l.339844-.113281c1.925781-.5625 2.605469-2.375 1.472656-3.847656zm0 0" fill="url(#g)"/><g mask="url(#b)"><g clip-path="url(#h)"><path d="m18 4.175781s-6-4.417969-10.640625-3.398437l-.339844.113281c-.679687.226563-1.246093.566406-1.585937 1.019531l-.226563.339844-1.699219 2.941406 2.945313.566406c1.246094.792969 2.828125 1.132813 4.300781.792969l5.207032 1.019531zm0 0" fill="url(#d)"/></g></g><g mask="url(#c)"><g clip-path="url(#i)"><path d="m5.433594 4.175781-.453125.113281c-1.925781.5625-2.488281 2.375-1.472657 3.960938 1.132813 1.472656 3.511719 2.265625 5.433594 1.699219l7.019532-2.378907s-6-4.414062-10.527344-3.394531" fill="url(#e)"/></g></g></svg>