<svg height="18" viewBox="0 0 18 18" width="18" xmlns="http://www.w3.org/2000/svg"><path d="m9 .101562c-4.90625 0-8.898438 3.992188-8.898438 8.898438s3.992188 8.898438 8.898438 8.898438 8.898438-3.992188 8.898438-8.898438-3.992188-8.898438-8.898438-8.898438m.46875 16.898438v-1.542969l3.859375-1.957031c.09375-.046875.152344-.140625.152344-.242188v-.886718c.367187-.128906.597656-.492188.558593-.878906-.027343-.300782-.214843-.566407-.488281-.691407-.277343-.125-.597656-.09375-.84375.085938-.246093.179687-.375.476562-.339843.777343.035156.324219.253906.601563.5625.707032v.714844l-3.460938 1.753906v-1.4375l1.523438-.707032c.097656-.042968.160156-.140624.160156-.25l.003906-2.394531 2.824219-1.582031c.085937-.050781.140625-.140625.140625-.242188v-.667968c.402344-.136719.636718-.558594.546875-.976563-.09375-.414062-.484375-.695312-.910157-.652343-.390624.039062-.703124.347656-.75.738281-.042968.394531.1875.761719.5625.890625v.507812l-2.824218 1.585938c-.085938.046875-.140625.140625-.140625.238281l-.003907 2.378906-1.132812.527344v-5.175781l2.375-1.160156c.09375-.046876.152344-.140626.152344-.246094v-.886719c.371094-.125.601562-.492187.5625-.878906-.046875-.460938-.460938-.796875-.921875-.75-.460938.046875-.796875.460937-.75.921875.03125.324218.25.601562.558593.707031v.714844l-1.976562.964843v-2.984374c.414062-.144532.648438-.585938.539062-1.007813-.113281-.425781-.53125-.695313-.964843-.613281-.433594.078125-.730469.476562-.683594.910156.03125.328125.25.601562.558594.707031v4.875l-1.398438-.734375v-2.214844c0-.085937-.039062-.164062-.105469-.21875l-.957031-.730468c.15625-.378906.015625-.816406-.332031-1.035156s-.800781-.15625-1.074219.152343c-.273437.304688-.285156.765625-.027343 1.085938.257812.320312.707031.40625 1.066406.207031l.878906.675781v2.242188c0 .101562.058594.195312.148438.246093l1.800781.945313v1.789063l-3.003907-1.390626.039063-1.089843c.003906-.105469-.054687-.203125-.148437-.253907l-1.378907-.707031c.023438-.089843.03125-.179687.019531-.277343-.050781-.457032-.464843-.785157-.921874-.738282-.457032.046875-.792969.453125-.75.910156.046874.464844.460937.800782.921874.75.160157-.015624.3125-.078124.4375-.175781l1.265626.648438-.042969 1.097656c-.003907.109375.058593.210937.160156.257813l3.402344 1.574218v1.277344c-.003907.023438-.003907.050781 0 .074219v3.753906c-.285157-.003906-.570313-.023437-.855469-.054687v-3.226563c0-.109375-.0625-.207031-.160156-.25l-2.136719-.984375c.027344-.25-.0625-.5-.242187-.675781-.179688-.179688-.429688-.265625-.679688-.242188-.371094.039063-.671875.316407-.742188.679688-.066406.367187.113282.734375.441407.90625.332031.167969.734375.101562.992187-.167969l1.976563.910156v2.964844c-3.710938-.699219-6.527344-3.964844-6.527344-7.875 0-4.421875 3.59375-8.015625 8.015625-8.015625s8.015625 3.59375 8.015625 8.015625c0 4.261719-3.34375 7.757812-7.546875 8zm0 0" fill="#205081"/></svg>