<svg height="18" viewBox="0 0 18 18" width="18" xmlns="http://www.w3.org/2000/svg"><path d="m9 .109375c-.484375 0-.949219.195313-1.292969.539063l-7.058593 7.058593c-.34375.34375-.539063.808594-.539063 1.292969s.195313.949219.539063 1.292969l7.058593 7.058593c.34375.34375.808594.539063 1.292969.539063s.949219-.195313 1.292969-.539063l7.058593-7.058593c.34375-.34375.539063-.808594.539063-1.292969s-.195313-.949219-.539063-1.292969l-7.058593-7.058593c-.34375-.34375-.808594-.539063-1.292969-.539063m-.773438 1.859375c.09375 0 .191407.007812.285157.027344.015625.003906.035156.007812.050781.011718-.378906.335938-.617188.824219-.617188 1.367188 0 .523438.226563.996094.582032 1.328125.101562.097656.214844.183594.339844.257813l-2.320313 2.574218.367187.328125-1.867187.96875.769531-1.957031.367188.332031 1.796875-2v-.023437l.019531.003906.371094-.414062c-.046875.003906-.09375.007812-.144532.007812-.136718 0-.273437-.019531-.402343-.058594-.042969-.011718-.085938-.027344-.128907-.046875-.011718-.003906-.019531-.007812-.027343-.011719-.035157-.011718-.066407-.027343-.101563-.046874l-.019531-.007813c-.183594-.101563-.339844-.242187-.460937-.414063-.011719-.011718-.023438-.027343-.03125-.042968-.019532-.03125-.039063-.0625-.058594-.09375l-.003906-.007813c-.007813-.011719-.011719-.027343-.019532-.039062-.011718-.023438-.023437-.050781-.035156-.074219-.007812-.015625-.015625-.035156-.019531-.050781-.011719-.023438-.019531-.046875-.027344-.070313-.011719-.042968-.023437-.082031-.035156-.125-.003907-.019531-.007813-.035156-.011719-.054687-.003906-.027344-.007812-.058594-.011719-.085938 0-.015625-.003906-.027343-.003906-.042969-.003906-.042968-.007813-.085937-.007813-.132812 0-.09375.007813-.191406.027344-.285156.082032-.40625.34375-.753906.707032-.953125.164062-.085938.34375-.140625.527343-.160157.046875-.003906.097657-.007812.144531-.007812m1.546876 0c.777343 0 1.40625.628906 1.40625 1.40625s-.628907 1.40625-1.40625 1.40625c-.332032 0-.65625-.117188-.910157-.332031l-.003906-.003907c-.039063-.035156-.074219-.070312-.109375-.105468-.007812-.007813-.015625-.015625-.019531-.023438-.03125-.03125-.058594-.066406-.085938-.101562-.003906-.007813-.011719-.019532-.019531-.027344-.03125-.042969-.058594-.085938-.082031-.132812h-.003907c-.023437-.050782-.046874-.097657-.066406-.148438-.007812-.011719-.011718-.023438-.015625-.035156-.019531-.054688-.035156-.109375-.050781-.167969-.007812-.035156-.015625-.074219-.019531-.113281-.003907-.015625-.007813-.03125-.007813-.050782-.007812-.054687-.011718-.109374-.011718-.164062s.003906-.109375.011718-.164062c0-.019532.003906-.035157.007813-.050782.007812-.054687.019531-.109375.035156-.164062.007813-.039063.023437-.078125.035156-.117188.003907-.011718.007813-.023437.015625-.035156.019532-.050781.042969-.097656.066406-.148438.027344-.046874.054688-.089843.085938-.132812.007812-.007812.015625-.019531.019531-.027344.027344-.035156.054688-.070312.085938-.101562l.019531-.023438c.035156-.039062.074219-.074218.113281-.109375.253907-.214843.578125-.332031.910157-.332031m-2.941407 2.585938c.105469.125.230469.238281.367188.332031l-1.171875 1.300781.363281.328125-1.863281.96875.765625-1.957031.367187.328125zm4.335938 0 1.171875 1.300781.367187-.328125.765625 1.957031-1.863281-.96875.363281-.328125-1.171875-1.300781c.136719-.09375.261719-.207031.367188-.332031zm-1.640625.628906c.082031.011718.164062.019531.246094.019531.082031 0 .164062-.007813.246093-.019531v5.761718h.492188l-.738281 1.96875-.738282-1.96875h.492188zm-1.054688.578125v5.183593h.492188l-.738282 1.96875-.738281-1.96875h.492188v-4.636718zm-5.097656 1.832031c.777344 0 1.40625.628906 1.40625 1.40625s-.628906 1.40625-1.40625 1.40625-1.40625-.628906-1.40625-1.40625.628906-1.40625 1.40625-1.40625m11.25 0c.777344 0 1.40625.628906 1.40625 1.40625s-.628906 1.40625-1.40625 1.40625c-.460938 0-.890625-.222656-1.152344-.601562-.167968-.234376-.253906-.515626-.253906-.804688 0-.777344.628906-1.40625 1.40625-1.40625m-9.796875 2.511719 1.539063 1.535156.347656-.347656.867187 1.914062-1.914062-.867187.347656-.347656-1.535156-1.539063c.132812-.097656.25-.214844.347656-.347656zm8.34375 0c.097656.132812.214844.25.347656.347656l-1.535156 1.539063.347656.347656-1.914062.867187.867187-1.914062.347656.347656zm-4.171875 3.113281c.777344 0 1.40625.628906 1.40625 1.40625s-.628906 1.40625-1.40625 1.40625-1.40625-.628906-1.40625-1.40625.628906-1.40625 1.40625-1.40625"/></svg>