<svg height="18" viewBox="0 0 18 18" width="18" xmlns="http://www.w3.org/2000/svg"><path d="m10.292969.648438 7.058593 7.058593c.34375.34375.539063.808594.539063 1.292969s-.195313.949219-.539063 1.292969l-7.058593 7.058593c-.34375.34375-.808594.539063-1.292969.539063s-.949219-.195313-1.292969-.539063l-7.058593-7.058593c-.34375-.34375-.539063-.808594-.539063-1.292969s.195313-.949219.539063-1.292969l7.058593-7.058593c.34375-.34375.808594-.539063 1.292969-.539063s.949219.195313 1.292969.539063" fill="#0f3a80"/><path d="m6.832031 4.554688-1.171875 1.300781-.367187-.328125-.765625 1.957031 1.863281-.96875-.363281-.328125 1.171875-1.304688c-.136719-.089843-.261719-.203124-.367188-.328124m1.148438.628906v.023437l.019531-.019531zm.492187.578125-.492187.546875v4.636718h-.492188l.738281 1.96875.738282-1.96875h-.492188zm-.246094-3.792969c-.777343 0-1.40625.628906-1.40625 1.40625s.628907 1.40625 1.40625 1.40625c.050782 0 .097657-.003906.148438-.007812l.101562-.113282c.023438.023438.046876.046875.070313.066406-.367187-.335937-.601563-.816406-.601563-1.351562 0-.542969.238282-1.03125.613282-1.363281-.109375-.027344-.21875-.042969-.332032-.042969m-4.851562 5.625c-.777344 0-1.40625.628906-1.40625 1.40625s.628906 1.40625 1.40625 1.40625 1.40625-.628906 1.40625-1.40625-.628906-1.40625-1.40625-1.40625m1.453125 2.511719c-.101563.128906-.21875.246093-.347656.347656l1.535156 1.539063-.347656.347656 1.914062.867187-.867187-1.914062-.347656.347656zm4.171875 3.113281c-.777344 0-1.40625.628906-1.40625 1.40625s.628906 1.40625 1.40625 1.40625 1.40625-.628906 1.40625-1.40625-.628906-1.40625-1.40625-1.40625" fill="#ffa600"/><path d="m14.625 7.59375c-.777344 0-1.40625.628906-1.40625 1.40625s.628906 1.40625 1.40625 1.40625 1.40625-.628906 1.40625-1.40625-.628906-1.40625-1.40625-1.40625m-5.097656-2.410156v5.761718h-.492188l.738282 1.96875.738281-1.96875h-.492188v-5.761718c-.082031.011718-.164062.019531-.246093.019531-.082032 0-.164063-.007813-.246094-.019531m3.644531 4.921875-1.539063 1.535156-.347656-.347656-.867187 1.914062 1.914062-.867187-.347656-.347656 1.535156-1.539063c-.128906-.101563-.246093-.21875-.347656-.347656m-2.003906-5.550781c-.105469.125-.230469.238281-.367188.332031l1.171875 1.300781-.363281.328125 1.863281.96875-.765625-1.957031-.367187.328125zm-2.691407.105468-2.292968 2.542969-.367188-.328125-.769531 1.957031 1.867187-.96875-.367187-.328125 2.320313-2.574218c-.144532-.082032-.277344-.183594-.390626-.300782zm1.296876-2.691406c-.777344 0-1.40625.628906-1.40625 1.40625s.628906 1.40625 1.40625 1.40625c.777343 0 1.40625-.628906 1.40625-1.40625s-.628907-1.40625-1.40625-1.40625" fill="#fff"/></svg>