<svg height="18" viewBox="0 0 18 18" width="18" xmlns="http://www.w3.org/2000/svg"><path d="m8.802083 20v-4.098958l1.895834.197916c1.145833-.0625 2.067708-.958333 2.166666-2.098958v-5.697917c.015625-3-2.40625-5.442708-5.40625-5.458333s-5.442708 2.40625-5.458333 5.40625c0 2.802083.65625 3.052083 1 4.552083.229167.901042.239583 1.848959.03125 2.755209l-1.03125 4.442708m17.802083-2.197917c2.927084-2.932291 2.927084-7.677083 0-10.604166m-2.802083 7.802083c.661458-.661458 1.03125-1.557292 1.026042-2.494792-.005209-.932291-.385417-1.828125-1.052084-2.479166" fill="none" stroke="#fff" stroke-linecap="round" stroke-linejoin="round" stroke-width="2" transform="scale(.75)"/></svg>