<svg height="18" viewBox="0 0 18 18" width="18" xmlns="http://www.w3.org/2000/svg"><g fill="none" stroke="#fff" stroke-linecap="round" stroke-linejoin="round" stroke-width="2" transform="scale(.75)"><path d="m7 20h10m-7 0c5.5-2.5.802083-6.401042 3-10"/><path d="m9.5 9.401042c1.098958.796875 1.802083 2.197916 2.302083 3.697916-2 .401042-3.5.401042-4.802083-.296875-1.197917-.604166-2.302083-1.901041-3-4.203125 2.802083-.5 4.401042 0 5.5.802084m4.598958-3.401042c-.760416 1.192708-1.145833 2.588542-1.098958 4 1.901042-.098958 3.302083-.598958 4.302083-1.401042 1-1 1.598959-2.296875 1.697917-4.598958-2.697917.098958-4 1-4.901042 2"/></g></svg>