<svg height="18" viewBox="0 0 18 18" width="18" xmlns="http://www.w3.org/2000/svg"><path d="m17.355469 7.71875c.074219.003906.144531.035156.191406.089844.050781.058594.074219.128906.066406.203125v.792969c.011719.074218-.015625.152343-.066406.207031-.054687.054687-.132813.078125-.207031.066406h-3.421875c-.847657 0-1.34375.292969-1.34375.957031v.238282c0 .515624.238281.957031 1.140625 1.289062l2.445312.976562c1.691406.644532 1.839844 1.582032 1.839844 2.59375v.203126c0 2.0625-1.230469 2.464843-3.714844 2.464843-1.601562 0-3.054687-.128906-3.367187-.167969-.222657-.015624-.277344-.128906-.277344-.273437v-.808594c-.011719-.078125.015625-.152343.070313-.207031.054687-.054688.128906-.082031.207031-.070312h3.402343c1.472657 0 1.933594-.167969 1.933594-.957032v-.222656c0-.53125-.222656-.882812-1.070312-1.230469l-2.609375-1c-1.417969-.550781-1.769531-1.617187-1.769531-2.628906v-.386719c0-2.023437 1.769531-2.300781 3.734374-2.300781.941407 0 1.882813.058594 2.816407.171875" fill="#303030"/><path d="m16.523438.859375c-.539063-.441406-1.214844-.679687-1.914063-.679687h-11.566406c-.496094-.003907-.980469.117187-1.417969.347656-.515625.273437-.941406.6875-1.230469 1.191406-.058593.101562-.105469.199219-.152343.300781-.027344.070313-.054688.136719-.078126.203125-.050781.140625-.085937.28125-.1093745.425782-.0390625.1875-.0546875.378906-.0546875.570312v11.566406c0 .453125.101562.90625.300781 1.316406.507813 1.050782 1.570313 1.722657 2.742188 1.71875h6.171875c.09375 0 .164062-.070312.164062-.164062v-.734375c0-.09375-.070312-.164063-.164062-.164063h-.800782l-2.390624-4.847656 5.457031-7.230468c.046875-.0625.082031-.136719.101562-.210938l5 .765625v1.125c0 .09375.074219.164063.164063.164063h.742187c.089844 0 .164063-.070313.164063-.164063v-3.140625c0-.917969-.414063-1.785156-1.128906-2.359375zm-6.292969.382813.257812 2.0625-4.042969-.617188-.183593-1.4375zm-7.183594 0h2.222656l.160157 1.289062-2.953126-.453125-.933593-.140625c.375-.441406.921875-.695312 1.5-.695312zm2.246094 2.265624-2.0625 2.738282-1.632813-3.304688zm-4.226563.582032 1.324219 2.679687-1.324219.160157zm0 3.835937 1.78125-.226562 1.847656 3.734375-3.628906.457031zm6.25 8.832031h-4.109375c-1.179687-.003906-2.136719-.960937-2.140625-2.136718v-1.738282l4.085938-.511718zm-1.78125-5.832031-1.820312-3.695312 2.679687-3.550781v-.003907l4.128907.632813zm11.046875-6.691406-5.085937-.777344-.277344-2.214843h3.226562c1.179688.003906 2.132813.957031 2.136719 2.136718zm0 0" fill="#8c0000"/></svg>