<svg height="18" viewBox="0 0 18 18" width="18" xmlns="http://www.w3.org/2000/svg"><path d="m7.226562 3.5c-3.855468 0-6.980468-.539062-6.980468-1.203125v12.976563c0 .664062 3.125 1.199218 6.980468 1.199218 3.855469 0 6.984376-.539062 6.984376-1.199218v-12.984376c0 .671876-3.128907 1.210938-6.984376 1.210938zm0 0" fill="#d1d1d1"/><path d="m.246094 2.289062v12.984376c0 .664062 3.125 1.199218 6.980468 1.199218v-12.972656c-3.855468 0-6.980468-.539062-6.980468-1.210938zm12.980468.621094v12.972656c.625-.179687.984376-.390624.984376-.613281v-12.980469c0 .230469-.359376.4375-.984376.621094m0 0" fill="#adadad"/><path d="m14.210938 2.292969c0-.664063-3.128907-1.203125-6.984376-1.203125-3.855468 0-6.980468.539062-6.980468 1.203125 0 .664062 3.125 1.203125 6.980468 1.203125 3.855469 0 6.984376-.539063 6.984376-1.203125m-13.964844 8.160156c0 .664063 3.125 1.199219 6.980468 1.199219 3.855469 0 6.984376-.539063 6.984376-1.199219v.980469c0 .664062-3.128907 1.203125-6.984376 1.203125-3.855468 0-6.980468-.539063-6.980468-1.203125zm0-4.324219c0 .664063 3.125 1.199219 6.980468 1.199219 3.855469 0 6.984376-.539063 6.984376-1.199219v.980469c0 .664063-3.128907 1.203125-6.984376 1.203125-3.855468 0-6.980468-.539062-6.980468-1.203125zm0 0" fill="#939699"/><path d="m17.808594 13.089844c0 2.289062-1.855469 4.148437-4.144532 4.148437-2.289062 0-4.144531-1.859375-4.144531-4.148437 0-2.289063 1.855469-4.144532 4.144531-4.144532 2.289063 0 4.144532 1.855469 4.144532 4.144532zm0 0" fill="#ecedf0"/><path d="m17.296875 13.089844c0 2.007812-1.625 3.632812-3.632813 3.632812-2.007812 0-3.632812-1.625-3.632812-3.632812 0-2.003906 1.625-3.632813 3.632812-3.632813 2.007813 0 3.632813 1.628907 3.632813 3.632813m0 0" fill="#3faa00"/><path d="m12.382812 14.894531 3.378907-1.953125-3.378907-1.949218zm0 0" fill="#fff"/></svg>