<svg height="18" viewBox="0 0 18 18" width="18" xmlns="http://www.w3.org/2000/svg"><g fill="none" stroke="#fff" stroke-linecap="round" stroke-linejoin="round" stroke-width="2" transform="scale(.75)"><path d="m15.234375 22c.786458-.875.984375-2.130208.510417-3.208333-.473959-1.078125-1.53125-1.776042-2.708334-1.791667"/><path d="m16 20c0-1.65625 1.34375-3 3-3h1c1.104167 0 2-.895833 2-2v-2c0-2.208333-1.791667-4-4-4v-5m0 9h.010417"/><path d="m18 6c-2.208333 0-4 1.791667-4 4-3.864583 0-7 3.135417-7 7 0-5 4-5 4-10.5 0-2.484375-2.015625-4.5-4.5-4.5s-4.5 2.015625-4.5 4.5c0 1.380208 1.119792 2.5 2.5 2.5s2.5-1.119792 2.5-2.5c0 3.5-4 4.5-4 10.5 0 2.802083 2.197917 5 5 5h10"/></g></svg>