<svg height="18" viewBox="0 0 18 18" width="18" xmlns="http://www.w3.org/2000/svg"><path d="m4.820312 15.355469c-.503906 0-1.203124.523437-1.203124 1.105469 0 .289062.179687.429687.441406.429687.480468 0 1.242187-.507813 1.242187-1.121094 0-.304687-.214843-.414062-.480469-.414062zm1.667969-11.289063c0-.515625-.363281-.910156-.90625-.910156-.511719 0-.921875.394531-.921875.910156 0 .484375.390625.921875.90625.921875.488282 0 .921875-.382812.921875-.921875zm2.5-2.152344c0-.390624-.257812-.894531-.804687-.894531-.492188 0-.746094.4375-.746094.828125 0 .382813.269531.9375.800781.9375.496094 0 .75-.488281.75-.871094m-2.183593 14.546876c-.457032 0-1.082032.59375-1.082032 1.042968 0 .226563.097656.347656.34375.347656.324219 0 .792969-.273437.992188-.679687.042968-.082031.113281-.214844.113281-.242187v-.226563c-.140625-.191406-.234375-.242187-.367187-.242187zm-2.800782-2.789063c0-.394531-.289062-.550781-.613281-.550781-.472656 0-1.296875.457031-1.296875 1.109375 0 .371093.25.535156.601562.535156.449219 0 1.308594-.40625 1.308594-1.09375zm-.574218-5.492187c.476562 0 1.136718-.328126 1.136718-1 0-.507813-.421875-.828126-.882812-.828126-.503906 0-1.148438.347657-1.148438 1 0 .503907.40625.828126.894532.828126m.253906 2.445312c0-.46875-.382813-.679688-.789063-.679688-.023437 0-.042969-.007812-.144531 0-.589844.046876-1.136719.554688-1.136719 1.066407 0 .480469.4375.683593.816407.683593.488281 0 1.253906-.378906 1.253906-1.070312zm11.246094-9.296875c-.355469 0-.480469.554687-.480469.734375s.0625.574219.375.574219c.367187 0 .480469-.554688.480469-.734375 0-.152344-.082032-.574219-.375-.574219zm-1.75-1c-.414063 0-.546876.519531-.546876.757813 0 .160156.097657.726562.496094.722656.394532-.003906.546875-.519532.546875-.773438 0-.199218-.097656-.707031-.496093-.707031zm2.914062 2.46875c-.332031 0-.457031.542969-.457031.707031 0 .140625.054687.46875.308593.46875.320313 0 .441407-.527344.441407-.695312 0-.109375-.046875-.480469-.292969-.480469zm-3.472656 12.195313c-.378906 0-.640625.578124-.640625.800781 0 .121093.027343.242187.199219.242187.371093 0 .640624-.566406.640624-.800781 0-.109375-.039062-.242187-.199218-.242187m-3.742188 1.644531c-.425781 0-.921875.570312-.921875.960937 0 .058594.003907.171875.109375.242188.109375.070312.308594.078125.546875-.082032.320313-.214843.535157-.59375.535157-.839843 0-.136719-.089844-.28125-.269532-.28125zm1.976563-16.523438c-.453125 0-.625.539063-.625.828125 0 .300782.222656.828125.667969.828125.449218 0 .621093-.539062.613281-.816406-.011719-.351563-.160157-.839844-.65625-.839844zm0 15.960938c-.410157 0-.761719.59375-.761719.894531 0 .152344.070312.242188.230469.242188.371093 0 .757812-.570313.757812-.867188 0-.132812-.023437-.269531-.226562-.269531zm0 0" fill="#231f20"/></svg>