<svg height="18" viewBox="0 0 18 18" width="18" xmlns="http://www.w3.org/2000/svg"><g fill="none" stroke="#fff" stroke-linecap="round" stroke-linejoin="round" stroke-width="2" transform="scale(.75)"><path d="m5 22h14m.270833-8.270833c-.46875-.46875-1.109375-.729167-1.770833-.729167h-11c-1.380208 0-2.5 1.119792-2.5 2.5v1.5c0 .552083.447917 1 1 1h14c.552083 0 1-.447917 1-1v-1.5c0-.661458-.260417-1.302083-.729167-1.770833"/><path d="m14 13v-4.5c0-1.5 1-1.5 1-3.5 0-1.65625-1.34375-3-3-3-1.661458 0-3 1-3 3s1 2 1 3.5v4.5"/></g></svg>