<svg height="18" viewBox="0 0 18 18" width="18" xmlns="http://www.w3.org/2000/svg"><path d="m15.09375.28125-.96875.0625.074219 2.023438c.003906.109374-.125.175781-.214844.105468l-.648437-.511718-.773438.585937c-.039062.027344-.09375.035156-.140625.011719-.042969-.027344-.070313-.074219-.070313-.125l.089844-1.984375-9.648437.601562c-.476563.03125-.84375.4375-.824219.914063l.542969 14.460937c.015625.457031.382812.828125.839843.847657l11.757813.527343c.242187.011719.476563-.078125.648437-.242187.175782-.167969.273438-.398438.273438-.636719v-15.757813c0-.246093-.101562-.476562-.277344-.644531-.175781-.164062-.414062-.25-.660156-.238281m-5.828125 2.980469c2.292969 0 3.546875 1.226562 3.546875 3.5625-.3125.238281-2.621094.402343-2.621094.0625.050782-1.308594-.535156-1.367188-.859375-1.367188-.3125 0-.832031.09375-.832031.792969 0 1.730469 4.457031 1.636719 4.457031 5.125 0 1.960938-1.59375 3.042969-3.625 3.042969-2.101562 0-3.933593-.847657-3.726562-3.789063.082031-.347656 2.75-.265625 2.75 0-.035157 1.210938.242187 1.570313.941406 1.570313.539063 0 .78125-.296875.78125-.792969 0-1.777344-4.390625-1.839844-4.390625-5.09375 0-1.867188 1.285156-3.113281 3.578125-3.113281zm0 0"/></svg>