<svg height="18" viewBox="0 0 18 18" width="18" xmlns="http://www.w3.org/2000/svg"><g fill="none" stroke="#fff" stroke-linecap="round" stroke-linejoin="round" stroke-width="2" transform="scale(.75)"><path d="m2 7 4.411458-4.411458c.375-.375.885417-.588542 1.416667-.588542h8.34375c.53125 0 1.041667.213542 1.416667.588542l4.411458 4.411458m-18 5v8c0 1.104167.895833 2 2 2h12c1.104167 0 2-.895833 2-2v-8"/><path d="m15 22v-4c0-1.104167-.895833-2-2-2h-2c-1.104167 0-2 .895833-2 2v4m-7-15h20m0 0v3c0 1.104167-.895833 2-2 2-.583333-.03125-1.140625-.255208-1.588542-.630208-.244791-.177084-.578125-.177084-.822916 0-.447917.375-1.005209.598958-1.588542.630208-.583333-.03125-1.140625-.255208-1.588542-.630208-.244791-.177084-.578125-.177084-.822916 0-.447917.375-1.005209.598958-1.588542.630208-.583333-.03125-1.140625-.255208-1.588542-.630208-.244791-.177084-.578125-.177084-.822916 0-.447917.375-1.005209.598958-1.588542.630208-.583333-.03125-1.140625-.255208-1.588542-.630208-.244791-.177084-.578125-.177084-.822916 0-.447917.375-1.005209.598958-1.588542.630208-1.104167 0-2-.895833-2-2v-3"/></g></svg>