<svg height="18" viewBox="0 0 18 18" width="18" xmlns="http://www.w3.org/2000/svg"><path d="m9 10.199219-3.15625-1.667969-5.476562-2.894531c-.007813-.007813-.015626-.007813-.019532-.007813-.203125-.09375-.4062498.105469-.332031.304688l2.792969 7.121094.007812.023437c.113282.265625.363282.425781.636719.492187.023437.003907.039063.007813.066406.015626.027344.003906.066407.015624.097657.015624h.015624.003907l.015625.003907h.003906.011719.019531c3.53125.386719 7.097656.386719 10.632812 0 .054688 0 .109376-.003907.164063-.011719h.003906l.023438-.003906c.015625 0 .027343-.003906.039062-.007813.023438-.003906.035157-.007812.070313-.019531.042968-.015625.085937-.03125.125-.050781.035156-.015625.058594-.03125.089844-.050781.035156-.023438.070312-.046876.105468-.074219.015625-.011719.027344-.015625.039063-.027344l-.007813-.003906zm0 0" fill="#ff4b4b"/><path d="m17.640625 5.636719h-.003906l-5.480469 2.894531 3.046875 4.535156 2.785156-7.132812v-.007813c.066407-.210937-.148437-.402343-.347656-.289062" fill="#7d353b"/><path d="m9.292969 4.257812c-.140625-.203124-.445313-.203124-.582031 0l-2.867188 4.273438 3.15625 1.667969 5.980469 3.160156c.035156-.039063.066406-.074219.097656-.109375.046875-.058594.085937-.117188.125-.183594l-3.046875-4.535156zm0 0" fill="#bd4043"/></svg>