<svg height="18" viewBox="0 0 18 18" width="18" xmlns="http://www.w3.org/2000/svg"><path d="m8.730469 0-7.722657 4.414062-.011718 4.089844 4.5625-2.636718v10.292968l3.171875 1.839844zm.542969 0v18l3.167968-1.839844v-4.917968l2.289063 1.324218-.015625-3.578125-2.273438-1.296875v-1.824218l4.5625 2.636718-.011718-4.089844zm-.683594.238281v17.519531l-2.890625-1.679687v-10.453125l-4.566407 2.636719.011719-3.765625zm.820312 0 7.445313 4.257813.011719 3.765625-4.566407-2.636719v2.144531l2.277344 1.300781.011719 3.253907-2.289063-1.320313v5.078125l-2.890625 1.675781zm0 0"/></svg>