<svg height="18" viewBox="0 0 18 18" width="18" xmlns="http://www.w3.org/2000/svg"><path d="m3.273438 0v12.566406h12.882812v-11.71875c0-.226562-.089844-.441406-.25-.601562-.15625-.1562502-.371094-.246094-.597656-.246094zm-.140626.0546875-2.613281 1.5742185v12.539063l2.613281-1.574219zm6.472657 2.5585935c1.425781 0 2.453125.722657 2.453125 1.757813v.382812c0 .59375-.5625 1.105469-1.257813 1.269532.695313.117187 1.527344.59375 1.527344 1.507812v.472656c0 1.136719-1.132813 1.972656-2.671875 1.972656-1.972656 0-2.675781-1.039062-2.789062-2.074218h1.652343c.046875.421875.339844.824218 1.042969.824218.613281 0 1.015625-.289062 1.015625-.925781v-.210937c0-.761719-.761719-.894532-1.265625-.894532h-.542969v-1.175781h.542969c.503906 0 1.015625-.160156 1.015625-.746093v-.242188c0-.460938-.3125-.691406-.824219-.691406-.59375 0-.867187.371094-.90625.8125h-1.648437c.050781-1.074219.984375-2.039063 2.65625-2.039063m6.691406.140625v9.953125h-13.074219l-1.273437.765625v3.609375c0 .507813.410156.917969.917969.917969h14.613281v-15.246094zm-10.535156 11.132813h.835937l.539063 2.140625.5625-2.132813-.003907-.007812h.816407v2.667969h-.632813v-1.722657l-.445312 1.71875v.003907h-.628906l-.472657-1.792969v1.792969h-.570312zm3.855469 0h.886718l.804688 2.667969h-.679688l-.164062-.582032h-.796875l-.152344.582032h-.660156zm1.96875 0h.726562l.449219.851562h.003906l.460937-.851562h.707032l-.757813 1.199219.839844 1.46875h-.75l-.515625-1.003907-.519531 1.003907h-.734375l.84375-1.410157zm-1.527344.4375-.269532 1.152343h.546876zm0 0"/></svg>