<svg height="18" viewBox="0 0 18 18" width="18" xmlns="http://www.w3.org/2000/svg"><path d="m16.78125 3.980469c-.054688 0-.105469.007812-.15625.019531-.046875.011719-.09375.027344-.140625.050781-.046875.023438-.089844.050781-.128906.085938-.042969.03125-.082031.066406-.117188.101562-.050781-.027343-.105469-.054687-.164062-.074219-.027344-.007812-.054688-.015624-.085938-.023437-.027343-.003906-.058593-.007813-.089843-.007813-.070313 0-.136719.011719-.203126.03125-.066406.023438-.128906.054688-.1875.09375-.027343.019532-.058593.039063-.082031.0625-.027343.023438-.054687.046876-.078125.074219-.050781.054688-.097656.113281-.136718.175781-.011719.019532-.019532.039063-.03125.058594-.011719-.011718-.023438-.023437-.039063-.035156-.023437-.011719-.054687-.023438-.082031-.03125-.046875-.011719-.097656-.011719-.148438-.003906-.035156.007812-.070312.019531-.109375.035156-.035156.015625-.070312.035156-.105469.054688l-.015624.011718-.011719.011719c-.050781.046875-.09375.09375-.136719.136719-.039062.039062-.074219.082031-.113281.128906-.03125.042969-.0625.089844-.089844.136719-.027344.050781-.054687.105469-.074219.160156-.019531.058594-.039062.125-.058594.195313-.015624.070312-.035156.152343-.054687.242187-.035156.183594-.070313.414063-.121094.707031-.027343.074219-.054687.148438-.089843.21875-.03125.066406-.066407.132813-.105469.191406-.039063.0625-.082031.117188-.128907.171876-.046874.050781-.09375.097656-.148437.140624-.039063.03125-.078125.054688-.121094.078126-.046875.027343-.089843.046874-.140625.0625-.050781.019531-.101562.03125-.15625.042968-.050781.011719-.109375.019532-.167968.023438.003906-.019532.015624-.039063.019531-.0625.003906-.027344.003906-.058594 0-.085938-.003907-.03125-.011719-.058594-.019531-.085937-.007813-.03125-.023438-.058594-.039063-.082031-.015625-.027344-.03125-.054688-.054687-.078126-.019532-.023437-.042969-.046874-.066407-.066406-.027343-.019531-.050781-.039062-.082031-.058594-.03125-.019531-.0625-.035156-.09375-.054687-.035156-.015625-.070312-.03125-.109375-.046875l-.015625-.007812h-.015625c-.046875-.011719-.09375-.015626-.140625-.019532-.046875 0-.089844 0-.136719.007813-.019531.003906-.042969.007812-.0625.015625-.019531.007812-.042969.015625-.0625.023437-.003906-.023437-.011719-.046875-.019531-.066406-.015625-.042969-.039062-.082031-.0625-.121094-.023438-.035156-.046875-.070312-.078125-.105469-.027344-.035156-.058594-.066406-.089844-.097656s-.0625-.0625-.097656-.089844c-.066406-.054687-.136719-.109374-.207031-.160156-.070313-.046875-.144532-.097656-.214844-.140625s-.136719-.085937-.199219-.125c-.0625-.039062-.113281-.074219-.160156-.109375l-.007813-.007812-.011718-.003906c-.175782-.105469-.359375-.199219-.542969-.292969-.078125-.039063-.160156-.078125-.246094-.117188-.074219-.035156-.152343-.066406-.230469-.097656-.074218-.027344-.148437-.058594-.222656-.082031-.136718-.046875-.277344-.089844-.417968-.121094-.066407-.015625-.132813-.03125-.199219-.042969-.132813-.023437-.261719-.042969-.394531-.054687-.136719-.015625-.269532-.023438-.402344-.027344-.273438-.011719-.566406-.007812-.894532-.011719h-.023437c-.164063.019531-.328125.042969-.492187.070313-.15625.023437-.308594.054687-.457032.09375-.140625.035156-.28125.074218-.421875.117187-.128906.042969-.261719.089844-.386719.144531-.125.050782-.242187.109376-.355468.167969-.117188.058594-.222656.125-.328125.191407-.207031.136718-.402344.292968-.578125.460937l-.019532-.003906-.078124.082031c-.066407.070312-.136719.148438-.203126.230469-.21875.257812-.417968.535156-.59375.828125-.0625.101562-.117187.203125-.171874.308594-.054688.101562-.101563.207031-.148438.3125-.042969.101562-.082031.207031-.113281.3125-.035157.105468-.0625.210937-.082031.3125l-1.953126-.6875c-.003906 0-.082031-.03125-.191406-.066407-.058594-.019531-.121094-.039062-.179687-.050781-.0625-.015625-.132813-.03125-.195313-.035156-.035156-.003906-.066406-.007813-.101562-.007813-.035156.003907-.070313.007813-.105469.015625-.046875.015625-.085937.039063-.1210938.070313-.0390624.035156-.0664062.082031-.07812495.132812-.00390625.027344-.00390625.050781-.00390625.074219s.00390625.046875.0117188.070312c.0117187.042969.03125.085938.0546874.125.0273438.042969.0546878.085938.0859378.125.035156.046876.078125.09375.125.148438l.019531.019531s.0625.046875.171875.132813c.378906.292968.765625.574218 1.160156.84375.128906.085937.265625.175781.40625.265625.140625.089843.285156.179687.433594.269531v.003906c-.117188.113282-.226562.230469-.332031.355469-.042969.054687-.089844.109375-.132813.164063-.042968.058593-.085937.121093-.128906.183593-.039062.0625-.078125.125-.113281.191407-.039063.066406-.070313.132812-.097657.203124-.03125.066407-.054687.136719-.074218.207032-.042969.144531-.066406.292968-.070313.441406-.003906.078125 0 .15625.007813.234375.003906.078125.019531.160156.035156.242187.019531.082032.042969.167969.070312.253907.03125.085937.066407.171875.105469.261719.050781.132812.125.253906.21875.359374.058594.066407.125.125.195313.179688.035156.023438.074218.050781.113281.074219.074219.042969.15625.082031.238281.117187.085938.035156.171875.066406.261719.097656.089844.027344.183594.054688.273437.082032.1875.050781.386719.101562.589844.160156l.039063.011719.042969-.007813c.023437-.003906.050781-.003906.078124-.003906.0625.007812.125.011719.179688.015625.058594.003906.113281.007813.164062.003906 0 0 .007813 0 .015626.003907h.003906c.066406 0 .136718-.007813.203125-.027344.054687-.011719.109375-.027344.160156-.046875.046875-.019531.09375-.042969.136719-.074219.035156-.027344.066406-.050781.097656-.078125.03125-.023437.058594-.050781.082031-.078125.046875-.046875.089844-.101562.121094-.15625.035156-.03125.066406-.066406.089844-.109375.011719-.019531.023437-.039063.03125-.0625.007812-.023437.015625-.042969.019531-.070313.003906-.023437.003906-.046874.003906-.070312 0-.027344 0-.050781-.003906-.078125-.011719-.050781-.023438-.101563-.042969-.152344-.019531-.058593-.042969-.121093-.070312-.179687 0 0 0-.003906-.003907-.011719-.027343-.058594-.054687-.121094-.085937-.179687-.03125-.058594-.0625-.113282-.09375-.167969-.03125-.054688-.058594-.105469-.085937-.15625-.027344-.042969-.050782-.089844-.070313-.136719-.019531-.050781-.035156-.105469-.050781-.15625-.011719-.046875-.023438-.09375-.027344-.144531-.007812-.042969-.007812-.089844-.003906-.136719s.011718-.085938.023437-.128906c.011719-.039063.03125-.078125.050781-.117188.035157-.058594.050782-.078125.082032-.117187.042968.027343.082031.054687.132812.078125l.015625.003906.015625.007812c.0625.015626.125.03125.183594.050782.058594.019531.117188.042968.175781.0625l.023438.019531c-.023438.035156-.050781.070313-.070313.109375-.011718.015625-.023437.035156-.03125.058594-.007812.019531-.011718.039062-.015625.0625-.003906.035156-.007812.066406-.007812.101562 0 .03125 0 .066406.003906.101563.007813.070312.019531.148437.035156.246093l.003907.023438.007812.019531c.035156.082031.058594.164063.089844.238281.015625.039063.03125.074219.050781.109376.023437.035156.046875.070312.078125.105468s.070312.066406.109375.09375c.042969.023438.089844.046875.144531.066406.050782.019532.109375.035157.175782.046876.066406.015624.140624.027343.222656.035156l.039062.003906.035156-.007812c.0625-.019532.113282-.039063.164063-.0625.046875-.023438.09375-.046876.136719-.074219.007812.082031.011718.160156.023437.234375.003907.023437.003907.023437 0 .003906 0-.015625 0-.007812.003907.011719l.019531.105469.023437.007812c.019532.066406.046875.132812.082032.191406.035156.0625.074218.117188.125.171875.050781.050781.105468.101563.164062.144531.0625.046876.132812.085938.203125.125.074219.035157.152344.070313.234375.101563s.171875.058594.261719.085937c.09375.027344.1875.054688.289062.078126.101563.023437.207031.042968.316407.066406.007812 0 .011718.007812.027343.011718.050781.019532.097657.027344.144531.035157.050782.003906.101563.007812.164063.011719h.019531c.09375-.003907.183594-.003907.273438-.003907.09375.003907.1875.007813.285156.011719.078125.003906.160156.011719.242188.015625.082031.003906.167968.007813.25.003906.066406-.003906.132812-.007812.203124-.019531.066407-.011719.132813-.03125.199219-.050781.070313-.019531.140625-.042969.207031-.070313l.023438-.015625c.039062-.023437.078125-.054687.113281-.085937.035157-.03125.066407-.0625.09375-.09375.082031-.078125.15625-.164063.21875-.261719l.019531-.03125.007813-.039063c.011719-.082031.023437-.167968.027344-.253906.007812-.179687.003906-.359375-.019531-.542968-.011719-.089844-.03125-.183594-.050782-.273438-.023437-.105469-.058594-.207031-.097656-.308594-.039062-.097656-.085938-.195312-.140625-.285156.039063-.003906.078125-.011719.113281-.019531.035156-.011719.074219-.019531.109375-.035157 0 .082032.003907.164063.011719.246094.007812.082032.019531.164063.035156.246094s.035156.164062.0625.242188c.023438.078124.054688.15625.089844.234374.023438.046876.050781.09375.078125.140626.027344.046874.058594.09375.09375.136718.03125.042969.066406.082032.105469.121094.039062.039062.078125.074219.121094.105469.042968.03125.085937.0625.132812.089843.097656.050782.203125.089844.308594.109376.058594.011718.117187.015624.175781.015624h-.003906c.035156.003907.074219.007813.109375.011719-.003906-.003906-.003906-.003906-.007813-.003906l.011719.003906h-.003906c.085937.019531.167968.035157.246094.042969.074218.011719.148437.015625.222656.015625.070312 0 .136718-.007813.207031-.019531.0625-.011719.125-.027344.183594-.046875.039062-.015625.078125-.03125.113281-.046875.035156-.019532.070312-.039063.105469-.058594l.011719-.003906c.140624-.050782.269531-.128906.386718-.226563.058594-.046875.109375-.097656.15625-.152343.019532-.015626.035156-.027344.050782-.039063l.011718-.007813.011719-.011718c.042969-.042969.082031-.089844.113281-.144532.03125-.046874.054688-.097656.074219-.148437l.015625-.023437.007812-.027344c.007813-.023438.011719-.046875.015626-.070313.015624-.054687.023437-.109375.027343-.160156.003907-.054687.007813-.113281.003907-.167969 0-.054687-.007813-.113281-.015626-.167968-.007812-.054688-.019531-.113282-.035156-.167969-.019531-.089844-.050781-.175781-.085937-.265625-.09375-.21875-.222657-.425782-.382813-.605469-.035156-.035156-.070312-.070313-.105468-.101563-.082032-.105468-.171876-.203124-.265626-.296874-.089843-.089844-.183593-.179688-.273437-.265626.085937-.003906.175781-.011718.265625-.023437.039062-.007813.078125-.015625.117188-.023437.039062-.011719.074218-.023438.109374-.035157.082032-.027343.160157-.066406.238282-.109375.066406-.039062.128906-.082031.1875-.128906.113281-.089844.203125-.175781.277344-.234375l.003906-.003906.007812-.003907c.042969-.042968.085938-.085937.121094-.132812.039062-.042969.074219-.085938.105469-.128906.035156-.042969.066406-.085938.09375-.125.03125-.042969.0625-.078125.097656-.113282.03125-.035156.066406-.066406.101563-.09375.039062-.03125.078124-.054687.125-.078124.050781-.023438.101562-.042969.15625-.058594.070312-.015625.136718-.027344.207031-.03125.125-.003906.246093-.007813.371093-.011719.105469-.003906.207032-.007813.3125-.019531.09375-.007813.183594-.019532.261719-.03125.078125-.015625.152344-.03125.21875-.054688.054688-.015625.109375-.039062.15625-.0625.046875-.027344.085938-.058594.125-.09375.054688-.050781.070313-.070312.101563-.109375.03125-.039062.054687-.082031.078125-.125.0625-.019531.121093-.03125.175781-.039062.054688-.007813.105469-.015625.160156-.019531.050782-.003907.097656-.007813.148438-.011719.050781-.007813.101562-.011719.15625-.023438.097656-.019531.1875-.058593.269531-.113281.03125-.019531.058594-.039062.089844-.066406.027343-.023438.058593-.050782.085937-.082032s.054688-.066406.085938-.101562c.054687-.074219.113281-.160156.175781-.261719v-.003906c.042969-.066406.070313-.148437.078125-.230469 0-.042968 0-.085937-.007812-.128906-.011719-.046875-.027344-.089844-.046876-.128906-.019531-.042969-.046874-.082032-.074218-.121094-.03125-.042969-.0625-.085938-.101563-.125-.035156-.042969-.082031-.085938-.128906-.132812-.046875-.046876-.101563-.09375-.15625-.144532-.023437-.027344-.050781-.050781-.082031-.066406-.027344-.015625-.058594-.03125-.085938-.046875.027344-.027344.054688-.054687.078125-.082031.027344-.03125.050781-.0625.070313-.09375.039062-.0625.078125-.132813.105468-.203125.03125-.074219.058594-.148438.078126-.230469.023437-.078125.039062-.160156.050781-.246094.011719-.089844.015625-.175781.015625-.265625 0-.09375-.003906-.179687-.015625-.265625-.011719-.085937-.027344-.167968-.050781-.25-.019532-.078125-.046876-.152344-.078126-.226562-.027343-.070313-.0625-.140625-.105468-.203125-.035156-.058594-.074219-.109375-.121094-.160157-.042969-.046874-.089844-.085937-.144531-.121093-.101563-.074219-.222657-.117188-.347657-.132813l.003907-.023437zm-.003906.140625h.003906c.054688 0 .109375.007812.164062.023437.050782.019531.101563.042969.152344.078125.023438.015625.046875.03125.066406.050782.023438.019531.046876.042968.066407.0625.042969.046874.082031.097656.117187.15625.035156.054687.066406.117187.097656.183593.027344.0625.050782.132813.070313.207031.019531.074219.035156.152344.042969.230469.023437.164063.023437.332031 0 .496094-.007813.078125-.023438.15625-.042969.230469-.019531.070312-.042969.140625-.070313.210937-.027343.0625-.058593.125-.097656.183594-.023437.039063-.054687.078125-.082031.117187-.03125.035157-.0625.066407-.097656.097657l-.089844.074219.109375.042968c.039062.011719.074219.027344.105469.050782.03125.019531.0625.042968.085937.070312l.007813.007812c.054687.050782.109375.097657.15625.144532s.085937.085937.121093.128906c.035157.039062.066407.074219.09375.113281.027344.035157.046876.066407.0625.101563.015626.03125.027344.0625.035157.09375.015625.089844 0 .183594-.050781.257812l-.003907.003906c-.058593.097657-.113281.179688-.167969.25-.023437.035157-.050781.066407-.074218.09375-.027344.027344-.050782.050782-.078125.070313-.023438.023437-.046875.039063-.074219.058594-.042969.03125-.09375.054687-.144531.070312-.027344.007813-.050781.015625-.074219.019531-.046875.007813-.097656.015626-.144531.019532-.050781.003906-.101563.007812-.15625.011718-.054688.003907-.109375.011719-.171875.019532-.0625.011718-.128906.027344-.199219.050781l-.03125.007813-.011719.027343c-.019531.042969-.039062.082031-.066406.117188-.023438.035156-.050781.070312-.085938.097656-.03125.03125-.066406.054687-.109374.078125-.042969.027344-.089844.046875-.140626.058594-.058593.019531-.125.035156-.199218.050781-.078125.011719-.160156.019531-.253906.03125-.089844.007813-.191407.011719-.304688.019531-.113281.003906-.234375.007813-.371094.007813h-.003906c-.039062.003906-.082031.007812-.121094.015625-.035156.007812-.074218.015625-.109375.023437-.0625.015625-.125.039063-.183593.066407-.050782.027343-.101563.058593-.144532.09375-.042968.03125-.082031.066406-.121094.105468-.035156.039063-.070312.082032-.105468.121094-.03125.042969-.0625.085938-.097656.128906-.03125.042969-.0625.085938-.097657.125-.035156.042969-.074219.082032-.113281.121094h-.003906c-.082032.066406-.167969.152344-.273438.234375-.054687.039063-.109375.078125-.175781.117187-.066406.039063-.136719.074219-.210937.101563-.042969.011719-.085938.027344-.128907.035156-.046875.011719-.09375.023438-.140625.027344-.050781.007813-.101562.015625-.15625.015625-.054687.003906-.113281.003906-.175781 0l-.191406-.007812.140625.128906c.105468.097656.214844.199218.324218.3125.054688.054687.109376.113281.164063.171875.054687.058593.105469.121093.15625.183593l.003906.003907h.003907c.066406.0625.125.132812.183593.203125.109375.140625.199219.296875.269531.460937.03125.082031.058594.160157.082032.246094.011718.050781.023437.101563.03125.152344.007812.054687.011718.105469.011718.152343.003907.050782.003907.101563-.003906.148438-.003906.046875-.011718.09375-.019531.140625v.003906c-.007813.019531-.011719.042969-.015625.066407l-.003906.003906-.007813.011718-.003906.007813c-.015625.050781-.039063.09375-.066406.140625-.027344.042969-.058594.082031-.09375.117188l-.003907.003906h-.003906c-.019531.015625-.035156.027344-.050781.039062l-.011719.011719c-.046875.054687-.097656.101563-.152344.148437-.058593.046876-.121093.089844-.1875.128907-.050781.027343-.109374.054687-.167968.078125l-.007813.003906h-.003906c-.03125.019531-.066406.039062-.101563.054688-.035156.015624-.070312.03125-.105468.042968-.050782.019532-.105469.035156-.164063.042969-.054687.011719-.117187.015625-.179687.015625-.066406 0-.132813-.003906-.207032-.011719-.078124-.011719-.160156-.027343-.234374-.042969l-.007813-.003906h-.003906c-.039063-.003906-.074219-.003906-.113281-.007812l-.003907-.003906h-.003906c-.050781 0-.101563-.003907-.152344-.011719-.09375-.015625-.183593-.050781-.269531-.097657-.039062-.019531-.078125-.046874-.117188-.074218-.035156-.03125-.070312-.0625-.105468-.097656-.03125-.03125-.0625-.070313-.09375-.105469-.027344-.039063-.054688-.082031-.078125-.121094-.027344-.042969-.050781-.085937-.070313-.132813-.039062-.074218-.070312-.15625-.09375-.238281-.027344-.082031-.046875-.164062-.0625-.25-.015625-.082031-.027344-.167969-.035156-.253906-.007812-.082031-.007812-.164063-.003906-.246094l.003906-.113281-.105469.046875c-.054687.027344-.113281.046875-.171875.0625-.0625.015625-.125.023437-.1875.027344l-.125.003906.070313.105469c.03125.042968.058593.089844.085937.140625.039063.074219.050782.101562.070313.152343.023437.054688.042969.109376.058593.164063.019532.058594.035157.113281.046876.171875.019531.085938.035156.175781.046874.261719.023438.171875.027344.34375.019532.515625-.003906.082031-.011719.160156-.023438.238281l-.003906.011719-.003906.007812c-.03125.046875-.066406.089844-.097656.128906-.03125.039063-.066407.074219-.101563.109376h-.003906l-.003907.003906c-.050781.0625-.113281.113281-.179687.15625v.003906h-.007813c-.058593.027344-.121093.050781-.183593.066406h-.003907c-.058593.019532-.121093.035156-.179687.042969-.0625.011719-.125.019531-.1875.019531-.074219.003906-.152344 0-.234375-.003906s-.164062-.007812-.242188-.015625h-.003906c-.09375-.003906-.191406-.007813-.285156-.011719-.09375 0-.1875 0-.285156.003906h-.003906c-.0625-.003906-.109376-.007812-.152344-.011718-.039063-.003906-.078125-.011719-.113282-.023438 0 0-.007812-.003906-.023437-.011718l-.015625-.007813c-.105469-.019531-.210938-.039063-.316406-.066406-.09375-.019531-.191406-.046875-.285156-.074219-.085938-.023438-.167969-.050781-.253907-.082031-.074219-.03125-.148437-.0625-.222656-.097657-.066406-.035156-.132813-.074218-.195313-.117187-.027343-.023437-.054687-.042969-.082031-.066406-.027343-.023438-.050781-.046875-.074219-.070313-.019531-.023437-.039062-.050781-.058593-.074218-.054688-.078126-.09375-.164063-.113281-.253907l-.011719-.039062-.003907-.003907-.003906-.023437v-.003906c0 .015625 0 .007812 0 0-.003906-.003907-.003906-.015625-.003906-.003907l-.066406.027344.066406-.03125c-.015625-.101562-.027344-.207031-.027344-.3125l-.003906-.125-.105469.066406c-.046875.03125-.101562.0625-.164062.089844-.058594.027344-.125.050782-.199219.074219h-.019531c-.070313-.007813-.136719-.019531-.207031-.03125-.0625-.015625-.113282-.027344-.15625-.042969-.042969-.015625-.082032-.03125-.117188-.054687-.03125-.019531-.058594-.042969-.085938-.070313-.023437-.023437-.042968-.054687-.058593-.082031-.015625-.03125-.03125-.0625-.042969-.097656-.027344-.066407-.050781-.144531-.089844-.234375v-.003906l-.003906-.003907c-.011719-.097656-.023438-.171875-.03125-.238281-.003906-.027344-.003906-.058594-.007812-.089844 0-.027344.003906-.054687.007812-.078125.003906-.015625.007812-.035156.015625-.050781.007813-.019531.019531-.039062.027344-.058594.023437-.039062.054687-.082031.085937-.128906l.039063-.058594-.042969-.027344.039062-.023437-.140624-.050781c-.0625-.023438-.125-.046875-.191407-.066406-.066406-.023438-.132812-.042969-.203125-.058594h-.003906v-.003906h-.003906c-.058594-.027344-.117188-.0625-.167969-.097657l-.050781-.035156-.042969.042969c-.042969.046875-.082031.097656-.113281.152344-.0625.097656-.097656.210937-.109375.324218-.003907.058594-.003907.121094.003906.183594.007813.050781.015625.105469.03125.160156.015625.054688.035156.113282.058594.171875v.003907c.019531.046874.046875.097656.074219.148437.027343.050781.058593.105469.089843.160156.03125.050781.0625.105469.089844.164063.03125.058594.058594.117187.085937.179687.027344.066407.050782.121094.066407.171875.019531.046875.03125.089844.035156.128906.007813.035157.007813.070313 0 .101563-.003906.035156-.015625.0625-.027344.085937-.019531.03125-.042969.058594-.070312.082032l-.015625.015625c-.011719.023437-.027344.046875-.046875.070312-.019531.027344-.039063.050781-.0625.070313-.023438.027344-.046875.050781-.074219.070312-.027344.023438-.054688.046875-.085938.070313-.035156.023437-.070312.042969-.109374.058593-.039063.015626-.085938.03125-.132813.039063h-.003906l-.003907.003906c-.054687.011719-.109374.019531-.167968.019531 0 0-.003906 0-.015625 0h-.003907c-.050781 0-.101562 0-.160156-.003906-.054687-.003906-.113281-.011718-.175781-.019531h-.011719c-.035156 0-.066406.003906-.097656.007813l-.011719.003906-.007812-.003906c-.207031-.0625-.40625-.113282-.589844-.164063-.09375-.023437-.183594-.050781-.269531-.078125-.085938-.027344-.167969-.058594-.25-.089844-.078125-.035156-.152344-.070312-.222656-.113281-.035157-.019531-.066407-.042969-.101563-.066406-.03125-.023438-.0625-.046875-.089844-.074219-.0625-.054688-.113281-.113281-.160156-.179688-.023437-.03125-.042969-.066406-.0625-.105468-.019531-.035156-.039063-.078125-.054687-.117188v-.003906c-.039063-.082031-.074219-.164062-.101563-.25-.027344-.078125-.050781-.15625-.066406-.238281-.019531-.074219-.03125-.152344-.039063-.226563-.003906-.070312-.007812-.144531-.003906-.214844.003906-.140624.023438-.277343.066406-.410156.019532-.0625.042969-.128906.066406-.191406.027344-.066406.058594-.128906.09375-.191406.035157-.0625.070313-.121094.109376-.183594.039062-.058594.082031-.117188.125-.171875.078124-.105469.164062-.207031.253906-.308594.085937-.089843.164062-.171875.226562-.230469l.03125-.03125-.046875-.132812-.019531-.011719c-.148438-.089843-.296875-.179687-.433594-.269531-.136718-.085938-.273437-.175781-.40625-.265625-.398437-.269531-.785156-.550781-1.164062-.84375-.058594-.042969-.117188-.089844-.171875-.136719h-.003907v-.003906h-.003906c-.039062-.042969-.078125-.089844-.113281-.136719-.027344-.035156-.054687-.074219-.078125-.113281-.015625-.027344-.03125-.058594-.039062-.089844-.007813-.027344-.011719-.054687-.003907-.082031 0-.011719.003907-.019531.011719-.03125.007812-.007813.015625-.019531.023438-.027344.019531-.019531.042968-.03125.058593-.035156.027344-.007813.050781-.011719.074219-.011719.027344 0 .054688 0 .082031.003906.058594.007813.117188.019532.175781.03125.121094.03125.238282.070313.355469.117188l2.105469.738281.011719-.082031c.015625-.097656.039062-.199219.070312-.300781.03125-.101563.070313-.207031.113281-.308594.042969-.109375.089844-.210937.140626-.316406.054687-.101563.109374-.207031.171874-.308594.175782-.296875.378907-.582031.597657-.84375.070312-.082031.140625-.160156.207031-.230469l.019531-.019531.007813.003906.03125-.03125c.171875-.167969.359375-.324219.5625-.457031.101562-.066406.210937-.132812.320312-.191406s.226563-.113282.347656-.167969c.125-.050781.253907-.097656.382813-.140625.136719-.042969.273437-.082031.414063-.117188.144531-.035156.296874-.066406.453124-.09375.164063-.027343.328126-.050781.492188-.066406l.003906-.003906h.003906c.328126.003906.617188.003906.886719.011719.132813.007812.265625.015625.394531.027343.128907.011719.253907.027344.382813.050782.132813.027344.265625.058594.394531.09375.066406.019531.136719.042968.207032.066406.070312.023438.140624.050781.214843.082031.074219.027344.148438.0625.226563.097657.078125.035156.15625.070312.242187.113281.179688.089843.355469.1875.53125.289062h.003907v.003907c.050781.035156.109374.074218.171874.113281.0625.042969.128907.082031.199219.125.066407.046875.140625.089843.207031.140625.070313.046875.136719.097656.199219.148437.03125.027344.0625.054688.089844.082031.03125.03125.054687.058594.082031.089844.023438.027344.046875.058594.066406.089844.019532.03125.039063.066406.050782.101562.015625.035157.027344.070313.035156.109376l.015625.089843.082031-.039062c.027344-.011719.050782-.023438.078125-.03125.027344-.007813.054688-.015625.082031-.019531.039063-.003907.074219-.003907.113282-.003907.039062 0 .078125.007813.117187.015625h.007813c.0625.023438.121094.054688.179687.089844.023438.015625.046875.03125.066407.050781.019531.015625.039062.03125.054687.050781.027344.03125.046875.070313.0625.109376.007813.019531.011719.039062.011719.058593.003906.019531.003906.035157 0 .054688 0 .023437-.007813.046875-.011719.070312-.007813.019531-.019531.042969-.03125.0625l-.050781.105469.117187-.003906c.074219 0 .152344-.007813.226563-.019532.070312-.011718.140625-.027343.203125-.050781.160156-.054687.304687-.140625.425781-.257812.03125-.027344.054688-.054688.082031-.085938.050781-.054687.097657-.117187.140625-.183593.042969-.070313.082032-.136719.117188-.210938s.066406-.152344.09375-.230469l.003906-.007812v-.003907c.050781-.300781.089844-.53125.125-.710937.015625-.089844.03125-.167969.050781-.238281.015625-.070313.035157-.128906.054688-.179688.03125-.097656.082031-.183594.144531-.265625.03125-.039062.0625-.074219.101562-.117187.039063-.039063.082032-.082032.132813-.128906l.003906-.003907h.003907v-.003906c.027343-.015625.058593-.03125.085937-.042969.023437-.011718.050781-.019531.078125-.027344.027344-.003906.058594-.003906.089844.003907.015625.003906.03125.011719.046875.019531.011719.007812.027343.015625.039062.027344.011719.007812.019531.019531.03125.035156l.066407.089844.050781-.101563c.023437-.042969.042969-.085937.070312-.125.035157-.054687.074219-.109375.117188-.152343.019531-.023438.042969-.046876.0625-.066407.023437-.015625.046875-.035156.070312-.050781.023438-.015625.050781-.03125.074219-.042969.050781-.027343.105469-.042969.160156-.050781.082032-.015625.167969-.007812.246094.015625.023438.011719.050781.019531.074219.03125.027343.015625.050781.027344.074219.042969l.046874.046875.046876-.054688c.035156-.039062.070312-.074219.105468-.101562.035156-.03125.074219-.054688.113282-.078125.039062-.019532.082031-.035156.125-.046875.042968-.011719.085937-.015625.128906-.015625zm0 .152344c-.125 0-.25.066406-.355469.191406.039063.042968.074219.089844.105469.140625.148437.242187.238281.558593.238281.910156 0 .328125-.078125.628906-.210937.863281.070312.046875.148437.070313.222656.070313.160156 0 .316406-.101563.441406-.296875.121094-.195313.203125-.476563.203125-.789063s-.082031-.59375-.203125-.789062c-.125-.199219-.28125-.300781-.441406-.300781zm-.878906.152343c-.160157 0-.316407.105469-.4375.300781-.121094.195313-.203126.476563-.203126.789063s.082032.59375.203126.789063c.121093.195312.277343.300781.4375.300781.160156 0 .316406-.105469.441406-.300781.121094-.195313.203125-.476563.203125-.789063s-.082031-.59375-.203125-.789063c-.125-.195312-.28125-.300781-.441406-.300781m-.914063.421875c-.007813 0-.015625 0-.019531 0-.023438.003906-.058594.019532-.101563.046875-.1875.179688-.265625.257813-.332031.441407-.070312.1875-.125.5-.226562 1.121093l-.007813.042969-.015625.011719c-.121094.320312-.292969.613281-.554688.820312-.257812.203125-.609374.304688-1.035156.273438-.027344.027343-.054687.050781-.082031.074219-.210937.203124-.335937.515624-.441406.898437-.0625.21875-.121094.460937-.183594.71875-.03125.148437-.070313.292969-.113281.433594.078125.023437.160156.046875.238281.0625.46875.113281.792969.09375 1.019531.015625.273438-.101563.429688-.28125.613282-.421875.136718-.132813.238281-.316407.40625-.488281.164062-.171876.398437-.320313.777343-.351563h.007813c.539062-.007813.882812-.039063 1.089844-.101563.175781-.054687.257812-.121093.3125-.242187-.652344-.082031-1.003907-.394531-1.25-.832031l.195312-.109375c.253906.449219.550781.710937 1.304688.738281v.019531c.257812-.0625.441406-.042969.570312-.070312.078125-.015625.144531-.039063.226562-.109375.078126-.070313.175782-.191406.289063-.382813v-.003906l.003906-.003906c.046875-.070313.054688-.101563.007813-.199219-.050782-.09375-.175782-.242188-.410156-.449219l-.003907-.003906-.003906-.007813c-.050781-.058593-.191406-.101562-.351563-.128906-.042968.007813-.089843.015625-.136718.015625-.125 0-.238282-.042969-.34375-.109375l-.027344.015625c-.136719.148438-.3125.246094-.507812.246094-.253907 0-.476563-.164063-.628907-.402344-.148437-.242187-.234375-.558593-.234375-.910156 0-.160156.015625-.308594.050782-.453125-.003907-.019531-.007813-.039062-.015626-.058594-.023437-.097656-.058593-.144531-.074218-.152344 0-.003906-.007813-.003906-.011719-.003906zm2.101563.144532c.164062 0 .292968.210937.292968.472656 0 .261718-.128906.476562-.292968.476562-.160157 0-.292969-.210937-.292969-.476562 0-.125.03125-.246094.085937-.335938.054688-.085937.128906-.136718.207032-.136718m-9.699219.132812c-1.375.152344-2.265625.558594-2.929688 1.238281l-.019531.015625c-.550781.585938-1.195312 1.632813-1.257812 2.34375.546874.140625.921874.269532 1.273437.445313.160156.058593.269531.128906.363281.207031.234375.140625.480469.3125.789063.539062.652343.351563 1.15625.332032 1.648437.21875.496094-.113281.96875-.335937 1.515625-.371093h.011719c.136719.007812.203125.003906.253906.003906.054688-.003906.101563-.003906.160156.007813.117188.027343.28125.089843.859376.285156l.011718.003906.007813.007812c.140625.082032.238281.078126.335937.027344.101563-.046875.207032-.164062.300782-.328125.1875-.332031.332031-.839843.425781-1.300781l.003906-.007812v-.003907c.164063-.53125.308594-.972656.503906-1.285156.050781-.085937.113281-.160156.179688-.230469.003906-.0625-.003907-.128906-.03125-.1875-.042969-.101562-.132813-.207031-.246094-.304687-.226563-.191407-.542969-.351563-.757813-.515625h-.003906c-1.503906-.871094-2.074218-.796875-3.398437-.808594m8.777343.054688c.175782 0 .320313.222656.320313.496093 0 .273438-.144531.496094-.320313.496094-.179687 0-.324218-.222656-.324218-.496094 0-.273437.144531-.496093.324218-.496093m-9.464843 1.132812c.144531 0 .292969.015625.441406.050781.152344.035157.316406.09375.492187.179688v.398437h-.03125c-.035156-.027344-.085937-.0625-.15625-.105468-.0625-.042969-.128906-.078126-.195312-.113282-.085938-.035156-.175781-.066406-.269531-.085937-.101563-.023438-.210938-.035157-.339844-.035157-.285156 0-.507813.089844-.675781.273438-.164063.183594-.25.429688-.25.742188 0 .332031.089844.585937.261718.769531.171876.183593.410157.273437.707032.273437.109375 0 .21875-.007812.328125-.03125.109375-.019531.203125-.050781.285156-.082031v-.625h-.679687v-.296875h1.015624v1.089844c-.140624.066406-.289062.121094-.457031.167968-.152343.046876-.316406.070313-.476562.070313-.199219 0-.378907-.027344-.546875-.082031-.164063-.054688-.304688-.136719-.421875-.246094-.117188-.109375-.207031-.246094-.269531-.414062-.066407-.164063-.097657-.359376-.097657-.582032 0-.40625.121094-.726562.355469-.960937.238281-.238281.566406-.355469.980469-.355469m1.484375.027344h.363281v.335937h-.363281zm.980468.105468h.320313v.550782h.664063v.269531h-.664063v.871094c0 .097656 0 .175781.007813.234375.003906.054687.019531.109375.046874.15625.023438.046875.058594.082031.101563.101562.046875.019532.113281.03125.203125.03125.050781 0 .105469-.007812.164062-.023437.054688-.015625.097657-.027344.121094-.039063h.019532v.289063c-.0625.015625-.128907.03125-.199219.039062-.0625.011719-.125.015625-.191407.015625-.195312 0-.339843-.050781-.441406-.15625-.101562-.105468-.152344-.273437-.152344-.503906v-1.015625h-.21875v-.269531h.21875zm3.121094.511719c-.0625 0-.128906.019531-.183594.050781-.09375.050782-.183593.144532-.265624.28125-.171876.273438-.320313.707032-.480469 1.234376-.097657.46875-.238281.984374-.449219 1.355468-.109375.1875-.234375.339844-.394531.421875-.160157.078125-.351563.074219-.539063-.03125-.570312-.191406-.75-.261719-.828125-.277343-.035156-.007813-.050781-.007813-.101562-.003907-.046875 0-.128907 0-.261719-.003906-.488281.03125-.953125.246094-1.476562.367187-.523438.121094-1.109376.136719-1.808594-.242187l-.007813-.003906-.003906-.003907c-1-.730468-1.304687-.898437-2.492187-1.195312-.039063-.011719-.15625-.019531-.269532-.003906-.109375.019531-.21875.058594-.273437.109375-.054688.050781-.078125.097656-.023438.222656.050781.121094.191407.300781.453125.527344.363282-.019531.648438.066406.867188.144531l.015625.007812c.339843.199219.554687.34375.703125.484376.105468.097656.191406.21875.25.351562.082031.066406.167968.125.253906.164062.695312.179688 1.117188.519532 1.859375.546876.019531-.007813.039063-.015626.0625-.023438.082031-.085938.179687-.160156.292969-.222656l.015625-.007813c.375-.144531.953125-.199219 1.511719-.175781.53125.027344 1.035156.121094 1.328124.347656.054688.015625.113282.027344.167969.042969.289063.003906.476563-.082031.6875-.328125.097657-.117188.199219-.273438.304688-.464844l.011719-.027344c.074218-.167968.144531-.339843.234374-.488281.019532-.035156.042969-.066406.066407-.097656.027343-.066406.058593-.125.089843-.195313.078126-.242187.140626-.476562.195313-.699218.042969-.21875.074219-.429688.121094-.636719.09375-.398437.25-.773437.632812-1.054687.078125-.082032.132813-.160157.136719-.214844.003906-.035156 0-.0625-.039062-.105469-.035157-.042969-.113282-.09375-.230469-.144531-.042969-.007813-.085938-.011719-.132813-.007813zm-2.3125 3.3125.011719.003907-.023437-.011719zm-1.765625-3.277343h.320313v1.910156h-.320313zm-7.871093.917968c-.015626 0-.023438 0-.03125.003906 0 .007813-.003907.007813.015624.042969.03125.046875.085938.121094.167969.214844.011719.007813.800781.632813 1.785157 1.257813-.019532-.035157-.039063-.070313-.054688-.109376-.078125-.1875-.03125-.367187.078125-.46875.105469-.101562.25-.144531.386719-.167968l-1.808594-.632813h-.003906s-.304688-.121093-.492188-.140625c-.015625 0-.03125 0-.042968 0m2.714843 2.078125c-.082031-.003906-.167969 0-.253906.007813-.058594.058594-.164063.15625-.3125.316406-.160156.175781-.339844.402344-.464844.632812h-.003906c-.253906.472657-.3125.933594-.007813 1.589844v.003906l.003907.003907c.066406.183593.175781.3125.316406.410156.175781-.675781.445313-1.039063.804687-1.199219.1875-.082031.390626-.109375.609376-.105468.167968 0 .351562.023437.535156.046874-.003906-.015624-.003906-.035156-.007813-.054687-.03125-.277344.0625-.527344.253907-.75-.054688-.125-.101563-.222656-.214844-.332031-.121094-.117188-.324219-.253906-.648438-.445313-.171875-.0625-.367187-.117187-.609375-.125zm8.808594.011719c-.050781.023438-.105469.066406-.160156.136719-.105469.226562-.207031.429687-.300781.601562-.066407.152344-.136719.304688-.21875.4375-.066407.105469-.160157.195313-.269532.257813-.03125.324218.019532.726562.167969 1.039062.113281.238282.269531.421875.484375.503906-.191406-.5-.046875-.984374.222656-1.367187v-.003906l.007813-.003907c.023437-.035156.050781-.070312.078125-.105468.300781-.375.699218-.648438 1.011718-.773438-.179687-.195312-.367187-.375-.539062-.53125-.089844-.078125-.144531-.121094-.1875-.144531-.054688-.011719-.105469-.023437-.160156-.039063-.042969-.003906-.089844-.003906-.136719-.007812zm1.175781.914062c-.132812.046876-.3125.136719-.496094.265626.234376.199218.707032.554687.925782 1.316406.035156-.046875.066406-.097656.101562-.148438.003906-.007812.007813-.019531.007813-.03125.085937-.359375-.054688-.742187-.300781-1.109375-.054688-.078125-.109376-.152343-.167969-.222656-.023438-.023437-.046875-.046875-.070313-.070313m-4.535156.335938c-.464844-.003906-.929688.058594-1.214844.164062-.269531.152344-.425781.378907-.503906.632813-.070312.234375-.070312.488281-.039062.695313l.007812.066406c.019531.214844.167969.382812.460938.53125.199218.097656.464843.183594.777343.253906v-.007812c.261719-.652344.605469-1.074219 1-1.328126.367188-.238281.773438-.335937 1.1875-.367187-.066406-.125-.148437-.234375-.242187-.3125h-.003906c-.195313-.171875-.699219-.296875-1.230469-.320313-.066407-.003906-.132813-.007812-.199219-.007812zm3.859375.070312c-.109375.089844-.210937.191407-.300781.300782l.003906.003906c.074219.050781.171875.132812.277344.246094.203125.222656.425781.578125.53125 1.089844l.015625-.007813c.117187-.066406.246093-.164063.394531-.273437-.191406-.820313-.664062-1.128907-.921875-1.359376m-6.796875.054688c-.074219.101562-.121094.171875-.128906.230469-.011719.0625.003906.164062.03125.347656.074218.175781.105468.292969.160156.355469.050781.058594.164062.105468.445312.144531.214844-.070313.355469-.15625.445313-.246094.011719-.078125.03125-.152343.054687-.226562.03125-.101563.074219-.203125.128907-.296875-.355469-.027344-.636719-.109375-.832031-.1875-.109376-.042969-.199219-.082032-.257813-.105469-.042969-.015625-.042969-.011719-.046875-.015625m6.363281.425781c-.230469.347657-.324219.753907-.117187 1.1875.074218.023438.140625.039063.203125.054688.257812.015625.46875.003906.640625-.027344-.09375-.476563-.296875-.792969-.476563-.992187-.074219-.082032-.15625-.15625-.242187-.21875-.003906 0-.003906-.003907-.007813-.003907m-8.183593.070313c-.066407 0-.132813.003906-.195313.011718.085937.132813.175781.28125.234375.484376.070312.25.089844.578124.007812 1.054687.003907 0 .011719.003906.019532.003906.015625 0 .03125.003907.046875.003907.089843 0 .171875.007812.242187.015624.027344-.003906.054688-.003906.082032-.003906.109374-.734375-.089844-1.132812-.320313-1.5625-.039063-.003906-.078125-.003906-.117187-.007812zm.382812.03125c.199219.386718.363281.820312.289062 1.472656.035157-.03125.070313-.0625.101563-.097656h.003906v-.003906c.085938-.097657.164063-.15625.214844-.199219.007813-.019531.015625-.042969.019531-.066407.027344-.101562.003906-.214843-.042968-.335937-.171876-.273437-.296876-.515625-.371094-.742187-.074219-.007813-.144532-.015626-.214844-.027344m-.8125.023437c-.03125.011719-.0625.019531-.089844.035157-.285156.125-.511718.421874-.679687 1.070312.394531.167969.738281.285156 1.027343.347656.074219-.449218.054688-.738281-.003906-.949218-.058594-.203126-.152344-.34375-.253906-.503907m6.945312.183594c-.210937.015625-.417968.042969-.613281.097656.269531.257813.546875.570313.609375 1.214844.140625-.199219.167969-.464844.144532-.710937-.015626-.152344-.050782-.300782-.101563-.441407-.015625-.046875-.035156-.089843-.0625-.128906-.003906-.007813-.007813-.015625-.015625-.023437 0 0 .003906.011718.039062.015624zm-.851562.179687c-.101562.042969-.199219.09375-.296875.15625-.03125.019532-.0625.042969-.09375.066407.28125.1875.558594.570312.664063 1.183593.105468-.007812.207031-.023437.296874-.050781.023438-.011719.046876-.023437.066407-.035156-.027344-.789063-.3125-1.023437-.636719-1.320313zm4.429688.183594-.003907.003906v.003907l-.003906.003906v.003906zm-5 .195313c-.226563.21875-.429688.523437-.601563.9375.015625.015625.035156.035156.054687.050781.058594.007812.117188.019531.179688.03125.179688-.011719.347656-.003906.511719.007812.164062.003907.324219.007813.472656.007813-.109375-.589844-.390625-.910156-.617187-1.035156m4.742187.160156-.007813.003906v.003907h-.003906zm-8.617187.441406-.003907.003907v.003906l-.007812.007812zm0 0"/></svg>