<svg height="18" viewBox="0 0 18 18" width="18" xmlns="http://www.w3.org/2000/svg"><g fill="none" stroke="#fff" stroke-linecap="round" stroke-linejoin="round" stroke-width="2" transform="scale(.75)"><path d="m10 11 11 .901042c.515625.098958.864583.578125.802083 1.098958l-.666666 4.15625c-.078125.489583-.494792.84375-.989584.84375h-.145833m-4 0h-5"/><path d="m18 5c-.552083 0-1 .447917-1 1v5.572917m-14-7.572917h8.130208c.5 0 .921875.369792.989584.864583l.880208 6.380209m-9-.244792v-7m3 11h.010417m.989583-4.901042v-6.098958"/><path d="m20 18c0 1.104167-.895833 2-2 2s-2-.895833-2-2 .895833-2 2-2 2 .895833 2 2zm0 0"/><path d="m12 15c0 2.760417-2.239583 5-5 5s-5-2.239583-5-5 2.239583-5 5-5 5 2.239583 5 5zm0 0"/></g></svg>