<svg height="18" viewBox="0 0 18 18" width="18" xmlns="http://www.w3.org/2000/svg"><path d="m9 .898438c.816406 0 1.542969.574218 1.542969 1.285156 0 .707031-.691407 1.285156-1.542969 1.285156-.097656 0-.222656-.015625-.382812-.046875-.121094-.027344-.246094-.007813-.355469.054687l-5.527344 3.144532c-.082031.046875-.128906.132812-.128906.226562 0 .089844.046875.175782.128906.222656l5.992187 3.363282c.15625.085937.347657.089844.503907 0l6.023437-3.347656c.082032-.046876.132813-.128907.132813-.222657s-.046875-.179687-.128907-.226562l-1.882812-1.066407c-.152344-.089843-.34375-.089843-.5-.003906l-1.984375 1.101563c-.050781.027343-.085937.078125-.089844.132812v.019531c0 .710938-.691406 1.285157-1.542969 1.285157-.851562 0-1.542968-.574219-1.542968-1.285157 0-.707031.691406-1.285156 1.542968-1.285156.03125 0 .066407.003906.109376.007813l.0625.003906.074218.011719c.109375.011718.21875-.007813.316406-.0625l2.9375-1.625c.222657-.125.492188-.128906.722657-.015625l.03125.015625 4.097656 2.328125c.515625.292969.519531 1.027343.023437 1.328125l-.027343.015625-2.742188 1.523437c-.085937.046875-.136719.136719-.132812.230469 0 .09375.054687.179687.136719.222656l2.714843 1.429688c.539063.28125.550781 1.050781.023438 1.351562l-8.246094 4.699219c-.238281.136719-.527344.136719-.765625 0l-8.199219-4.679688c-.53125-.300781-.515625-1.070312.023438-1.351562l2.746093-1.433594c.085938-.042968.136719-.128906.140626-.222656 0-.097656-.050782-.183594-.132813-.230469l-2.777344-1.558593c-.515625-.289063-.527343-1.019532-.03125-1.328126l.027344-.015624 6.824219-3.878907c.105468-.0625.1875-.160156.230468-.277343l.007813-.027344c.238281-.714844.785156-1.097656 1.546875-1.097656zm3.808594 9.464843-3.371094 1.9375-.03125.019531c-.230469.117188-.503906.113282-.726562-.015624l-3.359376-1.894532c-.152343-.082031-.335937-.085937-.488281-.003906l-1.9375 1.011719c-.082031.042969-.136719.128906-.136719.222656-.003906.09375.046876.179687.128907.226563l5.914062 3.386718c.160157.089844.351563.089844.507813 0l5.96875-3.410156c.078125-.046875.128906-.132812.128906-.226562-.003906-.09375-.054688-.179688-.136719-.222657l-1.96875-1.039062c-.15625-.082031-.339843-.078125-.492187.007812zm0 0" fill="#24a1c1"/></svg>