<svg height="18" viewBox="0 0 18 18" width="18" xmlns="http://www.w3.org/2000/svg"><path d="m9 .890625c-.78125 0-1.359375.40625-1.605469 1.136719l-.007812.027344c-.035157.097656-.105469.183593-.195313.234374l-6.769531 3.851563-.03125.015625c-.53125.332031-.519531 1.128906.035156 1.441406l2.757813 1.546875c.058594.03125.09375.09375.09375.164063 0 .066406-.039063.128906-.101563.15625l-2.722656 1.421875c-.582031.304687-.601563 1.144531-.027344 1.46875l8.136719 4.644531c.257812.148438.570312.148438.828125 0l8.183594-4.664062c.570312-.324219.558593-1.160157-.023438-1.464844l-2.695312-1.417969c-.058594-.03125-.097657-.09375-.097657-.160156 0-.066407.035157-.128907.09375-.160157l2.722657-1.515624.027343-.015626c.539063-.328124.53125-1.128906-.023437-1.441406l-4.066406-2.3125-.035157-.015625c-.246093-.125-.542968-.121093-.785156.015625l-2.910156 1.613282c-.082031.046874-.179688.0625-.273438.050781l-.070312-.007813-.066406-.007812h-.003906c-.035157-.003906-.074219-.003906-.113282-.003906-.875 0-1.601562.59375-1.601562 1.347656 0 .75.726562 1.347656 1.601562 1.347656.878906 0 1.605469-.597656 1.605469-1.347656v-.011719c.003906-.03125.023437-.0625.050781-.078125l1.96875-1.09375c.132813-.070312.296875-.070312.425782.003906l1.867187 1.058594c.058594.03125.097656.09375.097656.160156-.003906.066406-.039062.128906-.097656.15625l-5.980469 3.324219c-.132812.074219-.292968.074219-.425781 0l-5.945313-3.339844c-.058593-.03125-.09375-.089843-.097656-.15625 0-.066406.039063-.128906.097656-.160156l5.484376-3.121094c.089843-.050781.199218-.066406.304687-.046875.15625.03125.285156.050782.390625.050782.878906 0 1.601562-.597657 1.601562-1.347657 0-.753906-.757812-1.347656-1.601562-1.347656zm0 .144531c.777344 0 1.457031.546875 1.457031 1.203125s-.644531 1.199219-1.457031 1.199219c-.089844 0-.210938-.011719-.363281-.042969-.136719-.03125-.28125-.007812-.40625.0625l-5.484375 3.121094c-.21875.125-.214844.445313.003906.570313l5.945312 3.335937c.175782.101563.390626.101563.566407.003906l5.980469-3.324219c.21875-.121093.222656-.445312 0-.570312l-1.863282-1.058594c-.175781-.101562-.394531-.101562-.570312-.003906l-1.96875 1.09375c-.070313.039062-.117188.105469-.125.1875v.003906l-.003906.019532v.003906c0 .65625-.644532 1.203125-1.457032 1.203125-.808594 0-1.457031-.546875-1.457031-1.203125s.644531-1.203125 1.457031-1.203125c.027344 0 .0625 0 .105469.003906l.058594.007813.070312.007812c.125.015625.253907-.007812.363281-.066406l2.910157-1.617188c.203125-.109375.445312-.117187.652343-.011718l.027344.015624 4.066406 2.308594c.464844.261719.46875.917969.019532 1.191406l-.027344.015626-2.71875 1.511718c-.105469.058594-.171875.171875-.167969.289063v.003906c0 .117187.066407.226563.175781.285156l2.691407 1.414063c.488281.257812.5.945312.023437 1.214844l-8.183594 4.664062c-.214843.121094-.472656.121094-.6875 0l-8.136718-4.644531c-.4765628-.273438-.464844-.960938.023437-1.214844l2.726563-1.421875c.226562-.117188.230468-.449219.007812-.574219l-2.757812-1.546875c-.464844-.261718-.4726565-.914062-.027344-1.191406l.027344-.015625 6.769531-3.851563c.121094-.066406.210937-.179687.257813-.3125h.003906l.007812-.027343c.230469-.683594.734375-1.039063 1.464844-1.039063zm4.019531 9.179688c-.097656 0-.195312.027344-.277343.078125l-.238282.132812-3.105468 1.789063-.027344.015625c-.207032.105469-.453125.101562-.65625-.015625l-3.332032-1.878906c-.171874-.09375-.378906-.097657-.554687-.007813l-1.917969 1.003906c-.226562.121094-.234375.449219-.011718.574219l5.867187 3.359375c.179687.101563.398437.101563.578125 0l5.917969-3.382813c.105469-.058593.167969-.167968.167969-.289062-.003907-.117188-.070313-.226562-.175782-.285156l-1.953125-1.027344c-.085937-.046875-.183593-.070312-.28125-.066406zm.003907.144531c.074218 0 .144531.015625.210937.050781l1.953125 1.027344c.058594.03125.09375.09375.097656.160156 0 .066406-.035156.128906-.09375.160156l-5.917968 3.382813c-.136719.078125-.300782.078125-.433594 0l-5.871094-3.359375c-.058594-.03125-.09375-.09375-.09375-.160156s.039062-.128906.101562-.160156l1.921876-1.003907c.128906-.066406.285156-.066406.414062.007813l3.332031 1.878906c.246094.136719.542969.140625.792969.015625l.03125-.019531 3.34375-1.921875c.066406-.039063.136719-.058594.210938-.058594zm0 0" fill="#24a1c1"/></svg>