<svg height="18" viewBox="0 0 18 18" width="18" xmlns="http://www.w3.org/2000/svg"><path d="m6.492188 3.570312.027343.015626 2.207031 1.242187c.148438.085937.335938.085937.484376 0l2.1875-1.230469c.355468-.207031.808593-.089844 1.019531.261719.207031.355469.089843.808594-.265625 1.015625l-.023438.015625-1.261718.710937c-.078126.046876-.128907.128907-.128907.21875 0 .089844.050781.171876.128907.214844l3.410156 1.921875c.152344.085938.335937.085938.484375 0l2.109375-1.1875c.351562-.1875.789062-.066406.992187.277344s.097657.785156-.234375 1l-.027344.015625-1.1875.667969c-.078124.046875-.125.128906-.125.214843 0 .089844.046876.171876.125.21875l1.195313.671876c.359375.195312.496094.644531.300781 1.007812-.191406.359375-.644531.496094-1.003906.300781l-.027344-.015625-2.117187-1.191406c-.148438-.085938-.332031-.085938-.484375 0l-3.449219 1.945312c-.078125.042969-.125.125-.125.214844s.046875.171875.125.214844l1.425781.804688c.347656.199218.476563.640624.285156.996093-.191406.355469-.628906.492188-.988281.3125l-.027343-.015625-2.347657-1.324218c-.152343-.085938-.335937-.085938-.484375 0l-2.371094 1.335937c-.351562.1875-.789062.066406-.992187-.277344s-.097656-.785156.238281-1l.027344-.015625 1.445312-.816406c.078126-.042969.125-.125.125-.214844s-.050781-.171875-.125-.214844l-3.421874-1.929687c-.148438-.082031-.335938-.082031-.484376 0l-2.011718 1.132813c-.171875.101562-.375.128906-.566406.082031-.1875-.050781-.351563-.175781-.453126-.34375-.207031-.355469-.0898432-.808594.265626-1.015625l.023437-.015625 1.089844-.613281c.078125-.042969.125-.125.125-.214844s-.046875-.171875-.125-.214844l-1.085938-.613281c-.3515622-.199219-.4804685-.644531-.289062-1 .191406-.355469.632812-.492188.992187-.308594l.023438.015625 2.011718 1.132812c.152344.085938.335938.085938.488282 0l3.449218-1.941406c.078126-.046875.128907-.128906.128907-.21875s-.050781-.171875-.125-.214844l-1.285157-.722656c-.359374-.195312-.492187-.644531-.296874-1.003906.191406-.359375.640624-.496094 1-.304688zm2.234374 3.238282-3.453124 1.941406c-.078126.042969-.128907.125-.128907.214844s.050781.171875.128907.214844l3.417968 1.925781c.148438.085937.332032.085937.484375 0l3.449219-1.941407c.078125-.046874.125-.128906.125-.21875 0-.085937-.046875-.167968-.125-.214843l-3.414062-1.921875c-.152344-.085938-.335938-.085938-.484376 0zm0 0" fill="#9d0fb0"/></svg>