<svg height="18" viewBox="0 0 18 18" width="18" xmlns="http://www.w3.org/2000/svg"><g fill="none" stroke="#fff" stroke-linecap="round" stroke-linejoin="round" stroke-width="2" transform="scale(.75)"><path d="m2 22v-10c0-5.520833 4.479167-10 10-10s10 4.479167 10 10v10"/><path d="m15 6.802083v1.395834c0 1.546875-1.34375 2.802083-3 2.802083s-3-1.255208-3-2.802083v-1.395834m1 8.197917h.010417m3.989583 0h.010417"/><path d="m10 19c-2.208333 0-4-1.791667-4-4v-3c0-3.3125 2.6875-6 6-6s6 2.6875 6 6v3c0 2.208333-1.791667 4-4 4zm-1 0-2 3m8-3 2 3"/></g></svg>