<svg height="18" viewBox="0 0 18 18" width="18" xmlns="http://www.w3.org/2000/svg"><path d="m9.683594.0703125c-1.53125 0-3.003906.5039065-4.253906 1.4531255-1.207032.914062-2.121094 2.226562-2.660157 3.703124-.1875.070313-.371093.144532-.554687.230469-.226563.109375-.449219.230469-.660156.394531l-.042969.035157-.019531.0625h.003906c-.023438.074219-.035156.136719-.050782.203125-.011718.066406-.023437.128906-.03125.195312-.019531.132813-.03125.261719-.039062.394532-.011719.261718-.003906.527343.023438.789062.027343.261719.078124.519531.148437.777344.035156.128906.078125.253906.125.378906.027344.0625.054687.125.082031.1875l.046875.09375.027344.046875c.007813.015625.015625.03125.03125.054687l.03125.046876.050781.027343c.042969.023438.082032.039063.121094.058594l.117188.050781.015624.007813c-.519531.488281-1.078124 1.109375-1.566406 1.878906l-.628906.988281.0507812.046875.8828128-.773437c.003906-.003906.195312-.167969.535156-.421875.328125-.242188.8125-.574219 1.402344-.921875l.007812.0625c-.085937.042968-.175781.089844-.257812.136718-.125.070313-.25.144532-.3125.195313-.101563.085937-.15625.199219-.175782.34375-.019531.144531-.011718.320313.015626.550781.027343.238282.113281.695313.234374 1.117188.101563.363281.191407.578125.273438.707031.085938.132813.164062.179687.238281.195313.066407.015624.144531.023437.230469.023437.230469 0 .515625-.046875.714844-.101563.214844.667969.53125 1.300782.929687 1.878907h-.003906c-.25-.113281-1.070313-.496094-1.351563-.621094l-.699218-.3125.414062.640625c.023438.039062.628906.980469 1.121094 1.617188.464844.59375 1.109375 1.207031 2.308594 1.207031.152344 0 .300781-.007813.453125-.023438.351562-.042969.613281-.074219.816406-.097656 1.253906.457031 2.636719.484375 3.945313-.011719.34375-.128906.671874-.292968.984374-.484375l.011719-.003906c.488281-.117187 1.039063-.246094 1.3125-.324219.042969-.011718.097657-.023437.152344-.039062.378906-.085938 1.03125-.238282 1.375-.929688.1875-.375.382813-.746094.578125-1.117187.074219-.148438.152344-.292969.226562-.4375l.070313-.132813.019531-.035156.007813-.011719.304687-.578125-.597656.261719c-.011719.003906-.179688.078125-.386719.171875-.1875.085938-.402343.1875-.570312.273438.234375-.492188.363281-.886719.410156-1.054688.195313.039062.449219.035156.644531.035156.09375 0 .183594-.011718.277344-.035156.070312-.015625.144531-.058594.210938-.183594.070312-.121094.144531-.332031.238281-.707031.113281-.433594.195312-.902344.214843-1.148437.023438-.238282.03125-.417969.007813-.566407-.023437-.148437-.078125-.261719-.183594-.347656-.050781-.042969-.144531-.097656-.246093-.15625-.074219-.042969-.144532-.082031-.21875-.121094l.039062.011719.03125.007812.132812-.507812c.042969-.019531.085938-.035156.132813-.054688.078125-.03125.160156-.0625.238281-.09375v-.003906l.117188-.050781c.039062-.019531.078125-.035156.121094-.058594l.050781-.027343.03125-.046876c.011719-.023437.023437-.039062.03125-.054687l.023437-.046875c.019532-.03125.035156-.0625.050782-.09375.027343-.0625.054687-.125.078124-.1875.050782-.125.09375-.25.128907-.378906.070312-.253906.117187-.515625.144531-.777344.03125-.261719.039062-.527344.023438-.789062-.003907-.132813-.019532-.261719-.035157-.394532-.007812-.066406-.019531-.128906-.035156-.195312-.011719-.066406-.023437-.128906-.046875-.203125l-.015625-.058594-.046875-.039063c-.207031-.164062-.429688-.285156-.660156-.394531-.179688-.085937-.363282-.160156-.554688-.230469-.535156-1.476562-1.449218-2.789062-2.65625-3.703124-1.25-.949219-2.722656-1.4531255-4.257812-1.4531255m0 .0703125c1.519531 0 2.976562.496094 4.214844 1.4375 1.199218.910156 2.109374 2.214844 2.640624 3.6875l.007813.015625.015625.003906c.1875.070313.375.148438.5625.234375.222656.109375.441406.230469.644531.390625l.027344.019532.011719.039062c.019531.070312.03125.132812.046875.195312.011719.066407.023437.128907.03125.195313.019531.128906.03125.257813.035156.386719.015625.257812.007813.519531-.019531.777344-.03125.257812-.078125.515624-.144532.765624-.035156.125-.078124.25-.125.375-.023437.058594-.050781.121094-.078124.183594-.015626.027344-.03125.058594-.046876.089844l-.027343.042969c-.007813.019531-.019531.035156-.027344.050781l-.023437.03125-.03125.019531c-.046876.023438-.082032.039063-.121094.058594l-.117188.050781c-.074218.03125-.152344.066406-.230468.09375-.054688.023438-.105469.042969-.152344.0625l-.015625.007813-.125.472656c-.015625-.003906-.027344-.007813-.082031-.019531l-.035157-.007813-.015625.113281.019532.011719c.074218.035157.179687.09375.277343.148438.097657.058593.195313.117187.238281.152343.089844.074219.136719.167969.15625.304688.023438.132812.015626.3125-.007812.546875-.019531.238281-.101562.710937-.210938 1.140625-.097656.371094-.167968.578125-.234374.691406-.0625.113282-.105469.132813-.167969.148438-.085938.019531-.171875.03125-.261719.035156-.203125 0-.476562.003906-.65625-.039062l-.03125-.007813-.011719.03125c-.046875.167969-.183593.609375-.449219 1.15625l-.046874.089844.09375-.042969c.011718-.003906.023437-.011719.039062-.019531.164062-.085938.40625-.199219.613281-.292969.203125-.09375.367188-.164062.382813-.171875l.414062-.179687-.210937.398437c0 .003906-.003907.007813-.007813.015625l-.019531.035156-.066406.128906c-.078125.148438-.15625.292969-.230469.4375-.195312.371094-.390625.746094-.578125 1.121094-.332031.664063-.949219.804688-1.328125.894532-.054688.011718-.109375.023437-.15625.035156v.003906c-.269531.074219-.820312.207031-1.308594.324219-.003906 0-.007812 0-.015625 0l-.003906.003906-.007813.003906c-.308593.191407-.636718.351563-.976562.480469-1.296875.492188-2.667969.464844-3.90625.007812l-.007812-.003906-.007813.003906c-.203125.023438-.46875.058594-.824219.097657-.148437.015625-.296875.023437-.445312.027343-1.175782 0-1.792969-.59375-2.25-1.183593-.492188-.632813-1.09375-1.566407-1.121094-1.609375l-.285156-.445313.484375.214844c.28125.128906 1.121093.515625 1.363281.628906l.011719.003907.011719-.003907.058593-.015625.046875-.011718-.027344-.042969c-.398437-.566407-.726562-1.210938-.957031-1.929688l-.011719-.03125-.03125.007813c-.191406.058594-.496093.105468-.726562.105468-.082031 0-.160156-.007812-.214844-.019531-.058594-.015625-.117187-.046875-.195312-.164062-.074219-.121094-.164063-.332031-.265625-.691407-.117188-.414062-.207031-.871093-.230469-1.105468-.027344-.226563-.035156-.402344-.015625-.535156.015625-.132813.0625-.222657.152344-.296876.050781-.042968.175781-.121093.296875-.1875.121094-.066406.238281-.128906.277344-.148437l.023437-.011719-.027344-.21875-.046875.027344c-.5.292969-.984375.613281-1.453125.957031-.339843.253907-.527343.414063-.539062.421875l-.695313.613282.496094-.785157c.496094-.78125 1.066406-1.414062 1.59375-1.898437l.039062-.039063-.050781-.019531c-.019531-.011719-.039062-.019531-.0625-.027344l-.113281-.050781c-.042969-.019531-.082031-.039063-.121094-.058594l-.03125-.019531-.023437-.03125c-.011719-.023438-.019531-.03125-.027344-.050781h-.003906l-.023438-.042969c-.015625-.03125-.03125-.0625-.046875-.089844-.027344-.0625-.054687-.121094-.078125-.183594-.046875-.125-.089843-.25-.125-.375-.066406-.25-.117187-.507812-.144531-.765624-.027344-.257813-.035156-.519532-.023438-.777344.007813-.128906.019532-.257813.039063-.386719.007813-.066406.019531-.128906.03125-.195313.011719-.0625.027344-.125.046875-.195312l.007812-.039062.03125-.019532c.199219-.160156.421876-.28125.644532-.390625.183594-.085937.371094-.164062.5625-.230469l.015625-.007812.007812-.015625c.527344-1.472656 1.441407-2.777344 2.640625-3.6875 1.238282-.941406 2.695313-1.4375 4.210938-1.4375m0 .265625c-2.851563 0-5.457032 1.859375-6.550782 4.710938l-.023437.066406.066406-.019532c.152344-.046874.304688-.09375.460938-.132812.082031-.019531.164062-.035156.246093-.054688-.078124.03125-.15625.0625-.234374.09375-.226563.089844-.449219.183594-.671876.285157-.21875.101562-.4375.210937-.644531.332031-.191406.109375-.375.230469-.539062.367188l-.007813.007812-.003906.015625c-.007812.042969-.011719.085937-.019531.128906-.003907.058594-.011719.121094-.019531.179688-.007813.125-.011719.246093-.015626.367187 0 .246094.015626.488282.046876.734375.035156.242188.078124.484375.144531.714844.03125.117187.070312.234375.113281.347656.03125.082031.066406.164063.105469.242188l.019531.039062.011719.003907c.019531.011718.035156.019531.054687.027343l.109375.054688c.058594.027343.140625.066406.210938.097656l.019531.007813.015625-.011719c.007813-.003907.011719-.011719.015625-.015625l.015625-.011719-.195313-.75c.058594-.015625.40625-.105469 1.039063-.226563v-.066406c-.050781-.011718-.105469-.023437-.15625-.035156-.148437-.035156-.292969-.082031-.433594-.140625-.070312-.027344-.136719-.058594-.203125-.097656-.023437-.011719-.042968-.03125-.066406-.046875.363281.089844.84375.125 1.40625.109375.628906-.011719 1.335938-.074219 1.996094-.144531 1.210937-.121094 2.421875-.203126 3.640625-.207032 1.21875.003906 2.429687.082032 3.640625.207032.660156.070312 1.367187.132812 1.996094.144531.5625.015625 1.042968-.019531 1.40625-.109375-.023438.015625-.042969.035156-.066407.046875-.0625.039062-.132812.070312-.203125.097656-.140625.058594-.285156.105469-.433594.140625-.023437.003906-.042968.011719-.066406.015625v.066406c.699219.128907 1.085938.230469 1.148438.246094l-.203125.761719.066406-.027344c.039063-.019531.078125-.035156.117187-.050781l.109376-.054688c.015624-.007812.035156-.015625.054687-.027343l.011719-.003907.019531-.039062c.011719-.027344.023437-.050781.035156-.078125.027344-.054688.050781-.109375.070313-.164063.042968-.113281.082031-.230469.113281-.347656.066406-.230469.109375-.472656.144531-.714844.03125-.242187.046875-.488281.042969-.734375 0-.121094-.003906-.246094-.015625-.367187-.003906-.058594-.011719-.121094-.019531-.179688-.003907-.042969-.011719-.085937-.019531-.128906v-.015625l-.011719-.007812c-.160157-.136719-.347657-.257813-.539063-.367188-.207031-.121094-.421875-.230469-.644531-.332031-.21875-.101563-.441406-.195313-.667969-.285157-.078125-.03125-.15625-.0625-.234375-.09375.082031.019532.164063.035157.246094.054688.152344.039062.304687.085938.457031.132812l.070313.019532-.027344-.066406c-1.089844-2.851563-3.699219-4.710938-6.550781-4.710938m0 .070312c2.796875 0 5.359375 1.8125 6.457031 4.597657-.128906-.039063-.257813-.078125-.390625-.109375-.238281-.0625-.476562-.117188-.722656-.15625l-.015625.066406c.113281.042969.230469.082031.34375.125s.226562.089844.339843.132812c.226563.09375.449219.183594.667969.289063.21875.097656.429688.207031.636719.324219.1875.109375.363281.226562.519531.355468.007813.039063.015625.078126.019531.113282.019532.179687.03125.359375.03125.539062.003907.242188-.011718.484375-.042968.722656-.03125.242188-.078125.480469-.140625.710938-.03125.113281-.070313.226562-.109375.335938-.023438.054687-.046875.109374-.070313.160156-.011719.027344-.023437.050781-.035156.078125l-.011719.019531c-.011718.007812-.027344.011719-.042968.019531l-.109376.050781-.046874.023438.183593-.691406-.035156-.007813c-.039063-.011719-.472656-.113281-1.042969-.226562.125-.03125.25-.066407.371094-.117188.074219-.03125.144531-.0625.210938-.101562.070312-.039063.136718-.085938.191406-.148438l.085937-.09375-.121093.039063c-.355469.113281-.902344.148437-1.53125.132812-.625-.011718-1.328126-.074218-1.988282-.140625-1.210937-.125-2.425781-.207031-3.648437-.210937-1.222657.003906-2.4375.085937-3.648438.210937-.660156.066407-1.363281.128907-1.988281.140625-.625.015625-1.175781-.019531-1.527344-.132812l-.125-.039063.085938.09375c.054687.0625.125.109375.191406.148438.070312.039062.140625.070312.210938.101562.144531.058594.292968.105469.445312.140625-.488281.101563-.882812.191406-.921875.203125l-.03125.007813.191406.742187c-.054687-.023437-.113281-.050781-.160156-.074219l-.105469-.050781c-.015625-.007812-.03125-.015625-.046875-.019531l-.007812-.019531c-.011719-.023438-.023438-.050781-.035157-.078125-.027343-.050782-.046874-.105469-.070312-.160156-.039062-.109376-.078125-.222657-.109375-.335938-.0625-.230469-.109375-.46875-.140625-.710938-.03125-.238281-.046875-.480468-.046875-.722656.003906-.121094.007813-.242187.015625-.359375.007812-.058593.011719-.121093.019531-.179687.003907-.039063.011719-.074219.015625-.113282.160156-.128906.335938-.246093.519532-.355468.207031-.117188.421874-.226563.640624-.324219.21875-.105469.441407-.195313.667969-.289063.113281-.042968.226563-.089843.339844-.132812s.226563-.082031.34375-.125l-.019531-.066406c-.242188.039062-.484375.09375-.722656.15625-.128907.03125-.257813.070312-.386719.109375 1.097656-2.785157 3.65625-4.597657 6.453125-4.597657zm-2.117188.792969-.0625.105469v.003906c-.710937 1.238282-.753906 2.691406-.742187 3.277344l-.023438-.023438-.023437-.019531-.003906-.007812h-.003907v-.003907c-.007812-.007812-.011719-.007812-.003906-.003906h-.003906c.003906.003906 0 0 0 0-.007813-.007812-.011719-.011718-.007813-.007812-.007812-.003906-.015625-.007813-.019531-.011719h-.003906c0-.003906-.003907-.003906-.007813-.003906v-.003907c-.007812-.003906-.019531-.003906-.027344-.007812.003907 0 0 0-.011718 0-.007813-.003906-.019532-.003906-.03125-.003906h-.003906c-.007813 0-.015626 0-.023438.003906h-.007812l-1.582032.449219c-.011718-.375 0-1.730469.722656-2.890625l-.054687-.042969-.003906.003906c-.039063.046875-.859375 1-.921875 3.003907l-.238282.070312c-.058593.015625-.101562.0625-.113281.125-.066406.394531-.097656.792969-.09375 1.191406.003907.289063.027344.449219.03125.476563-.011719.003906-.023437.003906-.035156.007812-.246094.082031-.496094.167969-.722656.300781l-.003907.003907.027344.0625c.121094-.046875.242188-.082031.367188-.113281s.25-.058594.375-.082032c.25-.046875.503906-.085937.757812-.117187h.003906c.253907-.035157.507813-.0625.761719-.082031.257813-.023438.511719-.042969.769531-.058594 1.027344-.0625 2.054688-.082032 3.082032-.082032 1.03125.003907 2.058594.019532 3.085937.082032.253907.015625.511719.035156.765625.058594.257813.019531.511719.046874.765625.082031.253907.03125.507813.070312.761719.117187.125.023438.25.050782.375.082032s.246094.066406.363281.113281l.03125-.0625c0-.003907-.003906-.003907-.003906-.003907h-.003906c-.226563-.132812-.472657-.21875-.71875-.296874-.011719-.003907-.023438-.007813-.035157-.011719.007813-.046875.09375-.710938-.066406-1.667969-.007812-.0625-.050781-.109375-.109375-.125l-.238281-.070312c-.0625-2.003907-.882812-2.960938-.921875-3.003907l-.003906-.003906-.054688.042969c.71875 1.160156.730469 2.515625.71875 2.890625l-1.578125-.449219h-.007812c-.007813-.003906-.015625-.003906-.023438-.003906h-.003906c-.011719 0-.023438 0-.03125.003906-.007812 0 0 0-.003906 0s-.011719 0-.003906 0h-.007813c-.007813.003906-.015625.003906-.023437.007812l-.003907.003907h-.003906c-.003906 0-.003906 0 0 0l-.003906.003906h-.003907c-.003906.003906-.007812.007813-.015624.011719l-.003907.003906c-.003906 0 0 0-.003906 0 0 .003906-.003906.007812-.003906.003906l-.003907.003906c.007813-.007812.007813-.007812 0 0l-.003906.003907c.003906-.003907 0 0 0 0l-.050781.050781c.011719-.585938-.035156-2.039062-.742187-3.277344 0 0-.003907-.003906-.003907-.007812l-.0625.03125c.015625.042968.589844 1.726562.394531 3.613281-.0625.050781-.125.097656-.183593.140625-.042969.027344-.070313.074219-.070313.125v.027344c0 .019531-.003906.042968-.007812.074218-.003906.089844-.015625.179688-.03125.265626-.039063.214843-.105469.492187-.238282.746093 0 0 0 .003907-.003906.003907-.65625-.042969-1.316406-.0625-1.976562-.0625s-1.316406.019531-1.976563.0625v-.003907c-.132812-.253906-.203125-.53125-.238281-.746093-.015625-.085938-.027344-.175782-.035156-.265626 0-.023437-.003906-.046874-.003906-.074218l-.003907-.019532v-.007812c0-.050781-.023437-.097656-.066406-.125v-.003906c-.0625-.042969-.125-.085938-.183594-.136719-.195312-1.886719.378907-3.570313.394531-3.613281v-.007813zm.214844.503907v1.59375h1.152344v-.445313h.171875v1.992187h-.367188v1.222657h1.964844v-1.222657h-.371094v-1.992187h.175781v.445313h1.152344v-1.59375zm-.378906.015624c-.144532.492188-.460938 1.683594-.296875 3.25v.015626l.011719.007812c.066406.050781.136718.105469.203124.148438.023438.015624.035157.042968.035157.070312v.003906c0-.003906 0 0 0 0l.003906.003906v.023438c.007813.117188.019531.234375.039063.347656.039062.21875.109374.503906.246093.765625 0 .007813.003907.011719.007813.019531l.007812.027344.027344-.003906c.664062-.046875 1.332031-.0625 1.996094-.0625.667968 0 1.335937.019531 2 .0625l.027344.003906.007812-.027344c0-.007812.003906-.011718.007812-.019531.136719-.261719.207032-.546875.242188-.765625.015625-.089844.027344-.179687.035156-.269531.003906-.027344.003906-.050781.007813-.078125v-.03125c0-.027344.015625-.054688.039062-.070312.066407-.042969.132813-.097657.199219-.148438l.011719-.007812.003906-.015626c.164063-1.566406-.152344-2.757812-.296875-3.25.535156 1.175782.585938 2.464844.570312 2.945313l-.003906.085937.0625-.058593c.035156-.03125.0625-.058594.082032-.078125l.023437-.023438.007813-.003906v-.003906c0 .003906.003906-.003906.003906-.003906s.003906 0 0 0h.003906v-.003907.003907c.003906-.003907.007812-.007813.015625-.011719.007813-.003907.011719-.003907.019531-.007813h.003906.015626.007812-.003906.015625l.003906.003906 1.667969.472657v-.042969c.011718-.25.015625-1.109375-.292969-2.03125.199219.488281.390625 1.160156.414063 2.082031l.003906.027344.285156.082031c.03125.007813.054688.035156.0625.066406.15625.964844.066406 1.636719.0625 1.664063l-.003906.011719-.007813.03125.03125.011718c.023438.003907.042969.011719.0625.019532.066407.019531.125.054687.191407.078125-.066407-.015625-.132813-.03125-.199219-.046875-.253907-.046875-.507813-.085938-.761719-.117188h-.003906c-.253906-.035156-.507813-.0625-.765625-.082031-.257813-.023437-.511719-.042969-.769531-.058594-1.027344-.0625-2.058594-.078125-3.089844-.082031-1.027344 0-2.058594.019531-3.085938.082031-.257812.015625-.515625.035157-.769531.058594-.257813.019531-.511719.046875-.769531.082031-.253906.03125-.507813.070313-.761719.121094-.070313.011719-.136719.027344-.203125.042969.066406-.023438.125-.058594.191406-.082031.019532-.003907.042969-.011719.066406-.015626l.03125-.011718-.011718-.03125c0-.007813 0-.011719 0-.011719-.003906-.011719-.027344-.1875-.03125-.480469-.003906-.394531.027344-.792968.09375-1.183594.003906-.03125.027344-.058593.0625-.066406l.285156-.082031v-.027344c.027344-.921875.21875-1.589843.414062-2.078125-.304687.917969-.300781 1.777344-.292968 2.027344l.003906.042969 1.667969-.472657v-.003906h.015625c.007812 0 .007812 0 .003906 0h.003906.015625.007813c-.011719 0-.007813 0-.003906.003906.007812 0 .011718 0 .015624.003907 0 0 0 0 .003907.003906.003906 0 .007812.003906.011719.003906v.003907c.003906 0 0-.003907 0-.003907 0 .003907.003906.003907 0 0l.003906.003907c.003906.003906.007812.007812.003906.003906l-.003906-.003906.011718.011718c.035157.035156.070313.070313.105469.101563l.0625.058593v-.085937c-.015625-.480469.03125-1.769531.570313-2.945313zm.449218.054688h3.738282v1.453125h-1.011719v-.445313h-.316406v2.132813h.371093v1.082031h-1.824218v-1.082031h.367187v-2.132813h-.3125v.445313h-1.011719zm.253907.253906v.945313h.5v-.445313h.824219v2.640625h-.367188v.574219h1.3125v-.574219h-.367188v-2.640625h.824219v.445313h.503907v-.945313zm.070312.070313h3.089844v.804687h-.363281v-.445312h-.964844v2.78125h.367188v.433594h-1.171876v-.433594h.367188v-2.78125h-.960938v.445312h-.363281zm5.8125.457031c.066407.121094.125.25.175781.375-.042968-.125-.121093-.25-.175781-.375m-8.605469.003906c-.054687.125-.132812.246094-.175781.371094.0625-.152344.113281-.261719.175781-.371094zm7.367188 2-.007812.003906c.015624 0 .019531-.003906.007812-.003906m-6.246094.199219-.046875.015625-1.863281.527344-.003906.023437c-.125.808594-.066406 1.402344-.054688 1.515625l.007813.039063.039062-.011719c.152344-.039062.304688-.078125.457031-.113281.253907-.054688.507813-.101563.765626-.148438.257812-.039062.515624-.074219.773437-.105469.015625 0 .035156-.003906.054687-.003906l.046876-.007812-.023438-.042969c0-.007813-.003906-.011719-.003906-.019531-.175782-.636719-.167969-1.308594-.152344-1.617188zm6.363282 0 .003906.050781c.015625.308594.023437.980469-.152344 1.617188-.003906.007812-.003906.011718-.007812.019531l-.023438.042969.050781.007812c.019531 0 .039063.003906.054688.003906.515625.058594 1.03125.144532 1.539062.253907.152344.035156.304688.074219.457031.117187l.039063.007813.003906-.039063c.015625-.109375.074219-.707031-.050781-1.515625l-.003906-.023437zm-.167969.074219-.054688.050781c-.121093.109375-.285156.25-.449219.367187l-.011718.007813-.003906.019531c-.007813.164063-.058594.644532-.269532 1.089844l-.023437.046875.050781.003906c.195312.015625.386719.035157.578125.054688l.050781.003906-.011718-.046875c-.003907-.015625-.003907-.03125 0-.046875.152343-.558594.160156-1.148437.148437-1.476563zm-6.03125 0v.074218c-.011719.328126-.003907.921876.148437 1.476563.003906.015625.003906.03125 0 .042969l-.011718.050781.050781-.007813c.191406-.019531.382812-.035156.574219-.050781l.050781-.003906-.019531-.046875c-.214844-.445312-.261719-.925781-.269532-1.089844l-.003906-.019531-.011719-.007813c-.164062-.117187-.328125-.257812-.449219-.367187zm-.238281.019531c-.015626.324219-.015626.957031.152343 1.578125h-.015625c-.257812.03125-.515625.066406-.773437.109375-.257813.042969-.515625.089844-.769531.148437-.140626.03125-.28125.066407-.417969.101563-.015625-.136719-.058594-.679687.050781-1.433594zm6.511718 0 1.769532.503906c.113281.757813.070312 1.296875.054687 1.4375-.140625-.039062-.277344-.074219-.417969-.105469-.511718-.113281-1.027344-.199218-1.546875-.257812h-.011719c.167969-.621094.167969-1.253906.152344-1.578125zm-.308594.132813c.007813.332031-.003906.867187-.148437 1.378906 0 .011718.003906.023437 0 .035156-.164063-.015625-.328125-.03125-.496094-.046875.199219-.4375.25-.882813.261719-1.054687.140625-.101563.269531-.214844.382812-.3125m-5.894531 0c.113281.097656.242188.210937.382813.3125.011718.171874.0625.617187.261718 1.054687-.167968.011719-.332031.027344-.5.046875 0-.011719.003907-.023438 0-.035156-.140624-.511719-.152343-1.046875-.144531-1.378906m2.898438 2.6875c-.304688 0-.609375.003906-.914063.011718h-.007812l-.574219.269532v.003906h-.003906c-.089844.042968-.828125.417968-1.523438 1.082031l.039063.058594c.621094-.328125 1.535156-.753907 2.605468-1.085938.332032-.101562.667969-.191406 1.007813-.265625l-.007813-.066406c-.207031-.003906-.414062-.007812-.621093-.007812zm-2.019531.039062-.035157.003906c-.519531.019532-1.042969.042969-1.5625.070313-.300781.019531-.601562.039062-.902343.0625-.148438.011719-.300782.023437-.449219.039062-.042969.003907-.085938.007813-.128907.015625h-.007812l-.003906.003906c-.394532.234376-1.898438 1.179688-2.9375 2.417969l.046875.050781c1-.695312 2.746093-1.738281 4.894531-2.34375.351562-.097656.703125-.179687 1.058594-.25l.027344-.003906zm4.410156.015625.023437.050781-.054687-.039062v.003906l-.039063.050781h.003907c-.027344.039063-.054688.078125-.105469.148438-.222657.296875-.660157.847656-1.222657 1.3125l-.101562.085937.128906-.023437c.804688-.144531 2.199219-.5 3.40625-1.34375.03125-.019531.058594-.042969.089844-.0625l.042969-.03125-.046875-.027344c-.003906-.003906-.007813-.007813-.019532-.007813-.292968-.019531-.585937-.039062-.878906-.058593-.410156-.023438-.816406-.042969-1.226562-.058594m-2.390625.015625c.121093 0 .242187.003906.363281.003906-.257812.0625-.519531.125-.761719.199219-.964843.296875-1.765625.664063-2.378906.976563.625-.546876 1.234375-.867188 1.308594-.902344h.003906l.003906-.003906.554688-.261719c.300781-.007813.605469-.011719.90625-.011719m2.40625.054688c.402343.015624.804687.035156 1.207031.058593.261719.015625.523438.035157.785156.054688l-.011718.007812c-1.140626.796875-2.445313 1.148438-3.253907 1.304688.519531-.453125.933594-.957031 1.144531-1.242188.0625-.085937.101563-.144531.128907-.183593m-.417969.003906-.078125.007812c-.292969.03125-.582031.070313-.871094.125-.972656.183594-1.871093.488282-2.617187.796875l.015625.066407c.527343-.023438 1.082031-.039063 1.660156-.039063.351563 0 .691406.003906 1.019531.015625h.015625l.011719-.011719c.25-.242187.484375-.503906.703125-.777343.03125-.042969.066406-.082032.09375-.121094zm-4.417969 0c-.230469.050781-.46875.101562-.695312.164062-2 .5625-3.621094 1.492188-4.652344 2.183594 1.007813-1.109375 2.328125-1.957031 2.695313-2.179688.042968-.003906.078124-.007812.121093-.011718.148438-.015625.296875-.03125.445313-.039063.300781-.023437.601562-.046875.902344-.0625.394531-.019531.789062-.039062 1.183593-.054687m4.261719.089844c-.015625.015624-.027344.03125-.039062.050781-.214844.269531-.441407.523437-.6875.761719-.335938-.011719-.671876-.015626-1.007813-.015626-.503906 0-.984375.015626-1.449219.035157.703125-.28125 1.515625-.550781 2.402344-.71875.253906-.046875.515625-.085938.78125-.113281m3.136719.085937-.011719.007813c-.492188.355468-1.03125.640624-1.5625.867187l.007812.066406c1.632813.15625 2.828126.394531 3.375.515625l.03125.003906.285157-1.078124-.035157-.007813c-.386718-.089844-1.101562-.234375-2.074218-.371094zm.015625.074219c.945312.132812 1.632812.273437 2.023437.363281l-.25.945313c-.539062-.121094-1.6875-.339844-3.230469-.496094.496094-.21875.996094-.480469 1.457032-.8125m-7.441406.09375c-1.027344.238281-1.972657.585937-2.796876.96875l.019532.066406c.640625-.105469 1.285156-.1875 1.929687-.253906h.011719l.011719-.007813c.261719-.261719.546875-.5.851562-.710937zm-3.773438.074218c-.261719.050782-.472656.097657-.632812.132813l-.035157.007813.097657.367187.042968-.035156c.179688-.140625.363282-.277344.554688-.410157zm3.628906.039063c-.230468.171875-.476562.359375-.71875.601563-.640625.0625-1.167968.140624-1.65625.214843.71875-.316406 1.515625-.605469 2.375-.816406m-3.769531.0625c-.132813.09375-.261719.1875-.386719.285156l-.054687-.191406c.117187-.027344.277343-.058594.441406-.09375m6.46875.703125c-.910156 0-1.761719.039062-2.53125.09375h-.003906l-.007813.003906c-.3125.152344-.617187.316406-.914062.488282-.109375.0625-.214844.128906-.320313.195312-.015625.007812-.019531.011719-.027343.015625h.003906l-.589844.390625.402344-.578125c.082031-.117187.171875-.234375.265625-.34375l.054687-.066406-.085937.011719c-.703125.074218-1.40625.179687-2.101563.304687l-.03125.007813.277344 2.257812.960938.671875 3.011718-.667969.5625-1.855468c.007813-.019532.023438-.039063.042969-.050782.003906-.003906.011719-.007812.019531-.007812.007813-.003906.085938-.027344.203125-.054688.148438-.03125.296875-.058594.449219-.078125h.007812l.550782-.332031c.167968-.101562.324218-.214844.476562-.335938l.074219-.0625h-.097656c-.21875-.003906-.433594-.007812-.652344-.007812m0 .070312c.183594 0 .363281.003907.542969.003907-.121094.097656-.246094.191406-.378906.269531l-.542969.328125c-.167969.019531-.328125.050781-.445313.078125-.121094.027344-.199218.050781-.207031.050781-.011719.003907-.027344.011719-.035156.015625-.035157.023438-.0625.054688-.074219.09375l-.550781 1.816406-2.941407.652344-.910156-.640625-.269531-2.15625c.507813-.09375 1.1875-.199219 1.980469-.292969-.070313.09375-.144532.183594-.210938.28125l-.511718.730469.050781.050781.742187-.496093.023438-.015625c.015625-.011719.035156-.023438.066406-.042969.082031-.050781.164062-.101563.25-.148437.210938-.125.523438-.296876.902344-.484376.839844-.0625 1.679687-.09375 2.519531-.09375zm2.585937.027344-.007812.003906c-.515625.179688-1.046875.320313-1.585938.429688-.207031.042969-.378906.074219-.5.09375-.070312.007812-.144531.019531-.214843.027344l-.070313.003906v.070312c.386719.035157.753906.136719.769532.144532.027343.007812.050781.027344.0625.058594l.558593 1.847656 3.007813.34375.96875-.679688.277344-1.925781-.035157-.007813c-.757812-.136718-1.863281-.304687-3.222656-.410156zm.007813.074219c1.335937.101563 2.421875.265625 3.175781.402344l-.261718 1.828125-.917969.644531-2.9375-.332031-.546875-1.804688c-.015625-.050781-.058594-.09375-.109375-.109375-.015625-.003906-.304688-.058593-.550781-.101562.023437-.003907.023437 0 .054687-.007813.171875-.023437.339844-.054687.507813-.089844.539062-.109374 1.066406-.253906 1.585937-.429687zm3.433594.375-.007813.039063-.273437 1.917968c-.003907.027344-.015625.046875-.035157.0625l-1.03125.71875c-.015624.011719-.039062.019532-.058593.015625l-3.101563-.351562c-.035156-.003907-.066406-.027344-.074218-.0625l-.566407-1.859375-.019531-.003906c-.148438-.039063-.535156-.128907-.878906-.128907s-.726563.089844-.878906.128907l-.019532.003906-.5625 1.859375c-.007812.023437-.023437.042969-.042968.050781-.007813.003906-.015626.007812-.023438.007812l-3.101562.691407c-.003907 0-.011719.003906-.019532.003906-.015625 0-.035156-.007813-.050781-.015625l-1.027344-.722656c-.019531-.015625-.035156-.035156-.039062-.0625l-.28125-2.285156-.035157.007812c-.117187.023438-.21875.042969-.3125.0625h-.003906l-.007812.003906c-.066406.035156-.128906.074219-.195313.109375l-.019531.011719.300781 2.421875 1.519531 1.0625 3.804688-.84375.5625-1.855469c.011719-.03125.039062-.058594.070312-.0625.140626-.023437.261719-.035156.363282-.035156.101562 0 .226562.011719.363281.035156.035156.003906.0625.03125.070313.0625l.578124 1.902344 3.828126.433594 1.476562-1.035156.3125-2.167969-.03125-.007813c-.171875-.039062-.34375-.074218-.515625-.105468zm-3.296875.039063c-.207032.007812-.375.144531-.488282.355468-.109374.207032-.167968.492188-.15625.796875.011719.308594.101563.476563.246094.554688.144532.082031.328125.074219.519532.066406.261718-.003906.464843-.046875.632812-.070313.164062-.027343.292969-.035156.410156.023438l.070313.035156-.019531-.074218c-.003907-.019532-.015626-.039063-.023438-.054688-.019531-.035156-.046875-.066406-.074219-.09375-.066406-.054688-.183593-.097656-.339843-.089844.03125-.09375.054687-.199218.042968-.347656-.023437-.308594-.125-.585938-.273437-.785156-.144531-.199219-.339844-.324219-.546875-.316406zm3.355468.046874c.171876.03125.324219.0625.445313.089844l-.296875 2.074219-1.429688 1.003906-3.757812-.429687-.5625-1.855469c-.019531-.058594-.066406-.101563-.128906-.113281-.140625-.023438-.265625-.035156-.375-.035156-.105469 0-.230469.011718-.371094.035156-.0625.011718-.109375.054687-.128906.113281l-.550782 1.8125-3.734374.832031-1.46875-1.027344-.292969-2.34375c.058593-.03125.113281-.066406.171875-.097656.082031-.015625.171875-.035156.269531-.054687l.273437 2.214843c.003907.042969.027344.082032.066407.109376l1.027343.71875c.035157.027343.082032.035156.125.027343l3.101563-.691406c.015625-.003906.027344-.007813.039063-.015625.039062-.019531.066406-.050781.078124-.09375l.554688-1.816406c.15625-.042969.519531-.125.84375-.125.320312 0 .683594.082031.839844.125l.554687 1.816406c.015625.0625.070313.105469.132813.113281l3.101562.351563c.039063.003906.078125-.003906.109375-.027344l1.027344-.71875c.035156-.027344.058594-.066406.066406-.109375zm-3.351562.023438c.175781-.007812.351562.101562.488281.289062s.234375.449219.257813.746094c.011718.164063-.007813.277344-.042969.359375l-.027344.058594.0625-.007813c.171875-.019531.269531.027344.328125.078126.019532.015624.027344.035156.039063.050781-.113281-.03125-.230469-.03125-.367188-.011719-.167969.023438-.367187.066406-.621093.070312h-.003907c-.191406.007813-.363281.011719-.480469-.054687-.121093-.066406-.199218-.199219-.210937-.496094s.046875-.570312.148437-.765625c.105469-.195312.25-.3125.429688-.316406m-5.613281.078125h-.035157v.007813c-.191406.019531-.378906.136718-.511718.332031-.144532.207031-.234375.488281-.222656.800781.007812.144531.03125.246094.0625.332031-.148438.042969-.261719.109375-.324219.171875-.070313.066406-.097657.125-.101563.136719l-.035156.089844.082031-.042969c.203125-.109375.433594-.09375.808594-.09375h.125c.039063 0 .074219-.003906.113281-.003906.191406 0 .371094.007812.511719-.0625.070313-.039063.128906-.097656.167969-.1875.039062-.085938.054687-.203125.054687-.355469-.003906-.308594-.070312-.585937-.191406-.792969-.121094-.203125-.296875-.335937-.503906-.332031zm0 .070313c.179687-.003907.332031.109374.441406.296874.113281.191407.179687.460938.183594.757813.003906.148437-.015625.253906-.050781.328125-.03125.078125-.074219.121094-.132813.152344-.117187.058594-.289063.054687-.480469.054687-.039062 0-.078125.003907-.113281.003907-.042969 0-.085937 0-.125 0-.320313 0-.539063 0-.738281.074218.011718-.019531.007812-.019531.03125-.042968.0625-.0625.164062-.128907.324218-.171876l.042969-.007812-.019531-.039062c-.035156-.078126-.054688-.1875-.0625-.339844-.011719-.296875.074219-.5625.207031-.757813.136719-.191406.316407-.308593.492188-.308593m5.574219.164062c-.128907 0-.230469.105469-.230469.234375.003906.128906.109375.230469.238281.226563.128906 0 .230469-.105469.226562-.234376-.003906-.128906-.109374-.230468-.234374-.226562zm0 .070312c.042968-.003906.085937.011719.113281.042969.03125.03125.050781.070313.050781.113281 0 .089844-.070312.164063-.160156.164063-.085938.003906-.160156-.066406-.164063-.15625 0-.042969.015625-.085937.046875-.117187.027344-.03125.070313-.046876.113282-.046876zm4.03125.066407-.007813.050781-.246094 1.746094c-.003906.023437-.019531.046875-.039062.058594l-.367188.257812-.003906.015625c-.027344.140625-.039063.207031-.074219.347656l-.007812.035157.035156.007812c.207031.046875.539062.085938.710938.050781h.011718l.007813-.007812c.046875-.050781.085937-.140625.128906-.265625.042969-.121094.085937-.277344.128906-.445313.082031-.332031.152344-.714843.179688-.996093.019531-.226563.023437-.367188.011719-.457032-.007813-.089844-.035157-.136718-.066407-.160156-.027343-.023438-.074219-.054688-.140625-.09375-.070312-.039062-.144531-.082031-.214844-.121094zm-9.550782.007812c-.128906.003907-.230468.109375-.226562.238281.003906.128907.109375.230469.238281.226563s.230469-.109375.226563-.238281c-.003907-.128906-.109376-.230469-.238282-.226563m0 .070313c.042969 0 .085938.015625.117188.042968.03125.03125.050781.070313.050781.113282 0 .089844-.070313.164062-.15625.167968-.042969 0-.085937-.015624-.117187-.046874-.03125-.027344-.050782-.070313-.050782-.113282 0-.042968.015625-.082031.042969-.113281.03125-.03125.070313-.050781.113281-.050781m9.605469.03125c.0625.035156.121094.066406.171875.097656.0625.035156.113281.070312.132812.082031v.003907c.015626.011718.03125.03125.039063.113281.011719.082031.007813.21875-.011719.441406-.023437.277344-.09375.65625-.175781.988281-.042969.164063-.085937.320313-.128906.4375-.039063.117188-.082031.195313-.109375.230469-.140625.023437-.433594-.007813-.632813-.050781.023438-.105469.039063-.183594.0625-.296875l.34375-.242188c.039063-.027343.0625-.066406.066407-.109375zm-13.527344.132812-.046875.023438c-.082031.046875-.171875.097656-.25.140625-.074218.042969-.136718.082031-.164062.105469-.03125.027343-.054688.070312-.0625.160156-.011719.085937-.007813.21875.019531.441406.027344.273438.113281.660156.207031 1.003906.042969.152344.089844.304688.144532.453125.046874.125.089843.21875.136718.265625l.007813.007813h.011719c.191406.035156.574218-.019531.773437-.078125l.035156-.011719-.011719-.035156c-.019531-.058594-.035156-.121094-.054687-.1875l-.003906-.011719-.472657-.332031c-.019531-.011719-.035156-.035157-.039062-.058594v-.003906zm-.058593.109375.222656 1.785157c.003906.042968.027344.085937.066406.109374l.453125.316407c.011719.046875.027344.09375.039063.136719-.191407.050781-.535157.097656-.695313.074218-.027344-.03125-.070313-.109375-.113281-.226562-.054688-.148438-.101563-.296875-.144532-.449219-.09375-.339844-.175781-.726563-.207031-.992187-.023437-.21875-.027343-.351563-.019531-.429688s.023438-.097656.039062-.109375c.019532-.015625.082032-.054687.15625-.101563.0625-.035156.136719-.074218.203126-.113281m6.757812.160157v.003906c-.078125 0-.152344.007812-.226562.015625l-.023438.003906-.5625 1.851563c-.007812.03125-.035156.050781-.066406.058593l-3.894532.867188c-.003906.003906-.011718.003906-.019531.003906-.019531 0-.035156-.007813-.050781-.015625l-.140625-.101562-.410156-.285157-.269531-.191406.03125.101563c.007812.03125.019531.0625.03125.09375l.007812.019531c.03125.101562.359375 1.046875 1.03125 1.976562l.015625.019531.023437-.007812c.511719-.152344 1.019532-.308594 1.53125-.46875l.011719-.003906.003907-.011719c.203124-.308594.445312-.613281.6875-.84375.242187-.234375.480468-.386719.667968-.394531.070313-.003906.144532-.007813.214844-.007813.199219 0 .386719.015625.5625.035157l.109375.011718-.082031-.070312c-.101563-.09375-.140625-.1875-.164063-.265625.105469.074219.527344.355469 1.125.28125.582031-.078125.921875-.347657 1.015625-.421875-.015625.082031-.054687.230468-.261718.382812l.03125.0625c.554687-.167968.785156-.222656.933593-.222656.160157 0 .234375.0625.308594.128906.015625.011719.027344.023438.046875.035156v.003907c.425781.332031.9375.742187 1.089844.859375l.007812.007812h.007813c.175781.019532.726562.082032 1.074219.117188.199218.015625.378906.03125.558593.03125.058594 0 .113281 0 .164063-.003906l.019531-.003907.007813-.015625c.230468-.441406.4375-.9375.613281-1.5.023437-.085937.046875-.175781.066406-.261718l.023437-.089844-.203124.140625-.335938.238281-.367188.257812c-.019531.011719-.042968.015626-.0625.015626l-3.65625-.417969-.265624-.027344c-.035157-.003906-.0625-.03125-.074219-.0625l-.578125-1.90625-.023438-.003906c-.085937-.011719-.171875-.019531-.257812-.019531zm.027344.070312c.066406 0 .144531.007812.226562.019531l.566406 1.859375c.019532.058594.070313.105469.132813.113282l.265625.027343.027344.003907-.058594.054687s-.402344.371094-1.054688.457031c-.644531.082032-1.152343-.316406-1.152343-.316406l-.089844-.066406.035156.105468c.015625.054688.058594.191407.164063.316407-.15625-.015625-.320313-.03125-.496094-.03125-.074219 0-.144531.003906-.21875.007812-.21875.011719-.464844.175781-.714844.414063-.242187.230468-.484375.539062-.683594.847656-.496093.15625-.996093.308594-1.496093.457031-.644531-.898437-.960938-1.800781-1-1.917969l-.003907-.003906-.003906-.015625-.003906-.011719.066406.046876.4375.308593.140625.097657c.03125.019531.0625.03125.09375.03125.011719 0 .023438-.003907.035157-.003907l3.894531-.867187c.054687-.011719.101562-.054688.117187-.109375l.550782-1.804688c.074218-.011719.148437-.019531.222656-.019531zm5.710937 1.878906c-.015625.054688-.027343.113282-.042969.167969-.171874.550781-.375 1.039063-.597656 1.46875-.046875.003906-.09375.003906-.140625.003906-.175781 0-.355469-.015625-.554687-.03125-.34375-.03125-.882813-.09375-1.058594-.113281-.359375-.289062-.71875-.574219-1.082031-.855469v-.003906c-.015625-.011719-.03125-.023437-.042969-.035156-.078125-.0625-.175781-.144531-.355469-.144531-.144531 0-.414062.074218-.832031.199218.199219-.207031.214844-.433594.214844-.433594v-.078124l3.628906.414062c.039062.003906.078125-.007812.109375-.027344l.367187-.257812.339844-.238282zm-3.878906.84375c-.089844 0-.246094.035156-.511719.113282-.265625.074218-.640625.191406-1.152344.351562l-.050781.015625-.050781-.019531h-.003906l-.007813-.003906-.023437-.007813c-.03125-.011719-.058594-.019531-.089844-.03125-.078125-.023437-.1875-.054687-.324219-.085937-.269531-.0625-.644531-.125-1.050781-.125-.066406 0-.132812 0-.199219.003906-.03125.003906-.074219.019531-.140625.054687-.066406.039063-.148437.09375-.25.179688-.199218.171875-.457031.457031-.75.917969l-.03125.050781-.054687.015625-.046875.015625c-.195313.0625-.394532.125-.589844.1875-.476562.148437-.949219.289062-1.425781.425781l-.058594.015625-.054687-.023437c.003906 0 0-.003907-.003907-.003907l-.015625-.007812-.054687-.023438-.1875-.085937c-.152344-.070313-.355469-.164063-.550781-.257813l-.113282-.050781.070313.105469c.214843.316406.488281.710937.730469 1.023437.425781.546875.972656 1.0625 2.003906 1.0625.128906 0 .265625-.007812.410156-.023437 1.035156-.117188 1.304688-.167969 1.449219-.191407.050781-.007812.089843-.015624.136719-.019531.160156-.027343.316406-.066406.46875-.125.25-.097656.53125-.261719.65625-.542969.246093-.550781.292968-.683593.296874-.6875l.089844-.234374v-.003907l.003906-.023437c.003907.003906.003907.003906.007813.007812.011719.019532.023437.03125.023437.03125v.003906l.144532.171876s0 0 .003906.003906l.011719.011718.042969.050782c.207031.242187.425781.476562.652343.703125.265625.261719.585938.394531.953125.394531.125 0 .253906-.015625.386719-.046875.121094-.03125.25-.0625.382813-.09375.484374-.117187 1.03125-.246094 1.296874-.320313.050782-.015624.109376-.027343.171876-.042968.351562-.082032.851562-.199219 1.117187-.726563.210937-.417969.425781-.835937.644531-1.25l.046875-.089843-.09375.042968c-.15625.070313-.3125.144532-.46875.226563-.183593.097656-.429687.144531-.75.144531-.191406 0-.378906-.015625-.589843-.035156-.238282-.023438-.480469-.046875-.722657-.074219l-.289062-.035156c-.039063-.003907-.066407-.007813-.089844-.011719h-.03125l-.046875-.007812-.035156-.027344c.003906.003906-.003906-.003906-.007813-.007813l-.097656-.078125-.273437-.214844c-.25-.199218-.5-.394531-.75-.59375l-.054688-.046874c-.027344-.019532-.039062-.03125-.058594-.042969-.003906-.003907-.007812 0-.011718-.003907v-.003906zm0 .070313c.015625 0 .015625-.003907.019531 0 .003906.003906.019532.011719.042969.035156l.058594.046875c.25.199219.5.394531.75.59375l.269531.214844.082031.0625.019531.015625c.003907.003906.003907.003906.007813.007812l.050781.042969.0625.003906c.007813.003906.015625.003906.035156.003906l.089844.011719.292969.03125c.230469.027344.511719.058594.722656.078125.207031.019532.398438.035156.59375.035156.328125 0 .585938-.050781.785157-.15625.097656-.050781.234374-.113281.371093-.179687-.203125.386719-.402343.773437-.597656 1.160156-.25.5-.71875.609375-1.070313.691407-.0625.011718-.121093.027343-.175781.042968-.261719.070313-.808593.203125-1.292969.320313-.132812.03125-.261718.0625-.382812.089843-.128906.03125-.253906.046876-.371094.046876-.351562 0-.652344-.125-.902344-.375-.171874-.171876-.339843-.34375-.5-.523438-.050781-.058594-.101562-.117188-.152343-.175781-.015625-.019531-.03125-.035157-.039063-.046875l-.011718-.015625-.003907-.003907-.140625-.167968c-.007812-.011719-.019531-.023438-.027344-.035156-.011718-.011719-.023437-.027344-.039062-.039063v-.074219l-.058594.0625c-.019531.019532-.023437.042969-.03125.0625 0 .007813-.003906.019532-.007812.03125l-.085938.226563c0 .003906-.050781.136719-.296875.6875-.113281.253906-.375.410156-.613281.503906s-.457031.121094-.453125.121094c-.050781.003906-.089844.011719-.140625.019531-.144531.027344-.410156.074219-1.445312.191406-.132813.015625-.269532.023438-.402344.023438-1.007813 0-1.527344-.492188-1.949219-1.035156-.214844-.277344-.449219-.617188-.652344-.914063.152344.070313.3125.144531.433594.199219l.1875.085937.054687.027344.015626.003906c0 .003907 0 .003907.003906.003907l.078125.035156.078125-.023438c.480468-.136718.953125-.277344 1.429687-.425781.152344-.046875.308594-.097656.460938-.144531.054687-.019532.101562-.03125.128906-.042969l.035156-.011719c.007813 0 .011719 0 .015625-.003906l.078125-.023438.042969-.070312c.289062-.457031.546875-.738281.738281-.902344.097657-.082031.175781-.136718.238281-.171875.058594-.035156.105469-.046875.109376-.046875.066406-.003906.128906-.003906.195312-.003906.398438 0 .765625.0625 1.035156.125.109375.023438.214844.050781.320313.085938.039062.011718.066406.019531.085937.027343l.035156.011719.070313.027344.074219-.023438c.515625-.160156.886718-.277344 1.152344-.351562.265624-.074219.425781-.109375.492187-.109375zm-1.375 2.5-.019531.050781c-.042969.097656-.101563.226562-.171875.390625l-.023438.046875h.074219c.0625 0 .128906-.003906.1875-.007812.097656-.007813.195312-.019532.289062-.035157l.066407-.007812-.046875-.050781c-.109375-.113282-.214844-.226563-.316406-.34375zm.019531.128906c.078125.085937.160156.171875.238282.253906-.070313.011719-.144532.023438-.214844.027344-.050782.003906-.101563.007813-.148438.007813.050782-.113282.09375-.210938.125-.289063zm.4375.363281v.054688c-.132812.027344-.265625.046875-.402344.058594-.0625.003906-.125.007812-.1875.007812h-.152343l-.011719.015625c-.378906.566406-1.246094.6875-1.285156.691406-.035156.003907-.066406.007813-.105469.015625l-.003906.070313c.492187.132812.992187.191406 1.488281.160156.625-.042969 1.242188-.183594 1.820312-.417969l-.007812-.070312c-.398438-.027344-.753906-.191406-1.046875-.480469zm.023438.121094.03125.035156c.269531.265625.605468.414063.964844.46875-.628907.238282-1.222657.347656-1.683594.378906-.429688.027344-.863282-.023437-1.292969-.125.136719-.019531.863281-.140624 1.246094-.6875h.121093c.066407 0 .128907-.003906.191407-.007812.140625-.011719.28125-.03125.421875-.0625" fill="#2d3136"/></svg>