<svg height="18" viewBox="0 0 18 18" width="18" xmlns="http://www.w3.org/2000/svg" xmlns:xlink="http://www.w3.org/1999/xlink"><filter id="a" height="100%" width="100%" x="0%" y="0%"><feColorMatrix color-interpolation-filters="sRGB" values="0 0 0 0 1 0 0 0 0 1 0 0 0 0 1 0 0 0 1 0"/></filter><mask id="b"><g filter="url(#a)"><path d="m-1.8-1.8h21.6v21.6h-21.6z" fill-opacity=".8"/></g></mask><clipPath id="c"><path d="m0 0h18v18h-18z"/></clipPath><path d="m9.640625 7.773438c-.304687 0-.609375.003906-.917969.007812l-.5625.269531-.007812.003907c-.085938.042968-.824219.414062-1.523438 1.082031.625-.328125 1.542969-.757813 2.625-1.089844.332032-.101563.671875-.191406 1.011719-.269531-.207031 0-.414063-.003906-.625-.003906zm-2.0625.042968c-.519531.015625-1.042969.042969-1.5625.070313-.304687.015625-.605469.039062-.90625.0625-.152344.007812-.300781.023437-.453125.039062-.039062.003907-.082031.007813-.125.011719-.394531.238281-1.902344 1.183594-2.9375 2.421875 1.007812-.699219 2.757812-1.75 4.921875-2.355469.351563-.097656.707031-.183594 1.0625-.25m4.460937.011719c-.023437.035156-.070312.105469-.140624.199219-.222657.300781-.667969.855468-1.234376 1.324218.804688-.140624 2.195313-.5 3.402344-1.339843.03125-.019531.058594-.042969.089844-.066407 0 0 0 0-.003906 0-.292969-.023437-.589844-.042968-.882813-.058593-.410156-.023438-.820312-.042969-1.230469-.058594zm-.476562 5.726563c-.164062 0-.632812.144531-1.664062.464843l-.0625.019531-.0625-.023437c-.007813-.003906-.683594-.253906-1.492188-.253906-.066406 0-.132812.003906-.195312.003906-.082032.007813-.539063.222656-1.121094 1.144531l-.035156.058594-.066407.019531c-.6875.222657-1.378906.433594-2.074219.632813l-.070312.019531-.0625-.03125c-.007812-.003906-.425781-.195313-.820312-.378906.214843.320312.492187.71875.734374 1.027343.425782.546876.957032 1.050782 1.984376 1.050782.128906 0 .265624-.007813.402343-.023438 1.042969-.117187 1.3125-.164062 1.457031-.1875.046876-.011718.085938-.015625.136719-.023437.007813 0 .863281-.109375 1.101563-.648438.246094-.550781.296875-.683593.296875-.6875l.089843-.234375s.007813-.058594.027344-.078125v.003907c.027344.019531.070313.078124.070313.078124l.144531.171876c.226562.265624.460938.523437.710938.769531.257812.257812.570312.386719.929687.386719.128906 0 .257813-.015626.382813-.046876.128906-.03125.253906-.0625.382812-.09375.484375-.113281 1.035156-.246093 1.300781-.320312.054688-.015625.113281-.027344.171875-.042969.355469-.082031.839844-.195312 1.097656-.710937.214844-.417969.429688-.839844.648438-1.253906-.15625.070312-.3125.144531-.46875.226562-.191406.101562-.445312.148438-.769531.148438-.195313 0-.382813-.015626-.59375-.035157-.421875-.039062-1.132813-.121093-1.140625-.121093l-.054688-.007813-.042968-.035156c-.007813-.003907-.628907-.5-1.132813-.898438-.023437-.015625-.039063-.03125-.058594-.046875-.050781-.042968-.050781-.042968-.082031-.042968" fill="#cb3349"/><path d="m9.691406.410156c-.355468 0-.707031.03125-1.054687.085938-.34375.058594-.683594.140625-1.015625.25-.828125.273437-1.601563.707031-2.277344 1.273437-.136719.113281-.269531.234375-.398438.355469-.386718.378906-.734374.796875-1.03125 1.25-.101562.152344-.199218.308594-.289062.46875v.003906c-.089844.160156-.175781.328125-.253906.496094-.082032.171875-.15625.34375-.222656.523438.152343-.050782.308593-.09375.460937-.132813.121094-.03125.242187-.0625.359375-.085937.121094-.027344.242188-.050782.363281-.074219v.003906c-.113281.039063-.230469.082031-.34375.125-.117187.042969-.230469.089844-.34375.132813l-.007812.003906c-.21875.089844-.441407.183594-.65625.28125l-.007813.003906c-.050781.023438-.101562.050781-.148437.074219-.058594.027343-.121094.054687-.175781.082031-.03125.015625-.058594.03125-.085938.046875-.078125.042969-.15625.082031-.234375.128906-.09375.054688-.1875.109375-.277344.171875-.089843.0625-.175781.125-.257812.191406-.007813.042969-.011719.085938-.019531.128907v.027343c-.007813.0625-.015626.125-.019532.1875-.007812.113282-.011718.222657-.015625.332032 0 .246094.015625.488281.046875.730468.03125.214844.070313.425782.125.632813.003906.027344.011719.054687.019532.082031.003906.015625.007812.03125.015624.046875.027344.101563.058594.199219.09375.296875.03125.082032.066407.160156.105469.242188l.015625.027344c.019532.011718.039063.019531.054688.027343l.109375.050781c.0625.027344.144531.070313.214843.097657.003907 0 .007813-.003907.007813-.007813l-.199219-.765625c.042969-.011719.425782-.113281 1.082032-.238281h-.003907c-.050781-.007812-.101562-.019531-.15625-.03125-.035156-.011719-.070312-.019531-.105469-.03125-.019531-.003906-.042968-.011719-.0625-.019531-.09375-.027344-.183593-.054688-.269531-.089844h-.003906c-.070313-.03125-.136719-.066406-.207031-.101563-.066406-.039062-.132813-.082031-.183594-.140624.09375.03125.195312.054687.308594.074218.109375.019532.234375.035156.363281.042969.132813.011719.273437.019531.417969.019531.292968.007813.613281 0 .941406-.019531.496094-.027344 1.019531-.074219 1.515625-.125.910156-.09375 1.824219-.164063 2.738281-.191406h.019532c.296874-.011719.597656-.015625.898437-.015625.308594 0 .613281.003906.917969.015625.304687.007812.609375.023437.914062.042969.019532 0 .042969 0 .0625.003906.589844.035156 1.175782.085937 1.761719.144531.480469.050781.976563.09375 1.457031.121094.019532 0 .039063.003906.058594.003906.167969.007813.328125.015625.484375.019531.160156.003906.3125.003906.457031 0 .292969-.003906.5625-.023437.789063-.0625.109375-.019531.210937-.042968.300781-.074218-.050781.058593-.113281.101562-.183594.140624-.066406.035157-.136718.070313-.207031.101563-.070313.027344-.144531.054687-.21875.078125s-.148437.042969-.222656.0625c-.019531.003906-.042969.007812-.066407.011719.722657.136719 1.140626.246093 1.1875.257812l-.191406.726563.078125-.035156.035157-.015626.109374-.050781c.019532-.007812.035157-.019531.054688-.027343l.015625-.027344c.039063-.082032.074219-.160156.105469-.242188.042968-.113281.082031-.226562.113281-.34375.03125-.117187.058594-.234375.082031-.351562v-.003906c.023438-.117188.042969-.238282.0625-.359376.015625-.121093.027344-.242187.035156-.363281.007813-.121093.007813-.246093.007813-.367187 0-.003906 0-.011719 0-.015625 0-.175781-.011719-.355469-.035156-.53125-.003907-.042969-.011719-.085938-.019531-.128907-.082032-.066406-.167969-.132812-.257813-.191406-.089844-.0625-.183594-.117187-.277344-.171875-.207031-.121093-.425781-.230469-.644531-.332031s-.445312-.195312-.671875-.289062c-.113281-.042969-.226563-.089844-.339844-.132813-.117187-.042969-.230469-.085937-.347656-.125h.003906l-.003906-.003906c.121094.023437.242187.046875.363281.074219.121094.023437.238282.054687.359375.085937.15625.039063.308594.082031.460938.132813-.40625-1.070313-1.027344-2-1.796875-2.742188-.128906-.121094-.257813-.242188-.394532-.355469-.679687-.566406-1.453124-1-2.28125-1.273437-.328124-.109375-.667968-.191406-1.015624-.25-.347657-.054688-.699219-.085938-1.050782-.085938m-2.15625.953125c-.054687.164063-.101562.328125-.140625.492188l.042969-.125s.078125 4.089843 1.03125 4.089843h.308594v-.886718h.367187v-2.066406h-.246093v.445312h-1.085938v-1.53125h3.824219v1.53125h-1.085938v-.445312h-.246093v2.066406h.371093v.886718h.28125c.925781 0 1.003907-3.796874 1.007813-4.046874-.035156-.136719-.074219-.273438-.117188-.410157.503906.875.667969 1.871094.722656 2.585938l.019532.074219-.011719.03125c.015625.28125.015625.515624.011719.667968.039062-.039062.078125-.074218.113281-.109375 0-.003906.003906-.003906.003906-.003906.003907-.003906.003907-.003906.003907-.003906.003906 0 .003906-.003907.003906-.003907l.015625-.011718c.003906 0 .007812 0 .007812-.003906.007813 0 .015625-.003907.023438-.003907 0 0 0-.003906.003906-.003906h.027344.003906c.007813 0 .015625 0 .019531.003906h.003906l1.632813.460938c.015625-.332031.019531-1.761719-.730469-2.964844.027344.027344.867188.984375.921875 3.023437l.265625.074219c.042969.011719.078125.050781.085938.09375.039062.253907.066406.507813.078125.761719.101562.421875.292969.984375.59375 1.160156.058593.027344.117187.058594.175781.09375-.121094-.046875-.246094-.082031-.371094-.113281-.128906-.03125-.253906-.058594-.378906-.082031-.253906-.050782-.511719-.089844-.765625-.121094-.257813-.035156-.511719-.0625-.769531-.082031-.257813-.023438-.511719-.042969-.769532-.058594-1.03125-.0625-2.066406-.082031-3.097656-.082031-1.035156 0-2.066406.019531-3.097656.082031-.257812.015625-.515625.035156-.773438.058594-.253906.019531-.511718.046875-.765624.082031-.257813.03125-.511719.070312-.765626.121094-.128906.023437-.253906.050781-.378906.082031s-.25.066406-.371094.113281c.054688-.035156.117188-.066406.175782-.09375.300781-.175781.488281-.738281.589844-1.15625.011718-.226562.03125-.476562.082031-.765625.003906-.042969.039062-.082031.085937-.09375l.261719-.074219c.058594-2.039062.894531-2.996093.921875-3.023437-.75 1.203125-.742188 2.632813-.730469 2.96875l1.632813-.464844h.003906c.007812-.003906.011719-.003906.019531-.003906h.007813.027344s0 .003906.003906.003906c.007812 0 .011718.003907.019531.003907.003906.003906.003906.003906.007813.007812.003906 0 .011718.003906.015624.007812 0 0 .003907 0 .003907.003907 0 0 .003906 0 .003906.003906 0 0 .003906 0 .003906.003906.039063.035157.074219.070313.113281.109375-.015624-.539062.011719-2.082031.746094-3.359375zm1.039063 1.175781v.449219zm1.40625 0v2.722657h.367187v-.003907h-.367187zm2.703125 2.425782c-.121094.109375-.285156.25-.453125.371094.167969-.121094.332031-.261719.453125-.371094zm-5.988282 0v.019531zm5.550782.039062-.007813.019532.003907-.003907zm-3.144532.253906v.003907h.367188v-.003907zm-3.105468.09375c-.167969-.007812-.359375.046876-.507813.082032-.292969.070312-.679687.167968-.742187.320312-.125.300782-.183594 1.082032-.183594 1.082032l-.007812.007812c0 .015625.003906.042969.003906.054688.152344-.042969.308594-.082032.460937-.117188.253907-.054688.511719-.101562.769531-.148438.257813-.042968.519532-.074218.777344-.105468.019532-.003906.035156-.003906.054688-.007813-.003906-.003906-.007813-.011719-.007813-.019531-.023437-.082031-.042969-.164062-.058593-.25-.09375-.195312-.164063-.402344-.207032-.613281-.046875-.207031-.1875-.277344-.351562-.285157m7.410156 0c-.167969.007813-.308594.078126-.355469.285157-.0625.292969-.15625.527343-.242187.691406-.011719.054687-.023438.113281-.039063.171875-.003906.007812-.007812.015625-.011719.023438.019532 0 .039063.003906.054688.003906.519531.058594 1.039062.144531 1.546875.253906.15625.035156.308594.074219.464844.117188 0-.019532.003906-.070313.007812-.117188-.011719-.136719-.066406-.757812-.175781-1.027344-.066406-.152344-.453125-.25-.746094-.320312-.148437-.035156-.339844-.089844-.503906-.082032m-1.234375.433594c-.042969.199219-.109375.433594-.21875.660156h.003906c.105469-.226562.171875-.460937.214844-.660156m-5.328125.640625v.007813c.007812.019531.007812.042968 0 .0625.007812-.019532.007812-.042969 0-.0625zm0 0" fill="#f4edae"/><path d="m16.519531 10.257812-.25 1.753907c-.007812.035156-.023437.0625-.054687.082031v.003906l-.355469.25-.023437.109375c.355468.085938.691406-.167969.882812-.351562.089844-.34375.167969-.753907.195312-1.046875.019532-.226563.023438-.367188.011719-.453125-.003906-.03125-.007812-.0625-.019531-.09375-.007812-.015625-.019531-.03125-.035156-.042969-.015625-.015625-.058594-.039062-.097656-.0625-.015626-.011719-.019532-.015625-.039063-.027344-.0625-.035156-.140625-.078125-.214844-.121094zm-13.578125.246094c-.085937.042969-.175781.09375-.25.136719-.027344.015625-.035156.023437-.058594.039063-.039062.023437-.089843.050781-.105468.066406-.03125.027344-.0625.085937-.050782.300781 0 .070313.007813.160156.019532.269531l.003906.007813c.015625.140625.042969.308593.082031.484375v.007812c.039063.183594.085938.363282.136719.542969.152344.175781.40625.363281.734375.234375l-.234375-.164062c-.027344-.019532-.046875-.050782-.050781-.085938zm6.78125.25c-.085937 0-.171875.007813-.253906.019532l-.558594 1.835937c-.007812.019531-.019531.039063-.03125.054687h-.003906c-.015625.015626-.035156.023438-.054688.027344l-.269531.0625c-.019531.09375-.097656.230469-.34375.304688-.398437.125-2.925781.875-3.210937.835937-.171875-.023437-.484375-.199219-.722656-.34375.109374.253907.226562.5.359374.742188.050782.097656.109376.195312.167969.296875.023438.039062.046875.078125.070313.117187.082031.132813.171875.269531.273437.40625.511719-.152343 1.023438-.308593 1.535157-.46875.101562-.160156.210937-.3125.328124-.457031.113282-.140625.234376-.273438.363282-.398438.121094-.121093.246094-.21875.363281-.289062.054687-.035156.109375-.0625.167969-.082031h.003906v-.003907c.050781-.015624.105469-.027343.160156-.03125.070313-.003906.144532-.007812.214844-.007812.09375 0 .191406.003906.285156.011719.09375.003906.1875.011719.28125.023437-.03125-.03125-.0625-.066406-.089844-.105468-.023437-.03125-.042968-.066407-.058593-.101563-.027344-.066406-.042969-.125-.054688-.160156 0 0 .035157.027343.09375.0625.03125.019531.066407.039062.109375.0625.011719.007812.03125.015625.046875.023437.148438.078125.3125.132813.480469.160156.066406.015626.136719.023438.207031.023438h.015625c.074219.003906.148438 0 .222656-.007812h.011719c.277344-.039063.542969-.128907.785157-.265626l.003906-.003906c.074218-.042968.144531-.085937.207031-.136718.042969-.03125.058594-.042969.066406-.050782l.011719-.011718s0 .070312-.035156.167968c-.023438.054688-.050782.109375-.085938.160156-.042968.054688-.097656.113282-.167968.167969.277343-.085937.472656-.140625.621093-.175781.148438-.035156.242188-.050781.324219-.050781.171875 0 .257812.070312.332031.136719.015625.011718.03125.023437.046875.035156v.003906c.089844.066406.132813.105469.226563.179688.289062.226562.578125.453124.867187.683593.015625 0 .078125.007813.101563.011719.21875.023438.65625.074219.972656.101562.101563.011719.195313.019532.289063.027344.089843.003906.179687.007813.269531.007813.058593 0 .109375 0 .160156-.003907.089844-.167968.171875-.339843.246094-.511718.011719-.027344.019531-.050782.03125-.078125.082031-.191407.15625-.382813.226562-.578125-.199219.140625-.671875.457031-.894531.5-.285156.050781-2.839844-.589844-3.242188-.695313-.1875-.046875-.28125-.132812-.324218-.214843l-.21875-.023438c-.023438-.003906-.046875-.011719-.0625-.027344-.019532-.015625-.035156-.039062-.042969-.0625l-.570313-1.886718c-.085937-.011719-.167968-.019532-.253906-.019532zm.46875 5.410156c-.058594.132813-.117187.261719-.175781.390626h.023437c.058594 0 .125-.003907.183594-.007813.011719 0 .023438-.003906.03125-.003906.085938-.007813.171875-.019531.257813-.03125-.109375-.113281-.21875-.230469-.320313-.347657m.480469.515626c-.144531.027343-.289063.050781-.4375.0625-.003906 0-.003906 0-.007813 0-.058593.003906-.117187.007812-.179687.007812h-.136719c-.023437.039062-.054687.078125-.085937.113281-.007813.007813-.015625.015625-.023438.027344-.023437.023437-.046875.050781-.074219.074219-.007812.007812-.019531.015625-.027343.023437-.027344.023438-.050781.042969-.078125.066407-.011719.007812-.019532.015624-.03125.019531-.027344.023437-.058594.042969-.089844.0625l-.011719.007812c-.070312.042969-.140625.082031-.21875.113281-.015625.007813-.03125.015626-.050781.023438-.066406.027344-.132812.054688-.199219.074219.875.152343 1.828125-.078125 2.328125-.230469-.003906-.003906-.011718-.003906-.015625-.007812-.046875-.015626-.09375-.035157-.136719-.058594-.019531-.007813-.035156-.015625-.050781-.023438-.035156-.019531-.066406-.035156-.101562-.058594-.019531-.007812-.035157-.019531-.054688-.03125-.03125-.023437-.058593-.042968-.089843-.066406-.015626-.011718-.035157-.023437-.050782-.039062-.039062-.03125-.078125-.066406-.113281-.101563-.003906-.003906-.011719-.007812-.015625-.011719-.015625-.015624-.03125-.03125-.046875-.046874" fill="#e6ccad"/><path d="m11.5625 7.910156c-.148438.015625-.292969.03125-.4375.054688h-.003906c-.144532.019531-.285156.042968-.429688.070312-.46875.089844-.933594.207032-1.390625.347656l-.011719.003907c-.207031.066406-.410156.136719-.605468.207031-.203125.074219-.410156.15625-.613282.238281.273438-.011719.542969-.023437.816407-.03125.277343-.007812.5625-.007812.851562-.007812h.003907c.335937 0 .667968.003906.988281.011719h.035156c.125-.121094.246094-.246094.363281-.375.117188-.128907.230469-.261719.339844-.398438.03125-.042969.0625-.085938.09375-.121094m3.074219.171875c-.121094.085938-.25.171875-.378907.253907-.386718.242187-.796874.445312-1.195312.617187.40625.039063.789062.085937 1.140625.128906.351563.046875.675781.097657.960937.144531.285157.046876.539063.09375.753907.132813.214843.042969.394531.082031.53125.109375l.269531-1.015625c-.292969-.066406-.769531-.164063-1.398438-.269531-.226562-.035156-.453124-.070313-.683593-.101563zm-7.453125.164063c-.253906.058594-.503906.125-.753906.195312-.246094.074219-.488282.152344-.722657.234375-.230469.082031-.457031.167969-.683593.261719-.214844.085938-.429688.179688-.640626.277344.320313-.050782.644532-.097656.96875-.140625.324219-.042969.648438-.082031.972657-.113281l.003906-.003907c.265625-.261719.550781-.5.855469-.710937zm-3.785156.074218c-.265626.050782-.476563.097657-.636719.132813l.074219.28125c.183593-.144531.371093-.28125.5625-.414063m12.417968 1.363282-.273437 1.929687c-.003907.015625-.007813.03125-.019531.046875-.007813.015625-.019532.027344-.035157.039063l-.378906.265625-.652344.457031c-.023437.015625-.050781.023437-.082031.019531h-.003906l-3.109375-.351562c-.050781-.007813-.09375-.042969-.105469-.089844l-.195312-.640625-.367188-1.203125c-.113281-.027344-.355469-.085938-.613281-.113281-.085938-.011719-.171875-.015625-.257813-.015625-.171875 0-.351562.023437-.507812.050781s-.292969.058594-.367188.078125l-.558594 1.84375c-.007812.023438-.019531.042969-.035156.054688-.015625.015624-.035156.027343-.058594.03125l-3.109374.691406c-.027344.007812-.050782.003906-.074219-.007813-.007813-.003906-.019531-.003906-.027344-.011719l-.605469-.421874-.425781-.300782c-.027344-.019531-.046875-.050781-.050781-.085937l-.21875-1.761719-.0625-.496094c-.113282.023438-.21875.046875-.3125.066406-.066406.035157-.128906.070313-.195313.105469l.296875 2.394531 1.5 1.050782 3.78125-.84375.558594-1.839844c.007812-.023438.023438-.042969.039062-.058594.019532-.015625.039063-.027344.0625-.03125.140626-.019531.265626-.03125.371094-.03125.101563 0 .226563.011719.367188.035156.023437 0 .046875.011719.0625.027344h.003906c.015625.015625.027344.035156.035156.058594l.574219 1.886719 3.804687.433593 1.457032-1.023437.304687-2.132813c-.171875-.035156-.34375-.070312-.515625-.105468zm0 0" fill="#656c67"/><path d="m9.738281 9.128906c-.222656 0-.445312.003906-.664062.007813h-.007813c-.214844.003906-.433594.011719-.648437.019531-.40625.015625-.808594.039062-1.214844.070312-.171875.082032-.34375.171876-.511719.261719l-.011718.003907c-.132813.070312-.261719.144531-.394532.222656-.214844.125-.335937.203125-.34375.207031l-.371094.25-.371093.246094.300781-.429688.210938-.300781c.082031-.121094.171874-.238281.265624-.347656-.382812.042968-.761718.089844-1.140624.148437-.035157.003907-.070313.011719-.109376.015625-.316406.046875-.609374.097656-.859374.144532l.128906 1.035156.148437 1.179687.9375.660157 2.988281-.664063.277344-.921875.28125-.921875c.003906-.015625.011719-.027344.023438-.039063.007812-.011718.019531-.023437.03125-.03125.011718-.003906.019531-.011718.03125-.011718.007812-.003906.125-.035156.289062-.070313.121094-.023437.242188-.046875.367188-.0625h.003906l.546875-.332031c.164063-.097656.324219-.210938.472656-.332031-.105469-.003907-.21875-.003907-.324219-.003907-.109374 0-.222656-.003906-.332031-.003906m2.601563.101563c-.289063.097656-.582032.1875-.875.265625-.238282.0625-.480469.117187-.722656.167968-.417969.085938-.691407.117188-.71875.121094h-.039063l-.03125.003906c.195313.015626.382813.050782.527344.082032s.238281.058594.25.0625c.019531.003906.035156.015625.050781.03125s.027344.03125.03125.050781l.558594 1.835937 2.984375.335938.945312-.664062.269531-1.882813c-.472656-.085937-.949218-.160156-1.425781-.222656-.277343-.039063-.554687-.070313-.832031-.101563-.324219-.03125-.648438-.0625-.972656-.085937m.140625.484375c.046875 0 .097656.003906.144531.019531.046875.011719.089844.03125.136719.058594.042969.027343.085937.058593.125.097656.042969.039063.082031.085937.117187.132813.035156.050781.066406.101562.09375.15625.03125.054687.054688.117187.078125.179687l.003907.011719c.023437.0625.042968.128906.054687.199218.015625.070313.027344.144532.03125.21875.007813.074219.007813.144532 0 .21875-.003906.027344-.011719.058594-.019531.085938-.007813.027344-.015625.050781-.027344.074219.089844-.011719.164062-.003907.222656.015625.058594.015625.101563.042968.136719.070312.03125.03125.050781.058594.066406.085938.011719.023437.019531.039062.019531.042968-.03125-.015624-.0625-.027343-.097656-.035156-.035156-.003906-.070312-.011718-.105468-.011718-.070313-.003907-.144532.007812-.230469.019531-.085938.011719-.175781.027343-.28125.042969-.117188.015624-.230469.027343-.347657.027343-.097656.003907-.191406.007813-.273437 0h-.003906c-.039063-.003906-.078125-.007812-.117188-.019531h-.003906c-.035156-.007812-.070313-.023438-.105469-.039062-.035156-.019532-.0625-.042969-.089844-.070313-.027343-.035156-.050781-.070313-.070312-.109375-.019531-.046875-.039062-.097656-.046875-.148438-.011719-.066406-.019531-.132812-.023437-.199218 0-.074219 0-.148438.007812-.222656.003906-.070313.011719-.140626.027344-.207032.078125-.398437.289062-.683594.578125-.695312m-5.628907.148437s.003907.003907.003907.003907c.046875 0 .089843.003906.136719.019531.042968.011719.085937.035156.125.0625.121093.082031.214843.21875.285156.394531v.003906c.023437.058594.042968.117188.058594.179688v.003906c.015624.066406.03125.136719.039062.203125v.003906c.007812.074219.011719.148438.011719.21875v.003907c.003906.066406 0 .132812-.011719.195312-.007812.050781-.019531.101562-.039062.148438-.015626.039062-.039063.070312-.066407.101562-.125.136719-.339843.125-.582031.128906-.039062 0-.078125 0-.113281 0-.042969 0-.085938 0-.125 0-.1875 0-.339844-.003906-.46875.003906l-.007813.003907c-.0625.003906-.125.011719-.1875.027343-.058594.011719-.113281.035157-.164062.0625 0-.003906.007812-.019531.023437-.042968.011719-.019532.035157-.050782.066407-.078125l.003906-.003907v-.003906c.039062-.035156.082031-.066406.128906-.09375.027344-.015625.058594-.03125.097656-.046875.035156-.015625.074219-.027343.113282-.035156 0-.003906 0-.003906 0-.003906-.019532-.046875-.035157-.09375-.042969-.140625l-.003907-.011719c-.007812-.0625-.015624-.128906-.019531-.191406 0-.003907 0-.003907 0-.007813v-.007812c0-.070313 0-.144532.011719-.214844.007812-.066406.019531-.132812.039062-.199219l.003907-.011719c.019531-.066406.039062-.125.066406-.183593.027344-.058594.058594-.113281.09375-.164063.035156-.046875.070313-.089844.109375-.128906s.082031-.074219.128906-.105469l.007813-.003906c.042969-.027344.085937-.046875.128906-.0625l.007813-.003906c.046874-.011719.089843-.019531.136718-.019531zm0 0" fill="#c7b39a"/><path d="m12.683594 4.964844c-.121094.109375-.285156.25-.453125.371094-.003907.058593-.011719.121093-.015625.179687-.011719.089844-.027344.179687-.042969.265625v.003906c-.042969.199219-.109375.433594-.214844.660156l.035157.003907c.183593.011719.363281.03125.542968.046875-.003906-.019532-.003906-.039063 0-.0625.039063-.136719.066406-.277344.089844-.417969.019531-.132813.035156-.265625.046875-.402344.007813-.128906.011719-.25.015625-.359375 0-.097656 0-.195312-.003906-.289062zm-5.988282 0v.019531.242187.046876c0 .097656.003907.207031.015626.320312v.035156c.011718.132813.027343.269532.046874.398438.023438.132812.050782.269531.085938.398437v.007813c.007812.019531.007812.042968 0 .0625h.003906c.195313-.019532.386719-.039063.578125-.054688-.027343-.054687-.050781-.109375-.074219-.167968-.023437-.0625-.042968-.121094-.0625-.179688-.03125-.101562-.058593-.207031-.078124-.3125-.019532-.085938-.03125-.175781-.042969-.265625-.007813-.058594-.011719-.121094-.015625-.179687-.078125-.058594-.15625-.117188-.230469-.179688-.070313-.054688-.136719-.113281-.203125-.171875-.007812-.007813-.015625-.015625-.023438-.019531" fill="#ebd599"/><path d="m12.480469 9.714844c-.386719.015625-.632813.515625-.613281 1.125.023437.605468.347656.601562.734374.585937.519532-.007812.804688-.167969 1.0625-.042969-.003906-.011718-.085937-.257812-.445312-.214843.042969-.089844.0625-.210938.046875-.378907-.046875-.605468-.398437-1.085937-.785156-1.074218m-5.628907.148437c-.386718.003907-.761718.503907-.738281 1.109375.007813.15625.03125.273438.066407.355469-.335938.082031-.429688.292969-.433594.304687.210937-.113281.453125-.097656.828125-.097656h.125.113281c.386719-.003906.707031.03125.699219-.578125-.003907-.605469-.273438-1.097656-.660157-1.09375m5.59375.234375s.003907.003906.007813.003906c.023437 0 .050781.003907.074219.015626.019531.007812.039062.019531.054687.035156l.003907.003906c.015624.015625.03125.035156.039062.058594l.003906.003906c.011719.023438.015625.046875.015625.074219 0 .027343-.003906.050781-.011719.074219v.003906h-.003906c-.007812.023437-.023437.042968-.039062.0625-.035156.039062-.085938.058594-.136719.0625-.027344 0-.054687-.007813-.078125-.015625-.023438-.007813-.042969-.023438-.0625-.039063l-.003906-.003906c-.011719-.011719-.023438-.027344-.03125-.042969-.015625-.027343-.027344-.058593-.027344-.09375 0-.039062.011719-.070312.027344-.097656.007812-.015625.015625-.027344.023437-.035156v-.003907c.003907-.003906.007813-.007812.011719-.011718.015625-.011719.03125-.023438.050781-.03125.003907-.003906.011719-.003906.015625-.007813.019532-.007812.035156-.011719.054688-.011719.003906 0 .007812-.003906.011718-.003906m-5.539062.148438c.273438-.019532.285156.394531.015625.394531-.003906 0-.003906 0-.003906 0-.003907 0-.007813 0-.007813 0-.019531 0-.039062-.003906-.054687-.007813-.011719-.003906-.019531-.007812-.03125-.015624-.011719-.003907-.019531-.011719-.03125-.019532-.046875-.035156-.078125-.089844-.078125-.148437-.003906-.0625.023437-.113281.066406-.152344.011719-.011719.027344-.019531.042969-.027344.003906-.003906.011719-.003906.015625-.007812.019531-.007813.042968-.011719.066406-.015625zm0 0" fill="#2d3136"/><path d="m12.445312 10.097656c-.109374.003906-.199218.09375-.195312.203125 0 .109375.09375.195313.199219.191407.109375 0 .199219-.089844.195312-.199219 0-.109375-.089843-.195313-.199219-.195313m-5.539062.148438c-.070312 0-.136719.039062-.171875.101562s-.035156.140625.003906.203125c.039063.058594.105469.09375.179688.089844.105469-.003906.191406-.09375.1875-.203125 0-.105469-.089844-.191406-.199219-.191406zm0 0" fill="#edf6fa"/><path d="m8.140625 2.105469v.882812h.433594v-.449219h.894531v2.722657h-.367188v.503906h1.246094v-.503906h-.367187v-2.722657h.894531v.449219h.433594v-.882812zm0 0" fill="#cb3349"/><path d="m16.71875 12.105469c-.191406.183593-.53125.4375-.882812.351562-.015626.074219-.027344.144531-.050782.238281.203125.050782.539063.085938.699219.054688.070313-.074219.15625-.335938.234375-.644531m-14 .253906c.089844.320313.191406.59375.261719.664063.175781.03125.566406-.023438.761719-.078126-.019532-.0625-.039063-.128906-.058594-.191406l-.230469-.160156c-.328125.128906-.582031-.058594-.734375-.234375m12.789062.230469-.125.089844-.339843.238281-.367188.257812c-.027343.015625-.058593.023438-.085937.023438l-3.667969-.417969-.050781-.007812c.046875.082031.136718.167968.324218.214843.402344.105469 2.957032.746094 3.242188.695313.222656-.042969.695312-.359375.894531-.5.039063-.109375.074219-.21875.109375-.332032.023438-.085937.046875-.171874.066406-.261718m-6.957031.164062-3.640625.808594c-.007812.003906-.019531.003906-.027344.003906-.027343 0-.050781-.007812-.070312-.023437l-.144531-.097657-.425781-.296874v-.003907l-.171876-.117187c.011719.035156.027344.074218.039063.113281.050781.136719.105469.277344.164063.410156.238281.144531.550781.320313.722656.34375.285156.039063 2.8125-.710937 3.210937-.835937.246094-.074219.324219-.210938.34375-.304688m2.796875 4.371094c-.5.152344-1.453125.382812-2.328125.230469-.226562.074219-.40625.101562-.421875.101562-.035156.007813-.070312.011719-.109375.019531.492188.132813.992188.191407 1.484375.15625.625-.039062 1.238282-.179687 1.816406-.414062-.148437-.011719-.300781-.042969-.441406-.09375" fill="#c7b39a"/><path d="m9.691406.0742188c-1.53125 0-3 .5000002-4.25 1.4492192-1.210937.917968-2.128906 2.234374-2.664062 3.71875-.191406.070312-.382813.148437-.566406.234374-.226563.109376-.449219.230469-.65625.390626l-.039063.03125-.011719.050781c-.019531.066406-.035156.132812-.046875.199219-.011719.066406-.023437.128906-.03125.195312-.019531.128906-.03125.261719-.039062.390625-.011719.261719-.003907.527344.023437.785156.027344.261719.078125.523438.144532.777344.039062.125.078124.253906.128906.378906.035156.09375.078125.1875.125.277344l.027344.046875c.007812.015625.015624.027344.03125.050781l.027343.039063.039063.023437c.046875.023438.082031.039063.121094.058594l.117187.050781c.023437.011719.042969.019532.0625.027344-.527344.492188-1.105469 1.128906-1.605469 1.917969l-.628906.992187.886719-.777344c.011719-.011718.753906-.65625 1.992187-1.382812l.015625.144531c-.078125.039063-.46875.246094-.582031.339844-.191406.160156-.203125.40625-.152344.867187.027344.238282.117188.695313.234375 1.117188.207031.722656.355469.851562.488281.878906.0625.015625.136719.023438.226563.023438.234375 0 .539063-.046875.738281-.105469.230469.722656.558594 1.375.960938 1.945313l-.058594.015624c-.242188-.109374-1.082031-.5-1.367188-.628906l-.59375-.265625.351563.546875c.027344.039063.628906.984375 1.125 1.617188.460937.59375 1.09375 1.199218 2.289063 1.199218.148437 0 .296874-.007812.449218-.023437.273438-.03125.550782-.066406.824219-.101563 1.253906.460938 2.636719.488282 3.949219-.007812.339844-.128906.671875-.292969.984375-.484375.003906-.003906.011719-.003906.019531-.003906.484375-.117188 1.039062-.25 1.3125-.328125.042969-.011719.097656-.023438.15625-.039063.378906-.085937 1.015625-.234375 1.355469-.910156.339843-.6875.898437-1.734375.90625-1.746094l.257812-.488281-.507812.21875c-.027344.011719-.667969.292969-1.003907.46875-.011718.007812-.023437.011719-.039062.019531.269531-.554687.410156-.996093.457031-1.167969.1875.046876.464844.039063.667969.039063.089844 0 .183594-.011719.269531-.035156.132813-.03125.234375-.121094.429688-.867188.109375-.433593.191406-.90625.214843-1.148437.042969-.472656.027344-.726563-.164062-.886719-.097656-.078125-.378906-.230469-.523438-.304687l.007813-.050782c.074219.015625.113281.027344.117187.027344l.128907-.496094c.046875-.019531.097656-.039062.148437-.058594.078125-.03125.15625-.0625.234375-.097656l.117188-.050781c.042969-.019531.078125-.035156.121093-.058594l.042969-.023437.027344-.039063c.011719-.023437.019531-.035156.03125-.050781l.023437-.046875c.019532-.03125.035157-.0625.046876-.09375.03125-.0625.054687-.125.082031-.1875.046875-.121094.089843-.25.125-.375.070312-.253906.117187-.515625.144531-.777344.03125-.257812.039062-.523437.023438-.785156-.003907-.128906-.019532-.261719-.035157-.390625-.007812-.066406-.019531-.128906-.03125-.195312-.015625-.066407-.03125-.132813-.046875-.199219l-.015625-.050781-.035156-.027344c-.207031-.164063-.429687-.285156-.65625-.394532-.1875-.085937-.375-.164062-.570313-.234374-.53125-1.484376-1.453124-2.800782-2.660156-3.71875-1.25-.949219-2.71875-1.4492192-4.25-1.4492192m0 .3359372c2.84375 0 5.449219 1.855469 6.539063 4.707032-.152344-.050782-.304688-.09375-.460938-.132813-.238281-.0625-.480469-.117187-.722656-.15625.117187.039063.230469.082031.347656.125.113281.042969.226563.089844.339844.132813.226563.09375.453125.1875.671875.289062s.4375.210938.644531.332031c.191407.109375.375.230469.535157.363281.007812.042969.015624.085938.019531.128907.007812.0625.015625.121093.019531.183593.011719.121094.015625.242188.015625.363282.003906.246094-.011719.488281-.042969.730468-.035156.242188-.078125.484376-.144531.714844-.03125.117188-.070313.230469-.113281.34375-.019532.054688-.042969.109375-.066406.164063-.011719.023437-.027344.050781-.039063.078125l-.015625.027344c-.019531.011718-.035156.019531-.054688.027343l-.109374.050781c-.035157.019532-.074219.035157-.113282.054688l.191406-.730469c-.042968-.011719-.464843-.121093-1.1875-.257812.023438-.003907.046876-.007813.066407-.011719.152343-.039062.296875-.085938.441406-.140625.070313-.03125.140625-.066406.207031-.101563.070313-.039062.132813-.082031.183594-.140624-.722656.238281-2.214844.128906-3.546875-.007813-1.214844-.125-2.429687-.207031-3.65625-.207031-1.222656 0-2.441406.082031-3.65625.207031-1.328125.136719-2.820313.246094-3.546875.007813.050781.058593.117188.101562.183594.140624.066406.039063.136718.070313.210937.101563.140625.054687.289063.101563.4375.140625.054688.011719.109375.023438.160157.03125-.65625.125-1.039063.226562-1.082032.238281l.199219.765625c0 .003906-.003906.007813-.007813.007813-.070312-.027344-.152343-.070313-.214843-.097657l-.109375-.050781c-.015625-.007812-.035156-.015625-.054688-.027343l-.015625-.027344c-.039062-.078125-.074219-.160156-.105469-.242188-.042968-.113281-.078124-.226562-.109374-.34375-.066407-.230468-.109376-.472656-.144532-.714844-.03125-.242187-.046875-.484374-.046875-.730468.003907-.121094.007813-.242188.015625-.363282.007813-.0625.015625-.121093.019532-.183593.007812-.042969.011718-.085938.019531-.128907.164062-.132812.347656-.253906.535156-.363281.210937-.121093.425781-.230469.644531-.332031s.445313-.195312.671875-.289062c.113281-.042969.226563-.089844.34375-.132813.113281-.042969.230469-.085937.34375-.125-.242187.039063-.484375.09375-.722656.15625-.152344.039063-.308594.082031-.460937.132813 1.089843-2.851563 3.695312-4.707032 6.542968-4.707032m-2.15625.953125c-.734375 1.277344-.761718 2.820313-.746094 3.359375-.039062-.039062-.074218-.074218-.113281-.109375 0-.003906-.003906-.003906-.003906-.003906 0-.003906-.003906-.003906-.003906-.003906 0-.003907-.003907-.003907-.003907-.003907-.003906-.003906-.011718-.007812-.015624-.007812-.003907-.003906-.003907-.003906-.007813-.007812-.007813 0-.011719-.003907-.019531-.003907-.003906 0-.003906-.003906-.003906-.003906-.011719 0-.019532 0-.027344 0-.003906 0-.003906 0-.007813 0-.007812 0-.011719 0-.019531.003906h-.003906l-1.632813.464844c-.011719-.335937-.019531-1.765625.730469-2.96875-.027344.027344-.863281.984375-.921875 3.023437l-.261719.074219c-.046875.011719-.082031.050781-.085937.09375-.160157.972657-.070313 1.652344-.066407 1.679688 0 .003906.003907.011719.003907.015625-.019531.007812-.042969.011718-.0625.019531-.25.082031-.496094.167969-.722657.300781.121094-.046875.246094-.082031.371094-.113281s.25-.058594.378906-.082031c.253907-.050782.507813-.089844.765626-.121094.253906-.035156.511718-.0625.765624-.082031.257813-.023438.515626-.042969.773438-.058594 1.03125-.0625 2.0625-.082031 3.097656-.082031 1.03125 0 2.066406.015625 3.097656.082031.257813.015625.511719.035156.769532.058594.257812.019531.511718.046875.769531.082031.257813.03125.511719.070312.765625.121094.125.023437.25.050781.378906.082031.125.03125.25.066406.371094.113281-.226562-.132812-.476562-.21875-.726562-.300781-.019532-.007813-.039063-.011719-.0625-.019531.003906-.003906.003906-.011719.003906-.015625.003906-.027344.097656-.707031-.0625-1.679688-.007813-.046875-.042969-.082031-.085938-.09375l-.265625-.074219c-.054687-2.039062-.894531-2.996093-.921875-3.023437.75 1.203125.746094 2.632813.730469 2.964844l-1.632813-.460938s0 0-.003906 0c-.003906-.003906-.011718-.003906-.019531-.003906h-.003906c-.011719 0-.019531 0-.027344 0-.003906 0-.003906.003906-.003906.003906-.007813 0-.015625.003907-.023438.003907 0 .003906-.003906.003906-.007812.003906-.003907.003906-.007813.007812-.015625.011718 0 0 0 .003907-.003906.003907 0 0 0 0-.003907.003906 0 0-.003906 0-.003906.003906-.035156.035157-.074219.070313-.113281.109375.015625-.539062-.007813-2.082031-.742188-3.359375.015625.042969.597656 1.75.394532 3.65625-.0625.054688-.132813.105469-.199219.148438-.03125.023437-.050781.058593-.054688.101562 0 .003907-.011719.613281-.28125 1.132813-.003906.007812-.007812.015625-.007812.023437-.671875-.046875-1.339844-.066406-2.007813-.066406-.671875 0-1.339844.019531-2.007812.066406-.003906-.007812-.007813-.019531-.011719-.023437-.269531-.519532-.28125-1.128906-.28125-1.132813 0-.042969-.023437-.078125-.054687-.101562-.066407-.042969-.132813-.09375-.199219-.148438-.203125-1.90625.382812-3.613281.398437-3.65625zm.277344.417969v1.53125h1.085938v-.445312h.246093v2.066406h-.367187v1.15625h1.898437v-1.15625h-.371093v-2.066406h.246093v.445312h1.085938v-1.53125zm.328125.324219h3.167969v.882812h-.433594v-.449219h-.894531v2.71875h.367187v.507813h-1.246094v-.507813h.367188v-2.71875h-.894531v.449219h-.433594zm-1.683594 2.753906c-.015625.3125-.023437.992187.15625 1.640625 0 .007812.003907.015625.007813.019531-.019532.003907-.035156.003907-.054688.007813-.257812.03125-.519531.0625-.777344.105468-.257812.046876-.515624.09375-.769531.148438-.152343.035156-.308593.074219-.460937.117188-.011719-.109376-.070313-.703126.054687-1.511719zm6.464844 0 1.847656.527344c.125.808593.066407 1.402343.054688 1.511719-.15625-.042969-.308594-.078126-.464844-.117188-.507813-.109375-1.027344-.195312-1.546875-.253906-.015625 0-.035156-.003906-.054688-.003906.003907-.007813.007813-.015626.011719-.023438.175781-.648438.167969-1.328125.152344-1.640625m-.238281.105469c.011718.324218.003906.917968-.148438 1.46875-.003906.023437-.003906.042968 0 .0625-.191406-.019532-.386718-.035156-.578125-.050782.214844-.457031.261719-.941406.273438-1.109374.167969-.121094.332031-.261719.453125-.371094m-5.988282 0c.121094.109375.289063.25.457032.371094.007812.167968.054687.652343.273437 1.105468-.195312.015625-.386719.035156-.582031.054688.007812-.019532.007812-.039063 0-.0625-.148438-.550782-.15625-1.144532-.148438-1.46875m2.945313 2.808594c.210937 0 .417969.003906.625.003906-.339844.078125-.679687.164062-1.011719.269531-1.082031.332031-2 .761719-2.625 1.089844.699219-.667969 1.4375-1.039063 1.523438-1.082031l.007812-.003907.5625-.269531c.308594-.003906.613282-.007812.917969-.007812zm-2.0625.042968c-.355469.066406-.710937.152344-1.0625.25-2.164063.605469-3.914063 1.65625-4.921875 2.355469 1.035156-1.238281 2.542969-2.183594 2.9375-2.421875.042969-.003906.085938-.007812.125-.011719.152344-.015625.300781-.027343.453125-.039062.300781-.023438.601563-.046875.90625-.0625.519531-.027344 1.042969-.054688 1.5625-.070313m4.460937.011719c.410157.015625.820313.035156 1.230469.058594.296875.015625.589844.039062.882813.058593h.003906c-.03125.023438-.058594.046876-.089844.066407-1.207031.839843-2.597656 1.199219-3.402344 1.339843.566407-.46875 1.011719-1.023437 1.234376-1.324218.046874-.066406.09375-.132813.140624-.199219zm-.476562.082031c-.03125.035156-.0625.078125-.09375.121094-.21875.273438-.453125.53125-.703125.773438-.339844-.007813-.683594-.011719-1.027344-.011719-.578125 0-1.136719.011719-1.667969.039062.75-.308593 1.648438-.613281 2.621094-.796875.289063-.054687.578125-.097656.871094-.125m3.074219.171875c.976562.136719 1.691406.285157 2.082031.371094l-.269531 1.015625c-.546875-.121094-1.75-.355469-3.386719-.515625.535156-.230469 1.078125-.515625 1.574219-.871094zm-7.453125.164063c-.304688.214844-.59375.453125-.859375.714844-.652344.066406-1.296875.148437-1.941407.253906.828126-.382813 1.773438-.730469 2.800782-.96875m-3.785156.074218c-.191407.132813-.378907.269532-.5625.414063l-.074219-.28125c.210937-.046875.421875-.089844.636719-.132813m6.339843.808594c.222657 0 .441407.003906.65625.007813-.148437.121093-.308593.234375-.472656.332031l-.546875.332031c-.34375.042969-.644531.128907-.660156.132813-.011719 0-.019532.007812-.027344.011718-.027344.015626-.050781.042969-.058594.070313l-.558594 1.84375-2.988281.664063-.941406-.660157-.269531-2.214843c.53125-.101563 1.246094-.214844 2.105468-.308594-.09375.109375-.183593.226562-.265624.347656l-.511719.730469.742187-.496094c.011719-.007813.488282-.320313 1.261719-.695313.84375-.066406 1.691406-.097656 2.535156-.097656zm2.601563.101563c1.363281.101562 2.472656.269531 3.230468.410156l-.269531 1.882813-.945312.664062-2.984375-.335938-.558594-1.835937c-.011719-.039063-.042969-.070313-.082031-.082031-.019531-.007813-.386719-.113282-.78125-.144532l.074219-.007812c.058593-.003906 1.089843-.128906 2.316406-.550781m3.476562.453125.515625.105468-.304687 2.132813-1.457032 1.023437-3.804687-.433593-.574219-1.886719c-.011718-.046875-.050781-.082031-.101562-.089844-.140625-.019531-.265625-.03125-.367188-.03125-.105468 0-.230468.011719-.371094.03125-.046874.007813-.085937.042969-.101562.089844l-.558594 1.839844-3.78125.84375-1.5-1.050782-.296875-2.394531c.066407-.035156.128907-.070312.195313-.109375.09375-.019531.199218-.039062.3125-.0625l.28125 2.257813c.003906.035156.023437.066406.050781.085937l1.03125.722656c.03125.019532.066406.027344.101563.019532l3.109374-.691406c.042969-.011719.078126-.042969.09375-.085938l.558594-1.84375c.152344-.039062.535156-.128906.875-.128906.335938 0 .722656.089844.871094.128906l.5625 1.84375c.011719.046875.054688.082031.105469.089844l3.109375.351562c.03125.003906.0625-.003906.085937-.023437l1.03125-.71875c.03125-.019531.050781-.050781.054688-.085938zm.703125.574218c.152344.082032.308594.171876.351563.210938.046875.039062.082031.136719.042968.589844-.050781.558594-.285156 1.535156-.429687 1.691406-.160156.03125-.496094-.003906-.699219-.054688.035156-.140624.046875-.207031.074219-.351562l.355469-.25c.03125-.019531.050781-.050781.054687-.082031zm-13.578125.246094.226563 1.839844c.003906.035156.023437.066406.050781.085938l.464844.324218c.019531.0625.035156.128906.058594.191406-.195313.054688-.585938.109376-.761719.078126-.148438-.148438-.421875-1.167969-.484375-1.707032-.046875-.4375-.011719-.535156.03125-.570312.050781-.042969.246094-.152344.414062-.242188zm6.78125.25c.070313 0 .15625.003906.253906.019532l.574219 1.890624c.011719.046876.054688.082032.101563.085938l.269531.03125 3.667969.417969c.027344 0 .058594-.007813.085937-.023438l.367188-.257812.339843-.238281.125-.089844c-.019531.089844-.042968.175781-.066406.261718-.175781.5625-.382812 1.058594-.613281 1.5-.050781.003907-.101563.003907-.160156.003907-.175781 0-.359375-.015625-.558594-.03125-.347656-.035157-.902344-.097657-1.074219-.117188-.152344-.121093-.667968-.527343-1.09375-.863281-.015625-.015625-.03125-.027344-.046875-.039062-.074219-.066407-.160156-.136719-.332031-.136719-.160156 0-.390625.058593-.945312.226562.289062-.21875.289062-.496093.289062-.496093s-.410156.382812-1.074219.46875c-.664062.085937-1.1875-.324219-1.1875-.324219.023438.070312.054688.230469.203125.367187-.1875-.023437-.375-.035156-.566406-.035156-.074219 0-.144531.003906-.214844.007812-.410156.019532-.984375.636719-1.390625 1.261719-.507812.160157-1.019531.316407-1.53125.46875-.671875-.925781-1-1.875-1.035156-1.972656-.011719-.039063-.027344-.078125-.039063-.113281l.171876.117187v.003907l.425781.296874.144531.097657c.019531.015625.042969.023437.070312.023437.007813 0 .019532 0 .027344-.003906l3.910156-.871094c.042969-.007812.078126-.039062.089844-.082031l.558594-1.835937c.082031-.011719.167969-.019532.253906-.019532m1.839844 2.800782c.03125 0 .03125 0 .082031.042968l.058594.046875c.503906.398438 1.125.894531 1.132813.898438l.042968.035156.054688.007813c.007812 0 .71875.082031 1.140625.121093.210937.019531.398437.035157.59375.035157.324219 0 .578125-.046876.769531-.148438.15625-.082031.3125-.15625.46875-.226562-.21875.414062-.433594.835937-.648438 1.253906-.257812.515625-.742187.628906-1.097656.710937-.058594.015625-.117187.027344-.171875.042969-.265625.074219-.816406.207031-1.300781.320312-.132812.035157-.261719.066407-.382812.09375-.125.03125-.253907.046876-.382813.046876-.359375 0-.671875-.128907-.929687-.386719-.25-.246094-.484376-.503907-.710938-.769531l-.144531-.171876s-.042969-.058593-.070313-.078124v-.003907c-.019531.019531-.027344.078125-.027344.078125l-.089843.234375c0 .003907-.050781.136719-.296875.6875-.238282.539063-1.09375.648438-1.101563.648438-.050781.007812-.089843.011719-.136719.023437-.144531.023438-.414062.070313-1.457031.1875-.136719.015625-.273437.023438-.402343.023438-1.027344 0-1.558594-.503906-1.984376-1.046875-.242187-.3125-.519531-.710938-.734374-1.03125.394531.183593.8125.375.820312.378906l.0625.03125.070312-.019531c.695313-.199219 1.386719-.410156 2.074219-.632813l.066407-.019531.035156-.058594c.582031-.921875 1.039062-1.136718 1.121094-1.144531.0625 0 .128906-.003906.195312-.003906.808594 0 1.484375.25 1.492188.253906l.0625.023437.0625-.019531c1.03125-.320312 1.5-.464843 1.664062-.464843zm-1.371094 2.609374c.101563.117188.210938.234376.320313.347657-.097657.015625-.191407.027343-.289063.035156-.058594.003906-.125.007813-.183594.007813h-.023437c.058594-.128907.117187-.257813.175781-.390626m.480469.515626.046875.046874c.296875.292969.667969.460938 1.070312.492188-.578124.234375-1.191406.375-1.816406.414062-.492187.035157-.992187-.023437-1.484375-.15625.042969-.007812.074219-.015624.109375-.019531.039063-.003906.917969-.117187 1.3125-.707031h.136719c.066406 0 .125-.003906.1875-.007812.148437-.011719.296875-.035157.4375-.0625" fill="#2d3136"/><g mask="url(#b)"><g clip-path="url(#c)"><path d="m7.4375 1.730469-.042969.125c-.164062.648437-.398437 1.851562-.257812 3.164062.066406.054688.132812.105469.199219.148438.03125.023437.054687.058593.054687.101562 0 .003907.011719.613281.28125 1.132813.003906.003906.007813.015625.011719.023437.667968-.046875 1.335937-.066406 2.007812-.066406.667969 0 1.335938.019531 2.007813.066406 0-.007812.003906-.015625.007812-.023437.269531-.519532.285157-1.128906.285157-1.132813 0-.042969.019531-.078125.050781-.101562.066406-.042969.128906-.09375.195312-.144531l.007813-.019532c.140625-1.363281-.117188-2.613281-.28125-3.230468-.003906.25-.082032 4.046874-1.007813 4.046874h-.28125v.269532h-1.898437v-.269532h-.308594c-.953125 0-1.03125-4.089843-1.03125-4.089843zm5.132812 2.21875c0 .035156.003907.074219.007813.105469l.011719-.03125zm-6.113281.910156-1.84375.527344c-.117187.742187-.078125 1.285156-.058593 1.457031l.007812-.007812s.058594-.78125.183594-1.082032c.0625-.152344.449218-.25.742187-.320312.296875-.070313.765625-.210938.859375.203125.042969.210937.113282.417969.207032.613281-.117188-.566406-.109376-1.117188-.097657-1.390625zm6.464844 0c.015625.285156.019531.875-.113281 1.46875.085937-.164063.179687-.398437.242187-.691406.09375-.414063.5625-.273438.859375-.203125.292969.070312.679688.167968.746094.320312.109375.269532.164062.890625.175781 1.027344.019531-.21875.039063-.726562-.0625-1.394531zm2.152344 1.171875c.03125.542969-.011719.898438-.015625.917969 0 .007812 0 .011719-.003906.015625.023437.007812.042968.011718.0625.019531.1875.0625.371093.125.550781.207031-.300781-.175781-.492188-.738281-.59375-1.160156m-10.769531.003906c-.101563.417969-.289063.980469-.589844 1.15625.175781-.082031.363281-.144531.546875-.207031.019531-.007813.042969-.011719.0625-.019531 0-.003906-.003907-.011719-.003907-.015625-.003906-.019531-.042968-.375-.015624-.914063zm0 0" fill="#ebd599"/></g></g></svg>