<svg height="18" viewBox="0 0 18 18" width="18" xmlns="http://www.w3.org/2000/svg"><path d="m9.691406.0742188c-1.53125 0-3 .5000002-4.25 1.4492192-1.210937.917968-2.128906 2.234374-2.664062 3.71875-.191406.070312-.382813.148437-.566406.234374-.226563.109376-.449219.230469-.65625.390626l-.039063.03125-.011719.050781c-.019531.066406-.035156.132812-.046875.199219-.011719.066406-.023437.128906-.03125.195312-.019531.128906-.03125.261719-.039062.390625-.011719.261719-.003907.527344.023437.785156.027344.261719.078125.523438.144532.777344.039062.125.078124.253906.128906.378906.035156.09375.078125.1875.125.277344l.027344.046875c.007812.015625.015624.027344.03125.050781l.027343.039063.039063.023437c.046875.023438.082031.039063.121094.058594l.117187.050781c.023437.011719.042969.019532.0625.027344-.527344.492188-1.105469 1.128906-1.605469 1.917969l-.628906.992187.886719-.777344c.011719-.011718.753906-.65625 1.992187-1.382812l.015625.144531c-.078125.039063-.46875.246094-.582031.339844-.191406.160156-.203125.40625-.152344.867187.027344.238282.117188.695313.234375 1.117188.207031.722656.355469.851562.488281.878906.0625.015625.136719.023438.226563.023438.234375 0 .539063-.046875.738281-.105469.230469.722656.558594 1.375.960938 1.945313l-.058594.015624c-.242188-.109374-1.082031-.5-1.367188-.628906l-.59375-.265625.351563.546875c.027344.039063.628906.984375 1.125 1.617188.460937.59375 1.09375 1.199218 2.289063 1.199218.148437 0 .296874-.007812.449218-.023437.355469-.042969.621094-.074219.824219-.101563 1.253906.460938 2.636719.488282 3.949219-.007812.339844-.128906.671875-.292969.984375-.484375.003906-.003906.011719-.003906.019531-.003906.484375-.117188 1.039062-.25 1.3125-.328125.042969-.011719.097656-.023438.15625-.039063.378906-.085937 1.015625-.234375 1.355469-.910156.339843-.6875.898437-1.734375.90625-1.746094l.257812-.488281-.507812.21875c-.027344.011719-.667969.292969-1.003907.46875-.011718.007812-.027343.011719-.039062.019531.269531-.554687.410156-.996093.457031-1.167969.1875.046876.464844.039063.667969.039063.089844 0 .183594-.011719.269531-.035156.132813-.03125.234375-.121094.429688-.867188.109375-.433593.191406-.90625.214843-1.148437.042969-.472656.027344-.726563-.164062-.886719-.097656-.078125-.378906-.230469-.523438-.304687l.007813-.050782c.074219.015625.113281.027344.117187.027344l.128907-.496094c.046875-.019531.097656-.039062.148437-.058594.078125-.03125.15625-.0625.234375-.097656l.117188-.050781c.042969-.019531.078125-.035156.121093-.058594l.042969-.023437.027344-.039063c.011719-.023437.019531-.035156.03125-.050781l.023437-.046875c.019532-.03125.035157-.0625.046876-.09375.03125-.058594.054687-.121094.082031-.1875.046875-.121094.089843-.25.125-.375.070312-.257813.117187-.515625.144531-.777344.03125-.257812.039062-.523437.023438-.785156-.003907-.128906-.019532-.261719-.035157-.390625-.007812-.066406-.019531-.128906-.03125-.195312-.015625-.066407-.027343-.128907-.046875-.199219l-.015625-.050781-.035156-.027344c-.207031-.164063-.429687-.285156-.65625-.394532-.1875-.085937-.375-.164062-.570313-.234374-.53125-1.484376-1.453124-2.800782-2.660156-3.71875-1.25-.949219-2.71875-1.4492192-4.25-1.4492192m0 .3359372c2.84375 0 5.449219 1.855469 6.539063 4.707032-.152344-.050782-.304688-.09375-.460938-.132813-.238281-.0625-.480469-.117187-.722656-.15625.117187.039063.230469.082031.347656.125.113281.042969.226563.089844.339844.132813.226563.09375.453125.1875.671875.289062s.4375.210938.644531.332031c.191407.109375.375.230469.535157.363281.007812.042969.015624.085938.019531.128907.007812.0625.015625.121093.019531.183593.011719.121094.015625.242188.015625.363282.003906.246094-.011719.488281-.042969.730468-.035156.242188-.078125.484376-.144531.714844-.03125.117188-.070313.230469-.113281.34375-.019532.054688-.042969.109375-.066406.164063-.011719.023437-.027344.050781-.039063.078125l-.015625.027344c-.015625.011718-.035156.019531-.054688.027343l-.109374.050781c-.035157.019532-.074219.035157-.113282.054688l.191406-.730469c-.042968-.011719-.464843-.121093-1.1875-.257812.023438-.003907.046876-.007813.066407-.011719.152343-.039062.296875-.085938.441406-.140625.070313-.03125.140625-.066406.207031-.101563.066406-.039062.132813-.082031.183594-.140624-.722656.238281-2.214844.128906-3.546875-.007813-1.214844-.125-2.429687-.207031-3.65625-.207031-1.222656 0-2.441406.082031-3.65625.207031-1.328125.136719-2.820313.246094-3.546875.007813.050781.058593.117188.101562.183594.140624.066406.039063.136718.070313.210937.101563.140625.054687.289063.101563.4375.140625.054688.011719.109375.023438.160157.03125-.65625.125-1.039063.226562-1.082032.238281l.199219.765625c0 .003906-.003906.007813-.007813.007813-.070312-.027344-.152343-.070313-.214843-.097657l-.109375-.050781c-.015625-.007812-.035156-.015625-.054688-.027343l-.015625-.027344c-.011719-.027344-.023437-.054688-.035156-.078125-.023437-.054688-.046875-.109375-.070313-.164063-.042968-.113281-.078124-.226562-.109374-.34375-.066407-.230468-.109376-.472656-.144532-.714844-.03125-.242187-.046875-.484374-.046875-.730468.003907-.121094.007813-.242188.015625-.363282.007813-.0625.015625-.121093.019532-.183593.007812-.042969.011718-.085938.019531-.128907.164062-.132812.347656-.253906.535156-.363281.207031-.121093.425781-.230469.644531-.332031.222656-.101562.445313-.195312.671875-.289062.113281-.042969.226563-.089844.34375-.132813.113281-.042969.226563-.085937.34375-.125-.242187.039063-.484375.09375-.722656.15625-.152344.039063-.308594.082031-.460937.132813 1.089843-2.851563 3.695312-4.707032 6.542968-4.707032m-2.15625.953125c-.734375 1.277344-.761718 2.820313-.746094 3.359375-.039062-.039062-.074218-.074218-.113281-.109375 0-.003906-.003906-.003906-.003906-.003906l-.003906-.003906s-.003907-.003907-.003907-.003907c-.003906-.003906-.011718-.007812-.015624-.007812-.003907-.003906-.003907-.003906-.007813-.007812-.007813 0-.011719-.003907-.019531-.003907-.003906 0-.003906-.003906-.003906-.003906-.011719 0-.019532 0-.027344 0-.003906 0-.003906 0-.007813 0-.007812 0-.011719 0-.019531.003906h-.003906l-1.632813.464844c-.011719-.335937-.019531-1.765625.730469-2.96875-.027344.027344-.863281.984375-.921875 3.023437l-.261719.074219c-.046875.011719-.082031.050781-.085937.09375-.160157.972657-.070313 1.652344-.066407 1.679688 0 .003906.003907.011719.003907.015625-.019531.007812-.042969.011718-.0625.019531-.25.082031-.496094.167969-.722657.300781.121094-.046875.246094-.082031.371094-.113281s.25-.058594.378906-.082031c.253907-.050782.507813-.089844.765626-.121094.253906-.035156.511718-.0625.765624-.082031.257813-.023438.515626-.042969.773438-.058594 1.03125-.0625 2.0625-.082031 3.097656-.082031 1.03125 0 2.066406.015625 3.097656.082031.257813.015625.511719.035156.769532.058594.257812.019531.511718.046875.769531.082031.257813.03125.511719.070312.765625.121094.125.023437.25.050781.378906.082031.125.03125.25.066406.371094.113281-.226562-.132812-.476562-.21875-.726562-.300781-.019532-.007813-.039063-.011719-.0625-.019531.003906-.003906.003906-.011719.003906-.015625.003906-.027344.097656-.707031-.0625-1.679688-.007813-.042969-.042969-.082031-.085938-.09375l-.265625-.074219c-.054687-2.039062-.894531-2.996093-.921875-3.023437.75 1.203125.746094 2.632813.730469 2.964844l-1.632813-.460938s0 0-.003906 0c-.003906-.003906-.011718-.003906-.019531-.003906h-.003906c-.011719 0-.019531 0-.027344 0-.003906 0-.003906.003906-.003906.003906-.007813 0-.015625.003907-.023438.003907 0 .003906-.003906.003906-.007812.003906-.003907.003906-.007813.007812-.015625.011718 0 0 0 .003907-.003906.003907 0 0 0 0-.003907.003906 0 0-.003906 0-.003906.003906 0 0-.042969.042969-.113281.109375.015625-.539062-.007813-2.082031-.742188-3.359375.015625.042969.597656 1.75.394532 3.65625-.066407.054688-.132813.105469-.199219.148438-.03125.023437-.050781.058593-.050781.101562 0 .003907-.015626.613281-.285157 1.132813-.003906.007812-.007812.015625-.007812.023437-.671875-.046875-1.339844-.066406-2.007813-.066406-.671875 0-1.339844.019531-2.007812.066406-.003906-.007812-.007813-.019531-.011719-.023437-.269531-.519532-.28125-1.128906-.28125-1.132813 0-.042969-.023437-.078125-.054687-.101562-.066407-.042969-.132813-.09375-.199219-.148438-.203125-1.90625.382812-3.613281.398437-3.65625zm.277344.417969v1.53125h1.085938v-.445312h.246093v2.066406h-.367187v1.15625h1.898437v-1.15625h-.371093v-2.066406h.246093v.445312h1.085938v-1.53125zm.328125.324219h3.167969v.882812h-.433594v-.449219h-.894531v2.722657h.367187v.503906h-1.246094v-.503906h.367188v-2.722657h-.894531v.449219h-.433594zm-1.683594 2.753906c-.015625.3125-.023437.992187.15625 1.640625 0 .007812.003907.015625.007813.019531-.019532.003907-.035156.003907-.054688.007813-.257812.03125-.519531.0625-.777344.105468-.257812.046876-.515624.09375-.769531.148438-.152343.035156-.308593.074219-.460937.117188-.011719-.109376-.070313-.703126.054687-1.511719zm6.464844 0 1.847656.527344c.125.808593.066407 1.402343.054688 1.511719-.15625-.042969-.308594-.078126-.464844-.117188-.507813-.109375-1.027344-.195312-1.546875-.253906-.015625 0-.035156-.003906-.054688-.003906.003907-.007813.007813-.015626.011719-.023438.175781-.648438.167969-1.328125.152344-1.640625zm-.238281.105469c.011718.324218.003906.917968-.148438 1.46875-.003906.023437-.003906.042968 0 .0625-.191406-.019532-.386718-.035156-.578125-.050782.214844-.457031.261719-.941406.273438-1.109374.167969-.121094.332031-.261719.453125-.371094m-5.988282 0c.121094.109375.289063.25.457032.371094.007812.167968.054687.652343.273437 1.105468-.195312.015625-.386719.035156-.582031.054688.007812-.019532.007812-.039063 0-.0625-.148438-.550782-.15625-1.144532-.148438-1.46875m2.945313 2.808594c.210937 0 .417969.003906.625.003906-.339844.078125-.679687.164062-1.011719.269531-1.082031.332031-2 .761719-2.625 1.089844.699219-.667969 1.4375-1.039063 1.523438-1.082031l.007812-.003907.5625-.269531c.308594-.003906.613282-.007812.917969-.007812zm-2.0625.042968c-.355469.066406-.710937.152344-1.0625.25-2.164063.605469-3.914063 1.65625-4.921875 2.355469 1.035156-1.238281 2.542969-2.183594 2.9375-2.421875.042969-.003906.085938-.007812.125-.011719.152344-.015625.300781-.027343.453125-.039062.300781-.023438.601563-.042969.90625-.0625.519531-.027344 1.042969-.054688 1.5625-.070313m4.460937.011719c.410157.015625.820313.035156 1.230469.058594.296875.015625.589844.039062.882813.058593h.003906c-.03125.023438-.058594.046876-.089844.066407-1.207031.839843-2.597656 1.199219-3.402344 1.339843.566407-.46875 1.011719-1.023437 1.234376-1.324218.070312-.09375.117187-.164063.140624-.199219zm-.476562.082031c-.03125.039063-.0625.082032-.09375.121094-.21875.273438-.453125.53125-.703125.773438-.339844-.007813-.683594-.011719-1.027344-.011719-.578125 0-1.136719.011719-1.667969.039062.75-.308593 1.648438-.613281 2.621094-.796875.289063-.054687.578125-.097656.871094-.125m3.074219.171875c.976562.136719 1.691406.285157 2.082031.371094l-.269531 1.015625c-.546875-.121094-1.75-.355469-3.386719-.515625.535156-.230469 1.078125-.515625 1.574219-.871094zm-7.453125.164063c-.304688.214844-.59375.453125-.859375.714844-.652344.066406-1.296875.148437-1.941407.253906.828126-.382813 1.773438-.730469 2.800782-.96875m-3.785156.074218c-.191407.132813-.378907.269532-.5625.414063l-.074219-.28125c.160156-.035156.371093-.082031.636719-.132813m6.339843.808594c.222657 0 .441407.003906.65625.007813-.148437.121093-.308593.234375-.472656.332031l-.546875.332031c-.34375.042969-.644531.128907-.660156.132813-.011719 0-.019532.007812-.027344.011718-.027344.015626-.050781.042969-.058594.070313l-.558594 1.84375-2.988281.664063-.941406-.660157-.269531-2.214843c.53125-.101563 1.246094-.214844 2.105468-.308594-.09375.109375-.183593.226562-.265624.347656l-.511719.730469.742187-.496094c.011719-.007813.488282-.316406 1.261719-.695313.84375-.066406 1.691406-.097656 2.535156-.097656zm2.601563.101563c1.363281.101562 2.472656.269531 3.230468.410156l-.269531 1.882813-.945312.664062-2.984375-.335938-.558594-1.835937c-.011719-.039063-.042969-.070313-.082031-.082031-.019531-.007813-.386719-.113282-.78125-.144532l.074219-.007812c.058593-.003906 1.089843-.128906 2.316406-.550781m3.476562.453125c.207032.042968.382813.078125.515625.105468l-.304687 2.132813-1.457032 1.023437-3.804687-.433593-.574219-1.886719c-.011718-.046875-.050781-.082031-.101562-.089844-.140625-.019531-.265625-.03125-.367188-.03125-.105468 0-.230468.011719-.371094.03125-.046874.007813-.085937.042969-.101562.089844l-.558594 1.839844-3.78125.84375-1.5-1.050782-.296875-2.394531c.066407-.035156.128907-.070312.195313-.109375.09375-.019531.199218-.039062.3125-.0625l.28125 2.257813c.003906.035156.023437.066406.050781.085937l1.03125.722656c.023437.015626.046875.023438.070313.023438.011718 0 .019531 0 .03125-.003906l3.109374-.691406c.011719-.003907.019532-.007813.03125-.011719.027344-.015625.050782-.042969.0625-.074219l.558594-1.84375c.152344-.039062.535156-.128906.875-.128906.335938 0 .722656.089844.871094.128906l.5625 1.84375c.011719.046875.054688.082031.105469.089844l3.109375.351562c.03125.003906.0625-.003906.085937-.019531l1.03125-.722656c.03125-.019531.050781-.050781.054688-.085938zm-3.335937.03125c-.386719.015625-.632813.515625-.613281 1.125.023437.605468.347656.601562.734374.585937.519532-.007812.804688-.167969 1.0625-.042969-.003906-.011718-.085937-.257812-.445312-.214843.042969-.089844.0625-.210938.046875-.378907-.046875-.605468-.398437-1.085937-.785156-1.074218m-5.628907.148437c-.386718.003907-.761718.503907-.738281 1.109375.007813.15625.03125.273438.066407.355469-.335938.082031-.429688.292969-.433594.304687.210937-.113281.453125-.097656.828125-.097656h.125.113281c.386719-.003906.707031.03125.699219-.578125-.003907-.605469-.273438-1.097656-.660157-1.09375m5.59375.238281c.050782-.003906.101563.015626.140626.054688.035156.035156.058593.085938.058593.136719.003907.109375-.085937.199219-.191406.203125-.109375 0-.199219-.085938-.199219-.195313-.003906-.105469.082032-.195312.191406-.199219m-5.539062.144532c.074219-.003906.144531.03125.183594.089844.039062.0625.039062.140624.003906.207031-.035156.0625-.105469.101562-.179688.097656-.101562-.003906-.1875-.085937-.191406-.191406 0-.105469.078125-.195313.183594-.203125zm9.613281.011718c.152344.082032.308594.171876.351563.210938.046875.039062.082031.136719.042968.589844-.050781.558594-.285156 1.535156-.429687 1.691406-.160156.03125-.496094-.003906-.699219-.054688.035156-.136718.046875-.207031.074219-.351562l.355469-.25c.03125-.019531.050781-.050781.054687-.082031zm-13.578125.246094.226563 1.839844c.003906.035156.023437.066406.050781.085938l.464844.324218c.019531.0625.035156.128906.058594.191406-.195313.054688-.585938.109376-.761719.078126-.148438-.148438-.421875-1.167969-.484375-1.707032-.046875-.4375-.011719-.535156.03125-.570312.050781-.042969.246094-.152344.414062-.242188zm6.78125.25c.070313 0 .15625.003906.253906.019532l.574219 1.890624c.011719.046876.054688.082032.101563.085938l.269531.03125 3.667969.417969c.027344 0 .058594-.007813.085937-.023438l.367188-.257812.339843-.238281.125-.089844c-.019531.089844-.042968.175781-.066406.261718-.175781.5625-.382812 1.058594-.613281 1.5-.050781.003907-.101563.003907-.160156.003907-.175781 0-.359375-.015625-.558594-.03125-.347656-.035157-.902344-.097657-1.074219-.117188-.152344-.121093-.667968-.527343-1.09375-.863281-.015625-.015625-.03125-.027344-.046875-.039062-.074219-.066407-.160156-.136719-.332031-.136719-.160156 0-.390625.058593-.945312.226562.289062-.21875.289062-.496093.289062-.496093s-.410156.382812-1.074219.46875c-.664062.085937-1.1875-.324219-1.1875-.324219.023438.070312.054688.230469.203125.367187-.1875-.023437-.375-.035156-.566406-.035156-.074219 0-.144531.003906-.214844.007812-.410156.019532-.984375.636719-1.390625 1.261719-.507812.160157-1.019531.316407-1.53125.46875-.671875-.925781-1-1.875-1.035156-1.972656-.011719-.039063-.027344-.078125-.039063-.113281l.171876.117187v.003907l.425781.296874.144531.097657c.019531.015625.042969.023437.070312.023437.007813 0 .019532 0 .027344-.003906l3.910156-.871094c.042969-.007812.078126-.039062.089844-.082031l.558594-1.835937c.082031-.011719.167969-.019532.253906-.019532m1.839844 2.800782c.03125 0 .03125 0 .082031.042968l.058594.046875c.503906.398438 1.125.894531 1.132813.898438l.042968.035156.054688.007813c.007812 0 .71875.082031 1.140625.121093.210937.019531.398437.035157.59375.035157.324219 0 .578125-.046876.769531-.148438.15625-.082031.3125-.15625.46875-.226562-.21875.414062-.433594.835937-.648438 1.253906-.257812.515625-.742187.628906-1.097656.710937-.058594.015625-.117187.027344-.171875.042969-.265625.074219-.816406.207031-1.300781.320312-.132812.035157-.261719.066407-.382812.09375-.125.03125-.253907.046876-.382813.046876-.359375 0-.671875-.128907-.929687-.386719-.25-.246094-.484376-.503907-.710938-.769531l-.144531-.171876s-.042969-.058593-.070313-.078124v-.003907c-.019531.019531-.027344.078125-.027344.078125l-.089843.234375c0 .003907-.050781.136719-.296875.6875-.238282.539063-1.09375.648438-1.101563.648438-.050781.007812-.089843.011719-.136719.023437-.144531.023438-.414062.070313-1.457031.1875-.136719.015625-.273437.023438-.402343.023438-1.027344 0-1.558594-.503906-1.984376-1.050782-.242187-.308593-.519531-.707031-.734374-1.027343.394531.183593.8125.375.820312.378906l.0625.03125.070312-.019531c.695313-.199219 1.386719-.410156 2.074219-.632813l.066407-.019531.035156-.058594c.582031-.921875 1.039062-1.136718 1.121094-1.144531.0625 0 .128906-.003906.195312-.003906.808594 0 1.484375.25 1.492188.253906l.0625.023437.0625-.019531c1.03125-.320312 1.5-.464843 1.664062-.464843m-1.371094 2.609374c.101563.117188.210938.234376.320313.347657-.097657.015625-.191407.027343-.289063.035156-.058594.003906-.125.007813-.183594.007813h-.023437c.058594-.128907.117187-.257813.175781-.390626m.480469.515626.046875.046874c.296875.292969.667969.460938 1.070312.492188-.578124.234375-1.191406.375-1.816406.414062-.492187.035157-.992187-.023437-1.484375-.15625.042969-.007812.074219-.015624.109375-.019531.039063-.003906.917969-.117187 1.3125-.707031h.136719c.066406 0 .125-.003906.1875-.007812.148437-.011719.292969-.035157.4375-.0625" fill="#2d3136"/></svg>