<svg height="18" viewBox="0 0 18 18" width="18" xmlns="http://www.w3.org/2000/svg"><path d="m17 14 3 3.302083c.28125.28125.364583.708334.208333 1.078125-.151041.369792-.510416.614584-.90625.619792h-14.604166c-.395834-.005208-.755209-.25-.90625-.619792-.15625-.369791-.072917-.796875.208333-1.078125l3-3.302083h-.302083c-.395834-.005208-.755209-.25-.90625-.619792-.15625-.369791-.072917-.796875.208333-1.078125l3-3.302083h-.197917c-.421875.036458-.817708-.1875-.994791-.567708-.182292-.380209-.104167-.833334.192708-1.130209l4-4.302083 4 4.302083c.296875.296875.375.75.192708 1.130209-.177083.380208-.572916.604166-.994791.567708h-.197917l3 3.302083c.28125.28125.364583.708334.208333 1.078125-.151041.369792-.510416.614584-.90625.619792zm-5 8v-3" fill="none" stroke="#fff" stroke-linecap="round" stroke-linejoin="round" stroke-width="2" transform="scale(.75)"/></svg>