<svg height="18" viewBox="0 0 18 18" width="18" xmlns="http://www.w3.org/2000/svg"><path d="m8 19c-1.760417.005208-3.317708-1.145833-3.833333-2.828125-.515625-1.6875.130208-3.510417 1.59375-4.489583-.901042-1.125-1.020834-2.682292-.302084-3.932292.713542-1.244792 2.119792-1.927083 3.541667-1.71875v-.03125c0-1.65625 1.34375-3 3-3s3 1.34375 3 3v.041667c1.421875-.208334 2.828125.473958 3.541667 1.71875.71875 1.25.598958 2.807291-.302084 3.927083 1.453125.989583 2.09375 2.807292 1.578125 4.484375s-2.0625 2.828125-3.817708 2.828125zm4 0v3" fill="none" stroke="#fff" stroke-linecap="round" stroke-linejoin="round" stroke-width="2" transform="scale(.75)"/></svg>