<svg height="18" viewBox="0 0 18 18" width="18" xmlns="http://www.w3.org/2000/svg"><path d="m1.8125 0c-.480469 0-.941406.191406-1.28125.53125s-.53125.800781-.53125 1.28125v14.375c0 .480469.191406.941406.53125 1.28125s.800781.53125 1.28125.53125h14.375c.480469 0 .941406-.191406 1.28125-.53125s.53125-.800781.53125-1.28125v-14.375c0-.480469-.191406-.941406-.53125-1.28125s-.800781-.53125-1.28125-.53125zm0 .136719h14.375c.445312 0 .871094.175781 1.183594.492187.316406.3125.492187.738282.492187 1.183594v14.375c0 .445312-.175781.871094-.492187 1.183594-.3125.316406-.738282.492187-1.183594.492187h-14.375c-.445312 0-.871094-.175781-1.183594-.492187-.316406-.3125-.492187-.738282-.492187-1.183594v-14.375c0-.445312.175781-.871094.492187-1.183594.3125-.316406.738282-.492187 1.183594-.492187zm1.414062 2.183593c-.5 0-.90625.40625-.90625.90625v10.609376c0 .5.40625.902343.90625.902343h3.777344c.238282 0 .46875-.09375.640625-.261719.167969-.171874.261719-.402343.261719-.640624v-10.609376c0-.5-.402344-.90625-.902344-.90625zm7.769532 0c-.5 0-.90625.40625-.90625.90625v6.140626c0 .503906.40625.910156.90625.910156h3.777344c.5 0 .90625-.40625.90625-.910156v-6.140626c0-.5-.40625-.90625-.90625-.90625zm-7.769532.140626h3.777344c.203125 0 .398438.082031.542969.222656.144531.144531.222656.339844.222656.542968v10.609376c0 .203124-.078125.398437-.222656.542968-.144531.144532-.339844.222656-.542969.222656h-3.777344c-.203124 0-.398437-.078124-.542968-.222656-.140625-.144531-.222656-.339844-.222656-.542968v-10.609376c0-.203124.082031-.398437.222656-.542968.144531-.140625.339844-.222656.542968-.222656zm7.769532 0h3.777344c.203124 0 .398437.082031.542968.222656.140625.144531.222656.339844.222656.542968v6.140626c0 .203124-.082031.402343-.222656.542968-.144531.144532-.339844.226563-.542968.226563h-3.777344c-.203125 0-.398438-.082031-.542969-.226563-.144531-.140625-.222656-.335937-.222656-.542968v-6.140626c0-.203124.078125-.398437.222656-.542968.144531-.140625.339844-.222656.542969-.222656zm0 0" fill="#0052cc"/></svg>