<svg height="18" viewBox="0 0 18 18" width="18" xmlns="http://www.w3.org/2000/svg"><path d="m10.171875 4.192708c.317708-.729166 1.041667-1.197916 1.833333-1.192708.796875 0 1.515625.473958 1.833334 1.208333m.161458 16.791667h2m-.125-13.255208 1 1.729166m1.973958 3.479167 1 1.729167m1.973959 3.5c.28125.619791.229166 1.338541-.145834 1.911458-.369791.572917-1.005208.916667-1.6875.911458m-15.963541-.005208c-.6875.010417-1.333334-.338542-1.703125-.911458-.375-.578125-.427084-1.302084-.135417-1.927084m2.947917-5.208333-1 1.729167m3.864583 6.317708h2m-1.895833-13.255208-1 1.729166" fill="none" stroke="#fff" stroke-linecap="round" stroke-linejoin="round" stroke-width="2" transform="scale(.75)"/></svg>