<svg height="18" viewBox="0 0 18 18" width="18" xmlns="http://www.w3.org/2000/svg"><g fill="none" stroke="#fff" stroke-linecap="round" stroke-linejoin="round" stroke-width="2" transform="scale(.75)"><path d="m12 10 2 4v3c0 .552083.447917 1 1 1h2c.552083 0 1-.447917 1-1v-3c0-4.416667-3.583333-8-8-8s-8 3.583333-8 8v3c0 .552083.447917 1 1 1h2c.552083 0 1-.447917 1-1v-3l2-4zm-7.182292-2.098958 3.182292 2.098958m7.182292-2.098958-3.182292 2.098958"/><path d="m16.932292 10h3.067708c1.104167 0 2 .895833 2 2s-.895833 2-2 2h-18"/></g></svg>