<svg height="18" viewBox="0 0 18 18" width="18" xmlns="http://www.w3.org/2000/svg"><path d="m19 5 3-3m-20 20 3-3m1.302083 1.302083c.447917.447917 1.0625.703125 1.697917.703125s1.25-.255208 1.697917-.703125l2.302083-2.302083-6-6-2.302083 2.302083c-.447917.447917-.703125 1.0625-.703125 1.697917s.255208 1.25.703125 1.697917zm1.197917-6.802083 2.5-2.5m.5 5.5 2.5-2.5m-1-8 6 6 2.302083-2.302083c.447917-.447917.703125-1.0625.703125-1.697917s-.255208-1.25-.703125-1.697917l-2.604166-2.604166c-.447917-.447917-1.0625-.703125-1.697917-.703125s-1.25.255208-1.697917.703125zm0 0" fill="none" stroke="#fff" stroke-linecap="round" stroke-linejoin="round" stroke-width="2" transform="scale(.75)"/></svg>