<svg height="18" viewBox="0 0 18 18" width="18" xmlns="http://www.w3.org/2000/svg"><g fill="none" stroke="#fff" stroke-linecap="round" stroke-linejoin="round" stroke-width="2" transform="scale(.75)"><path d="m2 21c0-2.625 1.286458-5.083333 3.447917-6.578125 2.161458-1.494792 4.916666-1.833333 7.375-.911458m8.557291 3.114583c.828125-.828125.828125-2.171875 0-3.005208-.833333-.828125-2.177083-.828125-3.005208 0l-4.010417 4.015625c-.239583.234375-.411458.53125-.505208.854166l-.838542 2.869792c-.052083.171875 0 .364583.125.489583.130209.130209.317709.182292.494792.130209l2.869792-.838542c.322916-.09375.614583-.265625.854166-.505208zm0 0"/><path d="m15 8c0 2.760417-2.239583 5-5 5s-5-2.239583-5-5 2.239583-5 5-5 5 2.239583 5 5zm0 0"/></g></svg>