<svg height="18" viewBox="0 0 18 18" width="18" xmlns="http://www.w3.org/2000/svg"><g fill="none" stroke="#fff" stroke-linecap="round" stroke-linejoin="round" stroke-width="2" transform="scale(.75)"><path d="m2 21c0-2.552083 1.21875-4.953125 3.28125-6.458333 2.0625-1.505209 4.71875-1.9375 7.151042-1.161459"/><path d="m15 8c0 2.760417-2.239583 5-5 5s-5-2.239583-5-5 2.239583-5 5-5 5 2.239583 5 5zm0 0"/><path d="m21 18c0 1.65625-1.34375 3-3 3s-3-1.34375-3-3 1.34375-3 3-3 3 1.34375 3 3zm0 0"/><path d="m19.5 14.302083-.401042.895834m-2.197916 5.604166-.401042.895834m5.197917-2.197917-.895834-.401042m-5.604166-2.197916-.895834-.401042m7.395834 0-.895834.401042m-5.604166 2.197916-.895834.401042m5.197917 2.197917-.401042-.895834m-2.197916-5.604166-.401042-.895834"/></g></svg>