<svg height="18" viewBox="0 0 18 18" width="18" xmlns="http://www.w3.org/2000/svg"><path d="m1.25 11.339844c-.308594-.085938-.507812-.308594-.621094-.71875-.039062-.167969-.054687-.238282-.054687-1.433594l-.015625-1.25h.789062v1.011719c0 .589843.015625 1.097656.027344 1.195312.058594.378907.210938.578125.464844.578125.238281 0 .40625-.183594.519531-.578125.027344-.125.042969-.28125.058594-1.179687l.011719-1.042969h.789062v1.589844c0 .871093 0 1.632812.011719 1.671875l.015625.171875h-.773438l-.015625-.199219c0-.070312-.011719-.210938-.011719-.324219v-.195312l-.097656.195312c-.058594.113281-.140625.242188-.183594.28125-.210937.226563-.589843.3125-.914062.226563" fill="#bad05e"/><path d="m10.191406 11.339844c-.632812-.097656-.996094-.40625-1.179687-.984375-.042969-.140625-.054688-.253907-.027344-.253907 0 0 .167969-.027343.363281-.054687.199219-.027344.367188-.058594.382813-.070313.011719 0 .039062.042969.070312.113282.070313.28125.195313.433594.40625.53125.140625.070312.507813.070312.675781.015625.140626-.054688.28125-.210938.324219-.351563.039063-.167968.027344-.40625-.03125-.535156-.097656-.222656-.238281-.308594-.828125-.503906-.535156-.171875-.675781-.253906-.871094-.4375-.253906-.253906-.367187-.605469-.339843-1.011719.042969-.621094.367187-1 .945312-1.125.238281-.058594.742188-.058594.953125 0 .367188.082031.59375.253906.746094.546875.097656.183594.183594.492188.167969.519531-.011719.015625-.6875.128907-.773438.128907l-.054687-.140626c-.054688-.199218-.140625-.324218-.28125-.394531-.085938-.054687-.140625-.054687-.308594-.054687-.339844 0-.507812.125-.578125.421875-.054687.292969.042969.546875.269531.671875.070313.042968.320313.140625.5625.210937.519532.171875.714844.269531.898438.453125.15625.152344.296875.40625.324218.617188.027344.183594.027344.535156-.015624.730468-.097657.492188-.449219.832032-.957032.941407-.195312.03125-.660156.058593-.84375.015625m3.828125.015625c-.578125-.085938-1.015625-.464844-1.238281-1.085938-.226562-.589843-.28125-1.476562-.113281-2.21875.15625-.746093.578125-1.238281 1.179687-1.394531.210938-.054688.632813-.054688.816406 0 .421876.113281.761719.394531.957032.832031.140625.28125.15625.25-.238282.390625-.199218.070313-.367187.128906-.378906.128906-.015625 0-.042968-.042968-.058594-.085937-.082031-.253906-.253906-.464844-.449218-.546875-.15625-.070312-.40625-.058594-.546875.011719-.367188.183593-.535157.703125-.535157 1.578125 0 .632812.082032 1.039062.28125 1.347656.167969.269531.351563.351562.660157.339844.238281-.015625.421875-.101563.589843-.253906l.113282-.113282v-.757812h-.789063v-.621094h1.578125v1.660156l-.101562.113282c-.222656.292968-.601563.535156-.96875.617187-.210938.058594-.578125.085937-.757813.058594" fill="#010101"/><path d="m4.144531 9.0625c-.25-1.238281-.492187-2.277344-.492187-2.308594l-.011719-.125h.828125c.015625 0 .113281.6875.253906 1.433594s.296875 1.605469.335938 1.898438c.042968.296874.085937.550781.085937.550781l.914063-3.265625h.367187l.941407 3.25c0 .015625.042968-.183594.070312-.40625.027344-.226563.183594-1.085938.335938-1.898438l.28125-1.5625h.84375l-.011719.125c0 .042969-.226563 1.070313-.492188 2.292969-.269531 1.222656-.464843 2.335937-.480469 2.335937h-1.011718l-.660156-2.503906-.632813 2.503906h-1zm0 0"/><path d="m16.605469 8.992188v-2.363282h.828125v4.738282h-.828125zm0 0" fill="#010101"/><path d="m11.726562 7.414062c0 .160157-.128906.292969-.292968.292969-.160156 0-.289063-.132812-.292969-.292969.003906-.160156.132813-.292968.292969-.292968.160156-.003906.292968.128906.292968.292968" fill="#bad05e"/><path d="m11.558594 7.414062c0 .070313-.054688.125-.125.125-.070313 0-.121094-.054687-.121094-.125 0-.070312.050781-.121093.121094-.121093.070312 0 .125.054687.125.121093" fill="#010101"/></svg>