<svg height="18" viewBox="0 0 18 18" width="18" xmlns="http://www.w3.org/2000/svg"><g fill="#bad05e"><path d="m1.25 11.339844c-.308594-.085938-.507812-.308594-.621094-.71875-.039062-.167969-.054687-.238282-.054687-1.433594l-.015625-1.25h.789062v1.011719c0 .589843.015625 1.097656.027344 1.195312.058594.378907.210938.578125.464844.578125.238281 0 .40625-.183594.519531-.578125.027344-.125.042969-.28125.058594-1.179687l.011719-1.042969h.789062v1.589844c0 .871093 0 1.632812.011719 1.671875l.015625.171875h-.773438l-.015625-.199219c0-.070312-.011719-.210938-.011719-.324219v-.195312l-.097656.195312c-.058594.113281-.140625.242188-.183594.28125-.210937.226563-.589843.3125-.914062.226563m12.769531.015625c-.578125-.085938-1.015625-.464844-1.238281-1.085938-.226562-.589843-.28125-1.476562-.113281-2.21875.15625-.746093.578125-1.238281 1.179687-1.394531.210938-.054688.632813-.054688.816406 0 .421876.113281.761719.394531.957032.832031.140625.28125.15625.25-.238282.390625-.199218.070313-.367187.128906-.378906.128906-.015625 0-.042968-.042968-.058594-.085937-.082031-.253906-.253906-.464844-.449218-.546875-.15625-.070312-.40625-.058594-.546875.011719-.367188.183593-.535157.703125-.535157 1.578125 0 .632812.082032 1.039062.28125 1.347656.167969.269531.351563.351562.660157.339844.238281-.015625.421875-.101563.589843-.253906l.113282-.113282v-.757812h-.789063v-.621094h1.578125v1.660156l-.101562.113282c-.222656.292968-.601563.535156-.96875.617187-.210938.058594-.578125.085937-.757813.058594m-9.875-2.292969c-.25-1.238281-.492187-2.277344-.492187-2.308594l-.011719-.125h.828125c.015625 0 .113281.6875.253906 1.433594s.296875 1.605469.335938 1.898438c.042968.296874.085937.550781.085937.550781l.914063-3.265625h.367187l.941407 3.25c0 .015625.042968-.183594.070312-.40625.027344-.226563.183594-1.085938.335938-1.898438l.28125-1.5625h.84375l-.011719.125c0 .042969-.226563 1.070313-.492188 2.292969-.269531 1.222656-.464843 2.335937-.480469 2.335937h-1.011718l-.660156-2.503906-.632813 2.503906h-1zm12.460938-.070312v-2.363282h.828125v4.738282h-.828125zm0 0"/><path d="m12.007812 9.652344c-.027343-.210938-.167968-.464844-.324218-.617188-.183594-.183594-.378906-.28125-.898438-.453125-.242187-.070312-.492187-.167969-.5625-.210937-.226562-.125-.324218-.378906-.269531-.671875.070313-.296875.238281-.421875.578125-.421875.167969 0 .222656 0 .308594.054687.140625.070313.226562.195313.28125.394531l.054687.140626c.085938 0 .761719-.113282.773438-.128907.015625-.027343-.070313-.335937-.167969-.519531-.152344-.292969-.378906-.464844-.746094-.546875-.210937-.058594-.714844-.058594-.953125 0-.578125.125-.902343.503906-.945312 1.125-.027344.40625.085937.757813.339843 1.011719.195313.183594.335938.265625.871094.4375.589844.195312.730469.28125.828125.503906.058594.128906.070313.367188.03125.535156-.042969.140625-.183593.296875-.324219.351563-.167968.054687-.535156.054687-.675781-.015625-.210937-.097656-.335937-.25-.40625-.53125-.03125-.070313-.058593-.113282-.070312-.113282-.015625.011719-.183594.042969-.382813.070313-.195312.027344-.363281.054687-.363281.054687-.027344 0-.015625.113282.027344.253907.183593.578125.546875.886719 1.179687.984375.183594.042968.648438.015625.84375-.015625.507813-.109375.859375-.449219.957032-.941407.042968-.195312.042968-.546874.015624-.730468m-.570312-2.53125c.15625-.003906.292969.128906.292969.292968 0 .164063-.136719.292969-.292969.292969-.164062 0-.292969-.136719-.292969-.292969-.003906-.164062.132813-.292968.292969-.292968"/></g></svg>