<svg height="18" viewBox="0 0 18 18" width="18" xmlns="http://www.w3.org/2000/svg"><path d="m17.226562 3.359375v-1.554687l-3.738281 2.175781v1.3125l-2.992187 6.453125-1.496094 1.03125v4.726562l3.207031-1.847656zm-8.226562 6.054687-2.246094-5.234374v-1.480469l-.015625-.007813-2.226562 1.289063v1.3125l2.992187 6.738281 1.496094-.738281zm0 0" fill="#1159cc"/><path d="m14.984375.496094-3.738281 2.1875h-.003906v1.496094l-2.242188 5.234374v1.75l-1.496094.867188-2.992187-6.738281v-1.316407l2.246093-1.292968-3.742187-2.1875-2.242187 1.308594v1.605468l5.046874 12.261719 3.179688 1.832031v-4.605468l1.496094-.867188-.019532-.011719 3.011719-6.726562v-1.316407l3.738281-2.171874zm0 0" fill="#127eff"/></svg>