<svg height="18" viewBox="0 0 18 18" width="18" xmlns="http://www.w3.org/2000/svg"><path d="m8.855469 4.507812c-1.0625 0-2.078125.339844-3.050781 1.023438-.425782.308594-.773438.664062-1.042969 1.0625-.265625.394531-.398438.808594-.398438 1.234375 0 .234375.027344.429687.085938.589844.171875.4375.597656.65625 1.28125.65625 0-.027344-.011719-.054688-.03125-.089844-.09375-.171875-.144531-.433594-.144531-.78125 0-.710937.167968-1.304687.5-1.785156.339843-.480469.804687-.832031 1.40625-1.054688l.207031 8.738281h1.839843l3.554688-9.53125h-.890625l-2.695313 7.832032-.109374-7.871094c-.171876-.015625-.34375-.023438-.511719-.023438"/></svg>