<svg height="18" viewBox="0 0 18 18" width="18" xmlns="http://www.w3.org/2000/svg" xmlns:xlink="http://www.w3.org/1999/xlink"><linearGradient id="a" gradientUnits="userSpaceOnUse" x1="-.0000047823" x2="-.0000047823" y1=".0000487859" y2="17.8613770655"><stop offset="0" stop-color="#a56de2"/><stop offset="1" stop-color="#7239b3"/></linearGradient><linearGradient id="b" gradientUnits="userSpaceOnUse" x1="9.3655707194" x2="9.3655707194" y1="4.5321914916" y2="14.7687184075"><stop offset="0" stop-color="#8b58c9"/><stop offset="1" stop-color="#743fb3"/></linearGradient><linearGradient id="c" gradientUnits="userSpaceOnUse" x1="9.3655707194" x2="9.3655707194" y1="4.5321914916" y2="14.4755960965"><stop offset="0" stop-color="#7548b2"/><stop offset="1" stop-color="#6639a4"/></linearGradient><path d="m-1.8-1.8h21.6v21.6h-21.6z" fill="url(#a)"/><path d="m8.601562 4.507812c-2.238281.574219-4.160156 1.171876-4.488281 3.332032-.054687.363281-.039062.726562.085938 1.078125.140625.359375.457031.570312.945312.632812.191407.027344.890625.15625.871094-.152343-.015625-.105469-.082031-.21875-.132813-.339844-.078124-.179688-.074218-.371094-.074218-.546875.03125-.628907.195312-1.160157.496094-1.59375.238281-.335938.542968-.613281.910156-.824219l.199218 8.320312c0 .121094.078126.1875.238282.1875h1.867187c.132813 0 .1875-.046874.230469-.167968 1.199219-3.199219 2.378906-6.402344 3.582031-9.601563.015625-.160156-.148437-.222656-.269531-.261719h-.875c-.15625-.007812-.246094.082032-.277344.175782l-2.160156 6.277344-.132812-5.992188v-.386719l-.25-.113281h-.25c-.171876-.015625-.34375-.023438-.515626-.023438zm0 0" fill="url(#b)"/><path d="m7.667969 14.351562-.207031-8.738281c-.601563.222657-1.066407.574219-1.40625 1.054688-.332032.480469-.5 1.074219-.5 1.785156 0 .347656.050781.605469.144531.78125.019531.035156.03125.0625.03125.089844-.683594 0-1.109375-.21875-1.28125-.65625-.058594-.160157-.085938-.355469-.085938-.589844 0-.425781.132813-.839844.398438-1.234375.269531-.402344.617187-.753906 1.042969-1.0625.972656-.683594 1.988281-1.023438 3.046874-1.023438.175782 0 .347657.007813.515626.023438l.109374 7.871094 2.691407-7.832032h.894531l-3.554688 9.53125zm0 0" fill="url(#c)"/><path d="m7.667969 14.101562-.207031-8.738281c-.601563.222657-1.066407.574219-1.40625 1.054688-.332032.480469-.5 1.074219-.5 1.785156 0 .347656.050781.605469.144531.78125.019531.035156.03125.0625.03125.089844-.683594 0-1.109375-.21875-1.28125-.65625-.058594-.160157-.085938-.355469-.085938-.589844 0-.425781.132813-.839844.398438-1.234375.273437-.402344.621093-.753906 1.042969-1.0625.972656-.683594 1.988281-1.023438 3.046874-1.023438.175782 0 .347657.007813.515626.023438l.109374 7.871094 2.695313-7.832032h.890625l-3.554688 9.53125zm0 0" fill="#fff"/></svg>