<svg height="18" viewBox="0 0 18 18" width="18" xmlns="http://www.w3.org/2000/svg"><path d="m2.417969 0c-.640625 0-1.257813.253906-1.710938.707031s-.707031 1.070313-.707031 1.710938v1.320312l.0625.0625h2.375l2.699219 6.128907h.113281l2.800781-6.128907h3.191407l2.015624 2.9375h.105469l2.011719-2.9375h2.625v-1.382812c0-1.335938-1.078125-2.417969-2.417969-2.417969zm0 .125h13.164062c.605469 0 1.191407.238281 1.621094.671875.433594.429687.671875 1.015625.671875 1.621094v1.253906h-2.535156l-.050782.027344-1.976562 2.894531-1.984375-2.894531-.050781-.027344h-3.277344l-.050781.101563-.015625-.023438-2.738282 6-2.660156-6.039062-.054687-.035157h-2.355469v-1.257812c0-.605469.238281-1.191407.671875-1.621094.429687-.433594 1.015625-.671875 1.621094-.671875m-2.296875 4.429688-.121094.023437v11.003906c0 1.335938 1.078125 2.417969 2.417969 2.417969h13.164062c1.335938 0 2.417969-1.078125 2.417969-2.417969v-1.511719h-2.921875l-1.136719-1.6875 1.453125-2.085937 2.453125 3.445313h.152344v-9.019532h-.152344l-3.410156 4.8125-1.289062 1.824219-1.921876 2.710937h-1c-.03125-.664062-.332031-1.289062-.832031-1.730468l2.371094-3.347656v-.074219l-2.117187-2.980469-.109376.011719-2.726562 5.960937c-.90625.378906-1.507812 1.257813-1.523438 2.242188h-.941406l-.515625-1.167969zm.003906.324218 3.59375 8.15625.527344 1.203125.058594.039063h1.042968l.0625-.066406v-.023438c0-.957031.585938-1.820312 1.476563-2.175781l.035156-.03125 2.683594-5.878907 2.035156 2.855469-2.375 3.351563.007813.085937c.515624.433594.820312 1.066407.835937 1.742188l.0625.058593h1.085937l.050782-.023437 1.941406-2.742187 1.289062-1.820313 3.335938-4.707031v8.664062l-2.429688-3.414062h-.101562l-1.53125 2.191406v.074219l1.179688 1.75.054687.027343h2.828125v1.386719c0 .609375-.238281 1.191407-.671875 1.621094-.429687.433594-1.015625.671875-1.621094.671875h-13.164062c-.605469 0-1.191407-.238281-1.621094-.671875-.433594-.429687-.671875-1.015625-.671875-1.621094zm7.632812 7.742188c-.863281 0-1.566406.703125-1.566406 1.566406 0 .867188.703125 1.570312 1.566406 1.570312.867188 0 1.570313-.703124 1.570313-1.570312 0-.863281-.703125-1.566406-1.570313-1.566406m0 .125c.800782 0 1.445313.644531 1.445313 1.441406 0 .382812-.152344.753906-.421875 1.023438-.269531.269531-.640625.421874-1.023438.421874-.382812 0-.75-.152343-1.019531-.421874-.269531-.269532-.421875-.636719-.421875-1.023438 0-.796875.644532-1.441406 1.441406-1.441406zm0 0" fill="#782a91"/></svg>