<svg height="18" viewBox="0 0 18 18" width="18" xmlns="http://www.w3.org/2000/svg"><path d="m2.375 0c-.632812 0-1.234375.25-1.679688.695312-.445312.445313-.695312 1.046876-.695312 1.679688v1.324219h2.433594l2.734375 6.210937 2.832031-6.203125-.003906-.007812h3.296875l2.046875 2.988281 2.046875-2.988281h2.613281v-1.324219c0-.632812-.25-1.234375-.695312-1.679688-.445313-.445312-1.046876-.695312-1.679688-.695312zm-2.375 4.546875v11.078125c0 .632812.25 1.234375.695312 1.679688.445313.445312 1.046876.695312 1.679688.695312h13.25c.632812 0 1.234375-.25 1.679688-.695312.445312-.445313.695312-1.046876.695312-1.679688v-1.453125h-2.910156l-1.191406-1.765625 1.539062-2.210938 2.535156 3.558594h.027344v-9.039062h-.027344l-3.445312 4.863281-1.296875 1.832031-1.957031 2.761719h-1.09375c-.015626-.699219-.328126-1.355469-.863282-1.804687l2.417969-3.410157-2.132813-3.003906-2.753906 6.023437c-.921875.367188-1.523437 1.257813-1.527344 2.25l.003907.023438h-1.050781l-.535157-1.214844zm7.75 8.164063c.839844 0 1.515625.675781 1.515625 1.515624 0 .835938-.675781 1.515626-1.515625 1.515626-.835938 0-1.515625-.679688-1.515625-1.515626 0-.839843.679687-1.515624 1.515625-1.515624" fill="#782a91"/></svg>