<svg height="18" viewBox="0 0 18 18" width="18" xmlns="http://www.w3.org/2000/svg"><g fill="none" stroke="#fff" stroke-linecap="round" stroke-linejoin="round" stroke-width="2" transform="scale(.75)"><path d="m16 13 5.223958 3.484375c.151042.098958.348959.109375.510417.020833.166667-.083333.265625-.255208.265625-.4375v-8.197916c0-.177084-.09375-.34375-.25-.432292s-.348958-.088542-.5 0l-5.25 3.0625"/><path d="m4 6h10c1.104167 0 2 .895833 2 2v8c0 1.104167-.895833 2-2 2h-10c-1.104167 0-2-.895833-2-2v-8c0-1.104167.895833-2 2-2zm0 0"/></g></svg>