<svg height="18" viewBox="0 0 18 18" width="18" xmlns="http://www.w3.org/2000/svg"><path d="m9 0c-4.96875 0-9 4.03125-9 9s4.03125 9 9 9 9-4.03125 9-9-4.03125-9-9-9m-.527344 5.441406.890625.015625-2.613281 7.085938h-.925781l-2.570313-7.085938h.925782l1.96875 5.625c.066406.203125.117187.414063.144531.625h.019531c.027344-.21875.082031-.433593.15625-.640625zm1.910156.015625h2.015626c.527343-.027343 1.042968.128907 1.457031.449219.355469.285156.554687.71875.542969 1.171875.003906.375-.113282.746094-.335938 1.046875-.226562.300781-.539062.523438-.898438.632812v.019532c.433594.035156.839844.226562 1.144532.539062.296875.324219.449218.753906.433594 1.191406.015624.566407-.222657 1.109376-.65625 1.472657-.457032.386719-1.042969.585937-1.644532.5625h-2.058594zm1.785157.738281-.941407.007813v2.289063h.84375c.386719.019531.761719-.101563 1.066407-.335938.265625-.230469.410156-.574219.390625-.929688 0-.6875-.453125-1.03125-1.359375-1.03125m-.941407 3.042969v2.550781h1.125c.40625.023438.804688-.097656 1.125-.34375.273438-.238281.421876-.589843.402344-.949218 0-.835938-.570312-1.253906-1.710937-1.253906zm0 0" fill="#004e8c"/></svg>