<svg height="18" viewBox="0 0 18 18" width="18" xmlns="http://www.w3.org/2000/svg"><path d="m13.210938.0507812-.011719.0039063c-.027344 0-.050781.0039063-.078125.0078125-.042969 0-.085938 0-.128906.0039062h-.003907c-.046875.0078126-.09375.0195313-.136719.03125-.027343.0039058-.054687.0078128-.078124.0117188h-.007813l-.007813.003906c-.042968.015625-.082031.035157-.121093.054688-.023438.011719-.046875.019531-.066407.03125-.101562.054687-.191406.121093-.269531.195312l-.003906.003907-5.886719 6.511718-3.410156-2.796875-.308594-.261719-.003906-.003906c-.035156-.023437-.074219-.046875-.113281-.0625l-.011719-.007812c-.023438-.011719-.046875-.027344-.070312-.039063h-.003907c-.03125-.015625-.058593-.027343-.089843-.035156h-.003907c-.03125-.011719-.0625-.019531-.097656-.023437h-.003906c-.023438-.003907-.046875-.003907-.070313-.003907-.023437-.003906-.046875-.007812-.070312-.011719h-.011719l-.007813.003907c-.011718 0-.023437.003906-.03125.003906h-.03125l-.007812.003906c-.011719 0-.019531.003907-.027344.007813-.019531-.003906-.039062 0-.0625 0h-.007812c-.039063.007812-.078125.023437-.113282.039062l-1.351562.566406c-.082031.035157-.15625.085938-.222656.144532-.011719.007812-.019532.015625-.03125.023437l-.003906.003907-.003907.007812c-.011719.015625-.023437.03125-.035156.046875-.035156.039063-.066406.082031-.09375.125-.0117188.023437-.0273438.046875-.0390625.070313v.003906l-.0039063.003906c-.0039062.015625-.0078124.027344-.0117187.039062-.015625.046876-.0273437.09375-.0351563.140626l.0039063-.011719c-.0078125.027343-.015625.050781-.0234375.078125v8.078125c.0078125.027343.015625.054687.0234375.078125.0078125.042968.015625.085937.03125.128906.0039063.015625.0078125.027344.0117187.039062l.0039063.003907v.003906c.0117187.023437.0273437.046875.0390625.070313.03125.046874.0625.09375.097656.132812.011719.015625.019531.027344.03125.042969l.007813.007812c.011718.007813.019531.015625.03125.023438.066406.0625.140625.109375.222656.144531l1.351562.570312h.003907c.082031.03125.171875.050782.261719.054688h.078124c.066407-.003906.128907-.011719.191407-.03125.027343-.007812.050781-.011719.074219-.023438h.003906c.082031-.03125.160156-.074218.230468-.132812l.304688-.261719 3.410156-2.792969 5.886719 6.507813.003906.003906c.082031.082031.175781.152344.28125.203125l.003907.003906c.03125.011719.058593.023438.089843.035157l-.007812-.003907c.0625.03125.132812.058594.199219.074219l.007812.003907h.007812c.011719 0 .023438.003906.035157.003906l-.007813-.003906c.074219.011718.152344.019531.226563.015624.046875.003907.09375.003907.140625 0h.007812c.125-.015624.246094-.050781.363282-.101562v-.003906l3.679687-1.765625v-.003907c.027344-.011718.058594-.027343.085937-.042968.007813-.007813.015626-.011719.023438-.015625.019531-.011719.039062-.023438.058594-.039063.007812-.003906.015625-.011718.023437-.019531h.003907c.015624-.011719.03125-.023437.046874-.035156v-.003907c.011719-.007812.019532-.015624.03125-.023437l.039063-.039063c.011719-.007812.019531-.019531.027344-.027343h.003906c.011719-.015625.027344-.03125.039063-.046875.007812-.007813.015624-.015625.019531-.023438h.003906v-.003906c.011719-.015625.023437-.03125.039063-.046875v-.003906l.019531-.027344c.019531-.027344.035156-.050781.050781-.078125v-.003906l.011719-.023438c.011719-.015625.019531-.035156.03125-.054687v-.003907c.003906-.011718.011719-.023437.015625-.035156.011718-.03125.023437-.058594.035156-.089844s.019531-.066406.027344-.097656c.003906-.019531.007812-.035156.011718-.050781.003907-.011719.003907-.027344.007813-.039063v-.003906c.003906-.019531.007813-.039062.007813-.0625l.003906-.023437v-.007813c.003906-.03125.003906-.0625.003906-.09375v-11.996094c0-.035156 0-.066406-.003906-.097656v-.003906l-.003906-.019531v-.003907c0-.023437-.003907-.046874-.007813-.070312v-.003906l-.003906-.023438c-.003907-.023437-.011719-.042968-.015625-.066406-.007813-.027344-.015625-.058594-.027344-.085938-.003906-.015624-.007812-.03125-.015625-.042968v-.003906c-.003906-.015626-.011719-.03125-.019531-.046876v-.003906c-.003906-.011718-.007813-.023437-.015625-.03125v-.003906c-.007813-.019531-.019531-.039062-.03125-.058594l-.011719-.027344h-.003906c-.015625-.027343-.03125-.054687-.046875-.078124v-.003907h-.003907l-.011718-.019531h-.003906c-.011719-.019531-.023438-.035156-.039063-.054688-.007813-.011718-.019531-.019531-.027344-.03125-.011719-.015624-.023437-.027343-.035156-.039062s-.019531-.019531-.03125-.03125-.027344-.023438-.039063-.039062c-.011718-.007813-.019531-.015626-.03125-.023438-.015624-.015625-.03125-.027344-.046874-.039062h-.003907l-.023437-.019532c-.019532-.011718-.039063-.027344-.058594-.039062l-.023438-.011719v-.003906c-.027343-.015625-.058593-.03125-.085937-.042969l-3.679687-1.769531c-.109376-.050781-.226563-.089844-.347657-.105469h-.007812c-.015625 0-.027344 0-.042969 0-.007812-.0039062-.015625-.0039062-.027344-.0078125zm-.007813.1445308.019531.003907.011719.003906h.011719.035156c.105469.015625.210938.042969.304688.089844l3.679687 1.769531c.035156.015625.066406.035156.097656.054688.027344.015624.050781.03125.074219.050781.015625.011719.03125.023437.042969.035156v-.003906c.023437.019531.042969.039062.0625.058593l.027343.027344c.011719.011719.019532.023438.03125.035156.007813.007813.015626.019532.023438.027344.015625.015625.027344.03125.039062.046875v.003907l.011719.015624c.015625.023438.03125.046876.042969.070313l.015625.023437c.007813.019532.019531.035157.027344.054688.003906.007812.007812.019531.011719.027344v.003906c.011718.027344.023437.054688.03125.082031.011718.027344.015624.050781.023437.078125.003906.019532.007813.039063.011719.058594l.007812.023438c0 .019531.003906.042968.007813.0625v.023437c.003906.027344.003906.058594.003906.085937v11.996094c0 .027344 0 .054688-.003906.085938v.023437c-.003907.019531-.007813.039063-.007813.058594l-.007812.035156c-.003906.015625-.007813.03125-.011719.046875-.003906.027344-.015625.058594-.023437.085938-.007813.027344-.019532.050781-.03125.078125-.003907.011719-.007813.023437-.015626.03125-.007812.019531-.015624.035156-.023437.050781v.003906l-.011719.019532c-.015625.023437-.03125.046874-.042968.070312l-.019532.023438c-.011718.015624-.023437.03125-.035156.046874l-.019531.019532v.003906c-.019531.023438-.039063.042969-.0625.0625v.003906c-.019531.019532-.039063.035156-.0625.054688-.011719.011718-.027344.023437-.042969.035156l-.023438.015625c-.015624.011719-.03125.023437-.050781.035156-.007812.003907-.015625.007813-.019531.011719-.027344.015625-.050781.027344-.078125.039062l-3.679687 1.769532c-.097657.046875-.207032.078125-.316407.09375-.042969 0-.085937 0-.125-.003906h-.011719c-.066406.003906-.136718 0-.203124-.011719h-.007813c-.007813 0-.015625 0-.023437 0-.058594-.019531-.113282-.039063-.167969-.066407l-.003907-.003906h-.007812c-.023438-.007812-.046875-.019531-.074219-.027344-.089843-.050781-.171875-.109374-.246093-.179687l-5.976563-6.609375-3.511719 2.882812-.304687.257813c-.058594.046875-.121094.085937-.191407.113281-.019531.007813-.042968.011719-.0625.019532h-.003906c-.050781.015624-.105468.023437-.160156.023437-.023438.003906-.042969.003906-.066406.003906-.074219-.003906-.144532-.019531-.214844-.046875l-1.351562-.570312c-.066407-.027344-.128907-.066406-.183594-.117188l-.003906-.003906c-.007813-.007812-.015626-.011719-.023438-.019531-.007812-.011719-.019531-.023438-.027344-.035157v-.003906h-.003906c-.03125-.035156-.058594-.074218-.082031-.113281-.011719-.019531-.023438-.039063-.03125-.058594-.003907-.011719-.007813-.019531-.011719-.03125v-.003906c-.011719-.035156-.023438-.074219-.03125-.113281v-.011719c-.007812-.019531-.011719-.039063-.015625-.058594v-8.03125c.003906-.019531.007813-.039062.015625-.058593v-.011719c.007812-.039063.019531-.074219.03125-.113281v-.003907c.003906-.007812.007812-.019531.011719-.03125.007812-.019531.019531-.035156.03125-.054687v-.003906c.023437-.039063.050781-.074219.082031-.109376l.003906-.003906v-.003906c.007813-.011719.019532-.023438.027344-.035156.007812-.003906.015625-.011719.023438-.019532h.003906c.054687-.050781.117187-.09375.183594-.121093l1.351562-.566407.003906-.003906c.023438-.011718.050782-.019531.078125-.023437.019531-.003907.035157-.003907.054688-.003907h.023437l.019532-.007812h.019531.019531c.007812-.003906.015625-.003906.023438-.007812.019531.003906.035156.007812.054687.007812l.007813.003906h.007812.058594c.027344.003906.050781.011719.078125.019532.027343.007812.050781.015624.074219.027343.023437.011719.046874.023438.066406.039063h.003906l.007812.003906c.035157.015625.066407.035156.101563.058594l.300781.257812 3.511719 2.878906 5.976563-6.605468c.070312-.066406.148437-.125.234374-.171875.023438-.011719.042969-.019531.0625-.027344l.003907-.003906h.003906c.03125-.019531.066406-.035157.101563-.046875.019531-.003906.042968-.007813.0625-.007813l.007812-.003906h.003906c.042969-.011719.085938-.019531.128906-.027344.039063-.003906.078126-.003906.117188-.003906h.015625c.019531-.003906.039063-.007813.0625-.007813zm.332031 4.882813-.113281.09375-4.679687 3.832031 4.792968 3.929688zm-.140625.292969v7.265625l-4.429687-3.632813zm-11.164062.902344v5.460937l2.472656-2.730469zm.140625.363281 2.144531 2.367187-2.144531 2.371094zm0 0" fill="#52218a"/></svg>