<svg height="18" viewBox="0 0 18 18" width="18" xmlns="http://www.w3.org/2000/svg"><path d="m13.238281.0507812c-.027343 0-.050781.0039063-.078125.0078126-.042968 0-.085937 0-.128906.0039062-.046875.0078125-.09375.0195312-.140625.03125-.023437 0-.050781.0039062-.078125.007812-.039062.019532-.078125.035157-.113281.054688-.023438.011719-.046875.023438-.070313.035156-.09375.046875-.179687.109375-.253906.183594l-5.980469 6.609375-3.488281-2.859375-.304688-.261719c-.039062-.027343-.078124-.046875-.117187-.066406-.023437-.015625-.050781-.027344-.074219-.042969-.027344-.011718-.058594-.023437-.085937-.03125-.03125-.007812-.058594-.015625-.089844-.019531-.023437-.003906-.046875-.003906-.070313-.003906-.023437-.003907-.046874-.007813-.074218-.007813-.011719 0-.023438.003906-.035156.007813-.011719 0-.019532 0-.03125 0-.011719 0-.019532.003906-.03125.007812-.023438 0-.046876 0-.070313 0-.03125.007813-.066406.019531-.097656.035157l-1.363281.570312c-.074219.03125-.144532.078125-.207032.132812-.007812.007813-.019531.015626-.027344.027344-.011718.011719-.023437.027344-.035156.042969-.03125.039063-.0625.078125-.089844.125-.0117182.019531-.0273432.042969-.0351558.066406-.0078124.011719-.0117187.023438-.015625.039063-.0117187.039062-.0234374.082031-.03125.125-.0078124.023437-.01562495.050781-.0195312.074218v8.109376c.00390625.027343.0117188.050781.0195312.074218.0078126.042969.0195313.085938.03125.128906.0039063.011719.0078126.023438.015625.035157.0078126.023437.0234376.046875.0351558.070312.027344.042969.054688.082031.089844.121094.011719.015625.023438.03125.03125.042969.011719.011718.023438.019531.03125.027344.0625.054687.132813.101562.207032.132812l1.363281.570312c.078125.03125.160156.050782.242187.054688.023438 0 .046875 0 .070313-.003906.0625 0 .121093-.011719.179687-.027344.023438-.003906.046875-.011719.070313-.019531.078125-.03125.148437-.070313.214843-.125l.304688-.261719 3.488281-2.859375 5.980469 6.609375c.078125.078125.167969.144531.265625.195312.03125.011719.058594.023438.085937.03125.0625.03125.125.054688.191407.074219h.03125c.074219.011719.148437.015625.222656.015625.042969 0 .089844.003906.136719 0 .121094-.015625.238281-.046875.34375-.097656l3.710937-1.785156c.027344-.011719.054688-.027344.078125-.042969l.027344-.015625c.015625-.007812.035156-.019531.050781-.035156l.027344-.015625c.015625-.011719.03125-.027344.046875-.039063.007812-.007812.019531-.015625.027344-.023437.011718-.011719.027344-.023438.039062-.035157.007813-.011718.019532-.019531.027344-.027343.011719-.015625.027344-.03125.039062-.042969l.019532-.023438c.015625-.019531.027344-.035156.039062-.050781l.019532-.027343c.015624-.023438.03125-.050782.046874-.074219l.011719-.023438c.011719-.019531.019531-.035156.027344-.054687.007813-.011719.011719-.023438.015625-.035156.007812-.019532.015625-.035157.023438-.054688l.011718-.03125c.003906-.015625.007813-.035156.015625-.050781.003907-.015625.007813-.027344.011719-.042969s.003906-.03125.007812-.046875c.003907-.015625.007813-.027344.007813-.039063.003906-.019531.007813-.039062.007813-.0625l.003906-.023437v-.003906c.003906-.03125.003906-.0625.003906-.089844v-12.089844c0-.03125 0-.0625-.003906-.09375l-.003906-.023437c0-.023438-.003907-.046875-.007813-.070313l-.003906-.023437c-.003907-.019532-.007813-.042969-.015625-.0625 0-.011719-.003906-.023438-.007813-.039063-.003906-.015625-.011719-.03125-.015625-.046875-.003906-.011718-.007812-.027344-.015625-.039062-.003906-.015625-.011719-.035156-.019531-.050782-.003906-.007812-.007812-.019531-.011719-.03125-.011719-.019531-.019531-.039062-.03125-.058593l-.015625-.027344c-.011718-.023437-.027344-.046875-.046875-.074219l-.011719-.019531c-.015624-.015625-.027343-.035156-.039062-.050781-.011719-.011719-.019531-.019532-.027344-.03125-.011718-.011719-.023437-.023438-.035156-.039063-.007812-.007812-.019531-.015625-.027344-.027343-.011718-.011719-.027344-.023438-.039062-.035157-.007813-.007812-.019532-.015625-.027344-.023437-.015625-.011719-.03125-.023438-.046875-.035156l-.027344-.019532c-.015625-.011718-.035156-.023437-.050781-.035156l-.027344-.015625c-.023437-.015625-.050781-.03125-.078125-.042969l-3.710937-1.785156c-.101563-.046875-.214844-.0820312-.328125-.0976562-.015625 0-.03125 0-.046875 0-.011719-.0039063-.027344-.0078126-.039063-.0078126m.261719 5.1406248v7.617188l-4.648438-3.808594zm-11.25 1.238282 2.324219 2.570312-2.324219 2.570312zm0 0" fill="#52218a"/></svg>