<svg height="18" viewBox="0 0 18 18" width="18" xmlns="http://www.w3.org/2000/svg" xmlns:xlink="http://www.w3.org/1999/xlink"><filter id="a" height="100%" width="100%" x="0%" y="0%"><feColorMatrix color-interpolation-filters="sRGB" values="0 0 0 0 1 0 0 0 0 1 0 0 0 0 1 0 0 0 1 0"/></filter><mask id="b"><g filter="url(#a)"><path d="m-1.8-1.8h21.6v21.6h-21.6z" fill-opacity=".25"/></g></mask><linearGradient id="c" gradientTransform="matrix(.140625 0 0 -.140625 0 13.746094)" gradientUnits="userSpaceOnUse" x1="48" x2="48" y1="97.75" y2="2.25"><stop offset="0" stop-color="#fff"/><stop offset="1" stop-color="#fff" stop-opacity="0"/></linearGradient><clipPath id="d"><path d="m0 0h18v18h-18z"/></clipPath><path d="m2.023438 3.699219c-.070313.007812-.136719.023437-.199219.050781l-1.363281.5625c-.277344.117188-.460938.386719-.460938.6875v8c0 .300781.183594.570312.460938.6875l1.363281.570312c.261719.109376.5625.0625.777343-.121093l.304688-.261719c-.125.089844-.292969.101562-.429688.03125-.140624-.070312-.226562-.214844-.226562-.367188v-9.078124c0-.152344.085938-.296876.226562-.367188.136719-.070312.304688-.058594.429688.03125l-.304688-.253906c-.160156-.136719-.371093-.199219-.578124-.171875zm0 0" fill="#52218a"/><path d="m13.324219.0585938c-.347657-.046875-.699219.0703122-.949219.3164062l-11.625 12.851562c-.121094.132813-.308594.175782-.472656.109376-.164063-.0625-.277344-.222657-.277344-.398438v.0625c0 .300781.183594.570312.460938.6875l1.363281.570312c.261719.109376.5625.0625.777343-.121093l.304688-.261719 13.933594-11.425781c.210937-.171875.503906-.207031.753906-.089844.246094.117187.40625.367187.40625.640625v-.042969c0-.433593-.246094-.828125-.636719-1.015625l-3.710937-1.785156c-.101563-.046875-.214844-.0820312-.328125-.0976562" fill="#6c33af"/><path d="m2.089844 3.691406c-.089844 0-.179688.023438-.265625.058594l-1.363281.5625c-.277344.117188-.460938.386719-.460938.6875v.0625c0-.175781.113281-.335938.277344-.398438.164062-.066406.351562-.019531.472656.109376l11.625 12.851562c.335938.335938.847656.421875 1.277344.21875l3.710937-1.785156c.390625-.1875.636719-.582032.636719-1.015625v-.042969c0 .273438-.160156.523438-.40625.640625-.25.117187-.542969.082031-.753906-.089844l-13.933594-11.425781-.304688-.261719c-.144531-.121093-.324218-.179687-.511718-.171875zm0 0" fill="#854cc7"/><path d="m13.324219.0585938c-.28125-.0351563-.566407.0390624-.796875.2070312.203125-.109375.449218-.105469.652344.011719.199218.121094.320312.335937.320312.570312v16.3125c0 .265625-.160156.503906-.40625.605469s-.53125.046875-.71875-.140625c.335938.335938.847656.421875 1.277344.21875l3.710937-1.785156c.390625-.1875.636719-.582032.636719-1.011719v-12.089844c0-.433593-.246094-.828125-.636719-1.015625l-3.710937-1.785156c-.101563-.046875-.214844-.0820312-.328125-.0976562m-.796875.2070312c-.054688.027344-.105469.066406-.152344.109375.046875-.039062.097656-.078125.152344-.109375" fill="#b179f1"/><g mask="url(#b)"><g clip-path="url(#d)"><path d="m13.238281.0507812c-.144531-.0117187-.289062.0078126-.425781.0507808-.164062.058594-.3125.148438-.4375.273438l-5.976562 6.613281-3.492188-2.863281-.304688-.261719c-.1875-.160156-.441406-.21875-.679687-.15625-.03125.007813-.066406.019531-.097656.035157l-1.363281.570312c-.261719.109375-.4375005.351562-.460938.632812v8.109376c.0234375.28125.199219.527343.460938.632812l1.363281.5625c.03125.015625.066406.027344.097656.035156.238281.0625.492187.003906.679687-.15625l.304688-.253906 3.492188-2.859375 5.976562 6.609375c.148438.148438.335938.253906.542969.300781.246093.054688.507812.027344.734375-.082031l3.710937-1.785156c.390625-.1875.636719-.582032.636719-1.011719v-12.089844c0-.433593-.246094-.828125-.636719-1.015625l-3.710937-1.785156c-.128906-.0625-.269532-.0976562-.414063-.109375zm.261719 5.1406248v7.617188l-4.648438-3.808594zm-11.25 1.234375 2.328125 2.574219-2.328125 2.574219zm0 0" fill="url(#c)" fill-rule="evenodd"/></g></g></svg>