<svg height="18" viewBox="0 0 18 18" width="18" xmlns="http://www.w3.org/2000/svg"><path d="m12.875.269531-5.976562 1.171875c-.066407.011719-.117188.070313-.121094.136719l-.367188 6.210937c-.003906.046876.015625.09375.050782.125.035156.03125.085937.042969.132812.03125l1.664062-.386718c.203126-.046875.390626.136718.347657.339844l-.496094 2.421874c-.011719.054688.007813.105469.046875.144532.039062.035156.09375.046875.144531.027344l1.027344-.3125c.207031-.0625.414063.125.367187.335937l-.785156 3.804687c-.015625.085938.027344.144532.089844.167969.0625.027344.132812.019531.183594-.054687l.085937-.132813 4.867188-9.71875c.058593-.117187-.035157-.238281-.160157-.214843l-1.714843.332031c-.207031.039062-.390625-.160157-.332031-.367188l1.117187-3.875c.015625-.050781.003906-.105469-.03125-.144531-.035156-.035156-.089844-.054688-.140625-.042969zm-12.019531 1.820313c-.019531 0-.042969 0-.066407.003906-.292968.035156-.484374.371094-.324218.652344l8.238281 14.445312c.167969.296875.597656.296875.765625 0l8.078125-14.445312c.179687-.324219-.097656-.714844-.464844-.648438l-4.605469.839844-.410156 1.433594v.003906c-.019531.046875-.003906.101562.03125.140625s.085938.054687.136719.046875l1.714844-.332031c.230469-.046875.421875.203125.3125.414062l-4.871094 9.726563-.089844.136718c-.074219.117188-.222656.164063-.355469.113282-.128906-.054688-.199218-.191406-.171874-.328125l.785156-3.804688c.011718-.050781-.003906-.105469-.042969-.140625s-.09375-.046875-.144531-.03125l-1.03125.3125c-.207032.0625-.410156-.125-.367188-.335937l.496094-2.421875c.011719-.050782-.003906-.101563-.042969-.136719-.035156-.035156-.089843-.050781-.136719-.039063l-1.664062.386719c-.1875.042969-.367188-.109375-.355469-.300781l.277344-4.679688-5.625-1.003906c-.019531-.003906-.042969-.007812-.066406-.007812"/></svg>