<svg height="18" viewBox="0 0 18 18" width="18" xmlns="http://www.w3.org/2000/svg"><path d="m12.765625 17.878906c.289063.109375.613281.097656.890625-.035156l3.707031-1.785156c.390625-.1875.636719-.582032.636719-1.011719v-12.09375c0-.429687-.246094-.824219-.636719-1.011719l-3.707031-1.785156c-.429688-.2070312-.941406-.1171875-1.277344.21875l-7.09375 6.472656-3.089844-2.347656c-.289062-.214844-.691406-.199219-.957031.042969l-.992187.902343c-.1562502.144532-.246094.34375-.246094.554688s.0898438.414062.246094.554688l2.679687 2.445312-2.679687 2.445312c-.1562502.140626-.246094.34375-.246094.554688s.0898438.410156.246094.554688l.992187.902343c.265625.242188.667969.257813.957031.042969l3.089844-2.347656 7.09375 6.472656c.109375.109375.242188.195312.386719.253906zm.738281-12.964844-5.382812 4.085938 5.382812 4.085938zm0 0" fill-rule="evenodd"/></svg>