<svg height="18" viewBox="0 0 18 18" width="18" xmlns="http://www.w3.org/2000/svg"><path d="m2.667969.015625s-.585938.0273438-1.210938.375c-.625.347656-1.292969 1.023437-1.457031 2.285156v12.484375s.0390625.640625.414062 1.3125c.371094.671875 1.085938 1.378906 2.410157 1.511719h5.105469l.90625-.902344h-5.914063c-.003906-.003906-.441406-.058593-.910156-.335937s-.964844-.769532-1.078125-1.65625v-12.25s-.015625-.445313.21875-.910156c.234375-.46875.714844-.953126 1.738281-1.039063h4.925781l.808594-.875zm7.414062 0-.902343.902344h5.898437c.003906.003906.441406.058593.910156.335937s.964844.769532 1.078125 1.65625v12.25s.015625.445313-.21875.910156c-.234375.46875-.714844.953126-1.738281 1.039063h-4.910156l-.824219.875h5.957031s.585938-.027344 1.210938-.375 1.292969-1.023437 1.457031-2.285156v-12.484375s-.039062-.640625-.414062-1.3125c-.371094-.671875-1.085938-1.378906-2.410157-1.511719zm-7.40625.136719h5.628907l-.550782.597656h-4.871094c-1.070312.089844-1.601562.613281-1.855468 1.117188-.25.5-.234375.980468-.234375.980468v12.253906l.003906.003907c.117187.933593.648437 1.46875 1.144531 1.761719.496094.292968.964844.351562.964844.351562h5.59375l-.628906.628906h-5.035156c-1.277344-.128906-1.945313-.800781-2.300782-1.445312-.355468-.640625-.394531-1.246094-.394531-1.25v-12.460938c.15625-1.21875.789063-1.847656 1.382813-2.175781.597656-.332031 1.152343-.363281 1.152343-.363281m7.464844 0h5.023437c1.277344.128906 1.945313.800781 2.300782 1.441406.355468.644531.394531 1.25.394531 1.253906v12.460938c-.15625 1.21875-.789063 1.847656-1.382813 2.175781-.597656.332031-1.152343.363281-1.152343.363281h-5.628907l.5625-.597656h4.859376c1.070312-.089844 1.601562-.613281 1.855468-1.117188.25-.5.234375-.980468.234375-.980468v-12.253906l-.003906-.003907c-.117187-.933593-.648437-1.46875-1.144531-1.761719-.496094-.292968-.964844-.351562-.964844-.351562h-5.578125zm-6.53125 1.929687c-.261719.007813-.628906.09375-.941406.328125-.308594.234375-.558594.617188-.558594 1.1875v7.835938c.023437.246094.128906.589844.355469.882812.226562.289063.582031.523438 1.085937.523438h1.082031v-.816406h-1.09375c-.257812 0-.398437-.128907-.488281-.277344-.089843-.148438-.121093-.304688-.136719-.371094v-7.765625c0-.324219.144532-.484375.304688-.578125s.335938-.109375.398438-.117188l7.609374.027344c.261719 0 .410157.136719.507813.292969.09375.15625.128906.320313.144531.386719v.855468h.832032v-.933593c-.03125-.25-.136719-.601563-.367188-.898438s-.589844-.535156-1.105469-.535156zm.003906.136719 7.625.03125c.472657 0 .785157.210938.992188.480469.210937.269531.3125.601562.339843.828125v.777344h-.550781v-.734376l-.003906-.007812c-.011719-.050781-.050781-.25-.164063-.433594-.113281-.179687-.3125-.355468-.625-.355468l-7.621093-.03125h-.003907c-.054687.007812-.261718.027343-.453124.140624-.191407.109376-.375.328126-.375.695313v7.785156l.003906.007813c.011718.046875.046875.238281.152344.414062.109374.179688.300781.34375.609374.34375h.953126v.542969h-.941407c-.460937 0-.769531-.207031-.976562-.472656s-.304688-.589844-.324219-.808594v-7.824219c0-.53125.222656-.863281.503906-1.074218.28125-.210938.628906-.296876.859375-.304688zm3.085938 2.839844c-.25.007812-.609375.09375-.910157.316406-.300781.222656-.542968.59375-.542968 1.140625v7.835937c.023437.238282.117187.570313.335937.847657.214844.28125.558594.503906 1.046875.503906h7.585938c.097656 0 .679687-.011719 1.105468-.441406.289063-.273438.425782-.65625.425782-1.101563v-7.695312c-.023438-.238282-.125-.574219-.34375-.863282-.222656-.285156-.570313-.515624-1.070313-.515624l-7.613281-.027344zm.003906.136718h.011719l7.617187.03125c.457031 0 .757813.203126.957031.460938.203126.261719.296876.578125.316407.789062v7.683594c0 .417969-.121094.757813-.382813 1.003906-.382812.382813-.925781.398438-1.007812.398438h-7.585938c-.449218 0-.742187-.195312-.9375-.449219-.195312-.25-.285156-.5625-.304687-.773437v-7.824219c0-.507813.210937-.828125.484375-1.027344.273437-.203125.609375-.285156.832031-.292969m.011719.441407c-.066406 0-.273438.015625-.480469.136719-.210937.117187-.410156.351562-.410156.742187v7.78125c.007812.066406.039062.261719.15625.453125.113281.191406.320312.375.648437.375h7.585938c.015625 0 .429687.003906.714844-.265625.160156-.160156.238281-.398437.238281-.6875v-7.652344c-.023438-.167969-.078125-.328125-.167969-.472656-.121094-.195313-.339844-.382813-.683594-.382813zm0 .136719 7.601562.03125c.292969 0 .460938.144531.566406.316406.105469.167968.140626.359375.144532.414062v7.636719c0 .261719-.066406.457031-.195313.585937-.234375.222657-.601562.226563-.617187.226563h-7.585938c-.277344 0-.429687-.140625-.53125-.304687-.097656-.164063-.128906-.347657-.132812-.398438v-7.765625c0-.347656.160156-.519531.335937-.621094.179688-.101562.382813-.121093.414063-.121093" fill="#0091da"/></svg>