<svg height="18" viewBox="0 0 18 18" width="18" xmlns="http://www.w3.org/2000/svg"><g fill="#5ecf7b"><path d="m17.15625 15.992188v.589843c-.117188.191407-.289062.234375-.503906.234375-5.132813-.007812-10.265625-.003906-15.394532-.007812-.039062 0-.078124.003906-.113281 0-.253906-.007813-.390625-.148438-.386719-.402344.007813-.179688.03125-.359375.042969-.542969.128907-1.601562.253907-3.195312.378907-4.796875.132812-1.644531.265624-3.285156.398437-4.929687.101563-1.285157.203125-2.566407.308594-3.847657.023437-.261718.148437-.371093.414062-.375.152344-.003906.300781 0 .453125-.003906h12.320313c.164062 0 .332031 0 .5.003906.242187.003907.375.117188.40625.359376.011719.113281-.011719.226562 0 .339843.042969.445313.097656.886719.136719 1.332031.054687.570313.097656 1.144532.144531 1.714844l.269531 3.277344c.164062 1.996094.328125 3.992188.496094 5.988281.03125.359375.085937.714844.128906 1.066407m-8.507812-3.675782c.558593-.003906 1.101562-.136718 1.585937-.4375 1.472656-.914062 2.0625-2.308594 2.125-3.980468.007813-.152344-.070313-.253907-.242187-.261719-.195313-.007813-.214844.117187-.226563.265625-.027344.304687-.035156.613281-.097656.910156-.207031.953125-.625 1.789062-1.414063 2.398438-.683594.527343-1.4375.785156-2.308594.578124-1.101562-.261718-1.777343-1-2.242187-1.972656-.28125-.585937-.402344-1.214844-.417969-1.867187-.003906-.230469-.121094-.351563-.289062-.308594-.164063.042969-.1875.175781-.183594.320313.03125.972656.277344 1.882812.828125 2.695312.6875 1.015625 1.609375 1.628906 2.882813 1.660156m3.445312-5.660156c.382812.382812.707031.707031 1.027344 1.035156.113281.113282.238281.144532.355468.023438.109376-.109375.085938-.238282-.019531-.34375-.378906-.378906-.757812-.761719-1.140625-1.136719-.113281-.113281-.257812-.140625-.382812-.023437-.394532.382812-.785156.773437-1.167969 1.171874-.101563.105469-.140625.257813-.003906.367188.128906.105469.25.066406.359375-.050781.316406-.34375.636718-.683594.972656-1.042969"/><path d="m14.886719 1.230469c.195312.191406.164062.441406.1875.679687-4.105469 0-8.214844.003906-12.320313.003906.054688-.238281-.042968-.519531.230469-.683593zm0 0"/></g></svg>