<svg height="18" viewBox="0 0 18 18" width="18" xmlns="http://www.w3.org/2000/svg"><path d="m.132812 1.28125 2.117188 3.667969 2.117188-3.667969zm13.5 0 2.117188 3.667969 2.117188-3.667969zm-9.132812.078125-2.160156 3.742187 2.160156 3.742188 2.160156-3.742188zm9 0-2.160156 3.742187 2.160156 3.742188 2.160156-3.742188zm-5.582031 1.871094-1.078125 1.871093 2.160156 3.742188 2.160156-3.742188-1.082031-1.871093zm-1.167969 2.027343-1.085938 1.878907-1.074218 1.863281 2.160156 3.742188 2.160156-3.742188zm4.5 0-2.160156 3.742188 2.160156 3.742188 2.160156-3.742188zm-2.25 3.898438-2.160156 3.742188 2.160156 3.742187 2.160156-3.742187zm0 0"/></svg>