<svg height="18" viewBox="0 0 18 18" width="18" xmlns="http://www.w3.org/2000/svg"><path d="m.03125.03125v17.9375h17.9375v-17.9375h-6.917969c.003907.03125.007813.0625.007813.097656 0 1.136719-.921875 2.054688-2.058594 2.054688s-2.058594-.917969-2.058594-2.054688c0-.035156.003906-.066406.007813-.097656zm4.160156 9.667969h1.1875l.816406 4.320312h.011719l.980469-4.320312h1.113281l.882813 4.375h.011718l.929688-4.375h1.164062l-1.511718 6.347656h-1.183594l-.871094-4.320313h-.015625l-.941406 4.320313h-1.203125zm8.4375 0h1.875l1.867188 6.347656h-1.230469l-.40625-1.410156h-2.136719l-.308594 1.410156h-1.195312zm.714844 1.566406-.515625 2.328125h1.613281l-.597656-2.328125zm0 0" fill="#654ff0"/></svg>