<svg height="18" viewBox="0 0 18 18" width="18" xmlns="http://www.w3.org/2000/svg"><g fill="none" stroke="#fff" stroke-linecap="round" stroke-linejoin="round" stroke-width="2" transform="scale(.75)"><path d="m17 17h-5c-1.088542-.020833-1.9375.921875-2.5 1.901042-1.078125 1.911458-3.5 2.588541-5.416667 1.515625-1.911458-1.078125-2.588541-3.505209-1.515625-5.416667m6.432292-11.598958c.854167-.989584 2.135417-1.5 3.432292-1.369792 1.296875.135417 2.453125.890625 3.088541 2.03125"/><path d="m6 17 3.098958-5.802083c.3125-.640625.333334-1.385417.057292-2.046875m11.145833 11.151041c-.677083.463542-1.484375.708334-2.302083.697917m.598958-8c1.755209.270833 3.119792 1.65625 3.359375 3.411458m-9.958333-10.411458.598958 1m-10.598958-5 20 20"/></g></svg>