<svg height="18" viewBox="0 0 18 18" width="18" xmlns="http://www.w3.org/2000/svg" xmlns:xlink="http://www.w3.org/1999/xlink"><filter id="a" height="100%" width="100%" x="0%" y="0%"><feColorMatrix color-interpolation-filters="sRGB" values="0 0 0 0 1 0 0 0 0 1 0 0 0 0 1 0 0 0 1 0"/></filter><linearGradient id="b" gradientTransform="matrix(.138248 0 0 -.143044 13.943531 18.125859)" gradientUnits="userSpaceOnUse" x1="-100.860001" x2="-37.245998" y1="63.797001" y2="63.797001"><stop offset="0" stop-color="#00d2e6"/><stop offset="1" stop-color="#2eccaa"/></linearGradient><linearGradient id="c" gradientTransform="matrix(.163561 0 0 -.120909 15.209016 16.974844)" gradientUnits="userSpaceOnUse" x1="-59.459999" x2="-26.638" y1="27.872999" y2="43.338001"><stop offset="0" stop-opacity="0"/><stop offset=".514"/><stop offset="1" stop-opacity="0"/></linearGradient><linearGradient id="d" gradientTransform="matrix(.138248 0 0 -.143044 13.943531 18.125859)" gradientUnits="userSpaceOnUse" x1="29.341999" x2="-34.164001" y1="63.797001" y2="63.797001"><stop offset="0" stop-color="#1fa385"/><stop offset="1" stop-color="#2eccaa"/></linearGradient><mask id="e"><g filter="url(#a)"><path d="m-1.8-1.8h21.6v21.6h-21.6z" fill-opacity=".3"/></g></mask><clipPath id="f"><path d="m0 0h18v18h-18z"/></clipPath><path d="m11.53125 12.445312c-.265625 0-.519531-.054687-.773438-.167968-.5625-.238282-1.039062-.703125-1.449218-1.324219.113281-.195313.210937-.40625.308594-.617187.394531-.929688.59375-1.953126.605468-2.96875v-.109376c0-.394531-.054687-.804687-.195312-1.167968-.15625-.4375-.410156-.859375-.800782-1.027344-.070312-.027344-.15625-.042969-.226562-.042969-.507812-.941406-.519531-1.828125 0-2.683593h.027344c.605468 0 1.210937.195312 1.730468.519531 1.40625.898437 2.109376 2.628906 2.125 4.34375v.058593h.011719c-.011719 1.8125-.449219 3.65625-1.363281 5.1875m-3.121094 2.839844c-1.308594.535156-2.839844.507813-4.136718-.097656-1.488282-.6875-2.640626-2.054688-3.34375-3.585938-1.210938-2.644531-1.238282-5.792968-.085938-8.464843.859375.335937 1.617188-.199219 1.617188-.199219s0 .84375.816406 1.265625c-.832032 1.957031-.816406 4.289063.027344 6.203125.40625.914062 1.027343 1.773438 1.871093 2.265625.308594.167969.644531.28125.984375.320313.605469.929687 1.378906 1.730468 2.25 2.292968" fill="url(#b)"/><path d="m5.117188 7.269531v-.054687c.015624-1.714844.71875-3.460938 2.125-4.347656.519531-.320313 1.125-.519532 1.730468-.519532h.027344v2.6875c-.070312 0-.15625.011719-.226562.042969-.390626.167969-.644532.601563-.800782 1.023437-.140625.382813-.195312.773438-.195312 1.167969v.113281c.011718 1.011719.195312 2.023438.605468 2.953126.433594 1.054687 1.152344 2.011718 2.164063 2.445312.757813.339844 1.601563.253906 2.292969-.140625.855468-.476563 1.476562-1.335937 1.871094-2.261719.84375-1.914062.855468-4.234375.027343-6.203125.816407-.421875.816407-1.265625.816407-1.265625s.757812.550782 1.617187.199219c1.136719 2.671875 1.109375 5.835937-.085937 8.464844-.703126 1.546875-1.84375 2.894531-3.347657 3.585937-1.335937.617188-2.894531.632813-4.230469.054688-1.210937-.492188-2.195312-1.433594-2.898437-2.53125-1.011719-1.589844-1.492187-3.515625-1.492187-5.414063" fill="url(#d)"/><g mask="url(#e)"><g clip-path="url(#f)"><path d="m11.53125 12.445312c-.265625 0-.519531-.054687-.773438-.167968-.5625-.238282-1.039062-.703125-1.449218-1.324219.113281-.195313.210937-.40625.308594-.617187.128906-.28125.226562-.5625.3125-.859376.195312-.671874 2.753906.183594 2.375 1.308594-.210938.578125-.464844 1.140625-.773438 1.660156m-3.121094 2.839844c-1.308594.535156-2.839844.507813-4.136718-.097656-1.488282-.6875.042968-3.023438.902343-2.546875.308594.171875.632813.28125.984375.324219.605469.957031 1.378906 1.757812 2.25 2.320312" fill="url(#c)" fill-rule="evenodd"/></g></g></svg>