<svg height="18" viewBox="0 0 18 18" width="18" xmlns="http://www.w3.org/2000/svg"><path d="m11.25.769531-.597656.578125-.757813-.292968-2.402343 1.296874-2.617188-1.558593-4.105469 1.703125 2.21875 13.148437 9.101563 1.585938.574218-2.925781.15625-.089844h-9.035156v-10.429688h10.429688v9.601563l3.015625-1.789063-1.800781-3.375 1.800781-1.878906-1.324219-3.265625-.800781-1.980469zm-7.324219 3.15625v10.148438h10.148438v-10.148438zm7.433594 1.160157c.519531-.007813 1.03125.164062 1.4375.492187l-.445313.640625c-.289062-.226562-.636718-.359375-1.003906-.378906-.328125 0-.5.148437-.5.339844v.015624c0 .253907.171875.339844.835938.511719.785156.207031 1.230468.488281 1.230468 1.164063v.007812c0 .769532-.589843 1.203125-1.421874 1.203125-.605469 0-1.191407-.21875-1.640626-.621093v-.015626l.5-.601562c.316407.292969.726563.460938 1.15625.46875.34375 0 .558594-.136719.558594-.363281v-.011719c0-.214844-.132812-.324219-.78125-.492188-.777344-.195312-1.28125-.414062-1.28125-1.179687v-.015625c0-.699219.5625-1.164062 1.355469-1.164062m-4.453125.050781h.652344l.65625 2.25.574218-2.25h.898438l-1.097656 3.859375h-.734375l-.625-2.234375-.628907 2.234375h-.722656l-1.101562-3.859375h.898437l.574219 2.25zm-1.765625 7.0625h3.855469v.644531h-3.855469zm0 0" fill="#07c3f2"/></svg>