<svg height="18" viewBox="0 0 18 18" width="18" xmlns="http://www.w3.org/2000/svg"><path d="m9.011719 17.75c4.820312-.007812 8.722656-3.929688 8.722656-8.765625 0-4.757813-3.882813-8.675781-8.523437-8.757813-4.871094-.085937-8.945313 3.867188-8.945313 8.664063 0 4.929687 3.882813 8.867187 8.746094 8.859375m-.011719-17.097656c4.625-.003906 8.3125 3.757812 8.3125 8.476562 0 4.453125-3.785156 8.179688-8.308594 8.179688-4.609375.003906-8.316406-3.734375-8.316406-8.378906 0-4.527344 3.765625-8.277344 8.3125-8.277344m-3.492188 4.394531c.074219.253906-.136718.339844-.363281.359375-.234375.015625-.472656.035156-.75.054688.910157 2.707031 1.804688 5.371093 2.71875 8.097656.066407-.105469.09375-.136719.105469-.171875.5-1.503907 1.007812-3.003907 1.496094-4.511719.046875-.136719.023437-.316406-.027344-.457031-.257812-.75-.566406-1.480469-.796875-2.238281-.152344-.519532-.359375-.855469-.972656-.792969-.105469.007812-.230469-.214844-.347657-.332031.140626-.082032.28125-.238282.421876-.242188 1.25-.019531 2.496093-.019531 3.746093.003906.140625 0 .28125.160156.421875.246094-.121094.113281-.230468.28125-.375.328125-.230468.070313-.488281.054687-.765625.082031l2.71875 8.09375c.414063-1.371094.796875-2.628906 1.171875-3.886718.332032-1.125.132813-2.175782-.46875-3.167969-.179687-.296875-.402344-.585938-.503906-.914063-.117188-.367187-.214844-.789062-.152344-1.160156.105469-.628906.585938-.941406 1.238282-1-3.570313-3.3125-9.179688-2.128906-11.25 1.472656.796874-.035156 1.558593-.085937 2.316406-.09375.144531-.003906.382812.117188.417968.230469m1.421876 10.964844c-.015626.050781-.019532.101562-.03125.183593 1.539062.425782 3.046874.394532 4.59375-.125l-2.359376-6.460937c-.757812 2.195313-1.480468 4.296875-2.203124 6.402344m-1.191407-.292969-3.554687-9.75c-1.601563 3.132812-.382813 7.910156 3.554687 9.75m10.75-6.265625c.113281-1.480469-.398437-3.53125-.839843-3.8125-.050782.542969-.015626 1.148437-.171876 1.703125-.367187 1.300781-.816406 2.578125-1.25 3.863281-.472656 1.390625-.960937 2.78125-1.445312 4.171875 2.265625-1.34375 3.507812-3.324218 3.707031-5.925781" fill="#494949" fill-rule="evenodd"/></svg>