<svg height="18" viewBox="0 0 18 18" width="18" xmlns="http://www.w3.org/2000/svg"><g fill="none" stroke="#fff" stroke-linecap="round" stroke-linejoin="round" stroke-width="2" transform="scale(.75)"><path d="m5 3h4c1.104167 0 2 .895833 2 2v4c0 1.104167-.895833 2-2 2h-4c-1.104167 0-2-.895833-2-2v-4c0-1.104167.895833-2 2-2zm0 0"/><path d="m7 11v4c0 1.104167.895833 2 2 2h4"/><path d="m15 13h4c1.104167 0 2 .895833 2 2v4c0 1.104167-.895833 2-2 2h-4c-1.104167 0-2-.895833-2-2v-4c0-1.104167.895833-2 2-2zm0 0"/></g></svg>