<svg height="18" viewBox="0 0 18 18" width="18" xmlns="http://www.w3.org/2000/svg"><path d="m19 12-1.5 3m2.130208 3.8125 2.369792 1.1875m-15.53125-11.770833c.59375-.333334 1.333333-.276042 1.869792.145833.536458.421875.760416 1.130208.572916 1.786458l-.640625 2.078125c-.854166 2.723959.098959 5.692709 2.380209 7.411459 2.276041 1.723958 5.390625 1.822916 7.78125.260416l.416666-.270833c1.161459-.755208 1.494792-2.307292.739584-3.46875-.75-1.166667-2.307292-1.494792-3.46875-.739583l-.421875.265625c-.619792.395833-1.416667.364583-2.005209-.078125-.583333-.442709-.833333-1.208334-.625-1.911459l.640625-2.078125c.838542-2.640625-.041666-5.520833-2.213541-7.239583s-5.177084-1.911458-7.557292-.489583l-.697917.401041c-1.197916.703125-1.598958 2.244792-.895833 3.442709.703125 1.197916 2.25 1.598958 3.447917.895833zm0 0" fill="none" stroke="#fff" stroke-linecap="round" stroke-linejoin="round" stroke-width="2" transform="scale(.75)"/></svg>