<svg height="18" viewBox="0 0 18 18" width="18" xmlns="http://www.w3.org/2000/svg"><g fill="#069cec"><path d="m9.464844 15.300781h3.277344c1.417968 0 2.570312-1.152343 2.570312-2.574219v-7.46875c0-.28125-.039062-.53125-.125-.785156h.015625c.179687 0 .335937.292969.40625.449219.070313.140625.265625.253906.449219.335937v7.707032c0 1.703125-1.378906 3.082031-3.078125 3.082031h-3.882813c.097656-.199219.226563-.453125.367188-.746094m.855468-13.359375c1.070313.027344 1.519532.335938 1.730469.757813h-6.777343c-1.421876 0-2.574219 1.152343-2.574219 2.574219v7.46875c0 1.417968 1.152343 2.570312 2.574219 2.570312h.535156c-.058594.15625-.113282.382812-.113282.523438 0 .082031.027344.152343.054688.238281h-.714844c-1.703125 0-3.082031-1.378907-3.082031-3.082031v-7.972657c0-1.699219 1.378906-3.078125 3.082031-3.078125zm0 0"/><path d="m12.640625 14.960938h-3.007813c.464844-.953126 1.039063-2.179688 1.5625-3.261719l.800782 1.378906c.183594.308594.574218.421875.886718.238281.308594-.183594.421876-.574218.238282-.886718l-1.253906-2.164063c.351562-.730469.59375-1.238281.621093-1.308594.125-.265625.183594-.605469.335938-.925781.421875-.816406 1.335937-2.785156 1.714843-3.152344.128907-.113281.210938-.210937.296876-.265625.085937.238281.125.476563.125.746094v7.269531c0 1.292969-1.039063 2.332032-2.320313 2.332032m.746094-4.933594h-1.25l.746093 1.308594h.503907c.367187 0 .648437-.296876.648437-.648438 0-.367188-.28125-.660156-.648437-.660156m-10.347657 2.601562v-7.269531c0-1.296875 1.039063-2.335937 2.332032-2.335937h6.808594c.039062.15625.070312.308593.082031.476562.027343.226562-.292969.945312-.335938 1.027344-.308593.621094-.957031 1.84375-1.308593 2.460937-.085938.167969-.296876.421875-.308594.449219 0 0-.015625.015625-.027344.042969l-.3125-.535157-.742188 1.308594.308594.535156c-.210937.367188-.449218.789063-.71875 1.222657h-4.203125c-.367187 0-.648437.296875-.648437.648437 0 .363282.296875.644532.648437.644532h3.445313c-.902344 1.546874-1.785156 3.082031-2.097656 3.628906h-.589844c-1.277344.027344-2.332032-1.011719-2.332032-2.304688m5.695313-7.804687c-.183594-.308594-.578125-.421875-.886719-.238281-.308594.179687-.421875.574218-.238281.882812l.460937.816406.746094-1.308594zm-.734375 4.851562 2.433594-4.21875c.183594-.308593.070312-.703125-.238282-.886719-.308593-.183593-.703124-.070312-.886718.238282l-2.8125 4.867187zm-1.9375 3.386719.800781-1.390625h-1.503906l-.4375.746094c-.183594.308593-.070313.703125.238281.886719.308594.179687.71875.070312.902344-.242188"/><path d="m9.730469 1.308594c0-.113282.128906-.199219.410156-.308594.28125-.113281.714844-.226562 1.335937-.226562 1.8125 0 2.992188.703124 3.738282 1.097656.464844.253906.519531.660156.886718.925781.253907.183594.589844.140625.859376.101563h.027343s.746094.378906.746094.390624c.039063.042969-.128906.464844-.367187.972657-.253907.519531-.492188.914062-.546876.886719-.03125-.015626-.804687-.4375-.804687-.4375s-.027344-.15625-.109375-.265626c-.15625-.210937-.421875-.464843-.71875-.464843-.394531 0-.800781.335937-1.125.730469-.378906.4375-1.390625 2.558593-1.773438 3.359374-.027343.070313-.082031.382813-.140624.507813-.109376.253906-3.554688 7.425781-3.867188 8.058594-.109375.210937-.335938.308593-.617188.308593-.5625 0-1.492187-.535156-1.503906-1.109374 0-.085938.054688-.324219.097656-.4375.085938-.210938 4.402344-7.609376 4.457032-7.707032.015625-.027344.167968-.195312.269531-.363281.335937-.632813 1.136719-2.109375 1.445313-2.714844.042968-.085937.324218-.816406.3125-1.042969-.101563-.996093-.351563-2.109374-2.757813-2.179687-.085937 0-.253906-.039063-.253906-.082031"/></g></svg>