<svg height="18" viewBox="0 0 18 18" width="18" xmlns="http://www.w3.org/2000/svg" xmlns:xlink="http://www.w3.org/1999/xlink"><linearGradient id="a" gradientUnits="userSpaceOnUse" x1="8.99254673437" x2="8.99254673437" y1="16.05445326563" y2="1.938375"><stop offset="0" stop-color="#1578e4"/><stop offset="1" stop-color="#00c3f2"/></linearGradient><linearGradient id="b"><stop offset="0" stop-color="#1492e7"/><stop offset="1" stop-color="#dbedfb"/></linearGradient><linearGradient id="c" gradientUnits="userSpaceOnUse" x1="13.22395354688" x2="13.22395354688" xlink:href="#b" y1="11.20303125" y2="10.15087471875"/><linearGradient id="d" gradientUnits="userSpaceOnUse" x1="12.52153125" x2="12.52153125" xlink:href="#b" y1="11.20303125" y2="10.15087471875"/><linearGradient id="e" gradientUnits="userSpaceOnUse" x1="8.99254673437" x2="8.99254673437" xlink:href="#b" y1="11.20303125" y2="10.15087471875"/><linearGradient id="f" gradientUnits="userSpaceOnUse" x1="8.290125" x2="8.290125" xlink:href="#b" y1="11.20303125" y2="10.15087471875"/><linearGradient id="g" gradientUnits="userSpaceOnUse" x1="7.58784375" x2="7.58784375" xlink:href="#b" y1="11.20303125" y2="10.15087471875"/><linearGradient id="h" gradientUnits="userSpaceOnUse" x1="6.88542201563" x2="6.88542201563" xlink:href="#b" y1="11.20303125" y2="10.15087471875"/><linearGradient id="i" gradientUnits="userSpaceOnUse" x1="6.18299985938" x2="6.18299985938" xlink:href="#b" y1="11.20303125" y2="10.15087471875"/><linearGradient id="j" gradientUnits="userSpaceOnUse" x1="5.46356264063" x2="5.46356264063" xlink:href="#b" y1="11.20303125" y2="10.15087471875"/><linearGradient id="k" gradientUnits="userSpaceOnUse" x1="4.76114034375" x2="4.76114034375" xlink:href="#b" y1="11.20303125" y2="10.15087471875"/><linearGradient id="l"><stop offset="0" stop-color="#1285e7"/><stop offset="1" stop-color="#00b5ef"/></linearGradient><linearGradient id="m" gradientUnits="userSpaceOnUse" x1="10.34718778125" x2="10.34718778125" xlink:href="#l" y1="13.25390625" y2="4.59028096875"/><linearGradient id="n" gradientUnits="userSpaceOnUse" x1="12.29962457813" x2="7.60514076563" y1="13.21565582813" y2="5.08443721875"><stop offset="0" stop-color="#2b90e7"/><stop offset="1" stop-color="#00b6ef"/></linearGradient><linearGradient id="o" gradientUnits="userSpaceOnUse" x1="12.52589034375" x2="7.675734375" y1="13.26473479688" y2="4.86407826563"><stop offset="0" stop-color="#3795ea"/><stop offset="1" stop-color="#49c4f2"/></linearGradient><linearGradient id="p" gradientUnits="userSpaceOnUse" x1="12.80053139062" x2="7.88512485938" y1="13.18148451563" y2="4.66776576563"><stop offset="0" stop-color="#3696ea"/><stop offset="1" stop-color="#90d9f6"/></linearGradient><linearGradient id="q" gradientUnits="userSpaceOnUse" x1="13.01934389063" x2="8.16539048437" y1="12.98418764063" y2="4.57692201563"><stop offset="0" stop-color="#3097ea"/><stop offset="1" stop-color="#b5e5f9"/></linearGradient><linearGradient id="r" gradientUnits="userSpaceOnUse" x1="13.089796875" x2="8.40107826562" y1="12.75271832813" y2="4.63162514062"><stop offset="0" stop-color="#3a98ea"/><stop offset="1" stop-color="#bce7fa"/></linearGradient><linearGradient id="s"><stop offset="0" stop-color="#00a4ec"/><stop offset="1" stop-color="#b9dff6"/></linearGradient><linearGradient id="t" gradientUnits="userSpaceOnUse" x1="9.55982854688" x2="10.47051576563" xlink:href="#s" y1="8.60990653125" y2="8.084109375"/><linearGradient id="u" gradientUnits="userSpaceOnUse" x1="9.209109375" x2="10.11965596875" xlink:href="#s" y1="8.00240596875" y2="7.476609375"/><linearGradient id="v"><stop offset="0" stop-color="#00b4ef"/><stop offset="1" stop-color="#c3e9fa"/></linearGradient><linearGradient id="w" gradientUnits="userSpaceOnUse" x1="8.14640625" x2="9.05118721875" xlink:href="#v" y1="6.162046875" y2="5.639765625"/><linearGradient id="x" gradientUnits="userSpaceOnUse" x1="7.794" x2="8.70468778125" xlink:href="#v" y1="5.55145326563" y2="5.02565610938"/><linearGradient id="y" gradientUnits="userSpaceOnUse" x1="7.67334403125" x2="7.67334403125" xlink:href="#l" y1="13.27514076562" y2="4.61165610938"/><linearGradient id="z" gradientUnits="userSpaceOnUse" x1="5.720765625" x2="10.41525042187" y1="13.23717145313" y2="5.10623451562"><stop offset="0" stop-color="#3194e9"/><stop offset="1" stop-color="#71cff4"/></linearGradient><linearGradient id="A" gradientUnits="userSpaceOnUse" x1="5.493234375" x2="10.34395298438" y1="13.28653153125" y2="4.88475"><stop offset="0" stop-color="#5aa6ec"/><stop offset="1" stop-color="#a2def8"/></linearGradient><linearGradient id="B" gradientUnits="userSpaceOnUse" x1="5.21971875" x2="10.13512485938" y1="13.20257840625" y2="4.68885923438"><stop offset="0" stop-color="#66abee"/><stop offset="1" stop-color="#bee8fa"/></linearGradient><linearGradient id="C" gradientUnits="userSpaceOnUse" x1="5.00175014063" x2="9.85570298438" y1="13.00528153125" y2="4.59801548438"><stop offset="0" stop-color="#7bb6f0"/><stop offset="1" stop-color="#b1e3f9"/></linearGradient><linearGradient id="D" gradientUnits="userSpaceOnUse" x1="4.92975" x2="9.62085951563" y1="12.77887528125" y2="4.65356235938"><stop offset="0" stop-color="#5aa6ec"/><stop offset="1" stop-color="#afe3f9"/></linearGradient><linearGradient id="E"><stop offset="0" stop-color="#c1e7fa"/><stop offset="1" stop-color="#89d4f5"/></linearGradient><linearGradient id="F" gradientUnits="userSpaceOnUse" x1="9.33215625" x2="10.24284332813" xlink:href="#E" y1="5.01876548438" y2="5.54456264063"/><linearGradient id="G" gradientUnits="userSpaceOnUse" x1="8.97974985938" x2="9.89043764063" xlink:href="#E" y1="5.62921860937" y2="6.15487528125"/><linearGradient id="H" gradientUnits="userSpaceOnUse" x1="8.61651548438" x2="9.52706264063" xlink:href="#E" y1="6.25851576563" y2="6.784171875"/><linearGradient id="I" gradientUnits="userSpaceOnUse" x1="8.26326590625" x2="9.1738125" y1="6.870234375" y2="7.39603153125"><stop offset="0" stop-color="#b0dff8"/><stop offset="1" stop-color="#52bdf2"/></linearGradient><linearGradient id="J"><stop offset="0" stop-color="#b4def8"/><stop offset="1" stop-color="#4eb5f0"/></linearGradient><linearGradient id="K" gradientUnits="userSpaceOnUse" x1="7.91015625" x2="8.82098451563" xlink:href="#J" y1="7.48181235938" y2="8.00760951563"/><linearGradient id="L" gradientUnits="userSpaceOnUse" x1="7.55718778125" x2="8.467734375" xlink:href="#J" y1="8.09339076563" y2="8.619046875"/><linearGradient id="M" gradientUnits="userSpaceOnUse" x1="7.20548409375" x2="8.11589076563" y1="8.70271903125" y2="9.22837514063"><stop offset="0" stop-color="#b5ddf8"/><stop offset="1" stop-color="#46aeee"/></linearGradient><linearGradient id="N" gradientUnits="userSpaceOnUse" x1="6.85335951563" x2="7.76404673438" y1="9.31218764063" y2="9.837984375"><stop offset="0" stop-color="#96cef4"/><stop offset="1" stop-color="#46aaee"/></linearGradient><linearGradient id="O"><stop offset="0" stop-color="#8fc1f2"/><stop offset="1" stop-color="#3193ea"/></linearGradient><linearGradient id="P" gradientUnits="userSpaceOnUse" x1="6.00735965625" x2="6.705140625" xlink:href="#O" y1="11.26898465625" y2="11.671875"/><linearGradient id="Q" gradientUnits="userSpaceOnUse" x1="5.43290610938" x2="6.34359389063" xlink:href="#O" y1="11.77270354688" y2="12.29850014063"/><linearGradient id="R" gradientUnits="userSpaceOnUse" x1="5.07993764063" x2="5.99048423438" xlink:href="#O" y1="12.3838599375" y2="12.90965653125"/><linearGradient id="S" gradientUnits="userSpaceOnUse" x1="10.78903125" x2="12.54079701563" y1="9.13120298437" y2="9.98550042188"><stop offset=".001"/><stop offset="1" stop-opacity="0"/></linearGradient><linearGradient id="T" gradientUnits="userSpaceOnUse" x1="11.91909417188" x2="13.29215667188" y1="5.50884375" y2="6.20845284375"><stop offset="0" stop-color="#344351"/><stop offset=".1" stop-color="#9697a0"/><stop offset=".181" stop-color="#8b8c95"/><stop offset=".351" stop-color="#787a83"/><stop offset=".47" stop-color="#71747d"/><stop offset=".591" stop-color="#777982"/><stop offset=".749" stop-color="#87898f"/><stop offset=".8" stop-color="#8e8f94"/><stop offset=".849" stop-color="#3d3b42"/><stop offset=".9" stop-color="#606e84"/></linearGradient><linearGradient id="U" gradientUnits="userSpaceOnUse" x1="16.57743792188" x2="15.02760923438" y1="4.114265625" y2="2.0199375"><stop offset=".27" stop-color="#262b33"/><stop offset=".45" stop-color="#74747e"/><stop offset=".54" stop-color="#b0b0bc"/><stop offset=".73" stop-color="#74747e"/></linearGradient><linearGradient id="V" gradientUnits="userSpaceOnUse" x1="13.85746875" x2="16.14585965625" y1="4.278375" y2="3.98278139063"><stop offset=".14" stop-color="#606e84"/><stop offset=".4" stop-color="#9899a5"/><stop offset=".73" stop-color="#475768"/><stop offset=".92" stop-color="#262b33"/></linearGradient><linearGradient id="W" gradientUnits="userSpaceOnUse" x1="14.92424971875" x2="14.7022036875" y1="4.47300014063" y2="3.21384375"><stop offset="0" stop-color="#101215" stop-opacity=".1"/><stop offset=".46" stop-color="#101215" stop-opacity=".7"/><stop offset=".7" stop-color="#474951"/><stop offset=".91" stop-color="#7b7d88"/></linearGradient><linearGradient id="X" gradientUnits="userSpaceOnUse" x1="8.17467201562" x2="10.298953125" y1="11.49201576563" y2="12.53728110938"><stop offset=".115" stop-color="#2c3952"/><stop offset=".374" stop-color="#3d414e"/><stop offset=".55" stop-color="#474a54"/><stop offset=".754" stop-color="#4e5057"/><stop offset=".892" stop-color="#323945"/><stop offset="1" stop-color="#143052"/></linearGradient><linearGradient id="Y" gradientUnits="userSpaceOnUse" x1="11.46206292188" x2="13.10484403125" y1="4.45485951562" y2=".850359375"><stop offset=".118" stop-color="#6d7078" stop-opacity="0"/><stop offset=".2" stop-color="#6d7078" stop-opacity=".7"/><stop offset=".34" stop-color="#35363a"/><stop offset=".374" stop-color="#1d1f22"/><stop offset=".4" stop-color="#101215"/><stop offset=".5" stop-color="#16171a"/><stop offset=".56" stop-color="#292a2e"/><stop offset=".688" stop-color="#4b4d51"/><stop offset=".807" stop-color="#63666b"/><stop offset=".915" stop-color="#72757b"/><stop offset="1" stop-color="#777a80"/></linearGradient><linearGradient id="Z" gradientUnits="userSpaceOnUse" x1="9.71212542187" x2="12.80053139062" y1="2.367703125" y2="2.367703125"><stop offset="0" stop-color="#4a4d56"/><stop offset="1" stop-color="#29292d"/></linearGradient><linearGradient id="aa" gradientUnits="userSpaceOnUse" x1="9.71212542187" x2="12.38259389063" y1="1.644890625" y2="1.644890625"><stop offset="0" stop-color="#767880"/><stop offset=".41" stop-color="#0c0a0b"/></linearGradient><linearGradient id="ab" gradientUnits="userSpaceOnUse" x1="16.35918764063" x2="17.39629701563" y1="4.88756264062" y2="3.09121875"><stop offset="0" stop-color="#858997"/><stop offset=".23" stop-color="#244668"/><stop offset=".282" stop-color="#1a3249"/><stop offset=".4" stop-color="#040506"/><stop offset=".464" stop-color="#313236"/><stop offset=".546" stop-color="#65656e"/><stop offset=".607" stop-color="#868691"/><stop offset=".64" stop-color="#92929e"/></linearGradient><radialGradient id="ac" cx="95.237" cy="25.132" fx="79.584999" fy="25.974001" gradientTransform="matrix(-.0631969 .12562 -.217364 -.109364 24.874594 -5.68125)" gradientUnits="userSpaceOnUse" r="16.181"><stop offset="0"/><stop offset="1" stop-opacity="0"/></radialGradient><radialGradient id="ad" cx="51.210999" cy="114.953003" fx="51.195999" fy="117.292" gradientTransform="matrix(.126267 .0619031 -.0352406 .0718734 4.78575 4.733719)" gradientUnits="userSpaceOnUse" r="7.901"><stop offset=".417" stop-color="#0c0c12"/><stop offset="1" stop-color="#3d4651"/></radialGradient><path d="m5.019531 1.941406h7.945313c1.703125 0 3.082031 1.378906 3.082031 3.078125v7.945313c0 1.703125-1.378906 3.082031-3.082031 3.082031h-7.945313c-1.699219 0-3.078125-1.378906-3.078125-3.082031v-7.945313c0-1.699219 1.378906-3.078125 3.078125-3.078125" fill="url(#a)"/><path d="m12.726562 2.699219h-7.46875c-1.417968 0-2.570312 1.152343-2.570312 2.574219v7.46875c0 1.417968 1.152344 2.570312 2.570312 2.570312h7.46875c1.421876 0 2.574219-1.152344 2.574219-2.570312v-7.484376c0-1.417968-1.152343-2.558593-2.574219-2.558593m2.363282 10.070312c0 1.292969-1.042969 2.332031-2.335938 2.332031h-7.523437c-1.277344 0-2.332031-1.039062-2.332031-2.332031v-7.539062c0-1.292969 1.039062-2.332031 2.332031-2.332031h7.539062c1.277344 0 2.332031 1.039062 2.332031 2.332031v7.539062zm0 0" fill="#fff"/><path d="m9.015625 3.207031c-3.179687 0-5.765625 2.585938-5.765625 5.765625 0 3.175782 2.585938 5.765625 5.765625 5.765625 3.191406 0 5.765625-2.589843 5.765625-5.765625 0-3.179687-2.589844-5.765625-5.765625-5.765625m0 11.445313c-3.136719 0-5.683594-2.542969-5.683594-5.679688 0-3.136718 2.546875-5.683594 5.683594-5.683594 3.132813 0 5.679687 2.546876 5.679687 5.683594 0 3.136719-2.546874 5.679688-5.679687 5.679688" fill="#69c5f3"/><path d="m9.015625 4.386719c-2.546875 0-4.601563 2.054687-4.601563 4.597656 0 2.546875 2.054688 4.585937 4.601563 4.585937 2.542969 0 4.597656-2.054687 4.597656-4.597656 0-2.546875-2.066406-4.585937-4.597656-4.585937m0 9.085937c-2.492187 0-4.5-2.011718-4.5-4.5 0-2.488281 2.007813-4.5 4.5-4.5 2.488281 0 4.5 2.011719 4.5 4.5 0 2.488282-2.027344 4.5-4.5 4.5" fill="#68c5f4"/><path d="m4.613281 10.027344h8.773438c.367187 0 .648437.292968.648437.644531 0 .367187-.296875.648437-.648437.648437h-8.773438c-.367187 0-.648437-.296874-.648437-.648437-.011719-.351563.28125-.644531.648437-.644531" fill="#fff"/><path d="m4.585938 10.152344h8.800781c.28125 0 .519531.226562.519531.519531v.015625c0 .28125-.222656.519531-.519531.519531h-8.800781c-.28125 0-.523438-.222656-.523438-.519531v-.027344c.015625-.28125.242188-.507812.523438-.507812" fill="#0a93e9"/><path d="m4.375 11.152344h9.238281l.070313-.042969h-9.378906zm0 0" fill="#1694ea"/><path d="m4.164062 10.984375h9.644532l.027344-.042969h-9.703126zm0 0" fill="#319dec"/><path d="m4.078125 10.714844h9.828125v-.054688h-9.828125zm0 0" fill="#65b1ee"/><path d="m4.175781 10.363281h9.648438l.011719.027344.015624.03125h-9.703124l.015624-.03125zm0 0" fill="#8ec6f3"/><path d="m4.386719 10.195312h9.226562l.042969.015626.039062.027343h-9.390624l.039062-.027343zm0 0" fill="#95caf3"/><path d="m13.132812 10.152344h-.070312s.242188.167968.242188.550781c0 .351563-.242188.503906-.242188.503906h.070312s.242188-.113281.242188-.503906c0-.421875-.242188-.550781-.242188-.550781" fill="url(#c)"/><path d="m12.460938 10.152344h-.070313s.210937.199218.210937.550781c0 .308594-.210937.503906-.210937.503906h.070313s.210937-.152343.210937-.503906c-.015625-.382813-.210937-.550781-.210937-.550781" fill="url(#d)"/><path d="m8.957031 10.152344h.070313v1.054687h-.070313zm0 0" fill="url(#e)"/><path d="m8.269531 10.152344h.070313s-.027344.269531-.027344.550781c0 .25.027344.503906.027344.503906h-.070313s-.027343-.253906-.027343-.503906c0-.28125.027343-.550781.027343-.550781" fill="url(#f)"/><path d="m7.59375 10.152344h.070312s-.070312.269531-.070312.550781c0 .25.070312.503906.070312.503906h-.070312s-.070312-.253906-.070312-.503906c0-.28125.070312-.550781.070312-.550781" fill="url(#g)"/><path d="m6.90625 10.152344h.070312s-.101562.269531-.101562.550781c0 .25.101562.503906.101562.503906h-.070312s-.101562-.253906-.101562-.503906c0-.28125.101562-.550781.101562-.550781" fill="url(#h)"/><path d="m6.214844 10.152344h.070312s-.140625.226562-.140625.550781c0 .28125.140625.503906.140625.503906h-.070312s-.140625-.222656-.140625-.503906c0-.324219.140625-.550781.140625-.550781" fill="url(#i)"/><path d="m5.527344 10.152344h.070312s-.210937.199218-.210937.550781c0 .308594.210937.503906.210937.503906h-.070312s-.210938-.152343-.210938-.503906c.011719-.382813.210938-.550781.210938-.550781" fill="url(#j)"/><path d="m4.851562 10.152344h.070313s-.238281.167968-.238281.550781c0 .351563.238281.503906.238281.503906h-.070313s-.238281-.113281-.238281-.503906c0-.421875.238281-.550781.238281-.550781" fill="url(#k)"/><path d="m8.71875 4.796875 4.386719 7.59375c.183593.308594.070312.703125-.238281.882813-.308594.183593-.703126.070312-.886719-.238282l-4.386719-7.59375c-.183594-.308594-.070312-.703125.238281-.886718.308594-.179688.703125-.070313.886719.242187" fill="#fff"/><path d="m8.605469 4.851562 4.402343 7.621094c.140626.238282.054688.5625-.183593.703125l-.027344.015625c-.238281.140625-.5625.054688-.703125-.183594l-4.402344-7.636718c-.140625-.238282-.054687-.5625.183594-.703125l.015625-.011719c.25-.140625.574219-.058594.714844.195312" fill="url(#m)"/><path d="m7.621094 5.160156 4.613281 8.003906.027344.011719.027343.015625.03125.011719-4.699218-8.125zm0 0" fill="url(#n)"/><path d="m7.664062 4.894531 4.824219 8.351563h.054688l-4.851563-8.394532-.011718.027344zm0 0" fill="url(#o)"/><path d="m7.859375 4.683594 4.921875 8.507812.042969-.027344-4.921875-8.507812zm0 0" fill="url(#p)"/><path d="m8.210938 4.597656 4.8125 8.339844-.03125.054688-4.851563-8.40625h.03125zm0 0" fill="url(#q)"/><path d="m8.464844 4.683594 4.613281 7.988281v.082031l-4.695313-8.113281.027344.015625.027344.011719zm0 0" fill="url(#r)"/><path d="m12.867188 12.21875-.027344-.054688s-.027344.28125-.339844.476563c-.292969.183594-.5625.058594-.5625.058594l.03125.054687s.222656.15625.5625-.054687c.335938-.199219.335938-.480469.335938-.480469m-.351563-.589844-.027344-.054687s-.070312.28125-.367187.449219c-.265625.167968-.535156.085937-.535156.085937l.03125.054687s.238281.097657.546874-.085937c.308594-.179687.351563-.449219.351563-.449219" fill="#3c98ea"/><path d="m12.179688 11.039062-.03125-.054687s-.125.238281-.390626.390625c-.242187.140625-.507812.140625-.507812.140625l.027344.058594s.253906 0 .507812-.140625c.265625-.15625.394532-.394532.394532-.394532" fill="#4ca4ed"/><path d="m11.839844 10.449219-.027344-.058594s-.183594.242187-.421875.367187c-.226563.125-.492187.167969-.492187.167969l.027343.058594s.269531-.042969.492188-.171875c.226562-.125.421875-.363281.421875-.363281" fill="#4da7ee"/><path d="m10.449219 8.058594.027343.054687s-.238281.113281-.476562.238281c-.226562.128907-.421875.296876-.421875.296876l-.03125-.054688s.210937-.171875.421875-.296875c.242188-.125.480469-.238281.480469-.238281" fill="url(#t)"/><path d="m10.109375 7.46875.03125.054688s-.269531.085937-.492187.226562c-.226563.125-.410157.320312-.410157.320312l-.027343-.054687s.183593-.195313.40625-.324219c.226562-.152344.492187-.222656.492187-.222656" fill="url(#u)"/><path d="m9.476562 7.003906c.183594-.058594.324219-.085937.324219-.085937l-.027343-.054688s-.125.011719-.265626.070313c-.085937.027344-.101562.097656-.03125.070312" fill="#9dd4f7"/><path d="m9.085938 5.695312.027343.054688s-.269531-.070312-.578125.101562c-.265625.167969-.324218.433594-.324218.433594l-.027344-.054687s.027344-.238281.324218-.421875c.308594-.199219.578126-.113282.578126-.113282" fill="url(#w)"/><path d="m8.746094 5.089844.042968.058594s-.28125-.113282-.605468.070312c-.308594.195312-.308594.460938-.308594.460938l-.042969-.054688s-.027343-.238281.308594-.449219c.351563-.210937.605469-.085937.605469-.085937" fill="url(#x)"/><path d="m7.804688 10.027344c1.222656-2.109375 2.628906-4.558594 2.628906-4.558594.183594-.308594.070312-.703125-.238282-.882812-.308593-.183594-.703124-.070313-.886718.238281 0 0-1.714844 2.980469-3.007813 5.203125zm-.757813 1.292968c-.59375 1.011719-1 1.742188-1 1.742188-.183594.3125-.578125.421875-.886719.242188-.308594-.183594-.421875-.578126-.238281-.886719 0 0 .238281-.4375.617187-1.082031.480469-.015626 1.351563-.015626 1.507813-.015626" fill="#fff"/><path d="m7.648438 10.027344c1.238281-2.136719 2.671874-4.628906 2.671874-4.628906.140626-.238282.058594-.5625-.179687-.703126l-.015625-.011718c-.238281-.140625-.5625-.058594-.703125.183594 0 0-1.6875 2.921874-2.980469 5.160156zm-.742188 1.292968c-.5625.984376-.972656 1.6875-.972656 1.6875-.140625.238282-.449219.324219-.703125.183594h-.027344c-.238281-.140625-.324219-.449218-.183594-.703125 0 0 .269531-.464843.675781-1.167969zm0 0" fill="url(#y)"/><path d="m7.609375 10.027344 2.796875-4.839844v-.082031s-1.546875 2.683593-2.839844 4.921875zm-.761719 1.292968-1.066406 1.855469-.042969.027344-.042969.015625s.476563-.828125 1.097657-1.898438zm0 0" fill="url(#z)"/><path d="m7.398438 10.027344 2.953124-5.105469-.03125-.054687s-1.617187 2.796874-2.964843 5.144531zm-.746094 1.292968-1.125 1.941407h-.058594s.480469-.832031 1.125-1.957031c.03125.015624.058594.015624.058594.015624" fill="url(#A)"/><path d="m7.085938 10.027344c1.394531-2.40625 3.066406-5.316406 3.066406-5.316406l-.042969-.027344-3.09375 5.34375zm-.757813 1.308594c-.617187 1.082031-1.082031 1.882812-1.082031 1.882812l-.042969-.027344s.449219-.789062 1.070313-1.855468c.027343-.015626.011718-.015626.054687 0" fill="url(#B)"/><path d="m6.75 10.027344c1.390625-2.40625 3.121094-5.414063 3.121094-5.414063h-.054688s-1.730468 2.996094-3.121094 5.414063zm-.816406 1.292968c-.5625.96875-.941406 1.632813-.941406 1.632813l.015624.027344.011719.027343s.410157-.703124.984375-1.6875zm0 0" fill="url(#C)"/><path d="m6.539062 10.027344 3.09375-5.359375-.027343.015625-.027344.011718-.015625.015626s-1.714844 2.96875-3.066406 5.316406zm-.746093 1.292968c-.492188.859376-.84375 1.460938-.84375 1.460938v-.109375s.308593-.535156.789062-1.367187c.027344.015624.027344.015624.054688.015624" fill="url(#D)"/><path d="m9.28125 5.089844-.027344.058594s.253906-.128907.589844.054687c.308594.167969.324219.464844.324219.464844l.027343-.058594s.027344-.265625-.324218-.460937c-.351563-.199219-.589844-.058594-.589844-.058594" fill="url(#F)"/><path d="m8.945312 5.695312-.03125.054688s.28125-.082031.578126.085938c.28125.15625.335937.421874.335937.421874l.03125-.054687s-.03125-.253906-.339844-.421875c-.324219-.183594-.574219-.085938-.574219-.085938" fill="url(#G)"/><path d="m8.59375 6.285156-.03125.058594s.253906-.015625.535156.152344c.253906.140625.378906.367187.378906.367187l.03125-.058593s-.128906-.222657-.382812-.363282c-.265625-.15625-.53125-.15625-.53125-.15625" fill="url(#H)"/><path d="m8.253906 6.890625-.027344.054687s.28125.042969.519532.183594c.226562.128906.394531.339844.394531.339844l.027344-.058594s-.167969-.210937-.394531-.335937c-.238282-.140625-.519532-.183594-.519532-.183594" fill="url(#I)"/><path d="m7.902344 7.480469-.027344.058593s.265625.070313.507812.210938c.222657.125.40625.308594.40625.308594l.027344-.058594s-.183594-.179688-.40625-.308594c-.226562-.125-.507812-.210937-.507812-.210937" fill="url(#K)"/><path d="m7.566406 8.070312-.042968.058594s.253906.097656.492187.238282c.226563.125.421875.28125.421875.28125l.027344-.054688s-.195313-.15625-.421875-.28125c-.222657-.128906-.476563-.242188-.476563-.242188" fill="url(#L)"/><path d="m7.1875 8.734375.027344-.058594.914062.519531-.027344.058594zm0 0" fill="url(#M)"/><path d="m6.847656 9.335938.027344-.054688s.226562.167969.464844.296875c.226562.125.449218.222656.449218.222656l-.027343.042969s-.238281-.097656-.464844-.226562c-.238281-.125-.449219-.28125-.449219-.28125" fill="url(#N)"/><path d="m6.625 10.027344c-.070312-.058594-.113281-.097656-.113281-.097656l.027343-.058594s.085938.070312.195313.15625zm0 0" fill="#73b9f1"/><path d="m6.074219 11.320312c.058593.042969.113281.085938.183593.125.253907.140626.507813.128907.507813.128907l-.03125.054687s-.25.015625-.503906-.125c-.097657-.058594-.183594-.128906-.238281-.183594zm0 0" fill="url(#P)"/><path d="m5.46875 11.714844.03125-.058594s.070312.28125.378906.453125c.28125.152344.535156.070313.535156.070313l-.03125.054687s-.222656.097656-.53125-.070313c-.324218-.183593-.382812-.449218-.382812-.449218" fill="url(#Q)"/><path d="m5.117188 12.320312.03125-.058593s.027343.296875.363281.480469c.308593.167968.550781.039062.550781.039062l-.042969.058594s-.210937.152344-.550781-.042969c-.351562-.195313-.351562-.476563-.351562-.476563" fill="url(#R)"/><path d="m9.675781 16.058594 6.019531-12.640625-1.519531-.71875-6.273437 13.148437s.199218.097656.449218.210938zm0 0" fill="url(#S)"/><path d="m13.234375 1.941406 2.8125 1.335938v4.035156c-.972656-.464844-7.46875-3.558594-7.46875-3.558594s.449219-.941406.871094-1.8125zm0 0" fill="url(#ac)"/><path d="m6.257812 15.496094c-.042968.085937-.113281.183594-.097656.339844.011719.574218.957032 1.109374 1.503906 1.109374.378907 0 .507813-.15625.648438-.4375s-1.898438-1.347656-2.054688-1.011718" fill="url(#ad)"/><path d="m12.742188 3.53125s1.445312.351562 1.558593.449219c.113281.097656-.183593.660156-.238281.746093-.464844.5625-1.914062 3.667969-1.914062 3.667969l-1.335938-.757812s1.195312-2.222657 1.617188-3.011719c.269531-.53125.3125-1.09375.3125-1.09375" fill="url(#T)"/><path d="m16.085938 2.796875c.253906.183594.59375.140625.859374.101563.183594-.03125-.097656.238281-.40625.855468-.3125.621094-.296874.660156-.339843.621094-.042969-.042969-1.433594-.832031-1.390625-.902344.054687-.070312.28125-1.601562.394531-1.558594.40625.097657.476563.589844.882813.882813" fill="url(#U)"/><path d="m13.921875 4.527344c.097656-.152344.546875-1.109375 1.265625-1.109375.324219 0 .941406.816406 1 .925781.039062.101562-.101562.492188-.171875.3125-.082031-.210938-.433594-.664062-.8125-.664062-.382813 0-.902344.4375-1.027344.59375-.128906.140624-.351562.097656-.253906-.058594" fill="url(#V)"/><path d="m13.894531 4.472656c.070313-.113281.394531-.605468.546875-.761718.15625-.152344.550782-.5625.886719-.617188s.6875.632812.578125.773438c-.085938.097656-.226562-.015626-.394531-.15625-.167969-.125-.28125-.378907-.816407.03125-.183593.140624-.367187.25-.789062.855468-.109375.15625-.082031-.011718-.011719-.125" fill="url(#W)"/><path d="m12.148438 8.578125c.058593-.113281.128906-.28125-.027344-.40625-.167969-.128906-.957032-.550781-1.097656-.578125-.140626-.027344-.25 0-.308594.097656-.054688.097656-4.371094 7.496094-4.457032 7.707032-.085937.210937-.097656.367187.027344.40625.128906.042968 1.574219.734374 1.714844.886718.140625.15625.210938-.011718.269531-.097656.265625-.335938 3.808594-7.902344 3.878907-8.015625" fill="url(#X)"/><path d="m13.992188 4.445312c.070312-.101562.238281-.382812.449218-.632812.140625-.171875.902344-.535156 1.070313-1.125.097656-.324219-.058594-.648438-.269531-.789062-.714844-.4375-1.953126-1.125-3.765626-1.125-1.226562 0-1.746093.40625-1.746093.40625h.621093l2.148438.84375.269531 1.125s.027344.382812-.097656.816406c-.085937.351562-.113281.5625-.242187.914062.101562.042969.324218-.113281.578124-.042968.226563.058593.367188.367187.519532.183593.269531-.351562.351562-.421875.464844-.574219" fill="url(#Y)"/><path d="m12.726562 3.570312c-.113281-1.039062-.367187-2.023437-3.007812-2.007812.167969-.171875.574219-.339844.574219-.339844l-.574219-.042968s.082031-.070313.25-.082032c1.546875-.128906 2.925781.195313 2.828125 2.207032-.015625.324218-.042969.464843-.070313.265624" fill="url(#Z)"/><path d="m9.71875 1.5625c.179688-.070312.433594-.113281.914062-.085938.589844.027344 1.335938.253907 1.644532.535157.152344.140625.140625.027343-.027344-.15625-.4375-.503907-1.097656-.617188-1.957031-.632813-.097657-.011718-.421875.167969-.574219.339844" fill="url(#aa)"/><path d="m16.972656 2.898438.773438.390624s-.292969.394532-.535156.84375c-.25.480469-.421876 1-.421876 1l-.742187-.449218s.179687-.507813.449219-1c.210937-.40625.476562-.785156.476562-.785156" fill="url(#ab)"/><path d="m17.746094 3.289062c.058594.03125-.125.464844-.394532.972657-.265624.503906-.519531.898437-.5625.871093-.054687-.027343.128907-.464843.394532-.96875.253906-.507812.507812-.902343.5625-.875" fill="#bfc0d0"/></svg>