<svg height="18" viewBox="0 0 18 18" width="18" xmlns="http://www.w3.org/2000/svg"><path d="m3.3125 5.238281h-.011719c-.109375.003907-.195312.050781-.257812.117188-.058594.070312-.09375.15625-.117188.242187-.046875.179688-.054687.378906-.089843.5-.117188.4375-.222657.992188-.257813 1.449219-.035156.441406-.007813.851563.046875 1.296875.023438.175781.058594.320312.078125.425781.007813.054688.011719.097657.011719.128907-.003906.027343-.007813.042968-.015625.050781h-.003907v.003906c0-.003906-.015624.011719-.035156.03125-.027344.027344-.054687.054687-.085937.082031-.09375.089844-.1875.175782-.28125.261719-.230469.214844-.53125.492187-.839844.773437-.285156.257813-.570313.519532-.859375.773438-.101562.09375-.207031.183594-.308594.273438-.082031.070312-.144531.117187-.15625.125-.0585935.039062-.1015622.097656-.1171872.164062-.01562505.0625-.01562505.128906 0 .195312.0234374.128907.0898432.253907.1484372.347657.058594.089843.105469.167969.179688.21875.074218.054687.171875.074219.304687.054687.140625-.015625.234375-.113281.300781-.210937.066407-.09375.121094-.199219.175782-.261719h.003906c.03125-.039062.167969-.179688.34375-.355469.207031-.203125.414062-.40625.625-.601562.222656-.210938.445312-.417969.621094-.570313.089844-.074218.164062-.136718.21875-.179687.019531-.011719.027344-.015625.039062-.027344.082032.382813.269532.742187.480469 1.050781.109375.167969.234375.332032.382813.480469.136718.136719.308593.246094.445312.339844l.015625.011719.023437.003906c.179688.007812.347657-.050782.4375-.171875.042969-.0625.058594-.144531.035157-.21875-.019531-.082031-.074219-.160157-.164063-.234375-.023437-.015625-.074218-.074219-.132812-.148438-.066406-.09375-.132813-.183594-.195313-.28125-.136719-.207031-.277343-.449218-.34375-.609375-.070312-.167969-.171875-.363281-.222656-.546875-.023437-.089844-.03125-.175781-.019531-.246094.015625-.074218.046875-.136718.113281-.191406.546875-.457031 1.234375-.875 1.832031-1.1875.300782-.152344.578125-.28125.804688-.371094.121094-.050781.242187-.089843.367187-.117187-.109375.363281-.324219.863281-.566406 1.375-.265625.558594-.542969 1.117187-.695313 1.480469-.105468.257812-.179687.566406-.140624.851562.023437.164063.089843.320313.191406.449219.09375.117187.195312.195313.304687.214844h.015625c.347656-.019531.570313-.316407.75-.503907.253906-.265624.472656-.511718.726563-.777343.253906-.265625.5-.546875.722656-.800781.101563-.113282.207031-.21875.324219-.316407.085937-.074219.15625-.097656.230468-.128906-.054687.210937-.148437.441406-.261718.679687-.132813.289063-.273438.582032-.320313.859376-.050781.292968.054688.609374.246094.796874.097656.097657.222656.160157.359375.164063s.28125-.054687.417969-.183594c.464843-.433593.933593-.84375 1.390625-1.285156.019531-.015625.015625-.011719.023437-.019531.007813.035156.011719.09375.027344.167968.019531.070313.050781.242188.089844.414063.039062.167969.074219.328125.121093.417969.144532.277344.402344.480468.730469.484375.292969.007812.578125-.125.78125-.328125.078125-.078125.175781-.210938.226563-.351563.027344-.070312.039062-.144531.023437-.214843-.019531-.074219-.074219-.136719-.160156-.167969-.078125-.027344-.109375-.058594-.164063-.082031-.058593-.027344-.128906-.035157-.238281-.019532h-.003906c-.117187.023438-.25.0625-.367187.132813-.039063 0-.066407-.019531-.097657-.070313-.03125-.054687-.054687-.136718-.070312-.226562-.03125-.179688-.019531-.398438-.003907-.484375.050782-.230469.15625-.484375.140626-.761719-.011719-.179688-.113282-.320312-.214844-.421875-.046875-.042969-.097656-.085937-.152344-.117187-.035156-.023438-.070312-.042969-.109375-.054688-.066406-.035156-.148437-.03125-.214844.003906-.066406.039063-.121093.09375-.199219.164063-.128906.121093-.269531.246093-.398437.371093-.128906.121094-.273437.273438-.398437.390626-.050782.050781-.097657.089843-.140626.121093.101563-.28125.199219-.664062.179688-1.023437-.011719-.214844-.0625-.417969-.1875-.558594-.125-.144531-.328125-.21875-.59375-.1875-.441406.058594-.742188.296875-1.070312.542969l-.007813.007812c-.230469.21875-.460937.433594-.695313.648438-.078124.070312-.132812.128906-.183593.179687.039062-.121094.074219-.234375.152343-.410156.113282-.253906.25-.550781.363282-.84375.113281-.296875.207031-.59375.234375-.851562.027343-.261719-.011719-.5-.183594-.648438-.113281-.09375-.234375-.253906-.421875-.273438l-.007812-.003906-.007813.003906c-.21875.023438-.429687.078126-.632813.140626h-.003906v.003906c-.222656.074218-.734375.3125-1.332031.632812-.597656.316406-1.273437.707032-1.800781 1.085938-.015625.011718-.011719.007812-.007813.007812 0 0-.003906 0-.011719-.011718-.019531-.027344-.039062-.089844-.042968-.160157-.066406-.78125.144531-1.613281.367187-2.355469.085938-.285156-.03125-.539062-.171875-.714843-.0625-.078125-.136718-.148438-.214844-.210938-.027343-.019531-.058593-.042969-.085937-.058593-.027344-.015626-.042969-.027344-.070313-.035157zm-.011719.144531c.003907 0 .003907 0 .015625.007813.019532.011719.046875.03125.074219.050781.058594.046875.128906.109375.191406.1875.125.15625.214844.359375.148438.589844-.222657.746094-.441407 1.589844-.375 2.40625.007812.082031.027343.164062.066406.222656.019531.03125.050781.0625.09375.070313.042969.011719.089844 0 .125-.027344.519531-.371094 1.191406-.761719 1.785156-1.078125s1.109375-.554688 1.308594-.625h.003906c.195313-.0625.394531-.109375.59375-.132812.109375.011718.214844.132812.339844.238281.125.109375.164063.289062.140625.527343-.027344.238282-.117188.527344-.226562.816407-.113282.289062-.25.582031-.363282.839843-.113281.253907-.203125.46875-.230468.625l-.015626.082032h.082032c.082031 0 .140625-.050782.203125-.109375.058593-.058594.128906-.132813.214843-.210938.234376-.210937.464844-.425781.695313-.644531.328125-.25.601563-.464844 1-.515625.238281-.03125.378906.027344.472656.136719s.140625.277344.152344.476562c.023437.394532-.109375.882813-.21875 1.132813l-.042969.097656h.109375c.0625 0 .113281-.035156.167969-.074219.054688-.042968.117188-.097656.183594-.160156.128906-.121094.269531-.273438.394531-.394531.128906-.117188.269531-.246094.398437-.367188.078126-.070312.132813-.121093.171876-.140625.039062-.023437.050781-.023437.089843-.003906l.007813.003906h.003906c.007812 0 .042969.015625.082031.042969.039063.023437.085938.058594.128907.101563.089843.085937.164062.199218.171874.332031h.003907c.011719.230469-.085938.472656-.140625.722656-.023438.117187-.03125.332031.003906.535156.015625.097657.042969.195313.089844.273438.042968.078125.121094.140625.21875.140625h.023437l.015625-.015625c.09375-.066407.222656-.097657.347656-.121094.097657-.015625.125-.007813.160157.007813.03125.015624.082031.050781.175781.085937.050781.019531.0625.039063.070312.070313.007813.035156.003907.082031-.015624.136718-.039063.109375-.132813.238282-.195313.300782-.175781.175781-.433594.292968-.683594.289062-.269531-.003906-.480469-.167969-.605469-.410156-.027343-.050782-.074218-.222656-.109374-.386719-.039063-.167969-.070313-.335937-.089844-.417969-.015625-.0625-.011719-.140625-.039063-.210937-.007812-.023438-.019531-.039063-.035156-.054688-.023437-.019531-.050781-.027343-.078125-.023437-.054688.003906-.085938.03125-.128906.074218-.457032.441407-.925782.847657-1.390625 1.285157-.121094.109375-.226563.148437-.324219.144531-.09375 0-.183594-.046875-.261719-.121094-.152343-.152344-.25-.433594-.207031-.675781.042969-.246094.175781-.535156.3125-.824219.132812-.292968.269531-.585937.3125-.859375l.011719-.082031h-.082031c-.148438 0-.292969.109375-.429688.226562-.121094.101563-.234375.210938-.335938.332032-.226562.25-.472656.53125-.722656.796875-.253906.265625-.472656.511719-.726562.773437-.1875.195313-.382813.4375-.648438.460938-.046875-.011719-.136718-.066406-.210937-.160156-.078125-.097657-.144531-.234376-.164063-.378907-.03125-.253906.03125-.539062.132813-.78125.148437-.355469.425781-.914062.695312-1.476562.265625-.566407.519531-1.132813.617188-1.519531l.023437-.097657-.097656.007813c-.117188.011718-.292969.070312-.523438.164062-.230468.089844-.511718.222656-.816406.378906-.605468.3125-1.300781.738282-1.859375 1.199219-.082031.070313-.140625.167969-.160156.273438-.015625.101562-.003906.207031.023437.308593.054688.207032.164063.410157.226563.5625.074219.183594.21875.421876.359375.636719.070312.105469.140625.207031.199219.285157.0625.082031.109375.140624.152343.175781.074219.0625.109376.117187.121094.160156.011719.035156.003906.074219-.019531.105469-.042969.058594-.160156.109375-.296875.105468-.136719-.09375-.292969-.195312-.410156-.308593-.136719-.140625-.257813-.296875-.367188-.460938-.222656-.332031-.433594-.710937-.488281-1.097656v-.003906l-.113281.019531.046875-.054688c-.039063 0-.054688.011719-.078125.027344-.027344.015625-.054688.035156-.082032.054688-.0625.042968-.136718.109375-.226562.183594-.179688.15625-.402344.363281-.625.574218-.210938.199219-.421875.402344-.628906.605469-.175782.175781-.304688.304687-.351563.359375-.078125.085938-.128906.195312-.1875.277344-.058593.085937-.117187.140625-.207031.152344-.109375.015624-.160156.003906-.203125-.027344s-.085937-.09375-.144531-.1875c-.050782-.082032-.109375-.195313-.128906-.296875-.011719-.050781-.011719-.097657-.003907-.132813.007813-.035156.03125-.0625.0625-.082031.035157-.023437.085938-.066406.167969-.136719.082031-.070312.1875-.164062.3125-.273437.285156-.257813.574219-.515625.859375-.777344.308594-.277344.609375-.558594.839844-.769531.117187-.109375.214843-.199219.285156-.265625.035156-.035157.0625-.0625.085937-.082031.019532-.019532.03125-.03125.039063-.042969.039063-.035157.050781-.085938.054687-.136719.003907-.050781 0-.101562-.011718-.160156-.019532-.113282-.054688-.253906-.074219-.421875-.054687-.4375-.082031-.839844-.050781-1.269531.035156-.441407.140625-.992188.257812-1.421876.039063-.148437.046875-.34375.085938-.496093.023437-.078125.050781-.144531.089844-.1875.035156-.042969.082031-.0625.152343-.066407m13.488281.414063-.074218.160156c-.125.273438-.148438.632813-.183594.9375-.273438-.03125-.597656-.066406-.863281-.082031l-.15625-.007812.097656.121093c.179687.222657.484375.414063.753906.527344-.023437.101563-.078125.207031-.15625.3125-.089843.121094-.195312.246094-.265625.390625l-.0625.136719.144532-.039063c.34375-.097656.519531-.34375.730468-.589844.25.164063.558594.445313.925782.453126h.113281l-.050781-.097657c-.117188-.253906-.242188-.476562-.445313-.675781.195313-.113281.480469-.238281.636719-.445312l.066406-.089844-.105469-.023438c-.246093-.050781-.511719-.0625-.761719-.015625-.152343-.1875-.195312-.523437-.289062-.804687zm-1.910156.167969-.027344.050781c0-.003906 0-.003906-.003906-.007813-.035156-.027343-.078125-.042968-.125-.039062-.128906.015625-.242187.117188-.355468.238281-.117188.121094-.230469.261719-.3125.367188-.617188.792969-1.160157 2.363281-1.25 2.664062-.273438.898438-.382813 2.019531.21875 2.832031.179687.242188.433593.375.714843.421876.277344.046874.582031.011718.882813-.074219.320312-.089844.632812-.3125.75-.578125.046875-.109375.09375-.25.046875-.375-.027344-.058594-.09375-.109375-.171875-.105469-.078125 0-.164063.039063-.277344.109375-.152344.101562-.441406.214844-.980469.207031-.058593 0-.175781-.054687-.277343-.148437-.097657-.09375-.1875-.222656-.222657-.339844v-.003906c-.136719-.417969-.082031-1-.082031-1.003906.125-.753907.476562-1.578126.789062-2.273438h-.003906c.117188-.261719.492188-.9375.625-1.144531l.003906-.003907.003907-.011718c.007812-.011719.015625-.023438.023437-.039063.019532-.042969.039063-.089843.054688-.136719.035156-.113281.0625-.273437.019531-.4375zm-.144531.144531c.015625 0 .015625 0 .023437.003906.007813.007813.019532.023438.027344.058594l.003906.003906c.03125.128907.011719.253907-.019531.351563-.011719.039062-.027343.082031-.046875.117187-.007812.011719-.011718.023438-.019531.03125 0 .003907-.003906.007813-.003906.007813v.003906c-.144531.222656-.507813.882812-.632813 1.160156-.3125.699219-.671875 1.53125-.796875 2.308594v.003906s-.066406.597656.085938 1.066406c.042969.152344.144531.292969.261719.402344.117187.105469.242187.183594.367187.1875.558594.007813.882813-.113281 1.0625-.230468.101563-.066407.171875-.085938.203125-.089844.03125 0 .027344 0 .035156.023437.019532.039063-.003906.175781-.039062.265625-.089844.203125-.378906.417969-.664063.5-.285156.082032-.570312.113282-.824219.070313-.25-.042969-.464843-.15625-.621093-.367188v-.003906c-.5625-.753906-.464844-1.828125-.199219-2.707031.085938-.28125.640625-1.863282 1.226562-2.617188.082032-.105468.191407-.242187.300782-.355468.109375-.113282.226562-.191407.269531-.195313m2.042969.148437c.054687.222657.109375.460938.265625.632813l.027343.03125.039063-.011719c.191406-.042968.394531-.035156.597656-.007812-.15625.136718-.382812.253906-.554687.367187l-.078125.050781.070312.058594c.191407.160156.296875.351563.40625.570313-.265625-.066407-.53125-.289063-.773437-.4375l-.046875-.027344-.039063.042969c-.160156.179687-.296875.324218-.457031.441406.03125-.039062.050781-.078125.082031-.121094.09375-.125.183594-.257812.203125-.414062l.007813-.054688-.050782-.019531c-.203124-.078125-.429687-.226563-.605468-.386719.238281.019532.496094.039063.714844.066406l.078124.007813v-.074219c.027344-.234375.058594-.488281.113282-.714844zm.25 1.808594-.074219.160156c-.089844.199219-.109375.453126-.132813.667969-.199218-.023437-.402343-.039062-.605468-.054687l-.160156-.011719.101562.125c.125.15625.339844.292969.535156.378906-.023437.074219-.058594.144531-.105468.207031-.0625.085938-.140626.179688-.191407.285157l-.066406.136719.148437-.039063c.25-.070313.378907-.25.527344-.421875.175782.117188.394532.316406.667969.324219h.109375l-.046875-.101563c-.078125-.175781-.171875-.332031-.308594-.472656.136719-.082031.332031-.171875.445313-.320312l.066406-.085938-.105469-.023438c-.175781-.039062-.367187-.046874-.542969-.015624-.105468-.132813-.136718-.363282-.207031-.570313zm-.011719.464844c.035156.140625.078125.285156.179687.394531l.027344.03125.042969-.011719c.109375-.023437.234375-.003906.359375.007813-.109375.074219-.238281.148437-.34375.21875l-.082031.050781.074219.058594c.117187.101562.191406.21875.257812.347656-.171875-.058594-.34375-.183594-.503906-.277344l-.050782-.03125-.039062.042969c-.089844.105469-.167969.195313-.25.273438.003906-.003907.007812-.011719.011719-.015625.066406-.09375.132812-.191406.148437-.3125l.007813-.054688-.050781-.019531c-.128907-.046875-.269532-.136719-.390626-.238281.15625.015625.320313.027344.460938.042968h.070312l.007813-.058593c.015625-.144531.035156-.300781.0625-.449219m-.898437 1.335938-.074219.164062c-.0625.132812-.070313.300781-.085938.445312-.136719-.015624-.269531-.027343-.40625-.039062l-.15625-.007812.097657.121093c.085937.109375.226562.199219.359374.261719-.015624.042969-.035156.082031-.0625.117188-.042968.0625-.097656.125-.132812.203124l-.066406.136719.148437-.042969c.171875-.046874.265625-.167968.359375-.28125.121094.082032.269532.210938.460938.214844l.109375.003906-.046875-.101562c-.050782-.113281-.125-.210938-.210938-.308594.09375-.050781.222656-.113281.304688-.21875l.066406-.085937-.109375-.023438c-.117187-.023437-.242187-.023437-.363281-.003906-.0625-.085937-.089844-.238281-.136719-.386719zm.003906.484374c.023437.066407.042968.128907.09375.183594l.027344.03125.039062-.011718c.050781-.011719.109375.003906.164062.003906-.0625.039062-.113281.074218-.171874.113281l-.074219.050781.070312.0625c.054688.046875.078125.113282.113281.171875-.085937-.050781-.171874-.109375-.257812-.164062l-.050781-.027344-.039063.042969c-.027344.03125-.050781.054687-.074218.082031.015624-.03125.042968-.0625.050781-.101563l.003906-.054687-.050781-.019531c-.054688-.019532-.101563-.074219-.164063-.113282.066407.007813.136719.011719.195313.019532l.078125.023437.007812-.085937c.007813-.070313.027344-.132813.039063-.207032" fill="#005fad"/></svg>