<svg height="18" viewBox="0 0 18 18" width="18" xmlns="http://www.w3.org/2000/svg"><path d="m3.269531 5.269531c-.375.015625-.332031.542969-.402343.8125-.121094.441407-.226563 1-.261719 1.453125-.035157.441406-.007813.851563.050781 1.296875.042969.347657.140625.578125.050781.667969-.074219.089844-2.417969 2.238281-2.6093748 2.363281-.1953124.125-.0585937.4375.0546878.613281.117187.1875.171875.28125.417968.25.234376-.03125.304688-.308593.441407-.457031.160156-.191406 1.816406-1.804687 1.960937-1.804687l-.003906-.019532c.0625.410157.277344.800782.507812 1.140626.113282.167968.234376.332031.378907.472656.132812.132812.300781.242187.441406.339844.332031.015624.597656-.226563.265625-.503907-.128906-.105469-.554688-.734375-.699219-1.082031-.132812-.320312-.429687-.808594-.109375-1.074219 1.113282-.929687 2.796875-1.707031 3.195313-1.746093-.195313.765624-1.023438 2.296874-1.324219 3.023437-.105469.25-.171875.550781-.136719.824219.039063.324218.285157.582031.441407.605468.3125-.015624.523437-.292968.710937-.484374.257813-.269532.476563-.515626.734375-.785157.253906-.269531.503906-.550781.730469-.808593.140625-.15625.507812-.539063.726562-.539063-.082031.527344-.539062 1.171875-.632812 1.703125-.09375.539062.402343 1.203125.917969.71875.46875-.4375.945312-.851562 1.40625-1.292969.164062-.160156.132812.027344.167968.179688.035156.15625.132813.6875.207032.828125.136718.261718.371093.449218.675781.453125.273437.003906.546875-.121094.738281-.3125.144531-.140625.386719-.527344.117188-.628907-.171876-.0625-.164063-.132812-.375-.097656-.128907.023438-.269532.058594-.378907.136719-.277343 0-.289062-.667969-.246093-.875.050781-.246094.15625-.496094.140624-.75-.019531-.316406-.359374-.523437-.4375-.542969-.117187-.058594-.191406.015625-.34375.160156-.132812.117188-.273437.25-.402343.371094-.257813.242188-.578125.613282-.710938.613282.230469-.527344.535157-1.992188-.484375-1.863282-.421875.054688-.714844.285156-1.046875.535156-.234375.222657-.46875.441407-.707031.65625-.175781.164063-.277344.304688-.371094.304688.097656-.558594 1.265625-2.386719.664063-2.902344-.121094-.101562-.234375-.246094-.386719-.261718-.214844.023437-.421875.074218-.628906.140624-.421875.148438-2.085938.972657-3.148438 1.730469-.097656.070313-.160156-.0625-.171875-.21875-.066406-.804687.148438-1.652343.371094-2.40625.15625-.523437-.421875-.921875-.496094-.9375m13.617188.683594c-.125.273437-.148438.671875-.1875.992187v.003907c-.28125-.035157-.652344-.070313-.9375-.089844.179687.222656.519531.445313.796875.546875-.035156.277344-.328125.503906-.449219.769531.34375-.09375.507813-.351562.742187-.617187.273438.164062.59375.472656.949219.476562-.136719-.28125-.253906-.523437-.496093-.726562.203124-.132813.539062-.273438.695312-.476563-.257812-.054687-.539062-.070312-.792969-.011719-.191406-.214843-.222656-.582031-.320312-.867187zm-2.070313.054687c-.171875.015626-.460937.371094-.625.582032-.609375.785156-1.164062 2.375-1.253906 2.667968-.269531.902344-.375 2.011719.210938 2.800782.34375.464844.945312.5 1.539062.328125.304688-.085938.609375-.304688.714844-.542969.085937-.199219.132812-.570312-.304688-.289062-.167968.109374-.476562.230468-1.03125.222656-.183594-.003906-.492187-.273438-.574218-.546875-.140626-.449219-.082032-1.050781-.082032-1.050781.125-.773438.484375-1.613282.800782-2.316407.121093-.269531.496093-.949219.632812-1.164062 0 0 .179688-.28125.101562-.578125h-.003906c-.023437-.085938-.066406-.117188-.125-.113282m2.3125 2.242188c-.089844.199219-.109375.488281-.136718.71875-.207032-.023438-.476563-.046875-.679688-.0625.128906.164062.378906.324219.578125.398438-.027344.199218-.238281.367187-.328125.558593.25-.070312.371094-.257812.539062-.449219.199219.117188.433594.34375.691407.347657-.097657-.207031-.183594-.382813-.359375-.53125.144531-.09375.390625-.195313.503906-.34375-.1875-.042969-.394531-.050781-.574219-.007813-.140625-.15625-.164062-.421875-.234375-.628906m-.921875 1.820312c-.0625.136719-.074219.335938-.09375.5v-.003906c-.15625-.015625-.3125-.03125-.46875-.042968.085938.113281.257813.222656.398438.273437-.019531.140625-.164063.253906-.226563.386719.171875-.046875.253906-.175782.375-.308594.136719.082031.296875.234375.476563.238281-.066407-.140625-.128907-.261719-.25-.363281.101562-.066406.269531-.136719.347656-.242188-.128906-.027343-.269531-.035156-.394531-.003906-.097656-.105468-.117188-.292968-.164063-.433594zm0 0" fill="#005fad"/></svg>