<svg height="18" viewBox="0 0 18 18" width="18" xmlns="http://www.w3.org/2000/svg"><path d="m16.699219 6.945312c.039062-.320312.0625-.71875.1875-.992187.097656.285156.128906.652344.320312.867187.253907-.058593.535157-.042968.792969.011719-.15625.203125-.492188.34375-.695312.476563.242187.203125.359374.445312.496093.726562-.355469-.003906-.675781-.3125-.949219-.476562-.234374.265625-.398437.523437-.742187.617187.121094-.265625.414063-.496093.449219-.769531-.277344-.101562-.617188-.324219-.796875-.546875.285156.019531.65625.054687.9375.089844" fill="#ae007f"/><path d="m16.992188 8.96875c.027343-.230469.046874-.519531.136718-.71875.070313.207031.09375.472656.234375.628906.179688-.042968.386719-.035156.574219.007813-.113281.148437-.359375.25-.503906.34375.175781.148437.261718.324219.359375.53125-.257813-.003907-.492188-.230469-.691407-.347657-.167968.191407-.289062.378907-.539062.449219.089844-.195312.300781-.359375.328125-.558593-.199219-.074219-.449219-.234376-.578125-.398438.203125.015625.472656.039062.679688.0625" fill="#97bd00"/><path d="m16.113281 10.570312c.019531-.164062.03125-.363281.09375-.5.046875.140626.066407.328126.164063.433594.125-.03125.265625-.023437.394531.003906-.078125.105469-.246094.175782-.347656.242188.121093.101562.179687.222656.246093.363281-.175781-.003906-.335937-.15625-.472656-.242187-.121094.136718-.203125.265625-.375.3125.0625-.132813.207032-.246094.226563-.386719-.140625-.050781-.3125-.160156-.398438-.273437.140625.007812.328125.027343.46875.042968" fill="#f07f00"/><path d="m2.972656 10.464844c-.144531 0-1.800781 1.613281-1.960937 1.804687-.136719.148438-.207031.425781-.441407.457031-.246093.03125-.300781-.0625-.417968-.25-.1132815-.175781-.2500002-.488281-.0546878-.613281.1914058-.121093 2.5351558-2.273437 2.6093748-2.363281.089844-.089844-.007812-.320312-.050781-.667969-.058594-.445312-.085938-.855469-.050781-1.296875.035156-.453125.140625-1.011718.257812-1.453125.074219-.269531.03125-.796875.40625-.8125.074219.015625.652344.414063.496094.941407-.222656.75-.4375 1.597656-.371094 2.402343.011719.15625.074219.289063.171875.21875 1.0625-.757812 2.726563-1.582031 3.148438-1.730469.207031-.066406.417968-.117187.628906-.140624.152344.015624.265625.160156.386719.261718.601562.515625-.566407 2.34375-.664063 2.902344.09375 0 .195313-.140625.371094-.304688.238281-.214843.472656-.433593.707031-.65625.332031-.25.625-.480468 1.046875-.535156 1.019532-.128906.714844 1.335938.484375 1.863282.132813 0 .453125-.371094.710938-.613282.128906-.121094.269531-.253906.402343-.371094.152344-.144531.226563-.21875.34375-.160156.078126.019532.417969.226563.4375.542969.015626.253906-.089843.503906-.140624.75-.042969.207031-.03125.875.246093.875.109375-.078125.25-.113281.378907-.136719.210937-.035156.203124.035156.375.097656.269531.101563.027343.484376-.117188.628907-.191406.191406-.464844.316406-.738281.3125-.304688-.003907-.539063-.191407-.675781-.453125-.074219-.140625-.171876-.671875-.207032-.828125-.035156-.152344-.003906-.339844-.167968-.183594-.460938.445313-.9375.859375-1.40625 1.296875-.515626.484375-1.011719-.179688-.917969-.71875.09375-.53125.550781-1.175781.632812-1.703125-.21875 0-.585937.382813-.726562.539063-.226563.257812-.476563.539062-.730469.808593-.257812.269531-.476562.515625-.734375.785157-.1875.191406-.398437.46875-.710937.484374-.15625-.023437-.402344-.28125-.441407-.605468-.035156-.273438.03125-.574219.136719-.824219.300781-.726563 1.128906-2.261719 1.324219-3.023437-.398438.039062-2.082031.816406-3.195313 1.746093-.320312.265625-.023437.753907.109375 1.078125.144531.34375.570313.972656.699219 1.078125.332031.277344.066406.519531-.265625.503907-.140625-.097657-.308594-.207032-.441406-.339844-.144531-.140625-.265625-.304688-.378907-.472656-.230468-.339844-.445312-.730469-.507812-1.140626m11.972656-4.324218c-.09375-.347656-.53125.1875-.75.46875-.609375.785156-1.164062 2.375-1.253906 2.667968-.269531.902344-.375 2.011719.210938 2.800782.34375.464844.949218.5 1.539062.328125.304688-.085938.609375-.308594.714844-.542969.085937-.199219.132812-.570312-.304688-.289062-.167968.109374-.476562.230468-1.03125.222656-.183594-.003906-.492187-.273438-.574218-.546875-.140626-.449219-.082032-1.050781-.082032-1.050781.125-.773438.484375-1.609376.800782-2.316407.121093-.269531.496093-.949219.632812-1.164062 0 0 .179688-.28125.101562-.578125zm0 0" fill="#005fad"/></svg>