<svg height="18" viewBox="0 0 18 18" width="18" xmlns="http://www.w3.org/2000/svg"><path d="m9 0c-4.96875 0-9 4.03125-9 9s4.03125 9 9 9 9-4.03125 9-9-4.03125-9-9-9m.660156 3.085938c.109375.011718.214844.050781.308594.113281s.214844.144531.566406.871093c.132813-.046874.277344-.054687.414063-.015624.152343.042968.277343.144531.347656.28125.359375.691406.40625 1.917968.25 2.703124-.140625.699219-.429687 1.359376-.847656 1.933594.375.390625.660156.855469.835937 1.367188.171875.484375.242188 1 .207032 1.511718.15625-.074218.304687-.160156.453124-.25.441407-.277343 1.113282-.691406 1.914063-.699218.503906-.035156.945313.328125 1.015625.828125.0625.472656-.246094.914062-.710938 1.019531-.484374.117188-.710937.207031-1.367187.632812-.703125.441407-1.460937.792969-2.257813 1.042969-.152343.125-.332031.210938-.527343.257813-.554688.132812-2.449219.234375-2.601563.234375h-.035156c-.578125 0-.90625-.179688-1.085938-.367188-.492187.246094-1.132812.144531-1.597656-.101562-.222656-.109375-.386718-.320313-.433594-.566407-.019531-.097656-.019531-.199218 0-.296874-.042968-.046876-.082031-.09375-.117187-.148438-.261719-.4375-.378906-.949219-.324219-1.457031.039063-.542969.414063-1.027344.660156-1.285157-.023437-.578124.082032-1.15625.296876-1.695312.234374-.5.570312-.945312.992187-1.304688-.242187-.40625-.484375-1.027343-.25-1.660156.171875-.449218.3125-.703125.617187-.808594.132813-.039062.257813-.105468.363282-.195312.449218-.484375 1.0625-.78125 1.722656-.820312.027344-.070313.058594-.148438.09375-.214844.234375-.492188.480469-.769532.769531-.871094.101563-.039062.214844-.050781.328125-.039062m-.078125.519531c-.382812.011719-.753906 1.140625-.753906 1.140625-.640625-.0625-1.269531.179687-1.699219.652344-.160156.152343-.351562.265624-.558594.328124-.0625.023438-.132812.019532-.3125.503907-.277343.738281.46875 1.570312.46875 1.570312s-.890624.628907-1.21875 1.410157c-.21875.539062-.308593 1.121093-.253906 1.695312 0 0-.632812.550781-.675781 1.117188-.035156.394531.054687.792968.257813 1.136718.03125.066406.09375.121094.164062.144532.070312.027343.152344.019531.21875-.011719 0 0-.421875.488281-.027344.695312.359375.1875.960938.292969 1.28125-.027343.230469-.230469.277344-.75.363282-.960938.019531-.050781.089843.082031.15625.144531.0625.054688.128906.101563.199218.144531 0 0-.566406.246094-.332031.800782.074219.183594.347656.300781.796875.296875.167969 0 2-.101563 2.484375-.21875.148437-.023438.285156-.101563.378906-.214844.792969-.234375 1.550781-.574219 2.25-1.015625.6875-.449219.96875-.570312 1.527344-.703125.457031-.109375.425781-.820313-.179687-.808594-.632813.007813-1.183594.332031-1.648438.621094-.871094.539063-1.308594.503906-1.308594.503906l-.011718-.023437c-.0625-.097656.277343-.96875-.101563-2.007813-.410156-1.136719-1.058594-1.410156-1.007813-1.5.222657-.375.777344-.972656 1-2.082031.132813-.675781.097657-1.785156-.203124-2.363281-.054688-.109375-.546876.179687-.546876.179687s-.460937-1.03125-.589843-1.113281c-.035157-.023437-.078125-.035156-.117188-.035156" fill="#2c8ebb"/></svg>