<svg height="18" viewBox="0 0 18 18" width="18" xmlns="http://www.w3.org/2000/svg"><g fill="none" stroke="#fff" stroke-linecap="round" stroke-linejoin="round" stroke-width="2" transform="scale(.75)"><path d="m2.5 17c-.697917-3.296875-.697917-6.703125 0-10 .1875-.682292.71875-1.213542 1.401042-1.401042 5.364583-.885416 10.833333-.885416 16.197916 0 .682292.1875 1.213542.71875 1.401042 1.401042.697917 3.296875.697917 6.703125 0 10-.1875.682292-.71875 1.213542-1.401042 1.401042-5.364583.885416-10.833333.885416-16.197916 0-.682292-.1875-1.213542-.71875-1.401042-1.401042"/><path d="m10 15 5-3-5-3zm0 0"/></g></svg>