<svg height="18" viewBox="0 0 18 18" width="18" xmlns="http://www.w3.org/2000/svg"><path d="m11.527344 1.816406c-.054688.058594-.09375.117188-.085938.132813.003906.019531-.011718.03125-.035156.03125s-.03125.019531-.019531.039062c.015625.023438-.003907.050781-.035157.0625-.035156.011719-.054687.039063-.042968.058594.011718.019531.003906.042969-.019532.058594-.023437.015625-.03125.042969-.019531.0625.015625.019531.003907.035156-.019531.035156-.027344 0-.039062.023437-.027344.054687.011719.03125.011719.070313-.003906.085938s-.03125.082031-.035156.148438c-.015625.21875-.050782.976562-.070313 1.535156-.027343.578125-.042969.867187-.0625.929687-.003906.019531-.007812.050781-.003906.066407.007813.050781-.03125.035156-.109375-.042969-.042969-.042969-.066406-.085938-.054688-.097657.015626-.011718.003907-.023437-.023437-.023437s-.039063-.019531-.023437-.042969c.007812-.023437.007812-.039062-.011719-.039062-.035157 0-.144531-.234375-.132813-.289063 0-.015625-.015625-.027343-.039062-.027343-.019532 0-.027344-.019532-.015625-.039063.011719-.023437.003906-.039063-.019531-.039063-.023438 0-.03125-.019531-.019532-.039062.011719-.023438.003906-.039062-.019531-.039062s-.035156-.019532-.019531-.042969c.011718-.023438.003906-.039063-.023438-.039063-.023437 0-.03125-.019531-.019531-.039062.011719-.023438.003906-.039063-.019531-.039063-.023438 0-.03125-.019531-.019532-.039062.011719-.023438.003907-.039063-.019531-.039063-.023437 0-.03125-.019531-.019531-.039062.011719-.023438.003906-.039063-.019531-.039063-.023438 0-.03125-.019531-.019531-.042969.011718-.023437.003906-.039062-.019532-.039062-.023437 0-.03125-.019531-.019531-.039062.011719-.023438.003906-.039063-.019531-.039063-.023438 0-.035156-.015625-.023438-.035156.011719-.019531-.003906-.046875-.039062-.058594-.039063-.015625-.058594-.039063-.046875-.054687.015625-.011719-.003907-.046876-.042969-.078126-.042969-.035156-.046875-.046874-.007812-.03125.03125.015626.007812-.019531-.058594-.078124-.0625-.054688-.089844-.09375-.058594-.078126.03125.019532-.054688-.082031-.199219-.21875-.144531-.140624-.269531-.25-.285156-.246093-.019531.003906-.03125-.011719-.03125-.035157 0-.019531-.015625-.027343-.039063-.015624-.019531.011718-.039062.011718-.039062-.007813 0-.015625-.042969-.039063-.101562-.039063-.054688-.003906-.097657.015626-.097657.035157 0 .023437-.027343.03125-.058593.015625-.03125-.011719-.058594-.003906-.058594.019531s-.019532.03125-.039063.019531c-.019531-.011718-.046875.003906-.058593.039063-.011719.03125-.039063.050781-.054688.039062-.109375-.066406-.253906.398438-.160156.519531.027344.027344.03125.09375.015625.148438-.015625.058594-.011719.125.007812.152344.011719.027344.035157.117187.039063.207031.015625.304687.011718 1.503906-.007813 1.703125-.011719.105469-.023437.25-.03125.316406-.007812.0625-.027343.140625-.042969.171875-.019531.027344-.023437.082031-.007812.121094.011719.042969.003906.085937-.019531.101563-.023438.015624-.03125.0625-.019531.101562.011718.039062.003906.082031-.019532.097656-.023437.015625-.03125.058594-.019531.101563.015625.046875.007813.078125-.019531.078125s-.035156.027344-.023438.0625c.011719.035156.011719.082031-.003906.105468-.042969.066407-.039062.386719.003906.386719.019532 0 .023438.011719.011719.027344-.015625.011719.003906.046875.042969.078125.039062.035156.042968.046875.007812.027344-.039062-.019532-.035156 0 .015625.054687.082031.097657.121094.117188.082031.035157-.015624-.023438.003907-.011719.042969.035156.035157.042968.082031.074218.101563.070312.019531-.007812.035156.007813.035156.03125 0 .019532.019531.027344.039062.015625.023438-.011719.039063-.003906.039063.019531 0 .023438.019531.03125.042969.019532.023437-.011719.039062-.003906.039062.019531s.019532.03125.039063.019531c.023437-.011718.039062-.003906.039062.019532 0 .023437.019531.03125.039063.019531.023437-.011719.039062-.003907.039062.019531 0 .027344.019532.035156.039063.023438.023437-.015626.042969-.011719.042969.015624 0 .023438.027343.03125.058593.019532.03125-.015625.058594-.003906.058594.019531 0 .078125.148437.046875.25-.050781.054687-.058594.085937-.109375.074219-.121094-.011719-.011719 0-.023438.027344-.023438.027343 0 .039062-.015624.023437-.035156-.011719-.019531-.003906-.046875.019531-.0625.023438-.015625.03125-.042968.019532-.066406-.015626-.019531-.007813-.035156.015624-.035156.023438 0 .035157-.027344.019532-.058594s0-.058594.027344-.058594c.027343 0 .039062-.027344.023437-.058594-.011719-.03125-.003906-.0625.019531-.0625.023438 0 .035156-.027343.019532-.058593-.011719-.03125-.003907-.058594.019531-.058594.023437 0 .035156-.027344.019531-.058594-.011719-.03125-.003906-.058593.019531-.058593.023438 0 .03125-.015626.015625-.035157-.011718-.019531-.003906-.050781.019532-.066406.023437-.015625.03125-.042969.019531-.0625-.015625-.019531-.003907-.035156.015625-.035156.023437 0 .039062-.019531.03125-.046875-.011719-.066406.105468-.0625.164062.007812.046875.050782.050782.050782.027344 0-.015625-.03125.039062.011719.121094.097656.078125.085938.132812.132813.117187.097657-.015625-.03125.074219.050781.199219.179687.121094.132813.210938.210938.195312.179688-.015624-.03125.011719-.015625.0625.039062.046876.054688.101563.097656.121094.097656.023438 0 .054688.027344.074219.058594.019531.035156.039063.042969.039063.023438 0-.027344.019531-.007813.046874.03125.023438.035156.054688.058594.078126.046875.019531-.015625.035156-.003907.035156.019531s.019531.03125.039062.019531c.023438-.011719.039063-.007812.039063.015625 0 .023438.027343.03125.058593.019532.035157-.015626.0625-.007813.0625.011718 0 .039063.164063.0625.339844.042969.058594-.003906.28125-.191406.261719-.222656-.003906-.003907-.003906-.011719-.003906-.019531.027343-.050782.039062-.59375.046875-2.695313.007812-2.414063.007812-2.457031-.070313-2.53125-.042969-.039063-.082031-.089844-.082031-.113281 0-.019532-.027344-.054688-.058594-.074219s-.039062-.039063-.019531-.039063c.023437 0-.003906-.039062-.058594-.082031-.054687-.042969-.070312-.074219-.039062-.054687.03125.015625.023437-.003906-.019531-.042969-.042969-.035156-.082032-.078125-.082032-.09375 0-.046875-.222656-.257813-.277344-.261719-.019531-.003906-.082031.039063-.136718.09375m-10.378906.054688c0 .019531-.015626.027344-.035157.015625s-.046875.003906-.058593.039062c-.011719.03125-.039063.050781-.058594.039063-.046875-.027344-.132813.070312-.097656.105468.011718.015626.003906.027344-.019532.027344-.027344 0-.042968.015625-.039062.027344 0 .023438-.007813.066406-.023438.101562-.015625.035157-.019531.191407-.007812.335938.011718.148438.023437.332031.027344.40625 0 .078125.019531.160156.039062.1875.023438.023438.03125.085938.015625.128906-.011719.039063-.003906.085938.019531.101563.027344.015625.035156.070312.023438.117187-.011719.054688-.003906.109375.015625.121094.023437.015625.03125.058594.019531.097656-.011719.039063-.003906.085938.023438.101563.023437.015625.03125.058593.019531.097656s-.003907.082031.019531.097656.03125.0625.019531.101563c-.011719.039062-.003906.082031.019531.097656.023438.015625.03125.058594.019532.097656-.011719.039063-.003906.085938.019531.101563s.03125.058593.019531.101562c-.015625.042969-.007812.074219.019532.074219.023437 0 .039062.023438.035156.050781-.007813.0625.894531 1 .964844 1 .035156 0 .046874.230469.050781.953125.003906.523438.019531.976563.03125.996094.015625.023438.015625.070312.003906.105469-.011719.039062-.003906.066406.023437.066406.023438 0 .035157.015625.019532.035156-.011719.019531-.003906.046875.019531.0625s.03125.042969.019531.0625c-.015625.019531-.003906.035157.019532.035157.023437 0 .03125.015624.019531.039062s-.003907.042969.019531.042969c.027344 0 .03125.015625.023438.039062-.015626.019531-.003907.039063.019531.039063.023437 0 .035156.015625.023437.035156-.011718.019531.003906.046875.035156.058594.03125.011718.054688.039062.050782.058594-.007813.019531.023437.070312.066406.105468s.050781.050782.019531.035156c-.03125-.015624.011719.046876.097657.132813.085937.09375.167968.15625.1875.144531.015624-.011718.042968.007813.058593.039063.011719.035156.039063.050781.058594.039062s.035156 0 .035156.023438c0 .023437.015625.03125.039063.019531.023437-.011719.039062-.003906.039062.019531 0 .023438.015625.035157.039063.019531.019531-.011718.039062-.007812.039062.015626 0 .019531.0625.03125.132813.027343.066406-.007812.121094-.03125.113281-.058593-.003906-.023438.007813-.042969.027344-.042969s.039062-.066407.042969-.148438c0-.144531.019531-.398437.0625-.839843.03125-.339844.058593-.675782.117187-1.464844.039063-.527344.046875-.597656.101563-.65625.027343-.03125.035156-.058594.019531-.058594-.019531 0 .011719-.035156.0625-.082031.050781-.042969.066406-.070313.035156-.050781-.03125.015624-.007813-.03125.054687-.097657.0625-.066406.128907-.113281.144532-.105469.015625.011719.0625-.019531.101562-.070312.074219-.089844.074219-.089844-.007812-.03125-.042969.03125-.007813-.007812.078125-.09375.09375-.082031.164062-.164062.164062-.1875 0-.015625.035157-.058594.078125-.089844.042969-.035156.0625-.0625.042969-.0625-.023437 0-.003906-.027344.039063-.0625.039062-.035156.050781-.054687.015624-.035156-.039062.015625-.035156.007812.011719-.035156.039063-.03125.058594-.066406.042969-.078125-.011719-.015625-.003906-.027344.023438-.027344.027343 0 .035156-.019531.023437-.039063-.011719-.023437-.003906-.039062.015625-.039062.023438 0 .039062-.011719.039062-.03125-.003906-.015625 0-.035156.003907-.050781.027343-.058594.023437-.28125-.003907-.296875-.015624-.011719-.023437-.046875-.007812-.078125.011719-.03125 0-.058594-.027344-.058594-.023437 0-.03125-.019531-.019531-.039063.011719-.023437.003906-.039062-.023437-.039062-.027344 0-.039063-.007812-.027344-.019531.023437-.03125-.292969-.359375-.335938-.347657-.019531.003907-.03125-.011718-.03125-.035156 0-.019531-.015625-.03125-.035156-.019531s-.046875-.003906-.058594-.039063c-.011718-.03125-.039062-.046874-.0625-.035156-.019531.011719-.039062.003906-.039062-.019531s-.015625-.03125-.039063-.019531c-.023437.011718-.042969.003906-.042969-.019532 0-.023437-.019531-.03125-.039062-.019531-.023438.011719-.039062.003907-.039062-.019531s-.015626-.042969-.039063-.042969c-.046875 0-.214844.160157-.167969.160157.015625 0-.015625.039062-.070312.082031-.054688.042969-.070313.074219-.039063.054687.03125-.015625-.003906.027344-.078125.097656-.078125.070313-.113281.113282-.082031.097657.035156-.015625-.035156.070312-.152344.195312-.121093.121094-.230469.214844-.25.199219-.015625-.007812-.042969.011719-.054687.042969-.011719.035156-.039063.050781-.058594.039062-.023438-.011719-.039062-.003906-.039062.015625 0 .042969-.234376.039063-.308594-.003906-.027344-.019531-.039063-.050781-.027344-.070312.015625-.023438.003906-.035157-.019531-.035157-.023438 0-.035157-.019531-.019531-.039062.011718-.019531.003906-.046875-.019532-.0625-.023437-.015625-.03125-.042969-.019531-.0625.015625-.019531.011719-.058594-.007813-.085938-.03125-.054687-.050781-.203125-.054687-.425781 0-.074219-.019531-.160156-.039063-.183594-.019531-.027344-.03125-.09375-.011718-.148437.015625-.066407.003906-.105469-.027344-.105469-.027344 0-.035156-.03125-.019531-.078125s.007812-.078125-.019531-.078125c-.023438 0-.035157-.015625-.019532-.035156.011719-.019532.003906-.046875-.019531-.0625s-.03125-.046875-.019531-.066406c.015625-.019532.003906-.035157-.019532-.035157-.023437 0-.03125-.019531-.019531-.039062.011719-.023438.003907-.039063-.019531-.039063s-.03125-.019531-.019531-.039062c.011719-.023438-.003907-.050782-.035157-.0625-.039062-.011719-.058593-.039063-.042968-.0625.011718-.015625-.019532-.050782-.0625-.074219-.042969-.023437-.070313-.058594-.0625-.074219.011718-.015625-.039063-.089844-.113282-.164062-.078124-.074219-.140624-.117188-.140624-.09375 0 .019531-.019532.007812-.039063-.023438s-.054687-.0625-.078125-.0625c-.019531-.003906-.042969-.007812-.046875-.015625-.042969-.027343-.429687-.019531-.429687.007813m13.207031.316406c-.011719.015625-.042969.019531-.074219.003906-.03125-.011718-.0625 0-.0625.027344 0 .023438-.011719.03125-.039062.019531-.019532-.011719-.039063-.003906-.039063.019531 0 .023438-.015625.035157-.035156.019532-.019531-.011719-.066407.007812-.097657.042968-.035156.03125-.0625.046876-.0625.03125 0-.015624-.03125.003907-.0625.050782-.03125.039062-.058593.058594-.058593.039062 0-.015625-.035157.007813-.082031.058594-.042969.050781-.066407.066406-.050782.035156s-.035156 0-.117187.074219c-.078125.078125-.128907.15625-.117188.1875s0 .054687-.027343.054687c-.023438 0-.03125.015626-.019532.039063.011719.019531.003906.039063-.019531.039063s-.035156.019531-.019531.039062c.011718.027344-.003906.054688-.039063.066406-.035156.011719-.054687.039063-.042969.058594.011719.015625-.015624.050781-.058593.074219-.042969.023437-.070313.058593-.058594.082031.015625.023438.003906.039062-.019531.039062-.023438 0-.03125.015626-.019532.039063.011719.019531.003907.039063-.019531.039063-.023437 0-.03125.015624-.019531.039062.011719.019531 0 .039062-.023438.039062-.023437 0-.03125.015626-.019531.039063.011719.019531.007813.042969-.015625.042969-.023437 0-.03125.027344-.019531.058594.015625.03125.003906.058593-.019531.058593-.023438 0-.03125.027344-.019532.058594.015626.03125.003907.058594-.023437.058594-.023437 0-.035156.015625-.019531.039062.011718.019531.003906.046875-.015625.0625-.023438.011719-.03125.046875-.015625.078125.011718.03125 0 .058594-.027344.058594s-.035156.03125-.019531.082031c.015625.046875.007812.078125-.019531.078125-.027344 0-.035157.03125-.023438.078125.019531.046875.011719.078125-.019531.078125s-.039063.035156-.023438.101563c.015625.0625.007813.097656-.019531.097656s-.035156.035156-.019531.097656c.015625.058594.011719.125-.003907.152344-.042968.066406-.042968.910156 0 .964844.019532.027343.023438.070312.007813.09375-.015625.023437-.003906.066406.019531.097656.023438.03125.035156.074219.019532.097656-.011719.019531-.003907.042969.019531.042969.03125 0 .042969.027344.027343.058594-.011718.03125-.007812.058594.019532.058594.023437 0 .027344.015624.015625.039062-.011719.019531-.003907.039062.019531.039062s.03125.015626.019531.039063c-.011719.019531-.003906.042969.015625.042969.023438 0 .039063.015625.03125.035156-.003906.019531.027344.066406.070313.101562.042969.035157.050781.050782.019531.035157s.011719.046875.097656.136719c.085938.089843.167969.152343.183594.140624.015625-.007812.054688.019532.078125.0625.023437.046876.058594.074219.082031.0625.019532-.015624.046875.003907.058594.035157.011719.035156.039062.054687.054688.042969.015624-.011719.042968.007812.058593.042968.011719.03125.039063.046875.0625.035156.019531-.011718.039063-.003906.039063.019532 0 .023437.019531.03125.039062.019531.023438-.011719.039063-.003906.039063.019531 0 .023438.019531.03125.039062.019532.023438-.011719.039063-.003907.039063.019531 0 .03125.035156.039062.078125.019531.042969-.007812.085937 0 .101562.023438.03125.050781.5625.050781.597657-.003907.011718-.023437.066406-.03125.121093-.019531.054688.015625.09375.007812.09375-.019531 0-.023438.019531-.03125.039063-.019531.023437.011718.039062.003906.039062-.019532 0-.023437.015625-.035156.039063-.019531.019531.011719.070312-.023437.105469-.078125.035156-.050781.078124-.085938.097656-.074219.019531.011719.035156 0 .035156-.023437 0-.027344.019531-.03125.039062-.019532.023438.011719.042969.003907.042969-.027343 0-.027344.007813-.039063.019531-.027344.027344.027344.320313-.246094.304688-.292969-.003906-.019531.019531-.042968.050781-.054687s.046875-.039063.035157-.058594c-.011719-.019531.007812-.046875.039062-.058594.035156-.011719.050781-.039062.039062-.058593-.011718-.019532 0-.039063.023438-.039063s.03125-.019531.019531-.039063c-.011719-.023437-.003906-.039062.019531-.039062.023438 0 .035157-.019531.019532-.039062-.007813-.023438-.003906-.039063.019531-.039063s.03125-.027344.019531-.058594c-.015625-.03125-.003906-.0625.023438-.0625s.035156-.03125.019531-.074219c-.011719-.042968-.007813-.085937.007813-.09375.054687-.035156.015624-2.050781-.042969-2.179687-.015625-.035156-.019531-.09375-.007813-.128906.015625-.039063.003906-.09375-.019531-.121094-.023437-.03125-.039063-.078125-.023437-.113281.015624-.03125.007812-.066406-.019532-.085938-.023437-.011718-.03125-.046875-.019531-.078125s.003906-.054687-.019531-.054687c-.023438 0-.035156-.027344-.019532-.058594.011719-.03125.003907-.058594-.019531-.058594-.023437 0-.027343-.023437-.015625-.042968.011719-.023438.003906-.039063-.015625-.039063-.023437 0-.039062-.015625-.03125-.035156.003907-.019531-.027343-.066407-.070312-.101563s-.050781-.050781-.019531-.035156.007812-.027344-.058594-.097656c-.125-.132813-.160156-.15625-.121094-.078125.015625.027343-.019531-.003907-.074219-.066407-.054687-.066406-.105469-.101562-.105469-.078124 0 .019531-.019531.007812-.042968-.035157-.023438-.035156-.054688-.058593-.078125-.046875-.019531.015625-.035157.003906-.035157-.019531s-.015624-.03125-.039062-.019531c-.019531.011718-.039062.003906-.039062-.019532 0-.023437-.019532-.035156-.039063-.019531-.019531.011719-.046875.003907-.0625-.015625-.011719-.023437-.046875-.03125-.078125-.015625-.03125.011719-.058594.003907-.058594-.015625 0-.039062-.433594-.046875-.460937-.003906zm.339843 1.863281c0 .019531.011719.023438.03125.015625.015626-.007812.0625.019532.101563.0625.035156.039063.054687.070313.039063.070313-.015626 0-.007813.019531.019531.046875.058593.058594.0625.21875.007812.25-.023437.015625-.03125.058594-.019531.101562.015625.039063.007812.078125-.015625.078125s-.03125.027344-.019531.058594c.015625.03125.003906.058594-.023438.058594-.023437 0-.035156.015625-.019531.039062.011719.019531.003906.039063-.019531.039063-.027344 0-.039063.015625-.023438.035156.015625.023438.003906.050781-.019531.066406s-.03125.042969-.019531.0625c.015625.019532-.003906.046875-.035156.058594-.035157.011719-.050782.039062-.039063.058594.011719.019531 0 .035156-.023437.035156-.023438 0-.035157.019531-.023438.039062.011719.019532-.003906.046876-.035156.058594-.03125.011719-.058594.035156-.050782.050782.015626.042968-.15625.210937-.183593.179687-.011719-.015625-.023438 0-.023438.023437 0 .070313-.082031.054688-.148437-.023437-.03125-.039063-.042969-.046875-.027344-.015625.019531.039062.011719.050781-.019531.03125-.023438-.015625-.035157-.042969-.023438-.066406.011719-.015625-.007812-.050782-.039062-.078125-.066407-.054688-.078125-.300781-.019531-.335938.023437-.015625.03125-.058593.019531-.101562-.015625-.042969-.007813-.078125.015625-.078125.023437 0 .03125-.027344.019531-.058594-.015625-.03125-.003906-.058594.023437-.058594.027344 0 .039063-.027344.023438-.058594-.011719-.03125-.003906-.0625.019531-.0625.023438 0 .03125-.015624.015625-.035156-.011718-.019531-.003906-.046875.019532-.0625.027343-.015625.035156-.042968.019531-.0625-.015625-.019531-.003907-.035156.019531-.035156.027344 0 .035156-.019531.023438-.039062-.011719-.023438-.003907-.042969.015624-.042969.023438 0 .039063-.011719.039063-.03125-.003906-.015625 0-.039063.003906-.058594.003907-.015625.011719-.039063.015625-.058594 0-.015625.039063-.0625.082032-.105469.074218-.078124.296874-.113281.296874-.050781m-7.292968-.972656c-.003906.007813-.007813.03125-.011719.050781 0 .023438-.027344.058594-.058594.074219-.027343.019531-.042969.054687-.027343.078125.011718.023438.007812.054688-.015626.066406-.023437.015625-.03125.0625-.019531.101563.015625.042969.003907.105469-.019531.136719-.03125.039062-.039062.128906-.019531.292968.015625.15625.011719.242188-.019531.261719-.023438.015625-.03125.058594-.023438.097656.015625.039063.007812.082031-.019531.097657-.023438.015624-.03125.0625-.019531.101562.011718.039062.003906.082031-.019532.097656-.023437.015625-.03125.058594-.019531.101563.015625.046875.007813.078125-.019531.078125s-.039063.027344-.027344.058594c.015625.03125.007812.066406-.011719.078124-.019531.011719-.027343.046876-.011719.082032.011719.03125 0 .058594-.027343.058594-.027344 0-.039063.027343-.023438.058593.011719.03125.003907.058594-.019531.058594s-.035156.027344-.023438.058594c.015626.03125.007813.070312-.011718.082031-.019532.011719-.03125.046875-.011719.078125.011719.03125 0 .058594-.027344.058594-.03125 0-.042969.027343-.03125.058593.015625.03125.007813.070313-.015625.082032-.019531.015625-.027344.042968-.011718.0625.011718.019531 0 .0625-.023438.09375s-.035156.074218-.019531.097656c.015625.027344.003906.070312-.019531.101562-.023438.03125-.035157.074219-.019532.097657.011719.019531.003906.039062-.019531.039062s-.035156.015625-.023437.039063c.011718.019531-.003907.046875-.039063.058594-.035156.011718-.050781.042968-.03125.070312.015625.027344.015625.039062 0 .023438-.019531-.015626-.074219-.011719-.121094.007812-.09375.035156-.238281-.019531-.203125-.082031.019532-.019531.003906-.035157-.019531-.035157s-.03125-.019531-.019531-.039062c.015625-.03125.011718-.066406-.007813-.09375-.015625-.023438-.035156-.210938-.039062-.402344-.011719-.386718-.046875-1.140625-.0625-1.367187-.003907-.074219-.023438-.164063-.039063-.191407-.019531-.023437-.019531-.066406-.007812-.085937.011718-.023437.003906-.039063-.023438-.039063s-.039062-.011718-.023437-.023437c.011719-.011719-.023438-.070313-.085938-.125-.058593-.054687-.070312-.074219-.027343-.046875.070312.050781.074218.050781.023437-.011719-.027344-.039062-.066406-.058593-.085937-.050781-.015626.011719-.0625-.023438-.097657-.078125-.039062-.054687-.082031-.089844-.101562-.082031-.015625.011718-.050781-.015625-.074219-.058594s-.058594-.070312-.082031-.058594c-.019531.015625-.035157.003906-.035157-.019531s-.015624-.03125-.042968-.019531c-.019532.011718-.039063.003906-.039063-.019532 0-.023437-.015625-.03125-.039062-.019531-.019531.011719-.039063.007813-.039063-.019531 0-.039062-.054687-.035156-.167968.019531-.039063.015625-.058594.042969-.046876.0625.011719.019531.003907.035157-.019531.035157-.023437 0-.03125.027343-.019531.058593.015625.03125.003906.058594-.023438.058594-.027343 0-.039062.023437-.027343.058594.011719.03125.011719.066406-.003907.082031-.015624.015625-.03125.074219-.035156.128906-.046875.546875-.054687.808594-.054687 1.515625 0 .957031.011719 1.230469.054687 1.292969.019532.027344.019532.074219.007813.09375-.015625.023438-.003907.066406.019531.097656.027344.03125.035156.058594.019531.058594s-.007812.023438.015625.050781c.023438.035157.03125.070313.015625.082031-.011719.015626-.003906.027344.023438.027344.027343 0 .035156.015625.023437.039063-.011718.019531-.003906.039062.019532.039062.023437 0 .035156.015625.023437.035157-.011719.019531.003906.046874.042969.058593.03125.011719.046875.042969.035156.066407-.011719.019531-.003906.039062.019531.039062.023438 0 .035157.015625.019531.035156-.011718.023438.015626.058594.058594.082032.042969.023437.070313.058593.0625.074218-.011718.019532.03125.074219.101563.121094.0625.046875.105469.101562.097656.117188-.011719.019531.015625.070312.066406.109374l.085938.074219-.074219-.097656c-.042969-.058594-.007812-.027344.082031.058594.082031.085937.164063.152343.183594.144531.015625-.003906.039063.019531.050781.054688.011719.03125.039063.046874.058594.035156.023438-.011719.039062-.003906.039062.019531s.027344.03125.058594.019531c.03125-.015625.058594-.003906.058594.019532 0 .023437.027344.03125.058594.019531.03125-.015625.0625-.007813.0625.007812 0 .03125.472656.042969.503906.015625.015625-.007812.03125-.015625.050781-.019531.023438-.003906.050781-.015625.070313-.019531.015625-.003906.039062-.007813.058594-.003906.015624 0 .027343-.015626.027343-.039063 0-.019531.015625-.03125.035157-.019531.019531.011718.046874-.003906.058593-.039063.011719-.035156.042969-.050781.066407-.039062.019531.011719.039062.003906.039062-.015625 0-.023438.015625-.039063.035156-.03125.019532.003906.066406-.027344.101563-.070313.035156-.042969.050781-.050781.035156-.019531s.027344.007812.097656-.054688c.132813-.128906.15625-.164062.078125-.125-.027344.015626-.011718-.007812.035156-.050781.046876-.042969.074219-.085937.0625-.101562-.015624-.011719-.003906-.023438.023438-.023438.03125 0 .039062-.019531.027344-.042969-.015625-.023437-.003906-.039062.019531-.039062s.03125-.019531.019531-.039062c-.011718-.023438-.003906-.039063.019532-.039063.023437 0 .03125-.019531.019531-.039063-.011719-.023437-.003907-.039062.019531-.039062.027344 0 .039062-.027344.023438-.0625-.011719-.03125-.003907-.058594.019531-.058594.023437 0 .035156-.027344.023437-.058594-.015625-.03125-.007812-.066406.011719-.078124.019531-.011719.027344-.046876.015625-.074219-.011719-.035157-.003906-.070313.019531-.082031.023438-.015626.03125-.050782.019531-.078126-.011718-.03125 0-.066406.019532-.082031.027344-.011719.035156-.042969.023437-.0625-.015625-.023437-.007812-.066406.019531-.09375.023438-.027343.035157-.078125.019532-.113281-.011719-.03125 0-.070312.023437-.089844.023438-.015625.03125-.058594.019531-.101562-.015624-.042969-.007812-.074219.019532-.074219.023437 0 .03125-.039063.015625-.101563s-.007813-.097656.023437-.097656.039063-.035156.023438-.09375c-.011719-.054687-.003906-.113281.015625-.125.023437-.015625.03125-.058594.019531-.101562-.015625-.039063-.011719-.09375.007812-.121094.015626-.03125.035157-.109375.039063-.171875.007813-.066406.019531-.234375.035156-.375.039063-.429687.023438-.890625-.035156-.980469-.015625-.023437-.015625-.070312-.003906-.105468.015625-.035157.003906-.0625-.023438-.0625-.027343 0-.039062-.03125-.023437-.0625.011718-.03125.003906-.058594-.019532-.058594-.023437 0-.027343-.019532-.015624-.039063.011718-.023437.003906-.039062-.019532-.039062-.023437 0-.03125-.019531-.019531-.039063.011719-.023437.003906-.039062-.019531-.039062-.023438 0-.039063-.015625-.03125-.035156.007812-.015626-.0625-.101563-.15625-.1875-.09375-.09375-.167969-.15625-.167969-.140626 0 .011719-.015625 0-.039063-.027343-.027343-.046875-.308593-.09375-.324218-.058594m.539062.210937c.039063.042969.082032.078126.089844.078126.015625 0-.007812-.035157-.050781-.078126-.039063-.042968-.078125-.082031-.089844-.082031s.011719.039063.050781.082031m-3.425781.292969c0 .007813.03125.039063.070313.066407.0625.050781.066406.046874.011718-.015626-.050781-.0625-.082031-.082031-.082031-.050781m9.703125 5.105469c0 .023438-.007812.027344-.027344.015625-.035156-.035156-.171875.089844-.144531.132813.011719.019531 0 .039062-.023437.039062-.023438 0-.03125.015625-.019532.039062.011719.019532.003906.039063-.019531.039063s-.035156.015625-.019531.035156c.011718.019531.003906.046875-.015625.0625-.023438.011719-.035157.046875-.015625.078125.011718.035156 0 .0625-.027344.0625s-.035156.035156-.019531.09375c.011719.050782.003906.105469-.019531.121094-.023438.011719-.03125.070312-.019532.125.011719.050781.003906.121094-.023437.152344-.03125.035156-.035157.113281-.019531.21875.015624.109375.011718.183594-.019532.21875s-.039062.109375-.019531.203125c.015625.09375.011719.132812-.015625.113281-.023438-.011719-.042969-.003906-.042969.019531 0 .027344-.03125.035157-.078125.019531-.042968-.011718-.085937-.003906-.101562.019532-.015625.023437-.058594.03125-.101563.019531-.042969-.015625-.078125-.007813-.078125.019531s-.03125.039063-.074218.023438c-.042969-.015625-.085938-.003906-.101563.019531s-.058594.03125-.101563.019531c-.039062-.011718-.082031-.003906-.097656.019532-.011718.023437-.042968.03125-.0625.015624-.019531-.011718-.0625-.003906-.089844.019532-.03125.023437-.085937.035156-.121093.019531-.035157-.015625-.0625-.003906-.0625.023437 0 .027344-.027344.039063-.058594.027344-.03125-.015625-.070313-.007812-.082031.015625-.015625.019531-.039063.027344-.058594.015625-.019531-.011718-.078125.023438-.132812.082032-.082032.078124-.097657.121093-.078126.226562.019532.105469.003907.144531-.042968.160156-.035156.015625-.0625.007813-.0625-.015625 0-.023437-.015625-.03125-.035156-.019531-.019532.011719-.046876-.003906-.058594-.039062-.011719-.03125-.039063-.054688-.058594-.042969-.023438.015625-.0625-.007813-.089844-.042969-.046875-.054688-.046875-.0625.003906-.035156.035157.015625.03125.007812-.007812-.027344-.039062-.03125-.058594-.066406-.042969-.078125.011719-.015625.003907-.027344-.019531-.027344-.074219 0-.054688-.152343.027344-.234375.042968-.042968.085937-.066406.097656-.050781.011719.011719.027344.003906.027344-.015625 0-.03125.097656-.050781.492187-.070312.109375-.003907.183594-.035157.230469-.09375.074219-.089844.089844-.210938.027344-.210938-.019532 0-.039063-.035156-.039063-.078125s-.019531-.078125-.039062-.078125c-.023438 0-.035157-.011719-.03125-.03125.011719-.03125-.328125-.386719-.375-.386719-.015625 0-.054688-.035156-.089844-.078125-.035156-.042968-.054687-.050781-.039063-.019531.015626.039063.007813.035156-.03125-.007813-.03125-.039062-.066406-.058593-.078124-.042968-.015626.011718-.027344.003906-.027344-.023438s-.019532-.035156-.042969-.023437c-.019531.011719-.039063.003906-.039063-.019531 0-.027344-.015624-.035157-.039062-.019532-.019531.007813-.039062 0-.039062-.023437 0-.023438-.015626-.035157-.035157-.019531-.019531.011718-.046875.003906-.0625-.015626-.011719-.023437-.050781-.03125-.082031-.015624-.03125.011718-.058594.003906-.058594-.011719 0-.019531-.078125-.035157-.179687-.035157-.097657 0-.175781.011719-.175781.027344s-.027344.019532-.058594.007813c-.03125-.015625-.0625-.003907-.0625.023437 0 .023438-.015625.03125-.039063.019532-.019531-.011719-.039062-.003907-.039062.019531 0 .023437-.015625.03125-.039063.019531-.019531-.011719-.039062-.003906-.039062.023438 0 .023437-.015625.03125-.039063.019531-.019531-.011719-.039062-.003907-.039062.019531s-.015625.03125-.042969.019531c-.019531-.011719-.039062-.003906-.039062.019531 0 .023438-.015626.03125-.039063.019532-.019531-.011719-.039063-.003906-.039063.019531s-.015624.03125-.039062.019531c-.019531-.011718-.039062-.003906-.039062.019532 0 .023437-.015626.035156-.035157.023437s-.050781.003906-.0625.039063c-.015625.035156-.035156.058593-.050781.039062-.011719-.011719-.050781.011719-.078125.058594-.03125.042968-.074219.066406-.097656.054687-.023438-.015625-.035157-.007812-.015625.015625.011718.023438-.015625.066406-.058594.097656-.042969.027344-.066406.066407-.050781.082032.011719.015625.003906.027344-.023438.027344-.027343 0-.035156.015624-.023437.039062.011718.019531.003906.039062-.019532.039062-.027343 0-.039062.023438-.027343.054688s.011719.066406 0 .078125c-.019531.019531-.027344.640625-.007813.699219.003906.015625.003906.03125 0 .046875 0 .019531.015625.03125.035156.03125.019532 0 .035157.015625.027344.03125-.003906.019531.046875.082031.109375.144531.070313.058594.09375.097656.0625.082031-.03125-.011719.160157.195313.433594.460938.273437.269531.46875.46875.4375.453125s-.003906.019531.058594.082031c.066406.058594.117187.121094.117187.140625s.03125.050781.058594.070312c.035156.019532.046875.042969.023438.042969-.023438 0-.003907.027344.035156.058594.042968.03125.0625.058594.046875.058594s0 .027343.03125.0625c.035156.03125.054687.078125.042969.101562-.015626.019531-.007813.035157.015624.035157.023438 0 .03125.023437.019532.054687-.011719.03125 0 .066406.023437.082031.035157.019532.035157.042969-.003906.082032-.023437.035156-.03125.058593-.015625.058593s-.019531.039063-.078125.085938c-.097656.078125-.363281.121093-.386719.0625-.003906-.011719-.035156-.03125-.066406-.039063-.070312-.015625-.269531-.203125-.25-.242187.011719-.015625-.003906-.027344-.03125-.027344-.023438 0-.03125-.019531-.019531-.039063.011719-.019531.003906-.039062-.019531-.039062-.027344 0-.035157-.027344-.023438-.0625.011719-.03125-.003906-.070312-.039062-.085938-.082032-.03125-.253907.0625-.226563.132813.011719.03125 0 .054687-.027344.054687-.023437 0-.03125.015626-.019531.039063.011719.019531.011719.0625-.003906.085937-.042969.070313-.042969.746094-.003906.773438.015624.007812.019531.050781.007812.09375-.015625.046875-.007812.078125.019531.078125.023438 0 .03125.015625.019531.039063-.011718.019531-.003906.039062.015626.039062.023437 0 .039062.015625.03125.035156-.003907.019532.03125.066406.074218.101563.042969.039062.050782.058593.019532.042969-.03125-.015626.003906.03125.078124.097656.074219.066406.109376.109375.078126.09375s.039062.074218.160156.195312c.226562.234375.261718.261719.21875.175782-.015625-.023438 0-.015626.03125.019531.03125.039062.066406.058593.078125.042969.015625-.011719.027343-.003907.027343.019531 0 .023437.027344.035156.058594.023437.03125-.015625.058594-.003906.058594.019532 0 .023437.066406.042968.140625.042968s.140625-.019531.140625-.042968c0-.023438.027344-.035157.058594-.023438.03125.015625.066406.007812.078125-.015625.015625-.019531.042969-.027344.0625-.015625.019531.015625.035156.003906.035156-.019531 0-.023438.019531-.03125.042969-.019531.023437.011718.039062.003906.039062-.019532 0-.023437.019532-.035156.039063-.019531.023437.011719.039062.003906.039062-.019531 0-.027344.019531-.035156.039063-.023438.023437.015625.050781-.003906.0625-.035156.011718-.035156.039062-.054688.0625-.042969.015625.011719.050781-.015625.074218-.058593.023438-.042969.054688-.074219.074219-.066407.019531.003907.070313-.035156.117188-.09375.054687-.054687.078125-.070312.0625-.039062s.058593-.03125.164062-.136719c.109375-.113281.191407-.210938.183594-.230469-.007813-.015625.007813-.027343.03125-.027343s.03125-.019532.019531-.039063c-.011718-.023437-.003906-.039063.019532-.039063.023437 0 .03125-.019531.019531-.042968-.011719-.027344-.011719-.058594.003906-.085938.078125-.117187.078125-.941406.007813-.941406-.023438 0-.03125-.027344-.019532-.0625.015625-.03125.007813-.066406-.015625-.078125-.019531-.015625-.027343-.039063-.015625-.058594.011719-.019531.003906-.042969-.019531-.058593-.023437-.015626-.03125-.039063-.019531-.058594.011718-.019532.003906-.046875-.019532-.0625-.023437-.015625-.03125-.042969-.019531-.0625.015625-.019532.003907-.035156-.015625-.035156-.023437 0-.042968-.015626-.042968-.035157 0-.015625.082031-.03125.1875-.035156.105468 0 .28125-.015625.398437-.027344.128906-.019531.203125-.011719.203125.011719s.039062.054688.082031.066406c.042969.015625.070313.039063.058594.058594s0 .046875.023437.058594c.023438.023437.03125.070312.011719.136718-.039062.136719-.042969.992188-.003906.992188.019531 0 .019531.039062.007813.082031-.015626.042969-.007813.078125.015624.078125.023438 0 .042969.011719.039063.027344-.007813.066406.054687.210938.097656.210938.023438 0 .03125.011718.015625.023437-.011718.015625.015625.058594.0625.101563.046875.042968.058594.066406.027344.046874-.03125-.015624.019531.058594.113281.15625.101563.101563.1875.175782.195313.167969.011718-.011719.042968 0 .074218.027344.074219.058594.242188.074219.273438.027344.015625-.019531.039062-.027344.0625-.015625.019531.015625.035156.003906.035156-.019532 0-.027343.023438-.039062.054688-.027343.015625.003906.03125.003906.046875-.003907.015625-.003906.027343-.019531.03125-.035156.011719-.035156.039062-.050781.058593-.039062.019532.011718.054688-.003906.085938-.035156.027344-.03125.035156-.058594.015625-.058594s0-.027344.039063-.058594c.042968-.03125.0625-.0625.046874-.0625-.019531 0-.011718-.027344.015626-.058594.023437-.03125.035156-.074218.019531-.097656s-.003907-.066406.019531-.097656c.035156-.039063.039062-.144532.023438-.328125-.046876-.460938-.0625-.660157-.074219-.824219-.007813-.085938-.019531-.175781-.027344-.195312-.007813-.023438-.015625-.121094-.023437-.21875-.003907-.097657-.019532-.234376-.035157-.300782-.019531-.089844-.007812-.148437.042969-.207031.039062-.046875.082031-.074219.101562-.0625.015626.011719.03125 0 .03125-.023437 0-.023438.019532-.03125.042969-.019532.023438.011719.039063.003906.039063-.019531s.015625-.035156.035156-.019531c.019531.011718.046875.003906.0625-.019532.015625-.023437.042969-.03125.0625-.019531.019531.015625.035156.003907.035156-.019531 0-.03125.03125-.042969.058594-.027344.035156.015625.0625.003906.0625-.019531s.027344-.035156.058594-.019531c.03125.011718.058594.003906.058594-.019532 0-.023437.027343-.035156.058593-.019531.035157.011719.0625.003907.0625-.019531s.027344-.035156.058594-.019531c.03125.011719.058594.003906.058594-.019531 0-.023438.027343-.035157.058593-.019532.03125.011719.058594.003906.058594-.019531s.027344-.035156.0625-.019531c.03125.011718.058594.003906.058594-.015625s.027344-.027344.058594-.015625c.03125.015625.058594.003906.058594-.027344 0-.023438.019531-.03125.039062-.019531.027344.015625.042969.007812.042969-.019531 0-.027344.027343-.039063.058593-.023438.03125.011719.058594.003906.058594-.019531 0-.023438.015625-.03125.035156-.015625.019532.011718.046876.003906.0625-.019532.015626-.023437.046876-.03125.066407-.019531.019531.015625.035156.003907.035156-.019531s.019531-.03125.039063-.019531c.023437.011719.039062.003906.039062-.019531 0-.023438.019531-.03125.039062-.019532.023438.011719.039063.003906.039063-.019531s.019531-.03125.039063-.019531c.027343.011718.039062.003906.039062-.019532 0-.027343.023438-.035156.042969-.019531.023437.011719.039062.003907.039062-.019531s.011719-.039062.03125-.035156c.015625.007812.078125-.039063.136719-.101563.09375-.089843.117188-.152343.121094-.324219.007812-.121093-.003906-.214843-.023438-.214843-.015625 0-.019531-.019531-.007812-.042969.015625-.023438-.003906-.066406-.042969-.09375-.046875-.035156-.066406-.0625-.054687-.0625.015624 0-.046876-.074219-.136719-.164062-.085938-.09375-.175781-.164063-.191407-.160157-.019531.003907-.03125-.011719-.03125-.035156 0-.019531-.015624-.027344-.039062-.015625-.019531.011719-.039062.011719-.039062-.007812 0-.015626-.316407-.03125-.707032-.03125-.628906 0-.707031-.007813-.769531-.070313-.054687-.054687-.070313-.113281-.058594-.179687.011719-.066407-.003906-.121094-.042969-.160157-.046874-.035156-.046874-.042969-.007812-.023437.03125.019531-.074219-.097656-.238281-.257813-.160157-.160156-.3125-.289062-.328125-.289062-.015625.003906-.039063-.019531-.050782-.050781-.011718-.03125-.039062-.046876-.058593-.035157s-.035157 0-.035157-.023437c0-.023438-.015624-.035156-.039062-.019532-.019531.011719-.042969.003907-.058594-.015624-.03125-.046876-.222656-.042969-.222656.007812m0 0"/><path d="m14.972656 9.050781c.050782.054688.105469.101563.113282.101563.011718 0-.019532-.046875-.074219-.101563-.050781-.054687-.101563-.097656-.109375-.097656-.011719 0 .019531.042969.070312.097656m-10.199218.855469c-.015626.023438-.050782.03125-.082032.019531s-.058594-.003906-.058594.019531c0 .023438-.015624.03125-.035156.023438-.015625-.015625-.074218.023438-.121094.074219-.050781.054687-.074218.097656-.054687.097656s.003906.019531-.035156.042969c-.039063.023437-.0625.054687-.050781.074218.011718.019532.007812.046876-.019532.0625-.023437.015626-.03125.042969-.019531.0625.015625.019532.003906.035157-.019531.035157-.027344 0-.039063.027343-.027344.058593.015625.03125.007812.066407-.015625.082032-.019531.015625-.027344.042968-.011719.0625.011719.019531 0 .0625-.023437.09375-.023438.03125-.035157.074218-.019531.097656.015624.027344.011718.078125-.003907.113281-.039062.078125-.050781.253907-.074219.9375-.007812.28125-.019531.582031-.027343.664063 0 .082031-.023438.148437-.042969.148437-.023438 0-.03125.023438-.023438.046875.019532.054688-.105468.199219-.140624.160156-.011719-.011718-.023438-.003906-.023438.015626 0 .019531-.105469.035156-.226562.035156-.164063 0-.25-.019532-.296876-.070313-.078124-.078125-.097656-.285156-.03125-.324219.023438-.015624.03125-.0625.019532-.105468-.015625-.042969-.007813-.074219.019531-.074219s.035156-.03125.019531-.078125c-.015625-.050781-.007812-.082031.019532-.082031.027343 0 .035156-.03125.019531-.074219-.011719-.042969-.003907-.085938.015625-.097656.050781-.03125.046875-.492188 0-.523438-.019532-.011718-.027344-.054687-.015625-.097656.015625-.042969.007812-.078125-.015625-.078125-.023438 0-.03125-.027344-.019532-.058594.015626-.03125.003907-.058593-.023437-.058593-.023437 0-.03125-.019532-.019531-.039063.011718-.023437.003906-.039063-.019532-.039063-.023437 0-.03125-.019531-.019531-.039062.011719-.027344.003907-.042969-.019531-.042969-.027344 0-.039062-.015625-.027344-.035156.015625-.019531-.003906-.046875-.039062-.058594-.03125-.011719-.050782-.039062-.039063-.054687.027344-.042969-.1875-.257813-.226562-.222656-.015625.015624-.035157-.003907-.050781-.039063-.011719-.035156-.039063-.050781-.058594-.039063-.019532.011719-.035156 0-.035156-.019531 0-.023437-.011719-.042969-.027344-.042969-.019532.003907-.035156.003907-.050782-.003906-.109374-.042968-.410156-.058594-.570312-.03125-.09375.015625-.253906.160156-.234375.199219.007813.019531 0 .03125-.023437.03125-.023438 0-.03125.023437-.019532.054687.011719.03125.003906.070313-.023437.085938-.023438.011719-.03125.066406-.019531.117188.011718.050781.007812.121093-.011719.148437-.015625.027344-.035157.28125-.039063.566406-.015625.859375-.035156 1.226563-.066406 1.277344-.015625.023437-.019531.0625-.003906.085937.027344.046876-.117188.203126-.152344.167969-.015625-.011719-.027344 0-.027344.027344 0 .03125-.027344.042969-.058594.027344-.03125-.011719-.058593-.003907-.058593.019531s-.027344.035156-.058594.019531c-.03125-.011719-.058594-.003906-.058594.019531 0 .027344-.03125.039063-.0625.027344-.03125-.015625-.066406-.007812-.078125.011719-.011718.019531-.046875.027344-.078125.011719-.03125-.011719-.058593 0-.058593.027344 0 .023437-.019532.035156-.039063.019531-.019531-.011719-.046875-.003907-.0625.019531s-.042969.03125-.0625.019531c-.019531-.015625-.035156-.003906-.035156.023438 0 .027343-.011719.039062-.023438.027343-.011719-.011718-.058593.015626-.109375.0625-.0625.066407-.085937.136719-.085937.273438 0 .105469.011719.1875.027343.1875.015626 0 .019532.027344.007813.058594-.015625.03125-.003906.058594.023437.058594.023438 0 .03125.019531.019532.042968-.011719.023438-.003906.039063.015625.039063.023437 0 .042969.011719.039062.027343-.011719.019532.039063.078126.097657.136719.058593.0625.105468.097657.105468.082031 0-.015624.027344.007813.0625.050782.035156.042968.074219.078125.089844.082031.035156 0 .578125.542969.578125.578125.003906.015625.039063.054688.082031.09375.042969.035156.050782.054688.019532.039062-.03125-.015624-.023438.003907.015624.035157.042969.035156.0625.0625.039063.0625-.019531 0-.003906.019531.039063.042969.035156.023437.058593.054687.046874.078124-.015624.023438-.003906.035157.015626.035157.023437 0 .039062.019531.03125.039062-.003907.015625.035156.070313.089843.117188.054688.050781.074219.074219.039063.058593-.03125-.015624-.007813.027344.058594.097657.0625.066406.128906.113281.148437.101562.015625-.011719.042969.007813.054687.039063.011719.035156.039063.050781.058594.039062.023438-.011718.050782.007813.0625.039063.011719.039062.039063.054687.058594.042969.019531-.015626.035156 0 .035156.023437 0 .027344.027344.039063.058594.023437.03125-.011718.0625-.007812.0625.011719s.070312.03125.15625.027344c.085938 0 .160156-.019531.160156-.039063 0-.019531.011719-.027343.023438-.015624.027344.03125.199218-.140626.183594-.179688-.007813-.015625-.003907-.027344.015624-.027344.042969 0 .042969-.558594 0-.625-.019531-.027344-.023437-.085937-.007812-.125.011719-.042968.003906-.085937-.019531-.101562-.027344-.015625-.035157-.070313-.023438-.121094s.007813-.105469-.015625-.117188c-.101562-.0625.035156-.34375.152344-.304687.027344.007813.046875-.007813.046875-.03125 0-.027344.03125-.035156.078125-.019531s.078125.007812.078125-.019532c0-.027343.027344-.039062.0625-.023437.03125.011719.058594.003906.058594-.019531 0-.027344.027343-.039063.058593-.023438s.058594.003906.058594-.019531.015625-.027344.039063-.015625c.019531.011719.078125-.019531.121093-.070312.128907-.148438.296876-.117188.515626.09375.09375.097656.171874.1875.175781.199218 0 .015625.042969.066406.101562.117188.054688.046875.070313.070312.039063.054687-.039063-.019531-.035156-.003906.015625.054688.039062.046875.089843.074219.105469.0625.019531-.011719.035156 0 .035156.023437 0 .023438.019531.03125.039062.019532.027344-.011719.042969-.003907.042969.015624 0 .023438.015625.042969.035156.03125.015625-.003906.070313.039063.117188.09375.050781.054688.082031.070313.0625.039063-.015625-.03125.003906-.023437.042969.019531.035156.042969.082031.074219.101562.070313.019531-.007813.035156.007812.035156.03125 0 .019531.019532.027343.039063.019531.023437-.015625.039062-.007812.039062.019531 0 .023438.019531.03125.042969.019531.023438-.011718.039062-.003906.039062.015626 0 .085937.1875.039062.308594-.078126.070313-.066406.125-.125.125-.136718 0-.011719 0-.023438.003906-.03125.015626-.070313.007813-.386719-.011718-.386719-.015625 0-.019532-.027344-.007813-.058594.015625-.03125.003907-.058593-.023437-.058593-.023438 0-.03125-.015626-.019532-.039063.011719-.023437.003907-.039063-.019531-.039063-.027343 0-.039062-.027343-.023437-.0625.011718-.03125.003906-.058593-.019532-.058593-.023437 0-.035156-.027344-.023437-.058594.015625-.03125.007813-.066406-.015625-.082031-.027344-.011719-.03125-.046875-.023438-.082032.015626-.027343.003907-.0625-.019531-.078124-.023437-.011719-.03125-.050782-.019531-.082032.015625-.035156.003906-.085937-.019531-.117187-.023438-.027344-.03125-.070313-.015625-.09375.015625-.023438.003906-.066407-.019532-.097657-.027343-.03125-.035156-.089843-.023437-.125.011719-.035156.011719-.082031-.003906-.105468-.019531-.027344-.035157-.101563-.039063-.167969-.019531-.226563-.046875-.558594-.074218-.78125-.015626-.148437-.007813-.25.019531-.28125.023437-.027344.035156-.085937.019531-.121094-.015625-.035156-.003906-.0625.023438-.0625.027343 0 .039062-.027343.027343-.058593-.015625-.03125-.007812-.066407.015625-.082032.019532-.015625.027344-.042968.011719-.0625-.011719-.019531-.003906-.0625.019531-.089844.023438-.027343.035156-.082031.019532-.121093-.011719-.035157-.003907-.0625.023437-.0625s.035156-.03125.019531-.078125-.011718-.101563.007813-.128906c.046875-.0625.046875-.78125 0-.855469-.019531-.023438-.019531-.046875-.003907-.046875.011719 0 .003907-.027344-.023437-.058594s-.035156-.058594-.015625-.058594c.015625 0-.003906-.027344-.046875-.0625-.039063-.03125-.046875-.046875-.015625-.03125s.007812-.03125-.054688-.097656-.132812-.113281-.152343-.101562c-.015625.011718-.03125 0-.03125-.023438s-.015625-.03125-.039063-.019531c-.019531.011719-.039062.003906-.039062-.019531 0-.023438-.015625-.03125-.039063-.019532-.019531.011719-.039062.003906-.039062-.023437 0-.023438-.015625-.035157-.039063-.019531-.019531.011718-.046875.007812-.0625-.015626-.011718-.023437-.046875-.03125-.074218-.019531-.03125.011719-.066407.003907-.082032-.019531-.011718-.023438-.0625-.042969-.101562-.042969-.039063 0-.085938.019531-.097656.042969m-.332032 4.539062c.050782.066407.046875.070313-.011718.015626-.039063-.027344-.074219-.058594-.074219-.066407 0-.03125.035156-.011719.085937.050781m-3.035156.449219c.039062.042969.0625.078125.050781.078125s-.050781-.035156-.089843-.078125c-.039063-.042969-.0625-.078125-.050782-.078125.011719 0 .050782.035156.089844.078125m6.011719-4.542969c-.011719.019532-.042969.023438-.074219.011719s-.054688-.003906-.054688.019531c0 .023438-.027343.035157-.058593.019532-.03125-.011719-.0625-.003906-.0625.019531s-.011719.027344-.039063.015625c-.019531-.011719-.039062-.003906-.039062.019531 0 .023438-.015625.035157-.035156.019531-.019532-.011718-.0625.003907-.09375.035157s-.066407.050781-.085938.039062c-.011719-.019531-.023438-.007812-.023438.023438 0 .027343-.015624.039062-.035156.027343-.019531-.011718-.046875.003907-.058594.039063-.015624.035156-.035156.058594-.042968.046875-.027344-.027344-.359375.296875-.34375.332031.007812.019531-.007813.03125-.03125.03125-.027344 0-.035156.015625-.023438.042969.015625.019531.003906.039062-.019531.039062s-.03125.015626-.019531.039063c.011718.019531.003906.039063-.019532.039063-.023437 0-.03125.015624-.019531.039062.011719.019531.003907.039062-.019531.039062-.027344 0-.039062.027344-.023438.058594.011719.03125.003907.0625-.015624.0625-.019532 0-.027344.027344-.015626.058594.015626.03125.003907.058594-.023437.058594s-.039063.027344-.027344.058594c.015625.03125.007813.070312-.015625.078124-.019531.019532-.027344.046876-.011718.066407.011718.019531.003906.0625-.019532.089843-.027344.027344-.035156.078126-.023437.117188.015625.03125.007812.070312-.019531.082031-.023438.015625-.03125.078125-.019532.136719.011719.0625.007813.125-.011718.136719-.039063.023437-.035157.828125.003906.894531.015625.023438.019531.054688.003906.082031-.011719.019531-.003906.039063.019531.039063.023438 0 .039063.015625.019531.035156-.007812.023438.003907.066406.039063.097656.03125.03125.046875.066406.035156.082032-.015625.011718-.003906.023437.019531.023437.027344 0 .042969.015625.035157.035156-.003907.019531.027343.070313.070312.105469s.050781.050781.019531.039062c-.03125-.015624-.003906.019532.058594.078126.070313.054687.09375.09375.0625.078124-.03125-.015624.007813.035157.09375.113282.101563.089844.195313.1875.289063.289062.074219.085938.125.125.113281.09375-.019531-.03125.003906-.019531.050781.027344.042969.046875.085938.074219.101563.0625.011718-.011719.03125.007812.046875.046875.011719.035156.039062.050781.058593.039063.023438-.011719.050782.007812.0625.039062.011719.035156.039063.050781.058594.039062.019532-.011718.035156 0 .035156.023438s.019532.03125.039063.019531c.023437-.011719.039063-.003906.039063.019531 0 .023438.015624.035157.035156.019532.019531-.011719.046875-.003906.066406.019531.015625.023437.039062.035156.058594.019531.019531-.011718.042968-.003906.050781.015625.027344.039063.507813.035157.574219-.011719.027344-.015624.082031-.015624.125-.003906.050781.019532.082031.007813.082031-.019531s.027344-.039063.058594-.027344c.03125.015625.066406.007813.078125-.015625.015625-.019531.039062-.027344.058594-.015625.019531.011719.046874.003907.0625-.019531.015624-.023438.042968-.03125.0625-.019531.019531.015625.035156.003906.035156-.019531 0-.023438.019531-.03125.039062-.019532.023438.011719.039063.003906.039063-.019531s.019531-.03125.039062-.019531c.023438.011718.042969.003906.042969-.015625 0-.023438.011719-.039063.03125-.03125.035156.011719.226562-.183594.214844-.21875-.007813-.019531.007812-.03125.035156-.03125.019531 0 .027344-.019531.015625-.039063-.015625-.027344.003906-.054687.035156-.066406.035157-.011719.050781-.039062.039063-.058594-.011719-.019531 0-.035156.023437-.035156.023438 0 .03125-.019531.019531-.039062-.011718-.023438.003907-.050782.035157-.0625.035156-.011719.050781-.042969.039062-.0625-.011719-.019532 0-.035157.023438-.035157.023437 0 .03125-.019531.019531-.039062-.011719-.023438-.003906-.039063.023438-.039063.023437 0 .03125-.019531.019531-.039062-.011719-.023438-.003907-.039063.019531-.039063s.03125-.019531.019531-.039062c-.011719-.023438-.003906-.042969.019531-.042969.023438 0 .03125-.019531.019532-.039062-.011719-.023438-.003906-.039063.019531-.039063s.03125-.019531.019531-.039063c-.011718-.023437-.003906-.039062.019532-.039062.023437 0 .03125-.019531.019531-.039062-.011719-.023438-.003907-.039063.019531-.039063s.035156-.015625.019531-.039063c-.011719-.019531-.003906-.046874.019531-.0625.023438-.015624.03125-.042968.023438-.0625-.019531-.019531-.007812-.035156.019531-.035156.023438 0 .03125-.019531.019531-.039062-.011718-.023438-.003906-.039063.019532-.039063.023437 0 .03125-.019531.019531-.042969-.011719-.023437-.003906-.039062.019531-.039062.023438 0 .03125-.019531.019532-.039062-.011719-.023438-.007813-.039063.011718-.039063.019532 0 .027344-.066406.019532-.148437-.007813-.089844-.015626-.179688-.023438-.265626-.003906-.070312-.023438-.140624-.039062-.167968-.015626-.027344-.019532-.089844-.003907-.144532.011719-.054687.003907-.109374-.023437-.125-.023438-.015624-.03125-.0625-.019532-.101562.015626-.042969.003907-.105469-.019531-.136719-.027343-.03125-.039062-.074219-.019531-.097656.011719-.023437 0-.066406-.023438-.101563-.023437-.03125-.035156-.074218-.023437-.09375.015625-.019531.007813-.046874-.015625-.0625-.023438-.015624-.03125-.042968-.019531-.0625.015625-.019531.003906-.039062-.019531-.039062-.023438 0-.035157-.011719-.019532-.03125.011719-.023438-.007812-.070312-.042968-.101562-.03125-.035157-.046876-.0625-.03125-.0625.015624 0-.023438-.046876-.085938-.109376-.066406-.058593-.132812-.101562-.148438-.097656-.015624.003906-.039062-.019531-.050781-.050781s-.039062-.046875-.058593-.035156c-.019532.011719-.039063 0-.039063-.023438 0-.023437-.015625-.03125-.039063-.019531-.019531.011719-.039062.003906-.039062-.019531 0-.023438-.015625-.035157-.039062-.019531-.019532.007812-.039063.003906-.039063-.019532 0-.027344-.015625-.035156-.039063-.023437-.019531.011719-.039062.003906-.039062-.019531 0-.023438-.019531-.03125-.042969-.019532-.019531.011719-.039062.007813-.039062-.015625 0-.023437-.027344-.03125-.058594-.019531-.03125.015625-.058594.003906-.058594-.023438 0-.023437-.015625-.03125-.039062-.019531-.019531.011719-.042969.003907-.042969-.019531s-.011719-.03125-.039062-.019531c-.019532.011719-.039063.003906-.039063-.019531 0-.023438-.015625-.03125-.039063-.019532-.019531.011719-.039062.003906-.039062-.019531 0-.027344-.027344-.042969-.058594-.023437-.03125.007812-.058594.003906-.058594-.019532 0-.027344-.015624-.03125-.039062-.019531s-.042969.003906-.042969-.019531c0-.027344-.027343-.039063-.058593-.023438-.03125.011719-.058594.003906-.058594-.019531s-.015625-.03125-.035156-.015625c-.019532.011719-.046876.003906-.0625-.019531-.019532-.023438-.042969-.03125-.0625-.019531-.019532.011718-.042969.003906-.058594-.015626-.011719-.023437-.046875-.03125-.078125-.015624-.03125.011718-.058594.003906-.058594-.019532 0-.042968-.320313-.042968-.347656.003906zm.625 1.730469c.058593.0625.097656.125.085937.136719-.011718.011719 0 .023438.027344.023438s.035156.015624.023438.039062c-.011719.019531-.007813.039062.007812.039062.023438 0 .039062.324219.015625.382813-.003906.007813-.003906.023437-.007813.039063 0 .019531-.03125.066406-.0625.101562-.035156.039062-.050781.070312-.039062.070312s-.015625.039063-.0625.089844c-.050781.050782-.101562.089844-.117188.082032-.019531-.011719-.03125.003906-.03125.027343 0 .023438-.015624.03125-.039062.019531-.019531-.011718-.039062-.003906-.039062.019532 0 .023437-.023438.039062-.046876.035156-.03125-.003906-.082031.003906-.117187.019531-.042969.019531-.101563-.007812-.175781-.085937-.097656-.097656-.117188-.148438-.121094-.316406 0-.117188.015625-.207032.035156-.207032.019532 0 .027344-.027344.011719-.058594-.011719-.035156-.003906-.0625.019531-.0625.023438 0 .03125-.019531.015625-.039062-.011719-.023438-.003906-.039062.019531-.039062.023438 0 .035157-.019532.019532-.039063-.007813-.023437 0-.039063.023437-.039063.023438 0 .035157-.015624.019531-.035156-.011718-.023437.015626-.0625.058594-.085937.042969-.023438.066406-.0625.054688-.085938-.015625-.027343-.011719-.03125.019531-.015625.023437.015625.054687 0 .066406-.03125.011719-.035156.042969-.050781.0625-.039062.019531.011718.035157 0 .035157-.019532 0-.085937.125-.042968.238281.074219zm-.59375 1.058594c.054687.0625.050781.066406-.011719.015625-.066406-.050781-.085938-.085938-.054688-.085938.007813 0 .039063.035157.066407.070313m-.976563-2.320313-.074218.09375.089843-.074218c.046875-.046875.085938-.085938.085938-.09375 0-.03125-.03125-.007813-.101563.074218m0 0"/></svg>