<svg height="18" viewBox="0 0 18 18" width="18" xmlns="http://www.w3.org/2000/svg"><path d="m10.510417 4.854167 2.609375-2.682292c.151041-.177083.40625-.223958.614583-.114583.203125.109375.307292.348958.244792.572916l-1.375 4.317709m3.052083 3.052083h4.34375c.385417 0 .739583.21875.90625.567708.166667.348959.114583.760417-.125 1.0625l-1.71875 1.770834m-2.791667 2.869791-5.390625 5.557292c-.151041.177083-.40625.223958-.614583.114583-.203125-.109375-.307292-.348958-.244792-.572916l1.916667-6.020834c.119792-.307291.072917-.651041-.114583-.921875-.1875-.265625-.494792-.427083-.822917-.427083h-7c-.385417 0-.739583-.21875-.90625-.567708-.166667-.348959-.114583-.760417.125-1.0625l4.510417-4.640625m-5.729167-5.729167 20 20" fill="none" stroke="#fff" stroke-linecap="round" stroke-linejoin="round" stroke-width="2" transform="scale(.75)"/></svg>