<svg height="18" viewBox="0 0 18 18" width="18" xmlns="http://www.w3.org/2000/svg"><path d="m.925781 4.664062c-.050781 0-.101562.003907-.140625.042969-.042968.035157-.050781.089844-.050781.144531.003906.527344.003906 1.054688.003906 1.582032 0 .035156 0 .066406.003907.09375 0 .027344.007812.058594.035156.085937.027344.027344.058594.03125.085937.035157.027344.003906.058594.003906.097657.003906h3.875c.011718 0 .035156.003906.050781.003906l-4.886719 6.664062.214844.011719c2.453125 0 4.90625 0 7.359375.003907.058593 0 .113281-.015626.148437-.058594.03125-.042969.03125-.089844.03125-.136719 0-.535156-.003906-1.0625.003906-1.597656 0-.058594-.007812-.117188-.050781-.160157-.046875-.039062-.101562-.042968-.164062-.042968-1.179688.003906-2.359375.019531-3.535157.019531h-.035156c1.601563-2.246094 3.183594-4.378906 4.777344-6.5625l.074219-.101563-.128907-.007812c-.042968-.003906-.0625-.015625-.109374-.015625-2.554688 0-5.109376-.003906-7.660157-.007813m6.617188 6.675782h.011719zm10.246093-6.5625c-2.3125 0-4.625 0-6.9375.003906-.265624.003906-.527343.035156-.785156.101562-.929687.238282-1.660156 1.230469-1.625 2.195313 0 .03125.007813.0625.023438.085937.019531.027344.046875.042969.078125.050782.046875.007812.078125-.007813.09375-.007813h3.550781c.59375 0 1.191406.027344 1.792969.023438.648437-.003907 1.304687.023437 1.957031-.015625.691406-.042969 1.253906-.367188 1.636719-.957032.253906-.398437.367187-.839843.421875-1.296874.007812-.039063.003906-.070313-.007813-.105469-.015625-.027344-.039062-.054688-.070312-.066407-.054688-.019531-.097657-.011718-.128907-.011718zm-16.863281.027344c2.546875 0 5.09375.003906 7.640625.003906-1.59375 2.1875-3.179687 4.324218-4.785156 6.582031l-.078125.109375h.304687c1.175782 0 2.355469-.015625 3.53125-.019531h.007813c.050781 0 .066406.007812.066406.003906-.003906 0 .003907.007813.003907.058594-.003907.53125-.003907 1.066406 0 1.597656 0 .039063-.007813.054687-.003907.050781 0 0 0 .003906-.039062.003906-2.4375-.003906-4.871094-.003906-7.308594-.003906l4.878906-6.65625-.125-.007812c-.074219-.007813-.125-.015625-.183593-.015625-1.292969 0-2.585938 0-3.875 0-.039063 0-.066407 0-.082032 0-.003906-.027344-.003906-.054688-.003906-.078125 0-.527344.003906-1.054688 0-1.582032 0-.042968.003906-.046874.003906-.042968-.003906.003906.007813-.003906.046875-.003906zm16.863281.113281h.070313c0 .003906.003906.007812 0 .027343-.054687.445313-.160156.859376-.402344 1.234376-.363281.558593-.875.855468-1.527343.894531-.644532.039062-1.296876.011719-1.949219.019531-.597657 0-1.195313-.023438-1.792969-.023438h-3.550781c-.035157 0-.046875.003907-.054688.003907-.035156-.890625.664063-1.835938 1.519531-2.054688.246094-.0625.496094-.097656.75-.097656 2.3125-.007813 4.625-.003906 6.9375-.003906zm-3.527343 2.882812c-1.171875 0-2.34375 0-3.515625 0-.386719 0-.761719.078125-1.105469.265625-.792969.4375-1.105469 1.175782-1.195313 2.015625-.003906.035157-.003906.066407.007813.09375.011719.03125.035156.058594.058594.070313.050781.027344.09375.019531.128906.019531h1.851563c.210937 0 .417968.003906.628906 0 .460937-.007813.925781.007813 1.386718-.035156.613282-.0625 1.121094-.363281 1.472657-.878907.277343-.402343.417969-.851562.464843-1.332031.003907-.035156.007813-.0625.007813-.085937 0-.027344 0-.054688-.023437-.085938-.023438-.03125-.054688-.039062-.082032-.042968-.003906 0-.011718 0-.015625 0v-.003907zm-.070313.140625h.070313.050781c0 .019532-.003906.042969-.003906.0625-.046875.460938-.179688.890625-.441406 1.269532-.332032.484374-.796876.761718-1.371094.816406-.449219.046875-.914063.027344-1.375.035156-.210938.003906-.417969 0-.628906 0-.617188 0-1.234376 0-1.851563.003906-.035156 0-.054687-.003906-.058594-.003906 0-.003906 0-.011719 0-.027344.089844-.816406.375-1.496094 1.125-1.910156.320313-.175781.671875-.246094 1.039063-.246094 1.148437-.003906 2.296875 0 3.445312 0zm-2.277344 2.871094c-.355468 0-.710937-.003906-1.070312 0-.167969.003906-.339844.019531-.503906.042969-.660156.105469-1.117188.433593-1.417969.855469-.296875.421874-.4375.929687-.476563 1.394531-.003906.050781 0 .101562.039063.140625.035156.039062.085937.042968.132813.042968.191406-.003906.382812 0 .574218 0v.011719h.070313c.285156-.015625.582031-.007812.875-.042969 1.113281-.144531 1.960937-1.144531 1.949219-2.28125 0-.050781-.011719-.101562-.050782-.132812-.039062-.03125-.082031-.035156-.121094-.03125zm0 .136719c.03125 0 .039063.007812.035157.003906-.003907-.007813 0-.007813 0 .023437.007812 1.066407-.789063 2.007813-1.832031 2.140626-.257813.035156-.523438.03125-.792969.039062v-.007812h-.066407c-.214843 0-.425781-.003907-.640624 0-.035157.003906-.039063-.003907-.035157 0 .003907.003906-.003906.003906 0-.03125.039063-.445313.175781-.929688.453125-1.324219.28125-.394531.699219-.699219 1.324219-.796875.160156-.027344.324219-.039063.488281-.042969.351563-.007813.710938 0 1.066406-.003906" fill="#68b604"/></svg>