<svg height="18" viewBox="0 0 18 18" width="18" xmlns="http://www.w3.org/2000/svg"><g fill="#f7a41d"><path d="m5.410156 3.351562-2.117187 2.589844-1.058594-1.648437zm0 0"/><path d="m5.410156 3.351562-1.527344 1.296876-.589843 1.292968h-.703125v6h1.058594l-1.296876.589844-.941406 2h-1.410156v-11.179688zm0 0"/><path d="m3.648438 11.941406-2.238282 2.589844-.941406-1.296875zm2.941406-8.589844.703125 1.648438-2.941407.941406zm0 0"/><path d="m6.589844 3.351562h6.46875v2.589844h-8.707032l2.238282-1.410156zm0 0"/><path d="m13.648438 11.941406-2.238282 2.589844-.820312-1.53125zm0 0"/><path d="m13.648438 11.941406-1.882813 1.058594-.355469 1.53125h-6.46875v-2.589844zm0 0"/><path d="m17.648438.765625-11.53125 13.765625-5.765626 2.703125 11.53125-13.882813zm-1.058594 2.585937-.121094 2.121094-2.117188.585938zm0 0"/><path d="m18 3.351562v11.179688h-5.53125l1.648438-1.414062.589843-1.175782h.703125v-5.882812h-1.058594l1.179688-1.058594 1.058594-1.648438zm0 0"/><path d="m14.707031 11.941406.585938 1.765625-2.824219.824219zm0 0"/></g></svg>