<svg height="18" viewBox="0 0 18 18" width="18" xmlns="http://www.w3.org/2000/svg"><g fill="none" stroke="#fff" stroke-linecap="round" stroke-linejoin="round" stroke-width="2" transform="scale(.75)"><path d="m22 17h-3m3-10h-5m-12 10h-3m5-10h-5"/><path d="m7 14h10c1.104167 0 2 .895833 2 2v2c0 1.104167-.895833 2-2 2h-10c-1.104167 0-2-.895833-2-2v-2c0-1.104167.895833-2 2-2zm0 0"/><path d="m9 4h6c1.104167 0 2 .895833 2 2v2c0 1.104167-.895833 2-2 2h-6c-1.104167 0-2-.895833-2-2v-2c0-1.104167.895833-2 2-2zm0 0"/></g></svg>