<svg height="18" viewBox="0 0 18 18" width="18" xmlns="http://www.w3.org/2000/svg"><g fill="none" stroke="#fff" stroke-linecap="round" stroke-linejoin="round" stroke-width="2" transform="scale(.75)"><path d="m10 2v5.630208c0 .427084-.270833.796875-.651042.984375-2.052083 1.010417-3.348958 3.098959-3.348958 5.385417.005208 4 3 7 5 8"/><path d="m10 5h-2c-1.104167 0-2 .895833-2 2s.895833 2 2 2h.682292m5.317708-7v5.630208c0 .427084.270833.796875.651042.984375 2.052083 1.010417 3.348958 3.098959 3.348958 5.385417 0 4-3 7-5 8"/><path d="m14 5h2c1.104167 0 2 .895833 2 2s-.895833 2-2 2h-.682292m2.682292 13h-12m3-20h6"/></g></svg>