<svg height="18" viewBox="0 0 18 18" width="18" xmlns="http://www.w3.org/2000/svg"><path d="m2.953125 6.046875c-.570313 0-1.03125.464844-1.03125 1.03125v4.324219c0 .570312.460937 1.03125 1.03125 1.03125.277344 0 .539063-.109375.730469-.300782.195312-.195312.304687-.457031.304687-.730468v-4.324219c-.003906-.570313-.464843-1.03125-1.035156-1.03125m8.324219-3.882813.722656-1.3125c.035156-.070312.011719-.15625-.058594-.195312-.070312-.039062-.15625-.011719-.195312.054688l-.726563 1.332031c-.613281-.273438-1.296875-.425781-2.023437-.425781-.722656 0-1.40625.152343-2.015625.421874l-.730469-1.324218c-.015625-.035156-.046875-.058594-.085938-.070313-.035156-.011719-.074218-.007812-.105468.011719-.035156.019531-.058594.050781-.070313.085938-.011719.035156-.007812.074218.011719.109374l.722656 1.3125c-1.417968.730469-2.375 2.121094-2.375 3.71875h9.300782c0-1.597656-.957032-2.984374-2.371094-3.71875m-4.394532 2.035157c-.214843 0-.390624-.175781-.390624-.390625s.175781-.390625.390624-.390625c.214844 0 .390626.175781.390626.390625s-.175782.390625-.390626.390625m4.234376 0c-.105469 0-.203126-.042969-.277344-.113281-.074219-.074219-.113282-.175782-.113282-.277344 0-.214844.175782-.390625.390626-.390625.214843 0 .386718.175781.386718.390625 0 .101562-.039062.203125-.113281.277344-.070313.070312-.171875.113281-.273437.113281m-6.730469 2.042969v6.699218c0 .292969.117187.570313.324219.777344.207031.207031.488281.324219.777343.324219h.75l.003907 2.285156c0 .570313.460937 1.035156 1.03125 1.035156.570312 0 1.03125-.464843 1.03125-1.035156v-2.285156h1.394531v2.285156c0 .570313.460937 1.035156 1.03125 1.03125.570312 0 1.03125-.460937 1.03125-1.03125v-2.285156h.753906c.605469 0 1.101563-.496094 1.101563-1.101563l-.003907-6.699218zm11.691406.835937c0-.570313-.460937-1.03125-1.03125-1.03125s-1.035156.460937-1.035156 1.03125l.003906 4.324219c0 .273437.105469.535156.300781.730468.195313.191407.457032.300782.730469.300782.570313 0 1.03125-.464844 1.03125-1.03125zm0 0" fill="#a4c439"/></svg>