<svg height="18" viewBox="0 0 18 18" width="18" xmlns="http://www.w3.org/2000/svg"><g fill="#fff"><path d="m2.953125 12.8125c-.777344.003906-1.410156-.632812-1.410156-1.410156v-4.324219c0-.777344.632812-1.410156 1.410156-1.410156.378906 0 .730469.148437 1 .414062.265625.265625.414063.621094.414063.996094v4.324219c0 .375-.148438.734375-.414063.996094-.261719.269531-.625.417968-1 .414062m0-6.765625c-.570313 0-1.03125.464844-1.03125 1.03125v4.324219c0 .570312.460937 1.03125 1.03125 1.03125s1.035156-.460938 1.035156-1.03125v-4.324219c-.003906-.570313-.464843-1.03125-1.035156-1.03125"/><path d="m14.027344 6.261719h-10.058594v-.378907c0-1.558593.847656-3.007812 2.238281-3.863281l-.539062-.988281c-.066407-.113281-.082031-.261719-.046875-.394531.039062-.132813.132812-.246094.257812-.3125.074219-.042969.160156-.066407.246094-.066407.191406 0 .367188.105469.460938.273438l.5625 1.03125c.59375-.214844 1.214843-.328125 1.84375-.324219.648437 0 1.269531.109375 1.855468.324219l.566406-1.03125c.089844-.167969.269532-.273438.457032-.273438.089844 0 .171875.023438.25.0625.125.066407.214844.179688.253906.316407.039062.132812.023438.277343-.042969.398437l-.542969.984375c1.390626.859375 2.238282 2.308594 2.238282 3.863281zm-2.75-4.09375.71875-1.316407c.03125-.046874.03125-.101562.003906-.148437s-.078125-.074219-.128906-.070313c-.054688 0-.101563.03125-.125.078126l-.726563 1.332031c-.613281-.273438-1.296875-.425781-2.023437-.425781-.722656 0-1.40625.152343-2.015625.421874l-.730469-1.324218c-.015625-.035156-.046875-.058594-.085938-.070313-.035156-.011719-.074218-.007812-.109374.011719-.066407.039062-.09375.125-.054688.195312l.71875 1.3125c-1.414062.730469-2.371094 2.121094-2.371094 3.71875h9.296875c.003907-1.597656-.953125-2.984374-2.367187-3.714843m-4.394532 2.03125c-.214843 0-.390624-.175781-.390624-.390625s.175781-.390625.390624-.390625c.214844 0 .390626.175781.390626.390625s-.175782.390625-.390626.390625m4.234376 0c-.105469 0-.203126-.042969-.277344-.113281-.074219-.074219-.113282-.175782-.113282-.277344 0-.214844.175782-.390625.390626-.390625.214843 0 .386718.175781.386718.390625s-.171875.390625-.386718.390625m-3.84375 13.542969c-.78125 0-1.414063-.632813-1.414063-1.414063v-1.90625h-.371094c-.390625 0-.769531-.15625-1.046875-.433594-.277344-.277343-.433594-.652343-.433594-1.046875v-7.078125h9.988282v7.078125c0 .816406-.664063 1.480469-1.480469 1.480469h-.375v1.90625c0 .777344-.632813 1.414063-1.410156 1.414063-.375 0-.734375-.148438-1-.414063s-.414063-.625-.414063-1v-1.90625h-.632812v1.90625c0 .777344-.632813 1.414063-1.410156 1.414063"/><path d="m4.386719 12.941406c0 .292969.117187.570313.324219.777344.207031.207031.484374.324219.777343.324219h.75l.003907 2.285156c-.003907.570313.460937 1.035156 1.03125 1.035156.570312 0 1.03125-.464843 1.03125-1.035156v-2.285156h1.390624v2.285156c.003907.570313.464844 1.035156 1.035157 1.03125.570312.003906 1.03125-.460937 1.03125-1.03125v-2.285156h.753906c.605469 0 1.101563-.496094 1.101563-1.101563l-.003907-6.699218h-9.226562zm10.660156-.128906c-.777344 0-1.414063-.632812-1.414063-1.410156v-4.324219c0-.777344.632813-1.410156 1.410157-1.410156.78125 0 1.414062.632812 1.414062 1.410156v4.324219c0 .777344-.632812 1.410156-1.410156 1.410156m-.003906-6.765625c-.566407 0-1.03125.460937-1.03125 1.03125v4.324219c0 .273437.109375.535156.304687.730468.191406.191407.457032.300782.730469.300782.570313 0 1.03125-.460938 1.03125-1.03125v-4.324219c0-.273437-.109375-.535156-.304687-.730469-.191407-.191406-.453126-.300781-.730469-.300781"/></g><path d="m2.953125 6.046875c-.570313 0-1.03125.464844-1.03125 1.03125v4.324219c0 .570312.460937 1.03125 1.03125 1.03125.277344 0 .539063-.105469.730469-.300782.195312-.195312.304687-.457031.304687-.730468v-4.324219c-.003906-.570313-.464843-1.03125-1.035156-1.03125m8.324219-3.878906.71875-1.316407c.039062-.070312.015625-.15625-.054688-.195312-.070312-.039062-.15625-.011719-.195312.054688l-.726563 1.332031c-.613281-.273438-1.296875-.425781-2.023437-.425781-.722656 0-1.40625.152343-2.015625.421874l-.730469-1.324218c-.015625-.035156-.046875-.058594-.085938-.070313-.035156-.011719-.074218-.007812-.105468.011719-.035156.019531-.058594.050781-.070313.085938-.011719.035156-.007812.074218.011719.109374l.71875 1.3125c-1.414062.730469-2.371094 2.121094-2.371094 3.71875h9.296875c.003907-1.597656-.953125-2.984374-2.367187-3.714843m-4.394532 2.03125c-.214843 0-.390624-.175781-.390624-.390625s.175781-.390625.390624-.390625c.214844 0 .390626.175781.390626.390625s-.175782.390625-.390626.390625m4.234376 0c-.105469 0-.203126-.042969-.277344-.113281-.074219-.074219-.113282-.175782-.113282-.277344 0-.214844.175782-.390625.390626-.390625.214843 0 .386718.175781.386718.390625 0 .101562-.039062.203125-.113281.277344-.074219.070312-.171875.113281-.273437.113281m-6.730469 2.042969v6.699218c0 .292969.117187.574219.324219.777344.207031.207031.484374.324219.777343.324219h.75l.003907 2.285156c-.003907.570313.460937 1.035156 1.03125 1.035156.570312 0 1.03125-.464843 1.03125-1.035156v-2.285156h1.390624l.003907 2.285156c0 .570313.460937 1.035156 1.03125 1.03125.570312.003906 1.03125-.460937 1.03125-1.03125v-2.285156h.753906c.605469 0 1.101563-.496094 1.101563-1.101563l-.003907-6.699218zm11.691406.835937c0-.570313-.464844-1.03125-1.035156-1.03125-.566407 0-1.03125.460937-1.03125 1.03125l.003906 4.324219c0 .273437.105469.535156.300781.730468.191406.191407.457032.300782.730469.300782.570313 0 1.03125-.460938 1.03125-1.03125zm0 0" fill="#a4c439"/></svg>