<svg height="18" viewBox="0 0 18 18" width="18" xmlns="http://www.w3.org/2000/svg"><path d="m8.972656.144531-8.332031 2.933594 1.316406 10.917969 7.023438 3.859375 7.0625-3.914063 1.316406-10.917968zm0 0" fill="#b3b3b3"/><path d="m16.527344 3.65625-7.574219-2.582031v15.859375l6.347656-3.511719zm0 0" fill="#a6120d"/><path d="m1.574219 3.703125 1.128906 9.761719 6.25 3.46875v-15.859375zm0 0" fill="#dd1b16"/><path d="m11.039062 9.515625-2.085937.976563h-2.195313l-1.035156 2.582031-1.921875.035156 5.152344-11.460937zm-.203124-.492187-1.867188-3.699219-1.535156 3.636719h1.519531zm0 0" fill="#f2f2f2"/><path d="m8.953125 1.648438.015625 3.675781 1.738281 3.640625h-1.75l-.003906 1.523437 2.421875.003907 1.128906 2.617187 1.839844.035156zm0 0" fill="#b3b3b3"/></svg>