<svg height="18" viewBox="0 0 18 18" width="18" xmlns="http://www.w3.org/2000/svg"><path d="m7 10h-1c-2.208333 0-4-1.791667-4-4 0-.552083.447917-1 1-1h4m0 0c0-.552083.447917-1 1-1h13c.552083 0 1 .447917 1 1 0 3.864583-3.135417 7-7 7h-7c-.552083 0-1-.447917-1-1zm2 7v5m6-5v5m-10 3c0-1.65625 1.34375-3 3-3h8c1.65625 0 3 1.34375 3 3 0 .552083-.447917 1-1 1h-12c-.552083 0-1-.447917-1-1" fill="none" stroke="#fff" stroke-linecap="round" stroke-linejoin="round" stroke-width="2" transform="scale(.75)"/></svg>