<svg height="18" viewBox="0 0 18 18" width="18" xmlns="http://www.w3.org/2000/svg"><path d="m5.835938 13.863281c-.414063 1.160157-1.015626 3.054688-1.28125 3.9375-.019532.070313-.039063.136719-.054688.191407.058594-.011719.128906-.058594.179688-.113282.039062-.039062.070312-.082031.082031-.113281.398437-1.304687 1.070312-3.398437 1.933593-5.714844.761719-2.046875 1.679688-4.265625 2.6875-6.273437l.011719-.019532.015625-.03125c.621094-1.230468 1.269532-2.378906 1.953125-3.347656l.007813-.015625c.351562-.5.703125-.953125 1.078125-1.347656-.355469.390625-.683594.859375-1.023438 1.382813l-.011719.015624c-.636718.984376-1.28125 2.152344-1.878906 3.375l-.011718.027344-.011719.023438c-1.070313 2.207031-2.011719 4.574218-2.664063 6.355468-.195312.527344-.382812 1.058594-.5625 1.589844l-.027344.085938c.082032.027344.175782.117187.265626.226562.089843.113282.167968.234375.234374.363282-.011718-.269532-.125-.519532-.3125-.707032-.011718-.011718-.023437-.019531-.035156-.03125.066406.003906.132813.003906.199219.003906.757813 0 1.476563-.175781 1.925781-.75.085938-.109374.160156-.230468.21875-.359374-.101562.125-.207031.203124-.3125.25-.070312.03125-.148437.050781-.226562.058593-.097656.015625-.199219.015625-.308594.015625h-.042969l.011719-.007812c.09375-.042969.195312-.089844.296875-.144532.171875-.089843.351563-.199218.535156-.359374.195313-.171876.34375-.359376.480469-.582032.066406-.109375.132812-.226562.195312-.355468-.09375.09375-.195312.179687-.300781.257812-.355469.269531-.757812.433594-1.285156.425781-.144531 0-.289063-.015625-.429687-.039062.136718-.023438.277343-.058594.410156-.101563.480468-.152344 1.207031-.507812 1.875-1.339844.585937-.722656.960937-1.660156 1.222656-2.449218.023438-.0625.042969-.125.0625-.183594-.054688.027344-.113281.054688-.171875.078125-.164063.058594-.363281.105469-.53125.128906.167969-.066406.328125-.152343.476563-.261719.296874-.214843.5-.480468.640624-.71875.046876-.078124.089844-.160156.132813-.242187-.078125.046875-.152344.09375-.234375.136719l-.007812.003906c-.171876.089844-.355469.15625-.628907.199219.191407-.074219.382813-.183594.550781-.316407.132813-.101562.25-.222656.351563-.355468.1875-.25.433594-.789063.546875-1.195313.019531-.070312.035156-.136719.046875-.195312-.039063.03125-.09375.066406-.164063.097656-.058593.027344-.125.054687-.191406.078125-.1875.066406-.394531.117188-.546875.136719l.035157-.015625c.117187-.050782.273437-.121094.445312-.246094.167969-.125.351562-.304688.535156-.578125.613282-.90625 1.070313-1.933594 1.203125-2.648437.125-.679688.03125-1.179688-.144531-1.527344-.144531-.277344-.496094-.621094-.832031-.621094-.265625 0-.523438.226562-.863281.574219-.265626.261719-.511719.542969-.738282.832031-.625.785156-1.375 1.820312-2.105468 2.996094-1.167969 1.867187-2.277344 4.105468-2.71875 6.320312-.078126.378906-.132813.757813-.167969 1.140625-.007813.070313-.011719.144531-.015625.214844-.039063-.058594-.082032-.113281-.132813-.164063-.085937-.09375-.195312-.191406-.332031-.292968-.097656-.074219-.203125-.140625-.308594-.203125.042969.054687.117188.160156.203125.300781.230469.367188.546875.96875.546875 1.429688-.085937.019531-.273437.011718-.488281-.03125-.125-.027344-.242187-.0625-.355469-.109376.09375.085938.191406.167969.296875.238282.054688.039062.113281.074218.175781.101562.078126.042969.160157.074219.242188.09375-.085938.011719-.171875.03125-.253906.058594-.105469.039062-.210938.089844-.316406.152344-.140626.082031-.28125.183594-.429688.296875.167969-.066407.328125-.125.484375-.167969.199219-.050781.390625-.082031.570313-.070312.046874.003906.09375.007812.140624.019531zm-.089844-.292969c.054687.003907.109375.011719.164062.023438.023438.003906.046875.015625.066406.03125.191407-.542969.386719-1.082031.585938-1.621094.773438-2.070312 1.699219-4.316406 2.722656-6.34375.621094-1.230468 1.277344-2.382812 1.960938-3.363281.359375-.507813.71875-.972656 1.101562-1.375.050782-.058594.140625-.058594.195313-.007813.058593.050782.0625.140626.007812.195313-.34375.382813-.667969.84375-1.007812 1.363281-.640625.992188-1.292969 2.171875-1.894531 3.40625-1.074219 2.203125-2.015626 4.578125-2.667969 6.367188-.164063.445312-.324219.890625-.476563 1.339844.691406.015624 1.328125-.113282 1.761719-.523438-.121094.019531-.242187.019531-.359375.019531h-.042969c-.066406 0-.125-.046875-.136719-.113281-.015624-.0625.015626-.128906.078126-.15625l.003906-.003906c.257812-.117188.53125-.246094.804687-.484375.09375-.082031.179688-.171875.257813-.269531-.09375.054687-.195313.097656-.296875.136718-.351563.125-.75.164063-1.230469.082032-.070312-.011719-.117188-.070313-.117188-.136719 0-.070313.046876-.128907.117188-.140625.339844-.054688 1.316406-.289063 2.199219-1.386719.542969-.675781.90625-1.542969 1.164062-2.300781-.148437.046875-.3125.082031-.457031.101562-.070312.007813-.136719-.035156-.152344-.105468-.019531-.066407.015625-.140626.082032-.164063.4375-.171875.730468-.457031.929687-.738281-.132813.050781-.28125.089844-.476563.121094-.070312.011718-.136718-.03125-.15625-.101563-.019531-.070313.019532-.144531.085938-.167969.324219-.121094.640625-.355468.839844-.621094.101562-.136718.226562-.371093.335937-.625.058594-.136718.109375-.273437.15625-.410156-.050781.019532-.097656.035156-.144531.054688-.179688.058594-.375.105468-.523438.125-.070312.007812-.136718-.035156-.152343-.101563-.019531-.070312.011719-.140625.078125-.167969l.035156-.015624c.21875-.097657.566406-.25.917969-.773438.605469-.894531 1.054687-1.90625 1.179687-2.59375.125-.65625.027344-1.125-.128906-1.4375-.0625-.121094-.175781-.261719-.308594-.371094-.132812-.113281-.273437-.175781-.398437-.175781-.089844 0-.191407.039063-.320313.128906-.132812.09375-.273437.230469-.445312.402344-.257813.261719-.5.535156-.726563.824219-.621093.777344-1.367187 1.8125-2.097656 2.980468-1.160156 1.863282-2.261719 4.082032-2.699219 6.273438-.089844.449219-.152344.894531-.183594 1.335938-.003906.058593-.042968.109374-.101562.125-.058594.015624-.121094-.007813-.15625-.058594-.035156-.054688-.078125-.109375-.128906-.160156l.03125.058593c.171875.332031.335937.742188.335937 1.097657 0 .070312-.046875.125-.113281.140624-.046875.007813-.097656.011719-.144531.011719l.023437.003907c.058594.015624.101563.066406.105469.125.003906.058593-.027344.117187-.082031.140624" fill-rule="evenodd"/></svg>