<svg height="18" viewBox="0 0 18 18" width="18" xmlns="http://www.w3.org/2000/svg"><path d="m8.105469 0c-.316407.0078125-.632813.160156-.898438.453125-.144531.160156-.265625.355469-.367187.542969-.265625.496094-.320313 1.0625-.417969 1.605468l-.542969 3.070313c-.019531.117187-.074218.167969-.179687.203125l-3.976563 1.261719c-.289062.09375-.582031.21875-.835937.378906-.78125.5-.8984378 1.316406-.3125 2.03125.261719.316406.59375.542969.964843.703125l2.476563 1.101562c.019531.011719.042969.019532.0625.023438l.523437.378906s-.519531 5.757813.457032 6.15625c-.007813 0-.058594-.011718-.058594-.011718s.101562.105468.367188.074218c.203124.039063.175781.03125.011718 0 .363282-.046875 1.03125-.351562 2.191406-1.515625.082032-.078125.167969-.15625.246094-.238281l2.503906-2.699219.585938.203125c.023438.03125.050781.050782.101562.0625l2.785157.847656c.382812.117188.757812.207032 1.164062.144532.726563-.105469 1.261719-.703125 1.253907-1.433594-.003907-.320312-.117188-.609375-.261719-.886719l-1.847657-3.503906c-.058593-.109375-.058593-.179687.027344-.28125l3.101563-3.644531c.199219-.238282.382812-.496094.488281-.792969.230469-.65625-.070312-1.179687-.75-1.304687-.3125-.058594-.625-.027344-.929688.050781l-4.441406 1.183593c-.132812.035157-.195312.007813-.269531-.109374l-1.8125-3.015626c-.136719-.226562-.300781-.449218-.488281-.636718-.277344-.277344-.601563-.4101565-.921875-.402344m.132812 2.777344c.074219.050781.109375.101562.144531.15625l1.949219 3.253906c.054688.085938.101563.117188.210938.089844l3.4375-.914063.828125-.214843c-.015625.070312-.042969.109374-.078125.148437l-2.835938 3.328125c-.078125.097656-.085937.167969-.027343.28125l1.792968 3.394531.082032.175781v.003907l-3.195313-.882813-.003906-.003906-.601563-.167969-3.585937 3.972657.65625-5.222657-.589844-.257812-3.328125-1.320313c.0625-.058594.121094-.082031.179688-.101562l4.046874-1.28125c.097657-.027344.152344-.0625.160157-.171875l.054687-.332031.546875-3.066407zm0 0" fill="#e15919"/></svg>