<svg height="18" viewBox="0 0 18 18" width="18" xmlns="http://www.w3.org/2000/svg"><path d="m12.199219 9.96875c-.699219 0-1.328125.3125-1.761719.800781l-1.101562-.78125c.121093-.332031.183593-.679687.183593-1.03125 0-.355469-.066406-.695312-.179687-1.011719l1.101562-.773437c.433594.488281 1.058594.796875 1.757813.796875 1.296875 0 2.351562-1.050781 2.351562-2.34375s-1.054687-2.34375-2.351562-2.34375c-1.292969 0-2.347657 1.050781-2.347657 2.34375 0 .230469.035157.453125.097657.664062l-1.101563.773438c-.472656-.582031-1.140625-.972656-1.878906-1.089844v-1.328125c1.0625-.222656 1.867188-1.164062 1.867188-2.292969 0-1.292968-1.054688-2.3437495-2.351563-2.3437495-1.292969 0-2.347656 1.0507815-2.347656 2.3437495 0 1.113282.78125 2.046876 1.824219 2.285157v1.339843c-1.425782.25-2.511719 1.492188-2.511719 2.980469 0 1.5 1.097656 2.742188 2.53125 2.984375v1.417969c-1.054688.230469-1.84375 1.167969-1.84375 2.289063 0 1.292968 1.054687 2.34375 2.347656 2.34375 1.296875 0 2.351563-1.050782 2.351563-2.34375 0-1.121094-.792969-2.058594-1.847657-2.289063v-1.417969c.726563-.121094 1.382813-.503906 1.847657-1.074218l1.113281.789062c-.066407.210938-.097657.433594-.097657.65625 0 1.292969 1.054688 2.34375 2.347657 2.34375 1.296875 0 2.351562-1.050781 2.351562-2.34375s-1.054687-2.34375-2.351562-2.34375zm0-5.480469c.628906 0 1.140625.507813 1.140625 1.136719 0 .625-.511719 1.136719-1.140625 1.136719-.628907 0-1.136719-.511719-1.136719-1.136719 0-.628906.507812-1.136719 1.136719-1.136719m-6.851563-2.136719c0-.625.507813-1.136718 1.136719-1.136718s1.140625.511718 1.140625 1.136718c0 .628907-.511719 1.136719-1.140625 1.136719s-1.136719-.507812-1.136719-1.136719zm2.277344 13.296876c0 .625-.511719 1.136718-1.140625 1.136718s-1.136719-.511718-1.136719-1.136718c0-.628907.507813-1.136719 1.136719-1.136719s1.140625.507812 1.140625 1.136719m-1.140625-5.105469c-.875 0-1.585937-.710938-1.585937-1.585938s.710937-1.585937 1.585937-1.585937 1.589844.710937 1.589844 1.585937-.714844 1.585938-1.589844 1.585938m5.714844 2.90625c-.628907 0-1.136719-.507813-1.136719-1.136719 0-.625.507812-1.136719 1.136719-1.136719.628906 0 1.140625.511719 1.140625 1.136719 0 .628906-.511719 1.136719-1.140625 1.136719m0 0" fill="#231f20"/></svg>