<svg height="18" viewBox="0 0 18 18" width="18" xmlns="http://www.w3.org/2000/svg"><path d="m4.859375.00390625c-.074219 0-.132813.01953125-.179687.05859375-.054688.042969-.070313.101562-.042969.175781.03125.09375.976562 1.339844 2.835937 3.742188.277344-2.398438.394532-3.648438.359375-3.757813-.050781-.144531-.171875-.21874975-.359375-.21874975zm8.542969 2.36718775c-.316406.007812-.632813.042968-.945313.101562l-.066406.015625v4.351563h5.453125l-.058594-.34375c-.484375-2.285156-1.796875-4.027344-4.085937-4.121094-.097657-.003906-.195313-.003906-.296875-.003906zm-1.796875.324218-.558594.1875c-1 .386719-2.113281 1.003907-3.351563 1.890626-.339843-.21875-.691406-.417969-1.050781-.605469l-.1875-.085938v2.757813h5.148438zm-7.988281.636719c-1.761719.035157-2.832032 1.246094-3.316407 2.960938l-.125.546875h5.496094v-3.105469l-.445313-.152344c-.589843-.183593-1.125-.261719-1.609374-.25m-3.5625005 4.292969-.0039063.035156c-.1445312 1.441406.0273438 3.066406.4765628 4.597656l.195312.605469h4.949219v-5.238281zm6.4023435 0v5.234375h5.148438v-5.234375zm5.933594 0v5.234375h4.90625l.175781-.546875c.402344-1.375.582032-2.84375.511719-4.222656l-.039063-.464844zm-9.746094.835938h.832031l1.136719 2.621093c.007813.015625.011719.03125.015625.046875.003906.011719.007813.023438.015625.035156.003907.015626.007813.027344.015625.039063.003906.007813.007813.019531.011719.03125.007813.011719.011719.019531.015625.03125s.011719.023437.019531.035156c.003907.011719.007813.019531.011719.027344.007812.011719.011719.019531.015625.027344.027344.054687.058594.101562.09375.140625.035156.039062.070313.070312.105469.09375.042968.027344.089844.042968.152344.054687.058593.011719.132812.015625.222656.015625v.449219h-2.023438v-.460937h.191406c.007813.003906.011719.007812.015626.007812h.042968c.039063 0 .074219-.003906.105469-.007812.027344-.007813.054687-.011719.074219-.019532.023437-.011718.042968-.023437.058594-.042968.011718-.019532.019531-.042969.019531-.066407 0-.019531-.003907-.039062-.003907-.058593-.007812-.023438-.011718-.046876-.019531-.066407-.007812-.023437-.015625-.046875-.023437-.070312-.007813-.023438-.015625-.046875-.023438-.074219l-.011718-.019531-.023438-.046875c-.003906-.007813-.007812-.015625-.011719-.027344-.003906-.015625-.011719-.035156-.019531-.050781s-.015625-.03125-.023438-.046875c-.007812-.015625-.011718-.03125-.019531-.046875-.003906-.011719-.011719-.027344-.015625-.039063v-.011718h-1.363281c-.003906.007812-.007813.019531-.011719.027343-.003906.007813-.003906.015625-.003906.023438-.003906.007812-.007812.015625-.011719.027343l-.011719.019532c-.007812.03125-.019531.058594-.03125.089844-.003906.007812-.007812.019531-.015624.03125-.003907.011718-.007813.023437-.011719.03125-.003907.003906-.007813.011718-.007813.015624-.003906.003907-.003906.007813-.003906.011719l-.007812.019531c-.003907.003907-.003907.007813-.003907.015626-.007812.019531-.019531.042968-.023437.066406-.003906.019531-.011719.042968-.019532.0625l-.011718.066406c-.003906.023438-.003906.042969-.003906.0625 0 .023438.003906.046875.011718.066406.011719.019532.027344.035156.046875.042969.019531.003906.050781.011719.089844.015625.042969.003906.09375.003906.15625.003906l.160156-.011718v.460937h-1.625v-.460937c.003907.003906.007813.007812.015625.007812h.039063c.054687 0 .109375-.003906.160156-.011719.050781-.007812.09375-.019531.128906-.03125.042969-.019531.078125-.050781.117188-.09375.035156-.042969.070312-.101562.101562-.171875.007813-.015625.015625-.035156.023438-.050781.007812-.015625.015625-.03125.023437-.046875 0-.007812.003906-.015625.007813-.019531.003906-.007813.007812-.019531.011719-.027344l.023437-.046875v-.007812s0-.003907.003906-.007813l.003907-.003906s.003906-.003907.003906-.007813 0-.003906 0-.007812c.003906-.003906.003906-.007813.007812-.011719.007813-.011719.015625-.023437.019532-.03125 0-.007813.007812-.019531.015624-.03125l.011719-.027344c.007813-.007812.011719-.019531.015625-.03125.011719-.019531.019532-.039062.027344-.058593.011719-.023438.019531-.046876.027344-.066407zm4.589844 0h2.40625c.207031.007812.390625.035156.546875.082031.15625.042969.289062.109375.394531.199219.101563.085937.1875.195312.238281.320312.054688.128906.082032.277344.082032.449219 0 .167969-.027344.316406-.085938.441406-.054687.128906-.140625.238281-.253906.320313-.109375.082031-.253906.144531-.425781.1875-.175781.042968-.375.0625-.605469.0625l-.816406-.011719v.890625c0 .050781.007812.09375.019531.128906.007813.035156.027344.0625.046875.082031.023438.015625.050781.03125.089844.039063.039062.007812.085937.015625.140625.015625l.34375-.011719v.453125h-2.121094v-.449219h.285156c.007813.003906.015625.007813.019531.007813h.019532c.042968 0 .082031-.007813.113281-.015625.03125-.007813.058594-.023438.078125-.039063.019531-.019531.035156-.046875.046875-.078125s.015625-.074218.015625-.121094v-2.242187c0-.039063-.003906-.074219-.015625-.109375-.007813-.027344-.023437-.054688-.046875-.074219-.027344-.023437-.058594-.035156-.089844-.046875-.046875-.011718-.09375-.015625-.140625-.015625l-.285156-.011719zm5.96875 0h2.105469v.453124h-.328125c-.046875.007813-.09375.015626-.136719.027344-.039062.011719-.070312.027344-.09375.046875-.019531.015625-.035156.042969-.046875.074219-.011719.039062-.019531.082031-.015625.121094v2.457031h.753906c.191406.007813.347656-.019531.460938-.074219.113281-.054687.195312-.136718.238281-.246094.039063-.109374.070313-.230468.09375-.363281.019531-.136719.035156-.28125.035156-.4375l.519531-.011719v1.601563h-3.585937v-.449219h.285156c.007813.003906.015625.007813.023438.007813h.015625c.042968 0 .082031-.003907.113281-.015625.03125-.007813.054687-.019532.078125-.039063.019531-.019531.039062-.046875.050781-.078125.007813-.03125.015625-.074218.015625-.121094v-2.242187c0-.039063-.007812-.074219-.015625-.109375-.011719-.027344-.027343-.054688-.050781-.074219-.027344-.023437-.058594-.035156-.089844-.046875-.046875-.011718-.09375-.015625-.140625-.015625l-.285156-.011719zm-4.488281.472656v1.109375h.457031c.003906.003906.015625.003906.023437.003906h.019532c.121094 0 .230468-.011719.320312-.03125.09375-.023437.167969-.054687.230469-.09375.0625-.042969.109375-.101563.140625-.171875.035156-.070312.050781-.15625.050781-.25 0-.101562-.015625-.1875-.050781-.257812-.027344-.070313-.078125-.128907-.140625-.171876-.0625-.042968-.144531-.074218-.253906-.09375-.105469-.023437-.238281-.035156-.390625-.035156zm-5.839844.355468-.464844 1.203126h.976563zm-1.84375 4.359376.210938.472656c.949218 1.960937 2.410156 3.496094 4.269531 3.820312l.160156.019532v-4.3125zm5.425781 0v4.347656l.191407-.011719c.390624-.035156.800781-.121094 1.222656-.269531 1.054687-.367188 1.058594-.359375 2.179687.003906.515625.167969 1.011719.253906 1.480469.269531h.074219v-4.339843zm5.933594 0v4.285156l.488281-.09375c1.675782-.453125 2.988282-1.851563 3.867188-3.636719l.25-.554687zm0 0"/></svg>