<svg height="18" viewBox="0 0 18 18" width="18" xmlns="http://www.w3.org/2000/svg"><path d="m5.648438 3.34375c-2.257813.199219-4.171876 1.726562-4.878907 3.890625-.203125.621094-.273437 1.070313-.273437 1.769531 0 .699219.070312 1.144532.273437 1.769532 1.082031 3.304687 4.828125 4.863281 7.941407 3.308593l.289062-.148437.292969.148437c2.5625 1.28125 5.679687.460938 7.269531-1.921875.417969-.621094.738281-1.425781.875-2.1875.050781-.292968.066406-.527344.066406-.96875 0-.699218-.070312-1.148437-.273437-1.769531-1.082031-3.304687-4.828125-4.863281-7.9375-3.308594l-.292969.144531-.289062-.144531c-.65625-.324219-1.367188-.523437-2.097657-.585937-.441406-.039063-.53125-.039063-.964843.003906m1.425781 1.207031c.328125.0625.957031.3125 1.339843.527344.523438.292969 1.117188.84375 1.480469 1.371094.195313.285156.457031.824219.609375 1.253906.210938.601563.210938 2 0 2.601563-.261718.730468-.589844 1.300781-1.035156 1.769531-.527344.5625-1.015625.890625-1.75 1.179687-.464844.179688-.746094.242188-1.292969.269532-.675781.03125-1.28125-.046876-1.757812-.238282-.121094-.050781-.242188-.09375-.28125-.101562-.070313-.015625-.667969-.347656-.871094-.484375-.21875-.148438-.75-.671875-.957031-.941407-.101563-.136718-.191406-.253906-.191406-.265624 0-.007813-.074219-.148438-.167969-.308594-.164063-.285156-.273438-.515625-.246094-.515625.007813 0-.03125-.105469-.082031-.234375-.164063-.390625-.214844-.734375-.214844-1.429688 0-.695312.050781-1.039062.214844-1.429687.050781-.128907.089844-.238281.082031-.238281-.027344 0 .082031-.226563.246094-.511719.09375-.160157.167969-.300781.167969-.308594 0-.011719.089843-.132813.191406-.269531.207031-.269532.738281-.792969.957031-.9375.199219-.136719.800781-.46875.871094-.488282.039062-.003906.179687-.054687.316406-.109374.300781-.117188.5-.164063.847656-.207032.359375-.039062 1.207031-.011718 1.523438.046875"/><path d="m6.324219 6.996094c-.007813.015625-.09375.355468-.1875.757812-.097657.402344-.25 1.039063-.335938 1.417969-.167969.6875-.265625 1.140625-.265625 1.203125 0 .015625.101563.027344.230469.027344h.230469l.101562-.460938c.058594-.25.191406-.820312.300782-1.269531.105468-.453125.234374-.996094.285156-1.21875.050781-.21875.101562-.417969.109375-.441406.011719-.03125-.046875-.039063-.21875-.039063-.128907 0-.242188.007813-.25.023438m-1.789063 1.441406-.308594.332031.089844.109375c.050782.058594.1875.207032.304688.332032l.214844.226562h.605468l-.285156-.3125c-.15625-.164062-.289062-.324219-.289062-.34375 0-.023438.121093-.175781.269531-.335938.144531-.160156.265625-.300781.265625-.316406s-.128906-.023437-.28125-.023437h-.277344zm2.332032-.3125c0 .007812.058593.070312.125.140625.261718.261719.445312.480469.433593.523437-.003906.023438-.132812.179688-.285156.34375l-.277344.304688h.3125l.308594-.003906.28125-.308594c.15625-.175781.285156-.328125.285156-.347656 0-.015625-.132812-.171875-.300781-.351563l-.300781-.320312h-.289063c-.164062 0-.292968.007812-.292968.019531"/></svg>