<svg height="18" viewBox="0 0 18 18" width="18" xmlns="http://www.w3.org/2000/svg"><path d="m9.398438.300781c.316406.027344.632812.070313.945312.136719 1.21875.277344 2.265625.878906 3.183594 1.71875.84375.769531 1.394531 1.722656 1.699218 2.820312.0625.234376.15625.40625.425782.453126.148437.027343.171875.179687.171875.3125.003906.472656.003906.941406.003906 1.410156 0 .292968 0 .589844-.003906.882812 0 .257813-.082031.347656-.335938.34375-.15625-.003906-.214843.085938-.25.210938-.105469.355468-.242187.703125-.402343 1.035156-.59375 1.226562-1.515626 2.136719-2.683594 2.816406-.054688.03125-.109375.0625-.167969.09375-.183594.101563-.1875.105469-.113281.300782.082031.21875.261718.386718.484375.457031.195312.070312.402343.097656.601562.152343.058594.011719.117188.035157.171875.066407-.050781.0625-.113281.050781-.167968.0625-.261719.050781-.519532.132812-.792969.121093-.105469.003907-.214844-.011718-.316407-.046874-.082031-.03125-.109374-.003907-.128906.082031-.039062.21875-.058594.441406-.058594.667969-.011718.449218-.050781.894531-.082031 1.339843-.03125.433594-.015625.472657.40625.613281.203125.066407.40625.136719.609375.207032.050782.019531.109375.027344.140625.085937-.027343.039063-.070312.023438-.105469.023438-.359374.003906-.71875.003906-1.074218 0-.382813 0-.585938-.203125-.613282-.582031-.042968-.554688-.089843-1.109376-.132812-1.660157-.007812-.03125-.011719-.0625-.019531-.089843-.058594.332031-.046875.640624-.0625.945312-.015625.382812-.003907.765625-.003907 1.152344 0 .195312.0625.28125.242188.347656.261719.101562.519531.214844.8125.191406.101562-.007812.199219.046875.292969.09375.019531.011719.050781.023438.046875.054688s-.035156.035156-.058594.03125c-.480469-.011719-.960938.046875-1.433594-.019532-.238281-.03125-.390625-.171874-.460937-.402343-.070313-.21875-.082031-.449219-.097657-.675781-.035156-.453126-.058593-.910157-.085937-1.367188.003906-.046875-.011719-.089844-.042969-.125-.023437.042969-.035156.09375-.023437.140625v2.085937c0 .28125.085937.417969.359375.515626.347656.125.707031.214843 1.066406.304687.082031.023437.164062.035156.175781.140625h-1.34375c-.039062-.007812-.078125-.015625-.113281-.019531-.511719-.074219-.730469-.273438-.832031-.761719-.015625-.078125-.03125-.160156-.046875-.238281-.054688-.265625-.109375-.535157-.167969-.800781-.046875.085937-.085937.179687-.105469.277343-.058594.292969-.109375.585938-.175781.875-.082031.355469-.320313.554688-.675781.621094-.082032.015625-.160156.03125-.238282.046875h-1.347656c.042969-.125.15625-.132812.257813-.160156.347656-.09375.699219-.164063 1.03125-.296875.160156-.058594.273437-.207031.289062-.378907.042969-.316406 0-.628906-.011719-.941406-.011718-.078125-.027343-.15625-.054687-.230468-.03125.042968-.050781.097656-.054687.148437-.015626.214844-.035157.429687-.050782.644531-.03125.316406-.199218.523438-.496094.589844-.085937.019531-.175781.03125-.269531.035156-.402343 0-.808593-.003906-1.214843-.003906-.035157 0-.078126.011719-.109376-.046875.132813-.078125.277344-.125.425782-.136719.230468-.027344.457031-.074218.683594-.140625.304687-.082031.378906-.183593.371093-.5-.019531-.675781-.066406-1.351562-.050781-2.03125.003906-.132812 0-.265625 0-.398437-.019531.089844-.03125.183594-.035156.28125-.023438.636718-.074219 1.269531-.136719 1.90625-.035156.371094-.214844.542968-.582031.585937-.328125.035157-.648438 0-.96875-.015625-.082032-.003906-.171875.007813-.246094-.046875.03125-.046875.074219-.050781.113281-.0625.265625-.085937.527344-.164062.789063-.25.179687-.058593.257812-.171875.261718-.359375 0-.054687 0-.113281-.003906-.167968-.042968-.519532-.0625-1.042969-.078125-1.5625 0-.117188-.011719-.230469-.023437-.347657-.019532-.136719-.097656-.210937-.214844-.1875-.367188.066407-.71875-.003906-1.070312-.101562-.042969-.011719-.097657-.003907-.128907-.0625.0625-.03125.132813-.054688.207031-.066407.183594-.039062.367188-.089843.546876-.152343.226562-.082031.410156-.25.503906-.472657.066406-.148437.042968-.230468-.082032-.289062-1.027343-.496094-1.824218-1.257812-2.464843-2.195312-.367188-.542969-.644531-1.144532-.816407-1.777344-.046874-.179688-.113281-.21875-.277343-.191406-.222657.042968-.292969.007812-.390625-.195313v-2.539063c.105468-.21875.148437-.246093.390625-.238281.167969.007813.179687-.003906.222656-.175781.289063-1.097656.789063-2.082031 1.578125-2.898438.953125-.988281 2.136719-1.5625 3.457031-1.875.332031-.078124.667969-.109374 1.007813-.144531zm5.796874 6.503907c.003907-.226563-.007812-.453126-.035156-.679688-.019531-.160156-.042968-.316406-.070312-.472656-.4375-2.15625-1.707032-3.652344-3.675782-4.558594-1.128906-.519531-2.332031-.605469-3.542968-.371094-2.363282.460938-3.925782 1.878906-4.753906 4.109375-.320313.851563-.363282 1.75-.269532 2.652344.0625.679687.246094 1.34375.539063 1.960937.425781.882813 1.050781 1.605469 1.800781 2.222657.25.207031.523438.382812.816406.523437.171875.078125.179688.074219.179688-.105468.003906-.117188 0-.234376-.007813-.351563-.09375-.742187-.105469-1.484375-.125-2.230469.007813-.101562-.042969-.203125-.132812-.257812-.277344-.191406-.519531-.429688-.667969-.738282-.34375-.707031-.273438-1.71875.589844-2.339843.097656-.070313.160156-.136719.144531-.269531-.007813-.109376 0-.214844.023437-.320313.128907-.863281.542969-1.554687 1.25-2.066406.496094-.359375 1.050782-.5625 1.664063-.570313.351563-.003906.691406.082032 1.027344.179688 1.167969.339844 2.070312 1.503906 2.066406 2.6875-.007813.160156.066406.316406.195313.410156.335937.269531.597656.605469.6875 1.039062.160156.78125-.0625 1.441407-.710938 1.914063-.195312.140625-.253906.292969-.242188.507813 0 .035156 0 .066406-.003906.101562-.015625.347656-.027344.699219-.042968 1.046875-.019532.425781-.101563.847656-.085938 1.277344.003906.160156.003906.164062.144531.089843.671875-.335937 1.261719-.804687 1.742188-1.382812.957031-1.148438 1.507812-2.453125 1.496093-4.007812zm-8.316406 2.292968c.507813.007813.976563-.257812 1.234375-.691406.253907-.4375.257813-.976562.003907-1.414062-.253907-.441407-.71875-.710938-1.226563-.707032-.796875-.003906-1.421875.597656-1.421875 1.367188-.003906.835937.589844 1.445312 1.410156 1.445312m4.210938 0c.800781.003906 1.410156-.597656 1.410156-1.390625 0-.796875-.617188-1.417969-1.398438-1.417969-.773437.003907-1.410156.628907-1.410156 1.394532-.003906.800781.601563 1.414062 1.398438 1.414062m-1.070313 1.410156c-.148437.09375-.292969.203126-.457031.277344-.390625.1875-.773438.1875-1.148438-.035156-.113281-.066406-.222656-.144531-.335937-.214844-.035156-.019531-.066406-.074218-.109375-.042968-.03125.019531-.007812.070312 0 .109374.027344.128907.046875.261719.058594.394532.019531.410156.214844.71875.539062.953125.164063.125.375.171875.574219.132812.414063-.085937.746094-.445312.820313-.886719.03125-.191406.003906-.394531.078124-.582031.015626-.035156.007813-.078125-.019531-.105469zm0 0"/><path d="m3.636719 6.929688c-.007813-.800782.105469-1.492188.394531-2.152344.457031-1.050782 1.191406-1.855469 2.164062-2.453125.109376-.0625.246094-.042969.335938.046875.042969.046875.023438.085937.007812.132812-.074218.15625-.195312.289063-.351562.367188-.785156.464844-1.328125 1.144531-1.710938 1.957031-.324218.675781-.480468 1.421875-.449218 2.171875.039062.949219.316406 1.828125.878906 2.605469.066406.078125.109375.167969.128906.265625.007813.058594.042969.125-.023437.167968-.0625.042969-.140625.054688-.210938.03125-.066406-.027343-.128906-.074218-.167969-.136718-.523437-.710938-.867187-1.496094-.96875-2.378906-.027343-.238282-.003906-.476563-.027343-.625m3.113281-4.929688c0-.070312.027344-.144531.078125-.195312.050781-.054688.125-.082032.195313-.082032.15625 0 .300781.164063.304687.34375 0 .101563-.226563.285156-.347656.28125-.136719-.003906-.230469-.144531-.230469-.347656zm-.339844 5.441406c-.007812-.246094.183594-.449218.429688-.460937.273437 0 .488281.199219.488281.460937.003906.257813-.195313.453125-.464844.449219-.277343 0-.449219-.171875-.453125-.449219zm4.726563.449219c-.277344 0-.457031-.183594-.453125-.46875.007812-.238281.195312-.429687.433594-.445313.261718-.003906.480468.207032.488281.46875 0 .257813-.203125.449219-.46875.449219zm0 0"/></svg>