<svg height="18" viewBox="0 0 18 18" width="18" xmlns="http://www.w3.org/2000/svg"><g fill="none" stroke="#fff" stroke-linecap="round" stroke-linejoin="round" stroke-width="2" transform="scale(.75)"><path d="m13 12c0 .552083-.447917 1-1 1s-1-.447917-1-1 .447917-1 1-1 1 .447917 1 1zm0 0"/><path d="m20.197917 20.197917c2.041666-2.026042.020833-7.359375-4.5-11.895834-4.536459-4.520833-9.869792-6.541666-11.895834-4.5-2.041666 2.026042-.020833 7.359375 4.5 11.895834 4.536459 4.520833 9.869792 6.541666 11.895834 4.5"/><path d="m15.697917 15.697917c4.520833-4.536459 6.541666-9.869792 4.5-11.895834-2.026042-2.041666-7.359375-.020833-11.895834 4.5-4.520833 4.536459-6.541666 9.869792-4.5 11.895834 2.026042 2.041666 7.359375.020833 11.895834-4.5"/></g></svg>