<svg height="18" viewBox="0 0 18 18" width="18" xmlns="http://www.w3.org/2000/svg" xmlns:xlink="http://www.w3.org/1999/xlink"><linearGradient id="a" gradientUnits="userSpaceOnUse" x1="7.955718" x2="2.49507" y1="1.869274" y2="18.001141"><stop offset="0" stop-color="#114a8b"/><stop offset="1" stop-color="#0669bc"/></linearGradient><linearGradient id="b" gradientUnits="userSpaceOnUse" x1="9.661428" x2="8.398366" y1="9.387166" y2="9.814174"><stop offset="0" stop-opacity=".3"/><stop offset=".071" stop-opacity=".2"/><stop offset=".321" stop-opacity=".1"/><stop offset=".623" stop-opacity=".05"/><stop offset="1" stop-opacity="0"/></linearGradient><linearGradient id="c" gradientUnits="userSpaceOnUse" x1="8.966763" x2="14.960915" y1="1.398712" y2="17.368122"><stop offset="0" stop-color="#3ccbf4"/><stop offset="1" stop-color="#2892df"/></linearGradient><path d="m6.039062.628906h5.257813l-5.457031 16.171875c-.117188.339844-.433594.570313-.796875.570313h-4.089844c-.269531 0-.523437-.128906-.679687-.347656s-.1992192-.5-.113282-.757813l5.085938-15.066406c.113281-.339844.433594-.570313.792968-.570313zm0 0" fill="url(#a)"/><path d="m13.679688 11.476562h-8.335938c-.160156 0-.304688.097657-.363281.242188-.054688.148438-.019531.316406.097656.425781l5.359375 5c.15625.144531.359375.226563.574219.226563h4.71875zm0 0" fill="#0078d4"/><path d="m6.039062.628906c-.363281 0-.6875.234375-.796874.582032l-5.078126 15.042968c-.0898432.253906-.050781.539063.105469.761719s.414063.355469.683594.355469h4.199219c.320312-.054688.582031-.28125.6875-.585938l1.015625-2.984375 3.613281 3.375c.152344.125.34375.195313.539062.195313h4.703126l-2.0625-5.894532h-6.011719l3.679687-10.847656zm0 0" fill="url(#b)"/><path d="m12.753906 1.199219c-.113281-.339844-.433594-.570313-.792968-.570313h-5.859376c.359376 0 .679688.230469.792969.570313l5.085938 15.066406c.085937.257813.042969.539063-.113281.757813s-.410157.347656-.679688.347656h5.859375c.269531 0 .523437-.128906.679687-.347656s.199219-.5.113282-.757813zm0 0" fill="url(#c)"/></svg>