<svg height="18" viewBox="0 0 18 18" width="18" xmlns="http://www.w3.org/2000/svg" xmlns:xlink="http://www.w3.org/1999/xlink"><linearGradient id="a" gradientUnits="userSpaceOnUse" x1="2.59" x2="15.41" y1="10.16" y2="10.16"><stop offset="0" stop-color="#005ba1"/><stop offset=".07" stop-color="#0060a9"/><stop offset=".36" stop-color="#0071c8"/><stop offset=".52" stop-color="#0078d4"/><stop offset=".64" stop-color="#0074cd"/><stop offset=".82" stop-color="#006abb"/><stop offset="1" stop-color="#005ba1"/></linearGradient><radialGradient id="b" cx="9.36" cy="10.57" gradientTransform="matrix(750.072481 0 0 194.553452 310.221785 303.721622)" gradientUnits="userSpaceOnUse" r="7.07"><stop offset="0" stop-color="#f2f2f2"/><stop offset=".58" stop-color="#eee"/><stop offset="1" stop-color="#e6e6e6"/></radialGradient><path d="m9 5.140625c-3.539062 0-6.410156-1-6.410156-2.320313v12.359376c0 1.269531 2.820312 2.300781 6.320312 2.320312h.089844c3.539062 0 6.410156-1 6.410156-2.320312v-12.359376c0 1.289063-2.871094 2.320313-6.410156 2.320313zm0 0" fill="url(#a)"/><path d="m15.410156 2.820312c0 1.289063-2.871094 2.320313-6.410156 2.320313s-6.410156-1-6.410156-2.320313c0-1.320312 2.871094-2.320312 6.410156-2.320312s6.410156 1 6.410156 2.320312" fill="#e8e8e8"/><path d="m13.921875 2.628906c0 .820313-2.210937 1.480469-4.921875 1.480469s-4.921875-.660156-4.921875-1.480469c0-.820312 2.210937-1.46875 4.921875-1.46875s4.921875.660156 4.921875 1.46875" fill="#50e6ff"/><path d="m9 3c-1.320312-.035156-2.636719.160156-3.890625.570312 1.257813.402344 2.574219.585938 3.890625.539063 1.320312.039063 2.636719-.15625 3.890625-.578125-1.257813-.394531-2.574219-.570312-3.890625-.53125m0 0" fill="#198ab3"/><path d="m12.898438 11.398438v-3.398438h-.898438v4.128906h2.460938v-.730468zm-7.136719-1.667969c-.1875-.074219-.359375-.179688-.511719-.308594-.082031-.089844-.125-.203125-.121094-.320313-.003906-.121093.050782-.234374.152344-.300781.121094-.085937.269531-.128906.417969-.121093.355469-.015626.707031.085937 1 .289062v-.859375c-.320313-.117187-.660157-.171875-1-.160156-.390625-.019531-.777344.101562-1.089844.339843-.273437.210938-.429687.542969-.417969.890626 0 .511718.320313.910156 1 1.210937.21875.09375.425782.214844.617188.359375.097656.078125.152344.195312.152344.320312s-.0625.238282-.160157.308594c-.136719.082032-.292969.117188-.449219.109375-.402343 0-.792968-.152343-1.089843-.417969v.929688c.328125.171875.695312.253906 1.070312.238281.417969.027344.832031-.089843 1.179688-.328125.246093-.234375.367187-.570312.328125-.910156.003906-.257812-.082032-.503906-.25-.699219-.234375-.246093-.515625-.441406-.828125-.570312m5.238281 1.589843c.226562-.378906.339844-.816406.332031-1.261718-.023437-.375-.136719-.738282-.332031-1.058594-.15625-.3125-.398438-.574219-.699219-.75-.304687-.171875-.648437-.261719-1-.261719-.378906-.007812-.75.085938-1.082031.273438-.308594.171875-.5625.425781-.730469.738281-.175781.355469-.265625.746094-.257812 1.140625 0 .347656.082031.6875.238281 1 .152344.308594.394531.566406.691406.738281.300782.183594.644532.289063 1 .300782l.859375 1h1.210938l-1.230469-1.097657c.414062-.125.769531-.394531 1-.761719m-1-.25c-.183594.230469-.464844.359376-.761719.347657-.292969.011719-.578125-.121094-.757812-.359375-.210938-.289063-.3125-.640625-.289063-1-.023437-.355469.078125-.710938.289063-1 .191406-.234375.476562-.371094.78125-.367188.296875-.015625.578125.125.75.367188.195312.296875.289062.648437.269531 1 .035156.359375-.066406.722656-.28125 1.011718m0 0" fill="url(#b)"/></svg>