<svg height="18" viewBox="0 0 18 18" width="18" xmlns="http://www.w3.org/2000/svg"><path d="m6.183594.65625c.359375 0 .675781.226562.789062.5625l5.050782 14.964844c.085937.253906.042968.53125-.113282.75-.15625.214844-.40625.34375-.675781.34375h5.820313c.265624 0 .519531-.128906.675781-.34375.15625-.21875.195312-.5.109375-.753906l-5.046875-14.960938c-.117188-.335938-.433594-.566406-.789063-.566406zm-.1875.066406c-.355469 0-.671875.226563-.789063.566406l-5.046875 14.960938c-.0859372.253906-.042968.53125.113282.75.152343.21875.40625.347656.671874.347656h4.0625c.175782 0 .347657-.058594.488282-.15625.140625-.101562.246094-.246094.300781-.410156l.988281-2.914062-1.886718-1.808594c-.035157-.039063-.1875-.320313-.050782-.5625.15625-.234375.414063-.234375.414063-.234375h2.433593l1.273438-3.675781-2.179688-6.414063c-.007812-.03125-.128906-.195313-.320312-.324219-.195312-.125-.472656-.125-.472656-.125zm-.683594 10.648438c-.160156 0-.300781.097656-.359375.242187-.058594.148438-.019531.316407.097656.421875l5.320313 4.964844c.152344.144531.351562.230469.5625.230469 0 0 .179687.011719.289062-.003907.253906-.039062.496094-.25.574219-.335937.203125-.273437.113281-.695313.113281-.695313l-1.613281-4.820312zm0 0" fill="#474747"/></svg>