<svg height="18" viewBox="0 0 18 18" width="18" xmlns="http://www.w3.org/2000/svg"><g fill="none" stroke="#fff" stroke-linecap="round" stroke-linejoin="round" stroke-width="2" transform="scale(.75)"><path d="m22 18h-16c-1.104167 0-2-.895833-2-2v-9c0-1.104167-.895833-2-2-2"/><path d="m17 14v-10c0-1.104167-.895833-2-2-2h-1c-1.104167 0-2 .895833-2 2v10"/><path d="m9 6h11c.552083 0 1 .447917 1 1v6c0 .552083-.447917 1-1 1h-11c-.552083 0-1-.447917-1-1v-6c0-.552083.447917-1 1-1zm0 0"/><path d="m20 20c0 1.104167-.895833 2-2 2s-2-.895833-2-2 .895833-2 2-2 2 .895833 2 2zm0 0"/><path d="m11 20c0 1.104167-.895833 2-2 2s-2-.895833-2-2 .895833-2 2-2 2 .895833 2 2zm0 0"/></g></svg>