<svg height="18" viewBox="0 0 18 18" width="18" xmlns="http://www.w3.org/2000/svg"><path d="m1.6875 0v11.25h6.1875c2.402344 0 4.445312-1.507812 5.253906-3.625.242188-.640625.371094-1.316406.371094-2 0-3.105469-2.519531-5.625-5.625-5.625zm8.4375 6.75c.417969 0 .835938.046875 1.242188.140625-.40625-.09375-.824219-.140625-1.242188-.140625m4.332031 2.039062c-1.183593 2.449219-3.683593 4.148438-6.582031 4.148438h-6.1875v5.0625h8.4375c3.105469 0 5.625-2.519531 5.625-5.625 0-1.308594-.457031-2.578125-1.292969-3.585938m0 0" fill="#07c"/></svg>