<svg height="18" viewBox="0 0 18 18" width="18" xmlns="http://www.w3.org/2000/svg" xmlns:xlink="http://www.w3.org/1999/xlink"><linearGradient id="a" gradientUnits="userSpaceOnUse" x1="9" x2="9" y1=".30375" y2="17.696249"><stop offset="0" stop-color="#005cff"/><stop offset="1" stop-color="#0047ad"/></linearGradient><path d="m2.355469.304688h13.289062c1.132813 0 2.050781.917968 2.050781 2.050781v13.289062c0 1.132813-.917968 2.050781-2.050781 2.050781h-13.289062c-1.132813 0-2.050781-.917968-2.050781-2.050781v-13.289062c0-1.132813.917968-2.050781 2.050781-2.050781zm0 0" fill="url(#a)"/><path d="m7.402344 8.476562s1.476562-.109374 1.476562-1.839843-1.210937-2.578125-2.738281-2.578125h-5.035156v9.675781h5.035156s3.070313.097656 3.070313-2.855469c0 0 .136718-2.402344-1.808594-2.402344m-4.078125-2.695312h2.8125s.683593 0 .683593 1.003906c0 1.007813-.402343 1.15625-.859374 1.15625h-2.636719zm2.683593 6.234375h-2.683593v-2.585937h2.8125s1.019531-.011719 1.019531 1.328124c.003906 1.121094-.742188 1.246094-1.144531 1.257813zm7.304688-5.492187c-3.722656 0-3.71875 3.714843-3.71875 3.714843s-.253906 3.699219 3.71875 3.699219c0 0 3.308594.1875 3.308594-2.570312h-1.699219s.054687 1.039062-1.546875 1.039062c0 0-1.703125.113281-1.703125-1.6875h5.011719s.542968-4.195312-3.371094-4.195312m1.511719 2.90625h-3.175781s.207031-1.488282 1.699218-1.488282c1.496094 0 1.476563 1.488282 1.476563 1.488282m-3.59375-4.800782h3.992187v1.191406h-3.992187zm0 0" fill="#fff"/></svg>