<svg height="18" viewBox="0 0 18 18" width="18" xmlns="http://www.w3.org/2000/svg"><g fill="none" stroke="#fff" stroke-linecap="round" stroke-linejoin="round" stroke-width="2" transform="scale(.75)"><path d="m10.265625 21c.359375.619792 1.020833 1 1.734375 1s1.375-.380208 1.734375-1m.182292-18.6875c-1.833334-.614583-3.848959-.3125-5.416667.8125-1.567708 1.130208-2.5 2.942708-2.5 4.875 0 4.5-1.411458 5.958333-2.739583 7.328125-.265625.291667-.333334.713542-.177084 1.078125.161459.359375.520834.59375.916667.59375h16c.395833 0 .755208-.234375.916667-.59375.15625-.364583.088541-.786458-.177084-1.078125-.203125-.213542-.401041-.4375-.583333-.666667"/><path d="m21 8c0 1.65625-1.34375 3-3 3s-3-1.34375-3-3 1.34375-3 3-3 3 1.34375 3 3zm0 0"/></g></svg>