<svg height="18" viewBox="0 0 18 18" width="18" xmlns="http://www.w3.org/2000/svg"><path d="m10.265625 21c.359375.619792 1.020833 1 1.734375 1s1.375-.380208 1.734375-1m3.265625-4h-13c-.395833 0-.755208-.234375-.916667-.59375-.15625-.364583-.088541-.786458.177084-1.078125 1.328125-1.369792 2.739583-2.828125 2.739583-7.328125 0-.588542.088542-1.177083.260417-1.739583m-4.260417-4.260417 20 20m-13.333333-18.989583c1.84375-1.229167 4.208333-1.34375 6.161458-.302084 1.953125 1.041667 3.171875 3.078125 3.171875 5.291667 0 2.6875.770833 4.651042 1.708333 6.052083" fill="none" stroke="#fff" stroke-linecap="round" stroke-linejoin="round" stroke-width="2" transform="scale(.75)"/></svg>