<svg height="18" viewBox="0 0 18 18" width="18" xmlns="http://www.w3.org/2000/svg"><g fill="none" stroke="#fff" stroke-linecap="round" stroke-linejoin="round" stroke-width="2" transform="scale(.75)"><path d="m12.411458 13.015625c.9375-2.177083 3.276042-3.395833 5.598959-2.916667 2.322916.484375 3.989583 2.53125 3.989583 4.901042 0 3.864583-4 7-9 7-4.078125 0-8.151042-.817708-10.369792-2.463542-.427083-.3125-.630208-.828125-.619791-1.359375.109375-5.453125.614583-16.177083 7.989583-16.177083 1.65625 0 3 1.34375 3 3 0 1.104167-.895833 2-2 2s-1.640625-.442708-2-1"/><path d="m15 14c-1.223958-.916667-2.796875-1.223958-4.276042-.833333-1.479166.385416-2.697916 1.432291-3.307291 2.833333"/><path d="m9.963542 6.822917c-1.942709 1.15625-.463542 6.177083-1.963542 8.177083"/></g></svg>