<svg height="18" viewBox="0 0 18 18" width="18" xmlns="http://www.w3.org/2000/svg"><path d="m16.863281.855469c-.082031 0-.164062.039062-.210937.113281l-.003906.007812-.003907.011719c-.765625 1.742188-2.300781 3.023438-4.140625 3.480469.472656-.773438.769532-1.644531.855469-2.550781v-.003907c.003906-.09375-.046875-.179687-.132813-.21875-.085937-.039062-.1875-.015624-.253906.050782-1.078125 1.183594-2.605468 1.859375-4.207031 1.859375h-2.078125c-1.421875.003906-2.800781.460937-3.945312 1.304687-1.722657 1.285156-2.73828175 3.308594-2.73828175 5.460938-.04687505 1.796875.64062475 3.539062 1.91015575 4.816406 1.265626 1.277344 3 1.980469 4.800782 1.949219 2.738281.121093 5.390625-.964844 7.257812-2.972657l.007813-.007812.003906-.011719c.039063-.058593.039063-.136719-.003906-.195312-.023438-.027344-.054688-.054688-.097657-.0625-.042968-.007813-.089843 0-.125.023437h.003907c-1.847657 1.191406-3.992188 1.832032-6.1875 1.84375-.449219.011719-.847657-.023437-.847657-.023437h-.011718c-2.902344-.074219-5.222656-2.429688-5.257813-5.332031-.011719-2.730469 2.035157-5.023438 4.75-5.320313 2.710938-.296875 5.207031 1.5 5.785157 4.164063v.003906h.003906c.109375.457031.160156.925781.15625 1.394531v.007813c.050781 1.089843-.773438 2.019531-1.859375 2.101562-.589844.027344-1.15625-.242188-1.507813-.714844l-.160156-.269531-.167969.25c-.78125.875-2.0625 1.101563-3.101562.550781-1.039063-.554687-1.566407-1.742187-1.277344-2.882812.289063-1.144532 1.320313-1.9375 2.496094-1.929688h1.546875c.546875.003906.988281.445313.984375.992188v1.847656c0 .355469.085937.675781.28125.914062.191406.238282.496093.382813.875.382813h.003906c.367187-.011719.65625-.207031.832031-.492187.175782-.285157.253906-.648438.242188-1.03125-.050782-2.472657-2.078125-4.445313-4.550782-4.425782-2.46875.015625-4.46875 2.019532-4.488281 4.488282v.007812c.09375 2.191406 1.707031 4.015625 3.867188 4.382812h.003906c.492187.082032.996094.109376 1.496094.09375 5.085937-.039062 9.40625-3.746093 10.210937-8.769531v-.003906c0-.007813 0-.015625 0-.023437l-.273437-.019532c-.78125 4.894532-4.984375 8.503906-9.941407 8.539063h-.003906c-.484375.019531-.964844-.011719-1.445312-.089844-2.03125-.34375-3.546875-2.058594-3.636719-4.117187.019531-2.320313 1.890625-4.195313 4.214844-4.210938 2.320312-.019531 4.222656 1.832031 4.273437 4.152344.007813.34375-.066406.660156-.203125.882812-.136719.21875-.328125.351563-.605469.359375-.3125 0-.515624-.105469-.65625-.277343-.140624-.175782-.21875-.433594-.21875-.742188v-1.847656c0-.695313-.5625-1.265625-1.257812-1.269532h-1.550781c-1.300781-.007812-2.445313.875-2.761719 2.136719-.320312 1.265625.261719 2.585938 1.414062 3.195313 1.128907.601562 2.515626.363281 3.386719-.558594.40625.511719 1.035157.808594 1.691407.773438h.003906c1.234375-.089844 2.175781-1.148438 2.117187-2.386719.007813-.488281-.046875-.976563-.164062-1.453125-.609375-2.800782-3.238281-4.691406-6.085938-4.378906-2.851562.308593-5.007812 2.726562-4.996093 5.59375.035156 3.050781 2.480468 5.527343 5.527343 5.605468.289063.023438.578125.035156.871094.027344 1.96875-.011719 3.890625-.546875 5.609375-1.492188-1.761719 1.585938-4.078125 2.429688-6.46875 2.320313h-.007812c-1.722657.03125-3.386719-.644531-4.601563-1.867187-1.214844-1.226563-1.875-2.890626-1.832031-4.617188v-.003906c.003906-2.0625.976562-4.003906 2.628906-5.242188 1.097656-.804687 2.421875-1.242187 3.78125-1.246094h2.078125c1.625 0 3.167969-.675781 4.292969-1.84375-.105469.859376-.394532 1.683594-.863282 2.410157v.007812l-.003906.003907c-.042968.074218-.035156.167968.019532.238281.050781.066406.140624.097656.222656.078125 1.960937-.441406 3.597656-1.78125 4.429687-3.613282.777344 1.519532 1.039063 3.25.742188 4.929688l.273437.023438c.308594-1.753907.027344-3.558594-.796875-5.140626l-.003906-.007812c-.046875-.074219-.128906-.113281-.214844-.113281zm-4.429687 3.734375-.003906.011718c0-.003906.003906-.007812.003906-.011718m-4.363282 3.960937-1.5.003907c-.960937 0-1.746093.78125-1.746093 1.746093 0 .960938.785156 1.746094 1.746093 1.746094.960938 0 1.746094-.785156 1.746094-1.746094v-1.507812c-.007812-.128907-.113281-.234375-.242187-.242188zm-.03125.277344v1.472656c0 .390625-.152343.761719-.429687 1.039063s-.648437.429687-1.039063.429687c-.390624 0-.765624-.152343-1.039062-.429687-.277344-.277344-.429688-.648438-.429688-1.039063-.003906-.390625.152344-.765625.429688-1.039062.273438-.277344.648438-.429688 1.039062-.429688zm0 0" fill="#5c2d91"/></svg>