<svg height="18" viewBox="0 0 18 18" width="18" xmlns="http://www.w3.org/2000/svg"><g fill="none" stroke="#fff" stroke-linecap="round" stroke-linejoin="round" stroke-width="2" transform="scale(.75)"><path d="m16 8.197917c-.010417-1.208334-.989583-2.1875-2.197917-2.197917-.802083 0-1.401041.302083-1.802083.901042-.401042-.598959-1-.901042-1.802083-.901042-1.208334.010417-2.1875.989583-2.197917 2.197917 0 .604166.302083 1.203125.697917 1.604166 1.09375 1.078125 2.192708 2.140625 3.302083 3.197917 1.104167-1.026042 2.208333-2.0625 3.302083-3.098958.447917-.453125.697917-1.0625.697917-1.703125"/><path d="m4 19.5v-15c0-1.380208 1.119792-2.5 2.5-2.5h12.5c.552083 0 1 .447917 1 1v18c0 .552083-.447917 1-1 1h-12.5c-1.380208 0-2.5-1.119792-2.5-2.5s1.119792-2.5 2.5-2.5h13.5"/></g></svg>