<svg height="18" viewBox="0 0 18 18" width="18" xmlns="http://www.w3.org/2000/svg"><path d="m16.714844 8.449219c-.179688-.074219-.359375-.15625-.546875-.195313-1.058594-.230468-2.117188-.46875-3.1875-.664062-.777344-.140625-1.570313-.222656-2.355469-.328125.078125-.546875.152344-.617188.738281-.707031.300781.515624.300781.515624.917969.445312 1.269531-.148438 2.078125-.878906 2.308594-2.179688.171875-.964843.371094-1.898437 1.101562-2.617187.007813-.007813-.007812-.042969-.007812-.0625-1.34375-.410156-3.070313.515625-4.144532 2.234375-.492187-.066406-.804687-.222656-1.023437-.742188-.589844-1.382812-1.667969-2.21875-3.207031-2.273437-2.78125-.105469-5.308594 1.511719-6.398438 4.078125-1.078125 2.546875-.734375 5.027344.488282 7.429688.5.976562 1.136718 1.859374 2.078124 2.464843.804688.519531 1.550782.355469 2.089844-.4375.023438-.035156.0625-.054687.113282-.09375l.242187.628907c.082031.214843.152344.433593.246094.640624.183593.425782.679687.632813 1.113281.488282.113281-.039063.253906-.042969.367188-.007813.480468.152344.921874.15625 1.308593-.234375.058594-.0625.191407-.082031.289063-.078125.660156.019531 1.027344-.199219 1.3125-.792969.023437-.050781.058594-.101562.105468-.132812.441407-.351562.550782-.714844.328126-1.226562-.136719-.308594-.300782-.601563-.460938-.902344-.113281-.210938-.234375-.421875-.386719-.691406.734375.242187 1.390625.492187 1.996094-.058594.125.066406.226563.125.339844.175781.605469.261719 1.414062.175781 1.761719-.230469.140624-.167968.269531-.179687.460937-.164062.753906.058594 1.636719-.179688 1.761719-1.078125.804687-.164063 1.171875-.519531 1.234375-1.199219.074219-.738281-.21875-1.179688-.984375-1.488281m-4.679688-1.90625c-.082031.003906-.191406-.144531-.238281-.242188-.058594-.136719-.066406-.292969-.121094-.566406l.636719.246094c.292969-.214844.585938.117187 1.007812.15625-.445312.304687-.855468.398437-1.285156.40625m2.703125-3.976563-.964843 3.304688c-.394532-.332032-.679688-.570313-1.03125-.863282l1.171874-1.808593c-.652343.398437-1.027343 1.011719-1.386718 1.679687l-.523438-.292968c.386719-1.042969 1.722656-2.003907 2.734375-2.019532m-4.421875 2.011719c.886719.046875 1.644532.425781 2.335938.957031.042968.035156.050781.121094.117187.277344-.808593-.273438-1.492187-.179688-2.179687.082031-.199219.074219-.441406.035157-.667969.046875l.003906.105469 1.261719-.078125.011719.089844-1.3125.601562c-.339844-.464844-.203125-1.589844.15625-1.964844.0625-.070312.183593-.125.273437-.117187m1.980469 4.542969-.015625.09375 4.105469.808594c-.164063.4375-.492188.570312-1.289063.558593-.03125.742188-.378906.941407-1.5.855469-.230468.675781-.835937.824219-1.875.445312-.554687.605469-1.183594.386719-1.835937.132813-.128907 1.003906-.589844 1.789063-1.472657 2.289063-.820312.464843-1.699218.414062-2.574218.222656-3.527344-.769532-5.554688-4.207032-4.617188-7.800782.703125-2.691406 2.898438-4.523437 5.601563-4.671874 1.308593-.074219 2.46875.609374 3.015625 1.785156.050781.113281.054687.320312-.011719.40625-.730469.910156-.742187 1.882812-.269531 2.886718.109375.234376.074218.367188-.066406.542969-.625.789063-1.460938 1.246094-2.398438 1.546875l-.125.035156c1.085938-.023437 2.125-.195312 2.882812-1.054687.199219-.226563.386719-.289063.65625-.246094 1.464844.234375 2.929688.457031 4.390626.703125.375.0625.746093.175782 1.113281.285156.28125.082032.472656.265626.527343.613282zm-4.40625-3.863282c0-.496093-.417969-.902343-.90625-.886718-.457031.015625-.878906.460937-.863281.910156.019531.480469.421875.867188.902344.859375.480468-.007813.867187-.398437.867187-.882813m-1.402344-.402343c0-.3125.304688-.355469.5625-.34375.234375.011719.515625.066406.5.347656-.015625.320313-.324219.332031-.652343.425781-.144532-.144531-.410157-.289062-.410157-.429687" fill="#ef5734"/></svg>