<svg height="18" viewBox="0 0 18 18" width="18" xmlns="http://www.w3.org/2000/svg"><path d="m17.550781 9.230469c-.078125-.335938-.246093-.585938-.558593-.746094-.585938-.304687-1.203126-.464844-1.839844-.609375-1.34375-.308594-2.703125-.503906-4.074219-.664062-.160156-.019532-.316406-.039063-.472656-.058594.050781-.441406.210937-.589844.742187-.699219.054688.125.105469.257813.167969.382813.027344.046874.085937.105468.128906.105468.792969.011719 1.542969-.125 2.148438-.691406.472656-.441406.683593-1.015625.800781-1.632812.042969-.222657.082031-.449219.117188-.675782.101562-.703125.46875-1.265625.9375-1.773437.023437-.027344.042968-.054688.078124-.09375-.371093-.117188-.738281-.128907-1.105468-.0625-1.390625.253906-2.4375.984375-3.089844 2.257812l-.023438.023438c-.234374-.058594-.472656-.113281-.707031-.183594-.042969-.015625-.078125-.089844-.097656-.144531-.382813-1.085938-1.042969-1.929688-2.117187-2.386719-.320313-.136719-.679688-.117187-1.023438-.207031-.015625-.003906-.03125.035156-.046875.035156h-1.03125c-.226563 0-.457031.011719-.679687.0625-2.699219.5625-4.804688 2.644531-5.300782 5.367188-.5273435 2.90625.273438 5.449218 2.1875 7.671874.289063.332032.636719.601563 1.035156.796876.742188.367187 1.542969.101562 1.921876-.636719l.03125-.054688c.164062.421875.335937.832031.476562 1.253907.136719.410156.625.597656.925781.578124.054688-.003906.125.046876.167969.015626.265625-.203126.476562.132812.710938.132812h.378906c.265625-.140625.519531-.234375.695312-.472656.019532-.03125.113282-.039063.175782-.03125.339843.035156.65625-.042969.945312-.238282.238281-.160156.390625-.382812.421875-.675781.304687-.085937.492187-.320312.503906-.679687.003907-.191406-.011719-.410156-.097656-.578125-.25-.519531-.539063-1.019531-.816406-1.523438l-.023438-.050781.054688.023438c.40625.195312.828125.28125 1.28125.246093.285156-.023437.457031-.117187.601562-.335937.355469.25.753907.367187 1.191407.335937.429687-.027343.839843-.121093 1.070312-.554687.308594 0 .625.03125.929688-.007813.214843-.027343.429687-.121093.625-.226562.304687-.171875.515624-.417969.449218-.8125.316406-.027344.605469-.105469.851563-.300781.195312-.160157.285156-.367188.351562-.613282.015625-.058594.027344-.109375.027344-.167968v-.480469c0-.074219-.011719-.144531-.027344-.21875m-10.59375-3.21875c-.238281 0-.472656-.09375-.640625-.265625-.167968-.171875-.261718-.402344-.261718-.644532.007812-.5.414062-.910156.910156-.90625.503906.003907.898437.40625.898437.914063s-.398437.902344-.90625.902344m2.761719.726562c-.113281-.273437-.203125-.5625-.164062-.875-.019532-.472656.144531-.886719.417968-1.257812.039063-.046875.15625-.054688.230469-.050781.886719.0625 1.652344.417968 2.359375.933593.144531.105469.285156.222657.410156.359375-.277344-.058594-.550781-.125-.828125-.175781-.417969-.078125-.832031-.0625-1.222656.113281-.425781.1875-.871094.183594-1.316406.152344.242187.21875.539062.207031.828125.160156.246094-.035156.488281-.105468.742187-.164062l.011719.144531zm0 0" fill="#ef5734" fill-rule="evenodd"/></svg>