<svg height="18" viewBox="0 0 18 18" width="18" xmlns="http://www.w3.org/2000/svg"><g fill="none" stroke="#fff" stroke-linecap="round" stroke-linejoin="round" stroke-width="2" transform="scale(.75)"><path d="m21 8c0-.713542-.380208-1.375-1-1.729167l-7-4c-.619792-.359375-1.380208-.359375-2 0l-7 4c-.619792.354167-1 1.015625-1 1.729167v8c0 .713542.380208 1.375 1 1.729167l7 4c.619792.359375 1.380208.359375 2 0l7-4c.619792-.354167 1-1.015625 1-1.729167zm0 0"/><path d="m3.302083 7 8.697917 5 8.697917-5m-8.697917 15v-10"/></g></svg>