<svg height="18" viewBox="0 0 18 18" width="18" xmlns="http://www.w3.org/2000/svg"><g fill="none" stroke="#fff" stroke-linecap="round" stroke-linejoin="round" stroke-width="2" transform="scale(.75)"><path d="m2.96875 12.921875c-.598958.359375-.96875 1.005208-.96875 1.708333v3.239584c0 .703125.369792 1.348958.96875 1.708333l3 1.802083c.635417.380209 1.427083.380209 2.0625 0l3.96875-2.380208v-5.5l-5-3zm4.03125 3.578125-4.739583-2.848958m4.739583 2.848958 5-3m-5 3v5.171875m5-8.171875v5.5l3.96875 2.380208c.635417.380209 1.427083.380209 2.0625 0l3-1.802083c.598958-.359375.96875-1.005208.96875-1.708333v-3.239584c0-.703125-.369792-1.348958-.96875-1.708333l-4.03125-2.421875zm5 3-5-3m5 3 4.739583-2.848958m-4.739583 2.848958v5.171875"/><path d="m7.96875 4.421875c-.598958.359375-.96875 1.005208-.96875 1.708333v4.369792l5 3 5-3v-4.369792c0-.703125-.369792-1.348958-.96875-1.708333l-3-1.802083c-.635417-.380209-1.427083-.380209-2.0625 0zm4.03125 3.578125-4.739583-2.848958m4.739583 2.848958 4.739583-2.848958m-4.739583 8.348958v-5.5"/></g></svg>