<svg height="18" viewBox="0 0 18 18" width="18" xmlns="http://www.w3.org/2000/svg"><g fill="none" stroke="#fff" stroke-linecap="round" stroke-linejoin="round" stroke-width="2" transform="scale(.75)"><path d="m12 5c.005208-1.088542-.583333-2.09375-1.53125-2.625-.953125-.53125-2.114583-.510417-3.041667.0625-.927083.572917-1.473958 1.598958-1.421875 2.6875-1.192708.307292-2.177083 1.145833-2.671875 2.270833-.489583 1.125-.4375 2.416667.145834 3.5-1.03125.833334-1.578125 2.119792-1.463542 3.442709.109375 1.317708.864583 2.494791 2.015625 3.145833-.1875 1.473958.458333 2.9375 1.677083 3.791667 1.223959.854166 2.817709.953125 4.140625.265625 1.317709-.6875 2.151042-2.052084 2.151042-3.541667zm0 0"/><path d="m9 13c1.71875-.604167 2.901042-2.182292 3-4m-5.994792-3.875c.015625.484375.15625.953125.395834 1.375m-2.921875 4.395833c.182291-.151041.375-.28125.583333-.395833m1.9375 7.5c-.6875 0-1.364583-.177083-1.96875-.515625m7.96875-4.484375h4m-4 5h6c1.104167 0 2 .895833 2 2v1m-8-13h8m-4 0v-3c0-1.104167.895833-2 2-2"/><path d="m16.5 13c0 .276042-.223958.5-.5.5s-.5-.223958-.5-.5.223958-.5.5-.5.5.223958.5.5zm0 0"/><path d="m18.5 3c0 .276042-.223958.5-.5.5s-.5-.223958-.5-.5.223958-.5.5-.5.5.223958.5.5zm0 0"/><path d="m20.5 21c0 .276042-.223958.5-.5.5s-.5-.223958-.5-.5.223958-.5.5-.5.5.223958.5.5zm0 0"/><path d="m20.5 8c0 .276042-.223958.5-.5.5s-.5-.223958-.5-.5.223958-.5.5-.5.5.223958.5.5zm0 0"/></g></svg>