<svg height="18" viewBox="0 0 18 18" width="18" xmlns="http://www.w3.org/2000/svg"><path d="m9.019531.0429688h-.070312l.0625.0078124c.058593-.0039062.113281-.0039062.171875-.0078124-.054688 0-.109375 0-.164063 0m1.761719.1718752c3.207031.726562 5.480469 3.574218 5.480469 6.859375 0 .257812-.015625.511719-.046875.761719.003906.09375.003906.183593.003906.273437 0 4.480469-3.628906 8.109375-8.109375 8.109375-4.164063 0-7.648437-3.15625-8.0625-7.300781-.0039062.035156-.0039062.066406-.0039062.101562 0 4.960938 4.0195312 8.980469 8.9765622 8.980469 4.960938 0 8.980469-4.019531 8.980469-8.980469 0-4.277343-3.019531-7.964843-7.21875-8.804687zm0 0" fill="#f4b960"/><path d="m8.109375 0c-4.476563 0-8.109375 3.632812-8.109375 8.109375 0 4.480469 3.632812 8.109375 8.109375 8.109375 4.480469 0 8.109375-3.628906 8.109375-8.109375 0-.089844 0-.183594-.003906-.273437l-.003906.050781c-.144532 3.332031-2.804688 6.007812-6.140626 6.167969-.25.035156-.503906.054687-.761718.054687h-.082032c-3.882812 0-7.035156-3.148437-7.035156-7.035156.003906-3.796875 3.023438-6.90625 6.816406-7.0234378-.296874-.0351562-.597656-.0507812-.898437-.0507812zm0 0" fill="#e66f32"/><path d="m9.226562.0429688c-3.882812 0-7.035156 3.1484372-7.035156 7.0312502 0 3.886719 3.152344 7.035156 7.035156 7.035156h.042969c-3.296875-.023437-5.957031-2.703125-5.960937-6 .003906-.082031.007812-.160156.011718-.242187-.003906-.085938-.007812-.167969-.011718-.253907.003906-.265625.023437-.535156.054687-.796875.054688-.929687.371094-1.824218.90625-2.585937 1.175781-1.910157 3.253907-3.070313 5.496094-3.070313 3.566406 0 6.453125 2.886719 6.453125 6.453125 0 .097657-.003906.191407-.007812.289063.03125-.273438.050781-.550782.050781-.828125 0-3.882813-3.148438-7.0312502-7.035157-7.0312502zm0 0" fill="#e43c41"/><path d="m9.765625 1.160156c-2.226563 0-4.292969 1.148438-5.472656 3.039063.941406-1.3125 2.453125-2.089844 4.066406-2.089844.066406 0 .128906.003906.195313.003906.195312-.027343.394531-.042969.589843-.042969.277344 0 .558594.027344.832031.082032 3.035157.339844 5.332032 2.902344 5.332032 5.957031 0 3.019531-2.242188 5.5625-5.234375 5.949219 3.4375-.164063 6.144531-3 6.144531-6.445313 0-3.566406-2.886719-6.453125-6.453125-6.453125zm-6.398437 5.644532c-.035157.269531-.054688.539062-.058594.808593.003906.085938.007812.167969.011718.253907.007813-.171876.019532-.339844.042969-.507813-.007812-.082031-.011719-.160156-.011719-.242187 0-.105469.007813-.207032.015626-.3125zm0 0" fill="#bdd041"/><path d="m9.929688 2.144531c1.992187.375 3.4375 2.117188 3.4375 4.144531-.003907.101563-.007813.207032-.015626.308594.007813.089844.011719.179688.015626.269532 0 .039062-.003907.078124-.003907.117187 0 .042969.003907.089844.003907.132813 0 2.765624-2.242188 5.007812-5.007813 5.007812-2.675781-.003906-4.878906-2.109375-5-4.78125-.03125.253906-.046875.511719-.050781.765625 0 3.316406 2.6875 6 6 6 3.316406 0 6-2.683594 6-6 0-3.074219-2.320313-5.648437-5.378906-5.964844zm0 0" fill="#6db54c"/><path d="m8.359375 2.109375c-2.765625 0-5.007813 2.242187-5.007813 5.007813 0 2.765624 2.242188 5.007812 5.007813 5.007812s5.007813-2.242188 5.007813-5.007812c0-.042969-.003907-.089844-.003907-.132813-.0625 1.988281-1.691406 3.566406-3.679687 3.566406-.179688 0-.355469-.015625-.53125-.042969l-.007813.003907c-2.332031 0-4.21875-1.890625-4.21875-4.222657 0-2.097656 1.542969-3.878906 3.621094-4.175781-.0625 0-.125-.003906-.1875-.003906zm0 0" fill="#aedae6"/><path d="m9.144531 2.070312c-2.332031 0-4.21875 1.886719-4.21875 4.21875 0 2.332032 1.886719 4.222657 4.21875 4.222657-.273437 0-.546875-.039063-.8125-.109375-.089843-.023438-.175781-.050782-.261719-.082032-.257812-.09375-.503906-.222656-.730468-.378906-.074219-.050781-.144532-.109375-.214844-.167968-.070312-.058594-.140625-.121094-.203125-.183594-.128906-.128906-.25-.269532-.351563-.421875-.371093-.527344-.570312-1.15625-.570312-1.800781 0-.082032.003906-.164063.011719-.242188-.007813-.085938-.011719-.171875-.011719-.257812 0-2.03125 1.648438-3.679688 3.683594-3.679688 1.925781 0 3.527344 1.484375 3.671875 3.410156.007812-.105468.011719-.207031.011719-.308594 0-2.332031-1.890626-4.21875-4.222657-4.21875zm0 0" fill="#56b8de"/><path d="m9.683594 3.1875c-2.035156 0-3.683594 1.648438-3.683594 3.679688 0 .089843.003906.179687.007812.265624l.003907-.027343c.007812-.085938.015625-.171875.03125-.257813.015625-.085937.03125-.171875.054687-.253906.039063-.167969.097656-.332031.167969-.492188.035156-.078124.070313-.15625.113281-.234374.042969-.074219.085938-.148438.132813-.222657.140625-.21875.3125-.417969.503906-.59375.0625-.058593.128906-.113281.199219-.167969.066406-.050781.136718-.101562.210937-.148437.070313-.050781.144531-.09375.222657-.136719.152343-.082031.3125-.148437.476562-.207031.328125-.113281.671875-.167969 1.019531-.167969h.085938c.058593 0 .117187.003906.175781.007813.054688.003906.113281.011719.171875.019531.285156.039062.566406.121094.828125.234375.054688.023437.105469.050781.160156.074219.101563.054687.203125.109375.296875.175781.027344.015625.050781.03125.074219.046875.046875.03125.09375.066406.140625.101562.019531.019532.042969.035157.066406.054688.109375.09375.214844.191406.3125.296875.078125.085937.152344.175781.222657.269531.015624.023438.03125.046875.050781.070313.046875.070312.09375.144531.136719.21875.042968.074219.085937.152343.121093.230469.011719.027343.023438.050781.035157.078124.023437.054688.046874.105469.066406.160157.011718.027343.019531.054687.03125.082031.015625.054688.035156.109375.050781.164062.007813.03125.015625.058594.023437.085938.027344.113281.046876.226562.066407.339844.003906.027344.003906.058594.007812.085937.003907.027344.007813.058594.007813.085938.007812.058593.007812.117187.011718.171875v.089844c0 1.734374-1.40625 3.144531-3.144531 3.144531h-.011719c.183594.027343.367188.039062.550782.039062 2.03125 0 3.683594-1.648437 3.683594-3.683593 0-2.03125-1.652344-3.679688-3.683594-3.679688zm0 0" fill="#00b1d5"/><path d="m9.144531 4.21875c-1.738281 0-3.144531 1.410156-3.144531 3.148438 0 1.734374 1.40625 3.144531 3.144531 3.144531s3.144531-1.410157 3.144531-3.144531c0-1.738282-1.40625-3.148438-3.144531-3.148438m1.503907 1.066406c.058593 0 .113281.011719.164062.035156.3125.140626.382812.660157.15625 1.160157-.222656.5-.660156.792969-.972656.652343-.3125-.140624-.382813-.660156-.15625-1.160156.183594-.410156.515625-.691406.808594-.6875zm0 0" fill="#221f1f"/><path d="m10.8125 5.320312c.3125.140626.382812.660157.15625 1.160157-.222656.5-.660156.792969-.972656.652343-.3125-.140624-.382813-.660156-.15625-1.160156.222656-.5.65625-.792968.972656-.652344zm0 0" fill="#fff"/></svg>