<svg height="18" viewBox="0 0 18 18" width="18" xmlns="http://www.w3.org/2000/svg"><path d="m9.144531 4.21875c-1.738281 0-3.144531 1.410156-3.144531 3.148438 0 1.734374 1.40625 3.144531 3.144531 3.144531s3.144531-1.410157 3.144531-3.144531c0-1.738282-1.40625-3.148438-3.144531-3.148438m1.503907 1.066406c.058593 0 .113281.011719.164062.035156.3125.140626.382812.660157.15625 1.160157-.222656.5-.660156.792969-.972656.652343-.3125-.140624-.382813-.660156-.15625-1.160156.183594-.410156.515625-.691406.808594-.6875zm-1.421876-5.2421872c-3.882812-.0039063-7.035156 3.1484372-7.035156 7.0312502.003906 2.6875 1.539063 5.136719 3.953125 6.316406l-.082031-.035156c.128906.0625.257812.121093.390625.175781-.460937-.296875-.875-.65625-1.238281-1.0625 1.105468 1.046875 2.570312 1.632812 4.09375 1.640625 3.316406 0 6-2.683594 6-6 0-1.457031-.535156-2.867187-1.5-3.957031 1.183594 1.125 1.855468 2.683594 1.859375 4.316406-.003907 1.199219-.363281 2.371094-1.039063 3.359375 1.019532-1.167969 1.585938-2.664063 1.589844-4.214844 0-3.566406-2.886719-6.453125-6.453125-6.453125-1.6875.007813-3.304687.679688-4.503906 1.863282l.035156-.035157c1.222656-1.386719 2.980469-2.183593 4.828125-2.1875 3.5625 0 6.453125 2.890625 6.453125 6.453125-.003906.777344-.152344 1.546875-.429687 2.273438-.53125 4.035156-3.96875 7.050781-8.039063 7.050781-4.027344 0-7.445313-2.957031-8.0234375-6.941406.3242185 4.699219 4.2226565 8.351562 8.9335935 8.363281 4.960938 0 8.980469-4.019531 8.980469-8.980469 0-4.269531-3.007812-7.949219-7.195312-8.800781-.515626-.117188-1.046876-.1757812-1.578126-.1757812zm-.441406 1.6679692c1.152344.007812 2.25.484374 3.039063 1.320312-.753907-.621094-1.703125-.960938-2.679688-.960938-2.332031 0-4.21875 1.886719-4.21875 4.21875.007813.972657.355469 1.910157.976563 2.65625-.210938-.453124-.320313-.945312-.324219-1.445312 0-1.894531 1.539063-3.433594 3.433594-3.433594s3.429687 1.539063 3.429687 3.433594-1.535156 3.429688-3.429687 3.429688c-1.296875-.003907-2.480469-.734376-3.0625-1.894532-.875-.796875-1.378907-1.921875-1.382813-3.105468 0-2.328126 1.886719-4.21875 4.21875-4.21875zm1.257813 1.117187c2.03125 0 3.679687 1.648437 3.679687 3.683594-.007812 1.003906-.425781 1.964843-1.160156 2.652343.519531-.652343.804688-1.460937.804688-2.296874 0-2.03125-1.652344-3.679688-3.683594-3.679688-.832032 0-1.636719.28125-2.285156.792969.6875-.726563 1.640624-1.144531 2.644531-1.152344zm-5.339844.890625c-.863281.921875-1.347656 2.136719-1.351563 3.398438 0 2.765624 2.242188 5.007812 5.007813 5.007812 1.277344-.003906 2.503906-.496094 3.429687-1.378906-.949218 1.101562-2.335937 1.738281-3.789062 1.738281-1.863281-.007813-3.570312-1.046875-4.429688-2.699219-.375-.710937-.574218-1.503906-.578124-2.308594.003906-1.355468.558593-2.648437 1.535156-3.589843.054687-.058594.113281-.113281.175781-.167969zm7.84375 5.460938c-.046875.050781-.097656.105468-.148437.15625-.019532.015624-.039063.03125-.058594.050781.074218-.066407.140625-.136719.207031-.207031zm-.699219.652343c-.035156.023438-.074218.046875-.109375.066407.035157-.019532.074219-.042969.109375-.066407m-.664062.390625c-.058594.019532-.113282.039063-.171875.058594.058593-.019531.113281-.039062.171875-.058594m-3.074219-10.222656c-4.476563 0-8.109375 3.632812-8.109375 8.109375 0 4.480469 3.628906 8.109375 8.109375 8.109375 3.753906-.011719 7.007813-2.601562 7.863281-6.253906-.335937.710937-.800781 1.355468-1.371094 1.902344-1.117187 1.625-2.960937 2.597656-4.933593 2.601562-.914063-.003906-1.820313-.214844-2.640625-.625-3.058594-.828125-5.183594-3.597656-5.195313-6.769531 0-3.878907 3.144531-7.027344 7.027344-7.0312502-.25-.0273438-.5-.03906255-.75-.0429688zm.910156.0429688h-.066406c.046875 0 .09375.0039062.144531.0039062l.085938-.0039062c-.054688 0-.109375 0-.164063 0m-2.320312 4.6914062-.019531.035156zm0 0"/></svg>