<svg height="18" viewBox="0 0 18 18" width="18" xmlns="http://www.w3.org/2000/svg"><path d="m10.53125 5.242188c-.105469.015624-.207031.0625-.300781.125-.191407.128906-.363281.335937-.480469.597656-.117188.261718-.160156.53125-.128906.757812.03125.226563.140625.425782.332031.507813.1875.085937.40625.039062.597656-.089844.191407-.128906.363281-.335937.480469-.597656s.160156-.53125.128906-.757813c-.03125-.226562-.140625-.425781-.332031-.507812-.09375-.042969-.199219-.054688-.296875-.035156zm.296875.035156-.015625-.007813h-.019531zm-.273437.140625c.070312-.015625.140624-.007813.203124.019531.117188.054688.199219.183594.226563.371094.023437.1875-.007813.425781-.113281.660156-.105469.234375-.261719.417969-.417969.523438-.15625.105468-.308594.132812-.429687.078124-.121094-.054687-.199219-.183593-.226563-.371093s.007813-.425781.113281-.660157c.105469-.234374.261719-.417968.417969-.523437.078125-.050781.15625-.085937.226563-.097656m-1.410157-1.238281c-1.769531 0-3.203125 1.433593-3.203125 3.199218 0 1.769532 1.433594 3.203125 3.203125 3.203125 1.765625 0 3.203125-1.433593 3.203125-3.199219 0-1.769531-1.4375-3.203124-3.203125-3.203124zm0 .175781c1.671875 0 3.023438 1.355469 3.023438 3.027343 0 1.667969-1.351563 3.023438-3.023438 3.023438s-3.027343-1.355469-3.027343-3.023438c0-1.671874 1.355468-3.027343 3.027343-3.027343zm1.453125.878906-.011718.007813c-.332032.023437-.652344.316406-.835938.722656-.117188.261718-.160156.53125-.128906.757812.03125.226563.140625.425782.332031.507813.1875.085937.40625.039062.597656-.089844.191407-.128906.363281-.335937.480469-.597656s.160156-.53125.128906-.757813c-.03125-.226562-.140625-.425781-.332031-.507812-.058594-.027344-.125-.042969-.191406-.042969zm.035156.175781c.042969 0 .085938.011719.125.027344.117188.054688.199219.183594.226563.371094.023437.1875-.007813.425781-.113281.660156-.105469.234375-.261719.417969-.417969.523438-.15625.105468-.308594.132812-.429687.078124-.117188-.054687-.199219-.183593-.226563-.371093s.007813-.425781.113281-.660157c.171875-.382812.488282-.632812.722656-.628906m-.960937-2.253906h.003906c-2.0625 0-3.734375 1.671875-3.734375 3.734375 0 .085937.003906.171875.007813.257813v.007812h.179687c0-.011719 0-.019531 0-.027344.015625-.164062.042969-.328125.082032-.488281.082031-.324219.21875-.632813.398437-.914063.558594-.855468 1.511719-1.371093 2.535156-1.371093h.082031c.113282.003906.222657.015625.332032.03125.441406.058593.867187.21875 1.238281.460937.023437.015625.046875.03125.070313.046875.066406.046875.136718.097657.199218.152344.699219.574219 1.101563 1.429687 1.101563 2.335937 0 1.671876-1.351563 3.023438-3.023438 3.023438h-.007812l-.015625.175781h.007812.011719c.175781.027344.355469.042969.535156.042969 2.0625 0 3.734375-1.671875 3.734375-3.734375s-1.671875-3.734375-3.734375-3.734375zm.003906.175781c1.964844 0 3.558594 1.59375 3.558594 3.558594 0 1.792969-1.328125 3.257813-3.050781 3.507813 1.253906-.433594 2.164062-1.617188 2.164062-3.015626 0-.03125-.003906-.058593-.003906-.089843-.011719-.441407-.117188-.878907-.304688-1.277344-.074218-.160156-.164062-.3125-.265624-.457031-.015626-.027344-.03125-.050782-.050782-.074219-.15625-.214844-.339844-.40625-.542968-.574219-.089844-.074218-.1875-.144531-.285157-.210937-.097656-.0625-.199219-.121094-.304687-.175781-.9375-.472657-2.046875-.457032-2.96875.042968h-.003906c-.152344.082032-.300782.179688-.441407.289063-.347656.269531-.636719.613281-.847656 1-.039063.070312-.074219.144531-.105469.214843.367188-1.566406 1.769532-2.738281 3.453125-2.738281m-.53125-1.285156c-2.355469 0-4.269531 1.914063-4.269531 4.269531 0 2.355469 1.914062 4.269532 4.269531 4.269532v-.179688c-.804687 0-1.574219-.316406-2.140625-.886719-.566406-.566406-.886718-1.335937-.886718-2.136719 0-.078124.003906-.15625.011718-.234374v-.011719c-.007812-.082031-.011718-.164063-.011718-.246094 0-1.964844 1.59375-3.558594 3.558593-3.558594 1.863281 0 3.410157 1.4375 3.546875 3.292969h.175782c.007812-.101562.011718-.207031.011718-.308594 0-2.355468-1.910156-4.269531-4.265625-4.269531zm0 .179687c2.011719 0 3.675781 1.453126 4.015625 3.367188-.53125-1.425781-1.890625-2.4375-3.484375-2.4375-2.0625 0-3.734375 1.671875-3.734375 3.734375 0 .085937.003906.171875.011719.257813-.007813.078124-.011719.152343-.011719.234374 0 .941407.414063 1.839844 1.136719 2.445313-1.207031-.710937-2.023437-2.007813-2.023437-3.511719 0-2.261718 1.828124-4.089844 4.089843-4.089844zm-.78125-.136718c-2.785156 0-5.042969 2.261718-5.042969 5.046875 0 2.785156 2.257813 5.046875 5.042969 5.046875 2.785157 0 5.046875-2.261719 5.046875-5.046875 0-.042969 0-.085938 0-.128907v-.007812h-.179687c-.058594 1.921875-1.632813 3.445312-3.554688 3.449219-.171875-.003907-.34375-.015625-.511719-.042969h-.023437c-2.257813 0-4.085937-1.832031-4.085937-4.089844 0-2.035156 1.496093-3.757812 3.511718-4.046875l-.011718-.175781c-.0625-.003906-.125-.003906-.1875-.003906zm-.734375.25c-1.625.617187-2.753906 2.175781-2.753906 3.976562 0 2.355469 1.914062 4.269532 4.269531 4.269532h.003907l.003906-.003907c.171875.027344.347656.042969.523437.042969 1.445313 0 2.691407-.828125 3.3125-2.039062-.621093 1.976562-2.441406 3.417968-4.625 3.417968-2.6875 0-4.867187-2.179687-4.867187-4.867187 0-2.4375 1.792968-4.4375 4.132812-4.796875zm2.300782-.21875-.027344.175781c1.933594.367187 3.332031 2.054687 3.332031 4.019531 0 .097656-.003906.199219-.011719.296875l-.003906.007813.003906.007812c.003906.085938.011719.175782.011719.261719 0 .035156 0 .074219-.003906.109375v.003906c.003906.046875.003906.089844.003906.132813 0 2.6875-2.179687 4.867187-4.871094 4.867187-2.601562 0-4.742187-2.046875-4.859375-4.648437l-.175781-.007813c-.03125.253906-.050781.511719-.050781.769532 0 3.332031 2.699218 6.03125 6.03125 6.03125 3.328125 0 6.027344-2.699219 6.027344-6.03125 0-3.082032-2.328126-5.667969-5.394532-5.992188h-.003906c-.003906 0-.003906-.003906-.007812-.003906zm1.394531.527344c2.25.832031 3.835937 2.972656 3.835937 5.472656 0 3.230468-2.621094 5.851562-5.851562 5.851562-3.144532 0-5.6875-2.484375-5.828125-5.59375.558593 2.191406 2.539062 3.800782 4.882812 3.804688 2.789063 0 5.046875-2.261719 5.046875-5.046875 0-.042969 0-.085938 0-.128907v-.007812c0-.035156 0-.074219 0-.109375v-.003906c0-.089844-.003906-.179688-.011718-.265625.007812-.101563.011718-.203125.011718-.304688 0-1.539062-.824218-2.914062-2.085937-3.667968m-1.566407-1.5c-2.230468 0-4.304687 1.152343-5.488281 3.042968h-.003906.003906l-.003906.007813.144531.097656c.914063-1.273437 2.386719-2.027344 3.953125-2.03125.066407 0 .128907.003906.191407.003906l.011718.003907.007813-.003907c.1875-.027343.378906-.042969.570312-.042969.269531 0 .539063.027344.804688.078126l.003906.003906h.003906c2.960938.328125 5.199219 2.832031 5.203125 5.8125-.003906 2.941406-2.191406 5.421875-5.109375 5.796875l.015625.179687c.003906 0 .003906-.003906.007813-.003906h.003906c3.445313-.171875 6.15625-3.015625 6.160156-6.464844 0-3.546875-2.855469-6.421875-6.390625-6.472656v-.007812zm0 .175781c3.480469 0 6.300782 2.820312 6.300782 6.304687 0 2.628906-1.625 4.875-3.9375 5.816406 1.925781-1.019531 3.214844-3.035156 3.214844-5.324218v-.003906c0-3.066407-2.308594-5.644532-5.359376-5.984376-.273437-.054687-.554687-.082031-.832031-.085937-.199219.003906-.394531.019531-.585937.046875-.066406-.003906-.128906-.003906-.191406-.003906h-.003907c-1.09375 0-2.128906.382812-2.988281 1.019531 1.160156-1.128906 2.726562-1.785156 4.382812-1.785156zm-6.425781 5.496093v.015626c-.035156.261718-.050781.527343-.054687.792968.003906.085938.003906.167969.011718.253906l.175782-.003906c.007812-.164062.019531-.328125.039062-.492187l.003906-.011719v-.007812c-.007812-.078126-.011718-.152344-.011718-.230469v-.003907c0-.097656.007812-.199218.011718-.296874l.003907-.003907v-.003906zm5.894531-6.7773432c-3.894531 0-7.054687 3.1562502-7.054687 7.0507812s3.160156 7.054688 7.054687 7.054688h.042969v-.179688c-3.21875-.019531-5.8125-2.632812-5.8125-5.847656v-.003906c0-.078126.003907-.15625.007813-.234376v-.011718c-.003906-.082032-.007813-.160156-.007813-.242188v-.003906c0-.257812.019531-.519531.050781-.777344v-.003906c.054688-.90625.359376-1.777344.878907-2.515625l.003906-.003906c1.148437-1.863281 3.179687-3 5.367187-3 3.484376 0 6.304688 2.820312 6.304688 6.304687v-.003906c-.003906.09375-.007812.183594-.011719.277344v.003906l.175781.015625v-.003906c.035157-.273438.050782-.546875.054688-.824219 0-3.878906-3.140625-7.0273438-7.015625-7.046875l-.003906-.0039062zm-.003906.1757812h.003906c3.398438 0 6.203126 2.46875 6.757813 5.710938-.75-2.75-3.242187-4.78125-6.226563-4.78125-2.246093 0-4.335937 1.164062-5.515624 3.078124-.539063.765626-.851563 1.664063-.910157 2.597657v.003906c-.035156.265625-.050781.53125-.054687.796875v.003906c.003906.082032.003906.164063.011718.25-.007812.078125-.007812.160156-.011718.238282 0 2.046874 1.023437 3.851562 2.585937 4.941406-2.089843-1.179688-3.515625-3.394532-3.515625-5.964844 0-3.796875 3.078125-6.875 6.875-6.875zm-1.101562-.21875c-4.484375 0-8.121094 3.636719-8.121094 8.117188 0 4.484374 3.636719 8.121093 8.121094 8.121093 4.480468 0 8.117187-3.636719 8.117187-8.121093 0-.089844-.003906-.179688-.003906-.273438l-.179687-.007812c0 .019531-.003907.035156-.003907.050781v.007812c-.140625 3.253907-2.738281 5.867188-5.992187 6.023438h-.007813c-.246093.035156-.496093.050781-.742187.054687l-.039063-.003906h-.007812l-.039063.003906c-3.796875-.003906-6.875-3.078125-6.875-6.878906.003906-3.710938 2.953125-6.75 6.664063-6.867188l.007812-.1757808c-.269531-.0273437-.539062-.0429687-.8125-.04687495v-.00390625zm-.414063.21875c-3.171875.699219-5.53125 3.515625-5.535156 6.875 0 3.894531 3.160156 7.054688 7.054687 7.054688h.082032c.253906 0 .507812-.019532.757812-.054688 2.773438-.132812 5.0625-2.015625 5.851563-4.558594-.667969 3.707032-3.898438 6.527344-7.800781 6.527344-4.386719 0-7.941407-3.554688-7.941407-7.945312 0-4.242188 3.339844-7.679688 7.53125-7.898438zm1.308594-.1757812h-.070313l-.003906.1757812.0625.007812h.015625c.054688-.003906.109375-.003906.164063-.007812v-.1757812h-.003906c-.054688 0-.105469 0-.160157 0zm1.765625.1718752-.035156.175781c3.132812.710937 5.355468 3.492187 5.355468 6.703125 0 .25-.015624.496094-.042968.746094l-.003906.003906v.007812c.003906.089844.007812.179688.007812.265626 0 4.390624-3.554688 7.941406-7.941406 7.941406-4.082032 0-7.492188-3.089844-7.898438-7.148438l-.175781.003906c-.0039062.035157-.0039062.070313-.0039062.105469 0 4.960938 4.0195312 8.980469 8.9765622 8.980469 4.960938 0 8.980469-4.023438 8.980469-8.980469 0-4.277343-3.019531-7.960937-7.214844-8.800781v-.003906zm2.476562 1.117187c2.75 1.515625 4.566407 4.414063 4.566407 7.6875 0 4.863281-3.941407 8.800781-8.804688 8.800781-4.375 0-7.996093-3.195312-8.675781-7.382812 1.003906 3.382812 4.132812 5.796875 7.773438 5.800781h.003906c4.480468 0 8.117187-3.636719 8.117187-8.121093 0-.085938 0-.175782-.003906-.265626.027344-.25.042969-.503906.046875-.757812 0-2.355469-1.183594-4.472656-3.023438-5.761719zm0 0"/></svg>