<svg height="18" viewBox="0 0 18 18" width="18" xmlns="http://www.w3.org/2000/svg"><g fill="none" stroke="#fff" stroke-linecap="round" stroke-linejoin="round" stroke-width="2" transform="scale(.75)"><path d="m12.765625 21.520833c-.15625.098959-.348958.104167-.510417.015625-.15625-.088541-.255208-.255208-.255208-.4375v-8.197916c0-.182292.098958-.348959.255208-.4375.161459-.088542.354167-.083334.510417.015625l5.875 3.671875c.296875.182291.473958.505208.473958.848958s-.177083.666667-.473958.848958zm1.354167-17.640625 1.880208-1.880208"/><path d="m18 11c0-2.208333-1.791667-4-4-4h-4c-2.208333 0-4 1.791667-4 4v3c.005208 1.713542.729167 3.348958 2 4.5"/><path d="m20.96875 5c0 2.098958-1.598958 3.802083-3.5 4m-14.46875 12c0-2.098958 1.697917-3.901042 3.802083-4m-.802083-4h-4m4.53125-4c-1.932292-.197917-3.53125-1.901042-3.53125-4m5-3 1.880208 1.880208m-.880208 3.25v-1c-.046875-1.104166.510417-2.145833 1.458333-2.713541.947917-.567709 2.135417-.567709 3.083334 0 .947916.567708 1.505208 1.609375 1.458333 2.713541v1"/></g></svg>