<svg height="18" viewBox="0 0 18 18" width="18" xmlns="http://www.w3.org/2000/svg"><g fill="none" stroke="#fff" stroke-linecap="round" stroke-linejoin="round" stroke-width="2" transform="scale(.75)"><path d="m6 2h12c1.104167 0 2 .895833 2 2v16c0 1.104167-.895833 2-2 2h-12c-1.104167 0-2-.895833-2-2v-16c0-1.104167.895833-2 2-2zm0 0"/><path d="m9 22v-4h6v4m-7-16h.010417m7.989583 0h.010417m-4.010417 0h.010417m-.010417 4h.010417m-.010417 4h.010417m3.989583-4h.010417m-.010417 4h.010417m-8.010417-4h.010417m-.010417 4h.010417"/></g></svg>