<svg height="18" viewBox="0 0 18 18" width="18" xmlns="http://www.w3.org/2000/svg"><g fill="none" stroke="#fff" stroke-linecap="round" stroke-linejoin="round" stroke-width="2" transform="scale(.75)"><path d="m8 6v6m7-6v6m-13 0h19.598958m-3.598958 6h3s.5-1.697917.802083-2.802083c.098959-.395834.197917-.796875.197917-1.197917s-.098958-.802083-.197917-1.197917l-1.401041-5c-.302084-1-1.302084-1.802083-2.401042-1.802083h-14c-1.104167 0-2 .895833-2 2v10h3"/><path d="m9 18c0 1.104167-.895833 2-2 2s-2-.895833-2-2 .895833-2 2-2 2 .895833 2 2zm0 0"/><path d="m9 18h5"/><path d="m18 18c0 1.104167-.895833 2-2 2s-2-.895833-2-2 .895833-2 2-2 2 .895833 2 2zm0 0"/></g></svg>