<svg height="18" viewBox="0 0 18 18" width="18" xmlns="http://www.w3.org/2000/svg"><g fill="none" stroke="#fff" stroke-linecap="round" stroke-linejoin="round" stroke-width="2" transform="scale(.75)"><path d="m8.5 8.5-1 1c-1.901042 1.9375-1.885417 5.046875.036458 6.963542 1.916667 1.921875 5.026042 1.9375 6.963542.036458l1-1m-3.65625-9.3125c1.671875-.401042 3.4375.09375 4.65625 1.3125s1.713542 2.984375 1.3125 4.65625m-3.8125 4.34375v-2.5m0-7.5v1.84375m-4 1.65625v7.5"/><path d="m16 7 1-5 1.364583.682292c.416667.208333.880209.317708 1.34375.317708h1.291667v1.291667c0 .463541.109375.927083.317708 1.34375l.682292 1.364583-5 1m-9 9-1 5-1.364583-.682292c-.416667-.208333-.880209-.317708-1.34375-.317708h-1.291667v-1.291667c0-.463541-.109375-.927083-.317708-1.34375l-.682292-1.364583 5-1m-5-14 20 20"/></g></svg>