<svg height="18" viewBox="0 0 18 18" width="18" xmlns="http://www.w3.org/2000/svg"><path d="m5.697917 21c-.552084.96875-1.78125 1.302083-2.75.75-.963542-.552083-1.302084-1.78125-.75-2.75l8.604166-14c1.65625-2.869792 5.328125-3.859375 8.197917-2.197917 2.869792 1.65625 3.859375 5.328125 2.197917 8.197917-.354167.625-1.015625 1.010417-1.734375 1.010417-.713542.005208-1.380209-.380209-1.734375-1.005209-.359375-.619791-.354167-1.385416.005208-2.005208.364583-.619792.369792-1.385417.010417-2.005208-.359375-.625-1.020834-1.010417-1.739584-1.005209-.71875 0-1.380208.385417-1.734375 1.010417zm12.052083-14-2.75-4.901042m-4.098958 2.703125 2.098958 4.197917m-5.098958.697917 2 4.401041m-5 .598959 2.098958 4.203125" fill="none" stroke="#fff" stroke-linecap="round" stroke-linejoin="round" stroke-width="2" transform="scale(.75)"/></svg>