<svg height="18" viewBox="0 0 18 18" width="18" xmlns="http://www.w3.org/2000/svg"><path d="m2.800781 3.804688-2.7773435 2.785156 4.2851565 4.300781-4.308594 4.324219 2.773438 2.785156 4.316406-4.324219 4.296875 4.292969 2.78125-2.785156zm0 0" fill="#53b9ff"/><path d="m9.878906 10.890625-2.789062 2.785156 4.296875 4.292969 2.78125-2.785156zm0 0" fill="#119eff"/><path d="m9.878906 10.890625-2.789062 2.785156 1.074218 1.066407zm0 0" fill-opacity=".2"/><path d="m13.679688 7.101562 4.320312-4.324218-2.78125-2.777344-4.320312 4.316406-4.296876-4.2929685-2.777343 2.7812505 11.363281 11.382812 2.78125-2.785156zm0 0" fill="#53b9ff"/><path d="m8.109375 7.101562 2.789063-2.785156-4.296876-4.2929685-2.777343 2.7812505zm0 0" fill="#119eff"/><path d="m8.109375 7.101562 2.789063-2.785156-1.070313-1.066406zm0 0" fill-opacity=".2"/></svg>