<svg height="18" viewBox="0 0 18 18" width="18" xmlns="http://www.w3.org/2000/svg"><path d="m7.496094 17.871094c-1.941406-.371094-3.496094-1.179688-4.839844-2.527344-2.925781-2.921875-3.484375-7.34375-1.378906-10.941406 1.191406-2.039063 3.183594-3.507813 5.621094-4.144532 1.144531-.3007808 3.058593-.3007808 4.203124 0 1.996094.523438 3.644532 1.554688 4.835938 3.035157.910156 1.128906 1.425781 2.160156 1.804688 3.605469.300781 1.144531.300781 3.058593 0 4.203124-.882813 3.375-3.273438 5.769532-6.628907 6.636719-.929687.242188-2.710937.308594-3.617187.132813m3.121094-3.507813c.652343-.265625 1.140624-.6875 1.578124-1.363281.300782-.460938.585938-1.253906.585938-1.632812 0-.195313-.03125-.207032-.632812-.207032-.703126 0-.699219-.003906-.898438.785156-.128906.511719-.589844 1.089844-1.078125 1.351563-.351563.1875-.503906.210937-1.132813.1875-.609374-.023437-.789062-.070313-1.089843-.269531-.4375-.289063-.882813-.941406-1.070313-1.554688-.335937-1.117187-.375-3.6875-.074218-4.996094.304687-1.347656 1.179687-2.160156 2.320312-2.164062 1.105469 0 1.898438.699219 2.214844 1.957031l.097656.382813h1.367188l-.058594-.421875c-.03125-.230469-.183594-.695313-.339844-1.03125-.851562-1.851563-3.058594-2.558594-5-1.605469-.894531.441406-1.574219 1.351562-1.976562 2.660156-.242188.789063-.242188 4.332032 0 5.121094.367187 1.191406 1.042968 2.164062 1.8125 2.617188.9375.546874 2.300781.621093 3.375.183593zm0 0"/></svg>