<svg height="18" viewBox="0 0 18 18" width="18" xmlns="http://www.w3.org/2000/svg"><path d="m13.136719 4.324219s-1.136719 1.304687-1.421875 1.15625l.550781-1.113281s-.550781 1.109374-1.289063.921874c.339844-.433593.472657-.835937.472657-.835937s-.566407.910156-1.265625.664063c-.164063-.054688.203125-.472657.203125-.472657s-.46875.457031-.789063.398438c-.324218-.054688.015625-.644531.015625-.644531s-.566406.890624-.679687.851562c-.113282-.035156.058594-.625.058594-.625s-.417969.683594-.644532.644531c-.226562-.035156 0-.699219 0-.699219s-.246094.738282-.4375.679688c-.1875-.054688-.226562-.492188-.226562-.492188s-.050782.59375-.320313.644532c-2.042969.398437-4.296875 1.269531-7.117187 4.089844 1.714844-.925782 2.765625-2.128907 4.617187-2.921876-.054687.230469-.085937.46875-.085937.710938 0 1.828125 1.652344 3.3125 3.691406 3.3125 2.035156 0 3.6875-1.484375 3.6875-3.3125 0-.441406-.09375-.859375-.269531-1.242188 1.832031.464844 2.8125 1.316407 3.21875 1.332032 1.777343.074218 2.894531-1.648438 2.894531-1.648438s-1.117188 1.289063-1.929688.976563c.726563-.425781 1.285157-1.464844 1.285157-1.464844s-1.417969 1.464844-2.402344 1.246094c.890625-.699219 1.324219-1.910157 1.324219-1.910157s-1.128906 1.742188-1.835938 1.816407c.8125-.71875 1.15625-1.742188 1.15625-1.742188s-.929687 1.363281-1.648437 1.457031c.964843-.867187 1.003906-1.417968 1.003906-1.417968s-1.335937 1.726562-1.875 1.457031c.644531-.699219 1.078125-1.589844 1.078125-1.589844s-1.117188 1.515625-1.417969 1.269531c-.207031-.039062.339844-.71875.339844-.71875s-.679687.605469-.871094.453126c.339844-.207032.929688-1.230469.929688-1.230469m-3.6875 1.410156c.316406.003906.613281.019531.898437.042969.222656.074218.433594.175781.609375.304687-.046875.203125-.113281.402344-.203125.589844-.023437-.007813-.046875-.007813-.070312-.007813-.078125 0-.152344.03125-.207032.085938-.058593.054688-.089843.128906-.085937.207031 0 .074219.023437.136719.066406.1875-.007812.011719-.019531.023438-.027343.03125l-.710938.257813-.003906-.007813.566406-.785156-.777344.519531c-.003906-.003906-.007812-.007812-.007812-.007812l.269531-.914063-.53125.75-.011719-.003906-.011718-.949219-.359376.863282-.296874-.871094.015624.921875c-.015624.003906-.035156.011719-.050781.015625l-.464843-.832032.265624.929688c-.007812.007812-.019531.011719-.027343.019531l-.648438-.472656c.042969-.082031.046875-.179687.011719-.269531.539062-.4375 1.269531-.652344 1.976562-.554688-.058593-.019531-.121093-.035156-.183593-.050781m-1.261719.058594c-.257812.082031-.5.207031-.714844.371093-.117187-.046874-.253906-.019531-.347656.070313s-.121094.226563-.078125.347656c-.117187.152344-.21875.320313-.300781.496094-.214844-.292969-.367188-.628906-.445313-.984375.554688-.136719 1.179688-.242188 1.886719-.300781m-1.9375.3125c.023438.433593.164062.847656.40625 1.207031-.023438.074219-.046875.152344-.0625.226562-.0625.269532-.074219.542969-.039062.8125-.148438.074219-.242188.222657-.242188.386719 0 .238281.191406.429688.425781.429688.023438 0 .046875-.003907.066407-.007813.113281.21875.261718.417969.433593.59375v.007813c-1.042969-.464844-1.769531-1.511719-1.769531-2.726563 0-.339844.128906-.601562.328125-.804687.148437-.042969.300781-.085938.453125-.125zm4.757812.015625c.265626.214844.445313.511718.445313.914062 0 .527344-.140625 1.023438-.378906 1.453125-.332031-.273437-.730469-.453125-1.152344-.519531.023437-.015625.042969-.03125.066406-.046875l.730469-.171875-.480469-.027344c.152344-.140625.285157-.296875.398438-.472656.015625.003906.03125.003906.046875.003906.164062 0 .296875-.132812.296875-.296875 0-.085937-.039063-.164062-.097657-.21875.066407-.195312.109376-.402343.125-.617187m-3.386718.535156.476562.601562c-.007812.011719-.019531.023438-.027344.039063l-.949218-.351563c.039062-.058593.074218-.117187.117187-.171874.136719.054687.296875.003906.382813-.117188zm-.5.292969.808594.597656-.003907.003906-.707031.023438c-.097656-.082031-.191406-.167969-.277344-.257813.046875-.128906.109375-.25.179688-.367187m3.183594.371093c-.132813.144532-.285157.273438-.453126.382813h-.039062v-.003906zm4.648437.1875c-.191406-.011718-.359375.058594-.445313.292969-.878906 1.671875-2.726562 2.609375-4.882812 2.921875-2.160156.3125-3.75-.140625-5.054688-.507812-1.71875-.484375-3.078124.375-4.570312-.371094.34375.273438.738281.539062 1.875.542969.382812 0 1.617188-.0625 1.84375.136719.226562.199218-.765625 1.136718-.765625 1.136718s1.679687-1.421875 1.84375-.9375c.101563.300782-.480469 1.109375-.480469 1.109375s.585938-.796875 1.019532-.964843c.300781-.117188.554687-.105469.769531.195312.140625.199219-.683594 1.164062-.683594 1.164062s1.109375-1.078124 1.308594-1.019531c.195312.054688 0 1.019531 0 1.019531s.40625-.976562.621093-1.050781c.300782-.097656-.679687 2.273438-.679687 2.273438s1.195313-2.195313 1.417969-2.242188c.386718-.085937.640625 1.53125.640625 1.53125s-.1875-1.414062.015625-1.503906c1.269531-.574219.539062 2.441406.539062 2.441406s.832032-2.046875.320313-2.5c1.347656.894531 1.183593 2.5 1.183593 2.5s.355469-.765625-.640624-2.648437c.539062-.027344 1.351562 1.398437 1.351562 1.398437s-.882812-1.558593-.285156-1.589843c1.183594-.054688 1.304687 2.074218 1.304687 2.074218s.355469-.296875-.59375-2.386718c.605469-.386719 2.070313 1.933593 2.070313 1.933593s-1.351563-2.261719-1.136719-2.414062c.21875-.152344 1.015625.71875 1.015625.71875s-.605469-.832031-.445312-.917969c.160156-.085938 1.769531 1.65625 1.769531 1.65625s-1.421875-1.703125-1.175781-1.914062c.148437-.121094.570312.105468.890624.3125-.449218-.320313-1.101562-.828126-.890624-.9375.4375-.226563 1.675781.542968 1.675781.542968s-.746094-.617187-.625-.769531c.125-.148437 1.589843.96875 1.589843.96875s-1.296874-1.023437-1.363281-1.28125c-.0625-.253906 1.023438.085937 1.023438.085937s-1.203125-.558593-1.21875-.71875c-.019531-.160156.792969.179688.792969.179688s-.527344-.433594-.945313-.460938m-.039063 2.390626c.222657.160156.398438.277343.398438.277343s-.175781-.132812-.398438-.277343m-8.050781-2.324219c.148438.160156.316407.300781.5.414062l-.480469.105469.78125.054688c.0625.027343.128907.054687.195313.074218l-.695313.445313c-.03125-.175781-.167968-.316407-.34375-.351563-.027343-.238281-.015624-.480468.035157-.71875.003906-.007812.003906-.015625.007812-.023437m.566407.148437.4375.113282v.042968l-.101563.023438c-.117187-.050782-.230469-.109375-.335937-.179688m2.367187.519532.246094.019531c.332031.070312.644531.207031.925781.402343-.535156.816407-1.457031 1.359376-2.507812 1.359376-.261719 0-.515626-.03125-.757813-.09375-.078125-.070313-.15625-.140626-.226563-.21875.132813-.339844.335938-.648438.597657-.898438l-.226563.839844.605469-.859375.015625.007812-.085938 1.011719.355469-.941406.300781.988281.074219-.996094.445313.851563-.253906-.949219.011718-.007813.796875.617188-.527343-.808594.898437.347656zm-1.824219.164062-.640625.8125.210938-.171875c-.09375.144531-.171875.304687-.230469.46875-.109375-.144531-.203125-.296875-.28125-.460937.085938-.082032.136719-.195313.136719-.316407 0-.011719 0-.027343-.003907-.039062zm0 0"/></svg>