<svg height="18" viewBox="0 0 18 18" width="18" xmlns="http://www.w3.org/2000/svg"><g fill="none" stroke="#fff" stroke-linecap="round" stroke-linejoin="round" stroke-width="2" transform="scale(.75)"><path d="m12 5c.671875 0 1.348958.088542 2 .260417 1.78125-2 5.03125-2.838542 6.421875-2.260417 1.395833.578125-.421875 7-.421875 7 .567708 1.067708 1 2.239583 1 3.4375 0 4.463542-4.03125 7.5625-9 7.5625s-9-3-9-7.5625c0-1.25.5-2.395833 1-3.4375 0 0-1.890625-6.421875-.5-7s4.71875.229167 6.5 2.229167c.65625-.151042 1.328125-.229167 2-.229167m-4 9v.5m8-.5v.5"/><path d="m11.25 16.25h1.5l-.75.75zm0 0"/></g></svg>