<svg height="18" viewBox="0 0 18 18" width="18" xmlns="http://www.w3.org/2000/svg"><g fill="none" stroke="#fff" stroke-linecap="round" stroke-linejoin="round" stroke-width="2" transform="scale(.75)"><path d="m3 3v16c0 1.104167.895833 2 2 2h16"/><path d="m16 5h2c.552083 0 1 .447917 1 1v10c0 .552083-.447917 1-1 1h-2c-.552083 0-1-.447917-1-1v-10c0-.552083.447917-1 1-1zm0 0"/><path d="m8 8h2c.552083 0 1 .447917 1 1v7c0 .552083-.447917 1-1 1h-2c-.552083 0-1-.447917-1-1v-7c0-.552083.447917-1 1-1zm0 0"/></g></svg>