<svg height="18" viewBox="0 0 18 18" width="18" xmlns="http://www.w3.org/2000/svg"><path d="m17 21c.552083 0 1-.447917 1-1v-5.348958c0-.458334.317708-.84375.729167-1.041667 1.755208-.838542 2.651041-2.817708 2.125-4.692708-.526042-1.875-2.322917-3.098959-4.260417-2.895834-.791667-1.833333-2.59375-3.026041-4.59375-3.026041s-3.802083 1.192708-4.59375 3.026041c-1.932292-.197916-3.734375 1.020834-4.260417 2.895834-.526041 1.869791.369792 3.854166 2.125 4.692708.411459.197917.729167.583333.729167 1.041667v5.348958c0 .552083.447917 1 1 1zm-11-4h12" fill="none" stroke="#fff" stroke-linecap="round" stroke-linejoin="round" stroke-width="2" transform="scale(.75)"/></svg>