<svg height="18" viewBox="0 0 18 18" width="18" xmlns="http://www.w3.org/2000/svg" xmlns:xlink="http://www.w3.org/1999/xlink"><linearGradient id="a" gradientUnits="userSpaceOnUse" x1="9.022896" x2="9.022896" y1="5.830793" y2="12.230557"><stop offset="0" stop-color="#81b4e0"/><stop offset="1" stop-color="#0c5a94"/></linearGradient><linearGradient id="b" gradientUnits="userSpaceOnUse" x1="9.29391" x2="9.29391" y1=".299112" y2="7.395473"><stop offset="0" stop-color="#f06b59"/><stop offset="1" stop-color="#df2227"/></linearGradient><linearGradient id="c" gradientUnits="userSpaceOnUse" x1="2.413825" x2="6.000887" y1="15.241222" y2="9.314724"><stop offset="0" stop-color="#388b41"/><stop offset="1" stop-color="#4cb749"/></linearGradient><linearGradient id="d" gradientUnits="userSpaceOnUse" x1="14.430233" x2="10.609171" y1="15.871644" y2="6.669851"><stop offset="0" stop-color="#e4b022"/><stop offset=".3" stop-color="#fcd209"/></linearGradient><linearGradient id="e"><stop offset="0" stop-opacity=".15"/><stop offset=".3" stop-opacity=".06"/><stop offset="1" stop-opacity=".03"/></linearGradient><linearGradient id="f" gradientUnits="userSpaceOnUse" x1="3.601267" x2="3.601267" xlink:href="#e" y1="9.968908" y2="3.730502"/><linearGradient id="g" gradientUnits="userSpaceOnUse" x1="12.212153" x2="7.923237" xlink:href="#e" y1="11.983501" y2="16.350472"/><linearGradient id="h" gradientUnits="userSpaceOnUse" x1="12.150003" x2="12.77395" xlink:href="#e" y1="13.24041" y2="7.079624"/><path d="m17.597656 9.03125c0 4.738281-3.839844 8.578125-8.578125 8.578125-4.734375 0-8.578125-3.839844-8.578125-8.578125 0-4.734375 3.84375-8.574219 8.578125-8.574219 4.738281 0 8.578125 3.839844 8.578125 8.574219zm0 0" fill="#fff"/><path d="m14.480469 10.59375c0-3.015625-2.445313-5.460938-5.460938-5.460938-3.011719 0-5.457031 2.445313-5.457031 5.460938h1.558594c0-2.15625 1.746094-3.898438 3.898437-3.898438 2.15625 0 3.902344 1.742188 3.902344 3.898438" fill-opacity=".1"/><path d="m12.375 10.125c0 1.636719-1.328125 2.964844-2.964844 2.964844-1.636718 0-2.960937-1.328125-2.960937-2.964844s1.324219-2.964844 2.960937-2.964844c1.636719 0 2.964844 1.328125 2.964844 2.964844zm0 0" fill-opacity=".1"/><path d="m12.21875 9.03125c0 1.769531-1.433594 3.199219-3.199219 3.199219s-3.195312-1.429688-3.195312-3.199219c0-1.765625 1.429687-3.195312 3.195312-3.195312s3.199219 1.429687 3.199219 3.195312zm0 0" fill="url(#a)"/><path d="m16.820312 5.132812c-2.148437-4.316406-7.390624-6.078124-11.710937-3.933593-1.34375.671875-2.496094 1.675781-3.339844 2.921875l3.507813 6.082031c-.644532-2.054687.496094-4.242187 2.550781-4.890625.359375-.113281.734375-.171875 1.113281-.179688" fill="url(#b)"/><path d="m1.769531 4.121094c-2.6875 4.007812-1.617187 9.429687 2.390625 12.117187 1.238282.832031 2.671875 1.332031 4.160156 1.449219l3.664063-6.238281c-1.371094 1.664062-3.828125 1.898437-5.488281.527343-.566406-.464843-.988282-1.078124-1.21875-1.773437" fill="url(#c)"/><path d="m8.320312 17.6875c4.808594.367188 9.003907-3.238281 9.367188-8.050781.117188-1.550781-.183594-3.105469-.867188-4.503907h-7.878906c2.15625.011719 3.894532 1.765626 3.882813 3.917969-.003907.871094-.300781 1.714844-.839844 2.398438" fill="url(#d)"/><path d="m1.769531 4.121094 3.507813 6.082031c-.257813-.875-.203125-1.8125.15625-2.652344l-3.507813-3.664062" fill="url(#f)"/><path d="m8.320312 17.6875 3.664063-6.238281c-.578125.691406-1.378906 1.160156-2.261719 1.328125l-1.558594 4.910156" fill="url(#g)"/><path d="m16.820312 5.132812h-7.878906c1.1875.007813 2.308594.550782 3.042969 1.484376l4.992187-1.25" fill="url(#h)"/></svg>