<svg height="18" viewBox="0 0 18 18" width="18" xmlns="http://www.w3.org/2000/svg"><path d="m10.098958 2.182292c1.255209-.244792 2.546875-.244792 3.802084 0m0 19.635416c-1.255209.244792-2.546875.244792-3.802084 0m7.510417-18.098958c1.0625.723958 1.973958 1.640625 2.6875 2.703125m-18.114583 7.479167c-.244792-1.255209-.244792-2.546875 0-3.802084m18.098958 7.510417c-.723958 1.0625-1.640625 1.973958-2.703125 2.6875m4.239583-10.197917c.244792 1.255209.244792 2.546875 0 3.802084m-18.098958-7.510417c.723958-1.0625 1.640625-1.973958 2.703125-2.6875m-.03125 16.578125c-1.0625-.723958-1.973958-1.640625-2.6875-2.703125" fill="none" stroke="#fff" stroke-linecap="round" stroke-linejoin="round" stroke-width="2" transform="scale(.75)"/></svg>