<svg height="18" viewBox="0 0 18 18" width="18" xmlns="http://www.w3.org/2000/svg"><path d="m12.234375 0h-6.46875c-3.171875 0-5.7460938 2.578125-5.7460938 5.761719v6.476562c0 3.183594 2.5742188 5.761719 5.7460938 5.761719h6.46875c3.171875 0 5.746094-2.578125 5.746094-5.761719v-6.476562c0-3.183594-2.574219-5.761719-5.746094-5.761719" fill="#13171a"/><path d="m5.414062 4.472656c.507813-.460937 1.175782-.699218 1.863282-.660156v.851562c-.453125-.023437-.890625.144532-1.207032.464844-.300781.425782-.445312.941406-.410156 1.460938v4.800781c-.035156.519531.109375 1.035156.410156 1.460937.3125.34375.765626.53125 1.234376.507813v.835937c-.6875.035157-1.355469-.207031-1.863282-.667968-.5-.5625-.75-1.308594-.683594-2.058594v-4.9375c-.070312-.746094.167969-1.488281.65625-2.058594" fill="#7e858b"/><path d="m8.398438 4.472656c.507812-.457031 1.175781-.695312 1.859374-.660156v.851562c-.449218-.023437-.890624.144532-1.210937.464844-.296875.425782-.441406.941406-.402344 1.460938v4.800781c-.039062.519531.105469 1.035156.402344 1.460937.316406.34375.769531.53125 1.234375.507813v.835937c-.691406.039063-1.371094-.203124-1.882812-.667968-.25-.28125-.4375-.605469-.550782-.960938-.117187-.351562-.164062-.726562-.128906-1.097656v-4.9375c-.066406-.75.179688-1.496094.679688-2.058594zm0 0" fill="#f7f8f9"/><path d="m11.390625 4.472656c.507813-.457031 1.175781-.695312 1.859375-.660156v.851562c-.449219-.023437-.894531.144532-1.210938.464844-.296874.433594-.433593.957032-.382812 1.480469v4.78125c-.039062.519531.105469 1.035156.402344 1.460937.316406.34375.769531.527344 1.234375.507813v.835937c-.683594.03125-1.351563-.207031-1.859375-.667968-.507813-.5625-.765625-1.304688-.707032-2.058594v-4.9375c-.066406-.75.171876-1.492188.664063-2.058594zm0 0" fill="#7e858b"/></svg>