<svg height="18" viewBox="0 0 18 18" width="18" xmlns="http://www.w3.org/2000/svg" xmlns:xlink="http://www.w3.org/1999/xlink"><linearGradient id="a" gradientTransform="matrix(.171429 .00031117 -.00031117 .171429 0 0)" gradientUnits="userSpaceOnUse" x1="39.009998" x2="66.510002" y1="23.27" y2="23.27"><stop offset="0" stop-color="#ff318c"/><stop offset=".15" stop-color="#fb348c"/><stop offset=".28" stop-color="#f03c8c"/><stop offset=".42" stop-color="#de4a8c"/><stop offset=".54" stop-color="#c45d8b"/><stop offset=".67" stop-color="#a2778b"/><stop offset=".79" stop-color="#79958a"/><stop offset=".91" stop-color="#49b98a"/><stop offset="1" stop-color="#21d789"/></linearGradient><linearGradient id="b"><stop offset=".09" stop-color="#21d789"/><stop offset=".9" stop-color="#009ae5"/></linearGradient><linearGradient id="c" gradientTransform="matrix(.171429 .00031117 -.00031117 .171429 0 0)" gradientUnits="userSpaceOnUse" x1="27.99" x2="13.87" xlink:href="#b" y1="16.68" y2="111.419998"/><linearGradient id="d" gradientTransform="matrix(.171429 .00031117 -.00031117 .171429 0 0)" gradientUnits="userSpaceOnUse" x1="92.050003" x2="-4.53" xlink:href="#b" y1="13.4" y2="115.400002"/><linearGradient id="e" gradientTransform="matrix(.171429 .00031117 -.00031117 .171429 0 0)" gradientUnits="userSpaceOnUse" x1="62.84" x2="95.870003" xlink:href="#b" y1="77.019997" y2="81.720001"/><path d="m6.6875 7.207031.355469-6.4375 3.742187 2.074219zm0 0" fill="url(#a)"/><path d="m6.6875 7.207031.355469-6.4375-4.75 2.996094-1.523438 9.105469zm0 0" fill="url(#c)"/><path d="m16.902344 5.703125-2.117188-4.304687-4 1.445312-4.097656 4.363281-5.917969 5.664063 5.339844 3.882812 6.707031-6.046875zm0 0" fill="url(#d)"/><path d="m14.144531 10.207031v3.9375h-6.464843l2.839843 2.195313 4.117188.890625 2.59375-5.875zm0 0" fill="url(#e)"/><path d="m3.855469 3.855469h10.289062v10.289062h-10.289062zm0 0"/><path d="m5.140625 12.199219h3.855469v.644531h-3.855469zm3.867187-7.066407h.859376v3.152344h1.6875v.714844h-2.546876zm-4.144531 1.960938v-.011719c-.007812-.539062.203125-1.058593.585938-1.441406.382812-.378906.90625-.585937 1.445312-.570313.570313-.03125 1.128907.1875 1.53125.597657l-.539062.628906c-.261719-.269531-.621094-.425781-.996094-.4375-.65625 0-1.128906.542969-1.128906 1.210937v.011719c0 .667969.460937 1.222657 1.128906 1.222657.445313 0 .714844-.171876 1.027344-.457032l.535156.550782c-.398437.460937-.988281.714843-1.597656.6875-.53125.007812-1.042969-.199219-1.417969-.574219s-.582031-.886719-.574219-1.417969" fill="#fff"/></svg>