<svg height="18" viewBox="0 0 18 18" width="18" xmlns="http://www.w3.org/2000/svg"><g fill="none" stroke="#fff" stroke-linecap="round" stroke-linejoin="round" stroke-width="2" transform="scale(.75)"><path d="m9 2h6c.552083 0 1 .447917 1 1v2c0 .552083-.447917 1-1 1h-6c-.552083 0-1-.447917-1-1v-2c0-.552083.447917-1 1-1zm0 0"/><path d="m8 4h-2c-1.104167 0-2 .895833-2 2v14c0 1.104167.895833 2 2 2h12c1.104167 0 2-.895833 2-2v-.5m-4-15.5h2c.713542 0 1.375.380208 1.729167 1m-11.729167 13h1"/><path d="m21.380208 12.625c.828125-.828125.828125-2.171875 0-3.005208-.833333-.828125-2.177083-.828125-3.005208 0l-4.010417 4.015625c-.239583.234375-.411458.53125-.505208.854166l-.838542 2.869792c-.052083.171875 0 .364583.125.489583.130209.130209.317709.182292.494792.130209l2.869792-.838542c.322916-.09375.614583-.265625.854166-.505208zm0 0"/></g></svg>