<svg height="18" viewBox="0 0 18 18" width="18" xmlns="http://www.w3.org/2000/svg"><path d="m5 11.214844c-.539062 0-.945312-.15625-1.222656-.472656-.28125-.3125-.421875-.765626-.421875-1.351563 0-.597656.144531-1.058594.4375-1.382813.292969-.320312.710937-.484374 1.265625-.484374.375 0 .714844.070312 1.011718.210937l-.230468.605469c-.316406-.121094-.582032-.1875-.789063-.1875-.613281 0-.917969.410156-.917969 1.226562 0 .398438.074219.695313.226563.902344.152344.199219.378906.300781.675781.300781.335938 0 .652344-.085937.953125-.25v.65625c-.136719.082031-.277343.136719-.433593.171875-.152344.039063-.335938.054688-.554688.054688m3.070312-.0625h-.753906v-5.007813h.753906zm0 0" fill="#96ca4b"/><path d="m9.277344 12.730469c-.222656 0-.414063-.023438-.5625-.078125v-.601563c.144531.039063.296875.058594.445312.0625.324219 0 .484375-.183593.484375-.550781v-3.972656h.753907v4.023437c0 .367188-.097657.648438-.289063.835938-.195313.191406-.46875.28125-.832031.28125zm.320312-6.082031c0-.136719.039063-.238282.109375-.308594.074219-.074219.179688-.109375.316407-.109375.132812 0 .238281.035156.3125.109375.070312.070312.109374.179687.109374.308594 0 .128906-.039062.230468-.109374.308593-.074219.070313-.179688.109375-.308594.109375-.136719 0-.242188-.039062-.320313-.109375-.074219-.078125-.109375-.179687-.109375-.308593m4.753906 3.492187c0 .347656-.128906.609375-.378906.796875-.253906.1875-.613281.277344-1.085937.277344-.472657 0-.851563-.074219-1.140625-.21875v-.652344c.417968.191406.804687.289062 1.167968.289062.460938 0 .695313-.140624.695313-.421874 0-.089844-.027344-.164063-.078125-.226563-.050781-.058594-.136719-.121094-.253906-.183594-.117188-.066406-.28125-.136719-.492188-.21875-.40625-.15625-.6875-.320312-.832031-.476562s-.214844-.363281-.214844-.617188c0-.304687.121094-.539062.367188-.707031.246093-.171875.578125-.25 1.003906-.25.414063 0 .808594.082031 1.179687.253906l-.246093.570313c-.378907-.160157-.703125-.238281-.964844-.238281-.398437 0-.597656.113281-.597656.339843 0 .109375.050781.203125.15625.285157.101562.074218.332031.179687.679687.316406.292969.117187.503906.21875.640625.3125.128907.09375.226563.203125.296875.324218.0625.121094.097656.269532.097656.445313zm0 0" fill="#5f7fbf"/><g stroke-width="6" transform="scale(.140625)"><path d="m58.166667 117.861111c-27.5-2.444444-49.138889-25.694444-49.138889-53.888889 0-28.194444 21.638889-51.416666 49.138889-53.861111v-6.083333c-30.833334 2.472222-55.166667 28.416666-55.166667 59.972222s24.333333 57.5 55.166667 59.972222zm0 0" fill="#96ca4b" stroke="#96ca4b"/><path d="m67.833333 4.027778v6.083333c27.5 2.444445 49.138889 25.694445 49.138889 53.888889s-21.638889 51.444444-49.138889 53.888889v6.083333c30.833334-2.472222 55.166667-28.416666 55.166667-59.972222s-24.333333-57.5-55.166667-59.972222zm0 0" fill="#5f7fbf" stroke="#5f7fbf"/></g></svg>