<svg height="18" viewBox="0 0 18 18" width="18" xmlns="http://www.w3.org/2000/svg"><g fill="#96ca4b"><path d="m5 11.214844c-.539062 0-.945312-.15625-1.222656-.472656-.28125-.3125-.421875-.765626-.421875-1.351563 0-.597656.144531-1.058594.4375-1.382813.292969-.320312.710937-.484374 1.265625-.484374.375 0 .714844.070312 1.011718.210937l-.230468.605469c-.316406-.121094-.582032-.1875-.789063-.1875-.613281 0-.917969.410156-.917969 1.226562 0 .398438.074219.695313.226563.902344.152344.199219.378906.300781.675781.300781.335938 0 .652344-.085937.953125-.25v.65625c-.136719.082031-.277343.136719-.433593.171875-.152344.039063-.335938.054688-.554688.054688m3.070312-.0625h-.753906v-5.007813h.753906zm1.207032 1.578125c-.222656 0-.414063-.023438-.5625-.078125v-.601563c.144531.039063.296875.058594.445312.0625.324219 0 .484375-.183593.484375-.550781v-3.972656h.753907v4.023437c0 .367188-.097657.648438-.289063.835938-.195313.191406-.46875.28125-.832031.28125zm.320312-6.082031c0-.136719.039063-.238282.109375-.308594.074219-.074219.179688-.109375.316407-.109375.132812 0 .238281.035156.3125.109375.070312.070312.109374.179687.109374.308594 0 .128906-.039062.230468-.109374.308593-.074219.070313-.179688.109375-.308594.109375-.136719 0-.242188-.039062-.320313-.109375-.074219-.078125-.109375-.179687-.109375-.308593m4.753906 3.492187c0 .347656-.128906.609375-.378906.796875-.253906.1875-.613281.277344-1.085937.277344-.472657 0-.851563-.074219-1.140625-.21875v-.652344c.417968.191406.804687.289062 1.167968.289062.460938 0 .695313-.140624.695313-.421874 0-.089844-.027344-.164063-.078125-.226563-.050781-.058594-.136719-.121094-.253906-.183594-.117188-.066406-.28125-.136719-.492188-.21875-.40625-.15625-.6875-.320312-.832031-.476562s-.214844-.363281-.214844-.617188c0-.304687.121094-.539062.367188-.707031.246093-.171875.578125-.25 1.003906-.25.414063 0 .808594.082031 1.179687.253906l-.246093.570313c-.378907-.160157-.703125-.238281-.964844-.238281-.398437 0-.597656.113281-.597656.339843 0 .109375.050781.203125.15625.285157.101562.074218.332031.179687.679687.316406.292969.117187.503906.21875.640625.3125.128907.09375.226563.203125.296875.324218.0625.121094.097656.269532.097656.445313zm0 0"/><path d="m8.179688 16.574219c-3.867188-.34375-6.910157-3.613281-6.910157-7.578125s3.042969-7.230469 6.910157-7.574219v-.855469c-4.335938.347656-7.757813 3.996094-7.757813 8.433594s3.421875 8.085938 7.757813 8.433594zm1.359374-16.007813v.855469c3.867188.34375 6.910157 3.613281 6.910157 7.578125s-3.042969 7.234375-6.910157 7.578125v.855469c4.335938-.347656 7.757813-3.996094 7.757813-8.433594s-3.421875-8.085938-7.757813-8.433594"/><path d="m8.601562.109375-.453124.035156c-4.554688.367188-8.148438 4.199219-8.148438 8.855469s3.59375 8.488281 8.148438 8.855469l.453124.035156v-1.703125l-.382812-.03125c-3.652344-.328125-6.527344-3.410156-6.527344-7.160156s2.875-6.828125 6.527344-7.15625l.382812-.03125zm.515626 0v1.699219l.382812.03125c3.652344.328125 6.527344 3.410156 6.527344 7.160156s-2.875 6.832031-6.527344 7.160156l-.382812.03125v1.699219l.453124-.035156c4.554688-.367188 8.148438-4.199219 8.148438-8.855469s-3.59375-8.488281-8.148438-8.855469zm-1.359376.9375v.007813c-3.894531.539062-6.910156 3.890624-6.910156 7.941406 0 4.046875 3.015625 7.40625 6.910156 7.945312v.011719c-3.898437-.539063-6.914062-3.890625-6.914062-7.953125s3.015625-7.414062 6.914062-7.953125m2.203126 0c3.898437.539063 6.914062 3.890625 6.914062 7.953125s-3.015625 7.414062-6.914062 7.953125v-.007813c3.894531-.539062 6.910156-3.898437 6.910156-7.945312s-3.015625-7.40625-6.910156-7.945312zm0 0"/></g></svg>