<svg height="18" viewBox="0 0 18 18" width="18" xmlns="http://www.w3.org/2000/svg"><path d="m12 2v2m-7.067708.932292 1.40625 1.40625m13.661458 5.661458h2m-2.932292-7.067708-1.40625 1.40625m-1.713541 6.3125c.25-1.520834-.395834-3.052084-1.661459-3.932292-1.265625-.885417-2.921875-.958333-4.265625-.197917m2.979167 13.479167h-6c-2.630208 0-4.8125-2.041667-4.989583-4.666667-.171875-2.625 1.713541-4.9375 4.322916-5.286458 2.604167-.354167 5.041667 1.375 5.567709 3.953125h1.098958c1.65625 0 3 1.34375 3 3s-1.34375 3-3 3" fill="none" stroke="#fff" stroke-linecap="round" stroke-linejoin="round" stroke-width="2" transform="scale(.75)"/></svg>