<svg height="18" viewBox="0 0 18 18" width="18" xmlns="http://www.w3.org/2000/svg" xmlns:xlink="http://www.w3.org/1999/xlink"><filter id="a" height="100%" width="100%" x="0%" y="0%"><feColorMatrix color-interpolation-filters="sRGB" values="0 0 0 0 1 0 0 0 0 1 0 0 0 0 1 0 0 0 1 0"/></filter><linearGradient id="b" gradientTransform="matrix(21.928486 0 0 -51.229686 16.752375 6609.529358)" gradientUnits="userSpaceOnUse" x1="-.556" x2="-.628" y1="128.705002" y2="128.977005"><stop offset="0" stop-color="#eb6f07"/><stop offset="1" stop-color="#fab743"/></linearGradient><linearGradient id="c" gradientTransform="matrix(21.052251 0 0 -27.39375 18.504843 3558.529358)" gradientUnits="userSpaceOnUse" x1="-.594" x2="-.715" y1="129.358002" y2="129.518997"><stop offset="0" stop-color="#d96504"/><stop offset="1" stop-color="#d96504" stop-opacity="0"/></linearGradient><linearGradient id="d" gradientTransform="matrix(13.471875 0 0 -14.217187 33.665624 1834.91716)" gradientUnits="userSpaceOnUse" x1="-2.234" x2="-2.109" y1="128.901001" y2="128.688995"><stop offset="0" stop-color="#eb6f07"/><stop offset="1" stop-color="#eb720a" stop-opacity="0"/></linearGradient><linearGradient id="e" gradientTransform="matrix(29.246485 0 0 -52.734375 38.67539 6802.875)" gradientUnits="userSpaceOnUse" x1="-.847" x2="-.919" y1="128.688004" y2="128.960007"><stop offset="0" stop-color="#ee6f05"/><stop offset="1" stop-color="#fab743"/></linearGradient><linearGradient id="f" gradientTransform="matrix(16.721733 0 0 -52.748438 50.778281 6804.689392)" gradientUnits="userSpaceOnUse" x1="-2.602" x2="-2.229" y1="128.679001" y2="128.977005"><stop offset="0" stop-color="#d96504" stop-opacity=".8"/><stop offset=".498" stop-color="#d96504" stop-opacity=".2"/><stop offset="1" stop-color="#d96504" stop-opacity="0"/></linearGradient><linearGradient id="g" gradientTransform="matrix(28.301779 0 0 -52.734375 25.416984 6802.875)" gradientUnits="userSpaceOnUse" x1="-.561" x2="-.634" y1="128.688004" y2="128.960007"><stop offset="0" stop-color="#ffa95f"/><stop offset="1" stop-color="#ffebc8"/></linearGradient><linearGradient id="h"><stop offset="0" stop-color="#fff" stop-opacity=".5"/><stop offset="1" stop-color="#fff" stop-opacity=".1"/></linearGradient><linearGradient id="i" gradientTransform="matrix(15.36428 0 0 -52.734375 51.291986 6802.875)" gradientUnits="userSpaceOnUse" x1="-2.816" x2="-2.552" xlink:href="#h" y1="128.860992" y2="128.718994"/><linearGradient id="j" gradientTransform="matrix(15.08303 0 0 -52.228124 38.635736 6737.79364)" gradientUnits="userSpaceOnUse" x1="-2.34" x2="-2.001" xlink:href="#h" y1="128.779007" y2="128.951996"/><mask id="k"><g filter="url(#a)"><path d="m-1.8-1.8h21.6v21.6h-21.6z" fill-opacity=".7"/></g></mask><mask id="l"><g filter="url(#a)"><path d="m-1.8-1.8h21.6v21.6h-21.6z" fill-opacity=".5"/></g></mask><mask id="m"><g filter="url(#a)"><path d="m-1.8-1.8h21.6v21.6h-21.6z" fill-opacity=".6"/></g></mask><mask id="n"><g filter="url(#a)"><path d="m-1.8-1.8h21.6v21.6h-21.6z" fill-opacity=".6"/></g></mask><clipPath id="o"><path d="m0 0h18v18h-18z"/></clipPath><clipPath id="p"><path d="m0 0h18v18h-18z"/></clipPath><clipPath id="q"><path d="m0 0h18v18h-18z"/></clipPath><clipPath id="r"><path d="m0 0h18v18h-18z"/></clipPath><path d="m4.765625 1.363281 2.054687 3.707031-1.886718 3.394532c-.183594.332031-.183594.730468 0 1.0625l1.886718 3.402344-2.054687 3.707031c-.386719-.191407-.707031-.492188-.921875-.867188l-3.273438-5.679687c-.386718-.675782-.386718-1.507813 0-2.183594l3.273438-5.679688c.214844-.371093.535156-.671874.921875-.863281" fill="url(#b)"/><path d="m14.15625 2.226562 3.269531 5.679688c.390625.675781.390625 1.507812 0 2.179688l-3.269531 5.683593c-.390625.671875-1.109375 1.089844-1.886719 1.089844h-3.269531l4.066406-7.332031c.183594-.328125.183594-.730469 0-1.058594l-4.066406-7.332031h3.269531c.777344 0 1.496094.414062 1.886719 1.089843" fill="url(#e)"/><path d="m12.101562 16.832031-3.226562.03125 3.90625-7.371093c.175781-.332032.175781-.730469 0-1.066407l-3.90625-7.289062h.734375l4.101563 7.257812c.199218.347657.195312.777344-.003907 1.125-.882812 1.53125-1.757812 3.070313-2.628906 4.609375-.796875 1.402344-.453125 2.300782 1.023437 2.703125" fill="url(#f)"/><path d="m5.730469 16.859375c-.335938 0-.671875-.078125-.964844-.222656l4.03125-7.273438c.125-.226562.125-.503906 0-.730469l-4.03125-7.269531c.296875-.148437.628906-.226562.964844-.226562h3.269531l4.066406 7.332031c.183594.328125.183594.730469 0 1.058594l-4.066406 7.332031zm0 0" fill="url(#g)"/><g mask="url(#k)"><g clip-path="url(#o)"><path d="m4.933594 8.46875c-.183594.328125-.183594.730469 0 1.058594l1.886718 3.402344-2.054687 3.707031c-.386719-.191407-.707031-.492188-.921875-.867188l-3.273438-5.679687c-.257812-.449219 1.195313-.988282 4.363282-1.617188zm0 0" fill="url(#c)"/></g></g><g mask="url(#l)"><g clip-path="url(#p)"><path d="m4.972656 1.734375 1.847656 3.335937-.308593.53125-1.625-2.753906c-.46875-.765625-1.1875-.371094-2.085938 1.183594l.136719-.230469.90625-1.574219c.210938-.371093.53125-.671874.914062-.863281l.210938.371094zm0 0" fill="url(#d)"/></g></g><g mask="url(#m)"><g clip-path="url(#q)"><path d="m12.78125 8.632812-4.160156-7.496093h.378906l4.066406 7.332031c.183594.328125.183594.730469 0 1.058594l-4.066406 7.332031h-.378906l4.160156-7.496094c.125-.226562.125-.503906 0-.730469" fill="url(#i)"/></g></g><g mask="url(#n)"><g clip-path="url(#r)"><path d="m8.796875 8.632812-4.03125-7.269531c.125-.066406.277344-.117187.417969-.160156.890625 1.597656 2.203125 4.023437 3.941406 7.265625.183594.328125.183594.730469 0 1.058594l-4.003906 7.246094c-.144532-.039063-.21875-.070313-.351563-.132813l4.023438-7.273437c.125-.226563.125-.503907 0-.730469zm0 0" fill="url(#j)"/></g></g></svg>