<svg height="18" viewBox="0 0 18 18" width="18" xmlns="http://www.w3.org/2000/svg"><path d="m12 2v2m-7.067708.932292 1.40625 1.40625m13.661458 5.661458h2m-2.932292-7.067708-1.40625 1.40625m-1.713541 6.3125c.25-1.520834-.395834-3.052084-1.661459-3.932292-1.265625-.885417-2.921875-.958333-4.265625-.197917m-7.020833 11.479167c-1.229167-1.640625-1.333333-3.869792-.260417-5.614583 1.078125-1.75 3.109375-2.666667 5.130209-2.307292 2.020833.354167 3.619791 1.911458 4.03125 3.921875h1.098958c1.244792 0 2.364583.765625 2.807292 1.932292.442708 1.161458.125 2.479166-.807292 3.307291m-4-1.239583v2m-4-3v2" fill="none" stroke="#fff" stroke-linecap="round" stroke-linejoin="round" stroke-width="2" transform="scale(.75)"/></svg>