<svg height="18" viewBox="0 0 18 18" width="18" xmlns="http://www.w3.org/2000/svg"><path d="m17.28125 9.052083c.65625-2.25-.1875-4.666666-2.09375-6.026041-1.90625-1.354167-4.46875-1.354167-6.375 0-1.90625 1.359375-2.75 3.776041-2.09375 6.026041-2.484375.354167-4.411458 2.348959-4.682292 4.84375-.276041 2.494792 1.177084 4.854167 3.520834 5.744792 2.348958.885417 5 .072917 6.442708-1.979167 1.442708 2.057292 4.09375 2.875 6.442708 1.989584 2.354167-.885417 3.802084-3.25 3.53125-5.744792-.276041-2.5-2.208333-4.494792-4.692708-4.84375zm-5.28125 8.609375v4.338542" fill="none" stroke="#fff" stroke-linecap="round" stroke-linejoin="round" stroke-width="2" transform="scale(.75)"/></svg>