<svg height="18" viewBox="0 0 18 18" width="18" xmlns="http://www.w3.org/2000/svg"><path d="m9 0c-.15625 0-.316406.046875-.464844.136719v.003906l-8.164062 5.441406c-.230469.152344-.371094.421875-.371094.695313v5.445312c0 .273438.140625.542969.371094.695313l8.164062 5.445312c.296875.183594.628906.183594.929688 0l8.164062-5.445312c.230469-.152344.371094-.421875.371094-.695313v-5.445312c0-.273438-.140625-.542969-.371094-.695313l-8.164062-5.445312c-.148438-.089844-.304688-.136719-.464844-.136719m0 .136719c.132812 0 .261719.039062.390625.121093l8.160156 5.441407c.1875.125.308594.355469.308594.578125v5.445312c0 .222656-.121094.453125-.308594.578125l-8.160156 5.441407c-.261719.160156-.523437.160156-.78125 0l-8.160156-5.441407c-.1875-.125-.308594-.355469-.308594-.578125v-5.445312c0-.222656.121094-.453125.308594-.578125l8.160156-5.441407c.128906-.082031.261719-.121093.390625-.121093m-.695312 2.003906-.109376.070313-6.097656 4.066406 2.804688 1.878906 3.402344-2.269531zm1.433593.027344-.042969.085937v3.632813l3.402344 2.269531 2.804688-1.878906zm-1.574219.234375v3.410156l-3.261718 2.175781-2.554688-1.710937zm1.671876 0 5.8125 3.875-2.550782 1.710937-3.261718-2.175781zm-.835938 4.699218-2.835938 1.898438 2.835938 1.898438.039062-.027344 2.796876-1.871094zm0 .167969 2.585938 1.730469-2.585938 1.730469-2.585938-1.730469zm-7.464844.3125v2.835938l2.121094-1.417969zm14.929688 0-2.121094 1.417969 2.121094 1.417969zm-14.789063.261719 1.726563 1.15625-1.726563 1.152344zm14.648438 0v2.308594l-1.726563-1.152344zm-11.421875 2-2.804688 1.878906 6.203125 4.136719.003907-.132813v-3.613281zm8.195312 0-3.402344 2.269531v3.660157l.039063.015624.039063.019532 6.128906-4.085938zm-8.195312.167969 3.261718 2.175781v3.410156l-5.816406-3.875zm8.195312 0 2.550782 1.710937-5.8125 3.875v-3.410156zm0 0"/></svg>