<svg height="18" viewBox="0 0 18 18" width="18" xmlns="http://www.w3.org/2000/svg"><path d="m15.59375 5.710938-2.777344-2.585938v-.535156l-1.601562-1.601563-1.285156.601563h-.019532l-.222656.457031-2.15625-.007813-2.113281-.980468h-1.148438l-.519531 1.113281v2.140625l-.667969.667969-.589843-.0625v1.050781l-2.195313 1.027344v1.675781l.5625 1.199219.46875.046875.566406 1.21875 1.261719.109375 1.148438 1.136718.46875.464844 4.191406 4.164063h2.089844l6.648437-11.300781zm-11.109375-3.386719.265625-.582031h.824219l1.210937.582031-1.4375.664062-.375-.816406h-.277344v1.191406l-.222656.222657zm5.058594 11.546875-1.75-1.753906h-2.765625l-1.507813-1.539063-1.179687-.101563-.222656-.496093h2.375l1.207031-1.203125-1.617188.753906-2.761719-.285156-.339843-.734375v-.730469l.652343.066406.222657.539063.242187.5625 1.148438-1.152344-.910156.089844-.246094-.601563-.679688-.066406 2.765625-1.289062.152344.015624.605469 1.300782 2.03125.179687.902344-1.957031-.890626-.089844-.589843 1.257813v-1.316407l-2.445313-.257812 1.273438-1.273438 2.316406-1.070312 1.851562.011719-.542968 1.171875h.488281l.765625-1.640625.976562-.457031 1.066407 1.066406v2.671875l.679687.316406v-1.78125l2.46875 2.082031zm.945312-8.066406.695313.324218v-2.566406l-1.625.757812h.929687zm0 0" fill="#005096"/></svg>