<svg height="18" viewBox="0 0 18 18" width="18" xmlns="http://www.w3.org/2000/svg"><g fill="none" stroke="#fff" stroke-linecap="round" stroke-linejoin="round" stroke-width="2" transform="scale(.75)"><path d="m10 18h-5c-1.65625 0-3-1.34375-3-3v-1m12-12c1.104167 0 2 .895833 2 2v4c0 1.104167-.895833 2-2 2m6-8c1.104167 0 2 .895833 2 2v4c0 1.104167-.895833 2-2 2"/><path d="m7 21 3-3-3-3"/><path d="m16 14h4c1.104167 0 2 .895833 2 2v4c0 1.104167-.895833 2-2 2h-4c-1.104167 0-2-.895833-2-2v-4c0-1.104167.895833-2 2-2zm0 0"/><path d="m4 2h4c1.104167 0 2 .895833 2 2v4c0 1.104167-.895833 2-2 2h-4c-1.104167 0-2-.895833-2-2v-4c0-1.104167.895833-2 2-2zm0 0"/></g></svg>