<svg height="18" viewBox="0 0 18 18" width="18" xmlns="http://www.w3.org/2000/svg"><path d="m6.375 17.984375c-.074219-.066406-.027344-.246094.105469-.40625.078125-.09375.265625-.363281.410156-.59375.332031-.511719.457031-.632813.574219-.5625.070312.046875.082031.121094.074218.390625l-.015624.34375.140624-.171875c.265626-.34375.515626-.589844.601563-.589844.1875 0 .214844.121094.140625.570313-.054688.328125-.054688.441406-.011719.515625.128907.207031.019531.390625-.230469.390625-.160156 0-.21875-.171875-.179687-.511719l.035156-.300781-.113281.140625c-.257812.347656-.503906.5625-.644531.5625s-.152344-.027344-.195313-.316407c-.011718-.0625-.082031 0-.246094.238282-.210937.316406-.351562.402344-.445312.300781"/><path d="m5.410156 17.792969c-.097656-.125-.109375-.183594-.089844-.421875.019532-.316406.15625-.617188.378907-.84375.140625-.140625.21875-.1875.351562-.1875.078125.003906.15625-.011719.226563-.050782.097656-.101562.304687 0 .394531.167969.234375.503907-.324219 1.363281-.957031 1.445313-.171875.027344-.210938.015625-.304688-.109375m.65625-.355469c.15625-.160156.246094-.367188.261719-.589844-.011719-.101562-.046875-.140625-.152344-.148437-.222656-.023438-.421875.203125-.503906.574219-.054687.289062.148437.375.394531.164062"/><path d="m9.84375 17.800781c-.140625-.140625-.132812-.589843.019531-.914062.132813-.292969.324219-.457031.886719-.78125.234375-.140625.410156-.257813.390625-.28125-.019531-.027344-.101563-.054688-.175781-.089844-.125-.054687-.15625-.035156-.597656.375-.347657.3125-.480469.476563-.523438.613281-.058594.207032-.304688.410156-.65625.546875-.195312.074219-.226562.109375-.28125.296875-.054688.21875-.171875.304688-.328125.242188-.109375-.039063-.085937-.222656.125-.859375.074219-.199219.136719-.40625.1875-.613281-.007813-.011719-.578125-.128907-1.265625-.273438l-1.253906-.253906-1.242188-.023438c-.976562-.015625-1.246094-.035156-1.246094-.085937 0-.082031.121094-.109375.886719-.175781.695313-.054688 1.398438-.042969 2.09375.035156.253907.023437.328125.019531.289063-.027344-.101563-.113281-2.382813-.714844-2.609375-.683594-.113281.015625-.097657.027344.15625.230469.167969.132813.257812.230469.21875.242187-.09375.035157-1.183594-.542968-1.183594-.625 0-.058593.101563-.066406.65625-.039062.339844.015625.679687.050781 1.019531.101562.128906.035157.261719.050782.394532.046876.011718-.011719-.039063-.078126-.113282-.140626-.113281-.097656-.132812-.140624-.109375-.28125.027344-.164062.027344-.164062-1.003906-.921874-.617187-.449219-1.039063-.792969-1.039063-.84375 0-.140626-.125-.257813-.351562-.339844l-.214844-.082032-.03125-.785156c-.019531-.433594-.035156-1.214844-.039062-1.738281 0-.890625-.007813-.960937-.113282-1.09375-.105468-.132813-.101562-.171875-.054687-.421875.058594-.320312.039063-.359375-.210937-.359375-.253907 0-.273438-.046875-.191407-.90625.042969-.433594.082031-.796875.097657-.808594.21875.015625.433593.058594.640624.125.089844.023438.113282-.011719.1875-.28125l.082032-.3125-.152344-.339843c-.121094-.269532-.167969-.332032-.238281-.304688-.15625.042969-.28125-.324219-.136719-.402344.058594-.035156.035156-.160156-.140625-.734375-.527344-1.6875-.605469-2.277343-.3125-2.285156.101563 0 .316406.257813.539063.652344.371093.652343.324218.632812.5625.246093.523437-.84375.691406-.984374.933593-.832031.066407.042969.140625.070313.21875.078125.140625 0 .984375-.3125 1.394531-.527344.410157-.210937.5625-.199218.542969.035157 0 .148437-.058593.222656-.390625.527343l-.378906.355469.089844.300781c.027344.113282.074218.226563.140625.324219.464843-.242187.914062-.507812 1.351562-.792969.71875-.449218 1.34375-.808593 1.390625-.800781.046875.015625.078125.058594.078125.105469 0 .070312-.234375.246094-.84375.640625-.46875.300781-.820312.5625-.789062.5625.0625.03125.117187.074219.167969.121094.1875.167969.140624.324219-.214844.703125-.402344.410156-.566406.664062-.925782 1.394531-.28125.5625-.355468.640625-.757812.84375-.152344.074219-.210938.140625-.210938.210937-.003906.074219-.03125.140626-.078124.191407-.101563.109375-.28125.742187-.226563.789062.160156.058594.324219.105469.492187.140625.15625.027344.308594.074219.453126.140625 0 .070313-.296876 1.1875-.324219 1.238281-.015625.023438-.078125.03125-.148438.015626-.097656-.027344-.117187-.015626-.113281.082031.003906.082031.019531.160156.039062.238281.027344.101562.054688.078125.222657-.234375.320312-.511719.710937-.976563 1.160156-1.382813.210937-.152343.433594-.289062.664063-.410156.277343-.167968.589843-.269531.914062-.292968.25-.039063.503906-.039063.753906 0 .421875.078124.964844.359374 1.1875.609374l.191406.210938h.472657c.40625 0 .503906.019531.722656.140625.140625.074219.277344.164063.402344.261719.308593.289062.570312.628906.769531 1.003906.085938.175781.125.226562.140625.164062-.007813-.113281-.042969-.222656-.101563-.316406l-.128906-.230468.097656-.1875c.054688-.109376.101563-.214844.113282-.234376.007812-.019531-.03125-.019531-.089844.015626-.058594.035156-.128906.039062-.140625.015624-.101563-.101562-.792969-1.40625-.773437-1.460937.148437-.089844.308593-.152344.472656-.195313.160156-.03125.3125-.09375.449218-.175781-.015624-.089843-.039062-.183593-.070312-.269531-.0625-.1875-.171875-.351562-.324219-.476562-.089843-.097657-.195312-.179688-.3125-.246094-.109375 0-.746093-.328125-.976562-.503906-.308594-.242188-.421875-.296876-1.011719-.480469-.480469-.152344-.503906-.164063-.503906-.292969 0-.257812.125-.339844.6875-.445312.28125-.054688.539062-.109376.5625-.113282.070312-.023437-.445313-.5625-.84375-.875-.585938-.46875-.601563-.476562-.601563-.601562 0-.179688.167969-.300782.40625-.296875.199219.03125.386719.117187.542969.246093l.351562.230469-.460937-.464843c-.429687-.441407-.453125-.484376-.453125-.679688s.019531-.210938.121094-.25c.066406-.019531.117187-.074219.125-.140625 0-.140625.160156-.2148438.453125-.17578125.289062.03906245 1.097656.46484425 1.664062.89453125.117188.09375.242188.175781.375.246094-.035156-.160157-.089843-.3125-.164062-.453125-.171875-.402344-.183594-.4375-.113281-.5625.054687-.0820315.140624-.1328128.238281-.1445315.097656-.0117187.195312.0234375.265625.0898437.25.1992188.925781 1.4335938 1.109375 2.0312498.152343.574219.234375 1.167969.246093 1.761719-.011718.28125.019532.398437.195313.863281.070313.199219.152344.394532.25.582032.027344.023437.28125-.03125.601563-.132813.191406-.074219.390624-.121094.589843-.140625.039063.042969-.066406 1.441406-.117187 1.523438-.050782.042968-.113282.074218-.183594.085937-.082031.019531-.140625.050781-.140625.0625.054687.101563.121094.199219.199219.28125.140625.160156.191406.273437.167968.324219-.015624.039062-.023437.082031-.027343.125 0 .03125.015625.21875.027343.421875.007813.207031.035157.460937.054688.5625.039062.226562-.03125.4375-.46875 1.492187-.273438.699219-.460938 1.433594-.550781 2.179688-.046875.253906-.117188.507812-.21875.746094-.101563.195312-.15625.410156-.167969.632812 0 .207031.015625.25.074219.226562.183593-.050781.371093-.074218.5625-.070312-.125.148438-.261719.289062-.402344.421875l-.40625.402344.28125-.09375c.339844-.113281.683594-.175781.683594-.117188 0 .023438-.082031.082031-.179688.140625-.222656.113282-.71875.496094-.582031.445313.160156-.03125.328125-.050781.492188-.050781.464843-.027344.484374-.035157-.84375.339843-.914063.234375-1.804688.554688-2.664063.945313-.421875.214844-.421875.222656-.347656.3125.070312.085937.113281.265625.058593.578125-.03125.175781-.027343.207031.042969.207031.097657.035156.179688.097656.246094.175781.070313.082031.167969.140625.269531.171875.125 0 .121094-.015625-.164062-.421875-.214844-.289062-.21875-.433593-.03125-.625.28125-.28125.890625-.113281.765625.222657-.023438.042968-.066407.070312-.113281.074218-.050782.007813-.097657-.011718-.128907-.046875-.089843-.0625-.207031-.0625-.296875 0 .039063.128907.109375.25.195313.351563.265625.363281.296875.585937.097656.714844-.109375.070312-.160156.078124-.375.023437-.316406-.070313-.574219-.226563-.613281-.371094-.023438-.097656-.039063-.089843-.253906.121094-.191407.195313-.445313.316406-.71875.34375-.070313-.011719-.132813-.046875-.179688-.097656zm.640625-.410156c.207031-.207031.328125-.527344.234375-.636719-.070312-.09375-.304688-.078125-.398438.023438-.191406.214844-.304687.703125-.167968.765625.113281.046875.136718.035156.324218-.152344zm-1.21875-.480469c.195313-.140625.238281-.253906.109375-.304687-.097656-.035157-.25.105469-.316406.28125-.0625.179687-.035156.183593.203125.023437zm.863281-.984375c.117188-.097656.230469-.203125.335938-.316406.007812-.015625-.089844-.074219-.21875-.121094-.335938-.140625-.738282-.125-1.207032.046875-.132812.042969-.261718.097656-.382812.167969.113281.070313.234375.125.359375.164063.171875.0625.339844.140624.5.230468.066406.046875.136719.078125.214844.097656.144531-.070312.277343-.160156.394531-.273437zm2.347656-.722656c.328126-.15625.828126-.378906 1.125-.492187.316407-.125.53125-.238282.53125-.28125.019532-.082032.054688-.164063.105469-.230469.054688-.09375.085938-.167969.066407-.167969-.597657.226562-1.183594.484375-1.757813.773438-.714844.34375-.777344.386718-.777344.507812 0 .117188.042969.210938.09375.179688.003907-.003907.285157-.140626.609375-.292969zm-.5-7.382813c-.074218-.078124-.152343-.144531-.242187-.203124-.082031-.058594-.054687-.019532.074219.097656.238281.222656.316406.265625.167968.105468m2.308594 9.78125c-.101562-.113281-.210937-.21875-.324218-.320312-.03125.074219-.046876.148438-.054688.226562-.007812.101563-.035156.203126-.085938.296876-.078124.09375-.28125.082031-.324218-.015626.011718-.222656.046875-.441406.109375-.652343.183593-.765625.234375-.863281.449219-.8125.058593.015625.121093 0 .140624-.023438.058594-.089843.398438-.0625.488282.035157.140625.164062.070312.570312-.140625.742187-.070313.058594-.070313.074219 0 .1875.074219.097656.167969.175781.269531.242187.207031.132813.246094.28125.09375.363282-.199219.105468-.3125.054687-.628906-.269532zm-.023437-.777343c.121093-.113281.140625-.234375.039062-.234375-.101562 0-.28125.234375-.28125.332031s.074219.046875.242188-.097656"/><path d="m12.261719 17.816406c-.078125-.027344-.109375-.074218-.089844-.128906.085937-.328125.1875-.652344.308594-.972656.066406-.066406.132812-.128906.203125-.1875.152344-.125.203125-.140625.582031-.140625s.421875.011719.421875.09375c0 .140625-.125.210937-.503906.246093-.28125.023438-.359375.050782-.375.117188-.015625.070312.019531.085938.234375.085938.210937 0 .25.011718.25.117187 0 .152344-.0625.191406-.367188.226563-.300781.035156-.355469.128906-.050781.109374.355469-.03125.476562.019532.457031.171876-.015625.128906-.035156.140624-.390625.191406-.203125.03125-.410156.070312-.464844.082031-.074218.019531-.148437.015625-.214843-.011719m-8.230469-.082031c-.1875-.355469.148438-1.136719.589844-1.363281.265625-.140625.636718-.070313.636718.121094 0 .125-.164062.207031-.316406.167968-.179687-.042968-.320312.058594-.453125.339844-.195312.421875-.15625.453125.335938.273438.339843-.125.445312-.085938.34375.128906-.074219.160156-.527344.382812-.851563.410156-.199218.019531-.238281.003906-.285156-.078125"/><g fill="#6a5439"><path d="m6.976562 15.1875c-.097656-.035156-.339843-.101562-.539062-.152344-.226562-.054687-.363281-.113281-.378906-.164062-.023438-.078125-.054688-.15625-.09375-.230469-.046875-.097656-.0625-.210937-.042969-.320313l.03125-.171874-.632813-.46875c-.34375-.261719-.8125-.601563-1.03125-.753907-.40625-.28125-.609374-.492187-.609374-.632812.015624-.085938.039062-.171875.074218-.253907.09375-.214843.011719-.246093-.171875-.050781-.105469.109375-.117187.109375-.261719.042969-.140624-.070312-.152343-.082031-.066406-.808594 0-.039062-.011718-.421875-.03125-.84375-.019531-.421875-.046875-.992187-.0625-1.273437.003906-.222657-.027344-.4375-.101562-.648438-.105469-.179687-.03125-.5625.105468-.5625.207032.011719 1.628907.234375 1.722657.265625.09375.035156.113281.117188.167969.457032.035156.21875.089843.5.113281.613281.054687.125.027343.273437-.070313.371093-.292968.402344-.726562 1.609376-.722656 2.007813v.273437l.074219-.175781c.105469-.246093.523437-.933593.574219-.933593.019531 0 .023437.074218.007812.160156-.050781.242187.097656 1.046875.21875 1.214844.140625.191406.386719.398437.480469.398437.070312 0 .070312-.011719 0-.089844-.050781-.054687-.078125-.125-.082031-.199219 0-.101562 0-.101562.117187.015626.109375.097656.234375.175781.363281.242187.234375.117187.253906.140625.28125.355469.027344.351562.007813.707031-.058594 1.054687-.035156.121094-.035156.121094.125-.023437.121094-.117188.230469-.246094.328126-.382813l.171874-.230469.140626.089844c.167968.101563.539062.4375.539062.488282-.027344.070312-.0625.136718-.105469.199218-.082031.140625-.09375.210938-.0625.5.03125.308594.023438.339844-.074219.394532-.070312.039062-.125.101562-.152343.175781-.054688.132812-.058594.132812-.300781.042969zm0 0"/><path d="m8.859375 14.789062c-.25-.101562-.457031-.28125-.589844-.515624-.289062-.425782-.648437-.796876-1.058593-1.101563-.28125-.191406-.542969-.457031-.589844-.613281-.03125-.070313-.089844-.125-.164063-.140625-.078125-.015625-.15625-.039063-.234375-.0625-.121094-.050781-.457031-.609375-.496094-.828125-.035156-.191406.015626-.273438.304688-.4375.382812-.226563.703125-.308594 1.472656-.367188.894532-.066406 1.207032-.140625 1.679688-.386718.113281-.074219.238281-.125.367187-.15625-.070312.101562-.15625.191406-.253906.265624-.269531.25-.25.269532.148437.140626.324219-.113282.589844-.34375.75-.648438l.070313-.144531.164063.253906c.28125.433594 1.226562 1.0625 1.765624 1.179687.121094.019532.230469.070313.328126.140626.074218.082031.078124.117187.023437.246093-.027344.054688-.042969.117188-.039063.179688.035157.035156.191407-.21875.230469-.367188.039063-.144531.097657-.175781.199219-.113281.058594.039062.058594.078125-.019531.28125-.121094.308594-.367188.5625-.554688.5625-.113281 0-.160156.046875-.269531.246094-.164062.273437-.410156.484375-.703125.601562-.171875.058594-.226563.140625-.097656.140625.070312-.007812.136719-.023437.203125-.046875.125-.050781.140625-.046875.101562.082032-.117187.359374-.300781.695312-.546875.984374-.261719.296876-.734375.527344-1.28125.628907-.472656.09375-.6875.089843-.910156 0zm-.097656-.589843c0-.199219.140625-.355469.4375-.464844.261719-.097656.332031-.105469.519531-.054687.292969.074218.316406.070312.179688-.042969-.136719-.113281-.5625-.128907-.914063-.011719-.21875.074219-.257813.109375-.3125.28125-.070313.203125-.039063.445312.039063.394531.027343-.023437.042968-.058593.042968-.097656zm-.089844-.894531c.222656-.078126.242187-.078126.433594.011718.191406.089844.207031.089844.515625-.019531.136718-.058594.285156-.085937.433594-.078125.128906.03125.222656-.046875.140624-.125-.039062-.039062-.625.050781-.816406.128906-.074218.015625-.152344-.003906-.214844-.050781-.128906-.085937-.304687-.082031-.671874.015625-.230469.066406-.28125.101562-.183594.160156s.089844.058594.355468-.042968zm.976563-.578126c.066406-.105468.148437-.199218.246093-.273437.011719 0 .027344-.003906.035157-.011719.011718-.011718.015624-.023437.015624-.035156 0-.113281-.183593-.035156-.375.152344-.164062.15625-.234374.195312-.316406.167968-.066406-.03125-.121094-.085937-.144531-.152343-.027344-.066407-.027344-.144531.003906-.210938.058594-.148437 0-.484375-.113281-.691406-.09375-.164063-.09375-.167969 0-.269531.113281-.117188.183594-.269532.195312-.433594 0-.105469-.019531-.09375-.195312.101562-.175781.199219-.207031.214844-.402344.183594-.367187-.054687-1.042968-.128906-1.183594-.128906-.109374.015625-.214843.066406-.296874.140625l-.15625.140625.371093-.015625c.433594-.03125 1.308594.105469 1.425781.210937.089844.082032.191407.421876.191407.632813-.011719.097656-.054688.191406-.121094.265625-.117187.140625-.117187.152344-.035156.175781.085937.046875.164062.109375.230469.179688.222656.222656.375.195312.617187-.128907zm-3.375-.855468c-.0625-.082032-.113282-.171875-.152344-.269532-.089844-.214843-.171875-.234374-.171875-.042968.015625.121094.082031.230468.179687.304687.183594.171875.296875.175781.144532.007813zm5.160156-.039063c.101562-.070312.195312-.152343.28125-.246093-.082032.023437-.160156.058593-.230469.101562-.167969.078125-.347656.128906-.53125.152344-.246094.023437-.320313.011718-.453125-.070313-.089844-.058593-.164062-.121093-.164062-.148437 0-.023438.140624-.042969.3125-.042969.269531 0 .78125-.113281.878906-.203125.023437-.019531-.167969-.023438-.421875-.015625-.488281.019531-1.140625-.054687-1.253907-.144531-.058593-.070313-.105468-.148438-.140624-.234375-.082032-.199219-.140626-.132813-.09375.113281.046874.207031.199218.367188.402343.421875.09375.027344.140625.074219.160157.140625.019531.117188.234374.257812.390624.257812.050782 0 .101563.015626.140626.042969.117187.066407.246093.097657.375.101563.132812-.050782.253906-.125.355468-.222656zm-3.316406.082031c.105468-.054687.222656-.089843.34375-.101562.164062 0 .203124-.070312.058593-.105469-.113281-.015625-.230469-.011719-.34375.007813-.171875.015625-.339843.015625-.507812 0-.28125-.03125-.472657-.011719-.519531.054687-.011719.023438.050781.042969.140624.042969.109376.007812.21875.042969.3125.101562.183594.121094.273438.121094.511719 0zm0 0"/><path d="m11.792969 14.683594c-.070313-.152344-.128907-.308594-.179688-.46875l-.109375-.332032.175782-.4375c.097656-.242187.179687-.453124.179687-.46875.050781-.082031.117187-.15625.1875-.222656l.1875-.1875.054687.355469c.050782.371094.359376 1.109375.457032 1.109375.03125 0 .046875-.03125.03125-.0625-.039063-.144531-.066406-.289062-.089844-.4375-.046875-.242188-.046875-.488281 0-.730469l.070312-.371093.039063.265624c.042969.335938.167969.65625.296875.773438.101562.09375.101562.09375.070312-.128906-.082031-.570313-.0625-1.148438.054688-1.714844.03125-.113281.03125-.113281.175781-.023438.242188.191407.429688.441407.550781.722657.050782.105469.101563.179687.117188.167969.039062-.042969-.117188-.703126-.207031-.886719-.121094-.171875-.257813-.332031-.410157-.476563l-.332031-.316406.40625.039062c.207031.015626.414063.050782.613281.105469.070313.03125.148438.046875.226563.050781.035156-.035156-.214844-.320312-.421875-.480468-.105469-.082032-.222656-.148438-.347656-.195313-.25-.078125-.308594-.140625-.308594-.28125-.019531-.15625-.054688-.3125-.101562-.464843l-.101563-.332032.113281-.351562.113282-.347656-.140626-.257813-.140624-.261719.125-.171875c.070312-.078125.113281-.175781.125-.28125-.015626-.097656.046874-.140625.574218-.328125.324219-.121094.695313-.261718.824219-.316406.09375-.042969.191406-.078125.289063-.097656.09375.050781.179687.117187.246093.199218.171875.183594.1875.222657.164063.390626-.019532.113281-.011719.195312.023437.214843.058594.039063.074219.324219.019531.324219-.074218-.011719-.152343-.027344-.226562-.050781-.085938-.027344-.179688-.035157-.269531-.019531-.0625.023437 0 .070312.210937.179687.128906.054687.246094.128906.351563.21875.074219.089844-.023438.523437-.191407.878906-.40625.84375-.589843 1.460938-.761718 2.617188-.035156.328125-.117188.648437-.253906.953125-.117188.222656-.183594.472656-.191407.726562-.035156.421875-.035156.421875-.179687.46875-.082032.027344-.257813.097656-.394532.164063-.207031.09375-.578124.253906-1.488281.644531-.152343.070312-.160156.0625-.226562-.066406m-5.253907-1.363282c0-.289062.0625-.378906.1875-.261718.066407.074218.066407.101562-.015624.28125-.132813.289062-.171876.285156-.171876-.019532"/><path d="m12.429688 12.9375c-.09375-.460938-.058594-.636719.125-.636719.105468 0 .105468-.007812.019531.386719-.078125.359375-.113281.417969-.144531.25m-6.980469-1.777344c0-.242187.203125-.496094.503906-.648437.34375-.125.691406-.222657 1.050781-.292969 1.496094-.324219 2.335938-.738281 2.335938-1.148438v-.121093l-.230469.171875c-.140625.101562-.289063.195312-.441406.28125-.289063.140625-1.113281.335937-1.734375.402344-.851563.085937-1.425782.269531-1.773438.5625l-.167968.140624.035156-.140624c.058594-.246094.644531-1.078126.945312-1.351563.976563-.898437 1.734375-1.210937 2.828125-1.179687.539063.015624.582031.027343.886719.195312.769531.421875.84375 1 .222656 1.628906-.367187.339844-.792968.605469-1.257812.78125-.265625.085938-.441406.109375-1.90625.261719-.753906.085937-.960938.164063-1.113282.421875-.132812.234375-.183593.246094-.183593.035156m6.628906-.128906c-.132813-.03125-.257813-.089844-.367187-.167969 0 0 .226562-.015625.5-.019531.359374 0 .550781.015625.675781.070312.15625.0625.167969.078126.078125.113282-.292969.050781-.59375.050781-.886719.003906"/><path d="m11.761719 10.601562c-.6875-.1875-1.332031-.644531-1.4375-1.015624-.054688-.203126.019531-.675782.105469-.675782.023437 0 .085937.0625.140624.140625.378907.40625.800782.773438 1.253907 1.097657.390625.136718.800781.226562 1.214843.257812.28125.03125.589844.132812.589844.195312-.214844.019532-.433594.027344-.648437.015626-.359375 0-.71875.011718-.804688.023437-.136719.011719-.277343 0-.414062-.039063m-6.394531-.101562c.007812-.117188.066406-.164062.351562-.300781.289062-.140625.453125-.179688 1.109375-.261719.421875-.046875.875-.113281 1.003906-.140625.128907-.027344.222657-.023437.199219 0-.09375.078125-.378906.15625-1.183594.316406-.703125.140625-.90625.195313-1.171875.34375l-.324219.179688zm0 0"/><path d="m12.570312 10.21875c-.59375-.152344-1.097656-.449219-1.667968-.972656-.339844-.308594-.398438-.453125-.34375-.816406l.042968-.28125.320313-.015626c.457031-.019531.679687.050782 1.125.363282.753906.539062.910156.808594.28125.484375l-.34375-.175781.21875.191406c.125.105468.273437.242187.335937.308594.171876.183593.5625.785156.570313.878906s-.207031.117187-.539063.035156m-6.96875-1.261719c0-.109375.300782-.636719.597657-1.046875.664062-.9375 1.566406-1.476562 2.480469-1.484375.238281-.015625.472656.035157.679687.152344.492187.238281.703125.414063.875.785156.117187.195313.175781.421875.171875.652344 0 .503906-.050781.515625-.433594.15625-.175781-.191406-.402344-.332031-.65625-.402344-.78125-.242187-1.953125-.050781-2.742187.453125-.203125.140625-.398438.300782-.582031.46875-.347657.320313-.390626.355469-.390626.265625"/><path d="m12.042969 8.28125c-.40625-.21875-.441407-.226562-.9375-.25l-.511719-.023438-.035156-.324218c-.027344-.273438-.015625-.335938.054687-.386719.234375-.175781.78125.046875 1.316407.539063.324218.300781.65625.675781.582031.671874-.160157-.066406-.316407-.140624-.46875-.226562m-8.085938-.511719c-.757812-.101562-1.394531-.207031-1.40625-.226562-.015625-.191407-.007812-.386719.023438-.582031.039062-.40625.074219-.539063.128906-.550782.09375-.019531 2.855469.703125 2.910156.757813.054688.054687-.167969.769531-.230469.785156-.03125.003906-.671874-.078125-1.425781-.183594m-.742187-.457031c.105468-.125.117187-.308594.019531-.441406-.042969-.050782-.109375-.082032-.175781-.078125-.066406.003906-.128906.035156-.171875.089843-.074219.132813-.0625.300782.03125.421876.097656.097656.175781.097656.296875.007812m9.441406-.261719c-.28125-.492187-.359375-.644531-.316406-.667969.113281-.070312 3.140625-.921874 3.191406-.902343.039062.011719.058594.050781.050781.089843-.027343.148438-.042969.304688-.054687.457032-.003906.144531-.023438.285156-.0625.421875-.019532.019531-.585938.226562-1.265625.464843-.683594.234376-1.261719.441407-1.292969.453126-.03125.007812-.144531-.128907-.25-.316407m2.746094-1.042969c.078125-.140624.011718-.253906-.140625-.253906-.148438 0-.214844.105469-.167969.253906.027344.121094.234375.121094.308594 0zm-11.414063.519532-.613281-.15625.03125-.171875c.027344-.132813.070312-.257813.125-.378907l.101562-.203124-.199218-.414063c-.171875-.335937-.191406-.414063-.140625-.46875.152343-.152344 1.96875-1.238281 2.125-1.265625.105469-.023438.203125-.078125.28125-.15625.160156-.125.332031-.234375.519531-.3125.195312-.085938.382812-.183594.5625-.296875.199219-.140625.367188-.113281.386719.054687.007812.097657-.054688.210938-.28125.464844-.273438.3125-.539063.703125-.957031 1.449219-.117188.207031-.285157.375-.488282.492187-.265625.179688-.335937.246094-.335937.34375-.007813.089844-.035157.171876-.082031.246094-.089844.164063-.160157.335938-.210938.515625-.035156.140625-.09375.277344-.171875.402344-.21875-.035156-.4375-.082031-.652344-.144531m9.105469-.78125c-.210938-.589844-.273438-.730469-.332031-.730469-.058594 0-.121094-.082031-.1875-.183594-.105469-.175781-.152344-.199219-.429688-.257812-.386719-.078125-.410156-.09375-.914062-.433594-.257813-.199219-.558594-.324219-.878907-.375-.171874-.027344-.339843-.078125-.5-.152344-.054687-.1875.246094-.269531 1.058594-.296875.585938-.011718.617188-.023437.863282-.179687.207031-.132813.234374-.167969.140624-.179688-.097656.003907-.191406.023438-.28125.0625-.292968.121094-.390624.101563-.542968-.125-.210938-.238281-.4375-.460937-.683594-.664062-.609375-.527344-.703125-.640625-.636719-.714844.070313-.074219.335938.070313.753907.347656.292968.199219 1.125.691407 1.160156.691407.140625 0-.703125-1.007813-1.3125-1.582032-.230469-.214844-.304688-.394531-.191406-.460937.078124-.050781.332031.105469 1.140624.71875.765626.574219 1.035157.734375.75.433593-.429687-.402343-.894531-.765624-1.382812-1.089843-.246094-.140625-.339844-.25-.28125-.339844.023438-.027344.058594-.046875.097656-.042969.125 0 .917969.421875 1.390625.734375.472657.308594.675781.53125.59375.648438-.078125.117187-.046875.148437.070313.117187.09375-.015625.1875.015625.257812.082032l.140625.109374-.03125-.25c-.058593-.269531-.144531-.53125-.253906-.78125-.230469-.527343-.234375-.640624-.046875-.601562.226562.039062.984375 1.46875 1.183594 2.207031.15625.589844.195312 1.132813.109375 1.425781-.070313.21875-.066407.234376.105469.640626.238281.546874.371093.925781.339843.960937s-1.144531.371094-1.195312.371094c-.019531 0-.050781-.050781-.074219-.109375m-10.019531-1.304688c-.039063-.070312-.371094-1.125-.527344-1.667968-.15625-.574219-.179687-.804688-.082031-.804688.074218 0 .226562.246094.625.984375.167968.308594.324218.585937.351562.617187.074219.070313.054688-.054687-.042968-.242187l-.078126-.175781.214844-.355469c.382813-.652344.589844-.929687.6875-.929687.054688 0 .183594.117187.3125.28125.171875.207031.351563.40625.542969.59375.335937.316406.382813.421874.21875.523437-.113281.066406-.433594-.085937-.753906-.367187l-.234375-.207032-.066406.121094c-.078126.140625-.089844.3125-.019532.355469.027344.015625.058594-.023438.078125-.089844l.03125-.125.339844.226563c.117187.070312.226563.152343.328125.242187-.027344.023437-1.867188 1.054687-1.886719 1.054687-.015625-.007812-.03125-.019531-.039062-.035156m2.253906-1.621094-.238281-.28125.148437-.117187c.324219-.265625.355469-.257813.511719.210937l.097656.289063-.105468.085937c-.042969.035157-.089844.066407-.140626.089844-.101562-.082031-.195312-.175781-.273437-.277344m-.511719-.617187c-.089844-.113281-.140625-.214844-.113281-.238281.132813-.074219.269531-.136719.414063-.1875.199218-.085938.539062-.242188.753906-.355469l.375-.207031v.128906c0 .09375-.097656.207031-.402344.472656-.199219.175782-.414062.335938-.640625.472656l-.230469.117188zm0 0"/></g><path d="m7.640625 15.941406c-.050781-.09375-.078125-.199218-.078125-.304687-.011719-.117188-.03125-.234375-.058594-.351563-.027344-.050781.015625-.140625.113282-.25.101562-.082031.148437-.214844.121093-.34375-.027343-.171875.074219-.582031.152344-.597656.027344 0 .128906.113281.234375.265625.121094.183594.289062.335937.480469.445313.109375.050781.210937.121093.296875.207031 0 .019531-.058594.035156-.132813.039062-.128906.011719-.257812.035157-.382812.066407l-.25.070312h.421875c.234375 0 .488281 0 .5625.011719h.148437l-.125.054687c-.578125.238282-.9375.421875-1.117187.5625-.203125.164063-.292969.195313-.386719.125m3.429687-.382812c-.167968-.085938-.34375-.152344-.523437-.203125-.375-.113281-.539063-.21875-.421875-.265625.066406-.023438.84375.152344 1.09375.246094.058594.023437.082031.007812.082031-.042969 0-.109375-.289062-.226563-.625-.261719-.097656-.003906-.199219-.027344-.289062-.070312-.011719-.023438.085937-.09375.214843-.160157.175782-.105469.335938-.230469.472657-.382812.128906-.140625.246093-.234375.273437-.210938.058594.105469.109375.21875.152344.332031.09375.234376.101562.304688.054688.40625-.03125.105469-.042969.214844-.023438.320313.03125.101563.011719.210937-.054688.292969-.097656.121094-.1875.121094-.40625 0m-1.488281-.382813c-.078125-.011719-.140625-.050781-.140625-.089843 0-.039063.070313-.070313.269532-.070313.203124 0 .273437.015625.273437.074219 0 .019531-.007813.035156-.019531.050781-.015625.015625-.03125.023437-.050782.023437-.039062 0-.097656.007813-.140624.011719-.0625.011719-.128907.011719-.191407 0" fill="#55514c"/><path d="m8.859375 14.789062c-.269531-.113281-.492187-.316406-.628906-.570312-.265625-.410156-.605469-.765625-1.007813-1.039062-.289062-.1875-.550781-.457032-.601562-.621094-.027344-.074219-.089844-.125-.164063-.140625s-.167969-.039063-.207031-.050781c-.171875-.042969-.589844-.855469-.527344-1.023438.042969-.117188.449219-.355469.792969-.46875.332031-.085938.671875-.136719 1.015625-.152344.84375-.0625 1.15625-.140625 1.628906-.367187.117188-.070313.242188-.125.375-.160157-.070312.101563-.15625.1875-.253906.257813-.28125.242187-.25.273437.140625.152344.296875-.09375.550781-.292969.714844-.5625.035156-.070313.082031-.136719.140625-.195313.0625.066406.117187.140625.160156.222656.238281.394532 1.226562 1.050782 1.757812 1.160157.3125.066406.441407.195312.359376.371093-.078126.175782-.074219.25.019531.164063.0625-.085937.109375-.175781.140625-.273437.070312-.207032.113281-.234376.21875-.171876.058594.039063.054687.078126-.015625.261719-.140625.351563-.304688.527344-.523438.5625-.140625.023438-.199219.066407-.246093.171875-.1875.289063-.445313.527344-.753907.691406-.246093.085938-.230469.15625.019531.117188.199219-.035156.203126-.03125.167969.078125-.121093.347656-.296875.667969-.527343.957031-.238282.28125-.765626.535156-1.277344.640625-.476563.09375-.703125.09375-.929688 0zm-.074219-.65625c.078125-.371093.71875-.59375 1.125-.386718.125.0625.105469-.039063-.023437-.128906-.128907-.089844-.640625-.097657-.925781.007812-.132813.035156-.238282.136719-.28125.265625-.070313.183594-.042969.464844.039062.410156.03125-.050781.050781-.105469.058594-.167969zm-.101562-.820312c.214844-.074219.246094-.074219.421875.007812.175781.085938.199219.085938.507812-.023437.132813-.058594.28125-.085937.429688-.078125.132812.035156.234375-.050781.152343-.128906-.039062-.039063-.621093.050781-.816406.128906-.074218.015625-.152344 0-.210937-.050781-.148438-.097657-.339844-.105469-.496094-.027344-.070313.03125-.148437.050781-.226563.054687-.066406-.003906-.132812.023438-.179687.070313-.058594.066406-.035156.082031.148437.121094.089844-.019531.175782-.042969.261719-.074219zm.9375-.539062c.058594-.105469.136718-.203126.226562-.28125.125-.074219.121094-.140626 0-.140626-.109375.039063-.207031.105469-.28125.199219-.203125.222657-.261718.234375-.367187.113281-.054688-.066406-.078125-.195312-.074219-.445312.011719-.183594-.03125-.371094-.125-.53125-.109375-.179688-.109375-.183594-.015625-.28125.121094-.117188.199219-.269531.210937-.4375 0-.105469-.019531-.09375-.195312.097656-.175781.195313-.207031.210938-.378906.1875-.289063-.042968-1.058594-.128906-1.207032-.128906-.109374.015625-.214843.066406-.296874.140625l-.15625.140625.371093-.015625c.433594-.03125 1.308594.105469 1.425781.210937.089844.082032.191407.421876.191407.632813-.011719.097656-.054688.191406-.121094.265625-.117187.140625-.117187.152344-.035156.175781.085937.046875.164062.109375.230469.179688.078124.085937.1875.140625.300781.140625.140625 0 .179687-.027344.292969-.222656zm-3.34375-.902344c-.0625-.078125-.113282-.167969-.148438-.265625-.09375-.226563-.183594-.238281-.183594-.039063 0 .09375.039063.179688.109376.238282.054687.042968.140624.117187.183593.15625.101563.097656.136719.019531.039063-.089844m5.0625.046875c.105468-.070313.207031-.152344.296875-.246094.097656-.109375.09375-.109375-.140625.015625-.339844.171875-.734375.210938-.957032.097656-.28125-.140625-.246093-.203125.101563-.199218.28125 0 .785156-.109376.890625-.207032.023438-.019531-.171875-.023437-.421875-.011718-.527344.023437-1.15625-.058594-1.265625-.167969-.058594-.0625-.097656-.140625-.113281-.222657-.046875-.226562-.148438-.175781-.113281.058594.019531.226563.179687.417969.398437.480469.101563.027344.15625.070313.167969.140625.019531.140625.113281.210938.339844.269531.101562.023438.253906.0625.335937.085938.230469.0625.285156.054687.484375-.09375zm-3.269532.015625c.121094-.054688.246094-.09375.378907-.113282.195312-.03125.214843-.039062.128906-.089843-.128906-.039063-.265625-.042969-.398437-.019531-.183594.015624-.375.015624-.5625 0-.128907-.019532-.261719-.011719-.390626.019531-.128906.054687-.128906.054687.066407.089843.113281.015626.222656.054688.320312.113282.15625.097656.261719.097656.460938 0zm-4.117187-4.167969c-.757813-.109375-1.394531-.207031-1.40625-.226563-.054687-.054687.070313-1.109374.128906-1.125.0625-.015624 2.878907.703126 2.929688.757813.046875.054687-.183594.808594-.238281.796875-.023438-.007812-.65625-.09375-1.414063-.203125m-.703125-.488281c.101562-.125.097656-.304688-.015625-.421875-.09375-.078125-.230469-.078125-.328125 0-.082031.140625-.074219.320312.023438.453125.097656.101562.1875.09375.3125-.03125zm9.40625-.226563c-.28125-.492187-.359375-.644531-.316406-.667969.046875-.023437 3.109375-.921874 3.171875-.921874s.015625.929687-.046875.992187c-.019532.023437-.578125.222656-1.242188.457031-.664062.230469-1.242187.421875-1.289062.445313-.050782.027343-.125-.042969-.277344-.304688m2.773438-1.097656c.015624-.054687.007812-.113281-.019532-.160156-.03125-.046875-.078125-.078125-.132812-.085938-.109375.027344-.195313.113281-.21875.222657.011718.054687.039062.101562.078125.140624.09375.09375.242187.035157.292969-.117187zm-11.441407.574219-.613281-.15625.03125-.167969c.03125-.128906.074219-.253906.125-.378906l.101562-.207031-.171874-.347657c-.082032-.140625-.140626-.289062-.179688-.445312 0-.074219.242188-.246094.964844-.695313.367187-.238281.75-.457031 1.144531-.648437.113281-.03125.214844-.089844.304687-.167969.171876-.164062 1.316407-.722656 1.40625-.6875.140626.050781.078126.269531-.175781.550781-.34375.410157-.644531.851563-.894531 1.324219-.1875.316406-.445312.585938-.757812.777344-.105469.046875-.171876.144531-.179688.257812-.011719.089844-.042969.179688-.09375.253906-.078125.152344-.140625.308594-.1875.472657-.035156.144531-.09375.285156-.171875.410156-.21875-.035156-.4375-.082031-.652344-.144531m9.101563-.796875c-.027344-.066407-.050782-.140625-.050782-.140625 0-.113282-.222656-.5625-.28125-.5625-.0625 0-.121093-.082032-.1875-.1875-.105468-.164063-.148437-.191406-.492187-.28125-.300781-.070313-.585937-.207032-.828125-.398438-.40625-.28125-.507812-.320312-.910156-.398437-.167969-.019531-.328125-.070313-.476563-.148438-.070312-.1875.21875-.269531 1.042969-.296875.585938-.011718.613281-.023437.859375-.179687.207031-.132813.238281-.167969.140625-.179688-.09375.003907-.191406.023438-.28125.0625-.28125.121094-.378906.097657-.550781-.140625-.21875-.25-.460938-.480468-.714844-.695312-.535156-.464844-.671875-.625-.578125-.683594.058594-.035156.382812.128906.753906.378906.28125.191406 1.105469.679688 1.148438.679688.140625 0-.390625-.644532-1.199219-1.472656-.339844-.347657-.421875-.503907-.308594-.574219.074219-.003907.148438.011719.214844.050781.539063.363281 1.0625.753906 1.5625 1.171875.042969.046875.101563.078125.167969.082031.09375 0 .089844-.011718-.042969-.152344-.425781-.402343-.886719-.761718-1.375-1.085937-.257813-.140625-.351563-.253906-.296875-.34375s.164062-.046875.578125.15625c.511719.257813 1.164063.691406 1.386719.917969.140625.140625.160156.191406.125.265625-.074219.132812-.0625.160156.066406.125.09375-.019531.1875.011719.253906.078125l.140625.105468-.03125-.25c-.054687-.265624-.136719-.527343-.25-.777343-.089843-.183594-.15625-.375-.199219-.574219.046876-.074219.199219-.050781.28125.046875.277344.394531.523438.816406.730469 1.253906.382813.816407.582031 1.863281.421875 2.289063l-.074218.210937.265624.648438c.101563.226562.191407.460937.265626.703125 0 .046875-.339844.171875-1.144532.402344-.058594.019531-.097656-.015626-.132812-.105469m-10.015625-1.289063c-.042969-.074218-.488281-1.523437-.578125-1.882812-.109375-.421875-.121094-.59375-.03125-.59375s.398437.53125.6875 1.105468c.273437.539063.445312.703126.253906.246094l-.074219-.179687.253907-.429688c.597656-.972656.621093-.984375.929687-.582031.167969.210938.351563.414062.546875.601562.136719.117188.253906.253907.351562.402344 0 .039063-.054687.089844-.121093.121094-.140625.066406-.4375-.074219-.746094-.359375-.121094-.109375-.238281-.183594-.261719-.167969-.082031.050782-.125.375-.066406.433594s.066406.011719.085938-.074219l.027343-.128906.339844.226563c.117187.066406.226563.144531.324219.234374-.023438.027344-1.863282 1.054688-1.882813 1.054688-.015625-.003906-.027343-.011719-.039062-.027344m2.292969-1.585937c-.085938-.089844-.15625-.1875-.21875-.289063-.011719-.027344.074218-.121094.179687-.203125.230469-.1875.257813-.167969.421875.261719l.105469.292969-.109375.089843c-.042969.035157-.089844.066407-.140625.089844-.089844-.074218-.167969-.152344-.238281-.242187m-.570313-.675781c-.074219-.097657-.113281-.191407-.09375-.214844.132813-.074219.269531-.136719.414063-.1875.199218-.085938.539062-.242188.753906-.355469l.375-.207031v.128906c0 .195312-.984375 1.003906-1.234375 1.015625-.042969 0-.140625-.082031-.214844-.179687" fill="#55514c"/><g fill="#895730"><path d="m6.566406 13.304688c.039063-.28125.046875-.289063.140625-.210938.070313.050781.066407.085938-.019531.25-.027344.074219-.074219.140625-.128906.195312-.011719-.078124-.011719-.15625.007812-.234374m5.867188-.453126c-.039063-.179687-.042969-.496093-.015625-.496093.035156-.007813.070312-.019531.105469-.035157.078124-.023437.082031 0 .046874.238282-.011718.121094-.039062.242187-.074218.359375-.027344.078125-.039063.070312-.0625-.066407m-7.03125-1.742187c0-.210937.179687-.4375.441406-.578125.316406-.109375.640625-.199219.96875-.265625.984375-.222656 1.21875-.289063 1.6875-.503906.507812-.230469.6875-.371094.753906-.609375.027344-.070313.039063-.148438.027344-.222656-.015625-.019532-.128906.046874-.246094.144531-.152344.117187-.316406.214843-.488281.300781-.34375.15625-1.183594.347656-1.855469.421875-.605468.066406-1.183594.238281-1.488281.445313-.117187.078124-.222656.121093-.230469.097656.058594-.164063.140625-.3125.242188-.453125.550781-.886719 1.453125-1.621094 2.328125-1.894531.324219-.101563.667969-.144532 1.007812-.132813.578125-.007813.640625 0 .890625.117187.449219.210938.789063.5625.789063.816407-.019531.261719-.125.507812-.296875.703125-.328125.351562-.71875.636718-1.148438.84375-.265625.121094-.894531.234375-1.679687.296875-1.207031.101562-1.355469.140625-1.585938.492187l-.117187.164063zm6.824218-.082031c-.117187-.011719-.234374-.042969-.34375-.085938-.085937-.054687-.046874-.0625.246094-.074218.480469-.015626.648438 0 .769532.066406.050781.027344.089843.058594.082031.0625-.042969.039062-.539063.058594-.753907.03125m-.621093-.5c-.6875-.242188-1.191407-.625-1.253907-.953125-.03125-.167969.007813-.617188.058594-.617188.097656.082031.191406.167969.28125.261719.421875.421875.972656.882812 1.191406.976562.179688.082032.667969.179688 1.308594.265626.109375.007812.214844.035156.308594.085937.066406.050781-.09375.058594-.773438.066406-.726562.007813-.894531-.007812-1.121093-.085937"/><path d="m5.355469 10.519531c0-.222656.582031-.449219 1.429687-.546875.363282-.042968.753906-.09375.859375-.109375.429688-.050781-.039062.078125-.816406.226563-.59375.113281-.875.191406-1.097656.3125-.167969.085937-.316407.160156-.335938.167968-.019531.011719-.039062-.011718-.039062-.050781m7.386719-.285156c-.515626-.097656-.914063-.292969-1.457032-.703125-.652344-.496094-.769531-.664062-.722656-1.078125.023438-.273437.03125-.28125.195312-.296875.328126-.039062.863282.050781 1.019532.167969.085937.058593.28125.191406.421875.296875.265625.171875.515625.421875.46875.464844-.097657-.019532-.195313-.054688-.28125-.105469-.125-.066407-.253907-.121094-.382813-.171875-.117187-.046875-.113281-.035156.039063.082031.488281.375 1.035156 1.0625 1.035156 1.308594.011719.097656-.011719.097656-.335937.035156m-7.140626-1.300781c0-.09375.304688-.605469.574219-.976563.335938-.453125.746094-.84375 1.214844-1.152343.433594-.238282.917969-.359376 1.414063-.351563.585937.054687 1.113281.390625 1.417968.898437.109375.210938.128906.316407.132813.65625.007812.144532-.003907.292969-.035157.4375-.019531.019532-.140624-.078124-.261718-.21875-.28125-.316406-.628906-.484374-1.148438-.5625-.984375-.140624-2.277344.316407-3.011718 1.066407-.199219.207031-.296876.269531-.296876.199219zm0 0"/><path d="m12.203125 8.335938c-.332031-.226563-.730469-.339844-1.132813-.320313-.15625.011719-.308593 0-.457031-.035156-.03125-.117188-.042969-.238281-.042969-.359375l-.023437-.308594.257813-.015625c.421874-.023437.921874.28125 1.441406.878906.269531.296875.25.371094-.042969.160157"/></g><path d="m7.632812 15.890625c-.046874-.082031-.066406-.171875-.058593-.265625 0-.113281-.015625-.226562-.050781-.335938-.039063-.105468-.023438-.152343.097656-.289062.105468-.089844.148437-.230469.113281-.359375-.011719-.140625.011719-.28125.070313-.410156l.09375-.214844.21875.308594c.121093.195312.292968.355469.5.464843.308593.167969.351562.226563.167968.226563-.1875 0-.621094.105469-.59375.152344.183594.027343.367188.03125.550782.015625l.527343-.027344-.390625.171875c-.464844.191406-.84375.402344-.953125.539063-.03125.046874-.082031.078124-.140625.082031-.058594.003906-.113281-.015625-.152344-.058594m3.5-.3125c-.171874-.09375-.351562-.164063-.539062-.21875-.28125-.085937-.441406-.167969-.449219-.214844-.011719-.050781 0-.078125.023438-.078125.023437 0 .816406.207032 1.039062.269532.078125.027343.109375.015624.109375-.042969 0-.109375-.226562-.214844-.59375-.273438-.164062-.027343-.3125-.058593-.324218-.0625.078124-.066406.167968-.121093.261718-.164062.175782-.089844.332032-.21875.449219-.378907.058594-.089843.128906-.167968.210937-.234374.074219.101562.128907.21875.167969.339843.113281.28125.125.351563.074219.441407-.035156.097656-.046875.203124-.023438.304687.050782.324219-.148437.484375-.40625.3125m-1.535156-.414063c-.058594-.007812-.109375-.042968-.140625-.089843-.011719-.039063.0625-.058594.253907-.058594.191406 0 .28125.019531.28125.070313-.007813.078124-.222657.121093-.394532.078124" fill="#7b7870"/><path d="m9 14.828125c-.21875-.070313-.421875-.183594-.59375-.335937-.070312-.089844-.132812-.183594-.191406-.28125-.25-.398438-.582032-.742188-.96875-1.011719-.265625-.167969-.484375-.398438-.636719-.671875-.046875-.0625-.117187-.105469-.195313-.113282-.203124-.023437-.347656-.175781-.546874-.570312-.203126-.394531-.191407-.523438.117187-.71875.363281-.230469.757813-.332031 1.566406-.390625.855469-.0625 1.117188-.121094 1.59375-.367187.125-.070313.257813-.128907.390625-.179688.019532 0-.089844.117188-.238281.253906l-.273437.246094.210937-.03125c.398437-.058594.742187-.300781.933594-.652344l.097656-.160156.203125.265625c.347656.449219 1.304688 1.058594 1.777344 1.136719.101562.015625.199218.058594.28125.125.078125.085937.078125.105468 0 .265625-.046875.09375-.0625.171875-.035156.171875.070312 0 .246093-.300782.246093-.410156 0-.0625.027344-.089844.113281-.074219.128907.019531.121094.113281-.023437.421875-.109375.226562-.335937.40625-.523437.40625-.074219-.003906-.140626.050781-.15625.121094-.167969.296874-.417969.539062-.722657.695312-.269531.105469-.28125.191406-.023437.140625.195312-.027344.199218-.027344.160156.105469-.125.339844-.300781.660156-.523438.945312-.3125.339844-.96875.605469-1.652343.664063-.128907.019531-.257813.019531-.386719.003906m-.226562-.671875c.039062-.199219.140624-.304688.449218-.421875.238282-.082031.503906-.078125.738282.023437.078124.027344.074218.007813-.035157-.105468-.105469-.113282-.171875-.140625-.394531-.140625-.28125 0-.738281.132812-.828125.242187-.042969.074219-.070313.15625-.082031.238282-.042969.324218.097656.476562.152344.164062m-.070313-.84375c.121094-.078125.277344-.078125.394531 0 .1875.085938.203125.085938.527344-.011719.148438-.050781.304688-.082031.460938-.09375.078124 0 .125-.019531.140624-.078125.011719-.0625-.011718-.085937-.246093-.054687-.15625.019531-.308594.054687-.460938.097656-.175781.058594-.214843.054687-.410156-.039063-.191406-.09375-.226563-.097656-.382813-.019531-.085937.042969-.183593.070313-.28125.078125-.140624 0-.265624.121094-.167968.164063.101562.039062.226562.035156.425781-.042969zm.75-.324219c.085937-.089843.164063-.1875.230469-.292969.050781-.09375.121094-.175781.203125-.238281.015625 0 .027343-.003906.035156-.015625.011719-.007812.015625-.019531.015625-.035156 0-.117188-.222656-.03125-.390625.148438-.0625.082031-.140625.148437-.230469.199218-.128906 0-.191406-.171875-.191406-.515625.007812-.1875-.027344-.378906-.109375-.550781l-.109375-.207031.09375-.089844c.113281-.097656.1875-.226563.210938-.375.046874-.1875-.0625-.183594-.191407.015625-.128906.195312-.234375.234375-.761719.164062-.25-.035156-.496093-.058593-.746093-.066406-.234375 0-.289063.015625-.402344.140625l-.128906.132813.527343.007812c.292969.007813.582032.03125.871094.074219.296875.054687.351563.085937.421875.214844.058594.117187.097657.238281.117188.367187.042969.144532.003906.296875-.09375.410156-.105469.160157-.105469.179688-.03125.210938.097656.050781.191406.117188.273437.195312.195313.175782.269532.195313.386719.105469zm-3.113281-.996093c-.003906-.054688-.03125-.105469-.066406-.140626-.0625-.078124-.113282-.160156-.148438-.253906-.074219-.183594-.152344-.226562-.195312-.113281-.039063.113281.066406.296875.226562.4375.191406.15625.183594.15625.183594.070313m5.003906-.074219c.105469-.070313.203125-.15625.292969-.246094.09375-.109375.09375-.109375-.160157.019531-.339843.167969-.871093.183594-1.039062.03125-.167969-.15625-.140625-.164062.109375-.128906s.796875-.078125.949219-.199219c.074218-.054687.027344-.058593-.328125-.035156-.472657.03125-1.148438-.046875-1.308594-.15625-.070313-.050781-.121094-.128906-.136719-.214844-.042968-.207031-.128906-.191406-.128906.015625.023438.242188.1875.445313.421875.519532.105469.035156.171875.089843.179687.164062.015626.109375.113282.171875.484376.296875.320312.109375.449218.089844.664062-.066406m-3.277344.019531c.117188-.054688.242188-.089844.371094-.109375.214844-.027344.304688-.105469.140625-.117187-.4375-.023438-1.25-.015626-1.359375.023437-.171875.054687-.085938.140625.113281.097656.097657-.007812.191407.019531.269531.082031.132813.109376.320313.121094.464844.023438m-4.261718-4.195312c-.421876-.046876-.84375-.121094-1.257813-.21875 0-.371094.035156-.742188.109375-1.109376.03125-.027343 2.890625.703126 2.941406.75.023438.019532-.074218.449219-.140625.652344-.0625.140625-.125.136719-1.652343-.074218m-.515626-.519532c.0625-.078125.0625-.191406 0-.269531-.148437-.261719-.445312-.1875-.445312.113281 0 .300782.296875.417969.445312.15625m9.273438-.34375c-.101562-.148437-.175781-.3125-.222656-.488281.058594-.054687 3.171875-.941406 3.199218-.910156.011719.167969.007813.335937-.019531.5l-.042969.480469-1.253906.429687c-.691406.242187-1.285156.4375-1.332031.4375-.042969 0-.179687-.183594-.328125-.449219m2.800781-.8125c.167969-.152344.054688-.402344-.152343-.335937-.070313.027343-.121094.085937-.136719.15625-.015625.074219.007812.148437.058593.199219.117188.078124.121094.078124.230469-.019532m-11.335937.453125-.617188-.15625.015625-.140625c.027344-.128906.066407-.253906.117188-.375l.097656-.230468-.175781-.355469c-.078125-.140625-.136719-.285157-.175782-.4375 0-.105469 1.804688-1.246094 2.097657-1.324219.113281-.039062.21875-.09375.308593-.171875.1875-.167969 1.316407-.742187 1.40625-.703125.152344.066406.078126.28125-.195312.582031-.339844.378907-.625.800781-.855469 1.253907-.175781.328124-.433593.605468-.753906.804687-.117187.054687-.199219.164063-.214844.292969-.015625.09375-.050781.179687-.105469.261718-.078124.136719-.132812.285157-.171874.441407-.03125.136719-.078126.269531-.140626.394531-.214843-.023438-.429687-.070312-.636718-.136719m9.015625-.929687c-.054688-.148438-.113281-.332032-.140625-.402344-.019532-.074219-.070313-.132812-.140625-.171875-.085938-.050781-.160157-.125-.210938-.210937-.089843-.152344-.140625-.179688-.460937-.25-.304688-.074219-.585938-.210938-.835938-.398438-.421875-.28125-.527344-.324219-.90625-.398438-.421875-.085937-.53125-.152343-.421875-.28125.070313-.085937 1.066407-.203124 1.339844-.160156.1875.03125.238281.015625.484375-.152344.246094-.167968.265625-.1875.140625-.199218-.097656-.003906-.195313.015625-.28125.058594-.238281.121093-.332031.097656-.527344-.148438-.132812-.15625-1.199219-1.132812-1.285156-1.171875 0 0-.015625-.050781-.023437-.101563-.027344-.15625.070312-.140624.402343.070313.796875.492187 1.472657.886719 1.527344.886719s.027344-.046875-.035156-.140625c-.097657-.167969-1.097657-1.292969-1.355469-1.527344-.292969-.273437-.203125-.492187.117188-.300781.230468.140625 1.328124.96875 1.511718 1.144531.222656.203125.3125.121094.101563-.101563-.417969-.398437-.871094-.753906-1.355469-1.070312-.269531-.140625-.355469-.296875-.199219-.34375.152344-.050781 1.515625.71875 1.863281 1.066406.160157.160156.1875.28125.089844.382813-.054687.050781-.035156.0625.09375.039062.097656-.03125.207032-.003906.28125.066407.070313.050781.140625.074218.152344.050781.042969-.070313-.097656-.546875-.308594-1.035157-.085937-.160156-.144531-.332031-.183594-.507812.046876-.074219.199219-.050781.273438.046875.292969.429687.554688.886719.78125 1.359375.335938.742188.492188 1.679688.371094 2.167969-.066406.234375-.0625.25.140625.738281.226562.53125.34375.855469.3125.886719 0 0-.253907.089843-.5625.171875l-.597657.183594c-.03125.011718-.101562-.09375-.160156-.253907zm-10.171875-1.792969c-.421875-1.289063-.542969-1.839844-.421875-1.839844.085937 0 .105469.035157.574219.890625.367187.671875.5.871094.433593.636719-.113281-.371094-.09375-.441406.28125-1.03125.246094-.378906.398438-.574219.464844-.582031.070313-.011719.15625.054687.296875.246094.175781.214843.363281.417968.5625.609374.136719.117188.253906.253907.351562.402344 0 .035156-.046874.085938-.105468.117188-.128906.070312-.4375-.078125-.753906-.351563-.121094-.109375-.246094-.1875-.269532-.167969-.082031.046876-.125.371094-.0625.433594.03125.027344.054688.035156.054688.007813.007812-.039063.023437-.082031.046875-.117188.035156-.046875.109375-.019531.347656.140625.167969.113282.28125.226563.261719.246094-.019532.019531-1.789063 1.035156-1.816406 1.035156 0 0-.113282-.304687-.238282-.675781zm2.496094-.945313c-.085938-.089843-.15625-.195312-.210938-.304687 0-.082031.324219-.300781.402344-.28125s.28125.605469.246094.667969c-.039063.042968-.082032.078125-.132813.101562-.089844.046875-.125.023438-.304687-.183594m-.566407-.675781c-.074219-.105469-.113281-.195312-.09375-.21875.105469-.050781.214844-.097656.328125-.140625.167969-.0625.488282-.21875.730469-.339844.421875-.226562.515625-.242187.460937-.066406-.035156.105469-.683593.671875-.964843.84375-.242188.144532-.316407.136719-.460938-.078125" fill="#7b7870"/><path d="m7.632812 15.890625c-.046874-.082031-.066406-.171875-.058593-.265625 0-.113281-.015625-.222656-.046875-.332031-.035156-.089844-.019532-.140625.085937-.28125.097657-.117188.144531-.269531.132813-.421875.003906-.140625.03125-.285156.078125-.421875l.078125-.171875.183594.28125c.164062.265625.609374.628906.765624.628906.027344 0 .046876.019531.050782.046875 0 .03125-.054688.050781-.125.050781-.199219 0-.613282.101563-.589844.140625.183594.035157.375.039063.5625.019531l.527344-.019531-.257813.09375c-.378906.144531-.742187.335938-1.074219.574219-.140624.140625-.21875.140625-.308593.058594zm3.515626-.308594c-.175782-.089843-.363282-.164062-.550782-.222656-.3125-.101563-.464844-.183594-.464844-.230469 0-.082031.089844-.070312.734376.117188.140624.046875.289062.078125.4375.09375.050781-.054688-.042969-.183594-.160157-.226563-.148437-.046875-.296875-.078125-.449219-.101562l-.332031-.058594.28125-.140625c.179688-.101562.335938-.234375.464844-.394531.0625-.089844.132813-.171875.214844-.238281.070312.105468.125.21875.164062.339843.113281.28125.125.351563.074219.441407-.035156.097656-.046875.199218-.023438.300781.023438.152343.015626.207031-.070312.289062-.117188.117188-.195312.128907-.320312.03125" fill="#96918a"/><path d="m8.9375 14.800781c-.28125-.089843-.523438-.28125-.671875-.535156-.15625-.320313-.648437-.84375-1.042969-1.097656-.207031-.125-.382812-.296875-.519531-.496094-.125-.199219-.199219-.265625-.28125-.265625-.183594 0-.359375-.179688-.550781-.574219-.164063-.328125-.175782-.378906-.117188-.488281.082032-.15625.757813-.5 1.042969-.535156.117187-.015625.519531-.046875.890625-.078125.761719-.0625 1.050781-.140625 1.488281-.363281.441407-.226563.421875-.210938.125.0625-.246093.222656-.261719.246093-.160156.257812.355469 0 .851563-.320312 1.035156-.675781l.089844-.183594.105469.167969c.308594.503906 1.496094 1.277344 1.953125 1.277344.082031.003906.160156.050781.203125.121093.070312.109375.070312.128907 0 .230469-.042969.054688-.070313.121094-.078125.1875 0 .128906.292969-.234375.292969-.371094 0-.085937.027343-.121094.101562-.121094.140625 0 .121094.171876-.050781.480469-.132813.226563-.175781.269531-.375.316407-.140625.019531-.261719.109374-.3125.242187-.179688.28125-.429688.503906-.730469.640625-.167969.074219-.210938.109375-.160156.140625.058594.023437.125.023437.183594 0 .164062-.058594.164062-.058594.164062.058594 0 .167969-.355469.792969-.574219 1.015625-.253906.25-.492187.378906-.964843.5-.515626.136718-.867188.167968-1.085938.085937m-.140625-.667969c.066406-.226562.113281-.265624.421875-.382812.222656-.097656.476562-.097656.703125 0 .183594.058594.082031-.097656-.117187-.191406-.183594-.089844-.421876-.074219-.816407.035156-.195312.035156-.347656.199219-.367187.398438-.054688.351562.078125.453124.171875.140624zm-.078125-.816406c.167969-.070312.195312-.070312.335938 0 .203124.097656.304687.09375.613281-.023437.132812-.058594.273437-.082031.414062-.066407.140625.027344.148438.019532.140625-.089843-.007812-.070313-.042968-.109375-.085937-.101563-.046875.011719-.207031.039063-.371094.0625-.121094.019532-.238281.050782-.347656.101563-.046875.035156-.125.019531-.261719-.050781-.238281-.121094-.296875-.128907-.480469-.03125-.074219.042968-.160156.066406-.246093.078124-.132813 0-.25.125-.15625.160157.148437.042969.308593.03125.445312-.039063m.71875-.320312c.089844-.074219.164062-.164063.21875-.265625.046875-.105469.128906-.191407.226562-.25.050782-.019531.085938-.054688.070313-.082031-.0625-.097657-.234375-.035157-.421875.152343-.066406.078125-.148438.144531-.234375.199219-.113281 0-.175781-.183594-.175781-.535156.007812-.195313-.027344-.386719-.101563-.5625-.085937-.1875-.085937-.1875.015625-.296875.105469-.125.179688-.277344.207032-.4375 0-.09375-.128907-.039063-.222657.101562-.140625.207031-.261719.230469-.777343.164063-.25-.03125-.574219-.058594-.730469-.058594-.238281 0-.28125.007812-.421875.140625l-.140625.152344.296875-.035157c.300781-.03125 1.292968.082032 1.457031.175782.089844.046875.164063.238281.21875.542968.03125.117188-.003906.242188-.09375.324219-.148437.171875-.164063.261719-.050781.261719.101562.035156.195312.09375.273437.171875.210938.199219.25.210937.394531.136719zm-3.179688-1.195313c-.0625-.074219-.113281-.15625-.152343-.242187-.066407-.152344-.132813-.179688-.179688-.066406-.042969.113281.019531.234374.210938.40625.140625.117187.183593.140624.195312.078124 0-.066406-.027343-.128906-.074219-.175781m5.214844.011719.261719-.246094-.273437.125c-.355469.160156-.859376.171875-1.023438.023438-.042969-.035156-.078125-.078125-.105469-.128906.078125-.007813.160157-.007813.238281.011718.210938.019532.421876-.007812.617188-.078125.140625-.035156.277344-.089843.402344-.160156.015625-.023437-.15625-.027344-.40625-.007813-.425782.023438-.851563-.011718-1.265625-.109374-.089844-.066407-.15625-.152344-.199219-.253907l-.101562-.234375-.019532.195313c-.019531.238281.09375.410156.375.542969.113282.054687.199219.140624.207032.179687 0 .113281.082031.171875.390624.28125.472657.160156.601563.140625.902344-.140625zm-3.304687.101562c.113281-.054687.230469-.085937.355469-.101562.128906 0 .191406-.089844.074218-.101562-.46875-.027344-.941406-.019532-1.40625.015624-.152344.054688-.085937.152344.078125.117188.097657-.015625.199219.007812.28125.0625.183594.125.355469.128906.617188.007812m-4.304688-4.179687-1.265625-.175781v-.140625c.011719-.335938.054688-.671875.117188-1 .253906.039062.507812.09375.753906.171875.398438.109375 1.054688.28125 1.457031.378906.5625.148438.726563.207031.726563.269531-.023438.132813-.058594.261719-.105469.386719-.128906.363281.039063.347656-1.683594.109375m-.601562-.453125c.074219-.082031.085937-.132812.046875-.28125-.039063-.144531-.066406-.179688-.199219-.195312-.179687-.019532-.28125.082031-.28125.28125 0 .28125.257813.394531.433594.195312m9.300781-.40625c-.171875-.304688-.238281-.464844-.199219-.484375.117188-.0625 3.148438-.933594 3.171875-.90625.011719.167969.003906.335937-.019531.503906l-.039063.46875-1.253906.433594c-.691406.238281-1.285156.4375-1.332031.4375s-.179687-.191406-.328125-.453125m2.800781-.808594c.1875-.167968.046875-.421875-.179687-.320312-.0625.03125-.109375.085937-.121094.15625-.011719.066406.007812.136718.054688.1875.078124.078125.136718.074218.246093-.023438m-11.4375.433594c-.515625-.132812-.515625-.140625-.5-.28125.027344-.128906.066407-.257812.117188-.378906l.101562-.242188-.183593-.378906c-.078126-.136719-.132813-.285156-.167969-.4375.035156-.089844 1.875-1.214844 2.109375-1.28125.109375-.027344.210937-.085938.292968-.167969.164063-.125.339844-.230469.527344-.308593.246094-.121094.523438-.265626.625-.328126.074219-.050781.164063-.078124.257813-.078124.152343.058593.085937.265624-.1875.5625-.359375.421874-.671875.882812-.929688 1.371093-.152343.285157-.378906.519531-.660156.679688-.121094.054687-.207031.164062-.238281.289062-.027344.109375-.066406.214844-.121094.3125-.082031.152344-.144531.3125-.1875.480469-.105469.394531-.082031.390625-.855469.1875m9.21875-.714844c-.0625-.128906-.117187-.257812-.160156-.394531-.074219-.222656-.140625-.347656-.207031-.363281s-.140625-.109375-.179688-.210938c-.089844-.167968-.125-.191406-.382812-.242187-.378906-.078125-.734375-.242188-1.039063-.484375-.234375-.179688-.511719-.296875-.804687-.332032-.453125-.09375-.574219-.179687-.414063-.292968.109375-.078125 1.097657-.1875 1.328125-.148438.15625.03125.21875.011719.464844-.152344.246094-.160156.265625-.191406.167969-.207031-.125.003907-.246094.027344-.363281.070313l-.246094.089844-.265625-.296876c-.238281-.253906-.492188-.5-.757813-.730468-.316406-.269532-.496094-.460938-.496094-.523438 0-.089844.007813-.089844.167969-.027344.167969.082032.328125.175782.480469.28125.449219.304688 1.183594.734376 1.257812.734376.03125.003906.058594-.019532.0625-.046876 0-.0625-.652343-.804687-1.242187-1.40625-.148437-.140624-.277344-.304687-.382813-.484374 0-.105469.164063-.105469.335938 0 .246094.15625 1.460938 1.085937 1.53125 1.164062s.203125.113281.203125.042969c0-.121094-1.050781-1.003907-1.472656-1.242188-.261719-.144531-.351563-.265625-.265625-.347656.082031-.085937 1.371094.605469 1.828125 1.011719.1875.171875.269531.371094.152343.371094-.027343.003906-.046874.023437-.050781.050781 0 .027343.085938.046875.195313.046875.089844-.007813.179687.019531.25.074218.113281.132813.15625 0 .09375-.25-.070313-.230468-.152344-.457031-.25-.679687-.195313-.460937-.226563-.621094-.121094-.621094s.21875.121094.5.59375c.335938.535157.589844 1.121094.753906 1.734375.121094.476563.140625 1.125.066406 1.382813-.050781.121093-.035156.257812.039063.363281.140625.28125.472656 1.144531.445313 1.164062-.023438.019532-.28125.097657-.597657.191407-.410156.117187-.597656.15625-.625.117187m-10.300781-2.082031c-.621094-1.945313-.546875-2.265625.1875-.828125.265625.515625.421875.773438.464844.734375.019531-.015625 0-.128906-.050782-.253906-.085937-.21875-.085937-.21875.058594-.472657.324219-.585937.628906-1.019531.71875-1.019531.085938.027344.15625.085938.203125.164063.171875.214844.355469.417968.550781.609375.242188.253906.421876.484375.421876.511719-.027344.050781-.070313.085937-.125.101562-.125.042969-.386719-.085938-.714844-.355469-.078125-.074219-.164063-.136719-.257813-.191406-.054687 0-.171875.339844-.140625.414063.042969.105468.125.097656.152344-.019532.015625-.054687.035156-.097656.050781-.097656.070313 0 .605469.40625.570313.4375-.035156.027344-1.304688.75-1.800782 1.023438-.121093-.242188-.21875-.496094-.289062-.757813m2.527344-.851563c-.085938-.082031-.15625-.179687-.214844-.28125 0-.070312.28125-.308593.371094-.308593s.28125.515625.261718.632812c-.023437.054688-.0625.101563-.113281.132813-.089843.054687-.117187.039062-.304687-.175782m-.558594-.660156c-.046875-.0625-.085938-.128906-.113281-.203125.109375-.070312.222656-.125.347656-.160156.179687-.074219.515625-.230469.738281-.351563.632813-.332031.625-.164062-.019531.390626-.40625.34375-.640625.5-.765625.5-.03125-.007813-.117188-.082032-.1875-.175782" fill="#96918a"/><path d="m7.660156 15.898438c-.0625-.035157-.085937-.113282-.09375-.28125.003906-.113282-.011718-.222657-.039062-.332032-.027344-.066406 0-.140625.089844-.253906.097656-.121094.148437-.269531.140624-.421875 0-.144531.023438-.289063.070313-.421875l.078125-.167969.179688.28125c.144531.25.367187.449219.632812.5625.226562.101563.246094.164063.046875.164063-.222656 0-.644531.105468-.613281.15625.179687.03125.367187.035156.550781.015625.421875-.023438.5-.015625.402344.027343-.71875.332032-1.03125.492188-1.148438.605469-.15625.132813-.171875.140625-.296875.066407m3.507813-.316407c-.1875-.085937-.378907-.160156-.574219-.222656-.292969-.097656-.460938-.183594-.460938-.226563 0-.042968 0-.066406.015626-.066406.011718 0 .261718.066406.570312.144532.191406.0625.386719.105468.585938.125.050781-.050782-.042969-.179688-.171876-.226563-.148437-.046875-.300781-.082031-.453124-.109375l-.316407-.046875.28125-.140625c.183594-.09375.34375-.222656.464844-.386719.0625-.09375.136719-.171875.222656-.242187.070313.101562.125.214844.160157.335937.109374.28125.121093.363281.074218.453125-.039062.089844-.046875.195313-.027344.292969.023438.152344.007813.214844-.070312.292969-.125.117187-.136719.117187-.300781.023437m-1.691407-.453125c-.082031-.078125-.011718-.113281.238282-.113281.207031 0 .269531.015625.269531.074219s-.058594.074218-.234375.074218c-.09375.007813-.183594-.003906-.273438-.035156" fill="#bfbebe"/><path d="m8.675781 14.671875c-.175781-.089844-.316406-.230469-.402343-.40625-.269532-.4375-.628907-.8125-1.050782-1.101563-.210937-.132812-.390625-.304687-.53125-.507812-.113281-.179688-.183594-.246094-.273437-.246094-.179688 0-.351563-.171875-.539063-.550781-.074218-.128906-.132812-.265625-.179687-.402344 0-.105469.261719-.316406.542969-.445312.34375-.15625.601562-.207031 1.429687-.28125.78125-.058594 1.027344-.117188 1.523437-.363281l.367188-.183594-.265625.246094c-.242187.21875-.257813.246093-.15625.257812.355469 0 .851563-.320312 1.035156-.679688l.089844-.183593.078125.140625c.238281.457031 1.507812 1.300781 1.957031 1.300781.074219.011719.144531.042969.195313.097656.09375.09375.09375.109375.027344.246094-.085938.164063-.09375.246094-.03125.246094s.25-.3125.25-.4375c0-.070313.03125-.101563.101562-.101563.117188 0 .121094.085938.019531.332032-.105469.246093-.308593.453124-.472656.453124-.109375 0-.164063.046876-.265625.214844-.15625.273438-.394531.496094-.683594.632813-.199218.105469-.269531.160156-.226562.1875.058594.023437.125.023437.183594 0 .15625-.058594.164062-.058594.164062.050781 0 .160156-.347656.78125-.5625 1.003906-.371094.375-1.054688.625-1.734375.625-.207031.019532-.414063-.03125-.589844-.144531m.128907-.554687c.097656-.28125.390624-.441407.789062-.421876.121094.011719.238281.03125.355469.0625.140625.0625.09375-.070312-.070313-.171874-.199218-.121094-.410156-.125-.789062-.019532-.347656.097656-.484375.246094-.484375.511719 0 .316406.097656.335937.199219.039063m-.085938-.800782c.167969-.070312.195312-.070312.335938 0 .175781.09375.386718.09375.5625 0 .128906-.050781.265624-.074218.402343-.078125.191407 0 .210938 0 .195313-.105469-.007813-.0625-.042969-.101562-.085938-.089843-.042968.015625-.164062.027343-.273437.039062-.128907.015625-.253907.042969-.378907.078125-.109374.039063-.234374.027344-.335937-.035156-.210937-.097656-.296875-.097656-.476563 0-.0625.039062-.136718.054688-.207031.046875-.085937-.027344-.257812.105469-.214843.167969.042968.066406.28125.066406.488281-.019532zm.917969-.535156c.078125-.117188.171875-.226562.28125-.316406.0625-.039063.066406-.050782 0-.105469-.09375-.078125-.21875-.015625-.390625.191406-.140625.15625-.296875.195313-.363282.089844-.03125-.140625-.046874-.289063-.039062-.433594.003906-.1875-.027344-.371093-.09375-.546875-.089844-.175781-.089844-.175781.035156-.308594.121094-.132812.214844-.382812.148438-.476562-.019532-.035156-.097656.019531-.210938.15625l-.179687.207031-.59375-.054687c-.320313-.035156-.664063-.0625-.761719-.070313-.191406.003907-.371094.101563-.476562.261719-.046876.070312-.019532.074219.199218.035156.160156-.023437.320313-.027344.480469-.007812.335937.03125.667969.082031 1 .148437.21875.0625.316406.761719.132813.929688-.113282.101562-.128907.222656-.03125.222656.097656.035156.1875.09375.261718.167969.265625.242187.363282.226562.605469-.089844zm-3.28125-.808594c-.035157-.070312-.070313-.140625-.113281-.207031-.046876-.070313-.089844-.144531-.128907-.222656-.074219-.132813-.1875-.121094-.207031.007812-.007812.082031.050781.179688.199219.328125.210937.214844.304687.25.25.09375m5.09375-.175781c.339843-.296875.351562-.386719.023437-.179687-.160156.085937-.339844.128906-.523437.125-.316407.019531-.367188.011718-.492188-.09375l-.140625-.117188h.335938c.210937-.003906.421875-.035156.621094-.09375.421874-.140625.414062-.195312-.023438-.15625-.386719.035156-1.226562-.046875-1.386719-.128906-.054687-.046875-.09375-.109375-.109375-.183594-.011718-.074219-.042968-.144531-.09375-.203125-.058594-.042969-.066406-.019531-.066406.164063 0 .261718.128906.433593.410156.550781.113282.050781.179688.109375.179688.167969 0 .09375.070312.140624.441406.269531.371094.132812.558594.105469.824219-.121094m-3.34375.140625c.109375-.046875.226562-.078125.34375-.101562.113281-.019532.207031-.054688.207031-.078126 0-.058593.023438-.054687-.714844-.066406-.640625-.007812-.894531.027344-.835937.121094.0625.039062.140625.054688.214843.046875.097657 0 .195313.027344.28125.074219.15625.09375.347657.09375.503907.007812zm-3.324219-4.082031c-.214844-.035157-.796875-.113281-1.289062-.179688l-.902344-.117187v-.125c.023437-.34375.0625-.6875.121094-1.027344 0 0 .339843.074219.746093.183594l1.464844.378906c.421875.109375.722656.210938.722656.246094-.023437.128906-.054687.257812-.097656.382812-.117187.371094-.078125.359375-.765625.257813m-1.535156-.5625c.179687-.167969.078125-.507813-.160156-.507813-.238282 0-.363282.304688-.1875.53125.105468.085938.257812.078125.351562-.019531zm9.527344-.070313c-.035157-.0625-.15625-.265625-.265626-.457031-.179687-.300781-.1875-.351563-.117187-.382813.15625-.070312 3.125-.921874 3.144531-.902343.011719.164062.007813.324219-.015625.488281-.023437.367188-.046875.476562-.109375.5-.214844.089844-2.488281.863281-2.523437.863281-.035157 0-.074219-.050781-.113281-.109375m2.605468-1.152344c.046875-.046874.070313-.109374.0625-.175781-.007812-.0625-.042968-.121093-.097656-.160156-.179688-.109375-.375.175781-.238281.347656.082031.085938.175781.085938.273437-.011719m-11.253906.46875c-.203125-.054687-.449219-.117187-.550781-.140624l-.179688-.046876.066407-.234374c.035156-.128907.09375-.300782.121093-.378907.054688-.132812.042969-.183593-.117187-.503906-.074219-.132813-.132813-.273437-.175782-.421875 0-.082031 1.785157-1.191406 2.128907-1.320312.113281-.03125.21875-.089844.300781-.171876.015625-.042968.257812-.179687.535156-.316406.214844-.097656.429688-.210937.636719-.332031.128906-.082031.140625-.082031.222656 0 .109375.105469.09375.128906-.378906.714844-.210937.269531-.398437.554687-.5625.851562-.289063.539063-.535156.828125-.832031.984375-.179688.09375-.226563.140625-.253906.292969-.019532.101563-.058594.203125-.113282.292969-.074218.152344-.132812.308594-.179687.46875-.128907.398437-.132813.398437-.667969.261718m8.941406-.941406c-.042968-.117187-.105468-.300781-.140625-.410156-.03125-.105469-.101562-.199219-.164062-.210938-.082031-.03125-.144531-.097656-.179688-.179687-.074219-.152344-.109375-.171875-.453125-.246094-.308594-.074219-.597656-.210937-.851562-.402343-.394532-.253907-.546875-.324219-.84375-.386719-.203125-.046875-.410156-.089844-.453125-.105469-.128907-.039062-.109375-.160156.035156-.214844.421875-.089844.851563-.132812 1.285156-.117187.125.023437.214844 0 .433594-.136719.105469-.050781.199219-.121094.28125-.203125 0-.0625-.332031-.015625-.527344.066406l-.15625.066407-.316406-.34375c-.246094-.257813-.5-.5-.769531-.730469-.167969-.128907-.320313-.28125-.449219-.453125 0-.117188.164063-.074219.445313.113281.140624.097656.519531.328125.832031.515625.796875.472656.875.453125.394531-.109375-.164062-.191406-.53125-.589844-.8125-.882813-.523438-.546874-.605469-.691406-.402344-.691406.105469 0 1.703125 1.140625 1.78125 1.277344.042969.066406.175782.066406.175782 0 0-.125-1.023438-.984375-1.492188-1.25-.25-.140625-.324219-.253906-.242188-.335938.085938-.085937 1.550782.734376 1.898438 1.09375.125.132813.140625.167969.085938.25-.085938.140626-.082032.148438.101562.148438.097656 0 .191406.027344.269531.078125.066407.042969.128907.066406.140625.054687.050782-.054687-.085937-.5625-.28125-1.007812-.210937-.484375-.234375-.605469-.128906-.605469.101562 0 .210938.121094.503906.617188.332032.519531.582032 1.089843.738282 1.6875.125.480469.128906.640625.066406 1.546875.050781.253906.136718.5.246094.734375.097656.203125.171874.421875.214843.644531-.359375.140625-.734375.253906-1.113281.335938-.042969 0-.105469-.089844-.152344-.207032m-9.992187-1.207031c-.046875-.078125-.527344-1.679687-.597657-2.003906-.097656-.394531-.046874-.511719.117188-.28125.054688.078125.257812.445312.453125.804687.191406.359375.367187.679688.394531.703125.082032.09375.097656-.015625.023438-.191406-.039063-.085937-.066406-.175781-.078125-.269531.21875-.4375.472656-.859375.75-1.265625.066406-.058594.234375.054687.363281.246093.15625.210938.335938.40625.527344.589844.210937.207032.378906.40625.367187.441406-.0625.191407-.488281.050782-.886719-.304687-.234374-.203125-.234374-.203125-.28125-.089844-.089843.242188-.097656.308594-.058593.378907.039062.070312.152343.03125.152343-.074219 0-.039063.011719-.066407.027344-.066407.199219.113282.390625.253907.5625.40625.007813.046876-1.6875 1.019532-1.769531 1.019532-.027344 0-.054687-.015625-.066406-.042969m2.285156-1.570313c-.078125-.082031-.144531-.171874-.203125-.269531.101562-.128906.234375-.226562.382812-.292969.082032 0 .28125.597657.226563.683594-.089844.152344-.199219.109375-.40625-.121094m-.535156-.628906c-.0625-.09375-.101563-.191406-.089844-.21875.082031-.058594.167969-.101562.261719-.132812.128906-.046875.449218-.195313.703125-.324219.164062-.089844.332031-.171875.503906-.242187.25 0-.808594.976562-1.152344 1.058593-.089843.019531-.128906-.003906-.226562-.140625" fill="#bfbebe"/><path d="m7.691406 15.910156c-.054687-.074218-.082031-.164062-.085937-.253906-.011719-.121094-.03125-.238281-.058594-.355469-.027344-.109375 0-.167969.097656-.292969.089844-.078124.128907-.195312.105469-.308593-.011719-.132813.003906-.265625.050781-.394531l.082031-.246094.101563.140625c.292969.378906.453125.53125.675781.648437l.246094.117188-.164062.03125c-.796876.15625-.816407.242187-.046876.203125.480469-.027344.511719-.023438.355469.039062-.488281.191407-.933593.421875-1.082031.5625-.167969.167969-.195312.179688-.28125.121094zm3.425782-.363281c-.183594-.082031-.375-.15625-.570313-.21875-.226563-.074219-.410156-.160156-.410156-.191406 0-.070313.410156.011719.902343.175781.269532.089844.28125.089844.28125 0 0-.140625-.128906-.210938-.53125-.296875l-.378906-.085937.238282-.113282c.171874-.097656.328124-.222656.460937-.371094l.226563-.261718.109374.269531c.09375.207031.125.441406.089844.664063 0 .148437-.015625.296874-.046875.441406-.050781.082031-.207031.078125-.371093-.011719m-1.589844-.414063c-.082032-.085937-.019532-.121093.203125-.105468.128906.007812.230469.039062.230469.0625 0 .058594-.378907.097656-.433594.042968m-.75-.417968c-.226563-.101563-.410156-.28125-.519532-.5-.277343-.40625-.617187-.761719-1.011718-1.050782-.253906-.15625-.460938-.375-.609375-.632812-.03125-.082031-.09375-.121094-.242188-.144531-.21875-.035157-.296875-.121094-.515625-.558594-.179687-.347656-.167968-.472656.042969-.632813.382813-.238281.816406-.378906 1.265625-.414062.808594 0 1.582031-.160156 2.054688-.421875l.21875-.125-.238282.222656c-.140625.117188-.238281.226563-.222656.242188.089844.003906.179688-.003907.265625-.027344.339844-.066406.644531-.261719.84375-.546875l.15625-.222656.183594.238281c.328125.425781 1.3125 1.058594 1.753906 1.125.28125.039063.367187.15625.292969.382813-.113282.351562.078125.261718.234375-.101563.082031-.207031.210937-.296875.210937-.140625 0 .261719-.339844.71875-.53125.71875-.195312 0-.214844.035156-.371094.304688-.164062.265624-.414062.46875-.703124.585937-.089844.027344-.164063.074219-.164063.097656 0 .078125.125.097657.261719.050781.179687-.070312.171875-.011718-.039063.421876-.320312.664062-.761719 1.003906-1.535156 1.164062-.488281.105469-.84375.097656-1.074219-.027344zm.027344-.589844c.046874-.171875.085937-.21875.308593-.320312.21875-.125.480469-.148438.71875-.0625.203125.070312.253907.019531.113281-.121094-.09375-.089844-.167968-.109375-.441406-.109375-.375 0-.773437.128906-.851562.28125-.0625.171875-.070313.359375-.019532.53125.050782.085937.117188.011719.171876-.199219m.757812-.785156c.152344-.050782.3125-.085938.472656-.097656.210938 0 .28125-.074219.183594-.175782-.050781-.054687-.109375-.058594-.238281-.019531-.105469.027344-.21875.046875-.328125.046875-.066406-.003906-.132813.011719-.1875.050781-.042969.074219-.214844.058594-.34375-.03125-.132813-.085937-.140625-.078125-.609375.019531-.253907.054688-.347657.132813-.269531.210938.054687.054688.226562.046875.585937-.027344.101563-.023437.207031-.007812.296875.042969.046875.023437.09375.050781.140625.082031l.289063-.101562zm-.015625-.449219c.066406-.082031.1875-.230469.273437-.324219.082032-.089844.144532-.191406.140626-.214844-.058594-.089843-.175782-.039062-.386719.152344-.238281.21875-.28125.230469-.386719.121094-.058594-.054688-.070312-.140625-.050781-.359375.027343-.175781 0-.359375-.078125-.519531l-.105469-.238282.125-.140624c.121094-.140626.210937-.460938.140625-.523438-.015625-.019531-.117188.0625-.21875.179688l-.1875.214843-.535156-.058593c-.296875-.027344-.636719-.066407-.757813-.082032-.148437-.035156-.304687.011719-.40625.128906-.070312.050782-.132812.113282-.1875.1875.125.03125.253907.035157.382813.019532.398437-.027344 1.203125.066406 1.359375.140625.121093.0625.230469.332031.230469.585937.003906.132813-.039063.261719-.128907.359375-.121093.140625-.128906.152344-.039062.171875.101562.042969.199219.105469.28125.183594.234375.214844.386719.21875.539062.015625zm-3.15625-.851563c-.019531-.070312-.050781-.136718-.097656-.191406-.066407-.082031-.121094-.179687-.160157-.28125-.058593-.175781-.203124-.175781-.226562-.007812-.011719.078125.050781.175781.195312.324218.226563.230469.289063.265626.289063.15625m1.871094-.15625c.039062 0 .15625-.03125.261719-.042968.140624-.027344.175781-.046875.140624-.09375-.066406-.074219-1.351562-.09375-1.492187-.019532-.140625.070313-.097656.140626.097656.140626.132813.007812.257813.039062.375.097656.179688.089844.203125.089844.371094.019531.078125-.039063.160156-.074219.246094-.101563m3.234375-.054687c.300781-.257813.28125-.324219-.046875-.15625-.289063.140625-.785157.179687-.953125.074219-.167969-.109375-.152344-.15625.121094-.140625.242187.019531.984374-.164063.984374-.238281-.253906-.042969-.511718-.0625-.773437-.058594-.296875.007812-.597656-.019532-.890625-.078125-.082031-.066407-.148438-.148438-.195312-.242188-.105469-.21875-.1875-.210937-.175782.019531.007813.226563.152344.425782.367188.503907.105468.03125.191406.109375.234375.210937.035156.097656.109375.148438.335937.226563.164063.054687.332032.089843.503906.105469.199219.003906.253907-.023438.496094-.226563zm-7.605469-4.09375c-.710937-.105469-1.304687-.195313-1.324219-.210937-.003906-.195313.003906-.390626.03125-.582032.054688-.460937.074219-.542968.140625-.523437.042969.015625.6875.183593 1.433594.378906.742187.199219 1.371094.371094 1.394531.390625.019532.019531 0 .191406-.066406.390625-.09375.292969-.121094.347656-.210938.34375-.054687-.007813-.6875-.09375-1.398437-.1875m-.601563-.445313c.125-.25-.039062-.585937-.261718-.519531-.105469.027344-.1875.105469-.21875.210938-.03125.101562-.007813.214843.0625.296875.101562.132812.34375.144531.417968.011718zm9.308594-.398437c-.097656-.144531-.175781-.300781-.234375-.46875.03125-.035156 3.15625-.953125 3.171875-.933594.003906.3125-.03125.628907-.101562.933594-.046875.054687-2.445313.917969-2.550782.917969-.109374-.140625-.207031-.292969-.285156-.449219m2.800782-.804687c.039062-.0625.054687-.136719.042968-.210938-.019531-.179688-.234375-.21875-.347656-.058594-.15625.214844.136719.472656.304688.265625zm-11.386719.410156c-.191407-.042969-.378907-.097656-.5625-.164063-.03125-.035156.039062-.316406.140625-.5625.058594-.140625.046875-.1875-.125-.550781-.070313-.140625-.125-.292969-.152344-.449219.058594-.09375 1.9375-1.214843 2.128906-1.273437.101563-.023438.195313-.078125.269532-.152344.1875-.144531.390624-.265625.605468-.367188.300782-.152343.574219-.304687.625-.332031.019532-.023437.046875-.035156.078125-.035156s.058594.011719.078125.035156c.125.101563.09375.183594-.160156.46875-.347656.402344-.644531.84375-.890625 1.3125-.121094.265625-.308594.492188-.546875.65625-.171875.125-.34375.253907-.375.28125-.042969.054688-.066406.121094-.0625.191407 0 .074218-.023438.144531-.074219.199218-.089843.148438-.15625.308594-.195312.472656-.070313.234376-.152344.421876-.1875.410157-.035157-.011719-.300781-.0625-.59375-.140625zm8.996093-1.089844c-.101562-.289062-.171874-.414062-.25-.445312-.078124-.039063-.144531-.101563-.1875-.179688-.074218-.148438-.140624-.179688-.652343-.296875-.234375-.082031-.453125-.199219-.652344-.34375-.261719-.207031-.566406-.347656-.894531-.402344-.160156-.03125-.320313-.070312-.472656-.117187-.015626-.011719-.011719-.050782 0-.089844.039062-.097656.214843-.132812.96875-.167969.644531-.03125.671874-.035156.921874-.199219.140626-.089843.25-.191406.230469-.214843-.035156-.058594-.28125-.015625-.476562.089843-.199219.101563-.28125.054688-.453125-.1875-.226563-.25-.46875-.488281-.722656-.703124-.523438-.460938-.664063-.628907-.523438-.628907.082031 0 .304688.128907.828125.464844.714844.460937 1.027344.628906 1.066406.570313.019531-.027344 0-.113282-.050781-.1875-.125-.175782-.96875-1.101563-1.28125-1.417969-.28125-.261719-.316406-.351563-.195312-.394531.117187-.042969.21875.035156 1.101562.703124.445312.332032.828125.605469.851562.605469.25 0-.628906-.8125-1.382812-1.265625-.347656-.207031-.445312-.359375-.246094-.359375.140625 0 .957032.441407 1.441406.773438.414063.292969.570313.480469.476563.574219s-.058594.132812.113281.132812c.082032-.003906.160156.023438.226563.074219.035156.039062.085937.066406.140625.070312.125 0 .035156-.398437-.210938-.972656-.089844-.1875-.164062-.382813-.226562-.582031 0-.101563.121094-.082032.234375.042968.300781.425782.5625.875.78125 1.347657.339843.742187.503906 1.757812.359375 2.230469-.050782.160156-.039063.21875.105468.550781.308594.722656.390626.984375.328126 1.003906-.167969.066406-1.054688.320313-1.097657.320313-.046875 0-.128906-.179688-.199219-.398438m-10.160156-1.75c-.613281-1.957031-.5625-2.164062.183594-.753906.167969.308594.335938.609375.375.664062.117188.160156.140625.054688.050781-.207031l-.082031-.25.351562-.5625c.472657-.757813.472657-.757813.691407-.484375.101562.125.359375.410156.585937.636719.148438.140625.285156.292969.40625.453125 0 .027344-.058594.058594-.128906.074218-.167969.042969-.390625-.0625-.703125-.347656-.140625-.125-.28125-.210937-.300781-.199218-.089844.128906-.132813.285156-.128906.445312.039062.105469.167968.085938.1875-.027344.015624-.085937.046874-.078125.324218.109375.105469.0625.203125.132813.296875.214844-.039062.03125-1.707031.957031-1.777343.984375-.070313.023438-.125-.109375-.332032-.75m2.503906-.859375-.214843-.25.175781-.140625c.0625-.0625.140625-.109375.226562-.140625.027344 0 .101563.148437.167969.328125.101563.316406.101563.332031.011719.394531-.125.089844-.136719.082031-.367188-.191406m-.519531-.613281c-.070312-.101563-.109375-.191406-.085937-.214844.125-.066406.253906-.125.386718-.171875.238282-.097656.472657-.207031.695313-.332031.578125-.316406.539063-.132813-.09375.390625-.347656.292969-.65625.503906-.742187.503906-.0625-.050781-.113282-.109375-.160157-.175781" fill="#f4e4cc"/><path d="m7.710938 15.910156c-.070313-.011718-.089844-.066406-.089844-.253906 0-.140625-.019532-.257812-.046875-.273438-.089844-.050781-.050781-.25.070312-.367187.101563-.09375.121094-.15625.113281-.367187 0-.140626.023438-.285157.070313-.421876l.070313-.171874.097656.140624c.164062.265626.386718.488282.65625.644532l.226562.117187-.296875.058594c-.421875.082031-.472656.097656-.4375.15625.019531.03125.210938.039063.53125.019531.390625-.023437.472657-.019531.375.023438-.6875.3125-.941406.449218-1.089843.574218-.066407.066407-.15625.109376-.25.121094zm3.445312-.34375c-.183594-.09375-.378906-.171875-.578125-.230468-.453125-.140626-.597656-.257813-.257813-.203126.199219.039063.398438.085938.597657.140626.21875.066406.414062.105468.421875.078124.085937-.140624-.246094-.324218-.679688-.371093l-.25-.03125.222656-.113281c.167969-.09375.316407-.214844.453126-.351563.070312-.089844.152343-.175781.246093-.25.050781.078125.09375.167969.125.261719.089844.21875.097657.308594.066407.644531-.03125.308594-.054688.398437-.140626.453125-.085937.054688-.113281.046875-.226562-.027344m-1.632812-.449218c-.015626-.023438.0625-.050782.179687-.0625.226563-.023438.296875-.007813.257813.0625-.039063.074218-.398438.058593-.4375 0m-5.632813-7.382813c-.703125-.105469-1.304687-.195313-1.324219-.210937-.003906-.195313.003906-.390626.03125-.582032.054688-.460937.074219-.542968.140625-.523437.042969.015625.6875.1875 1.433594.378906.742187.191406 1.371094.371094 1.394531.390625.019532.019531 0 .191406-.066406.390625-.09375.292969-.121094.347656-.210938.34375-.054687-.007813-.6875-.09375-1.398437-.1875m-.601563-.445313c.09375-.148437.070313-.34375-.054687-.46875-.148437-.105468-.21875-.097656-.335937.019532-.121094.117187-.128907.304687-.019532.433594.09375.136718.335938.148437.410156.015624zm9.308594-.398437c-.09375-.148437-.171875-.304687-.234375-.46875.011719-.011719.632813-.199219 1.371094-.421875l1.585937-.460938.230469-.070312-.03125.421875c-.007812.167969-.03125.335937-.066406.496094-.03125.054687-2.445313.941406-2.566406.941406-.109375-.136719-.207031-.28125-.289063-.4375m2.800782-.804687c.039062-.0625.054687-.136719.042968-.210938-.019531-.183594-.238281-.21875-.355468-.054688-.097657.140626-.097657.164063 0 .257813.039062.042969.097656.070313.15625.070313.058593 0 .117187-.023438.15625-.066407zm0 0" fill="#fff"/></svg>