<svg height="18" viewBox="0 0 18 18" width="18" xmlns="http://www.w3.org/2000/svg"><path d="m13.636719.371094c-.210938.011718-.40625.125-.515625.304687v.003907c-.171875.308593-.351563.613281-.539063.914062-.722656 1.191406-1.433593 1.703125-2.292969 1.777344-.859374.070312-1.882812-.304688-3.199218-.9375l-3.671875-1.730469c-.328125-.148437-.695313.003906-.847657.304687l-1.75 3.964844c-.15625.308594-.003906.699219.300782.851563.78125.351562 2.320312 1.078125 3.667968 1.753906 2.503907 1.191406 4.824219 1.757813 6.929688 1.359375 2.101562-.398438 3.980469-1.753906 5.597656-4.375h.003906l.019532-.03125c.191406-.304688.382812-.613281.566406-.921875.183594-.300781.089844-.695313-.210938-.875l-3.695312-2.269531c-.109375-.066406-.234375-.097656-.363281-.09375m.007812.140625c.097657-.003907.195313.019531.28125.074219l3.695313 2.265624c.238281.144532.308594.449219.167968.6875-.179687.296876-.363281.589844-.546874.882813l-.019532.035156c-1.613281 2.621094-3.460937 3.953125-5.527344 4.34375-2.066406.390625-4.359374-.164062-6.84375-1.347656h-.003906c-1.347656-.675781-2.882812-1.402344-3.664062-1.753906-.234375-.117188-.355469-.429688-.238282-.664063l1.75-3.964844c.121094-.238281.402344-.359374.664063-.238281l3.667969 1.726563c1.324218.636718 2.367187 1.027344 3.273437.949218.90625-.074218 1.664063-.628906 2.398438-1.839843h.003906c.183594-.300781.363281-.609375.539063-.917969.082031-.140625.234374-.230469.402343-.238281zm-6.15625 8.414062c-2.597656.0625-4.898437 1.40625-6.828125 4.542969v.003906c-.191406.300782-.382812.609375-.566406.917969-.1835938.300781-.08984375.695313.210938.878906l3.695312 2.265625c.300781.179688.695312.089844.878906-.210937v-.003907c.171875-.308593.351563-.613281.539063-.914062.722656-1.191406 1.433593-1.703125 2.292969-1.777344.859374-.070312 1.882812.304688 3.199218.9375l3.671875 1.730469c.328125.148437.695313-.003906.847657-.304687l1.753906-3.964844c.152344-.308594 0-.699219-.304688-.851563-.78125-.351562-2.320312-1.078125-3.667968-1.753906-2.03125-.980469-3.945313-1.535156-5.722657-1.496094m.003907.140625c1.746093-.039062 3.636718.507813 5.660156 1.480469 1.347656.675781 2.882812 1.402344 3.664062 1.753906.238282.121094.355469.429688.242188.664063h-.003906l-1.75 3.96875c-.121094.234375-.402344.355468-.664063.234375l-3.667969-1.726563c-1.324218-.636718-2.367187-1.027344-3.273437-.949218-.90625.074218-1.667969.628906-2.402344 1.839843-.183594.304688-.363281.609375-.539063.917969-.140624.238281-.445312.308594-.683593.164062l-3.695313-2.265624c-.238281-.140626-.3085935-.449219-.167968-.6875.1875-.308594.375-.613282.566406-.917969 1.914062-3.109375 4.160156-4.417969 6.714844-4.476563zm0 0" fill="#136be6"/></svg>