<svg height="18" viewBox="0 0 18 18" width="18" xmlns="http://www.w3.org/2000/svg"><path d="m16.371094 6.015625c-.300782 0-.570313-.179687-.683594-.453125-.113281-.277344-.050781-.59375.160156-.804688.210938-.214843.527344-.277343.804688-.160156.324218.132813.507812.480469.4375.824219-.066406.34375-.367188.59375-.71875.59375m-1.390625 2.566406c-.402344-.007812-.722657-.335937-.722657-.738281s.320313-.730469.722657-.738281c.402343.007812.722656.335937.722656.738281s-.320313.730469-.722656.738281m2.199219-.085937c-.40625 0-.734376-.328125-.738282-.738282 0-.40625.332032-.738281.738282-.738281.410156 0 .738281.332031.738281.738281s-.332031.738282-.738281.738282m-2.199219 2.398437c-.296875 0-.566407-.179687-.683594-.457031-.113281-.277344-.050781-.59375.160156-.804688.210938-.210937.53125-.273437.804688-.160156.324219.136719.511719.480469.441406.824219-.066406.347656-.371094.59375-.722656.597656zm2.199219.082031c-.40625.003907-.738282-.324218-.742188-.730468s.324219-.738282.730469-.742188.742187.324219.742187.730469c.003906.40625-.324218.738281-.730468.742187m-8.152344-.027343c-1.074219 0-1.949219-.875-1.949219-1.949219 0-1.078125.875-1.953125 1.949219-1.949219 1.078125 0 1.949218.871094 1.949218 1.949219 0 1.074219-.871093 1.945312-1.949218 1.949219zm7.300781 2.546875c-.40625 0-.738281-.328125-.734375-.734375 0-.410157.328125-.738281.734375-.738281.410156 0 .738281.328124.738281.738281 0 .40625-.332031.734375-.738281.734375zm-7.242187 4.503906c-4.027344 0-7.566407-2.671875-8.664063-6.546875s.515625-8.007813 3.945313-10.117187c3.429687-2.113282 7.84375-1.6875 10.808593 1.039062l-2.128906 2.234375c-2.367187-2.132813-6-2.011719-8.214844.28125-2.214843 2.292969-2.214843 5.925781 0 8.21875 2.214844 2.292969 5.847657 2.414063 8.214844.28125l2.128906 2.234375c-1.660156 1.527344-3.835937 2.375-6.089843 2.375zm0 0" fill="#e03875"/></svg>