<svg height="18" viewBox="0 0 18 18" width="18" xmlns="http://www.w3.org/2000/svg"><path d="m14.257812 10.855469c0 .703125-.378906 1.054687-1.066406 1.082031h-8.425781c-.6875 0-1.066406-.351562-1.066406-1.082031 0-.703125.378906-1.054688 1.066406-1.082031h8.46875c.6875.027343 1.023437.378906 1.023437 1.082031m-1.023437 1.617187h-8.46875c-.6875 0-1.066406.339844-1.066406 1.082032 0 .703124.378906 1.042968 1.066406 1.085937h8.46875c.6875 0 1.066406-.351563 1.066406-1.085937-.042969-.742188-.378906-1.082032-1.066406-1.082032m2.613281-5.917968c-.6875 0-1.066406.351562-1.066406 1.039062v5.921875c0 .703125.378906 1.054687 1.066406 1.082031 1.042969-.027344 1.589844-1.082031 1.589844-3.222656v-2.65625c0-1.433594-.546875-2.136719-1.589844-2.164062m-13.695312 0c-1.042969.027343-1.589844.730468-1.589844 2.164062v2.65625c0 2.140625.546875 3.195312 1.589844 3.222656.6875 0 1.066406-.339844 1.066406-1.082031v-5.878906c-.027344-.703125-.378906-1.054688-1.066406-1.082031m13.695312-.535157c0-1.785156-.925781-2.628906-2.613281-2.660156h-8.46875c-1.714844.03125-2.613281.914063-2.613281 2.660156 1.039062 0 1.589844.5625 1.589844 1.617188 0 1.054687.546874 1.601562 1.585937 1.601562h7.382813c1.027343 0 1.589843-.546875 1.589843-1.601562-.042969-1.082031.550781-1.574219 1.546875-1.617188" fill="#444"/></svg>