<svg height="18" viewBox="0 0 18 18" width="18" xmlns="http://www.w3.org/2000/svg"><path d="m4.598958 13.109375 5.791667-3.208333c1.890625-1.052084 4.791667 1.78125 3.708333 3.708333l-3.21875 5.8125c-2.078125 3.739583-10.088541-4.192708-6.28125-6.3125m5.901042-3.609375-1-2.291667c-.302083-.729166-.697917-1.208333-1.5-1.208333h-3.5c-1.708333 0-2.5.5-2.5 2.5.083333 1.791667.791667 3.5 2 4.828125m4-7.328125c0-1.552083.239583-4-2-4-2 0-2.5 2.171875-2.5 4m11 7.5 2.291667 1c.729166.302083 1.208333.697917 1.208333 1.5v3.5c0 1.708333-.5 2.5-2.5 2.5-1.791667-.083333-3.5-.791667-4.828125-2m7.328125-4c1.552083 0 4-.239583 4 2 0 2-2.171875 2.5-4 2.5" fill="none" stroke="#fff" stroke-linecap="round" stroke-linejoin="round" stroke-width="2" transform="scale(.75)"/></svg>