<svg height="18" viewBox="0 0 18 18" width="18" xmlns="http://www.w3.org/2000/svg"><path d="m117.5 33.5.305556-.194444c-.611112-1.111112-1.5-2.111112-2.416667-2.611112l-48.277778-27.805555c-.805555-.5-1.916667-.694445-3.111111-.694445s-2.305556.305556-3.111111.694445l-48 27.916667c-1.694445 1-2.888889 3.5-2.888889 5.388888v55.694445c0 1.111111.194444 2.305555.888889 3.416667l-.194445.083333c.5.805555 1.194445 1.5 1.916667 1.916667l48.194445 27.888888c.805555.5 1.888888.694445 3.083333.694445 1.222222 0 2.305555-.277778 3.111111-.694445l48-27.888888c1.694444-1 2.888889-3.5 2.888889-5.416667v-55.777778c.111111-.805555 0-1.722222-.388889-2.611111m-53.5 70c-21.805556 0-39.5-17.694444-39.5-39.5s17.694444-39.5 39.5-39.5c14.694444 0 27.5 8.111111 34.305556 20l-13 7.5c-4.194445-7.5-12.194445-12.5-21.305556-12.5-13.5 0-24.5 11-24.5 24.5s11 24.5 24.5 24.5c9.111111 0 17.111111-5 21.305556-12.388889l12.888888 7.583333c-6.805555 11.805556-19.583333 19.805556-34.194444 19.805556m51-41.5h-3.194444l-.916667 4h4.111111v5h-5l-1.194444 6h-4.916667l1.222222-6h-3.805555l-1.194445 6h-4.805555l1.194444-6h-2.5v-5h3.5l.888889-4h-4.388889v-5h5.305556l1.194444-6h4.888889l-1.194445 6h3.805556l1.194444-6h4.805556l-1.194444 6h2.194444zm-12.694444 4h3.805555l.888889-4h-3.805556zm0 0" fill="none" stroke="#fff" stroke-linecap="round" stroke-linejoin="round" stroke-width="1.5" transform="scale(.140625)"/></svg>