<svg height="18" viewBox="0 0 18 18" width="18" xmlns="http://www.w3.org/2000/svg"><path d="m1.230469.140625 1.414062 15.875 6.347657 1.769531 6.359374-1.777344 1.417969-15.867187zm12.601562 3.636719-.472656 5.289062.003906.027344-.003906.066406-.335937 3.695313-.035157.328125-3.988281 1.105468-.003906.003907-3.980469-1.109375-.269531-3.058594h1.953125l.136719 1.554688 2.164062.585937 2.171875-.59375.230469-2.53125h-4.539063l-.039062-.429687-.089844-1-.046875-.539063h4.886719l.175781-1.96875h-7.441406l-.039063-.425781-.089843-1.003906-.046876-.539063h9.746094zm0 0" fill="#1572b6"/></svg>