<svg height="18" viewBox="0 0 18 18" width="18" xmlns="http://www.w3.org/2000/svg"><path d="m12.964844 1.167969c-.140625-.085938-.28125-.167969-.421875-.238281l-.464844-.210938c-.054687-.015625-.097656-.042969-.152344-.058594-.140625-.054687-.269531-.113281-.410156-.152344-.757813-.253906-1.558594-.382812-2.402344-.382812-4.289062 0-7.75 3.476562-7.75 7.765625 0 3.78125 2.699219 6.917969 6.257813 7.621094v2.222656c4.628906-.703125 8.734375-4.390625 9.042968-9.226563.183594-2.925781-1.265624-5.90625-3.699218-7.339843m-5.707032 1.871093c.25-.03125.53125.070313.714844.292969.140625.140625.226563.324219.324219.519531.28125.664063.183594 1.378907-.195313 1.898438-.664062-.140625-1.265624-.5625-1.546874-1.222656-.101563-.183594-.15625-.433594-.15625-.617188.015624-.480468.421874-.832031.859374-.871094m-2.320312 2.289063h.152344c.238281 0 .421875.058594.660156.15625.664062.28125 1.140625.84375 1.28125 1.460937-.5625.382813-1.335938.480469-1.996094.199219-.183594-.097656-.367187-.199219-.5625-.339843-.621094-.503907-.28125-1.445313.464844-1.476563m.152344 4.882813c-.855469.039062-1.265625-.945313-.644532-1.464844.140626-.140625.320313-.238282.5625-.335938.25-.113281.503907-.15625.773438-.167968.433594-.015626.855469.109374 1.207031.351562-.097656.617188-.5625 1.179688-1.222656 1.460938-.210937.113281-.449219.15625-.675781.15625m3.261718 1.375c-.097656.183593-.179687.382812-.320312.5625-.480469.621093-1.578125.183593-1.519531-.617188 0-.183594.054687-.421875.152343-.605469.28125-.660156.84375-1.082031 1.507813-1.222656.363281.5625.460937 1.28125.179687 1.882813m1.28125-7.734376c.097657-.179687.183594-.378906.324219-.5625.195313-.222656.476563-.320312.746094-.292968.433594.042968.855469.394531.828125.898437 0 .183594-.054688.4375-.15625.621094-.28125.660156-.84375 1.082031-1.503906 1.222656-.421875-.507812-.519532-1.210937-.238282-1.886719m.421876 8.296876c-.140626-.140626-.226563-.320313-.324219-.519532-.28125-.660156-.183594-1.378906.199219-1.898437.660156.140625 1.265624.5625 1.546874 1.222656.097657.183594.152344.4375.152344.621094.027344.730469-1.054687 1.152343-1.574218.574219m2.898437-1.980469c-.242187 0-.421875-.058594-.664063-.15625-.660156-.28125-1.136718-.84375-1.277343-1.460938.351562-.238281.785156-.367187 1.222656-.351562.253906 0 .519531.054687.773437.167969.183594.097656.367188.183593.5625.324218.648438.476563.226563 1.53125-.617187 1.476563" fill="#00a818"/></svg>