<svg height="18" viewBox="0 0 18 18" width="18" xmlns="http://www.w3.org/2000/svg"><path d="m9 .015625c-.300781 0-.597656.015625-.894531.046875-.015625 0-.03125.0039062-.046875.0039062-.117188.0117188-.230469.0273438-.347656.0429688-.042969.003906-.089844.011719-.132813.019531-.0625.011719-.125.019532-.1875.03125-4.261719.761719-7.390625 4.441406-7.390625 8.839844 0 .84375.117188 1.675781.347656 2.476562v.003907c.019532.074219.046875.152343.070313.226562.007812.03125.019531.0625.027343.09375 1.203126 3.65625 4.667969 6.183594 8.550782 6.183594.125 0 .25 0 .375-.007813.644531-.027343 1.21875-.429687 1.464844-1.027343l.355468-.863281 4.128906-10.054688h-1.355468l-1.734375 4.402344-1.75-4.402344h-1.433594l2.453125 6.011719-1.785156 4.335937-.039063.09375c-.0625.144532-.199219.246094-.355469.253906-.105468.003907-.214843.003907-.324218.003907-3.4375 0-6.5-2.300781-7.445313-5.597657-.199219-.691406-.300781-1.410156-.296875-2.132812 0-3.828125 2.753906-7.023438 6.484375-7.628906.058594-.007813.113281-.015625.171875-.023438.0625-.011718.125-.019531.191406-.023437.296876-.035157.597657-.054688.898438-.054688 3.304688 0 6.191406 2.042969 7.292969 5.121094.039062.109375.074219.222656.109375.332031.226562.738282.34375 1.507813.34375 2.277344 0 3.429688-2.207032 6.402344-5.488282 7.398438l.363282 1.199218c3.816406-1.160156 6.375-4.613281 6.378906-8.59375 0-.902344-.136719-1.785156-.398438-2.636718h.003907l-.011719-.035157c-.027344-.085937-.058594-.175781-.085938-.261719-.015624-.046874-.03125-.089843-.050781-.136718-.011719-.039063-.027343-.082032-.042969-.121094-1.320312-3.492188-4.628906-5.796875-8.414062-5.796875m-2.675781 5.902344c-.898438 0-1.628907.289062-2.234375.882812-.601563.589844-.902344 1.328125-.902344 2.199219 0 .867188.304688 1.605469.902344 2.191406.605468.59375 1.335937.878906 2.234375.878906 1.28125 0 2.367187-.714843 2.839843-1.863281l.027344-.0625-1.222656-.417969-.019531.058594c-.273438.664063-.878907 1.058594-1.625 1.058594-.503907 0-.933594-.175781-1.269531-.523438-.34375-.351562-.515626-.796874-.515626-1.320312s.167969-.960938.515626-1.328125c.339843-.347656.765624-.527344 1.269531-.527344.730469 0 1.320312.390625 1.625 1.066407l.019531.050781 1.222656-.414063-.027344-.0625c-.46875-1.152344-1.558593-1.867187-2.839843-1.867187" fill="#1b1e2e"/></svg>