<svg height="18" viewBox="0 0 18 18" width="18" xmlns="http://www.w3.org/2000/svg"><path d="m9 .015625c-.273438 0-.546875.015625-.820312.0429688v-.0039063l-.074219.0078125c-.019531 0-.035157.0039062-.046875.0039062-.117188.0117188-.230469.0273438-.347656.0429688-.046876.003906-.089844.011719-.132813.019531-.0625.011719-.125.019532-.1875.03125l-.074219.011719.003906.003906c-4.222656.789063-7.320312 4.453125-7.320312 8.824219 0 .824219.117188 1.628906.335938 2.414062h-.007813l.019531.066407c.019532.078125.046875.152343.070313.230469.007812.027343.015625.058593.027343.089843 1.203126 3.65625 4.667969 6.183594 8.550782 6.183594.125 0 .25 0 .375-.007813.664062-.027343 1.257812-.445312 1.515625-1.0625l.382812-.933593 4.105469-9.996094h-1.496094l-1.675781 4.25-1.6875-4.25h-1.574219l2.464844 6.035156-1.800781 4.371094c-.050781.117187-.164063.199219-.289063.203125-.109375.003906-.210937.007812-.320312.007812-3.378906 0-6.390625-2.261718-7.320313-5.503906-.195312-.679687-.292969-1.386718-.292969-2.097656 0-3.765625 2.707032-6.90625 6.378907-7.5.054687-.007812.109375-.015625.164062-.027344.0625-.007812.125-.015625.191407-.023437.292968-.03125.585937-.050781.882812-.050781 3.25 0 6.085938 2.007812 7.167969 5.035156.011719.023437.019531.046875.027343.070312.277344.800782.421876 1.648438.421876 2.496094 0 3.371094-2.167969 6.292969-5.394532 7.273438l-.066406.019531.398438 1.324219.066406-.019532c3.816406-1.160156 6.375-4.617187 6.378906-8.59375 0-.878906-.132812-1.738281-.382812-2.570312h.007812l-.019531-.066406-.011719-.035157c-.027344-.085937-.058594-.175781-.085938-.261719-.015624-.046874-.03125-.089843-.050781-.136718-.011719-.039063-.027343-.078125-.042969-.125l-.023437-.066406-.007813.003906c-1.335937-3.453125-4.625-5.730469-8.382812-5.730469m0 .140625c3.726562 0 6.984375 2.269531 8.28125 5.703125l.027344.070313c.007812.015624.011718.035156.019531.050781.015625.046875.03125.089843.046875.132812.027344.082031.054688.160157.078125.242188l.015625.050781c.261719.839844.390625 1.714844.390625 2.597656 0 3.894532-2.492187 7.273438-6.210937 8.433594l-.320313-1.058594c3.246094-1.015625 5.425781-3.972656 5.425781-7.378906 0-.863281-.144531-1.726562-.429687-2.542969l-.023438-.070312c-1.101562-3.082031-3.992187-5.128907-7.300781-5.128907-.300781 0-.601562.019532-.898438.054688-.066406.007812-.128906.015625-.195312.023438-.054688.007812-.113281.019531-.167969.027343-3.75.601563-6.503906 3.839844-6.496093 7.636719 0 .730469.101562 1.445312.300781 2.136719.945312 3.300781 4.011719 5.605469 7.453125 5.605469.113281 0 .21875-.003907.324218-.007813.183594-.007813.34375-.125.414063-.292969l.078125-.1875 1.746094-4.234375-2.410156-5.894531h1.269531l1.785156 4.488281 1.773437-4.488281h1.191407l-4.089844 9.953125-.320313.785156c-.234374.566407-.78125.949219-1.390624.976563-.125.003906-.246094.003906-.371094.003906-3.820313 0-7.234375-2.488281-8.417969-6.085938-.007813-.027343-.015625-.058593-.027344-.089843-.015625-.054688-.035156-.109375-.050781-.164063l-.019531-.0625c-.226563-.792968-.339844-1.617187-.339844-2.441406 0-4.332031 3.078125-7.953125 7.273437-8.703125l.074219-.011719.109375-.019531c.046875-.003906.089844-.011719.132813-.019531.113281-.015625.226562-.027344.34375-.039063.007812-.003906.015625-.003906.023437-.003906l.019532-.003906c.292968-.027344.585937-.042969.882812-.042969m-2.652344 5.714844c-.910156 0-1.65625.296875-2.269531.894531-.605469.597656-.917969 1.355469-.917969 2.234375 0 .875.3125 1.628906.917969 2.222656.613281.601563 1.359375.894532 2.269531.894532 1.292969 0 2.402344-.726563 2.882813-1.894532l.050781-.128906-1.347656-.457031-.042969.113281c-.261719.636719-.832031 1.011719-1.542969 1.011719-.488281 0-.890625-.167969-1.210937-.5-.328125-.339844-.492188-.757813-.492188-1.261719s.160157-.914062.492188-1.269531c.324219-.332031.722656-.5 1.210937-.5.695313 0 1.253906.367187 1.542969 1.011719l.050781.113281 1.339844-.457031-.050781-.128907v-.003906c-.480469-1.167969-1.589844-1.894531-2.882813-1.894531m0 .140625c1.238282 0 2.289063.6875 2.75 1.800781l-1.082031.367188.003906.007812c-.3125-.691406-.925781-1.097656-1.671875-1.097656-.519531 0-.964844.183594-1.3125.542968-.355468.378907-.53125.832032-.53125 1.367188 0 .53125.179688.996094.53125 1.359375.347656.355469.792969.539063 1.3125.539063.761719 0 1.390625-.410157 1.671875-1.09375v.007812l1.078125.363281c-.464844 1.113281-1.511718 1.800781-2.75 1.800781-.878906 0-1.582031-.277343-2.171875-.851562-.582031-.570312-.875-1.28125-.875-2.125 0-.847656.292969-1.5625.875-2.132812.589844-.578126 1.292969-.855469 2.171875-.855469zm0 0" fill="#1b1e2e"/></svg>