<svg height="18" viewBox="0 0 18 18" width="18" xmlns="http://www.w3.org/2000/svg" xmlns:xlink="http://www.w3.org/1999/xlink"><linearGradient id="a" gradientUnits="userSpaceOnUse" x1="18.689028" x2="10.654055" y1="9.057703" y2="14.260039"><stop offset=".081" stop-color="#69d3a7"/><stop offset="1" stop-color="#69d3a7" stop-opacity="0"/></linearGradient><linearGradient id="b" gradientUnits="userSpaceOnUse" x1="6.003323" x2=".955466" y1=".128811" y2="10.834763"><stop offset="0" stop-color="#69d3a7"/><stop offset=".823" stop-color="#2ab586"/><stop offset="1" stop-color="#1cae7f"/></linearGradient><linearGradient id="c" gradientUnits="userSpaceOnUse" x1="-.012776" x2="13.223452" y1="13.1147" y2="17.268732"><stop offset=".077" stop-color="#1cae7f"/><stop offset=".164" stop-color="#1ca379"/><stop offset=".316" stop-color="#1c8568"/><stop offset=".516" stop-color="#1b554d"/><stop offset=".719" stop-color="#1b1e2e"/></linearGradient><path d="m6.324219 7.144531c.730469 0 1.320312.390625 1.625 1.066407l.019531.050781 1.222656-.414063-.027344-.0625c-.46875-1.152344-1.558593-1.867187-2.839843-1.867187-.898438 0-1.628907.289062-2.234375.882812-.601563.589844-.902344 1.328125-.902344 2.199219 0 .867188.304688 1.605469.902344 2.191406.605468.59375 1.335937.878906 2.234375.878906 1.28125 0 2.367187-.714843 2.839843-1.863281l.027344-.0625-1.222656-.414062-.019531.054687c-.273438.664063-.878907 1.058594-1.625 1.058594-.503907 0-.933594-.175781-1.269531-.523438-.34375-.351562-.515626-.796874-.515626-1.320312s.167969-.960938.515626-1.328125c.339843-.347656.765624-.527344 1.269531-.527344"/><path d="m11.621094 17.597656-.363282-1.199218c3.28125-.996094 5.488282-3.96875 5.488282-7.398438 0-.945312-.167969-1.867188-.503906-2.746094l1.171874-.445312c.390626 1.019531.585938 2.101562.585938 3.195312 0 3.980469-2.5625 7.433594-6.378906 8.59375" fill="url(#a)"/><path d="m16.40625 6.734375c-1-3.269531-3.976562-5.464844-7.40625-5.464844-.464844 0-.929688.042969-1.386719.121094l-.222656-1.230469c.53125-.097656 1.070313-.144531 1.609375-.144531 3.980469 0 7.4375 2.550781 8.605469 6.351563zm0 0" fill="#69d3a7"/><path d="m.574219 12.167969c-.382813-1.011719-.574219-2.078125-.574219-3.167969 0-4.640625 3.484375-8.484375 8.105469-8.9414062l.121093 1.2500002c-3.976562.390625-6.972656 3.699218-6.972656 7.691406-.003906.933594.164063 1.855469.492188 2.726562zm0 0" fill="url(#b)"/><path d="m9.046875 6.03125 2.453125 6.011719-1.785156 4.335937 1.25.25 4.355468-10.597656h-1.355468l-1.734375 4.402344-1.75-4.402344zm0 0"/><path d="m9.9375 15.835938-.261719.636718c-.0625.144532-.199219.246094-.355469.253906-.105468.003907-.214843.007813-.324218.007813-3.4375 0-6.5-2.304687-7.445313-5.601563l-1.203125.347657c1.097656 3.828125 4.652344 6.503906 8.648438 6.503906.125 0 .25 0 .375-.007813.644531-.027343 1.21875-.429687 1.464844-1.027343l.355468-.863281zm0 0" fill="url(#c)"/></svg>