<svg height="18" viewBox="0 0 18 18" width="18" xmlns="http://www.w3.org/2000/svg" xmlns:xlink="http://www.w3.org/1999/xlink"><linearGradient id="a"><stop offset="0" stop-color="#f9a03c"/><stop offset="1" stop-color="#f7974e"/></linearGradient><linearGradient id="b" gradientUnits="userSpaceOnUse" x1="11.986875" x2="12.804328" xlink:href="#a" y1="13.725562" y2="-6.963047"/><linearGradient id="c" gradientUnits="userSpaceOnUse" x1="4.728797" x2="5.538094" xlink:href="#a" y1="13.741031" y2="-6.739453"/><path d="m16.617188 8.996094c.734374-.878906 1.175781-2 1.175781-3.234375 0-2.796875-2.273438-5.058594-5.070313-5.058594h-5.976562c1.460937.984375 2.667968 2.25 3.492187 3.65625h2.484375c.78125 0 1.414063.625 1.414063 1.40625s-.636719 1.40625-1.414063 1.40625h-1.464844c.113282.703125.175782 1.210937.175782 1.84375 0 .617187-.0625 1.25-.171875 1.8125h1.460937c.78125 0 1.414063.695313 1.414063 1.476563s-.636719 1.476562-1.414063 1.476562h-2.46875c-.183594.28125-.390625.667969-.617187.980469-.757813 1.070312-1.726563 1.972656-2.847657 2.675781h5.933594c2.71875 0 4.941406-2.214844 5.066406-4.90625-.003906.046875-.007812.058594-.011718.101562.007812-.121093.015625-.257812.015625-.378906 0-1.230468-.441407-2.378906-1.175781-3.257812zm0 0" fill="url(#b)"/><path d="m8.582031 13.71875v-.027344c.011719-.015625.019531-.039062.03125-.054687.007813-.015625.019531-.039063.03125-.054688v-.003906c.863281-1.3125 1.367188-2.871094 1.367188-4.554687 0-4.59375-3.738281-8.320313-8.328125-8.320313h-1.542969v3.65625h1.542969c2.574218 0 4.671875 2.085937 4.671875 4.660156 0 .703125-.15625 1.359375-.433594 1.957031 0 .003907-.003906.050782-.003906.054688-.746094 1.59375-2.363281 2.75-4.234375 2.75h-1.542969v3.65625h1.542969c2.867187 0 5.398437-1.507812 6.898437-3.71875" fill="url(#c)"/></svg>