<svg height="18" viewBox="0 0 18 18" width="18" xmlns="http://www.w3.org/2000/svg" xmlns:xlink="http://www.w3.org/1999/xlink"><linearGradient id="a" gradientUnits="userSpaceOnUse" x1="12.953956" x2="2.107499" y1="5.782132" y2="5.782132"><stop offset="0" stop-color="#21d789"/><stop offset=".917" stop-color="#fcf84a"/></linearGradient><linearGradient id="b" gradientUnits="userSpaceOnUse" x1="13.386566" x2="13.386566" y1="5.5421" y2="19.078923"><stop offset="0" stop-color="#21d789"/><stop offset="1" stop-color="#087cfa"/></linearGradient><linearGradient id="c" gradientUnits="userSpaceOnUse" x1="22.340582" x2="6.339514" y1="17.87641" y2="4.836832"><stop offset=".105" stop-color="#21d789"/><stop offset=".967" stop-color="#087cfa"/></linearGradient><linearGradient id="d" gradientUnits="userSpaceOnUse" x1="14.965851" x2="3.687499" y1="-.441426" y2="12.340733"><stop offset=".235" stop-color="#21d789"/><stop offset=".74" stop-color="#087cfa"/></linearGradient><linearGradient id="e" gradientUnits="userSpaceOnUse" x1="8.986621" x2="8.986621" y1="1.590616" y2="10.533075"><stop offset=".084" stop-color="#878585"/><stop offset=".538"/></linearGradient><path d="m11.335938.816406.324218 6.648438-8.285156 3.273437-2.558594-6.613281zm0 0" fill="url(#a)"/><path d="m17.183594 4.703125-7.160156 3.105469 1.3125-6.992188zm0 0" fill="#21d789"/><path d="m9.597656 6.238281 7.585938-1.535156v7.175781l-5.21875 1.960938-2.128906-1.941406zm0 0" fill="url(#b)"/><path d="m6.441406 4.140625 5.234375.8125 5.507813 6.863281-5.285156 2.042969-2.039063-2.027344zm0 0" fill="url(#c)"/><path d="m4.191406.816406 7.46875 4.125-2.574218 12.242188h-4.347657l-3.765625-3.886719zm0 0" fill="url(#d)"/><path d="m13.984375 4.015625h-9.96875v9.96875h9.96875zm0 0" fill="url(#e)"/><path d="m8.832031 12.269531h-3.710937v.609375h3.710937zm-3.667969-6.976562h1.457032c1.183594 0 1.980468.796875 1.980468 1.84375 0 1.042969-.796874 1.871093-1.980468 1.871093l-1.457032.027344zm.824219.769531v2.226562h.632813c.660156 0 1.128906-.4375 1.128906-1.097656s-.441406-1.128906-1.128906-1.128906zm3.011719 2.40625.480469-.582031c.335937.28125.699219.449219 1.113281.449219.335938 0 .550781-.132813.550781-.347657v-.019531c0-.214844-.132812-.316406-.75-.480469-.761719-.183593-1.246093-.398437-1.246093-1.148437v-.015625c0-.679688.550781-1.128907 1.3125-1.128907.550781 0 1.015624.164063 1.398437.480469l-.433594.617188c-.332031-.234375-.664062-.367188-.980469-.367188-.316406 0-.480468.148438-.480468.332031v.015626c0 .25.164062.332031.8125.5.765625.199218 1.195312.464843 1.195312 1.128906v.019531c0 .746094-.5625 1.160156-1.378906 1.160156-.5625-.015625-1.144531-.214843-1.59375-.613281m0 0" fill="#fff"/></svg>