<svg height="18" viewBox="0 0 18 18" width="18" xmlns="http://www.w3.org/2000/svg"><path d="m10.289062.769531-1.644531 1.367188-7.875-1.25v7.480469l3.015625 2.402343v-7.003906h10.429688v9.222656l.839844.285157 1.125-9.945313zm5.890626 2.558594-.890626 7.867187 1.941407-1.128906zm-12.253907.578125v10.144531h10.148438v-10.144531zm7.292969 1.195312c.613281-.035156 1.214844.175782 1.675781.582032l-.589843.710937c-.300782-.28125-.699219-.4375-1.113282-.429687-.6875 0-1.226562.601562-1.226562 1.324218v.011719c0 .78125.539062 1.351563 1.292968 1.351563.3125.011718.625-.078125.882813-.253906v-.609376h-.941406v-.808593h1.851562v1.851562c-.507812.4375-1.152343.675781-1.820312.671875-1.328125 0-2.238281-.933594-2.238281-2.1875v-.015625c-.003907-.589843.230468-1.15625.648437-1.570312.417969-.414063.988281-.640625 1.578125-.628907zm-6.316406.070313h1.660156c1.335938 0 2.261719.921875 2.261719 2.117187v.011719c0 1.203125-.925781 2.128907-2.261719 2.128907h-1.660156zm.933594.847656v2.570313h.726562c.34375.019531.679688-.105469.925781-.347656.242188-.246094.375-.578126.355469-.921876v-.019531c.019531-.34375-.109375-.679687-.355469-.925781-.246093-.242188-.582031-.375-.925781-.355469zm-3.085938 3.925781-1.835938 5.519532 10.976563 1.765625-3.808594-3.039063h-4.296875v-3.421875zm9.140625 7.285157.839844-3.039063h-4.648438zm-7.085937-5.039063h3.855468v.644532h-3.855468zm0 0" fill="#21d789"/></svg>