<svg height="18" viewBox="0 0 18 18" width="18" xmlns="http://www.w3.org/2000/svg"><path d="m4.191406.816406-.628906 2.445313-2.746094.863281 1.511719 3.910156-1.355469 5.261719 3.765625 3.886719h4.347657l.65625-3.128906h-5.796876v-10.109376h10.109376v9.109376l3.128906-1.175782v-7.175781l-5.847656-3.886719-4.554688 1.433594zm-.105468 3.269532v9.828124h9.828124v-9.828124zm6.375 1.109374c.550781 0 1.015624.164063 1.398437.480469l-.433594.617188c-.332031-.234375-.664062-.367188-.980469-.367188-.316406 0-.480468.148438-.480468.332031v.015626c0 .25.164062.332031.8125.5.765625.199218 1.195312.464843 1.195312 1.128906v.019531c0 .746094-.5625 1.160156-1.378906 1.160156-.5625-.015625-1.144531-.214843-1.59375-.613281l.480469-.582031c.335937.28125.699219.449219 1.113281.449219.335938 0 .550781-.132813.550781-.347657v-.019531c0-.214844-.132812-.316406-.75-.480469-.761719-.183593-1.246093-.398437-1.246093-1.148437v-.015625c0-.679688.550781-1.128907 1.3125-1.128907m-5.296876.097657h1.457032c1.183594 0 1.980468.796875 1.980468 1.84375 0 1.042969-.796874 1.871093-1.980468 1.871093l-1.457032.027344zm.824219.769531v2.226562h.632813c.660156 0 1.128906-.4375 1.128906-1.097656s-.441406-1.128906-1.128906-1.128906zm-.867187 6.207031h3.710937v.609375h-3.710937zm0 0" fill="#087cfa"/></svg>