<svg height="18" viewBox="0 0 18 18" width="18" xmlns="http://www.w3.org/2000/svg"><path d="m8.394531.292969c-1.082031.089843-2.121093.363281-3.117187.816406-2.976563 1.519531-4.640625 3.949219-4.984375 7.285156v1.175781c.089843 1.082032.363281 2.121094.816406 3.117188 1.519531 2.976562 3.949219 4.640625 7.285156 4.984375h1.175781c1.082032-.089844 2.121094-.359375 3.117188-.8125 2.976562-1.523437 4.640625-3.953125 4.984375-7.289063v-1.175781c-.089844-1.082031-.359375-2.121093-.8125-3.117187-1.523437-2.976563-3.953125-4.640625-7.289063-4.984375zm.382813.199219c2.1875-.066407 4.183594.679687 5.984375 2.242187 2.203125 2.152344 3.0625 4.753906 2.582031 7.804687-.398438 1.976563-1.347656 3.621094-2.855469 4.933594-.078125.066406-.160156.113282-.242187.140625-.21875-.644531-.175782-1.273437.121094-1.886719.4375-.71875.785156-1.484374 1.035156-2.285156.25-.832031.335937-1.675781.261718-2.527344-.039062-.925781-.28125-1.792968-.726562-2.597656.089844-.265625.117188-.550781.085938-.828125-.070313-.179687-.203126-.277343-.398438-.296875-.300781-.015625-.601562-.023437-.898438-.015625-.59375.039063-1.175781.167969-1.730468.378907-.542969.027343-1.085938.042968-1.628906.054687-.136719.054687-.277344.058594-.414063.015625-.390625-.015625-.714844-.171875-.96875-.46875-.386719-.234375-.789063-.28125-1.214844-.136719-.296875.203125-.40625.488281-.328125.847657.183594.328124.234375.671874.15625 1.039062-.03125.054688-.0625.113281-.085937.171875-.960938.882813-1.820313 1.867187-2.5625 2.945313-.21875.378906-.394531.785156-.519531 1.210937-.066407.597656.179687 1.007813.746093 1.226563.308594.125.636719.207031.96875.242187-.277343.210937-.589843.28125-.933593.207031-.4375-.074218-.863282-.207031-1.265626-.398437-.414062.75-.800781 1.511719-1.160156 2.285156-.230468-.257813-.453125-.523437-.671875-.792969-.023437-.046875-.023437-.097656 0-.140625.292969-.691406.617188-1.375.96875-2.042969.179688.320313.4375.535157.777344.640626-.269531-.257813-.4375-.578126-.5-.949219-.066406-.597657-.007813-1.195313.171875-1.765625.695312-2.230469 1.945312-4.070313 3.753906-5.523438.78125-.558594 1.648438-.914062 2.597656-1.074218.113282-.007813.222657-.011719.335938-.011719.78125-.007813 1.535156.140625 2.261719.445312-.730469-.601562-1.574219-.898437-2.527344-.898437-.757813.015625-1.460937.214844-2.113281.605468-1.378906.789063-2.519532 1.835938-3.425782 3.148438-.28125.035156-.566406.050781-.847656.054688-1.472656-.234376-1.898437.332031-1.28125 1.695312.25.5.480469 1.007812.691406 1.523438-.03125.414062-.054687.828124-.070312 1.246093-.445312.722657-.867188 1.460938-1.261719 2.214844-.023437.046875-.046875.046875-.070312 0-1.128907-2.117187-1.378907-4.332031-.742188-6.648437.949219-2.84375 2.847657-4.742188 5.691407-5.691407.773437-.203125 1.523437-.316406 2.253906-.339843zm5.570312 11.191406c-.191406.808594-.464844 1.597656-.8125 2.351562-.074218.136719-.183594.230469-.328125.277344l-.035156-.050781c.148437-.417969.21875-.855469.207031-1.296875-.125.515625-.316406 1.019531-.570312 1.488281-.265625.109375-.539063.125-.8125.050781-.085938-.109375-.152344-.230468-.191406-.363281-.089844-.433594-.140626-.875-.15625-1.316406 1.097656.074219 1.996093-.304688 2.699218-1.140625zm0 0" fill="#382a24"/></svg>