<svg height="18" viewBox="0 0 18 18" width="18" xmlns="http://www.w3.org/2000/svg"><path d="m9 .28125c-4.816406 0-8.71875 3.902344-8.71875 8.71875s3.902344 8.71875 8.71875 8.71875 8.71875-3.902344 8.71875-8.71875-3.902344-8.71875-8.71875-8.71875m4.511719 2.832031.003906-.011719.113281-.421874.050782.035156c.234374.175781.457031.363281.671874.5625l-.015624.046875-.003907.007812c-.066406.207031-.277343.328125-.488281.285157-.113281-.023438-.207031-.089844-.269531-.183594-.0625-.097656-.085938-.210938-.0625-.320313m-1.945313.800781v-.007812c.066406-.21875.296875-.347656.523438-.289062.21875.058593.351562.289062.296875.511718v.011719l-.453125 1.683594-.039063-.027344c-.226562-.167969-.464843-.316406-.71875-.4375zm-1.515625-1.875.003907-.011718.207031-.757813.058593.007813c.257813.046875.519532.105468.769532.171875l-.214844.800781v.011719c-.070312.203125-.28125.324219-.492188.28125-.109374-.023438-.207031-.089844-.269531-.183594s-.085937-.210937-.0625-.320313m-3.160156 1.292969.003906-.007812.539063-2 .058594-.011719c.265624-.050781.539062-.089844.808593-.113281.015625.058593.015625.128906-.003906.1875v.011719l-.582031 2.144531v.011719c-.070313.203124-.28125.324218-.492188.28125-.109375-.023438-.207031-.085938-.269531-.183594-.0625-.09375-.085937-.207032-.0625-.320313zm-4.945313 4.597657c-.0625.21875-.296874.347656-.515624.289062-.082032-.019531-.15625-.0625-.210938-.128906.113281-1 .425781-1.96875.910156-2.851563.03125 0 .066406 0 .101563.011719.222656.0625.355469.289062.300781.515625l-.003906.007813-.578125 2.148437zm1.746094 1.171874v.011719l-.578125 2.144531-.003906.011719c-.066406.214844-.289063.339844-.507813.289063-.230468-.054688-.367187-.285156-.3125-.515625v-.011719l.578126-2.144531.003906-.007813c.0625-.21875.292968-.347656.519531-.292968.222656.0625.355469.292968.300781.515624zm.164063-2.921874c-.226563-.054688-.367188-.285157-.3125-.515626l.003906-.007812.578125-2.148438.003906-.007812c.066406-.21875.296875-.347656.519532-.289062.222656.058593.355468.285156.300781.511718l-.003907.011719-.578124 2.144531-.003907.011719c-.0625.214844-.285156.339844-.507812.289063zm1.125 7.324218-.003907.011719c-.0625.214844-.285156.339844-.507812.289063-.226562-.054688-.367188-.285157-.3125-.511719l.003906-.011719.578125-2.144531.003907-.015625.027343-.0625c.226563.191406.472657.359375.734375.5zm1.753906 1.3125-.003906.011719-.410157 1.535156-.058593-.023437c-.25-.09375-.492188-.199219-.730469-.316406l.378906-1.417969.003906-.011719c.066407-.21875.296876-.347656.519532-.289062.222656.058593.355468.289062.300781.511718zm2.382813-1.085937-.011719.046875v.011718l-.578125 2.144532-.003906.011718c-.066407.203126-.277344.324219-.492188.28125-.230469-.046874-.375-.273437-.328125-.503906v-.011718l.578125-2.144532.003906-.007812c.066406-.222656.296875-.351563.519532-.292969.117187.03125.210937.109375.265624.214844l.015626.0625.019531.097656.015625.074219zm5.664062.554687c-1.214844 1.324219-2.875 2.230469-4.746094 2.480469l-.015625-.113281-.03125-.222656-.027343-.164063-.03125-.214844-.039063-.261719-.019531-.105468-.035156-.246094-.023438-.148438-.0625-.375-.03125-.175781-.03125-.171875-.027344-.171875-.03125-.164062-.027344-.15625-.019531-.117188-.023437-.109375-.011719-.074218-.027344-.140626-.023437-.101562-.023438-.128906-.019531-.085938-.015625-.085937-.019531-.082031-.007813-.054688-.023437-.101562-.019531-.074219-.015626-.078125-.015624-.046875-.015626-.066407-.011718-.066406-.019532-.0625-.015624-.0625-.011719-.039062-.03125-.109375-.007813-.039063-.015625-.035156-.007812-.03125-.015625-.046875-.007813-.03125-.007812-.023437c-.019531-.054688-.039063-.105469-.0625-.160157l-.011719-.019531.082031-.203125-.3125.007813-.085937.003906c-2.8125.058594-4.628906-1.136719-4.628906-3.007813 0-1.988281 1.976562-3.585937 4.511718-3.585937 1.21875 0 2.265625.339844 3.089844.980468.699219.550782 1.214844 1.304688 1.480469 2.160157l.007812.019531.003907.027344.015624.042968.019532.082032.054687.191406.058594.214844.097656.363281.15625.570313.253907.941406.285156 1.070312.460937 1.71875.171875.648438zm.425781-8.519531v.007813l-.582031 2.148437v.007813c-.066406.214843-.289062.339843-.507812.289062-.230469-.054688-.367188-.285156-.316407-.511719l.003907-.011719.582031-2.144531v-.011719c.066406-.21875.296875-.347656.519531-.289062.222656.0625.355469.289062.304688.515625zm1.464844 2.859375-.582031 2.144531v.011719c-.058594.226562-.296875.359375-.523438.300781-.226562-.0625-.359375-.296875-.300781-.527343l.003906-.007813.578125-2.144531.003906-.011719c.066407-.21875.296876-.347656.519532-.289063.222656.058594.355468.285157.300781.511719zm-6.921875-1.429688c0 .300782-.246094.542969-.546875.542969s-.542969-.242187-.542969-.542969c0-.300781.242188-.546874.542969-.546874s.546875.246093.546875.546874"/></svg>