<svg height="18" viewBox="0 0 18 18" width="18" xmlns="http://www.w3.org/2000/svg"><g fill="none" stroke="#fff" stroke-linecap="round" stroke-linejoin="round" stroke-width="2" transform="scale(.75)"><path d="m14 4c0 1.104167-.895833 2-2 2s-2-.895833-2-2 .895833-2 2-2 2 .895833 2 2zm0 0"/><path d="m10.197917 3.197917c-4.697917.802083-8.197917 4.901041-8.197917 9.802083 0 1.104167.895833 2 2 2s2-.895833 2-2v-1c0-1.104167.895833-2 2-2s2 .895833 2 2v4c0 1.104167.895833 2 2 2s2-.895833 2-2v-4c0-1.104167.895833-2 2-2s2 .895833 2 2v1c0 1.104167.895833 2 2 2s2-.895833 2-2c0-4.901042-3.5-9-8.197917-9.802083"/><path d="m3.197917 14.802083c.890625 4.145834 4.557291 7.109375 8.802083 7.109375s7.911458-2.963541 8.802083-7.109375"/></g></svg>