<svg height="18" viewBox="0 0 18 18" width="18" xmlns="http://www.w3.org/2000/svg"><path d="m.59375 1.03125 1.441406 12.390625 6.941406 3.542969h.042969l6.949219-3.542969 1.4375-12.390625zm.15625.140625h16.5l-1.414062 12.160156-6.839844 3.484375-6.828125-3.484375zm7.640625 4.027344-.546875.246093-4.78125 2.210938c-.136719.0625-.230469.191406-.242188.339844v.828125c.011719.148437.105469.28125.246094.339843l4.726563 2.183594.347656.152344.203125-.375.769531-1.484375 1.257813-2.488281 2.824218 1.257812-3.113281 1.394532-.1875.082031-.042969.265625v.878906l.046876.546875.433593-.203125 4.601563-2.214844c.074218-.03125.117187-.09375.136718-.15625.015626-.0625.015626-.125.015626-.1875l-.003907-.816406c0-.0625 0-.125-.015625-.1875-.019531-.066406-.066406-.125-.128906-.15625l-4.570312-2.179688-.316407-.160156-.191406.386719-.875 1.777344-1.101563 2.191406-2.863281-1.265625 3.144531-1.390625.269532-.121094-.039063-.234375v-1.460937zm-.140625.214843v1.257813l.027344.140625-.167969.074219-3.4375 1.519531 3.277344 1.445312 1.164062-2.308593.871094-1.777344.128906-.257813.191407.097657 4.570312 2.175781c.035156.015625.046875.035156.054688.070312.011718.035157.011718.089844.011718.148438l.003906.816406c0 .0625-.003906.113282-.011718.148438-.011719.035156-.019532.050781-.054688.066406l-4.609375 2.21875-.246093.113281-.03125-.339843v-.859376l.027343-.179687.117188-.050781 3.40625-1.523438-3.234375-1.441406-1.320313 2.609375-.769531 1.480469-.136719.261718-.230469-.101562-4.730468-2.183594c-.089844-.039062-.152344-.125-.160156-.222656v-.804688c.007812-.097656.066406-.183593.15625-.222656l4.78125-2.210937zm0 0" fill="#60be86"/></svg>