<svg height="18" viewBox="0 0 18 18" width="18" xmlns="http://www.w3.org/2000/svg"><path d="m.691406 1.125 1.429688 12.242188 6.878906 3.5v-15.742188zm0 0" fill="#558d6c"/><path d="m9 1.125v15.742188l.007812.007812 6.878907-3.503906 1.421875-12.246094zm0 0" fill="#5aa579"/><path d="m2.648438 3.109375.914062 9.164063 5.4375 2.628906v-11.792969zm0 0" fill="#60be86"/><path d="m9 3.109375v11.792969l.007812.007812 5.441407-2.640625.902343-9.160156zm0 0" fill="#65d693"/><path d="m14.867188 7.71875-4.582032-2.175781-.257812-.125-.15625.320312-.871094 1.773438v2.09375l1.285156-2.542969 3.023438 1.34375-3.246094 1.460938-.121094.066406v1.527344l.324219-.15625 4.609375-2.207032c.097656-.058594.148438-.171875.128906-.28125v-.8125c.015625-.113281-.039062-.226562-.136718-.285156" fill="#5aa579"/><path d="m7.875 9.757812-3.0625-1.351562 3.273438-1.457031.25-.097657v-1.542968l-.480469.203125-4.769531 2.207031c-.109376.050781-.179688.160156-.179688.28125v.8125c0 .117188.066406.226562.171875.28125l4.703125 2.179688.28125.128906.171875-.316406.765625-1.480469v-2.09375zm0 0" fill="#558d6c"/></svg>