<svg height="18" viewBox="0 0 18 18" width="18" xmlns="http://www.w3.org/2000/svg"><path d="m9 1.101562h-8.328125l1.429687 12.277344 6.890626 3.515625h.007812l6.902344-3.515625 1.425781-12.277344zm6.015625 7.714844c0 .125 0 .234375-.109375.28125l-4.605469 2.214844-.339843.160156-.039063-.445312v-.871094l.035156-.21875.152344-.066406 3.261719-1.460938-3.03125-1.347656-1.289063 2.546875-.769531 1.480469-.171875.320312-.285156-.125-4.730469-2.183594c-.113281-.050781-.191406-.160156-.203125-.28125v-.816406c.007813-.125.085937-.230468.199219-.28125l4.78125-2.214844.449218-.199218v1.355468l.035157.191407-.21875.097656-3.292969 1.453125 3.074219 1.355469 1.132812-2.25.871094-1.777344.160156-.320313.253907.125 4.570312 2.179688c.101562.050781.105469.160156.105469.28125zm0 0" fill="#60be86"/></svg>