<svg height="18" viewBox="0 0 18 18" width="18" xmlns="http://www.w3.org/2000/svg"><g fill="none" stroke="#fff" stroke-linecap="round" stroke-linejoin="round" stroke-width="2" transform="scale(.75)"><path d="m21 19c0 1.104167-.895833 2-2 2s-2-.895833-2-2 .895833-2 2-2 2 .895833 2 2zm0 0"/><path d="m7 5c0 1.104167-.895833 2-2 2s-2-.895833-2-2 .895833-2 2-2 2 .895833 2 2zm0 0"/><path d="m6.479167 3.661458c3.963541-2.630208 9.234375-2.098958 12.598958 1.260417 3.359375 3.364583 3.890625 8.635417 1.260417 12.598958m-13.927084-11.109375 11.177084 11.177084m-13.927084-11.109375c-2.630208 3.963541-2.098958 9.234375 1.260417 12.598958 3.364583 3.359375 8.635417 3.890625 12.598958 1.260417"/></g></svg>