<svg height="18" viewBox="0 0 18 18" width="18" xmlns="http://www.w3.org/2000/svg"><path d="m17.550781 7.328125c-.605469-.351563-1.40625-.394531-2.082031-.199219-.085938-.730468-.5625-1.363281-1.125-1.8125l-.226562-.183594-.195313.226563c-.378906.433594-.492187 1.164063-.4375 1.726563.042969.410156.171875.832031.421875 1.167968-.195312.113282-.40625.269532-.601562.339844-.394532.140625-.832032.28125-1.253907.28125h-.941406v-1.984375h-1.828125v-3.515625h-2.109375v1.6875h-3.515625v1.828125h-1.828125v1.96875h-1.574219l-.027344.210937c-.070312.898438.039063 1.773438.421876 2.601563l.152343.308594.015625.027343c1.109375 1.886719 3.050782 2.671876 5.175782 2.671876 4.105468 0 7.492187-1.839844 9.039062-5.707032 1.042969.054688 2.109375-.253906 2.617188-1.253906l.125-.25zm-13.613281-1.84375h1.40625v1.546875h-1.40625zm1.84375 6.214844c0 .238281-.199219.4375-.4375.4375s-.4375-.199219-.4375-.4375.199219-.433594.4375-.433594c.238281.011719.4375.195313.4375.433594m-1.84375-4.386719h1.40625v1.546875h-1.40625zm-1.828125 0h1.546875v1.546875h-1.546875zm3.894531 7.058594c-2.222656-.011719-3.417968-.757813-4.402344-1.742188.296876.011719.578126.027344.832032.027344.222656 0 .449218 0 .660156-.015625.546875-.027344 1.027344-.097656 1.421875-.210937.320313.746093.914063 1.4375 1.96875 1.941406zm1.167969-5.511719h-1.546875v-1.546875h1.546875zm0-1.828125h-1.546875v-1.546875h1.546875zm1.828125 1.828125h-1.546875v-1.546875h1.546875zm0-1.828125h-1.546875v-1.546875h1.546875zm0-1.828125h-1.546875v-1.546875h1.546875zm1.828125 3.65625h-1.546875v-1.546875h1.546875zm-5.371094 2.558594c-.027343-.011719-.070312-.027344-.113281-.027344-.167969 0-.308594.140625-.308594.308594s.140625.308593.308594.308593.308594-.140624.308594-.308593c0-.042969-.011719-.082031-.027344-.113281-.027344.042968-.054688.070312-.113281.070312-.070313 0-.125-.054688-.125-.125.011719-.054688.042969-.097656.070312-.113281" fill="#019bc6"/></svg>