<svg height="18" viewBox="0 0 18 18" width="18" xmlns="http://www.w3.org/2000/svg"><path d="m15.484375 11.039062c-.015625-.40625-.085937-.828124-.199219-1.265624-.28125-1.027344-.800781-1.96875-1.601562-2.898438-.394532-.449219-.816406-.914062-1.222656-1.347656-.183594-.199219-.367188-.394532-.535157-.589844l-.859375-.929688-2.488281-2.714843c-.226563-.238281-.464844-.492188-.730469-.714844-.507812-.394531-1.113281-.4921875-1.757812-.296875-.183594.054688-.351563.15625-.507813.238281-.125.070313-.238281.167969-.324219.269531-.308593.363282-.421874.828126-.363281 1.417969.042969.394531.210938.746094.535157 1.097657l1.136718 1.25.578125.621093c-1.027343.492188-1.925781 1.109375-2.6875 1.839844-.632812.621094-1.066406 1.183594-1.363281 1.816406-.476562 1.011719-.660156 2.136719-.578125 3.429688.03125.480469.15625.972656.339844 1.464843.28125.730469.703125 1.390626 1.308593 2.039063 1.179688 1.265625 2.640626 1.953125 4.371094 2.050781.113282 0 .210938.015625.339844.015625.222656 0 .449219-.015625.660156-.027343.40625-.03125.84375-.085938 1.320313-.210938 1.238281-.3125 2.265625-.972656 3.082031-1.957031 1.09375-1.335938 1.617188-2.867188 1.546875-4.597657m-1.859375 4.316407c-.742188.914062-1.714844 1.535156-2.851562 1.816406-.453126.109375-.859376.179687-1.253907.195313-.308593.015624-.632812.027343-.957031.015624-1.617188-.101562-2.992188-.734374-4.089844-1.929687-.5625-.601563-.972656-1.234375-1.222656-1.910156-.171875-.449219-.28125-.914063-.3125-1.351563-.082031-1.222656.085938-2.277344.535156-3.21875.269532-.578125.675782-1.113281 1.265625-1.6875.761719-.730468 1.632813-1.335937 2.6875-1.816406l.113281-.054688c.039063-.015624.070313-.042968.082032-.070312l.128906-.140625-.886719-.957031-1.140625-1.25c-.253906-.28125-.394531-.5625-.421875-.859375-.042969-.449219.042969-.800781.269531-1.082031.054688-.070313.140626-.125.222657-.183594.128906-.070313.269531-.152344.421875-.195313.183594-.058593.351562-.085937.507812-.085937.308594.015625.589844.113281.855469.324218.253906.195313.480469.4375.691406.675782l2.488281 2.714844.859376.925781.546874.589843c.40625.4375.816407.886719 1.222657 1.335938.761719.875 1.265625 1.757812 1.519531 2.730469.113281.40625.167969.800781.183594 1.179687.042968 1.605469-.4375 3.050782-1.464844 4.289063m-1.53125-5.667969c-.367188-.378906-.730469-.742188-1.109375-1.109375l-.226563-.226563c-.113281-.109374-.226562-.222656-.335937-.351562-.296875-.308594-.621094-.617188-.929687-.925781-.335938-.324219-.703126-.480469-1.109376-.449219-.492187.027344-.875.238281-1.125.644531-.113281.183594-.171874.378907-.15625.578125.015626.363282.167969.703125.464844.996094.238282.253906.503906.507812.746094.746094l.40625.394531.070312.070313h-2.855468c-.195313 0-.363282 0-.519532.015624-.296874.011719-.5625.125-.757812.320313-.351562.351563-.492188.816406-.394531 1.335937.097656.507813.421875.84375.898437.957032.167969.042968.339844.042968.492188.042968l1.292968.042969h.113282c.167968 0 .351562 0 .519531-.015625h1.195313l-.054688.070313c-.265625.253906-.519531.519531-.789062.789062-.292969.308594-.503907.589844-.644532.886719-.140625.292969-.167968.5625-.070312.828125.167968.507813.660156.84375 1.222656.84375.238281 0 .476562-.070313.660156-.195313.210938-.140624.394532-.324218.578125-.480468.828125-.773438 1.644531-1.546875 2.433594-2.292969.449219-.421875.757813-.871094.941406-1.375.042969-.128906.070313-.269531.070313-.394531-.015625-.28125-.128906-.535156-.226563-.71875-.253906-.433594-.546875-.773438-.800781-1.027344m.546875 1.96875c-.167969.453125-.433594.84375-.84375 1.226562-.785156.742188-1.601563 1.515626-2.417969 2.289063-.167968.15625-.335937.3125-.519531.453125-.113281.082031-.265625.125-.421875.125-.308594 0-.6875-.183594-.828125-.5625-.058594-.15625-.03125-.324219.054687-.507812.125-.25.308594-.503907.578126-.773438.25-.265625.519531-.519531.785156-.773438l.351562-.351562.058594-.054688.363281-.378906h-2.191406l-.523437.011719h-.109376c-.421874 0-.84375-.011719-1.28125-.039063-.140624 0-.28125-.015624-.421874-.042968-.324219-.070313-.507813-.269532-.578126-.621094-.070312-.390625.015626-.703125.28125-.953125.15625-.15625.351563-.199219.492188-.199219.140625-.011718.296875-.011718.492188-.011718h3.828124l-.464843-.480469-.296875-.308594c-.140625-.140625-.265625-.265625-.40625-.394531l-.746094-.730469c-.210938-.226563-.335938-.476563-.335938-.730469 0-.113281.027344-.226562.082032-.339844.167968-.28125.4375-.421874.789062-.449218.292969-.011719.546875.097656.800782.339844.308593.292968.617187.601562.929687.914062.109375.109375.222656.222656.335937.351562l.226563.222657c.363281.367187.730469.746093 1.109375 1.113281.226562.222656.507812.53125.703125.898438.113281.210937.167969.367187.167969.519531 0 .085937-.011719.167969-.042969.238281" fill="#f56d39"/></svg>