<svg height="18" viewBox="0 0 18 18" width="18" xmlns="http://www.w3.org/2000/svg"><path d="m15.792969 11.125c-.015625-.4375-.085938-.859375-.199219-1.265625-.292969-1.097656-.871094-2.054687-1.617188-2.898437-.589843-.675782-1.207031-1.320313-1.8125-1.996094l-3.460937-3.769532c-.222656-.253906-.460937-.492187-.730469-.71875-.476562-.3906245-1.027344-.4492182-1.617187-.28125-.167969.058594-.324219.140626-.476563.226563-.097656.054687-.199218.140625-.28125.238281-.324218.378906-.378906.832032-.324218 1.292969.042968.394531.238281.71875.492187 1 .507813.546875 1.011719 1.097656 1.503906 1.644531l.4375.480469-.027343.027344-.113282.054687c-1.042968.492188-1.996094 1.113282-2.828125 1.914063-.546875.535156-1.027343 1.109375-1.363281 1.8125-.519531 1.097656-.660156 2.25-.578125 3.433593.042969.503907.15625.984376.339844 1.445313.292969.773437.746093 1.4375 1.308593 2.039063 1.179688 1.265624 2.640626 1.957031 4.371094 2.054687.339844.015625.675782 0 1.011719-.015625.453125-.027344.886719-.097656 1.335937-.210938 1.238282-.308593 2.265626-.96875 3.066407-1.953124 1.125-1.308594 1.632812-2.839844 1.5625-4.554688m-2.519531.703125c-.195313.519531-.519532.96875-.925782 1.347656-.832031.789063-1.660156 1.574219-2.503906 2.363281-.183594.167969-.367188.335938-.5625.476563-.519531.367187-1.378906.113281-1.617188-.5625-.085937-.222656-.042968-.460937.070313-.6875.15625-.324219.378906-.605469.632813-.859375.378906-.390625.773437-.773438 1.167968-1.164062l.082032-.085938h-1.390626c-.335937 0-.675781.015625-1.027343.015625-.433594 0-.886719-.015625-1.320313-.042969-.15625 0-.324218-.015625-.480468-.042968-.433594-.097657-.6875-.394532-.757813-.816407-.085937-.449219.015625-.855469.351563-1.179687.183593-.167969.40625-.253906.648437-.269532.390625-.011718.800781-.011718 1.195313-.011718h2.78125c-.140626-.140625-.28125-.296875-.421876-.449219-.390624-.394531-.800781-.773437-1.195312-1.183594-.238281-.253906-.390625-.546875-.421875-.898437-.011719-.167969.042969-.324219.128906-.480469.222657-.363281.5625-.53125.984375-.5625.394532-.027344.714844.140625.996094.410156.453125.421875.875.871094 1.308594 1.308594.464844.460937.914062.914063 1.363281 1.375.296875.296875.5625.621094.773437.984375.113282.199219.199219.410156.210938.648438-.011719.140624-.027344.265624-.070312.367187" fill="#f56d39"/></svg>