<svg height="18" viewBox="0 0 18 18" width="18" xmlns="http://www.w3.org/2000/svg"><path d="m7.425781 5.105469c-.15625-.167969-.296875-.324219-.4375-.480469-.503906-.546875-1.011719-1.09375-1.503906-1.644531-.265625-.28125-.449219-.617188-.492187-.996094-.054688-.464844.015624-.929687.324218-1.296875.070313-.097656.183594-.167969.28125-.238281.152344-.082031.308594-.167969.476563-.222657.578125-.1835932 1.140625-.113281 1.617187.28125.269532.210938.492188.460938.730469.714844l3.460937 3.769532c.605469.660156 1.222657 1.308593 1.8125 1.996093.746094.84375 1.324219 1.800781 1.617188 2.898438.113281.421875.183594.828125.199219 1.265625.070312 1.730468-.449219 3.246094-1.535157 4.582031-.800781.984375-1.828124 1.632813-3.0625 1.957031-.4375.113282-.886718.195313-1.335937.210938-.339844.011718-.675781.027344-1.015625.011718-1.726562-.097656-3.191406-.773437-4.371094-2.050781-.5625-.605469-1.011718-1.265625-1.308594-2.039062-.183593-.464844-.296874-.957031-.335937-1.449219-.085937-1.195312.054687-2.347656.574219-3.429688.324218-.703124.816406-1.28125 1.363281-1.816406.832031-.800781 1.789063-1.433594 2.828125-1.910156.042969-.015625.070312-.03125.113281-.058594-.027343-.027344-.015625-.042968 0-.054687m1.882813 7.566406-.082032.082031c-.394531.394532-.789062.773438-1.167968 1.167969-.253906.253906-.480469.535156-.632813.859375-.113281.222656-.15625.449219-.070312.6875.222656.675781 1.082031.929688 1.617187.5625.195313-.140625.394532-.308594.5625-.476562.84375-.789063 1.671875-1.578126 2.503906-2.363282.40625-.378906.730469-.832031.925782-1.351562.042968-.097656.058594-.222656.058594-.335938 0-.226562-.101563-.4375-.210938-.648437-.199219-.363281-.480469-.6875-.773438-.984375l-1.367187-1.378906c-.433594-.433594-.855469-.882813-1.304687-1.304688-.269532-.253906-.605469-.421875-1-.410156-.421876.027344-.757813.199218-.984376.5625-.085937.140625-.140624.308594-.125.480468.011719.351563.179688.644532.421876.898438.390624.40625.785156.789062 1.195312 1.179688.152344.15625.292969.3125.421875.453124h-2.785156c-.394531 0-.800781-.015624-1.195313.011719-.238281.015625-.464844.097657-.648437.269531-.335938.320313-.433594.730469-.351563 1.179688.085938.421875.324219.71875.761719.816406.152344.027344.308594.042969.476563.042969l1.320312.039063c.339844 0 .675781-.011719 1.027344-.011719h.800781c.199219-.027344.394531-.027344.605469-.027344" fill="#f56d39"/><path d="m9.308594 12.671875h-1.390625c-.339844 0-.675781.011719-1.027344.011719-.4375 0-.886719-.011719-1.320313-.042969-.15625 0-.324218-.011719-.480468-.039063-.433594-.101562-.6875-.394531-.757813-.816406-.085937-.449218.011719-.859375.351563-1.183594.183594-.167968.40625-.25.644531-.265624.394531-.015626.804687-.015626 1.195313-.015626h2.785156c-.140625-.140624-.28125-.292968-.421875-.449218-.394531-.394532-.800781-.773438-1.195313-1.179688-.238281-.253906-.394531-.550781-.421875-.902344-.011719-.167968.042969-.320312.128907-.476562.222656-.367188.5625-.535156.984374-.5625.390626-.027344.714844.140625.996094.40625.449219.421875.871094.875 1.308594 1.308594.464844.464844.914062.914062 1.363281 1.378906.296875.296875.5625.617188.773438.984375.113281.195313.199219.40625.210937.648437 0 .109376-.011718.222657-.054687.335938-.199219.519531-.519531.96875-.929688 1.351562l-2.503906 2.359376c-.179687.171874-.363281.339843-.5625.480468-.519531.363282-1.375.113282-1.617187-.5625-.082032-.226562-.039063-.464844.070312-.691406.15625-.320312.382812-.601562.632812-.855469.382813-.394531.773438-.773437 1.167969-1.167969zm0 0" fill="#fff"/></svg>