<svg height="18" viewBox="0 0 18 18" width="18" xmlns="http://www.w3.org/2000/svg"><g fill="none" stroke="#fff" stroke-linecap="round" stroke-linejoin="round" stroke-width="2" transform="scale(.75)"><path d="m10 11h.010417m3.989583-5h.010417m3.989583 0h.010417m-11.510417 7.098958h.010417m15.489583-8.098958c0 9-4 12-6 12s-6-3-6-12c0-2 2-3 6-3 6 0 6 1 6 3"/><path d="m17.401042 9.901042c-.802084.796875-2 .796875-2.802084 0m-4.5-2.802084c-1.098958.098959-2.401041.598959-4.098958 1.5-3.5 2-4.697917 3.901042-3.697917 5.598959 4.5 7.802083 9.5 8.401041 11.197917 7.401041.901042-.5 1.901042-2.098958 1.901042-4.697916"/><path d="m9.098958 16.5c.302084-1.098958 1.401042-1.697917 2.401042-1.401042"/></g></svg>