<svg height="18" viewBox="0 0 18 18" width="18" xmlns="http://www.w3.org/2000/svg"><path d="m10 18c.552083 0 1 .447917 1 1v2c0 .552083-.447917 1-1 1h-5c-1.65625 0-3-1.34375-3-3 0-.552083.447917-1 1-1zm3-8h-9c-1.104167 0-2-.895833-2-2v-4c0-1.104167.895833-2 2-2h9c.552083 0 1 .447917 1 1v6c0 .552083-.447917 1-1 1l-.8125 3.239583c-.109375.447917-.510417.760417-.96875.760417h-3.21875m6-10h3c.552083 0 1 .447917 1 1v2c0 .552083-.447917 1-1 1h-3m4-2h4m-17 4-2 8m4 0 2-8" fill="none" stroke="#fff" stroke-linecap="round" stroke-linejoin="round" stroke-width="2" transform="scale(.75)"/></svg>