<svg height="18" viewBox="0 0 18 18" width="18" xmlns="http://www.w3.org/2000/svg"><path d="m9.09375.5625c-.464844-.074219-.976562 2.871094-1.75 5.835938-.316406 1.214843-2.863281 10.039062-2.863281 10.039062s5.121093 2.539062 9.039062-.480469c-1.023437-2.738281-2.816406-10.648437-3.875-14.144531-.226562-.742188-.261719-.816406-.355469-1.023438-.066406-.140624-.128906-.214843-.195312-.226562zm-.765625 6.191406.425781.828125-.488281 1.066407-.390625-1.109376zm2.546875 3.136719.425781.828125-.488281 1.066406-.394531-1.109375zm-3.71875 2.972656.425781.828125-.488281 1.066406-.394531-1.109374zm0 0" fill="#3152a8"/></svg>