<svg height="18" viewBox="0 0 18 18" width="18" xmlns="http://www.w3.org/2000/svg"><path d="m12.8125 3.507812c-.894531-.558593-1.738281-.777343-2.582031-1.332031-.519531-.355469-1.246094-1.199219-1.851563-1.921875-.117187 1.164063-.472656 1.632813-.878906 1.972656-.859375.671876-1.398438.875-2.140625 1.28125-.621094.320313-4.007813 2.339844-4.007813 6.691407 0 4.347656 3.65625 7.550781 7.71875 7.550781s7.582032-2.953125 7.582032-7.417969c0-4.464843-3.300782-6.488281-3.839844-6.824219" fill="#00598e"/><path d="m11.441406 13.972656c.269532 0 .558594.015625.757813.148438.203125.136718.320312.441406.390625.609375.066406.167969 0 .269531-.136719.335937-.117187.066406-.132813.035156-.253906-.183594-.117188-.21875-.21875-.441406-.808594-.441406s-.773437.203125-1.0625.441406c-.285156.234376-.386719.320313-.488281.183594-.101563-.132812-.066406-.269531.117187-.4375.1875-.167968.492188-.4375.777344-.558594.285156-.117187.4375-.097656.707031-.097656m-2.796875 1.917969c.335938.269531.84375.492187 1.921875.492187s1.835938-.304687 2.171875-.558593c.152344-.117188.21875-.015625.238281.050781.015626.066406.050782.167969-.066406.285156-.085937.085938-.859375.625-1.769531.710938-.914063.082031-2.140625.132812-2.882813-.539063-.121093-.121093-.085937-.289062 0-.355469.082032-.066406.152344-.117187.25-.117187.101563 0 .085938 0 .136719.03125" fill="#fff"/><path d="m4.515625 14.613281c1.28125-.019531 1.515625-.238281 2.644531-.742187 6.101563-2.730469 7.230469-5.226563 7.449219-5.800782.21875-.570312.539063-1.5.203125-2.527343-.054688-.160157-.101562-.320313-.148438-.484375-.808593-.90625-1.613281-1.402344-1.855468-1.554688-.878906-.554687-1.738282-.773437-2.582032-1.332031-.519531-.335937-1.246093-1.195313-1.851562-1.921875-.117188 1.164062-.457031 1.652344-.878906 1.972656-.859375.675782-1.398438.878906-2.140625 1.28125-.621094.335938-4.007813 2.34375-4.007813 6.691406 0 1.390626.371094 2.660157 1.011719 3.746094l.167969-.003906c.351562.320312.910156.691406 1.988281.675781" fill="#0073ba"/><path d="m12.808594 3.503906c-.878906-.554687-1.738282-.773437-2.582032-1.332031-.519531-.335937-1.246093-1.195313-1.851562-1.921875-.117188 1.164062-.457031 1.652344-.878906 1.972656-.859375.675782-1.398438.878906-2.136719 1.28125-.625.335938-4.011719 2.34375-4.011719 6.691406 0 1.390626.371094 2.660157 1.011719 3.746094 1.363281 2.320313 3.941406 3.804688 6.707031 3.804688 4.0625 0 7.582032-2.949219 7.582032-7.414063 0-2.453125-.996094-4.171875-1.984376-5.273437-.808593-.90625-1.613281-1.402344-1.855468-1.554688m2.046875 1.972656c1.105469 1.382813 1.667969 3.015626 1.667969 4.855469 0 1.0625-.203126 2.070313-.601563 2.992188-.378906.867187-.933594 1.652343-1.628906 2.296875-1.378907 1.289062-3.238281 2-5.226563 2-.984375 0-1.953125-.1875-2.875-.558594-.898437-.363281-1.71875-.886719-2.421875-1.550781-1.480469-1.402344-2.296875-3.289063-2.296875-5.316407 0-1.804687.585938-3.410156 1.742188-4.765624.882812-1.039063 1.835937-1.613282 2.203125-1.8125.167969-.09375.335937-.179688.507812-.269532.507813-.257812.988281-.507812 1.648438-1.023437.355469-.269531.730469-.691407.890625-1.769531.554687.660156 1.203125 1.40625 1.695312 1.722656.4375.292968.886719.492187 1.320313.691406.414062.183594.839843.375 1.257812.644531l.015625.007813c1.230469.769531 1.886719 1.585937 2.101563 1.855468" fill="#004975"/><path d="m8.457031.589844c.238281.691406.203125 1.042968.203125 1.195312s-.082031.558594-.351562.757813c-.121094.085937-.152344.152343-.152344.167969 0 .070312.152344.121093.152344.269531 0 .1875-.085938.558593-.980469 1.453125-.890625.890625-2.171875 1.683594-3.167969 2.171875-.992187.488281-1.464844.457031-1.601562.21875-.132813-.234375.050781-.757813.675781-1.449219s2.59375-1.683594 2.59375-1.683594l2.460937-1.71875.136719-.660156" fill="#93c5e4"/><path d="m8.457031.570312c-.148437 1.113282-.488281 1.453126-.941406 1.804688-.757813.574219-1.5.925781-1.667969 1.011719-.441406.21875-2.023437 1.09375-2.851562 2.359375-.25.386718 0 .539062.050781.574218.050781.03125.625.101563 1.855469-.640624 1.230468-.742188 1.769531-1.179688 2.460937-1.90625.371094-.386719.421875-.605469.421875-.707032 0-.117187-.085937-.167968-.21875-.203125-.070312-.015625-.085937-.050781 0-.101562.082032-.050781.4375-.21875.523438-.285157.082031-.066406.488281-.335937.503906-.777343.015625-.4375-.015625-.738281-.136719-1.128907m-3.789062 12.253907c.015625-1.3125 1.246093-2.542969 2.796875-2.5625 1.972656-.015625 3.335937 1.957031 4.332031 1.941406.839844-.019531 2.460937-1.671875 3.253906-1.671875.839844 0 1.078125.878906 1.078125 1.402344 0 .519531-.171875 1.464844-.574218 2.054687-.40625.589844-.65625.808594-1.128907.773438-.605469-.050781-1.820312-1.9375-2.597656-1.96875-.976563-.035157-3.101563 2.039062-4.769531 2.039062-1.007813 0-1.3125-.152343-1.648438-.371093-.507812-.355469-.761718-.894532-.742187-1.636719" fill="#fff"/></svg>