<svg height="18" viewBox="0 0 18 18" width="18" xmlns="http://www.w3.org/2000/svg"><path d="m0 0v18h18v-18zm7.980469 2.992188c1.414062 0 2.65625.28125 3.375.71875h-1.316407c-.675781-.164063-1.367187-.242188-2.058593-.242188-2.058594 0-3.601563.632812-3.601563 1.203125 0 .566406 1.542969 1.199219 3.601563 1.199219h.308593l-.257812.480468h-.050781c-1.402344 0-2.867188-.292968-3.601563-.855468v1.109375c.003906.164062.148438.351562.40625.515625.566406.363281 1.589844.605468 2.726563.660156l-.011719.480469c-1.15625-.050781-2.171875-.285157-2.835938-.65625-.152343.09375-.257812.253906-.285156.433593 0 .566407 1.542969 1.199219 3.601563 1.199219.238281 0 .460937-.007812.699219-.023437l-.136719.480468c-.183594.015626-.375.015626-.5625.015626-1.402344 0-2.867188-.292969-3.601563-.855469v1.113281c.003906.160156.148438.34375.40625.515625.652344.410156 1.875.671875 3.195313.671875h.160156l-.132813.480469h-.027343c-1.339844 0-2.5625-.25-3.316407-.667969-.152343.09375-.257812.253906-.285156.429688 0 .542968 1.421875 1.15625 3.359375 1.203124h.242188c.429687-.003906.859375-.035156 1.285156-.09375 1.382813-.191406 2.3125-.671874 2.3125-1.109374-.027344-.179688-.128906-.335938-.285156-.433594-.257813.144531-.535157.253906-.820313.335937l1.585938-1.585937v.230468c-.011719.28125-.140625.542969-.359375.71875.21875.175782.351562.441407.359375.722657v1.917969c.003906.015624.003906.035156 0 .050781-.0625 1.058593-2.128906 1.625-4.078125 1.625-1.953125 0-4.015625-.566407-4.082031-1.621094 0-.015625 0-.03125 0-.050781v-1.917969c.011718-.28125.144531-.542969.363281-.71875-.21875-.179687-.351563-.441406-.363281-.722656v-1.917969c.011718-.28125.144531-.542969.363281-.71875-.214844-.175781-.347657-.433594-.363281-.710938v-1.929687c0-1.09375 2.105468-1.679687 4.082031-1.679687m1.800781 1.195312h3.117188c.082031-.003906.15625.03125.203124.09375.046876.0625.0625.144531.039063.222656l-.613281 1.84375h1.34375c.097656 0 .183594.058594.21875.144532.039062.089843.019531.191406-.042969.261718l-5.28125 5.519532c-.046875.054687-.113281.082031-.1875.082031-.039063 0-.082031-.011719-.117187-.035157-.097657-.054687-.144532-.167968-.109376-.273437l1.347657-4.492187h-1.359375c-.085938 0-.164063-.042969-.207032-.117188-.046874-.070312-.046874-.164062-.007812-.238281l1.441406-2.878907c.039063-.082031.125-.132812.214844-.132812zm.132812.484375-1.183593 2.402344h1.289062c.074219 0 .148438.035156.191407.097656.046874.058594.0625.136719.039062.210937l-1.152344 3.839844 4.199219-4.390625h-1.117187c-.078126.003907-.15625-.03125-.203126-.097656-.046874-.0625-.0625-.144531-.035156-.21875l.613282-1.84375zm-4.8125 1.632813c.164063 0 .296876.132812.296876.300781 0 .164062-.132813.300781-.296876.300781-.167968 0-.300781-.136719-.300781-.300781 0-.167969.132813-.300781.300781-.300781m0 3.359374c.164063 0 .296876.136719.296876.300782 0 .164062-.132813.300781-.296876.300781-.167968 0-.300781-.136719-.300781-.300781 0-.164063.132813-.300782.300781-.300782m-.722656 2.546876v1.105468c0 .574219 1.542969 1.199219 3.601563 1.199219 2.058593 0 3.597656-.632813 3.597656-1.199219v-1.105468c-.734375.558593-2.195313.851562-3.597656.851562-1.402344 0-2.867188-.292969-3.601563-.851562m.722656.8125c.164063 0 .296876.136718.296876.300781 0 .164062-.132813.300781-.296876.300781-.167968 0-.300781-.132812-.300781-.300781 0-.164063.132813-.300781.300781-.300781zm0 0"/></svg>