<svg height="18" viewBox="0 0 18 18" width="18" xmlns="http://www.w3.org/2000/svg" xmlns:xlink="http://www.w3.org/1999/xlink"><linearGradient id="a"><stop offset=".303" stop-color="#473788"/><stop offset=".872" stop-color="#2c2255"/></linearGradient><linearGradient id="b" gradientTransform="matrix(10.762207 0 0 .953613 4.52475 7.609219)" gradientUnits="userSpaceOnUse" x1=".5" x2=".5" xlink:href="#a" y1="10.894" y2="-1.595"/><linearGradient id="c" gradientTransform="matrix(10.762207 0 0 .953613 4.52475 9.448735)" gradientUnits="userSpaceOnUse" x1=".5" x2=".5" xlink:href="#a" y1="8.965" y2="-3.524"/><linearGradient id="d" gradientTransform="matrix(9.789917 0 0 3.119019 5.010891 11.287968)" gradientUnits="userSpaceOnUse" x1=".5" x2=".5" y1="2.152" y2="-1.667"><stop offset=".303" stop-color="#473788"/><stop offset=".863" stop-color="#2c2255"/></linearGradient><path d="m5.011719 11.289062h-2.707031c.355468 1.230469 1.023437 2.332032 1.996093 3.304688 1.554688 1.554688 3.421875 2.332031 5.605469 2.332031.4375 0 .859375-.035156 1.269531-.097656 1.644531-.246094 3.085938-.992187 4.320313-2.234375.980468-.972656 1.648437-2.074219 2.011718-3.304688zm-1.492188-3.679687h-1.417969c-.050781.316406-.085937.632813-.101562.953125h15.8125c-.015625-.320312-.050781-.636719-.105469-.953125m-15.707031 1.839844c.015625.320312.050781.636719.101562.953125h15.605469c.054688-.316406.089844-.632813.105469-.953125m-.304688-2.726563c-.363281-1.230468-1.03125-2.339844-2.011718-3.320312-1.230469-1.230469-2.667969-1.96875-4.308594-2.21875-.421875-.0625-.851562-.097656-1.28125-.097656-2.183594 0-4.050781.773437-5.605469 2.316406-.972656.980468-1.640625 2.089844-2 3.320312" fill="#2c2255"/><path d="m1.53125 9.007812c0-4.179687 3.136719-7.648437 7.214844-8.257812-.097656-.003906-.203125-.011719-.304688-.011719-4.578125.003907-8.292968 3.703125-8.292968 8.269531 0 4.5625 3.714843 8.265626 8.292968 8.265626.105469 0 .207032-.003907.308594-.007813-4.082031-.613281-7.21875-4.082031-7.21875-8.257813m0 0" fill="#f7941e"/><path d="m15.285156 8.5625c-.023437-.320312-.078125-.640625-.160156-.953125h-10.4375c-.082031.3125-.136719.632813-.164062.953125zm0 0" fill="url(#b)"/><path d="m15.285156 9.449219h-10.761718c.027343.320312.082031.640625.164062.953125h10.4375c.082031-.3125.136719-.632813.160156-.953125m0 0" fill="url(#c)"/><path d="m9.90625 14.40625c2.167969 0 4.035156-1.277344 4.894531-3.117188h-9.789062c.859375 1.839844 2.726562 3.117188 4.894531 3.117188m0 0" fill="url(#d)"/><path d="m3.726562 9.449219h14.074219c.007813-.140625.011719-.285157.011719-.425781 0-.15625-.003906-.308594-.015625-.460938h-15.796875c-.007812.152344-.015625.308594-.015625.460938 0 .140624.003906.285156.011719.425781zm1.253907-2.726563h-2.679688c-.085937.289063-.144531.585938-.199219.886719h15.558594c-.054687-.300781-.125-.59375-.214844-.886719m-.804687 3.679688h-14.539063c.054688.300781.113282.597656.203126.886718h15.191406c.089844-.292968.15625-.585937.210937-.886718zm0 0" fill="#fff"/></svg>