<svg height="18" viewBox="0 0 18 18" width="18" xmlns="http://www.w3.org/2000/svg"><path d="m8.441406.738281c-4.578125.003907-8.292968 3.703125-8.292968 8.269531 0 4.5625 3.714843 8.265626 8.292968 8.265626.105469 0 .207032-.003907.308594-.007813-4.082031-.613281-7.21875-4.082031-7.21875-8.257813 0-4.179687 3.136719-7.648437 7.214844-8.257812-.097656-.003906-.203125-.011719-.304688-.011719m1.464844.347657c-2.183594 0-4.050781.773437-5.605469 2.316406-.972656.980468-1.640625 2.085937-2 3.320312h15.207031c-.363281-1.234375-1.03125-2.339844-2.011718-3.320312-1.230469-1.230469-2.667969-1.96875-4.308594-2.21875-.421875-.0625-.851562-.097656-1.28125-.097656zm-7.804688 6.523437c-.050781.316406-.085937.632813-.101562.953125h15.8125c-.015625-.320312-.050781-.636719-.105469-.953125zm-.101562 1.839844c.015625.320312.050781.636719.101562.953125h15.605469c.054688-.316406.089844-.632813.105469-.953125zm.304688 1.839843c.355468 1.230469 1.023437 2.332032 1.996093 3.304688 1.554688 1.554688 3.421875 2.328125 5.605469 2.328125.4375 0 .859375-.03125 1.269531-.09375 1.644531-.246094 3.085938-.992187 4.320313-2.234375.980468-.972656 1.648437-2.074219 2.011718-3.304688zm0 0" fill="#2c2255"/></svg>