<svg height="18" viewBox="0 0 18 18" width="18" xmlns="http://www.w3.org/2000/svg"><g fill="#47848f"><path d="m6.902344 4.59375c-2.023438-.371094-3.617188.015625-4.253906 1.125-.476563.820312-.339844 1.914062.328124 3.078125.054688.101563.183594.132813.28125.078125.101563-.058594.136719-.183594.078126-.285156-.601563-1.050782-.71875-1.992188-.332032-2.671875.53125-.914063 1.953125-1.265625 3.820313-.917969.113281.019531.222656-.054688.242187-.167969.019532-.113281-.054687-.21875-.164062-.242187zm-2.875 5.617188c.898437.964843 1.941406 1.789062 3.09375 2.4375 2.929687 1.6875 6.046875 2.144531 7.59375 1.097656.09375-.066406.117187-.195313.054687-.289063-.066406-.09375-.195312-.117187-.289062-.054687-1.386719.941406-4.355469.507812-7.15625-1.113282-1.113281-.628906-2.121094-1.425781-2.992188-2.359374-.078125-.082032-.207031-.089844-.292969-.011719-.085937.078125-.089843.210937-.011718.292969zm0 0"/><path d="m14.210938 9.957031c1.324218-1.5625 1.785156-3.132812 1.148437-4.234375-.464844-.808594-1.453125-1.238281-2.769531-1.253906-.113282 0-.207032.09375-.207032.207031 0 .117188.09375.207031.207032.207031 1.183594.015626 2.035156.386719 2.417968 1.046876.527344.914062.113282 2.316406-1.105468 3.761718-.074219.085938-.0625.21875.023437.292969.085938.074219.21875.0625.292969-.023437zm-3.398438-5.296875c-1.296875.296875-2.542969.789063-3.691406 1.464844-3.023438 1.75-5 4.320312-4.730469 6.191406.015625.113282.125.195313.242187.179688.117188-.015625.195313-.125.179688-.242188-.25-1.65625 1.621094-4.097656 4.515625-5.769531 1.109375-.65625 2.316406-1.132813 3.570313-1.421875.113281-.023438.183593-.132812.160156-.246094-.023438-.113281-.132813-.183594-.246094-.160156zm0 0"/><path d="m5.90625 13.609375c.703125 1.929687 1.828125 3.125 3.101562 3.125.925782 0 1.785157-.632813 2.453126-1.746094.0625-.097656.035156-.226562-.0625-.289062-.097657-.058594-.226563-.03125-.289063.066406-.601563 1-1.339844 1.546875-2.101563 1.546875-1.058593 0-2.066406-1.058594-2.703124-2.847656-.039063-.105469-.160157-.160156-.265626-.121094-.109374.035156-.164062.15625-.125.261719zm6.328125-.378906c.375-1.242188.558594-2.539063.550781-3.839844 0-3.429687-1.203125-6.386719-2.914062-7.148437-.105469-.046876-.226563 0-.273438.105468-.046875.105469 0 .226563.105469.273438 1.527344.679687 2.671875 3.484375 2.671875 6.769531.007812 1.257813-.167969 2.511719-.53125 3.71875-.035156.105469.027344.222656.136719.257813.109375.035156.222656-.027344.257812-.136719zm3.898437-.203125c0-.546875-.445312-.988282-.992187-.988282s-.992187.441407-.992187.988282c0 .550781.445312.992187.992187.992187s.992187-.441406.992187-.992187m-.417968 0c0 .320312-.257813.578125-.574219.578125-.320313 0-.578125-.257813-.578125-.578125 0-.316406.257812-.574219.578125-.574219.316406 0 .574219.257813.574219.574219m-12.855469.992187c.546875 0 .992187-.441406.992187-.992187 0-.546875-.445312-.988282-.992187-.988282s-.992187.441407-.992187.988282c0 .550781.445312.992187.992187.992187m0-.414062c-.316406 0-.574219-.257813-.574219-.578125 0-.316406.257813-.574219.574219-.574219.320313 0 .578125.257813.578125.574219 0 .320312-.257812.578125-.578125.578125"/><path d="m9.007812 3.253906c.546876 0 .992188-.445312.992188-.992187s-.445312-.992188-.992188-.992188c-.546874 0-.992187.445313-.992187.992188s.445313.992187.992187.992187m0-.417968c-.320312 0-.578124-.257813-.578124-.574219 0-.320313.257812-.578125.578124-.578125.316407 0 .574219.257812.574219.578125 0 .316406-.257812.574219-.574219.574219m.152344 7.257812c-.285156.0625-.578125-.050781-.746094-.289062-.164062-.238282-.171874-.554688-.015624-.796876.15625-.246093.445312-.371093.730468-.320312s.511719.269531.574219.554688c.082031.382812-.160156.765624-.542969.851562"/></g></svg>