<svg height="18" viewBox="0 0 18 18" width="18" xmlns="http://www.w3.org/2000/svg"><path d="m-1.8-1.8h21.6v21.6h-21.6z" fill="#e04e39"/><path d="m9.179688 3.394531c1.15625-.023437 1.976562.289063 2.683593 1.289063 1.535157 3.8125-3.960937 5.78125-4.179687 5.859375h-.007813s-.164062 1.035156 1.410157.996093c1.941406 0 3.980468-1.503906 4.753906-2.136718.1875-.15625.460937-.136719.628906.035156l.582031.605469c.167969.171875.175781.449219.011719.628906-.503906.5625-1.691406 1.71875-3.472656 2.464844 0 0-2.976563 1.375-4.980469.070312-1.195313-.777343-1.527344-1.707031-1.660156-2.675781 0 0-1.449219-.074219-2.382813-.4375-.933594-.367188.007813-1.464844.007813-1.464844s.285156-.453125.832031 0c.542969.453125 1.5625.25 1.5625.25.09375-.71875.242188-1.664062.6875-2.664062.933594-2.09375 2.363281-2.800782 3.523438-2.820313m.679687 2.097657c-.613281-.59375-2.386719.589843-2.457031 3.296874 0 0 .523437.160157 1.683594-.636718 1.160156-.796875 1.390624-2.070313.773437-2.660156" fill="#fff" fill-rule="evenodd"/></svg>