<svg height="18" viewBox="0 0 18 18" width="18" xmlns="http://www.w3.org/2000/svg"><path d="m3.601562 0c-.128906 0-.226562.125-.226562.28125v1.574219h-.871094c-.296875 0-.519531.183593-.519531.421875v1.097656h-1.6875c-.15625 0-.28125.097656-.28125.226562v.671876c0 .128906.125.226562.28125.226562h1.6875v1.40625h-1.6875c-.15625 0-.28125.097656-.28125.226562v.671876c0 .128906.125.226562.28125.226562h1.6875v1.40625h-1.6875c-.15625 0-.28125.097656-.28125.226562v.671876c0 .128906.125.226562.28125.226562h1.6875v1.40625h-1.6875c-.15625 0-.28125.097656-.28125.226562v.671876c0 .128906.125.226562.28125.226562h1.6875v1.40625h-1.6875c-.15625 0-.28125.097656-.28125.226562v.671876c0 .128906.125.226562.28125.226562h1.6875v.984375c0 .238281.238281.421875.53125.421875h.886719v1.6875c0 .15625.097656.28125.226562.28125h.675782c.125 0 .222656-.125.222656-.28125v-1.6875h1.40625v1.6875c0 .15625.097656.28125.226562.28125h.675782c.125 0 .222656-.125.222656-.28125v-1.6875h1.40625v1.6875c0 .15625.097656.28125.226562.28125h.675782c.125 0 .222656-.125.222656-.28125v-1.6875h1.40625v1.6875c0 .15625.097656.28125.226562.28125h.675782c.125 0 .222656-.125.222656-.28125v-1.6875h1.40625v1.6875c0 .15625.097656.28125.226562.28125h.675782c.125 0 .222656-.125.222656-.28125v-1.6875h.886718c.296876 0 .535157-.183594.535157-.421875v-.984375h1.6875c.152343 0 .28125-.097656.28125-.226562v-.671876c0-.128906-.128907-.226562-.28125-.226562h-1.6875v-1.40625h1.6875c.152343 0 .28125-.097656.28125-.226562v-.671876c0-.128906-.128907-.226562-.28125-.226562h-1.6875v-1.40625h1.6875c.152343 0 .28125-.097656.28125-.226562v-.671876c0-.128906-.128907-.226562-.28125-.226562h-1.6875v-1.40625h1.6875c.152343 0 .28125-.097656.28125-.226562v-.671876c0-.128906-.128907-.226562-.28125-.226562h-1.6875v-1.40625h1.6875c.152343 0 .28125-.097656.28125-.226562v-.671876c0-.128906-.128907-.226562-.28125-.226562h-1.6875v-1.097656c0-.238282-.238281-.421875-.519531-.421875h-.875v-1.574219c0-.15625-.097657-.28125-.222657-.28125h-.675781c-.125 0-.226562.125-.226562.28125v1.574219h-1.40625v-1.574219c0-.15625-.097657-.28125-.222657-.28125h-.675781c-.125 0-.226562.125-.226562.28125v1.574219h-1.40625v-1.574219c0-.15625-.097657-.28125-.222657-.28125h-.675781c-.125 0-.226562.125-.226562.28125v1.574219h-1.40625v-1.574219c0-.15625-.097657-.28125-.222657-.28125h-.675781c-.125 0-.226562.125-.226562.28125v1.574219h-1.40625v-1.574219c0-.15625-.097657-.28125-.222657-.28125zm-.367187 2.8125c.234375 0 .421875.1875.421875.421875s-.1875.421875-.421875.421875-.421875-.1875-.421875-.421875.1875-.421875.421875-.421875m5.765625.632812c2.066406 0 3.867188 1.140626 4.824219 2.8125l-1.828125 1.054688c-.589844-1.054688-1.714844-1.757812-2.996094-1.757812-1.898438 0-3.445312 1.546874-3.445312 3.445312s1.546874 3.445312 3.445312 3.445312c1.28125 0 2.40625-.703124 2.996094-1.742187l1.8125 1.066406c-.957032 1.660157-2.753906 2.785157-4.808594 2.785157-3.066406 0-5.554688-2.488282-5.554688-5.554688s2.488282-5.554688 5.554688-5.554688"/></svg>