<svg height="18" viewBox="0 0 18 18" width="18" xmlns="http://www.w3.org/2000/svg"><path d="m2.558594 3.390625-2.417969-.015625v11.25h2.769531v-.015625c-1.363281-1.445313-2.179687-3.472656-2.164062-5.875-.015625-2.125.660156-3.96875 1.8125-5.34375m15.300781-.015625h-2.304687c.871093 1.265625 1.347656 2.714844 1.277343 4.515625.015625.167969.015625.265625 0 .6875h-10.320312c0 3.09375 1.082031 5.386719 3.839843 5.398437 1.898438-.011718 3.261719-1.417968 4.203126-2.9375l2.671874 1.335938c-.476562.859375-1.011718 1.546875-1.601562 2.25h2.234375zm-8.703125.226562c-1.265625 0-2.363281 1.039063-2.476562 2.304688h4.710937c-.042969-1.265625-.957031-2.304688-2.234375-2.304688" fill="#a90533"/></svg>