<svg height="18" viewBox="0 0 18 18" width="18" xmlns="http://www.w3.org/2000/svg"><path d="m4.945312 1.070312c-.316406 0-.609374.203126-.777343.480469h-.003907l-4.046874 7.046875c-.1562505.28125-.1562505.625 0 .90625l4.046874 7c.15625.28125.460938.425782.78125.425782h8.109376c.3125 0 .609374-.140626.78125-.410157l4.050781-7.003906c.152343-.308594.15625-.640625-.019531-.90625l-4.042969-7.054687c-.15625-.28125-.449219-.484376-.78125-.484376zm0 .140626h8.097657c.273437 0 .523437.171874.65625.410156h.003906l4.046875 7.0625c.144531.222656.148438.496094.011719.765625l-4.042969 6.996093c-.144531.222657-.394531.34375-.664062.34375h-8.109376c-.28125 0-.527343-.117187-.660156-.355468l-4.046875-7c-.132812-.238282-.132812-.527344 0-.765625l4.046875-7.042969c.148438-.242188.402344-.414062.660156-.414062zm4.046876 1.519531c-.0625 0-.125.015625-.179688.054687l.003906-.003906-5.171875 2.980469.007813-.003907c-.128906.054688-.203125.183594-.203125.3125v5.976563c0 .132813.09375.238281.191406.304687l5.171875 2.964844c.109375.074219.253906.074219.363281 0l-.003906.003906 5.160156-2.984374-.007812.003906c.101562-.042969.15625-.136719.179687-.238282h.035156v-6.03125c0-.136718-.09375-.238281-.191406-.304687l-5.175781-2.984375.003906.003906c-.054687-.039062-.117187-.054687-.183593-.054687m0 .136719c.039062 0 .074218.011718.105468.03125l.003906.003906 5.167969 2.980468c.074219.050782.128907.117188.128907.1875v5.890626h-.015626v.070312c0 .074219-.042968.148438-.113281.183594h-.003906l-5.164063 2.984375h-.003906c-.0625.042969-.144531.042969-.210937 0l-5.167969-2.964844c-.074219-.050781-.128906-.121094-.128906-.1875v-5.976563c0-.074218.042968-.152343.117187-.183593h.003907l5.175781-2.984375v-.003906c.035156-.019532.070312-.03125.105469-.03125m-.003907 1.933593c-.058593 0-.117187.011719-.167969.039063h-.003906l-3.386718 1.960937.003906-.003906c-.109375.058594-.179688.171875-.183594.292969v3.917968c0 .128907.070312.25.183594.308594h-.003906l3.402343 1.957032v.003906c.105469.050781.230469.050781.335938 0l.003906-.003906 3.386719-1.960938h.003906c.101562-.066406.175781-.175781.175781-.304688v-3.917968c-.003906-.121094-.074219-.234375-.183593-.292969l.003906.003906-3.402344-1.960937c-.054688-.027344-.109375-.039063-.167969-.039063zm0 .136719c.035157 0 .070313.011719.101563.027344l3.402344 1.957031c.058593.03125.105468.113281.105468.167969v3.917968c0 .074219-.042968.140626-.113281.1875l-3.378906 1.957032c-.066407.03125-.144531.03125-.210938 0l-3.398437-1.960938c-.058594-.027344-.105469-.109375-.105469-.183594v-3.917968c0-.054688.046875-.136719.105469-.167969l3.386718-1.957031c.03125-.015625.066407-.027344.105469-.027344" fill="#4b32c3"/></svg>