<svg height="18" viewBox="0 0 18 18" width="18" xmlns="http://www.w3.org/2000/svg"><path d="m4.914062 1.082031c-.289062 0-.566406.1875-.726562.449219l-4.078125 7.097656c-.1445312.261719-.1445312.582032 0 .84375l4.078125 7.054688c.144531.261718.421875.390625.726562.390625h8.171876c.292968 0 .566406-.128907.726562-.375l4.082031-7.054688c.144531-.292969.144531-.597656-.015625-.84375l-4.078125-7.113281c-.148437-.261719-.421875-.449219-.726562-.449219zm4.078126 1.667969c.050781 0 .101562.015625.144531.042969l5.214843 3.007812c.085938.054688.160157.144531.160157.246094v6.007813h-.015625c0 .101562-.058594.203124-.160156.246093l-5.199219 3.007813c-.085938.058594-.199219.058594-.289063 0l-5.210937-2.992188c-.085938-.058594-.160157-.144531-.160157-.246094v-6.023437c0-.101563.058594-.203125.160157-.25l5.210937-3.003906c.042969-.027344.09375-.042969.144532-.042969zm-.007813 2.085938c-.046875 0-.09375.011718-.136719.035156l-3.410156 1.972656c-.085938.042969-.144531.144531-.144531.234375v3.945313c0 .101562.058593.203124.144531.25l3.425781 1.972656c.085938.042968.1875.042968.273438 0l3.414062-1.972656c.085938-.058594.144531-.144532.144531-.25v-3.945313c0-.089844-.058593-.191406-.144531-.234375l-3.425781-1.972656c-.042969-.023438-.089844-.035156-.136719-.035156zm0 0" fill="#4b32c3"/></svg>