<svg height="18" viewBox="0 0 18 18" width="18" xmlns="http://www.w3.org/2000/svg"><path d="m16.371094.714844h-14.742188c-.503906 0-.914062.40625-.914062.914062v14.742188c0 .503906.410156.914062.914062.914062h7.933594v-6.417968h-2.15625v-2.5h2.15625v-1.84375c0-2.140626 1.308594-3.308594 3.21875-3.308594.644531 0 1.289062.03125 1.929688.101562v2.234375h-1.320313c-1.039063 0-1.242187.496094-1.242187 1.21875v1.597657h2.476562l-.320312 2.5h-2.15625v6.417968h4.21875c.503906 0 .914062-.40625.914062-.914062v-14.742188c0-.503906-.40625-.914062-.910156-.914062" fill="#3d5a98"/></svg>