<svg height="18" viewBox="0 0 18 18" width="18" xmlns="http://www.w3.org/2000/svg"><path d="m10.828125 16.380208c-2.140625 1.078125-4.71875.802084-6.578125-.708333-1.864583-1.515625-2.661458-3.979167-2.041667-6.296875l5.411459 1.453125c-1.078125-2.140625-.802084-4.71875.708333-6.578125 1.515625-1.864583 3.979167-2.661458 6.296875-2.041667l-1.453125 5.411459c2.140625-1.078125 4.71875-.802084 6.578125.708333 1.864583 1.515625 2.661458 3.979167 2.041667 6.296875l-5.411459-1.453125c1.078125 2.140625.802084 4.71875-.708333 6.578125-1.515625 1.864583-3.979167 2.661458-6.296875 2.041667zm1.171875-4.380208v.010417" fill="none" stroke="#fff" stroke-linecap="round" stroke-linejoin="round" stroke-width="2" transform="scale(.75)"/></svg>