<svg height="18" viewBox="0 0 18 18" width="18" xmlns="http://www.w3.org/2000/svg"><path d="m7.988281 17.941406c-.265625-.03125-.546875-.074218-.621093-.089844-.113282-.027343-.222657-.050781-.335938-.070312-.128906-.027344-.253906-.054688-.378906-.089844-.582032-.167968-.625-.179687-1.066406-.359375-.402344-.167969-1.148438-.550781-1.402344-.726562-.070313-.046875-.136719-.085938-.144532-.085938-.011718 0-.171874-.117187-.363281-.257812-1.203125-.890625-2.109375-1.972657-2.761719-3.308594-.113281-.226563-.207031-.429687-.207031-.449219 0-.019531-.019531-.070312-.042969-.117187-.050781-.089844-.125-.285157-.183593-.488281-.023438-.085938-.054688-.171876-.085938-.257813-.027343-.0625-.050781-.140625-.050781-.171875 0-.035156-.027344-.136719-.0625-.234375-.03125-.09375-.058594-.207031-.058594-.246094 0-.042969-.027344-.1875-.058594-.320312-.0781245-.332031-.164062-1.191407-.164062-1.675781 0-.480469.0859375-1.339844.164062-1.671876.03125-.132812.058594-.28125.058594-.324218 0-.046875.019532-.136719.042969-.199219.027344-.0625.058594-.175781.074219-.25s.050781-.207031.078125-.289063l.082031-.242187c.0625-.183594.117188-.335937.144531-.398437.015625-.03125.078125-.167969.136719-.300782.09375-.21875.296875-.625.417969-.835937.042969-.078125.058593-.105469.292969-.472657.375-.582031 1.011718-1.308593 1.601562-1.828124.210938-.179688.90625-.710938.9375-.710938.011719 0 .078125-.039062.148438-.085938.191406-.128906.375-.234374.617187-.355468.085937-.042969.171875-.089844.257813-.136719.039062-.023437.117187-.058594.503906-.230469.082031-.039062.175781-.070312.4375-.164062.058594-.019532.175781-.0625.261718-.09375.082032-.03125.183594-.058594.21875-.058594.035157 0 .132813-.023438.210938-.054688.082031-.03125.226562-.066406.324219-.082031.097656-.011719.230469-.039062.289062-.058593.0625-.019532.226563-.046876.371094-.0585942.183594-.0195313.367187-.0390626.550781-.0664063.378906-.0546875 1.203125-.0546875 1.574219 0 .179687.0234375.355469.046875.53125.0625.136719.0117187.308594.0390625.382813.0625005.074218.023437.203124.050781.289062.058593.082031.011719.222656.046875.3125.078125.085938.035156.1875.058594.222656.058594s.105469.019531.15625.042969c.054688.023437.167969.0625.25.089843.082032.023438.226563.074219.320313.109376.089843.039062.214843.085937.273437.109374.109375.039063.90625.441407 1.015625.507813.882813.550781 1.339844.910156 1.949219 1.542969.738281.761718 1.226562 1.484375 1.722656 2.554687.035156.074219.089844.1875.121094.246094.03125.0625.054688.132813.054688.160156 0 .027344.027343.105469.058593.175781.082031.195313.15625.417969.1875.585938.019531.082031.050781.1875.070313.230469.023437.039062.046875.148437.058594.234375.007812.089844.039062.234375.0625.320312.144531.496094.214843 1.960938.128906 2.605469-.027344.191406-.054688.425781-.066406.515625-.015626.160156-.097657.566406-.167969.835938l-.074219.289062c-.136719.558594-.480469 1.351562-.894531 2.085938-.164063.289062-.71875 1.078124-.820313 1.167968-.011718.007813-.058594.0625-.105468.121094-.046876.058594-.199219.222656-.335938.367188-.605469.625-1.09375 1.007812-1.949219 1.542968-.101562.0625-.960937.480469-1.121093.546875-.085938.035157-.226563.089844-.3125.125-.085938.035157-.179688.066407-.210938.066407s-.109375.027343-.179688.058593c-.066406.03125-.148437.058594-.1875.058594-.039062 0-.148437.027344-.242187.058594-.097656.035156-.230469.070312-.296875.078125-.066406.011718-.210938.039062-.320312.0625-.109376.027344-.4375.074218-.730469.105468-.652344.078126-1.308594.074219-1.960938-.003906m.664063-1.757812c.039062-.03125.085937-.097656.09375-.144532.027344-.101562 4.113281-8.292968 4.191406-8.394531.0625-.085937.070312-.226562.011719-.273437-.03125-.027344-.425781-.035156-1.46875-.035156-.78125.003906-1.441407.003906-1.464844.003906-.03125-.003906-.035156-.527344-.035156-2.769532.003906-1.519531-.003907-2.777343-.015625-2.796874-.007813-.015626-.050782-.03125-.09375-.03125-.058594 0-.085938.027343-.121094.113281-.070312.164062-.257812.539062-1.175781 2.320312-.191407.367188-.378907.738281-.570313 1.109375-.164062.316406-.417968.816406-.570312 1.109375-.402344.785157-.804688 1.570313-1.207032 2.355469-.695312 1.355469-.777343 1.515625-.808593 1.554688-.058594.066406-.089844.230468-.054688.289062.027344.054688.085938.058594 1.550781.054688.839844 0 1.527344.003906 1.535157.011718.019531.019532.011719 5.246094-.007813 5.371094-.011718.082031-.003906.125.035156.160156.0625.066406.082032.066406.175782-.007812m0 0" fill="#049688"/></svg>