<svg height="18" viewBox="0 0 18 18" width="18" xmlns="http://www.w3.org/2000/svg"><path d="m13.367188 3.785156c-1.09375.371094-1.617188 1.039063-1.976563 2.082032-.09375.277343-.324219.585937-.585937.792968l.898437.980469-2.847656-2.035156-7.855469-5.605469s.566406 3.761719.761719 5.144531c.140625.976563.378906 1.414063 1.128906 1.855469l.300781.164062 1.296875.699219-.769531-.40625 3.550781 1.980469-.023437.054688-3.820313-1.8125c.199219.710937.59375 2.078124.761719 2.679687.179688.648437.382812.886719 1 1.117187l1.140625.425782.707031-.285156-.898437.609374-4.484375 5.8125c2.980468-2.824218 5.503906-3.832031 7.347656-4.652343 2.355469-1.042969 3.773438-1.710938 4.699219-4.109375.660156-1.6875 1.171875-3.84375 1.828125-4.675782l1.394531-1.824218s-2.886719.78125-3.554687 1.007812zm0 0" fill="#3a1ab6"/></svg>