<svg height="18" viewBox="0 0 18 18" width="18" xmlns="http://www.w3.org/2000/svg"><path d="m9 .640625c4.617188 0 8.359375 3.742187 8.359375 8.359375s-3.742187 8.359375-8.359375 8.359375-8.359375-3.742187-8.359375-8.359375 3.742187-8.359375 8.359375-8.359375m0-.640625c-4.960938 0-9 4.039062-9 9s4.039062 9 9 9 9-4.039062 9-9-4.039062-9-9-9m1.464844 1.792969c-.734375-.132813-2.507813 2.5625-3.09375 4.203125-.042969.121094-.144532.578125-.144532.699218 0 0 .457032.988282.585938 1.21875-.214844-.109374-.65625-.96875-.65625-.96875-.214844.410157-.417969 2.277344-.351562 2.621094 0 0 .476562.710938.660156.886719-.253906-.085937-.679688-.660156-.679688-.660156-.082031.25-.066406.761719-.027344.933593.320313.46875.746094.519532.746094.519532s-.464844 4.65625.242188 5.003906c.4375-.09375.546875-5.203125.546875-5.203125s.53125.042969.652343-.09375c.269532-.183594.902344-2.125.910157-2.402344 0 0-.730469.136719-1.089844.273438.269531-.265625 1.128906-.445313 1.128906-.445313.234375-.28125.722657-2.183594.773438-2.769531.011719-.148437.042969-.328125.019531-.589844 0 0-.699219.152344-.84375.097657.148438-.015626.859375-.289063.859375-.289063.128906-1.140625.167969-2.960937-.238281-3.035156m-2.558594 12.074219c-.054688 1.371093-.089844 1.757812-.148438 2.082031-.027343.058593-.054687.070312-.078124-.007813-.246094-1.125-.226563-9.59375 2.558593-13.445312-1.621093 2.957031-2.359375 8.636718-2.332031 11.371094m0 0" fill="#333"/></svg>