<svg height="18" viewBox="0 0 18 18" width="18" xmlns="http://www.w3.org/2000/svg"><path d="m6.398438 18.140625c1.671874 0 3.023437-1.351563 3.023437-3.023437v-3.023438h-3.023437c-1.671876 0-3.023438 1.351562-3.023438 3.023438 0 1.671874 1.351562 3.023437 3.023438 3.023437m-3.023438-9.070313c0-1.671874 1.351562-3.023437 3.023438-3.023437h3.023437v6.046875h-3.023437c-1.671876 0-3.023438-1.351562-3.023438-3.023438m0-6.046874c0-1.671876 1.351562-3.023438 3.023438-3.023438h3.023437v6.046875h-3.023437c-1.671876 0-3.023438-1.351563-3.023438-3.023437m6.046875-3.023438h3.023437c1.671876 0 3.023438 1.351562 3.023438 3.023438 0 1.671874-1.351562 3.023437-3.023438 3.023437h-3.023437zm6.046875 9.070312c0 1.671876-1.351562 3.023438-3.023438 3.023438-1.671874 0-3.023437-1.351562-3.023437-3.023438 0-1.671874 1.351563-3.023437 3.023437-3.023437 1.671876 0 3.023438 1.351563 3.023438 3.023437m0 0"/></svg>