<svg height="18" viewBox="0 0 18 18" width="18" xmlns="http://www.w3.org/2000/svg"><g fill="none" stroke="#fff" stroke-linecap="round" stroke-linejoin="round" stroke-width="2" transform="scale(.75)"><path d="m5 5.5c0-1.932292 1.567708-3.5 3.5-3.5h3.5v7h-3.5c-1.932292 0-3.5-1.567708-3.5-3.5m7-3.5h3.5c1.932292 0 3.5 1.567708 3.5 3.5s-1.567708 3.5-3.5 3.5h-3.5zm0 0"/><path d="m12 12.5c0-1.932292 1.567708-3.5 3.5-3.5s3.5 1.567708 3.5 3.5-1.567708 3.5-3.5 3.5-3.5-1.567708-3.5-3.5m-7 7c0-1.932292 1.567708-3.5 3.5-3.5h3.5v3.5c0 1.932292-1.567708 3.5-3.5 3.5s-3.5-1.567708-3.5-3.5m0-7c0-1.932292 1.567708-3.5 3.5-3.5h3.5v7h-3.5c-1.932292 0-3.5-1.567708-3.5-3.5"/></g></svg>