<svg height="18" viewBox="0 0 18 18" width="18" xmlns="http://www.w3.org/2000/svg"><path d="m.769531 0c-.046875 0-.09375.0195312-.125.0507812-.035156.0351563-.054687.0781248-.054687.1249998 0 .109375-.042969.214844-.117188.292969h-.003906c-.078125.078125-.183594.121094-.292969.125-.0937498 0-.175781.078125-.175781.175781v.777344c0 .097656.078125.175781.175781.179687.109375-.003906.21875.039063.292969.117188.078125.078125.121094.183594.121094.292969s-.042969.214843-.121094.292969c-.074219.078124-.179688.121093-.292969.121093-.097656 0-.175781.082031-.175781.179688v.777343c0 .097657.078125.175782.175781.175782.113281 0 .21875.042968.292969.121094.078125.078124.121094.183593.121094.292968 0 .113282-.042969.21875-.121094.292969-.074219.078125-.179688.125-.292969.121094-.0937498 0-.175781.082031-.175781.175781v.78125c0 .097656.0820312.175781.175781.175781.113281 0 .21875.042969.292969.121094.078125.078125.125.183594.121094.292969 0 .230468-.183594.414062-.414063.414062-.097656 0-.175781.082032-.175781.179688v.777344c0 .097656.078125.175781.175781.175781.113281 0 .21875.042969.292969.121093.078125.078126.121094.183594.121094.292969s-.042969.214844-.121094.292969c-.074219.078125-.179688.121094-.292969.121094-.0937498 0-.175781.082031-.175781.175781v.78125c0 .097656.0820312.175781.175781.175781.113281 0 .21875.042969.292969.121094.078125.078125.121094.183594.121094.292969s-.042969.214843-.121094.292969c-.074219.078124-.179688.121093-.292969.121093-.097656 0-.175781.078125-.175781.175781v.777344c0 .097656.078125.179688.175781.179688.113281 0 .21875.042968.292969.121094.078125.078124.121094.183593.121094.292968s-.042969.214844-.121094.292969c-.074219.078125-.179688.121094-.292969.121094-.0937498 0-.175781.078125-.175781.175781v.78125c0 .09375.0820312.175781.175781.175781.113281-.003906.21875.042969.292969.121094.078125.074219.121094.179687.121094.292969 0 .109375-.042969.214844-.121094.292968-.074219.078126-.179688.121094-.292969.121094-.097656 0-.175781.078125-.175781.175782v.777343c0 .097657.078125.175781.175781.175781.113281 0 .21875.046876.292969.125.078125.078126.121094.183594.121094.292969s-.042969.214844-.121094.292969c-.074219.078125-.179688.121094-.292969.121094-.0937498 0-.175781.078125-.175781.175781v.777344c0 .097656.0820312.175781.175781.175781.109375 0 .21875.046875.292969.125.078125.074219.121094.183594.121094.292969 0 .046875.019531.089843.054687.125.03125.03125.078125.050781.125.050781h.777344c.097656 0 .175781-.078125.175781-.175781 0-.113281.042969-.21875.121094-.296875s.183594-.121094.296875-.121094c.109375 0 .214844.042969.292969.121094s.121094.183594.121094.296875c-.003907.097656.078124.175781.175781.175781h.777343c.046876 0 .09375-.019531.125-.050781.035157-.035157.050782-.078125.050782-.125 0-.230469.183594-.417969.414062-.417969.109375 0 .214844.042969.292969.121094s.121094.183594.121094.296875c0 .046875.019531.089843.054687.125.03125.03125.078125.050781.125.050781h.777344c.097656 0 .175781-.078125.175781-.175781 0-.113281.042969-.21875.121094-.296875s.183594-.121094.292969-.121094.214844.042969.292968.121094c.078126.078125.121094.183594.121094.296875 0 .097656.078125.175781.175782.175781h.78125c.046874 0 .089843-.019531.125-.050781.03125-.035157.050781-.078125.050781-.125 0-.113281.042969-.21875.121093-.296875.078126-.078125.183594-.121094.292969-.121094s.214844.042969.292969.121094.121094.183594.121094.296875c0 .046875.019531.089843.050781.125.035156.03125.078125.050781.125.050781h.78125c.097656 0 .175781-.078125.175781-.175781 0-.113281.042969-.21875.121094-.296875s.183594-.121094.292969-.121094.214843.042969.292969.121094c.078124.078125.121093.183594.121093.296875 0 .097656.078125.175781.175781.175781h.78125c.046876 0 .089844-.019531.125-.050781.03125-.035157.050782-.078125.050782-.125 0-.230469.183594-.417969.414062-.417969.109375 0 .214844.042969.292969.121094s.121094.183594.121094.296875c0 .046875.015625.089843.050781.125.03125.03125.078125.050781.125.050781h.777344c.046875 0 .09375-.019531.125-.050781.035156-.035157.054687-.078125.054687-.125 0-.113281.042969-.21875.121094-.296875s.183594-.121094.292969-.121094.214844.042969.292968.121094c.078126.078125.121094.183594.121094.296875 0 .097656.078125.175781.175782.175781h.777343c.097657 0 .179688-.078125.175781-.175781 0-.113281.042969-.21875.121094-.296875s.183594-.121094.292969-.121094c.113281 0 .21875.042969.296875.121094s.121094.183594.121094.296875c0 .046875.015625.089843.050781.125.03125.03125.078125.050781.125.050781h.777344c.046875 0 .09375-.019531.125-.050781.035156-.035157.054687-.078125.054687-.125 0-.109375.042969-.21875.121094-.292969.078125-.078125.183594-.121094.292969-.125.09375 0 .175781-.078125.175781-.175781v-.777344c0-.097656-.078125-.175781-.175781-.179687-.109375.003906-.21875-.039063-.292969-.117188-.078125-.078125-.121094-.183594-.121094-.292969s.042969-.214843.121094-.292969c.074219-.078124.179688-.121093.292969-.121093.097656 0 .175781-.082031.175781-.179688v-.777343c0-.097657-.078125-.175782-.175781-.175782-.113281 0-.21875-.042968-.292969-.121094-.078125-.078124-.121094-.183593-.121094-.292968 0-.113282.042969-.21875.121094-.292969.074219-.078125.179688-.125.292969-.121094.09375 0 .175781-.082031.175781-.175781v-.78125c0-.097656-.082031-.175781-.175781-.175781-.113281 0-.21875-.042969-.292969-.121094-.078125-.078125-.121094-.183594-.121094-.292969s.042969-.214844.121094-.292968c.074219-.078126.179688-.121094.292969-.121094.097656 0 .175781-.082032.175781-.179688v-.773437c0-.097657-.078125-.179688-.175781-.179688-.113281 0-.21875-.042969-.292969-.121093-.078125-.078126-.121094-.183594-.121094-.292969s.042969-.214844.121094-.292969c.074219-.078125.179688-.121094.292969-.121094.09375 0 .175781-.078125.175781-.175781v-.78125c0-.09375-.082031-.171875-.175781-.175781-.113281.003906-.21875-.042969-.292969-.117188-.078125-.078125-.121094-.183594-.121094-.296875 0-.109375.042969-.214843.121094-.292969.074219-.078124.179688-.121093.292969-.121093.097656 0 .175781-.078125.175781-.175781v-.777344c0-.097656-.078125-.179688-.175781-.179688-.113281 0-.21875-.042968-.292969-.121094-.078125-.078124-.125-.183593-.121094-.292968 0-.109375.042969-.214844.121094-.292969.074219-.078125.179688-.121094.292969-.121094.09375 0 .175781-.078125.175781-.175781v-.78125c0-.09375-.082031-.175781-.175781-.175781-.113281.003906-.21875-.042969-.292969-.121094-.078125-.074219-.121094-.179687-.121094-.292969 0-.109375.042969-.214844.121094-.292968.074219-.078126.179688-.121094.292969-.121094.097656 0 .175781-.078125.175781-.175782v-.777343c0-.097657-.078125-.175781-.175781-.175781-.113281 0-.21875-.046876-.292969-.125-.078125-.078126-.121094-.183594-.121094-.292969s.042969-.214844.121094-.292969c.074219-.078125.179688-.121094.292969-.121094.09375 0 .175781-.078125.175781-.175781v-.777344c0-.097656-.082031-.175781-.175781-.175781-.109375-.003906-.214844-.046875-.292969-.125s-.121094-.183594-.121094-.292969c0-.046875-.019531-.0898435-.054687-.1249998-.03125-.03125-.078125-.0507812-.125-.0507812h-.777344c-.046875 0-.089844.0195312-.125.0507812-.035156.0351563-.050781.0781248-.050781.1249998 0 .113281-.042969.21875-.121094.296875s-.183594.121094-.292969.121094-.214843-.042969-.292969-.121094c-.078124-.078125-.121093-.183594-.121093-.296875 0-.046875-.019531-.0898435-.050781-.1249998-.035157-.03125-.078126-.0507812-.128907-.0507812h-.777343c-.097657 0-.175782.078125-.175782.175781 0 .113281-.042968.21875-.121094.296875-.078124.078125-.183593.121094-.292968.121094s-.214844-.042969-.292969-.121094-.121094-.183594-.121094-.296875c0-.097656-.078125-.175781-.175781-.175781h-.78125c-.046875 0-.089844.0195312-.125.0507812-.03125.0351563-.050781.0781248-.050781.1249998 0 .113281-.042969.21875-.121094.296875s-.183594.121094-.292969.121094-.214844-.042969-.292968-.121094c-.078126-.078125-.121094-.183594-.121094-.296875 0-.046875-.019532-.0898435-.050782-.1249998-.035156-.03125-.078124-.0507812-.125-.0507812h-.78125c-.097656 0-.175781.078125-.175781.175781 0 .113281-.042969.21875-.121093.296875-.078126.078125-.183594.121094-.292969.121094s-.214844-.042969-.292969-.121094-.121094-.183594-.121094-.296875c0-.097656-.078125-.175781-.175781-.175781h-.78125c-.046875 0-.089844.0195312-.125.0507812-.03125.0351563-.050781.0781248-.050781.1249998 0 .113281-.042969.21875-.121094.296875s-.183594.121094-.292969.121094-.214843-.042969-.292969-.121094c-.078124-.078125-.121093-.183594-.121093-.296875.003906-.046875-.015625-.0898435-.050781-.1249998-.03125-.03125-.078126-.0507812-.125-.0507812h-.777344c-.097656 0-.179688.078125-.175782.175781 0 .113281-.046874.21875-.125.296875-.074218.078125-.183593.121094-.292968.121094s-.214844-.042969-.292969-.121094-.121094-.183594-.121094-.296875c0-.097656-.078125-.175781-.175781-.175781h-.777344c-.046875 0-.09375.0195312-.125.0507812-.035156.0351563-.054687.0781248-.054687.1249998.003906.113281-.042969.21875-.117188.296875-.078125.078125-.183593.121094-.296875.121094-.109375 0-.214844-.042969-.292968-.121094-.078126-.078125-.121094-.183594-.121094-.296875 0-.046875-.015625-.0898435-.050782-.1249998-.03125-.03125-.078124-.0507812-.125-.0507812h-.777343c-.097657 0-.179688.078125-.175781.175781 0 .113281-.042969.21875-.121094.296875s-.183594.121094-.292969.121094c-.113281 0-.21875-.042969-.296875-.121094-.074219-.078125-.121094-.183594-.117188-.296875 0-.097656-.078124-.175781-.175781-.175781zm.101563.351562h.574218c.089844.328126.339844.59375.695313.59375.351563 0 .605469-.265624.691406-.59375h.570313c.089844.328126.34375.59375.695312.59375.355469 0 .605469-.265624.695313-.59375h.574219c.085937.328126.339843.59375.691406.59375.355468 0 .609375-.265624.695312-.59375h.574219c.085937.328126.339844.59375.691406.59375.351563 0 .605469-.265624.695313-.59375h.570312c.089844.328126.34375.59375.695313.59375.355469 0 .605469-.265624.695312-.59375h.570313c.089844.328126.339844.59375.695312.59375.351563 0 .605469-.265624.695313-.59375h.570312c.089844.328126.34375.59375.695313.59375.351562 0 .605468-.265624.695312-.59375h.570313c.085937.328126.339843.59375.695312.59375.351563 0 .605469-.265624.691407-.59375h.574218c.035156.132813.050782.269532.148438.367188s.238281.117188.367187.152344v.574218c-.324219.085938-.589843.339844-.589843.691407 0 .355469.265624.605469.589843.695312v.574219c-.324219.085938-.589843.339844-.589843.691406 0 .355469.265624.605469.589843.695313v.570312c-.324219.089844-.589843.34375-.589843.695313 0 .355468.265624.605468.589843.695312v.574219c-.324219.085937-.589843.339844-.589843.691406 0 .355469.265624.605469.589843.695313v.570312c-.324219.089844-.589843.34375-.589843.695313 0 .351562.265624.605469.589843.695312v.570313c-.324219.089844-.589843.34375-.589843.695312 0 .351563.265624.605469.589843.695313v.570312c-.324219.089844-.589843.339844-.589843.695313 0 .351562.265624.605468.589843.695312v.570313c-.324219.089843-.589843.34375-.589843.695312 0 .351563.265624.605469.589843.691407v.574218c-.128906.035156-.269531.054688-.363281.152344-.097656.097656-.117188.234375-.152344.367188h-.574218c-.085938-.328126-.339844-.59375-.695313-.59375-.351563 0-.605469.265624-.691406.59375h-.570313c-.089844-.328126-.34375-.59375-.695312-.59375-.351563 0-.605469.265624-.695313.59375h-.574219c-.085937-.328126-.339843-.59375-.691406-.59375-.355468 0-.605468.265624-.695312.59375h-.570313c-.089843-.328126-.34375-.59375-.695312-.59375-.351563 0-.605469.265624-.695313.59375h-.570312c-.089844-.328126-.34375-.59375-.695313-.59375-.351562 0-.605469.265624-.695312.59375h-.570313c-.089844-.328126-.339844-.59375-.695312-.59375-.351563 0-.605469.265624-.691406.59375h-.574219c-.089844-.328126-.34375-.59375-.695313-.59375-.351562 0-.605468.265624-.695312.59375h-.570313c-.085937-.328126-.339843-.59375-.691406-.59375-.355469 0-.609375.265624-.695313.59375h-.574218c-.03125-.132813-.050782-.269532-.148438-.367188s-.238281-.117188-.367187-.152344v-.574218c.324219-.085938.589843-.339844.589843-.691407 0-.351562-.265624-.605469-.589843-.695312v-.570313c.324219-.089844.589843-.34375.589843-.695312 0-.355469-.265624-.605469-.589843-.695313v-.570312c.324219-.089844.589843-.34375.589843-.695313 0-.351562-.265624-.605468-.589843-.695312v-.574219c.324219-.085937.589843-.339844.589843-.691406 0-.351563-.265624-.605469-.589843-.695313v-.570312c.324219-.089844.589843-.34375.589843-.695313 0-.351562-.265624-.605469-.589843-.691406v-.574219c.324219-.089844.589843-.34375.589843-.695312 0-.351563-.265624-.605469-.589843-.695313v-.570312c.324219-.089844.589843-.339844.589843-.695313 0-.351562-.265624-.605468-.589843-.695312v-.570313c.324219-.089843.589843-.339843.589843-.695312 0-.351563-.265624-.605469-.589843-.691407v-.574218c.128906-.035156.269531-.054688.363281-.152344h.003906c.09375-.097656.117188-.234375.148438-.367188zm4.136718 2.246094c-.082031 0-.15625.058594-.171874.140625l-2.429688 11.453125c-.011719.050782.003906.105469.035156.148438.035156.042968.085938.066406.140625.066406h2.328125c.082032 0 .15625-.058594.171875-.140625l1.039063-4.867187h5.019531l-4.554687 4.507812c-.058594.058594-.066407.144531-.027344.214844l.851562 1.507812c.023438.042969.066406.074219.113282.085938.046874.011718.097656 0 .136718-.023438.328125-.21875.945313-.269531 1.382813-.269531.746093 0 1.519531.261719 2.359375.261719.746094 0 1.546875-.054688 2.800781-.65625.050781-.023438.085937-.066406.097656-.121094l.429688-2.019531c.011719-.0625-.011719-.128907-.0625-.171875-.046875-.042969-.117188-.050782-.179688-.027344-.816406.335938-2.042969.660156-3.085937.660156-.296875 0-.59375-.066406-.894532-.117187l4.445313-4.324219c.023437-.023438.042969-.050781.050781-.082031l.375-1.542969c.015625-.054688.003906-.109375-.03125-.152344-.03125-.042968-.085937-.066406-.136718-.066406h-8.589844l.386718-1.796875h5.222657c.082031 0 .15625-.058594.171875-.140625l.492187-2.316406c.011719-.050782 0-.105469-.035156-.144532-.03125-.042968-.082031-.066406-.136719-.066406zm.144532.351563h7.351562l-.417968 1.960937h-5.222657c-.082031 0-.15625.058594-.171875.140625l-.460937 2.148438c-.011719.054687.003906.109375.035156.148437.035156.042969.085937.066406.136719.066406h8.582031l-.3125 1.277344-4.671875 4.539063c-.046875.046875-.066406.117187-.042969.183593.019531.0625.074219.109376.140625.121094.417969.0625.835938.164063 1.304688.164063 1.011718 0 2.085937-.308594 2.925781-.621094l-.351563 1.660156c-1.15625.539063-1.863281.59375-2.574218.59375-.765625 0-1.535156-.261719-2.359375-.261719-.398438 0-.941407.074219-1.382813.285157l-.730468-1.292969 4.761718-4.714844c.050782-.050781.066406-.125.039063-.191406-.027344-.066406-.09375-.109375-.164063-.109375h-5.589844c-.082031 0-.152343.058594-.171874.136719l-1.035157 4.871094h-1.972656zm0 0" fill="#bb0001"/></svg>