<svg height="18" viewBox="0 0 18 18" width="18" xmlns="http://www.w3.org/2000/svg"><g fill="none" stroke="#fff" stroke-linecap="round" stroke-linejoin="round" stroke-width="2" transform="scale(.75)"><path d="m11 11c1.333333 1.776042 1.333333 4.223958 0 6m3-15v4c0 1.104167.895833 2 2 2h4"/><path d="m4 6.765625v-2.765625c0-1.104167.895833-2 2-2h9l5 5v13c0 1.104167-.895833 2-2 2h-12c-.322917 0-.640625-.078125-.932292-.229167"/><path d="m7 10.510417c0-.197917-.114583-.375-.291667-.453125-.177083-.083334-.385416-.057292-.536458.072916l-1.890625 1.630209c-.182292.151041-.411458.239583-.651042.239583h-1.130208c-.276042 0-.5.223958-.5.5v3c0 .276042.223958.5.5.5h1.130208c.239584 0 .46875.083333.651042.239583l1.890625 1.630209c.151042.130208.359375.161458.536458.078125.177084-.083334.291667-.260417.291667-.458334zm0 0"/></g></svg>