<svg height="18" viewBox="0 0 18 18" width="18" xmlns="http://www.w3.org/2000/svg"><g fill="none" stroke="#fff" stroke-linecap="round" stroke-linejoin="round" stroke-width="2" transform="scale(.75)"><path d="m4 22h14c1.104167 0 2-.895833 2-2v-13l-5-5h-9c-1.104167 0-2 .895833-2 2v2"/><path d="m14 2v4c0 1.104167.895833 2 2 2h4"/><path d="m4 17c0 .552083-.447917 1-1 1s-1-.447917-1-1 .447917-1 1-1 1 .447917 1 1zm0 0"/><path d="m2 17v-3c0-2.208333 1.791667-4 4-4s4 1.791667 4 4v3"/><path d="m10 17c0 .552083-.447917 1-1 1s-1-.447917-1-1 .447917-1 1-1 1 .447917 1 1zm0 0"/></g></svg>