<svg height="18" viewBox="0 0 18 18" width="18" xmlns="http://www.w3.org/2000/svg"><path d="m.601562 0c0 .160156-.0625.3125-.175781.425781s-.265625.175781-.425781.175781v.796876c.332031 0 .601562.269531.601562.601562s-.269531.601562-.601562.601562v.796876c.332031 0 .601562.269531.601562.601562s-.269531.601562-.601562.601562v.796876c.332031 0 .601562.269531.601562.601562s-.269531.601562-.601562.601562v.796876c.332031 0 .601562.269531.601562.601562s-.269531.601562-.601562.601562v.796876c.332031 0 .601562.269531.601562.601562s-.269531.601562-.601562.601562v.796876c.332031 0 .601562.269531.601562.601562s-.269531.601562-.601562.601562v.796876c.332031 0 .601562.269531.601562.601562s-.269531.601562-.601562.601562v.796876c.332031 0 .601562.269531.601562.601562s-.269531.601562-.601562.601562v.796876c.160156 0 .3125.0625.425781.175781s.175781.265625.175781.425781h.796876c0-.332031.269531-.601562.601562-.601562s.601562.269531.601562.601562h.796876c0-.332031.269531-.601562.601562-.601562s.601562.269531.601562.601562h.796876c0-.332031.269531-.601562.601562-.601562s.601562.269531.601562.601562h.796876c0-.332031.269531-.601562.601562-.601562s.601562.269531.601562.601562h.796876c0-.332031.269531-.601562.601562-.601562s.601562.269531.601562.601562h.796876c0-.332031.269531-.601562.601562-.601562s.601562.269531.601562.601562h.796876c0-.332031.269531-.601562.601562-.601562s.601562.269531.601562.601562h.796876c0-.332031.269531-.601562.601562-.601562s.601562.269531.601562.601562h.796876c0-.160156.0625-.3125.175781-.425781s.265625-.175781.425781-.175781v-.796876c-.332031 0-.601562-.269531-.601562-.601562s.269531-.601562.601562-.601562v-.796876c-.332031 0-.601562-.269531-.601562-.601562s.269531-.601562.601562-.601562v-.796876c-.332031 0-.601562-.269531-.601562-.601562s.269531-.601562.601562-.601562v-.796876c-.332031 0-.601562-.269531-.601562-.601562s.269531-.601562.601562-.601562v-.796876c-.332031 0-.601562-.269531-.601562-.601562s.269531-.601562.601562-.601562v-.796876c-.332031 0-.601562-.269531-.601562-.601562s.269531-.601562.601562-.601562v-.796876c-.332031 0-.601562-.269531-.601562-.601562s.269531-.601562.601562-.601562v-.796876c-.332031 0-.601562-.269531-.601562-.601562s.269531-.601562.601562-.601562v-.796876c-.160156 0-.3125-.0625-.425781-.175781s-.175781-.265625-.175781-.425781h-.796876c0 .332031-.269531.601562-.601562.601562s-.601562-.269531-.601562-.601562h-.796876c0 .332031-.269531.601562-.601562.601562s-.601562-.269531-.601562-.601562h-.796876c0 .332031-.269531.601562-.601562.601562s-.601562-.269531-.601562-.601562h-.796876c0 .332031-.269531.601562-.601562.601562s-.601562-.269531-.601562-.601562h-.796876c0 .332031-.269531.601562-.601562.601562s-.601562-.269531-.601562-.601562h-.796876c0 .332031-.269531.601562-.601562.601562s-.601562-.269531-.601562-.601562h-.796876c0 .332031-.269531.601562-.601562.601562s-.601562-.269531-.601562-.601562h-.796876c0 .332031-.269531.601562-.601562.601562s-.601562-.269531-.601562-.601562zm4.328126 2.648438h7.867187l-.503906 2.359374h-5.472657l-.46875 2.195313h8.980469l-.382812 1.574219-4.804688 4.667968c.4375.066407.855469.167969 1.308594.167969 1.097656 0 2.359375-.335937 3.214844-.683593l-.4375 2.058593c-1.257813.601563-2.027344.652344-2.777344.652344-.820313 0-1.609375-.269531-2.414063-.269531-.449218 0-1.101562.035156-1.503906.300781l-.871094-1.539063 4.953126-4.90625h-5.699219l-1.089844 5.109376h-2.378906zm0 0" fill="#bb0001"/></svg>