<svg height="18" viewBox="0 0 18 18" width="18" xmlns="http://www.w3.org/2000/svg"><g fill="none" stroke="#fff" stroke-linecap="round" stroke-linejoin="round" stroke-width="2" transform="scale(.75)"><path d="m21 7h-3c-1.104167 0-2-.895833-2-2v-3"/><path d="m21 6v6.5c0 .802083-.697917 1.5-1.5 1.5h-7c-.802083 0-1.5-.697917-1.5-1.5v-9c0-.802083.697917-1.5 1.5-1.5h4.5zm0 0"/><path d="m7 8v8.802083c0 .296875.197917.598959.401042.796875.197916.203125.5.401042.796875.401042h6.802083"/><path d="m3 12v8.802083c0 .296875.197917.598959.401042.796875.197916.203125.5.401042.796875.401042h6.802083"/></g></svg>