<svg height="18" viewBox="0 0 18 18" width="18" xmlns="http://www.w3.org/2000/svg"><path d="m4.902344 0c-.011719 0-.027344 0-.042969.00390625-.113281.01953125-.207031.10937475-.222656.22656275l-2.117188 13.550781 1.394531-2.652344 3.523438-6.710937-2.289062-4.273438c-.050782-.0898435-.144532-.144531-.246094-.144531m3.992187 2.574219c-.101562 0-.191406.054687-.238281.144531l-1.050781 1.996094-4.796875 9.128906 1.511718-1.515625 4.847657-4.851563 1.617187-1.621093-1.648437-3.136719c-.046875-.089844-.140625-.144531-.242188-.144531m4.527344 1.164062c-.027344 0-.050781.003907-.074219.007813-.050781.011718-.09375.039062-.128906.074218l-2.085938 2.085938-1.765624 1.769531-6.886719 6.902344 5.851562 3.28125c.332031.1875.742188.1875 1.074219 0l5.980469-3.324219-1.707031-10.570312v.003906c-.015626-.101562-.089844-.183594-.183594-.214844-.027344-.007812-.050782-.011718-.074219-.015625m2.097656 10.886719-.082031.007812.035156.019532zm0 0" fill="#ffa000"/></svg>