<svg height="18" viewBox="0 0 18 18" width="18" xmlns="http://www.w3.org/2000/svg"><g fill="none" stroke="#fff" stroke-linecap="round" stroke-linejoin="round" stroke-width="2" transform="scale(.75)"><path d="m6.5 12c.9375-3.458333 4.9375-6 8.5-6s6.0625 2.541667 7 6c-.9375 3.46875-3.4375 6-7 6s-7.5625-2.53125-8.5-6m11.5 0v.5"/><path d="m16 17.932292c-2.671875-3.505209-2.671875-8.359375 0-11.864584m-9 4.604167c0-2.671875-1.421875-4.703125-4.270833-5.171875-1 1.5-1 5 .229166 6.5-1.239583 1.5-1.239583 5-.229166 6.5 2.848958-.46875 4.270833-2.5 4.270833-5.171875"/><path d="m10.458333 7.260417c-.260416-1.380209-1.286458-3.020834-2.458333-4.260417h5.802083c.979167-.005208 1.817709.703125 1.979167 1.671875l.229167 1.395833m0 11.864584-.229167 1.395833c-.161458.96875-1 1.677083-1.979167 1.671875h-4.302083c.96875-1.098958 1.5-2.515625 1.489583-3.979167"/></g></svg>