<svg height="18" viewBox="0 0 18 18" width="18" xmlns="http://www.w3.org/2000/svg"><path d="m6.25 14.152344c-.59375-.46875-1.230469-.917969-1.664062-1.550782-.914063-1.113281-1.617188-2.402343-2.09375-3.757812-.292969-.882812-.390626-1.828125-.765626-2.675781-.390624-.617188.066407-1.289063.738282-1.484375.300781-.058594.828125-.339844.191406-.136719-.570312.417969-.625-.382813-.039062-.433594.398437-.050781.546874-.378906.410156-.671875-.429688-.28125 1.039062-.589844.300781-1.007812-.769531-.832032 1.078125-.992188.621094-.046875-.105469.726562 1.292969-.132813.96875.707031.328125.402344 1.234375.089844 1.210937.65625.480469.03125.648438.4375 1.097656.46875.46875.210938 1.316407.375 1.476563.902344-.464844.367187-1.542969-.757813-1.589844.261718.140625 1.503907.101563 3.050782.652344 4.480469.261719.867188.890625 1.550781 1.460937 2.226563.542969.660156 1.28125 1.125 2.035157 1.515625.660156.3125 1.371093.519531 2.089843.648437.292969-.222656.808594-1.050781 1.261719-.703125.023438.394531-.902343.820313-.042969.777344.503907-.148437.855469.390625 1.269532-.097656.382812.453125 1.59375-.289063 1.320312.636719-.367187.238281-.90625.09375-1.273437.421874-.609375-.304687-1.09375.269532-1.769531.199219-.746094.132813-1.507813.1875-2.265626.1875-1.246093-.097656-2.515624-.136719-3.699218-.570312-.667969-.195313-1.316406-.574219-1.902344-.953125m1.050781.453125c.648438.28125 1.289063.578125 2 .667969 1.132813.160156 2.300781.402343 3.4375.179687-.515625-.230469-1.046875.089844-1.558593-.164063-.613282.128907-1.273438-.035156-1.898438-.117187-.707031-.316406-1.476562-.535156-2.140625-.945313-.832031-.304687.429687.390626.652344.445313.519531.296875-.570313-.152344-.722657-.273437-.4375-.246094-.492187-.191407-.042968.054687.089844.050781.179687.109375.273437.152344m-1.238281-.875c.628906.234375-.003906-.445313-.292969-.40625-.128906-.222657-.488281-.363281-.234375-.480469-.457031.160156-.480468-.605469-.695312-.496094-.484375-.152344-.1875-.695312-.765625-1.03125-.054688-.351562-.574219-.652344-.742188-1.183594-.074219-.273437-.589843-1.050781-.273437-.324218.269531.695312.746094 1.292968 1.140625 1.890625.304687.566406.667969 1.160156 1.226562 1.515625.1875.183594.371094.460937.636719.515625m-1.820312-1.996094c.023437-.09375.117187.207031 0 0m2.574218 2.277344c.140625-.0625-.203125-.078125 0 0m.34375.125c-.035156-.175781-.15625.097656 0 0m.429688.175781c.203125-.191406-.316406-.121094 0 0m.730468.410156c.128907-.183594-.394531-.066406 0 0m-1.410156-.980468c.316406-.207032-.40625-.003907 0 0m.324219.160156c-.011719-.109375-.117187.046875 0 0m1.605469 1c.261718.164062 1.511718.359375.726562.070312-.128906.027344-1.453125-.375-.726562-.070312m-2.550782-1.984375c-.027343-.109375-.402343-.121094 0 0m.746094.433593c.195313-.132812-.402344-.101562 0 0m.632813.386719c.277343-.105469-.457031-.105469 0 0m-1.683594-1.152343c.304687.230468 1.222656.027343.464844-.140626-.347657-.183593-1.125-.308593-.59375.109376zm2.109375 1.285156c.125-.214844-.53125-.121094 0 0m-.640625-.507813c.738281.207031-.625-.472656-.183594-.078125l.097657.042969zm1.285156.742188c.699219.007812-.636719-.097657 0 0m-3.023437-1.925781c-.027344-.132813-.175782.007812 0 0m4.210937 2.589843c.019531-.234375-.230469.175781 0 0m-3.015625-1.855469c-.039062-.125-.21875-.007812 0 0m-1.128906-.816406c.402344-.023437-.554688-.179687 0 0m-1.339844-.867187c-.050781-.195313-.441406-.347657 0 0m3.519532 2.234375c-.074219-.085938-.035157.015625 0 0m2.1875 1.34375c-.003907-.128906-.117188.046875 0 0m-2.382813-1.542969c.039063-.167969-.34375-.050781 0 0m-1.632813-1.035156c.300782-.035157-.480468-.203125 0 0m2.761719 1.714843c.46875-.1875-.457031-.089843 0 0m-1.4375-.976562c.539063.070312-.640625-.367188-.117187-.039062zm1.875 1.152344c.5-.300782.335938.703125.851563.085937.507812-.371093-.441406.457031.1875.066407.453125-.304688 1.125.140624 1.546875.289062.304687-.015625.601562.261719.914062.09375.597657-.160156-1.175781-.242188-.710937-.527344-.550782.160156-.957032-.191406-1.226563-.542968-.617187-.140626-1.332031-.457032-1.636719-1.003907-.128906-.207031.179688.027344-.109374-.308593-.371094-.328126-.558594-.703126-.804688-1.105469-.300781-.160157-.335938-.628907-.363281-.015625 0-.386719-.363281-.644532-.449219-.539063-.003906-.371093.386719-.183593.113281-.457031-.058593-.386719-.25-.789062-.308593-1.222656-.089844-.210938-.011719-.65625-.308594-.183594-.105469.5-.035156-.617188.132812-.246094.21875-.378906-.078125-.332031-.089844-.28125.140626-.316406.089844-.769531-.039062-.597656.074219-.335938.121094-1.238281-.113281-1.074219.140625-.351562.269531-1.609375-.347657-1.132812-.25.007812-.683593.089843-.886718.195312.640625.351563-.066406.128907-.328125.070313-.03125.328125-.292969.1875-.613281.1875.515624.066406-.253907.527344-.546876.347656-.386718.183594.328126.644531.003907.785156.039062.214844-.589844-.078125-.539063.417969-.371094-.160156-.050781.582031.136719.332031.632813.171875.445313.566406.460937.9375-.105468.214844-.511718-.511718-.089843-.476562-.332031-.539063-.367188-.195313-.640625.054687-.0625.019531.703125.355469.21875.523438.425781.066406.4375.4375.523437.667969.253907.265624.203125-.289063.507813.027343-.195313-.285156-1.019532-.800781-.355469-.632812-.003906-.289063-.121094-.519531.082031-.511719.203125-.367188-.210937.902344.246094.4375.125-.054688.15625-.367188.382812.027344.328126.324218.121094.558594-.347656.261718.085938.285157.625.382813.523438.824219.105468.390625.257812.246094.386718.222657.101563.378906.160157.101562.164063-.078126.472656.101563.363281.378907.507813.570313.324218.148437-.460938-.988281.09375-.339844.585937.527344.21875.746094-.304688.664063.332031-.027344.4375.445312.851562.429687.378907.179688.636719.871094-.015624.585938-.226563-.207031-1.027344-.457031-.371094-.070313.601562.28125 1.082031.449219 1.664062.800782.417969.296874.597656.636718.757813.703124-.351563.167969-1.058594-.132812-.53125-.222656-.328125-.0625-.695313-.226562-.382813.179688.265625.222656.945313.199218 1.066406.226562-.101562.226563-.28125.242188.003907.261719-.316407.167969.101562.195313.132812.292969m-.648437-1.828125c-.191406-.199219-.242188-.578125-.035156-.25.105468.042969.34375.617187.035156.25m2.109375 1.339843c.117187-.007812 0 .089844 0 0m-2.414063-1.832031c-.007812-.304687.070313.234375 0 0m-.207031-.285156c-.246094-.464844.304687.136719 0 0m-2.542969-1.75c.144532-.039063.070313.242187 0 0m2.023438 1.09375c.085937-.328125.101562.277344 0 0m-1.429688-.992187c-.097656-.179688.210938.171874 0 0m1.226563.394531c-.230469-.515625.164062-.28125.050781.082031zm-2.113281-1.410157c-.101563-.167968-.269532-.664062-.21875-.8125.050781.246094.523437 1.058594.234374.335938-.320312-.605469.382813.195312.457032.347656.03125.148438-.199219-.042968-.042969.308594-.285156-.398438-.167969.222656-.429687-.179688m-.652344-.449218c.027344-.390625.148437.269531 0 0m.292968.101562c.140626-.296875.238282.410156 0 0m-.707031-.546875c-.242187-.242187-.417969-.464843.011719-.152343.167969.007812-.367188-.503907.039062-.160157.429688.078125.214844.703125-.050781.3125m.371094-.011719c.140625-.136718.074219.140626 0 0m.230469.074219c-.214844-.402343.257812.167969 0 0m-.453125-.433593c-.707031-.628907.886719.328124.113281.117187zm2.023437 1.175781c-.308594-.183594-.082031-1.289063.023438-.53125.296875-.097657-.019532.390625.203125.386719-.035157.304687-.132813.417968-.226563.144531m.75.445312c.027344-.335937.0625.226563 0 0m-.132812-.132812c.035156-.140625.003906.171875 0 0m-2.503906-1.695313c-.453126-.625 1.320312.636719.292968.160156-.109375-.03125-.238281-.039062-.292968-.160156m1.441406.765625c-.042969-.527343.097656.085938 0 0m1.09375.703125c.085937-.300781.007812.199219 0 0m-2.464844-1.707031c.269531-.058594 1.117188.472656.339844.152344-.089844-.097657-.273438-.054688-.339844-.152344m2.316406 1.15625c.027344-.542969.160156-.324219 0 .074219zm-2.117187-1.34375c.109375-.164063-.292969-.730469.058593-.203125.152344.117188.4375.199219.183594.25.398438.351562-.09375.097656-.242187-.046875m2.003906 1.171875c.074219-.613281.066406.363281 0 0m-2.234375-1.738281c.085938-.039063.046875.109375 0 0m.523438.308593c.136718-.28125.25.316407 0 0m1.472656.820313c0-.109375.027344.15625 0 0m-.085938-.1875c-.203125-.507813.191406.265625 0 0m-.125-.332031c-.035156-.207032.117188.261718 0 0m.207032-.332032c-.140626-.246093.175781-1.089843.210937-.566406-.148437.40625-.042969.632813.058594.089844.191406-.433594-.039063.84375-.269531.476562m.207031-1.253906c.0625-.074218.015625.09375 0 0m-.347657 6.910156c-.085937-.074218.007813.042969 0 0m.71875.363282c.402344.105468.398438-.0625.039063-.109375-.195313-.183594-.8125-.375-.261719-.023438.039063.089844.152344.089844.222656.132813m-1.425781-.945313c.222657.164063.835938.464844.316407.0625.171874-.203125-.335938-.3125-.167969-.449219-.429688-.261718-.335938-.238281-.035157-.230468-.519531-.230469.074219-.210938.042969-.332032-.199219-.039062-.988281-.351562-.523437.027344-.472656-.242187-.113282.089844-.253906.054688-.484376-.132813.429687.367187-.078126.242187.277344.21875.746094.5625.117188.230469-.078125.121094.453125.304688.582031.394531m.753907.433594c.921874.292969-.449219-.363281 0 0m3.867187 2.339844c.011719-.183594-.125.15625 0 0m.398437.167969c.210938-.207032.007813.328124.351563-.050782.003906-.269531-.011719-.429687-.394531-.101562-.105469.058594-.152344.308594.042968.152344m-6.308593-3.960938c-.066407-.257812-.457031-.253906 0 0m.425781.277344c-.160156-.261719-.5625-.234375 0 0m2.414062 1.457031c.234376.207031 1.082032.152344.285157.023437-.117188-.171874-.75-.132812-.285157-.023437m3.316407 2.046875c.363281-.300781-.351563.136719 0 0m.753906.519531c.003906-.097656-.15625.042969 0 0m.003906-.136719c.402344-.425781-.390625.027344 0 0m-7.957031-5.039062c-.34375-.488281-.210938-.707031-.542969-1.105469-.0625-.304687-.566406-.996093-.261719-.265625.28125.429688.363282 1.09375.804688 1.371094m7.828125 4.90625c.742187-.480469-.300781-.210938 0 0m.566406.21875c.371094-.316406-.234375-.066406 0 0m-7.476562-4.789062c.105469-.160157-.273438-.019532 0 0m7.359375 4.636718c.359375-.230468-.082032-.195312-.066406.023438zm-4.863282-3.0625c-.011718-.15625-.191406.011719 0 0m.300782.171875c-.097656-.195312-.148438.03125 0 0m5.136718 3.046875c.460938-.332031-.277343-.0625-.09375.0625zm-.175781-.082031c.375-.316406-.394531.136719 0 0m.898438.597656c.25-.167969-.304688-.054687 0 0m-8.425781-5.421875c.335937.074219 1.34375.828125.75.050782-.304688-.089844-.121094-.835938-.433594-.703126.207031.347657.171875.496094-.265625.277344-.550781-.269531-.3125.132813-.203125.242188-.144532.035156.195312.128906.152344.132812m-1.53125-1.210937c.058593-.25-.558594-1.371094-.292969-.5625.097656.167969.085937.488281.292969.5625m2.8125 1.734375c-.171876-.144532-.007813-.023438 0 0m.425781.097656c0-.261719-.472657-.105469 0 0m3.699219 2.332031c-.070313-.179687-.277344-.003906 0 0m.175781.128907c-.023438-.101563-.101563.019531 0 0m1.46875.925781c.140625-.105469-.175781-.015625 0 0m-7.820313-5.023438c.40625-.15625-.429687-.113281 0 0m5.851563 3.683594c-.007813-.261719-.257813.0625 0 0m-6.007813-4.054687c.257813-.089844-.242187-.058594 0 0m.75.363281c-.003906-.085938-.078125.03125 0 0m9.171875 5.621093c.332031-.066406 1.09375.171876 1.214844-.085937-.40625-.011719-1.398437-.285156-1.445313.0625l.089844.015625zm-8.933593-5.5625c.007812-.261718-.203126-.007812 0 0m-1.976563-1.371093c-.089844-.503907-.339844-.074219 0 0m.472656.121093c.003907-.164062-.429687-.148437 0 0m.269531.128907c-.078124-.058594-.0625.082031 0 0m1.695313 1.089843c.078125-.074218-.191406-.054687 0 0m-1.875-1.386718c-.046875-.382813-.546875-.054688 0 0m-.964844-.628906c-.015625-.175782-.09375.066406 0 0m.140625-.105469c-.023437-.210938-.121094.027343 0 0m.796875.472656c.335938-.132813-.613281-.273437-.070312-.023437zm10.628907 6.566406c.214843-.195312-.273438-.0625 0 0m1.285156.667969c.085937-.257812-.21875.03125 0 0m-11.835938-7.648438c.039063-.246093-.265625.046876 0 0m-1.128906-.757812c-.058594-.347656-.050781-.960938.53125-.753906-.777344.15625.535156.964844.371094.324218.324218.015626.636718-.191406.464844.125.644531-.070312 1.089843-.625 1.707031-.550781.484375-.0625 1.011719-.109375 1.53125-.304687.429687-.03125.839843-.492188.605469-.765625-.582032-.050781-1.195313.023437-1.835938.152343-.714844.148438-1.367188.429688-2.085938.550782-.703124.09375.140626.261718-.0625.296875-.367187.128906.4375.214843-.046874.347656-.300782-.058594-.613282-.160156-.484376-.472656-.671874.085937-1.265624.367187-.730468 1.050781zm1.625-.828125c.15625-.582031.84375.480469.257812.078125-.070312-.054688-.1875-.097656-.257812-.078125m.03125-.28125c.226562-.167969.121094.09375 0 0m.289062.003906c.019532-.265625.660157.144531.105469.097657zm.394532-.160156c.144531-.167969.042968.152344 0 0m.101562-.066406c.238282-.289063 1.363282-.183594.542969-.027344-.222656-.167969-.390625.097656-.542969.027344m1.464844-.226563c-.035156-.789062.730469.28125 0 0m.417969 0c.148437-.398437.589843-.160156.070312-.082031.007813.042969-.015625.207031-.070312.082031m-3.355469 2.109375c.453125-.277343-.484375-.242187 0 0m.335938.09375c.15625-.167969-.347657-.070312 0 0m-.992188-.703125c.261719-.199218-.304688-.074218 0 0m13.410156 8.390625c.007813-.234375-.199218.101563 0 0m-1.363281-.929687c.039063-.269532-.175781.023437 0 0m1.738281 1.019531c.363282 0 1.097656-.113281.308594-.113281-.125.019531-.722656.015625-.308594.113281m-12.5-7.941406c.296875-.019531.460938-.320313-.054687-.304688-.800781-.082031.703125.273438-.105469.171875-.105469.070313.152344.152344.160156.132813m.261719.132812c-.03125-.1875-.09375.097657 0 0m.304687-.820312c.125-.15625-.175781-.042969 0 0m-.976562-1.628907c.523438-.179687 1.238281-.378906 1.488281.085938-.253906-.300781-.101562-.601562.136719-.15625.335938.449219.503906-.207031.285156-.355469.246094.308594.53125.457031.167969.019531.394531-.476562-.796875.0625-1.070313.058594-.128906.058594-1.347656.308594-1.007812.347656m.308594-.589843c.296875-.222657 1.03125.136719.5625-.222657-.046875-.042968-1.035156.269532-.5625.222657m1.089844.046875c.347656.007812-.152344-.472656.265624-.253906-.070312-.222657-.488281-.265626-.691406-.355469-.113281.203125.234375.609375.425782.609375m-.898438-.992188c.121094-.160156-.214844.085938 0 0m.441406.109375c.566406-.074219-.140625-.242187-.113281-.007812zm-.828125-.652343c-.398437-.519532.746094.089843.339844-.453126-.335937-.269531-.664063.300782-.339844.453126m5.089844 2.742187c.183594-.320313-.75-.433594-.121094-.113281.058594.019531.042969.136718.121094.113281" fill="#010101"/></svg>