<svg height="18" viewBox="0 0 18 18" width="18" xmlns="http://www.w3.org/2000/svg"><g fill="none" stroke="#fff" stroke-linecap="round" stroke-linejoin="round" stroke-width="2" transform="scale(.75)"><path d="m15 12c0 1.65625-1.34375 3-3 3s-3-1.34375-3-3 1.34375-3 3-3 3 1.34375 3 3zm0 0"/><path d="m12 16.5c0 2.484375-2.015625 4.5-4.5 4.5s-4.5-2.015625-4.5-4.5 2.015625-4.5 4.5-4.5c-2.484375 0-4.5-2.015625-4.5-4.5s2.015625-4.5 4.5-4.5 4.5 2.015625 4.5 4.5c0-2.484375 2.015625-4.5 4.5-4.5s4.5 2.015625 4.5 4.5-2.015625 4.5-4.5 4.5c2.484375 0 4.5 2.015625 4.5 4.5s-2.015625 4.5-4.5 4.5-4.5-2.015625-4.5-4.5m0-9v1.5m-4.5 3h1.5m7.5 0h-1.5m-3 4.5v-1.5m-4-7 1.880208 1.880208m4.239584 0 1.880208-1.880208m-8 8 1.880208-1.880208m4.239584 0 1.880208 1.880208"/></g></svg>