<svg height="18" viewBox="0 0 18 18" width="18" xmlns="http://www.w3.org/2000/svg"><g fill="none" stroke="#fff" stroke-linecap="round" stroke-linejoin="round" stroke-width="2" transform="scale(.75)"><path d="m15 17h6c.552083 0 1 .447917 1 1v3c0 .552083-.447917 1-1 1h-6c-.552083 0-1-.447917-1-1v-3c0-.552083.447917-1 1-1zm0 0"/><path d="m10 20h-6c-1.104167 0-2-.895833-2-2v-13c0-1.104167.895833-2 2-2h3.901042c.677083-.005208 1.317708.333333 1.6875.901042l.8125 1.197916c.369791.5625.994791.901042 1.666666.901042h7.932292c1.104167 0 2 .895833 2 2v2.5"/><path d="m20 17v-2c0-1.104167-.895833-2-2-2s-2 .895833-2 2v2"/></g></svg>