<svg height="18" viewBox="0 0 18 18" width="18" xmlns="http://www.w3.org/2000/svg"><g fill="none" stroke="#fff" stroke-linecap="round" stroke-linejoin="round" stroke-width="2" transform="scale(.75)"><path d="m4 20h16c1.104167 0 2-.895833 2-2v-10c0-1.104167-.895833-2-2-2h-7.932292c-.666666-.005208-1.291666-.34375-1.65625-.901042l-.822916-1.197916c-.364584-.557292-.989584-.895834-1.65625-.901042h-3.932292c-1.104167 0-2 .895833-2 2v13c0 1.098958.901042 2 2 2"/><path d="m14 13c0 1.104167-.895833 2-2 2s-2-.895833-2-2 .895833-2 2-2 2 .895833 2 2zm0 0"/><path d="m12 15v5"/></g></svg>