<svg height="18" viewBox="0 0 18 18" width="18" xmlns="http://www.w3.org/2000/svg"><g fill="none" stroke="#fff" stroke-linecap="round" stroke-linejoin="round" stroke-width="2" transform="scale(.75)"><path d="m6 14 1.447917-2.901042c.34375-.677083 1.036458-1.098958 1.791666-1.098958h10.760417c.619792 0 1.203125.286458 1.583333.776042.380209.489583.510417 1.125.354167 1.723958l-1.546875 6c-.229167.885417-1.026042 1.5-1.942708 1.5h-14.447917c-1.104167 0-2-.895833-2-2v-13c0-1.098958.901042-2 2-2h3.932292c.666666.005208 1.291666.34375 1.65625.901042l.822916 1.197916c.364584.557292.989584.895834 1.65625.901042h5.932292c1.104167 0 2 .895833 2 2v2"/><path d="m15 15c0 .552083-.447917 1-1 1s-1-.447917-1-1 .447917-1 1-1 1 .447917 1 1zm0 0"/></g></svg>