<svg height="18" viewBox="0 0 18 18" width="18" xmlns="http://www.w3.org/2000/svg"><path d="m16.335938 9.015625.207031.066406.011719-.023437c-.113282-.148438-.222657-.308594-.425782-.335938-.148437-.023437-.300781-.015625-.453125-.023437.003907-.070313-.023437-.097657-.09375-.066407-.066406.027344-.136719.050782-.203125.074219-.164062.0625-.328125.125-.492187.183594-.027344.011719-.066407 0-.097657 0 .003907-.03125 0-.0625.007813-.09375.03125-.109375.066406-.214844.09375-.324219.011719-.039062.015625-.074218.023437-.113281l.15625.125c.03125-.386719-.046874-.722656-.246093-1.046875l.203125.011719c-.09375-.210938-.226563-.371094-.414063-.480469-.238281-.140625-.507812-.140625-.773437-.160156-.039063-.003906-.082032 0-.132813 0 .199219.332031.285157.894531.164063 1.082031l-.070313-.113281c-.148437.246094-.292969.5-.460937.742187-.167969.238281-.375.445313-.664063.578125l.035157-.171875c-.042969.011719-.066407.019531-.09375.023438-.074219.011719-.148438.035156-.214844.027343-.128906-.019531-.253906-.058593-.382813-.09375-.085937-.023437-.171875-.050781-.257812-.078124l-.015625-.019532c-.101563-.070312-.085938-.152344-.035156-.246094.03125-.0625.058593-.132812.082031-.199218.0625-.15625.121093-.308594.179687-.464844.058594-.066406.125-.125.175782-.199219.054687-.082031.097656-.171875.136718-.261719.03125-.066406.070313-.109374.136719-.136718.042969-.019532.078125-.050782.097656-.09375.035157-.070313.054688-.144532.078125-.21875.019532-.0625-.003906-.105469-.0625-.125l-.074218-.023438c.003906-.023437.007812-.050781.019531-.074218.183593-.394532.363281-.789063.554687-1.179688.195313-.398438.40625-.789062.617188-1.179688.042968-.082031.105468-.15625.15625-.234374.09375.007812.1875.015624.28125.019531.417968.007812.796875-.097657 1.105468-.394531.324219-.3125.546876-.6875.695313-1.109376l.03125-.078124-.058594.035156c-.414062.285156-.859375.441406-1.363281.359375.003906-.019531.007812-.035157.015625-.050781.179687-.238282.355469-.480469.535156-.71875.066407-.085938.132813-.164063.207031-.253907-.042968-.015625-.078124-.03125-.109374-.042969-.167969-.050781-.335938-.105468-.507813-.15625-.074219-.019531-.085937-.054687-.058594-.121093.074219-.152344.144531-.308594.214844-.460938l.078125-.140625c-.417969-.082031-.8125-.089844-1.234375-.035156v-.25c-.28125.023438-.339844.039062-.496094.074219-.152343.03125-.304687.085937-.457031.128906l-.023438-.011719.355469-.617187c-.183593.023437-.355469.035156-.523437.0625-.335938.0625-.71875.128906-1.054688.199219-.15625.035156-.316406.074218-.472656.117187v-.265625c-.140625.039062-.390625.148438-.632812.238281.050781-.148437.117187-.269531.15625-.394531.007812-.027344.011718-.058594.015624-.085938-.015624-.007812-.023437-.015624-.035156-.015624-.101562.015624-.203125.03125-.304687.050781-.53125.101562-1.035157.277343-1.511719.539062-.054688.03125-.105469.058594-.183594.101563l-.035156-.570313c-.285156.101563-.5625.234375-.757812.488281l-.113282-.4375v-.035156l-.007812-.015625-.007813.007813c-.023437.03125-.050781.058594-.074219.085937-.226562.320313-.34375.671875-.363281 1.0625l-.183593-.398437-.253907 1.207031-.433593-.546875c-.148438.398438-.246094.8125-.289063 1.230469l-.304687-.339844c-.199219.617187-.371094 1.226563-.4375 1.867187-.152344-.09375-.242188-.214843-.308594-.363281-.089844-.214843-.113282-.4375-.105469-.667969.003906-.035156-.003906-.070312-.003906-.105468h-.027344c-.296875 1.046875-.375 2.117187-.335937 3.207031l-.371094-.710937-.027344.003906c-.023438.273437-.054688.546875-.074219.820312-.007812.171875.019531.140625-.144531.179688-.507812.128906-.992188.3125-1.417969.632812-.027343.019532-.058593.03125-.089843.046875l.03125.03125.433593.160157c-.1875.207031-.371093.40625-.546875.609374-.175781.210938-.308594.445313-.410156.710938.097656-.039062.175781-.078125.257812-.105469.078126-.027343.15625-.050781.234376-.074219-.152344.160157-.269532.335938-.367188.519532-.339844.664062-.460938 1.382812-.5 2.117187-.027344.472657-.015625.949219.066406 1.417969.011719.082031.03125.160156.046875.242188l.035157.003906.210937-.5c.09375.539062.113281 1.074218.109375 1.609375l.023438.015625.191406-.234375c.023437.054687.039062.078125.046875.101562.101562.363281.125.734375.101562 1.105469-.015625.195312-.011719.382812.03125.574219.109375.460937.335938.859375.652344 1.207031.0625.070312.152344.117188.230469.171875.035156.027344.058594.019531.054687-.03125l-.007812-.003906.007812.003906.148438.046875.238281.085938.011719-.023438-.152344-.320312-.015625-.019532.007812-.003906.007813.023438c.011719.003906.023437.003906.03125.011718.152344.144532.339844.222656.527344.304688.050781.121094.136719.21875.234375.304687l.167968-.117187c.023438.027344.042969.050781.058594.074218.136719.195313.328125.289063.570313.28125.152343-.007812.300781-.011718.453125-.015624.523437-.011719 1.046875-.019532 1.570312-.035157.359375-.011719.722656-.023437 1.085938-.039062.167968-.007813.335937-.023438.519531-.035157-.269531-.714843-.835937-1.09375-1.460937-1.359374l.535156-.148438c.777344.433594 1.632812.714844 2.335937 1.285156l.03125-.015625-.0625-.632812c.042969.027343.089844.058593.132813.089843.171875.128907.34375.257813.515625.382813l.03125.015625.011719.023438c.257812.21875.53125.390624.894531.382812.5-.011719.996093 0 1.496093-.003906.039063 0 .09375-.027344.113282-.058594.113281-.179688.222656-.363281.324218-.550781.246094-.472657.492188-.949219.738282-1.421875l.070312-.132813c-.113281.03125-.207031.082031-.300781.128907-.105469.054687-.207031.105468-.3125.160156l-.007813.007812.007813-.011718c.011719-.03125.015625-.066407.03125-.097657.226563-.371093.445313-.746093.679687-1.109375.238282-.359375.511719-.695312.65625-1.109375.066407-.1875.121094-.382812.179688-.574219l-.003906-.003906-.019532.003906c-.105468.074219-.203124.15625-.316406.21875-.132812.074219-.277344.136719-.417968.203126l-.003907.003906h-.003906l.007813-.003906.023437-.085938.109375-.410156c-.042969-.003906-.0625.003906-.078125.015625-.304687.152343-.601563.316406-.90625.453125-.421875.191406-.820313.421875-1.175781.714844-.125.097656-.238282.203124-.359375.308593l-.027344-.019531c-.121094-.109375-.238281-.214844-.359375-.320312-.074219-.066407-.148438-.132813-.226562-.199219.261718-.335938.46875-.699219.597656-1.101563.078125-.257812.132812-.527344.195312-.792968l.074219-.023438c.203125-.070312.410156-.132812.625-.117188.09375.007813.1875.03125.28125.050782l-.070313-.15625-.007812-.011719.007812.007813c.015626.003906.035157.003906.050782.011718.160156.074219.320312.15625.484375.21875.269531.105469.554687.15625.84375.140625.042969-.003906.070312-.003906.039062-.054687.027344.007812.054688.015625.082031.023437.214844.082031.441407.121094.667969.097657.210938-.023438.378907-.128907.472657-.332032l.070312.03125c.054688-.164062.003906-.316406-.023438-.46875-.007812-.027344-.007812-.066406.007813-.082031.058594-.0625.121094-.113281.1875-.175781l.039063.09375c.089843-.152344.09375-.316406.101562-.5l.089844.105468.03125-.011718c-.027344-.132813-.027344-.277344-.085938-.398438-.082031-.164062-.085937-.296875.023438-.449218.0625-.09375.089844-.210938.148437-.34375.007813.027343.011719.042968.019531.054687.007813.007813.023438.011719.039063.019531-.007813-.242187-.117187-.4375-.242187-.644531" fill="#008cba" fill-rule="evenodd"/></svg>