<svg height="18" viewBox="0 0 18 18" width="18" xmlns="http://www.w3.org/2000/svg"><path d="m2.027344 5.359375.09375 7.691406 6.6875 3.984375.320312-3.707031s3.753906-2.292969 3.480469-2.476563c-.277344-.179687-10.582031-5.492187-10.582031-5.492187zm0 0" fill="#fff"/><path d="m8.507812 9.59375.226563.140625c.078125.050781.171875.074219.265625.074219s.183594-.023438.265625-.074219l.226563-.140625 2.300781 1.425781-3.070313 1.914063c-.148437.089844-.238281.253906-.238281.425781l.007813 3.140625-5.550782-3.449219zm-6.039062-3.75 5.082031 3.15625-5.082031 3.15625zm14.039062 3.144531c0-.179687-.101562-.347656-.261718-.4375-.160156-.089843-.355469-.085937-.511719.011719l-2.984375 1.859375-2.300781-1.425781 5.832031-3.628906c.148438-.09375.238281-.257813.238281-.429688 0-.175781-.089843-.335938-.238281-.429688l-7.015625-4.34375c-.164063-.101562-.371094-.0976558-.53125 0l-7.015625 4.359376c-.148438.089843-.238281.253906-.238281.425781v8.101562c0 .171875.089843.335938.238281.425781l7.015625 4.359376c.003906 0 .007813 0 .007813.003906l.011718.007812c.007813.003906.015625.007813.027344.011719.007812.003906.015625.007813.023438.011719.011718.003906.027343.007812.039062.011718.007812.003907.015625.007813.023438.007813.015624.007813.03125.007813.046874.011719.003907 0 .011719.003906.019532.003906.019531.003906.042968.003906.066406.003906.046875 0 .089844-.007812.136719-.019531.015625-.003906.035156-.011719.050781-.019531.003906 0 .011719 0 .015625-.003906.011719-.003907.027344-.011719.039063-.019532.007812-.003906.015624-.007812.023437-.011718v-.003907l.011719-.007812 7.003906-4.347657c.148438-.089843.238281-.253906.238281-.429687zm0 0" fill="#231f20"/><path d="m9.492188 13.640625.007812 2.859375 6.007812-3.730469-.007812-2.871093z" fill="#fff"/><path d="m2.941406 4.949219 6.058594 3.761719 6.058594-3.773438-6.058594-3.75zm0 0" fill="#f58113"/></svg>