<svg height="18" viewBox="0 0 18 18" width="18" xmlns="http://www.w3.org/2000/svg"><path d="m2.941406 4.949219 6.058594 3.761719 6.058594-3.773438-6.058594-3.75zm6.058594-4.8593752c-.09375 0-.1875.0273442-.265625.0742182l-7.015625 4.355469c-.148438.09375-.238281.257813-.238281.429688v8.101562c0 .171875.089843.335938.238281.429688l7.015625 4.355469.007813.003906c.003906.003906.007812.007812.011718.007812.007813.003906.019532.007813.027344.011719s.015625.007813.023438.011719c.011718.007812.027343.007812.039062.015625.007812 0 .015625.003906.023438.007812.015624.003907.03125.003907.046874.007813.007813 0 .011719.003906.019532.003906.023437.003906.042968.003906.066406.003906.046875 0 .089844-.007812.136719-.019531.015625-.003906.035156-.011719.050781-.015625l.015625-.007812c.011719-.003907.027344-.011719.039063-.019532.007812-.003906.015624-.007812.023437-.011718l.011719-.011719 7.003906-4.34375c.148438-.09375.238281-.257813.238281-.429688l-.011719-4.0625c0-.179687-.101562-.351562-.261718-.4375-.160156-.089843-.355469-.085937-.507813.011719l-2.988281 1.859375-2.300781-1.425781 5.832031-3.632813c.148438-.089843.238281-.25.238281-.425781s-.089843-.335938-.238281-.429688l-7.015625-4.34375c-.078125-.046874-.171875-.0742182-.265625-.0742182m-6.53125 5.7539062 5.082031 3.15625-5.082031 3.15625zm7.023438 3.75 2.304687 1.425781-3.074219 1.914063c-.148437.089844-.238281.253906-.238281.425781l.007813 3.140625-5.550782-3.449219 5.566406-3.457031.226563.140625c.078125.050781.171875.074219.265625.074219s.1875-.023438.265625-.074219zm6.011718.304688.007813 2.871093-6.011719 3.734375-.007812-2.863281zm0 0"/></svg>