<svg height="18" viewBox="0 0 18 18" width="18" xmlns="http://www.w3.org/2000/svg"><path d="m7.878906 0c-.394531.0078125-.777344.0703125-1.144531.21875-.667969.265625-1.253906.707031-1.789063 1.183594-.894531.792968-1.636718 1.75-2.164062 2.808594-.492188.996093-.855469 2.070312-1.105469 3.15625-.402343 1.753906-.191406 3.566406.316407 5.261718.277343.929688.640624 1.863282 1.226562 2.652344.597656.808594 1.367188 1.546875 2.304688 1.976562.582031.269532 1.21875.476563 1.851562.597657.761719.148437 1.511719.191406 2.273438.085937.746093-.101562 1.257812-.320312 1.78125-.628906 1.53125-.902344 3.136718-2.480469 3.589843-5.167969.136719-.824219.203125-1.71875.007813-3.230469-.101563-.800781-.34375-2.160156-.679688-2.921874v-.003907l-.003906-.011719-.003906-.003906-.035156-.058594h-.003907c0-.003906 0-.003906-.003906-.007812l.015625-.023438c.066406-.101562.222656-.089843.480469.070313.207031.121094.484375.148437.777343.167969.484376.035156.445313-.039063.21875-.265625l-.261718-.234375.007812-.003906c.035156.007812.125.011718.25-.105469.222656-.203125.648438-1.15625.726563-1.839844.085937-.691406-.027344-.796875-.769531-.710937-.304688.039062-.671876.128906-.820313.222656 0 0-.21875.109375-.1875.167968.035156.0625.324219.09375.324219.09375.542968.085938.6875.265626.6875.464844 0 .207032-.28125.722656-.414063.722656-.007812 0-.027343-.007812-.050781-.023437l-.027344-.015625c-.078125-.050781-.191406-.140625-.300781-.246094-.320313-.3125-.496094-.355468-.808594-.261718-.175781-.046876-.429687-.074219-.636719-.191407-.050781-.027343-.015624-.070312-.117187-.195312-.179687-.226563-.316406-.207031-.507813-.160157-.390624.070313-.320312-.015624-.0625-.15625l.042969-.023437.011719-.003906.003906-.003907c.113282-.066406.058594-.113281-.199218-.445312-.007813-.015625-.015626-.027344-.023438-.035156 0-.003906 0-.007813-.007812-.011719l-.011719-.011719s-.003907 0-.003907-.003906c-.019531-.019531-.027343-.03125-.042968-.054688l-.398438-.539062.472656.234375c.484376.25.902344.316406.996094.164063.039063-.046876-.09375-.171876-.292968-.265626-.191407-.097656-.417969-.316406-.503907-.476562-.09375-.171875-.21875-.371094-.273437-.445312-.144532-.164063-.640625-.25-.90625-.148438-.046875.015625-.085938.039062-.125.066406-.484375-.503906-1.105469-.863281-1.757813-1.097656-.503906-.175781-1.007812-.234375-1.527343-.2695312-.128907-.0117188-.261719-.0117188-.394532-.0117188zm.003906.144531c.125 0 .253907 0 .382813.011719.515625.03125 1 .089844 1.484375.261719.632812.226562 1.226562.574219 1.691406 1.046875-.148437.136718-.273437.324218-.417968.515625-.1875.242187-.289063.421875-.375.570312-.175782-.042969-.480469.085938-.605469.203125-.007813.007813-.015625.011719-.023438.019532l-.261719.136718c-.085937.003906-.195312-.015625-.378906-.0625-.410156-.113281-.457031-.105468-.675781.09375-.121094.125-.464844.550782-.757813.949219-.285156.410156-.550781.742187-.582031.75-.027343 0-.226562.019531-.433593.039063-.210938.019531-.496094.074218-.636719.132812-.230469.085938-.25.125-.179688.371094.042969.136718.234375.539062.441407.902344l.003906.011718h.003906c.007812.015625.015625.03125.023438.046875l.390624.683594-.238281.566406c-.082031.195313-.140625.371094-.171875.492188l-.046875.121093.023438.003907c0 .015625 0 .027343.003906.03125.03125.046875.304687.113281.617187.152343l.542969.0625.074219.074219.390625.582031c.125.191407.214844.320313.289063.414063l.136718.207031.050782-.027344c.054687.027344.097656.015626.152343-.011718.046875-.023438.285157-.191406.597657-.34375.308593-.160156.734374-.394532.945312-.535156l.28125-.148438c.09375-.039062.179688-.0625.261719-.074219l.304687.085938c.027344.042969.035156.101562.011719.179687-.085937.265625-.078125.433594-.042969.605469.066406.066406.148438.101563.269532.183594.417968.257812.578124.273437.589843 0v-.210938l.105469.21875c.152344.3125.398438.226563.433594-.160156.03125-.230469-.027344-.382813-.179688-.542969-.113281-.121094-.171875-.285156-.125-.285156.09375 0 .421875.4375.421875.550781 0 .039063.054688.078125.132813.078125s.140625-.0625.1875-.160156l.042968-.027344.019532-.300781c.015625-.0625.128906-.109375.277344-.15625l.195312-.035156.070312-.054688c.058594-.019531.070313-.046875.109376-.082031l.085937-.011719c.039063.011719.054687.015625.125.007813.078125-.003906.132813-.019532.171875-.042969l.09375-.011719.035156-.160156c.144532-.304688.15625-.664062.019532-.988281-.070313-.175781-.128907-.515625-.132813-.703125l.015625.019531.035156-.136719c.023438-.09375.039063-.15625.058594-.199218.320312.730468.5625 2.085937.664062 2.875.195313 1.503906.132813 2.375-.007812 3.191406-.441406 2.640625-2.015625 4.179687-3.519531 5.066406-.515625.304688-1 .511719-1.726563.613281-.746094.101563-1.476562.058594-2.226562-.085937-.621094-.121094-1.246094-.324219-1.820313-.585938-.90625-.417968-1.660156-1.140625-2.25-1.933594-.566406-.765624-.929687-1.683593-1.203125-2.609374-.5-1.679688-.710937-3.464844-.3125-5.183594.25-1.078125.605469-2.144532 1.097656-3.128906.515626-1.039063 1.242188-1.980469 2.125-2.761719.53125-.472657 1.105469-.902344 1.746094-1.160157.351563-.140624.71875-.199218 1.097656-.207031zm4.132813 1.253907c.105469-.003907.210937.019531.328125.0625.082031.035156.234375.226562.332031.425781.101563.199219.285157.429687.398438.503906.117187.082031.417969.203125.398437.21875-.035156.035156-.582031-.140625-.929687-.332031-.265625-.152344-.542969-.257813-.609375-.226563-.074219.015625-.292969.292969-.503906.617188-.050782.078125-.101563.160156-.144532.246093l-.015625.023438-.027343.042969-.015626.050781c-.066406.136719-.121093.269531-.144531.382812l-.050781.101563.023438.066406c-.007813.171875.054687.292969.1875.339844.042968.011719.160156.003906.316406-.019531h.003906l.027344-.003906c.46875-.070313 1.226562-.246094 1.386718-.273438.160157-.023438.363282.132812.363282.246094 0 .039062-.285156.097656-.628906.125-.40625.039062-.777344.140625-1.054688.304687-.492188.273438-.777344.292969-1.167969.09375-.386719-.199219-.367187-.40625.191407-1.527343.5-1.027344.882812-1.464844 1.335937-1.46875m-.074219.859374c.011719 0 .023438.003907.035156.007813.203126.296875.4375.59375.636719.882813-.011719.027343-.078125.003906-.195312-.027344h-.007813l-.210937-.074219c-.308594-.113281-.542969-.25-.605469-.292969.066406-.148437.234375-.496094.347656-.496094m-1.457031.488282c.003906.007812.007813.015625.003906.023437 0 .019531-.101562.265625-.234375.5625-.21875.464844-.277344.523438-.601562.578125-.1875.027344-.472656.058594-.636719.058594-.042969 0-.085937.007812-.132813.019531h-.003906c-.191406.058594-.425781.246094-.90625.71875-.101562.101563-.207031.203125-.3125.300781l-1.035156.851563-.035156-.074219-.242188-.617187c-.003906-.054688.003906-.097657.027344-.128907l.21875-.109374c.09375-.023438.210938-.035157.363281-.050782.207031-.019531.34375-.035156.457031-.085937l.042969-.003907.023438-.03125c.152343-.09375.277343-.257812.511719-.601562.058593-.085938.121093-.167969.183593-.253906l.464844-.570313c.003906-.007812.011719-.015625.015625-.019531.175781-.199219.273438-.300781.355469-.335938l.207031.027344.007812.003906c.304688.160157.644532.125.894532-.085937.0625-.054687.132812-.101563.207031-.140625zm.996094.164062c.042969.015625.324219.164063.550781.261719l.023438.011719.03125.011718c.035156.015626.074218.03125.105468.042969l.347656.109375-.539062.292969.003906.003906c-.132812.042969-.269531.078125-.375.09375-.195312.03125-.316406.019531-.375-.042969l-.039062-.105468c-.003906-.046875.003906-.101563.023437-.167969l.015625-.035156.070313-.199219c.066406-.160156.117187-.210938.15625-.277344m4.585937.136719h.027344c.21875.019531.316406-.003906.328125.390625.019531.335938-.121094.769531-.308594 1.234375-.292969.738281-.589843 1.027344-.757812.722656-.101563-.171875-.328125-.519531-.710938-.832031-.03125-.023438-.066406-.0625-.148437-.082031-.121094-.027344-.152344.019531-.183594-.003907-.160156-.214843-.15625-.308593.050781-.320312.117188 0 .285157.085938.382813.199219.085937.105469.273437.257812.40625.324219.230468.125.265625.113281.464844-.09375.152343-.164063.238281-.390626.253906-.683594.015625-.285156-.089844-.449219-.574219-.550782-.082031-.015624-.203125-.023437-.289063-.03125-.035156-.007812-.066406-.011718-.101562-.015624 0-.003907 0-.003907.003906-.007813.082032-.082031.855469-.25 1.15625-.25zm-2.625 1.0625h.058594c.246094.003906.277344.082031.3125.277344.066406.359375.277344.445312.21875.085937-.035156-.257812-.035156-.257812.105469-.085937.085937.101562.152343.292969.152343.425781s.027344.34375.058594.457031c.046875.160157 0 .207031-.25.265625l-.3125.066406.054688.46875v.175782l.0625.257812c.03125.164063.070312.324219.109375.449219l.125.511719c.007812.109375.007812.21875-.007813.316406l-.03125.164062c-.023437.074219-.054687.128907-.09375.152344v.003906l-.125.011719c-.097656.003907-.238281-.003906-.386718-.023437-.390626-.058594-.4375-.085938-.4375-.3125v-.429688c0-.1875-.039063-.1875-.378907-.007812-.164062.085937-.285156.21875-.285156.304687 0 .21875.273437.503907.484375.503907.089844 0 .527344.078124.664062.082031l-.066406.050781-.304687.054688c-.058594-.003907-.113281-.007813-.171875-.019532-.152344-.019531-.167969.03125-.160156.304688.011718.128906.007812.210937-.011719.214844l-.035157-.042969c-.039062-.082031-.160156-.238281-.296874-.359375-.011719-.015625-.023438-.027344-.035157-.042969l-.054687-.0625c-.101563-.136719-.167969-.308594-.183594-.464844-.046875-.449219-.238281-.789062-.617188-1.113281-.398437-.332031-.550781-.597656-.476562-.863281.039062-.152344.125-.210938.304688-.210938.324218-.007812.929687-.285156 1.320312-.605469.511719-.445312.34375-.464843-.265625-.039062-.503906.351562-.644531.410156-1.214844.4375l-.636719.046875.3125-.324219c.160157-.167968.304688-.339844.304688-.378906 0-.058594.078125-.128906.203125-.207031l.417969-.203125c.285156-.109375.617187-.203125.90625-.234375.308594-.035157.515625-.058594.664062-.058594zm-3.992187.039063.449219.011718c.078124.019532.121093.050782.144531.101563.007812.015625.027343.035156.042969.050781l.058593.09375.101563.046875c.0625.042969.132812.089844.207031.121094.179687.085937.386719.152343.464844.152343.246093 0-.046875.351563-.445313.53125-.199218.085938-.363281.191407-.363281.230469 0 .035157.191406.105469.425781.140625.382813.046875.429688.085938.382813.246094-.097657.304688.113281.6875.578125 1.085938.371094.300781.417968.378906.304687.484374-.019531.015626-.039062.03125-.0625.042969l-.042969.019531c-.097656.035157-.230468.03125-.445312-.007812l-.425781-.074219.027343-.496093c.027344-.539063-.113281-.671876-.210937-.199219-.140625.722656-.054687.855469.617187.980469.078126.011718.164063.042968.25.082031l-.003906.003906.488282.433594-.082032.03125-.324218.09375c-.097657.015625-.179688.011719-.203126-.019531-.128906-.109376-.367187-.148438-.59375-.117188h-.003906c-.128906.019531-.25.058594-.34375.117188l-.273437.179687-.382813-.300781c-.53125-.410156-.597656-.515625-.777344-1.085938-.132812-.453125-.273437-.671875-.371093-.578125-.019531.019531.046875.292969.164062.625.179688.5625.433594.90625.976563 1.292969.105468.078125.171875.152344.144531.179688-.070313.058593-1.21875.636718-1.273437.636718-.019532 0-.109376-.113281-.222657-.277344l-.433593-.671874-.078126-.074219c-.035156-.046875-.078124-.089844-.121093-.125l-.050781-.050781-.050782-.007813c-.054687-.023437-.113281-.03125-.183594-.035156-.003906 0-.007812 0-.007812 0l-.78125-.144531.054688-.148438.164062-.390625.238281-.550781-.019531-.03125v-.003906l-.230469-.378907c-.089843-.171875-.125-.324219-.09375-.414062.015625-.027344.027344-.046875.035157-.066407l.035156-.027343c.023437.003906.039062.050781.0625.152343.078125.292969.230468.273438.25-.03125 0-.132812.132812-.359374.273437-.5.152344-.144531.246094-.210937.207031-.144531-.0625.132813.03125.410157.144532.410157.046875 0 .085937-.144532.085937-.316407 0-.214843.105469-.417969.378907-.730469.097656-.109374.167968-.1875.21875-.238281l.050781-.042969v-.003906l.039062-.03125c.054688-.027344.066407.011719.070313.097656 0 .125.058594.21875.125.21875.085937 0 .113281-.085937.085937-.273437l-.03125-.238281zm4.996093.425781c.015626 0 .039063.003906.058594.015625.039063.015625.085938.050781.132813.097656l.300781.332031c.019531.027344.042969.050781.0625.078125.105469.132813.285156.390625.410156.558594 0 0 .078125.101562.171875.191406.0625.058594.128907.117188.195313.171875 0 0-.152344.007813-.480469-.085937-.757813-.214844-.808594-.324219-.75-.550782.046875-.179687.066406-.179687.3125.058594.132813.132813.285156.207032.3125.167969.105469-.09375-.40625-.585937-.558594-.53125-.132812.046875-.253906-.308594-.21875-.46875.003907-.023437.015625-.035156.035157-.035156.003906-.003907.011718-.003907.015624 0m-1.191406.4375c-.105468 0-.078125.066406.105469.257812.140625.140625.292969.226563.320313.1875.097656-.09375-.246094-.445312-.425782-.445312m0 .398437c-.019531 0-.035156 0-.054687.003906-.148438.015626-.320313.085938-.457031.214844-.210938.199219-.238282.285156-.164063.429688.058594.101562.171875.1875.246094.1875.199219 0 .734375-.539063.6875-.691406-.035157-.097657-.132813-.144532-.257813-.144532m.019532.085938c.042968 0 .066406.03125.066406.085937 0 .046875-.066406.09375-.144532.09375-.074218 0-.179687.085938-.234374.191407-.058594.105468-.152344.160156-.210938.132812-.066406-.046875-.019531-.152344.152344-.292969.171875-.144531.300781-.214843.371094-.210937m.851562.183594c.046875.007812.0625.03125.039062.0625-.011718.007812-.023437.011718-.035156.011718l-.046875-.046875.042969-.007812zm-.503906 1.636718c-.164063-.003906-.375.039063-.417969.082032-.039063.039062-.054687.101562-.0625.152343-.003906.046875.011719.113281.035156.152344.097657.175781.378907.117187.601563-.136719.132812-.140625.132812-.179687.019531-.226562-.035156-.015625-.085937-.023438-.140625-.023438zm-.050782.140625c.011719 0 .019532 0 .027344.003907.035156 0 .054688.011718.054688.039062 0 .050781-.300782.230469-.339844.121094-.039062-.117188.042969-.144532.148438-.152344.039062-.003906.078124-.007812.109374-.011719m-.800781.023438c.046875 0 .09375.105469.09375.238281 0 .246094-.132812.3125-.238281.144531-.082031-.136719.011719-.382812.144531-.382812m-.847656.085937.09375.296875.027344.058594c-.023438 0-.058594-.015625-.117188-.058594-.109375-.078125-.179687-.136719-.183593-.191406l.019531-.035156zm.132813.890625c-.003907.097657.0625.234375.15625.328125.328124.316406.222656.679688.15625.699219-.132813.042969-.148438-.226563-.222657-.3125-.085937-.09375-.164062-.171875-.25-.238281-.039062.199218.023438.425781-.09375.546875-.148437-.082031-.234375-.085938-.480469-.300781-.007812-.1875-.03125-.371094.121094-.621094.050782.015625.109375.027344.613282-.101563zm-6.214844 2.53125c-.324219 0-.613282.054688-.871094.160157-.257812.109374-.476562.257812-.652344.449218-.179687.191406-.316406.417969-.410156.675782-.09375.257812-.140625.539062-.140625.84375 0 .414062.128906.734374.382813.957031.257812.226562.613281.339843 1.066406.339843.125 0 .242187-.011718.351562-.03125.105469-.019531.210938-.042968.316406-.074218.097657-.027344.195313-.058594.292969-.097656l.265625-.105469.328125-1.417969h-1.324219l-.082031.371094h.878907l-.1875.84375c-.117188.042968-.242188.078125-.367188.105468-.136719.027344-.28125.042969-.421875.039063-.339844 0-.59375-.085937-.769531-.257813-.171875-.171874-.257813-.417968-.257813-.734374 0-.214844.03125-.425782.09375-.632813s.152344-.390625.277344-.546875.28125-.289062.460937-.382812c.183594-.09375.398438-.144532.640626-.144532.222656 0 .429687.035156.625.105469.191406.066406.371093.179687.535156.332031h.039062l.097656-.5c-.199218-.105468-.394531-.183594-.589843-.226562-.1875-.046875-.382813-.070313-.578125-.070313m3.4375 0c-.304688 0-.582032.054688-.832032.167969-.246093.113281-.457031.265625-.628906.460938-.167968.199218-.300781.429687-.390625.691406-.09375.265625-.140625.546875-.140625.851562 0 .398438.121094.707032.359375.921875.238281.21875.566407.324219.984375.324219.226563 0 .441406-.03125.640625-.09375.203125-.0625.382813-.132812.539063-.210938l.101562-.507812h-.03125c-.0625.046875-.128906.09375-.195312.136719-.085938.054687-.171875.101562-.261719.144531-.109375.050781-.226563.09375-.34375.121094-.128906.03125-.265625.050781-.398437.046875-.300782 0-.527344-.082031-.6875-.253907-.15625-.167968-.234376-.40625-.234376-.710937-.003906-.230469.03125-.464844.105469-.6875.070313-.214844.167969-.398437.292969-.550781.121094-.152344.273438-.273438.449219-.363282.171875-.085937.363281-.128906.570312-.128906.136719 0 .257813.015625.371094.042969.113281.03125.210937.066406.289063.109375.101562.050781.175781.097656.226562.136719.050781.042969.097656.089843.144531.136719h.035157l.097656-.496094c-.175782-.101563-.351563-.171875-.523438-.21875-.175781-.050782-.355468-.074219-.539062-.070313m3.175781 0c-.308594 0-.585937.054688-.832031.167969-.25.113281-.457032.269531-.628906.460938-.171876.199218-.300782.429687-.394532.691406-.089844.265625-.136718.546875-.136718.851562 0 .398438.117187.707032.355468.921875.238282.21875.566406.324219.984375.324219.226563 0 .441407-.03125.644531-.09375.203126-.0625.378907-.132812.535157-.210938l.105469-.507812h-.03125c-.0625.046875-.128907.09375-.199219.136719-.082031.054687-.167969.101562-.257813.144531-.109375.050781-.226562.09375-.34375.121094-.132812.03125-.265625.050781-.402344.046875-.296874 0-.527343-.082031-.683593-.253907-.15625-.167968-.238281-.40625-.238281-.710937 0-.242187.035156-.472656.105468-.6875.074219-.214844.171875-.398437.292969-.550781.125-.152344.277344-.273438.453125-.363282.171875-.085937.359375-.128906.566406-.128906.136719 0 .261719.015625.375.042969.113282.03125.207032.066406.289063.109375.097656.050781.171875.097656.222656.136719.050781.042969.101563.089843.148437.136719h.03125l.101563-.496094c-.179687-.101563-.351563-.171875-.523437-.21875-.175782-.050782-.359376-.074219-.542969-.070313zm0 0"/></svg>