<svg height="18" viewBox="0 0 18 18" width="18" xmlns="http://www.w3.org/2000/svg"><path d="m7.585938 0c-1.445313-.0195312-3.0625.570312-4.363282 1.601562-1.375 1.089844-2.335937 2.558594-2.464844 3.796876-.042968.410156.042969.832031.253907 1.257812.140625.285156.285156.480469.535156.734375.464844.460937.957031.777344 2.347656 1.492187.253907.128907.421875.214844.527344.273438.050781.027344.082031.042969.105469.058594l-.023438.019531c-.035156.03125-.085937.074219-.140625.121094-1.097656.929687-2.070312 1.832031-2.574219 2.394531-.730468.808594-1.238281 1.664062-1.359374 2.300781-.015626.082031-.023438.269531-.023438.46875s.003906.40625.015625.527344c.042969.382813.128906.683594.296875 1.007813.199219.394531.394531.660156.695312.953124.621094.601563 1.332032.910157 2.261719.988282.167969.011718.757813-.007813.945313-.03125 1.066406-.140625 2.34375-.585938 3.769531-1.304688 2.835937-1.433594 6.171875-3.945312 8.109375-6.109375.378906-.421875.746094-.914062.863281-1.15625.15625-.332031.230469-.734375.230469-1.253906 0-.46875-.058594-.816406-.203125-1.144531-.320313-.753906-1.125-1.742188-2.171875-2.746094s-2.335938-2.023438-3.628906-2.828125c-.628906-.390625-1.480469-.835937-1.941406-1.015625-.5625-.222656-1.121094-.3476562-1.777344-.3945312-.097656-.0039063-.191406-.0117188-.285156-.0117188zm-.0625.109375h.007812c.226562.003906.453125.011719.605469.03125.734375.089844 1.328125.273437 2.011719.628906 1.6875.875 3.917968 2.558594 5.390624 4.066407 1.023438 1.046874 1.617188 1.941406 1.675782 2.5.0625.566406-.34375 1.363281-1.230469 2.375-.230469.265624-1.015625 1.042968-1.347656 1.335937-2.402344 2.128906-5.496094 4.039063-8.03125 4.953125-.84375.304688-1.714844.507812-2.601563.609375-.257812.03125-.859375.042969-1.039062.023437-.351563-.039062-.601563-.105468-.863282-.234374-.335937-.167969-.59375-.398438-.8125-.722657-.238281-.359375-.40625-.765625-.484374-1.1875-.042969-.210937-.039063-.585937.003906-.808593.105468-.523438.375-1.03125.871094-1.625.546874-.664063 1.742187-1.777344 3.589843-3.34375l.261719-.222657-.109375-.054687c-.039063-.019532-.207031-.089844-.382813-.167969-1.625-.691406-2.699218-1.324219-3.339843-1.960937-.285157-.285157-.464844-.558594-.550781-.828126v-.003906c-.09375-.304687-.035157-.8125.160156-1.308594.351562-.882812 1.15625-1.871093 2.125-2.597656 1.058594-.800781 2.242187-1.285156 3.476562-1.429687.15625-.015625.386719-.027344.613282-.027344zm-.207032.339844c-.191406.003906-.394531.019531-.613281.046875-1.109375.136718-1.648437.332031-2.449219.886718-.296875.203126-1.003906.738282-1.167968.882813-.667969.574219-1.210938 1.335937-1.445313 2.011719-.144531.425781-.167969.726562-.074219 1.003906.042969.136719.113282.257812.234375.378906.121094.125.289063.257813.539063.429688.597656.40625 1.285156.769531 2.898437 1.519531.421875.195313.648438.304687.777344.375.0625.035156.101563.0625.121094.082031.019531.015625.03125.03125.039062.054688.019531.046875.015625.097656-.007812.164062-.023438.066406-.070313.144532-.144531.238282-.144532.183593-.332032.351562-1.171876 1.074218-1.191406 1.015625-1.628906 1.414063-2.097656 1.894532-.816406.835937-1.246094 1.476562-1.34375 2.039062-.082031.460938.035156 1.039062.296875 1.441406.316407.496094.792969.761719 1.476563.832032.902344.089843 2.246094-.160157 3.421875-.636719 2.113281-.855469 5.066406-2.777344 7.234375-4.710938.523437-.46875 1.03125-.957031 1.519531-1.460937.445313-.464844.789063-.855469.90625-1.050782.035156-.0625.0625-.15625.082031-.265624.015625-.109376.027344-.226563.019532-.332032-.011719-.277344-.082032-.484375-.257813-.792968-.292969-.507813-.710937-1.023438-1.457031-1.804688-.976563-1.011719-2.054688-1.933594-3.078125-2.617188-.855469-.574218-1.976563-1.171874-2.648438-1.417968-.554687-.199219-1.035156-.285156-1.609375-.265625m2.265625.007812c.015625.003907.027344.007813.042969.011719.019531.007812.0625.03125.082031.039062-.039062-.015624-.082031-.035156-.125-.050781m-2.265625.058594c.566406-.015625 1.035156.066406 1.585938.265625.660156.238281 1.78125.839844 2.632812 1.410156 1.015625.679688 2.09375 1.597656 3.066406 2.605469.746094.78125 1.160157 1.289063 1.449219 1.792969.171875.300781.234375.496094.246094.757812.003906.109375 0 .214844-.019531.320313-.019532.101562-.046875.195312-.074219.242187-.105469.179688-.449219.574219-.894531 1.035156-.488282.503907-.992188.992188-1.515625 1.457032-2.164063 1.929687-5.113281 3.851562-7.214844 4.699218-1.164063.472657-2.503906.71875-3.386719.632813-.667968-.066406-1.121094-.320313-1.425781-.796875-.25-.386719-.367187-.953125-.289063-1.394531.097657-.535157.515626-1.171875 1.328126-2 .46875-.480469.902343-.875 2.089843-1.894531.84375-.722657 1.03125-.894532 1.183594-1.082032.078125-.097656.128906-.179687.15625-.257812s.03125-.148438.007813-.214844c-.011719-.03125-.03125-.058594-.054688-.078125-.03125-.027344-.074219-.054687-.136719-.089844-.132812-.074219-.363281-.183593-.78125-.378906-1.613281-.753906-2.296875-1.109375-2.890625-1.515625-.246094-.171875-.414062-.300781-.527344-.417969-.113281-.117187-.175781-.222656-.21875-.355469-.089843-.257812-.066406-.539062.074219-.957031.226563-.660156.765625-1.414062 1.421875-1.984375.15625-.136718.871094-.675781 1.164063-.875.796875-.550781 1.316406-.738281 2.417969-.875.199218-.027344.402343-.042968.605468-.050781m3.09375.324219c.382813.199218.789063.421875 1.140625.640625 1.292969.804687 2.578125 1.820312 3.621094 2.820312s1.839844 1.988281 2.15625 2.722657c.136719.320312.195313.652343.195313 1.117187 0 .511719-.074219.902344-.222657 1.222656-.109375.226563-.476562.722657-.851562 1.140625-1.929688 2.15625-5.261719 4.667969-8.089844 6.09375-1.421875.714844-2.695313 1.15625-3.746094 1.296875-.175781.023438-.785156.042969-.933593.03125-.917969-.078125-1.605469-.378906-2.214844-.96875-.296875-.285156-.488282-.546875-.683594-.933593-.164062-.320313-.246094-.605469-.289062-.984376-.011719-.113281-.015626-.324218-.015626-.519531 0-.199219.011719-.386719.023438-.457031.066406-.339844.257812-.757812.535156-1.199219-.144531.269531-.242187.535157-.292968.800781-.046876.238282-.050782.613282-.007813.835938.082031.433594.25.847656.496094 1.214844.222656.335937.492187.574218.839843.746094.269532.132812.53125.203124.890626.242187.195312.023437.78125.007813 1.050781-.023437.890625-.101563 1.769531-.308594 2.617187-.613282 2.546875-.917968 5.648438-2.832031 8.054688-4.964844.335937-.296874 1.113281-1.070312 1.355468-1.347656.890626-1.015625 1.3125-1.820312 1.246094-2.425781-.0625-.597656-.667968-1.488281-1.695312-2.542969-1.417969-1.449218-3.515625-3.035156-5.179688-3.945312m-2.203125 2.300781c-.144531-.003906-.289062.003906-.394531.027344-.34375.078125-.621094.265625-.816406.550781-.191406.285156-.308594.664062-.335938 1.132812-.023437.371094.121094.6875.457032 1.015626.503906.496093 1.382812.875 2.109374.910156.015626.003906.039063 0 .070313-.003906.03125 0 .070313-.003907.105469-.011719.234375-.03125.6875-.234375 1-.4375.183594-.121094.433594-.363281.519531-.511719.039063-.070312.070313-.140625.097656-.214844.0625-.171875.066407-.441406.007813-.628906-.246094-.796875-1.269532-1.550781-2.390625-1.785156-.140625-.027344-.285157-.042969-.429688-.042969m0 .070313c.140625 0 .28125.015624.417969.042968 1.097656.226563 2.101562.980469 2.335938 1.734375.050781.171875.046874.433594-.007813.585938-.023437.070312-.054687.136719-.089844.203125-.074219.125-.328125.378906-.5.488281-.300781.199219-.765625.398437-.972656.425781-.03125.007813-.070313.011719-.097656.015625-.03125 0-.058594 0-.0625 0-.703125-.035156-1.574219-.410156-2.0625-.886719-.332031-.324218-.460938-.613281-.4375-.964843.027343-.457031.140625-.828125.324219-1.097657.1875-.273437.445312-.449218.773437-.519531.097656-.023437.234375-.03125.378906-.027343zm-6.832031.667968c-.042969.085938-.097656.175782-.128906.257813-.203125.507812-.269532 1.023437-.164063 1.359375.089844.285156.277344.566406.570313.859375.648437.644531 1.730468 1.28125 3.359375 1.976562.128906.054688.253906.109375.378906.164063l.015625.007812-.183594.15625c-.246094.207032-.382812.339844-.605468.535156-.003907-.007812-.007813-.011718-.011719-.015624-.003907 0-.003907-.003907-.007813-.007813-.011718-.003906-.019531-.011719-.027344-.015625-.039062-.023438-.078124-.042969-.117187-.0625-.105469-.058594-.273437-.144531-.527344-.277344-1.386719-.710937-1.871093-1.019531-2.328125-1.476562-.246094-.246094-.382812-.433594-.523437-.714844-.207031-.417969-.289063-.824219-.246094-1.21875.050781-.480469.261719-1.003906.546875-1.527344zm6.988281.296875c-.21875.003907-.394531.058594-.496093.179688-.0625.078125-.167969.289062-.207032.40625v.003906c-.097656.296875-.058594.574219.125.816406.046875.0625.109375.132813.148438.164063l.089844.066406.070312-.058594c.027344-.023437.058594-.039062.109375-.050781s.117187-.015625.210937-.015625c.171876 0 .3125.019531.472657.058594.183593.046875.34375.101562.464843.160156.121094.058594.203126.125.230469.175781.015625.027344.023438.042969.046875.054688.011719.007812.027344.007812.039063.007812.011719-.003906.019531-.007812.027343-.011719.011719-.007812.019532-.015624.03125-.023437.015626-.011719.027344-.023437.042969-.035156.035157-.035157.074219-.070313.109375-.105469.15625-.15625.25-.316406.28125-.488281.035156-.191407-.035156-.390625-.183594-.574219-.144531-.1875-.367187-.355469-.648437-.488281-.34375-.164063-.6875-.246094-.964844-.242188m0 .070313c.261719-.003906.601563.074218.9375.234375.269531.128906.484375.292969.621094.46875.140625.171875.199219.351562.167969.515625-.027344.15625-.113282.304687-.261719.453125-.035156.035156-.070313.070312-.105469.101562-.015625.011719-.027344.023438-.039062.035157-.011719.007812-.019532.015624-.019532.015624-.003906 0-.003906 0-.003906 0s-.003906-.003906-.015625-.023437c-.042969-.074219-.136719-.140625-.265625-.203125-.125-.0625-.289062-.121094-.472656-.164062-.160156-.042969-.328125-.0625-.492188-.0625-.097656 0-.167968.003906-.226562.015624-.058594.015626-.101562.035157-.140625.066407l-.027344.023437-.039062-.03125c-.03125-.023437-.097657-.09375-.140625-.152344-.167969-.222656-.207032-.472656-.113282-.753906.035157-.105468.152344-.328125.195313-.386718.082031-.09375.238281-.148438.441406-.152344zm-6.960937 8.082031c-.125.171875-.261719.34375-.351563.507813.113281-.175782.230469-.34375.351563-.507813" fill="#9991d9"/></svg>