<svg height="18" viewBox="0 0 18 18" width="18" xmlns="http://www.w3.org/2000/svg"><g fill="none" stroke="#fff" stroke-linecap="round" stroke-linejoin="round" stroke-width="2" transform="scale(.75)"><path d="m4 8h16c.552083 0 1 .447917 1 1v2c0 .552083-.447917 1-1 1h-16c-.552083 0-1-.447917-1-1v-2c0-.552083.447917-1 1-1zm0 0"/><path d="m12 8v13m7-9v7c0 1.104167-.895833 2-2 2h-10c-1.104167 0-2-.895833-2-2v-7m2.5-4c-1.380208 0-2.5-1.119792-2.5-2.5s1.119792-2.5 2.5-2.5c1.973958-.036458 3.760417 1.947917 4.5 5 .739583-3.052083 2.526042-5.036458 4.5-5 1.380208 0 2.5 1.119792 2.5 2.5s-1.119792 2.5-2.5 2.5"/></g></svg>