<svg height="18" viewBox="0 0 18 18" width="18" xmlns="http://www.w3.org/2000/svg" xmlns:xlink="http://www.w3.org/1999/xlink"><filter id="a" height="100%" width="100%" x="0%" y="0%"><feColorMatrix color-interpolation-filters="sRGB" values="0 0 0 0 1 0 0 0 0 1 0 0 0 0 1 0 0 0 1 0"/></filter><linearGradient id="b"><stop offset="0"/><stop offset="1" stop-opacity="0"/></linearGradient><radialGradient id="c" cx="359.596008" cy="-303.644012" gradientTransform="matrix(.159088 0 0 -.069203 -48.45614 -9.474188)" gradientUnits="userSpaceOnUse" r="45.158001" xlink:href="#b"/><radialGradient id="d" cx="202.968002" cy="-16.74" gradientTransform="matrix(.282064 0 0 -.206336 -51.075564 4.288781)" gradientUnits="userSpaceOnUse" r="47.581001"><stop offset="0" stop-color="#857c63"/><stop offset="1" stop-color="#221f19"/></radialGradient><linearGradient id="e"><stop offset="0" stop-color="#fff"/><stop offset="1" stop-color="#b9b9b0"/></linearGradient><radialGradient id="f" cx="260.967987" cy="17.459999" gradientTransform="matrix(.268062 0 0 -.268062 -64.925577 10.939219)" gradientUnits="userSpaceOnUse" r="8.698" xlink:href="#e"/><radialGradient id="g" cx="209.673996" cy="-170.214005" gradientTransform="matrix(.126793 -.0731812 -.0854297 -.14811 -39.745827 -1.697203)" gradientUnits="userSpaceOnUse" r="11.954"><stop offset="0" stop-color="#5b676b"/><stop offset="1" stop-color="#141718"/></radialGradient><radialGradient id="h" cx="238.858002" cy="30.974001" gradientTransform="matrix(.314677 0 0 -.314677 -66.828092 15.983438)" gradientUnits="userSpaceOnUse" r="8.698" xlink:href="#e"/><radialGradient id="i" cx="1284.155029" cy="-757.828979" gradientTransform="matrix(.0404128 .00028969 -.00029531 -.0412523 -36.244686 -17.679375)" gradientUnits="userSpaceOnUse" r="18.754"><stop offset="0" stop-color="#696969"/><stop offset="1"/></radialGradient><linearGradient id="j" gradientTransform="matrix(.159088 0 0 -.159088 -49.086562 -.644906)" gradientUnits="userSpaceOnUse" x1="377.398987" x2="349.841003" xlink:href="#b" y1="-70.445" y2="-75.913002"/><linearGradient id="k"><stop offset="0" stop-color="#fff"/><stop offset="1" stop-color="#fff" stop-opacity="0"/></linearGradient><linearGradient id="l" gradientTransform="matrix(.159088 0 0 -.159088 -48.475967 -.700172)" gradientUnits="userSpaceOnUse" x1="349.459015" x2="407.970001" xlink:href="#k" y1="-38.103001" y2="-104.522003"/><linearGradient id="m" gradientTransform="matrix(.127052 -.0957405 -.0957405 -.127052 -38.832733 -3.575286)" gradientUnits="userSpaceOnUse" x1="157.619003" x2="156.867996" xlink:href="#k" y1="-207.563995" y2="-226.783997"/><linearGradient id="n" gradientTransform="matrix(.0263011 0 0 -.0263011 -37.903922 -16.644375)" gradientUnits="userSpaceOnUse" x1="1915.160034" x2="1892.237061" y1="-1061.495972" y2="-1081.432983"><stop offset="0" stop-color="#6e3d09"/><stop offset=".242" stop-color="#ea8113"/><stop offset=".621" stop-color="#5c3307"/><stop offset="1" stop-color="#e07c12"/></linearGradient><linearGradient id="o" gradientTransform="matrix(.0263011 0 0 -.0263011 -38.185314 -16.756876)" gradientUnits="userSpaceOnUse" x1="2014.527954" x2="2023.718994" y1="-1149.437988" y2="-1140.932007"><stop offset="0" stop-color="#bdbdbd"/><stop offset=".333" stop-color="#e2e2e2"/><stop offset=".667" stop-color="#a3a3a3"/><stop offset="1" stop-color="#ddd"/></linearGradient><linearGradient id="p" gradientTransform="matrix(.0198585 .0103972 .0103972 -.0198585 -38.110537 -15.134343)" gradientUnits="userSpaceOnUse" x1="2769.363037" x2="2755.793945" xlink:href="#k" y1="1.109" y2="12.318"/><linearGradient id="q" gradientTransform="matrix(.159088 0 0 -.159088 -48.475967 -.700172)" gradientUnits="userSpaceOnUse" x1="367.057007" x2="362.519012" xlink:href="#b" y1="-72.711998" y2="-73.805"/><mask id="r"><g filter="url(#a)"><path d="m-1.8-1.8h21.6v21.6h-21.6z" fill-opacity=".185"/></g></mask><mask id="s"><g filter="url(#a)"><path d="m-1.8-1.8h21.6v21.6h-21.6z" fill-opacity=".281"/></g></mask><mask id="t"><g filter="url(#a)"><path d="m-1.8-1.8h21.6v21.6h-21.6z" fill-opacity=".528"/></g></mask><mask id="u"><g filter="url(#a)"><path d="m-1.8-1.8h21.6v21.6h-21.6z" fill-opacity=".428"/></g></mask><clipPath id="v"><path d="m0 0h18v18h-18z"/></clipPath><clipPath id="w"><path d="m0 0h18v18h-18z"/></clipPath><clipPath id="x"><path d="m0 0h18v18h-18z"/></clipPath><clipPath id="y"><path d="m0 0h18v18h-18z"/></clipPath><path d="m15.9375 11.535156c0 1.714844-3.210938 3.117188-7.191406 3.117188-3.976563 0-7.1875-1.402344-7.1875-3.117188 0-1.71875 3.210937-3.121094 7.1875-3.121094 3.980468 0 7.191406 1.402344 7.191406 3.121094" fill="url(#c)"/><path d="m3.738281 3.867188s1.128907 2.335937 3.785157 2.273437c5.550781-.144531 6.523437-3.039063 6.664062-3.453125.144531-.414062.351562-.347656.398438.03125 1.8125 16.417969-12.550782 9.371094-13.0625 6.585938 2.847656-.824219 2.164062-2.433594 2.164062-2.433594zm0 0" fill="url(#d)"/><path d="m14.4375 2.328125c-.074219-.011719-.140625.027344-.191406.085937-.050782.058594-.09375.140626-.132813.25-.070312.207032-.339843 1.011719-1.28125 1.789063-.9375.78125-2.546875 1.535156-5.3125 1.609375-2.609375.0625-3.710937-2.230469-3.710937-2.230469l-.144532-.304687-.007812.335937-.046875 3.023438.007813.015625s.15625.371094-.015626.847656c-.175781.480469-.691406 1.070312-2.097656 1.480469l-.070312.019531.011718.070312c.070313.378907.363282.800782.804688 1.234376.445312.433593 1.046875.875 1.746094 1.273437 1.398437.804687 3.195312 1.4375 4.929687 1.464844 1.734375.03125 3.40625-.554688 4.523438-2.179688 1.113281-1.628906 1.671875-4.285156 1.214843-8.402343-.011718-.101563-.035156-.1875-.070312-.253907-.035156-.0625-.085938-.117187-.15625-.128906zm-.027344.15625c.003906 0 .023438.007813.042969.050781.023437.039063.042969.105469.054687.195313.453126 4.09375-.105468 6.710937-1.191406 8.292969-1.082031 1.578124-2.691406 2.140624-4.386718 2.109374-1.695313-.027343-3.472657-.652343-4.855469-1.441406-.6875-.394531-1.28125-.832031-1.710938-1.253906-.410156-.394531-.65625-.777344-.734375-1.085938 1.371094-.417968 1.929688-1.023437 2.121094-1.542968.183594-.507813.035156-.902344.019531-.941406l.042969-2.722657c.328125.546875 1.453125 2.128907 3.710938 2.074219 2.792968-.070312 4.441406-.835938 5.410156-1.640625.972656-.808594 1.257812-1.660156 1.332031-1.863281.03125-.097656.070313-.164063.097656-.199219.03125-.03125.042969-.03125.046875-.03125" fill="#2e3436"/><path d="m5.835938 10.800781c2.65625.527344 4.007812.03125 4.789062-.570312-.207031-.273438-.574219-.574219-.574219-.574219s.925781.253906 1.257813.683594c.320312.414062.128906.683594.03125 1.210937-.191406-.476562-.539063-.652343-.585938-.84375-.703125 1-2.46875.953125-4.917968.09375" fill="url(#j)"/><path d="m6.617188 7.382812c0 .890626-.71875 1.605469-1.609376 1.605469-.425781 0-.835937-.167969-1.136718-.46875-.300782-.300781-.46875-.710937-.46875-1.136719 0-.429687.167968-.835937.46875-1.140624.300781-.300782.710937-.46875 1.136718-.46875.890626 0 1.609376.734374 1.609376 1.609374" fill="url(#f)"/><path d="m5.007812 5.710938c-.441406 0-.867187.175781-1.179687.488281s-.488281.738281-.488281 1.183593c0 .921876.746094 1.667969 1.667968 1.667969.445313 0 .871094-.175781 1.183594-.488281s.488282-.738281.488282-1.179688c0-.910156-.746094-1.671874-1.671876-1.671874m0 .125c.859376 0 1.546876.703124 1.546876 1.546874 0 .410157-.160157.800782-.453126 1.09375-.289062.289063-.683593.449219-1.09375.449219-.410156 0-.800781-.160156-1.09375-.449219-.289062-.292968-.449218-.683593-.449218-1.09375 0-.410156.160156-.804687.449218-1.09375.292969-.292968.683594-.453124 1.09375-.453124" fill="#888a85"/><path d="m3.433594 7.984375c.78125 1.082031.78125 2.386719.015625 2.945313-.761719.554687-2.003907.125-2.785157-.953126-.777343-1.082031-.777343-2.386718-.015624-2.945312.765624-.539062 2.007812-.109375 2.785156.953125" fill="url(#g)"/><path d="m1.289062 6.722656c-.246093.019532-.480468.101563-.683593.242188v.003906h-.003907c-.402343.292969-.60546825.789062-.601562 1.335938.00390625.550781.203125 1.164062.601562 1.714843.398438.554688.914063.941407 1.4375 1.121094.519532.179687 1.050782.148437 1.457032-.148437.40625-.292969.605468-.789063.605468-1.335938-.003906-.542969-.203124-1.140625-.585937-1.6875v-.007812l-.015625-.019532v-.003906c-.398438-.542969-.917969-.925781-1.4375-1.105469-.261719-.089843-.523438-.128906-.773438-.109375zm.015626.160156c.222656-.019531.464843.015626.707031.097657.484375.167969.976562.53125 1.359375 1.050781.378906.53125.566406 1.113281.570312 1.625 0 .511719-.179687.949219-.539062 1.207031-.355469.261719-.828125.292969-1.3125.128907-.484375-.167969-.976563-.535157-1.359375-1.0625-.382813-.53125-.570313-1.113282-.570313-1.625-.003906-.511719.179688-.945313.535156-1.207032.179688-.128906.386719-.199218.609376-.214844"/><path d="m6.171875 7.621094c0 .429687-.351563.761718-.765625.761718-.429688 0-.761719-.347656-.761719-.761718 0-.414063.347657-.765625.761719-.765625s.765625.335937.765625.765625zm0 0" fill="#2e3436"/><path d="m5.40625 6.761719c-.464844 0-.855469.390625-.855469.859375 0 .460937.375.855468.855469.855468.464844 0 .859375-.375.859375-.855468 0-.480469-.394531-.859375-.859375-.859375m0 .1875c.363281 0 .671875.292969.671875.671875 0 .175781-.070313.347656-.195313.472656-.128906.125-.296874.195312-.476562.195312-.175781 0-.347656-.070312-.472656-.195312s-.195313-.296875-.195313-.472656c0-.363282.308594-.671875.667969-.671875"/><path d="m1.9375 8.113281c0 .460938-.316406.828125-.699219.828125-.382812 0-.699219-.367187-.699219-.828125 0-.460937.316407-.828125.699219-.828125.398438 0 .699219.367188.699219.828125m3.691406-.84375c0 .144531-.054687.28125-.15625.382813-.101562.101562-.238281.160156-.382812.160156-.144532 0-.28125-.058594-.386719-.160156-.101563-.101563-.15625-.238282-.15625-.382813s.054687-.28125.15625-.382812c.105469-.101563.242187-.160157.386719-.15625.144531-.003907.28125.054687.382812.15625.101563.101562.160156.238281.15625.382812zm0 0" fill="#fff"/><path d="m10.210938 7.554688c0 1.035156-.84375 1.878906-1.875 1.878906-1.035157 0-1.878907-.84375-1.878907-1.878906 0-1.03125.828125-1.875 1.859375-1.875 1.035156 0 1.894532.84375 1.894532 1.875" fill="url(#h)"/><path d="m8.316406 5.625c-1.0625 0-1.914062.867188-1.914062 1.929688 0 1.066406.867187 1.933593 1.933594 1.933593 1.0625 0 1.929687-.867187 1.929687-1.933593 0-1.0625-.882813-1.929688-1.949219-1.929688zm0 .105469c1.007813 0 1.84375.820312 1.84375 1.824219 0 1.007812-.820312 1.824218-1.824218 1.824218-1.007813 0-1.824219-.816406-1.824219-1.824218 0-1.003907.800781-1.824219 1.804687-1.824219" fill="#888a85"/><path d="m9.671875 7.84375c0 .492188-.398437.90625-.90625.90625-.496094 0-.910156-.398438-.910156-.90625 0-.511719.398437-.90625.910156-.90625.492187 0 .90625.394531.90625.90625zm0 0" fill="#2e3436"/><path d="m8.761719 6.855469c-.546875 0-.984375.4375-.984375.988281s.449218.984375.988281.984375c.550781 0 .984375-.449219.984375-.984375 0-.554688-.449219-.988281-.988281-.988281m0 .160156c.453125 0 .828125.359375.828125.828125 0 .449219-.359375.828125-.824219.828125-.453125 0-.828125-.363281-.828125-.828125 0-.46875.359375-.828125.824219-.828125zm0 0"/><path d="m9.050781 7.414062c0 .347657-.285156.621094-.621093.621094-.335938 0-.621094-.289062-.621094-.621094 0-.351562.285156-.621093.621094-.621093.335937 0 .621093.285156.621093.621093zm0 0" fill="#fff"/><path d="m14.058594 13.167969.363281-.726563c-1.359375-.996094-3.855469-1.714844-3.855469-1.714844-.433594-.203124-.574218.1875-.269531.441407-.003906 0 2.132813 1.535156 3.761719 2" fill="url(#n)"/><path d="m10.074219 10.984375c.027343.082031.082031.164063.160156.230469 0 0 .007813.011718.007813.011718.003906 0 .003906 0 .003906.003907h.003906l.003906.003906.019532.015625c.015624.011719.042968.027344.070312.050781.0625.042969.152344.105469.265625.179688.300781.203125.605469.398437.914063.582031.742187.445312 1.683593.945312 2.511718 1.183594l.0625.015625.03125-.058594.394532-.789063-.054688-.039062c-1.378906-1.011719-3.882812-1.726562-3.882812-1.726562l.015624.003906c-.121093-.054688-.226562-.074219-.316406-.058594s-.164062.070312-.199218.144531c-.039063.074219-.039063.164063-.011719.246094zm.152343-.042969c-.015624-.054687-.015624-.101562 0-.132812.015626-.027344.039063-.050782.085938-.058594s.121094 0 .21875.046875l.007812.003906h.003907s2.429687.707031 3.777343 1.667969l-.300781.601562c-.789062-.234374-1.695312-.714843-2.414062-1.144531-.304688-.183593-.609375-.375-.90625-.574219-.113281-.078124-.222657-.152343-.332031-.230468l-.015626-.011719-.003906-.003906c-.066406-.054688-.101562-.113281-.121094-.164063" fill="#673907"/><path d="m15.800781 13.839844.195313-.433594-1.515625-.96875-.117188-.015625-.046875-.164063c-.222656.136719-.539062.648438-.453125.933594l.164063-.0625.085937.089844zm0 0" fill="url(#o)"/><path d="m13.808594 13.296875.195312-.074219.066406.066406 1.773438.652344.03125-.066406.222656-.5-1.589844-1.015625-.082031-.007813-.0625-.21875-.089843.054688c-.132813.085938-.269532.253906-.371094.445312-.101563.191407-.167969.402344-.117188.582032zm.132812-.21875c.003906-.105469.03125-.238281.101563-.371094.0625-.113281.140625-.214843.230469-.304687l.03125.09375.152343.015625 1.4375.925781-.136719.304688-1.601562-.589844-.109375-.113282zm0 0" fill="#888a85"/><path d="m14.742188 12.988281c-.015626.039063.003906.085938.042968.105469l1.003906.429688c.039063.019531.085938 0 .105469-.039063.015625-.042969-.003906-.089844-.042969-.105469l-1.003906-.433594c-.039062-.015624-.085937 0-.105468.042969" fill="#fff"/><path d="m18 15.675781c-.472656-1.601562-.640625-2.882812-1.875-2.765625-.996094.089844-1.0625 1.511719-.035156 1.910156.988281.382813 1.910156.855469 1.910156.855469" fill="url(#i)"/><path d="m14.394531 12.457031c.070313-.023437.144531-.015625.210938.019531.066406.035157.113281.097657.132812.167969.023438.070313.015625.144531-.019531.210938-.035156.066406-.097656.113281-.167969.132812-.070312.023438-.148437.015625-.210937-.019531-.066406-.035156-.113282-.097656-.132813-.167969-.023437-.070312-.015625-.148437.019531-.210937.035157-.066406.097657-.113282.167969-.132813" fill="#fff"/><path d="m8.699219 11.453125c.589843.066406 1.128906-.109375 1.335937-.191406.03125-.222657.207032-.632813.8125-.667969l-.207031-.363281s-.777344.523437-1.605469.683593zm0 0" fill="url(#q)"/><g mask="url(#r)"><g clip-path="url(#v)"><path d="m14.285156 3.34375-.148437.242188c-.21875.359374-.546875.78125-1.035157 1.207031-1.019531.84375-2.730468 1.617187-5.566406 1.683593-1.640625.046876-2.683594-.75-3.328125-1.457031l-.132812-.144531-.050781 1.976562.003906.011719c.046875.160157.152344.511719-.03125 1.015625-.195313.523438-.808594 1.105469-1.910156 1.527344l-.078126.03125.035157.078125c.09375.207031.199219.429687.507812.722656.40625.40625.984375.835938 1.65625 1.222657 1.34375.769531 3.089844 1.378906 4.730469 1.410156s3.136719-.507813 4.171875-2.007813c.921875-1.390625 1.445313-3.714843 1.175781-7.242187zm-.152344.523438c.222657 3.363281-.285156 5.59375-1.15625 6.90625-1.003906 1.457031-2.433593 1.96875-4.035156 1.9375-1.605468-.03125-3.328125-.632813-4.65625-1.390626-.664062-.378906-1.230468-.804687-1.621094-1.195312h-.003906c-.257812-.25-.351562-.425781-.4375-.605469 1.074219-.433593 1.710938-1.011719 1.921875-1.585937.195313-.535156.085938-.929688.039063-1.097656l.042968-1.582032c.667969.691406 1.714844 1.425782 3.316407 1.378906 2.859375-.0625 4.613281-.847656 5.664062-1.71875.351563-.308593.664063-.660156.925781-1.046874zm0 0" fill="url(#l)"/></g></g><g mask="url(#s)"><g clip-path="url(#w)"><path d="m1.226562 7.152344c-.175781.015625-.332031.074218-.46875.164062h-.007812l-.019531.015625c-.261719.195313-.414063.542969-.398438 1.007813.015625.445312.179688.984375.558594 1.476562.359375.472656.828125.800782 1.261719.933594.429687.132812.796875.101562 1.074218-.105469.28125-.210937.414063-.574219.414063-1.019531 0-.453125-.179687-.988281-.539063-1.464844-.359374-.472656-.816406-.800781-1.25-.933594-.222656-.066406-.433593-.09375-.625-.074218m.019532.15625c.164062-.011719.351562.007812.558594.070312.394531.121094.828124.429688 1.167968.878906.339844.449219.507813.960938.507813 1.367188 0 .414062-.121094.71875-.347657.890625-.230468.171875-.535156.207031-.933593.082031-.390625-.121094-.84375-.429687-1.183594-.878906-.355469-.460938-.507813-.972656-.523437-1.386719-.015626-.425781.117187-.710937.332031-.871093.117187-.085938.257812-.136719.421875-.152344zm0 0" fill="url(#m)"/></g></g><g mask="url(#t)"><g clip-path="url(#x)"><path d="m16.199219 13.042969c.21875-.0625.449219.0625.515625.28125.0625.21875-.0625.445312-.28125.511719-.21875.0625-.449219-.0625-.515625-.277344-.0625-.222656.0625-.449219.28125-.515625" fill="#fff"/></g></g><g mask="url(#u)"><g clip-path="url(#y)"><path d="m17.40625 14.714844s-.15625-.574219-.492188-.871094c-.121093-.105469.03125-.265625.144532-.125.242187.292969.347656.996094.347656.996094" fill="url(#p)"/></g></g></svg>