<svg height="18" viewBox="0 0 18 18" width="18" xmlns="http://www.w3.org/2000/svg"><path d="m14.253906 2.285156c-.070312-.011718-.132812.027344-.183594.085938-.050781.058594-.09375.136718-.132812.246094v.003906c-.054688.175781-.269531.816406-.949219 1.492187-.683593.679688-1.835937 1.394531-3.777343 1.707031l-.183594.03125.15625.101563c.496094.316406.828125.867187.828125 1.5 0 .992187-.796875 1.789063-1.789063 1.789063-.839844 0-1.558594-.589844-1.734375-1.375l-.050781-.214844-.085938.203125c-.234374.546875-.765624.929687-1.394531.929687-.628906 0-1.164062-.382812-1.394531-.929687l-.0625-.144531-.046875.101562c-.394531-.542969-.90625-.921875-1.421875-1.101562-.515625-.175782-1.039062-.148438-1.441406.140624-.402344.296876-.59375025.785157-.589844 1.332032.00390625.542968.207031 1.148437.601562 1.6875.648438.894531 1.609376 1.347656 2.386719 1.164062 1.089844.800782 2.625 1.546875 4.230469 1.882813 1.601562.332031 3.273438.257812 4.625-.585938.511719.289063 1.085938.558594 1.625.757813l.078125.226562.253906-.09375.007813.007813 1.238281.449219c.03125.414062.289063.855468.808594 1.058593.4375.171875.867187.355469 1.292969.554688.175781.082031.320312.148437.417968.199219.050782.027343.089844.046874.117188.0625h.003906v.003906l.3125.15625-.058594-.289063c-.058594-.203125-.113281-.402343-.171875-.589843-.179687-.644532-.335937-1.21875-.597656-1.632813-.265625-.414063-.652344-.660156-1.238281-.609375-.164063.015625-.300782.074219-.425782.152344l-1.121093-.710938h-.011719l-.101562-.3125-.214844.144532c-.328125-.207032-.6875-.386719-1.050782-.558594 1.273438-1.5625 1.953126-4.273438 1.46875-8.644532-.007812-.105468-.03125-.1875-.066406-.253906-.035156-.0625-.085937-.117187-.15625-.125zm-.019531.140625c.007813.003907.027344.011719.050781.054688.019532.039062.039063.109375.050782.199219.484374 4.414062-.214844 7.097656-1.488282 8.609374l-.058594.070313.085938.039063c.398438.1875.796875.386718 1.148438.613281l.039062.023437.132812-.085937.074219.230469h.074219l1.152344.730468.039062-.027344c.121094-.082031.25-.132812.410156-.144531.542969-.050781.859376.15625 1.105469.539063.242188.386718.402344.953125.582031 1.597656v.003906c.054688.183594.113282.378906.167969.578125h-.003906c-.003906-.003906-.007813-.007812-.011719-.011719-.011718-.003906-.023437-.011718-.035156-.019531-.039062-.019531-.078125-.039062-.117188-.058593-.5625-.28125-1.140624-.535157-1.726562-.761719-.488281-.191407-.710938-.609375-.726562-.984375v-.046875l-1.292969-.46875-.046875-.050781-.203125.078124-.03125-.09375v-.050781l-.046875-.015625c-.554688-.199218-1.152344-.484375-1.679688-.785156l-.035156-.019531-.039062.023437c-1.316407.835938-2.964844.917969-4.558594.585938-1.589844-.332032-3.121094-1.078125-4.195313-1.871094l-.027343-.023438-.03125.011719c-.707032.1875-1.640626-.234375-2.273438-1.105469-.378906-.519531-.570312-1.097656-.574219-1.609374-.007812-.507813.171875-.949219.527344-1.210938h.003906c.355469-.257812.828125-.285156 1.308594-.121094.484375.167969.976563.53125 1.351563 1.050782l-.007813-.019532c.019531.058594.054687.097656.0625.109375l.042969.085938.058594-.058594c.277343.539063.820312.914063 1.464843.914063.632813 0 1.167969-.367188 1.449219-.890626.246094.773438.960938 1.347657 1.816406 1.347657.511719 0 1.003906-.203125 1.367188-.566407.363281-.363281.566406-.855468.566406-1.367187 0-.628906-.3125-1.171875-.777344-1.523437 1.875-.328126 3.023438-1.03125 3.710938-1.714844.703125-.699219.925781-1.367188.984375-1.550782.035156-.097656.070312-.164062.101562-.199218s.050781-.039063.058594-.039063zm-10.472656 1.332031-.136719.027344-.0625 2.878906.136719-.21875c.277343-.433593.757812-.695312 1.269531-.695312.683594 0 1.273438.464844 1.449219 1.078125l.0625.210937.074219-.207031c.109374-.296875.289062-.5625.523437-.769531l.132813-.117188-.175782-.007812c-2.292968-.140625-3.273437-2.179688-3.273437-2.179688m0 .28125c.285156.480469 1.246093 1.835938 3.132812 2.015626-.167969.171874-.304687.375-.402343.59375-.242188-.597657-.828126-1.042969-1.519532-1.042969-.519531 0-.960937.242187-1.257812.597656zm1.140625 2.527344.378906.296875c.085938.074219.144531.1875.148438.289063-.015626.203125-.183594.375-.386719.375-.132813 0-.265625-.074219-.324219-.191406l-.210938-.425782-.082031.476563-.011719.121093v.003907c-.003906.242187.09375.476562.265626.648437.171874.171875.40625.269532.648437.265625.242187.003907.476563-.09375.648437-.265625.175782-.171875.269532-.40625.269532-.648437 0-.484375-.386719-.886719-.871094-.917969zm3.355468.097656.363282.273438c.109375.085938.171875.222656.171875.371094 0 .128906-.046875.246094-.136719.335937-.089844.089844-.210938.140625-.335938.136719-.171874 0-.335937-.097656-.421874-.25l-.207032-.378906-.058594.4375-.011718.132812v.003906c.015625.554688.472656 1.03125 1.042968 1.03125.570313 0 1.03125-.464843 1.03125-1.03125 0-.554687-.429687-1.015624-.984374-1.03125zm-2.90625.074219h.015626c.40625.027344.734374.367188.734374.773438 0 .433593-.339843.773437-.773437.773437s-.769531-.339844-.773437-.773437l.015624-.105469.003907-.039062.015625.03125c.085937.171874.269531.269531.453125.269531.28125 0 .511719-.230469.527343-.511719v-.003906c0-.15625-.082031-.300782-.195312-.398438zm3.371094.105469c.46875.019531.832032.410156.832032.882812 0 .234376-.09375.460938-.261719.628907-.167969.164062-.390625.257812-.628907.257812-.488281 0-.886718-.410156-.902343-.886719l.015625-.117187c.113281.1875.316406.316406.542968.316406.339844 0 .617188-.277343.617188-.617187 0-.183594-.078125-.351563-.214844-.464844m-7.488281.238281c-.421875 0-.761719.410157-.761719.902344 0 .488281.328125.902344.761719.902344.417969 0 .757813-.414063.757813-.902344 0-.492187-.328126-.902344-.757813-.902344zm0 .144531c.339844 0 .613281.328126.613281.757813 0 .425781-.289062.757813-.613281.757813-.339844 0-.617187-.332032-.617187-.757813s.292968-.757813.617187-.757813m8.753906 2.21875-.066406.125s.296875.246094.492187.488282c-.761718.582031-2.070312 1.03125-4.613281.519531l-.039062.136719c1.855469.660156 3.34375.84375 4.28125.414062l.089843-.042968-.070312-.074219c-.128906-.125-.160156-.28125-.113281-.410157v-.003906c.027343-.085937.09375-.140625.1875-.167968.09375-.027344.214843-.019532.347656.039062.046875.019531.144531.050781.296875.097656s.351562.113282.582031.191406l.085938.027344.007812-.089844c.015625-.171874-.035156-.355468-.1875-.550781-.179687-.226562-.5-.394531-.773437-.515625-.164063-.070312-.335938-.128906-.507813-.183594zm.292969.257813c.070312.027344.074219.023437.15625.058594.265625.113281.570312.285156.71875.472656.105469.132813.140625.246094.148438.351563-.160157-.050782-.320313-.105469-.480469-.15625-.152344-.046876-.257813-.082032-.285157-.09375l.003907.003906c-.070313-.03125-.140625-.050782-.21875-.0625.078125-.050782.179687-.09375.246093-.148438l.054688-.042968-.039062-.054688c-.089844-.117188-.203126-.226562-.304688-.328125zm-.46875.871094c-.042969.148437-.003906.304687.09375.441406-.707031.292969-1.785156.230469-3.117188-.136719 1.378907.160156 2.339844-.003906 3.023438-.304687" fill="#716955"/></svg>