<svg height="18" viewBox="0 0 18 18" width="18" xmlns="http://www.w3.org/2000/svg"><path d="m9.5 2.855469h-.085938c-.246093.003906-.492187.0625-.710937.179687l-7.464844 3.941406c-.214843.113282-.40625.269532-.5625.460938-.253906.320312-.394531.714844-.394531 1.125v.449219c0 .859375.484375 1.644531 1.253906 2.03125l4.5625 2.28125c-.023437.269531.007813.542969.113282.796875.171874.402344.492187.722656.894531.890625.207031.089843.429687.132812.652343.132812.113282 0 .226563-.011719.335938-.03125.214844-.046875.421875-.132812.601562-.253906.269532-.183594.480469-.4375.609376-.738281.0625-.152344.105468-.316406.121093-.480469.011719-.117187 0-.238281-.011719-.355469l5.546876-2.925781c.09375.078125.1875.15625.296874.214844.292969.152343.625.21875.957032.183593.328125-.035156.640625-.164062.894531-.375.207031-.171874.371094-.390624.476563-.640624.066406-.152344.109374-.316407.125-.480469.023437-.226563 0-.453125-.066407-.671875-.066406-.207032-.171875-.398438-.308593-.566406-.171876-.210938-.390626-.375-.640626-.480469-.207031-.085938-.429687-.132813-.652343-.128907-.113281 0-.226563.011719-.339844.03125-.265625.054688-.515625.175782-.726563.351563-.210937.171875-.375.390625-.480468.640625-.085938.207031-.132813.425781-.132813.652344 0 .0625.011719.128906.019531.191406l-5.539062 2.921875c-.09375-.078125-.191406-.15625-.300781-.214844-.242188-.128906-.511719-.195312-.785157-.195312-.113281 0-.230468.011719-.339843.035156h-.003907c-.214843.042969-.421874.132813-.605468.257813-.058594.039062-.113282.089843-.167969.140624l-4.492187-2.246093c-.394532-.199219-.644532-.601563-.644532-1.042969 0-.0625.007813-.125.023438-.183594.03125-.113281.085937-.21875.167968-.304687.058594-.0625.125-.113281.203126-.152344.074218-.039063.15625-.066406.242187-.074219.121094-.015625.238281 0 .347656.046875l4.554688 2.273438c.449219.226562.980469.21875 1.425781-.015625l7.261719-3.832032c.125-.066406.214843-.179687.25-.316406.03125-.125.011719-.261718-.054688-.375-.023437-.039062-.050781-.074218-.085937-.105468-.035156-.035157-.074219-.058594-.117188-.082032l-5.59375-2.796875c-.191406-.097656-.40625-.144531-.621094-.152343zm-.085938.277343h.003907c.203125-.003906.40625.042969.585937.132813l5.59375 2.796875c.039063.019531.070313.046875.089844.082031.03125.050781.039062.113281.023438.167969-.007813.039062-.027344.074219-.054688.097656-.015625.015625-.03125.027344-.054688.039063l-7.261718 3.835937c-.367188.191406-.804688.195313-1.171875.011719l-4.566407-2.285156h-.007812c-.152344-.0625-.320312-.085938-.484375-.066407-.238281.03125-.457031.144532-.617187.316407-.113282.121093-.191407.265625-.230469.421875-.023438.082031-.035157.167968-.035157.253906 0 .136719.019532.269531.058594.398438.109375.386718.378906.710937.738282.890624h.003906l4.660156 2.332032.070312-.070313c.195313-.199219.441407-.335937.714844-.390625.09375-.019531.1875-.027344.285156-.027344.230469-.003906.453126.054688.65625.160157.117188.0625.226563.144531.320313.234375l.074219.070312 5.871094-3.097656-.015626-.101562c-.015624-.082032-.023437-.164063-.023437-.246094 0-.1875.039063-.371094.113281-.546875h-.003906c.089844-.207031.226562-.390625.402344-.535157.175781-.144531.382812-.242187.605468-.289062.09375-.019531.191407-.03125.285157-.03125.1875 0 .371093.039062.542969.113281.207031.085938.394531.222657.535156.398438.117187.140625.203125.300781.257812.472656.054688.183594.074219.371094.054688.5625-.011719.136719-.046875.273437-.101563.398437-.089843.210938-.226562.394532-.398437.539063-.214844.171875-.472656.28125-.75.3125-.410156.042969-.816406-.101563-1.113282-.386719l-.074218-.070312-5.875 3.101562.015625.097656c.023437.128907.027343.257813.015625.386719-.015625.136719-.050782.273438-.105469.398438-.105469.253906-.28125.464843-.507813.617187-.230468.15625-.503906.242188-.78125.238282-.1875.003906-.371093-.035157-.546874-.109376-.207032-.085937-.390626-.222656-.535157-.398437-.085937-.105469-.15625-.21875-.207031-.34375-.101562-.238281-.132812-.5-.09375-.757813l.011719-.097656-4.726563-2.367187c-.5-.25-.871094-.695313-1.023437-1.230469-.050781-.179688-.078125-.363281-.078125-.550781v-.449219c0-.5625.3125-1.078125.808594-1.34375l7.464843-3.9375c.179688-.097656.378907-.148438.582031-.148438zm6.628907 5.226563c-.050781 0-.101563.003906-.148438.015625-.238281.046875-.4375.214844-.527343.4375-.09375.226562-.066407.484375.070312.683594.078125.121094.191406.210937.320312.265625.089844.039062.1875.058593.285157.058593.097656 0 .191406-.019531.28125-.058593.132812-.054688.242187-.144531.324219-.261719.050781-.082031.089843-.167969.109374-.261719.039063-.195312 0-.394531-.109374-.558593-.136719-.199219-.363282-.320313-.605469-.320313zm0 .277344c.148437 0 .289062.074219.375.199219.066406.101562.09375.226562.066406.34375-.011719.058593-.035156.113281-.066406.164062-.050781.074219-.117188.128906-.199219.164062-.054688.023438-.117188.035157-.175781.035157-.0625 0-.121094-.011719-.175781-.035157h-.003907c-.078125-.035156-.148437-.089843-.199219-.164062-.101562-.152344-.101562-.355469 0-.507812.066407-.097657.171876-.167969.285157-.191407.03125-.003906.0625-.007812.09375-.007812zm-8.285157 4.101562c-.097656 0-.195312.019531-.285156.058594-.175781.074219-.3125.210937-.386718.386719-.117188.273437-.054688.589844.15625.800781.246093.246094.632812.285156.921874.089844h.003907c.117187-.078125.207031-.191407.261719-.320313.097656-.226562.070312-.488281-.066407-.691406s-.363281-.324219-.605469-.324219zm0 .277344c.152344 0 .292969.074219.375.199219.085938.128906.101563.289062.042969.429687-.035156.082031-.089843.152344-.164062.199219-.179688.125-.421875.101562-.574219-.054688-.085938-.085937-.132812-.199218-.132812-.320312 0-.058594.011718-.121094.035156-.175781.046875-.109375.132812-.195313.242187-.242188.054688-.023437.113281-.035156.175781-.035156zm0 0" fill="#346ddb" fill-rule="evenodd"/></svg>