<svg height="18" viewBox="0 0 18 18" width="18" xmlns="http://www.w3.org/2000/svg"><g fill="none" stroke="#fff" stroke-linecap="round" stroke-linejoin="round" stroke-width="2" transform="scale(.75)"><path d="m15 22v-4c.140625-1.255208-.21875-2.510417-1-3.5 3 0 6-2 6-5.5.078125-1.25-.270833-2.479167-1-3.5.28125-1.151042.28125-2.348958 0-3.5 0 0-1 0-3 1.5-2.640625-.5-5.359375-.5-8 0-2-1.5-3-1.5-3-1.5-.302083 1.151042-.302083 2.348958 0 3.5-.729167 1.015625-1.083333 2.255208-1 3.5 0 3.5 3 5.5 6 5.5-.390625.489583-.682292 1.052083-.848958 1.651042-.171875.598958-.21875 1.229166-.151042 1.848958v4"/><path d="m9 18c-4.510417 2-5-2-7-2"/></g></svg>