<svg height="18" viewBox="0 0 18 18" width="18" xmlns="http://www.w3.org/2000/svg"><path d="m3.75 0c-2.066406 0-3.75 1.683594-3.75 3.75 0 1.808594 1.292969 3.324219 3 3.675781v5.324219c0 1.65625 1.363281 3 3 3h.027344c.183594 1.269531 1.28125 2.25 2.597656 2.25 1.445312 0 2.625-1.179688 2.625-2.625s-1.179688-2.625-2.625-2.625c-1.316406 0-2.414062.980469-2.597656 2.25h-.027344c-1.230469 0-2.25-1.003906-2.25-2.25v-3.78125c.488281.5 1.160156.78125 1.863281.78125h.414063c.183594 1.269531 1.28125 2.25 2.597656 2.25s2.414062-.980469 2.597656-2.25h1.554688c.183594 1.269531 1.28125 2.25 2.597656 2.25 1.445312 0 2.625-1.179688 2.625-2.625s-1.179688-2.625-2.625-2.625c-1.316406 0-2.414062.980469-2.597656 2.25h-1.554688c-.183594-1.269531-1.28125-2.25-2.597656-2.25s-2.414062.980469-2.597656 2.25h-.414063c-.90625 0-1.660156-.644531-1.828125-1.5 2.050782-.019531 3.714844-1.695312 3.714844-3.75 0-2.066406-1.683594-3.75-3.75-3.75m0 .75c.796875 0 1.558594.3125 2.121094.875.566406.566406.878906 1.328125.878906 2.125s-.3125 1.558594-.878906 2.121094c-.5625.566406-1.324219.878906-2.121094.878906s-1.558594-.3125-2.125-.878906c-.5625-.5625-.875-1.324219-.875-2.121094s.3125-1.558594.878906-2.121094c.5625-.566406 1.324219-.878906 2.121094-.878906m-.734375 1.0625c-.390625 0-.765625.3125-.765625.742188v2.398437c0 .566406.664062.933594 1.144531.636719l1.917969-1.191406c.457031-.28125.460938-.984376.003906-1.269532l-1.917968-1.210937c-.113282-.070313-.246094-.109375-.382813-.105469m-.015625.742188 1.917969 1.207031-1.917969 1.191406zm5.625 4.945312c.496094 0 .976562.195312 1.328125.546875s.546875.832031.546875 1.328125-.195312.976562-.546875 1.328125-.832031.546875-1.328125.546875-.976562-.195312-1.328125-.546875-.546875-.832031-.546875-1.328125.195312-.976562.546875-1.328125.832031-.546875 1.328125-.546875m6.75 0c.496094 0 .976562.195312 1.328125.546875s.546875.832031.546875 1.328125-.195312.976562-.546875 1.328125-.832031.546875-1.328125.546875-.976562-.195312-1.328125-.546875-.546875-.832031-.546875-1.328125.195312-.976562.546875-1.328125.832031-.546875 1.328125-.546875m-5.984375.976562c-.101563 0-.195313.039063-.265625.109376l-.886719.886718-.296875-.292968c-.144531-.148438-.382812-.144532-.527344 0-.148437.148437-.148437.382812 0 .53125l.558594.554687c.148438.148437.382813.148437.53125 0l1.148438-1.148437c.148437-.144532.148437-.382813 0-.53125-.070313-.070313-.164063-.109376-.261719-.109376zm6.75 0c-.101563 0-.195313.039063-.265625.109376l-.886719.886718-.296875-.292968c-.144531-.148438-.382812-.144532-.527344 0-.148437.148437-.148437.382812 0 .53125l.558594.554687c.148438.148437.382813.148437.53125 0l1.148438-1.148437c.148437-.144532.148437-.382813 0-.53125-.070313-.070313-.164063-.109376-.261719-.109376zm-.765625 4.273438c-1.320312 0-2.417969.984375-2.597656 2.253906-.011719 0-.027344 0-.039063 0l-.378906.011719c-.207031.007813-.367187.179687-.363281.386719.007812.207031.179687.367187.386718.363281l.382813-.011719.011719-.003906c.183594 1.269531 1.28125 2.25 2.597656 2.25 1.445312 0 2.625-1.179688 2.625-2.625s-1.179688-2.625-2.625-2.625m-6.75.75c.496094 0 .976562.195312 1.328125.546875s.546875.832031.546875 1.328125-.195312.976562-.546875 1.328125-.832031.546875-1.328125.546875-.976562-.195312-1.328125-.546875-.546875-.832031-.546875-1.328125.195312-.976562.546875-1.328125.832031-.546875 1.328125-.546875m6.75 0c.496094 0 .976562.195312 1.328125.546875s.546875.832031.546875 1.328125-.195312.976562-.546875 1.328125-.832031.546875-1.328125.546875-.976562-.195312-1.328125-.546875-.546875-.832031-.546875-1.328125.195312-.976562.546875-1.328125.832031-.546875 1.328125-.546875m-7.5 1.3125c-.308594 0-.5625.253906-.5625.5625s.253906.5625.5625.5625.5625-.253906.5625-.5625-.253906-.5625-.5625-.5625m1.5 0c-.308594 0-.5625.253906-.5625.5625s.253906.5625.5625.5625.5625-.253906.5625-.5625-.253906-.5625-.5625-.5625m-1.5.375c.105469 0 .1875.082031.1875.1875s-.082031.1875-.1875.1875-.1875-.082031-.1875-.1875.082031-.1875.1875-.1875m1.5 0c.105469 0 .1875.082031.1875.1875s-.082031.1875-.1875.1875-.1875-.082031-.1875-.1875.082031-.1875.1875-.1875" fill="#2088ff"/></svg>