<svg height="18" viewBox="0 0 18 18" width="18" xmlns="http://www.w3.org/2000/svg"><path d="m9.007812.21875c-2.378906.007812-4.660156.960938-6.335937 2.648438s-2.6132812 3.976562-2.6015625 6.355468c-.0078125 3.863282 2.4531255 7.300782 6.1093755 8.542969.445312.085937.609374-.195313.609374-.433594 0-.210937-.015624-.925781-.015624-1.667969-2.484376.535157-3.003907-1.074218-3.003907-1.074218-.398437-1.042969-.992187-1.3125-.992187-1.3125-.8125-.550782.058594-.550782.058594-.550782.902343.058594 1.378906.921876 1.378906.921876.796875 1.371093 2.085937.984374 2.601562.746093.039063-.457031.238282-.882812.5625-1.207031-1.980468-.207031-4.066406-.984375-4.066406-4.441406-.011719-.890625.316406-1.753906.914062-2.414063-.085937-.226562-.398437-1.148437.089844-2.386719 0 0 .753906-.238281 2.457032.925782.726562-.199219 1.480468-.296875 2.234374-.300782.753907.003907 1.507813.101563 2.234376.300782 1.703124-1.164063 2.457031-.925782 2.457031-.925782.488281 1.238282.175781 2.160157.085937 2.386719.34375.371094.601563.8125.75 1.292969.230469-.171875.511719-.261719.796875-.261719.203125 0 .40625.046875.589844.132813l1.265625.613281c.144531.070313.316406.054687.445312-.042969.128907-.097656.191407-.257812.164063-.417968-.734375-4.28125-4.441406-7.417969-8.789063-7.429688zm6.328126 7.886719c-.148438 0-.292969.058593-.40625.160156-.085938.078125-3.835938 3.515625-3.835938 3.515625l-1.660156-1.265625c-.152344-.121094-.371094-.109375-.511719.019531l-.535156.488282c-.082031.078124-.128907.1875-.128907.300781s.046876.222656.128907.300781l1.441406 1.320312-1.441406 1.320313c-.128907.117187-.167969.300781-.097657.460937.023438.050782.058594.097657.097657.136719l.535156.488281c.140625.128907.359375.140626.511719.023438l1.660156-1.269531s3.75 3.4375 3.835938 3.519531c.179687.164062.445312.203125.664062.097656l1.992188-.964844c.210937-.101562.34375-.316406.34375-.546874v-6.53125c0-.234376-.132813-.449219-.34375-.550782l-1.992188-.960937c-.078125-.039063-.167969-.0625-.257812-.0625m.175781 2.632812v4.414063l-2.890625-2.207032zm0 0"/></svg>