<svg height="18" viewBox="0 0 18 18" width="18" xmlns="http://www.w3.org/2000/svg"><path d="m17.542969 7.226562-.023438-.0625-2.40625-6.277343c-.046875-.125-.136719-.230469-.246093-.300781-.230469-.140626-.523438-.125-.738282.039062-.101562.085938-.175781.199219-.210937.324219l-1.625 4.972656h-6.578125l-1.625-4.972656c-.035156-.125-.109375-.238281-.214844-.324219-.210938-.164062-.503906-.179688-.734375-.039062-.113281.070312-.199219.175781-.25.296874l-2.410156 6.277344-.023438.0625c-.710937 1.859375-.105469 3.964844 1.484375 5.164063l.007813.007812.019531.015625 3.664062 2.742188 1.816407 1.375 1.101562.832031c.265625.203125.632813.203125.898438 0l1.105469-.832031 1.8125-1.375 3.6875-2.761719.007812-.003906c1.585938-1.199219 2.191406-3.300781 1.480469-5.160157" fill="#e24329"/></svg>