<svg height="18" viewBox="0 0 18 18" width="18" xmlns="http://www.w3.org/2000/svg"><path d="m10.695312.972656c.53125.84375.207032 1.921875-.726562 2.40625l-5.816406 3c-.15625.078125-.25.226563-.25.386719v4.710937c0 .160157.09375.308594.25.386719l4.601562 2.375c.15625.078125.335938.078125.492188 0l4.601562-2.375c.15625-.078125.25-.226562.25-.386719v-2.929687l-4.140625 2.109375c-.9375.476562-2.125.175781-2.65625-.667969-.53125-.847656-.199219-1.921875.742188-2.402343l5.921875-3.015626c1.804687-.917968 4.035156.257813 4.035156 2.128907v5.136719c0 1.203124-.714844 2.3125-1.871094 2.910156l-5.285156 2.726562c-1.144531.589844-2.542969.589844-3.6875 0l-5.285156-2.726562c-1.15625-.597656-1.871094-1.707032-1.871094-2.910156v-5.429688c0-1.203125.714844-2.3125 1.871094-2.910156l6.160156-3.179688c.9375-.480468 2.128906-.1875 2.664062.65625m0 0" fill="#ffa132" fill-rule="evenodd"/></svg>