<svg height="18" viewBox="0 0 18 18" width="18" xmlns="http://www.w3.org/2000/svg"><g fill="none" stroke="#fff" stroke-linecap="round" stroke-linejoin="round" stroke-width="2" transform="scale(.75)"><path d="m10 15c0 2.208333-1.791667 4-4 4s-4-1.791667-4-4 1.791667-4 4-4 4 1.791667 4 4zm0 0"/><path d="m22 15c0 2.208333-1.791667 4-4 4s-4-1.791667-4-4 1.791667-4 4-4 4 1.791667 4 4zm0 0"/><path d="m14 15c0-1.104167-.895833-2-2-2s-2 .895833-2 2m-7.5-2 2.5-6c.697917-1.302083 1.401042-2 3-2m13.5 8-2.5-6c-.697917-1.302083-1.5-2-3-2"/></g></svg>