<svg height="18" viewBox="0 0 18 18" width="18" xmlns="http://www.w3.org/2000/svg" xmlns:xlink="http://www.w3.org/1999/xlink"><clipPath id="a"><path d="m2.644531 8h2.355469v2h-2.355469zm0 0"/></clipPath><clipPath id="b"><path d="m2.644531 8h2.355469v3h-2.355469zm0 0"/></clipPath><clipPath id="c"><path d="m2.644531 9h1.355469v1h-1.355469zm0 0"/></clipPath><clipPath id="d"><path d="m12 15h2v2.859375h-2zm0 0"/></clipPath><clipPath id="e"><path d="m4 15h3v2.859375h-3zm0 0"/></clipPath><clipPath id="f"><path d="m13 8h2.371094v2h-2.371094zm0 0"/></clipPath><clipPath id="g"><path d="m14 9h1.371094v1h-1.371094zm0 0"/></clipPath><clipPath id="h"><path d="m3 .140625h12v17.71875h-12zm0 0"/></clipPath><g clip-path="url(#a)"><path d="m2.96875 9.660156c.027344.492188.519531.269532.742188.113282.210937-.15625.28125-.027344.296874-.324219.015626-.195313.027344-.378907.027344-.574219-.324218-.03125-.675781.039062-.941406.238281-.125.097657-.394531.421875-.125.546875" fill="#f6d2a2" fill-rule="evenodd"/></g><g clip-path="url(#b)"><path d="m3.234375 10.011719c-.097656 0-.28125-.042969-.308594-.324219-.085937-.054688-.113281-.125-.113281-.167969-.015625-.167969.167969-.363281.265625-.433593.226563-.171876.523437-.253907.832031-.253907h.183594v.042969c.011719.152344 0 .308594-.015625.449219 0 .042969 0 .082031-.015625.125-.011719.210937-.054688.238281-.152344.28125-.042968.015625-.085937.027343-.15625.085937-.070312.042969-.308594.195313-.519531.195313m.675781-1.097657c-.296875 0-.5625.085938-.773437.242188-.097657.070312-.238281.238281-.226563.351562 0 .039063.027344.082032.085938.109376l.027344.015624v.027344c.015624.226563.125.253906.210937.253906.140625 0 .335937-.097656.464844-.183593.082031-.054688.140625-.070313.183593-.082031.070313-.03125.082032-.03125.097657-.199219 0-.042969 0-.082031.011719-.125.015624-.128907.015624-.269531.015624-.394531-.042968-.015626-.070312-.015626-.097656-.015626"/></g><g clip-path="url(#c)"><path d="m2.96875 9.660156c.070312-.027344.152344-.042968.195312-.113281" fill="#c6b198" fill-rule="evenodd"/><path d="m2.96875 9.703125c-.015625 0-.042969-.015625-.042969-.027344-.015625-.027343 0-.058593.027344-.058593.015625 0 .027344-.011719.027344-.011719.058593-.027344.113281-.042969.140625-.085938.015625-.011719.042968-.027343.070312-.011719.015625.011719.027344.039063.015625.070313-.058593.070313-.128906.097656-.183593.109375l-.027344.015625zm0 0"/></g><g clip-path="url(#d)"><path d="m12.9375 15.792969c.378906.238281 1.082031.957031.507812 1.308593-.550781.503907-.859374-.5625-1.351562-.703124.210938-.28125.476562-.550782.84375-.605469" fill="#f6d2a2" fill-rule="evenodd"/><path d="m13.148438 17.28125c-.226563 0-.421876-.222656-.589844-.433594-.15625-.167968-.308594-.351562-.480469-.410156l-.070313-.011719.042969-.058593c.167969-.238282.449219-.546876.871094-.617188h.015625l.015625.015625c.238281.152344.757813.589844.742187.996094 0 .15625-.082031.28125-.238281.378906-.097656.101563-.195312.140625-.308593.140625m-.984376-.914062c.167969.070312.308594.253906.449219.410156.167969.210937.339844.394531.519531.394531.085938 0 .171876-.042969.253907-.128906h.015625c.125-.082031.195312-.183594.195312-.308594 0-.324219-.40625-.730469-.6875-.914063-.253906.070313-.507812.238282-.746094.546876m1.28125.773437c-.015624 0-.03125-.011719-.042968-.027344-.027344-.054687-.058594-.125-.070313-.183593-.042969-.109376-.085937-.222657-.167969-.308594-.015624-.011719-.015624-.042969 0-.070313.011719-.011719.039063-.011719.070313 0 .097656.097657.152344.226563.195313.351563l.070312.167968c.015625.03125 0 .058594-.015625.070313zm0 0"/></g><g clip-path="url(#e)"><path d="m6.074219 16.609375c-.449219.070313-.703125.476563-1.082031.6875-.351563.210937-.492188-.070313-.519532-.125-.058594-.03125-.058594.027344-.140625-.058594-.324219-.519531.335938-.898437.6875-1.152343.492188-.113282.800781.308593 1.054688.648437" fill="#f6d2a2" fill-rule="evenodd"/><path d="m4.753906 17.410156c-.183594 0-.28125-.15625-.308594-.210937h-.015624c-.042969 0-.070313-.015625-.125-.070313v-.015625c-.3125-.492187.222656-.871093.574218-1.125l.128906-.082031h.027344c.054688-.015625.097656-.015625.152344-.015625.421875 0 .691406.367187.914062.660156l.070313.097657-.082031.015624c-.269532.042969-.464844.210938-.660156.378907-.128907.113281-.253907.210937-.394532.296875-.113281.042968-.199218.070312-.28125.070312m-.308594-.296875c.011719 0 .027344 0 .054688.015625h.015625l.011719.011719c.027344.042969.097656.171875.238281.171875.070313 0 .140625-.03125.210937-.070312.140626-.070313.269532-.183594.382813-.28125.179687-.15625.378906-.324219.632813-.394532-.210938-.28125-.464844-.589844-.816407-.589844-.042969 0-.085937 0-.128906.011719l-.109375.085938c-.367188.253906-.816406.574219-.550781.996093.015625.03125.027343.042969.058593.042969m.027344.097657c-.027344 0-.058594-.027344-.042968-.054688.015624-.140625.085937-.238281.15625-.351562.039062-.054688.070312-.113282.097656-.167969.011718-.027344.042968-.027344.054687-.027344.027344.011719.027344.039063.027344.054687-.027344.070313-.070313.125-.109375.183594-.070312.097656-.128906.183594-.140625.292969 0 .058594-.015625.070313-.042969.070313"/></g><g clip-path="url(#f)"><path d="m15.0625 9.589844c-.03125.492187-.523438.269531-.746094.113281-.210937-.15625-.28125-.027344-.296875-.324219-.011719-.195312-.027343-.378906-.027343-.574218.324218-.03125.675781.039062.941406.238281.140625.113281.394531.421875.128906.546875" fill="#f6d2a2" fill-rule="evenodd"/><path d="m14.808594 9.941406c-.210938 0-.449219-.152344-.519532-.195312-.070312-.042969-.113281-.070313-.15625-.085938-.113281-.042968-.140624-.070312-.15625-.28125 0-.042968 0-.082031-.011718-.125-.015625-.140625-.027344-.296875-.015625-.449218v-.042969h.183593c.308594 0 .605469.082031.828126.253906.101562.070313.28125.265625.269531.433594 0 .058593-.027344.128906-.113281.167969-.027344.28125-.210938.324218-.308594.324218m-.773438-1.082031c0 .125 0 .265625.011719.394531 0 .042969 0 .082032.015625.125.015625.167969.027344.167969.097656.199219.042969.011719.097656.039063.183594.082031.125.085938.324219.183594.464844.183594.082031 0 .195312-.027344.210937-.253906v-.027344l.027344-.015625c.054687-.027344.085937-.054687.085937-.109375.011719-.113281-.128906-.28125-.226562-.351562-.210938-.15625-.492188-.242188-.773438-.242188-.027343.015625-.054687.015625-.097656.015625"/></g><g clip-path="url(#g)"><path d="m15.0625 9.589844c-.070312-.027344-.15625-.042969-.199219-.113282" fill="#c6b198" fill-rule="evenodd"/><path d="m15.0625 9.648438h-.015625l-.027344-.015626c-.070312-.027343-.140625-.042968-.183593-.113281-.015626-.011719-.015626-.054687.015624-.070312.011719-.011719.054688-.011719.070313.015625.027344.042968.082031.054687.140625.082031.011719 0 .027344.015625.027344.015625.027344.015625.042968.042969.027344.054688-.015626.015624-.042969.03125-.054688.03125"/></g><g clip-path="url(#h)"><path d="m8.832031.5625c1.910157 0 3.699219.265625 4.640625 2.109375.84375 2.054687.535156 4.273437.675782 6.453125.109374 1.871094.351562 4.023438-.507813 5.753906-.914063 1.8125-3.191406 2.277344-5.0625 2.207032-1.476563-.054688-3.25-.535157-4.09375-1.882813-.96875-1.578125-.519531-3.925781-.449219-5.683594.085938-2.082031-.5625-4.175781.128906-6.199219.6875-2.125 2.601563-2.601562 4.667969-2.757812" fill="#6ad7e5" fill-rule="evenodd"/><path d="m8.902344 17.140625h-.351563c-.578125-.011719-1.449219-.109375-2.308593-.460937-.828126-.339844-1.433594-.816407-1.828126-1.449219-.785156-1.28125-.644531-3.039063-.519531-4.597657.027344-.394531.058594-.761718.070313-1.113281.027344-.730469-.027344-1.488281-.097656-2.207031-.113282-1.320312-.226563-2.6875.210937-4.007812.335937-.984376.941406-1.6875 1.855469-2.136719.71875-.351563 1.605468-.550781 2.871094-.648438 1.882812-.011719 3.753906.253907 4.695312 2.125.617188 1.503907.617188 3.121094.632812 4.683594 0 .589844 0 1.195313.042969 1.785156.011719.183594.027344.363281.027344.546875.113281 1.714844.238281 3.65625-.546875 5.230469-.394531.804687-1.085938 1.394531-2.027344 1.773437-.757812.308594-1.714844.476563-2.726562.476563m-.070313-16.535156c-1.984375.152343-3.925781.589843-4.640625 2.726562-.4375 1.308594-.324218 2.660157-.210937 3.964844.054687.734375.125 1.476563.097656 2.222656-.015625.351563-.042969.71875-.070313 1.113281-.125 1.546876-.265624 3.289063.507813 4.539063.320313.523437 1.363281 1.757813 4.046875 1.859375h.351562c3.109376 0 4.261719-1.378906 4.683594-2.195312.773438-1.546876.648438-3.488282.550782-5.1875-.015626-.183594-.03125-.367188-.03125-.550782-.027344-.589844-.039063-1.195312-.039063-1.785156-.015625-1.546875-.015625-3.164062-.621094-4.65625-.421875-.828125-1.054687-1.390625-1.925781-1.714844-.898438-.292968-1.914062-.335937-2.699219-.335937"/></g><path d="m4.121094 3.710938c-1.914063-.53125-.492188-2.964844 1.039062-1.96875zm0 0" fill="#6ad7e5" fill-rule="evenodd"/><path d="m4.148438 3.769531-.042969-.015625c-.984375-.28125-.96875-.984375-.941407-1.195312.070313-.535156.578126-1.097656 1.25-1.097656.269532 0 .523438.085937.773438.253906l.042969.027344zm.265624-2.207031c-.632812 0-1.09375.519531-1.164062 1.011719-.070312.503906.238281.898437.84375 1.082031l.996094-1.898438c-.210938-.125-.433594-.195312-.675782-.195312"/><path d="m12.601562 1.5625c1.503907-1.054688 2.882813 1.335938 1.125 1.9375zm0 0" fill="#6ad7e5" fill-rule="evenodd"/><path d="m13.710938 3.558594-1.167969-2.011719.042969-.027344c.265624-.183593.535156-.28125.800781-.28125.648437 0 1.113281.535157 1.210937 1.054688.042969.210937.082032.925781-.84375 1.238281zm-1.039063-1.96875 1.082031 1.871094c.546875-.199219.828125-.621094.746094-1.125-.085938-.480469-.523438-.972657-1.113281-.972657-.238281-.011719-.476563.058594-.714844.226563"/><path d="m4.203125 3.050781c-.25-.125-.433594-.308593-.28125-.605469.140625-.265624.410156-.238281.664063-.109374zm9.128906-.253906c.253907-.125.433594-.308594.28125-.601563-.140625-.269531-.410156-.242187-.660156-.113281zm0 0" fill-rule="evenodd"/><path d="m9.167969 3.121094c.339843 1.996094 3.601562 1.464844 3.136719-.546875-.421876-1.800781-3.25-1.292969-3.136719.546875" fill="#fff" fill-rule="evenodd"/><path d="m10.714844 4.429688c-.632813 0-1.433594-.335938-1.601563-1.292969-.027343-.449219.113281-.859375.40625-1.167969.324219-.351562.816407-.546875 1.324219-.546875.589844 0 1.292969.308594 1.488281 1.164063.113281.480468.027344.902343-.238281 1.238281-.296875.367187-.816406.605469-1.378906.605469m-1.503906-1.308594c.070312.394531.253906.703125.546874.929687.253907.195313.605469.292969.957032.292969.519531 0 1.027344-.222656 1.308594-.574219.253906-.308593.324218-.71875.226562-1.167969-.183594-.800781-.84375-1.082031-1.40625-1.082031-.480469 0-.945312.195313-1.253906.519531-.265625.28125-.40625.660157-.378906 1.082032"/><path d="m5.273438 3.445312c.449218 1.730469 3.21875 1.292969 3.121093-.449218-.125-2.082032-3.558593-1.6875-3.121093.449218" fill="#fff" fill-rule="evenodd"/><path d="m6.75 4.597656c-.605469 0-1.308594-.292968-1.53125-1.136718-.101562-.492188 0-.945313.28125-1.28125.308594-.378907.8125-.605469 1.363281-.605469.730469 0 1.503907.4375 1.558594 1.421875.03125.40625-.097656.773437-.378906 1.066406-.292969.324219-.785157.535156-1.292969.535156m.113281-2.925781c-.519531 0-1 .210937-1.292969.5625-.269531.324219-.351562.734375-.253906 1.195313.195313.789062.871094 1.070312 1.433594 1.070312.476562 0 .941406-.183594 1.238281-.507812.253907-.265626.378907-.617188.351563-.996094-.027344-.605469-.4375-1.324219-1.476563-1.324219"/><path d="m9.5625 5.511719c0 .253906.054688.550781.015625.832031-.070313.125-.199219.140625-.3125.179688-.152344-.027344-.28125-.125-.351563-.265626-.039062-.308593.015626-.617187.03125-.929687zm0 0" fill="#fff" fill-rule="evenodd"/><path d="m9.265625 6.582031c-.179687-.027343-.320313-.140625-.390625-.296875-.03125-.222656-.015625-.433594 0-.644531.011719-.101563.011719-.199219.011719-.296875v-.054688l.71875.222657v.027343c0 .085938.011719.171876.011719.269532.015624.183594.03125.378906 0 .5625v.011718c-.054688.113282-.152344.140626-.25.183594-.03125-.011718-.058594 0-.101563.015625m-.308594-.339843c.058594.128906.167969.210937.296875.242187.027344-.015625.054688-.015625.070313-.03125.082031-.027344.152343-.054687.195312-.125.027344-.167969.015625-.351563 0-.535156 0-.082031-.011719-.167969-.011719-.238281l-.535156-.167969c0 .082031-.015625.167969-.015625.238281-.011719.226562-.027343.421875 0 .617188"/><g fill-rule="evenodd"><path d="m6.511719 3.164062c0 .28125-.210938.507813-.464844.507813s-.464844-.226563-.464844-.507813.210938-.507812.464844-.507812.464844.226562.464844.507812"/><path d="m6.355469 3.277344c0 .070312-.054688.125-.113281.125-.054688 0-.109376-.054688-.109376-.125 0-.070313.054688-.128906.109376-.128906.070312 0 .113281.058593.113281.128906" fill="#fff"/><path d="m10.433594 3.039062c0 .28125-.210938.503907-.464844.503907-.25 0-.460938-.222657-.460938-.503907s.210938-.507812.460938-.507812c.253906 0 .464844.226562.464844.507812"/><path d="m10.292969 3.148438c0 .070312-.042969.128906-.113281.128906-.054688 0-.109376-.058594-.109376-.128906 0-.070313.039063-.125.109376-.125.058593 0 .113281.054687.113281.125m-2.082031 2.335937c-.210938.492187.113281 1.492187.675781.757813-.042969-.308594.015625-.617188.027343-.925782zm0 0" fill="#fff"/></g><path d="m8.507812 6.554688c-.097656 0-.195312-.058594-.265624-.171876-.15625-.222656-.183594-.644531-.070313-.914062l.011719-.027344.773437-.195312v.054687l-.011719.308594c-.015624.210937-.03125.410156 0 .621094v.011719l-.015624.015624c-.140626.195313-.28125.296876-.421876.296876m-.253906-1.027344c-.082031.238281-.054687.617187.070313.800781.058593.085937.113281.125.183593.125.097657 0 .210938-.082031.324219-.222656-.027343-.210938-.015625-.421875.011719-.621094l.015625-.238281zm0 0"/><path d="m8.28125 4.527344c-.378906.027344-.6875.492187-.492188.84375.269532.480468.84375-.042969 1.210938 0 .421875.015625.757812.449218 1.097656.085937.378906-.410156-.167968-.800781-.578125-.984375zm0 0" fill="#f6d2a2" fill-rule="evenodd"/><path d="m9.800781 5.652344c-.125 0-.253906-.054688-.378906-.113282-.125-.054687-.265625-.109374-.421875-.109374h-.042969c-.113281 0-.238281.039062-.378906.097656-.15625.054687-.308594.097656-.449219.097656-.167968 0-.296875-.070312-.378906-.226562-.101562-.167969-.085938-.363282.011719-.546876.113281-.210937.308593-.335937.519531-.367187l1.253906-.054687h.011719c.3125.125.664063.367187.734375.648437.027344.140625-.015625.28125-.128906.40625-.113282.125-.222656.167969-.351563.167969m-.785156-.308594c.152344 0 .308594.070312.449219.125.125.058594.238281.101562.351562.101562.097656 0 .183594-.042968.265625-.128906.097657-.097656.128907-.210937.113281-.324218-.054687-.238282-.394531-.460938-.660156-.574219l-1.222656.054687c-.183594.015625-.351562.140625-.453125.308594-.082031.15625-.082031.324219-.011719.464844.070313.128906.152344.183594.292969.183594.128906 0 .269531-.054688.410156-.097657.152344-.058593.28125-.097656.421875-.097656 0-.03125.011719-.03125.042969-.015625" fill="#231f20"/><path d="m8.242188 4.515625c-.03125-.664063 1.234374-.746094 1.375-.199219.15625.5625-1.320313.691406-1.375.199219" fill-rule="evenodd"/></svg>