<svg height="18" viewBox="0 0 18 18" width="18" xmlns="http://www.w3.org/2000/svg"><path d="m15.214844 9.113281c-.011719-.015625-.027344-.027343-.054688-.027343l-.015625-.015626c-.011719-.015624-.027343-.015624-.027343-.027343l-.015626-.015625c-.011718 0-.027343-.011719-.027343-.011719l-.027344-.015625c-.015625 0-.027344-.015625-.027344-.015625l-.027343-.011719c-.015626 0-.03125-.015625-.03125-.015625-.011719 0-.011719 0-.027344-.011719l-.042969-.015624c-.011719 0-.011719 0-.027344-.015626l-.042969-.011718h-.011718l-.058594-.015625h-.027344c-.011718 0-.027344 0-.042968-.011719h-.320313c-.085937-1.871094.082031-3.769531-.394531-5.570312 1.8125-.648438.394531-3.136719-1.183594-2.023438-1.039062-.902344-2.472656-1.097656-3.976562-1.097656-1.476563.097656-2.871094.40625-3.855469 1.179687-.394531-.195312-.773438-.253906-1.109375-.152343v.011718c-.015625 0-.042969.015625-.058594.027344-.011719 0-.039062.015625-.054688.03125h-.015624c-.011719 0-.027344.011719-.054688.027344h-.015625l-.039063.027344h-.015624l-.042969.027343h-.011719l-.042969.027344s-.015625 0-.015625.015625l-.042968.027344s-.011719 0-.011719.015625l-.042969.027343s-.015625 0-.015625.015626l-.039063.027343-.015624.011719c-.015626.015625-.027344.015625-.027344.03125l-.015625.011719-.042969.042969c-.011719.015624-.011719.027343-.027344.027343l-.011718.015625c-.015626.011719-.015626.027344-.03125.027344l-.011719.015625c-.015625.011719-.015625.027344-.027344.027344l-.015625.011719c-.015625.015624-.015625.03125-.027344.03125l-.015625.011718c-.011719.015625-.011719.027344-.027343.027344l-.015626.015625-.011718.042969s0 .011718-.015625.011718l-.011719.042969s0 .015625-.015625.015625l-.015625.042969s0 .011719-.011719.011719l-.015625.042968s0 .015626-.011718.015626c.054687.039062.054687.054687.054687.054687v.015625l-.015625.039062v.015626c0 .015624 0 .027343-.011719.042968v.433594c0 .015625 0 .03125.011719.042969v.015625l.015625.042968v.011719l.015625.042969s0 .015625.011719.015625l.015625.039063s0 .015624.011718.015624l.015626.042969s0 .011719.015624.011719l.027344.042969s0 .015625.011719.015625l.03125.042968s0 .011719.011719.011719l.027344.042969.015624.015625.042969.039063.042969.042968h.011719c.140625.128906.28125.226563.5625.308594v-.027344c-.589844 1.773438-.097657 3.558594-.070313 5.386719-.082031 0-.097656.054687-.238281.070313h-.070313c-.015624 0-.042968 0-.070312.015624-.015625 0-.042969 0-.054688.011719l-.058593.015625h-.011719l-.058594.011719h-.011718l-.042969.015625h-.015625l-.042969.015625s-.011719 0-.011719.011719l-.042968.015625-.027344.011719c-.015625 0-.027344.015624-.027344.015624l-.03125.015626-.027344.011718c-.011718 0-.027344.015625-.027344.015625l-.027343.011719-.058594.042969c-.011719.015625-.027344.027343-.039063.027343l-.070312.070313c-.015625.03125-.042969.058594-.058594.070313l-.027344.042968-.042968.085938-.011719.042968v.039063c0 .070313.027344.128906.125.171875.027344.519531.546875.28125.789063.109375l.011718-.011719c.027344-.027344.070313-.042968.085938-.042968h.011718l.03125-.015626c.011719 0 .011719 0 .027344-.011718.027344-.015625.054688-.015625.070313-.027344.011719 0 .011719-.015625.011719-.03125l.015624-.011719c.015626-.027343.027344-.085937.027344-.167969l.015625-.183593v.253906c-.070312 1.839844-.5625 4.316406.464844 5.976563.179687.292968.40625.546874.660156.757812h-.070312c-.027344.027344-.070313.054688-.113281.085938l-.125.082031-.042969.027343-.085938.058594-.125.097656-.15625.140626c-.027343.027343-.042969.054687-.054687.070312l-.058594.085938-.027344.039062c-.011718.03125-.027344.058594-.027344.085938l-.015624.042968c-.027344.113282 0 .238282.085937.378906l.054687.054688h.03125c.011719 0 .027344 0 .054688.015625.027344.054687.167969.351563.546875.125.394531-.210937.664063-.644531 1.140625-.714844l-.070312-.085937c.828124.394531 1.800781.5625 2.671874.589844 1.222657.042968 2.617188-.125 3.726563-.730469.308594.097656.546875.550781.816406.761719l.027344.027343.015625.011719.011719.015625s.015625 0 .015625.015625c0 0 .011718 0 .011718.011719 0 0 .015626 0 .015626.015625h.296874s.011719 0 .011719-.015625h.015625s.011719 0 .011719-.011719h.015625s.015625 0 .015625-.015625c0 0 .011719 0 .011719-.015625l.015625-.011719s.011719 0 .011719-.015625l.015624-.011718h.015626l.027343-.03125.027344-.011719h.015625l.011719-.015625h.015625l.097656-.097656v-.015626s0-.011718.015625-.011718v-.015625s0-.011719.011719-.011719v-.015625s0-.015625.015625-.015625v-.195312s-.042969 0-.042969-.015626l-.042969-.011718v-.015625l.042969-.011719s.027344 0 .027344-.015625l.015625-.015625v-.292969s0-.015625-.015625-.015625v-.011718s0-.015626-.011719-.015626v-.015624s0-.011719-.015625-.011719c0 0 0-.015625-.015625-.015625 0 0 0-.011719-.011719-.011719 0 0 0-.015625-.015625-.015625 0 0 0-.015625-.011719-.015625 0 0 0-.011719-.015624-.011719 0 0 0-.015625-.015626-.015625 0 0 0-.011719-.011718-.011719 0 0 0-.015624-.015625-.015624 0 0 0-.015626-.011719-.015626 0 0 0-.011718-.015625-.011718 0 0 0-.015625-.015625-.015625 0 0 0-.011719-.011719-.011719 0 0 0-.015625-.015625-.015625l-.011718-.015625-.015626-.011719-.042968-.042969-.011719-.015624-.015625-.011719-.042969-.042969-.011719-.015625-.015624-.011719v-.015625l-.015626-.011719-.011718-.015624-.042969-.042969-.015625-.011719-.011719-.015625-.042969-.042969-.015624-.011718-.011719-.015626-.042969-.042968-.015625-.011719-.011719-.015625-.027344-.027344c.28125-.269531.53125-.589844.714844-.972656.832032-1.65625.691406-3.683594.578125-5.511719h.011719c.015625 0 .03125.015625.03125.015625h.039062s.015626 0 .015626.011719h.015624s.011719 0 .011719.015625l.027344.015625c.242187.167969.761719.40625.789063-.113281.226562.082031-.042969-.253906-.183594-.351563m-10.152344-5.878906c-.449219-2.25 3.148438-2.671875 3.277344-.476563.113281 1.828126-2.8125 2.289063-3.277344.476563m5.078125 2.109375c-.183594.195312-.382813.167969-.578125.097656 0 .269532.054688.550782.015625.832032-.070313.125-.210937.140624-.324219.195312-.167968-.027344-.296875-.125-.367187-.28125l-.027344-.015625c-.546875.734375-.886719-.152344-.730469-.703125-.167968.015625-.308594-.027344-.421875-.210938-.199219-.363281.097657-.8125.476563-.882812.097656.421875 1.222656.363281 1.421875-.03125.433593.210938.914062.605469.535156 1m-.984375-2.460938c-.128906-1.941406 2.851562-2.460937 3.289062-.5625.492188 2.109376-2.925781 2.65625-3.289062.5625m-3.292969-.492187c-.265625 0-.492187.238281-.492187.535156 0 .292969.226562.535157.492187.535157.269531 0 .492188-.242188.492188-.535157 0-.296875-.210938-.535156-.492188-.535156m.226563.800781c-.070313 0-.113282-.054687-.113282-.140625 0-.070312.054688-.140625.113282-.140625.070312 0 .113281.058594.113281.140625 0 .070313-.042969.140625-.113281.140625m3.910156-.925781c-.269531 0-.480469.238281-.480469.53125 0 .296875.210938.535156.480469.535156.265625 0 .476562-.238281.476562-.535156 0-.292969-.210937-.53125-.476562-.53125m.222656.785156c-.054687 0-.113281-.054687-.113281-.140625 0-.070312.058594-.140625.113281-.140625.058594 0 .113282.058594.113282.140625 0 .085938-.054688.140625-.113282.140625"/></svg>