<svg height="18" viewBox="0 0 18 18" width="18" xmlns="http://www.w3.org/2000/svg" xmlns:xlink="http://www.w3.org/1999/xlink"><linearGradient id="a"><stop offset="0" stop-color="#087cfa"/><stop offset=".02" stop-color="#0d7bfa"/><stop offset=".37" stop-color="#5566f9"/><stop offset=".66" stop-color="#8a57f8"/><stop offset=".88" stop-color="#ab4ef7"/><stop offset="1" stop-color="#b74af7"/></linearGradient><linearGradient id="b" gradientTransform="matrix(.171429 .00031117 -.00031117 .171429 0 0)" gradientUnits="userSpaceOnUse" x1="99.029999" x2="61.540001" xlink:href="#a" y1="59.18" y2="90.910004"/><linearGradient id="c" gradientTransform="matrix(.171429 .00031117 -.00031117 .171429 0 0)" gradientUnits="userSpaceOnUse" x1="37.540001" x2="60.330002" xlink:href="#a" y1="34.259998" y2="8.33"/><linearGradient id="d" gradientTransform="matrix(.171429 .00031117 -.00031117 .171429 0 0)" gradientUnits="userSpaceOnUse" x1="17.84" x2="87.089996" y1="88.360001" y2="43.860001"><stop offset="0" stop-color="#087cfa"/><stop offset=".1" stop-color="#1598d3"/><stop offset=".22" stop-color="#23b6aa"/><stop offset=".35" stop-color="#2dcc8b"/><stop offset=".46" stop-color="#35dd74"/><stop offset=".57" stop-color="#39e767"/><stop offset=".67" stop-color="#3bea62"/></linearGradient><path d="m15.269531 7.136719 1.960938 4.347656-3.359375 5.746094-2.066406-5.019531zm0 0" fill="url(#b)"/><path d="m11.804688 12.210938 2.066406 5.019531-5.199219-1.789063zm0 0" fill="#b74af7"/><path d="m12.363281 5.417969-1.0625-4.648438h-5.914062l-4.617188 7.0625 1.335938 3.242188-1.335938 2.960937 9.558594-8.132812zm0 0" fill="url(#c)"/><path d="m17.230469 4.265625-6.902344 1.636719-9.558594 8.132812 6.167969 3.195313 4.867188-5.019531zm0 0" fill="url(#d)"/><path d="m3.855469 3.855469h10.289062v10.289062h-10.289062zm0 0"/><path d="m4.824219 12.214844h3.855469v.640625h-3.855469zm-.292969-4.875v-.011719c0-.589844.234375-1.152344.652344-1.5625.417968-.410156.984375-.636719 1.574218-.621094.609376-.035156 1.207032.175781 1.667969.578125l-.589843.710938c-.296876-.285156-.695313-.441406-1.109376-.433594-.683593 0-1.21875.601562-1.21875 1.320312v.011719c0 .777344.535157 1.34375 1.285157 1.34375.3125.011719.621093-.078125.878906-.253906v-.609375h-.941406v-.804688h1.839843v1.839844c-.5.4375-1.144531.675782-1.8125.671875-1.316406 0-2.226562-.925781-2.226562-2.179687m4.433594 0v-.011719c.003906-.59375.246094-1.160156.671875-1.570313.425781-.410156 1-.632812 1.589843-.613281 1.308594 0 2.246094.972657 2.246094 2.179688v.011719c.003906.59375-.238281 1.160156-.664062 1.574218-.425782.414063-1 .636719-1.59375.621094-1.308594-.011719-2.25-.984375-2.25-2.191406m3.535156 0v-.011719c.007812-.347656-.121094-.6875-.363281-.9375-.242188-.25-.574219-.390625-.921875-.390625-.34375 0-.675782.136719-.917969.386719-.238281.246093-.367187.582031-.355469.929687v.011719c-.011718.347656.121094.6875.363282.9375.242187.253906.574218.394531.925781.394531.34375 0 .675781-.140625.914062-.390625.242188-.246093.367188-.585937.355469-.929687zm0 0" fill="#fff"/></svg>