<svg height="18" viewBox="0 0 18 18" width="18" xmlns="http://www.w3.org/2000/svg"><path d="m5.386719.769531-4.617188 7.0625 1.335938 3.242188-1.335938 2.960937 6.167969 3.195313 2.921875-3.015625h-6.074219v-10.429688h8.207032l-.691407-3.015625zm4.472656 13.445313-1.1875 1.226562 5.199219 1.789063 3.359375-5.746094-1.960938-4.347656 1.960938-2.871094-3.015625.714844v9.234375zm-5.933594-10.289063v10.148438h10.148438v-10.148438zm2.832031 1.21875c.609376-.035156 1.207032.175781 1.667969.578125l-.589843.710938c-.296876-.285156-.695313-.441406-1.109376-.433594-.683593 0-1.21875.601562-1.21875 1.320312v.011719c0 .777344.535157 1.34375 1.285157 1.34375.3125.011719.621093-.078125.878906-.253906v-.609375h-.941406v-.804688h1.839843v1.839844c-.5.4375-1.144531.675782-1.8125.671875-1.316406 0-2.226562-.925781-2.226562-2.179687v-.011719c0-.589844.234375-1.152344.652344-1.5625.417968-.410156.984375-.636719 1.574218-.621094m4.46875 0c1.308594 0 2.246094.972657 2.246094 2.179688v.011719c.003906.59375-.238281 1.160156-.664062 1.574218-.425782.414063-1 .636719-1.59375.621094-1.308594-.011719-2.25-.984375-2.25-2.191406v-.011719c.003906-.59375.246094-1.160156.671875-1.570313.425781-.410156 1-.632812 1.589843-.613281m-.011718.855469c-.34375 0-.675782.136719-.917969.386719-.238281.246093-.367187.582031-.355469.929687v.011719c-.011718.347656.121094.6875.363282.9375.242187.253906.574218.394531.925781.394531.34375 0 .675781-.140625.914062-.390625.242188-.246093.367188-.585937.355469-.929687v-.011719c.007812-.347656-.121094-.6875-.363281-.9375-.242188-.25-.574219-.390625-.921875-.390625m-6.390625 6.214844h3.855469v.640625h-3.855469zm0 0" fill="#087cfa"/></svg>