<svg height="18" viewBox="0 0 18 18" width="18" xmlns="http://www.w3.org/2000/svg"><path d="m6.269531.59375c-3.691406 1.277344-6.117187 4.820312-5.976562 8.722656.140625 3.90625 2.8125 7.265625 6.585937 8.277344 1.492188.382812 3.050782.402344 4.550782.050781 1.359374-.304687 2.613281-.957031 3.640624-1.894531 1.074219-1.003906 1.851563-2.28125 2.25-3.691406.4375-1.539063.515626-3.152344.226563-4.722656h-8.367187v3.472656h4.847656c-.195313 1.117187-.839844 2.109375-1.78125 2.742187-.59375.394531-1.257813.65625-1.960938.773438-.699218.132812-1.421875.132812-2.121094 0-.710937-.144531-1.386718-.4375-1.976562-.859375-.949219-.675782-1.664062-1.628906-2.039062-2.730469-.382813-1.125-.382813-2.34375 0-3.464844.265624-.789062.707031-1.503906 1.289062-2.097656 1.363281-1.40625 3.394531-1.9375 5.269531-1.375.71875.21875 1.375.605469 1.917969 1.125.546875-.542969 1.089844-1.089844 1.636719-1.636719.28125-.292968.585937-.574218.863281-.875-.828125-.769531-1.800781-1.371094-2.863281-1.765625-1.933594-.6992185-4.046875-.7187498-5.992188-.050781" fill="#fff"/><path d="m6.269531.59375c1.945313-.6679688 4.058594-.6523438 5.992188.050781 1.0625.398438 2.035156 1 2.863281 1.773438-.28125.300781-.578125.582031-.867188.875-.542968.546875-1.089843 1.089843-1.632812 1.628906-.542969-.519531-1.199219-.90625-1.917969-1.125-1.875-.566406-3.90625-.039063-5.269531 1.371094-.582031.589843-1.023438 1.308593-1.289062 2.09375l-2.917969-2.253907c1.042969-2.070312 2.851562-3.652343 5.039062-4.414062" fill="#e33629"/><path d="m.457031 7.242188c.15625-.777344.417969-1.527344.773438-2.234376l2.917969 2.261719c-.382813 1.121094-.382813 2.339844 0 3.464844-.972657.75-1.945313 1.5-2.917969 2.257813-.890625-1.777344-1.1640628-3.800782-.773438-5.75" fill="#f8bd00"/><path d="m9.179688 7.332031h8.367187c.289063 1.570313.210937 3.1875-.226563 4.722657-.398437 1.414062-1.175781 2.691406-2.25 3.695312-.9375-.734375-1.882812-1.464844-2.824218-2.199219.941406-.632812 1.585937-1.625 1.78125-2.746093h-4.847656c-.003907-1.15625 0-2.3125 0-3.472657" fill="#587dbd"/><path d="m1.230469 12.992188c.972656-.75 1.945312-1.503907 2.914062-2.257813.375 1.101563 1.089844 2.058594 2.042969 2.730469.59375.417968 1.269531.710937 1.980469.855468.703125.128907 1.421875.128907 2.121093 0 .703126-.121093 1.367188-.382812 1.960938-.773437.941406.730469 1.886719 1.460937 2.828125 2.195313-1.03125.9375-2.285156 1.589843-3.644531 1.894531-1.496094.351562-3.058594.335937-4.550782-.050781-1.179687-.3125-2.277343-.867188-3.234374-1.628907-1.007813-.800781-1.835938-1.8125-2.417969-2.964843" fill="#319f43"/></svg>