<svg height="18" viewBox="0 0 18 18" width="18" xmlns="http://www.w3.org/2000/svg"><path d="m17.929688 9c0 4.933594-4.003907 8.917969-8.917969 8.917969-4.9375.023437-8.9414065-3.984375-8.9414065-8.917969 0-4.914062 4.0039065-8.9179688 8.9179685-8.9179688 4.9375 0 8.941407 4.0039068 8.941407 8.9179688" fill="#feb571"/><path d="m4.695312 3.199219c-.164062 0-.308593.039062-.453124.082031-.125.0625-.25.125-.351563.226562-.082031.101563-.164063.207032-.226563.351563-.0625.125-.082031.289063-.082031.453125s.039063.308594.101563.433594c.042968.144531.125.25.226562.351562.105469.101563.207032.1875.351563.226563.144531.0625.289062.082031.453125.082031.167968 0 .308594-.019531.457031-.039062.140625-.023438.265625-.082032.410156-.144532v-1.09375h-.804687v.410156h.371094v.351563c-.039063.023437-.101563.042969-.164063.0625-.082031.019531-.164063.042969-.269531.042969-.101563 0-.183594 0-.269532-.042969-.082031-.042969-.144531-.082031-.203124-.144531-.0625-.0625-.105469-.144532-.144532-.226563-.023437-.082031-.042968-.164062-.042968-.269531 0-.082031 0-.183594.042968-.269531.039063-.082031.082032-.164063.144532-.226563.058593-.0625.121093-.101562.203124-.144531.085938-.019531.167969-.039063.269532-.039063.125 0 .226562 0 .3125.039063.082031.042969.144531.082031.203125.144531l.3125-.347656c-.125-.105469-.230469-.167969-.371094-.207031-.144531-.042969-.3125-.0625-.476563-.0625zm10.199219 0c-.0625 0-.101562.019531-.164062.039062-.0625.023438-.105469.082031-.125.125-.027344.050781-.039063.109375-.042969.164063 0 .0625.023438.125.042969.167968.042969.058594.0625.101563.125.121094.039062.023438.101562.042969.164062.042969s.101563-.019531.164063-.042969c.0625-.019531.105468-.0625.125-.121094.019531-.042968.042968-.105468.042968-.167968s0-.101563-.042968-.164063c-.042969-.0625-.0625-.101562-.125-.125-.050782-.023437-.105469-.039062-.164063-.039062m-1.257812.019531c-.085938 0-.1875.019531-.289063.042969-.082031.019531-.167968.058593-.25.121093-.082031.042969-.144531.125-.183594.207032-.042968.082031-.0625.1875-.0625.289062 0 .105469.019532.207032.0625.269532.058594.0625.121094.125.183594.164062.0625.042969.144532.082031.226563.105469.105469.019531.167969.058593.25.082031.082031.039062.144531.0625.183593.101562.0625.042969.082032.105469.082032.164063 0 .042969 0 .085937-.019532.105469-.015624.035156-.046874.066406-.082031.082031-.019531.019531-.0625.042969-.101562.042969-.042969.019531-.085938.019531-.125.019531-.082031 0-.144531-.019531-.226563-.0625-.082031-.042969-.144531-.082031-.1875-.144531l-.308594.351562c.082032.082032.207032.144532.308594.183594.105469.042969.226563.0625.371094.0625.105469 0 .207031 0 .332031-.0625.082031-.019531.164063-.058594.246094-.121094.0625-.042968.125-.125.167969-.207031.039062-.082031.0625-.1875.0625-.308594 0-.125-.023438-.230469-.0625-.289062-.0625-.0625-.125-.125-.1875-.167969-.070313-.046875-.144532-.082031-.226563-.101562-.082031-.019532-.144531-.042969-.226562-.0625-.082031-.019532-.144531-.042969-.1875-.082032-.0625-.042968-.082031-.105468-.082031-.164062 0-.042969.019531-.085938.042968-.105469.019532-.019531.039063-.039063.082032-.0625.039062-.019531.0625-.039063.101562-.039063.042969-.023437.0625-.023437.105469-.023437.058593 0 .121093.023437.183593.042969.0625.019531.105469.0625.144532.101562l.3125-.328125c-.085938-.082031-.1875-.125-.292969-.164062-.121094-.023438-.226563-.042969-.347656-.042969m1.257812.019531c.0625 0 .101563.023438.144531.042969.042969.019531.082032.0625.101563.101562.023437.042969.042969.105469.042969.144532 0 .0625-.019532.105468-.042969.144531-.023437.046875-.058594.082031-.101563.105469-.042968.019531-.082031.039062-.144531.039062s-.101562-.019531-.144531-.039062c-.042969-.023438-.078125-.058594-.101562-.105469-.023438-.039063-.042969-.082031-.042969-.144531s.019531-.101563.042969-.144532c.023437-.042968.058593-.078124.101562-.101562.042969-.019531.105469-.042969.144531-.042969zm-8.878906.023438v2.105469h.433594v-.847657h.25l.433593.847657v-.023438h.535157l-.535157-.886719h.039063c.125-.019531.226563-.082031.3125-.183593.082031-.105469.121094-.226563.121094-.375 0-.121094-.019531-.226563-.0625-.308594-.035157-.074219-.09375-.136719-.164063-.183594-.074218-.050781-.160156-.085938-.246094-.105469-.105468-.039062-.207031-.039062-.3125-.039062zm2.726563 0-.910157 2.105469h.496094l.167969-.457032h.84375l.1875.457032v-.023438h.496094l-.910157-2.082031zm1.546874 0v2.082031h.433594v-2.082031zm.972657 0v2.105469h1.300781v-.414063h-.847656v-1.691406zm3.507812.058593v.394532h.0625v-.164063h.042969c.039062 0 .039062.019531.0625.019531.019531 0 .019531.019532.019531.039063v.085937h.082031v-.085937c0-.019531-.019531-.039063-.019531-.058594 0-.023437-.023437-.042969-.042969-.042969.042969-.019531.0625-.042968.0625-.082031 0-.042969-.019531-.0625-.039062-.082031-.023438-.023438-.0625-.023438-.105469-.023438zm.0625.0625h.0625c.019531 0 .042969.023438.0625.023438s.019531.019531.019531.039062c0 .023438 0 .042969-.019531.042969-.019531.019531-.042969.019531-.0625.019531h-.0625zm-8.382812.25h.433593c.042969.019532.082032.019532.125.039063.019532.023437.0625.042969.082032.082031.019531.042969.042968.085938.042968.144532 0 .0625-.023437.105468-.042968.144531-.019532.042969-.0625.0625-.101563.085937-.042969 0-.082031.019532-.125.019532h-.414062zm2.480469.207032.265624.699218h-.558593zm-.023438 2.394531c-4.066406 0-5.058594.019531-5.285156.019531-.042969 0-.0625.042969-.0625.0625.023437.207032.023437.496094.207031 1.15625.144531.535156.476563 1.03125.804687 1.445313.1875.226562.640626.660156.867188.847656.207031.164063.515625.371094.765625.492187.183594.105469.660156.289063.804687.351563.207032.105469.496094.332031.679688.601563.125.203124.25.472656.289062.636718.023438.105469.042969.269532.042969.457032 0 .453124-.082031 1.03125-.226562 1.445312-.164063.453125-.269531.617188-.476563 1.074219-.082031.203125-.164062.390625-.207031.472656-.019531.042969-.019531.082031.023437.101563.058594.085937.164063.230468.371094.351562.351563.1875 1.074219.25 1.425782.25.347656 0 1.09375-.0625 1.421874-.25.207032-.101562.308594-.265625.371094-.351562.023438-.039063.023438-.082032.023438-.101563-.042969-.082031-.125-.289063-.207032-.472656-.207031-.476563-.289062-.621094-.476562-1.074219-.144531-.414062-.226562-.992188-.226562-1.445312 0-.1875 0-.351563.042968-.457032.039063-.183594.164063-.433594.289063-.636718.164062-.269532.472656-.496094.679687-.601563.144532-.082031.621094-.246094.804688-.351563.226562-.121093.539062-.328124.765625-.492187.226562-.1875.679687-.621094.867187-.847656.328125-.414063.660156-.910157.804688-1.445313.183594-.660156.183594-.949218.207031-1.15625-.042969-.019531-.0625-.0625-.105469-.0625-.226562 0-1.214844-.019531-5.285156-.019531m-5.203125 2c-1.402344 0-1.816406.023437-1.917969.023437-.023437 0-.042968.019532-.042968.039063.019531.144531 0 .3125.125.722656.082031.332031.289062.621094.496093.890625.121094.121094.390625.410156.535157.515625.144531.101563.332031.226563.476562.308594.101562.0625.410156.183594.496094.226563.121094.0625.308594.207031.410156.371093.0625.125.144531.289063.167969.394531.019531.0625.019531.164063.019531.289063 0 .265625-.042969.640625-.144531.886719-.105469.289062-.167969.371094-.289063.660156-.042968.125-.105468.226562-.125.289062-.019531.019532-.019531.042969 0 .0625.042969.042969.105469.144532.226563.207032.226562.125.660156.164062.890625.164062.226562 0 .679687-.039062.886718-.164062.125-.0625.183594-.164063.226563-.207032v-.0625c-.019531-.042968-.0625-.164062-.125-.289062-.121094-.289062-.183594-.371094-.289063-.660156-.101562-.25-.144531-.621094-.144531-.886719 0-.125 0-.226563.023438-.289063.039062-.105468.101562-.269531.183593-.394531.101563-.164062.289063-.308593.414063-.371093.0625-.039063.246094-.101563.371094-.164063.027343-.007813.046875-.035156.046875-.0625s-.019532-.054687-.046875-.0625c-1.382813-.472656-2.414063-1.34375-2.808594-2.394531 0-.019532-.042969-.042969-.0625-.042969zm10.46875 0c-.019531 0-.0625.023437-.0625.042969-.414063 1.074218-1.445313 1.941406-2.808594 2.414062-.027343.007813-.046875.035156-.046875.0625 0 .03125.019532.054688.046875.0625.125.0625.3125.125.371094.164063.125.0625.3125.207031.414063.371093.082031.125.144531.292969.1875.394532.019531.0625.019531.164062.019531.289062 0 .269532-.042969.640625-.144531.886719-.101563.289063-.164063.371094-.289063.660156-.0625.125-.101563.25-.125.289063v.0625c.042969.042968.105469.144531.226563.207031.207031.125.664062.164063.890624.164063.226563 0 .660157-.039063.886719-.164063.125-.0625.1875-.164063.226563-.207031.019531-.019532.019531-.039063 0-.0625-.019532-.058594-.082032-.164063-.125-.289063-.121094-.289062-.183594-.371093-.285156-.660156-.105469-.246094-.148438-.617187-.148438-.886719 0-.125 0-.226562.023438-.289062.019531-.101563.101562-.269532.164062-.390625.101562-.167969.289062-.3125.414062-.375.082032-.039063.390626-.164063.496094-.226563.144532-.082031.328125-.207031.472656-.308594.144532-.101562.414063-.394531.539063-.515624.203125-.269532.410156-.558594.492187-.886719.125-.414063.105469-.578125.125-.722657-.019531-.042968-.019531-.0625-.039062-.0625-.105469 0-.515625-.023437-1.921875-.023437" fill="#fff"/></svg>