<svg height="18" viewBox="0 0 18 18" width="18" xmlns="http://www.w3.org/2000/svg"><path d="m8.988281.0820312c-4.914062 0-8.9179685 4.0039068-8.9179685 8.9179688 0 4.933594 4.0039065 8.941406 8.9414065 8.917969 4.914062 0 8.917969-3.984375 8.917969-8.917969 0-4.914062-4.003907-8.9179688-8.941407-8.9179688m-4.292969 3.1171878c.164063 0 .328126.019531.476563.0625.140625.039062.246094.101562.371094.203125l-.3125.351562c-.058594-.0625-.121094-.101562-.207031-.144531-.082032-.039063-.183594-.039063-.308594-.039063-.101563 0-.183594.019532-.269532.039063-.082031.042969-.144531.082031-.203124.144531-.0625.0625-.105469.144532-.144532.226563-.042968.085937-.042968.1875-.042968.269531 0 .105469.019531.1875.042968.269531.039063.082031.082032.164063.144532.226563.058593.0625.121093.101562.203124.144531.085938.042969.167969.042969.269532.042969.105468 0 .1875-.023438.269531-.042969.0625-.019531.125-.042969.164063-.0625v-.351563h-.371094v-.410156h.804687v1.09375c-.144531.0625-.269531.121094-.410156.144532-.144531.019531-.289063.039062-.457031.039062-.164063 0-.308594-.019531-.453125-.082031-.144531-.039063-.246094-.125-.351563-.226563-.101562-.101562-.183594-.207031-.226562-.351562-.066406-.132813-.105469-.28125-.101563-.433594 0-.164062.019531-.328125.082031-.453125.0625-.144531.144532-.25.226563-.351563.101563-.101562.226563-.164062.351563-.226562.144531-.042969.289062-.082031.453124-.082031m10.199219 0c.0625 0 .125.019531.164063.039062.0625.023438.082031.0625.125.125.042968.0625.042968.101563.042968.164063s-.023437.125-.042968.167968c-.019532.058594-.066406.105469-.125.121094-.0625.023438-.101563.042969-.164063.042969s-.125-.019531-.164062-.042969c-.0625-.019531-.082031-.0625-.125-.121094-.019531-.042968-.042969-.105468-.042969-.167968s.023438-.121094.042969-.164063.0625-.101562.125-.125c.0625-.019531.101562-.039062.164062-.039062m-1.257812.019531c.121093 0 .226562.019531.347656.042969.105469.039062.207031.082031.292969.164062l-.3125.332031c-.039063-.042968-.082032-.085937-.144532-.105468-.0625-.019532-.125-.042969-.183593-.042969-.042969 0-.0625 0-.105469.023437-.039062 0-.0625.019532-.101562.039063-.03125.015625-.058594.039063-.082032.0625-.023437.019531-.042968.0625-.042968.105469 0 .058594.019531.121094.082031.164062.042969.039063.105469.0625.1875.082032.082031.019531.144531.042968.226562.0625.082031.019531.164063.0625.226563.101562.0625.042969.125.105469.1875.167969.039062.058593.0625.164062.0625.289062 0 .121094-.023438.226563-.0625.308594-.042969.082031-.105469.164063-.167969.207031-.082031.0625-.164063.101563-.246094.121094-.125.0625-.226562.0625-.332031.0625-.144531 0-.265625-.019531-.371094-.0625-.101562-.039062-.226562-.101562-.308594-.183594l.308594-.351562c.042969.0625.105469.101562.1875.144531.082032.042969.144532.0625.226563.0625.039062 0 .082031 0 .125-.019531.039062 0 .082031-.023438.101562-.042969.042969-.019531.0625-.042969.082031-.082031.019532-.019532.019532-.0625.019532-.105469 0-.058594-.019532-.121094-.082032-.164063-.039062-.039062-.101562-.0625-.183593-.101562-.082031-.023438-.144531-.0625-.25-.082031-.078125-.023438-.15625-.058594-.226563-.105469-.0625-.039062-.125-.101562-.183594-.164062-.042968-.0625-.0625-.164063-.0625-.269532 0-.101562.019532-.207031.0625-.289062.039063-.082032.101563-.164063.183594-.207032.082032-.0625.164063-.101562.25-.121093.101563-.023438.203125-.042969.289063-.042969m1.257812.019531c-.042969 0-.101562.023438-.144531.042969-.042969.023438-.078125.058594-.101562.101562-.023438.042969-.042969.082032-.042969.144532s.019531.105468.042969.144531c.019531.042969.058593.085937.101562.105469.042969.019531.082031.039062.144531.039062s.101563-.019531.144531-.039062c.042969-.023438.082032-.058594.101563-.105469.023437-.039063.042969-.082031.042969-.144531 0-.039063-.019532-.101563-.042969-.144532-.019531-.042968-.058594-.078124-.101563-.101562-.042968-.019531-.082031-.042969-.144531-.042969m-8.878906.023438h.804687c.105469 0 .207032 0 .3125.039062.085938.019531.171876.054688.246094.105469.0625.039062.125.101562.164063.183594.042969.082031.0625.1875.0625.308594 0 .144531-.039063.269531-.121094.375-.085937.101562-.1875.164062-.3125.183593h-.039063l.535157.886719h-.535157v.023438l-.433593-.847657h-.25v.847657h-.433594zm2.726563 0h.371093l.910157 2.082031h-.496094v.023438l-.1875-.457032h-.84375l-.167969.457032h-.496094zm1.546874 0h.433594v2.082031h-.433594zm.972657 0h.453125v1.691406h.847656v.414063h-1.300781zm3.507812.058593h.125c.042969 0 .082031 0 .101563.023438.023437.019531.042968.039062.042968.082031 0 .039063-.019531.0625-.0625.082031.019532 0 .042969.019532.042969.042969 0 .019531.019531.039063.019531.058594v.085937h-.082031v-.085937c0-.019531 0-.039063-.019531-.039063-.023438 0-.023438-.019531-.0625-.019531h-.042969v.164063h-.0625zm.0625.0625v.125h.0625c.019531 0 .042969 0 .0625-.019531.019531 0 .019531-.019531.019531-.042969 0-.019531 0-.039062-.019531-.039062s-.042969-.023438-.0625-.023438zm-8.382812.25v.515626h.414062c.042969 0 .082031-.019532.125-.019532.039063-.023437.082031-.042968.101563-.085937.019531-.039063.042968-.082031.042968-.144531 0-.058594-.023437-.101563-.042968-.140626-.019532-.042968-.0625-.0625-.082032-.085937-.042968-.019531-.082031-.019531-.125-.039063zm2.476562.207032-.289062.699218h.558593zm-.019531 2.394531c4.066406 0 5.058594.019531 5.285156.019531.042969 0 .0625.042969.105469.0625-.023437.207032-.023437.496094-.207031 1.15625-.144532.535156-.476563 1.03125-.804688 1.445313-.1875.226562-.640625.660156-.867187.847656-.226563.164063-.539063.371094-.765625.492187-.183594.105469-.660156.269532-.804688.351563-.207031.105469-.515625.332031-.679687.601563-.125.203124-.25.453124-.289063.636718-.042968.105469-.042968.269532-.042968.457032 0 .453124.082031 1.03125.226562 1.445312.1875.453125.269531.597656.476562 1.074219.082032.183593.164063.390625.207032.472656 0 .019531 0 .0625-.023438.105469-.058594.082031-.164062.246094-.371094.347656-.328124.1875-1.074218.25-1.421874.25-.351563 0-1.074219-.0625-1.425782-.25-.207031-.121094-.3125-.265625-.371094-.347656-.042968-.023438-.042968-.0625-.023437-.105469.042969-.082031.125-.269531.207031-.472656.207032-.457031.3125-.621094.476563-1.074219.144531-.414062.226562-.992188.226562-1.445312 0-.1875-.019531-.351563-.042969-.457032-.039062-.164062-.164062-.433594-.289062-.636718-.183594-.269532-.472656-.496094-.679688-.601563-.144531-.0625-.621093-.246094-.804687-.351563-.25-.121093-.558594-.328124-.765625-.492187-.226562-.1875-.679688-.621094-.867188-.847656-.328124-.414063-.660156-.910157-.804687-1.445313-.183594-.660156-.183594-.949218-.207031-1.15625 0-.019531.019531-.0625.0625-.0625.226562 0 1.21875-.019531 5.285156-.019531m-5.203125 2c.023437 0 .0625.023437.0625.042969.394531 1.050781 1.425781 1.921875 2.808594 2.394531.0625.019531.0625.105469 0 .125-.125.0625-.308594.125-.371094.164063-.125.0625-.3125.207031-.414063.371093-.082031.125-.144531.289063-.183593.394531-.023438.0625-.023438.164063-.023438.289063 0 .265625.042969.636719.144531.886719.105469.289062.167969.371094.289063.660156.0625.125.105469.246094.125.289062v.0625c-.042969.042969-.101563.144532-.226563.207032-.207031.125-.660156.164062-.890624.164062-.226563 0-.660157-.039062-.886719-.164062-.125-.0625-.183594-.164063-.226563-.207032-.019531-.019531-.019531-.042968 0-.0625.019532-.0625.082032-.164062.125-.289062.121094-.289062.183594-.371094.289063-.660156.101562-.25.144531-.621094.144531-.886719 0-.125 0-.226563-.023438-.289063-.019531-.105468-.101562-.269531-.164062-.394531-.101562-.164062-.289062-.308593-.410156-.371093-.085938-.039063-.394532-.164063-.496094-.226563-.144531-.082031-.332031-.207031-.476562-.308594-.144532-.105469-.414063-.394531-.535157-.515625-.207031-.269531-.414062-.558594-.496093-.890625-.125-.410156-.105469-.578125-.125-.722656 0-.019531.019531-.039063.042968-.039063.101563 0 .515625-.023437 1.917969-.023437m10.46875 0c1.402344 0 1.816406.023437 1.921875.023437.019531 0 .019531.019532.039062.0625-.019531.144532 0 .308594-.125.722657-.082031.328125-.289062.617187-.492187.886719-.125.121093-.394531.410156-.539063.515624-.144531.101563-.328124.226563-.472656.308594-.105468.0625-.414062.1875-.496094.226563-.125.0625-.3125.207031-.414062.371093-.0625.125-.144531.292969-.164062.394532-.023438.0625-.023438.164062-.023438.289062 0 .269532.042969.640625.144531.886719.105469.289063.167969.371094.289063.660156.042968.125.105468.230469.125.289063.023437.023437.023437.042968 0 .0625-.039063.042968-.101563.144531-.226563.207031-.226562.125-.660156.164063-.886719.164063-.226562 0-.683593-.039063-.890624-.164063-.121094-.0625-.183594-.164063-.226563-.207031v-.0625c.023437-.039063.0625-.164063.125-.289063.125-.289062.1875-.371093.289063-.660156.101562-.246094.144531-.617187.144531-.886719 0-.125 0-.226562-.019531-.289062-.042969-.101563-.105469-.269532-.1875-.390625-.101563-.167969-.289063-.3125-.414063-.375-.058594-.039063-.246094-.101563-.371094-.164063-.027343-.007812-.042969-.03125-.042969-.0625 0-.027344.015626-.050781.042969-.0625 1.363281-.472656 2.394531-1.339844 2.808594-2.414062 0-.019532.042969-.042969.0625-.042969zm0 0"/></svg>