<svg height="18" viewBox="0 0 18 18" width="18" xmlns="http://www.w3.org/2000/svg"><g fill="none" stroke="#fff" stroke-linecap="round" stroke-linejoin="round" stroke-width="2" transform="scale(.75)"><path d="m13 5c0 .552083-.447917 1-1 1s-1-.447917-1-1 .447917-1 1-1 1 .447917 1 1zm0 0"/><path d="m20 5c0 .552083-.447917 1-1 1s-1-.447917-1-1 .447917-1 1-1 1 .447917 1 1zm0 0"/><path d="m6 5c0 .552083-.447917 1-1 1s-1-.447917-1-1 .447917-1 1-1 1 .447917 1 1zm0 0"/><path d="m13 12c0 .552083-.447917 1-1 1s-1-.447917-1-1 .447917-1 1-1 1 .447917 1 1zm0 0"/><path d="m20 12c0 .552083-.447917 1-1 1s-1-.447917-1-1 .447917-1 1-1 1 .447917 1 1zm0 0"/><path d="m6 12c0 .552083-.447917 1-1 1s-1-.447917-1-1 .447917-1 1-1 1 .447917 1 1zm0 0"/><path d="m13 19c0 .552083-.447917 1-1 1s-1-.447917-1-1 .447917-1 1-1 1 .447917 1 1zm0 0"/><path d="m20 19c0 .552083-.447917 1-1 1s-1-.447917-1-1 .447917-1 1-1 1 .447917 1 1zm0 0"/><path d="m6 19c0 .552083-.447917 1-1 1s-1-.447917-1-1 .447917-1 1-1 1 .447917 1 1zm0 0"/></g></svg>