<svg height="18" viewBox="0 0 18 18" width="18" xmlns="http://www.w3.org/2000/svg"><path d="m8.054688 6.066406c-.882813 1.464844-.933594 1.542969-1.054688 1.601563-.113281.054687-.136719.058593-.183594.023437-.179687-.140625-.425781-.097656-.597656.101563l-.09375.109375-.019531-.117188c-.03125-.1875-.042969-.214844-.117188-.296875-.074219-.074219-.074219-.078125-.03125-.308593.050781-.289063.054688-.496094.007813-.707032-.085938-.40625-.300782-.59375-.679688-.59375-.328125 0-.722656.261719-1.222656.816406-.300781.335938-.761719.964844-.859375 1.179688l-.035156.085938-1.574219-.019532c-.980469-.015625-1.5664062-.011718-1.546875.007813.015625.015625.6875.273437 1.492187.574219l1.46875.546874.054688.128907c.0625.148437.234375.34375.378906.433593l.101563.066407-.121094.054687c-.089844.039063-.136719.085938-.183594.183594-.097656.195312-.066406.308594.152344.554688.097656.109374.234375.304687.300781.4375.082032.15625.15625.253906.21875.292968.101563.0625.289063.074219.378906.027344.101563-.054688.6875-.203125.667969-.167969-.007812.019531-.355469.558594-.761719 1.199219-.410156.644531-.738281 1.175781-.730468 1.183594.007812.007812 1.253906-.46875 2.773437-1.058594l2.757813-1.070312 2.753906 1.066406c1.511719.589844 2.761719 1.066406 2.777344 1.058594.011718-.003907-.183594-.332032-.4375-.730469l-.460938-.722657.15625-.03125c.359375-.074218.765625-.355468.984375-.6875.316407-.484374.363281-1.042968.152344-1.847656-.042969-.164062-.070313-.300781-.0625-.308594.007813-.011718.703125-.273437 1.539063-.585937.839843-.3125 1.539062-.582031 1.554687-.597656.011719-.011719-.722656-.015625-1.671875-.007813-1.445312.015625-1.703125.011719-1.714844-.023437-.007812-.039063-.019531-.082031-.027344-.121094-.019531-.089844-.152343-.230469-.257812-.269531-.039062-.015625-.167969-.03125-.289062-.035156-.191407-.003907-.230469.003906-.324219.078124-.054688.042969-.113281.105469-.121094.140626-.027344.078124-.058594.074218-.109375-.015626-.113281-.214843-.457031-.261718-.632812-.085937l-.085938.089844-.175781-.085938c-.214844-.109375-.480469-.140625-.632813-.074219-.074218.027344-.128906.035157-.179687.015626-.125-.046876-.324219-.011719-.417969.078124l-.085938.082032-.136718-.09375c-.074219-.050782-.175782-.105469-.21875-.121094-.070313-.027344-.238282-.28125-.96875-1.5-.488282-.808594-.894532-1.46875-.902344-1.46875-.011719 0-.4375.691406-.945312 1.535156m-2.628907.253906c.15625.109376.195313.417969.109375.871094-.09375.5-.238281.820313-.5 1.101563-.171875.1875-.363281.292969-.542968.292969-.414063.007812-.519532-.402344-.246094-.957032.097656-.203125.351562-.550781.398437-.550781.023438 0 .09375.285156.09375.375 0 .03125-.054687.152344-.125.265625-.101562.167969-.125.238281-.125.351562 0 .4375.410157.382813.628907-.082031.222656-.472656.347656-1.382812.210937-1.535156-.074219-.082031-.117187-.078125-.316406.015625-.316407.144531-.972657.910156-1.199219 1.394531-.222656.476563-.175781.972657.117188 1.238281.292968.261719.753906.214844 1.09375-.117187.261718-.253906.457031-.625.539062-1.019531.050781-.234375.121094-.261719.144531-.050782.011719.082032.085938.355469.167969.609376.207031.628906.246094.796874.246094 1.035156 0 .265625-.089844.457031-.296875.652344-.203125.1875-.484375.3125-1.007813.453124-.234375.0625-.472656.132813-.539062.15625-.152344.054688-.164063.050782-.199219-.035156-.046875-.132812-.238281-.414062-.363281-.546875l-.121094-.125.121094-.03125c.402344-.109375.996094-.324219 1.28125-.464843.34375-.171876.5625-.347657.664062-.53125.078125-.148438.074219-.507813-.007812-.6875l-.066406-.132813-.035157.089844c-.191406.5-.5625.871093-1.003906 1.011719-.265625.085937-.613281.0625-.828125-.054688-.375-.207031-.445312-.617188-.191406-1.148438.292968-.617187 1.125-1.589843 1.542968-1.800781.214844-.105469.257813-.113281.355469-.042969m5.335938 1.585938c.339843.167969.554687.535156.558593.945312.003907.304688-.070312.511719-.246093.6875-.167969.167969-.347657.226563-.59375.199219-.417969-.050781-.660157-.292969-.695313-.699219-.03125-.421874.179688-1.003906.421875-1.148437.140625-.085937.363281-.078125.554688.015625m-1.496094.070312c.050781.039063.132813.152344.191406.265626.09375.1875.097657.21875.097657.519531 0 .292969-.003907.328125-.097657.515625-.183593.371094-.515625.585937-.867187.554687-.199219-.015625-.300782-.085937-.394532-.269531-.128906-.257812-.082031-.761719.113282-1.179688.09375-.203124.351562-.484374.457031-.5.144531-.019531.410156.03125.5.09375m4.851563-.0625c.019531.011719.089843.285157.160156.605469.070312.324219.175781.769531.238281.992188.089844.347656.105469.449219.105469.75.003906.429687-.050782.617187-.246094.875-.335938.449219-.835938.621093-1.648438.5625-.1875-.011719-.347656-.03125-.359374-.042969-.011719-.011719.023437-.054688.078124-.09375.152344-.121094.25-.316406.265626-.539062.011718-.105469.023437-.195313.03125-.195313.007812 0 .148437.035156.316406.078125.667968.171875 1.105468.023438 1.316406-.453125.082031-.191406.101562-.519531.042969-.839844l-.039063-.238281-.003906.179688c-.003906.097656-.023438.269531-.046875.378906-.082031.375-.226563.566406-.4375.566406-.242187 0-.375-.261719-.464844-.90625-.144531-1.035156-.191406-1.238281-.332031-1.425781-.085938-.109375-.089844-.125-.03125-.203125.039062-.054688.046875-.046875.113281.089844.042969.082031.132813.324218.203125.539062.1875.582031.273438.722656.460938.792969.105468.039062.261718-.023438.332031-.132813.160156-.246094.132813-.578125-.089844-1.027344-.054687-.105468-.105469-.210937-.15625-.3125-.015625-.03125.148438-.03125.191407 0m-3.945313.09375c-.09375.128907-.125.238282-.125.429688-.003906.46875.453125.75.882813.554688.339843-.15625.378906-.417969.117187-.765626-.164063-.214843-.484375-.363281-.589844-.277343-.078125.066406-.050781.144531.085938.257812.160156.136719.1875.1875.113281.242188-.167969.128906-.457031-.050781-.457031-.289063 0-.066406.015625-.148437.03125-.183594.046875-.085937.011719-.070312-.058594.03125m2.171875-.046874c.382812.160156.671875.824218.636719 1.460937-.015625.339844-.09375.550781-.25.6875-.210938.183594-.515625.0625-.6875-.273437-.082031-.160157-.152344-.40625-.269531-.941407-.089844-.402343-.167969-.632812-.253907-.742187-.050781-.066406-.050781-.078125-.011719-.136719.023438-.035156.058594-.066406.070313-.066406.046875 0 .148437.25.222656.558593.089844.347657.136719.472657.230469.589844.140625.183594.433594.234375.578125.101563.179687-.167969.222656-.414063.125-.710938-.085937-.261719-.398437-.527343-.5-.421875-.023437.019532-.019531.050782.015625.105469.027344.042969.050781.101563.050781.136719 0 .082031-.0625.210937-.105469.210937-.042968 0-.148437-.097656-.210937-.195312-.058594-.085938-.066406-.296875-.015625-.359375.046875-.058594.242188-.058594.375-.003906m-3.464844.078124c-.085937.085938-.074218.125.078125.296876.140625.15625.140625.15625.085938.21875-.03125.035156-.085938.074218-.125.085937-.082031.035156-.238281-.019531-.277344-.089844-.042969-.082031-.035156-.316406.011719-.4375.0625-.148437 0-.128906-.105469.039063-.164063.261718-.191406.566406-.066406.804687.1875.363281.644531.324219.941406-.085937.136719-.191406.109375-.421875-.082031-.675782-.152344-.199218-.347656-.265624-.460938-.15625m-2.242187.226563c.039062.113281.085937.210937.105469.214844.042968.015625.246093-.167969.351562-.320313.046875-.066406.09375-.121094.109375-.121094s.046875.042969.074219.09375c.023437.046876.082031.101563.125.121094.074218.027344.09375.015625.203125-.101562l.121093-.128906.007813.097656c.015625.179687-.207031.484375-.410156.550781-.089844.03125-.121094.023437-.28125-.058594-.136719-.070312-.191407-.085937-.234375-.0625-.078125.042969-.09375.171875-.042969.367188.058594.222656.117187.34375.234375.464843.113281.121094.238281.128907.457031.027344l.148438-.070312v.339844l.003906.339843-.117187.042969c-.144532.058594-.332032.058594-.441407.003906-.125-.066406-.199219-.261718-.289062-.742187-.097657-.558594-.171875-.777344-.300781-.914063-.054688-.058594-.089844-.121094-.082032-.140625.050782-.082031.171875-.230469.179688-.21875.007812.003907.042968.101563.078125.214844m6.535156 2.085937c0 .015626-.023437.027344-.046875.027344-.027344 0-.039062-.011718-.03125-.027344.011719-.019531.03125-.03125.046875-.03125s.03125.011719.03125.03125" fill-rule="evenodd"/></svg>