<svg height="18" viewBox="0 0 18 18" width="18" xmlns="http://www.w3.org/2000/svg" xmlns:xlink="http://www.w3.org/1999/xlink"><linearGradient id="a" gradientUnits="userSpaceOnUse" x1="3.924669" x2="5.387998" y1="7.312371" y2="7.243561"><stop offset="0" stop-color="#00b5b2"/><stop offset=".13" stop-color="#00b9b6"/><stop offset=".275" stop-color="#1cbcba"/><stop offset=".486" stop-color="#44c1bf"/><stop offset=".646" stop-color="#57c4c3"/><stop offset=".79" stop-color="#63c7c6"/><stop offset=".901" stop-color="#6cc9c8"/><stop offset="1" stop-color="#72cbca"/></linearGradient><linearGradient id="b" gradientUnits="userSpaceOnUse" x1=".000012" x2="2.494848" y1="6.600111" y2="6.856578"><stop offset="0" stop-color="#71caca"/><stop offset=".122" stop-color="#66c7c7"/><stop offset=".243" stop-color="#57c4c3"/><stop offset=".4" stop-color="#34bebd"/><stop offset=".52" stop-color="#00bab7"/><stop offset=".595" stop-color="#00b6b3"/><stop offset=".679" stop-color="#00b2ae"/><stop offset="1" stop-color="#00b0ad"/></linearGradient><path d="m4.652344 5.847656-.726563.734375.734375.730469.726563-.734375zm0 0" fill="url(#a)"/><path d="m1.242188 5.347656-1.242188 1.253906 1.257812 1.242188 1.238282-1.253906zm0 0" fill="url(#b)"/><path d="m1.9375 5.839844h-.640625l-.75.757812.757813.753906h.640624l-.671874-.667968 3.320312-.011719-.292969.292969.324219-.003906.375-.378907-.378906-.375h-.320313l.292969.292969-3.324219.011719zm14.304688.324218c-.355469 0-.683594.0625-.984376.191407-.453124.1875-.566406.296875-.785156.519531-.222656.21875-.394531.484375-.519531.789062-.128906.304688-.191406.636719-.191406 1 0 .363282.0625.695313.1875 1 .128906.304688.300781.566407.523437.789063.21875.222656.480469.394531.785156.519531.300782.125.628907.1875.984376.1875.195312 0 .382812-.019531.558593-.066406.171875-.042969.335938-.105469.496094-.183594.144531-.074218.28125-.167968.40625-.28125.113281-.097656.210937-.214844.296875-.339844l-.394531-.28125c-.089844.136719-.1875.253907-.292969.34375-.101562.089844-.214844.164063-.335938.21875-.117187.054688-.238281.09375-.363281.113282-.121093.023437-.246093.035156-.371093.035156-.304688 0-.578126-.054688-.820313-.167969s-.445313-.261719-.613281-.449219c-.167969-.1875-.296875-.40625-.386719-.65625s-.136719-.515624-.136719-.78125c0-.273437.046875-.535156.136719-.78125.089844-.25.21875-.46875.386719-.65625.167968-.1875.371094-.339843.613281-.449218.242187-.113282.515625-.167969.820313-.167969.125 0 .25.015625.375.054687.125.035157.242187.082032.351562.140626.109375.058593.207031.125.292969.199218.085937.078125.152343.152344.203125.230469l.421875-.316406c-.210938-.269531-.464844-.460938-.757813-.578125-.296875-.117188-.59375-.175782-.886718-.175782zm-10.058594.121094v4.753906h.480468v-2.207031h.808594l1.300782 2.207031h.589843l-1.367187-2.253906c.394531-.035156.695312-.167968.902344-.394531.207031-.226563.3125-.503906.3125-.835937 0-.425782-.140626-.742188-.417969-.953126-.28125-.210937-.664063-.316406-1.148438-.316406zm4.015625 0v4.753906h.480469v-2.207031h.902343c.480469 0 .863281-.105469 1.144531-.320312.277344-.210938.417969-.53125.417969-.957031 0-.636719-.140625-.742188-.417969-.953126-.28125-.210937-.664062-.316406-1.144531-.316406zm-3.535157.445313h.863282c.210937 0 .394531.019531.546875.0625.148437.042969.269531.101562.359375.179687.085937.074219.152344.164063.191406.265625.042969.097657.0625.207031.0625.316407 0 .117187-.019531.226562-.0625.328124-.039062.101563-.105469.191407-.191406.261719-.089844.074219-.210938.132813-.359375.175781-.152344.046876-.335938.066407-.546875.066407h-.863282zm4.015626 0h.78125c.214843 0 .394531.019531.546874.0625.148438.042969.269532.101562.359376.179687.089843.074219.152343.164063.195312.265625.039062.101563.058594.207031.058594.316407 0 .117187-.019532.226562-.058594.328124-.042969.101563-.109375.191407-.195312.261719-.089844.074219-.210938.132813-.359376.175781-.152343.046876-.332031.066407-.546874.066407h-.78125zm-7.492188 1.085937c-.234375 0-.445312.042969-.640625.125-.191406.078125-.363281.199219-.503906.347656-.140625.148438-.253907.324219-.332031.515626-.082032.195312-.121094.410156-.121094.636718 0 .230469.042968.441406.128906.640625.078125.1875.199219.363281.347656.503907.152344.144531.328125.257812.519532.332031.199218.082031.414062.121093.640624.121093.226563.003907.449219-.042968.652344-.132812.207032-.089844.382813-.242188.523438-.457031h.015625v.5625c0 .171875-.023438.332031-.066407.480469-.039062.144531-.109374.28125-.207031.394531-.097656.113281-.222656.199219-.378906.265625-.15625.0625-.347656.097656-.570313.097656-.257812 0-.488281-.054688-.695312-.160156-.207031-.105469-.378906-.242188-.507812-.417969l-.328126.347656c.199219.214844.425782.375.671876.476563.246093.105468.523437.15625.839843.15625.351563 0 .636719-.054688.859375-.160156.21875-.109376.390625-.242188.511719-.402344s.207031-.339844.25-.53125c.042969-.195313.0625-.375.0625-.546875v-3.113281h-.441406v.523437h-.015625c-.089844-.121094-.183594-.21875-.289063-.300781-.09375-.074219-.199219-.132813-.3125-.183594-.101562-.042969-.207031-.074219-.3125-.09375-.101562-.015625-.199219-.027344-.300781-.027344zm.054688.402344c.183593 0 .347656.035156.496093.097656.148438.066406.273438.152344.375.261719.105469.113281.183594.242187.234375.382813.054688.152343.082032.308593.082032.46875.003906.183593-.023438.347656-.082032.496093-.058594.144531-.148437.273438-.261718.378907-.109376.105468-.242188.1875-.382813.246093-.148437.058594-.304687.085938-.460937.085938-.167969 0-.320313-.03125-.460938-.097657-.136719-.0625-.265625-.152343-.367188-.261718-.109374-.109375-.191406-.238282-.25-.382813-.0625-.148437-.09375-.304687-.089843-.464843 0-.167969.027343-.320313.089843-.46875.058594-.140626.140626-.269532.25-.382813.105469-.109375.230469-.195313.367188-.261719.140625-.0625.292969-.097656.460938-.097656zm0 0" fill="#fff"/></svg>