<svg height="18" viewBox="0 0 18 18" width="18" xmlns="http://www.w3.org/2000/svg"><g stroke="#fff" stroke-linecap="round" stroke-linejoin="round" stroke-width="2" transform="scale(.75)"><path d="m11.901042 12.098958 4.510416-4.510416m3.6875-5.286459c-.385416-.385416-1.010416-.385416-1.401041 0l-1.109375 1.109375c-.380209.375-.588542.885417-.588542 1.416667v1.34375c0 .53125-.208333 1.041667-.588542 1.416667.375-.380209.885417-.588542 1.416667-.588542h1.34375c.53125 0 1.041667-.208333 1.416667-.588542l1.109375-1.109375c.385416-.390625.385416-1.015625 0-1.401041zm-14.098958 13.697917 2 2m.197917-8.098958c.5-1.098959 1.604166-1.901042 2.802083-1.901042 2.802083 0 5 2.197917 5 5 0 1.197917-.802083 2.302083-1.901042 2.802083l-.901041.395834c-.713542.317708-1.1875 1.020833-1.197917 1.802083 0 2.208333-1.791667 4-4 4-3.302083 0-6-2.697917-6-6 0-2.208333 1.791667-4 4-4 .78125-.010417 1.484375-.484375 1.802083-1.197917zm0 0" fill="none"/><path d="m12 12.5c0 .276042-.223958.5-.5.5s-.5-.223958-.5-.5.223958-.5.5-.5.5.223958.5.5zm0 0" fill="#fff"/></g></svg>