<svg height="18" viewBox="0 0 18 18" width="18" xmlns="http://www.w3.org/2000/svg"><path d="m6.632812 5.230469-1.195312.195312-1.09375.476563-.925781.585937-.882813 1.074219-.5.527344-.480468.179687-.128907-.3125.222657-.320312.050781-.453125.148437.003906.164063.148438-.042969-.460938-.183594-.121094.007813-.175781-.429688.242187-.386719.457032-.082031.410156.167969.328125.152344.554687.316406.148438.328125-.015625.316406-.183594-.210937 1.0625.210937 1.183594-.230469.542969-.753906.816406.132813.484375.355469.5625.675781.476563.359375.046874.398437.015626-.25 1.019531.914063.371093 1.136718.152344.386719-.253906.03125-.691406.433594-.714844.03125-.570312 1.046875.074218.972656-.089844-.972656.585938.164062.703125.613282.957031.597656.253906.480469-.195312.191406-.390625 1.003906-.761719.195313.164063 1.570312.0625.3125-.257813.03125-.445312-.105468-.195313-.074219-1.210937-.523438-1.046875.089844-.464844.3125.164063.882813.824218.433593.027344.480469-.195312.476562-.355469.242188-.78125 1.40625.089843.851562-.328124.6875-.644532.496094-.925781.117188-1.09375-.105469-1.269531-.269531-1.136719-.269532-.359375-.371093-.121094-.660157.71875-.597656.210938-.523437-.867188-.523438-.480468-.285156-.179688-1.136719-.941406-.910156-.492188-.914062-.078125-1.0625.179688-.925782.34375-.644531.523437-.507813.613282-.523437.152343zm0 0" fill="#ff0"/><path d="m11.507812 2.5625-.597656.023438-1.292968.289062-1.007813.621094-.574219.816406c1.339844-.222656 1.511719-.335938 2.203125.382812-.28125-.492187-.363281-.726562-.316406-1.191406.066406-.65625 1.015625-.726562 1.585937-.941406m-3.519531 1.722656-.550781.144532-1.117188 1.101562.230469-.261719-1.292969.167969-1.101562.453125-1.003906.839844-.648438.957031-.429687 1.027344-.046875 1.078125.167968 1.054687.453126 1.148438c-.285157-1.421875-.511719-2.871094.515624-4.066406.664063-.773438 1.230469-.984376 2.191407-1.296876l.214843-.246093-.671874 1.203125-.238282.71875.503906.597656c.050782-.332031.066407-.578125.238282-.867188.34375-.574218.707031-1.136718 1.03125-1.71875.453125-.8125.84375-1.339843 1.554687-2.035156zm0 0" fill="#ffc"/><path d="m12.140625 2.613281c.414063.382813.917969.71875 1.25 1.1875.128906.179688.269531.273438-.003906.53125.289062-.082031.394531-.074219.625-.046875.417969.050782.8125.644532.835937 1.070313-.003906.042969-.113281.132812-.4375.222656-.007812.011719-.183594-.027344-.179687-.011719.035156.089844.078125.105469.148437.148438.015625.101562.023438.257812.09375.371094.203125-.003907.402344.019531.601563.058593.066406.109375.058593.222657.050781.332031l.230469-.035156-.0625-.527344.207031-.347656-.296875-.667968-.566406-.539063-.054688-.003906-.636719-.390625-1.035156-.847656zm4.855469 2.082031c.175781.785157.402344 1.511719.378906 2.316407-.023438.988281-.214844 2.234375-1.132812 2.832031-1.023438.667969-2.226563.351562-3.351563.066406l1.375.5625 1.285156.066406.871094-.257812.683594-.566406.511719-1.078125.195312-1.246094-.15625-1.222656-.28125-1.207031zm-5.273438.085938-.148437.042969-.234375.113281c-.457032.367188-.511719.871094-.359375 1.40625-.042969-.617188.28125-1.25.742187-1.5625m-2.082031.015625-.863281.101563c-.269532.058593-.539063.121093-.808594.179687l-.398438.578125-.21875.550781c-.238281.652344-.445312 1.210938-.804687 1.800781.460937-.496093.742187-.921874 1.007813-1.484374.101562-.21875.121093-.476563.40625-.378907.011718.21875.058593.4375.074218.65625.152344-1.109375.589844-1.574219 1.605469-2.003906m7.355469.066406c-.109375.050781-.214844.074219-.28125.171875-.144532.214844-.269532.390625-.507813.539063-.121093.078125-.246093.125-.371093.164062-.109376.035157-.171876.003907-.261719.070313l.160156.027344h.355469l.4375-.269532.253906-.269531zm-4.160156.917969c-.046876.019531-.125.0625-.167969.082031l-.363281.117188-.558594.421875-.3125.328125c-.0625.039062-.101563.054687-.167969.054687.101563.035156.21875.003906.339844-.027344.101562.214844.15625.304688.359375.417969-.082032.148438-.121094.316407-.121094.484375.316406-.632812.910156-.96875 1.527344-1.300781-.132813.027344-.265625.0625-.402344.105469l.089844-.042969c-.0625-.230469-.148438-.339844-.320313-.5.042969-.042969.078125-.105469.097657-.140625zm-3.519532.402344-.050781.371094.027344.773437.21875 1.628906-.296875 1.234375-.910156.179688-1.171876.679687-.660156.132813-.929687-.4375c.96875 1.394531 1.796875.703125 3.234375.230468.363281-.117187.59375-.160156.96875-.136718.339844-.585938.332031-.914063.242187-1.59375-.136719-1.046875-.453125-2.035156-.671875-3.0625zm-7.546875.582031-.070312.273437c-.464844.300782-.648438.433594-.597657.996094l.140626.503906.195312.132813.246094.082031.441406-.105468.222656-.699219-.625.304687h-.144531l-.164063-.25.199219-.289062.105469-.550782.132812.042969.160157.125-.023438-.289062c-.035156-.0625-.070312-.125-.109375-.183594zm2.960938 1.820313c-.015625.324218-.039063.457031.105469.746093.179687.363281.40625.703125.601562 1.066407l.066406-.722657zm8.238281.773437c-.605469.175781-.597656.222656-.777344.824219.234375-.378906.410156-.570313.777344-.824219m-2.574219.761719c.066407.382812.183594.472656.363281.839844-.117187.601562-.308593 1.3125-.539062 1.84375-.097656.222656-.175781.34375-.347656.519531-.289063.289062-.578125.542969-.90625.796875-.234375.179687-.398438.089844-.691406.050781-.125.222656-.15625.347656-.386719.460937-.347657.175782-.660157-.203124-.9375-.425781l.597656.929688.410156.386719.347657.050781.460937-.28125.246094-.464844.511719-.382813.628906-.539062.398437-.566406.0625-.117188-.164062.359375-.515625.605469.335937.140625h.835938c.023437-.066406.371093.066406.625-.042969.070312-.03125.132812-.148437.179687-.210937.167969-.230469-.234375-.683594-.113281-1.519531l-.359375-1.167969h-.097656c.011718-.035157.023437-.070313.035156-.101563l.039062-.527344c-.195312-.085937-.386718-.171874-.578124-.257812-.144532-.132812-.300782-.246094-.441407-.378906zm3.523438.25-1.207031.152344-.089844.246093.023437.347657.117188.203124.179687.089844.140625.015625c.191407.117188.1875.199219.15625.28125l.449219-.179687.289062-.390625.21875-.558594zm-11.824219.664062-.167969.355469c.15625.515625.289063.839844.582031 1.292969-.050781.179687-.089843.261718-.207031.410156-.253906-.039062-.484375-.050781-.742187-.050781l.859375.667969.425781-.078126.421875-.421874-.601563-.9375zm6.160156.773438c-.207031.222656-.375.429687-.542968.683594-.59375.269531-1.277344.308593-1.925782.308593l-.011718.179688.050781.050781.476562.050781 1.460938-.039062.195312-.28125c.050781-.398438.109375-.597657.296875-.953125m-2.609375.085937c-.109375.664063-.082031 1.113281-.390625 1.710938-.230468.265625-.511718.507812-.835937.636719.027343.164062.035156.265624.019531.386718-.054688.429688-.917969.238282-1.273438.222656l1.707032.441407.386718-.15625.128907-.746094.359375-.667969.066406-.410156-.117188-.960938c-.015624-.152343-.035156-.304687-.050781-.457031zm0 0" fill="#cc0"/><path d="m9.074219 2.257812c-.851563.207032-1.101563.355469-1.382813 1.339844.359375-.722656.632813-.988281 1.382813-1.339844m2.183593.050782c-.554687.011718-1.148437.179687-1.828124.464844-.378907.160156-.65625.347656-.902344.574218-.230469.214844-.429688.464844-.648438.753906-.125.007813-.238281.027344-.351562.070313-.125.050781-.253906.132813-.402344.265625-.109375.09375-.210938.191406-.3125.289062-.09375.089844-.183594.179688-.273438.273438-.710937.113281-1.289062.242188-1.808593.441406-.527344.207032-.996094.488282-1.476563.914063-.1875.167969-.359375.351562-.515625.550781-.140625.191406-.269531.390625-.378906.601562-.09375.109376-.191406.214844-.296875.3125-.101562.089844-.210938.167969-.332031.214844-.070313.027344-.097657.042969-.101563.039063 0 0-.007812-.023438-.011718-.03125.175781-.167969.203124-.410157.21875-.652344.023437.027344.042968.058594.0625.089844.023437.035156.046874.070312.074218.105469l.117188.148437.042968-.183594c.035157-.15625.0625-.363281.019532-.542969-.027344-.117187-.082032-.21875-.175782-.292968.011719-.023438.019532-.050782.027344-.070313.03125-.074219.058594-.152343.085938-.226562l.050781-.144531-.152344.023437c-.203125.035156-.636719.277344-.945312.59375-.113281.121094-.210938.25-.277344.386719-.066406.144531-.097656.292968-.070313.441406.023438.132812.089844.257812.207032.378906.023437.085938.042968.164063.0625.234375.023437.078125.050781.144531.085937.214844.089844.1875.230469.300781.394531.351563.132813.042968.28125.046874.425782.011718-.027344.171875-.046875.347656-.054688.519532-.007812.242187 0 .511718.027344.820312.011719.144531.03125.289062.058594.433594l-.078125.21875-.128907.339844-.53125.53125c-.007812.003906-.035156.035156-.0625.058593-.175781.167969-.210937.199219-.160156.496094.03125.1875.09375.371094.183594.539063.089844.171874.207031.332031.347656.46875.183594.183593.484375.414062.796875.53125.179688.070312.367188.101562.539063.074218-.007813.027344-.015625.054688-.027344.082032-.027344.074218-.054688.152343-.089844.226562-.214844.464844.003906.710938.347656.867188.167969.078124.371094.128906.5625.179687.035157.007813.074219.019531.125.03125.222657.0625.605469.171875.960938.195313.382812.023437.730469-.054688.820312-.402344.039063-.136719.058594-.238282.070313-.34375.007813-.09375.003906-.1875-.007813-.308594.109376-.238281.15625-.3125.234376-.429688l.042968-.058593c.085938-.125.125-.21875.140625-.320313.011719-.097656 0-.195312-.015625-.34375-.003906-.015625-.007812-.039062-.007812-.066406.222656.03125.445312.046875.667968.050781.109376 0 .222657-.003906.332032-.011719-.03125.015626-.050782.03125-.085938.046876l-.042968.019531c-.296876.152343-.308594.441406-.214844.742187.085937.265625.257812.539063.363281.707032.230469.351562.445313.648437.707031.808593.277344.167969.59375.1875 1-.03125.207032-.113281.269532-.226562.359375-.378906.027344-.050781.058594-.101563.09375-.15625.078125-.050781.289063-.222656.5-.398437.070313-.058594.144531-.117188.222657-.183594.058593.042968.125.070312.203124.089844.105469.023437.230469.035156.378907.046874.113281.007813.476562.007813.710937.007813h.171875c.242188 0 .4375-.011719.585938-.09375.15625-.089844.25-.25.273437-.535156.007813-.125.007813-.203125-.007812-.285157-.015625-.070312-.050782-.140624-.105469-.238281l-.007813-.371093-.011718-.390626c-.003906-.152343-.019532-.277343-.050782-.402343-.03125-.121094-.074218-.238281-.136718-.378907-.039063-.09375-.070313-.183593-.101563-.269531-.050781-.136719-.101562-.269531-.171875-.414062.003906-.027344.007813-.054688.011719-.085938l.136719.128907.199218.191406c.152344.148437.292969.28125.457032.378906.167968.097656.359375.15625.605468.144531.257813-.011719.53125-.121093.761719-.289062.21875-.160157.394531-.378907.46875-.621094l.0625-.210937.050781-.167969c.363282.058593.75.082031 1.125.042969.363282-.039063.710938-.132813 1.015626-.292969.441406-.234375.773437-.582031 1.011718-.996094.269532-.464844.417969-1.007813.472656-1.566406.046876-.453125.023438-1.0625-.070312-1.652344-.085938-.523437-.222656-1.035156-.414062-1.402344-.027344-.046875-.0625-.09375-.101563-.132812-.097656-.09375-.238281-.183594-.382813-.234375-.15625-.050782-.316406-.0625-.445312.003906-.035156.019531-.066406.042969-.09375.070312-.082031.085938-.152344.1875-.226562.289063-.078126.117187-.15625.230469-.25.3125-.109376.09375-.25.152344-.378907.203125-.054687-.132812-.117187-.257812-.195312-.382812-.085938-.140626-.1875-.273438-.296875-.402344-.082032-.097656-.175782-.1875-.273438-.261719s-.195312-.136719-.308594-.207031c-.304687-.191406-.566406-.417969-.832031-.652344-.121093-.105469-.242187-.210938-.359375-.308594-.632812-.523437-1.222656-.773437-1.851562-.816406-.078125-.003906-.160156-.003906-.238282-.003906m-2.859374.007812c-.429688.105469-.511719.183594-.640626.605469.207032-.308594.324219-.410156.640626-.605469zm2.851562.351563c.664062-.03125 1.265625.195312 1.9375.757812.308594.261719.578125.511719.890625.738281-.117187.007813-.234375.035157-.339844.078126.15625-.027344.339844 0 .503907.03125.042968.03125.089843.058593.140624.085937.21875.132813.34375.203125.496094.414063.15625.214843.289063.441406.40625.679687-.078125-.027344-.140625-.046875-.199218-.066406-.128907-.058594-.277344-.046875-.398438.027343l-.007812.003907c-.125.058593-.3125.125-.441407.148437.066407.019532.210938.03125.277344.003906.007813-.003906.019531-.007812.027344-.011718-.03125.054687-.050781.113281-.054688.175781-.007812.082031.007813.164063.042969.234375.011719.027344.027344.054688.046875.070312-.058594.023438-.117187.046876-.179687.074219.285156-.042969.539062-.050781.816406-.015625.015625.089844.035156.179688.050781.273438l-.101563.007812h-.007812c-.132812-.101562-.277344-.085937-.476562-.039062-.605469.136718-.460938.476562-.738282.988281.289063-.355469.265625-.722656.738282-.835937.109374-.023438.183593-.058594.257812-.046876-.132812.066407-.25.179688-.296875.308594-.128906.363282-.046875.671875-.191406 1.011719.175781-.304687.1875-.601563.34375-.921875.058593-.113281.265625-.296875.394531-.300781l.109375-.003907c.027344.203126.046875.40625.035156.574219-.019531.304688-.101562.753907-.148437.929688.160156-.207031.230468-.640625.300781-.945313.074219-.316406.054687-.699218-.007813-1.039062-.085937-.46875.394532-.394532.675782-.613282.207031-.164062.347656-.421874.535156-.605468s.484375.085937.554688.261718c.320312.773438.464843 1.988282.382812 2.769532-.09375.871094-.515625 1.828125-1.289062 2.257812-.980469.546875-2.140626.210938-3.117188-.117187-.207031-.070313-.351562-.171875-.535156-.289063.046875.226563.070312.464844.003906.6875-.105469.355469-.273438.9375.207031 1.046875.1875.039063.269531.035157.527344-.097656-.207031.046875-.316406.035156-.460937.007813-.128907-.023438-.199219-.109376-.234376-.207032.046876.035156.121094.050782.246094.082032.359375.085937.699219-.085938.765625-.332032.039063-.144531.035157-.222656.117188-.421875.074219.023438.148437.046875.226562.0625l-.132812.4375c-.113281.375-.5625.675781-.957031.667969-.367188-.003906-.597657-.234375-.851563-.460938-.167969-.148437-.339844-.296874-.507813-.449218-.457031-.140625-.820312-.308594-1.242187-.625.300781.355468.503906.550781.921875.726562-.058594.621094-.277344 1.078125-.460938 1.671875-.082031.269531-.742187 1.351563-.925781 1.453125-.128906.078125-.945312.765625-1.097656.855469-.117187.152344-.214844.359375-.386719.453125-.523437.277344-.859375-.253906-1.144531-.703125-.125-.203125-.484375-.789063-.171875-.957031.292969-.152344.457031-.265625.757812-.460938.042969.078125.117188.15625.167969.238282l-.03125-.265626c-.019531-.15625-.019531-.285156-.007812-.445312l.035156-.464844c-.042969.15625-.132813.3125-.179687.472656-.015626.0625-.03125.113282-.039063.160157-.664063.136719-1.347656.144531-2.011719.027343-.042968-.234374-.085937-.464843-.140625-.695312-.011719.207031-.003906.78125-.003906 1.105469-.003906.25-.011719.335937-.140625.546875-.121094.199218-.171875.246094-.34375.582031.015625.210937.015625.351563-.039062.550781-.09375.335938-1.039063.078125-1.289063.007813-.308594-.082031-.941406-.207031-.78125-.617188.140625-.359375.226563-.738281.296875-1.246093-.5625-.808594-1.085938-1.917969-1.1875-2.902344-.078125-.765625-.03125-1.234375.136719-1.703125.261719-.742188.628906-1.382813 1.214843-1.898438.792969-.695312 1.535157-.976562 2.695313-1.152343-.277344.3125-.554687.644531-.855469.996093-.304687.359375-.484375.722657-.679687 1.117188-.265625.539062-.261719.746093.09375 1.222656.304687.410156.46875.59375.601562.996094-.109375.226562-.148437.417969-.1875.730469.375.40625.652344.6875 1.015625.773437.359375.085937.65625.070313.972656-.09375.707032-.363281 1.363282-.828125 2.160157-.847656.371093-.910157.335937-1.667969.15625-2.546875-.121094-.601563-.167969-1.167969-.207031-1.78125-.148438.632812-.175782 1.183594-.066407 1.8125.132813.757812.238281 1.59375-.136719 2.257812-.71875.054688-1.339843.492188-1.988281.832032-.261719.132812-.535156.148437-.824219.066406-.269531-.074219-.449218-.25-.738281-.585938-.007812-.332031.070313-.488281.222657-.792968.246093-.488282.519531-.941407.820312-1.421876-.367188.445313-.714844.816407-1.003906 1.257813-.109375-.3125-.265625-.472656-.527344-.824219-.257812-.347656-.285156-.5-.09375-.898437.195312-.402344.355469-.757813.683594-1.109375.5625-.609375 1.082031-1.289063 1.699218-1.886719.335938-.328125.472657-.316406.914063-.382813.402344-.0625.796875-.140624 1.207031-.234374-.398437.039062-.78125.050781-1.167968.058593l-.011719.003907c.378906-.488282.601562-.757813 1.21875-1.023438.664062-.289062 1.222656-.464844 1.738281-.488281m.527344 2.09375c-.824219.203125-.980469.550781-.875 1.085937.09375-.402344.253906-.789062.875-1.085937m-2.445313.042969c-.335937.039062-.667969.074218-1.003906.105468-.28125.027344-.324219.019532-.523437.21875-.304688.296875-.597657 1.324219-.691407 1.738282.148438-.34375.519531-1.296876.800781-1.539063.078126-.070313.132813-.109375.195313-.140625-.207031.339844-.191406.425781-.117187.882812.058593-.464843.21875-.644531.484374-.988281.289063-.074219.574219-.167969.855469-.277343m7.667969.039062c-.191406.386719-.484375.710938-.886719.910156-.214843.109375-.355469.070313-.59375.046875.246094.070313.398438.160157.640625.074219.488282-.175781.722656-.566406.839844-1.03125m-1.707031.625c.015625.035156.03125.074219.046875.109375-.011719.007813-.023438.019531-.039063.03125-.019531-.050781-.050781-.097656-.089843-.136719.023437 0 .050781-.003906.082031-.003906zm-2.449219.300781c-.269531.125-.582031.09375-.8125.25-.203125.136719-.484375.574219-.691406.757813.148437-.058594.292968-.160156.425781-.265625.003906.207031.117187.394531.300781.488281-.078125.101562-.140625.210938-.183594.328125.394532-.464844.964844-.816406 1.503907-.96875-.152344 0-.328125.027344-.507813.085937-.023437-.210937-.164062-.386718-.363281-.460937.121094-.0625.238281-.132813.328125-.214844m-11.851562.484375c-.71875.503906-.8945318.734375-.796876 1.753906.070313-.800781.226563-1.148437.796876-1.753906m-.609376.304688c-.3593745.25-.4062495.355468-.3749995.792968.078125-.359374.1523435-.496093.3749995-.792968m1.335938.144531c-.050781.113281-.089844.199219-.113281.289063-.113281.378906.046875.71875-.296875.996093.160156.328125.152344.457031.53125.304688.148437-.054688.265625-.136719.375-.234375-.0625.15625-.117188.316406-.164063.480468-.273437.113282-.628906.1875-.761719-.097656-.066406-.136718-.105468-.273437-.152343-.449218-.445313-.460938.21875-1.070313.582031-1.289063m.09375.207031c.089844.054688.113281.152344.125.28125-.054688-.054687-.097656-.089844-.167969-.082031.007813-.066406.019531-.132813.042969-.199219m11.148438 2.453125c-.097657.015625-.269532.050781-.367188.066407-.261719.046874-.292969.109374-.332031.363281-.019531.121093-.046875.273437-.066407.394531.050782-.136719.113282-.296875.171876-.425781.0625-.140625.097656-.152344.234374-.226563.09375-.050781.265626-.121094.359376-.171875zm-10.851563 1.800781c.207031.707032.554687 1.402344.941406 1.988282v.011718c-.023437.101563-.050781.199219-.109375.277344-.277344.371094-.980468-.171875-1.183594-.382812-.222656-.226563-.375-.496094-.410156-.746094-.023437-.1875 0-.191406.128906-.320312l.519532-.527344zm9.304687.460938c.042969.136719.078126.273438.136719.421875.105469.242187.15625.394531.160157.65625l.023437.828125c.089844.152344.105469.1875.089844.363281-.035157.359375-.152344.382813-.46875.378907-.144531-.003907-.71875-.003907-.863281-.019532-.207032-.015625-.320313-.035156-.382813-.082031.320313-.234375.871094-1.214844.976563-1.550781.113281-.355469.238281-.667969.328124-.996094"/><path d="m14.683594 5.71875c-.089844 0-.160156.070312-.167969.15625-.007813.054688.023437.128906.0625.164062.089844-.03125.175781-.058593.265625-.074218.023438-.050782.019531-.117188-.011719-.164063-.035156-.050781-.089843-.082031-.148437-.082031zm-2.542969.824219c-.082031 0-.15625.042969-.199219.109375-.042968.066406-.046875.152344-.011718.222656.027343.058594.074218.101562.136718.125.082032-.109375.183594-.207031.296875-.289062-.003906-.011719-.007812-.023438-.015625-.035157-.039062-.078125-.117187-.132812-.207031-.132812zm0 0" fill="#ffc"/></svg>