<svg height="18" viewBox="0 0 18 18" width="18" xmlns="http://www.w3.org/2000/svg"><g fill="none" stroke="#fff" stroke-linecap="round" stroke-linejoin="round" stroke-width="2" transform="scale(.75)"><path d="m13.145833 21.145833c4.078125-4.083333 5.083334-9.692708 2.239584-12.53125-2.838542-2.84375-8.447917-1.838541-12.53125 2.239584"/><path d="m13.145833 21.145833c1.703125-1.708333.78125-5.390625-2.057291-8.234375-2.84375-2.838541-6.526042-3.760416-8.234375-2.057291-1.703125 1.708333-.78125 5.390625 2.057291 8.234375 2.84375 2.838541 6.526042 3.760416 8.234375 2.057291m3.416667-10.708333 2.036458-2.036458c.869792.479166 1.9375.401041 2.729167-.197917.791667-.604167 1.145833-1.614583.916667-2.578125-.234375-.963542-1.015625-1.703125-1.994792-1.875-.192708-.963542-.927083-1.723958-1.880208-1.947917-.958334-.223958-1.953125.135417-2.552084.911459-.598958.776041-.6875 1.828125-.229166 2.697916l-2.020834 2.026042m-5.067708 9.0625-1-1"/></g></svg>