<svg height="18" viewBox="0 0 18 18" width="18" xmlns="http://www.w3.org/2000/svg"><g fill="none" stroke="#fff" stroke-linecap="round" stroke-linejoin="round" stroke-width="2" transform="scale(.75)"><path d="m12 3v-1m3.401042 15.401042 3.197916-2.802084c.802084-.770833 2.078125-.75 2.848959.052084.776041.802083.755208 2.078125-.046875 2.848958l-3.598959 3.302083c-.703125.796875-1.703125 1.197917-2.802083 1.197917h-4c-1.098958 0-2.098958-.401042-2.802083-1.197917l-1.302084-1.463541c-.1875-.213542-.458333-.338542-.744791-.338542h-1.151042"/><path d="m2 14h12c1.104167 0 2 .895833 2 2s-.895833 2-2 2h-2m-8-8h16m-15 0c0-3.864583 3.135417-7 7-7s7 3.135417 7 7"/><path d="m5 14v6c0 .552083-.447917 1-1 1h-2"/></g></svg>