<svg height="18" viewBox="0 0 18 18" width="18" xmlns="http://www.w3.org/2000/svg"><path d="m6.972656 6.730469c-.144531-.011719-.289062-.007813-.433594.003906-1.792968.140625-2.527343 1.085937-2.945312 1.460937-.222656.195313-.527344.519532-.84375.777344-.15625.125-.316406.234375-.464844.300782-.148437.0625-.28125.085937-.394531.050781-.246094-.078125-.402344-.265625-.476563-.457031-.074218-.191407-.054687-.382813.011719-.449219.085938-.097657.152344-.121094.199219-.121094.042969.003906.09375.039063.140625.109375.070313.125.105469.265625.101563.40625v.152344l.113281-.097656c.167969-.136719.292969-.324219.355469-.53125v-.003907c.035156-.148437.050781-.304687 0-.449219-.046876-.148437-.164063-.285156-.367188-.386718-.503906-.253906-.933594-.15625-1.238281.039062-.304688.191406-.488281.460938-.546875.582032-.0976565.203124-.2539065.554687-.1484378 1.300781.0546876.378906.1718748.746093.4218748 1.050781.25.308594.636719.550781 1.203125.6875 1.074219.246094 2.203125.113281 3.191406-.375.488282-.230469 1.191407-.554688 1.832032-.828125.316406-.136719.621094-.257813.871094-.355469.253906-.09375.457031-.160156.558593-.179687h.003907c.289062-.070313.585937-.109375.882812-.113281.296875.003906.59375.042968.882812.113281h.003907c.105469.019531.308593.085937.558593.179687.25.097656.554688.222656.875.355469.613282.265625 1.222657.542969 1.828126.828125.988281.488281 2.117187.621094 3.191406.375.566406-.136719.953125-.378906 1.203125-.6875.25-.304688.367187-.671875.421875-1.050781.105468-.746094-.050782-1.097657-.148438-1.300781-.058594-.121094-.242187-.394532-.546875-.585938-.300781-.191406-.734375-.289062-1.238281-.035156-.203125.101562-.316406.238281-.367188.386718-.046874.144532-.03125.300782 0 .449219l.003907.003907c.0625.207031.183593.394531.351562.53125l.117188.097656-.003907-.152344c-.003906-.144531.03125-.289062.101563-.414062.050781-.074219.097656-.105469.144531-.109376.046875 0 .113282.023438.199219.117188.0625.070312.085937.261719.011719.457031-.074219.195313-.230469.382813-.476563.457031-.113281.035157-.246093.015626-.394531-.050781-.148438-.066406-.308594-.171875-.464844-.300781-.316406-.253906-.621094-.578125-.84375-.777344-.417968-.375-1.15625-1.3125-2.949218-1.457031h.003906c-.992188-.089844-1.933594.390625-2.460938 1.222656-.449218-.703125-1.195312-1.164062-2.03125-1.226562m-.007812.136719c.820312.0625 1.558594.523437 1.976562 1.238281l.058594.101562.0625-.101562c.488281-.839844 1.417969-1.320313 2.386719-1.230469 1.75.140625 2.425781 1.023438 2.867187 1.421875.210938.1875.523438.519531.847656.78125.164063.132813.332032.246094.496094.320313.167969.074218.335938.105468.492188.054687.292968-.089844.480468-.3125.566406-.539063.085938-.226562.089844-.464843-.039062-.601562-.101563-.109375-.203126-.167969-.308594-.160156-.105469.003906-.1875.074218-.253906.167968v.003907l-.003907.003906c-.058593.105469-.070312.226563-.085937.34375-.101563-.105469-.183594-.230469-.226563-.371094-.03125-.136719-.039062-.265625-.003906-.375.035156-.113281.121094-.214843.296875-.304687.464844-.234375.828125-.144532 1.101562.03125.273438.171875.453126.4375.492188.523437.097656.207031.242188.5.136719 1.222657-.050781.363281-.160157.703124-.390625.984374-.230469.28125-.582032.507813-1.125.636719-1.046875.238281-2.140625.113281-3.097656-.363281-.609376-.289062-1.21875-.566406-1.835938-.828125-.292969-.125-.585938-.246094-.878906-.359375-.253906-.097656-.453125-.164062-.582032-.1875-.300781-.074219-.605468-.109375-.914062-.117188-.308594.007813-.613281.042969-.910156.117188-.128906.023438-.328125.089844-.582032.1875-.296874.113281-.589843.230469-.878906.359375-.617187.261719-1.230468.539063-1.835937.828125-.960938.476562-2.054688.601562-3.101563.363281-.546875-.128906-.894531-.355469-1.125-.636719-.230468-.28125-.339844-.621093-.390625-.984374-.1054685-.722657.039063-1.019532.136719-1.222657.039062-.085937.214844-.351562.492188-.523437.273437-.171875.636718-.265625 1.101562-.03125.179688.089844.261719.191406.296875.304687.039063.109375.027344.238281-.003906.371094-.042969.144531-.125.269531-.226563.375-.015625-.117187-.027344-.234375-.082031-.335937l-.003906-.003907v-.003906c-.066407-.09375-.148438-.164063-.253907-.167969-.105468-.007812-.207031.050782-.3125.160156-.125.136719-.125.375-.035156.597657.085938.226562.273438.449219.5625.539062.160156.046875.328125.015625.492188-.058593.167968-.070313.335937-.1875.5-.320313.324218-.261719.632812-.589844.84375-.78125.445312-.394531 1.117187-1.285156 2.867187-1.421875.136719-.015625.277344-.015625.414063-.007812zm0 0"/></svg>