<svg height="18" viewBox="0 0 18 18" width="18" xmlns="http://www.w3.org/2000/svg"><path d="m6.953125 6.78125c-.140625-.007812-.285156-.007812-.425781.003906-1.785156.144532-2.496094 1.066406-2.929688 1.453125-.433594.390625-1.242187 1.324219-1.78125 1.15625-.542968-.171875-.695312-.824219-.503906-1.03125s.34375-.167969.460938 0c.074218.136719.113281.292969.109374.449219.160157-.128906.273438-.304688.332032-.5.066406-.289062.054687-.570312-.332032-.765625-.976562-.492187-1.605468.386719-1.703124.59375-.0976568.203125-.2500005.527344-.1445318 1.273437.1093748.742188.4609378 1.425782 1.5859378 1.6875 1.066406.246094 2.1875.117188 3.167968-.371093.984376-.46875 2.839844-1.292969 3.304688-1.378907.296875-.070312.601562-.109374.90625-.113281.304688.003907.609375.042969.90625.113281.46875.085938 2.320312.910157 3.304688 1.378907.980468.488281 2.101562.617187 3.167968.371093 1.125-.261718 1.476563-.945312 1.585938-1.6875.105468-.746093-.046875-1.066406-.144532-1.273437-.097656-.207031-.726562-1.085937-1.703124-.59375-.382813.195313-.398438.476563-.332032.765625.058594.195312.175782.371094.332032.5-.003907-.160156.035156-.316406.113281-.457031.117187-.171875.265625-.207031.457031 0s.042969.867187-.5 1.035156-1.347656-.761719-1.78125-1.152344c-.4375-.386719-1.144531-1.308593-2.929688-1.453125-1.003906-.089844-1.96875.40625-2.476562 1.277344-.429688-.738281-1.195312-1.214844-2.046875-1.28125"/></svg>