<svg height="18" viewBox="0 0 18 18" width="18" xmlns="http://www.w3.org/2000/svg"><path d="m9.019531 2.761719c-.789062 0-1.574219.113281-2.332031.332031-.113281.035156-.214844.097656-.292969.1875s-.128906.199219-.148437.316406l-.035156.203125c-1.59375.566407-2.972657 1.609375-3.953126 2.988281-.976562 1.371094-1.5 3.015626-1.503906 4.699219v1.09375c-.480468.136719-.74999975.289063-.74999975.453125v.871094c-.0078125.054688 0 .105469.03124995.148438 0 0 .0039063 0 .0039063-.003907.3945315.582031 4.2578125 1.1875 8.9648435 1.1875 4.714844 0 8.582032-.613281 8.964844-1.1875l-.003906-.003906c.027344-.042969.039062-.089844.035156-.140625v-.875c0-.160156-.273438-.316406-.765625-.453125l.011719-1.089844c0-1.675781-.519532-3.3125-1.488282-4.679687-.972656-1.378906-2.34375-2.421875-3.929687-2.992188l-.035156-.21875c-.015625-.117187-.066407-.226562-.144531-.316406-.078126-.085938-.183594-.152344-.296876-.1875-.757812-.21875-1.542968-.332031-2.332031-.332031zm-.019531 2.566406v4.441406l-1.929688-1.1875zm0 0 1.929688 3.253906-1.929688 1.1875zm1.929688 3.898437s-1.894532 2.683594-1.929688 2.734376v.003906l-1.929688-2.738282 1.929688 1.1875zm0 0"/></svg>