<svg height="18" viewBox="0 0 18 18" width="18" xmlns="http://www.w3.org/2000/svg"><path d="m21 14h-1.34375m-10.526042-10.53125c2.744792-.921875 5.765625-.46875 8.119792 1.223958 2.354167 1.6875 3.75 4.411459 3.75 7.307292v3.34375m-19-13.34375 20 20m-1.588542-1.588542c-.375.380209-.880208.588542-1.411458.588542h-1c-1.104167 0-2-.895833-2-2v-3m-13-2h3c1.104167 0 2 .895833 2 2v3c0 1.104167-.895833 2-2 2h-1c-1.104167 0-2-.895833-2-2v-7c0-2.385417.947917-4.677083 2.635417-6.364583" fill="none" stroke="#fff" stroke-linecap="round" stroke-linejoin="round" stroke-width="2" transform="scale(.75)"/></svg>