<svg height="18" viewBox="0 0 18 18" width="18" xmlns="http://www.w3.org/2000/svg"><path d="m5.046875 5.695312h-1.164063c-.03125 0-.042968-.015624-.058593-.027343-.011719-.015625-.011719-.042969-.011719-.058594.027344-.097656.25-.421875.503906-.6875.199219-.210937.378906-.394531.5625-.578125 0 0-.011718 0-.011718-.011719-.480469-.464843-.832032-.984375-1.027344-1.574219-.058594-.15625-.097656-.339843-.097656-.535156v-.058594c.011718-.140624.054687-.25.140624-.308593.082032-.070313.195313-.082031.335938-.042969.085938.015625.15625.058594.226562.101562.222657.109376.421876.265626.644532.519532.324218.351562.589844.773437.773437 1.207031.859375-.503906 1.828125-.8125 2.800781-.882813v-.015624c-.101562-.464844-.140624-.929688-.101562-1.351563 0-.265625.058594-.53125.15625-.828125.042969-.15625.125-.28125.210938-.378906.027343-.058594.085937-.0859378.125-.1132815.113281-.0703125.253906-.0703125.367187 0 .085937.0546875.167969.1406255.238281.2656255.097656.199218.167969.382812.199219.550781.082031.40625.109375.816406.070313 1.222656-.015626.226563-.058594.449219-.113282.660156.222656.042969.449219.070313.6875.128907.28125.054687.519532.125.746094.222656.253906.085937.507812.210937.703125.308594.140625.070312.28125.15625.40625.226562.058594.042969.128906.070312.183594.113281.238281-.648437.648437-1.253906 1.195312-1.714843.128907-.113282.28125-.210938.449219-.269532.042969-.011718.101562-.027344.15625-.027344.113281-.015624.195312.015626.28125.070313.070312.054687.125.167969.125.296875.015625.109375 0 .25-.027344.390625-.082031.324219-.210937.621094-.394531.914063-.25.421874-.53125.761718-.898437 1.054687.335937.324219.648437.691406.914062 1.085937.015625.027344.015625.039063 0 .070313-.015625.027344-.042969.039063-.054688.039063-.015624.015624-.042968.015624-.058593.015624h-1.152344c-.070313 0-.140625-.054687-.167969-.070312-.816406-.914062-1.914062-1.503906-3.109375-1.6875-.351562-.054688-.703125-.070312-1.066406-.042969-1.054687.070313-2.097656.480469-2.898437 1.140625-.226563.183594-.421876.363282-.589844.5625-.042969.054688-.128906.097656-.199219.097656m-1.054687-.140624h1.054687c.03125 0 .070313-.015626.085937-.042969.183594-.210938.394532-.40625.617188-.589844.832031-.6875 1.886719-1.097656 2.984375-1.167969.363281-.027344.742187-.011718 1.09375.042969 1.226563.183594 2.363281.789063 3.195313 1.714844.011718.015625.039062.027343.054687.027343h1.070313c-.269532-.363281-.5625-.703124-.886719-1.011718-.027344-.027344-.027344-.054688-.015625-.082032.015625-.03125.042968-.042968.058594-.058593.363281-.292969.644531-.632813.882812-1.039063.171875-.28125.296875-.5625.367188-.871094.027343-.128906.042968-.242187.027343-.351562 0-.070312-.027343-.140625-.082031-.199219-.042969-.027343-.101562-.042969-.183594-.042969-.042968 0-.070312.015626-.113281.03125-.140625.054688-.28125.125-.394531.238282-.519532.449218-.925782 1.027344-1.167969 1.671875-.011719.015625-.011719.027343-.011719.027343 0 .015626-.015625.03125-.027344.058594-.03125.027344-.058593.027344-.085937.011719-.085937-.039063-.167969-.097656-.253906-.152344-.140625-.085937-.265625-.15625-.40625-.226562-.199219-.097657-.449219-.210938-.691407-.308594-.222656-.097656-.449218-.15625-.714843-.226563-.253907-.054687-.507813-.097656-.761719-.140624-.011719 0-.039062-.011719-.039062-.027344-.015626-.011719-.015626-.042969-.015626-.054688.070313-.226562.113282-.480468.125-.703125.042969-.394531.015626-.789062-.070312-1.183593-.027344-.152344-.082031-.320313-.179688-.519532-.058593-.097656-.113281-.167968-.183593-.210937-.058594-.042969-.140625-.042969-.199219 0-.039062.027343-.070312.042969-.097656.085937-.070313.097656-.140625.210938-.183594.335938-.082031.28125-.140625.535156-.152344.773437-.042968.421875 0 .871094.097656 1.324219v.070312c.015626.011719.015626.039063 0 .070313-.015624.011719-.027343.027344-.054687.027344-.984375.070312-1.984375.378906-2.855469.914062-.042968.027344-.097656-.015625-.113281-.027343 0 0-.027344-.03125-.027344-.058594-.183593-.433594-.4375-.84375-.761719-1.179688-.210937-.238281-.390624-.394531-.617187-.507812-.054687-.042969-.113281-.070313-.183594-.082032-.097656-.03125-.167969-.015624-.222656.027344-.058594.042969-.085937.113282-.085937.210938v.054687c0 .183594.042968.351563.097656.492188.199218.5625.535156 1.070312.984375 1.519531.015625.015625.027343.027344.042969.027344l.015624.015625c.011719.011719.027344.027343.039063.054687 0 .027344 0 .042969-.011719.058594-.210937.210938-.410156.40625-.621094.632812-.179687.210938-.351562.421876-.421874.546876m5.261718 12.460937c-.097656 0-.199218-.042969-.28125-.140625-.070312-.070312-.113281-.15625-.15625-.226562-.125-.226563-.183594-.476563-.210937-.6875-.054688-.3125-.070313-.632813-.054688-.984376.011719-.269531.042969-.507812.097657-.703124-1-.070313-1.941407-.351563-2.796876-.875l-.015624.015624c-.265626.605469-.632813 1.125-1.109376 1.53125-.128906.113282-.28125.210938-.453124.269532-.082032.027344-.179688.042968-.265626.027344-.113281-.015626-.195312-.097657-.253906-.210938-.070312-.140625-.042968-.28125-.027344-.40625.027344-.171875.070313-.339844.15625-.535156.195313-.492188.519532-.957032.953126-1.394532l.015624-.011718c-.394531-.351563-.71875-.71875-.96875-1.097656-.015624-.027344-.015624-.042969 0-.070313.011719-.027344.039063-.042969.054688-.042969h.027344c.015625 0 .027344-.011718.058594-.011718h1.125c.070312 0 .125.027343.179687.070312.394531.421875.859375.757812 1.394531 1.039062s1.136719.464844 1.742188.519532c1.660156.167968 3.109375-.351563 4.289062-1.53125.085938-.085938.183594-.113282.269532-.097656h1.125c.011718 0 .039062.011718.054687.011718l.015625.015625c.027344.027344.027344.054688.011719.082031-.238281.339844-.503907.648438-.816407.945313h.015626c.5625.476563.984374 1.082031 1.238281 1.769531.054687.167969.082031.367188.082031.535156 0 .042969-.011719.085938-.027344.125l-.011718.03125c-.058594.167969-.226563.265626-.382813.238282-.070313-.015625-.152344-.042969-.25-.070313-.140625-.070312-.253906-.140625-.339844-.226562-.535156-.449219-.957031-1.039063-1.195312-1.699219-.265625.179688-.535157.320312-.828125.460938-.351563.15625-.675782.28125-.972656.351562-.265626.070312-.589844.140625-.941407.183594v.015625c.097657.40625.140625.855469.113281 1.335937-.015624.265625-.070312.535156-.15625.828125-.027343.085938-.070312.167969-.109374.253907l-.042969.085937c-.015625.027344-.027344.039063-.058594.070313-.011719.011718-.027344.027343-.039063.054687-.070312.113281-.15625.15625-.253906.15625m-3.433594-3.785156c.015626 0 .03125 0 .042969.015625.871094.535156 1.84375.84375 2.871094.898437.011719 0 .027344.015625.039063.015625.03125.027344.03125.070313.03125.082032 0 .015624 0 .03125-.015626.058593v.027344c-.042968.195313-.085937.421875-.097656.6875-.015625.339844 0 .648437.054688.945313.042968.195312.085937.433593.199218.644531.039063.097656.082032.15625.125.199219.042969.039062.097657.097656.167969.097656.070313 0 .140625-.058594.167969-.097656.015625-.015626.03125-.03125.042969-.058594.015625-.011719.027343-.027344.042969-.054688l.042968-.070312c.042969-.085938.082032-.15625.113282-.226563.082031-.28125.140624-.535156.152343-.785156.027344-.464844-.011719-.914063-.113281-1.308594v-.070312c-.011719-.015625-.011719-.042969 0-.070313.015625-.027344.03125-.027344.058594-.042968.378906-.042969.714844-.125.996094-.195313s.59375-.183594.945312-.351563c.308594-.140624.601562-.3125.871094-.492187.011718-.015625.042968-.015625.054687-.015625.015625 0 .042969.015625.042969.042969.015625.011719.015625.027343.015625.042969.011719.011718.011719.011718.011719.027343.238281.644531.632812 1.222657 1.167968 1.660157.085938.070312.195313.140624.308594.195312.070313.027344.15625.054688.226563.070312.082031.015626.183593-.042968.210937-.140624l.011719-.027344c.015625-.042969.015625-.070313.015625-.085938 0-.167968-.027344-.335937-.085938-.492187-.222656-.660157-.632812-1.25-1.179687-1.699219-.027344-.015625-.054687-.042969-.085937-.070312-.011719-.015626-.011719-.03125-.011719-.058594 0-.011719.011719-.042969.027343-.054688.296876-.28125.546876-.578125.789063-.886718h-1.027344c-.058593-.015626-.113281.015624-.15625.070312-1.222656 1.210938-2.699219 1.742188-4.402343 1.574219-.617188-.054688-1.234376-.238281-1.796876-.535157-.550781-.28125-1.027343-.632812-1.421874-1.054687-.027344-.027344-.042969-.027344-.070313-.027344h-1.125c.253906.351563.5625.691407.941406 1.027344.015625.015625.027344.027344.027344.054687 0 .03125-.011719.042969-.011719.058594 0 .011719-.015625.027344-.027344.042969-.015624.011719-.03125.011719-.042968.027344-.421875.421875-.730469.871093-.929688 1.347656-.082031.199219-.125.351563-.152344.507813-.015624.113281-.03125.226562.027344.335937.027344.058594.070313.113281.140625.128906.054688.011719.125 0 .183594-.027343.152344-.058594.28125-.128907.40625-.242188.464844-.390625.816406-.882812 1.082031-1.476562l.042969-.082032.042969-.042968c0-.042969 0-.042969.011718-.042969m10.210938-3.21875c-.195312 0-.394531 0-.4375-.015625-.027344-.011719-.054688-.042969-.054688-.070313v-1.8125c-.125.113281-.253906.238281-.378906.351563-.167968.152344-.324218.292968-.492187.449218-.027344.027344-.070313.027344-.097657 0-.28125-.265624-.578124-.535156-.886718-.800781v1.828125c0 .042969-.027344.070313-.070313.070313h-.984375c-.027344 0-.058594-.015625-.070312-.042969-.042969-.113281-.027344-3.839844-.027344-3.867188 0-.042968.027344-.070312.070312-.070312h.28125c.140626-.015625.238282.042969.320313.113281.453125.40625.902344.84375 1.367187 1.25l.054688.042969.027344-.027344c.15625-.140625.308594-.28125.464844-.4375.308593-.28125.632812-.574218.929687-.871094.054687-.054687.109375-.070312.195313-.070312h.351562c.042969 0 .070312.027344.070312.070312v3.824219c0 .027344-.027343.058594-.054687.070313-.03125 0-.3125.015625-.578125.015625m-.351562-.140625c.167968.011718.675781.011718.84375 0v-3.699219h-.28125c-.042969 0-.085938.015625-.097657.042969-.296875.292968-.621093.589844-.929687.871094-.152344.140624-.308594.28125-.464844.4375l-.039062.039062c-.015626.015625-.03125.015625-.03125.03125-.027344.027344-.070313.027344-.097657 0l-.070312-.070312c-.464844-.421876-.914063-.84375-1.363281-1.253907-.070313-.054687-.125-.082031-.210938-.082031-.070312.011719-.140625 0-.210938 0h-.027343c-.015625.53125 0 3.261719.027343 3.695312h.84375v-1.898437c0-.011719.015626-.039063.015626-.039063l.011718-.015624c.027344-.027344.070313-.027344.097656 0 .324219.28125.632813.5625.945313.84375.140625-.125.292969-.265626.433594-.40625.15625-.15625.324219-.296876.480469-.453126.027343-.027343.070312-.027343.097656 0l.011718.015626c.015626.015624.015626.027343.015626.042968zm-13.796876.125c-.222656 0-.460937-.011719-.503906-.027344-.027344-.015625-.042968-.042969-.042968-.070312v-3.796876c0-.042968.027343-.070312.070312-.070312h.984375c.042969 0 .070313.027344.070313.070312v1.292969c.195312.015625.859374.015625 1.070312 0v-1.292969c0-.042968.027344-.070312.070312-.070312h.96875c.027344 0 .054688.015625.070313.042969.027344.082031.027344 3.769531 0 3.867187-.015625.027344-.042969.042969-.070313.042969h-.96875c-.042968 0-.070312-.03125-.070312-.070313-.015625-.15625 0-.324218 0-.492187v-.902344h-1.070312v1.363281c0 .03125-.015626.058594-.042969.070313-.054688.042969-.292969.042969-.535157.042969m-.40625-.140625c.167969.015625.675782.015625.84375 0v-1.378907c0-.039062.027344-.070312.070313-.070312h1.210937c.039063 0 .070313.03125.070313.070312v1.394532h.84375c.011719-.421875.011719-3.234375 0-3.683594h-.832031v1.277344c0 .027344-.027344.058594-.054688.070312-.113281.027344-1.152344.027344-1.253906 0-.027344-.011718-.039062-.042968-.039062-.070312v-1.292969h-.84375v3.683594zm6.59375.140625h-2.332031c-.042969 0-.070312-.027344-.070312-.070313v-3.808593c0-.03125.027343-.058594.054687-.070313.085938-.03125 2.265625-.03125 2.363282-.015625.042968 0 .070312.027344.070312.070312v.816407c0 .042969-.027344.070312-.070312.070312h-.042969c-.027344 0-.042969.011719-.054688.011719h-1.183593v.492188h1.125c.042968 0 .070312.03125.070312.070312v.84375c0 .042969-.027344.070312-.070312.070312h-1.125c-.011719.128907-.011719.421876 0 .578126h1.28125c.042968 0 .070312.027343.070312.070312v.816406c-.015625.027344-.054688.054688-.085938.054688m-2.277343-.140625h2.195312v-.675781h-1.183593c-.011719 0-.039063 0-.054688-.011719h-.042969c-.042969 0-.070312-.027344-.070312-.058594-.011719-.125-.011719-.644531.015625-.742187.011718-.03125.042968-.042969.070312-.042969h1.109375v-.703125h-1.125c-.042969 0-.070312-.027344-.070312-.070313v-.632812c0-.042969.027343-.070313.070312-.070313h1.28125v-.675781c-.339843-.015625-1.871093 0-2.195312.015625zm5.738281.15625c-.015625 0-.015625 0 0 0l-2.335938-.015625c-.027343 0-.070312-.027344-.070312-.054688-.011719-.097656-.011719-3.769531 0-3.855468 0-.027344.042969-.054688.070312-.054688h.972657c.042969 0 .070312.027344.070312.070312v2.757813c.011719 0 .027344 0 .054688.011719h1.238281c.042969 0 .070312.027344.070312.070312v1c0 .011719-.015624.042969-.015624.054688-.027344 0-.039063.015625-.054688.015625m-2.277344-.15625 2.191406.015625v-.859375h-1.207031c-.015625-.027344-.042969-.027344-.085937-.027344-.042969 0-.070313-.027344-.070313-.070313v-2.742187h-.828125zm0 0"/></svg>