<svg height="18" viewBox="0 0 18 18" width="18" xmlns="http://www.w3.org/2000/svg"><path d="m4.992188 4.289062c-.027344-.015624-.042969-.042968-.070313-.054687-.449219-.4375-.800781-.957031-1.011719-1.5625-.058594-.167969-.097656-.335937-.097656-.519531v-.058594c.011719-.238281.167969-.351562.390625-.292969.070313.011719.140625.042969.199219.082031.253906.128907.449218.3125.632812.523438.324219.351562.589844.773438.773438 1.222656 0 .011719.011718.027344.011718.027344s.015626.015625.03125.015625c.871094-.535156 1.867188-.859375 2.894532-.914063-.011719-.03125-.011719-.058593-.011719-.085937-.101563-.4375-.140625-.898437-.101563-1.351563.015626-.265624.070313-.53125.15625-.800781.042969-.140625.113282-.253906.195313-.363281.03125-.042969.070313-.0703125.113281-.1015625.085938-.0546875.199219-.0546875.28125 0 .085938.0585935.15625.1406245.210938.2421875.085937.167969.15625.351563.183594.53125.085937.394531.113281.804687.070312 1.210937-.015625.238282-.054688.492188-.125.730469.25.042969.503906.085938.757812.140625.253907.058594.492188.128906.730469.226563.238281.082031.480469.195312.703125.308593.226563.113282.4375.253907.660156.378907.015626-.011719.015626-.027344.03125-.054688.238282-.660156.644532-1.253906 1.179688-1.714843.125-.113282.265625-.199219.421875-.253907.042969-.015625.085937-.027343.125-.027343.226563-.03125.324219.109374.339844.292968.011719.128906 0 .253906-.027344.378906-.085937.324219-.210937.621094-.382813.902344-.238281.40625-.53125.757813-.898437 1.054688-.015625.011718-.027344.011718-.042969.042968.351563.335938.675782.714844.957032 1.125-.027344 0-.042969.011719-.054688.011719h-1.140625c-.042969 0-.085937-.027343-.113281-.054687-.828125-.929688-1.941406-1.519532-3.148438-1.703125-.351562-.054688-.71875-.070313-1.082031-.042969-1.070313.070312-2.109375.480469-2.941406 1.167969-.210938.167969-.421875.367187-.605469.578125-.027344.042968-.082031.070312-.140625.070312h-1.164063c.027344-.085937.238282-.394531.492188-.675781.210938-.226563.40625-.421875.617188-.632813m9.195312 8.28125c-.25.367188-.53125.691407-.855469 1 .027344.027344.042969.042969.070313.054688.546875.464844.96875 1.070312 1.207031 1.757812.058594.171876.085937.351563.085937.523438 0 .039062-.015624.082031-.027343.140625-.042969.125-.167969.210937-.296875.179687-.082032-.011718-.167969-.039062-.238282-.070312-.113281-.054688-.226562-.125-.324218-.210938-.535156-.449218-.941406-1.039062-1.179688-1.699218-.015625-.015625-.015625-.042969-.027344-.070313-.28125.195313-.578124.363281-.886718.503907-.464844.210937-.632813.269531-.957032.351562-.335937.085938-.660156.15625-1.011718.199219.011718.027343.011718.054687.011718.082031.113282.4375.140626.886719.113282 1.335938-.011719.28125-.070313.550781-.152344.816406-.042969.113281-.101562.210937-.15625.324218-.027344.042969-.054688.070313-.085938.113282-.140624.152344-.308593.152344-.449218 0-.054688-.058594-.097656-.128906-.140625-.210938-.113281-.210937-.167969-.4375-.210938-.675781-.054687-.324219-.070312-.648437-.054687-.96875.011718-.242187.042968-.480469.097656-.703125 0-.015625.015625-.042969.015625-.058594 0 0 0-.011718-.015625-.027344-1.027344-.054687-2.011719-.367187-2.898438-.914062l-.039062.085938c-.253906.589843-.621094 1.109374-1.097656 1.515624-.128906.113282-.269532.199219-.421875.253907-.070313.027343-.15625.042969-.226563.027343-.082031-.011718-.152344-.070312-.195312-.167968-.058594-.125-.042969-.253906-.027344-.378906.027344-.183594.082031-.351563.152344-.519532.210937-.519531.550781-.984375.941406-1.378906.015625-.015625.03125-.027344.058594-.042969 0-.011719.011718-.011719.011718-.027343-.378906-.335938-.730468-.71875-1.011718-1.140626.042968 0 .058594-.011718.085937-.011718h1.125c.054688 0 .097657.027344.125.054687.410157.4375.886719.789063 1.40625 1.054688.550781.296875 1.152344.480469 1.773438.535156 1.6875.167969 3.136719-.351563 4.34375-1.5625.058593-.054687.128906-.097656.210937-.082031h1.140625zm-1.558594-5.484374c.097656 0 .195313.015624.292969 0 .113281-.011719.183594.03125.269531.101562.449219.421875.898438.84375 1.363282 1.265625l.070312.070313c.027344-.03125.054688-.042969.085938-.070313.460937-.4375.941406-.875 1.390624-1.308594.042969-.042969.097657-.058593.15625-.058593h.351563v3.855468c-.058594.011719-.886719.027344-.984375 0v-1.957031l-.015625-.011719c-.324219.292969-.648437.605469-.96875.898438-.324219-.308594-.648437-.605469-.984375-.898438l-.015625.011719v1.96875h-.984375c-.027344-.070313-.042969-3.640625-.027344-3.867187m-9.027344 0h.96875c.027344.070312.027344 3.769531 0 3.855468h-.96875c-.015624-.238281 0-.492187 0-.730468v-.734376h-1.210937v1.449219c-.070313.027344-.898437.027344-.984375 0v-3.839843h.984375v1.367187c.070313.027344 1.097656.027344 1.210937 0zm2.136719 3.855468v-3.839844c.054688-.015624 2.191407-.027343 2.332031-.015624v.816406c-.027343 0-.070312.015625-.097656.015625h-1.25v.632812h1.195313v.84375h-1.183594c-.027344.070313-.027344.574219-.011719.714844.027344 0 .070313.015625.097656.015625h1.25v.816406zm3.457031 0c-.011718-.097656-.011718-3.785156 0-3.855468h.972657v2.84375c.042969 0 .070312 0 .113281.011718h1.25v1.011719zm0 0" fill="#0f1689"/></svg>