<svg height="18" viewBox="0 0 18 18" width="18" xmlns="http://www.w3.org/2000/svg"><path d="m5.578125 4.636719c-.644531 0-1.1875.441406-1.347656 1.039062-.574219.082031-1.015625.566407-1.015625 1.160157 0 .574218.414062 1.058593.960937 1.164062h.003907c.203124.039062.402343.085938.597656.140625h.003906c.789062.214844 2.320312.503906 4.015625.460937.109375.222657.277344.410157.484375.535157.074219.046875.132812.167969.132812.238281 0 .421875.339844.761719.761719.765625.199219 0 .386719-.0625.53125-.183594.140625-.121093.234375-.304687.234375-.515625v-.113281l-.003906-.011719c-.015625-.230468.035156-.460937.144531-.667968.058594-.113282.097657-.238282.121094-.367188.277344-.074219.550781-.152344.820313-.253906v-.003906c.097656-.035157.195312-.058594.292968-.074219h.003906c.582032-.082031 1.015626-.578125 1.015626-1.167969 0-.648438-.53125-1.175781-1.179688-1.175781-.1875 0-.359375.046875-.515625.125-.226563-.511719-.738281-.871094-1.332031-.871094-.671875 0-1.234375.464844-1.402344 1.089844-.246094-.289063-.605469-.484375-1.015625-.484375-.363281 0-.679687.15625-.925781.390625-.089844-.6875-.675782-1.21875-1.386719-1.21875zm0 .320312c.351563 0 .683594.171875.886719.457031.203125.289063.253906.65625.136718.988282-.015624.042968-.011718.09375.011719.132812.027344.042969.066407.070313.113281.078125h.003907c.078125.011719.148437-.03125.175781-.105469l.003906-.003906c.136719-.425781.53125-.714844.980469-.714844.445313 0 .839844.285157.980469.707032.023437.078125.105468.125.183594.109375.082031-.019531.136718-.09375.128906-.175781-.035156-.320313.070312-.636719.285156-.875.214844-.238282.519531-.375.839844-.371094.496094 0 .933594.320312 1.082031.789062.027344.082032.113281.128906.195313.109375l.113281-.03125c.011719-.003906.027343-.007812.039062-.015625.125-.070312.269531-.109375.417969-.109375.226562 0 .445312.089844.605469.25.164062.160157.253906.378907.25.605469.003906.429688-.3125.789062-.738281.847656-.125.019532-.246094.050782-.363282.097656-.289062.105469-.582031.199219-.882812.273438-.066406.015625-.113282.070312-.121094.136719-.011719.125-.050781.25-.109375.359375-.136719.257812-.199219.550781-.179687.84375v-.011719.113281c0 .125-.042969.207032-.117188.269532-.074219.066406-.1875.105468-.324219.105468-.117187.003906-.230469-.042968-.3125-.128906-.082031-.082031-.128906-.195312-.128906-.3125 0-.207031-.105469-.402344-.285156-.511719-.183594-.109375-.324219-.277343-.398438-.476562-.027343-.066407-.089843-.105469-.15625-.105469-1.695312.058594-3.25-.238281-4.027343-.449219h-.003907c-.207031-.058593-.414062-.109375-.628906-.148437l.003906.003906c-.398437-.082031-.703125-.429688-.703125-.851562 0-.460938.367188-.839844.828125-.855469.074219-.003907.136719-.058594.152344-.132813.089844-.515625.539063-.890625 1.0625-.890625zm.347656-4.95312475c-.0625.00781255-.109375.05468755-.128906.11328175-.234375.828124.136719 1.613281.632813 2.199218.109374.132813.230468.261719.355468.378906-.167968-.023437-.335937-.019531-.5.015626-.886718.171874-1.644531.738281-2.054687 1.898437-.167969.476563-.175781.96875-.121094 1.417969.082031-.027344.164063-.042969.253906-.046875.019531-.003907.042969-.011719.058594-.023438-.042969-.40625-.03125-.839843.113281-1.242187.378906-1.078125 1.015625-1.53125 1.8125-1.691406.273438-.054688.5-.007813.742188.074218.121094.039063.25.085938.382812.132813l.027344.007812c.125.042969.261719.085938.410156.113281.050782.011719.105469-.003906.144532-.042968.035156-.035156.054687-.089844.046874-.140625-.035156-.195313-.035156-.394531-.003906-.589844.007813-.039063.015625-.078125.023438-.117187.046875-.21875.132812-.421876.230468-.601563.132813-.238281.300782-.457031.496094-.644531.054688.039062.109375.074218.160156.132812.027344.03125.023438.03125.042969.054688-.246093.230468-.800781.859375-.714843 1.839844.007812.085937.082031.148437.167968.148437.351563-.015625.585938-.128906.792969-.226563.203125-.09375.378906-.167968.699219-.160156.65625.019532 1.226562.535156 1.453125.851563.242187.371093.542969.832031.492187 2.09375v.003906c.070313-.019531.144532-.027344.214844-.027344.039062 0 .074219.003907.109375.007813.042969-1.304688-.304687-1.886719-.550781-2.257813l-.003906-.007812c-.273438-.382813-.894532-.960938-1.707032-.984375-.375-.011719-.628906.09375-.84375.191406-.160156.074219-.3125.132812-.5.164062 0-.964843.707032-1.488281.707032-1.488281.070312-.050781.089843-.148437.039062-.222656 0 0-.066406-.089844-.15625-.191406-.09375-.105469-.203125-.222657-.355469-.285157-.054687-.023437-.121093-.015624-.167969.027344-.261718.238282-.484374.515625-.65625.828125-.035156.0625-.066406.132813-.097656.207031-.070312-.230468-.164062-.441406-.289062-.640624-.339844-.539063-.886719-.945313-1.671875-1.2617192-.027344-.0117188-.058594-.01562505-.085938-.00781255zm.144531.39062475c.636719.28125 1.074219.621094 1.34375 1.050781.195313.3125.308594.683594.355469 1.125.003907.019532.003907.042969.007813.0625.011718.128907.019531.257813.019531.398438-.046875-.023438-.101563-.0625-.152344-.09375-.035156-.019531-.066406-.035156-.101562-.058594-.273438-.179687-.597657-.445312-.871094-.765625-.410156-.496093-.699219-1.097656-.601563-1.71875m6.195313 7.238281c-.121094.015626-.242187.046876-.355469.09375-.089844.03125-.179687.0625-.269531.09375l-.023437.042969c-.003907.007813-.019532.03125-.027344.042969h.402344v.472656c0 .238282.191406.429688.429687.429688h.996094c.578125 0 1.046875.46875 1.046875 1.046875v4.355469c0 .277343-.113282.542968-.308594.742187-.148438.144531-.335938.246094-.539062.285156-.066407.011719-.136719.019531-.203126.019531h-.003906c-.335937 0-.6875 0-.980468-.003906-.117188-.003906-.226563.042969-.308594.121094-.082032.082031-.128906.191406-.128906.308594 0 .351562 0 .945312-.003907 1.203125 0 .03125-.011719.058593-.035156.078125-.164063.121094-.636719.371094-1.546875.539062-.199219.039063-.398438.066406-.601562.089844-.433594.050781-.945313.085938-1.539063.085938-2.332031 0-3.441406-.390626-3.742187-.566407-.03125-.019531-.046876-.050781-.046876-.085937l-.019531-9.121094h.570313c-.007813-.015625-.011719-.023438-.019532-.039062-.046874-.011719-.097656-.023438-.140624-.035157h-.003907c-.207031-.058593-.414062-.105469-.628906-.144531h.003906c-.023437-.003906-.046875-.011719-.074219-.019531-.015624.023437-.027343.050781-.03125.078125 0 0 .019532 8.09375.019532 9.28125 0 .144531.078125.28125.199218.359375l.007813.003906c.402344.234375 1.535156.609375 3.90625.609375 2.429687 0 3.523437-.507812 3.886719-.78125l.003906-.003906c.097656-.082032.15625-.203125.15625-.328125 0-.257813 0-.851563 0-1.203125 0-.03125.011719-.058594.03125-.078125.023438-.019531.050781-.03125.078125-.03125.296875.003906.652344.003906.988281.003906.363282 0 .714844-.140625.972656-.398437.257813-.257813.402344-.605469.402344-.96875v-4.355469c0-.753907-.613281-1.367188-1.367187-1.367188h-.996094c-.03125 0-.058594-.011719-.078125-.03125s-.03125-.050781-.03125-.078125v-.632812c0-.042969-.015625-.082032-.046875-.113282zm.222656 1.929688c-.066406 0-.128906.011719-.191406.039062-.058594.023438-.113281.0625-.160156.105469-.046875.046875-.082031.101563-.109375.164063-.023438.058594-.035156.125-.035156.1875v3.90625c0 .066406.011718.132812.035156.191406.027344.058594.0625.113281.109375.160156s.101562.082032.160156.109375c.0625.023438.125.035157.191406.035157h.855469c.0625 0 .128906-.011719.1875-.035157.0625-.027343.117188-.0625.164062-.109375.042969-.046875.082032-.101562.105469-.160156.027344-.058594.039063-.125.039063-.191406v-3.90625c0-.0625-.011719-.128906-.039063-.1875-.023437-.0625-.0625-.117188-.105469-.164063-.046874-.042969-.101562-.082031-.164062-.105469-.058594-.027343-.125-.039062-.1875-.039062zm0 .324219h.855469c.09375 0 .171875.078125.171875.171875v3.90625c0 .097656-.078125.175781-.171875.175781h-.855469c-.046875 0-.089843-.019531-.125-.050781-.03125-.03125-.050781-.078125-.050781-.125v-3.90625c0-.070313.042969-.132813.109375-.160156.019531-.007813.042969-.011719.066406-.011719zm0 0"/></svg>