<svg height="18" viewBox="0 0 18 18" width="18" xmlns="http://www.w3.org/2000/svg"><g fill="none" stroke="#fff" stroke-linecap="round" stroke-linejoin="round" stroke-width="2" transform="scale(.75)"><path d="m10.817708 16.119792c1.692709.598958 3.911459.791666 5.182292.848958.552083.03125 1-.416667.96875-.96875-.057292-1.270833-.260417-3.5-.848958-5.182292m-4.619792-4.317708c1.640625 0 5-.380208 6.708333-1.067708.520834-.203125.552084-.822917.119792-1.171875-3.973958-3.244792-9.760417-2.953125-13.390625.677083s-3.921875 9.416667-.677083 13.390625c.348958.432292.958333.401042 1.171875-.119792.6875-1.708333 1.067708-5.067708 1.067708-6.708333 1.338542.447917 3.098958.901042 4.880208.619792.380209-.0625.671875-.359375.729167-.739584.302083-2.140625-.151042-3.5-.609375-4.880208"/><path d="m15.619792 16.947917c.197916.854166.619791 2.760416.5 4.28125-.015625.21875-.125.416666-.296875.552083-.171875.130208-.390625.1875-.604167.151042-1.411458-.276042-2.78125-.734375-4.078125-1.364584"/><path d="m16.130208 21.052083c1.651042.630209 3.682292.838542 4.869792.90625.260417.020834.515625-.078125.697917-.260416.182291-.182292.28125-.4375.260416-.697917-.067708-1.65625-.369791-3.296875-.895833-4.869792"/><path d="m16.9375 15.619792c.864583.197916 2.770833.619791 4.291667.5.21875-.015625.416666-.125.552083-.296875.130208-.171875.1875-.390625.151042-.604167-.276042-1.411458-.734375-2.78125-1.364584-4.078125"/><path d="m17.989583 5.520833c1.244792 1.354167 2.302084 2.864584 3.151042 4.5.109375.239584.09375.515625-.041667.744792-.135416.223958-.375.369792-.640625.385417-2.328125.197916-5.296875-.322917-8.270833-1.572917m-7.255208-4.645833-1.932292-1.932292c-.135417-.130208-.208333-.3125-.208333-.5s.072916-.369792.208333-.5m6.578125 10.182292c1.239583 2.979166 1.770833 5.947916 1.572917 8.276041-.015625.265625-.161459.505209-.385417.640625-.229167.135417-.505208.151042-.744792.041667-1.635416-.848958-3.145833-1.90625-4.5-3.151042"/></g></svg>