<svg height="18" viewBox="0 0 18 18" width="18" xmlns="http://www.w3.org/2000/svg"><g fill="none" stroke="#fff" stroke-linecap="round" stroke-linejoin="round" stroke-width="2" transform="scale(.75)"><path d="m10 22v-6.567708m2-4.432292h.010417m-.010417-4h.010417m1.989583 8.432292v6.567708m1-6c-1.776042-1.333333-4.223958-1.333333-6 0m7-5h.010417m-.010417-4h.010417m-8.010417 4h.010417m-.010417-4h.010417"/><path d="m6 2h12c1.104167 0 2 .895833 2 2v16c0 1.104167-.895833 2-2 2h-12c-1.104167 0-2-.895833-2-2v-16c0-1.104167.895833-2 2-2zm0 0"/></g></svg>