<svg height="18" viewBox="0 0 18 18" width="18" xmlns="http://www.w3.org/2000/svg"><g fill="none" stroke="#fff" stroke-linecap="round" stroke-linejoin="round" stroke-width="2" transform="scale(.75)"><path d="m15 21v-8c0-.552083-.447917-1-1-1h-4c-.552083 0-1 .447917-1 1v8"/><path d="m3 10c0-.588542.260417-1.145833.708333-1.526042l7-6c.744792-.630208 1.838542-.630208 2.583334 0l7 6c.447916.380209.708333.9375.708333 1.526042v9c0 1.104167-.895833 2-2 2h-14c-1.104167 0-2-.895833-2-2zm0 0"/></g></svg>