<svg height="18" viewBox="0 0 18 18" width="18" xmlns="http://www.w3.org/2000/svg"><g fill="none" stroke="#fff" stroke-linecap="round" stroke-linejoin="round" stroke-width="2" transform="scale(.75)"><path d="m12 17c5 0 8-2.6875 8-6h-16c0 3.3125 3 6 8 6m-4 4h8m-4-3v3m-6.859375-10c-.427083-1.432292.104167-2.979167 1.322917-3.84375 1.213541-.869792 2.848958-.869792 4.0625 0 1.21875.864583 1.75 2.411458 1.322916 3.84375"/><path d="m12.140625 11c-.427083-1.432292.104167-2.979167 1.322917-3.84375 1.213541-.869792 2.848958-.869792 4.0625 0 1.21875.864583 1.75 2.411458 1.322916 3.84375"/><path d="m15.5 6.5c0-1.932292-1.567708-3.5-3.5-3.5s-3.5 1.567708-3.5 3.5"/></g></svg>