<svg height="18" viewBox="0 0 18 18" width="18" xmlns="http://www.w3.org/2000/svg"><g fill="none" stroke="#fff" stroke-linecap="round" stroke-linejoin="round" stroke-width="2" transform="scale(.75)"><path d="m10.302083 21h-5.302083c-1.104167 0-2-.895833-2-2v-14c0-1.104167.895833-2 2-2h14c1.104167 0 2 .895833 2 2v10l-3.098958-3.098958c-.786459-.770834-2.041667-.760417-2.8125.010416l-9.088542 9.088542"/><path d="m14 19 3 3v-5.5m0 5.5 3-3"/><path d="m11 9c0 1.104167-.895833 2-2 2s-2-.895833-2-2 .895833-2 2-2 2 .895833 2 2zm0 0"/></g></svg>