<svg height="18" viewBox="0 0 18 18" width="18" xmlns="http://www.w3.org/2000/svg"><g fill="none" stroke="#fff" stroke-linecap="round" stroke-linejoin="round" stroke-width="2" transform="scale(.75)"><path d="m18 22h-14c-1.104167 0-2-.895833-2-2v-14"/><path d="m22 13-1.296875-1.296875c-.942708-.942708-2.463542-.942708-3.40625 0l-6.296875 6.296875"/><path d="m14 8c0 1.104167-.895833 2-2 2s-2-.895833-2-2 .895833-2 2-2 2 .895833 2 2zm0 0"/><path d="m8 2h12c1.104167 0 2 .895833 2 2v12c0 1.104167-.895833 2-2 2h-12c-1.104167 0-2-.895833-2-2v-12c0-1.104167.895833-2 2-2zm0 0"/></g></svg>