<svg height="18" viewBox="0 0 18 18" width="18" xmlns="http://www.w3.org/2000/svg"><path d="m14.398438 14.273438c-.714844.648437.085937 1.308593.789062.886718.15625-.167968 0-.730468-.789062-.886718m-10.375 1.039062c.5625.480469 1.433593-.125 1.6875-.800781-.550782-.714844-2.574219.027343-1.6875.800781m10.671874-1.699219c0 .324219 2.363282.535157 2.363282-.070312-.339844-.984375-2.082032-.929688-2.363282.070312m2.195313-5.78125-6.570313-6.722656c-.800781-.773437-2.136718-.773437-2.894531 0l-6.34375 6.484375c-2.136719 2.65625 1.464844 2.347656 2.996094 3.109375.546875.5625-2.125.984375-1.5625 1.546875.550781.5625 3.347656 1.082031 3.898437 1.65625l-.578124 1.730469c.546874.5625 1.828124.027343 2.066406 1.335937.167968.929688 2.308594.394532 3.347656-.363281.546875-.5625-1.054688-.507813-.507812-1.085937 1.378906-1.40625 2.660156-.503907 3.125-1.925782.238281-.703125-2.027344-1.066406-1.476563-1.644531 1.601563-.914063 7.101563-1.519531 4.5-4.121094m-7.875 4.375c-.675781.183594-3.9375-1.152343-3.125-1.152343.171875.097656 2.730469.617187 3.363281.730468.222656.042969.070313.265625-.238281.421875m3.527344-7.242187-1.238281-1-.238282 1.476562-1.039062-.546875-1.660156 1.054688-.546876-2.179688-.914062 1.574219h-1.367188c-.5625 0-.617187-.746094-.109374-1.25.882812-.957031 1.898437-1.941406 2.445312-2.503906s1.519531-.5625 2.066406-.015625l2.503906 2.546875c.238282.238281.238282.703125.097657.84375"/></svg>