<svg height="18" viewBox="0 0 18 18" width="18" xmlns="http://www.w3.org/2000/svg" xmlns:xlink="http://www.w3.org/1999/xlink"><filter id="a" height="100%" width="100%" x="0%" y="0%"><feColorMatrix color-interpolation-filters="sRGB" values="0 0 0 0 1 0 0 0 0 1 0 0 0 0 1 0 0 0 1 0"/></filter><mask id="b"><g filter="url(#a)"><path d="m-1.8-1.8h21.6v21.6h-21.6z" fill-opacity=".783"/></g></mask><mask id="c"><g filter="url(#a)"><path d="m-3.96-3.96h25.92v25.92h-25.92z" fill-opacity=".576"/></g></mask><mask id="d"><g filter="url(#a)"><path d="m-1.8-1.8h21.6v21.6h-21.6z" fill-opacity=".505"/></g></mask><mask id="e"><g filter="url(#a)"><path d="m-1.8-1.8h21.6v21.6h-21.6z" fill-opacity=".217"/></g></mask><mask id="f"><g filter="url(#a)"><path d="m-1.8-1.8h21.6v21.6h-21.6z" fill-opacity=".276"/></g></mask><mask id="g"><g filter="url(#a)"><path d="m-1.8-1.8h21.6v21.6h-21.6z" fill-opacity=".453"/></g></mask><mask id="h"><g filter="url(#a)"><path d="m-1.8-1.8h21.6v21.6h-21.6z" fill-opacity=".512"/></g></mask><mask id="i"><g filter="url(#a)"><path d="m-1.8-1.8h21.6v21.6h-21.6z" fill-opacity=".286"/></g></mask><mask id="j"><g filter="url(#a)"><path d="m-1.8-1.8h21.6v21.6h-21.6z" fill-opacity=".621"/></g></mask><mask id="k"><g filter="url(#a)"><path d="m-1.8-1.8h21.6v21.6h-21.6z" fill-opacity=".286"/></g></mask><mask id="l"><g filter="url(#a)"><path d="m-1.8-1.8h21.6v21.6h-21.6z" fill-opacity=".621"/></g></mask><mask id="m"><g filter="url(#a)"><path d="m-1.8-1.8h21.6v21.6h-21.6z" fill-opacity=".286"/></g></mask><mask id="n"><g filter="url(#a)"><path d="m-1.8-1.8h21.6v21.6h-21.6z" fill-opacity=".621"/></g></mask><mask id="o"><g filter="url(#a)"><path d="m-1.8-1.8h21.6v21.6h-21.6z" fill-opacity=".616"/></g></mask><mask id="p"><g filter="url(#a)"><path d="m-1.8-1.8h21.6v21.6h-21.6z" fill-opacity=".325"/></g></mask><mask id="q"><g filter="url(#a)"><path d="m-1.8-1.8h21.6v21.6h-21.6z" fill-opacity=".478"/></g></mask><mask id="r"><g filter="url(#a)"><path d="m-1.8-1.8h21.6v21.6h-21.6z" fill-opacity=".586"/></g></mask><mask id="s"><g filter="url(#a)"><path d="m-1.8-1.8h21.6v21.6h-21.6z" fill-opacity=".251"/></g></mask><mask id="t"><g filter="url(#a)"><path d="m-1.8-1.8h21.6v21.6h-21.6z" fill-opacity=".363"/></g></mask><clipPath id="u"><path d="m0 0h18v18h-18z"/></clipPath><clipPath id="v"><path d="m0 0h18v18h-18z"/></clipPath><clipPath id="w"><path d="m7.535156 1.195312-6.136718 6.289063c-2.324219 2.328125 1.496093 2.136719 2.882812 3.007813.636719.414062-2.050781.957031-1.511719 1.511718.542969.550782 3.230469 1.050782 3.769531 1.589844.539063.554688-1.082031 1.136719-.554687 1.675781.527344.554688 1.773437.03125 1.996094 1.277344.164062.925781 2.296875.457031 3.242187-.332031l-.488281-1.054688c1.34375-1.355468 2.535156-.609375 3.023437-1.855468.261719-.664063-2.023437-1.148438-1.414062-1.578126 1.453125-1.027343 6.816406-1.554687 4.347656-4.019531l-6.355468-6.511719c-.777344-.730468-2.078126-.730468-2.800782 0m-1.480468 9.644532c.136718 0 4.585937.59375 2.867187 1.050781-.652344.179687-3.65625-1.050781-2.867187-1.050781m8.519531 2.464844c0 .316406 2.421875.484374 2.296875-.070313-.191406-.957031-2.035156-.871094-2.296875.070313m-10.347657 1.660156c.554688.472656 1.382813-.109375 1.648438-.773438-.527344-.707031-2.507812.039063-1.648438.773438m10.054688-.996094c-.675781.625.125 1.273438.789062.84375.167969-.125-.027343-.703125-.789062-.84375"/></clipPath><clipPath id="x"><path d="m0 0h18v18h-18z"/></clipPath><clipPath id="y"><path d="m0 0h18v18h-18z"/></clipPath><clipPath id="z"><path d="m0 0h18v18h-18z"/></clipPath><clipPath id="A"><path d="m0 0h18v18h-18z"/></clipPath><clipPath id="B"><path d="m0 0h18v18h-18z"/></clipPath><clipPath id="C"><path d="m0 0h18v18h-18z"/></clipPath><clipPath id="D"><path d="m0 0h18v18h-18z"/></clipPath><clipPath id="E"><path d="m0 0h18v18h-18z"/></clipPath><clipPath id="F"><path d="m0 0h18v18h-18z"/></clipPath><clipPath id="G"><path d="m0 0h18v18h-18z"/></clipPath><clipPath id="H"><path d="m0 0h18v18h-18z"/></clipPath><clipPath id="I"><path d="m0 0h18v18h-18z"/></clipPath><clipPath id="J"><path d="m0 0h18v18h-18z"/></clipPath><clipPath id="K"><path d="m0 0h18v18h-18z"/></clipPath><clipPath id="L"><path d="m0 0h18v18h-18z"/></clipPath><clipPath id="M"><path d="m0 0h18v18h-18z"/></clipPath><clipPath id="N"><path d="m0 0h18v18h-18z"/></clipPath><linearGradient id="O" gradientTransform="matrix(.136445 0 0 -.136445 .988141 37.620352)" gradientUnits="userSpaceOnUse" x1="98.292999" x2="74.286003" y1="237.026001" y2="215.319"><stop offset="0" stop-color="#c0cdf9"/><stop offset="1" stop-color="#07092d" stop-opacity=".288"/></linearGradient><linearGradient id="P"><stop offset="0" stop-color="#fff"/><stop offset="1" stop-color="#fff" stop-opacity="0"/></linearGradient><linearGradient id="Q" gradientTransform="matrix(.140201 0 0 -.140201 -.003027 38.458334)" gradientUnits="userSpaceOnUse" x1="33.173" x2="60.307999" xlink:href="#P" y1="245.076004" y2="217.940994"/><linearGradient id="R" gradientTransform="matrix(.138943 0 0 -.138943 .433371 38.158223)" gradientUnits="userSpaceOnUse" x1="48.612" x2="81.172997" xlink:href="#P" y1="250.177002" y2="217.615997"/><linearGradient id="S" gradientTransform="matrix(.0735249 0 0 -.0735249 18.269039 17.981219)" gradientUnits="userSpaceOnUse" x1="-32.429001" x2="-32.292999" xlink:href="#P" y1="73.095001" y2="66.244003"/><linearGradient id="T" gradientTransform="matrix(.0991049 0 0 -.158512 4.737515 24.714482)" gradientUnits="userSpaceOnUse" x1="112.547997" x2="112.547997" xlink:href="#P" y1="76.804001" y2="71.973999"/><linearGradient id="U" gradientTransform="matrix(.0283756 -.0143975 -.0332679 -.0655574 43.563154 26.386126)" gradientUnits="userSpaceOnUse" x1="-643.911987" x2="-643.776978" xlink:href="#P" y1="327.835999" y2="320.984009"/><linearGradient id="V" gradientTransform="matrix(.0381603 -.0194296 -.0717078 -.141319 41.320366 34.944792)" gradientUnits="userSpaceOnUse" x1="-341.63501" x2="-341.63501" xlink:href="#P" y1="195.138" y2="190.307999"/><linearGradient id="W" gradientTransform="matrix(.0602241 -.00256736 .0031413 -.0389256 12.148285 23.459654)" gradientUnits="userSpaceOnUse" x1="-136.742996" x2="-136.606995" xlink:href="#P" y1="250.438004" y2="243.585999"/><linearGradient id="X" gradientTransform="matrix(.0837098 .00449886 -.00541121 -.0812383 .646943 28.686663)" gradientUnits="userSpaceOnUse" x1="60.342999" x2="60.342999" xlink:href="#P" y1="183.942001" y2="179.112"/><linearGradient id="Y" gradientTransform="matrix(.0677939 0 0 -.0677939 20.90783 17.38002)" gradientUnits="userSpaceOnUse" x1="-224.589005" x2="-161.636993" xlink:href="#P" y1="68.903" y2="52.257999"/><linearGradient id="Z" gradientTransform="matrix(.123008 0 0 -.123008 5.930408 35.030479)" gradientUnits="userSpaceOnUse" x1="13.153" x2="9.253" y1="197.768005" y2="188.832001"><stop offset="0" stop-color="#eeeeec"/><stop offset="1" stop-color="#eeeeec" stop-opacity="0"/></linearGradient><linearGradient id="aa" gradientTransform="matrix(.0684928 0 0 -.0684928 20.694803 17.270572)" gradientUnits="userSpaceOnUse" x1="-245.694" x2="-235.880005" xlink:href="#P" y1="88.661003" y2="80.863998"/><linearGradient id="ab" gradientTransform="matrix(.0677939 0 0 -.0677939 20.90783 17.38002)" gradientUnits="userSpaceOnUse" x1="-115.447998" x2="-144.875" y1="55.254002" y2="134.487"><stop offset="0" stop-color="#729fcf"/><stop offset="1" stop-color="#729fcf" stop-opacity="0"/></linearGradient><radialGradient id="ac" cx="51.136002" cy="13.518" gradientTransform="matrix(.115599 0 0 -.077299 .211677 17.513512)" gradientUnits="userSpaceOnUse" r="33.212002" xlink:href="#P"/><radialGradient id="ad" cx="147.451996" cy="14.758" gradientTransform="matrix(.147469 0 0 -.0986856 -13.580958 18.017005)" gradientUnits="userSpaceOnUse" r="33.212002" xlink:href="#P"/><radialGradient id="ae" cx="-53.737" cy="94.672997" gradientTransform="matrix(.0735249 0 0 -.0311712 18.361713 13.545122)" gradientUnits="userSpaceOnUse" r="37.174" xlink:href="#P"/><radialGradient id="af" cx="-45.82" cy="80.196999" gradientTransform="matrix(.0735249 0 0 -.0311712 18.361713 13.415545)" gradientUnits="userSpaceOnUse" r="37.174" xlink:href="#P"/><radialGradient id="ag" cx="-34.115002" cy="13.297" gradientTransform="matrix(.0735249 0 0 -.0109029 18.361713 13.602991)" gradientUnits="userSpaceOnUse" r="15.297" xlink:href="#P"/><radialGradient id="ah" cx="-645.598999" cy="1737.484009" gradientTransform="matrix(.0283756 -.0143975 -.00489234 -.00964491 41.618937 22.463026)" gradientUnits="userSpaceOnUse" r="15.297" xlink:href="#P"/><radialGradient id="ai" cx="-185.186996" cy="69.660004" gradientTransform="matrix(.0735249 0 0 -.0299132 18.361713 14.589987)" gradientUnits="userSpaceOnUse" r="24.691999"><stop offset="0" stop-color="#fff" stop-opacity=".33"/><stop offset="1" stop-color="#fff" stop-opacity="0"/></radialGradient><radialGradient id="aj" cx="-62.571999" cy="357.020996" gradientTransform="matrix(.0872235 -.0241822 -.00908578 -.032569 13.466434 25.237964)" gradientUnits="userSpaceOnUse" r="11.363" xlink:href="#P"/><radialGradient id="ak" cx="193.011002" cy="256.753998" gradientTransform="matrix(1.712 0 0 -1.685 -261.606995 451.789001)" gradientUnits="userSpaceOnUse" r="59.424999" xlink:href="#P"/><radialGradient id="al" cx="26.356001" cy="55.589001" gradientTransform="matrix(.0916965 0 0 -.116578 9.418789 20.362534)" gradientUnits="userSpaceOnUse" r="24.385" xlink:href="#P"/><g mask="url(#b)"><g clip-path="url(#v)"><path d="m7.503906 1.207031-6.261718 6.402344c-2.363282 2.363281 1.539062 2.167969 2.949218 3.0625.65625.417969-2.097656.960937-1.535156 1.535156.542969.558594 3.296875 1.078125 3.84375 1.621094.542969.558594-1.105469 1.148437-.558594 1.71875.527344.5625 1.800782.03125 2.023438 1.300781.167968.9375 2.335937.476563 3.3125-.335937.601562-.515625-1.046875-.515625-.5-1.074219 1.367187-1.382812 2.585937-.628906 3.074218-1.902344.277344-.683594-2.070312-1.171875-1.441406-1.605468 1.496094-1.050782 6.949219-1.582032 4.433594-4.097657l-6.472656-6.625c-.8125-.753906-2.125-.753906-2.867188 0m7.171875 12.328125c0 .320313 2.472657.503906 2.335938-.070312-.195313-.976563-2.070313-.894532-2.335938.070312m-10.539062 1.691406c.558593.488282 1.410156-.113281 1.675781-.78125-.542969-.726562-2.558594.027344-1.675781.78125m10.230469-1.019531c-.699219.640625.125 1.300781.8125.867188.179687-.125-.015626-.714844-.8125-.867188"/><g mask="url(#c)"><g clip-path="url(#u)"><path d="m7.503906 1.347656-6.261718 6.402344c-2.363282 2.375 1.539062 2.179688 2.949218 3.074219.65625.417969-2.097656.964843-1.535156 1.539062.542969.558594 3.296875 1.074219 3.84375 1.621094.542969.558594-1.105469 1.144531-.558594 1.71875.527344.558594 1.800782.027344 2.023438 1.300781.167968.933594 2.335937.472656 3.3125-.335937.601562-.519531-1.046875-.519531-.5-1.078125 1.367187-1.382813 2.585937-.628906 3.074218-1.902344.277344-.683594-2.070312-1.171875-1.441406-1.605469 1.484375-1.046875 6.949219-1.578125 4.433594-4.097656l-6.472656-6.636719c-.8125-.753906-2.125-.753906-2.867188 0m7.171875 12.339844c0 .324219 2.472657.503906 2.335938-.066406-.195313-.980469-2.070313-.910156-2.335938.066406m-10.539062 1.679688c.558593.488281 1.410156-.113282 1.675781-.785157-.542969-.710937-2.558594.042969-1.675781.785157m10.230469-1.007813c-.699219.644531.125 1.300781.8125.867187.179687-.125-.015626-.726562-.8125-.867187"/></g></g></g></g><g clip-path="url(#w)"><path d="m7.535156 1.195312-6.136718 6.289063c-2.324219 2.328125 1.496093 2.136719 2.882812 3.007813.636719.414062-2.050781.957031-1.511719 1.511718.542969.550782 3.230469 1.050782 3.769531 1.589844.539063.554688-1.082031 1.136719-.554687 1.675781.527344.554688 1.773437.03125 1.996094 1.277344.164062.925781 2.296875.457031 3.242187-.332031l-.488281-1.054688c1.34375-1.355468 2.535156-.609375 3.023437-1.855468.261719-.664063-2.023437-1.148438-1.414062-1.578126 1.453125-1.027343 6.816406-1.554687 4.347656-4.019531l-6.355468-6.511719c-.777344-.730468-2.078126-.730468-2.800782 0m-1.480468 9.644532c.136718 0 4.585937.59375 2.867187 1.050781-.652344.179687-3.65625-1.050781-2.867187-1.050781m8.519531 2.464844c0 .316406 2.421875.484374 2.296875-.070313-.191406-.957031-2.035156-.871094-2.296875.070313m-10.347657 1.660156c.554688.472656 1.382813-.109375 1.648438-.773438-.527344-.707031-2.507812.039063-1.648438.773438m10.054688-.996094c-.675781.625.125 1.273438.789062.84375.167969-.125-.027343-.703125-.789062-.84375" fill="url(#O)"/></g><g mask="url(#d)"><g clip-path="url(#x)"><path d="m1.800781 7.804688c-1.7031248 1.679687 1.289063 1.21875 3.578125 2.113281l4.753906-8.347657c-.710937-.738281-1.636718-.667968-2.292968 0zm0 0" fill="url(#Q)"/></g></g><g mask="url(#e)"><g clip-path="url(#y)"><path d="m6.597656 13.410156s.265625.40625.238282.601563c-.058594.378906-.867188.574219-.6875.910156.183593.335937.824218.140625 1.355468.488281.53125.351563.390625 1.046875.785156 1.230469.753907.347656 2.765626-.601563 2.65625-.574219-.097656.015625-1.972656.40625-2.390624.070313-.476563-.390625-.617188-.65625-.980469-.894531-.335938-.210938-.796875-.308594-.90625-.476563-.113281-.179687.222656-.402344.234375-.738281.03125-.222656-.304688-.617188-.304688-.617188" fill="url(#ac)"/></g></g><g mask="url(#f)"><g clip-path="url(#z)"><path d="m6.597656 13.410156s.265625.40625.238282.601563c-.058594.378906-.867188.574219-.6875.910156.183593.335937.824218.140625 1.355468.488281.53125.351563.390625 1.046875.785156 1.230469.753907.347656 2.765626-.601563 2.65625-.574219-3.328124.015625-2.699218-.835937-3.984374-1.410156-.183594-.085938-.085938-.308594-.058594-.644531.03125-.207031-.304688-.601563-.304688-.601563" fill="url(#ad)"/></g></g><g mask="url(#g)"><g clip-path="url(#A)"><path d="m12.242188 11.664062c2.980468-1.089843 3.941406-1.242187 4.921874-2.238281-1.144531.964844-3.550781 1.484375-5.507812 2.335938zm0 0" fill="url(#ae)"/></g></g><g mask="url(#h)"><g clip-path="url(#B)"><path d="m12.242188 11.523438c4.90625-1.730469 4.082031-1.730469 4.921874-2.234376-1.566406.601563-4.472656.65625-5.507812 2.332032zm0 0" fill="url(#af)"/></g></g><g mask="url(#i)"><g clip-path="url(#C)"><path d="m16.519531 12.910156c0 .109375-.277343.195313-.640625.195313-.351562 0-.644531-.085938-.644531-.195313 0-.113281.28125-.199218.644531-.199218.363282 0 .640625.085937.640625.199218" fill="url(#S)"/></g></g><g mask="url(#j)"><g clip-path="url(#D)"><path d="m16.746094 13.132812c0 .238282-.394532.417969-.855469.417969-.472656 0-.851563-.195312-.851563-.417969 0-.238281.390626-.421874.851563-.421874.476563 0 .855469.199218.855469.421874" fill="url(#T)"/></g></g><g mask="url(#k)"><g clip-path="url(#E)"><path d="m14.71875 14.304688c.054688.128906.027344.265624-.085938.324218-.109374.054688-.25 0-.304687-.113281-.058594-.125-.03125-.265625.082031-.320313.113282-.070312.25-.015624.308594.109376" fill="url(#U)"/></g></g><g mask="url(#l)"><g clip-path="url(#F)"><path d="m14.84375 14.363281c.097656.179688.042969.390625-.125.472657-.167969.085937-.363281 0-.460938-.179688-.097656-.183594-.042968-.390625.125-.476562.167969-.082032.363282 0 .460938.183593" fill="url(#V)"/></g></g><g mask="url(#m)"><g clip-path="url(#G)"><path d="m5.34375 14.148438c.023438.078124-.199219.191406-.519531.261718-.320313.070313-.585938.066406-.613281-.011718-.023438-.078126.203124-.191407.519531-.261719.320312-.070313.585937-.066407.613281.011719" fill="url(#W)"/></g></g><g mask="url(#n)"><g clip-path="url(#H)"><path d="m5.59375 14.261719c.054688.164062-.246094.367187-.652344.457031s-.796875.027344-.847656-.128906c-.054688-.164063.246094-.367188.652344-.453125.402344-.089844.789062-.039063.847656.125" fill="url(#X)"/></g></g><g mask="url(#o)"><g clip-path="url(#I)"><path d="m3.996094 14.65625s.167968.445312.628906.472656c.476562.03125 1.007812-.558594 1.050781-.765625-.085937.179688-.53125.726563-1.105469.710938-.335937 0-.574218-.417969-.574218-.417969" fill="url(#aj)"/></g></g><g mask="url(#p)"><g clip-path="url(#J)"><path d="m5.476562 10.726562c-.375.113282-1.59375.574219-1.425781.921876.167969.335937 3.007813.476562 3.441407 1.484374.195312.433594-.433594.769532-.28125 1.214844.125.351563 1.0625 1.214844 1.664062 1.636719.476562.320313 1.089844-.265625.839844-.742187-.394532-.769532 1.382812-1.703126 2.179687-2.136719.460938-.253907-.964843-1.484375-.964843-1.484375zm0 0" fill="url(#Y)"/></g></g><g mask="url(#q)"><g clip-path="url(#K)"><path d="m11.949219 11.859375c-.125.476563 1.609375 1.132813 1.46875 1.46875-.28125.726563-1.84375.238281-3.046875 1.761719-.167969.222656.238281 1.003906.179687.90625-.054687-.097656-.472656-.738282-.363281-1.0625.335938-.992188 3.636719-1.367188 3.035156-1.84375-.351562-.265625-1.59375-1.019532-1.273437-1.230469" fill="url(#al)"/></g></g><g mask="url(#r)"><g clip-path="url(#L)"><path d="m15.851562 12.851562c0 .042969-.085937.085938-.199218.085938-.109375 0-.195313-.042969-.195313-.085938 0-.042968.085938-.082031.195313-.082031.113281 0 .199218.039063.199218.082031m-1.273437 1.453126c0 .042968-.054687.085937-.125.085937s-.125-.042969-.125-.085937c0-.039063.054687-.082032.125-.082032s.125.042969.125.082032m-9.601563-.070313c0 .042969-.097656.085937-.210937.085937s-.210937-.042968-.210937-.085937c0-.039063.097656-.082031.210937-.082031s.210937.042968.210937.082031" fill="#fff"/></g></g><g mask="url(#s)"><g clip-path="url(#M)"><path d="m4.847656 10.769531c-1.089844.671875-2.765625.910157-.921875 1.355469-.222656-.488281.476563-.433594.921875-1.355469" fill="url(#aa)"/></g></g><g mask="url(#t)"><g clip-path="url(#N)"><path d="m8.707031 16.878906s1.675781-.15625 2.054688-.644531c.222656-.277344-.894531-.613281-.65625-.894531.90625-1.035156 1.675781-.992188 2.738281-1.4375 1.0625-.433594.671875-.644532.324219-.839844-.589844-.320312-1.902344-.671875-1.46875-1.453125.433593-.785156 4.25-1.875 4.25-1.875 1.160156-.390625 1.003906-1.101563.445312-1.703125l-3.394531-3.371094s.167969 3.214844-.519531 4.601563c-.851563 1.691406-5.367188 3.589843-3.480469 3.800781.671875.070312.992188.308594 1.257812.808594.558594 1.0625-1.550781 3.007812-1.550781 3.007812" fill="url(#ab)"/></g></g><path d="m7.503906 1.054688-6.261718 6.402343c-2.363282 2.363281 1.539062 2.167969 2.949218 3.0625.65625.417969-2.097656.964844-1.535156 1.535157.542969.558593 3.296875 1.078124 3.84375 1.621093.542969.558594-1.105469 1.148438-.558594 1.71875.527344.5625 1.800782.03125 2.023438 1.300781.167968.9375 2.335937.476563 3.3125-.335937.601562-.515625-1.046875-.515625-.5-1.074219 1.367187-1.382812 2.585937-.628906 3.074218-1.902344.277344-.683593-2.070312-1.171874-1.441406-1.605468 1.484375-1.050782 6.949219-1.582032 4.433594-4.097656l-6.472656-6.625c-.8125-.753907-2.125-.753907-2.867188 0m7.171875 12.328124c0 .320313 2.472657.503907 2.335938-.070312-.195313-.964844-2.070313-.894531-2.335938.070312m-10.539062 1.691407c.558593.488281 1.410156-.109375 1.675781-.78125-.542969-.726563-2.558594.042969-1.675781.78125m10.230469-1.019531c-.699219.644531.125 1.300781.8125.867187.179687-.125-.015626-.714844-.8125-.867187"/><path d="m9.992188 1.515625 2.476562 2.515625c.222656.222656.222656.699219.097656.839844l-1.230468-1.007813-.238282 1.46875-1.019531-.546875-1.652344 1.050782-.542969-2.195313-.882812 1.914063-2.21875-.027344c-.421875 0-.367188-.433594.066406-.878906.867188-.953126 2.546875-2.585938 3.078125-3.144532.558594-.5625 1.507813-.53125 2.066407.011719" fill="url(#R)"/><path d="m14.71875 13.371094c.304688.277344 1.984375.417968 2.261719-.085938-.542969.390625-1.746094.253906-2.261719.085938" fill="url(#ag)"/><path d="m14.296875 14.863281c.238281.199219 1.160156.210938.8125-.332031.097656.433594-.53125.390625-.8125.332031" fill="url(#ah)"/><path d="m2.988281 12c0-.042969 3.132813.949219 3.664063 1.496094-.433594-.433594-2.667969-1.414063-3.003906-1.425782-.335938-.015624-.617188-.042968-.660157-.070312" fill="url(#ai)"/><path d="m63.408114 6.511849c-3.409345 0-6.706908 1.201654-8.998435 3.577017l-44.71272 45.802593c-4.107981 4.107981-5.086072 6.81869-4.806617 8.299799.111782.810418.503018 1.397272 1.313436 2.095908.782473.726582 1.984127 1.425218 3.409345 2.012073 2.878381 1.201654 6.678963 2.20769 10.479544 3.213726 3.800581.978091 7.517326 2.095909 10.311871 3.884418.391236.3074.782472.6148 1.089872 1.089873.3074.503018.419182 1.117818.3074 1.704672-.195618 1.117818-.894254 1.704672-1.59289 2.207691-1.397273 1.089872-3.297563 1.90029-5.197854 2.794545-1.900291.894254-3.800581 1.90029-4.806617 2.598926-.503019.419182-.698637.698637-.6148.698637 0 0-.083837-.279455.111781-.083837.586855.586855 2.487146 1.704673 4.890454 2.598927 2.403309.894255 5.309636 1.900291 8.215963 2.794545 2.878381 1.006036 5.896489 1.900291 8.383634 2.906327 2.515091 1.006036 4.611 1.900291 5.89649 3.297563.698637.698636 1.201655 1.592891 1.313437 2.403309.111781.894254-.111782 1.704672-.503019 2.403308-.698636 1.397273-1.788508 2.487146-2.710708 3.493182-.978091 1.006036-1.900291 1.984127-2.179745 2.682763-.195618.3074-.195618.503018-.195618.698636 0 .111782 0 .3074.279454.6148 1.313436 1.397273 4.107981 1.592891 7.321708 2.291527 1.592891.419182 3.297563.894254 4.694836 2.20769 1.397272 1.313437 2.487145 3.101945 2.990163 5.700872.195618 1.089873.810418 1.592891 2.095908 2.012073 1.397273.391236 3.493182.475072 5.812654.195618 4.583054-.698636 10.088308-2.906327 13.190252-5.505254l.195619-.195618c-.195619-.195618-.698637-.503018-1.481109-.894254-1.006036-.503018-2.123854-.9222-3.018109-2.012073-.391236-.6148-.698636-1.397272-.586854-2.291527.083836-.922199.586854-1.620836 1.201654-2.20769 5.197854-5.197854 10.200089-6.51129 14.000671-7.489381 1.90029-.503018 3.493181-1.006036 4.694835-1.704672 1.201654-.810418 2.207691-1.816454 2.990163-3.800581.111782-.195619.111782-.3074 0-.503019-.083836-.307399-.391236-.698636-.894254-1.117818-1.006036-.894254-2.710709-1.788508-4.387436-2.794545-1.704672-.894254-3.325508-1.788508-4.499217-2.906326-.6148-.586855-1.201655-1.173709-1.313436-2.291527-.111782-1.089873.586854-1.984127 1.397272-2.598927 2.990163-2.095909 7.489381-3.688799 12.40778-5.393472 4.890454-1.704672 10.200089-3.493181 14.391907-5.505254 4.303599-1.984127 7.405544-4.303599 8.41158-6.595126.503018-1.201654.586855-2.291527.083836-3.912363-.503018-1.59289-1.704672-3.381399-3.884417-5.477308l-46.193829-47.311647c-2.626872-2.487145-6.008272-3.688799-9.305835-3.688799zm49.798792 86.882404c-2.906327.111782-5.505254 1.397272-6.595126 3.493181.279454.111782.586854.3074 1.089872.419182 1.509055.279454 3.604964.586854 5.58909.586854 2.012073 0 4.107982-.083836 5.421418-.503018.475072-.195618.782472-.279454.978091-.391236-.279455-1.201654-.894255-2.012073-2.095909-2.598927-1.089873-.810418-2.794545-1.089873-4.387436-1.006036zm-76.514642 9.808853c-2.291527-.195618-5.086072.698636-6.483344 1.90029-.698637.586855-1.006037 1.089873-1.006037 1.397273s.083837.810418 1.006037 1.592891c1.481109 1.313436 3.101945 1.117818 5.002235.111781 1.592891-.894254 2.990163-2.51509 3.884418-4.191817-.586855-.419182-1.397273-.726582-2.403309-.810418zm66.202771.698636c-.503018.586854-.698636 1.201654-.782473 1.592891 0 .6148.083837 1.006036.475073 1.397272.810418.810418 2.515091 1.117818 4.303599.111782 0-.195618-.083836-.503018-.391236-.894254-.391236-.810418-1.704672-1.704673-3.604963-2.207691zm0 0" fill="none" stroke="url(#ak)" stroke-width=".488" transform="matrix(.139781 0 0 .139781 .054703 -.203203)"/><path d="m5.617188 11.078125c.335937.25 1.007812.097656 1.414062.277344.964844.433593 2.152344.921875 1.925781.058593l-.234375.207032v-.390625l-.574218.140625s-.449219-.351563-.644532-.476563c-.039062-.027343-.265625.195313-.265625.195313l-.039062-.238282c-.28125-.027343-.5625-.039062-.8125-.039062-.585938.011719-.976563.097656-.769531.265625" fill="url(#Z)"/></svg>