<svg height="18" viewBox="0 0 18 18" width="18" xmlns="http://www.w3.org/2000/svg" xmlns:xlink="http://www.w3.org/1999/xlink"><linearGradient id="a" gradientUnits="userSpaceOnUse" x1="9.101813" x2="9.101813" y1="15.406874" y2="2.593125"><stop offset="0" stop-color="#7400e1"/><stop offset="1" stop-color="#4000bf"/></linearGradient><path d="m9 17.542969c4.71875 0 8.542969-3.824219 8.542969-8.542969s-3.824219-8.542969-8.542969-8.542969-8.542969 3.824219-8.542969 8.542969 3.824219 8.542969 8.542969 8.542969" fill="#fff"/><path d="m9 0c-4.96875 0-9 4.03125-9 9s4.03125 9 9 9 9-4.03125 9-9-4.03125-9-9-9m0 .914062c4.464844 0 8.085938 3.621094 8.085938 8.085938s-3.621094 8.085938-8.085938 8.085938-8.085938-3.621094-8.085938-8.085938 3.621094-8.085938 8.085938-8.085938" fill="#4000bf"/><path d="m9.101562 2.59375c3.539063 0 6.40625 2.867188 6.40625 6.40625s-2.867187 6.40625-6.40625 6.40625c-3.539062 0-6.40625-2.867188-6.40625-6.40625 0-.835938.164063-1.667969.480469-2.441406.453125.617187 1.1875 1.019531 2.011719 1.019531 1.375 0 2.492188-1.117187 2.492188-2.492187 0-.824219-.402344-1.558594-1.019532-2.011719.773438-.316407 1.605469-.480469 2.441406-.480469zm0 0" fill="url(#a)"/></svg>