<svg height="18" viewBox="0 0 18 18" width="18" xmlns="http://www.w3.org/2000/svg"><path d="m6.695312 13.796875c-2.699218.753906 1.644532 2.3125 5.078126.839844-.5625-.21875-.964844-.46875-.964844-.46875-1.53125.289062-2.242188.3125-3.632813.152343-1.148437-.132812-.480469-.523437-.480469-.523437m4.667969-1.46875c-2.03125.390625-3.203125.378906-4.691406.222656-1.148437-.117187-.394531-.675781-.394531-.675781-2.972656.988281 1.652344 2.109375 5.808594.890625-.441407-.152344-.722657-.4375-.722657-.4375m1.59375-8.519531s-6.011719 1.5-3.140625 4.808594c.847656.972656-.222656 1.851562-.222656 1.851562s2.148438-1.109375 1.164062-2.5c-.921874-1.296875-1.628906-1.941406 2.199219-4.160156m1.402344 11.410156s.496094.410156-.546875.726562c-1.980469.601563-8.253906.78125-9.996094.023438-.625-.273438.546875-.648438.917969-.730469.386719-.082031.605469-.066406.605469-.066406-.695313-.492187-4.503906.960937-1.933594 1.378906 7.007812 1.136719 12.773438-.511719 10.953125-1.332031m-2.40625-4.265625c.335937-.230469.800781-.429687.800781-.429687s-1.324218.238281-2.644531.347656c-1.617187.136718-3.351563.164062-4.21875.046875-2.0625-.273438 1.128906-1.03125 1.128906-1.03125s-1.238281-.085938-2.761719.652343c-1.804687.871094 4.453126 1.265626 7.695313.414063m.789063 2.128906c-.015626.042969-.066407.089844-.066407.089844 4.398438-1.15625 2.78125-4.078125.679688-3.335937-.1875.0625-.28125.214843-.28125.214843s.117187-.046875.375-.101562c1.0625-.222657 2.585937 1.421875-.707031 3.132812m-3.714844-3.230469c-.652344-1.464843-2.851563-2.746093 0-5 3.554687-2.804687 1.730468-4.628906 1.730468-4.628906.734376 2.898438-2.597656 3.773438-3.796874 5.578125-.820313 1.230469.402343 2.550781 2.066406 4.050781m3.832031 7.277344c-2.695313.507813-6.023437.449219-8 .125 0 0 .40625.335938 2.484375.46875 3.160156.203125 8.015625-.113281 8.128906-1.609375 0 0-.21875.566407-2.613281 1.015625" fill="#ea2d2e"/></svg>