<svg height="18" viewBox="0 0 18 18" width="18" xmlns="http://www.w3.org/2000/svg"><path d="m6.695312 13.796875s-.667968.390625.480469.523437c1.390625.160157 2.101563.136719 3.632813-.152343 0 0 .402344.25.964844.46875-3.433594 1.472656-7.777344-.085938-5.078126-.839844m-.417968-1.921875s-.753906.558594.394531.675781c1.488281.15625 2.660156.167969 4.691406-.222656 0 0 .28125.285156.722657.4375-4.15625 1.21875-8.78125.097656-5.808594-.890625" fill="#0074bd"/><path d="m9.816406 8.617188c.847656.972656-.222656 1.851562-.222656 1.851562s2.148438-1.109375 1.164062-2.5c-.921874-1.296875-1.628906-1.941406 2.199219-4.160156 0 0-6.011719 1.5-3.140625 4.808594" fill="#ea2d2e"/><path d="m14.359375 15.21875s.496094.410156-.546875.726562c-1.980469.601563-8.253906.78125-9.996094.023438-.625-.273438.546875-.648438.917969-.730469.386719-.082031.605469-.066406.605469-.066406-.695313-.492187-4.503906.960937-1.933594 1.378906 7.007812 1.136719 12.773438-.511719 10.953125-1.332031m-7.339844-5.332031s-3.191406.757812-1.128906 1.03125c.867187.117187 2.601563.089843 4.21875-.046875 1.320313-.109375 2.644531-.347656 2.644531-.347656s-.464844.199218-.800781.429687c-3.242187.851563-9.5.457031-7.695313-.414063 1.523438-.738281 2.761719-.652343 2.761719-.652343m5.722657 3.195312c3.292968-1.710937 1.769531-3.351562.707031-3.132812-.257813.054687-.375.101562-.375.101562s.09375-.152343.28125-.214843c2.101562-.742188 3.71875 2.179687-.679688 3.335937 0 0 .050781-.046875.066407-.089844" fill="#0074bd"/><path d="m10.757812.222656s1.824219 1.824219-1.730468 4.628906c-2.851563 2.253907-.652344 3.535157 0 5-1.664063-1.5-2.886719-2.820312-2.066406-4.050781 1.199218-1.804687 4.53125-2.679687 3.796874-5.578125" fill="#ea2d2e"/><path d="m7.34375 17.722656c3.160156.199219 8.015625-.113281 8.128906-1.609375 0 0-.21875.566407-2.613281 1.015625-2.695313.507813-6.023437.449219-8 .125 0 0 .40625.335938 2.484375.46875" fill="#0074bd"/></svg>