<svg height="18" viewBox="0 0 18 18" width="18" xmlns="http://www.w3.org/2000/svg"><path d="m15.109375 5.8125-.003906-.003906c-1.523438-.175782-2.726563-1.382813-2.902344-2.902344l-.007813-.007812c-.242187-1.582032-1.609374-2.796876-3.261718-2.796876-1.824219 0-3.300782 1.476563-3.300782 3.300782 0 .050781 0 .101562.003907.15625-.339844 1.015625-1.152344 1.800781-2.175781 2.109375-.03125 0-.0625 0-.09375 0-1.820313 0-3.3007818 1.476562-3.3007818 3.300781 0 1.78125 1.4140628 3.230469 3.1796878 3.296875 1.25.289063 2.226562 1.289063 2.480468 2.550781.113282 1.722656 1.542969 3.082032 3.292969 3.082032 1.765625 0 3.207031-1.386719 3.296875-3.125.25-1.117188 1.054688-2.023438 2.132813-2.398438.0625 0 .121093.003906.183593.003906 1.820313 0 3.300782-1.476562 3.300782-3.300781 0-1.660156-1.226563-3.035156-2.824219-3.265625zm-8.363281 3.15625c0-1.171875.882812-2.132812 2.019531-2.261719.019531 0 .035156 0 .054687-.003906.019532 0 .042969 0 .0625-.003906.015626.003906.035157.003906.050782.003906.054687 0 .109375-.003906.164062-.003906 1.21875.042969 2.195313 1.039062 2.195313 2.269531v.050781c-.027344 1.1875-.960938 2.148438-2.140625 2.21875-.023438.007813-.050782.015625-.074219.023438-.027344-.007813-.050781-.015625-.078125-.019531-1.199219-.011719-2.179688-.953126-2.25-2.136719-.003906-.015625-.007812-.035157-.015625-.050781.003906-.019532.007813-.035157.011719-.050782 0-.011718 0-.023437 0-.035156zm0 0" fill="#ff664a"/></svg>