<svg height="18" viewBox="0 0 18 18" width="18" xmlns="http://www.w3.org/2000/svg"><path d="m5.617188 9.921875 2.75 2.226563v3.574218l-4.960938-4.003906zm-2.71875-2.207031 1.585937 1.285156-1.585937 1.28125zm6.734374 4.4375 2.75-2.226563 2.210938 1.792969-4.960938 4.007812zm-6.226562-5.871094 4.957031-4.003906v3.574218l-2.746093 2.226563zm11.695312 1.4375v2.570312l-1.585937-1.285156zm-5.46875-1.867188v-3.574218l4.957032 4.003906-2.210938 1.796875zm6.457032-.210937-6.738282-5.441406c-.113281-.085938-.234374-.1289065-.351562-.1289065-.183594 0-.238281.0429685-.351562.1289065l-6.738282 5.441406c-.1875.152344-.28125.367187-.28125.640625v5.4375c0 .273438.09375.488281.28125.640625l6.738282 5.441406c.113281.085938.230468.128907.351562.128907.179688 0 .238281-.042969.351562-.128907l6.738282-5.441406c.1875-.152344.28125-.367187.28125-.640625v-5.4375c0-.273438-.09375-.488281-.28125-.640625" fill="#5f7389"/></svg>