<svg height="18" viewBox="0 0 18 18" width="18" xmlns="http://www.w3.org/2000/svg"><path d="m8.183594 13.246094c0 2.261718-1.832032 4.09375-4.089844 4.09375-2.261719 0-4.09375-1.832032-4.09375-4.09375 0-2.257813 1.832031-4.089844 4.09375-4.089844 2.257812 0 4.089844 1.832031 4.089844 4.089844zm0 0"/><path d="m18 13.246094c0 2.261718-1.832031 4.09375-4.09375 4.09375-2.257812 0-4.089844-1.832032-4.089844-4.09375 0-2.257813 1.832032-4.089844 4.089844-4.089844 2.261719 0 4.09375 1.832031 4.09375 4.089844zm0 0"/><path d="m13.09375 4.753906c0 2.257813-1.832031 4.089844-4.09375 4.089844s-4.09375-1.832031-4.09375-4.089844c0-2.261718 1.832031-4.09375 4.09375-4.09375s4.09375 1.832032 4.09375 4.09375zm0 0"/></svg>