<svg height="18" viewBox="0 0 18 18" width="18" xmlns="http://www.w3.org/2000/svg"><path d="m9.042969.0585938c-2.214844-.0390626-4.328125.5429682-6.132813 2.2148442-3.78125 3.496093-3.894531 9.484374-.242187 13.109374.65625.652344 1.441406 1.257813 2.296875 1.625.226562-.753906.183594-1.667968.109375-2.5625-.015625-.015624-.03125-.035156-.046875-.054687-.238282-.355469-.0625-1.289063-.0625-1.714844 1.511718.265625 2.742187 1.097657 4.355468.613281 1.582032-.46875 2.242188-2.75.847657-3.832031-.84375-.652343-2.089844-.5625-3.085938-.441406-.59375.070313-1.339843.292969-1.75-.34375-.242187-.371094.007813-1.289063.046875-1.710937.011719-.105469.023438-.214844.03125-.320313.105469-1.3125.28125-2.640625.28125-3.953125h6.414063v-2.222656c-1.03125-.238282-2.058594-.3828128-3.0625-.4062502zm0 0" fill="#dc514a"/><path d="m12.050781.460938v3.914062h-4.664062l-.242188 3.015625c1.035157-.082031 1.996094-.265625 3.03125-.023437.707031.167968 1.375.503906 1.867188 1.046874 1.375 1.515626 1.101562 4.359376-.476563 5.636719-.441406.359375-.949218.59375-1.484375.746094-.496093.160156-.992187.226563-1.492187.230469-.179688.007812-.359375.015625-.535156.015625-.777344 0-1.554688-.101563-2.304688-.3125-.1875-.050781-.484375-.125-.667969-.265625l-.117187-.027344-.0625 2.53125c4.808594 2.550781 10.933594-.175781 12.660156-5.179688 1.457031-4.230468-.800781-10.21875-5.511719-11.328124zm0 0" fill="#23a161"/></svg>