<svg height="18" viewBox="0 0 18 18" width="18" xmlns="http://www.w3.org/2000/svg"><path d="m16.089844 1.628906h-14.195313c-1.046875 0-1.894531.863282-1.894531 1.910156v10.917969c0 1.050781.847656 1.898438 1.910156 1.914063h14.179688c1.046875 0 1.894531-.847656 1.910156-1.914063v-10.917969c-.015625-1.046874-.863281-1.910156-1.910156-1.910156zm-11.449219 12.871094c-.964844 0-1.753906-.773438-1.753906-1.734375 0-.980469.789062-1.753906 1.753906-1.753906.285156 0 .574219.070312.832031.214843l-1.292968.746094c-.429688.246094-.574219.804688-.328126 1.238282.242188.429687.804688.574218 1.234376.328124l1.292968-.746093c-.015625.949219-.789062 1.695312-1.738281 1.707031m3.460937-3.257812-3.246093 1.878906c-.214844.117187-.472657.058594-.601563-.15625-.117187-.214844-.058594-.472656.15625-.601563l3.246094-1.882812c.214844-.117188.472656-.058594.605469.15625.128906.214843.054687.488281-.160157.605469zm-.015624-6.035157v1.496094c-.816407-.503906-1.074219-1.582031-.574219-2.402344.503906-.816406 1.582031-1.074219 2.402343-.574219.816407.503907 1.074219 1.582032.574219 2.398438-.144531.246094-.347656.449219-.589843.589844v-1.492188c0-.242187-.09375-.472656-.265626-.640625-.167968-.171875-.398437-.265625-.640624-.265625-.503907-.015625-.90625.386719-.90625.890625m1.324218 3.765625c0 .242188-.203125.429688-.433594.429688-.242187 0-.429687-.203125-.429687-.429688l.015625-3.765625c0-.242187.199219-.429687.429688-.429687.246093 0 .433593.199218.433593.429687zm.285156 1.664063c.117188-.214844.390626-.285157.589844-.15625l3.277344 1.894531c.214844.117188.285156.390625.15625.589844-.113281.214844-.386719.289062-.589844.15625l-3.273437-1.878906c-.214844-.128907-.289063-.390626-.160157-.605469zm3.648438 3.867187c-.945312 0-1.722656-.761718-1.734375-1.710937l1.289063.746093c.433593.246094.992187.101563 1.238281-.328124.242187-.433594.097656-.992188-.332031-1.238282l-1.292969-.746094c.253906-.140624.542969-.214843.832031-.214843.964844 0 1.753906.773437 1.753906 1.738281 0 .960938-.789062 1.738281-1.753906 1.753906zm0 0" fill="#fd824e"/></svg>