<svg height="18" viewBox="0 0 18 18" width="18" xmlns="http://www.w3.org/2000/svg"><path d="m1.953125 1.617188c-1.082031 0-1.953125.886718-1.953125 1.964843v10.835938c0 1.078125.875 1.949219 1.964844 1.964843h14.070312c1.078125 0 1.949219-.875 1.964844-1.964843v-10.835938c-.015625-1.078125-.886719-1.964843-1.964844-1.964843zm0 .140624h14.082031c1 0 1.8125.824219 1.824219 1.828126v10.832031c-.011719 1.015625-.820313 1.824219-1.824219 1.824219h-14.070312c-1.015625-.015626-1.824219-.824219-1.824219-1.824219v-10.835938c0-1 .808594-1.824219 1.8125-1.824219m7.316406 1.707032c-.691406-.105469-1.414062.203125-1.804687.835937-.519532.847657-.25 1.960938.59375 2.476563l.105468.066406v-1.605469c0-.464843.367188-.828125.828126-.816406.222656 0 .433593.085937.589843.242187.152344.15625.242188.367188.238281.585938v1.605469l.105469-.0625c.253907-.148438.460938-.355469.609375-.609375.519532-.84375.25-1.957032-.59375-2.472656-.203125-.128907-.433594-.210938-.671875-.246094m-.019531.136718c.214844.03125.421875.105469.617188.226563.78125.480469 1.027343 1.503906.546874 2.285156-.113281.195313-.273437.351563-.453124.480469v-1.34375c0-.253906-.101563-.5-.28125-.683594-.183594-.179687-.429688-.28125-.6875-.28125-.535157-.015625-.96875.417969-.96875.953125v1.324219c-.679688-.507812-.890626-1.449219-.4375-2.1875.359374-.585938 1.023437-.871094 1.664062-.773438zm-.257812 1.136719c-.265626 0-.496094.21875-.496094.5l-.015625 3.734375c0 .265625.21875.496094.5.496094.265625 0 .496093-.214844.496093-.496094l.011719-3.734375c0-.265625-.214843-.5-.496093-.5zm0 .140625c.203124 0 .359374.167969.359374.359375l-.015624 3.734375c0 .203125-.167969.355469-.355469.355469-.199219 0-.359375-.160156-.359375-.355469l.015625-3.734375c0-.207031.164062-.359375.355469-.359375m1.132812 5.460938c-.199219-.027344-.398438.070312-.496094.25-.144531.246094-.058594.546875.183594.695312l3.246094 1.863282c.234375.152343.550781.066406.683594-.179688.148437-.234375.0625-.546875-.183594-.679688l-3.246094-1.878906c-.054688-.039062-.121094-.0625-.1875-.070312zm-2.300781.007812c-.066407.007813-.128907.027344-.191407.058594l-3.222656 1.867188v.003906c-.246094.144531-.3125.445312-.183594.6875v.003906h.003907c.144531.246094.449219.3125.691406.183594l3.21875-1.867188c.25-.132812.332031-.449218.183594-.695312-.109375-.183594-.304688-.269532-.5-.242188zm2.144531.136719c.09375-.023437.191406-.007813.269531.042969l3.253907 1.882812c.179687.097656.238281.320313.132812.484375l-.003906.003907v.003906c-.09375.179687-.320313.238281-.484375.128906h-.003907l-3.25-1.867188c-.183593-.109374-.242187-.320312-.132812-.503906h.003906v-.003906c.042969-.082031.121094-.144531.214844-.171875zm-1.988281.003906c.089843.023438.171875.082031.226562.171875.109375.183594.046875.40625-.128906.5l-.003906.003906-3.21875 1.867188c-.183594.097656-.394531.050781-.503907-.132812-.097656-.183594-.050781-.394532.128907-.503907l3.21875-1.863281c.09375-.050781.191406-.0625.28125-.042969m-3.308594.4375c-.992187 0-1.808594.800781-1.808594 1.808594 0 .992187.816407 1.792969 1.808594 1.792969h.003906c.976563-.011719 1.777344-.785156 1.792969-1.761719v-.125l-1.386719.804687c-.394531.222657-.910156.089844-1.132812-.304687-.222657-.394531-.089844-.90625.300781-1.128906h.003906l1.386719-.804688-.105469-.058593c-.265625-.144532-.558594-.222657-.859375-.222657zm8.640625 0c-.300781 0-.597656.078125-.859375.222657l-.109375.058593 1.390625.804688c.394531.222656.523437.734375.300781 1.128906s-.734375.527344-1.128906.304687l-1.390625-.804687v.125c.015625.976563.816406 1.761719 1.796875 1.761719.992188-.011719 1.808594-.8125 1.808594-1.808594 0-.992188-.816406-1.792969-1.808594-1.792969zm-8.640625.140625c.230469 0 .457031.058594.667969.152344l-1.15625.671875c-.460938.261719-.613282.859375-.355469 1.320313.261719.460937.863281.613281 1.320313.355468h.003906l1.144531-.664062c-.085937.832031-.769531 1.472656-1.625 1.488281-.914063 0-1.667969-.738281-1.667969-1.65625 0-.929687.753906-1.667969 1.667969-1.667969m8.640625 0c.917969 0 1.667969.738282 1.667969 1.652344 0 .917969-.75 1.65625-1.667969 1.671875-.855469 0-1.539062-.65625-1.625-1.488281l1.148438.664062c.460937.257813 1.058593.105469 1.320312-.355468.261719-.460938.109375-1.058594-.351562-1.320313h-.003907l-1.15625-.671875c.210938-.09375.4375-.152344.667969-.152344" fill="#fd824e"/></svg>