<svg height="18" viewBox="0 0 18 18" width="18" xmlns="http://www.w3.org/2000/svg"><path d="m16.09375 1.671875h-14.1875c-1.050781 0-1.90234375.851563-1.90625 1.902344v10.929687c.00390625 1.050782.855469 1.902344 1.90625 1.90625h14.1875c1.050781-.003906 1.898438-.855468 1.902344-1.90625v-10.929687c-.003906-1.050781-.851563-1.902344-1.902344-1.90625zm-8.488281 10.714844-3.464844 2.011719c-.441406.257812-1.007813.109374-1.265625-.332032-.257812-.445312-.105469-1.011718.335938-1.269531l3.460937-2.011719c.214844-.125.46875-.15625.703125-.09375.238281.0625.441406.21875.566406.429688.257813.441406.105469 1.011718-.335937 1.265625zm1.363281-3.0625h-.007812c-.511719-.003907-.921876-.421875-.921876-.933594l.019532-3.988281c0-.507813.414062-.921875.925781-.921875h.003906c.511719.003906.925781.417969.921875.929687l-.015625 3.988282c-.003906.511718-.417969.921874-.925781.925781m6.125 4.738281c-.257812.441406-.824219.59375-1.265625.339844l-3.46875-2.003906c-.292969-.160157-.472656-.46875-.476563-.804688 0-.332031.179688-.644531.46875-.808594.289063-.167968.648438-.164062.933594.007813l3.46875 2.003906c.445313.253906.59375.820313.339844 1.265625m0 0" fill="#ffc519"/></svg>