<svg height="18" viewBox="0 0 18 18" width="18" xmlns="http://www.w3.org/2000/svg"><path d="m17.976562 18h-17.9531245l5.9765625-13.171875 3.601562 2.734375 4.695313-7.5625zm-6.582031-2.84375h.039063c.441406 0 .871094-.175781 1.191406-.496094.164062-.15625.292969-.34375.382812-.550781.085938-.210937.132813-.4375.128907-.667969.007812-.21875-.035157-.4375-.117188-.640625-.085937-.199219-.214843-.378906-.378906-.527343-.269531-.28125-.636719-.445313-1.023437-.453126h-.027344c-.050782 0-.101563.003907-.152344.019532l.949219-1.453125-.753907-.546875-.359374.542968-.910157 1.441407c-.160156.242187-.289062.449219-.371093.597656-.085938.15625-.15625.316406-.21875.480469-.066407.179687-.101563.367187-.101563.554687-.003906.226563.042969.453125.128906.660157.085938.207031.214844.390624.375.546874.316407.316407.742188.496094 1.183594.492188zm-4.015625-1.566406 1.046875 1.527344h1.121094l-1.234375-1.773438 1.09375-1.566406-.722656-.519532-.320313.4375-.984375 1.429688v-2.878906l-.980468-.824219v5.695313h.980468v-1.53125zm4.015625.609375c-.191406 0-.375-.078125-.507812-.21875-.136719-.140625-.210938-.328125-.210938-.523438 0-.199219.074219-.386719.210938-.527343.132812-.136719.316406-.21875.507812-.21875h.007813c.09375 0 .1875.019531.273437.058593.089844.039063.167969.097657.234375.167969.070313.066406.125.144531.160156.234375.039063.085937.058594.183594.054688.28125 0 .195313-.078125.386719-.214844.527344-.136718.140625-.320312.21875-.515625.21875zm0 0" fill="#7d64ff"/></svg>