<svg height="18" viewBox="0 0 18 18" width="18" xmlns="http://www.w3.org/2000/svg"><path d="m9.101562 1.285156c-4.257812 0-7.710937 3.453125-7.710937 7.714844s3.453125 7.714844 7.710937 7.714844c4.261719 0 7.714844-3.453125 7.714844-7.714844s-3.453125-7.714844-7.714844-7.714844m.410157 1.9375c.121093 0 .199219.003906.277343.019532.1875.035156.199219.058593.121094.226562s-.074218.128906-.074218.730469c-.003907.5-.015626.695312-.042969.71875 0 .003906-.058594.019531-.121094.039062-.214844.054688-.207031.046875-.234375.296875-.007812.066406-.011719.128906-.019531.195313.003906.003906.222656.050781.488281.105469l.484375.101562.527344.296875.195312.316406c.105469.175781.191407.320313.195313.320313 0 0 .152344-.058594.335937-.128906.179688-.070313.332031-.125.332031-.121094.007813.003906.164063 1.089844.160157 1.09375-.023438.015625-1.089844.332031-1.113281.328125-.019532-.003907-.210938-.0625-.425782-.128907-.214844-.066406-.394531-.117187-.394531-.117187-.003906.003906-.015625.226563-.023437.496094-.007813.164062-.015626.328125-.023438.492187-.003906 0-.089844.074219-.195312.160156l-.195313.160157-.152344-.003907c-.082031-.003906-.476562-.011718-.871093-.015624l-.722657-.011719-.230469-.144531c-.101562-.0625-.203124-.125-.304687-.1875-.085937-.050782-.089844-.027344.007813-.234376.042968-.097656.078124-.179687.078124-.1875 0-.007812.3125-.121093.851563-.3125.496094-.171874.84375-.296874.824219-.296874-.066406-.007813-1.679688-.046876-1.765625-.042969-.164063.003906-.53125-.179688-.714844-.355469-.019531-.019531-.050781-1.011719-.03125-1.03125.253906-.230469.410156-.34375.683594-.492188l.277343-.148437.382813.015625c.332031.011719.386719.011719.414063 0 .015624-.011719.203124-.085938.414062-.171875l.382812-.160156-.363281-.023438c-.128906-.007812-.253906-.015625-.378906-.023437-.027344.003906-.257813-.320313-.265625-.367188-.023438-.136718-.046875-.273437-.066406-.410156l-.054688-.375.164063-.273438c.125-.21875.167969-.28125.183593-.28125.011719 0 .226563-.015624.476563-.035156.242187-.019531.40625-.03125.527344-.03125zm3.03125 2.328125.183593.003907c.101563.003906.230469.011718.289063.015624.113281.011719.1875.03125.222656.0625.023438.015626.035157.136719.0625.59375v.046876l-.488281.203124c-.265625.113282-.496094.210938-.503906.214844-.019532.003906-.28125-.363281-.269532-.378906.007813-.003906.082032-.035156.171876-.070312.054687-.019532.109374-.039063.164062-.0625.003906 0 0-.089844-.007812-.195313-.007813-.109375-.007813-.203125-.007813-.207031.003906-.003906.046875-.058594.097656-.117188zm.027343.347657c-.003906 0-.007812.023437-.003906.050781.003906.027343.011719.117187.019532.199219.007812.082031.015624.152343.015624.152343.003907.007813.410157-.109375.40625-.113281 0-.007812-.425781-.289062-.4375-.289062m-2.625.578124c-.019531.007813-.074218.113282-.183593.324219-.085938.164063-.167969.324219-.253907.484375l-.0625.121094.414063-.320312.003906-.070313c.003907-.039063.027344-.171875.050781-.292969.03125-.171875.050782-.257812.03125-.246094m-2.753906 2.640626c.035156.003906.101563.023437.246094.066406.164062.050781.328125.09375.492188.136718.136718.03125.257812.0625.261718.066407.011719.003906-.019531.046875-.078125.113281l-.089843.109375-.109376.273437-.109374.269532.332031-.007813c.179687-.003906.332031-.007812.332031-.007812s.011719-.105469.023438-.230469c.019531-.207031.023437-.230469.046874-.25.011719-.007812.101563-.074219.195313-.144531l.171875-.125.179688.128906.175781.125.019531.242187c.011719.132813.019531.242188.019531.242188l.578125-.007812-.171875-.355469c-.09375-.195313-.171875-.359375-.167969-.359375 0-.003906.113282-.015625.25-.03125.230469-.023438.257813-.027344.421876-.078125.097656-.027344.183593-.054688.191406-.054688.007812 0 .214844.226563.457031.503907.53125.605468.535156.609374.898437.949218.65625.613282.746094.730469.84375 1.082032.0625.230468.085938.296874.3125.773437.117188.25.222657.496094.265626.609375.039062.109375.050781.089844-.109376.183594-.054687.035156-.101562.066406-.101562.074218 0 .039063.136719.097657.59375.246094.589844.191406.691406.265625.550781.40625-.097656.097656-.167969.109375-.738281.109375-.585938 0-.742188-.019531-.808594-.085937-.046875-.050782-.0625-.019532.179688-.378906.117187-.171876.210937-.320313.210937-.320313-.003906 0-.199219.015625-.433593.039063l-.429688.039062-.328125-.027344c-.183594-.015625-.335937-.03125-.339844-.035156-.007812-.003906-.210937-.414062-.449219-.910156l-.441406-.898438-1.328125-.84375-.273437.007813c-.121094 0-.238282.003906-.359375.011719l-.082031.007812-1.109376 1.21875-1.382812 1.328125-.207031.023437-.207031.027344-.429688-.0625c-.238281-.03125-.429688-.058594-.433594-.054687 0 0 .101563.140625.226563.308593.125.167969.222656.3125.222656.316407 0 .007812-.039063.070312-.082031.136719l-.082032.125h-.417968c-.636719 0-.648438-.007813-.554688-.234376.042969-.105468.058594-.121093.226563-.25.292969-.226562.398437-.316406.425781-.363281.007812-.015625-.011719-.039062-.121094-.128906-.070312-.058594-.128906-.117187-.128906-.125.003906-.054687 1.457031-2.039063 1.707031-2.332031.179688-.210938.355469-.425782.523438-.644532l.273437-.351562.09375-.25c.042969-.097656.078125-.199219.117188-.300781.011718-.035157.007812-.050781.039062-.050781zm0 0"/></svg>