<svg height="18" viewBox="0 0 18 18" width="18" xmlns="http://www.w3.org/2000/svg"><path d="m9 0c-4.972656 0-9 4.027344-9 9s4.027344 9 9 9 9-4.027344 9-9-4.027344-9-9-9m0 1.125c.300781 0 .558594.207031.628906.496094 1.523438.136718 2.96875.738281 4.136719 1.726562.101563-.058594.214844-.089844.328125-.09375.359375 0 .652344.292969.652344.652344-.003906.113281-.03125.226562-.089844.324219.984375 1.167969 1.582031 2.613281 1.710938 4.136719.296874.066406.507812.328124.507812.632812 0 .300781-.207031.558594-.496094.628906-.136718 1.523438-.738281 2.96875-1.726562 4.136719.058594.101563.089844.214844.09375.328125 0 .359375-.292969.652344-.652344.652344-.113281-.003906-.226562-.03125-.324219-.089844-1.167969.984375-2.613281 1.582031-4.136719 1.710938-.066406.296874-.328124.507812-.632812.507812-.300781 0-.5625-.207031-.632812-.503906-1.519532-.132813-2.964844-.730469-4.132813-1.71875-.101563.058594-.214844.089844-.328125.09375-.359375-.003906-.652344-.292969-.652344-.652344.003906-.113281.035156-.230469.09375-.328125-.984375-1.167969-1.582031-2.613281-1.714844-4.132813-.296874-.066406-.507812-.328124-.507812-.632812 0-.300781.210938-.5625.503906-.632812.132813-1.519532.734375-2.964844 1.71875-4.132813-.058594-.101563-.089844-.214844-.09375-.328125 0-.359375.292969-.652344.652344-.652344.113281.003906.230469.035156.328125.09375 1.167969-.984375 2.613281-1.582031 4.132813-1.714844.066406-.296874.328124-.507812.632812-.507812m0 .277344c-.203125 0-.371094.167968-.371094.371094 0 .203124.167969.371093.371094.371093s.371094-.167969.371094-.371093c0-.203126-.167969-.371094-.371094-.371094m-.609375.589844c-1.4375.128906-2.800781.695312-3.90625 1.625.125.25.074219.550781-.125.746093-.195313.199219-.496094.246094-.746094.121094-.925781 1.105469-1.488281 2.472656-1.613281 3.910156.253906.09375.421875.339844.421875.609375-.003906.273438-.175781.515625-.429687.605469.128906 1.4375.699218 2.800781 1.625 3.90625.25-.125.550781-.074219.746093.125.199219.195313.246094.496094.121094.746094 1.105469.925781 2.472656 1.488281 3.910156 1.613281.09375-.253906.335938-.421875.605469-.421875.273438 0 .515625.167969.609375.425781 1.4375-.128906 2.800781-.695312 3.90625-1.621094-.125-.25-.074219-.550781.121094-.746093.195312-.195313.496093-.246094.742187-.121094.929688-1.109375 1.492188-2.472656 1.621094-3.910156-.253906-.09375-.421875-.335938-.421875-.605469 0-.273438.167969-.515625.425781-.609375-.128906-1.4375-.695312-2.800781-1.621094-3.90625-.25.125-.546874.074219-.746093-.121094-.195313-.195312-.246094-.496093-.121094-.742187-1.109375-.929688-2.472656-1.492188-3.910156-1.621094-.09375.253906-.339844.421875-.609375.421875-.273438-.003906-.515625-.175781-.605469-.429687m.609375 1.355468c.304688 0 .566406.214844.632812.511719 2.597657.316406 4.550782 2.523437 4.554688 5.140625-.003906 2.617188-1.957031 4.820312-4.554688 5.140625-.0625.296875-.328124.511719-.632812.511719s-.566406-.210938-.632812-.511719c-2.597657-.316406-4.550782-2.523437-4.554688-5.140625.003906-2.617188 1.957031-4.820312 4.554688-5.140625.0625-.296875.328124-.511719.632812-.511719m-5.09375.1875c-.207031 0-.371094.164063-.371094.367188 0 .207031.164063.371094.367188.371094.207031 0 .371094-.164063.371094-.367188 0-.207031-.164063-.371094-.367188-.371094m10.1875 0c-.199219.003906-.363281.167969-.363281.371094 0 .199219.164062.363281.363281.367188.136719.003906.261719-.066407.328125-.183594.070313-.113282.070313-.257813 0-.371094-.066406-.117188-.191406-.1875-.328125-.183594m-5.09375.089844c-.136719-.003906-.261719.066406-.328125.183594-.070313.117187-.070313.261718 0 .375.066406.117187.191406.1875.328125.183594.203125 0 .371094-.164063.371094-.371094 0-.203125-.167969-.371094-.371094-.371094m-.605469.601562c-2.40625.304688-4.207031 2.351563-4.210937 4.773438.003906 2.421875 1.808594 4.464844 4.210937 4.769531.097657-.25.335938-.414062.605469-.414062s.511719.164062.605469.417969c2.40625-.304688 4.207031-2.351563 4.210937-4.773438-.003906-2.421875-1.808594-4.464844-4.210937-4.769531-.097657.25-.335938.414062-.605469.414062s-.511719-.164062-.605469-.417969m.605469 2.921876c1.023438 0 1.851562.828124 1.851562 1.851562s-.828124 1.851562-1.851562 1.851562-1.851562-.828124-1.851562-1.851562.828124-1.851562 1.851562-1.851562m-7.226562 1.480468c-.203126 0-.371094.167969-.371094.371094s.167968.371094.371094.371094c.203124 0 .371093-.167969.371093-.371094s-.167969-.371094-.371093-.371094zm14.453124 0c-.203124 0-.371093.167969-.371093.371094s.167969.371094.371093.371094c.203126 0 .371094-.167969.371094-.371094s-.167968-.371094-.371094-.371094zm-7.226562 5.003906c-.203125 0-.371094.164063-.371094.371094 0 .203125.164063.371094.371094.371094.203125 0 .371094-.167969.371094-.371094 0-.207031-.167969-.371094-.371094-.371094zm-5.09375.09375c-.203125.003907-.363281.167969-.363281.367188 0 .203125.160156.367188.363281.371094.203125 0 .367188-.164063.367188-.371094 0-.203125-.164063-.367188-.367188-.367188zm10.1875 0c-.203125 0-.367188.164063-.367188.367188 0 .207031.164063.371094.371094.371094.203125 0 .367188-.164063.367188-.371094 0-.203125-.164063-.367188-.371094-.367188m-5.09375 2.128907c-.136719-.003907-.261719.066406-.328125.183593-.070313.117188-.070313.261719 0 .375.066406.117188.191406.1875.328125.183594.203125 0 .371094-.167968.371094-.371094 0-.203124-.167969-.371093-.371094-.371093"/></svg>