<svg height="18" viewBox="0 0 18 18" width="18" xmlns="http://www.w3.org/2000/svg"><path d="m17.859375.140625v17.71875h-17.71875v-17.71875zm-11.125 7.761719v-3.839844c0-.054688-.027344-.097656-.054687-.140625l-.308594-.320313c-.042969-.042968-.097656-.070312-.15625-.070312h-1.066406c-.058594 0-.113282.027344-.15625.070312l-.308594.335938c-.027344.042969-.058594.097656-.058594.140625v9.898437c0 .042969.03125.101563.058594.128907l.308594.308593c.042968.042969.097656.054688.140624.054688h1.054688c.054688 0 .113281-.027344.140625-.054688l.308594-.308593c.042969-.042969.058593-.097657.058593-.140625v-3.320313l1.207032-1.152343 3.304687 4.894531c.027344.054687.097657.082031.15625.082031h1.488281c.070313 0 .140626-.039062.171876-.097656l.265624-.519532c.027344-.054687.027344-.140624-.015624-.195312l-3.867188-5.65625 3.574219-3.554688c.042969-.042968.054687-.101562.054687-.140624v-.070313c0-.03125-.011718-.070313-.027344-.101563l-.210937-.476562c-.027344-.070312-.097656-.113281-.167969-.113281h-1.464844c-.054687 0-.109374.027343-.140624.058593zm11.265625-7.902344h-18v18h18zm-11.40625 8.242188 4.53125-4.542969c.011719-.015625.027344-.015625.039062-.015625h1.476563c.015625 0 .03125.015625.03125.027344l.210937.480468c0 .011719.011719.027344.011719.042969v.070313c0 .011718-.011719.027343-.011719.039062l-3.644531 3.617188c-.011719.011718-.011719.027343 0 .039062l3.964844 5.738281c.015625.015625.015625.027344 0 .042969l-.265625.519531c0 .015625-.027344.027344-.042969.027344h-1.488281c-.015625 0-.03125-.011719-.042969-.011719l-3.390625-5.019531-.011718-.015625h-.015626l-1.335937 1.292969c-.015625.015625-.015625.027343-.015625.042969v3.347656c0 .011718-.011719.027344-.011719.042968l-.308593.308594c-.015626.011719-.03125.011719-.042969.011719h-1.054688c-.015625 0-.027343-.011719-.042969-.011719l-.308593-.308594c-.015625-.015624-.015625-.03125-.015625-.042968v-9.902344c0-.011719.015625-.027344.015625-.039062l.308593-.339844c.015626-.011719.027344-.011719.042969-.011719h1.066407c.015624 0 .03125.011719.042968.011719l.308594.324218c.015625.015626.015625.027344.015625.042969zm0 0"/></svg>