<svg height="18" viewBox="0 0 18 18" width="18" xmlns="http://www.w3.org/2000/svg"><path d="m18 0h-18v18h18zm-4.796875 13.78125-.265625.519531c0 .015625-.027344.027344-.042969.027344h-1.488281c-.015625 0-.03125-.011719-.042969-.011719l-3.390625-5.019531c-.011718-.015625-.027344-.015625-.027344 0l-1.335937 1.277344c-.015625.015625-.015625.027343-.015625.042969v3.347656c0 .011718-.011719.027344-.011719.042968l-.308593.308594c-.015626.011719-.03125.011719-.042969.011719h-1.054688c-.015625 0-.027343-.011719-.042969-.011719l-.308593-.308594c-.015625-.015624-.015625-.03125-.015625-.042968v-9.902344c0-.011719.015625-.027344.015625-.039062l.308593-.339844c.015626-.011719.027344-.011719.042969-.011719h1.066407c.015624 0 .03125.011719.042968.011719l.308594.324218c.015625.015626.015625.027344.015625.042969v4.160157c0 .015624.015625.015624.015625.015624l4.527344-4.542968c.011718-.011719.027344-.011719.042968-.011719h1.476563c.011719 0 .027344.011719.027344.027344l.210937.476562c0 .015625.011719.027344.011719.042969v.070312c0 .015626-.011719.027344-.011719.042969l-3.671875 3.628907c-.011719.011718-.011719.027343 0 .039062l3.964844 5.738281zm0 0"/></svg>