<svg height="18" viewBox="0 0 18 18" width="18" xmlns="http://www.w3.org/2000/svg"><path d="m16.953125 4.308594c-.722656-.359375-1.433594-.722656-2.164063-1.066406-1.421874-.667969-2.796874-1.425782-4.226562-2.078126-.460938-.210937-.910156-.457031-1.363281-.691406-.152344-.078125-.289063-.078125-.441407 0-.589843.300782-1.1875.582032-1.785156.871094-1.414062.683594-2.84375 1.417969-4.261718 2.089844-.617188.289062-1.304688.601562-1.867188.898437v9.351563c0 .003906.09375.003906.109375.011718.449219.222657.921875.4375 1.363281.667969.453125.234375.925782.445313 1.386719.664063 1.425781.679687 2.839844 1.402344 4.253906 2.105468.273438.136719.558594.257813.828125.402344.136719.074219.242188.066406.378906 0 .425782-.203125.847657-.402344 1.269532-.605468 1.632812-.796876 3.238281-1.628907 4.878906-2.40625.570312-.269532 1-.5625 1.703125-.855469v-9.34375c-.140625-.007813-.042969-.007813-.0625-.015625m-2.097656 8.640625c-.339844.355469-.738281.621093-1.175781.835937-.109376.054688-.222657.117188-.339844.136719-.179688.027344-.242188.171875-.324219.289063-.144531.203124-.492187.40625-.730469.410156-.066406 0-.132812-.003906-.199218 0-.257813.023437-.492188-.042969-.726563-.160156-.316406-.160157-.664063-.183594-1.019531-.175782-.1875.003906-.351563.046875-.507813.136719-.207031.121094-.320312.394531-.273437.621094.011718.054687-.042969.121093-.078125.214843-.078125-.066406-.160157-.101562-.164063-.144531-.023437-.285156-.042968-.585937.160156-.820312.277344-.320313.640626-.5 1.066407-.53125.109375-.007813.222656.003906.332031 0 .265625-.007813.519531.039062.777344.113281.214844.058594.46875.070312.683594-.066406.078124-.285156-.074219-.492188-.28125-.628906-.21875-.140626-.441407-.289063-.714844-.351563-.191406-.042969-.363282-.179687-.554688-.253906-.1875-.070313-.378906-.148438-.570312-.214844-.179688-.066406-.386719-.066406-.550782-.183594-.300781.015625-.59375-.121093-.898437-.066406-.394531.074219-.792969.140625-1.167969.292969-.28125.113281-.570312.21875-.839844.363281-.160156.085937-.34375.128906-.507812.207031-.132812.058594-.257812.136719-.371094.222656-.191406.152344-.324218.34375-.261718.613282.238281.109375.480468.125.734374.039062.277344-.09375.570313-.074218.859376-.09375.363281-.019531.683593.09375.976562.277344.28125.175781.472656.425781.460938.78125-.003907.078125.011718.15625-.003907.230469-.015625.066406-.058593.125-.101562.21875-.09375-.097657-.242188-.121094-.105469-.265625-.085938-.15625-.035156-.375-.210938-.496094-.152343-.105469-.300781-.222656-.507812-.210938-.121094.007813-.242188.011719-.363281 0-.28125-.027343-.539063.070313-.777344.195313-.332031.167969-.683594.132813-1.035156.136719-.195313-.109375-.433594-.160156-.578125-.347656-.078125-.097657-.109375-.265626-.199219-.296876-.117187-.042968-.222656-.125-.335937-.140624-.292969-.046876-.496094-.25-.734376-.382813-.203124-.109375-.367187-.296875-.539062-.457031-.1875-.179688-.285156-.398438-.328125-.65625-.066406-.382813.082031-.738282.289063-.953125.269531-.285157.605468-.433594.96875-.566407-.089844-.175781-.15625-.375-.277344-.53125-.117188-.152343-.125-.332031-.171875-.492187-.054688-.183594-.050781-.402344-.003907-.589844.046876-.179687.160157-.355469.269532-.511719.105468-.140624.242187-.257812.375-.375.039062-.035156.113281-.039062.164062-.058593.074219.101562.050782.167969-.019531.242187-.074219.074219-.136719.164063-.203125.246094-.191406.230469-.132812.507812-.128906.769531.003906.167969.101562.308594.199218.445313.183594.261718.375.503906.691407.632812.167969.070313.328125.128906.511719.125.164062-.007812.328124-.003906.570312-.003906-.144531-.0625-.214844-.09375-.285156-.128906-.503906-.230469-.765625-.628906-.765625-1.15625 0-.1875.019531-.378906-.003907-.5625-.023437-.160156.070313-.285156.074219-.433594.003907-.136719-.0625-.285156.0625-.402344-.035156-.257812.0625-.519531-.050781-.773437-.0625-.132813-.011719-.28125-.070312-.433594-.117188-.289063-.199219-.574219-.574219-.609375-.039063-.003906-.074219-.070312-.109375-.105469.0625-.140625.132812-.171875.28125-.125.378906.121094.609375.378907.792968.71875.195313.363281.261719.753907.335938 1.152344.070312.402344.03125.800781.058594 1.199219.007812.132812.042968.265625.085937.390625.039063.125.113281.199219.242188.210937.183593.019532.332031.003906.472656-.164062v-.335938c-.140625-.066406-.132813-.238281-.328125-.234375-.074219.003907-.097656-.105469-.09375-.207031.007812-.285156.027344-.574219.003906-.859375-.027344-.304687.042969-.601563.089844-.894531.039062-.257813.070312-.527344.175781-.78125.097657-.238282.117188-.503906.210938-.742188.175781-.433594.371093-.859375.613281-1.265625.136719-.234375.324219-.429687.441406-.675781.007813-.019531.019532-.035156.035156-.050781.167969-.195313.332032-.398438.515626-.578125.21875-.21875.460937-.417969.699218-.632813.253906.222657.515625.417969.730469.652344.582031.644531 1.09375 1.34375 1.421875 2.152344.152344.375.296875.761719.375 1.167969.070312.371093.144531.738281.203125 1.109374.082031.476563.015625.953126.054687 1.425782.007813.09375-.074218.183594-.125.179687-.199218-.011719-.242187.164063-.382812.234375v.339844c.140625.125.28125.171875.453125.167969.207031-.007813.324219-.121094.378906-.332031.0625-.238282.078125-.46875.058594-.703126-.027344-.339843.039063-.667968.085937-.996093.054688-.386719.1875-.757813.386719-1.09375.132813-.222657.535157-.535157.769531-.578125.105469-.023438.191407.011718.230469.15625-.039062.03125-.082031.09375-.132812.101562-.335938.03125-.433594.289063-.53125.542969-.054688.132813-.042969.296875-.082031.429687-.070313.226563-.050782.445313-.050782.667969 0 .136719.039063.269531.0625.402344.023438.125-.054687.261719.058594.375.03125.027344.007812.105469.007812.160156 0 .210938-.003906.417969 0 .628907.015626.523437-.351562 1.105468-.984374 1.265624.394531.03125.777343.066407 1.148437-.164062.363281-.222656.558594-.5625.761719-.90625.003906-.394531.058594-.804688-.308594-1.09375-.078125-.0625-.101562-.132812-.078125-.261719.070313.007813.140625-.003906.167969.027344.203125.214844.472656.382813.566406.6875.027344.085937.113281.167969.109375.25-.011719.214844.035156.425781-.03125.644531-.050781.167969-.101563.332032-.175781.488282-.070313.148437-.167969.285156-.253906.4375.125.058593.242187.136718.375.175781.277343.082031.46875.277343.660156.476562.195312.195313.21875.460938.289062.707031-.101562.265626-.125.5625-.335937.785157m-10.289063-1.105469c-.109375.007812-.21875-.003906-.328125.003906-.179687.011719-.34375.074219-.488281.171875-.148438.097657-.15625.191407-.089844.359375.070313.167969.171875.308594.304688.4375.230468.230469.472656.445313.757812.605469.101563-.5625.417969-.972656.898438-1.273437-.082032-.042969-.148438-.070313-.210938-.105469-.261718-.148438-.539062-.226563-.84375-.199219m9.664063.199219c-.078125-.074219-.390625-.195313-.511719-.199219-.152344 0-.308594.011719-.460938 0-.230468-.019531-.429687.070312-.628906.15625-.09375.039062-.183594.089844-.292968.148438.480468.300781.796874.710937.898437 1.285156.128906-.089844.257813-.167969.371094-.269532.207031-.179687.402343-.367187.59375-.5625.058593-.0625.082031-.160156.117187-.246093.050782-.121094.019532-.222657-.085937-.3125m-6.253907-3.171875c-.152343.003906-.195312.066406-.1875.265625.003907.148437.070313.207031.222657.195312.121093-.007812.253906-.144531.238281-.25-.011719-.105469-.15625-.214843-.273438-.210937m2.011719 0c-.140625-.007813-.289062.117187-.28125.238281.003907.109375.140625.222656.265625.222656.144532 0 .195313-.054687.195313-.222656.003906-.175781-.039063-.234375-.179688-.238281" fill="#0081c2" fill-rule="evenodd"/></svg>