<svg height="18" viewBox="0 0 18 18" width="18" xmlns="http://www.w3.org/2000/svg"><path d="m4.183594 3.160156c-.621094-.015625-1.132813.417969-1.132813.957032v1.761718h-2.554687c-.273438 0-.496094.222656-.496094.496094v.191406c0 .273438.222656.496094.496094.496094h2.554687v3.886719h-2.554687c-.273438 0-.496094.222656-.496094.5v.1875c0 .273437.222656.496093.496094.496093h2.554687v1.75c0 .738282.921875 1.199219 1.660157.828126l9.773437-4.882813c.125-.058594.226563-.140625.308594-.230469h2.710937c.273438 0 .496094-.222656.496094-.496094v-.1875c0-.277343-.222656-.5-.496094-.5h-2.695312c-.082032-.09375-.191406-.179687-.324219-.246093l-9.773437-4.882813c-.164063-.078125-.34375-.125-.527344-.125m2.347656 3.730469h.863281v1.6875h1.679688v.855469h-1.679688v1.683594h-.863281v-1.683594h-1.679688v-.855469h1.679688zm0 0"/></svg>