<svg height="18" viewBox="0 0 18 18" width="18" xmlns="http://www.w3.org/2000/svg"><g fill="none" stroke="#fff" stroke-linecap="round" stroke-linejoin="round" stroke-width="2" transform="scale(.75)"><path d="m16 12h3c.864583 0 1.635417-.557292 1.901042-1.380208l1.057291-3.333334c.088542-.302083.03125-.630208-.15625-.885416-.1875-.25-.484375-.401042-.802083-.401042h-18c-.317708 0-.614583.151042-.802083.401042-.1875.255208-.244792.583333-.15625.885416l1.057291 3.333334c.265625.822916 1.036459 1.380208 1.901042 1.380208h3"/><path d="m18 6v-3c0-.552083-.447917-1-1-1h-3"/><path d="m9 10h6c.552083 0 1 .447917 1 1v10c0 .552083-.447917 1-1 1h-6c-.552083 0-1-.447917-1-1v-10c0-.552083.447917-1 1-1zm0 0"/></g></svg>