<svg height="18" viewBox="0 0 18 18" width="18" xmlns="http://www.w3.org/2000/svg"><path d="m16.3125.421875h-14.625c-.691406-.007813-1.257812.546875-1.265625 1.238281v14.683594c.011719.691406.574219 1.242188 1.265625 1.234375h14.625c.691406.003906 1.257812-.546875 1.265625-1.238281v-14.683594c-.011719-.691406-.578125-1.238281-1.265625-1.234375m-10.804688 14.625h-2.546874v-8.195313h2.546874zm-1.265624-9.3125c-.816407.003906-1.476563-.660156-1.476563-1.472656 0-.816407.660156-1.476563 1.476563-1.480469.8125 0 1.476562.664062 1.476562 1.476562 0 .394532-.160156.769532-.4375 1.046876-.277344.277343-.652344.429687-1.046875.429687zm10.804687 9.3125h-2.546875v-3.988281c0-.949219-.015625-2.167969-1.324219-2.167969-1.304687 0-1.527343 1.035156-1.527343 2.109375v4.046875h-2.542969v-8.195313h2.441406v1.125h.035156c.339844-.644531 1.167969-1.320312 2.40625-1.320312 2.582031-.007812 3.058594 1.691406 3.058594 3.890625zm0 0"/></svg>