<svg height="18" viewBox="0 0 18 18" width="18" xmlns="http://www.w3.org/2000/svg"><g fill-rule="evenodd"><path d="m15.265625 11.75c-.269531.410156-.476563.917969-1.03125.917969-.929687 0-.980469-1.4375-1.914063-1.4375-.929687 0-.878906 1.4375-1.8125 1.4375-.929687 0-.980468-1.4375-1.914062-1.4375-.929688 0-.878906 1.4375-1.8125 1.4375-.929688 0-.980469-1.4375-1.910156-1.4375-.933594 0-.882813 1.4375-1.8125 1.4375-.292969 0-.5-.144531-.671875-.335938-.667969-1.160156-1.050781-2.519531-1.050781-3.96875 0-4.25 3.285156-7.695312 7.339843-7.695312 4.050781 0 7.339844 3.445312 7.339844 7.695312 0 1.214844-.269531 2.363281-.75 3.386719m0 0" fill="#fb70a9"/><path d="m5.742188 10.988281v3.1875c0 .574219-.460938 1.035157-1.035157 1.035157-.570312 0-1.035156-.460938-1.035156-1.035157v-3.847656c.191406-.355469.414063-.660156.8125-.660156.648437 0 .875.8125 1.257813 1.320312zm3.917968.167969v5.039062c0 .636719-.515625 1.152344-1.152344 1.152344-.636718 0-1.152343-.515625-1.152343-1.152344v-5.703124c.21875-.417969.441406-.824219.898437-.824219.726563 0 .921875 1.015625 1.40625 1.488281zm3.683594-.09375v3.660156c0 .570313-.460938 1.035156-1.035156 1.035156-.574219 0-1.035156-.464843-1.035156-1.035156v-4.5c.179687-.308594.394531-.554687.753906-.554687.679687 0 .894531.894531 1.316406 1.394531m0 0" fill="#4e56a6"/><path d="m5.742188 11.964844c-.183594-.222656-.398438-.390625-.714844-.390625-.746094 0-.886719.941406-1.355469 1.367187v-4.0625c0-.570312.464844-1.035156 1.035156-1.035156.574219 0 1.035157.464844 1.035157 1.035156zm3.917968.074218c-.195312-.261718-.425781-.464843-.773437-.464843-.832031 0-.910157 1.164062-1.53125 1.488281v-1.796875c0-.636719.515625-1.152344 1.152343-1.152344.636719 0 1.152344.515625 1.152344 1.152344zm3.683594-.203124c-.160156-.15625-.347656-.261719-.597656-.261719-.804688 0-.902344 1.09375-1.472656 1.453125v-3.644532c0-.570312.460937-1.035156 1.035156-1.035156.574218 0 1.035156.464844 1.035156 1.035156zm0 0" fill-opacity=".298039"/><path d="m15.265625 11.75c-.269531.410156-.476563.917969-1.03125.917969-.929687 0-.980469-1.4375-1.914063-1.4375-.929687 0-.878906 1.4375-1.8125 1.4375-.929687 0-.980468-1.4375-1.914062-1.4375-.929688 0-.878906 1.4375-1.8125 1.4375-.929688 0-.980469-1.4375-1.910156-1.4375-.933594 0-.882813 1.4375-1.8125 1.4375-.292969 0-.5-.144531-.671875-.335938-.667969-1.160156-1.050781-2.519531-1.050781-3.96875 0-4.25 3.285156-7.695312 7.339843-7.695312 4.050781 0 7.339844 3.445312 7.339844 7.695312 0 1.214844-.269531 2.363281-.75 3.386719m0 0" fill="#fb70a9"/><path d="m13.679688 12.511719c1.921874-2.859375 1.972656-6.027344.148437-9.511719 1.351563 1.382812 2.1875 3.28125 2.1875 5.378906 0 1.210938-.28125 2.355469-.777344 3.375-.28125.40625-.496093.914063-1.070312.914063-.175781 0-.34375-.054688-.488281-.15625m0 0" fill="#e24ca6"/><path d="m8.28125 10.28125c2.550781 0 3.625-1.480469 3.625-3.578125 0-2.101563-1.621094-4.035156-3.625-4.035156s-3.625 1.933593-3.625 4.035156 1.074219 3.578125 3.625 3.578125zm0 0" fill="#fff"/><path d="m8.664062 5.320312c0 .828126-.605468 1.5-1.359374 1.5-.75 0-1.359376-.671874-1.359376-1.5 0-.828124.609376-1.5 1.359376-1.5.753906 0 1.359374.671876 1.359374 1.5m0 0" fill="#030776"/><path d="m7.757812 4.976562c0 .378907-.304687.691407-.679687.691407s-.679687-.3125-.679687-.691407c0-.382812.304687-.695312.679687-.695312s.679687.3125.679687.695312m0 0" fill="#fff"/></g></svg>