<svg height="18" viewBox="0 0 18 18" width="18" xmlns="http://www.w3.org/2000/svg"><g fill="#fb70a9" fill-rule="evenodd"><path d="m5.835938 10.777344v3.21875c0 .578125-.46875 1.042968-1.058594 1.042968-.578125 0-1.054688-.464843-1.054688-1.042968v-3.886719c.199219-.351563.417969-.667969.832032-.667969.65625 0 .890624.824219 1.28125 1.335938m0 0"/><path d="m5.835938 11.765625c-.1875-.226563-.40625-.394531-.730469-.394531-.761719 0-.902344.949218-1.382813 1.375v-4.097656c0-.402344 2.292969-.058594 2.113282 3.117187m0 0" fill-opacity=".298039"/><path d="m9.71875 11.097656v5.488282c0 .570312-.476562 1.046874-1.058594 1.046874h-.003906c-.582031 0-1.054688-.476562-1.054688-1.046874v-5.9375c.199219-.367188.644532-.140626 1.054688-.140626.664062 0 .667969.078126 1.0625.589844m0 0"/><path d="m9.71875 11.765625c-.1875-.226563-.410156-.394531-.738281-.394531-.757813 0-.898438.949218-1.378907 1.375v-1.1875c0-.578125.472657-1.050782 1.054688-1.050782h.003906c.582032 0 1.058594.472657 1.058594 1.050782zm0 0" fill-opacity=".298039"/><path d="m13.464844 10.777344v3.21875c0 .578125-.472656 1.042968-1.058594 1.042968-.582031 0-1.054688-.464843-1.054688-1.042968v-3.886719c.195313-.351563.417969-.667969.824219-.667969.664063 0 .894531.824219 1.289063 1.335938m0 0"/><path d="m13.464844 11.765625c-.183594-.226563-.40625-.394531-.726563-.394531-.769531 0-.90625.949218-1.386719 1.375v-2.210938c0-.578125.472657-1.050781 1.054688-1.050781.585938 0 1.058594.472656 1.058594 1.050781zm0 0" fill-opacity=".298039"/><path d="m15.554688 11.546875c-.277344.417969-.488282.925781-1.050782.925781-.949218 0-1.007812-1.449218-1.949218-1.449218-.953126 0-.90625 1.449218-1.855469 1.449218-.945313 0-1.003907-1.449218-1.949219-1.449218-.949219 0-.898438 1.449218-1.855469 1.449218-.949219 0-1-1.449218-1.945312-1.449218-.957031 0-.902344 1.449218-1.855469 1.449218-.292969 0-.507812-.144531-.6875-.335937-.707031-1.21875-1.074219-2.601563-1.066406-4.011719 0-4.289062 3.347656-7.765625 7.488281-7.765625 4.136719 0 7.492187 3.476563 7.492187 7.765625 0 1.230469-.273437 2.382812-.765624 3.421875zm-7.125-1.484375c2.605468 0 3.695312-1.484375 3.695312-3.605469 0-2.128906-1.652344-4.074219-3.695312-4.074219-2.042969 0-3.710938 1.945313-3.710938 4.074219 0 2.121094 1.105469 3.605469 3.710938 3.605469m0 0"/><path d="m8.816406 5.0625c0 .835938-.613281 1.507812-1.382812 1.507812-.765625 0-1.394532-.671874-1.394532-1.507812 0-.839844.628907-1.523438 1.394532-1.523438.769531 0 1.382812.683594 1.382812 1.523438m-.917968-.347656c0 .382812-.320313.695312-.695313.695312-.183594 0-.359375-.074218-.492187-.203125-.128907-.132812-.203126-.308593-.203126-.492187 0-.386719.3125-.707032.695313-.707032.375 0 .695313.320313.695313.707032m6.039062 7.605468c1.960938-2.890624 2.015625-6.085937.152344-9.609374 1.382812 1.40625 2.230468 3.316406 2.230468 5.429687 0 1.183594-.273437 2.347656-.792968 3.40625-.285156.417969-.5.925781-1.085938.925781h-.015625c-.171875 0-.34375-.058594-.488281-.152344m0 0"/></g></svg>