<svg height="18" viewBox="0 0 18 18" width="18" xmlns="http://www.w3.org/2000/svg"><path d="m11.199219 14.570312c-.4375-.117187-.832031-.3125-1.148438-.578124-.148437-.125-.371093-.359376-.675781-.722657l-.105469-.121093-.21875.101562c-.632812.292969-1.457031.585938-2.019531.714844-.242188.054687-.394531.074218-.714844.082031-.652344.019531-1.105468-.066406-1.417968-.273437-.203126-.128907-.347657-.332032-.347657-.476563 0-.097656.066407-.085937.234375.039063.273438.210937.574219.285156 1.101563.289062.296875 0 .390625-.007812.632812-.070312.566407-.140626.902344-.273438 1.671875-.652344l.75-.378906c.003906-.003907-.050781-.148438-.117187-.324219-.070313-.175781-.203125-.546875-.300781-.824219-.097657-.28125-.183594-.503906-.195313-.496094-.007813.003906-.089844.117188-.175781.25-.203125.296875-.253906.351563-.320313.351563-.105469 0-.339843-.164063-.609375-.429688l-.277344-.269531-.015624.097656c-.011719.050782-.011719.167969-.003907.257813.015625.191406 0 .203125-.15625.089843-.097656-.070312-.210937-.253906-.210937-.34375 0-.078124-.046875-.046874-.089844.058594-.019531.058594-.039062.167969-.039062.246094 0 .121094-.007813.140625-.050782.140625-.066406 0-.203125-.171875-.238281-.296875-.050781-.191406-.046875-.183594-.085937-.128906-.019532.023437-.050782.109375-.066407.183594-.035156.15625-.070312.171874-.148437.070312-.132813-.164062-.132813-.449219-.003906-.710938.042968-.089843.078124-.179687.078124-.199218 0-.078125.128907-.226563.246094-.28125.105469-.050782.144532-.054688.457032-.046875.460937.015625.449218.007812.84375.476562.085937.101563.164062.1875.175781.1875.039062 0 .128906-.238281.128906-.34375 0-.148437.078125-.296875.207031-.410156.0625-.050781.121094-.09375.132813-.09375.023437 0 .027343-.140625.003906-.222656-.011719-.046875-.039063-.054688-.183594-.070313-.441406-.039062-.863281-.222656-2.050781-.886718-.566406-.320313-.996094-.421876-1.339844-.316407-.257812.078125-.339844.15625-.378906.363281-.015625.089844-.042969.167969-.058594.171876-.035156.011718-.058594-.070313-.058594-.195313-.003906-.121094-.019531-.144531-.167968-.210937-.097656-.042969-.179688-.054688-.339844-.054688-.195312 0-.230469.007812-.398438.089844-.199218.097656-.367187.230468-.566406.445312-.105468.113282-.121094.148438-.152344.320313-.027343.144531-.046874.195312-.078124.199219-.039063.007812-.046876-.019532-.050782-.179688l-.007812-.1875-.195313-.097656c-.351562-.179688-.609375-.132813-.882812.160156-.242188.261719-.414063.640625-.570313 1.25-.128906.496094-.136718.714844-.054687 1.09375.078125.339844.082031.359375.03125.359375-.09375 0-.382813-1.019531-.511719-1.816406-.0585938-.359375-.0664062-.449219-.0664062-1.335938 0-.847656.0078124-.972656.0507812-1.179687.125-.574219.433594-1.320313.730469-1.761719.335937-.5.8125-1.011719 1.289062-1.375l.253906-.203125c.03125-.027344-.796874-.003906-.972656.023438-.085937.015624-.097656.011718-.089844-.03125.011719-.054688.167969-.09375.566407-.136719.324219-.035157 1.199219-.035157 1.511719 0 .136718.015625.367187.03125.515624.035156.234376.007813.34375.027344.804688.148437l.53125.144532-.058594-.105469c-.074218-.132813-.390625-.5-.527344-.609375-.128906-.097656-.148437-.195312-.035156-.167969.121094.027344.449219.25.601563.402344.078125.082031.1875.222656.238281.3125.050781.09375.128906.210937.167969.261719.117187.144531.109375.273437-.023438.398437-.054687.054688-.117187.128907-.136719.171875-.0625.121094-.222656.636719-.328124 1.0625-.144532.585938-.144532.558594-.054688.730469.046875.082031.082031.164063.082031.1875 0 .019531.003907.035156.007813.035156.1875.027344.375.058594.5625.089844l.5625.089844c.007812 0 .027344-.027344.042968-.0625.023438-.050781.054688-.066407.164063-.078125.34375-.042969.71875-.101563 1.210937-.183594.292969-.046875.558594-.085938.59375-.085938.046876 0 .167969-.113281.472657-.421874.503906-.519532.585937-.652344.585937-.972657 0-.175781-.007812-.207031-.058594-.257812-.054687-.054688-.082031-.058594-.285156-.054688-.140625.007813-.285156.023438-.425781.054688-.167969.042969-.210937.066406-.273437.140625-.042969.050781-.136719.128906-.207032.171875-.070312.042969-.234375.179687-.359375.296875-.125.121094-.257812.222656-.289062.234375-.085938.019531-.25-.054688-.25-.113281 0-.023438.085937-.125.195312-.21875.210938-.191407.3125-.347657.324219-.480469.007812-.085938.003906-.089844-.066406-.085938-.101563.007813-.144532.054688-.085938.089844.023438.011719.042969.039063.042969.0625 0 .042969-.074219.046875-.195313.011719-.101562-.027344-.128906 0-.058593.0625.027343.027344.050781.070312.050781.09375 0 .050781-.039062.050781-.214844-.003906-.109375-.035157-.109375-.035157-.03125.050781.132813.136719.039063.148437-.28125.039062-.207031-.070312-.253906-.097656-.316406-.191406-.0625-.097656-.078125-.285156-.023438-.332031.019532-.015625.089844-.039063.15625-.054688.144532-.03125.210938-.0625.292969-.136718.046875-.042969.058594-.078126.058594-.199219 0-.132813.007813-.15625.097656-.257813.1875-.210937.722657-.476562 1.1875-.589844.421875-.101562.574219-.042968.304688.117188-.125.074219-.476563.414062-.453125.441406.007812.003906.089844-.007812.1875-.035156.125-.03125.203125-.070312.289062-.144531.078125-.0625.160156-.117188.25-.164063.234375-.105468.65625-.140625.65625-.050781 0 .015625-.089844.074219-.199218.128906-.179688.09375-.195313.105469-.136719.121094.109375.03125.296875.027344.414062-.015625.058594-.019531.136719-.035156.175781-.035156.066407.003906.0625.003906-.011718.019531l-.074219.019531.074219.015625c.042968.007813.128906.003907.195312-.007812.257813-.054688.277344-.054688.296875-.023438.023438.042969-.046875.09375-.214843.148438-.074219.019531-.132813.046875-.132813.058593 0 .03125.125.109376.421875.253907.226562.117187.285156.15625.292969.203125.007812.0625.007812.0625-.164063.042968l-.171875-.019531.019531.140625c.015626.121094.035157.15625.179688.308594.226562.238281.214844.304688-.035156.214844l-.101563-.035156-.015625.078124c-.027344.140626-.015625.226563.046875.347657.101563.1875.089844.207031-.085937.15625-.027344-.007813-.0625.078125-.136719.335937-.054687.191406-.089844.355469-.078125.363282.039062.039062 1.613281.308593 1.796875.308593.003906 0 .035156.027344.070313.066407l.058593.066406.394531-.066406.398438-.074219c.003906-.003907.023438-.058594.046875-.125.027344-.066407.066406-.136719.09375-.160157.046875-.042968.046875-.050781-.003906-.269531-.089844-.417969-.246094-.992187-.339844-1.25-.078125-.21875-.109375-.269531-.210937-.363281-.113282-.109375-.117188-.117188-.105469-.226562.007812-.078126.039062-.148438.085937-.203126.039063-.050781.113282-.164062.164063-.25.050781-.089843.152343-.230468.230469-.308593.183593-.1875.503906-.386719.648437-.402344l.109375-.011719-.234375.226563c-.242187.230469-.441406.464843-.507813.597656l-.039062.074219.585938-.152344c.476562-.125.605468-.152344.714843-.140625.074219.007813.28125-.003906.464844-.023437.800781-.09375 2.167969-.011719 2.167969.132812 0 .03125-.019532.039062-.097656.023438-.179688-.027344-.996094-.046876-.96875-.023438.011718.015625.140624.117188.28125.226562.875.691407 1.484374 1.527344 1.800781 2.464844.238281.714844.226562.625.234375 1.777344.007812.996094.003906 1.042969-.058594 1.402344-.144531.84375-.417969 1.800781-.511719 1.800781-.050781 0-.050781-.015625.042969-.417969l.078125-.351562-.066406-.320313c-.1875-.890625-.394531-1.375-.71875-1.683593-.25-.238282-.503907-.257813-.851563-.074219l-.15625.082031-.007812.1875c-.003906.160156-.011719.1875-.054688.1875-.035156 0-.050781-.03125-.0625-.148438-.027344-.222656-.066406-.285156-.300781-.511718-.15625-.148438-.277344-.238282-.417969-.304688-.179687-.089844-.214844-.097656-.410156-.097656-.160156 0-.242188.011719-.34375.058594-.140625.058594-.15625.078125-.167969.257812-.003906.058594-.023437.089844-.050781.097656-.035156.007813-.046875-.019531-.0625-.128906-.019531-.167968-.121094-.277344-.308594-.339844-.410156-.140624-.824218-.039062-1.589844.398438-.464843.261719-1.171874.613281-1.363281.675781-.191406.066407-.464843.117188-.605469.117188-.136718 0-.152343.023437-.152343.171875 0 .082031.003906.085937.097656.085937.050781 0 .15625.03125.230469.066407.167968.085937.25.21875.285156.449218.019531.160156.09375.359375.132812.359375.007813 0 .085938-.085937.175782-.1875.394531-.46875.382812-.460937.84375-.476562.308594-.007813.347656-.003907.457031.046875.128906.0625.195313.140625.246094.296875.023437.070312.054687.144531.089843.210937.113282.210938.105469.507813-.019531.679688-.074219.105468-.113281.089844-.144531-.066406-.019531-.074219-.046875-.160157-.066406-.183594-.03125-.042969-.039063-.035156-.074219.09375-.050781.167968-.195313.347656-.257813.324218-.03125-.011718-.042968-.050781-.042968-.144531 0-.070312-.019532-.175781-.042969-.234375-.039063-.101562-.085937-.136718-.085937-.0625 0 .085938-.117188.277344-.214844.347656-.15625.113282-.171875.105469-.152344-.089843.007812-.089844.003906-.207031-.003906-.257813l-.019532-.09375-.277343.269532c-.28125.269531-.503907.425781-.609375.425781-.0625 0-.105469-.046875-.320313-.359375-.074219-.105469-.136719-.179688-.144531-.164063-.007812.027344.183594 1.007813.203125 1.027344.007813.007813.082031-.015625.164063-.054687.203124-.089844.664062-.203126.972656-.242188.394531-.050781 1.023437-.019531 1.324218.0625.605469.167969.984376.472656 1.164063.933594.078125.203125.09375.578125.039063.804687-.082032.320313-.332032.632813-.6875.867188-.28125.183593-.507813.261719-.757813.257812-.109375 0-.183594-.007812-.167969-.019531.019532-.011719.027344-.042969.023438-.066406-.007813-.039063-.035156-.050782-.144532-.058594l-.132812-.007812v.078124c0 .078126-.003906.082032-.109375.078126-.0625-.003907-.085937-.011719-.050781-.015626.03125-.007812.058594-.03125.058594-.0625l.007812-.078124c.003906-.019532-.148438-.078126-.261719-.097657-.003906 0-.003906.046875-.003906.105469 0 .089844.003906.101562.050781.085938.027344-.007813.050782-.003907.050782.007812 0 .027344-.125.058594-.214844.054688-.03125 0-.136719-.023438-.234375-.046876zm.160156-.019531c-.007813-.007812-.03125-.007812-.050781 0-.019532.007813-.011719.011719.015625.015625.027343 0 .042969-.007812.035156-.015625zm1.148437-.039062c.015626-.011719-.019531-.023438-.09375-.023438-.09375 0-.121093.011719-.121093.042969 0 .035156.015625.039062.09375.023438.054687-.007813.109375-.027344.121093-.042969m-1.089843.007812c0-.011719-.046875-.042969-.105469-.066406-.054688-.027344-.101562-.058594-.101562-.070313 0-.011718.046874 0 .101562.03125.128906.0625.121094.0625.136719-.015624.011719-.058594-.003907-.074219-.113281-.128907-.066407-.035156-.132813-.0625-.148438-.0625-.011719 0-.035156.035157-.050781.082031-.035157.101563-.035157.105469.011719.089844.019531-.007812.039062-.003906.039062.007813s-.027344.03125-.058594.042969c-.046875.015624-.027344.027343.109375.0625l.171875.046874c.003906 0 .007813-.007812.007813-.019531zm.453125-.058593c-.007813-.023438-.011719-.015626-.015625.015624 0 .023438.007812.039063.015625.03125.007812-.007812.007812-.03125 0-.046874zm.820312.027343c-.011718-.011719-.03125-.023437-.046875-.023437-.019531 0-.015625.011718.007813.023437.046875.035157.058594.035157.039062 0m.089844-.007812c0-.007813-.019531-.015625-.039062-.027344-.023438-.007813-.035157-.003906-.027344.011719.015625.023437.066406.035156.066406.015625zm-.625-.058594c-.007812-.007813-.03125-.007813-.050781 0s-.011719.015625.015625.015625.042968-.003906.035156-.015625zm-1.144531-.082031c.019531-.066406-.1875-.199219-.257813-.160156-.117187.0625-.113281.09375.015625.152343.152344.066407.226563.070313.242188.007813zm1.796875-.019532c.144531-.042968.335937-.132812.421875-.199218.042969-.035156.019531-.03125-.125.007812-.109375.03125-.222657.050782-.335938.0625l-.15625.015625.179688-.035156c.117187-.023437.238281-.054687.351562-.085937.109375-.035157.167969-.042969.15625-.023438-.007812.015625.015625.003906.050781-.027344.035157-.035156.066407-.054687.074219-.046875.007813.007813.03125-.007812.050781-.03125.03125-.042969.03125-.042969-.007812-.011719-.027344.019532-.046875.027344-.046875.011719 0-.035156.09375-.113281.109375-.09375.007812.007813.023438 0 .035156-.019531.011719-.019531.007813-.023438-.015625-.011719-.03125.023438-.027343.011719-.019531-.011719.007812-.023437.027344-.035156.042969-.03125.019531.003907.027343-.003906.015625-.015624-.015625-.027344.0625-.210938.089844-.199219.039062.027343.050781-.652344.007812-.753907-.023438-.054687-.027344-.039062-.050781.113282-.042969.269531-.121094.453125-.257813.597656-.226562.230469-.550781.332031-1.085937.328125-.335938-.003906-.359375-.007813-.644531-.105469-.359376-.125-.503907-.199218-.710938-.355468-.433594-.324219-.804688-.878907-.917969-1.363282-.152343-.660156-.253906-1.28125-.285156-1.773437-.015625-.285157-.027344-.566407-.023437-.632813.023437-.253906.089843-.664062.136718-.820312.0625-.210938.167969-.691406.21875-1l.035156-.230469-.078124-.148437c-.117188-.214844-.128907-.441407-.039063-.734376.246094-.800781.34375-1.328124.300781-1.652343-.035156-.265625-.09375-.410157-.21875-.550781-.0625-.070313-.105468-.132813-.097656-.140626.003906-.007812-.003906-.023437-.019531-.03125-.019531-.015624-.023438-.011718-.011719.007813.023438.042969 0 .039063-.121094-.023437-.128906-.066407-.335937-.125-.445312-.125-.058594 0-.066406-.007813-.035156-.027344.042968-.03125-.152344-.015625-.503907.035156-.113281.015625-.246093.027344-.300781.027344-.0625 0-.085938.007812-.066406.023437.023437.011719 0 .015625-.054688.007813-.054687-.007813-.078125-.007813-.058594.003906.023438.015625-.015624.039062-.117187.066406-.082031.023438-.160156.042969-.167969.042969-.03125 0-.019531-.078125.023438-.164063l.039062-.082031-.074218.082031c-.152344.171876-.230469.285157-.269532.394532-.050781.136718-.152344.25-.234375.269531-.066406.019531-.195312-.023437-.195312-.0625 0-.015625.027343-.007813.0625.015625.097656.0625.203125.007812.296875-.15625.085937-.144531.097656-.191406.039062-.144531-.023437.019531-.039062.046875-.039062.066406 0 .015625-.023438.0625-.054688.101563-.054687.066406-.0625.070312-.289062.0625-.222656-.007813-.238282-.007813-.328125.058593-.050781.039063-.109375.074219-.128907.074219-.019531 0-.015624.011719.015626.027344.039062.015625.027343.019531-.046876.011718l-.097656-.011718.054688.046875c.066406.058593.054687.164062-.019532.191406-.023437.007813-.070312.03125-.105468.050781-.058594.035156-.058594.035156-.007813.066406.082031.042969.171875.03125.324219-.042968.097656-.046875.132812-.074219.109375-.09375-.019531-.011719-.011719-.015625.027344-.007813.035156.007813.082031-.007812.121093-.035156.082032-.066406.324219-.179687.382813-.179687.0625 0 .195313-.152344.195313-.222657 0-.03125.035156-.082031.078124-.117187.136719-.117188.738282-.300782.863282-.269532.035156.007813.023437.015626-.027344.015626-.113281.003906-.429688.097656-.648438.1875-.183593.074218-.238281.125-.238281.214843 0 .027344-.019531.066407-.042969.09375-.03125.035157-.042968.089844-.039062.21875.003906.15625-.003906.191407-.082031.328125-.054688.101563-.144531.203125-.253907.296875-.09375.078125-.164062.144531-.160156.152344.003906.003906.046875-.011719.089844-.035156.105469-.050781.132812-.03125.035156.019531-.042968.023438-.058594.042969-.035156.042969.019531 0 .074219-.03125.113281-.066407.054688-.042968.0625-.058593.027344-.046874-.058594.023437.136719-.195313.402344-.453126.097656-.089843.175781-.1875.175781-.210937s.011719-.042969.027344-.042969c.0625 0-.042969.152344-.214844.316406-.101562.097657-.136719.140626-.082031.097657.058593-.039063.152343-.097657.210937-.128907.152344-.078124.214844-.167968.214844-.3125 0-.128906-.0625-.230468-.140625-.230468-.035156 0-.035156.007812-.015625.046875.015625.027343.027344.074219.023438.097656 0 .027344-.015626.011719-.035157-.039063-.050781-.117187-.050781-.132812.019531-.132812.03125 0 .148438-.03125.261719-.066406.304688-.097656.554688-.140625.839844-.140625.226563 0 .273437.011719.390625.070312.273438.136719.382812.289063.429688.617188.027343.179687.027343.234375-.007813.386719-.023437.097656-.0625.289062-.082031.429687-.023438.140625-.046875.265625-.054688.277344-.046875.074219-.054687.363281-.019531.734375.039063.480468.042969.789062.011719.9375-.015625.0625-.042969.214844-.066406.339844-.058594.375-.121094.640624-.15625.683593-.113282.132813-.132813 1.230469-.035157 1.902344.023438.175781.050781.402344.0625.5.007813.101563.035157.261719.0625.359375.03125.097656.046875.183594.042969.191406-.007812.003906.011719.070313.039062.140625.03125.074219.085938.226563.125.339844.074219.222656.269532.617187.394532.808594.125.1875.660156.71875.855468.847656.207032.136719.515626.246094.796876.28125.234374.03125.609374.011719.785156-.039063zm-.660156-.113281c-.191407-.03125-.542969-.125-.710938-.191406-.585938-.238281-1.128906-.890625-1.425781-1.710937-.15625-.421876-.3125-1.207032-.285157-1.417969.011719-.085938.011719-.085938.015626.011719.007812.183593.082031.644531.148437.898437.273437 1.089844.859375 1.902344 1.578125 2.195313.238281.09375.628906.1875.898438.210937.214843.019531.226562.023437.078124.023437-.09375 0-.226562-.007812-.296874-.019531zm-2.445313-3.546875c0-.078125.003906-.109375.007813-.070312.007812.039062.007812.101562 0 .140625-.003907.039062-.007813.007812-.007813-.070313m-.027344-.488281c0-.050781.003907-.070313.011719-.046875.003906.03125.003906.058594 0 .089844-.007812.023437-.011719.003906-.011719-.042969zm.535157-4.886719c-.003907-.140625-.089844-.417968-.164063-.546875-.136719-.234375-.382813-.386719-.699219-.429687l-.179687-.023438.1875.007813c.316406.019531.589843.183593.730469.441406.078124.148437.15625.457031.140624.5625-.007812.074219-.011718.070313-.015624-.011719zm-3.285157-.171875c.023438-.007812.058594-.007812.074219 0 .019531.007813 0 .011719-.042969.011719s-.058593-.007812-.03125-.011719m.183594-.238281c.058594-.007812.132813-.03125.167969-.050781l.0625-.03125-.058594.050781c-.042969.039062-.09375.054688-.167969.050781l-.105469-.003906zm3.972656 9.269531c0-.015625-.058593-.078125-.128906-.136719l-.128906-.113281-.050781.121094c-.0625.148437-.0625.144531.007812.128906.035156-.011719.089844.007813.148438.046875.082031.058594.09375.058594.121093.023438.015625-.023438.03125-.054688.03125-.070313zm-.460937-.042969c.03125-.058593-.003906-.113281-.136719-.207031-.070313-.050781-.078125-.050781-.15625-.007812-.050781.027343-.113281.039062-.152344.03125-.039062-.007813-.070312-.007813-.070312-.003907 0 .007813.070312.0625.15625.125.179687.132813.308593.15625.359375.0625zm-4.28125-.101562c-.074219-.015625-.042969-.019531.113281-.011719.121094.003907.195313 0 .167969-.011719-.066406-.023437.1875-.058593.289062-.039062.054688.011719.058594.007812.019532-.007812-.042969-.019532-.035157-.027344.046874-.042969.054688-.007813.121094-.007813.152344 0 .046875.011719.050782.011719.019532-.015625-.03125-.023438-.019532-.023438.050781-.011719.050781.007813.078125.003906.058593-.007813-.019531-.011718.042969-.042968.167969-.078124.109375-.03125.484375-.199219.832031-.367188.710938-.347656.640626-.285156.679688-.621094l.015625-.148437-.070313.03125c-.042968.019531-.085937.046875-.097656.066406-.011718.019531-.03125.027344-.046875.015625-.015625-.007812-.023437-.003906-.011719.011719.03125.050781-.546874.507812-.925781.730469-.445312.261718-1.039062.4375-1.433593.429687-.109376-.003906-.097657-.007813.074218-.023437.480469-.050782.886719-.175782 1.273438-.394532.273437-.160156.644531-.421875.847656-.609375l.140625-.128906-.597656.296875c-.929688.457031-1.625.664062-2.203125.664062-.515625-.003906-.933594-.105468-1.148438-.28125l-.113281-.097656.128906.132813c.070313.074219.117188.136719.105469.136719-.058594 0 .085938.105468.230469.167968.113281.050782.15625.078125.132812.09375-.019531.015625-.015625.019532.019531.007813.023438-.007813.089844-.007813.140626.003906.078124.011719.082031.019531.039062.035156-.03125.015625-.007812.015625.066406.007813.082032-.007813.101563-.003906.0625.015625-.035156.015625-.011718.019531.089844.011719.097656-.007813.121094-.003907.078125.011718-.039063.011719.039063.019532.207031.015625.214844-.007812.238282-.003906.113282.011719-.136719.015625-.125.019531.117187.019531.203125 0 .242187-.003906.167969-.019531zm-.578125-.09375c-.230469-.039062-.71875-.171875-.792969-.214844-.109375-.070312-.089844-.09375.023438-.027344.121093.070313.664062.207032.925781.234376.191406.015624.199219.019531.0625.019531-.085938 0-.183594-.003907-.21875-.011719zm4.960937-.074219c0-.027343-.046875-.09375-.101562-.148437l-.097656-.097656-.066407.09375-.066406.097656.132813.109375c.132812.105469.136718.109375.167968.054687.015625-.03125.03125-.078125.03125-.109375zm.207032.082031c0-.003906-.019532-.023437-.046876-.042968-.039062-.03125-.039062-.03125-.007812.007812.03125.042969.054688.058594.054688.035156zm1.914062-.144531c.410156-.109375.632812-.316406.734375-.695312.039063-.144531.050781-.539063.015625-.53125-.011719.003906-.027344-.011719-.035156-.03125-.007813-.023438-.003906-.027344.023437-.015625.019531.011718.023438.011718.011719 0-.011719-.015625-.035156-.023438-.046875-.023438-.015625 0-.035156-.015625-.042969-.035156-.007812-.027344 0-.03125.023438-.015625.019531.011719.027344.011719.019531 0s-.023437-.015625-.03125-.011719c-.003906.003906-.039063-.015625-.074219-.050781l-.066406-.058594.039062.109375c.027344.082032.035157.179688.027344.34375-.015625.316406-.082031.488282-.273437.679688-.238281.246094-.539063.367187-.933594.371094-.136719.003906-.203125.011718-.167969.023437.101563.03125.5625-.003906.777344-.058594zm-2.582031 0c.015625-.03125.019531-.066406.003906-.085937-.1875-.25-.210937-.269532-.289063-.238282-.058593.019532-.109374.019532-.230468-.015624l-.15625-.039063.171875.1875c.136719.152344.1875.195313.261719.207031.050781.007813.105468.019532.121093.023438.058594.019531.089844.011718.117188-.039063zm-.363281.015625c0-.003906-.023438-.027344-.054688-.054687l-.058594-.050781.046875.058593c.046875.054688.066407.070313.066407.046875zm.875-.023437c0-.007813-.019532-.027344-.042969-.046875-.042969-.03125-.042969-.03125-.011719.011718.035156.042969.054688.054688.054688.035157zm1.304687-.007813c-.007813-.007812-.03125-.007812-.046875 0-.023438.007813-.015625.011719.011719.015625.027343 0 .042969-.007812.035156-.015625zm.324219 0c-.019532-.007812-.046875-.007812-.066406 0-.015626.007813-.003907.011719.03125.011719.035156 0 .050781-.003906.035156-.011719m.25-.117187c.144531-.050781.460937-.246094.460937-.289063 0-.011718.023438-.039062.046875-.058594.023438-.019531.027344-.027343.007813-.019531-.027344.015625-.03125.007813-.015625-.027343.089844-.230469.082031-.429688-.03125-.660157-.148438-.296875-.433594-.511719-.84375-.632812-.183594-.054688-.648438-.132813-.824219-.136719-.058594 0-.078125-.007812-.050781-.015625.082031-.019531.570312.042969.828125.109375.453125.113281.757812.332031.917969.652344.074218.152344.082031.191406.082031.394531v.222656l.050781-.09375c.070312-.140625.085938-.5.023438-.667969-.078126-.21875-.164063-.320312-.363282-.425781-.363281-.191406-.921875-.277343-1.472656-.230469-.339844.027344-.855469.128907-.835938.160157.007813.011719.066407.035156.132813.050781s.21875.074219.335937.132812c.207032.097657.214844.101563.5.101563.480469 0 .804688.097656 1.019532.308594.210937.203125.285156.480469.191406.695312-.082031.183594-.222656.320313-.425781.421875l-.183594.09375.152344-.019531c.101562-.011719.199219-.035156.296875-.066406m-6.820313.039062c-.027343-.007812-.070312-.007812-.105469 0-.03125.003907-.011718.011719.046876.011719.054687 0 .082031-.003906.058593-.011719m.28125.003907c-.007812-.011719-.03125-.011719-.050781-.003907-.019531.007813-.011719.015625.015625.015625s.042969-.003906.035156-.015625zm4.203125-.34375-.125-.179688-.082031.113281c-.046875.0625-.074219.113281-.0625.113281.015625 0 .082031.070313.148437.15625l.121094.15625.0625-.089843.0625-.09375zm.355469.324218c0-.007812-.027344-.03125-.058594-.058594l-.058593-.050781.050781.058594c.046875.054687.066406.070313.066406.050781zm1.511719-.058594c.269531-.078124.570312-.375.570312-.5625 0-.183593-.214844-.375-.554687-.496093-.199219-.070313-.214844-.070313-.742188-.070313-.515625.003906-.550781.003906-.746093.070313-.113282.039062-.230469.085937-.257813.105469-.046875.03125-.042969.042968.070313.1875.15625.203124.464843.488281.644531.597656.335937.199218.703125.261718 1.015625.167968m-3.789063-.140624c.011719-.011719 0-.019532-.023437-.007813-.042969.015625-.050782.035156-.015625.035156.011719 0 .03125-.011719.039062-.027343m1.550781-.152344c.027344-.042969.011719-.085938-.085937-.292969l-.117187-.246094-.109376.042969c-.097656.035156-.121093.035156-.242187 0-.074219-.023438-.132813-.035156-.132813-.027344 0 .007813.054688.117188.121094.238282l.117188.226562.171875.050781c.21875.066407.238281.066407.277343.007813zm-1.0625-.050782c-.007812-.015624 0-.027343.015626-.027343.019531 0 .027343-.007813.015624-.015625-.019531-.023438-.070312.015625-.054687.042968.007813.011719.019531.023438.027344.023438.007812 0 .007812-.011719-.003907-.023438m1.195313-.132812.058594-.082031-.109375-.226563c-.0625-.125-.121094-.230468-.132813-.230468-.03125 0-.1875.152343-.15625.15625.015625 0 .078125.105468.140625.230468.058594.128906.113282.230469.125.230469.007813 0 .042969-.035156.074219-.078125m3.695313-.03125c-.007813-.015625-.011719 0-.011719.035156s.003906.046875.011719.03125c.007812-.019531.007812-.046875 0-.066406m-4.683594.035156c.007812-.015625 0-.019531-.023438-.011718-.046875.015624-.054687.035156-.015625.035156.015625 0 .03125-.011719.039063-.023438m.222656-.078125c-.023438-.042969-.054688-.078125-.074219-.078125-.015625 0 .003907.035156.039063.078125.085937.097657.089844.097657.035156 0zm-.253906-.042969c.03125-.015624.0625-.03125.089844-.046874.015624-.011719-.132813-.296876-.152344-.296876-.011719 0-.023438.027344-.023438.058594s-.007812.117188-.015625.191406c-.007812.074219-.007812.136719.003907.136719.007812 0 .050781-.019531.097656-.042969zm4.355468-.21875c-.007812-.019531-.011718-.015624-.015624.015626 0 .027343.003906.042968.015624.03125.007813-.007813.007813-.027344 0-.046876zm-3.800781-.121093.085938-.070313-.0625-.203125c-.070313-.222656-.066407-.21875-.265625-.179687-.054688.011718-.113282 0-.179688-.03125-.230468-.117188-.226562-.121094-.125.179687l.09375.269531.171875.054688c.09375.027344.175781.050781.183594.050781.003906 0 .050781-.03125.097656-.070312m-.523437-.066407c-.011719-.035156-.027344-.066406-.035156-.066406-.046876 0-.050782.035156-.011719.09375.050781.074219.070312.066406.046875-.027344m4.324218-.019531c-.007812-.019531-.011718-.015625-.015624.015625 0 .027344.003906.042969.015624.035156.007813-.011718.007813-.03125 0-.050781zm-3.023437-.03125c0-.023437-.011719-.039062-.027344-.039062s-.027343.015625-.027343.039062c0 .019531.011718.035157.027343.035157s.027344-.015626.027344-.035157m-.570313-.050781.054688-.058594-.078125-.203125c-.042969-.113281-.085937-.207031-.089844-.210937-.003906-.007813-.054687.019531-.105469.054687-.058593.042969-.082031.066407-.058593.066407.03125 0 .0625.0625.113281.207031.035156.113281.078125.207031.085938.207031.011718 0 .046874-.027344.078124-.0625zm2.675782.050781c0-.007812-.035156-.035156-.074219-.066406-.042969-.03125-.078125-.042969-.078125-.027344 0 .011719.03125.042969.070312.066407.078126.042968.082032.042968.082032.027343m-1.886719-.078125c.027344-.019531.039063-.042968.03125-.054687-.027344-.023438-.148437.03125-.148437.066406 0 .039063.058593.03125.117187-.011719m.078125-.070312c-.007812-.019532-.011719-.015625-.015625.015625 0 .027343.007813.042969.015625.035156.007812-.011719.007812-.03125 0-.050781zm.164062.03125c-.035156-.023438-.035156-.023438.003907-.027344.023437 0 .046875-.015625.058593-.039062.011719-.03125.003907-.039063-.027343-.027344-.027344.011718-.058594.015625-.089844.015625-.0625 0-.066406.070312-.003906.085937.078125.019532.097656.015625.058593-.007812zm1.398438-.027344c-.011719-.007812-.050781-.027344-.082031-.035156-.039063-.015625-.058594-.007813-.058594.019531 0 .019531.027344.042969.058594.046875.070312.011719.109375-.003906.082031-.03125zm-3.238281 0c.007812-.011719 0-.015625-.023438-.007812-.042969.015624-.050781.035156-.015625.035156.011719 0 .03125-.011719.039063-.027344m1.371093-.023438c.089844-.042968.414063-.128906.6875-.175781l.128907-.023437-.140625-.066406c-.078125-.035157-.210938-.082032-.296875-.109376-.085938-.023437-.171875-.050781-.191407-.0625-.035156-.015624-.375.101563-.417968.148438-.015625.015625.101562.339844.125.339844.003906 0 .054687-.023438.105468-.050782m1.054688.007813c-.03125-.007813-.0625-.007813-.089844 0-.027344.003906-.007812.011719.042969.011719s.070313-.007813.046875-.011719zm.253906 0c-.027344-.007813-.058594-.007813-.085937 0-.027344.003906-.007813.011719.042969.011719.050781 0 .070312-.007813.042968-.011719zm-.492187-.0625c.015625-.019531-.007813-.023437-.074219-.019531-.058594.003906-.109375.023437-.113281.042968-.011719.03125.003906.035157.074219.019532.046874-.007813.097656-.027344.113281-.042969zm.808593.027344c0-.011719-.007812-.023438-.019531-.027344-.007812 0-.042969-.003906-.078125-.011719-.039062-.011718-.054687-.007812-.054687.023438s.023437.042968.074219.042968c.042968 0 .078124-.011718.078124-.027343zm-.542968-.027344c-.007813-.015625-.019532-.027344-.027344-.023437-.011719 0-.050781 0-.085938 0-.035156 0-.0625.011718-.0625.027343 0 .011719.042969.023438.089844.023438.054688 0 .089844-.011719.085938-.027344zm.285156.003906c0-.015625-.039062-.027343-.089844-.027343-.046875 0-.089844.011718-.089844.027343 0 .011719.042969.023438.089844.023438.050782 0 .089844-.011719.089844-.023438m1.722656-.011719c0-.003906-.035156-.039062-.082031-.082031-.042969-.042969-.066406-.058593-.050781-.035156s.023437.050781.011718.0625c-.011718.011719-.003906.015625.011719.003906.015625-.007812.042969 0 .058594.023438.03125.035156.050781.046875.050781.027343zm-2.371094-.058593c-.007812-.007813-.03125-.007813-.050781 0-.019531.007812-.011719.015625.015625.015625s.042969-.003906.035156-.015625zm-1.679687-.191407.089844-.066406c.015625-.007812-.078125-.378906-.101563-.40625-.015625-.011718-.0625-.007812-.121094.011719-.089843.027344-.109374.023437-.273437-.050781-.09375-.042969-.183594-.078125-.195313-.078125-.019531 0 .066407.371093.101563.433593.015625.027344.367187.207032.410156.210938.003907 0 .042969-.027344.089844-.054688zm.21875-.144531c.054687-.046875.054687-.050781.015625-.199219-.019531-.085937-.039062-.167968-.058594-.253906l-.019531-.097656-.113281.085938c-.097656.070312-.105469.082031-.0625.097656.035156.015625.0625.074218.097656.214844.023438.109374.054688.195312.066406.195312.011719 0 .042969-.019531.074219-.042969zm2.269531-.230469c-.074218-.007812-.195312-.007812-.269531 0-.074219.003907-.011719.007813.136719.007813.148437 0 .210937-.003906.132812-.007813m-3.199218-.136718c-.015626-.0625-.035157-.128906-.046876-.144532-.011718-.015624-.058593-.199218-.101562-.410156-.042969-.207031-.089844-.398437-.101562-.421875-.011719-.019531-.035157-.179687-.050782-.355469-.015625-.175781-.039062-.394531-.054687-.488281-.011719-.09375-.035157-.339843-.050781-.546875l-.050782-.691406c-.042968-.523438-.007812-.785156.164063-1.25.078125-.214844.144531-.414062.144531-.4375 0-.027344.03125-.101562.066406-.164062l.066406-.117188-.15625.152344-.15625.15625v.195312c0 .234375-.050781.394532-.167968.53125l-.089844.105469v.402344c0 .832031.125 2.007812.269531 2.570312.074219.285157.324219 1.050781.335938 1.039063.003906-.007813-.003907-.0625-.019531-.125zm.59375-.117188c.046874-.039062.082031-.09375.082031-.121094.003906-.050781.003906-.050781.019531-.011718.015625.039062.027344.039062.101562-.027344l.085938-.070312-.050781-.320313c-.03125-.171875-.058594-.320313-.0625-.324219-.007813-.011718-.324219.21875-.324219.234375 0 0 .042969.003907.09375 0h.097656l.003906.113281v.117188l-.007812-.113281-.011719-.109375-.09375.015625c-.058593.007812-.109375.023437-.164062.042969-.058594.023437-.09375.011718-.269531-.085938l-.207032-.113281.070313.316406c.035156.175781.070312.320313.078125.328125.027344.027344.402344.191406.4375.191406.023437 0 .078125-.027344.125-.0625zm.0625-.28125c0-.058594.003906-.078125.011718-.042968.003906.03125.003906.078124 0 .101562-.007812.023438-.011718-.003906-.011718-.058594m.574218.265625c-.007812-.019531-.011718-.015625-.011718.015625-.003907.027344.003906.042969.011718.03125.007813-.007812.007813-.027344.003906-.046875zm-2.085937-.023437c-.007813-.011719 0-.027344.011719-.035156.070312-.042969-.015626-.359376-.136719-.503907-.035157-.042969-.066407-.070312-.066407-.0625 0 .007813-.089843-.0625-.199218-.160156s-.214844-.1875-.234375-.199219c-.019531-.011718-.058594.015625-.101563.066406-.128906.152344-.128906.160157.082032.394532.105468.117187.1875.21875.179687.222656-.003906.007812.015625.035156.046875.0625.046875.039062.050781.042969.023438.003906-.019532-.023437-.023438-.042968-.011719-.042968.035156 0 .140625.117187.121093.132812-.007812.007812 0 .023438.019532.035156.019531.011719.023437.007813.011718-.011718-.011718-.015626-.007812-.027344.003907-.027344.039062 0 .085937.066406.066406.085937-.011719.011719 0 .011719.027344 0 .03125-.011719.042969-.007812.03125.007813-.011719.019531.003906.023437.039062.015625.035157-.011719.050781-.003907.039063.007812-.007813.015625 0 .027344.023437.027344.019531 0 .027344-.007813.023438-.019531zm2.542969-.003906c-.011719-.019532 0-.023438.039062-.011719.035156.007812.046875.003906.035156-.015625-.007812-.015625 0-.019532.027344-.011719.027344.011719.039062.003906.035156-.015625-.003906-.015625.015625-.03125.039063-.03125.027343 0 .046875-.011719.046875-.023438.003906-.046874.058594-.09375.089844-.082031.015624.007813.128906-.085937.246093-.207031.121094-.125.195313-.207031.171875-.1875-.0625.046875-.058594.003906.007813-.066406.066406-.070313.050781-.117188-.054688-.238282-.078125-.085937-.078125-.085937-.136719-.035156-.277343.242188-.332031.285156-.351562.277344-.007812-.007812-.035156.007812-.054688.03125-.03125.039062-.03125.042969.015626.007812.03125-.023437.007812.007813-.050782.0625-.101562.101563-.191406.300782-.191406.417969 0 .0625.050781.160157.085938.160157.011718 0 .011718-.011719 0-.03125zm.492187-.378907c.097656-.101562.183594-.179687.191406-.179687.007813 0-.066406.078125-.167969.179687-.097656.097657-.183593.179688-.191406.179688-.003906 0 .070313-.082031.167969-.179688m-10.425781.265625c-.027344-.054687-.035156-.035156-.011719.027344.007813.023438.019531.035156.027344.03125.007812-.007812 0-.035156-.015625-.058594m17.121094-.097656c0-.015625-.007813-.011719-.023438.011719-.011719.019531-.023438.054687-.023438.078125 0 .039062.042969-.042969.046876-.089844m-11.21875-.046875c-.007813-.015625-.011719-.003906-.011719.03125s.003906.050781.011719.03125c.007812-.015625.007812-.042969 0-.0625m1.695312.027344c.015625-.019531.007812-.023438-.011719-.007813-.035156.019532-.03125.007813-.023437-.015625.007812-.019531.027344-.035156.039062-.035156.015625 0 .039063-.011719.050782-.023437.011718-.015626.007812-.015626-.011719-.003907-.015625.007813-.03125.007813-.03125-.007812 0-.03125.066406-.085938.085937-.066407.003906.007813.011719-.007812.007813-.03125 0-.027343.011719-.046874.03125-.039062.019531.003906.027343-.007812.015625-.019531-.007813-.015625.003906-.050781.023437-.082031.035157-.050782.03125-.0625-.015625-.140626-.070312-.105468-.097656-.109374-.097656-.015624 0 .035156-.03125.140624-.066406.222656-.09375.21875-.097656.246094-.058594.273437.046875.027344.042969.027344.0625-.007812zm2.179688-.046875c.007812-.027344.003906-.050782-.003907-.050782-.027343 0-.132812-.257812-.148437-.371093-.011719-.050781-.023438-.09375-.035156-.09375-.019532 0-.101563.140625-.101563.179687 0 .011719.050781.101563.113281.191406.117188.167969.140625.214844.085938.179688-.015625-.011719-.023438-.003906-.011719.011719.027344.039062.085937.011719.101563-.046875zm-3.929688.023437c-.007812-.011719-.003906-.039062.007812-.054687.011719-.019532.03125-.074219.042969-.125.007813-.050782.050781-.140625.09375-.199219.039063-.058594.074219-.128906.074219-.160156 0-.027344.019531-.09375.039062-.144531.066407-.15625-.023437-.152344-.125.011718-.085937.140625-.125.253906-.144531.457032l-.019531.179687-.003906-.160156c-.003906-.183594.0625-.382813.179687-.546875.085938-.117188.070313-.128906-.054687-.046875-.125.085937-.183594.203125-.199219.402343-.007813.140626 0 .199219.042969.292969.027344.066407.058594.121094.066406.121094s.007812-.011719 0-.027344zm5.648438-.089843c.121093-.273438.007812-.660157-.214844-.738282-.0625-.023437-.058594-.011718.03125.121094.113281.164062.15625.308594.148437.5l-.003906.171875-.015625-.195313c-.015625-.199218-.078125-.363281-.183594-.503906-.085937-.113281-.140625-.082031-.085937.050782.019531.050781.039062.113281.039062.140624 0 .023438.027344.089844.0625.140626.074219.105468.171875.375.152344.410156-.007813.011718-.007813.019531.003906.019531.007813 0 .039063-.054687.066407-.117187zm-5.191407-.015626c-.054687-.160156-.03125-.398437.054688-.542968.074219-.132813.054687-.175782-.050781-.109375-.171876.113281-.1875.464843-.03125.691406.066406.09375.074218.089844.027343-.039063zm4.75-.054687c.0625-.128906.070313-.371094.015625-.476563-.050781-.09375-.132812-.167968-.179687-.148437-.027344.007813-.019531.042969.039062.160156.039063.082031.074219.183594.074219.226563-.003906.070312-.007812.066406-.035156-.039063-.035156-.136719-.121094-.289062-.15625-.285156-.050782.007813-.042969.113281.023437.253906.039063.078125.078125.199219.089844.261719l.019531.121094.027344-.117188c.019531-.089844.027344-.097656.027344-.042968.003906.039062-.011719.113281-.035156.164062-.03125.078125-.03125.085938 0 .058594.019531-.015625.058593-.078125.089843-.136719zm6.09375.140625c0-.011719-.019531-.03125-.039062-.039062-.035157-.015626-.039063-.011719-.011719.023437.039062.042969.050781.046875.050781.015625m-10.753906-.113281c-.007813-.015625-.015625-.003907-.015625.03125 0 .039062.007812.050781.015625.035156.003906-.019531.003906-.046875 0-.066406m-.816406-.261719c.027343-.03125.054687-.085938.066406-.128906.011719-.042969.039063-.121094.066406-.171875.058594-.121094.058594-.113281-.007812-.117188-.171875-.015625-.339844.238281-.324219.496094l.007812.152344.023438-.101563c.023438-.125.121094-.332031.210938-.445312.109374-.144532.09375-.074219-.015626.085937-.089843.128907-.148437.269531-.195312.484375-.007812.03125.015625-.003906.054688-.074218.039062-.070313.089843-.152344.113281-.179688m.871093-.089844c.058594-.132812.074219-.269531.023438-.253906-.019531.007812-.066406.074219-.105469.148438-.070312.140624-.089843.296874-.050781.4375.015625.054687.019531.042968.046875-.078126.019531-.085937.046875-.171874.085937-.253906zm1.175782 0c.011718-.101562.003906-.125-.046875-.160156-.0625-.042969-.0625-.042969-.152344.113281l-.089844.15625.15625.269531.0625-.128906c.03125-.074218.066407-.1875.070313-.25m2.246094.230469.082031-.128906-.1875-.3125-.066407.058593c-.050781.050782-.058593.074219-.046874.160157.015624.085937.113281.351562.128906.351562.003906 0 .042968-.058593.089844-.128906zm1.929687-.132813c-.050781-.144531-.25-.449218-.273437-.425781-.007813.007813.003906.039063.027343.074219.019531.03125.050781.109375.066407.175781.015624.0625.054687.144531.089843.183594.035157.046875.066407.097656.09375.152344.058594.148437.058594.003906-.003906-.160157zm.113281-.023437c-.027344-.148437-.132812-.328125-.21875-.371094-.097656-.054687-.125-.03125-.054687.042969.085937.09375.207031.34375.226562.476562l.019531.121094.019532-.089844c.011718-.058593.015625-.117187.007812-.179687m-5.203125.171875c0-.003906-.035156-.035156-.070312-.070312l-.070313-.0625.058594.070312c.058594.066406.082031.082031.082031.0625m10.492188-.101562c-.023438-.023438-.027344-.019532-.011719.015624.007812.027344.023438.039063.03125.03125.007812-.007812 0-.027343-.019531-.046874zm.039062-.980469c.078125-.59375.109375-1.402344.0625-1.75-.167969-1.28125-.875-1.980469-2.65625-2.632813-.460937-.167968-1.027343-.34375-1.484375-.460937-.335937-.085938-.746094-.167969-.761718-.152344-.003907.007813.027343.117187.078124.242187.140626.367188.207032.605469.320313 1.113282l.121094.535156c.011719.050781.023437.058594.097656.042969.128906-.023438.546875.03125.800781.105469.476563.136718.800782.351562 1.019532.667968.203124.296875.363281.773438.398437 1.199219l.015625.199219.179688-.089844c.289062-.144531.539062-.144531.742187 0 .046875.035156.109375.074219.136719.089844.03125.011718.082031.054687.117187.09375.050781.058594.050781.066406.011719.039062-.027344-.019531-.007812.003906.039062.050782.050782.046874.074219.074218.050782.0625-.019532-.007813-.015625.003906.015625.023437.027343.023437.046875.050781.042969.054687-.003907.007813.039062.109376.09375.226563.058593.113281.109374.242187.121093.28125.007813.039063.027344.070313.039063.070313.011718 0 .015625.015624.007812.039062-.007812.019531 0 .039062.015625.039062s.023438.015626.015625.035157c-.007812.023437-.003906.046875.011719.054687.011719.007813.015625.03125.007813.050782-.007813.023437-.003907.039062.015624.039062.015626 0 .023438.011719.011719.023438-.007812.015624-.003906.042968.003907.058593.011718.019531.023437.050781.023437.070313.003906.023437.03125.152344.058594.289062l.058593.269532c.007813.050781.105469-.542969.167969-.980469zm-17.152343.539062c.179687-.742187.449218-1.277343.75-1.488281.121093-.085938.332031-.160156.417968-.15625.117188.011719.292969.070312.421875.144531.066407.042969.125.070313.128907.066407.003906-.003907.019531-.117188.035156-.25.078125-.636719.304687-1.136719.648437-1.429688.332031-.285156.863281-.46875 1.398438-.484375l.261719-.007813.046874-.21875c.125-.589843.257813-1.074218.371094-1.382812l.128906-.339844-.132812.019532c-.484375.0625-1.757812.445312-2.535156.757812-.894532.359375-1.542969.816406-1.875 1.332031-.453125.703125-.527344 1.710938-.242188 3.433594.054688.335937.074219.421875.089844.363281zm8.601562.292969c.140625-.101562.152344-.117188.15625-.214844.003906-.09375.003906-.09375.015625-.019531.011719.097656.011719.097656.101563.03125l.070312-.050781-.023438-.265625c-.011718-.144531-.023437-.265625-.027343-.269531-.007813-.011719-.320313.175781-.320313.195312 0 .003906.035156.003906.074219-.003906.042969-.007813.082031-.007813.089844.003906.007812.011719 0 .023438-.019531.023438-.015626 0-.105469.011718-.199219.03125l-.171875.03125-.203125-.128907c-.109375-.070312-.203125-.125-.207031-.125-.015626.019531.046874.59375.066406.617188.023437.019531.414062.246093.4375.25.003906 0 .078125-.046875.160156-.105469zm-1.289062-.0625c.09375-.164062.09375-.167969.027343-.167969-.035156 0-.070312.039063-.117187.132813-.058594.117187-.066406.175781-.011719.175781.011719 0 .054687-.0625.101563-.140625m2.5625-.035156c-.039063-.070313-.085938-.132813-.105469-.132813-.046875 0-.046875.039063 0 .117188l.078125.132812c.027344.042969.050781.058594.066406.039063.019531-.015625.003906-.070313-.039062-.15625zm-.53125-.152344c-.0625-.214844-.085938-.234375-.066407-.054688.007813.078126.015625.1875.015625.242188l.003906.105469.042969-.0625c.046875-.058594.046875-.066407 0-.230469zm-.082032.195312c-.011718-.019531-.015625-.011718-.015625.015626-.003906.027343.003907.042968.011719.035156.007812-.007813.011719-.03125.003906-.050782zm-2.414062-.128906-.152344-.183594c-.007812-.011718-.023438.003907-.03125.03125-.007812.039063.027344.082032.144531.179688.085938.074219.160157.132812.167969.132812.003906 0-.054688-.070312-.128906-.160156m3.601562-.121094c0-.007812-.007812-.027343-.019531-.042968-.011719-.019532-.066406.027344-.152344.132812-.074219.089844-.132812.171875-.132812.179688 0 .007812.066406-.046875.152343-.121094.085938-.074219.152344-.140625.152344-.148438m-2.773437.246094c0-.003906-.027344-.03125-.058594-.058594l-.058594-.046874.046875.058593c.046875.054688.070313.066407.070313.046875zm.023437-.109375c-.027344-.121093-.050781-.140625-.050781-.042969 0 .058594.039063.136719.066406.136719.003907 0-.003906-.042969-.015625-.09375zm1.839844.015625c.023438-.027344.039062-.050781.03125-.050781-.003906 0-.03125.023437-.058594.050781-.023437.027344-.039062.050782-.03125.050782.003906 0 .03125-.023438.058594-.050782m-3.023438-.011718c.019532-.023438.023438-.039063.007813-.039063s-.035156.015625-.042969.039063c-.007812.019531-.007812.039062-.003906.039062s.023438-.019531.039062-.039062m3.03125-.214844c-.039062-.074219-.046874-.136719-.042968-.273438l.007812-.179687-.082031-.023438c-.183594-.050781-.199219.027344-.09375.449219l.070313.273438.09375-.074219.097656-.078125zm1.085938.242187c0-.003906-.023438-.023437-.046875-.042969-.039063-.035156-.042969-.03125-.007813.007813.03125.042969.054688.058594.054688.035156zm-3.007812-.363281-.023438-.078125-.003906.074219c0 .042968-.019532.105468-.042969.148437-.042969.070313-.042969.074219.003906.121094.050781.046875.050781.046875.070313-.070313.007812-.066406.007812-.15625-.003906-.195312m-7.90625.238281c-.007813-.019531-.011719-.011719-.015626.019531 0 .023438.007813.039063.015626.03125.007812-.007812.007812-.03125 0-.050781zm8.203124-.050781c-.007812-.019531-.011718-.011719-.015624.015625 0 .027344.007812.042969.015624.035156.007813-.007812.007813-.03125 0-.050781zm2.765626.011719c.03125-.039063.027343-.039063-.011719-.007813-.023438.019532-.042969.039063-.042969.042969 0 .023437.019531.007813.054688-.035156zm-3.164063-.0625c.074219-.144531.082031-.429688.007813-.429688-.054688 0-.1875.171875-.21875.285157-.035157.125-.019532.167968.058593.183593.109375.019531.121094.019531.152344-.039062zm1.710937-.15625c-.003906-.042969-.007812-.011719-.007812.070312 0 .085938.003906.125.007812.085938.007813-.039063.007813-.109375 0-.15625m.554688.167969c.03125-.015626.019531-.117188-.027344-.226563-.054687-.113281-.175781-.234375-.203125-.207031-.011719.011718-.019531.09375-.019531.179687 0 .207031.058594.308594.160156.28125.039063-.007812.078125-.019531.089844-.027343m-10.09375-.035157c-.007812-.023437-.015625-.015625-.015625.015625 0 .027344.003906.039063.011719.03125.011718-.007812.011718-.03125.003906-.046875zm11.011719-.089843c.066406-.019532.179687-.03125.253906-.035157.070313 0 .132813-.007812.132813-.019531s-.066407-.042969-.152344-.066406c-.125-.042969-.164063-.042969-.242188-.019532-.113281.039063-.171875.113282-.171875.21875v.078126l.035157-.0625c.019531-.042969.066406-.074219.144531-.09375zm-4.472657.078124c0-.007812-.03125-.011718-.066406-.011718s-.058594.011718-.050781.023437c.011719.023438.117187.011719.117187-.011719m.296876-.125c-.054688-.089843-.261719-.144531-.527344-.140624-.179688 0-.246094.011718-.355469.0625-.074219.035156-.132813.066406-.132813.070312 0 .03125.390626-.015625.535157-.0625.085937-.027344.167969-.046875.171875-.039062.007812.007812-.03125.027343-.082032.042968-.15625.050782-.164062.078125-.019531.078125.195313.003907.351563.039063.394531.097657.039063.050781.039063.050781.046876 0 .007812-.027344-.007813-.078126-.03125-.109376zm.722656.082032c-.007813-.015625-.011719-.003906-.011719.03125s.003906.050781.011719.035156c.007812-.019531.007812-.046875 0-.066406m2.597656-.011719c-.007812-.023437-.011719-.011719-.011719.03125s.003907.0625.011719.046875c.007812-.019531.007812-.054688 0-.078125m1.152344.070313c.007812-.015626-.015625-.027344-.054688-.027344-.058594.003906-.066406.007812-.035156.027344.050781.03125.070312.03125.089844 0zm-5.367188-.015626c-.011718-.007812-.03125-.007812-.050781-.003906-.019531.007813-.015625.015625.015625.015625.027344.003907.042969-.003906.035156-.011719zm.183594-.027343c0-.003907-.03125-.007813-.070312-.007813-.050782 0-.058594.003906-.03125.023438.03125.019531.101562.011718.101562-.015625m5.582031 0c0-.003907-.03125-.007813-.070312-.007813-.050781 0-.0625.003906-.035157.023438.03125.019531.105469.011718.105469-.015625m.121094.027343c-.007813-.007812-.03125-.007812-.046875-.003906-.023438.007813-.015625.015625.011719.015625.027343.003907.042969-.003906.035156-.011719zm-5.246094-.050781c-.007812-.007812-.03125-.011719-.046875-.003906-.023437.007813-.015625.015625.015625.015625.023438 0 .039063-.003906.03125-.011719zm10.953125-.070312c-.007812-.015625-.011718 0-.011718.035156s.003906.046875.011718.03125c.007813-.019531.007813-.046875 0-.066406m-17.5625-.023438c-.007812-.019531-.011718-.003906-.011718.03125 0 .035157.003906.050781.011718.03125.007813-.015625.007813-.046875 0-.0625m6.121094.066407c-.023438-.007813-.070312-.007813-.101562 0-.03125.003906-.011719.007812.042968.007812.058594.003906.085938-.003906.058594-.007812m.195312 0c-.019531-.007813-.046874-.007813-.066406 0-.015625.007812-.003906.011718.03125.011718s.050782-.003906.035156-.011718m2.992188-.039063c-.007812-.023437-.015625-.015625-.015625.015625 0 .027344.003906.042969.015625.03125.007812-.007812.007812-.03125 0-.046875zm2.226562.039063c-.015624-.007813-.050781-.007813-.078124 0-.023438.003906-.007813.011718.035156.011718.042968 0 .0625-.003906.042968-.011718m.21875 0c-.03125-.007813-.058593-.007813-.089843 0-.023438.003906-.003907.011718.042969.011718.050781 0 .070312-.007812.046874-.011718zm5.859376-.066407c-.007813-.019531-.011719-.015625-.015626.015625 0 .027344.007813.042969.015626.035156.007812-.011718.007812-.03125 0-.050781zm-5.75-.019531c-.097657-.074219-.230469-.105469-.464844-.101562h-.214844l.140625.050781c.117187.042969.304687.078125.5625.097656.027344 0 .015625-.015625-.023437-.046875zm-3.632813-.097656c-.007813-.023438-.011719-.011719-.015625.03125 0 .042968.007812.0625.011719.046875.007812-.019531.007812-.050781.003906-.078125m9.359375.015625c-.007812-.019531-.015625-.015625-.015625.015625 0 .027344.003906.042968.011719.03125.011718-.007813.011718-.027344.003906-.046875zm-17.617188-.054688c-.003906-.015625-.011718-.003906-.011718.03125 0 .035157.007812.050781.011718.035157.007813-.019532.007813-.046876 0-.066407m9.023438-.09375c.054688-.035156.132812-.082031.171875-.101562.078125-.039063.097656-.09375.097656-.289063 0-.09375.011719-.1875.027344-.28125.011719-.074218.023437-.136718.019531-.140625-.003906-.003906-.09375.050781-.199218.121094-.195313.125-.195313.125-.089844.113281.097656-.011718.09375-.011718-.027344.023438-.070312.023437-.171875.058594-.226562.082031-.113282.050781-.09375.058594-.402344-.21875l-.183594-.164063.015625.328126c.007813.183593.019531.347656.027344.363281.003906.015625.113281.101562.246093.183593l.238282.15625.089844-.054687zm.097656-.386719c0-.09375.003906-.128906.011719-.085937.003906.058594.003906.113281 0 .167969-.007813.046875-.011719.007812-.011719-.082032m8.546875.507813c-.007812-.019531-.015625-.015625-.015625.015625 0 .027344.003906.042969.011719.035156.011719-.007812.011719-.03125.003906-.050781zm-11.222656-.039063c-.074219-.003906-.144531-.003906-.21875 0-.058594.003907-.011719.011719.109375.011719s.167969-.007812.109375-.011719zm1.332031-.046874c.03125-.035157.054688-.0625.046875-.0625-.007812 0-.039062.027343-.074219.0625-.03125.035156-.054687.066406-.046874.066406.007812 0 .039062-.027344.074218-.066406zm3.808594.046874c-.070312-.003906-.144531-.003906-.21875 0-.058594.003907-.007812.011719.109375.011719.121094 0 .171875-.007812.109375-.011719zm-2.277344-.089843c-.007812-.019531-.011718-.011719-.011718.015625-.003907.027344.003906.042968.011718.035156.007813-.007812.007813-.03125 0-.050781zm8.332032 0c-.007813-.019531-.011719-.011719-.015626.015625 0 .027344.007813.042968.015626.035156.007812-.007812.007812-.03125 0-.050781zm-17.664063-.050781c-.007813-.019532-.015625-.003907-.015625.03125 0 .035156.007812.050781.015625.03125.007813-.015626.007813-.046876 0-.0625m17.71875.027343c-.011719-.023437-.015625-.015625-.015625.015625-.003906.027344.003906.042969.011719.03125.007812-.007812.007812-.03125.003906-.046875zm-.027344-.15625c-.007812-.019531-.011719-.003906-.011719.03125 0 .035157.003907.050781.011719.03125.007813-.015625.007813-.046875 0-.0625m-17.71875-.039062c-.003906-.023438-.011719-.011719-.011719.03125s.003907.0625.011719.046875c.007813-.019532.007813-.054688 0-.078125m8.257813.039062c-.011719-.019531-.015625-.015625-.019532.015625 0 .027344.007813.042969.015626.035156.007812-.011718.007812-.03125.003906-.050781zm1.128906-.140625c-.003906-.039062-.007812-.015625-.007812.054688 0 .074218.003906.105468.007812.074218.007812-.035156.007812-.089843 0-.128906m8.382812.117188c-.007812-.023438-.011718-.015625-.015624.015625 0 .027343.003906.039062.015624.03125.007813-.007813.007813-.03125 0-.046875zm-9.746093-.128906c-.007813-.023438-.011719-.015626-.015625.015624 0 .027344.007812.039063.015625.03125.007812-.007812.007812-.03125 0-.046874zm9.722656-.078126c-.007813-.035156-.011719-.015624-.011719.042969 0 .054688.003906.082031.011719.058594.003906-.023437.003906-.070313 0-.101563m-17.769531-.054687c-.007813-.03125-.011719-.003906-.011719.058594s.003906.089843.011719.058593c.003906-.039062.003906-.078124 0-.117187m17.664062.105469c-.007812-.019532-.011718-.015625-.015625.015625 0 .027343.003907.042969.015625.035156.007813-.007813.007813-.03125 0-.050781zm-17.7148435-.050782c-.0078125-.019531-.015625-.015624-.015625.015626-.0039063.027343.0039063.042968.0117187.035156.0078126-.011719.0117188-.03125.0039063-.050782zm17.8710935 0c-.007812-.019531-.015625-.015624-.015625.015626-.003906.027343.003907.042968.011719.035156.011719-.011719.011719-.03125.003906-.050782zm-17.71875-.027343c-.007812-.019531-.015625-.011719-.015625.015625s.003907.042968.015625.035156c.007813-.007812.007813-.03125 0-.050781zm7.804688-.046875c.074218 0 .078125-.003906.058594-.070313-.007813-.039062-.015626-.070312-.019532-.074219-.003906 0-.097656.019532-.210937.042969-.113281.027344-.175781.046875-.140625.050781.046875 0 .054687.007813.027344.023438-.023438.015625 0 .019531.078124.011719.089844-.011719.105469-.007813.074219.019531-.03125.023438-.03125.027344.007813.011719.027344-.007813.082031-.011719.125-.011719zm2.078125 0c-.027344-.019532-.007813-.023438.074219-.015625.082031.007812.105468.007812.078124-.011719-.027343-.019531-.015624-.023438.046876-.015625.042968.003906.078124 0 .070312-.007813-.007812-.011718-.070312-.027343-.144531-.035156-.074219-.007812-.179688-.035156-.238281-.054687-.113282-.039063-.140626-.023438-.144532.082031 0 .050781.015625.058594.125.066406l.144532.015625c.015624 0 .011718-.007812-.011719-.023437zm-9.941407-1.71875c.1875-.914063.667969-1.457032 1.777344-2.019532.652344-.332031 1.046875-.460937 2.441406-.8125.296876-.074218.558594-.152343.582032-.171874.03125-.03125.027344-.035157-.027344-.023438l-.398438.082031c-1.277343.253907-2.3125.628907-3.03125 1.101563-.691406.453125-1.058593.824218-1.226562 1.25-.179688.460937-.265625 1.277344-.2109375 2.019531.015625.214844.0234375.144531.0351565-.476563.011719-.542968.027343-.789062.058593-.949218zm8.210938 1.496094c-.003906-.039063-.011719-.011719-.011719.058593 0 .070313.007813.101563.011719.070313.007812-.03125.007812-.089844 0-.128906m9.558594 0c.027344-.308594.015625-.910157-.023438-1.242188-.125-1.007812-.339844-1.347656-1.285156-2.015625-.714844-.507813-1.804688-.914063-3.164062-1.183594l-.398438-.082031c-.050781-.007812-.058594-.003906-.035156.019531.019531.015625.210937.074219.425781.128907.882813.226562 1.667969.445312 1.886719.527343.125.050781.414062.179688.640625.289063 1.140625.558594 1.667969 1.128906 1.851562 2.019531.058594.285156.09375.96875.070313 1.371094-.019532.355469 0 .46875.03125.167969zm-8.796875.015624.222656-.140624c.003906-.003907.015625-.054688.027344-.105469l.019531-.097657.003906.085938c0 .082031 0 .082031.070313.042969.039062-.019531.085937-.046875.101562-.058594.03125-.019531.148438-.488281.175781-.722656l.019532-.136719-.074219.039062c-.128906.070313-.511719.332032-.457031.3125.027344-.007812.089844-.023437.140625-.027343.046875-.007813 0 .015625-.109375.050781-.105469.035156-.21875.074219-.246094.089844-.03125.015625-.0625.027344-.070312.027344-.011719 0-.152344-.128907-.308594-.285157l-.292969-.285156-.015625.097656c-.011719.050781-.007812.246094.003906.433594l.027344.339844.140625.128906c.324219.300781.371094.339844.386719.339844.011718.003906.117187-.054688.234375-.128907zm.28125-.484374c0-.078126.007812-.109376.011719-.070313.007812.046875.007812.09375 0 .140625-.003907.039062-.011719.007812-.011719-.070312m.023437-.230469c0-.039063.003906-.050781.011719-.035157.007813.019532.007813.046876 0 .066407-.007813.015625-.011719.003906-.011719-.03125m1.152344.808593c0-.003906-.011719-.019531-.027344-.027343-.011718-.007813-.023437-.003907-.023437.011719 0 .015624.011719.027343.023437.027343.015625 0 .027344-.003906.027344-.011719m7.21875-.070312c-.007812-.019531-.015625-.003906-.015625.03125s.007813.050781.015625.03125c.003906-.019531.003906-.042969 0-.0625m-6.753906-.128906c.105468-.050782.40625-.207032.667968-.355469.578126-.320313.785157-.421875 1.003907-.488281.214843-.0625.589843-.105469.632812-.070313.019531.011719.046875.019531.066407.011719.015624-.003906.105468.027344.199218.074219.121094.0625.171875.078125.191406.058593.019532-.019531.019532-.023437 0-.015624-.019531.011718-.042968-.039063-.0625-.128907-.074218-.339843-.117187-.421875-.382812-.734375l-.164062-.1875-.257813.085938c-.375.125-1.199219.34375-1.828125.492187-.605469.140625-.609375.148438-.0625.175781.234375.011719.328125.023438.328125.046876 0 .070312-.425781.367187-.664063.464843l-.140624.058594.125.035156c.09375.027344.183593.050781.273437.070313.089844.019531.148437.046875.148437.066406 0 .074219-.507812.28125-.761718.308594l-.136719.019531.210937.082031c.113282.050782.214844.09375.21875.097656.007813.007813.054688-.007812.105469-.035156s.179688-.085937.289063-.136718zm-10.859375.039062c-.007813-.027344-.011719-.007812-.011719.042969s.003906.070313.011719.046875c.003906-.03125.003906-.0625 0-.089844zm7.335937.042969c.105469-.042969.203125-.074219.21875-.066406.015625.003906.046875-.007813.074219-.027344s.035156-.035156.019531-.035156-.035156.011719-.042968.023437c-.046876.078125-.9375-.214844-.9375-.308594 0-.023437.054687-.050781.148437-.070312.089844-.019531.183594-.046875.273437-.074219l.125-.039062-.113281-.046875c-.238281-.089844-.691406-.402344-.691406-.472656 0-.023438.082031-.035157.328125-.046876.179688-.007812.355469-.023437.390625-.039062l.066406-.023438-.066406-.015624c-.035156-.007813-.3125-.074219-.617187-.144532-.660157-.15625-1.097657-.273437-1.566407-.417968l-.34375-.109376-.15625.171876c-.210937.230468-.3125.402343-.375.65625-.0625.246093-.058593.296874.019531.21875.027344-.027344.058594-.046876.066407-.039063.007812.007813.015625 0 .015625-.015625 0-.019531.007812-.027344.019531-.019531.011719.007812.070313-.003907.125-.023438.140625-.046875.484375-.046875.601563-.003906.019531.007813.089843.027344.152343.046875.164063.039062.433594.167969.832031.390625.6875.382813 1.132813.605469 1.21875.609375.015626 0 .113282-.035156.214844-.078125zm.3125 0 .058594-.054687-.078125.039062c-.035156.015625-.074219.035156-.113281.050781-.027344.007813-.019532.011719.015625.015625.03125 0 .082031-.023437.117187-.050781m2.359375-.007813c-.0625-.03125-.117187-.054687-.125-.050781-.023437.015625.058594.082031.109375.09375.121094.023438.125.015625.015625-.042969m-1.542969.023438c0-.003906-.019531-.023438-.042968-.042969-.042969-.03125-.042969-.03125-.011719.007813.035156.042968.054687.058594.054687.035156zm-.648437-.03125c.054687-.015625.078125-.082031.042969-.121094-.023438-.023437-.136719.0625-.136719.101563 0 .039062.011719.042969.09375.019531zm2.039063-.03125c0-.050781-.109376-.140625-.140626-.113281-.035156.035156-.011718.113281.042969.132812.085938.035157.097657.035157.097657-.019531zm-1.9375-.0625c-.007813-.015625-.011719-.003906-.011719.03125s.003906.050781.011719.035156c.007812-.019531.007812-.046875 0-.066406m-5.734376.027344c.007813-.015625.003907-.019532-.011718-.007813-.019532.007813-.03125.003907-.03125-.015625 0-.015625-.007813-.023437-.015625-.015625-.015625.015625.007812.070313.027343.070313.007813 0 .019532-.011719.03125-.03125m5.324219-.0625c-.007812-.007813-.03125-.007813-.050781 0-.019531.007812-.011719.011718.015625.015625.027344 0 .042969-.003907.035156-.015625zm2.648438 0c-.007813-.007813-.03125-.007813-.046875 0-.023438.007812-.015625.011718.011718.015625.027344 0 .042969-.003907.035157-.015625zm-2.378907-.097656c.054688-.050782.070313-.085938.070313-.164063v-.101563l-.152344.0625c-.167969.070313-.378906.109376-.566406.113282-.105469.003906-.109375.003906-.050781.027344.128906.054687.425781.121093.527344.125.074218 0 .125-.019532.171874-.0625m2.621094-.019532.1875-.0625-.210937-.015625c-.113281-.011719-.292969-.046875-.390625-.078125-.101563-.035156-.1875-.054687-.191406-.046875-.011719.027344-.019532.054688-.023438.085938-.015625.054687-.003906.078125.066406.136719.074219.0625.09375.066406.226563.054687.078125-.007813.230469-.042969.335937-.074219zm-7.640625-.453125c.09375-.058593.214844-.121093.269531-.136719.058594-.015624.125-.039062.15625-.046874.070313-.03125.292969-.027344.292969 0 0 .015624.035157.023437.074219.023437s.117188.023437.171875.050781c.054687.03125.105469.054688.109375.054688s.007812-.074219.007812-.160156c0-.339844.097657-.617188.324219-.941407.066407-.089843.113281-.167969.109375-.171875-.023437-.023437-.492187.042969-.652344.089844-.347656.105469-.738281.335938-.890624.527344-.152344.191406-.320313.585937-.410157.960937-.019531.09375-.039062.125-.054687.101563-.023438-.039063-.027344-.019532-.007813.035156.011719.027344.0625-.007812.175781-.121094.101563-.097656.210938-.183594.324219-.265625zm12.511719.183594c-.222656-.832031-.507812-1.15625-1.210938-1.394531-.195312-.066406-.699218-.144532-.726562-.117188-.007812.003906.035156.070313.089844.144532.226562.3125.3125.53125.332031.84375.019531.296874.015625.289062.136719.230468.054687-.027344.125-.050781.152344-.050781.03125 0 .058593-.007813.066406-.019531.015625-.023438.253906-.023438.324218 0l.128907.046875c.046875.015625.109375.035156.132812.035156.023438 0 .035157.011719.03125.019531-.011719.015625.058594.050782.089844.046875.007813-.003906.078125.050781.152344.121094s.148437.125.164062.125c.019531 0 .0625.050781.105469.109375.039062.0625.078125.105469.082031.101562.007813-.003906-.015625-.113281-.050781-.242187zm-.210938-.039063-.046874-.058593.058593.050781c.03125.023438.054688.050781.054688.054688 0 .023437-.019531.007812-.066407-.046876zm-12.925781.179688c-.007812-.019531-.015625-.015625-.015625.015625 0 .027344.003906.042969.011719.035156.011719-.007812.011719-.03125.003906-.050781zm5.992188 0c-.007813-.019531-.015625-.015625-.015625.015625 0 .027344.003906.042969.011718.035156.007813-.007812.011719-.03125.003907-.050781zm9.515625-.230469c-.007813-.0625-.011719-.019531-.011719.09375s.003906.164063.011719.109375c.003906-.066406.003906-.136718 0-.203125m-10.785156.210938c.011718-.042969.003906-.046875-.039063-.023438-.042969.023438-.046875.03125-.019531.050781.019531.011719.039062.023438.039062.023438.003906 0 .011719-.023438.019532-.050781m1.039062-.003907c-.011719-.023437-.015625-.015624-.019531.015626 0 .023437.007812.039062.015625.03125.007812-.007813.007812-.03125.003906-.046876zm2.957031.015626c-.019531-.011719-.042969-.023438-.066406-.035157-.054687-.03125-.058594-.027343-.03125.019531.015625.03125.042969.046876.066406.039063.023438-.007813.035157-.019531.03125-.023437m4.625-.015626c-.007812-.023437-.011719-.015624-.011719.015626-.003906.023437.003907.039062.011719.03125.007813-.007813.007813-.03125 0-.046876zm-15.503906-.183593c-.003906-.03125-.011719-.003907-.011719.058593s.007813.089844.011719.058594c.007813-.039062.007813-.078125 0-.117187m7.414063.109375c.039062-.058594.027343-.082032-.019532-.0625-.023437.011718-.101562.039062-.171875.066406l-.128906.046875.148437-.007813c.09375-.003906.160157-.023437.171876-.042968zm2.996093-.007813c-.085937-.03125-.160156-.046875-.164062-.035156-.019531.046875.082031.09375.199219.09375h.117187zm-2.65625-.078125c.082031-.042968.097657-.066406.097657-.136718v-.085938l-.1875.097656c-.152344.078125-.1875.109375-.195313.164063-.007813.070312-.003906.070312.089844.042969.070312-.019532.132812-.046876.195312-.078126zm2.460938.050782c0-.046876-.035157-.082032-.152344-.15625-.085937-.054688-.160156-.09375-.164063-.085938-.007812.003906-.019531.042969-.027343.089844-.015625.070312-.007813.082031.078125.125.089844.042968.203125.082031.25.085937.007812.003907.019531-.023437.019531-.058593zm-7.953125-.097657c-.007813-.019531-.011719-.015625-.015625.015625 0 .027344.007812.042969.015625.035156.007812-.011718.007812-.03125 0-.050781zm5.0625.003907c-.011719-.015626-.027344-.023438-.046875-.023438s-.015625.007812.007812.023438c.050781.03125.058594.03125.039063 0m8.078125-.03125c-.007813-.019532-.015625-.011719-.015625.015624 0 .027344.003906.042969.015625.035157.007812-.007813.007812-.03125 0-.050781zm-12.941407-.519532c.199219-.421875.414063-.648437.773438-.824218.195312-.097657.539062-.195313.667969-.191407.046875.003907.011719.015625-.097657.039063-.367187.074218-.6875.214844-.890624.398437-.125.113281-.105469.109375.070312-.007812.320312-.214844.828125-.378907 1.183594-.378907.089844 0 .160156-.011718.160156-.027343 0-.011719-.074219-.027344-.160156-.027344l-.160156-.007813.191406-.011718c.117187-.011719.191406-.027344.199218-.046875.027344-.078125-.574218-.011719-.902343.097656-.515625.171875-.808594.414063-1.015625.832031-.082032.167969-.210938.554688-.207032.625 0 .023438.019532-.019531.039063-.097656.023437-.078125.089844-.246094.148437-.371094zm5.148438.378906c.121094-.070312.230469-.140624.238281-.160156.007813-.027344-.003906-.03125-.039062-.011718-.078125.03125-.703125.042968-.867188.011718-.085937-.015625-.15625-.023437-.164062-.019531-.027344.03125.484375.296875.574219.300781.015624 0 .128906-.054687.257812-.125zm.515625 0c-.003906-.027343-.011719-.003906-.011719.042969 0 .050781.007813.070313.011719.046875.007813-.03125.007813-.0625 0-.089844zm2.464844.007813c.097656-.046875.203125-.105469.230469-.128906.050781-.042969.050781-.042969-.039063-.027344-.296875.050781-.542969.042969-.789063-.027344-.046874-.015625-.058593-.007812-.058593.03125 0 .03125.0625.085938.175781.15625.195312.128907.203125.128907.480469-.003906zm-1.8125.082031c0-.003906-.136719-.140625-.304688-.304687l-.300781-.292969.296875.300781c.273437.28125.308594.316407.308594.296875zm6.53125-.304687c-.167969-.503907-.429688-.832031-.828125-1.023438-.277344-.136719-.65625-.230469-.984375-.253906l-.253907-.015625.0625.082031c.050782.074219.074219.082031.191407.082031.359375 0 .84375.15625 1.191406.382813l.195313.128906-.121094-.113281c-.140625-.128906-.339844-.25-.539063-.324219-.074219-.027343-.101562-.042969-.058593-.035156.125.023437.402343.160156.546874.273437.253907.195313.507813.605469.617188.984376.023438.085937.046875.136718.050781.117187.003907-.023437-.027343-.152344-.070312-.285156zm-1.289063-1.121094c.015625-.007813.039063-.007813.046875.003906.007813.007813-.007812.011719-.035156.011719s-.035156-.007812-.011719-.015625zm-.105468-.027344c.019531-.003906.042968-.003906.050781.003907.007812.007812-.007813.015624-.035157.011718-.027343 0-.035156-.003906-.015624-.015625zm-4.648438 1.03125.015625-.097656.011719.082031.011718.085938.167969-.109375.164063-.113281-.003906-.382813c-.003907-.210937-.011719-.398437-.019532-.417969-.011718-.03125-.222656.082032-.378906.207032-.054688.039062-.054688.042968-.007812.027343.109374-.039062-.003907.03125-.152344.09375l-.152344.058594-.222656-.242187-.226563-.242188-.03125.078125c-.089843.21875-.257812.6875-.257812.710937 0 .011719.140625.164063.3125.332032l.308593.304687.222657-.140625c.207031-.128906.226562-.144531.238281-.234375zm.035156-.5625c0-.097656.003906-.136719.007813-.082031.007812.050781.007812.132812 0 .179688-.003907.046874-.007813.003906-.007813-.097657m-1.40625.703125c-.007812-.019531-.015625-.003906-.015625.03125s.007813.046875.015625.03125c.007813-.019531.007813-.046875 0-.0625m-7.867187-.039062c-.007813-.027344-.011719-.011719-.015625.03125 0 .042968.007812.0625.011718.042968.007813-.015624.007813-.050781.003907-.074218m13.679687.039062c-.011718-.019531-.015625-.015625-.015625.015625-.003906.027344.003907.042969.011719.035157.007812-.011719.011719-.03125.003906-.050782zm-6.53125.015625c-.007812-.007812-.03125-.011719-.050781-.003906s-.011719.015625.015625.015625.042969-.003906.035156-.011719zm.410156 0c-.007812-.007812-.03125-.011719-.046874-.003906-.023438.007813-.015626.015625.015624.015625.027344 0 .039063-.003906.03125-.011719zm-.972656-.050781c-.027344-.035156-.023437-.046875.003906-.066406.027344-.015625.019532-.023438-.035156-.023438h-.078125l.0625.066406c.066407.070313.101563.085938.046875.023438m.691406-.058594c-.003906-.027344-.027343-.039062-.058593-.035156-.082031.007812-.164063.019531-.242188.027344l-.195312.019531.21875.023437c.246093.03125.289062.023438.277343-.035156zm.304688.042969c.238281-.042969.238281-.0625.015625-.105469-.257813-.050781-.308594-.042968-.292969.058594.011719.085938.039063.09375.277344.046875m2.746094-.039063c0-.042968-.019532-.074218-.046875-.085937-.054688-.019531-.324219.027344-.324219.054687 0 .027344.222656.09375.308594.097657.054687 0 .066406-.007813.0625-.066407zm.414062.015626c.015625-.015626-.015625-.023438-.078125-.023438-.066406-.003906-.132812-.011719-.199219-.023438-.105468-.027343-.144531 0-.09375.066407.027344.03125.066407.035156.191407.019531.085937-.007812.164062-.027344.179687-.039062m.335938 0c.042968-.046876.042968-.050782-.003906-.050782-.035157 0-.050782.019532-.050782.050782s0 .054687.003906.054687c0 0 .023438-.023437.050782-.054687m6.535156-.003907c-.007812-.019531-.015625-.015625-.015625.015625 0 .027344.003906.042969.011719.035156.011718-.011718.011718-.03125.003906-.050781zm-9.515625-.078125c-.007813-.019531-.011719-.003906-.011719.03125s.003906.050782.011719.03125c.007813-.015625.007813-.046875 0-.0625m-3.964844-.429687c.085938-.171875.238281-.386719.273438-.386719.015625 0-.011719.046875-.054688.109375-.144531.183594-.140625.191406.007813.03125.101562-.105469.132812-.15625.105468-.164063-.066406-.011718-.105468.015626-.210937.15625-.125.171876-.21875.351563-.273437.535157-.0625.210937-.046876.242187.023437.039062.03125-.097656.089844-.242187.128906-.320312zm9.515625.378906c-.027344-.152344-.101562-.332031-.210937-.503906-.125-.199219-.210938-.289063-.285157-.289063-.054687 0-.046874.015625.085938.167969.082031.089844.15625.160156.164062.15625.027344-.015625.199219.363281.222657.480469.007812.054687.019531.097656.027343.097656.007813 0 .003907-.050781-.003906-.109375zm-.308594-.554687c-.035156-.046876-.070312-.097657-.113281-.140626-.035156-.039062-.050781-.070312-.035156-.070312.03125 0 .226563.253906.207031.273438-.007812.003906-.035156-.023438-.058594-.0625m-5.515624.449218v-.082031l-.25-.003906c-.1875 0-.316407-.019531-.503907-.066407-.324219-.089843-.804687-.292968-.917969-.394531-.085937-.078125-.117187-.085937-.59375-.160156-.546874-.089844-.613281-.09375-.613281-.058594 0 .035157.164063.078125.40625.105469l.195313.023438-.21875-.011719c-.261719-.015625-.410156-.050781-.410156-.101563 0-.046875-.011719-.046875-.140626.007813l-.101562.046875.398438.117187c.515624.15625 1.253906.347657 1.976562.507813l.632812.136718c.125.027344.140626.019532.140626-.066406zm2.929687-.109375c.726563-.167969 1.359375-.332031 1.824219-.480469l.34375-.109374-.101563-.042969c-.132812-.058594-.191406-.058594-.609375.007812-.3125.050781-.371094.066407-.441406.128907-.128906.113281-.609375.316406-.9375.394531-.375.089843-.59375.109375-.738281.058593-.101563-.035156-.109375-.035156-.109375.007813 0 .023437-.007813.082031-.015625.128906l-.019531.082031.101562-.019531c.054688-.007812.371094-.078125.703125-.15625zm1.589844-.542969c.019531-.007812.042969-.007812.050781 0 .007812.011719-.007812.015626-.035156.015626s-.035156-.007813-.015625-.015626zm.210937-.046874c.117188-.046876.164063-.042969.066406 0-.042968.019531-.097656.035156-.117187.035156s0-.015625.050781-.035156m-2.886718.328124c-.003907-.082031-.007813-.019531-.007813.132813 0 .15625.003906.222656.007813.152344.003906-.074219.003906-.203125 0-.285157m8.074218.273438c-.007812-.023438-.015625-.015625-.015625.011719-.003906.027343.003907.042969.011719.035156.011719-.007813.011719-.03125.003906-.050781zm-10.054687-.039062c-.007813-.007813-.03125-.007813-.046875 0-.023438.007812-.015625.011718.015625.015624.023437 0 .039062-.007812.03125-.015624zm.1875-.148438c.121093-.117188.199219-.277344.21875-.445312.027343-.207032 0-.242188-.085938-.105469-.085937.132812-.210937.246093-.339843.300781-.210938.089844-1.144532-.007812-1.34375-.144531-.074219-.050781-.105469-.058594-.125-.035157-.054688.050782.066406.140626.367187.273438.402344.171875.78125.269531 1.019531.257812.179688-.007812.195313-.011718.289063-.101562zm2.386719.097656c-.011719-.007812-.03125-.007812-.050782-.003906-.019531.011719-.015625.015625.015625.019531.027344 0 .042969-.007812.03125-.015625zm.179687 0c-.011719-.007812-.03125-.007812-.050781-.003906-.019532.011719-.015625.015625.015625.019531.027343 0 .042969-.007812.03125-.015625zm7.273437-.09375c-.007812-.019531-.011718-.003906-.011718.03125s.003906.050782.011718.03125c.007813-.015625.007813-.046875 0-.0625m-6.992187-.007812c.507813-.113282 1.082031-.386719.992187-.476563-.019531-.019531-.058593-.007812-.128906.039063-.144531.09375-.582031.175781-.960937.179687-.277344 0-.300781-.003906-.414063-.070312-.128906-.074219-.222656-.183594-.304687-.339844l-.046875-.09375-.019532.09375c-.046874.257813.074219.601563.246094.6875.125.0625.285156.058594.636719-.019531m6.796875-.25c-.261719-.738282-.757812-1.210938-1.800781-1.710938-.628907-.304687-.921875-.398437-2.339844-.761718-.328125-.082032-.566406-.15625-.582031-.179688-.039063-.054688-.082032-.050781-.113282.007812-.023437.042969.003907.054688.324219.117188.601563.121094 1.578125.417969 2.296875.699219.835938.328125 1.519532.785156 1.871094 1.253906.136719.183594.289062.480469.355469.695313.027343.082031.050781.136718.058593.125.003907-.011719-.027343-.125-.070312-.246094zm.171875.132812c-.011719-.023437-.015625-.015625-.015625.011719-.003906.027344.003906.042969.011719.035156.007812-.007812.007812-.03125.003906-.046875zm-17.535156-.222656c.355469-.847656 1.191406-1.433594 2.867187-2 .558594-.1875 1.136719-.347656 1.5625-.4375.3125-.0625.351563-.074219.339844-.117188-.015625-.058593-.054688-.0625-.113281-.007812-.023438.023438-.285157.101562-.578125.175781-1.433594.367188-1.730469.464844-2.390625.785157-.628907.308593-1.078125.628906-1.367188.976562-.136719.164062-.371093.609375-.40625.761719-.023437.109375-.003906.078125.085938-.136719zm14.816406.191406c0-.007812-.019531-.027344-.046875-.046875-.039062-.03125-.039062-.03125-.007812.011719s.054687.054688.054687.035156zm-12.238281-.082031c.03125-.035156.050781-.0625.046875-.0625-.007813 0-.042969.027344-.074219.0625-.035156.035156-.054688.066406-.046875.066406s.039063-.03125.070313-.066406zm14.929687.007813c-.007812-.019532-.015625-.011719-.015625.015624 0 .027344.003906.042969.011719.035157.011719-.007813.011719-.03125.003906-.050781zm-13.117187-.105469.074218-.082031-.082031.074218c-.078125.070313-.097656.09375-.074219.09375.003907 0 .039063-.039062.082032-.085937zm3.121094.019531c.125-.054688.25-.179688.324218-.328125l.0625-.121094-.054687.011719c-.34375.074219-1.425781.246094-1.550781.246094-.242188 0-.105469.105468.21875.164062.507812.097656.8125.105469 1 .027344zm1.4375-.050781c.152343-.097657.15625-.105469.164062-.21875.003906-.113281.003906-.113281.011719-.019531.007812.054687.019531.097656.027343.097656.007813 0 .070313-.035156.136719-.078125l.121094-.078125v-.269532c0-.144531.007813-.277343.019531-.292968.019532-.035156.015625-.035156-.128906.015625-.074219.023437-.109375.046875-.089844.058593.023438.015626.019532.054688-.011718.171876l-.050782.203124c-.007812.039063-.011718.039063-.011718-.011718 0-.039063.011718-.128906.03125-.199219.035156-.132813.035156-.140625-.035157-.144531-.007812 0-.0625.007812-.121093.015625l-.105469.015625-.097657-.15625-.09375-.15625-.140624.214844c-.078126.117187-.167969.269531-.203126.339843l-.0625.121094.226563.242187c.121094.136719.230469.242188.238281.238282.007813-.003906.089844-.050782.175782-.109375zm8.53125.035156c-.007813-.019531-.011719-.015625-.015626.015625 0 .027344.007813.042969.015626.03125.007812-.007812.007812-.03125 0-.046875zm-11.433594.019531c0-.003906-.019532-.023437-.042969-.042968-.042969-.035157-.042969-.03125-.011719.007812.035156.042969.054688.058594.054688.035156zm4.984375-.066406c.148437-.027344.300781-.074219.347656-.101562l.078125-.050782-.0625-.011718c-.035156-.007813-.242188-.039063-.460938-.070313s-.574218-.085937-.785156-.128906c-.210937-.039063-.386718-.066407-.390625-.0625-.015625.011719.125.257812.179688.316406.066406.070313.175781.132813.289062.164063.117188.03125.507813.003906.804688-.054688zm-2.414063.042969c0-.007813-.019531-.027344-.042968-.046875-.042969-.03125-.042969-.03125-.007813.007812.03125.042969.050781.058594.050781.039063zm-3.027344-.113281c-.015624-.007813-.046874-.007813-.0625 0-.019531.007812-.003906.015624.03125.015624.035157 0 .050782-.007812.03125-.015624m-.167968-.023438c-.007813-.007812-.027344-.007812-.046875 0s-.015625.011719.015625.015625c.027344 0 .042968-.007813.03125-.015625zm6.507812 0c-.007812-.007812-.03125-.007812-.050781 0s-.011719.011719.015625.015625c.027344 0 .042969-.007813.035156-.015625zm-7.957031-.027344c-.019531-.007812-.054687-.007812-.078125 0-.027344.007813-.011719.011719.03125.011719s.0625-.003906.046875-.011719m1.296875.003906c-.007812-.011718-.03125-.011718-.050781-.003906-.019531.007813-.011719.015625.015625.015625s.042968-.003906.035156-.011719zm6.828125-.003906c-.019531-.007812-.046875-.007812-.066406 0-.015625.007813 0 .011719.035156.011719s.046875-.003906.03125-.011719m1.3125 0c-.019531-.007812-.054687-.007812-.078125 0-.027344.007813-.011719.011719.03125.011719s.0625-.003906.046875-.011719m-8.867187-.042968c.113281-.035157.191406-.097657.191406-.15625 0-.019532-.003906-.019532-.019532 0-.046874.066406-.339843.1875-.339843.136718 0-.011718.019531-.023437.042969-.023437.070312 0 .242187-.109375.242187-.15625 0-.023438-.019531-.058594-.039063-.074219-.03125-.027344-.054687-.019531-.132812.042969-.183594.144531-.203125.164062-.167969.179687.050781.019532.035157.054688-.019531.042969-.03125-.007813-.054688-.003906-.054688.015625 0 .039062.148438.035156.296876-.007812zm.570312.019531c-.007812-.007813-.027344-.007813-.046875-.003907-.019531.011719-.015625.015626.015625.015626.027344.003906.042969-.003907.03125-.011719zm7.9375-.023438c-.003906-.007812-.011719-.015625-.019531-.019531-.011719-.003906-.019531-.003906-.03125 0-.023438.007812-.03125 0-.019531-.027344.007812-.027344-.03125-.074218-.121094-.144531-.148438-.117187-.164063-.121094-.203125-.054687-.042969.085937-.03125.105468.109375.171874.074218.03125.121094.0625.101562.0625-.019531 0-.078125-.023437-.136718-.054687-.109376-.054687-.160157-.046875-.097657.015625.046875.046875.191407.085938.324219.085938.085938.003906.105469-.003907.09375-.035157zm-6.753906-.003906c-.007813-.007813-.03125-.007813-.046875 0-.023438.007813-.015625.015625.015625.015625.023437 0 .039062-.003906.03125-.015625zm5.222656-.023437c-.011719-.007813-.03125-.011719-.050781-.003907-.019531.007813-.015625.015625.015625.015625.027344 0 .042968-.003906.03125-.011718zm-4.8125-.027344c-.007812-.007813-.027344-.007813-.046875 0-.019531.007812-.015625.011718.015625.015625.027344 0 .042969-.007813.03125-.015625zm4.644531 0c-.019531-.007813-.046875-.007813-.066406 0-.015625.007812 0 .011718.035156.011718.035157 0 .046875-.003906.03125-.011718m-.375-.050782c-.007812-.007812-.03125-.007812-.046875 0-.023437.007813-.015625.011719.015625.015626.027344 0 .042969-.007813.03125-.015626zm-.152343-.023437c-.007813-.011719-.03125-.011719-.050782-.003906-.019531.007812-.015625.015625.015625.015625.027344 0 .042969-.003906.035157-.015625zm-.179688-.027344c-.007812-.007812-.03125-.007812-.050781-.003906-.019531.007813-.015625.015625.015625.015625.027344.003906.042968-.003906.035156-.011719zm-6.558594-.078125c-.007812-.007812-.03125-.007812-.050781 0-.019531.007813-.011719.011719.015625.015625.027344 0 .042969-.007812.035156-.015625zm3.703125 0c-.007812-.007812-.03125-.007812-.050781 0-.019531.007813-.011719.011719.015625.015625.027344 0 .042969-.007812.035156-.015625zm1.671875-.078125c-.007812-.027343-.011718-.011719-.015625.03125 0 .042969.007813.0625.011719.042969.007812-.015625.007812-.050781.003906-.074219m.746094.078125c-.007812-.007812-.03125-.007812-.050781 0-.019531.007813-.011719.011719.015625.015625.027344 0 .042968-.007812.035156-.015625zm3.058594 0c-.007813-.007812-.03125-.007812-.046875 0-.023438.007813-.015625.011719.015625.015625.023437 0 .039062-.007812.03125-.015625zm-5.347656-.023437c-.007813-.011719-.03125-.011719-.050782-.003907-.019531.007813-.011718.015626.015625.015626.027344 0 .042969-.003907.035157-.011719zm2.160156 0c-.007813-.011719-.03125-.011719-.050782-.003907-.019531.007813-.011718.015626.015626.015626.027343 0 .042968-.003907.035156-.011719zm2.746094-.511719c-.132813-.578125-.15625-.671875-.3125-1.101562-.109376-.304688-.15625-.375-.203126-.300782-.007812.011719.023438.132813.074219.261719.089844.238281.257813.875.339844 1.28125.042969.210937.113281.363281.113281.238281 0-.230468-.359375-1.492187-.476562-1.667968-.03125-.050782-.03125-.058594 0-.046876.085937.035157.398437 1.054688.480468 1.566407.027344.175781.0625.289062.089844.261719.003906-.003907-.042968-.226563-.105468-.492188zm-8.28125.296875c.074218-.40625.308593-1.292969.402343-1.511719.035157-.082031.035157-.105468.011719-.09375-.070312.023438-.304688.761719-.4375 1.359375-.050781.210938-.089844.367188-.089844.34375 0-.023437.015625-.132812.039063-.242187.023437-.109375.035156-.203125.03125-.207032-.007813-.007812-.035157.082032-.058594.199219l-.058594.273438-.015625.0625.082032-.046875c.054687-.03125.082031-.070313.09375-.136719zm-3.984376-.441406c.097657-.074219.175782-.121094.195313-.113281.019531.011718.023437.007812.011719-.007813-.023438-.039063.527344-.402344.839844-.5625.324218-.164063.664062-.296875.703124-.28125.023438.007813.03125.003906.023438-.007813-.019531-.03125.464844-.191406.515625-.171874.023437.007812.035156.003906.027344-.007813-.023438-.039063.660156-.21875 1.320312-.347656.410157-.082031.421875-.085938.324219-.113281-.867188-.230469-1.714844-.386719-2.1875-.398438l-.230469-.003906-.296875.230468c-.566406.441407-1.097656 1.03125-1.425781 1.585938-.125.214844-.324219.628906-.324219.675781 0 .011719.078125-.0625.171875-.160156.089844-.101563.242188-.242187.332031-.316406zm8.898438.40625c-.003906-.015625-.011719-.003907-.011719.03125 0 .039062.007813.050781.011719.035156.007812-.019531.007812-.046875 0-.066406m7.6875-.152344c-.328125-.742187-.929688-1.472656-1.6875-2.050781-.105469-.082032-.207031-.167969-.226562-.191406-.085938-.101563-1.148438.042968-2.140626.292968-.164062.042969-.324218.085938-.359374.101563l-.0625.023437h.058593c.089844.003906.75.144532 1.152344.246094 1.179687.296875 1.960937.648438 2.71875 1.21875.230469.175781.4375.363281.394531.363281-.011718 0-.007812.019531.007813.039063.019531.023437.042969.03125.054687.027344.011719-.007813.050782.023437.09375.070312.039063.050781.078125.085938.082032.082031.003906-.003906-.035157-.105469-.085938-.222656zm-8.003906-.066406c.125-.042969.125-.042969.199218-.253907.050782-.148437.0625-.214843.042969-.222656-.019531-.007812-.011719-.015625.011719-.015625.0625-.003906.058594.011719-.019531.230469-.035157.101562-.0625.1875-.054688.191406.003907.007813.042969.003906.082031-.007812.074219-.019532.078126-.027344.109376-.25.019531-.125.03125-.238282.027343-.25-.003906-.007813-.058593.007812-.125.039062-.0625.03125-.140625.0625-.175781.070313-.042969.007812-.074219.050781-.113281.148437-.03125.078125-.066407.140625-.082031.144532-.015626 0-.027344-.078126-.027344-.191407 0-.121093.003906-.160156.011718-.101562.015626.085937.019532.085937.035157.027343.011719-.042968.003906-.078124-.019531-.101562-.027344-.03125-.039063-.023438-.078126.050781-.03125.058594-.066406.109375-.105468.160157-.03125.039062-.058594.082031-.058594.089843 0 .046875.15625.289063.183594.285157.019531 0 .089844-.019532.15625-.042969zm-4.339844-1.09375c.078125-.230469.105469-.277344.15625-.292969.035156-.007812.0625-.023438.0625-.035156 0-.011719-.003906-.023438-.011719-.023438-.003906 0-.027343-.007812-.050781-.015625-.046875-.019531-.074219.042969-.222656.476563-.105469.300781-.230469.753906-.226563.824218 0 .019532.042969-.117187.097657-.308593.050781-.191407.140624-.472657.195312-.625zm4.675781.359375c.019531-.074219.019531-.289063 0-.308594-.007812-.007812-.050781.003906-.097656.027344-.078125.035156-.085937.050781-.117187.238281l-.039063.199219.121094-.050782c.074219-.03125.125-.070312.132812-.105468m-.339843-.085938c-.003907-.035156-.019532-.054687-.03125-.046875-.027344.019531-.03125.175781-.003907.203125.023438.023438.050781-.085937.035157-.15625zm.46875.011719c.011718-.050781.011718-.152344 0-.226563-.023438-.128906-.023438-.128906-.082032-.085937-.046875.03125-.050781.046875-.027344.078125.019532.019531.023438.09375.019532.1875-.011719.132812-.007813.15625.027344.148438.019531-.003907.046874-.046876.0625-.101563zm-.421876-.105469c0-.035156-.015624-.070312-.035156-.078125-.027344-.011719-.03125 0-.007812.0625.035156.089844.042968.09375.042968.015625zm.480469-.089844c-.003906-.023437-.011719-.003906-.011719.046876 0 .050781.007813.070312.011719.042968.007813-.027344.007813-.058594 0-.089844zm.496094-.046874c-.082031-.085938-.125-.089844-.125-.019532 0 .039063.097656.089844.136719.066406.015625-.007812.015625.003907.007812.027344-.011718.03125-.003906.039063.023438.027344.03125-.011719.023437-.03125-.042969-.101562zm-.066406-.015626-.046875-.058593.058594.050781c.054687.042969.066406.066406.046874.066406-.003906 0-.03125-.027344-.058593-.058594zm-.652344-.144531c0-.046875-.195313-.285156-.234375-.285156-.011719 0-.03125.046875-.046875.101563-.027344.097656-.023437.113281.035156.183593.039063.042969.066407.089844.066407.101563 0 .011718.039062 0 .089843-.03125s.089844-.0625.089844-.070313zm-3.066406-.125c.039062-.03125.039062-.03125-.003907-.03125-.066406 0-.144531.046875-.144531.089844 0 .019531.015625.066406.03125.105469l.027344.074218.023437-.101562c.011719-.058594.042969-.121094.066407-.136719zm1.054687.078125c-.007812-.027344-.015625-.011718-.015625.03125 0 .042969.007813.0625.011719.046875.007812-.019531.007812-.054687.003906-.078125m-1.238281-.039062c-.003906-.019532-.011719-.003906-.011719.03125s.007813.050781.011719.03125c.007813-.015625.007813-.046875 0-.0625m3.351563-.011719c0-.070313-.265626-.316406-.34375-.316406-.007813 0-.015626.023437-.015626.050781s.015626.050781.035157.050781c.046875 0 .191406.164063.226562.25.019531.054688.03125.058594.0625.03125.019531-.015625.035157-.046875.035157-.066406zm-1.550782-.054687c-.003906-.023438-.011718-.007813-.011718.035156 0 .042968.003906.0625.011718.042968.007813-.015624.007813-.050781 0-.078124m.070313.03125c-.019531-.050782-.035157-.046876-.035157.015624 0 .03125.011719.046876.023438.039063.015625-.007813.019531-.03125.011719-.054687m.097656-.042969c.003906-.078125.003906-.082031.015625-.011719.007812.050781.023438.070312.050781.066406.082031-.015625.070313-.207031-.007812-.238281-.027344-.007813-.085938-.003906-.132813.011719-.078125.027344-.082031.03125-.050781.070312.023437.023438.046875.074219.058594.113282.023437.097656.0625.089843.066406-.011719zm.492187.039062c-.019531-.003906-.046874-.003906-.066406 0-.015625.007813-.003906.015625.03125.015625s.050782-.007812.035156-.015625m.402344-.097656.003906-.109375c0-.007812-.042968-.027344-.097656-.035156l-.097656-.015625.109375-.003907c.144531-.003906.148437-.066406.011719-.085937-.132813-.015625-.238282.003906-.238282.046875 0 .019531.011719.035156.019532.035156.011718 0 .015625.054688.011718.117188l-.007812.113281.097656.011719.144532.011718c.035156.003907.042968-.015624.042968-.085937zm-.402344.046875c.007813-.011719.007813-.082031 0-.15625-.011718-.109375-.023437-.132812-.054687-.125-.023437.007812-.085937.019531-.140625.027344-.140625.023437-.117188.054687.039062.050781l.136719-.003906-.117187.015625c-.109375.015625-.117188.019531-.125.113281l-.007813.097656h.128907c.070312 0 .136718-.011719.140624-.019531zm-2.25-.023438c-.011718-.007812-.03125-.007812-.050781 0-.019531.007813-.015625.011719.015625.015626.027344 0 .042969-.007813.035156-.015626zm2.3125-.144531c-.007812-.019531-.015624-.003906-.015624.03125 0 .035157.007812.050781.015624.03125.003907-.015625.003907-.046875 0-.0625m-3.507812-.074219c.0625-.078124.054688-.144531-.03125-.230468-.085938-.085938-.132812-.09375-.234375-.03125-.082031.046875-.109375.117187-.078125.199218.054688.144532.246094.179688.34375.0625m-.273438-.066406c-.011718-.007812-.015624-.039062-.015624-.070312 0-.035156.007812-.039063.015624-.015625.007813.023437.03125.054687.054688.070312.035156.03125.035156.035157 0 .035157-.019531 0-.046875-.007813-.054688-.019532zm.152344-.011718c.035156-.019532.0625-.046876.082032-.082032.019531-.042968.027343-.046875.027343-.011718.003907.054687-.066406.125-.121093.121093-.03125 0-.03125-.007812.011718-.027343m7.257813.121093c.132812-.066406.144531-.207031.03125-.292969-.085938-.0625-.136719-.066406-.210938-.027343-.066406.035156-.058593.113281.019531.175781.046876.035156.054688.054688.027344.054688-.023437 0-.0625-.03125-.089844-.066407-.042968-.050781-.054687-.054687-.066406-.023437-.019531.050781.019532.125.09375.175781.070313.050781.105469.050781.195313.003906zm-.042969-.125c.023438-.015625.054688-.054687.066406-.082031.015625-.027344.03125-.035156.03125-.015625 0 .058594-.050781.132813-.09375.132813-.039062 0-.039062-.003907-.003906-.035157zm-5.375.027344c-.058594-.058594-.035156-.183594.046875-.265625.042969-.039062.078125-.058594.078125-.046875 0 .015625-.03125.054687-.066406.085937-.066406.0625-.082032.152344-.039063.195313.019531.019531.097657-.003906.230469-.070313.175781-.085937.226562-.125.359375-.285156.082031-.101562.203125-.234375.269531-.296875.066406-.058593.113282-.109375.105469-.109375-.03125 0-.324219.164063-.472656.261719-.152344.101563-.167969.121094-.167969.199219 0 .105468-.066406.160156-.136719.117187-.023437-.015625-.042969-.042969-.046875-.0625 0-.023437.003906-.023437.007813-.007812.015625.046875.089843.0625.128906.03125.023437-.023438.03125-.058594.023437-.105469-.011718-.0625 0-.082031.09375-.152344.167969-.117187.34375-.214844.53125-.296875.078126-.03125.128907-.058593.113282-.058593s-.050782-.007813-.078125-.015626c-.039063-.011718-.039063-.011718-.007813.015626.03125.023437.023438.027343-.039062.019531-.042969-.007813-.058594-.007813-.039063 0 .019531.003906-.078125.054687-.210937.109375-.53125.207031-.839844.441406-.839844.640625 0 .054687.085938.128906.152344.128906.027344 0 .03125-.007813.003906-.03125zm.292969.007813c.007812-.015626-.003907-.019532-.027344-.011719-.042969.019531-.050781.035156-.015625.035156.015625 0 .03125-.011719.042969-.023437m2.789062.015624c0-.007812-.019531-.019531-.039062-.027343-.019531-.007813-.039063-.003907-.039063.011719 0 .011718.019532.023437.039063.023437.023437 0 .039062-.003906.039062-.007813m-5.300781-.089843c.027344-.019531.027344-.027344-.003906-.039063-.023438-.007812-.046875.003906-.054688.023438-.015625.042968.007813.046875.058594.015625m5.261719-.027344c-.007813-.007813-.027344 0-.046875.019531-.023438.027344-.019532.027344.015625.015625.027343-.011719.039062-.023437.03125-.035156zm2.671875.011719c-.007813-.019532-.03125-.03125-.054688-.023438-.03125.011719-.03125.019532-.003906.039063.050781.03125.074219.027343.058594-.015625m.371094-.199219c.171874-.042969.308593-.085937.304687-.089844-.015625-.015625-.53125.113281-.652344.160157-.117187.046874-.070312.035156.347657-.070313zm-8.382813.070313c-.023437-.023438-.511719-.144532-.542969-.136719-.015625.007812.085938.039062.226563.078125.257812.066406.339843.082031.316406.058594m.160156-.023438c0-.019531-.027343-.042969-.058593-.046875-.03125-.007813-.265626-.070313-.523438-.136719-.421875-.113281-.488281-.125-.78125-.128906l-.324219-.003906.285157.046875c.628906.097656.667968.105469.613281.128906-.03125.015625-.023438.015625.03125.007813.074219-.015626.503906.078124.65625.140624.085937.035157.101562.03125.101562-.007812zm8.5-.152344c.074219-.003906.121094-.011718.109375-.019531-.011718-.007813.15625-.042969.378906-.078125.359376-.054688.390626-.0625.289063-.078125-.15625-.027344-.269531-.023437-.152344.003906.0625.011719.023438.019531-.140625.015625-.199218 0-.296875.015625-.746094.136719l-.523437.144531c-.003906.003906 0 .015625.007813.03125.007812.011719.15625-.015625.328124-.066406.175782-.046875.378907-.089844.449219-.089844m-6.417969.019532c.03125-.035157.054688-.0625.046876-.0625-.007813 0-.039063.027343-.074219.0625-.03125.035156-.054688.066406-.046875.066406.007812 0 .039062-.03125.074218-.066406zm-2.269531-.003907c-.011719-.007812-.03125-.007812-.050781 0-.019531.007813-.015625.011719.015625.015625.027344 0 .042969-.003906.035156-.015625zm.441407-.003906c0-.046875-.203126-.328125-.296876-.417969l-.097656-.089844.070313.089844c.105469.136719.273437.390625.273437.417969 0 .011719.011719.019531.027344.019531s.023438-.007812.023438-.019531zm7.300781-.097656c.035156-.0625.140625-.199219.234375-.300781.128906-.140626.144531-.164063.0625-.101563-.144532.117187-.394532.433594-.394532.503906 0 .050781.042969.003907.097657-.101562zm.40625.101562c-.007813-.007812-.027344-.007812-.046875 0-.019532.007813-.015625.011719.015625.015625.027343 0 .042969-.003906.03125-.015625zm-3.210938-.074219c-.011719-.011718-.03125-.011718-.050781-.003906-.019531.007813-.015625.015625.015625.015625.027344 0 .042969-.003906.035156-.011719zm-6.558593-.054687c-.007813-.007813-.03125-.007813-.050782 0-.019531.007813-.011718.015625.015625.015625.027344 0 .042969-.003906.035157-.015625zm1.132812 0c-.011719-.007813-.03125-.007813-.050781 0s-.015625.015625.015625.015625c.027344 0 .042968-.003906.035156-.015625zm4.472656 0c-.007812-.007813-.03125-.007813-.050781 0s-.011719.015625.015625.015625.042969-.003906.035156-.015625zm-5.8125-.023437c-.007812-.007813-.03125-.011719-.046875-.003907-.023437.007813-.015625.015625.015625.015625.027344.003906.042969-.003906.03125-.011718zm1.234375 0c-.007812-.007813-.03125-.011719-.046875-.003907-.023437.007813-.015625.015625.015625.015625.027344.003906.039063-.003906.03125-.011718zm9.335938 0c-.007813-.007813-.03125-.011719-.050781-.003907-.019532.007813-.011719.015625.015624.015625.027344.003906.042969-.003906.035157-.011718zm1.261719 0c-.011719-.007813-.03125-.011719-.050782-.003907-.019531.007813-.015625.015625.015625.015625.027344.003906.042969-.003906.03125-.011718zm-12.125-.027344c-.019532-.007813-.046876-.007813-.066407 0-.015625.007812-.003906.011718.03125.011718.035157 0 .050781-.003906.035157-.011718m1.425781 0c-.007813-.007813-.03125-.007813-.050781 0-.019532.007812-.011719.015625.015624.015625.027344 0 .042969-.003907.035157-.015625zm4.6875-.0625c.0625-.046875.09375-.074219.066406-.066406-.023437.007812-.054687.015624-.0625.015624-.011719 0-.058594.03125-.109375.066407-.125.09375-.03125.078125.105469-.015625zm4.851562.0625c-.007812-.007813-.03125-.007813-.046875 0-.023437.007812-.015625.015625.015625.015625.023438 0 .039063-.003907.03125-.015625zm1.453125 0c-.015625-.007813-.050781-.007813-.074218 0-.027344.003906-.011719.011718.03125.011718.042968 0 .0625-.003906.042968-.011718m-11.839844-.027344c-.023437-.003906-.070312-.007812-.101562 0s-.011719.011719.042969.011719c.058593 0 .082031-.003907.058593-.011719m.371094 0c-.015625-.003906-.050781-.007812-.074218 0-.027344.007812-.011719.011719.03125.015625.042968 0 .0625-.007813.042968-.015625m.375.003906c-.011718-.007812-.03125-.011718-.050781-.003906s-.015625.015625.015625.015625c.027344 0 .042969-.003906.035156-.011719zm4.90625-.023437c.046875-.039063.046875-.039063-.015625-.011719-.078125.039062-.09375.050781-.058593.050781.011718 0 .046874-.019531.074218-.039062zm4.839844.023437c-.011719-.007812-.03125-.011718-.050781-.003906s-.015625.015625.015625.015625c.027344 0 .042968-.003906.035156-.011719zm.796875-.003906c-.023437-.003906-.070313-.007812-.101563 0-.035156.007812-.015624.011719.042969.011719.054688 0 .082031-.003907.058594-.011719m-11.574219-.023438c-.027344-.007812-.058594-.007812-.089844 0-.023437.003907-.003906.011719.046876.011719.050781 0 .070312-.007812.042968-.011719zm.890625 0c-.019531-.007812-.054687-.007812-.078125 0-.023437.003907-.011718.011719.03125.011719.042969 0 .0625-.003906.046875-.011719m10.054688 0c-.019531-.007812-.054688-.007812-.078125 0-.027344.003907-.011719.011719.03125.011719.042968 0 .0625-.003906.046875-.011719m.410156 0c-.019531-.007812-.046875-.007812-.066406 0-.015625.007813 0 .011719.035156.011719s.046875-.003906.03125-.011719m.476563 0c-.03125-.007812-.0625-.007812-.089844 0-.027344.003907-.003906.011719.042968.011719.050782 0 .070313-.007812.046876-.011719zm-11.855469-.046874c.023437-.023438-1.03125-.011719-1.085938.011718-.03125.011719.1875.015625.511719.011719.308594-.003906.566406-.015625.574219-.023437zm.28125.023437c-.007813-.011719-.03125-.011719-.046875-.003906-.023438.007812-.015625.015625.015625.015625.023437 0 .039062-.003906.03125-.011719zm11.289062 0c-.007812-.011719-.03125-.011719-.050781-.003906-.019531.007812-.011719.015625.015625.015625s.042969-.003906.035156-.011719zm.101563 0c-.007813-.011719-.027344-.011719-.046875-.003906-.019531.007812-.015625.015625.015625.015625.027344 0 .042968-.003906.03125-.011719zm1.203125-.015625c-.027344-.007812-.289063-.015625-.578125-.015625-.375.003906-.464844.007813-.308594.019531.316406.023438.949219.023438.886719-.003906zm-7.632813-.027344c.007813-.007812-.003906-.011718-.027344-.011718-.019531.003906-.046874.015624-.054687.023437s.003906.011719.023437.011719c.023438-.003906.046876-.015625.058594-.023438m-3.332031-.082031c0-.003906-.023437-.023437-.046875-.042969-.039062-.035156-.042969-.03125-.007812.007813.03125.042969.054687.058593.054687.035156zm4.34375-.03125c0-.003906-.042969-.007813-.09375-.007813-.085937.003907-.089844.003907-.035156.023438.058593.015625.128906.007812.128906-.015625zm-.964844-.113281c-.007812-.011719-.035156-.023438-.058593-.023438-.035157 0-.035157.003906.007812.023438.070312.03125.070312.03125.050781 0m-3.429687-.007813c0-.007812-.023438-.027343-.046875-.046875-.039063-.03125-.042969-.03125-.007813.011719.03125.042969.054688.054687.054688.035156zm3.578125-.035156c-.015625-.007813-.050781-.007813-.074219 0-.027344.007813-.011719.011719.03125.011719s.0625-.003906.042969-.011719m4.675781-.101563c0-.019531-.050781-.03125-.0625-.015624-.007812.015624.003906.023437.023438.023437.019531 0 .039062-.003906.039062-.007813zm-8.4375-.046874c0-.003907-.015625-.015626-.039062-.023438-.019532-.007812-.03125-.003906-.023438.007812.015625.027344.0625.039063.0625.015626zm0 0"/></svg>