<svg height="18" viewBox="0 0 18 18" width="18" xmlns="http://www.w3.org/2000/svg"><g fill="none" stroke="#fff" stroke-linecap="round" stroke-linejoin="round" stroke-width="2" transform="scale(.75)"><path d="m22 12c0 2.760417-2.239583 5-5 5s-5-2.239583-5-5-2.239583-5-5-5-5 2.239583-5 5"/><path d="m7 20.697917c-2.401042-1.380209-3.229167-4.447917-1.848958-6.848959 1.380208-2.401041 4.447916-3.229166 6.848958-1.848958 2.375 1.380208 5.421875.572917 6.802083-1.802083 1.380209-2.375.572917-5.416667-1.802083-6.796875"/><path d="m7 3.302083c2.375-1.380208 5.421875-.578125 6.802083 1.796875 1.380209 2.375.572917 5.421875-1.802083 6.802084-2.375 1.380208-3.182292 4.421875-1.802083 6.796875 1.380208 2.375 4.427083 3.182291 6.802083 1.802083"/><path d="m22 12c0 5.520833-4.479167 10-10 10s-10-4.479167-10-10 4.479167-10 10-10 10 4.479167 10 10zm0 0"/></g></svg>