<svg height="18" viewBox="0 0 18 18" width="18" xmlns="http://www.w3.org/2000/svg"><g fill="none" stroke="#fff" stroke-linecap="round" stroke-linejoin="round" stroke-width="2" transform="scale(.75)"><path d="m13 16c0 .552083-.447917 1-1 1s-1-.447917-1-1 .447917-1 1-1 1 .447917 1 1zm0 0"/><path d="m5 10h14c1.104167 0 2 .895833 2 2v8c0 1.104167-.895833 2-2 2h-14c-1.104167 0-2-.895833-2-2v-8c0-1.104167.895833-2 2-2zm0 0"/><path d="m7 10v-3c0-2.260417 1.520833-4.244792 3.708333-4.828125 2.182292-.588542 4.489584.369792 5.619792 2.328125"/></g></svg>