<svg height="18" viewBox="0 0 18 18" width="18" xmlns="http://www.w3.org/2000/svg"><path d="m0 .902344h1.675781v11.121094h6.625v1.371093h-8.300781zm13.527344 3.015625c-1.714844-.023438-3.425782 1.066406-3.960938 2.71875-.761718 1.90625-.414062 4.296875 1.082032 5.75 1.445312 1.203125 3.625 1.296875 5.253906.445312 1.121094-.597656 1.828125-1.777343 1.980468-3.019531.199219-1.292969.101563-2.710938-.53125-3.882812-.746093-1.25-2.210937-2.054688-3.65625-2.003907l-.167968-.023437zm.152344 1.324219c1.257812 0 2.382812.960937 2.589843 2.195312.378907 1.394531.152344 3.097656-.992187 4.082031-1.066406.867188-2.777344.746094-3.65625-.328125-1.066406-1.140625-1.066406-2.894531-.515625-4.265625.378906-.988281 1.390625-1.695312 2.460937-1.675781h.136719zm0 0"/><path d="m0 15.167969h17.972656v1.902343h-17.972656zm0 0" fill="#3492ff"/></svg>