<svg height="18" viewBox="0 0 18 18" width="18" xmlns="http://www.w3.org/2000/svg"><path d="m0 .871094v12.492187h8.300781v-1.371093h-6.625v-11.121094zm13.527344 3.003906v.011719c-1.714844-.019531-3.429688 1.066406-3.960938 2.722656-.761718 1.902344-.414062 4.292969 1.082032 5.75 1.445312 1.203125 3.625 1.292969 5.253906.441406 1.121094-.59375 1.828125-1.773437 1.980468-3.015625.199219-1.296875.101563-2.710937-.53125-3.886718-.746093-1.246094-2.210937-2.054688-3.65625-2.003907zm.152344 1.339844c1.257812 0 2.382812.957031 2.589843 2.191406.378907 1.394531.152344 3.101562-.992187 4.082031-1.066406.871094-2.777344.75-3.65625-.324219-1.066406-1.144531-1.066406-2.894531-.515625-4.265624.378906-.992188 1.390625-1.699219 2.457031-1.675782h.140625zm-13.679688 9.921875v1.90625h17.972656v-1.90625zm0 0"/></svg>