<svg height="18" viewBox="0 0 18 18" width="18" xmlns="http://www.w3.org/2000/svg"><path d="m9.398438 0-.023438.347656.070312.003906c.246094.015626.496094.042969.75.070313l.0625.007813.011719-.0625.058594-.2851568-.078125-.0078124c-.265625-.0273438-.515625-.0585938-.785156-.07031255zm-.71875.00390625c-.269532 0-.535157.02734375-.789063.05468755l-.070313.0078124.046876.3476558.066406-.007812c.253906-.027344.5-.054688.761718-.054688h.074219l-.023437-.34765575zm7.15625.11328175c-1.136719 0-2.078126.910156-2.078126 2.0625 0 1.152343.925782 2.0625 2.078126 2.0625 1.152343 0 2.066406-.921876 2.066406-2.0625 0-1.140626-.925782-2.0625-2.066406-2.0625m-7.21875.03125.003906.070312c-.21875.003906-.425782.023438-.632813.046875l-.007812-.074219c.207031-.019531.421875-.039062.636719-.042968zm.910156 0c.210937.015624.417968.035156.632812.058593l-.015625.070313c-.207031-.023438-.414062-.042969-.621093-.058594zm-2.339844.035156-.070312.015625c-.253907.058593-.503907.128906-.757813.199219l-.066406.015624.09375.332032.066406-.019532c.238281-.070312.488281-.140624.738281-.195312l.066406-.015625zm3.742188.042968-.070313.332032.066406.015625c.25.054687.5.109375.730469.191406l.070312.023437.019532-.066406.074218-.246094-.0625-.023437c-.25-.082031-.503906-.152344-.761718-.210937zm4.90625.027344c1.066406 0 1.925781.859375 1.925781 1.925782 0 1.066406-.847657 1.925781-1.925781 1.925781-1.078126 0-1.9375-.847657-1.9375-1.925781 0-1.078126.871093-1.925782 1.9375-1.925782m-8.757813.101563.015625.058593c-.207031.046876-.410156.101563-.609375.160157l-.019531-.0625c.207031-.054688.410156-.109375.613281-.15625m3.957031.042969c.207032.046874.410156.105468.613282.167968l-.015626.050782c-.199218-.066407-.40625-.117188-.609374-.160157zm-5.359375.242187-.0625.023437c-.238281.097657-.476562.210938-.714843.324219l-.066407.03125.164063.304688.0625-.03125c.226562-.113281.457031-.21875.691406-.316407l.066406-.03125zm6.757813.039063-.117188.324218.0625.027344c.226563.097656.453125.207031.679688.316406l.0625.035156.03125-.066406.109375-.238281-.054688-.03125c-.230469-.128906-.464843-.242187-.707031-.339844zm-6.828125.140624.027343.054688c-.195312.082031-.386718.171875-.574218.265625l-.03125-.058594c.191406-.089843.386718-.179687.578125-.261719m6.910156.046876c.191406.082031.378906.171874.566406.269531l-.027343.058593c-.1875-.09375-.378907-.183593-.5625-.265624zm-8.234375.464843-.058594.035157c-.226562.140624-.4375.296874-.644531.449218l-.058594.042969.210938.28125.054687-.046875c.195313-.148438.402344-.289062.625-.441406l.058594-.039063zm-.039062.191407.035156.050781c-.183594.125-.355469.246093-.519532.371093l-.039062-.058593c.171875-.125.34375-.246094.523438-.363281m4.757812.585937c-3.800781 0-6.902344 3.085937-6.902344 6.90625 0 3.816406 3.085938 6.902344 6.902344 6.902344 3.820312 0 6.90625-3.085938 6.90625-6.902344 0-3.820313-3.101562-6.90625-6.90625-6.90625m0 .140625c3.730469 0 6.765625 3.023438 6.765625 6.765625s-3.023437 6.761719-6.765625 6.761719-6.761719-3.019532-6.761719-6.761719 3.035157-6.765625 6.761719-6.765625m-5.976562.027344-.050782.042968c-.199218.171876-.382812.355469-.5625.550782l-.050781.050781.257813.234375.046874-.050781c.167969-.179688.347657-.359375.539063-.523438l.054687-.046875zm-.007813.199218.046875.046876c-.160156.140624-.308594.285156-.449219.4375l-.050781-.042969c.144531-.15625.292969-.304688.453125-.441407m-1.070313.945313-.042968.054687c-.152344.195313-.308594.40625-.449219.632813l-.035156.058594.28125.1875.039062-.058594c.136719-.210937.277344-.417969.441407-.609375l.046874-.054688zm.027344.195313.054688.042968c-.132813.164063-.25.332032-.367188.503906l-.050781-.035156c.113281-.175781.234375-.347656.363281-.511718zm9.859375.488281c-1.136719 0-2.0625.921875-2.0625 2.0625s.925781 2.066406 2.0625 2.066406c1.140625 0 2.066407-.925781 2.066407-2.066406s-.925782-2.0625-2.066407-2.0625m0 .136719c1.066407 0 1.925781.863281 1.925781 1.925781s-.859374 1.925781-1.925781 1.925781c-1.0625 0-1.925781-.859375-1.925781-1.925781 0-1.0625.863281-1.925781 1.925781-1.925781zm-10.75.492187-.035156.0625c-.128906.226563-.242187.460937-.339844.703125l-.027343.066406.324218.117188.027344-.058594c.097656-.226562.203125-.449219.320312-.664062l.03125-.0625zm15.902344.109375-.308594.167969.035157.0625c.121093.21875.21875.453125.316406.6875l.027344.066406.066406-.027344.242187-.113281-.027343-.0625c-.097657-.238281-.210938-.476562-.320313-.714844zm-15.847656.082031.058593.03125c-.09375.183594-.179687.367188-.261718.550781l-.066406-.019531c.082031-.191406.171874-.378906.269531-.5625m15.78125.113281c.09375.191407.183593.386719.261719.578126l-.054688.027343c-.078125-.195312-.164062-.386719-.265625-.574219zm-16.453125 1.125-.023438.066407c-.082031.25-.152344.503906-.210937.757812l-.015625.070313.332031.070312.015625-.066406c.054688-.242188.121094-.484375.207031-.71875l.023438-.0625zm17.121094.140626-.332032.097656.023438.066406c.082031.234375.136718.480469.191406.734375l.015625.066406.066406-.015625.265625-.054687-.015625-.070313c-.054687-.253906-.125-.503906-.195312-.757812zm-17.03125.039062.0625.023438c-.066407.195312-.125.394531-.171876.597656l-.058593-.011719c.046875-.207031.101562-.410156.167969-.609375zm16.933593.132812c.058594.207032.113281.410157.160157.617188l-.058594.011719c-.046875-.207031-.097656-.410157-.164063-.609375zm-17.4062498 1.199219-.0078124.074219c-.0273438.265625-.0546876.519531-.07031255.785156v.070313l.34765575.023437.003907-.070312c.011719-.25.039062-.5.066406-.75l.007813-.0625zm17.8515628.15625-.347656.046875.007812.070313c.027344.246093.042969.496093.054688.746093l.003906.066407h.34375v-.070313c0-.269531-.027344-.535156-.054688-.789062zm-17.726563.011719.070313.011719c-.023438.207031-.042969.414062-.054688.625l-.070312-.003907c.011718-.214843.03125-.421874.054687-.632812zm4.082031.027344v4.617187h2.925782v-.644531h-2.214844v-3.972656zm13.519532.121094c.023437.207031.042968.417968.042968.632812h-.066406c-.011718-.210938-.027344-.417969-.046875-.625zm-13.382813.015624h.433594v3.976563h2.21875v.363281h-2.652344zm7.980469 1.019532c-.488281 0-.898438.140625-1.128906.402344-.164063.179687-.226563.382812-.238282.710937l-.003906.074219h.652344l.007812-.0625c.019532-.183594.078126-.304688.183594-.386719.109375-.078125.269532-.125.5-.125.21875 0 .386719.042969.496094.113281.105469.066406.15625.160156.15625.292969v.136719c0 .101562-.015625.144531-.082031.1875-.0625.042968-.1875.082031-.386719.109375-.363281.046875-.570312.074219-.71875.101562-.144531.027344-.230469.054688-.332031.097657-.394531.160156-.613281.488281-.613281.929687 0 .308594.109374.566406.308593.746094.195313.175781.480469.269531.820313.269531.386718 0 .710937-.144531 1.046875-.429688.027343.117188.070312.222657.148437.296876.101563.09375.246094.132812.421875.132812.105469 0 .199219-.015625.367188-.054688l.050781-.015624.019531-.535157-.089843.023438c-.050782.011719-.066407.011719-.09375.011719-.078126 0-.128907-.019532-.160157-.050782-.03125-.027344-.050781-.070312-.050781-.132812v-1.894532c0-.304687-.117188-.550781-.335938-.710937-.222656-.160156-.539062-.238281-.945312-.238281zm-4.785156.097656v2.550781c0 .285157.109375.527344.304687.691407.195313.167968.46875.257812.796875.257812.425782 0 .726563-.148438 1.003906-.46875v.332031h.601563v-3.363281h-.644531v1.882812c0 .316407-.082032.570313-.222656.746094-.140626.175782-.339844.273438-.585938.273438-.1875 0-.335938-.054688-.4375-.148438s-.160156-.230468-.160156-.410156v-2.34375zm4.785156.042969c.386719 0 .675781.074219.863281.210937.1875.136719.277344.328125.277344.597656v1.894532c0 .09375.03125.179687.09375.234375.0625.058593.152344.089843.257813.089843.007812 0 .027343-.003906.039062-.007812l-.011719.253906c-.117187.027344-.203125.046875-.28125.046875-.15625 0-.257812-.035156-.324219-.101562-.070312-.0625-.113281-.164063-.132812-.3125l-.019531-.132813-.097657.089844c-.355468.328125-.652343.457031-1.042968.457031-.3125 0-.558594-.089843-.726563-.238281s-.261719-.363281-.261719-.640625c0-.398437.171876-.65625.527344-.800781.097656-.042969.164063-.0625.304688-.089844.140625-.023438.347656-.050781.710937-.101562.207031-.027344.347657-.0625.445313-.128907.101562-.070312.144531-.179687.144531-.304687v-.136719c0-.175781-.082031-.320313-.222656-.410156-.140625-.09375-.332031-.136719-.570313-.136719-.246094 0-.441406.046875-.582031.15625-.125.09375-.195313.242188-.226563.417969h-.382812c.019531-.257813.066406-.414063.195312-.554688.191407-.214843.5625-.351562 1.023438-.351562m-12.054688.066406-.34765575.019531v.070313c.01562495.265625.03124995.519531.07031255.789062l.0117187.070313.0742185-.015625.257813-.054688-.007813-.0625c-.027344-.246093-.042968-.496093-.054687-.75zm7.410157.03125h.375v2.203125c0 .210938.074219.390625.207031.511719.128906.121093.316406.1875.53125.1875.285156 0 .527344-.121094.695312-.324219.164063-.207031.253907-.496094.253907-.835938v-1.742187h.363281v3.082031h-.320312v-.589844l-.125.171876c-.300782.410156-.5625.558593-1.019532.558593-.300781 0-.542968-.085937-.707031-.226562s-.253906-.335938-.253906-.585938zm-7.542969.117187c.011719.207032.027344.414063.046875.621094l-.058594.011719c-.027343-.210937-.042969-.417969-.054687-.628906zm17.421875.003907-.003906.070312c-.015625.246094-.042969.496094-.070313.75l-.007812.066407.34375.046874.011718-.066406c.042969-.253906.070313-.523437.070313-.78125v-.0625zm.128906.148437.070313.003906c-.007813.207032-.023438.417969-.058594.625l-.070312-.011718c.023437-.203125.042968-.410156.058593-.617188zm-4.597656 1.179688-.101563.050781c-.078124.039063-.140624.058594-.253906.082031-.113281.023438-.273437.050782-.546875.089844-.277343.039062-.484375.101562-.625.207031-.144531.109375-.214843.265625-.214843.449219 0 .179688.066406.332031.191406.433594.125.101562.296875.152344.503906.152344.324219 0 .59375-.105469.816406-.3125.160156-.144532.230469-.285157.230469-.46875zm-12.652344.03125-.332031.070312.015625.066406c.054687.253907.125.507813.195313.757813l.019531.066406.066406-.019531.265625-.074219-.023438-.070312c-.082031-.246094-.136718-.480469-.191406-.730469zm16.941407.125-.019532.0625c-.070312.253906-.125.503906-.207031.734375l-.023437.066406.328124.117187.023438-.066406c.085938-.253906.15625-.515625.210938-.777344l.015624-.066406zm-17.046876.039062c.046876.203125.101563.40625.164063.609375l-.0625.015625c-.058594-.203125-.109375-.40625-.160156-.613281zm12.617188.011719v.476563c0 .152343-.039062.234374-.183594.367187h-.003906c-.195312.183594-.425781.273437-.71875.273437-.183594 0-.324219-.042968-.414062-.121093-.09375-.074219-.140626-.179688-.140626-.324219 0-.152344.046876-.253906.15625-.335938.113282-.085937.296876-.144531.5625-.179687.273438-.042969.4375-.066406.558594-.09375.078125-.015625.128906-.039063.183594-.0625m4.527344.113281.058594.011719c-.046876.210937-.101563.417969-.167969.625l-.0625-.023437c.066406-.203126.117187-.40625.171875-.613282zm-16.609375 1.152344-.308594.121094.027344.066406c.097656.238281.207031.476562.320312.714844l.03125.0625.0625-.03125.246094-.113282-.035156-.066406c-.121094-.234375-.21875-.453125-.316407-.691406zm16.066406.140625-.027344.058594c-.113281.226562-.210937.460937-.335937.679687l-.03125.0625.308594.164063.03125-.066407.363281-.777343zm-16.140625.039063c.082031.195312.167969.386718.265625.574218l-.054687.023438c-.089844-.191406-.179688-.382813-.261719-.578125zm16.207031.136718.054688.019532-.273438.578124-.054687-.03125c.101562-.1875.1875-.382812.273437-.566406m-15.46875 1.03125-.28125.1875.035157.054688c.144531.226562.296874.4375.449218.648437l.046875.058594.054688-.046875.207031-.167969-.039062-.050781c-.152344-.210938-.292969-.417969-.433594-.628906zm14.691407.125-.039063.058594c-.140625.207031-.289063.410156-.441406.609375l-.042969.054687.277344.210938.042968-.054688c.152344-.199218.308594-.421874.449219-.632812l.039063-.058594zm-14.726563.066406c.113281.171876.230469.34375.355469.519532l-.046875.035156c-.125-.171875-.246094-.34375-.359375-.519531zm14.761719.125.054687.035157c-.117187.171875-.238281.34375-.363281.511719l-.054688-.042969c.125-.164063.246094-.332031.363282-.503907m-13.804688.894532-.253906.230468.042969.050782c.167969.199218.351562.382812.550781.566406l.050781.046875.046875-.050781.183594-.207032-.050781-.046874c-.175781-.164063-.355469-.359376-.523438-.539063zm12.851563.109375-.046875.054687c-.164063.175782-.359375.355469-.542969.523438l-.050781.046875.238281.257812.050781-.050781c.179688-.179688.375-.359375.558594-.542969l.050781-.050781zm-12.859375.085937c.136718.148438.285156.304688.4375.449219l-.046875.050781c-.152344-.144531-.300781-.296875-.441407-.453125zm12.863281.109375.050781.046875c-.148437.144532-.304687.292969-.453125.441406l-.046875-.050781c.152344-.140625.308594-.285156.449219-.4375zm-11.757813.726563-.210937.277344.054687.042968c.195313.15625.410157.308594.632813.449219l.058594.039063.1875-.28125-.058594-.039063c-.207031-.140625-.410156-.289063-.609375-.445313zm10.640626.097656-.054688.042969c-.207031.152343-.414062.289062-.625.429687l-.058594.039063.191406.285156.054688-.039063c.210938-.140624.433594-.28125.644531-.433593l.058594-.042969zm-10.613282.097656c.164063.128906.332032.25.503906.367188l-.035156.050781c-.175781-.113281-.34375-.234375-.511718-.363281zm10.585938.097656.039062.054688c-.171875.121094-.347656.238281-.523437.351562l-.035157-.050781c.175782-.117187.347657-.234375.519532-.355469m-9.359375.546876-.164063.304687.0625.03125c.226563.128906.460938.242187.703125.339844l.0625.027343.027344-.0625.113281-.242187-.0625-.03125c-.226562-.113281-.460937-.210937-.679687-.332031zm8.105469.058593-.0625.03125c-.234376.125-.453126.21875-.691407.316407l-.066406.027343.140625.324219.0625-.027344c.238281-.097656.480469-.210937.71875-.335937l.0625-.03125zm-8.046876.128907c.1875.101562.378907.1875.5625.277343l-.027343.054688c-.191407-.082031-.382813-.171875-.566407-.273438zm7.988282.054687.03125.058594c-.191406.097656-.382813.191406-.578125.273437l-.03125-.066406c.195312-.082031.386719-.167969.578125-.265625m-6.667969.351563-.117187.328124.070312.019532c.25.085937.503906.15625.757812.210937l.066407.015625.015625-.0625.078125-.261718-.070313-.019532c-.253906-.070312-.5-.125-.734375-.207031zm5.335937.039062-.070312.023438c-.246094.082031-.480469.136718-.730469.195312l-.070312.015625.070312.324219.066407-.007813c.269531-.042969.527343-.113281.765624-.199219l.0625-.019531zm-5.246093.132812c.199219.066407.402343.117188.609375.171876l-.019532.0625c-.207031-.046876-.414062-.105469-.613281-.171876zm5.148437.042969.019532.0625c-.199219.066407-.40625.121094-.613282.15625l-.011718-.058593c.203124-.046876.402343-.09375.605468-.160157m-3.777344.144531-.042968.347657.070312.007812c.265625.027344.515625.054688.785156.070313l.070313.003906v-.347656l-.0625-.003906c-.25-.015626-.5-.042969-.75-.070313zm2.394532.015626-.066406.007812c-.25.027344-.5.039062-.75.054688l-.070313.003906.023437.347656.070313-.003906c.25-.015625.515625-.027344.769531-.054688l.070313-.007812zm-2.273438.136718c.207032.023438.414063.042969.625.058594v.070312c-.210937-.015624-.421875-.035156-.632812-.058593zm2.152344.011719.011719.070313c-.207031.023437-.417969.035156-.625.046874l-.003907-.070312c.207032-.011719.414063-.023438.617188-.046875" fill="#000080"/></svg>