<svg height="18" viewBox="0 0 18 18" width="18" xmlns="http://www.w3.org/2000/svg"><path d="m15.882812.0976562c-1.109374 0-2.015624.9062498-2.015624 2.0195318 0 1.109374.90625 2.015624 2.015624 2.015624 1.113282 0 2.015626-.902343 2.015626-2.015624 0-1.113282-.902344-2.0195318-2.015626-2.0195318m-6.882812 2.0195318c-3.800781 0-6.882812 3.085937-6.882812 6.882812 0 3.800781 3.082031 6.886719 6.882812 6.886719s6.882812-3.085938 6.882812-6.882813c0-3.800781-3.082031-6.886718-6.882812-6.886718" fill="#000080"/><path d="m11.851562 4.132812c-1.109374 0-2.015624.902344-2.015624 2.015626 0 1.113281.902343 2.015624 2.015624 2.015624 1.113282 0 2.015626-.902343 2.015626-2.015624 0-1.113282-.902344-2.015626-2.015626-2.015626zm-7.523437 3.792969v4.515625h2.804687v-.507812h-2.230468v-4.007813zm8.097656 1.175781c-.472656 0-.863281.136719-1.078125.378907-.148437.167969-.210937.355469-.222656.675781h.519531c.042969-.398438.28125-.578125.761719-.578125.464844 0 .726562.175781.726562.484375v.136719c0 .21875-.128906.3125-.539062.359375-.730469.09375-.839844.117187-1.039062.199218-.378907.152344-.570313.445313-.570313.867188 0 .589844.410156.960938 1.0625.960938.410156 0 .738281-.144532 1.105469-.476563.035156.328125.195312.476563.53125.476563.105468 0 .1875-.011719.355468-.054688v-.390625c-.039062.007813-.074218.011719-.113281.011719-.179687 0-.28125-.09375-.28125-.253906v-1.910157c0-.574219-.421875-.886719-1.21875-.886719m-4.746093.09375v2.503907c0 .539062.402343.886719 1.035156.886719.476562 0 .78125-.167969 1.085937-.597657v.453125h.460938v-3.246094h-.511719v1.839844c0 .664063-.347656 1.097656-.886719 1.097656-.410156 0-.667969-.246093-.667969-.636718v-2.300782zm5.453124 1.640626v.582031c0 .175781-.050781.28125-.207031.421875-.210937.195312-.460937.292968-.765625.292968-.40625 0-.640625-.191406-.640625-.523437 0-.339844.230469-.511719.78125-.59375.546875-.074219.660157-.097656.832031-.179687zm0 0" fill="#fff"/><path d="m8.679688 0c-.261719.0078125-.523438.03125-.78125.0625l.023437.203125c.253906-.03125.511719-.050781.765625-.058594zm.785156.0078125-.007813.2070315c.253907.011718.507813.035156.761719.070312l.03125-.2031248c-.261719-.0351562-.523438-.0625-.785156-.0742187zm-2.339844.1835935c-.257812.054688-.511719.117188-.761719.195313l.058594.199219c.246094-.074219.492187-.140626.742187-.191407zm3.894531.03125-.042969.203125c.246094.058594.496094.125.738282.203125l.0625-.195312c-.25-.082032-.5-.152344-.757813-.210938m-5.398437.425782c-.242188.101562-.480469.210937-.714844.328124l.09375.183594c.230469-.117187.460938-.222656.699219-.320312zm6.894531.058593-.082031.191407c.234375.097656.46875.210937.695312.328124l.09375-.179687c-.230468-.125-.46875-.238281-.707031-.339844zm-8.292969.65625c-.21875.140625-.4375.289063-.644531.449219l.125.164062c.203125-.15625.414063-.300781.632813-.4375zm-1.25.949219c-.195312.175781-.382812.359375-.5625.550781l.152344.140625c.175781-.1875.359375-.367187.546875-.539062zm-1.070312 1.148438c-.160156.203124-.3125.417968-.457032.636718l.171876.113282c.140624-.214844.289062-.421876.445312-.625zm-.855469 1.3125c-.125.234374-.238281.46875-.339844.710937l.191407.082031c.097656-.238281.210937-.46875.328124-.695312zm15.976563.136718-.183594.09375c.117187.230469.222656.464844.320312.699219l.191406-.078125c-.101562-.242188-.207031-.480469-.328124-.714844zm-16.589844 1.308594c-.082032.25-.152344.503906-.210938.757812l.203125.046876c.054688-.25.125-.496094.203125-.738282zm17.179687.148438-.199219.058593c.074219.246094.140626.496094.191407.746094l.203125-.042969c-.054688-.257812-.121094-.511718-.195313-.761718zm-17.5312498 1.382812c-.0390624.257812-.0625.519531-.0742187.78125l.2031255.011719c.015624-.257813.039062-.511719.074218-.765625zm17.8554688.152344-.203125.027344c.03125.253906.050781.507812.058594.761718l.207031-.003906c-.007812-.261719-.03125-.523438-.0625-.785156m-17.730469 1.40625-.207031.007812c.0078125.261719.03125.523438.0625.785156l.203125-.027343c-.03125-.253907-.050781-.507813-.058594-.765625m17.578125.152344c-.011718.253906-.035156.511718-.070312.765624l.203125.027344c.035156-.261718.0625-.519531.074219-.78125zm-17.394531 1.371093-.199219.042969c.054688.257812.117188.511719.195313.761719l.199219-.0625c-.078126-.242188-.140626-.492188-.195313-.742188zm17.183594.148438c-.054688.25-.125.496093-.203125.738281l.195312.0625c.082032-.246094.152344-.5.210938-.753906zm-16.734375 1.320312-.191406.074219c.097656.246094.207031.484375.328124.714844l.183594-.09375c-.117187-.226563-.222656-.460938-.320312-.695313m16.261718.136719c-.101562.234375-.210937.46875-.332031.691406l.183594.097656c.121094-.230468.234375-.464843.339844-.707031zm-15.5625 1.226562-.175781.109376c.140625.222656.289063.4375.445313.648437l.164062-.125c-.152344-.203125-.296875-.414063-.433594-.632813m14.839844.128907c-.140625.214843-.289062.421875-.445312.625l.164062.125c.160156-.207031.3125-.417969.457032-.636719zm-13.914062 1.09375-.15625.140625c.175781.195312.359375.382812.550781.558594l.140625-.148438c-.1875-.175781-.363281-.359375-.535156-.550781m12.96875.113281c-.171875.1875-.355469.367188-.546875.539062l.140625.152344c.191406-.175781.378906-.359375.558594-.550781zm-11.847656.933594-.128907.164062c.207031.160156.421875.3125.640625.457032l.113282-.175782c-.214844-.136718-.425782-.285156-.625-.445312m10.710937.09375c-.207031.152344-.417969.296875-.632813.433594l.109376.175781c.222656-.140625.4375-.289063.644531-.445313zm-9.425781.742187-.097656.183594c.230468.125.46875.234375.707031.339844l.082031-.191407c-.234375-.101562-.464844-.210937-.691406-.332031m8.125.070313c-.230469.117187-.460938.222656-.699219.320312l.078125.191406c.242188-.097656.480469-.207031.714844-.328124zm-6.714844.53125-.0625.195312c.25.082032.5.152344.757812.210938l.046876-.203125c-.25-.054688-.496094-.125-.742188-.203125zm5.292969.046875c-.246094.074219-.492188.136719-.742188.191406l.042969.199219c.253906-.050782.507812-.117188.757812-.195313zm-3.796875.296875-.027344.203125c.257812.039062.519531.0625.78125.074219l.007812-.203126c-.253906-.015624-.507812-.039062-.761718-.074218m2.296875.019531c-.253907.03125-.511719.050781-.765625.058594l.007812.207031c.261719-.007812.523438-.027344.78125-.0625zm0 0" fill="#808080"/></svg>