<svg height="18" viewBox="0 0 18 18" width="18" xmlns="http://www.w3.org/2000/svg"><g fill="none" stroke="#fff" stroke-linecap="round" stroke-linejoin="round" stroke-width="2" transform="scale(.75)"><path d="m6 20c-1.104167 0-2-.895833-2-2v-10c0-1.104167.895833-2 2-2h12c1.104167 0 2 .895833 2 2v10c0 1.104167-.895833 2-2 2"/><path d="m8 18v-14c0-1.104167.895833-2 2-2h4c1.104167 0 2 .895833 2 2v14m-6 2h4"/><path d="m18 20c0 1.104167-.895833 2-2 2s-2-.895833-2-2 .895833-2 2-2 2 .895833 2 2zm0 0"/><path d="m10 20c0 1.104167-.895833 2-2 2s-2-.895833-2-2 .895833-2 2-2 2 .895833 2 2zm0 0"/></g></svg>