<svg height="18" viewBox="0 0 18 18" width="18" xmlns="http://www.w3.org/2000/svg"><g fill="none" stroke="#fff" stroke-linecap="round" stroke-linejoin="round" stroke-width="2" transform="scale(.75)"><path d="m19.911458 11.104167c.0625-.364584.088542-.734375.088542-1.104167 0-4.416667-3.583333-8-8-8s-8 3.583333-8 8c0 4.994792 5.536458 10.192708 7.401042 11.796875.354166.270833.84375.270833 1.197916 0 .28125-.239583.557292-.484375.828125-.734375"/><path d="m15 10c0 1.65625-1.34375 3-3 3s-3-1.34375-3-3 1.34375-3 3-3 3 1.34375 3 3zm0 0"/><path d="m16 18h6m-3-3v6"/></g></svg>