<svg height="18" viewBox="0 0 18 18" width="18" xmlns="http://www.w3.org/2000/svg"><g fill="none" stroke="#fff" stroke-linecap="round" stroke-linejoin="round" stroke-width="2" transform="scale(.75)"><path d="m12.75 7.088542c1.0625.276041 1.885417 1.098958 2.161458 2.161458m2.161459 7.822917c-1.635417 2.166666-3.526042 3.911458-4.473959 4.723958-.354166.270833-.84375.270833-1.197916 0-1.864584-1.604167-7.401042-6.802083-7.401042-11.796875 0-1.635417.5-3.229167 1.432292-4.567708m-3.432292-3.432292 20 20"/><path d="m8.473958 2.817708c2.479167-1.21875 5.411459-1.067708 7.755209.390625 2.34375 1.463542 3.770833 4.03125 3.770833 6.791667 0 1.182292-.3125 2.375-.8125 3.53125m-10.057292-4.401042c-.322916 1.057292-.03125 2.208334.75 2.989584s1.932292 1.072916 2.989584.75"/></g></svg>