<svg height="18" viewBox="0 0 18 18" width="18" xmlns="http://www.w3.org/2000/svg"><g fill="none" stroke="#fff" stroke-linecap="round" stroke-linejoin="round" stroke-width="2" transform="scale(.75)"><path d="m15 22c-.552083 0-1-.447917-1-1v-4c0-.333333.166667-.645833.442708-.833333l3-2c.338542-.223959.776042-.223959 1.114584 0l3 2c.276041.1875.442708.5.442708.833333v4c0 .552083-.447917 1-1 1zm3-12c0-4.416667-3.583333-8-8-8s-8 3.583333-8 8c0 4.994792 5.536458 10.192708 7.401042 11.796875.171875.130208.380208.203125.598958.203125m8 0v-3"/><path d="m13 10c0 1.65625-1.34375 3-3 3s-3-1.34375-3-3 1.34375-3 3-3 3 1.34375 3 3zm0 0"/></g></svg>