<svg height="18" viewBox="0 0 18 18" width="18" xmlns="http://www.w3.org/2000/svg"><path d="m4.792969 4.398438c-.027344 0-.050781.003906-.074219.007812-.125.054688-.207031.164062-.273438.269531-.113281.199219-.191406.417969-.261718.628907-.144532.441406-.25.902343-.359375 1.355468-.132813.582032-.253907 1.175782-.363281 1.761719-.070313.398437-.160157.800781-.21875 1.199219-.003907.023437-.007813.046875-.011719.074218l-.003907-.007812-.03125-.03125c-.089843-.121094-.214843-.21875-.351562-.273438-.101562-.042968-.203125-.035156-.300781-.046874h-2.371094c-.058594 0-.1171875.007812-.171875.011718.152344.035156.296875.121094.421875.214844.167969.148438.296875.335938.402344.53125.171875.328125.285156.675781.378906 1.03125.183594.710938.21875 1.460938.511719 2.136719.0625.105469.121094.21875.222656.28125.03125.019531.058594.046875.09375.039062h.007812c.144532.015625.289063 0 .4375.007813h2.171876c.054687.003906.09375-.035156.128906-.070313.15625-.144531.234375-.351562.320312-.542969.175782-.46875.296875-.953124.410156-1.4375.242188-1.050781.433594-2.105468.621094-3.167968.003906-.019532.007813-.046875.011719-.066406h.003906l.011719.097656c.035156.277344.101562.546875.148438.824218.109374.542969.214843 1.085938.328124 1.628907.152344.695312.300782 1.390625.546876 2.0625.070312.1875.148437.375.269531.53125.070312.078125.15625.167969.273437.144531.039063-.03125.070313-.058594.109375-.089844-.027343.03125-.058593.0625-.089843.089844.042968.003906.09375.003906.136718.003906.824219 0 1.648438.003906 2.472656 0 .125-.058594.203126-.1875.273438-.304687.136719-.261719.226562-.542969.308594-.820313.132812-.449218.238281-.90625.335937-1.359375.191407-.90625.367188-1.816406.523438-2.730469 0-.007812.003906-.019531.003906-.027343l.011719.054687c.003906.007813.003906.011719.003906.015625l.019531.101563c.234375 1.265625.453125 2.527344.789063 3.769531.109375.34375.203125.695313.386718 1.011719.085938.128906.191407.300781.375.28125.011719 0 .023438-.003906.035157-.003906.039062.003906.082031.007812.121093.007812.816407-.003906 1.628907.003906 2.449219-.003906.261719-.207032.414063-.519532.511719-.832032.148438-.441406.148438-.917968.21875-1.371093.066406-.460938.152344-.9375.386719-1.351563.152343-.257812.378906-.464844.652343-.585937.078126-.039063.167969-.058594.242188-.109375-.125-.007813-.246094-.007813-.371094-.003906-.125 0-.25 0-.375 0h-1.78125c-.207031-.011719-.40625.089843-.546875.242187-.082031.078125-.128906.191406-.191406.28125-.011719.011719-.015625.027344-.027344.042969l-.046875-.363282c-.015625-.089843-.03125-.179687-.050781-.269531-.136719-.769531-.285156-1.542969-.449219-2.308593-.121094-.566407-.253906-1.140626-.4375-1.691407-.074218-.203125-.148437-.414062-.265625-.601562-.074219-.105469-.15625-.203125-.269531-.261719h-.210938c-.429687 0-.859374 0-1.289062-.003906-.433594 0-.863281 0-1.296875.003906-.171875.058594-.265625.226562-.34375.375-.203125.417969-.316406.878906-.417969 1.332031-.253906 1.039063-.453125 2.089844-.640625 3.148438l-.015625.09375-.0625-.292969c-.105468-.582031-.21875-1.167969-.339844-1.75-.148437-.691406-.296874-1.382812-.511718-2.054688-.066406-.175781-.132813-.351562-.222656-.515624-.0625-.144532-.183594-.261719-.320313-.335938h-.1875l-.007813.003906c0-.003906.003907-.007812.007813-.007812h-2.460937c-.027344 0-.050782-.003906-.074219-.003906"/></svg>