<svg height="18" viewBox="0 0 18 18" width="18" xmlns="http://www.w3.org/2000/svg" xmlns:xlink="http://www.w3.org/1999/xlink"><linearGradient id="a" gradientTransform="matrix(.5625 0 0 -.5625 0 18)" gradientUnits="userSpaceOnUse" x1="16.802999" x2="15.013" y1="16.631001" y2="22.410999"><stop offset="0" stop-color="#512"/><stop offset=".23" stop-color="#523"/><stop offset=".36" stop-color="#534"/><stop offset=".51" stop-color="#645"/><stop offset=".66" stop-color="#568"/><stop offset=".84" stop-color="#29d"/></linearGradient><linearGradient id="b" gradientUnits="userSpaceOnUse" x1="16.711874" x2="6.586875" y1="10.677938" y2="8.191688"><stop offset=".081" stop-color="#c33"/><stop offset=".189" stop-color="#de5239"/><stop offset=".313" stop-color="#f06e3e"/><stop offset=".421" stop-color="#fa8042"/><stop offset=".5" stop-color="#fe8643"/><stop offset=".58" stop-color="#fa7f42"/><stop offset=".696" stop-color="#ef6c3e"/><stop offset=".833" stop-color="#dc4c37"/><stop offset=".916" stop-color="#cf3633"/></linearGradient><path d="m1.125 9.871094 4.484375-1.808594c.453125-.601562.964844-1.160156 1.527344-1.660156.371093-.199219 1.070312-.089844 2.347656-1.675782 1.238281-1.546874 1.628906-2.871093 2.210937-2.871093.914063 0 1.589844 1.980469 2.613282 4.980469.730468 2.289062 1.585937 4.535156 2.566406 6.730468-1.070312-.996094-1.980469-2.070312-3.019531-2.039062-.96875.019531-2.042969 1.167968-3.21875 2.640625-.933594 1.183593-2.171875 1.992187-2.65625 1.976562 0 0-1.246094-3.535156-2.292969-4.105469-.441406-.183593-.941406-.140624-1.34375.109376l-3.21875-2.28125zm0 0" fill="#49d"/><path d="m11.136719 2.261719c-.375.503906-.832031 1.433593-1.652344 2.464843-1.277344 1.585938-1.96875 1.476563-2.347656 1.675782-.5625.5-1.078125 1.054687-1.527344 1.660156l1.855469 1.355469c1.574218-2.152344 2.417968-4.480469 3.078125-5.988281.164062-.40625.363281-.796876.59375-1.167969zm0 0" fill="url(#a)"/><path d="m11.699219 1.855469c-1.226563 0-2.0625 6.457031-6.589844 10.0625 1.269531-.207031 2.371094 2.949219 2.878906 4.226562 2.25-.382812 4.050781-4.6875 5.867188-4.617187 1.039062.039062 1.949219 1.042968 3.019531 2.039062-2.441406-5.128906-3.582031-11.710937-5.175781-11.710937zm0 0" fill="url(#b)"/></svg>