<svg height="18" viewBox="0 0 18 18" width="18" xmlns="http://www.w3.org/2000/svg"><g fill="#6dd0c7"><path d="m12.050781 1.421875c.042969.011719.308594.097656.84375 1.011719.367188.617187.789063 1.53125 1.265625 2.683594.886719 2.140624 1.800782 4.769531 2.460938 6.679687.210937.621094.394531 1.140625.535156 1.546875-.183594-.152344-.378906-.308594-.578125-.460938-1.011719-.789062-1.769531-1.167968-2.289063-1.167968h-.03125c-.996093.027344-1.757812.898437-2.824218 2.09375-.339844.378906-.71875.816406-1.152344 1.28125-1.125 1.179687-1.859375 1.503906-2.195312 1.601562-.507813-1.628906-1.070313-2.839844-1.703126-3.585937-.363281-.433594-.730468-.730469-1.125-.871094l.832032-.578125.027344-.027344c1.039062-.84375 2.152343-2.472656 3.289062-4.824218.84375-1.742188 1.394531-3.246094 1.394531-3.261719l.011719-.027344v-.027344c.4375-2.027343 1.210938-2.066406 1.238281-2.066406m0-.3125c-.183593 0-1.082031.113281-1.558593 2.335937 0 0-2.167969 5.976563-4.585938 7.945313l-1.757812 1.222656c.113281-.070312.324218-.152343.589843-.152343.746094 0 1.96875.714843 3.121094 4.582031h.03125c.152344 0 1.066406-.082031 2.628906-1.730469 1.730469-1.828125 2.613281-3.246094 3.753907-3.273438h.015624c1.054688 0 3.316407 2.121094 3.667969 2.460938-.519531-.859375-4.175781-13.191406-5.863281-13.390625zm-7.886719 11.503906c-.070312.042969-.113281.085938-.113281.085938zm13.792969 1.871094c.015625.027344.027344.042969.042969.042969zm0 0"/><path d="m5.445312 7.417969-5.296874 2.378906 3.863281 2.984375h.046875c.101562.003906.179687-.027344.292968-.078125.117188-.050781.257813-.121094.417969-.210937.320313-.179688.71875-.4375 1.125-.75.8125-.625 1.671875-1.457032 2.011719-2.339844l.039062-.097656-.085937-.066407zm-.035156.324219 2.1875 1.648437c-.332031.761719-1.113281 1.542969-1.875 2.128906-.394531.300781-.78125.554688-1.089844.726563-.152343.085937-.289062.15625-.390624.199218-.082032.035157-.128907.042969-.144532.046876l-3.40625-2.628907zm0 0"/><path d="m11.109375 1.96875c-.050781 0-.097656.027344-.121094.070312-.929687 1.652344-1.636719 2.476563-2.1875 2.90625-.554687.425782-.945312.46875-1.335937.554688h.003906c-.234375.050781-.46875.203125-.703125.398438-.234375.199218-.46875.4375-.679687.675781-.261719.296875-.511719.605469-.742188.921875-.046875.066406-.03125.152344.03125.199218.0625.042969.148438.03125.195312-.035156 0 0 .316407-.441406.726563-.898437.203125-.230469.429687-.464844.648437-.644531.21875-.183594.433594-.3125.578126-.339844h.003906c.367187-.082032.847656-.144532 1.445312-.609375.597656-.464844 1.320313-1.320313 2.257813-2.988281.039062-.070313.015625-.15625-.050781-.191407-.023438-.011719-.046876-.019531-.070313-.019531"/></g></svg>