<svg height="18" viewBox="0 0 18 18" width="18" xmlns="http://www.w3.org/2000/svg"><g fill="#11557c"><path d="m9 17.71875c-2.328125 0-4.519531-.90625-6.164062-2.554688-1.648438-1.644531-2.554688-3.835937-2.554688-6.164062s.90625-4.519531 2.554688-6.164062c1.644531-1.648438 3.835937-2.554688 6.164062-2.554688s4.519531.90625 6.164062 2.554688c1.648438 1.644531 2.554688 3.835937 2.554688 6.164062s-.90625 4.519531-2.554688 6.164062c-1.644531 1.648438-3.835937 2.554688-6.164062 2.554688m0-17.179688c-2.261719 0-4.386719.878907-5.984375 2.476563s-2.476563 3.722656-2.476563 5.984375.878907 4.386719 2.476563 5.984375 3.722656 2.476563 5.984375 2.476563 4.386719-.878907 5.984375-2.476563 2.476563-3.722656 2.476563-5.984375-.878907-4.386719-2.476563-5.984375-3.722656-2.476563-5.984375-2.476563"/><path d="m9 15.800781c-3.75 0-6.800781-3.050781-6.800781-6.800781s3.050781-6.800781 6.800781-6.800781 6.800781 3.050781 6.800781 6.800781-3.050781 6.800781-6.800781 6.800781m0-13.5c-3.695312 0-6.699219 3.003907-6.699219 6.699219s3.003907 6.699219 6.699219 6.699219 6.699219-3.003907 6.699219-6.699219-3.003907-6.699219-6.699219-6.699219"/><path d="m9 13.832031c-2.664062 0-4.832031-2.167969-4.832031-4.832031s2.167969-4.832031 4.832031-4.832031 4.832031 2.167969 4.832031 4.832031-2.167969 4.832031-4.832031 4.832031m0-9.5625c-2.609375 0-4.730469 2.121094-4.730469 4.730469s2.121094 4.730469 4.730469 4.730469 4.730469-2.121094 4.730469-4.730469-2.121094-4.730469-4.730469-4.730469"/><path d="m9 11.863281c-1.578125 0-2.863281-1.285156-2.863281-2.863281s1.285156-2.863281 2.863281-2.863281 2.863281 1.285156 2.863281 2.863281-1.285156 2.863281-2.863281 2.863281m0-5.625c-1.523438 0-2.761719 1.238281-2.761719 2.761719s1.238281 2.761719 2.761719 2.761719 2.761719-1.238281 2.761719-2.761719-1.238281-2.761719-2.761719-2.761719"/><path d="m9 10.035156c-.570312 0-1.035156-.464844-1.035156-1.035156s.464844-1.035156 1.035156-1.035156 1.035156.464844 1.035156 1.035156-.464844 1.035156-1.035156 1.035156m0-1.96875c-.515625 0-.933594.417969-.933594.933594s.417969.933594.933594.933594.933594-.417969.933594-.933594-.417969-.933594-.933594-.933594"/><path d="m15.054688 13.617188-5.890626-4.589844h1.742188c.03125 0 .058594-.027344.058594-.058594 0-.207031-.035156-.410156-.097656-.605469-.007813-.03125-.042969-.046875-.074219-.039062l-1.628907.53125 3.449219-4.328125c.019531-.023438.015625-.0625-.007812-.082032-.476563-.378906-1.007813-.679687-1.574219-.890624h-.003906c-.011719-.007813-.027344-.007813-.042969 0-.011719.007812-.023437.019531-.03125.03125l-1.941406 5.183593-1.65625-7.257812c-.007813-.03125-.039063-.050781-.070313-.042969-1.183594.269531-2.289062.816406-3.21875 1.59375-.011718.011719-.019531.023438-.023437.039062 0 .015626.003906.03125.015625.042969l4.71875 5.65625-5.777344-2.78125c-.027344-.015625-.0625-.003906-.074219.027344-.617187 1.269531-.816406 2.734375-.5625 4.125.007813.03125.039063.054687.070313.046875l6.152344-1.117188-3.054688 1.472657c-.027344.011719-.042969.046875-.027344.078125.089844.183594.191406.359375.304688.523437.019531.027344.054687.035157.082031.015625l3.015625-2.089844-1.027344 4.507813c-.007812.03125.011719.0625.042969.070313.351563.078124.714844.121093 1.078125.121093.269531 0 .539062-.023437.804688-.070312.03125-.003907.054687-.035157.046874-.066407l-.761718-4.480468 4.621094 5.792968c.019531.023438.058593.027344.082031.007813.472656-.375.902343-.808594 1.273437-1.285156.007813-.011719.011719-.027344.011719-.042969-.003906-.015625-.011719-.027344-.023437-.039062"/><path d="m9.050781 17.628906h-.101562v-8.511718l-6.015625 6.019531-.070313-.070313.035157-.035156 5.984374-5.980469h-8.511718v-.101562h8.511718l-6.019531-6.015625.070313-.070313 6.015625 6.019531v-8.511718h.101562v8.511718l6.015625-6.019531.070313.070313-.035157.035156-5.984374 5.980469h8.511718v.101562h-8.511718l6.019531 6.015625-.070313.070313-.035156-.035157-5.980469-5.984374zm0 0"/></g></svg>