<svg height="18" viewBox="0 0 18 18" width="18" xmlns="http://www.w3.org/2000/svg"><g fill="#149b9a"><path d="m13.78125 17.015625h3.9375v-16.03125l-5.203125-.003906-3.425781 8.210937s.320312.8125.59375 1.648438c.414062 1.273437.863281 2.800781.863281 2.800781l-.28125.28125h.28125c.054687 0 .136719-.035156.28125-.28125.574219-1.0625 6.1875-11.53125 6.1875-11.53125s-.714844 1.746094-1.851563 3.921875c-.917968 1.757812-1.804687 3.390625-1.804687 3.390625v6.609375zm0 0s.03125-.09375.140625-.421875c.761719-1.882812 1.417969-3.800781 1.96875-5.753906 1-3.605469 1.546875-6.761719 1.546875-6.761719-.253906 2.328125-.6875 4.632813-1.304688 6.890625-.550781 1.945312-1.292968 3.828125-2.210937 5.625zm0 0"/><path d="m10.546875 13.921875h-2.953125c-.054688 0-.132812-.03125-.28125-.28125-.605469-1.09375-6.609375-11.953125-6.609375-11.953125s.980469 2.308594 1.914063 3.96875c.53125.949219 1.058593 1.902344 1.582031 2.855469-.464844 1.46875-1.023438 2.90625-1.671875 4.300781-.71875 1.523438-1.964844 3.78125-1.964844 3.78125.734375-1.113281 1.414062-2.265625 2.03125-3.449219 1.015625-1.949219 1.765625-4.425781 1.765625-4.425781l.140625.28125v7.3125c-.886719 1.09375-4.21875.804688-4.21875.804688v-16.070313l5.0625-.484375 5.203125 13.078125zm0 0"/></g></svg>