<svg height="18" viewBox="0 0 18 18" width="18" xmlns="http://www.w3.org/2000/svg"><g fill="none" stroke="#fff" stroke-linecap="round" stroke-linejoin="round" stroke-width="2" transform="scale(.75)"><path d="m7.901042 20c3.942708 2.020833 8.770833.875 11.380208-2.708333 2.609375-3.583334 2.223958-8.53125-.911458-11.661459-3.130209-3.135416-8.078125-3.520833-11.661459-.911458-3.583333 2.609375-4.729166 7.4375-2.708333 11.380208l-2 5.901042zm0 0"/><path d="m15.802083 9.197917c-.973958-.953125-2.53125-.953125-3.5 0l-.302083.401041-.348958-.296875c-.625-.677083-1.583334-.942708-2.463542-.682291-.885417.265625-1.541667 1.005208-1.697917 1.911458-.15625.911458.213542 1.828125.958334 2.369792l3.604166 3.5 3.598959-3.5c1.197916-1.203125 1.098958-2.703125.197916-3.703125"/></g></svg>