<svg height="18" viewBox="0 0 18 18" width="18" xmlns="http://www.w3.org/2000/svg"><path d="m16.917969 9.195312c.167969 0 .292969-.125.292969-.292968 0-.070313-.027344-.140625-.070313-.183594-.011719-.027344-3.9375-3.628906-3.9375-3.628906l3.460937 3.953125c.042969.097656.140626.152343.253907.152343m.800781 2.011719-.027344-.027343-8.550781-7.804688 7.832031 8.523438.027344.027343c.085938.082031.210938.140625.351562.140625.28125 0 .507813-.226562.507813-.507812 0-.125-.054687-.253906-.140625-.351563m-3.78125 5.289063-12.375-11.460938 11.402344 12.445313c.128906.140625.308594.238281.519531.238281.382813 0 .691406-.308594.691406-.6875 0-.210938-.085937-.410156-.238281-.535156m-13.796875-16.214844 15.132813 16.117188.011718.011718c.128906.128906.296875.199219.480469.199219.378906 0 .6875-.3125.6875-.691406 0-.140625-.042969-.28125-.125-.394531-.042969-.070313-16.1875-15.242188-16.1875-15.242188m17.210937 13.050781-12.375-11.460937 11.40625 12.445312c.125.140625.308594.238282.519532.238282.378906 0 .691406-.308594.691406-.6875 0-.226563-.101562-.410157-.242188-.535157m-5.976562 3.488281-.027344-.03125-8.550781-7.804687 7.835937 8.523437.027344.027344c.082032.085938.210938.140625.351563.140625.28125 0 .503906-.222656.503906-.503906 0-.140625-.054687-.253906-.140625-.351563m-6.578125-3.925781 3.457031 3.953125c.058594.082032.140625.152344.253906.152344.167969 0 .296876-.125.296876-.292969 0-.070312-.03125-.140625-.070313-.183593-.03125-.015626-3.9375-3.628907-3.9375-3.628907" fill="#df5052"/></svg>