<svg height="18" viewBox="0 0 18 18" width="18" xmlns="http://www.w3.org/2000/svg"><g fill="none" stroke="#fff" stroke-linecap="round" stroke-linejoin="round" stroke-width="2" transform="scale(.75)"><path d="m2 2 20 20m-3.109375-8.770833c.072917-.40625.109375-.817709.109375-1.229167v-2m-14 0v2c-.041667 2.864583 1.666667 5.463542 4.307292 6.5625 2.640625 1.104167 5.6875.484375 7.692708-1.5625m-2-7.661458v-4.338542c-.010417-1.385417-.963542-2.588542-2.317708-2.901042-1.348959-.317708-2.739584.333334-3.364584 1.572917"/><path d="m9 9v3c0 1.213542.734375 2.307292 1.854167 2.770833 1.119791.463542 2.40625.208334 3.265625-.651041m-2.119792 4.880208v3"/></g></svg>