<svg height="18" viewBox="0 0 18 18" width="18" xmlns="http://www.w3.org/2000/svg"><path d="m18 12h2m-2 4h2m-2 4h2m-2-16h2m-2 4h2m-16 4h2m-2 4h2m-2 4h2m-2-16h2m-2 4h2m2-6c-1.104167 0-2 .895833-2 2v16c0 1.104167.895833 2 2 2h8c1.104167 0 2-.895833 2-2v-16c0-1.104167-.895833-2-2-2h-1.5c-.276042 0-.494792.229167-.5625.494792-.223958.885416-1.020833 1.505208-1.9375 1.505208s-1.713542-.619792-1.9375-1.505208c-.067708-.265625-.286458-.494792-.5625-.494792zm0 0" fill="none" stroke="#fff" stroke-linecap="round" stroke-linejoin="round" stroke-width="2" transform="scale(.75)"/></svg>