<svg height="18" viewBox="0 0 18 18" width="18" xmlns="http://www.w3.org/2000/svg"><path d="m6.066406.355469c-3.34375 0-6.066406 2.722656-6.066406 6.066406 0 2.183594 1.160156 4.089844 2.894531 5.160156.003907 3.34375 2.722657 6.0625 6.066407 6.0625 3.328124 0 6.035156-2.691406 6.066406-6.011719 1.773437-1.058593 2.972656-2.996093 2.972656-5.210937 0-3.34375-2.722656-6.066406-6.066406-6.066406-1.066406 0-2.0625.28125-2.933594.761719-.871094-.480469-1.867188-.761719-2.933594-.761719zm0 .140625c1.054688 0 2.042969.277344 2.898438.761718l.035156.019532.035156-.019532c.855469-.484374 1.84375-.761718 2.898438-.761718 3.269531 0 5.925781 2.65625 5.925781 5.925781 0 2.160156-1.164063 4.042969-2.890625 5.082031l-.078125-.078125v.167969c-.007813 3.261719-2.664063 5.914062-5.929687 5.914062-3.269532 0-5.925782-2.660156-5.925782-5.929687 0-.003906 0-.011719 0-.03125v-.039063l-.035156-.019531c-1.710938-1.042969-2.859375-2.917969-2.859375-5.066406 0-3.269531 2.65625-5.929687 5.925781-5.929687zm0 .917968c-2.761718 0-5.007812 2.246094-5.007812 5.007813 0 1.628906.78125 3.074219 1.988281 3.988281l.085937.066406.023438-.109374c.347656-1.660157 1.394531-3.0625 2.8125-3.898438l.035156-.019531v-.042969c.003906-1.785156.804688-3.382812 2.058594-4.46875l.085938-.070312-.101563-.046876c-.625-.269531-1.296875-.40625-1.980469-.40625m5.867188 0c-.683594 0-1.355469.136719-1.980469.40625l-.101563.046876.085938.070312c1.257812 1.089844 2.0625 2.691406 2.0625 4.484375 0 0-.003906.011719-.003906.03125v.039063l.035156.019531c1.394531.851562 2.414062 2.253906 2.746094 3.90625l.019531.105469.089844-.0625c1.242187-.914063 2.054687-2.382813 2.054687-4.039063 0-2.761719-2.246094-5.007813-5.007812-5.007813zm-5.867188.136719c.628906 0 1.246094.132813 1.824219.367188-1.222656 1.101562-2.007813 2.683593-2.023437 4.453125-1.402344.835937-2.441407 2.214844-2.816407 3.851562-1.121093-.890625-1.851562-2.257812-1.851562-3.800781 0-2.6875 2.183593-4.871094 4.867187-4.871094zm5.867188 0c2.683594 0 4.867187 2.1875 4.867187 4.871094 0 1.574219-.757812 2.964844-1.921875 3.855469-.359375-1.625-1.367187-3.007813-2.742187-3.855469 0-1.792969-.792969-3.394531-2.027344-4.503906.578125-.234375 1.195313-.367188 1.824219-.367188m-2.933594.820313-.042969.027344c-1.101562.816406-1.859375 2.066406-2.007812 3.5l-.011719.109374.105469-.035156c.601562-.207031 1.246093-.324218 1.917969-.324218.703124 0 1.375.128906 2 .355468l.101562.035156-.007812-.109374c-.144532-1.445313-.90625-2.707032-2.011719-3.53125zm0 .179687c1.027344.777344 1.730469 1.949219 1.894531 3.289063-.609375-.207032-1.253906-.332032-1.933593-.332032-.648438 0-1.265626.113282-1.851563.304688.167969-1.332031.871094-2.488281 1.890625-3.261719m-.039062 4.015625c-.671876 0-1.335938.136719-1.957032.398438l-.046875.019531.007813.054687c.171875 1.394532.917968 2.609376 1.992187 3.40625l.042969.03125.042969-.03125c1.066406-.789062 1.808593-1.992187 1.988281-3.371093l.007812-.054688-.046874-.019531c-.640626-.285156-1.332032-.433594-2.03125-.433594zm0 .140625c.660156 0 1.3125.140625 1.917968.402344-.183594 1.300781-.878906 2.429687-1.878906 3.1875-1.007812-.765625-1.707031-1.90625-1.886719-3.21875.585938-.242187 1.214844-.371094 1.847657-.371094zm-2.863282.765625-.089844.066406c-1.078124.792969-1.828124 2-2.007812 3.386719l-.007812.054688.046874.019531c.640626.285156 1.332032.433594 2.027344.433594.683594 0 1.355469-.140625 1.980469-.410156l.101563-.042969-.085938-.074219c-.980469-.847656-1.683594-2.007812-1.945312-3.324219zm5.796875.050782-.019531.109374c-.273438 1.296876-.96875 2.4375-1.9375 3.273438l-.085938.074219.101563.042969c.625.269531 1.296875.410156 1.976563.410156.675781 0 1.339843-.136719 1.957031-.398438l.050781-.019531-.007812-.054687c-.167969-1.371094-.894532-2.570313-1.945313-3.371094zm-5.878906.199218c.273437 1.261719.945313 2.371094 1.875 3.207032-.566406.226562-1.175781.363281-1.820313.363281-.664062 0-1.3125-.140625-1.917968-.402344.183594-1.289063.871094-2.410156 1.859375-3.167969zm5.960937.050782c.960938.765624 1.628907 1.875 1.800782 3.148437-.570313.238281-1.191406.371094-1.847656.371094-.625 0-1.238282-.128907-1.820313-.363281.917969-.824219 1.582031-1.914063 1.867187-3.15625zm-2.976562 3.796874-.035156.019532c-.882813.5-1.882813.761718-2.898438.761718-.699218 0-1.371094-.128906-1.996094-.355468l-.105468-.035156.011718.109374c.25 2.53125 2.390626 4.515626 4.984376 4.515626 2.585937 0 4.722656-1.96875 4.984374-4.488282l.011719-.105468-.105469.035156c-.601562.207031-1.246093.324218-1.917968.324218-1.015625 0-2.015625-.261718-2.898438-.761718zm0 .15625c.894531.503907 1.90625.765626 2.933594.765626.648437 0 1.265625-.113282 1.851562-.304688-.300781 2.398438-2.34375 4.261719-4.824218 4.261719-2.488282 0-4.535157-1.878907-4.824219-4.289063.609375.207032 1.253906.332032 1.933593.332032 1.023438 0 2.035157-.261719 2.929688-.765626zm0 0"/></svg>