<svg height="18" viewBox="0 0 18 18" width="18" xmlns="http://www.w3.org/2000/svg"><path d="m18 16.621094v-15.242188c0-.625-.417969-1.152344-.988281-1.3242185l-.644531.3906245-7.191407 7.664063-.226562.707031-.132813.675782 2.242188 8.378906.347656.128906h5.214844c.761718 0 1.378906-.617188 1.378906-1.378906" fill="#ea6618"/><path d="m0 1.378906v15.242188c0 .453125.222656.878906.597656 1.136718l.441406-.210937 7.613282-8.148437.296875-.582032.011719-.5625-2.070313-7.882812-.316406-.371094h-5.195313c-.761718 0-1.378906.617188-1.378906 1.378906" fill="#d65813"/><path d="m8.949219 8.816406 8.0625-8.7617185c-.125-.0351563-.257813-.0546875-.390625-.0546875h-10.046875zm0 0" fill="#e05e11"/><path d="m1.378906 18h10.027344l-2.457031-9.183594-8.351563 8.941406c.230469.15625.503906.242188.78125.242188" fill="#de5c16"/><path d="m6.675781 6.824219h1c.398438 1.5.851563 2.820312 1.355469 4.011719.574219-1.339844.996094-2.660157 1.351562-4.011719h.945313c-.425781 1.679687-1.117187 3.375-1.910156 5.125h-.835938c-.761719-1.65625-1.40625-3.363281-1.90625-5.125m-3.300781-2.605469h2.222656v9.535156h-2.234375v-.734375h1.371094v-8.085937h-1.359375zm11.261719.714844h-1.359375v8.085937h1.367187v.734375h-2.230469v-9.535156h2.222657zm0 0" fill="#fff"/></svg>