<svg height="18" viewBox="0 0 18 18" width="18" xmlns="http://www.w3.org/2000/svg"><path d="m9 0c-.167969 0-.332031.0429688-.484375.128906l-6.957031 4.019532c-.296875.175781-.480469.484374-.480469.832031v8.039062c0 .339844.183594.65625.480469.832031l6.957031 4.019532c.300781.171875.667969.171875.96875 0l6.957031-4.019532c.289063-.175781.472656-.492187.480469-.832031v-8.039062c0-.339844-.183594-.65625-.480469-.832031l-6.957031-4.019532c-.148437-.082031-.316406-.128906-.484375-.128906m-.007812 1.222656c.144531 0 .289062.039063.414062.117188l6.007812 3.46875c.261719.144531.417969.414062.417969.714844v6.933593c0 .292969-.15625.570313-.417969.71875l-6.007812 3.46875c-.125.074219-.269531.113281-.414062.113281-.148438 0-.292969-.039062-.417969-.113281l-6.007813-3.46875c-.261718-.148437-.417968-.417969-.417968-.71875v-6.933593c0-.292969.15625-.570313.417968-.714844l6.007813-3.46875c.125-.078125.269531-.117188.417969-.117188m0 .289063c-.089844 0-.183594.03125-.273438.078125l-6.007812 3.46875c-.167969.097656-.269532.277344-.273438.472656v6.9375c0 .191406.109375.375.273438.472656l6.007812 3.46875c.078125.050782.175781.078125.273438.078125.09375 0 .179687-.027343.269531-.078125l6.007812-3.46875c.167969-.097656.269531-.277344.269531-.472656v-6.9375c0-.195312-.101562-.375-.269531-.472656l-6.007812-3.46875c-.085938-.046875-.175781-.078125-.269531-.078125zm.03125 2.726562c-.046876.066407.011718.230469.136718.421875.210938.367188-.136718.570313-.136718.570313.011718-.058594-.027344-.242188-.105469-.328125-.230469-.347656-.019531-.511719.105469-.664063m-.386719.355469c-.039063.039062 0 .15625.089843.28125.144532.25-.089843.386719-.089843.386719 0-.039063-.019531-.164063-.066407-.214844-.15625-.238281-.019531-.347656.066407-.453125zm-.703125.832031h1.816406c.054688 0 .09375.046875.09375.097657 0 .335937-.046875 1.46875-.53125 2.007812-.015625.019531-.039062.03125-.066406.03125h-.8125c-.023438 0-.050782-.011719-.066406-.03125-.484376-.550781-.53125-1.679688-.53125-2.007812 0-.058594.046874-.097657.097656-.097657m.277344.300781c-.050782 0-.09375.042969-.09375.09375.007812.273438.046874 1.042969.375 1.429688.019531.019531.042968.03125.066406.03125h.570312c.03125 0 .050782-.011719.078125-.03125.328125-.394531.378907-1.15625.378907-1.429688 0-.050781-.042969-.09375-.097657-.09375zm1.21875.65625c-.039063.257813-.117188.558594-.28125.753907-.019532.019531-.039063.027343-.058594.027343h-.480469c-.019531 0-.050781-.007812-.058594-.027343-.117187-.144531-.191406-.339844-.242187-.542969 0 0 .5625.078125.878906-.039062.234375-.085938.242188-.171876.242188-.171876m-6.589844.472657h4.929687c0 .039062.007813.066406.007813.105469h-4.9375zm7.082031 0h5.238281v.105469h-5.246094c0-.039063.007813-.066407.007813-.105469zm-3.1875 1.050781c.140625.003906.277344.027344.40625.078125.125.050781.230469.125.316406.214844.089844.085937.15625.191406.203125.316406.050782.125.078125.253906.078125.386719v.011718c0 .132813-.027343.261719-.078125.386719-.046875.117188-.121094.226563-.210937.316407-.085938.089843-.191407.164062-.320313.214843-.125.058594-.257812.074219-.402344.074219-.140624 0-.277343-.023438-.40625-.074219-.128906-.050781-.234374-.125-.320312-.214843-.085938-.085938-.15625-.191407-.203125-.316407-.050781-.125-.078125-.253906-.078125-.386719v-.011718c0-.132813.03125-.261719.078125-.386719.050781-.117187.121094-.226563.210937-.316406.089844-.089844.195313-.164063.320313-.214844.125-.058594.261719-.078125.40625-.078125m2.667969 0c.085937 0 .164062.011719.238281.019531.078125.019531.136719.039063.203125.058594.058594.03125.117188.058594.164062.097656.050782.039063.097657.078125.148438.125l-.222656.25c-.074219-.066406-.15625-.121093-.242188-.171875-.085937-.046875-.183594-.066406-.300781-.066406-.097656 0-.171875.019531-.25.058594-.074219.035156-.144531.085937-.203125.144531-.058594.054687-.097656.132813-.136719.210937-.027343.085938-.046875.175782-.046875.261719v.007813c0 .097656.019532.183594.046875.269531.03125.089844.078125.15625.136719.222656.058594.058594.125.117188.203125.148438.078125.027343.164063.054687.25.054687.117187 0 .222656-.019531.300781-.066406.089844-.054688.171875-.113281.25-.183594l.222656.222656c-.046874.058594-.097656.097657-.15625.144532-.054687.046875-.113281.078125-.171874.105468-.058594.03125-.136719.058594-.203126.070313-.085937.019531-.175781.015625-.261718.015625-.132813.003906-.261719-.023438-.386719-.074219-.113281-.050781-.222656-.125-.308594-.214843-.085937-.085938-.152343-.191407-.203125-.316407-.046875-.125-.078125-.253906-.078125-.386719v-.011718c0-.132813.03125-.269532.078125-.386719.050782-.117187.117188-.222656.203125-.316406.085938-.089844.195313-.164063.320313-.214844.128906-.050781.265625-.078125.40625-.078125m4.539062.03125h.308594l.851562 1.941406h-.359374l-.191407-.464844h-.90625l-.203125.464844h-.347656zm-10.859375.007812h.359375l.585938.910157.589844-.910157h.359374v1.933594h-.339843v-1.382812l-.609375.910156h-.007813l-.597656-.898438v1.382813h-.339844zm7.757813 0h.339844v.804688h.925781v-.804688h.339843v1.933594h-.339843v-.8125h-.925781v.8125h-.339844zm-4.113282.273438c-.097656 0-.183593.019531-.261718.058594-.074219.035156-.144532.085937-.203125.144531-.058594.054687-.097657.132813-.136719.210937-.027344.085938-.046875.175782-.046875.261719v.007813c0 .097656.019531.183594.046875.269531.03125.089844.078125.15625.136719.222656.058593.058594.125.109375.203125.148438.078125.035156.171875.054687.261718.054687.09375 0 .183594-.019531.257813-.054687.078125-.039063.144531-.085938.203125-.148438.058594-.054687.097656-.132812.136719-.210937.027343-.085938.046875-.175782.046875-.261719v-.007813c0-.097656-.019532-.183593-.046875-.273437-.03125-.085937-.078125-.152344-.136719-.21875-.058594-.058594-.125-.109375-.203125-.144531-.074219-.039063-.164063-.058594-.257813-.058594m7.371094.125-.328125.773438h.65625zm-11.257812 2.144531h12.320312v.105469h-12.320312zm0 0" fill="#8d6748"/></svg>