<svg height="18" viewBox="0 0 18 18" width="18" xmlns="http://www.w3.org/2000/svg"><g fill="#850000"><path d="m9.835938 5.527344c-.234376.011718-.632813.074218-.632813.101562 0 .011719.28125.152344.300781.152344.019532 0 .347656.160156.417969.207031.097656.058594.164063.113281.144531.113281-.011718 0-.347656-.128906-.476562-.183593-.101563-.042969-.53125-.171875-.738282-.21875-.113281-.027344-.160156-.039063-.355468-.074219-.28125-.050781-.617188-.054688-.761719-.007812-.207031.070312-.253906.152343-.253906.457031 0 .171875.007812.242187.046875.394531.015625.0625.058594.210938.082031.257812.003906.015626.023437.0625.039063.105469.019531.042969.070312.148438.113281.238281.253906.503907.632812.921876 1.167969 1.289063.167968.113281.625.332031.808593.386719.046875.011718.058594.039062.023438.039062-.042969 0-.429688-.109375-.507813-.140625-.03125-.015625-.0625-.027343-.09375-.039062-.273437-.109375-.625-.339844-.917968-.597657-.316407-.285156-.570313-.632812-.746094-1.019531-.109375-.253906-.1875-.546875-.207032-.800781-.007812-.148438-.019531-.183594-.058593-.179688-.011719 0-.132813-.003906-.265625-.011718-.359375-.015625-.851563.023437-1.339844.109375-.933594.15625-1.9375.523437-2.972656 1.082031-.171875.09375-.339844.191406-.507813.289062-.019531.011719-.082031.050782-.140625.085938-.054687.035156-.121094.074219-.144531.089844-.054687.03125-.644531.433594-.714844.484375-.027343.019531-.101562.074219-.164062.121093-.28125.207032-.8906252.707032-.9257815.757813-.0195313.023437.0078125.035156.0468745.023437.015626-.007812.066407-.015624.101563-.023437.042969-.003906.144531-.03125.226563-.058594.085937-.027343.179687-.054687.207031-.0625.207031-.050781.292969-.066406.414062-.085937.054688-.003906.136719-.019532.183594-.023438.574219-.085937.847656-.105468 1.101563-.085937.554687.042969 1.085937.136719 1.390624.246093.226563.082032.691407.332032.894532.480469.117187.089844.496094.464844.578125.578125.0625.089844.136719.171875.152343.171875.007813 0 .011719-.289062.015626-.636719l.003906-.636718.742187-.003906c.585938-.003907.746094.003906.757813.015624.011718.015626.046875.078126.160156.285157.105469.195312.15625.292969.1875.347656.019531.03125.058594.105469.089844.164063.03125.058593.089844.164062.128906.238281.039062.070312.070312.132812.070312.136719 0 .011718.058594.089843.070313.089843.003906 0 .019531-.023437.027344-.046875.011719-.023437.042969-.082031.066406-.125.023437-.039062.070313-.125.101563-.179687.03125-.058594.074218-.140625.097656-.175781.058594-.113282.125-.234376.179687-.332032.054688-.109375.117188-.214844.175781-.320312.019532-.035156.039063-.074219.046876-.082032.011718-.011718.179687-.019531.78125-.015624l.761718.003906.003906 1.242187c.003907.976563.007813 1.238281.023438 1.238281.007812-.003906.0625-.035156.121094-.078124.082031-.054688.117187-.089844.15625-.15625.085937-.144532.332031-.378907.492187-.46875.199219-.109376.414063-.191407.636719-.238282.226562-.046875.292969-.054687.804688-.074218.9375-.03125 1.074218-.035157 1.082031-.042969.003906-.003907-.007813-.042969-.027344-.082031-.019531-.042969-.054687-.117188-.078125-.167969-.089844-.191407-.089844-.257813.003906-.351563.0625-.066406.226563-.125.507813-.179687.046875-.007813.105469-.023438.128906-.03125.023437-.007813.054687-.011719.066406-.011719.035157 0 .316407-.070312.375-.089844.042969-.019531.261719-.066406.523438-.117187.113281-.023438.410156-.082031.65625-.128907.15625-.03125.320312-.066406.359375-.074218.042968-.007813.105468-.019532.136718-.023438.03125-.007812.070313-.015625.089844-.019531.019532-.003906.121094-.023437.21875-.046875.078125-.015625.152344-.03125.226563-.042969.074219-.007812.605469-.132812.726562-.171875.195313-.066406.253907-.089844.375-.171875.132813-.089843.171875-.140625.300781-.402343.148438-.289063.167969-.339844.207032-.460938.066406-.195312.0625-.269531-.019532-.351562-.058593-.054688-.179687-.113282-.265624-.125-.066407-.007813-.078126-.007813-.109376.027343-.019531.023438-.035156.046875-.035156.058594s-.023437.074219-.085937.222656c-.007813.015625-.019531.054688-.03125.085938-.007813.03125-.023438.074219-.035157.097656-.015624.039063-.019531.03125-.011718-.078125.007812-.105469.027344-.199219.066406-.335938.007812-.027343.019531-.070312.023438-.097656l.003906-.050781-.144532-.058594c-.152343-.066406-.285156-.121093-.359374-.152343-.027344-.011719-.089844-.035157-.140626-.054688-.054687-.019531-.121093-.046875-.148437-.058594-.046875-.023437-.097656-.042968-.148437-.0625-.09375-.035156-.421876-.148437-.703126-.238281-.1875-.054687-.378906-.113281-.566406-.167969-.066406-.015625-.132812-.035156-.195312-.054687-.023438-.007813-.078125-.023438-.121094-.03125-.25-.070313-.3125-.085938-.402344-.113281-.050781-.011719-.097656-.027344-.148437-.039063-.027344-.007813-.101563-.023437-.164063-.039063-.105468-.027343-.5625-.132812-.808594-.1875l-.179687-.042968c-.03125-.003906-.085937-.015625-.125-.023438-.039063-.007812-.117187-.023437-.175781-.035156s-.183594-.035156-.277344-.050781-.203125-.035157-.246094-.042969c-.390625-.070312-.414062-.074219-1.113281-.152344-.433594-.046875-1.011719-.089844-1.152344-.082031-.023437 0-.148437.003906-.277343.011719m-1.628907.691406c.371094.121094.734375.285156.980469.445312.199219.128907.445312.332032.511719.421876l.027343.039062-.054687-.019531c-.027344-.011719-.089844-.039063-.136719-.0625-.25-.117188-.273437-.125-.273437-.097657 0 .003907.054687.097657.125.203126.070312.105468.125.195312.125.203124 0 .007813-.023438-.003906-.058594-.023437-.125-.089844-.421875-.214844-.441406-.1875-.003907.007813.089843.121094.207031.257813.113281.136718.210938.253906.210938.261718 0 .019532-.023438.019532-.128907-.019531-.113281-.039063-.140625-.042969-.140625-.019531 0 .019531.238282.339844.332032.453125.027343.03125.050781.058593.050781.066406 0 .035156-.332031-.179687-.566407-.367187-.332031-.265626-.65625-.625-.828124-.921876-.140626-.238281-.1875-.371093-.1875-.511718 0-.085938.003906-.101563.035156-.132813.019531-.019531.042968-.035156.050781-.035156s.078125.023437.160156.046875m4.453125.5c.136719.023438.320313.058594.410156.074219.089844.015625.199219.03125.242188.039062.039062.007813.101562.019531.132812.027344s.089844.019531.132813.027344c.140625.03125.175781.039062.402344.09375.246093.058593.300781.066406.375.082031.0625.015625.125.039062.125.050781 0 .003907-.042969.03125-.101563.058594-.117187.058594-.140625.0625-.617187.082031-.324219.011719-.496094.007813-.65625-.015625-.320313-.050781-.484375-.140625-.613281-.335937-.042969-.066406-.074219-.085938-.175782-.109375-.039062-.011719-.097656-.027344-.128906-.039063-.03125-.007812-.082031-.023437-.117188-.035156-.101562-.023438-.042968-.039062.160157-.039062.140625 0 .242187.007812.429687.039062m1.699219 1.960938c-.011719.003906-.023437.003906-.035156 0-.007813-.003907-.003907-.003907.015625-.003907.019531 0 .027344 0 .019531.003907zm-.0625.019531c0 .003906-.015625.015625-.035156.019531-.042969.011719-.21875.0625-.273438.078125-.019531.007813-.082031.027344-.140625.042969-.144531.042968-.5.160156-.59375.195312-.175781.066406-.59375.289063-.652344.347656-.089843.085938-.117187.179688-.105468.355469.003906.074219.015625.167969.023437.210938.019531.085937.007813.109375-.027343.066406-.03125-.042969-.105469-.199219-.125-.277344-.011719-.035156-.023438-.082031-.03125-.105469-.027344-.078124-.015626-.171874.023437-.230468.054687-.082032.246094-.210938.472656-.320313.105469-.050781.417969-.15625.703125-.242187.058594-.015625.121094-.035156.144532-.042969.203124-.066406.617187-.132813.617187-.097656m-4.460937.09375c-.007813.003906-.019532.003906-.027344 0-.011719-.003907-.007813-.007813.007812-.007813s.023438.003906.019532.007813m0 0"/><path d="m6.875 11.507812v.984376h.703125c.527344 0 .707031-.007813.71875-.019532.019531-.019531.027344-1.949218.003906-1.949218-.007812 0-.015625.011718-.019531.023437-.007812.015625-.160156.253906-.34375.535156-.292969.445313-.371094.550781-.371094.496094 0-.007813-.480468-.761719-.605468-.941406-.015626-.023438-.03125-.046875-.042969-.074219-.011719-.019531-.023438-.039062-.03125-.039062-.007813 0-.011719.445312-.011719.984374m0 0"/></g></svg>