<svg height="18" viewBox="0 0 18 18" width="18" xmlns="http://www.w3.org/2000/svg"><g fill="none" stroke="#fff" stroke-linecap="round" stroke-linejoin="round" stroke-width="2" transform="scale(.75)"><path d="m12 17v4m3.197917-16.098958-.895834-.401042m.895834 2.598958-.895834.401042m2.598959-4.302083-.401042-.895834m.401042 6.5-.401042.895834m3-7.395834-.401042.895834m.401042 6.5-.401042-.895834m2.598959-4.302083-.895834.401042m.895834 2.598958-.895834-.401042m1.197917 5.901042v2c0 1.104167-.895833 2-2 2h-16c-1.104167 0-2-.895833-2-2v-10c0-1.104167.895833-2 2-2h7m-3 18h8"/><path d="m21 6c0 1.65625-1.34375 3-3 3s-3-1.34375-3-3 1.34375-3 3-3 3 1.34375 3 3zm0 0"/></g></svg>