<svg height="18" viewBox="0 0 18 18" width="18" xmlns="http://www.w3.org/2000/svg"><path d="m16.40625 6.335938c-.714844-.546876-1.730469-.808594-2.964844-.808594-1.359375 0-2.304687.308594-2.804687.953125-.230469-.25-.515625-.445313-.839844-.59375-.34375-.351563-.699219-.5625-1.066406-.664063.8125-.519531 1.757812-1.222656 2.960937-2.171875-4.878906.5-7.238281.976563-11.425781 3.5.171875 0 .335937 0 .5.003907-.101563.78125-.050781 1.953124-.03125 2.296874-.5625 1.433594-.058594 2.601563.363281 3.648438 0-1.261719.0625-2.285156-.296875-3.59375l2.847657-2.257812c-.046876.425781-.039063.921874.042968 1.519531l.007813.003906-.03125.164063.128906.023437c-.03125.210937 0 .429687 0 .667969v5.878906h2.53125v-5.570312c0-.28125.089844-.523438.148437-.734376.386719-.066406.792969-.175781 1.148438-.328124l.023438.0625c.023437-.027344.050781-.0625.074218-.09375.285156-.128907.585938-.28125.84375-.464844.457032.234375.714844.753906.714844 1.558594v5.570312h2.953125v-5.570312c0-1.144532.335937-1.714844 1.265625-1.714844s1.265625.570312 1.265625 1.714844v5.570312h2.953125v-5.878906c0-1.191406-.480469-2.070313-1.3125-2.691406" fill="#f7931e"/></svg>