<svg height="18" viewBox="0 0 18 18" width="18" xmlns="http://www.w3.org/2000/svg"><path d="m1.097656 0v6.734375h-.554687v11.265625h5.71875v-.558594h1.011719v.558594h4.027343v-.558594h.472657v.558594h3.453124v-.558594h1.132813v-.558594h.542969v-.558593h.554687v-3.972657h-.554687v-.542968h-.542969v-.558594h-1.132813v-.523438h1.675782v-.542968h.554687v-1.726563h-.554687v-.625h-.542969v-.539062h-1.132813v-.476563h.539063v-.589844h.59375v-1.761718h-.59375v-.539063h-.539063v-.542969h-1.152343v-.523437h2.285156v-1.710937h-.59375v-.589844h-1.132813v-.558594h-2.859374v.558594h-1.132813v.59375h-.539063v2.300781h.539063v.539063h1.132813v.472656h-1.671876v1.761718h.539063v.507813h-1.015625v-6.734375h-2.351562v.558594h-.539063v1.148437h-.542969v1.085938h-.589844v1.132812h-.507812v-1.132812h-.542969v-1.085938h-.558593v-1.148437h-.59375v-.558594zm2.300782 5.144531h.527343v1.082031h.539063v.507813h-1.066406zm3.402343 0h.472657v1.589844h-.539063v.558594h-.472656v-1.066407h.539062zm3.910157 1.671875h.523437v.476563h-.523437zm3.363281 2.757813h.492187v.609375h.574219v.472656h-1.066406zm-10.675781 1.152343h1.066406v2.789063h.558594v1.085937h-1.625zm5.636718 0h.507813v.609376h.554687v.539062h.542969v.542969h.59375v.472656h-1.136719v.558594h-.554687v.574219h-.507813zm4.5 2.789063h1.03125v.507813h-1.03125zm0 0"/></svg>