<svg height="18" viewBox="0 0 18 18" width="18" xmlns="http://www.w3.org/2000/svg"><path d="m11.171875 0c-.742187 0-1.378906.21875-1.921875.617188h4.066406c-.609375-.402344-1.34375-.617188-2.144531-.617188m-6.914063 1.023438c-.269531.15625-.503906.367187-.691406.617187h4.136719c-.152344-.273437-.324219-.472656-.511719-.617187zm4.542969 0c-.183593.191406-.347656.394531-.492187.617187h6.007812c-.140625-.226563-.308594-.433594-.5-.617187zm-5.480469 1.023437c-.101562.195313-.183593.402344-.246093.613281h1.0625c.148437-.125.335937-.203125.585937-.203125.246094 0 .433594.078125.574219.203125h4.738281c.066406-.011718.132813-.019531.199219-.019531.09375 0 .183594.007813.269531.019531h4.265625c-.058593-.210937-.136719-.417968-.234375-.613281h-6.464844c-.035156.0625-.070312.117187-.105468.183594-.023438-.070313-.046875-.121094-.074219-.183594zm-.347656 1.019531c-.042968.203125-.070312.410156-.089844.617188h.832032c.027344-.21875.078125-.429688.15625-.617188zm2.59375 0c.082032.195313.128906.40625.15625.617188h2.863282c.175781-.242188.378906-.453125.59375-.617188zm5.945313 0c.246093.175782.445312.386719.582031.617188h2.832031c-.007812-.210938-.027343-.417969-.0625-.617188zm-8.667969 1.023438c-.007812.179687-.019531.359375-.023438.535156l.851563-.109375c0-.128906.007813-.277344.015625-.425781zm2.90625 0c.003906.109375.007812.230468.007812.3125v.304687h2.355469c.054688-.21875.128907-.425781.226563-.617187zm6.507812 0c.019532.082031.03125.164062.03125.246094v.371093h2.648438v-.617187zm-6.5 1.023437v.617188h2.269532v-.335938c0-.09375.003906-.1875.011718-.28125zm6.53125 0v.617188h2.648438v-.617188zm-6.53125 1.023438v.613281h2.269532v-.613281zm6.53125 0v.613281h2.648438v-.613281zm-6.53125 1.019531v.617188h2.269532v-.617188zm6.53125 0v.617188h2.648438v-.617188zm-6.53125 1.023438v.617187h2.269532v-.617187zm6.53125 0v.617187h2.648438v-.617187zm-6.53125 1.023437v.617187h2.269532v-.617187zm6.53125 0v.617187h2.648438v-.617187zm-6.53125 1.023437v.617188h2.269532v-.617188zm6.53125 0v.617188h2.648438v-.617188zm-6.53125 1.019532v.617187h2.269532v-.617187zm6.53125 0v.617187h2.648438v-.617187zm-6.53125 1.023437v.546875h2.269532v-.546875zm6.53125 0v.640625h2.648438v-.640625zm0 1.046875v.617188h2.648438v-.617188zm0 1.023438v.617187h2.648438v-.617187zm.003907 1.023437c0 .210938.007812.414063.019531.613281h2.648438c-.011719-.203124-.019532-.410156-.019532-.613281zm.054687 1.019531c.015625.203126.039063.414063.0625.617188h2.648438c-.023438-.207031-.046875-.410156-.0625-.617188zm.113282 1.023438c.023437.199219.042968.382812.070312.59375h2.648438c-.027344-.191406-.046876-.394531-.070313-.59375zm0 0" fill="#c8f"/></svg>