<svg height="18" viewBox="0 0 18 18" width="18" xmlns="http://www.w3.org/2000/svg"><path d="m10.582031.0546875c-.136719 0-.269531.03125-.386719.0742185l-.132812.050782.117188.074218c.222656.144532.335937.332032.402343.558594v-.019531c0 .050781.011719.078125.011719.085937 0 .050782.015625.078125.015625.082032v.003906c.003906.191406-.019531.292968-.054687.378906-.039063.085938-.089844.160156-.136719.285156-.148438.328125-.101563.6875.074219.96875.011718.023438.023437.070313.066406.109375l.117187.121094-.867187-.332031c-.175782-.054688-.351563-.101563-.53125-.140625-.105469-.03125-.203125-.042969-.292969-.070313h-.003906c-.28125-.058594-.5625-.097656-.84375-.128906h-.035157c-.273437-.027344-.546874-.039062-.820312-.039062-.210938 0-.40625.011718-.601562.027343-.285157.011719-.566407.054688-.84375.097657l-.210938.042968c-.140625.027344-.28125.054688-.421875.097656h-.003906c-.074219.015626-.140625.042969-.199219.054688h-.007812l-.007813.003906c-.066406.027344-.140625.054688-.199219.085938-.050781.023437-.089844.039062-.148437.066406-.007813 0-.007813 0-.019531.003906-.019532.011719-.023438.019532-.03125.027344l.011718-.011719c-.035156.023438-.074218.039063-.125.070313l.039063-.011719c-.023438 0-.042969.007813-.058594.019531-.003906.003906-.003906.003906-.007813.003906-.054687.03125-.097656.054688-.125.066407h-.003906l-.003906.003906c-.019531.007813-.0625.023437-.097656.039063l-.011719.003906-.007813.011718c.003907-.003906.003907-.003906 0 0-.007812.003907-.023437.011719-.039062.027344l.007812-.011718c-.03125.023437-.074218.039062-.125.070312-.03125.023438-.078124.035156-.121093.078125-.007813.011719-.042969.03125-.078125.058594-.003906 0-.003906 0-.007813 0 0 0-.003906.003906-.003906.007812-.003906.003907-.003906 0-.007813.003907h.007813c-.003906 0-.003906 0-.003906 0-.042969.023437-.074219.054687-.101563.082031l-.011718.015625.015624-.011719c-.023437.011719-.042968.03125-.050781.039063-.007812.007812-.011719.011718-.019531.015624l.03125-.007812c-.011719 0-.019531.007812-.03125.015625h-.011719l-.015625.007813c-.023437.011718-.039062.027343-.050781.039062-.003906.003906-.011719.011719-.015625.015625l-.039062.019531v.011719l-.257813.257813s0 0-.011719.007812c-.007812.003906-.015625.011719-.023437.023438v.003906l-.097657.097656v.015625l-.121093.121094h-.003907c-.0625.078125-.144531.144531-.226562.214843-.082031.070313-.164062.136719-.261719.207032-.085937.0625-.175781.121094-.269531.175781s-.1875.09375-.285156.136719c-.097656.039062-.195313.082031-.285156.109375-.183594.039062-.355469.101562-.496094.125-.011719-.019531-.03125-.035157-.046875-.039063-.042969-.015625-.066407-.007812-.078125-.007812h-.011719l-.011719.003906c-.027344.011719-.066406.007812-.121094.03125l.011719-.003906c-.046875.015625-.074219.03125-.113281.042968-.046875.015626-.082031.035157-.128906.0625l-.003906.003907-.003907.007812c-.011719.007813-.054687.023438-.097656.066407-.019531.019531-.0625.046874-.097656.085937-.019531.019531-.0625.046875-.097657.082031-.035156.035156-.066406.070313-.09375.109375-.019531.03125-.046874.0625-.066406.109375-.035156.039063-.050781.082032-.070312.113282l-.007813.007812v.007812c-.011719.027344-.039062.070313-.0585935.125l-.0390625.125c-.0195312.050782-.0195312.078126-.03125.113282v.035156-.023438c-.01953125.0625-.015625.121094-.015625.148438v.167969l.0234375-.023438c0 .011719.0039063.035157.0039063.035157v.019531l.0078124.011719c.0039063.011718.0039063.039062.0273438.085937.015625.027344.0351562.0625.070312.101563l-.015624-.019532c.023437.046875.050781.074219.058593.082032l.003907.011718.007812.007813c.027344.027343.058594.0625.101562.082031l-.019531-.011719c.027344.027344.058594.058594.101563.082031l-.011719-.007812c.109375.09375.144531.128906.289063.214844l.003906.003906c.011718.003906.03125.015625.050781.027344.003906.042968.015625.082031.023437.113281.015626.039063.027344.082031.046876.117187l.042968.085938-.007812-.03125c0 .015625.007812.019531.011718.03125v.007812l.003907.011719c.019531.058594.054687.09375.058593.105469l.007813.007812.007813.011719c.011718.007813.023437.050781.070312.09375l.082031.085938.105469.101562h.015625c.023437.019531.046875.039063.058594.050781.046875.042969.097656.058594.117187.070313.019532.007813.0625.035156.113282.054687.015624.007813.046874.011719.070312.019532v.027344h.054688c-.003907.097656-.007813.199218-.007813.296874 0 .101563.007813.183594.027344.242188v.003906c.011719.027344.046875.058594.082031.0625.039062.003906.0625-.011718.082031-.023437.039063-.027344.078125-.070313.121094-.121094.042969-.054687.09375-.140625.140625-.210937-.003906.078124-.011719.160156-.011719.234374 0 .148438 0 .265626.03125.347657v.003906l.003907.003906c.015624.03125.054687.058594.09375.058594.035156 0 .058593-.011719.082031-.03125.050781-.03125.097656-.082031.152343-.144531.101563-.125.222657-.304688.34375-.488282 3.046876-.691406 5.804688 1.285157 6.351563 4.171876-.058594-.0625-.117187-.128907-.1875-.175782-.210937-.128906-.445313-.191406-.625-.148437l-.03125.007812-.015625.035157c-.121094.289062-.332031.648437-.625.902343.011719-.253906.011719-.507812-.035156-.765625l-.136719-.003906c-.09375.402344-.277344.78125-.539063 1.101562-.394531.015626-.804687-.179687-1.007812-.46875l-.003906-.003906-.003906-.007812c.003906.003906-.003907-.003906-.011719-.015625-.003907-.007813-.011719-.015625-.015625-.023438-.011719-.019531-.023438-.058593-.042969-.09375-.007813-.023437-.015625-.042969-.019531-.066406v-.167969c0-.003906.011718-.046875.019531-.066406.015625-.027344.019531-.046875.019531-.066406.003906-.015625.007813-.027344.007813-.03125.019531-.035156.03125-.066406.042969-.078125l.011718-.011719.003906-.011719c.046876-.117187.070313-.230469.058594-.332031-.007812-.105469-.066406-.199219-.152344-.253906l-.003906-.003906-.101562-.050782h-.015625c.015625 0 .003906 0-.007813 0-.011718-.003906-.019531-.011718-.050781-.011718.015625 0 .019531.003906.011719 0-.007813-.003907-.023438-.015626-.050782-.015626l.03125.007813c-.027343-.011719-.050781-.015625-.066406-.019531-.011718 0-.023437-.003906-.03125-.007813-.054687-.027343-.101562-.019531-.128906-.019531-.003906 0-.019531-.003906-.035156-.007812-.019532-.003907-.039063-.007813-.0625-.007813h-.070313c-.042969 0-.085937 0-.128906.023437l.03125-.007812c-.027344 0-.046875.003906-.0625.007812-.011719 0-.023437.003907-.035156.003907h-.015625l-.015625.007812s-.015625.003907-.03125.007813-.039063.007812-.066407.019531c-.027343.015625-.058593.027344-.089843.039063h-.003907l-.089843.046874-.003907.003907c-.5625.363281-.679687.984375-.558593 1.5625.109375.515625.402343.992187.738281 1.265625-.089844.019531-.183594.039062-.257812.054687-.117188.03125-.207032.054688-.269532.09375l-.007812.003907-.078125.082031.070312.046875c.203125.128906.414063.226562.640625.3125h.003906c.292969.097656.617188.183594.753907.222656l.003906.003906c.382813.082032.777344.113282 1.175781.082032 1.953125-.132813 3.5625-1.5625 3.996094-3.460938.003906.019531.003906.039062.007812.0625v.003906l.003907.007813c.007812.027343.011719.0625.011719.101562v.015625c0 .058594.011718.097656.011718.125 0 .066406.015625.109375.015625.152344v.585938c0 .027343-.015625.054687-.015625.109374v.042969c0 .023438-.011718.070313-.011718.128907-.015626.046874-.015626.089843-.027344.113281v.03125c-.015625.042969-.019532.082031-.027344.109375l-.003906.011718v.015626c-.011719.046874-.015625.085937-.023438.109374l-.003906.011719v.015625l-.039062.125v.015625c-.015626.042969-.027344.089844-.039063.125-.015625.042969-.027344.078125-.050781.132813l-.003906.003906v.003906c-.015626.046875-.03125.09375-.050782.121094l-.003906.007812-.003906.011719c-.007813.027344-.039063.074219-.054688.144531v-.007812c-.007812.027344-.035156.070312-.054687.121094h-.007813l-.019531.039062c-.285156.585938-.722656 1.109375-1.273437 1.519532l.003906-.003907c-.046875.035157-.074219.0625-.109375.085938l-.007813.003906-.003906.003906s.003906-.003906-.007812.003907c-.011719.007812-.019532.015624-.027344.023437v.003906c-.011719.011719-.046875.023438-.089844.066407l-.035156.035156.058594.121094.054687-.011719c.058594-.011719.113281-.011719.1875-.027344.128906-.011719.246094-.042969.371094-.070313l-.015625.003907c.042968 0 .078125-.015625.109375-.03125.019531-.003907.035156-.007813.042969-.007813.011718-.003906.011718-.003906.011718-.003906.027344 0 .046875-.003906.0625-.007812.019532-.003907.035156-.007813.035156-.007813h.019532l.011718-.007813c.011719-.003906.039063-.003906.085938-.027343l-.015625.007812c.382813-.09375.746094-.230469 1.109375-.371093-.710938.90625-1.617188 1.640624-2.671875 2.132812l.035156.132812c.53125-.042968 1.066407-.128906 1.585938-.28125 1.730469-.507812 3.199219-1.632812 4.15625-3.144531-.21875.898438-.589844 1.757813-1.128907 2.523438l.097657.097656c.449219-.296875.855469-.648437 1.234375-1.027344.953125-.988281 1.589844-2.242187 1.867187-3.578125.101563.601563.144531 1.21875.089844 1.824219l-.027344.257813.152344-.210938c1.675781-2.335938 1.746094-4.71875 1.238281-6.671875-.511718-1.953125-1.597656-3.476563-2.25-4.121094l.023438.046875c0-.027344-.023438-.058594-.027344-.0625s.011719.019532.011719.035156h-.140625c0 .054688 0 .105469-.011719.152344v.007813c-.015625.109375-.027344.203125-.042969.300781-.027344.097656-.054687.207031-.082031.300781-.023437.089844-.066406.1875-.105469.285157-.042968.09375-.082031.1875-.132812.265624-.058594.085938-.113282.183594-.167969.265626-.054687.078124-.121094.160156-.191406.242187-.066407.082031-.132813.148437-.21875.234375-.042969.039062-.078125.074219-.121094.097656h-.003906l-.003907.003906c-.046874.03125-.078124.0625-.121093.105469l.003906-.003906c-.078125.066406-.160156.121094-.253906.175781h-.003907c-.085937.058594-.175781.105469-.265624.148438l-.292969.125c-.09375.039062-.1875.066406-.285157.09375-.097656.027344-.203124.054687-.296874.066406-.113282.015625-.210938.03125-.304688.042969-.078125 0-.15625.015625-.214844.015625-.101562 0-.199218-.015625-.296875-.015625-.089843-.011719-.179687-.023438-.269531-.035157.09375-.015624.1875-.039062.28125-.066406s.207031-.054687.304688-.101562l.285156-.121094c.105468-.046875.191406-.105469.285156-.15625l.003906-.003906h.003906c.082032-.058594.179688-.125.261719-.179688l.007813-.007812c.082031-.066406.164062-.136719.238281-.210938.089844-.074218.160156-.15625.226563-.222656v-.003906h.003906c.070312-.085938.140625-.171875.199218-.257813l-.011718.011719c.015625-.015625.023437-.035156.027344-.039062.003906-.007813.003906-.003907.003906-.003907l.003906-.007812.003906-.003907c.042969-.070312.097656-.152343.140625-.222656v-.003906c.054688-.089844.101563-.1875.144531-.285156.039063-.097656.082032-.195313.113282-.300782l.085937-.296874v-.003907c.011719-.105469.042969-.207031.042969-.316406.011719-.113281.011719-.210937.011719-.304687 0-.070313.003906-.15625-.015625-.238282-.011719-.109375-.027344-.207031-.039063-.300781-.015625-.117187-.042969-.21875-.070312-.316406-.03125-.105469-.074219-.203125-.097657-.292969l-.003906-.003906v-.003906c-.039062-.097657-.082031-.191407-.128906-.28125v-.003907c-.054688-.097656-.097656-.179687-.152344-.277343l-.003906-.003907v-.003906c-.058594-.085937-.128906-.167969-.179688-.25h-.003906v-.003906c-.074218-.085938-.144531-.15625-.210937-.238281l-.003907-.003907c-.042968-.042969-.085937-.085937-.136718-.121093-.207032-.167969-.417969-.308594-.640625-.445313l-.003907-.003906h-.003906c-.03125-.015625-.0625-.03125-.097656-.042969-.179688-.148438-.332031-.199219-.464844-.25l-.082031-.035156-.011719.089844c-.003906.03125-.007812.066406-.007812.097656 0 .015625 0 .007812-.003906.035156l-.003907.007812v.007813c0 .042969 0 .074219-.007812.101563-.019531.050781-.019531.078124-.027344.113281-.015625.035156-.027344.0625-.042969.109375-.015625.027344-.027344.058594-.039062.085937-.003906.007813-.011719.015625-.015625.023438-.007813.011719-.015625.019531-.011719.019531-.011719.007812-.019531.023438-.027344.039062-.003906.003907-.003906.003907 0 0-.046875.046876-.058594.085938-.070312.097657l-.085938.085937c-.027344.027344-.050781.050782-.0625.054688l-.007812.003906h-.003906c-.089844.066406-.203126.121094-.304688.195312l-.007812.007813c-.011719.011719-.054688.027344-.097657.070313-.019531.019531-.046875.035156-.085937.070312l-.082032.082031c-.027343.027344-.066406.066407-.085937.125l.015625-.027343c-.042969.046874-.058594.085937-.070312.097656l-.011719.011718-.003907.015626c-.011718.035156-.027343.066406-.046874.09375l-.003907.007812-.003906.011719c-.011719.035156-.027344.0625-.042969.109375-.011718.042968-.03125.082031-.03125.132812 0 .015625-.011718.027344.007813.007813l-.023438.019531v.03125c0 .011719-.011719.023438.007813.003906l-.019532.019532v.03125c.003907-.386719.152344-.628907.34375-.808594.117188-.113282.246094-.203125.363282-.289063.113281-.085937.21875-.167969.273437-.277343l.007813-.015626v-.011718c.007812-.179688-.0625-.332032-.160156-.453125-.097657-.117188-.222657-.210938-.328126-.289063l-.003906-.003906c-.21875-.1328125-.40625-.1640625-.578125-.1640625zm0 .1406245c.15625 0 .304688.023438.503907.140626.101562.078124.214843.164062.296874.265624.078126.097657.128907.207032.128907.339844-.039063.066406-.117188.136719-.226563.21875-.109375.082032-.246094.175782-.375.296875-.191406.183594-.355468.4375-.386718.808594-.050782-.1875-.066407-.386719.023437-.582031v-.003906c.039063-.109376.089844-.179688.132813-.28125.042968-.101563.074218-.230469.066406-.4375 0-.050782-.011719-.078126-.011719-.082032 0-.054687-.015625-.082031-.015625-.085937v-.007813l-.003906-.011718c-.058594-.203126-.179688-.382813-.355469-.535157.074219-.019531.144531-.042969.222656-.042969zm1.519531.292969c.113282.042969.214844.074219.355469.191407l.007813.007812.015625.003906c.035156.011719.058593.023438.082031.039063.222656.136719.429688.273437.632812.4375l.003907.003906c.035156.023437.074219.0625.117187.101563.070313.085937.136719.152343.203125.234374.058594.082032.125.164063.175781.242188.054688.09375.09375.175781.152344.277344.039063.078125.078125.171875.121094.269531.03125.101563.070312.195313.09375.285156.027344.097657.054688.191407.066406.292969v.003906c.015625.097656.03125.191406.042969.304688v.003906c.011719.058594.015625.140625.015625.210938 0 .097656 0 .191406-.015625.296874v.007813c0 .082031-.027344.175781-.039063.292969l-.082031.285156c-.027343.09375-.066406.1875-.109375.285156-.042968.09375-.082031.175782-.136718.273438-.039063.066406-.09375.148437-.136719.21875l.007812-.011719c-.007812.011719-.019531.023437-.027343.039063 0 .007812 0 .003906 0 0l-.003907.007812-.003906.003906c-.050781.078125-.121094.160156-.1875.242188-.074219.074218-.140625.152344-.21875.21875l-.003906.003906c-.0625.0625-.144531.132812-.226563.199219-.085937.058593-.179687.125-.261718.179687-.097657.058594-.179688.109375-.269532.148438l-.292968.125c-.074219.039062-.183594.066406-.28125.09375-.097657.027344-.191407.054687-.296876.066406h-.003906l-.007812.003906c-.082032.023438-.191406.023438-.296875.039063l-.246094.035156.230469.097656c.101562.042969.207031.074219.324218.089844.097657.011719.195313.027344.304688.042969h.011719c.089843 0 .1875.011718.304687.011718.078125 0 .164063-.011718.222656-.011718h.011719c.097657-.015625.191407-.03125.304688-.042969.101562-.015625.214843-.042969.316406-.074219.097656-.027344.199219-.054687.300781-.097656l.292969-.125c.101563-.042969.199219-.101562.285156-.15625v-.003906c.097657-.050782.1875-.113282.273438-.183594l.003906-.003906v-.003906c.042969-.039063.066406-.0625.101563-.085938l-.007813.003906c.070313-.035156.117187-.082031.15625-.125.085937-.082031.15625-.15625.230469-.242187.066406-.082031.140625-.167969.199218-.257813.054688-.085937.113282-.183594.164063-.261718.0625-.09375.105469-.191407.148437-.289063.039063-.097656.082032-.199219.113282-.300781.027344-.101563.054687-.210938.082031-.308594l.003906-.003906v-.003906c.011719-.097657.027344-.191407.039063-.300782.636718.664063 1.640625 2.109375 2.121094 3.953125.488281 1.867188.425781 4.117188-1.085938 6.351563.039062-.664063-.007812-1.332032-.144531-1.980469l-.136719.003906c-.21875 1.445313-.894531 2.808594-1.914062 3.871094-.289063.285156-.597657.546875-.921876.789063.519532-.820313.878907-1.730469 1.054688-2.675782l-.132812-.046875c-.921876 1.671875-2.46875 2.910157-4.300782 3.449219-.390625.113281-.792968.183594-1.199218.230469 1.011718-.53125 1.882812-1.273438 2.554687-2.183594l.152344-.203125-.234375.097656c-.429688.179688-.871094.332032-1.324219.441406h-.007813l-.007812.003907c-.011719.003906-.039062.011719-.066406.023437-.019532 0-.035156.003906-.050782.007813-.011718 0-.023437.003906-.035156.003906-.023437 0-.042968.007813-.054687.011719s-.011719.003906-.011719.003906h-.019531l-.011719.007812c-.019531.007813-.0625.019532-.066406.019532h-.015625c-.125.027344-.234375.054687-.351563.066406.023438-.015625.046875-.035156.070313-.050781l.003906-.003907c.5625-.421874 1.015625-.957031 1.3125-1.566406.003906-.003906.003906-.003906.003906-.003906v.007812l.007813-.011718h.003906c0-.003906 0-.003906 0-.003906 0-.003907 0-.003907.003906-.003907.007813-.011719.019532-.027343.019532-.058593l-.003907.019531c.007813-.027344.035157-.066407.054688-.125v-.003907c.011719-.042968.035156-.078124.054687-.132812l-.007812.015625c.039062-.054687.050781-.117187.0625-.15625.027344-.054687.042968-.097656.058594-.136719.015624-.046875.027343-.105468.039062-.140625l.003906-.011719v-.011718l.042969-.125v-.019532c.011719-.046874.015625-.085937.023437-.109374l.003907-.011719v-.019531c.011719-.046876.015625-.085938.023437-.109376l.003906-.011718v-.019532c.011719-.042968.015626-.082031.023438-.109374l.003906-.007813v-.011719c0-.046875.015625-.082031.015625-.140625v-.042969c0-.023437.011719-.050781.011719-.109374v-.585938c0-.066406-.011719-.109375-.011719-.152344 0-.058594-.015625-.097656-.015625-.125v-.015625c0-.039062.003906-.089843-.015625-.144531l.003907.011719c-.015626-.097657-.03125-.183594-.042969-.265625v-.007813l-.003907-.003906c-.007812-.027344-.007812-.070313-.027343-.125l-.136719.011719c-.300781 2-1.945312 3.535156-3.941406 3.671875h-.003906c-.378907.027343-.757813 0-1.132813-.082031-.140625-.042969-.457031-.125-.746094-.222657-.171875-.0625-.324219-.148437-.476562-.234375.035156-.011718.050781-.019531.105469-.035156.128906-.03125.261718-.058594.390624-.082031l.167969-.035157-.144531-.09375c-.335938-.21875-.675781-.738281-.789062-1.277343-.113282-.539063-.011719-1.085938.496093-1.414063l.078125-.039062c.035156-.011719.066406-.027344.097656-.042969 0 0 .015626-.003906.03125-.007813.015626-.003906.03125-.007812.046876-.011718.015624-.003906.035156-.003906.050781-.007813.015625-.003906.03125-.007812.035156-.007812h.015625l.015625-.007813c.011719-.003906.023437-.003906.066406-.003906h.070313s.015625 0 .035156.003906c.015625.003906.035156.007813.0625.007813s.0625.007812.066406.007812c.023438.011719.046875.015625.066406.019531.015626.003907.027344.007813.03125.007813l.011719.007813h.007813c.007812.003906.023437.015624.050781.015624h.007813c.003906.003907.015624.003907.019531.007813l.074219.035156c.0625.039063.085937.082031.09375.152344.007812.066406-.011719.160156-.050782.265625l.015625-.023438c-.042969.042969-.058593.09375-.066406.113282-.015625.027344-.019531.050781-.023437.066406 0 .011719-.003907.023438-.007813.03125-.015625.035156-.035156.078125-.035156.128906v.167969c0 .050781.019531.09375.035156.128906.011719.019531.023437.058594.042969.097657l.003906.007812.007812.007812s.007813.007813.015626.019532c.003906.007812.011718.019531.023437.03125.238281.34375.703125.558594 1.15625.527344h.03125l.019531-.023438c.207032-.25.351563-.542969.464844-.847656.015625.1875.042969.375.023438.558594l-.011719.152343.121093-.089843c.382813-.265626.613282-.695313.753907-1.03125.121093-.015626.316406.023437.492187.132812.183594.113281.332032.292969.359375.515625l.136719-.015625c-.324219-3.226562-3.34375-5.511719-6.640625-4.75l-.027344.003906-.015625.027344c-.125.191406-.253906.378906-.355468.5-.039063.046875-.070313.078125-.097657.097656-.011719-.082031-.019531-.164062-.015625-.246094 0-.144531.011719-.316406.027344-.476562l-.132812-.042969c-.09375.160157-.195313.3125-.273438.40625-.023438.027344-.035156.039063-.050781.054688-.003907-.039063-.011719-.066407-.011719-.132813-.003906-.097656 0-.21875.007812-.34375l.003907-.074218h-.074219c.015625 0 .003906 0-.003906-.003907-.003906 0-.015625 0-.019532-.003906-.003906 0-.003906-.007813-.007812-.007813-.019531-.011718-.039062-.011718-.039062-.011718-.023438 0-.035157-.003906-.066407-.019532l-.003906-.003906h-.003906c-.027344-.007812-.066407-.035156-.101563-.050781-.035156-.019531-.070312-.03125-.078125-.042969-.039062-.035156-.066406-.050781-.085937-.070312l-.019532-.019532h-.015624l-.0625-.0625-.082032-.085937c-.011718-.007813-.03125-.042969-.058594-.078125-.019531-.042969-.042968-.066406-.050781-.089844l.003907.023438c0-.015625-.007813-.019532-.015626-.03125v-.011719l-.046874-.101563c-.011719-.019531-.023438-.058593-.039063-.101562s-.023437-.0625-.023437-.089844v-.097656h-.066407c-.015625-.007812-.027343-.019531-.054687-.03125h.003906c-.136719-.082031-.15625-.101562-.269531-.199219l-.007813-.007812-.007812-.003907c-.011719-.003906-.035156-.027343-.0625-.054687l-.007813-.007813-.011719-.007812c-.011718-.003906-.035156-.027344-.0625-.054688-.019531-.027343-.039062-.058593-.046874-.066406l-.003907-.007812-.007812-.007813c-.019531-.023437-.027344-.039062-.042969-.066406-.003906-.011719-.007812-.039063-.023438-.070313-.003906-.035156-.011718-.0625-.011718-.066406v-.054687c0-.015625.003906-.027344-.003906-.050781 0-.003907-.007813-.007813-.007813-.011719.003906-.03125.003906-.066407.007813-.082031l.003906-.011719v-.019531c.011718-.039063.015625-.066407.023437-.09375l.042969-.128907c.007812-.023437.035156-.0625.050781-.113281.03125-.046875.046875-.082031.058594-.09375l.011719-.011719.003906-.015625c.007812-.023437.03125-.046875.0625-.09375.023438-.03125.046875-.0625.074219-.089844.019531-.019531.0625-.046874.097656-.082031.019531-.019531.0625-.046875.097656-.082031.011719-.011719.054688-.027344.097657-.070312l-.011719.007812c.03125-.019531.0625-.035156.09375-.046875.046875-.015625.074219-.03125.113281-.042969h.003906l.003906-.003906c.003907 0 .046876-.007812.089844-.019531h.003906v.0625l.078126-.007813c.183593-.015625.378906-.101562.566406-.140625h.003906c.101562-.03125.203125-.074219.300781-.113281.097657-.042969.195313-.085938.296875-.144531.097656-.054688.195313-.117188.285156-.183594.09375-.066406.183594-.140625.269532-.210937.082031-.070313.171875-.144532.246094-.234376l.140624-.140624v-.011719l.097657-.097657v-.003906c.003906-.003906.003906 0 .007812-.003906l.070313-.070312-.050782.019531c.027344 0 .050782-.019531.066407-.039063l-.003907.003906.011719-.007812v-.003906l.074219-.070313.011719-.015625.074219-.070312.011718-.011719-.007812.003906c0-.003906 0-.003906.003906-.003906.023438-.015625.039062-.03125.050781-.042969.003907-.003906.011719-.007812.015625-.011718l-.03125.003906c.015625 0 .023438-.007813.035156-.011719h.011719l.011719-.007813c.027344-.011718.042969-.03125.054688-.042968.003906-.003906.011718-.007813.015624-.011719l.011719-.007813.019531-.019531c.03125-.027343.054688-.050781.066407-.058593l.039062-.019532v-.011718c.015625-.011719.050781-.023438.089844-.0625.011719-.011719.050781-.027344.101563-.0625.035156-.023438.074218-.035157.125-.070313l.007812-.003906.003906-.003907s-.003906.003907.003906 0c.003907-.003906.023438-.011718.039063-.027343l-.019531.011719c.019531-.007813.054687-.023438.089844-.039063.054687-.015625.09375-.046875.148437-.070313l.007813-.007812h.007812l.019531-.011719c.03125-.023437.074219-.035156.125-.070312h.003907l.015624-.007813c.050782-.027344.09375-.039062.152344-.070312.050782-.027344.121094-.054688.1875-.082032.074219-.015624.140625-.039062.199219-.050781h.003906l.003907-.003906c.132812-.039063.269531-.066406.410156-.09375l.203125-.042969h.003906c.277344-.039062.554687-.082031.828125-.097656.195312-.011719.386719-.027344.59375-.027344.277344 0 .539062.015625.8125.042969h.03125c.277344.027344.554688.070313.828125.125.101563.027344.195313.042969.285156.066406h.003907v.003907c.175781.039062.347656.082031.523437.136718l1.148437.4375v-.101562c0-.023438-.007812-.050782-.015624-.066406-.007813-.015626-.011719-.023438-.019532-.03125-.011718-.042969-.027344-.070313-.039062-.105469-.015625-.046875-.023438-.0625-.023438-.089844v-.011719l-.003906-.007812c-.011719-.035156-.007812-.050782-.007812-.089844v-.195312l-.023438.046874c.046875-.046874.035156-.089843.035156-.101562l-.019531.046875c.046875-.046875.035156-.089844.035156-.105469 0-.003906.007813-.046875.023438-.085937.011719-.039063.027343-.066407.042969-.113281.019531-.03125.035156-.066407.046874-.097657.03125-.039062.050782-.074219.058594-.082031l.011719-.011719.007813-.015625c.007812-.027344.023437-.042968.050781-.070312l.085937-.085938c.019532-.019531.046875-.03125.082032-.070312.011718-.011719.054687-.023438.097656-.066406l-.007813.003906c.089844-.0625.203125-.117188.304688-.191406l-.007813.003906c.042969-.023438.074219-.054688.101563-.082032l.082031-.085937c.042969-.042969.058594-.085937.070312-.09375.015626-.015625.023438-.035156.027344-.039063.003906-.007812 0-.003906 0-.003906.015625-.015625.023438-.027344.03125-.039062.003906-.011719.011719-.019532.011719-.015625l.011719-.011719.003906-.015625c.011719-.039063.023438-.0625.039062-.089844v-.003906l.003907-.003906c.011719-.039063.023437-.066407.039062-.113281.019531-.050782.019531-.078126.03125-.109376.015625-.054687.015625-.101562.015625-.140624 0-.003907 0-.007813 0-.007813 0-.007813.003906-.019531.003906-.027344m-1.425781 2.183594c0 .003906.003907.007813.003907.007813v.015624zm.011719.042969c.007812.03125.011719.066406.023438.089844.003906.015624.007812.027343.011718.039062l-.015625-.007812zm-7.554688.996094c-.007812.011718-.015624.019531-.015624.035156zm.140626.003906-.015626.035156c.007813-.011719.015626-.019531.015626-.03125zm12.191406.097656v.003906zm-3.835938 2.699219-.011718.003906c.003906 0 .007812-.003906.011718-.003906zm-10.066406 1.304687c.007812.003906.011719.007813.023438.007813 0 0-.011719 0-.023438-.003907 0-.003906 0-.003906 0-.003906zm0 0" fill="#df234f"/></svg>