<svg height="18" viewBox="0 0 18 18" width="18" xmlns="http://www.w3.org/2000/svg"><path d="m15.800781 0c-.503906-.015625-.988281.164062-1.363281.5-.648438.585938-.796875 1.519531-.410156 2.253906l-1.011719.910156c-.738281-.550781-1.625-.863281-2.546875-.898437-.617188-.027344-1.230469.070313-1.808594.285156-2.242187.828125-3.492187 3.191407-2.941406 5.425781l-1.25.464844c-.332031-.480468-.871094-.777344-1.453125-.800781-.140625-.003906-.277344.015625-.414063.042969l-.242187-.683594c.441406-.304688.652344-.859375.492187-1.382812l.007813-.007813-.015625-.042969c-.171875-.480468-.617188-.78125-1.105469-.804687-.164062-.003907-.332031.019531-.488281.078125-.648438.234375-.996094.945312-.769531 1.585937.191406.539063.726562.84375 1.273437.792969l.242188.683594c-.785156.449218-1.183594 1.390625-.871094 2.257812.347656.96875 1.433594 1.453125 2.410156 1.09375.828125-.304687 1.316406-1.121094 1.242188-1.953125l1.25-.460937c.910156 1.886718 3.039062 2.871094 5.105468 2.402344l.519532 1.453124c-.558594.3125-.988282.820313-1.203125 1.429688l-.636719-.105469c-.046875-.539062-.445312-1.003906-1.007812-1.09375-.675782-.113281-1.328126.339844-1.457032 1.011719s.324219 1.316406 1 1.425781c.566406.09375 1.109375-.214843 1.347656-.710937l.621094.101562c-.035156.355469 0 .71875.125 1.074219.480469 1.335937 1.984375 2.003906 3.332032 1.507813 1.351562-.5 2.070312-1.984376 1.59375-3.320313-.144532-.398437-.386719-.734375-.679688-1.003906l1.433594-2.492188c.539062.082031 1.097656-.183593 1.34375-.699219.300781-.613281.03125-1.367187-.59375-1.640624l-.011719-.003907h-.015625c-.144531-.0625-.296875-.101562-.453125-.105469-.371094-.007812-.726563.164063-.976563.441407l-.839843-.402344c.296875-.917969.316406-1.929687-.03125-2.898437-.195313-.542969-.488281-1.019532-.851563-1.425782l.953125-.855468c.699219.453124 1.652344.394531 2.304688-.195313.773437-.695313.847656-1.886719.152343-2.640625-.347656-.378906-.820312-.578125-1.300781-.59375zm-.007812.140625c.449219.015625.886719.199219 1.207031.546875.644531.699219.574219 1.796875-.144531 2.445312-.621094.5625-1.535157.609376-2.1875.15625l-.042969-.03125-1.125 1.011719.046875.054688c.382813.414062.675781.902343.863281 1.433593.34375.957032.324219 1.960938.015625 2.867188l-.019531.058594 1.035156.496094.035156-.042969c.222657-.273438.5625-.433594.910157-.425781.148437.003906.292969.035156.429687.097656.550782.242187.789063.90625.523438 1.449218-.230469.480469-.796875.71875-1.292969.613282.011719-.042969.003906-.058594 0 0l-1.535156 2.667968.042969.035157c.308593.265625.542968.605469.679687.988281.453125 1.261719-.230469 2.667969-1.507813 3.140625-1.28125.472656-2.699218-.160156-3.152343-1.421875-.121094-.347656-.164063-.714844-.121094-1.078125l.007813-.066406-.839844-.136719-.023438.050781c-.199218.46875-.703125.761719-1.226562.675781-.601563-.097656-1-.667968-.886719-1.261718.117187-.597656.695313-1 1.296875-.902344.507812.082031.886719.507812.90625 1.019531v.058594l.851562.140625.019532-.058594c.203125-.617187.636718-1.132812 1.210937-1.4375l.054688-.03125-.601563-1.671875-.058594.015625c-2.046874.492188-4.167968-.492187-5.042968-2.371094l-.023438-.058593-1.460937.539062.007812.054688c.09375.785156-.371093 1.570312-1.15625 1.859375-.90625.335937-1.914062-.113282-2.234375-1.007813-.292968-.820312.089844-1.722656.859375-2.125l.050781-.03125-.3125-.882812-.054687.007812c-.507813.070313-1.007813-.210937-1.183594-.703125-.203125-.566406.105469-1.199218.683594-1.410156.140625-.050781.289063-.074219.4375-.066406.429687.019531.824219.285156.976563.710937.175781.496094-.035157 1.035157-.46875 1.308594l-.050782.027344.316406.890625.0625-.015625c.144532-.03125.292969-.046875.441407-.042969.558593.023438 1.074219.3125 1.375.78125l.03125.046875 1.464843-.542969-.019531-.058594c-.570312-2.183593.648438-4.511718 2.847657-5.324218.558593-.207032 1.15625-.304688 1.753906-.28125.910156.039062 1.789062.351562 2.515625.90625l.046875.03125 1.167968-1.050782-.027343-.050781c-.386719-.683593-.253907-1.578125.363281-2.136719.347656-.3125.796875-.476562 1.261719-.460937m-1.03125.71875c-.582031.523437-.632813 1.394531-.117188 1.953125.511719.558594 1.398438.589844 1.980469.0625.582031-.523438.632812-1.394531.121094-1.953125-.589844-.640625-1.511719-.492187-1.984375-.0625zm1.015625-.238281c.324218.011718.636718.144531.867187.394531.460938.5.417969 1.28125-.113281 1.757813-.527344.476562-1.324219.445312-1.785156-.054688-.460938-.5-.417969-1.28125.109375-1.757812.253906-.226563.582031-.347657.921875-.339844zm-.023438.269531c-.132812-.003906-.261718.015625-.386718.0625-.511719.191406-.785157.75-.605469 1.253906.183593.503907.746093.757813 1.261719.570313l.042968-.015625v-.011719c.480469-.207031.734375-.742188.558594-1.226562-.132812-.378907-.484375-.617188-.871094-.632813zm-.003906.140625c.328125.011719.628906.214844.746094.539062.152344.429688-.078125.910157-.523438 1.074219v.003907c-.445312.160156-.925781-.054688-1.078125-.488282-.15625-.429687.078125-.910156.519531-1.074218.109376-.039063.222657-.058594.335938-.054688zm-5.316406 2.671875c-.492188-.015625-.984375.066406-1.445313.238281-1.917969.707032-2.921875 2.792969-2.253906 4.652344.664063 1.855469 2.730469 2.792969 4.648437 2.097656h.0625v-.027344c1.886719-.726562 2.867188-2.789062 2.207032-4.632812-.5-1.398438-1.792969-2.273438-3.21875-2.328125zm-.003906.140625c1.371093.050781 2.609374.890625 3.089843 2.234375.644531 1.789063-.316406 3.792969-2.167969 4.476563h-.003906c-1.851562.683593-3.839844-.21875-4.480468-2.007813-.640626-1.785156.316406-3.792969 2.171874-4.476563.441407-.164062.917969-.242187 1.390626-.226562m-.230469.769531c-.308594.003907-.625.058594-.929688.171875-1.410156.519532-2.152343 2.058594-1.660156 3.4375.496094 1.378906 2.042969 2.070313 3.449219 1.550782 1.40625-.519532 2.148437-2.058594 1.65625-3.433594-.386719-1.078125-1.414063-1.738282-2.515625-1.726563zm0 .140625c1.046875-.011718 2.019531.613282 2.382812 1.632813.46875 1.304687-.234375 2.761719-1.574219 3.257812-1.335937.492188-2.796874-.164062-3.265624-1.46875-.46875-1.304687.234374-2.765625 1.574218-3.257812.285156-.105469.582032-.160157.882813-.164063m-8.472657.820313c-.125-.003907-.25.015625-.367187.0625-.492187.175781-.75.710937-.582031 1.1875.167968.472656.699218.714843 1.191406.535156.472656-.171875.71875-.671875.585938-1.136719l.007812-.007812-.015625-.042969c-.125-.355469-.457031-.582031-.820313-.597656zm-.367187.0625.023437-.007813h-.011718zm.363281.078125c.308594.011718.585938.203125.691406.503906.144532.40625-.070312.855469-.496093 1.011719-.421875.152343-.867188-.050781-1.007813-.457031-.144531-.402344.074219-.851563.496094-1.007813.101562-.035156.207031-.054687.316406-.050781zm1.277344 2.90625c-.191406-.003906-.378906.027344-.554688.09375-.738281.269531-1.121093 1.070312-.863281 1.78125.253907.714844 1.050781 1.074218 1.785157.800781.738281-.269531 1.121093-1.070313.863281-1.78125-.191407-.535156-.683594-.875-1.230469-.894531zm-.003906.140625c.492187.019531.933594.320312 1.105468.800781.230469.640625-.113281 1.359375-.78125 1.605469-.667968.246093-1.378906-.078125-1.609374-.71875-.230469-.640625.113281-1.359375.78125-1.605469.160156-.058594.332031-.085938.503906-.082031m13.386718.125c-.378906-.007813-.726562.207031-.890624.546875-.222657.457031-.023438 1.011718.4375 1.214844h.003906c.464844.210937 1.023437 0 1.25-.464844.222656-.460938.023437-1.015625-.4375-1.214844l-.007813-.003906h-.007812l.011719.003906c-.113282-.050781-.234376-.078125-.359376-.082031zm.800782 1.296875v-.003906zm-.804688-1.15625c.105469 0 .210938.023437.308594.066406v.003906c.390625.167969.558594.632813.371094 1.023438l-.003906.003906c-.191407.398438-.667969.574219-1.066407.398438v-.003907c-.390625-.167969-.5625-.632812-.371093-1.023437v-.003906c.144531-.296876.453124-.472657.761718-.464844m-13.410156.003906c-.132812-.003906-.265625.015625-.390625.0625-.511719.191406-.785156.753906-.601563 1.253906.179688.503906.746094.757813 1.257813.570313.511719-.191407.785156-.75.605469-1.253907-.136719-.378906-.488282-.617187-.871094-.632812m11.292969.019531-.03125.0625c-.433594.914063-1.164063 1.660157-2.066407 2.117188l-.054687.027343.625 1.75.054687-.007812c.089844-.007812.175782-.015625.265626-.015625.386718.015625.765624.125 1.097656.3125l.058594.03125 1.496093-2.601563-.050781-.035156c-.34375-.257812-.503906-.707031-.394531-1.128906l.015625-.058594zm-11.300781.121094c.332031.011719.628906.214844.746093.539063.152344.429687-.078125.910156-.519531 1.074218-.445312.164063-.925781-.050781-1.082031-.484375-.152344-.429687.078125-.910156.523437-1.074219.105469-.039062.21875-.058593.332032-.054687zm11.363281.058594.796875.355469c-.089844.4375.066406.886718.410156 1.171874l-1.375 2.386719c-.335938-.171875-.710938-.28125-1.097656-.296875h-.003906c-.074219 0-.148438.003906-.222657.011719l-.550781-1.539063c.882812-.460937 1.597656-1.195312 2.042969-2.089843zm-1.289063 4.289062c-.261718-.007812-.519531.03125-.765625.125-1.015625.375-1.542969 1.472657-1.191406 2.453125.351563.984375 1.445313 1.476563 2.460937 1.101563 1.015626-.375 1.542969-1.472657 1.191407-2.453125-.261719-.738282-.945313-1.199219-1.695313-1.226563m-.007812.140625c.699218.023438 1.328125.449219 1.570312 1.132813.328125.90625-.160156 1.925781-1.105468 2.277343-.949219.351563-1.957032-.109374-2.28125-1.019531-.324219-.90625.160156-1.925781 1.109374-2.277343.226563-.082032.464844-.121094.707032-.113282m-4.460938.0625c-.4375.015625-.824218.332032-.910156.773438-.09375.503906.234375.976562.742188 1.058594.511718.082031 1-.257813 1.097656-.761719.097656-.503907-.234375-.976563-.742188-1.058594h-.011718c-.058594-.007813-.117188-.011719-.175782-.011719m.003906.140625c.054688-.003906.109376 0 .160157.007813.4375.074218.710937.464844.628906.894531s-.503906.722656-.9375.648437c-.433594-.070312-.710937-.460937-.628906-.890624.074219-.375.40625-.644532.777343-.660157m4.417969.246094c-.179687-.007813-.355469.023437-.523437.085937-.691406.253907-1.058594 1.011719-.816406 1.691407.242187.675781 1.003906 1.019531 1.695312.761719h.003906c.691406-.253907 1.054688-1.011719.8125-1.6875-.183594-.511719-.65625-.832032-1.171875-.851563m.355469 2.539063-.023438.007812h.015626zm-.363281-2.398438c.464843.015625.886719.300781 1.046875.757812.21875.601563-.105469 1.28125-.730469 1.511719-.621094.230469-1.300781-.074219-1.515625-.679687-.21875-.605469.109375-1.285156.730469-1.515625.152343-.054688.308593-.082031.46875-.074219zm0 0" fill="#2c7fb8"/></svg>