<svg height="18" viewBox="0 0 18 18" width="18" xmlns="http://www.w3.org/2000/svg"><path d="m15.804688.898438c-.125-.003907-.246094.015624-.363282.058593-.480468.179688-.734375.703125-.566406 1.175781.167969.46875.695312.707032 1.175781.53125.484375-.179687.738281-.707031.570313-1.175781-.128906-.355469-.457032-.578125-.816406-.589843zm-5.59375 3.75c-.3125.003906-.625.0625-.917969.171874-1.382813.507813-2.109375 2.019532-1.625 3.371094.484375 1.351563 1.996093 2.035156 3.382812 1.523438 1.382813-.511719 2.109375-2.023438 1.625-3.375-.375-1.054688-1.382812-1.703125-2.464843-1.691406m-7.292969 4.453124c-.125-.003906-.25.015626-.363281.058594-.484376.179688-.738282.707032-.570313 1.175782.171875.472656.699219.707031 1.179687.53125.484376-.179688.734376-.703126.566407-1.175782-.125-.351562-.453125-.574218-.8125-.589844zm10.097656 5.117188c-.171875-.003906-.339844.023438-.5.082031-.664063.246094-1.011719.96875-.78125 1.613281.234375.648438.957031.972657 1.621094.730469.664062-.246093 1.011719-.96875.777343-1.617187-.171874-.484375-.625-.789063-1.117187-.808594" fill="#ff7f0e"/><path d="m15.851562 0c-.488281-.015625-.960937.15625-1.324218.484375-.648438.585937-.789063 1.523437-.378906 2.242187l-1.09375.984376c-.746094-.566407-1.644532-.886719-2.578126-.925782-.609374-.023437-1.21875.074219-1.792968.285156-2.25.832032-3.5 3.214844-2.910156 5.449219l-1.363282.503907c-.316406-.492188-.859375-.796876-1.441406-.820313-.15625-.003906-.3125.011719-.464844.050781l-.277344-.785156c.464844-.292969.691407-.871094.503907-1.398438-.164063-.457031-.589844-.746093-1.050781-.765624-.160157-.007813-.316407.015624-.464844.070312-.617188.226562-.949219.902344-.734375 1.511719.1875.527343.726562.832031 1.269531.753906l.273438.78125c-.800782.421875-1.203126 1.367187-.894532 2.226563.335938.9375 1.390625 1.410156 2.339844 1.058593.820312-.300781 1.3125-1.125 1.210938-1.949219l1.355468-.5c.894532 1.925782 3.066406 2.933594 5.160156 2.429688l.5625 1.566406c-.59375.316406-1.042968.851563-1.253906 1.492188l-.742187-.121094c-.019531-.550781-.425781-1.007812-.96875-1.097656-.644531-.105469-1.265625.328125-1.386719.964844-.125.640624.304688 1.25.949219 1.355468.558593.089844 1.097656-.222656 1.3125-.722656l.726562.117188c-.042969.367187-.007812.75.125 1.117187.46875 1.308594 1.941407 1.96875 3.265625 1.480469 1.328125-.492188 2.035156-1.949219 1.566406-3.257813-.144531-.394531-.386718-.75-.707031-1.023437l1.488281-2.589844-.007812-.003906c.535156.109375 1.097656-.15625 1.34375-.664063.285156-.585937.027344-1.296875-.5625-1.558593h-.003906c-.140625-.066407-.296875-.097657-.457032-.101563-.371093-.007813-.734374.160156-.972656.453125l-.9375-.449219c.3125-.929687.335938-1.953125-.015625-2.9375-.195312-.542969-.496093-1.042969-.886719-1.46875l1.039063-.9375c.683594.476563 1.640625.425781 2.292969-.164062.75-.675781.824218-1.828125.148437-2.5625-.335937-.363281-.796875-.558594-1.265625-.574219zm-.019531.488281c.34375.011719.675781.152344.921875.417969.492188.535156.445313 1.363281-.117187 1.871094-.558594.503906-1.40625.472656-1.898438-.058594-.488281-.535156-.441406-1.367188.117188-1.871094.265625-.242187.617187-.371094.976562-.359375zm-5.390625 3.246094c1.410156.050781 2.6875.917969 3.179688 2.296875.660156 1.839844-.328125 3.898438-2.226563 4.601562-1.902343.703126-3.953125-.226562-4.613281-2.066406-.65625-1.835937.332031-3.898437 2.230469-4.601562.457031-.167969.945312-.246094 1.429687-.230469m-8.773437 1.886719c.339843.011718.644531.222656.761719.554687.15625.441407-.082032.9375-.542969 1.105469-.457031.167969-.949219-.054688-1.105469-.5-.160156-.441406.082031-.9375.539062-1.105469h.003907c.109375-.042969.226562-.0625.34375-.054687m1.28125 3.070312c.523437.015625.996093.339844 1.179687.851563.246094.679687-.121094 1.445312-.828125 1.707031-.710937.261719-1.46875-.082031-1.710937-.765625-.246094-.679687.121094-1.445313.828125-1.707031.171875-.0625.351562-.09375.53125-.085938m13.488281.265625c.117188 0 .230469.027344.335938.074219h.003906c.429687.1875.613281.703125.40625 1.128906v.003906c-.210938.433594-.734375.628907-1.167969.433594h-.003906c-.429688-.1875-.613281-.703125-.40625-1.128906v-.003906c.160156-.324219.492187-.515625.832031-.507813zm-2.101562.1875.90625.402344c-.117188.453125.054687.9375.425781 1.214844l-1.441407 2.503906c-.347656-.191406-.738281-.304687-1.140624-.320313-.089844 0-.183594.007813-.273438.015626l-.59375-1.652344c.925781-.46875 1.671875-1.230469 2.117188-2.164063zm-1.273438 4.480469c.730469.023438 1.390625.472656 1.644531 1.1875.34375.953125-.167969 2.019531-1.15625 2.386719-.988281.363281-2.046875-.117188-2.390625-1.066407-.339844-.953124.171875-2.023437 1.160156-2.386718.238282-.089844.488282-.128906.742188-.121094m-4.5.207031c.058594-.003906.117188 0 .179688.007813.472656.078125.777343.515625.6875.984375-.089844.46875-.546876.789062-1.023438.710937s-.78125-.511718-.691406-.980468c.078125-.414063.441406-.707032.847656-.722657" fill="#2c7fb8"/></svg>