<svg height="18" viewBox="0 0 18 18" width="18" xmlns="http://www.w3.org/2000/svg"><path d="m9 0c-4.96875 0-9 4.03125-9 9s4.03125 9 9 9c1.777344-.003906 3.515625-.535156 4.992188-1.523438h.003906l.050781-.042968-.078125-.113282-7.410156-9.570312v5.75h-1.0625v-7.003906h1.398437l7.910157 10.1875.089843.113281.050781-.046875.003907-.003906c1.9375-1.707032 3.046875-4.164063 3.050781-6.746094 0-4.96875-4.03125-9-9-9m0 .140625c4.894531 0 8.859375 3.964844 8.859375 8.859375 0 2.515625-1.074219 4.914062-2.949219 6.59375l-7.945312-10.234375h-1.605469v7.277344h1.339844v-5.476563l7.152343 9.238282c-1.441406.949218-3.125 1.457031-4.851562 1.460937-4.894531 0-8.859375-3.964844-8.859375-8.859375s3.964844-8.859375 8.859375-8.859375m2.410156 5.21875v5.335937l1.332032 1.746094v-7.082031zm.140625.136719h1.050781v6.53125l-1.050781-1.378906zm0 0"/></svg>