<svg height="18" viewBox="0 0 18 18" width="18" xmlns="http://www.w3.org/2000/svg"><path d="m9.015625 17.804688-.015625-.015626-.015625.015626v-.015626l-7.015625-3.824218-1.179688-10.914063 8.195313-2.839843v-.015626h.03125v.015626l8.195313 2.839843-1.179688 10.914063-7.015625 3.824218zm4.089844-11.574219-.011719-.015625zm0 0c.460937 1.667969-.105469 3.125-1.699219 4.371093.589844.105469 1.148438-.054687 1.671875-.476562-.917969.9375-1.894531 1.421875-2.925781 1.449219.402344.457031.9375.679687 1.605468.660156-1.53125.355469-2.894531-.179687-4.09375-1.601563-.085937.390626.167969.871094.746094 1.433594-1.191406-.554687-1.785156-1.445312-1.785156-2.671875-.019531-1.332031.679688-2.199219 2.09375-2.601562 2.699219 1.113281 4.117188 1.144531 4.246094.082031-.113282-.804688-.75-1.550781-1.910156-2.234375-.816407-.46875-1.617188-.679687-2.40625-.632813-.320313-.328124-.683594-.484374-1.097657-.464843-.28125 0-.503906.085937-.660156.253906-.238281.253906-.648437.800781-1.378906.859375-.496094.035156-.738281.273438-.730469.714844.007812.449218-.007812.703125-.054688.761718-.046874.101563-.195312.257813-.4375.460938-.242187.199219-.367187.390625-.367187.578125.019531.375.089844.652344.210937.828125.058594.265625.035157.46875-.070312.621094-.140625.210937-.222656.28125-.179688.503906.054688.226562.054688.28125.574219.832031.320313 1.011719.90625 1.851563 1.757813 2.515625 0 0 1.335937 1.238282 3.417968 1.238282 2.148438-.101563 3.617188-1.121094 4.414063-3.050782-.75.5625-1.351563.863282-1.8125.898438 1.433594-.804688 2.066406-1.980469 1.898437-3.527344-.394531.757812-.742187 1.253906-1.039062 1.488281.402344-.636719.597656-1.242187.589844-1.8125-.019532-.5625-.210938-1.054687-.578125-1.476562m-2.894531-.199219c-.128907 0-.242188-.109375-.242188-.238281 0-.125.113281-.222657.242188-.222657.125 0 .222656.097657.222656.222657 0 .128906-.097656.238281-.222656.238281"/></svg>