<svg height="18" viewBox="0 0 18 18" width="18" xmlns="http://www.w3.org/2000/svg"><path d="m9.167969.523438c-2.527344 0-4.808594 1.132812-6.359375 2.921874.230468.015626.457031.054688.675781.117188h.007813c1.433593-1.507812 3.449218-2.457031 5.675781-2.457031h.027343c4.316407 0 7.851563 3.539062 7.851563 7.878906s-3.535156 7.875-7.851563 7.875h-.027343c-4.316407 0-7.851563-3.535156-7.851563-7.875 0-.617187.074219-1.21875.210938-1.796875-.078125-.519531-.175782-.90625-.285156-1.089844-.339844.925782-.511719 1.902344-.511719 2.886719 0 4.660156 3.804687 8.445313 8.4375 8.445313h.027343c4.632813 0 8.445313-3.785157 8.445313-8.445313s-3.8125-8.460937-8.445313-8.460937zm.339843 1.355468c-.785156.027344-1.570312.15625-2.1875.355469-.976562.316406-1.039062.320313-1.941406.859375-.148437.082031-.382812.09375-.617187.113281-.234375.023438-.480469.058594-.621094.246094-.074219.09375-.09375.207031-.078125.316406.019531.105469.0625.210938.113281.316407.105469.207031.230469.417968.242188.585937v-.003906c0 .007812 0 .019531.007812.039062.007813.015625.03125.042969.054688.046875.019531.003906.039062 0 .058593-.011718.007813-.003907.015626-.011719.023438-.015626.027344-.027343.050781-.058593.078125-.101562.058594-.085938.136719-.214844.210937-.339844.027344-.046875.050782-.078125.078126-.125-.039063.136719-.054688.242188-.113282.40625-.113281.308594-.238281.640625-.277344.921875-.074218.527344-.019531 1.53125.085938 2.535157.105469 1 .253906 1.992187.378906 2.492187l.003906.003906c.011719.035157.039063.066407.066407.082031.03125.015626.0625.019532.097656.023438.0625.003906.132813-.007812.207031-.023438.144532-.03125.289063-.085937.355469-.113281l-.019531.003907c.085937-.007813.140625-.070313.195312-.144532.050782-.070312.097656-.160156.152344-.253906.101562-.183594.21875-.382812.34375-.464844.640625-.457031 1.132812-.980468 1.589844-1.40625.457031-.429687.878906-.757812 1.382812-.851562.914063-.167969 2.042969.390625 2.4375 1.132812.21875.410156.382813.875.382813 1.140625 0 .058594-.011719.078125-.019531.113281-.136719-.378906-.269532-.726562-.40625-.996093-.144532-.292969-.285157-.515625-.433594-.636719-.320313-.257812-.5625-.429688-.84375-.511719-.285156-.078125-.601563-.066406-1.070313.03125l-.003906.003907c-.503906.113281-1.183594.609374-1.820313 1.171874-.636718.558594-1.226562 1.1875-1.511718 1.585938-.179688.246094-.296875.570312-.34375.886719-.042969.316406-.015625.621093.121094.828125v.003906c.382812.550781.734374.910156 1.160156 1.140625.429687.226563.925781.324219 1.601562.375h.003906c-.019531 0-.007812 0 .003907.003906.011719.007813.027343.015625.046875.027344.039062.023437.085937.054687.125.085937v.003907c-.792969-.011719-1.402344-.121094-1.933594-.441407-.558594-.332031-1.050781-.890624-1.621094-1.789062-.050781-.082031-.152344-.316406-.242187-.550781-.078125-.191407-.148438-.382813-.214844-.578125v-.003906c-.453125-1.214844-.335937-3.289063-.582031-4.960938-.074219-.488281-.167969-1.058594-.425782-1.421875-.117187-.171875-.355468-.273437-.644531-.335937-.289062-.066407-.636719-.085938-.984375-.066407-.347656.015625-.691406.070313-.976562.160157-.277344.089843-.496094.207031-.601563.382812-.097656.070312-.171875.140625-.203125.222656-.019531.042969-.023437.09375-.003906.136719.015625.046875.050781.082031.097656.113281.632813.476563.945313.976563 1.109375 1.484375.164063.507813.175781 1.03125.199219 1.558594.050781 1.363281.050781 2.375.542969 3.65625.984375 2.679687 3.199219 4.457031 5.691406 4.800781 3.023437.441406 5.226563-.769531 6.871094-2.855468 1.484375-1.878907 1.726562-4.777344.9375-6.996094l-.015625-.046875h-.003906c-.652344-1.804688-2.191407-3.363281-4.121094-4.070313-.609375-.222656-1.394532-.304687-2.175782-.28125m.003907.144532c.773437-.023438 1.539062.054687 2.125.269531 1.90625.699219 3.429687 2.25 4.054687 4.03125v.003906c.773438 2.171875.527344 5.027344-.917968 6.859375-1.621094 2.058594-3.761719 3.238281-6.738282 2.800781-2.4375-.335937-4.613281-2.074219-5.582031-4.710937-.480469-1.257813-.480469-2.246094-.53125-3.613282-.023437-.523437-.035156-1.0625-.207031-1.59375-.171875-.535156-.507813-1.0625-1.164063-1.558593h-.003906c-.027344-.019531-.039063-.035157-.039063-.046875-.003906-.007813-.007812-.015625 0-.035156.015626-.035157.074219-.101563.167969-.171876l.011719-.007812.007812-.011719c.066407-.125.265626-.246093.53125-.332031.269532-.085938.605469-.136719.941407-.15625.335937-.015625.671875.007812.945312.066406.273438.058594.480469.160156.558594.277344v.003906c.230469.320313.332031.875.402344 1.359375.242187 1.648438.117187 3.714844.589843 4.988281v.003907c.039063.109375.125.347656.214844.582031.09375.234375.1875.464844.257813.574219v.003906c.574219.90625 1.082031 1.484375 1.664062 1.832031.585938.351563 1.242188.46875 2.101563.46875.03125 0 .066406-.003906.097656-.039062.011719-.019532.019531-.042969.015625-.0625 0-.015625-.007813-.03125-.011719-.042969-.027344-.046875-.0625-.078125-.109375-.113281-.042969-.039063-.089843-.070313-.136719-.101563-.019531-.011719-.039062-.023437-.058593-.03125-.019531-.011719-.027344-.019531-.066407-.019531h.007813c-.667969-.046875-1.144531-.144531-1.546875-.359375s-.734375-.554687-1.109375-1.097656c-.105469-.15625-.140625-.4375-.097656-.730469.039062-.292969.152343-.601562.316406-.820312v-.003907c.273437-.378906.859375-1.007812 1.492187-1.5625.628907-.554687 1.3125-1.039062 1.757813-1.140625h.003906c.457031-.097656.746094-.105468 1-.035156.253907.070312.476563.230469.792969.484375.117188.097656.257812.304687.398438.589844.140624.285156.285156.648437.429687 1.0625h.003906v.003906c.015625.039063.039063.082031.09375.089844.027344.003906.050781-.003907.074219-.019531.015625-.011719.027344-.027344.039062-.042969.035157-.066407.050782-.15625.050782-.273438 0-.320312-.175782-.785156-.398438-1.203125-.433594-.816406-1.597656-1.386718-2.589844-1.210937-.546874.105469-.988281.457031-1.453124.886719-.460938.433593-.945313.949218-1.570313 1.394531-.171875.113281-.285156.328125-.390625.515625-.050781.09375-.097656.179687-.144531.238281-.042969.0625-.082031.085937-.09375.089844h-.007813l-.011718.003906c-.058594.023437-.203126.078125-.332032.105469-.066406.015625-.128906.023437-.167968.019531-.011719 0-.027344-.003906-.039063-.007813-.003906-.003906 0 0 0 0-.121094-.484374-.273437-1.472656-.375-2.46875-.105469-1-.15625-2.007812-.085937-2.5.035156-.257812.152343-.585937.265624-.894531.113282-.308593.222657-.589843.222657-.800781 0-.011719 0-.023438-.011719-.042969-.011719-.023437-.050781-.042969-.074219-.039062-.046875.003906-.050781.023437-.0625.035156-.023437.027344-.046875.058594-.074219.105469-.058593.085937-.136718.214844-.210937.339844-.078125.128906-.152344.253906-.210937.335937-.042969-.183594-.140626-.359375-.21875-.523437-.050782-.101563-.089844-.195313-.101563-.277344-.011719-.078125 0-.144532.046875-.207032.101562-.132812.296875-.167968.523438-.191406.230468-.019531.480468-.023437.675781-.132812.902343-.535156.9375-.53125 1.914062-.847656.601563-.191407 1.378907-.320313 2.148438-.34375m-1.984375 1.558593c-.046875.003907-.09375.011719-.136719.023438-.179687.046875-.347656.148437-.488281.277343-.097656.097657-.140625.257813-.175782.421876-.035156.164062-.054687.328124-.066406.425781l.136719.027343c.09375-.371093.347656-.617187.609375-.683593h.007812c.046876-.015625.128907-.019531.199219-.019531 0 .003906.003907.007812.003907.019531.003906.027343.003906.082031.003906.140625 0 .054687-.003906.117187 0 .179687.003906.058594.015625.117188.054687.167969.085938.105469.21875.117188.324219.140625.054688.007813.101562.019531.128906.035156.03125.011719.039063.023438.046875.042969.027344.21875-.046875.359375-.179687.476562-.128906.121094-.320313.210938-.492188.296876l.039063.132812c.21875-.023438.472656-.101562.679687-.234375.210938-.136719.382813-.339844.40625-.609375v-.003906c.015625-.265625-.035156-.492188-.15625-.679688-.117187-.191406-.296875-.34375-.535156-.480468-.082031-.050782-.175781-.085938-.269531-.097657-.046875-.003906-.09375-.003906-.140625 0zm.011718.140625c.113282-.011718.230469.015625.328126.078125.226562.128907.386718.269531.488281.433594.101562.164063.144531.351563.132812.597656-.019531.21875-.152343.378907-.339843.5-.015626.011719-.035157.015625-.050782.023438.152344-.140625.253906-.339844.214844-.601563v-.011718c-.019531-.0625-.070312-.105469-.121094-.132813-.050781-.023437-.109375-.035156-.164062-.046875-.105469-.019531-.203125-.042969-.242188-.085938-.007812-.011718-.019531-.046874-.023437-.09375-.003907-.046874 0-.109374 0-.167968 0-.054688.003906-.113282-.003907-.167969-.003906-.027344-.015624-.050781-.027343-.078125-.019531-.027344-.050781-.046875-.082031-.054688h-.015626c-.070312 0-.171874-.003906-.261718.027344-.183594.046875-.351563.167969-.484375.335938.03125-.125.070312-.25.113281-.292969.128906-.113281.277344-.207031.425781-.242187.035157-.011719.074219-.019532.113281-.019532m-.347656 2.457032c-.003906.007812-.003906.007812-.007812.011718v.003906c-.164063.179688-.253906.328126-.320313.460938-.066406.132812-.121093.253906-.238281.40625v.003906c-.160156.230469-.386719.457032-.5.617188l-.023438.011718v.273438l.121094-.179688c.378906-.195312.523438-.402343.632813-.511718.144531-.160156.1875-.304688.226562-.457032.039063-.15625.078125-.320312.222657-.554687zm-.25.621093c-.035156.140625-.070312.25-.1875.378907-.070312.070312-.136718.152343-.234375.238281.085938-.097657.144531-.164063.21875-.269531h.003907c.097656-.132813.148437-.242188.199218-.347657zm0 0" fill="#903a36"/></svg>