<svg height="18" viewBox="0 0 18 18" width="18" xmlns="http://www.w3.org/2000/svg"><path d="m9.011719 2.804688v.125c-.027344.019531-.660157.519531-1.332031 1.035156-.957032-.003906-1.910157.132812-2.828126.40625-.679687-.433594-1.285156-.910156-1.285156-.910156l-.0625-.050782-.039062.070313s-.515625.886719-.84375 1.414062c-.492188.25-.953125.558594-1.378906.910157-.234376-.09375-.46875-.1875-.703126-.285157-.109374-.042969-.199218-.082031-.265624-.109375l-.078126-.03125c-.019531-.007812-.023437-.007812-.039062-.015625l-.15625-.050781.0742188.148438c.6718752 1.355468 1.1289062 2.734374 2.3828122 3.566406l.058594.039062.039063-.058594c.476562-.753906 1.398437-1.3125 2.554687-1.675781 1.152344-.363281 2.53125-.527343 3.914063-.511719 1.378906.015626 2.761718.214844 3.921874.585938 1.15625.367188 2.089844.90625 2.574219 1.585938l.035157.050781.054687-.03125c1.320313-.691407 1.832031-2.164063 2.339844-3.503907l.050781-.136718-.136719.042968c-.058593.019532-.710937.242188-1.160156.410157-.375-.351563-.785156-.660157-1.222656-.925781-.339844-.625-.828125-1.453126-.828125-1.453126l-.039063-.066406-.0625.046875s-.582031.429688-1.246093.894531c-.957032-.214843-1.9375-.320312-2.921876-.320312-.621093-.515625-1.257812-1.089844-1.257812-1.089844zm.066406.246093c.042969.039063.621094.5625 1.234375 1.070313l.019531.015625h.023438c.996093 0 1.984375.105469 2.953125.324219l.03125.007812.023437-.019531c.40625-.285157.808594-.574219 1.207031-.867188.039063.070313.472657.804688.796876 1.398438l.007812.015625.015625.007812c.449219.269532.867187.589844 1.25.949219l.03125.03125.039063-.015625c.394531-.152344.882812-.316406 1.054687-.371094-.484375 1.285156-.992187 2.617188-2.175781 3.265625-.523438-.695312-1.457032-1.226562-2.605469-1.589843-1.171875-.375-2.566406-.574219-3.960937-.59375-1.394532-.015626-2.785157.152343-3.957032.519531-1.140625.359375-2.066406.910156-2.582031 1.675781-1.121094-.773438-1.582031-2.023438-2.207031-3.308594l.207031.082032c.214844.089843.488281.199218.746094.300781l.035156.015625.035156-.027344c.429688-.363281.898438-.675781 1.402344-.929688l.015625-.007812.011719-.015625c.316406-.507813.773437-1.292969.816406-1.371094.054687.046875.585937.464844 1.253906.890625l.027344.015625.027344-.007812c.925781-.277344 1.886719-.414063 2.851562-.410157h.023438l.019531-.011718c.671875-.519532 1.285156-1.003906 1.328125-1.039063zm8.179687 5.203125c-.765624 1.019532-1.753906 1.851563-2.890624 2.429688-.59375.242187-1.214844.40625-1.851563.492187l-3.472656-1.796875-3.496094 1.761719c-.632813-.097656-1.253906-.257813-1.851563-.476563-1.09375-.589843-2.050781-1.402343-2.808593-2.390624l-.117188.070312 1.621094 3.929688.007813.007812c1.421874 1.875 3.9375 2.871094 6.492187 2.914062 2.554687.039063 5.152344-.875 6.734375-2.84375l.007812-.007812.003907-.007812c.738281-1.667969 1.738281-4.011719 1.738281-4.011719zm-16.195312.4375c.722656.851563 1.585938 1.566406 2.570312 2.097656l.007813.007813c.617187.222656 1.253906.386719 1.90625.484375l.019531.003906 3.476563-1.75 3.449219 1.785156h.023437c.65625-.089843 1.296875-.257812 1.90625-.507812h.003906l.003907-.003906c1.011718-.519532 1.902343-1.242188 2.632812-2.109375-.179688.417969-.890625 2.085937-1.550781 3.574219-1.546875 1.921874-4.101563 2.824218-6.617188 2.78125-2.519531-.039063-4.992187-1.023438-6.382812-2.851563zm0 0" fill="#ffe953"/></svg>