<svg height="18" viewBox="0 0 18 18" width="18" xmlns="http://www.w3.org/2000/svg"><path d="m.316406 4.277344v8.648437l8.683594 3.429688v-9.136719zm2.609375 3.1875.3125.425781c.214844-.035156.433594-.074219.6875-.011719l.320313-.398437.332031.519531c.269531.03125.503906.164062.75.289062l.367187-.332031.222657.679688c.234375.226562.300781.339843.394531.488281l.347656-.125-.203125 1.121094-.015625.039062-.425781 1.542969c-.304687.785156-1.210937.914063-1.769531.726563-.535156-.179688-1.332032-.839844-1.582032-1.710938l-.332031-1.554688-.011719-.042968-.15625-1.042969.265626.226563c.074218-.097657.125-.175782.3125-.300782zm.878907 1.292968c-.601563.023438-1.035157.378907-1.136719.855469l.304687.6875.433594.3125.839844-.476562.894531.96875.5-.070313.371094-.570312c-.15625-.722656-.910157-1.480469-1.765625-1.664063-.144532-.035156-.292969-.046875-.441406-.042969m13.878906-4.480468-8.683594 2.941406v9.136719l8.683594-3.429688zm-3.230469 1.097656.003906 2.320312s-.242187.105469-.445312.296876c-.132813.125-.484375-.023438-.734375-.097657-.097656-.027343-.371094.289063-.371094.289063v-2.285156zm0 0"/><path d="m9.015625 1.421875-4.796875 1.578125 1.554688-.511719 8.683593 2.886719 3.238281-1.097656zm-4.796875 1.578125-3.886719 1.277344 8.683594 2.941406 3.898437-1.320312zm0 0"/></svg>