<svg height="18" viewBox="0 0 18 18" width="18" xmlns="http://www.w3.org/2000/svg"><path d="m9 7.21875-8.683594-2.941406v8.648437l8.683594 3.429688zm0 0"/><path d="m17.683594 4.277344-8.683594 2.941406v9.136719l8.683594-3.429688zm0 0" fill="#1c1c1c"/><path d="m17.695312 4.277344-8.679687-2.855469-8.683594 2.855469 8.683594 2.941406zm0 0" fill="#353338"/><path d="m12.90625 8.183594s.273438-.316406.371094-.289063c.25.074219.601562.222657.734375.097657.203125-.191407.445312-.296876.445312-.296876l-.003906-2.320312-1.546875.523438zm0 0" fill="#c5b514"/><path d="m5.773438 2.488281 8.683593 2.886719-1.542969.523438-8.695312-2.898438zm0 0" fill="#eed714"/><g fill="#f5e83f"><path d="m6.015625 10.480469c-.152344-.730469-.910156-1.496094-1.769531-1.679688-.828125-.179687-1.460938.230469-1.582032.820313l-.144531.15625-.199219-.65625-.15625-1.042969.265626.226563c.074218-.097657.125-.175782.3125-.300782l.183593-.539062.3125.425781c.214844-.035156.433594-.074219.6875-.011719l.320313-.398437.332031.519531c.269531.03125.503906.164062.75.289062l.367187-.332031.222657.679688c.234375.226562.300781.339843.394531.488281l.347656-.125-.203125 1.121094-.261719.621094zm0 0"/><path d="m6.226562 10.59375-.210937-.132812-.375.574218-.5.070313-.894531-.96875-.839844.476562-.433594-.3125-.308594-.695312-.167968.027343-.175782-.527343.34375 1.613281c.25.871094 1.042969 1.53125 1.582032 1.710938.558594.1875 1.464844.0625 1.769531-.726563l.441406-1.601563zm0 0"/></g></svg>