<svg height="18" viewBox="0 0 18 18" width="18" xmlns="http://www.w3.org/2000/svg"><g fill="#5277c3" fill-rule="evenodd"><path d="m5.601562 9.207031 4.246094 7.402344-1.949218.019531-1.136719-1.988281-1.140625 1.976563h-.96875l-.5-.863282 1.628906-2.816406-1.15625-2.023438zm1.53125-3.050781-4.246093 7.402344-.992188-1.691406 1.144531-1.980469-2.273437-.007813-.484375-.84375.496094-.867187 3.234375.011719 1.164062-2.019532zm.328126 5.917969h8.496093l-.960937 1.710937-2.28125-.003906 1.132812 1.984375-.484375.84375h-.992187l-1.609375-2.824219-2.316407-.003906zm4.945312-3.246094-4.25-7.402344 1.953125-.019531 1.132813 1.988281 1.144531-1.976562h.96875l.496093.863281-1.628906 2.816406 1.15625 2.023438zm0 0"/><path d="m5.601562 9.207031 4.246094 7.402344-1.949218.019531-1.136719-1.988281-1.140625 1.976563h-.96875l-.5-.863282 1.628906-2.816406-1.15625-2.023438zm4.933594-3.265625h-8.496094l.960938-1.710937 2.277344.007812-1.128906-1.984375.484374-.847656h.992188l1.609375 2.824219 2.316406.007812zm.332032 5.9375 4.246093-7.40625.992188 1.695313-1.144531 1.980469 2.273437.007812.484375.84375-.496094.867188-3.234375-.011719-1.164062 2.019531zm0 0"/></g></svg>