<svg height="18" viewBox="0 0 18 18" width="18" xmlns="http://www.w3.org/2000/svg"><path d="m16.246094 4.347656-6.839844-3.949218c-.253906-.15625-.574219-.15625-.828125 0l-6.824219 3.949218c-.257812.144532-.414062.414063-.414062.714844v7.886719c0 .296875.15625.570312.414062.714843l6.824219 3.949219c.257813.140625.570313.140625.828125 0l6.839844-3.949219c.257812-.144531.414062-.417968.414062-.714843v-7.886719c0-.300781-.15625-.570312-.414062-.714844zm-2.574219 9.644532c0 .085937-.058594.171874-.128906.214843-.070313.042969-.171875.042969-.257813 0l-2.460937-1.417969c-.15625-.085937-.257813-.257812-.257813-.429687v-3.003906c0-.1875-.085937-.34375-.242187-.441407l-1.046875-.601562c-.085938-.042969-.171875-.074219-.257813-.074219-.085937 0-.171875.03125-.242187.074219l-1.058594.601562c-.15625.097657-.242188.253907-.242188.441407v3.003906c0 .171875-.101562.34375-.257812.429687l-2.460938 1.417969c-.085937.042969-.171874.042969-.257812 0-.070312-.042969-.113281-.128906-.113281-.214843l-.015625-6.4375c0-.171876.101562-.34375.257812-.429688l.300782-.171875c-.472657-.703125-.757813-1.730469-.402344-3.292969 0 0 .789062 2.21875 2.375 2.148438l1.875-1.074219c.070312-.042969.144531-.058594.230468-.070313h.042969c.070313.011719.15625.027344.226563.070313l1.859375 1.074219c1.589843.070312 2.375-2.148438 2.375-2.148438.359375 1.5625.074219 2.589844-.398438 3.292969l.3125.171875c.160157.085938.246094.257812.246094.429688zm0 0" fill="#76d04b"/></svg>