<svg height="18" viewBox="0 0 18 18" width="18" xmlns="http://www.w3.org/2000/svg"><path d="m9 0c-.136719 0-.273438.0351562-.390625.105469l-7 4.0625 2.449219 4.492187 5.023437-8.6523435c-.027343-.00390625-.054687-.0078125-.082031-.0078125zm.324219.0859375 4.949219 8.5195315 2.328124-4.285157c-.042968-.042968-.09375-.082031-.144531-.113281l-3.605469-2.09375-3.472656-2.007812c-.015625-.0078128-.035156-.011719-.054687-.0195315zm-.144531.0351565-5.042969 8.683594 5.003906 9.179687c.011719-.003906.027344-.003906.042969-.007813l5.011718-9.226562zm-7.691407 4.121094c-.210937.144531-.332031.386718-.332031.648437v8.222656c0 .128907.039062.257813.097656.371094l2.71875-4.679687zm15.210938.199218-2.339844 4.304688 2.484375 4.277344v-8.132813c0-.164063-.054688-.320313-.144531-.449219zm-2.417969 4.453125-4.898438 9.007813.007813-.003906 7.066406-4.105469c.199219-.109375.324219-.300781.367188-.519531zm-10.226562.054688-2.710938 4.667969c.054688.070312.121094.132812.199219.179687l6.988281 4.058594.074219.042969h.003906c.035156.019531.074219.035156.113281.050781.019532.007812.039063.015625.058594.023437.019531.003906.035156.007813.054688.011719.03125.007813.066406.011719.101562.015625h.050781zm0 0" fill="#5fa04e"/></svg>