<svg height="18" viewBox="0 0 18 18" width="18" xmlns="http://www.w3.org/2000/svg"><path d="m8.992188.28125c-.167969 0-.335938.046875-.480469.136719l-6.710938 3.882812c-.296875.164063-.480469.480469-.480469.824219v7.757812c0 .34375.183594.660157.480469.828126l6.714844 3.882812c.296875.167969.65625.167969.953125 0l6.730469-3.882812c.296875-.167969.480469-.484376.480469-.828126v-7.757812c0-.34375-.183594-.660156-.480469-.824219l-6.726563-3.882812c-.144531-.089844-.308594-.136719-.480468-.136719zm0 .277344c.117187 0 .230468.03125.335937.097656l6.734375 3.886719c.210938.117187.335938.335937.335938.582031v7.757812c0 .246094-.125.46875-.335938.582032l-6.730469 3.886718c-.210937.117188-.46875.117188-.679687 0l-6.714844-3.886718c-.210938-.113282-.335938-.335938-.335938-.582032v-7.757812c0-.246094.125-.464844.335938-.582031l6.71875-3.886719c.101562-.0625.21875-.097656.335938-.097656m-4.421876 2.6875-.105468.46875c-.339844 1.476562-.09375 2.496094.34375 3.214844l-.175782.101562c-.199218.109375-.324218.316406-.328124.542969l.015624 6.335937c0 .132813.058594.261719.179688.332032l.003906.003906h.003906c.121094.058594.261719.058594.378907 0h.003906l2.421875-1.394532c.203125-.109374.324219-.316406.328125-.546874v-2.953126c0-.140624.054687-.246093.175781-.320312l1.035156-.589844h.003907c.050781-.03125.113281-.050781.164062-.050781.054688 0 .117188.019531.191407.054687l1.015624.585938c.121094.074219.175782.179688.175782.320312v2.953126c0 .222656.125.4375.324218.546874l2.425782 1.394532h.003906c.121094.0625.265625.066406.386719-.003906.113281-.066407.195312-.183594.195312-.332032l-.003906-6.335937c0-.214844-.105469-.433594-.308594-.542969l-.191406-.105469c.4375-.714843.683594-1.734375.34375-3.210937l-.109375-.46875-.160156.453125s-.1875.527343-.5625 1.046875c-.371094.511718-.90625.988281-1.609375.96875l-1.792969-1.035156.003906.003906c-.101562-.0625-.203125-.074219-.269531-.089844h-.09375c-.085937.015625-.179687.03125-.273437.089844l-1.804688 1.03125c-.703125.019531-1.238281-.457032-1.609375-.96875-.375-.519532-.566406-1.046875-.566406-1.046875zm.101563.984375c.097656.199219.21875.433593.398437.679687.402344.554688 1.027344 1.125 1.875 1.085938h.03125l1.875-1.074219c.046876-.027344.09375-.039063.171876-.050781h.007812c.070312.015625.132812.027344.171875.050781l1.863281 1.074219h.03125c.847656.039062 1.472656-.53125 1.875-1.085938.179688-.246094.300782-.480468.398438-.679687.191406 1.238281-.042969 2.089843-.4375 2.675781l-.085938.128906.441406.242188c.105469.054687.167969.175781.167969.296875v6.335937c0 .023438-.03125.074219-.058593.09375-.019532.011719-.074219.015625-.117188-.007812l-2.417969-1.390625c-.109375-.058594-.183593-.183594-.183593-.300781v-2.953126c.003906-.226562-.113282-.4375-.300782-.554687l-.003906-.003906-1.035156-.59375-.003906-.003907c-.09375-.046874-.199219-.082031-.316407-.082031-.113281 0-.21875.035157-.308593.089844l-1.042969.589844-.003907.003906c-.1875.117187-.304687.328125-.304687.554687v2.953126c0 .117187-.070313.242187-.179687.300781l-2.417969 1.390625c-.046875.027344-.074219.023437-.121094 0-.023437-.019532-.039063-.050782-.042969-.085938l-.011718-6.335937c0-.113281.070312-.238281.179687-.296875v-.003906l.429687-.242188-.085937-.125c-.394531-.585938-.628906-1.4375-.4375-2.675781zm0 0" fill="#76d04b"/></svg>