<svg height="18" viewBox="0 0 18 18" width="18" xmlns="http://www.w3.org/2000/svg"><g fill="#3d3b47"><path d="m16.1875 3.992188-6.78125-3.9062505c-.152344-.0859375-.351562-.1289063-.546875-.1289063s-.394531.0429688-.546875.1289063l-6.78125 3.9062505c-.308594.183593-.546875.605468-.546875.945312v7.832031c0 .351563.238281.773438.546875.941407l6.78125 3.921874c.152344.085938.351562.128907.546875.128907s.394531-.042969.546875-.128907l6.78125-3.921874c.292969-.167969.546875-.589844.546875-.941407v-7.832031c0-.339844-.238281-.761719-.546875-.945312m.125 8.789062c0 .199219-.167969.480469-.335938.578125l-6.78125 3.921875c-.082031.042969-.210937.070312-.335937.070312s-.253906-.027343-.335937-.070312l-6.78125-3.921875c-.167969-.097656-.335938-.378906-.335938-.578125v-7.84375c0-.199219.167969-.480469.335938-.578125l6.78125-3.910156c.082031-.042969.210937-.070313.335937-.070313s.253906.027344.335937.070313l6.78125 3.910156c.167969.097656.335938.378906.335938.578125zm-6.890625-4.246094c-.113281-.183594-.296875-.335937-.519531-.351562l-.042969-.027344c-.335937 0-.617187.296875-.648437.632812-.011719.125.015624.265626.085937.378907.113281.183593.296875.308593.519531.324219h.042969c.335937 0 .617187-.265626.648437-.605469 0-.113281-.03125-.238281-.085937-.351563m-.5625.929688h-.042969c-.195312-.015625-.378906-.128906-.492187-.296875-.054688-.097657-.082031-.195313-.082031-.324219.027343-.320312.28125-.546875.601562-.546875l.042969-.027344c.199219.011719.378906.113281.492187.292969.058594.101562.085938.226562.085938.339844-.015625.324218-.28125.5625-.605469.5625m.15625.167968"/><path d="m9.070312 8.859375c0 .117187-.09375.210937-.210937.210937s-.210937-.09375-.210937-.210937.09375-.210937.210937-.210937.210937.09375.210937.210937zm0 0"/><path d="m8.859375 9.703125h-.054687c-.28125-.015625-.550782-.167969-.691407-.421875-.082031-.15625-.125-.308594-.113281-.492188.015625-.195312.101562-.378906.226562-.519531l-5.554687 4.230469 6.382813-2.8125v-.011719c-.070313.027344-.125.027344-.195313.027344m-.210937-1.671875c.085937-.015625.167968-.03125.265624-.03125.28125.015625.550782.183594.691407.421875.082031.15625.125.324219.113281.492187-.015625.210938-.101562.394532-.242188.535157l5.613282-4.132813zm0 0"/></g></svg>