<svg height="18" viewBox="0 0 18 18" width="18" xmlns="http://www.w3.org/2000/svg"><path d="m8.585938 17.609375c.257812.144531.570312.144531.824218 0l6.835938-3.945313c.257812-.148437.414062-.421874.414062-.714843v-7.894531c0-.296876-.15625-.566407-.414062-.714844l-6.832032-3.949219c-.257812-.148437-.570312-.148437-.828124 0l-6.832032 3.949219c-.257812.144531-.414062.417968-.414062.714844v7.894531c0 .292969.15625.566406.414062.714843zm0 0" fill="#76d04b"/><path d="m13.425781 7.117188-.304687-.175782c.46875-.691406.746094-1.730468.398437-3.285156 0 0-.792969 2.21875-2.382812 2.144531l-1.863281-1.070312c-.066407-.042969-.144532-.0625-.226563-.066407h-.042969c-.082031.003907-.160156.023438-.230468.066407l-1.859376 1.070312c-1.589843.074219-2.382812-2.144531-2.382812-2.144531-.351562 1.554688-.070312 2.59375.398438 3.285156l-.304688.175782c-.15625.089843-.25.257812-.25.4375l.007812 6.429687c0 .089844.046876.171875.125.214844.078126.046875.171876.046875.25 0l2.464844-1.410157c.15625-.09375.25-.257812.25-.433593v-3.007813c0-.175781.097656-.34375.253906-.433594l1.046876-.601562c.078124-.046875.164062-.070312.253906-.070312.085937 0 .171875.023437.25.070312l1.046875.601562c.15625.089844.253906.257813.25.433594v3.007813c0 .175781.097656.34375.253906.433593l2.464844 1.410157c.078125.046875.175781.046875.25 0 .078125-.042969.125-.125.125-.214844l.007812-6.429687c0-.179688-.09375-.347657-.25-.4375zm0 0" fill="#4f4d3f"/></svg>