<svg height="18" viewBox="0 0 18 18" width="18" xmlns="http://www.w3.org/2000/svg"><path d="m10.699219-.0351562-.019531.015625c-.023438.0195312-.039063.0351562-.046876.046875-.011718.0078124-.015624.0078124 0 .0039062l-1.25.074219-1.484374.105469-.898438.070312-1.617188.140625-.535156.035156-1.246094.070313c-.472656.03125-.945312.054687-1.417968.109375-.929688.105469-1.722656.679687-1.902344 1.734375-.015625.097656-.035156.199218-.035156.300781v10.015625c0 .460938.140625.910156.40625 1.289062.4375.628907.910156 1.226563 1.367187 1.835938.375.496094.746094.996094 1.136719 1.480469.289062.359375.667969.609375 1.117188.738281.011718.003906.035156.019531.070312.046875l.019531.015625h.023438c.722656.011719 1.4375.011719 2.152343.011719h.023438l.019531-.015625c.023438-.019532.039063-.035156.046875-.046875.011719-.007813.015625-.003907 0-.003907l.941406-.039062 1.820313-.105469 1.109375-.070312 1.800781-.105469 1.125-.070312c.59375-.035157 1.191407-.058594 1.785157-.109376.382812-.03125.773437-.0625 1.148437-.160156.71875-.191406 1.183594-.6875 1.386719-1.398437.046875-.15625.074218-.324219.074218-.488281v-11.304688c0-.375-.128906-.734375-.414062-.984375-.367188-.324219-.757812-.617187-1.152344-.902344-.847656-.609375-1.699218-1.21875-2.570312-1.796875-.3125-.207031-.675782-.316406-1.003906-.4648435-.027344-.0117187-.054688-.0273437-.078126-.046875l-.019531-.015625zm.050781.1406252 1.789062.011719c.027344.019531.054688.039062.082032.050781.339844.15625.695312.261719.984375.453125.867187.578125 1.71875 1.1875 2.566406 1.792968.394531.285157.78125.574219 1.140625.894532.253906.222656.367188.535156.367188.878906v11.304688c0 .148437-.023438.304687-.066407.449218-.195312.671875-.613281 1.121094-1.289062 1.300782-.359375.09375-.742188.125-1.125.15625-.589844.050781-1.183594.074218-1.78125.109374l-1.125.070313-1.804688.105469-1.105469.070312-1.820312.105469-.941406.039063c-.046875 0-.070313.027343-.085938.042968-.011718.011719-.015625.015625-.023437.023438-.703125 0-1.402344 0-2.105469-.011719-.027344-.019531-.050781-.042969-.09375-.054687-.421875-.125-.773438-.355469-1.046875-.695313-.386719-.480469-.757813-.980469-1.132813-1.476563-.460937-.609374-.933593-1.207031-1.367187-1.832031-.246094-.355469-.378906-.777343-.378906-1.207031v-10.015625c0-.085937.015625-.179687.035156-.277344.167969-.996093.898437-1.519531 1.777344-1.617187.46875-.054688.9375-.078125 1.410156-.109375l1.25-.070313.535156-.035156 1.617188-.140625.898437-.070313 1.484375-.105468 1.246094-.074219c.046875-.003906.070313-.027344.085937-.042969.011719-.011718.015626-.015625.023438-.023437m1.074219.910156c-.074219-.003906-.152344 0-.230469.007813l-3.46875.253906-3.625.269531-2.277344.175781c-.484375.046875-.804687.359375-.890625.832032-.019531.121093-.03125.242187-.03125.363281l-.007812 9.316406c-.003907.625.191406 1.148437.5625 1.625l1.738281 2.242187c.074219.097657.15625.191407.21875.285157.328125.515625.820312.710937 1.414062.671875l3.910157-.234375 4.398437-.265625 2.191406-.140625h.003907c.335937-.027344.597656-.132813.769531-.324219.175781-.191406.261719-.460938.269531-.800781v-.140625l.003907-10.667969c0-.335937-.125-.59375-.398438-.785156l-3.09375-2.179688c-.445312-.324219-.921875-.5-1.453125-.503906m-.003906.140625c.503906.003906.949219.167969 1.375.476562l3.097656 2.183594c.242187.167969.335937.363282.335937.667969l-.003906 10.667969v.140625c-.007812.3125-.082031.542969-.230468.703125-.148438.160156-.367188.257812-.679688.28125l-2.191406.140625-4.398438.265625-3.914062.234375c-.558594.035156-.980469-.128907-1.285156-.605469-.066407-.109375-.152344-.203125-.226563-.296875l-1.734375-2.242187c-.359375-.457032-.539062-.945313-.535156-1.539063l.007812-9.316406c0-.113281.007813-.226563.027344-.335938.082031-.429687.332031-.679687.765625-.71875l2.277344-.175781 3.625-.269531 3.46875-.253907c.074219-.007812.148437-.011718.21875-.007812m-.128907.757812-1.417968.097657-6.746094.492187c-.203125.011719-.410156.027344-.617188.066406-.050781.007813-.09375.035157-.132812.066407-.042969.03125-.074219.070312-.09375.121093-.007812.027344-.007812.058594.003906.082032.007813.023437.019532.046875.03125.066406.023438.039062.058594.074219.085938.101562.097656.09375.207031.171876.304687.25.242188.1875.492188.359376.707031.5625.433594.410157.941407.507813 1.507813.464844l4.363281-.273437 4.703125-.28125.3125-.058594-.089843-.09375c-.085938-.085937-.132813-.15625-.210938-.214844-.230469-.167969-.464844-.335937-.699219-.5-.355469-.253906-.714843-.5-1.074219-.75h-.003906l-.003906-.003906c-.296875-.160156-.613281-.214844-.929688-.195313zm.007813.140626c.296875-.015626.582031.03125.855469.179687.355468.246094.710937.492187 1.066406.742187.234375.164063.46875.332032.699219.5.027343.023438.066406.070313.097656.105469l-.046875.007813-4.691406.28125-4.367188.273437c-.542968.039063-1-.046875-1.398437-.425781-.226563-.214844-.480469-.386719-.71875-.574219-.101563-.082031-.207031-.152343-.292969-.238281-.023438-.023438-.046875-.046875-.066406-.078125-.007813-.007813-.011719-.019531-.015625-.027344.003906-.015625.019531-.035156.042969-.054687.027343-.019532.058593-.035156.074218-.039063.195313-.035156.398438-.050781.601563-.066406l6.742187-.488281zm-8.882813.746093v.003907zm12.277344 1.84375-3.242187.1875-4.558594.265625-2.28125.136719c-.152344.011719-.277344.050781-.367187.132813-.089844.082031-.140626.203124-.164063.355468-.007813.078125-.015625.15625-.011719.238282v9.207031c.003906.210937.058594.378906.171875.496093.113281.117188.28125.175782.488281.1875h.003907l.300781-.003906 3.296875-.195312 6.296875-.359375c.203125-.011719.367188-.0625.480469-.171875.117187-.113282.175781-.269532.195312-.476563l.003907-.214843v-9.066407c0-.054687.003906-.105469 0-.164062-.011719-.191407-.058594-.339844-.164063-.433594-.105469-.097656-.257813-.132813-.445313-.121094zm.007813.140625h.003906c.167969-.007812.273437.019532.339844.082032.070312.0625.109375.167968.121093.339843.003907.050781 0 .101563 0 .15625v9.0625l-.003906.207031c-.015625.183594-.066406.304688-.148437.382813-.085938.082031-.207031.125-.394531.136719l-6.296876.359375-3.292968.195312-.292969.003907c-.1875-.011719-.3125-.0625-.394531-.148438-.085938-.082031-.128906-.210938-.132813-.394531v-9.207031c0-.074219 0-.148438.011719-.21875.019531-.132813.058594-.214844.117188-.269532.0625-.054687.148437-.089844.28125-.097656l2.28125-.136719 4.558593-.265625zm-.972657 1.554688-.058593.003906-2.1875.132812c-.277344.019532-.480469.246094-.519531.503907-.011719.0625-.011719.125.023437.179687.035156.054688.101563.078125.179687.082032l.597657.066406v3.945312c-.375-.566406-.746094-1.136718-1.121094-1.703125l-1.820313-2.773437c-.035156-.054688-.078124-.097656-.128906-.125-.054687-.023438-.113281-.03125-.179687-.023438l-.769531.050782-1.417969.105468c-.390625.035156-.632813.410156-.527344.789063l.015625.046875.734375.0625v5.972656l-.460937.128906c-.128907.039063-.226563.113282-.28125.21875-.050782.109375-.054688.238282-.011719.371094l.015625.054688 1.785156-.105469.6875-.054688c.160156-.027343.289062-.089843.382812-.191406s.148438-.234375.167969-.390625l.007813-.066406-.953125-.214844v-4.296875l2.117187 3.304687c.320313.496094.648438.988282.984375 1.472657.253907.367187.648438.484375 1.0625.394531.257813-.054688.5-.15625.742188-.234375.070312-.023437.132812-.0625.167969-.121094.039062-.058593.050781-.128906.046874-.207031l-.003906-6.257812c0-.089844 0-.15625.007813-.203126.003906-.046874.011719-.066406.023437-.082031.007813-.011719.027344-.023437.074219-.039062.042969-.011719.109375-.027344.203125-.042969.1875-.039062.328125-.101562.398438-.21875.074218-.121094.070312-.273438.027343-.476562zm-.125.148437c.019532.136719.027344.253907-.007812.3125-.042969.070313-.136719.117188-.3125.152344-.089844.019531-.15625.03125-.214844.050781-.054687.019532-.105468.042969-.140625.082032-.035156.042968-.046875.097656-.054687.15625-.007813.058593-.007813.128906-.007813.21875l.003907 6.257812c.003906.066406-.007813.105469-.023438.128906-.015625.027344-.042969.046875-.097656.0625-.246094.082032-.484375.183594-.722656.234375-.378907.082031-.695313-.011719-.917969-.335937-.335938-.484375-.664063-.972656-.984375-1.46875l-2.175782-3.398438-.199218-.277344v4.851563l.921875.210937c-.023438.101563-.050781.195313-.109375.253907-.066406.078125-.164063.125-.300782.148437l-.671874.054688-1.660157.097656c-.015625-.082031-.019531-.160156.003907-.214844.035156-.066406.097656-.117187.195312-.148437l.5625-.15625v-6.207031l-.757812-.066407c-.054688-.28125.113281-.535156.40625-.5625l1.417968-.105469.773438-.050781c.050781-.003906.078125 0 .101562.011719.023438.007812.046875.03125.074219.070312l1.796875 2.742188.011719.015625c.421875.640625.839843 1.28125 1.261719 1.917969l.128906.199218v-4.542968l-.726563-.082032h-.003906c-.054687-.003906-.066406-.011718-.070313-.019531-.003906-.003906-.011718-.03125-.003906-.078125.035156-.203125.191406-.375.390625-.386718zm0 0"/></svg>