<svg height="18" viewBox="0 0 18 18" width="18" xmlns="http://www.w3.org/2000/svg"><path d="m10.722656.0351562 1.835938.0117188c.035156.0273438.0625.0429688.09375.058594.332031.148437.691406.257812.992187.457031.871094.578125 1.71875 1.1875 2.566407 1.796875.394531.28125.785156.574219 1.148437.894531.269531.238282.390625.574219.390625.933594v11.300781c0 .160157-.027344.320313-.070312.472657-.199219.691406-.640626 1.164062-1.335938 1.347656-.367188.097656-.757812.128906-1.136719.160156-.59375.050781-1.191406.074219-1.785156.109375l-1.125.070313-1.800781.105468-1.109375.070313-1.820313.105469-.941406.039062c-.03125 0-.058594.042969-.085938.066406-.714843 0-1.429687 0-2.152343-.011718-.035157-.027344-.0625-.050782-.09375-.058594-.433594-.125-.800781-.367188-1.082031-.71875-.390626-.480469-.757813-.980469-1.132813-1.476563-.460937-.609375-.933594-1.207031-1.367187-1.835937-.257813-.363282-.394532-.800782-.394532-1.246094 0-3.339844 0-6.675781 0-10.015625 0-.09375.019532-.191406.035156-.289063.175782-1.027343.933594-1.574218 1.839844-1.675781.46875-.054687.941406-.078125 1.414063-.109375l1.25-.070312.535156-.035156 1.617187-.140626.894532-.070312 1.484375-.105469 1.25-.074219c.03125 0 .058593-.0429682.085937-.0664058m-7.074218 16.0234378c.074218.097656.160156.1875.222656.292968.316406.496094.773437.675782 1.347656.636719l3.914062-.234375 4.398438-.265625 2.191406-.140625c.648438-.050781.964844-.402344.976563-1.054687v-.140625l.003906-10.667969c0-.320313-.109375-.546875-.367187-.726563l-3.097657-2.183593c-.496093-.359375-1.027343-.53125-1.636719-.480469l-3.46875.253906-3.628906.269532-2.273437.175781c-.460938.042969-.746094.324219-.828125.777343-.019532.113282-.03125.230469-.03125.347657l-.007813 9.316406c-.003906.609375.183594 1.117187.546875 1.582031zm0 0" fill="#fff"/><path d="m3.640625 16.046875-1.730469-2.230469c-.363281-.464844-.550781-.972656-.546875-1.582031l.007813-9.316406c0-.117188.011718-.234375.03125-.347657.082031-.453124.367187-.734374.828125-.777343l2.273437-.175781 3.628906-.269532 3.46875-.253906c.609376-.050781 1.140626.121094 1.636719.480469 1.023438.746093 2.0625 1.460937 3.097657 2.183593.257812.179688.367187.40625.367187.726563l-.003906 10.667969v.140625c-.011719.652343-.328125 1.003906-.976563 1.054687-.730468.058594-1.460937.097656-2.191406.140625l-4.398438.265625-3.914062.234375c-.574219.039063-1.03125-.140625-1.347656-.636719-.0625-.105468-.148438-.195312-.230469-.304687m.902344-6.46875v5.589844c.007812.394531.199219.589843.59375.613281.097656.003906.199219 0 .296875-.003906l3.296875-.195313 6.296875-.359375c.390625-.023437.574218-.195312.609375-.582031.007812-.070313.003906-.140625.003906-.210937v-9.070313c0-.050781.003906-.105469 0-.15625-.023437-.359375-.179687-.507813-.535156-.488281l-3.246094.1875c-1.519531.085937-3.039063.175781-4.558594.265625l-2.28125.136719c-.289062.019531-.421875.144531-.464843.429687-.007813.074219-.015626.148437-.011719.226563zm8.039062-7.414063c-.277343-.148437-.574219-.199218-.882812-.179687-.472657.023437-.945313.0625-1.417969.097656l-6.742188.492188c-.207031.011719-.410156.027343-.609374.0625-.070313.015625-.15625.082031-.175782.144531-.015625.042969.054688.128906.101563.175781.09375.089844.199219.164063.300781.242188.238281.191406.492188.363281.710938.570312.417968.394531.902343.484375 1.457031.445313l4.363281-.273438 4.699219-.28125c.042969-.003906.085937-.015625.179687-.03125-.085937-.089844-.136718-.160156-.203125-.207031-.230469-.171875-.460937-.339844-.695312-.503906-.359375-.253907-.722657-.503907-1.085938-.753907m0 0"/><path d="m4.542969 9.5625v-3.601562c0-.078126 0-.152344.011719-.226563.042968-.285156.175781-.410156.464843-.429687l2.28125-.136719 4.558594-.265625 3.242187-.1875c.359376-.019532.515626.128906.539063.488281.003906.050781 0 .105469 0 .15625v9.070313l-.003906.210937c-.035157.386719-.21875.558594-.609375.582031l-6.296875.359375-3.296875.195313-.296875.003906c-.394531-.023438-.585938-.21875-.59375-.613281zm6.433593.007812-1.808593-2.753906c-.0625-.097656-.125-.128906-.242188-.117187l-.769531.050781-1.421875.105469c-.347656.03125-.558594.359375-.460937.699219l.75.066406v6.085937l-.511719.144531c-.226563.066407-.324219.257813-.246094.503907l1.730469-.101563.679687-.054687c.296875-.046875.453125-.226563.492188-.523438l-.945313-.214843v-4.578126l.070313.097657 2.175781 3.394531c.320312.496094.648438.988281.984375 1.472656.238281.34375.59375.449219.992187.363282.246094-.050782.488282-.152344.730469-.230469.128907-.042969.171875-.117188.167969-.261719l-.003906-6.257812c0-.363282 0-.363282.363281-.4375.367187-.074219.457031-.21875.375-.609376l-2.1875.132813c-.238281.015625-.417969.214844-.453125.445313-.019531.113281.003906.171874.136719.179687l.664062.074219v4.242187c-.421875-.636719-.839843-1.277343-1.261719-1.914062zm1.617188-7.398437c.359375.246094.714844.496094 1.074219.746094.234375.164062.464843.332031.695312.503906.066407.046875.117188.117187.203125.207031l-.179687.03125-4.699219.28125-4.363281.273438c-.554688.039062-1.039063-.050782-1.457031-.445313-.21875-.207031-.472657-.378906-.710938-.570312-.101562-.078125-.207031-.152344-.300781-.242188-.046875-.046875-.117188-.132812-.101563-.175781.019532-.0625.105469-.128906.171875-.144531.203125-.035157.40625-.050781.613281-.0625l6.742188-.492188 1.417969-.097656c.308593-.019531.605469.03125.894531.1875m0 0" fill="#fff"/><path d="m10.984375 9.582031 1.253906 1.90625v-4.242187l-.664062-.074219c-.132813-.007813-.15625-.066406-.136719-.179687.035156-.230469.214844-.429688.453125-.445313l2.1875-.132813c.082031.390626-.007813.535157-.375.609376-.363281.070312-.363281.070312-.363281.4375l.003906 6.257812c.003906.144531-.039062.21875-.167969.261719l-.730469.230469c-.398437.085937-.753906-.019532-.992187-.363282-.335937-.484375-.664063-.976562-.984375-1.472656l-2.175781-3.394531c-.015625-.023438-.035157-.046875-.070313-.097657v4.578126l.945313.214843c-.039063.296875-.195313.476563-.492188.523438-.222656.035156-.453125.042969-.679687.054687l-1.730469.101563c-.078125-.246094.019531-.4375.246094-.503907l.511719-.144531v-6.085937l-.75-.066406c-.097657-.339844.113281-.667969.460937-.699219.472656-.042969.949219-.070313 1.421875-.105469.253906-.015625.511719-.023438.769531-.050781.117188-.011719.179688.019531.242188.117187zm0 0"/></svg>