<svg height="18" viewBox="0 0 18 18" width="18" xmlns="http://www.w3.org/2000/svg"><path d="m5.523438 15.324219-.042969-.078125c-.078125-.160156-.078125-.320313-.039063-.519532h-4.308594l6.382813-11.332031 2.675781 4.828125.875-.640625-2.671875-4.824219c-.039062-.082031-.359375-.558593-.878906-.558593-.238281 0-.597656.078125-.875.597656l-6.464844 11.449219c-.039062.121094-.320312.640625-.0781248 1.078125.1562498.238281.3984378.480469.9570318.480469h5.425781c-.558594 0-.839844-.242188-.957031-.480469zm12.285156-1.039063-5.183594-9.335937c-.082031-.078125-.359375-.597657-.878906-.597657-.238282 0-.597656.121094-.878906.597657l-.675782 1.117187v2.15625l1.554688-2.675781 5.148437 9.179687h-1.957031c.03125.1875.003906.382813-.078125.558594l-.042969.039063c-.238281.4375-.835937.476562-.917968.476562h3.035156c.117187 0 .675781-.039062.957031-.476562.121094-.199219.199219-.558594-.082031-1.039063m-2.832032 1.039063v-.039063l.042969-.082031c.039063-.160156.078125-.316406.039063-.476563l-.160156-.480468-4.070313-7.101563-.597656-1.078125h-.039063l-.601562 1.078125-4.066406 7.101563-.160157.480468c-.039062.203126-.011719.410157.078125.597657.160156.238281.398438.480469.957032.480469h7.582031c.121093 0 .71875-.042969.996093-.480469m-4.785156-7.101563 3.710938 6.503906h-7.421875zm0 0"/></svg>