<svg height="18" viewBox="0 0 18 18" width="18" xmlns="http://www.w3.org/2000/svg"><g fill="#0b5a9d"><path d="m8.984375 17.632812c-4.597656 0-8.492187-3.878906-8.527344-8.503906-.015625-2.25.871094-4.417968 2.460938-6.011718 1.601562-1.640626 3.792969-2.570313 6.085937-2.582032 2.253906-.003906 4.410156.894532 6 2.492188 1.613282 1.570312 2.53125 3.722656 2.550782 5.976562.023437 4.726563-3.777344 8.582032-8.503907 8.628906zm.023437-16.652343c-2.171874.015625-4.25.898437-5.765624 2.453125-1.507813 1.507812-2.351563 3.558594-2.339844 5.691406.035156 4.382812 3.726562 8.058594 8.078125 8.058594h.058593c4.480469-.042969 8.085938-3.695313 8.070313-8.175782-.023437-2.136718-.894531-4.171874-2.421875-5.664062-1.5-1.515625-3.546875-2.363281-5.679688-2.363281zm0 0"/><path d="m2.375 11.585938v-4.996094h1.214844v.449218h-.644532v4.109376h.644532v.445312zm4.125-2.546876c0 .910157-.554688 1.429688-1.304688 1.429688-.746093 0-1.246093-.585938-1.246093-1.382812 0-.835938.523437-1.421876 1.289062-1.421876s1.261719.609376 1.261719 1.375m-2.027344.039063c0 .554687.277344.992187.753906.992187.476563 0 .75-.449218.75-1.011718 0-.511719-.253906-.996094-.75-.996094-.5 0-.757812.46875-.757812 1.027344zm2.445313-1.320313c.238281-.042968.480469-.0625.722656-.0625.269531-.023437.542969.035157.777344.171876.179687.105468.289062.300781.28125.507812-.003907.273438-.1875.511719-.445313.589844.316406.0625.546875.34375.546875.671875.003907.214843-.09375.421875-.261719.558593-.191406.171876-.511718.253907-1.007812.253907-.203125 0-.40625-.011719-.605469-.039063zm.492187 1.070313h.253906c.34375 0 .535157-.160156.535157-.390625s-.191407-.371094-.507813-.371094c-.09375-.003906-.191406.003906-.28125.019532zm0 1.25c.089844.007813.175782.011719.261719.007813.320313 0 .601563-.117188.601563-.445313s-.273438-.449219-.617188-.449219h-.246094zm2.367188-2.359375h.496094v1.765625c0 .75-.363282 1.003906-.894532 1.003906-.144531-.003906-.285156-.027343-.417968-.074219l.058593-.398437c.101563.03125.203125.046875.308594.050781.28125 0 .445313-.128906.445313-.601562zm1.902344 1.472656v.339844h-1.027344v-.339844zm2.40625 1.164063c-.222657.085937-.460938.128906-.703126.121093-.859374 0-1.382812-.539062-1.382812-1.367187-.039062-.75.539062-1.394531 1.289062-1.433594.054688-.003906.109376-.003906.160157 0 .230469-.007812.460937.03125.671875.121094l-.109375.394531c-.167969-.070312-.351563-.109375-.535157-.105468-.550781 0-.949218.347656-.949218 1 0 .597656.351562.980468.945312.980468.1875.003906.371094-.03125.539063-.101562zm1.550781-3.777344v5.007813h-1.214844v-.449219h.644531v-4.113281h-.644531v-.445313zm0 0"/></g></svg>