<svg height="18" viewBox="0 0 18 18" width="18" xmlns="http://www.w3.org/2000/svg" xmlns:xlink="http://www.w3.org/1999/xlink"><linearGradient id="a"><stop offset="0" stop-color="#f29100"/><stop offset="1" stop-color="#ec670f"/></linearGradient><linearGradient id="b" gradientUnits="userSpaceOnUse" x1="9.01618680118" x2="9.01618680118" xlink:href="#a" y1="11.78108520345" y2="11.80087351745"/><linearGradient id="c" gradientUnits="userSpaceOnUse" x1="6.66235576073" x2="6.66235576073" xlink:href="#a" y1="11.91840751318" y2="16.84330461791"/><linearGradient id="d" gradientUnits="userSpaceOnUse" x1="9.00052956955" x2="9.00052956955" xlink:href="#a" y1="1.1565" y2="16.83982557137"/><linearGradient id="e" gradientUnits="userSpaceOnUse" x1="2.486695217" x2="2.486695217" xlink:href="#a" y1="11.17177866055" y2="16.73153326191"/><path d="m9.015625 11.800781.003906-.007812c-.003906-.015625-.007812-.019531-.003906.007812zm0 0" fill="#484444"/><path d="m9.015625 11.800781.003906-.007812c-.003906-.015625-.007812-.019531-.003906.007812zm0 0" fill="url(#b)"/><path d="m9.136719 16.234375c-.0625-.132813-.144531-.390625-.195313-.503906-.050781-.105469-.203125-.382813-.277344-.472657-.167968-.191406-.207031-.207031-.253906-.453124-.085937-.421876-.308594-1.195313-.570312-1.726563-.136719-.273437-.363282-.507813-.570313-.707031-.179687-.171875-.589843-.46875-.660156-.453125-.664063.132812-.871094.789062-1.1875 1.304687-.171875.285156-.355469.53125-.492187.832032-.125.28125-.113282.589843-.332032.832031-.21875.246093-.363281.507812-.472656.828125-.019531.058594-.078125.695312-.140625.847656l.988281-.070312c.921875.0625.65625.417968 2.09375.339843l2.273438-.070312c-.070313-.207031-.167969-.449219-.203125-.527344zm0 0" fill="url(#c)"/><path d="m15.734375 1.15625h-13.464844c-1.253906 0-2.269531 1.015625-2.269531 2.269531v4.945313c.324219-.117188.792969-.804688.9375-.972656.257812-.296876.304688-.667969.429688-.90625.292968-.535157.339843-.90625 1-.90625.308593 0 .429687.070312.636718.351562.144532.191406.394532.550781.511719.792969.136719.273437.355469.648437.453125.722656.070312.058594.144531.101563.210938.125.105468.039063.195312-.035156.265624-.089844.089844-.074219.128907-.222656.214844-.417969.121094-.285156.253906-.628906.332032-.746093.128906-.207031.171874-.453125.316406-.570313.207031-.175781.476562-.1875.554687-.203125.417969-.082031.609375.203125.8125.386719.136719.121094.320313.363281.453125.6875.101563.253906.230469.488281.285156.636719.054688.140625.183594.367187.261719.640625.066407.246094.253907.4375.324219.554687 0 0 .109375.304688.773438.582031.140624.058594.433593.160157.605468.222657.289063.105469.566406.089843.921875.046875.253907 0 .390625-.367188.503907-.660156.070312-.171876.132812-.667969.179687-.808594.039063-.136719-.058594-.246094.027344-.363282.097656-.140624.15625-.148437.214843-.332031.125-.390625.84375-.410156 1.246094-.410156.335938 0 .292969.324219.863282.210937.324218-.0625.640624.042969.988281.136719.289062.074219.566406.164063.730469.355469.105468.125.367187.75.101562.777344.023438.03125.042969.089844.089844.121094-.058594.234374-.320313.066406-.464844.035156-.195312-.039063-.332031.007812-.523438.089844-.324218.148437-.804687.128906-1.085937.367187-.242187.199219-.242187.648437-.355469.898437 0 0-.3125.804688-.992187 1.296876-.175781.125-.519531.429687-1.261719.542968-.332031.050782-.644531.054688-.988281.039063l-.492188-.019531c-.097656 0-.429687-.011719-.414062.023437l-.035157.089844c.003907.03125.015626.105469.019532.125.015625.074219.015625.132812.019531.203125.003906.140625-.011719.285156-.003906.429687.015625.292969.125.5625.136719.859375.015624.332032.179687.683594.339843.953125.058594.101563.152344.113281.191407.242188.046874.144531.003906.296875.023437.453125.089844.597656.261719 1.226562.535156 1.769531 0 .003906.003907.007813.003907.011719.335937-.054688.667968-.175782 1.101562-.238282.796875-.117187 1.902344-.058593 2.613281-.125 1.796875-.167968 2.773438.738282 4.386719.367188v-13.324219c0-1.253906-1.015625-2.269531-2.265625-2.269531zm-6.71875 10.644531c-.003906-.027343 0-.023437.003906-.007812zm0 0" fill="url(#d)"/><path d="m4.152344 13.882812c.125-.273437.195312-.585937.300781-.863281.097656-.269531.253906-.648437.519531-.785156-.03125-.039063-.554687-.054687-.695312-.070313l-.449219-.0625-.867187-.179687c-.167969-.039063-.726563-.238281-.851563-.292969-.285156-.132812-.472656-.492187-.695313-.453125-.144531.023438-.285156.070313-.371093.214844-.074219.117187-.097657.320313-.148438.453125-.058593.160156-.160156.304688-.246093.453125-.164063.277344-.453126.523437-.5781255.792969-.0273437.054687-.046875.113281-.0703125.179687v3.054688l.472656.101562c1.265625.339844 1.574219.367188 2.8125.226563l.117188-.015625c.09375-.199219.167968-.871094.230468-1.078125.046876-.160156.113282-.289063.136719-.453125.023438-.152344 0-.300781-.015625-.441407-.035156-.351562.257813-.476562.398438-.78125zm0 0" fill="url(#e)"/></svg>