<svg height="18" viewBox="0 0 18 18" width="18" xmlns="http://www.w3.org/2000/svg"><path d="m4.757812 10.34375h-4.7499995v.070312l.0078125.132813c.0039062.019531.0039062.039063.0039062.054687.0117188.121094.0234376.242188.0351563.359376 0 .007812 0 .011718.0039063.019531.0078124.058593.015625.121093.0234374.179687v.003906c.0546878.378907.1367188.75.2460938 1.117188v.003906c.019531.0625.039063.121094.058594.183594 0 .003906 0 .003906.003906.007812.015625.050782.03125.105469.050781.15625.003906.011719.007813.027344.011719.039063.019531.042969.035156.089844.050781.132813.007813.019531.015625.039062.023438.0625.015625.035156.027344.070312.042968.109374.011719.027344.023438.054688.035157.082032.011719.03125.023437.058594.035156.085937.015625.035157.03125.070313.046875.105469.007812.023438.019531.042969.027344.0625.019531.042969.039062.085938.058594.125l.019531.042969c.023437.046875.046875.09375.074219.140625.003906.007812.003906.015625.007812.023437.03125.054688.058594.109375.089844.164063.003906.011718.011718.023437.015625.03125l4.058593-2.429688.015626-.011718c-.160157-.332032-.261719-.6875-.296876-1.054688zm0 0" fill="#91d400"/><path d="m.386719 12.46875-.15625.042969.003906.003906zm0 0" fill="#91d400"/><path d="m5.921875 12.515625-.007813.011719-3.347656 3.328125c.019532.015625.035156.03125.050782.046875.03125.027344.0625.058594.097656.085937.015625.011719.03125.027344.046875.042969.039062.03125.078125.0625.113281.09375.011719.011719.023438.019531.03125.027344.050781.039062.097656.078125.148438.117187.046874.035157.09375.074219.144531.109375 0 0 .003906.003906.003906.003906.203125.152344.410156.292969.625.421876.007813.003906.015625.007812.023437.011718l.125.074219c.023438.015625.050782.027344.074219.042969.023438.011718.046875.027344.070313.039062.046875.023438.089844.046875.132812.070313.128906.066406.257813.128906.386719.1875l.121094-.285157 1.683593-4.066406.003907-.015625c-.1875-.097656-.363281-.214843-.527344-.347656zm0 0" fill="#4c5930"/><path d="m5.574219 12.183594c-.066407-.074219-.128907-.15625-.191407-.234375-.03125-.042969-.0625-.085938-.089843-.132813-.03125-.042968-.058594-.089844-.089844-.132812l-4.0625 2.433594c.066406.105468.128906.203124.195313.304687.003906.003906.003906.007813.007812.007813l.003906.003906c0 .003906.003906.007812.003906.011718.007813.007813.011719.015626.015626.023438 0 .003906 0 .003906.003906.003906.070312.105469.144531.210938.222656.3125 0 0 .003906.003906.003906.003906.03125.042969.066406.085938.097656.128907.003907.003906.011719.011719.015626.015625.035156.042968.070312.085937.105468.128906.007813.011719.015625.023438.023438.03125.03125.039062.066406.078125.097656.113281.015625.019531.027344.035157.042969.050781.027343.03125.054687.0625.082031.09375.015625.015626.035156.035157.050781.050782.003907.007812.011719.015625.019531.023437l.0625.066407.027344.027343c.035156.039063.074219.078125.113282.113281l3.347656-3.332031c-.035156-.039062-.074219-.078125-.109375-.117187zm0 0" fill="#68a338"/><path d="m10.015625 12.511719c-.035156.03125-.074219.058593-.109375.085937l.007812.015625 2.441407 4.035157c.113281-.074219.226562-.148438.335937-.230469.238282-.171875.464844-.363281.683594-.5625l-3.34375-3.328125zm0 0" fill="#4c5930"/><path d="m12.046875 16.839844h.003906zm.003906 0c.011719-.007813.023438-.011719.035157-.019532h-.003907c-.007812.003907-.019531.011719-.03125.019532m-.011719-.007813.003907.011719zm.007813.007813h.003906zm0 0-.003906.003906c.003906-.003906.003906-.003906.003906-.003906zm0 0" fill="#91d400"/><path d="m12.050781 16.839844c.011719-.007813.023438-.011719.035157-.019532-.011719.007813-.023438.011719-.035157.019532m.03125-.019532h.003907zm-.082031-.136718-.082031-.136719-2.28125-3.769531c-.046875.027344-.09375.054687-.140625.078125-.046875.027343-.09375.050781-.144532.070312-.433593.207031-.90625.3125-1.386718.3125-.3125 0-.621094-.042969-.921875-.132812-.050781-.015625-.101563-.035157-.152344-.050781-.050781-.019532-.101563-.035157-.152344-.054688l-1.679687 4.0625-.066406.160156-.054688.136719h-.003906l.015625.003906c.003906.003907.007812.003907.011719.007813h.003906c.042968.015625.082031.03125.121094.046875.050781.019531.101562.039062.148437.054687.027344.011719.050781.023438.078125.03125.527344.183594 1.070312.3125 1.625.386719.023438.003906.046875.007813.066406.007813l.066406.007812c.042969.003906.085938.011719.128907.015625h.03125c.054687.007813.105469.011719.160156.015625.015625 0 .035156 0 .050781.003906.046875.003906.09375.003906.140625.007813.027344 0 .054688 0 .082031.003906.039063 0 .074219 0 .109376.003906h.160156.035156c.445312 0 .886719-.035156 1.324219-.109375l.023437-.003906c.046875-.007812.089844-.015625.136719-.023438.027344-.003906.054687-.011718.082031-.015624.023438-.003907.050782-.011719.078125-.015626.046875-.011718.089844-.019531.136719-.03125l.023438-.003906c.664062-.15625 1.308593-.394531 1.914062-.710937.039062-.019531.078125-.042969.117188-.066407.046874-.027343.09375-.050781.140624-.078124.03125-.019532.0625-.035157.09375-.054688h.003907s0 0 0-.003906l-.003907-.007813.003907.007813h.003906s.003906 0 .003906-.003906c.011719-.003907.023438-.011719.03125-.019532zm-6.074219-9.148438c.035157-.03125.074219-.058594.113281-.085937l-.011718-.015625-2.441406-4.035156c-.113282.074218-.226563.152343-.335938.230468-.238281.175782-.464844.363282-.683594.5625l3.347656 3.332032zm0 0" fill="#91d400"/><path d="m2.335938 4.414062c-.039063.039063-.074219.078126-.113282.117188-.035156.035156-.074218.074219-.109375.113281-.257812.277344-.492187.570313-.707031.878907-.023438.03125-.046875.066406-.066406.097656-.027344.035156-.046875.070312-.070313.105468-.007812.011719-.015625.027344-.027343.039063-.753907 1.179687-1.179688 2.539063-1.2343755 3.9375-.00390625.054687-.00390625.109375-.00390625.160156-.00390625.054688-.00390625.105469-.00390625.160157h4.738281c0-.054688.003907-.105469.007813-.160157.003906-.054687.003906-.105469.007812-.160156.0625-.628906.3125-1.226563.714844-1.714844.035156-.042969.074219-.082031.109375-.121093.035156-.039063.070313-.078126.105469-.117188zm9.777343-1.171874c-.050781-.027344-.097656-.054688-.148437-.085938-.023438-.011719-.046875-.027344-.070313-.039062-.027343-.015626-.050781-.027344-.074219-.042969-.042968-.023438-.085937-.046875-.128906-.070313-.007812 0-.015625-.003906-.019531-.007812-.277344-.144532-.5625-.273438-.855469-.382813-.007812-.003906-.015625-.007812-.023437-.007812-.578125-.21875-1.175781-.367188-1.789063-.449219-.019531 0-.042968-.003906-.066406-.007812l-.066406-.007813c-.054688-.003906-.109375-.011719-.164063-.015625-.050781-.003906-.101562-.011719-.152343-.015625-.019532 0-.039063 0-.0625 0-.042969-.003906-.085938-.007813-.128907-.011719h-.070312v4.726563c.246093.027343.484375.078125.71875.15625l3.496093-3.480469c-.128906-.089844-.261718-.175781-.394531-.257812m0 0" fill="#4c5930"/><path d="m3.859375 3.230469.082031.136719zm3.949219-1.136719c-.050782 0-.105469 0-.160156.003906-.335938.011719-.667969.046875-1 .101563-.007813 0-.015626.003906-.023438.003906-.046875.007813-.089844.015625-.136719.023437l-.078125.015626c-.027344.007812-.054687.011718-.082031.019531-.054687.011719-.105469.023437-.160156.035156-.664063.152344-1.308594.390625-1.914063.707031-.039062.023438-.078125.046875-.117187.066406-.046875.027344-.089844.050782-.140625.078126-.03125.019531-.066406.039062-.101563.058593-.003906.003907-.007812.003907-.007812.003907-.011719.007812-.019531.011718-.027344.015624v.003907l.082031.136719 2.363282 3.902343c.046874-.027343.09375-.050781.140624-.078125.375-.199218.78125-.324218 1.203126-.367187.054687-.003907.109374-.007813.160156-.011719.054687-.003906.109375-.007812.164062-.007812v-4.714844c-.054687 0-.109375.003906-.164062.003906m0 0" fill="#68a338"/><path d="m15.933594 9.632812-.007813-.125c-.003906-.023437-.003906-.042968-.003906-.066406l-.011719-.148437c-.003906-.011719-.003906-.023438-.003906-.039063-.007812-.054687-.011719-.109375-.019531-.164062 0-.007813 0-.011719 0-.015625 0 0 0-.003907-.003907-.003907-.003906-.0625-.011718-.121093-.023437-.179687 0-.003906 0-.003906 0-.007813-.054687-.375-.136719-.75-.246094-1.113281-.015625-.058593-.035156-.121093-.054687-.179687 0-.007813-.003906-.011719-.003906-.019532-.019532-.054687-.035157-.105468-.054688-.15625-.003906-.011718-.007812-.027343-.011719-.039062-.023437-.066406-.046875-.128906-.074219-.195312-.011718-.035157-.027343-.070313-.042968-.105469-.011719-.03125-.023438-.058594-.035156-.085938-.011719-.03125-.023438-.058593-.035157-.085937l-.046875-.105469-.027344-.0625c-.019531-.042969-.039062-.085937-.058593-.128906-.007813-.011719-.011719-.023438-.019531-.035157-.023438-.050781-.046876-.097656-.070313-.148437-.003906-.003906-.007813-.011719-.011719-.019531-.027344-.050782-.054687-.105469-.085937-.15625v-.003906c-.136719-.253907-.289063-.5-.453125-.734376l-3.5 3.480469c.082031.230469.132812.472657.15625.714844h4.75zm0 0" fill="#4c5930"/><path d="m11.203125 10.023438c0 .054687-.003906.105468-.007813.160156 0 .054687-.003906.105468-.007812.160156-.0625.632812-.3125 1.230469-.714844 1.71875-.035156.039062-.070312.078125-.109375.117188-.035156.039062-.066406.082031-.105469.121093l3.351563 3.332031c.035156-.039062.070313-.078124.109375-.113281.035156-.039062.074219-.078125.109375-.117187.246094-.261719.472656-.542969.679687-.835938.007813-.011718.015626-.023437.023438-.035156.027344-.035156.050781-.074219.074219-.109375.023437-.03125.042969-.0625.0625-.09375.011719-.015625.023437-.035156.03125-.046875.753906-1.179688 1.179687-2.539062 1.234375-3.9375.003906-.054688.003906-.105469.007812-.160156 0-.054688 0-.105469 0-.160156zm0 0" fill="#68a338"/><path d="m17.351562.6875c-.867187-.859375-2.273437-.859375-3.140624 0-.691407.691406-.828126 1.71875-.417969 2.542969l-4.835938 4.816406c-.832031-.410156-1.863281-.273437-2.554687.414063-.867188.863281-.867188 2.261718 0 3.125.867187.863281 2.273437.863281 3.136718 0 .675782-.667969.84375-1.695313.417969-2.542969l4.835938-4.8125c.832031.410156 1.863281.273437 2.558593-.417969.414063-.410156.648438-.972656.648438-1.5625 0-.585938-.234375-1.148438-.648438-1.558594zm0 0" fill="#3f3f42"/></svg>