<svg height="18" viewBox="0 0 18 18" width="18" xmlns="http://www.w3.org/2000/svg"><path d="m9.511719 9.816406c-.738281.738282-.738281 1.933594 0 2.671875s1.9375.738281 2.671875 0c.738281-.738281.738281-1.933593 0-2.671875-.734375-.738281-1.933594-.738281-2.671875 0m2 2c-.175781.175782-.414063.273438-.664063.273438-.246094 0-.484375-.097656-.660156-.273438-.367188-.367187-.367188-.960937 0-1.324218.175781-.175782.414062-.273438.660156-.273438.25 0 .488282.097656.664063.273438.363281.363281.363281.957031 0 1.324218m.640625-11.300781-1.15625 1.160156c-.226563.226563-.226563.597657 0 .824219l4.519531 4.519531c.230469.230469.597656.230469.828125 0l1.15625-1.15625c.226562-.226562.226562-.597656 0-.824219l-4.523438-4.523437c-.226562-.226563-.59375-.226563-.824218 0zm-8.109375 14.796875c.203125-.207031.203125-.539062 0-.746094l-.589844-.589844c-.207031-.203124-.539063-.203124-.746094 0l-1.214843 1.21875h-.003907l-.332031-.332031c-.1875-.1875-.488281-.1875-.667969 0-.1875.183594-.1875.484375 0 .667969l2 2c.089844.089844.210938.140625.335938.140625s.246093-.050781.332031-.140625c.183594-.183594.1875-.484375 0-.667969l-.332031-.332031zm6.125-11.472656-2.574219 2.574218c-.226562.226563-.226562.605469 0 .832032l1.589844 1.589844c1.121094-.808594 2.695312-.710938 3.707031.300781l1.285156-1.285157c.230469-.230468.230469-.605468 0-.832031l-3.175781-3.179687c-.109375-.109375-.261719-.171875-.417969-.171875s-.304687.0625-.414062.171875zm-1.652344 5.664062-.9375-.9375c-.222656-.21875-.582031-.21875-.800781 0l-3.308594 3.308594c-.21875.222656-.21875.578125 0 .800781l1.875 1.875c.21875.21875.578125.21875.800781 0l2.125-2.132812c-.449219-.929688-.367187-2.050781.246094-2.914063m0 0" fill="#f5a800"/></svg>