<svg height="18" viewBox="0 0 18 18" width="18" xmlns="http://www.w3.org/2000/svg"><path d="m8.265625 4.582031c-1.351563.003907-3.085937.222657-5.210937 1.515625l-.085938.050782c-1.332031.824218-2.25 1.839843-2.730469 3.019531-.1523435.371093-.355469 1.207031-.1523435 1.996093.0859375.34375.2460935.6875.4648435 1 .492188.699219 1.316407 1.164063 2.207031 1.242188 1.253907.109375 2.207032-.449219 2.542969-1.492188.234375-.722656 0-1.78125-.890625-2.320312-.726562-.441406-1.503906-.339844-1.957031-.042969-.390625.257813-.613281.65625-.609375 1.097657.007812.777343.6875 1.191406 1.175781 1.195312.140625 0 .28125-.027344.441407-.078125.058593-.015625.113281-.039063.171874-.074219l.019532-.011718.007812-.003907c.109375-.074219.175782-.195312.175782-.328125 0-.035156-.003907-.074218-.015626-.109375-.054687-.195312-.253906-.316406-.457031-.277343l-.027343.003906-.039063.011718-.054687.019532c-.070313.015625-.140626.027344-.210938.03125-.058594-.003906-.339844-.089844-.339844-.394532v-.003906c0-.109375.046875-.1875.070313-.230468.085937-.136719.328125-.269532.648437-.242188.425782.035156.730469.25.933594.65625.1875.378906.136719.84375-.125 1.183594-.265625.335937-.734375.480468-1.359375.414062-.628906-.070312-1.160156-.429687-1.460937-.984375-.289063-.546875-.304688-1.195312-.039063-1.691406.636719-1.191406 1.839844-1.179687 2.5-1.066406.976563.167969 2.085937 1.058593 2.480469 2.089843.066406.164063.097656.292969.125.414063l.042968.175781 1.101563.535156c.023437.011719.035156.015626.042969.007813.011718-.007813.003906-.03125.003906-.03125-.007812-.023437-.023438-.046875-.046875-.351563-.023437-.273437-.0625-1.015624.3125-1.382812.148437-.144531.371094-.273438.546875-.3125.722656-.175781 1.570312-.054688 2.371094.863281.417968.476563.617187.691407.71875.789063 0 0 .023437.019531.039062.03125.011719.011718.019532.019531.039063.03125.035156.015625 1.378906.628906 1.378906.628906s.015625.007812.027344-.003906c.011719-.015625 0-.03125 0-.03125-.007813-.007813-.851563-1.089844-.703125-1.976563.121094-.707031.691406-.644531 1.476562-.554687.257813.027344.550782.0625.851563.066406.847656.007812 1.757812-.148438 2.320312-.390625.363281-.15625.59375-.261719.738281-.390625.054688-.042969.082032-.113281.109376-.1875l.019531-.050781c.023437-.058594.058593-.1875.074219-.257813.003906-.03125.011718-.0625-.015626-.082031-.023437-.015625-.074218.015625-.074218.015625-.25.148438-.863282.425781-1.441406.4375-.714844.011719-2.164063-.71875-2.316407-.796875l-.300781-.707031c1.035156.675781 1.898438 1.050781 2.554688 1.105468.734374.066407 1.304687-.328124 1.554687-.496093.03125-.019531.0625-.042969.09375-.066407.003906-.003906.015625-.015624.015625-.027343-.042969-.253907-.421875-1.488281-.714844-1.78125-.078125-.082031-.140625-.160157-.273437-.238281-1.046875-.605469-3.535157-.96875-3.648438-.984376 0 0-.011719-.003906-.019531.003907-.007812.007812-.007812.019531-.007812.019531l-.011719.566406c-.253907-.085937-2.101563-.675781-3.832031-.734375-.367188-.011719-.777344-.035156-1.226563-.03125zm7.875 1.21875c.585937.019531 1.046875.507813 1.027344 1.089844-.007813.277344-.128907.542969-.335938.730469-.207031.195312-.480469.296875-.765625.285156-.585937-.023438-1.042968-.511719-1.023437-1.089844.007812-.28125.128906-.546875.335937-.734375.207032-.191406.480469-.292969.761719-.28125m-.007813.308594c-.195312-.007813-.386718.0625-.53125.195313-.144531.132812-.230468.316406-.234374.511718-.015626.40625.304687.746094.714843.761719.195313.007813.386719-.0625.535157-.199219.140624-.128906.226562-.3125.230468-.507812.015625-.40625-.304687-.746094-.714844-.761719m.121094.367187c.183594 0 .332032.097657.332032.21875 0 .121094-.148438.21875-.332032.21875-.179687 0-.328125-.097656-.328125-.21875 0-.121093.148438-.21875.328125-.21875m-2.828125 5.21875c-.0625 0-.121093.023438-.164062.066407s-.066407.101562-.066407.164062.023438.121094.066407.164063c.042969.046875.101562.070312.164062.070312.128907 0 .234375-.105468.234375-.234375 0-.128906-.105468-.230469-.234375-.230469zm0 .035157c.105469 0 .1875.085937.1875.195312s-.082031.199219-.1875.199219c-.101562 0-.1875-.089844-.1875-.199219s.085938-.195312.1875-.195312m-.011719.066406c-.03125 0-.050781.003906-.074218.003906v.261719h.042968v-.113281h.027344c.035156 0 .050782.011719.058594.046875.003906.035156.011719.058594.015625.066406h.046875c-.007812-.007812-.011719-.023438-.019531-.066406-.003907-.039063-.019531-.058594-.042969-.0625.027344-.007813.050781-.03125.050781-.0625 0-.027344-.007812-.042969-.023437-.054688-.015625-.011718-.042969-.019531-.082032-.019531m0 .03125c.046876 0 .0625.023437.0625.046875 0 .03125-.03125.042969-.0625.042969h-.03125v-.089844z" fill="#73ba25"/></svg>