<svg height="18" viewBox="0 0 18 18" width="18" xmlns="http://www.w3.org/2000/svg"><path d="m9.097656 4.933594c-.15625 0-.3125.003906-.464844.011718l-.046874.003907-.015626.042969c-.035156.101562-.34375 1.027343-.441406 1.328124l-.027344.085938.089844.003906c.492188.023438.964844.097656 1.410156.222656v-.003906c.28125.082032.585938.050782.847657-.082031l1.949219-.992187-.148438-.058594c-.941406-.359375-2.011719-.5625-3.152344-.5625zm-.566406.015625-.140625.011719c-1.167969.085937-2.25.390624-3.164063.851562l-.0625.035156.03125.0625c.140626.261719.324219.589844.460938.84375l.03125.050782.054688-.019532c.480468-.179687.980468-.292968 1.488281-.347656.03125 0 .058593-.003906.085937-.007812.1875-.03125.355469-.136719.460938-.300782zm.566406.121093c1.0625 0 2.058594.1875 2.945313.507813l-1.65625.84375c-.230469.117187-.5.144531-.75.074219-.425781-.117188-.878907-.191406-1.347657-.214844.109376-.335938.351563-1.058594.398438-1.199219.136719-.003906.273438-.007812.410156-.011719m-.839844.046876-.597656.9375c-.089844.136718-.234375.222656-.394531.238281-.515625.050781-1.023437.167969-1.511719.34375-.136718-.242188-.265625-.484375-.398437-.726563.847656-.417968 1.835937-.695312 2.902343-.792968m4.199219.464843-.03125.019531c-.4375.292969-1.6875 1.132813-1.886719 1.261719l-.101562.070313.109375.050781c.78125.382813 1.097656.714844 1.371094.84375.265625.125.523437.164063.871093.164063.628907 0 1.8125 0 2.464844.003906h.121094l-.0625-.109375c-.582031-.964844-1.578125-1.765625-2.820312-2.289063zm.011719.160157c1.15625.492187 2.078125 1.234374 2.644531 2.113281-.667969-.003907-1.730469-.003907-2.324219-.003907-.335937 0-.566406-.035156-.808593-.148437-.210938-.101563-.566407-.421875-1.273438-.785156.28125-.183594 1.328125-.886719 1.761719-1.175781m-7.363281.136718-.085938.046875c-1.03125.558594-1.839843 1.320313-2.304687 2.214844l-.050782.101563h.699219c.179688 0 .347657-.074219.46875-.203126.3125-.339843.695313-.640624 1.136719-.890624.183594-.101563.285156-.308594.253906-.519532-.03125-.21875-.066406-.433594-.101562-.652344zm-.105469.222656c.027344.183594.058594.367188.085938.550782.023437.148437-.050782.300781-.183594.375h-.003906c-.453126.253906-.847657.566406-1.171876.917968-.09375.101563-.222656.15625-.363281.15625h-.457031c.441406-.792968 1.164062-1.480468 2.09375-2m8.558594 2.296876c-.277344 0-.535156.050781-.757813.148437-.214843.097656-.410156.238281-.566406.414063-.152344.175781-.273437.378906-.355469.613281-.078125.234375-.121094.484375-.121094.746093 0 .257813.042969.503907.121094.734376.082032.230468.199219.433593.355469.605468.160156.171875.351563.3125.566406.40625h.003907c.21875.097656.476562.148438.753906.148438.226562 0 .433594-.035156.621094-.105469.1875-.066406.355468-.171875.5-.304687.144531-.136719.261718-.296876.34375-.476563.085937-.183594.136718-.394531.15625-.617187l.011718-.121094h-.949218l-.011719.097656c-.027344.207031-.097657.371094-.210938.496094-.109375.117187-.257812.175781-.460937.175781-.15625 0-.28125-.027344-.378906-.082031v-.003906c-.101563-.050782-.1875-.128907-.253907-.226563-.066406-.097656-.117187-.210937-.144531-.332031-.03125-.128906-.046875-.257813-.046875-.390625 0-.144531.015625-.28125.046875-.414063.027344-.121094.078125-.238281.144531-.339844.066407-.097656.152344-.175781.253907-.230468.097656-.054688.226562-.085938.378906-.085938.078125 0 .15625.011719.230468.039063.140626.050781.261719.144531.339844.273437.039063.058594.0625.125.074219.195313l.015625.09375h.949219l-.015625-.125c-.023438-.210938-.082032-.402344-.175782-.566407v-.003906c-.089843-.160156-.210937-.304687-.359374-.417968-.144532-.113282-.308594-.199219-.484376-.257813-.1875-.058594-.378906-.085937-.574218-.085937m-11.8125.019531c-.269532 0-.511719.050781-.730469.152343-.210937.101563-.398437.242188-.550781.414063-.152344.179687-.269532.382813-.34375.605469-.0820315.234375-.121094.480468-.121094.726562 0 .257813.0390625.503906.121094.734375.078125.226563.191406.429688.34375.601563.148437.175781.332031.3125.550781.414062.214844.101563.460937.152344.730469.152344.269531 0 .515625-.050781.734375-.152344.210937-.097656.398437-.238281.550781-.410156v-.003906c.152344-.175782.269531-.382813.34375-.605469.082031-.234375.121094-.480469.121094-.730469 0-.253906-.039063-.496094-.121094-.726562-.074219-.222656-.191406-.425782-.34375-.605469l-.019531-.023437h-.003907c-.148437-.164063-.328124-.296876-.527343-.386719-.214844-.105469-.464844-.15625-.734375-.15625m13.601562.0625v3.652343h2.652344v-.855468h-1.675781v-2.796875zm1.21875.058593v.128907h.136719v.351562h.144531v-.351562h.136719v-.128907zm.441406 0v.480469h.136719v-.261719l.074219.261719h.109375l.074219-.261719v.261719h.136718v-.480469h-.199218l-.066406.257813-.066407-.257813zm-3.449218 0c.1875 0 .367187.027344.53125.078126.160156.050781.308594.132812.441406.234374.132812.105469.242188.230469.324219.378907.078125.140625.125.304687.148437.484375h-.667968l.003906.027344c-.011719-.089844-.042969-.175782-.089844-.25-.097656-.15625-.242188-.269532-.414062-.332032-.089844-.03125-.183594-.046875-.277344-.046875-.171875 0-.324219.035157-.445313.105469v-.003906c-.121093.066406-.226562.160156-.300781.277344-.078125.117187-.136719.25-.167969.386718-.03125.144532-.050781.292969-.050781.445313 0 .140625.019531.285156.050781.425781.035157.132812.089844.261719.167969.378906.078125.109375.179688.203125.296875.269532.128906.070312.277344.101562.449219.101562.230468 0 .425781-.074219.5625-.222656.136718-.148438.21875-.34375.246094-.570313l-.003907.023438h.671875c-.023437.195312-.066406.378906-.140625.539062-.074219.164063-.179687.308594-.308593.433594-.132813.121094-.285157.214844-.453126.273437v.003907c-.171874.0625-.363281.09375-.574218.09375-.261719 0-.496094-.046875-.699219-.136719-.199219-.085938-.375-.210938-.519531-.371094-.144532-.15625-.253906-.34375-.328125-.558594-.074219-.210937-.113281-.445312-.113281-.6875 0-.246093.039062-.484374.113281-.699218.078125-.21875.1875-.40625.328125-.566406.144531-.164063.320312-.292969.519531-.378907.203125-.089843.4375-.136719.699219-.136719m-11.8125.019532c.253906 0 .480468.046875.675781.140625.195313.085937.367187.214843.503906.378906.140625.164063.25.351563.316407.558594.078124.210937.113281.4375.113281.679687 0 .234375-.035157.464844-.113281.6875-.066407.203125-.175782.394532-.316407.558594-.140625.160156-.3125.289062-.503906.375-.199219.09375-.421875.140625-.675781.140625-.25 0-.476563-.046875-.671875-.140625-.203125-.089844-.367188-.214844-.503907-.375-.140624-.164062-.25-.355469-.320312-.558594-.074219-.214844-.109375-.445312-.109375-.6875 0-.230468.035156-.460937.113281-.679687.066406-.207031.175782-.394531.316406-.558594v-.003906c.140626-.15625.3125-.285157.503907-.375.199219-.09375.421875-.140625.671875-.140625m14.847656.007812h.359375v.074219h-.132813v.347656h-.089843v-.347656h-.136719zm.917969 0v.421875h-.082031v-.339843h-.027344l-.09375.339843h-.070313l-.09375-.339843h-.027343v.339843h-.082032v-.421875h.148438l.089844.34375.089843-.34375zm-2.023438.054688h.699219v2.796875h1.671875v.574219h-2.371094zm-13.738281.292968c-.195312 0-.367188.042969-.515625.121094-.144531.082032-.265625.191406-.355469.324219s-.15625.285156-.199218.449219c-.042969.167968-.0625.335937-.0625.507812s.019531.339844.0625.507813c.039062.160156.105468.3125.199218.449219.089844.136718.210938.246093.355469.324218.148437.082032.320313.121094.515625.121094s.367188-.039062.515625-.121094c.140625-.078125.261719-.1875.355469-.324218.089844-.132813.152344-.28125.199218-.449219.039063-.164063.0625-.335938.0625-.507813s-.019531-.339844-.0625-.503906v-.003906c-.039062-.160156-.109374-.3125-.199218-.449219-.089844-.132813-.210938-.246094-.355469-.324219-.148437-.078125-.320313-.121094-.515625-.121094zm0 .140626c.175781 0 .324219.035156.449219.105468.121093.066406.226562.160156.304687.277344.082032.125.144532.261719.179688.40625.039062.15625.058594.3125.058594.472656s-.019532.316406-.058594.472656c-.039063.152344-.097656.289063-.179688.40625-.078125.117188-.183594.210938-.304687.28125-.125.066407-.273438.101563-.449219.101563-.179688 0-.324219-.035156-.449219-.101563-.125-.066406-.226562-.164062-.304687-.28125-.085938-.121093-.144532-.261718-.179688-.40625-.039062-.152343-.058594-.3125-.058594-.472656s.019532-.316406.058594-.472656c.039063-.152344.097656-.289062.179688-.40625.078125-.113281.183594-.210938.304687-.277344.125-.070312.273438-.105468.449219-.105468zm8.855469.339843c-.179688 0-.34375.042969-.492188.128907-.097656.058593-.164062.148437-.238281.234374v-.292968h-.667969v2.667968h.699219v-1.5625c0-.082031.011719-.160156.039062-.234374.023438-.070313.0625-.136719.109376-.191407.046874-.050781.105468-.09375.167968-.125.0625-.027343.136719-.042969.226563-.042969.15625 0 .253906.039063.316406.109376.0625.070312.105469.199218.109375.390624v1.660157h.699219v-1.808594c0-.300781-.089844-.539063-.265625-.699219-.175782-.15625-.414063-.234375-.703125-.234375m-2.84375 0c-.199219 0-.378907.039063-.539063.113281-.15625.078126-.292968.179688-.40625.308594-.113281.132813-.203125.285156-.257812.449219-.0625.171875-.089844.347656-.089844.535156 0 .203125.027344.390625.085938.5625.054687.171875.140624.320313.253906.445313.113281.125.257812.226562.414062.289062.164063.070313.351563.105469.558594.105469.136719 0 .277344-.019531.414062-.058594.128907-.039062.25-.097656.359376-.179687.109374-.078125.207031-.175782.277343-.289063.078125-.113281.132813-.246093.164063-.390625l.019531-.082031h-.667969l-.015625.046875c-.046875.128906-.109375.21875-.199219.28125-.082031.058594-.199218.089844-.351562.089844-.113281 0-.203125-.015625-.277344-.054688-.074218-.03125-.136718-.082031-.1875-.144531-.050781-.0625-.085937-.136719-.109375-.214844-.019531-.0625-.023437-.128906-.03125-.195312h1.847657l.007812-.058594c.023438-.195313.011719-.390625-.039062-.578125-.050782-.179688-.128907-.347656-.242188-.496094-.109375-.148437-.253906-.265625-.417969-.351562-.167969-.089844-.359375-.132813-.570312-.132813zm-2.632813.003907c-.164062-.003907-.328125.03125-.480468.101562-.09375.039062-.171876.105469-.242188.179688v-.214844h-.667969v3.601562h.699219v-1.160156c.019531.019531.03125.046875.054688.0625.070312.054688.144531.097656.222656.132812.082031.035157.167968.0625.253906.078126.082031.011718.171875.019531.257812.019531.195313 0 .367188-.035157.515626-.117188h.003906c.140625-.074219.265625-.183593.363281-.3125.09375-.128906.164063-.28125.210937-.449219.046876-.164062.066407-.335937.066407-.511718.003906-.183594-.023438-.367188-.074219-.542969-.050781-.164063-.128906-.316406-.234375-.449219-.105469-.132812-.242187-.238281-.394531-.308594-.160156-.074218-.34375-.109374-.550782-.109374zm5.476563.136718c.265625 0 .464843.066406.609375.195313.144531.128906.21875.320312.21875.597656v1.667969h-.417969v-1.523438c-.007813-.207031-.050781-.371094-.144531-.476562-.09375-.109375-.242188-.160156-.421875-.160156-.105469 0-.199219.019531-.285157.058593-.082031.039063-.152343.089844-.214843.160157-.058594.066406-.105469.148437-.136719.234374-.03125.089844-.046875.1875-.046875.28125v1.425782h-.417969v-2.394532h.390625v.332032l.09375.089844.042969-.074219c.082031-.128907.183594-.230469.308594-.304688s.265625-.109375.421875-.109375zm-2.84375 0c.191406 0 .359375.039063.503906.117188h.003906c.144531.074218.269531.179687.371094.308594.097656.136718.171875.285156.214844.449218.039062.148438.042969.304688.03125.464844h-1.859375v.066406c0 .105469.015625.207032.042968.304688.03125.097656.078126.1875.140626.265625s.140624.140625.234374.179687c.097657.046875.207032.070313.332032.070313.175781 0 .324218-.035157.4375-.117188.097656-.070312.164062-.179687.214844-.304687h.394531c-.027344.09375-.054688.183594-.105469.257812h-.003906v.003906c-.0625.097657-.144532.183594-.238282.25h-.003906c-.09375.070313-.203125.125-.316406.15625v.003907c-.125.035156-.25.050781-.375.050781h-.003906c-.191406 0-.355469-.03125-.5-.09375-.140625-.054688-.265625-.144531-.367188-.253906-.097656-.109375-.171875-.242188-.222656-.398438-.054688-.152344-.078125-.324218-.078125-.515625 0-.171875.023437-.335937.078125-.488281h.003906c.046875-.148438.125-.285156.230469-.402344.097656-.117187.21875-.207031.363281-.277344.136719-.0625.296875-.097656.476563-.097656zm-2.632813 0c.191406 0 .355469.035156.492188.097656l.003906.003907c.132812.058593.25.152343.34375.265625.09375.121094.164062.257812.207031.402344.050781.164062.074219.332031.074219.503906 0 .164062-.023438.324218-.0625.476562-.042969.152344-.105469.285156-.191406.398438-.082032.117187-.191406.210937-.316406.273437-.128907.070313-.277344.105469-.453126.105469-.078124 0-.15625-.007812-.234374-.023438-.074219-.011718-.148438-.035156-.21875-.066406-.070313-.027344-.136719-.066406-.195313-.113281-.058594-.042969-.105469-.097656-.140625-.160156l-.023438-.035157h-.117187v1.265626h-.417969v-3.328126h.390625v.347657h.121094l.019531-.039063c.070313-.132812.167969-.226562.292969-.285156.136719-.058594.28125-.089844.425781-.089844m-.070312.296875c-.25 0-.457032.09375-.589844.277344-.128906.175781-.191406.410156-.191406.691406 0 .125.015625.25.050781.371094.027344.113281.082031.214844.148437.308594.066407.085937.152344.15625.246094.203125h.003906c.09375.050781.207032.078125.332032.078125.136718 0 .257812-.027344.359375-.085938.09375-.058593.175781-.132812.238281-.226562.0625-.089844.105469-.195313.132812-.308594.027344-.109375.039063-.226563.039063-.339844 0-.117187-.011719-.238281-.042969-.351562-.027344-.109375-.078125-.214844-.144531-.308594-.0625-.089844-.144531-.164063-.242187-.222656-.101563-.054688-.214844-.085938-.339844-.085938zm2.703125.003907c-.105469 0-.203125.019531-.292969.058593-.085938.035157-.164062.089844-.230469.15625-.0625.066407-.117187.148438-.152343.234375-.035157.09375-.058594.191406-.058594.289063l-.003906.070312h1.453124l-.007812-.074219c-.007812-.09375-.027344-.183593-.058594-.273437-.035156-.085937-.082031-.164063-.140625-.234375-.0625-.066406-.136719-.121094-.21875-.160156-.085937-.046875-.183593-.066406-.289062-.066406zm-2.703125.136718c.105468 0 .191406.023438.269531.066406.078125.046876.148437.109376.199219.183594.054687.078125.097656.167969.121094.261719.027343.101563.042968.207031.042968.316406 0 .101563-.011718.207031-.035156.308594-.027344.097656-.0625.1875-.113281.261719-.054688.074218-.121094.136718-.199219.183594-.074219.042968-.167969.066406-.285156.066406-.105469 0-.195313-.019532-.269532-.058594-.078124-.042969-.144531-.097656-.199218-.167969-.058594-.078125-.101563-.164062-.128906-.257812-.03125-.109375-.042969-.222657-.042969-.335938 0-.261719.054687-.460937.164062-.609375.109375-.148437.257813-.21875.476563-.21875zm2.703125.003906c.085937 0 .160156.015626.226562.050782.066407.03125.125.074218.175781.128906.046876.054688.085938.117188.113282.191406.019531.050782.027344.105469.035156.160156h-1.132812c.007812-.058593.015624-.117187.035156-.167968.03125-.074219.070312-.136719.125-.191406.050781-.054688.113281-.097657.183594-.125.070312-.03125.148437-.046876.238281-.046876zm0 0"/></svg>