<svg height="18" viewBox="0 0 18 18" width="18" xmlns="http://www.w3.org/2000/svg"><g fill="none" stroke="#fff" stroke-linecap="round" stroke-linejoin="round" stroke-width="2" transform="scale(.75)"><path d="m15 12c0 1.65625-1.34375 3-3 3s-3-1.34375-3-3 1.34375-3 3-3 3 1.34375 3 3zm0 0"/><path d="m21 5c0 1.104167-.895833 2-2 2s-2-.895833-2-2 .895833-2 2-2 2 .895833 2 2zm0 0"/><path d="m7 19c0 1.104167-.895833 2-2 2s-2-.895833-2-2 .895833-2 2-2 2 .895833 2 2zm0 0"/><path d="m10.401042 21.901042c3.927083.645833 7.864583-1.104167 10.026041-4.447917 2.15625-3.348958 2.125-7.65625-.088541-10.96875m-6.838542-4.385417c-3.911458-.598958-7.807292 1.171875-9.9375 4.505209-2.130208 3.338541-2.09375 7.614583.098958 10.911458"/></g></svg>