<svg height="18" viewBox="0 0 18 18" width="18" xmlns="http://www.w3.org/2000/svg"><g fill="none" stroke="#fff" stroke-linecap="round" stroke-linejoin="round" stroke-width="2" transform="scale(.75)"><path d="m12 12v-8c0-.552083.447917-1 1-1h6.296875c.416667 0 .791667.260417.9375.651042.145833.395833.03125.833333-.286458 1.109375l-4.697917 4.026041m-3.25 12.213542-7.411458-7.411458c-.380209-.375-.588542-.885417-.588542-1.416667v-5.755208c0-.40625.244792-.765625.619792-.921875.369791-.15625.802083-.072917 1.088541.213541l14.291667 14.302084"/><path d="m12.213542 3.380208 8.416666 14.96875c.21875.390625.151042.880209-.166666 1.197917l-1.171875 1.161458c-.1875.1875-.442709.291667-.703125.291667h-12.239584c-.223958 0-.447916-.078125-.625-.21875l-2.473958-1.979167c-.333333-.265625-.458333-.713541-.317708-1.114583.140625-.40625.520833-.671875.947916-.666667l4.166667.026042"/></g></svg>