<svg height="18" viewBox="0 0 18 18" width="18" xmlns="http://www.w3.org/2000/svg"><path d="m5.316406 4.871094-.105468 3.371094c.101562-.050782.210937-.09375.316406-.128907.121094-.042969.242187-.078125.367187-.109375.125-.035156.253907-.058594.382813-.074218.121094-.015626.246094-.027344.371094-.027344.167968 0 .332031.019531.496093.058594.15625.035156.308594.101562.4375.199218.132813.09375.238281.222656.320313.378906.082031.15625.121094.351563.121094.589844 0 .1875-.03125.355469-.089844.503906-.0625.144532-.144532.269532-.25.367188-.105469.101562-.230469.175781-.363282.226562-.144531.054688-.292968.082032-.445312.078126-.277344 0-.519531-.074219-.722656-.222657-.203125-.144531-.347656-.34375-.4375-.585937l-.011719.003906-.753906.710938c.148437.246093.351562.460937.59375.621093.351562.242188.789062.363281 1.304687.363281.308594 0 .597656-.050781.871094-.148437s.511719-.242187.714844-.425781c.203125-.1875.363281-.414063.480468-.683594.121094-.273438.179688-.578125.179688-.921875 0-.3125-.054688-.589844-.160156-.828125-.109375-.242188-.257813-.445312-.449219-.613281-.191406-.164063-.414063-.289063-.675781-.375-.257813-.089844-.535156-.132813-.839844-.132813-.109375 0-.234375.007813-.367188.019532-.136718.011718-.257812.03125-.355468.058593l.0625-1.332031h2.515625v-.941406zm7.332032 1.789062v4.671875c0 .125-.007813.238281-.019532.34375-.011718.109375-.035156.203125-.078125.285157-.039062.078124-.097656.144531-.171875.191406-.078125.046875-.175781.070312-.296875.070312-.097656 0-.195312-.011718-.289062-.035156l-.085938.886719c.050781.011719.121094.023437.207031.035156.089844.011719.175782.019531.261719.015625.316407 0 .566407-.046875.761719-.144531.195312-.101563.347656-.230469.464844-.398438.113281-.164062.1875-.359375.226562-.582031.042969-.234375.0625-.472656.0625-.710938v-4.628906zm-10.109376.074219c-.191406 0-.363281.023437-.515624.066406-.144532.039063-.28125.097657-.414063.167969-.121094.066406-.226563.140625-.308594.226562-.078125.074219-.144531.15625-.207031.246094h-.023438v-.582031h-1.0039058v6.269531h1.0468748v-2.648437h.015625c.132813.207031.324219.375.570313.496093.25.121094.519531.183594.816406.183594.316406 0 .605469-.058594.855469-.179687.253906-.117188.46875-.277344.644531-.480469.179687-.199219.316406-.433594.410156-.703125.097657-.269531.144531-.558594.144531-.867187 0-.308594-.050781-.59375-.148437-.863282-.097656-.265625-.238281-.496094-.417969-.695312-.179687-.195313-.398437-.355469-.644531-.464844-.25-.113281-.523437-.171875-.820313-.171875zm13.828126 0c-.207032 0-.414063.027344-.613282.078125-.1875.050781-.367187.132812-.53125.242188-.15625.105468-.285156.246093-.378906.414062s-.140625.367188-.140625.601562c0 .195313.035156.359376.101563.492188.070312.132812.164062.246094.28125.335938.121093.09375.253906.167968.394531.21875.148437.054687.300781.101562.457031.136718.320312.074219.558594.148438.71875.226563.160156.074219.238281.199219.238281.375 0 .089843-.019531.167969-.058593.234375-.042969.0625-.097657.113281-.160157.152344-.070312.035156-.144531.066406-.21875.082031-.078125.015625-.152343.027343-.230469.027343-.226562 0-.433593-.050781-.621093-.148437-.183594-.101563-.335938-.226563-.449219-.375l-.691406.644531c.207031.21875.460937.390625.769531.507813.300781.117187.621094.179687.949219.179687.226562 0 .445312-.027344.65625-.074218.210937-.050782.398437-.128907.558594-.238282.160156-.113281.289062-.261718.382812-.433594.09375-.175781.140625-.390624.140625-.648437 0-.203125-.039063-.375-.121094-.515625-.078125-.140625-.1875-.261719-.316406-.359375-.132813-.097656-.28125-.175781-.4375-.230469-.152344-.054687-.3125-.101562-.472656-.140625-.296875-.066406-.519531-.136719-.675781-.203125-.152344-.066406-.230469-.179687-.230469-.34375 0-.164062.070312-.277344.210937-.347656.136719-.070312.292969-.105469.460938-.105469.191406 0 .367187.046875.53125.136719.160156.089844.289062.195312.382812.316406l.679688-.601562c-.167969-.214844-.398438-.375-.683594-.476563-.285156-.105469-.582031-.160156-.886719-.160156m-14.058593.855469c.203124 0 .382812.039062.53125.117187.148437.074219.273437.179688.375.308594.097656.128906.175781.277344.222656.429687.046875.15625.074218.320313.074218.484376 0 .164062-.027343.332031-.074218.488281s-.121094.304687-.222656.4375c-.097657.125-.222657.230469-.375.3125-.148438.078125-.328126.121093-.53125.121093-.191407 0-.363282-.039062-.511719-.117187-.148438-.078125-.28125-.183594-.386719-.308594-.109375-.128906-.191406-.273437-.246094-.433593-.054687-.152344-.082031-.316407-.082031-.480469 0-.167969.027344-.332031.082031-.488281.105469-.320313.332032-.589844.632813-.75.148437-.082032.320312-.121094.511719-.121094m8.359374 1.914062v.648438l-.628906-.203125-.121094.378906.625.226563-.386718.523437.316406.242187.394531-.523437.40625.535156.324219-.234375-.386719-.542968.621094-.214844-.121094-.375-.625.1875v-.648438zm0 0" fill="#ed225d"/></svg>