<svg height="18" viewBox="0 0 18 18" width="18" xmlns="http://www.w3.org/2000/svg"><g fill="none" stroke="#fff" stroke-linecap="round" stroke-linejoin="round" stroke-width="2" transform="scale(.75)"><path d="m16 16h6m-1-6v-2c0-.713542-.380208-1.375-1-1.729167l-7-4c-.619792-.359375-1.380208-.359375-2 0l-7 4c-.619792.354167-1 1.015625-1 1.729167v8c0 .713542.380208 1.375 1 1.729167l7 4c.619792.359375 1.380208.359375 2 0l2-1.140625m-7.5-16.317709 9 5.151042"/><path d="m3.291667 7 8.708333 5 8.708333-5m-8.708333 15v-10"/></g></svg>