<svg height="18" viewBox="0 0 18 18" width="18" xmlns="http://www.w3.org/2000/svg"><g fill="none" stroke="#fff" stroke-linecap="round" stroke-linejoin="round" stroke-width="2" transform="scale(.75)"><path d="m12 22v-9m3.171875-10.791667c.505208-.28125 1.119792-.28125 1.630208 0l4.197917 2.359375c.604167.34375.979167.984375.979167 1.682292s-.375 1.338542-.979167 1.682292l-12.182292 6.859375c-.505208.286458-1.130208.286458-1.635416 0l-4.182292-2.359375c-.604167-.34375-.979167-.984375-.979167-1.682292s.375-1.338542.979167-1.682292zm0 0"/><path d="m20 13v3.869792c0 .770833-.427083 1.473958-1.109375 1.828125l-6 3.083333c-.557292.286458-1.223958.286458-1.78125 0l-6-3.083333c-.682292-.354167-1.109375-1.057292-1.109375-1.828125v-3.869792"/><path d="m21 12.432292c.604167-.34375.979167-.984375.979167-1.682292s-.375-1.338542-.979167-1.682292l-12.171875-6.869791c-.505208-.286459-1.125-.286459-1.630208 0l-4.197917 2.369791c-.604167.34375-.979167.984375-.979167 1.682292s.375 1.338542.979167 1.682292l12.182292 6.859375c.5.286458 1.125.286458 1.630208 0zm0 0"/></g></svg>