<svg height="18" viewBox="0 0 18 18" width="18" xmlns="http://www.w3.org/2000/svg"><path d="m10 2v2m4-2v4m3-4c.552083 0 1 .447917 1 1v9h-12v-9c0-.552083.447917-1 1-1zm-11 10c-.552083 0-1 .447917-1 1v1c0 1.104167.895833 2 2 2h2c.552083 0 1 .447917 1 1v2.901042c0 1.104166.895833 2 2 2s2-.895834 2-2v-2.901042c0-.552083.447917-1 1-1h2c1.104167 0 2-.895833 2-2v-1c0-.552083-.447917-1-1-1" fill="none" stroke="#fff" stroke-linecap="round" stroke-linejoin="round" stroke-width="2" transform="scale(.75)"/></svg>