<svg height="18" viewBox="0 0 18 18" width="18" xmlns="http://www.w3.org/2000/svg"><path d="m12.59375 0v13.613281h2.089844v-13.613281zm.136719.140625h1.8125v13.332031h-1.8125zm-6.277344.914063v4.195312h2.089844v-4.195312zm.136719.140624h1.8125v3.914063h-1.8125zm-3.273438 3.191407v13.613281h2.089844v-13.613281zm6.207032.003906v4.195313h2.089843v-4.195313zm-6.066407.136719h1.8125v13.332031h-1.8125zm6.207031.003906h1.808594v3.914062h-1.808594zm-3.210937 1.761719v2.050781h2.089844v-2.050781zm.136719.136719h1.8125v1.773437h-1.8125zm-.136719 2.953124v4.191407h2.089844v-4.191407zm.136719.136719h1.8125v3.914063h-1.8125zm2.933594.109375v2.050782h2.089843v-2.050782zm.140624.140625h1.808594v1.773438h-1.808594zm-.140624 2.957031v4.191407h2.089843v-4.191407zm.140624.136719h1.808594v3.914063h-1.808594zm0 0" fill="#130754"/></svg>