<svg height="18" viewBox="0 0 18 18" width="18" xmlns="http://www.w3.org/2000/svg"><g fill="none" stroke="#fff" stroke-linecap="round" stroke-linejoin="round" stroke-width="2" transform="scale(.75)"><path d="m13 4c0 1.104167-.895833 2-2 2s-2-.895833-2-2 .895833-2 2-2 2 .895833 2 2zm0 0"/><path d="m20 8c0 1.104167-.895833 2-2 2s-2-.895833-2-2 .895833-2 2-2 2 .895833 2 2zm0 0"/><path d="m22 16c0 1.104167-.895833 2-2 2s-2-.895833-2-2 .895833-2 2-2 2 .895833 2 2zm0 0"/><path d="m9 10c2.760417 0 5 2.239583 5 5v3.5c0 1.729167-1.260417 3.197917-2.973958 3.458333-1.708334.260417-3.348959-.765625-3.864584-2.411458-.427083-1.380208-1.328125-2.28125-2.703125-2.708333-1.645833-.515625-2.671875-2.15625-2.411458-3.864584.260417-1.708333 1.723958-2.96875 3.453125-2.973958zm0 0"/></g></svg>