<svg height="18" viewBox="0 0 18 18" width="18" xmlns="http://www.w3.org/2000/svg"><path d="m13 7-4.302083-4.302083c-.9375-.932292-2.458334-.932292-3.395834 0l-2.604166 2.604166c-.932292.9375-.932292 2.458334 0 3.395834l4.302083 4.302083m1-7 2-2m8 12 2-2m-3-3 4.302083 4.302083c.9375.9375.9375 2.458334 0 3.395834l-2.604166 2.604166c-.9375.9375-2.458334.9375-3.395834 0l-4.302083-4.302083m10.171875-10.1875c1.104167-1.098958 1.104167-2.885417.005208-3.989583-1.104166-1.098959-2.890625-1.098959-3.989583 0l-13.34375 13.348958c-.234375.234375-.40625.520833-.5.833333l-1.322917 4.348959c-.052083.177083-.005208.369791.125.5.130209.130208.322917.177083.5.125l4.348959-1.322917c.317708-.09375.598958-.265625.833333-.494792zm-6.171875-1.8125 4 4" fill="none" stroke="#fff" stroke-linecap="round" stroke-linejoin="round" stroke-width="2" transform="scale(.75)"/></svg>