<svg height="18" viewBox="0 0 18 18" width="18" xmlns="http://www.w3.org/2000/svg"><path d="m7.5 17.933594c-1.953125-.347656-3.632812-1.242188-5.019531-2.675782-1.179688-1.21875-1.992188-2.753906-2.359375-4.460937-.1601565-.742187-.1601565-2.855469 0-3.59375.25-1.15625.734375-2.304687 1.394531-3.304687.4375-.664063 1.71875-1.945313 2.382813-2.382813 1-.660156 2.148437-1.144531 3.304687-1.394531.738281-.1601565 2.855469-.1601565 3.59375 0 1.800781.386718 3.296875 1.203125 4.589844 2.492187 1.292969 1.292969 2.105469 2.789063 2.492187 4.589844.160156.738281.160156 2.851563 0 3.59375-.386718 1.800781-1.199218 3.296875-2.492187 4.585937-1.273438 1.273438-2.75 2.085938-4.519531 2.484376-.628907.140624-2.707032.179687-3.367188.066406zm1.628906-1.796875c0-.589844-.007812-.632813-.128906-.632813-.117188 0-.128906.039063-.121094.546875.003906.601563.046875.785157.167969.742188.058594-.015625.082031-.207031.082031-.65625zm-.953125.203125c.167969-.167969.21875-.269532.21875-.453125 0-.183594-.023437-.230469-.109375-.210938-.054687.011719-.128906.105469-.15625.210938s-.140625.265625-.25.359375c-.199218.167968-.207031.308594-.015625.308594.054688 0 .195313-.097657.3125-.214844m2.101563.148437c.023437-.039062-.046875-.148437-.15625-.242187s-.222656-.253906-.25-.359375-.101563-.199219-.15625-.210938c-.085938-.019531-.109375.027344-.109375.210938 0 .367187.527343.835937.671875.601562m-2.902344-1.148437c0-.035156-.089844-.113282-.199219-.175782-.710937-.386718-1.546875-1.007812-2.007812-1.492187-.90625-.941406-1.3125-1.878906-1.324219-3.046875-.003906-.777344.09375-1.1875.472656-1.914062.367188-.703126.792969-1.234376 1.964844-2.449219 1.304688-1.355469 1.605469-1.714844 1.832031-2.183594.160157-.332031.183594-.453125.207031-1.160156.027344-.871094-.027343-1.476563-.132812-1.476563-.046875 0-.054688.226563-.027344.738282.085938 1.628906-.214844 2.136718-2.097656 3.496093-1.292969.941407-1.886719 1.449219-2.335938 2.007813-.632812.789062-.914062 1.472656-.984374 2.398437-.171876 2.230469 1.242187 4.164063 3.738281 5.117188.550781.207031.894531.261719.894531.140625zm4.316406-.179688c.855469-.355468 1.507813-.789062 2.125-1.40625.9375-.941406 1.328125-1.824218 1.386719-3.128906.050781-1.144531-.199219-1.898438-.90625-2.757812-.484375-.585938-1.007813-1.007813-2.414063-1.941407-1.894531-1.257812-2.339843-1.761719-2.339843-2.636719 0-.234374.042969-.5625.09375-.734374.085937-.289063.082031-.492188-.003907-.261719-.082031.21875-.273437.117187-.375-.195313l-.101562-.304687.039062.289062c.132813 1.015625.148438 1.441407.089844 2.335938-.078125 1.203125-.226562 2.027343-.632812 3.523437-.40625 1.488282-.476563 2.027344-.425782 3.160156.039063.960938.175782 1.679688.488282 2.617188.289062.867188.34375.933594.875 1.070312.292968.074219.570312.203126.792968.363282.207032.148437.414063.246094.53125.25.105469 0 .453126-.109375.777344-.242188m-.195312-.433594c-.078125-.078124-.039063-.144531.269531-.488281.980469-1.085937 1.421875-2.203125 1.433594-3.644531.007812-.984375-.210938-1.636719-.871094-2.613281-.300781-.445313-1.355469-1.550781-1.867187-1.957031-.375-.296876-.757813-.800782-.828126-1.089844-.070312-.289063.125-.214844.351563.136718.109375.175782.351563.425782.535156.5625.179688.140626.71875.542969 1.195313.894532 1.640625 1.21875 2.371094 2.261718 2.535156 3.609375.097656.78125-.054688 1.589843-.4375 2.339843-.394531.777344-1.113281 1.625-1.730469 2.035157-.382812.253906-.5.300781-.585937.214843m-3.210938.082032c.019532-.046875-.144531-.355469-.363281-.683594-.582031-.871094-.832031-1.351562-1.070313-2.03125-.199218-.578125-.207031-.65625-.210937-1.53125 0-1.328125.140625-1.75 1.195313-3.496094.992187-1.648437 1.125-2.285156 1.015624-4.820312-.042968-.910156-.085937-1.664063-.101562-1.679688-.105469-.105468-.128906.164063-.089844 1.078125.078125 1.816407-.039062 2.832031-.421875 3.664063-.261719.566406-.554687.996094-1.339843 1.96875-1.097657 1.355468-1.40625 2.074218-1.398438 3.253906.003906.804688.113281 1.300781.4375 1.992188.355469.75 1.003906 1.503906 1.820312 2.113281.375.277343.476563.3125.527344.171875zm0 0"/></svg>