<svg height="18" viewBox="0 0 18 18" width="18" xmlns="http://www.w3.org/2000/svg"><path d="m6.757812 11.429688-.140624-.027344c-1.003907-.1875-1.640626-.792969-1.9375-1.75-.191407-.59375.152343-1.035156.777343-1.0625.511719-.023438.859375.269531 1.167969.613281.402344.441406.765625.910156 1.160156 1.359375.5625.644531 1.226563 1.058594 2.136719.929688.816406-.113282 1.527344-.441407 2.148437-.980469.089844-.082031.195313-.152344.292969-.226563l-.0625-.074218c-.519531.164062-1.050781.21875-1.589843.191406-.820313-.042969-1.601563-.214844-2.296876-.664063-.640624-.410156-1.109374-.960937-1.332031-1.695312-.179687-.589844.1875-1.007813.804688-.921875.242187.035156.445312.144531.628906.300781.152344.125.292969.257813.445313.382813.71875.574218 1.722656.609374 2.632812-.019532-1.496094-.007812-2.515625-.828125-3.410156-1.875-.351563-.40625-.691406-.824218-1.050782-1.226562-.691406-.777344-1.457031-1.460938-2.507812-1.695313-1.34375-.300781-2.640625-.105469-3.882812.464844-.25.113281-.488282.246094-.742188.457031.125 0 .195312.003906.265625 0 .625-.015625 1.097656.265625 1.433594.777344.246093.371094.363281.796875.453125 1.230469.132812.644531.0625 1.300781.140625 1.949219.191406 1.664062 1.042969 2.824218 2.628906 3.417968.582031.21875 1.175781.292969 1.835937.144532zm-4.003906-7.59375c-.25.0625-.449218-.039063-.65625-.246094.355469-.089844.667969-.121094 1-.136719-.027344.21875-.15625.335937-.339844.382813zm8.203125 9.71875c-.019531-.160157-.15625-.230469-.265625-.3125-.476562-.371094-1.03125-.503907-1.621094-.511719-.355468-.007813-.703124-.035157-1.035156-.15625-.152344-.058594-.324218-.132813-.320312-.328125.003906-.199219.179687-.253906.335937-.304688.132813-.035156.265625-.0625.410157-.097656-.371094-.238281-.738282-.269531-1.226563-.074219-.765625.308594-1.523437.269531-2.285156-.003906-.433594-.15625-.816407-.402344-1.214844-.617187l-.011719.007812.011719-.007812c-.011719-.03125-.027344-.03125-.050781-.015626l.03125.027344c.328125.542969.777344.980469 1.28125 1.351563.972656.71875 2.035156 1.144531 3.277344.957031.402343-.0625.804687-.109375 1.210937-.144531.507813-.039063.992187.105469 1.472656.230469m-2.339843-7.777344c-.027344-.019532-.054688-.066406-.109376-.015625.449219.605469 1.023438 1.050781 1.714844 1.332031 1.113282.449219 2.246094.527344 3.40625.128906.898438-.308594 1.546875-.007812 1.882813.867188.046875-1.015625-.550781-1.753906-1.5-1.898438-.535157-.082031-1.027344.097656-1.527344.242188-1.394531.402344-2.6875.203125-3.867187-.65625zm6.941406 3.953125c.179687.015625.363281.035156.542968.050781-.410156-.363281-.910156-.390625-1.414062-.363281-.769531.046875-1.324219.488281-1.832031 1.019531-.445313.46875-.847657.992188-1.511719 1.179688.011719.019531.015625.03125.015625.03125.089844 0 .179687.003906.269531 0 .964844-.042969 1.875-.246094 2.597656-.949219.230469-.21875.433594-.464844.652344-.691407.183594-.191406.40625-.296874.679688-.277343zm-2.242188-1.195313c-.722656.0625-1.347656.359375-1.9375.753906-.453125.304688-.933594.445313-1.480468.351563-.09375-.015625-.191407-.027344-.289063-.042969v.039063c.03125.019531.066406.039062.101563.054687.089843.035156.179687.078125.273437.101563 1.046875.246093 2.050781.121093 2.953125-.464844.570312-.367187 1.160156-.4375 1.796875-.339844.066406.007813.128906.019531.195313.027344.058593.003906.121093.0625.203124 0-.558593-.402344-1.160156-.539063-1.816406-.480469m-2.578125-2.445312c.378907.011718.753907-.039063 1.152344-.273438-.117187.011719-.167969.011719-.214844.019532-.542969.109374-1.03125-.007813-1.46875-.355469-.160156-.125-.320312-.246094-.484375-.371094-.640625-.492187-1.378906-.65625-2.183594-.640625.015626.039062.015626.066406.03125.078125.875.886719 1.886719 1.496094 3.167969 1.542969zm6.339844 4.542968c-.542969-.535156-1.269531-.605468-1.945313-.136718.449219.019531.78125.160156 1.054688.441406.09375.101562.195312.195312.300781.285156.410157.332032 1.105469.347656 1.511719.039063-.476562-.1875-.476562-.1875-.921875-.628907zm-5.398437 4.117188c-.476563-.886719-1.277344-1.085938-2.203126-1.027344.273438.074219.53125.195313.765626.355469.214843.152344.394531.335937.574218.527344.351563.378906.90625.609375 1.269532.53125-.167969-.105469-.316407-.21875-.40625-.386719m4.429687-4.953125c0-.003906 0-.011719.003906-.015625h-.003906.003906-.011719l.007813.003906zm-5.125 3.78125-.019531-.011719c0 .003906.003906.007813.003906.011719zm-.019531-.011719v-.007812l-.003906.003906.003906-.003906h-.007813zm0 0" fill="#fd4f00"/></svg>