<svg height="18" viewBox="0 0 18 18" width="18" xmlns="http://www.w3.org/2000/svg" xmlns:xlink="http://www.w3.org/1999/xlink"><linearGradient id="a" gradientUnits="userSpaceOnUse" x1=".44232525378" x2="4.45529583265" y1="7.594904154" y2="10.40507521044"><stop offset=".19" stop-color="#71d7fc"/><stop offset=".29" stop-color="#67caf1"/><stop offset=".47" stop-color="#4ea9d5"/><stop offset=".7" stop-color="#2574a9"/><stop offset=".89" stop-color="#004480"/></linearGradient><path d="m16.191406 10.039062h.464844v-1.632812c.148438-.035156.300781-.054688.453125-.050781.257813 0 .429687.082031.429687.394531v1.289062h.460938v-1.300781c0-.589843-.324219-.820312-.882812-.820312-.308594 0-.699219.046875-.925782.132812zm-.824218-1.039062c0 .394531-.089844.648438-.503907.648438-.410156 0-.5-.253907-.5-.648438s.09375-.640625.5-.640625c.410157 0 .503907.246094.503907.640625m-.503907 1.085938c.652344 0 .964844-.429688.964844-1.085938 0-.683594-.285156-1.082031-.964844-1.082031-.648437 0-.96875.425781-.96875 1.082031 0 .6875.292969 1.085938.96875 1.085938m-2.457031-.785157c0 .59375.324219.78125.777344.78125.175781.003907.351562-.027343.515625-.089843l-.070313-.441407c-.140625.0625-.292968.09375-.449218.09375-.1875 0-.308594-.082031-.308594-.339843v-.90625h.75v-.4375h-.75v-.550782h-.464844zm-.824219-.300781c0 .394531-.089843.648438-.503906.648438s-.5-.253907-.5-.648438.09375-.640625.5-.640625c.410156 0 .503906.246094.503906.640625m-.5 1.085938c.652344 0 .964844-.429688.964844-1.085938 0-.683594-.289063-1.082031-.964844-1.082031-.648437 0-.96875.425781-.96875 1.082031 0 .6875.292969 1.085938.96875 1.085938zm-3.140625-.046876h.460938v-1.632812c.148437-.035156.304687-.054688.457031-.050781.257813 0 .429687.082031.429687.394531v1.289062h.457032v-1.289062c0-.617188-.347656-.832031-.867188-.832031-.160156-.003907-.320312.015625-.476562.058593v-.886718h-.460938zm-2.175781.894532h.460937v-.90625c.113282.042968.230469.0625.351563.058594.636719 0 1-.40625 1-1.117188 0-.679688-.320313-1.050781-1.046875-1.050781-.261719 0-.523438.042969-.769531.128906v2.886719zm1.34375-1.933594c0 .429688-.113281.648438-.550781.648438-.113282.007812-.230469-.015626-.332032-.066407v-1.179687c.105469-.035156.214844-.050782.328126-.046875.414062 0 .554687.167969.554687.640625zm0 0" fill="#004480"/><path d="m1.445312 9.929688c.011719.011718.023438.023437.039063.035156l.035156.039062-.6875.835938c-.039062-.035156-.078125-.074219-.117187-.109375-.035156-.039063-.070313-.074219-.105469-.113281zm.289063.238281-.515625.957031c-.089844-.054688-.175781-.113281-.257812-.175781l.683593-.84375c.03125.019531.058594.039062.089844.058593zm-.449219-.449219c.019532.03125.039063.058594.058594.085938l-.839844.683593c-.066406-.082031-.121094-.167969-.175781-.261719l.957031-.511718zm.691406.566406-.320312 1.035156c-.097656-.035156-.195312-.074218-.289062-.121093l.511718-.957031c.03125.015624.0625.027343.097656.039062zm-.808593-.8125c.011719.035156.023437.066406.039062.097656l-.957031.511719c-.046875-.09375-.085938-.191406-.121094-.292969zm1.066406.875-.109375 1.082032c-.101562-.015626-.207031-.039063-.308594-.066407l.3125-1.035156c.035156.007813.070313.015625.105469.019531m-1.132813-1.132812c.003907.035156.011719.070312.019532.105468l-1.0390628.308594c-.0273437-.097656-.046875-.203125-.0625-.304687zm-.019531-.265625v.105469l-1.07812475.105468c-.00390625-.105468-.00390625-.210937 0-.316406zm1.417969 1.414062.105469 1.082031c-.105469.003907-.207031.003907-.3125 0l.101562-1.082031c.035157.003907.070313.003907.105469 0m.265625-.035156.3125 1.039063c-.101563.027343-.203125.050781-.308594.0625l-.105469-1.078126c.035157-.003906.070313-.011718.101563-.019531zm-1.644531-1.648437c-.007813.035156-.015625.070312-.019532.105468l-1.0820308-.109375c.015625-.101562.0351563-.203125.0625-.304687l1.0390628.3125zm1.898437 1.5625.511719.957031c-.097656.046875-.191406.085937-.292969.121093l-.316406-1.039062c.035156-.011719.066406-.023438.097656-.039062zm-1.808593-1.820313c-.015626.035156-.03125.066406-.042969.101563l-1.035157-.320313c.035157-.101563.074219-.199219.121094-.292969l.957032.515625zm2.039062 1.683594.6875.839843c-.082031.0625-.171875.121094-.261719.175782l-.511719-.953125c.027344-.019531.058594-.039063.085938-.058594zm-1.90625-1.910157c-.019531.03125-.039062.058594-.058594.089844l-.957031-.515625c.054687-.089843.113281-.175781.175781-.257812zm2.945312 2.421876c-.070312.078124-.144531.152343-.222656.222656l-.691406-.835938.078125-.078125zm-3.457031-3.457032.6875.835938-.035156.035156c-.015625.015625-.027344.027344-.039063.039062l-.832031-.6875c.03125-.039062.066407-.078124.105469-.117187.039062-.035156.074219-.074219.113281-.105469zm3.738281 3.066406c-.054687.09375-.113281.179688-.175781.261719l-.839843-.6875c.019531-.027343.039062-.054687.058593-.085937zm-3.347656-3.347656.511719.957032c-.03125.019531-.058594.039062-.089844.058593l-.683593-.839843c.082031-.0625.167968-.121094.261718-.175782m3.542969 2.910156c-.03125.101563-.070313.199219-.117187.292969l-.957032-.511719c.011719-.03125.027344-.0625.039063-.097656zm-3.105469-3.109374.316406 1.039062c-.035156.011719-.066406.023438-.097656.039062l-.507812-.957031c.09375-.046875.191406-.085937.289062-.121093m3.214844 2.644531c-.011719.101562-.035156.207031-.0625.304687l-1.035156-.308594c.007812-.035156.015625-.070312.019531-.105468zm-2.75-2.753907.109375 1.082032c-.035156.003906-.070313.011718-.101563.019531l-.316406-1.035156c.101563-.027344.207032-.050781.308594-.066407m2.769531 2.273438c.003907.105469.003907.207031 0 .3125l-1.082031-.101562v-.109376zm-2.289062-2.289062-.105469 1.082031h-.105469l-.101562-1.082031c.101562-.003907.207031-.003907.3125 0m2.210937 1.816406c.027344.101562.050782.203125.0625.304687l-1.078125.109375c-.003906-.035156-.011719-.070312-.019531-.101562zm-1.734375-1.734375-.316406 1.035156c-.03125-.007813-.066406-.015625-.101563-.019531l.105469-1.082032c.105469.015626.210938.035157.308594.0625zm.449219.167969-.511719.953124c-.03125-.015624-.0625-.027343-.097656-.039062l.316406-1.039062c.101563.035156.195313.074218.292969.121093zm1.117188 1.117187c.042968.09375.085937.191406.117187.289063l-1.035156.320312c-.011719-.03125-.027344-.0625-.042969-.097656zm-.710938-.867187-.6875.839843c-.03125-.023437-.058594-.042969-.089844-.058593l.511719-.957032c.09375.050782.179687.109375.261719.175782zm.453125.453124c.066406.082032.125.167969.175781.261719l-.953125.511719c-.019531-.03125-.039062-.058594-.058593-.085938zm-.324219-.347656c.039063.035156.078125.070313.113282.109375.039062.035157.074218.074219.109374.113281l-.835937.691407c-.011719-.015625-.023437-.027344-.035156-.039063l-.039063-.039062zm0 0" fill="url(#a)" fill-rule="evenodd"/></svg>