<svg height="18" viewBox="0 0 18 18" width="18" xmlns="http://www.w3.org/2000/svg"><path d="m9 4.265625c-4.96875 0-9 2.121094-9 4.734375s4.03125 4.734375 9 4.734375 9-2.121094 9-4.734375-4.03125-4.734375-9-4.734375m-.839844 1.378906h1.023438l-.246094 1.261719h.914062c.574219 0 .972657.101562 1.191407.300781s.28125.527344.195312.976563l-.429687 2.207031h-1.042969l.410156-2.101563c.046875-.238281.027344-.398437-.050781-.488281-.082031-.085937-.253906-.128906-.515625-.128906h-.820313l-.527343 2.71875h-1.023438zm-4.402344 1.261719h1.988282c.597656 0 1.035156.15625 1.308594.472656.273437.3125.355468.75.246093 1.3125-.042969.230469-.121093.445313-.226562.636719-.109375.191406-.246094.367187-.421875.527344-.207032.191406-.433594.328125-.6875.410156-.25.082031-.574219.125-.964844.125h-.882812l-.246094 1.261719h-1.035156zm8.066407 0h1.988281c.597656 0 1.035156.15625 1.308594.472656.273437.3125.355468.75.246094 1.3125-.042969.230469-.121094.445313-.226563.636719s-.246094.367187-.421875.527344c-.203125.191406-.433594.328125-.6875.410156-.25.082031-.574219.125-.964844.125h-.882812l-.246094 1.261719h-1.035156zm-7.175781.75-.386719 1.984375h.628906c.414063 0 .726563-.078125.929687-.234375.203126-.15625.34375-.417969.414063-.785156.066406-.355469.035156-.601563-.09375-.75-.132813-.144532-.394531-.214844-.785156-.214844zm8.066406 0-.386719 1.984375h.628906c.417969 0 .726563-.078125.929688-.234375s.34375-.417969.414062-.785156c.066407-.355469.035157-.601563-.09375-.75-.128906-.144532-.390625-.214844-.785156-.214844zm0 0"/></svg>