<svg height="18" viewBox="0 0 18 18" width="18" xmlns="http://www.w3.org/2000/svg" xmlns:xlink="http://www.w3.org/1999/xlink"><radialGradient id="a" cx="5.403656" cy="5.930015" gradientUnits="userSpaceOnUse" r="11.818316"><stop offset="0" stop-color="#aeb2d5"/><stop offset=".3" stop-color="#aeb2d5"/><stop offset=".75" stop-color="#484c89"/><stop offset="1" stop-color="#484c89"/></radialGradient><path d="m0 9c0 2.613281 4.03125 4.734375 9 4.734375s9-2.121094 9-4.734375-4.03125-4.734375-9-4.734375-9 2.121094-9 4.734375" fill="url(#a)"/><path d="m9 13.382812c4.777344 0 8.648438-1.960937 8.648438-4.382812s-3.871094-4.382812-8.648438-4.382812-8.648438 1.960937-8.648438 4.382812 3.871094 4.382812 8.648438 4.382812" fill="#777bb3"/><path d="m4.890625 9.542969c.390625 0 .683594-.070313.871094-.214844.183593-.140625.308593-.386719.375-.726563.0625-.320312.039062-.542968-.070313-.664062s-.347656-.183594-.710937-.183594h-.628907l-.347656 1.789063zm-2.054687 2.207031c-.027344 0-.054688-.015625-.074219-.035156-.019531-.023438-.027344-.054688-.019531-.082032l.921874-4.746093c.007813-.042969.046876-.078125.09375-.078125h1.988282c.625 0 1.089844.171875 1.382812.503906.292969.335938.382813.808594.269532 1.398438-.046876.238281-.128907.464843-.238282.664062-.117187.207031-.265625.390625-.441406.550781-.214844.203125-.457031.347657-.722656.433594-.261719.085937-.597656.128906-.996094.128906h-.804688l-.230468 1.179688c-.007813.046875-.046875.082031-.09375.082031zm0 0"/><path d="m4.808594 7.851562h.546875c.4375 0 .589843.09375.640625.152344.085937.09375.101562.292969.046875.578125-.0625.316407-.175781.542969-.339844.667969-.167969.128906-.441406.195312-.8125.195312h-.394531zm.9375-1.140624h-1.988282c-.09375 0-.171874.066406-.191406.160156l-.921875 4.742187c-.011719.058594.003907.117188.042969.160157.035156.046874.089844.074218.148438.074218h1.035156c.09375 0 .171875-.066406.191406-.160156l.214844-1.101562h.722656c.410156 0 .753906-.046876 1.027344-.132813.277344-.089844.53125-.246094.757812-.457031.183594-.164063.335938-.359375.460938-.574219.113281-.207031.199218-.441406.246094-.691406.121093-.625.023437-1.121094-.289063-1.480469s-.800781-.539062-1.457031-.539062zm-1.484375 2.929687h.628906c.414063 0 .726563-.078125.929687-.234375.203126-.15625.34375-.421875.414063-.789062.066406-.351563.035156-.601563-.09375-.746094-.132813-.144532-.394531-.214844-.785156-.214844h-.707031zm1.484375-2.734375c.597656 0 1.035156.15625 1.308594.472656.273437.3125.355468.75.246093 1.3125-.042969.230469-.121093.445313-.226562.636719-.109375.191406-.246094.367187-.421875.527344-.207032.191406-.433594.328125-.6875.410156-.25.082031-.574219.125-.964844.125h-.882812l-.246094 1.261719h-1.035156l.921874-4.746094zm0 0" fill="#fff"/><path d="m9.769531 10.488281c-.03125 0-.058593-.015625-.078125-.035156-.019531-.023437-.023437-.054687-.019531-.082031l.40625-2.097656c.039063-.203126.03125-.34375-.023437-.40625-.035157-.035157-.140626-.097657-.445313-.097657h-.738281l-.511719 2.640625c-.011719.042969-.050781.078125-.097656.078125h-1.023438c-.03125 0-.058593-.015625-.078125-.035156-.015625-.023437-.023437-.054687-.019531-.082031l.921875-4.746094c.007812-.042969.050781-.078125.097656-.078125h1.023438c.03125 0 .058594.015625.074218.035156.019532.023438.027344.054688.023438.082031l-.222656 1.144532h.792968c.605469 0 1.015626.105468 1.257813.328125.242187.222656.320313.582031.226563 1.0625l-.429688 2.210937c-.011719.042969-.050781.078125-.097656.078125zm0 0"/><path d="m9.183594 5.449219h-1.023438c-.09375 0-.175781.066406-.191406.160156l-.921875 4.742187c-.011719.058594.003906.117188.039063.164063.039062.042969.09375.070313.152343.070313h1.023438c.09375 0 .175781-.066407.191406-.160157l.5-2.558593h.65625c.304687 0 .371094.066406.371094.066406.019531.019531.042969.113281.003906.320312l-.410156 2.097656c-.007813.058594.003906.117188.042969.164063.035156.042969.09375.070313.152343.070313h1.039063c.09375 0 .175781-.066407.191406-.160157l.429688-2.207031c.101562-.519531.015624-.90625-.253907-1.15625-.257812-.234375-.691406-.351562-1.324219-.351562h-.675781l.199219-1.027344c.011719-.058594-.003906-.117188-.039062-.164063-.039063-.042969-.09375-.070312-.152344-.070312m0 .195312-.246094 1.261719h.914062c.574219 0 .972657.101562 1.191407.300781s.28125.527344.195312.976563l-.429687 2.207031h-1.039063l.40625-2.101563c.046875-.238281.027344-.398437-.050781-.488281-.082031-.085937-.253906-.128906-.515625-.128906h-.820313l-.527343 2.71875h-1.023438l.921875-4.746094zm0 0" fill="#fff"/><path d="m12.957031 9.542969c.390625 0 .6875-.070313.871094-.214844.183594-.140625.308594-.386719.375-.726563.0625-.320312.039063-.542968-.070313-.664062-.109374-.121094-.347656-.183594-.710937-.183594h-.628906l-.347657 1.789063zm-2.054687 2.207031c-.027344 0-.054688-.015625-.074219-.035156-.019531-.023438-.027344-.054688-.019531-.082032l.921875-4.746093c.007812-.042969.050781-.078125.09375-.078125h1.988281c.625 0 1.089844.171875 1.382812.503906.292969.335938.382813.808594.269532 1.398438-.042969.230468-.125.457031-.238282.664062-.117187.207031-.265624.390625-.441406.550781-.214844.203125-.457031.347657-.722656.433594-.261719.085937-.59375.128906-.996094.128906h-.804687l-.226563 1.179688c-.011718.046875-.050781.082031-.097656.082031zm0 0"/><path d="m12.875 7.851562h.546875c.4375 0 .589844.09375.640625.152344.085938.09375.101562.292969.046875.578125-.0625.316407-.175781.542969-.339844.667969-.167969.128906-.441406.195312-.8125.195312h-.390625zm.9375-1.140624h-1.988281c-.089844 0-.171875.066406-.191407.160156l-.921874 4.742187c-.011719.058594.003906.117188.042968.160157.035156.046874.089844.074218.148438.074218h1.035156c.09375 0 .171875-.066406.191406-.160156l.214844-1.101562h.722656c.410156 0 .753906-.046876 1.027344-.132813.277344-.089844.53125-.246094.757812-.457031.183594-.164063.339844-.359375.460938-.574219.117188-.207031.199219-.441406.25-.691406.121094-.625.019531-1.121094-.292969-1.480469s-.800781-.539062-1.457031-.539062zm-1.484375 2.929687h.628906c.417969 0 .726563-.078125.929688-.234375s.34375-.421875.414062-.789062c.070313-.351563.039063-.601563-.09375-.746094-.128906-.144532-.390625-.214844-.785156-.214844h-.707031zm1.484375-2.734375c.597656 0 1.035156.15625 1.308594.472656.273437.3125.355468.75.246094 1.3125-.042969.230469-.121094.445313-.226563.636719s-.246094.367187-.421875.527344c-.203125.191406-.433594.328125-.6875.410156-.25.082031-.574219.125-.964844.125h-.882812l-.246094 1.261719h-1.035156l.921875-4.746094z" fill="#fff"/></svg>