<svg height="18" viewBox="0 0 18 18" width="18" xmlns="http://www.w3.org/2000/svg" xmlns:xlink="http://www.w3.org/1999/xlink"><linearGradient id="a" gradientTransform="matrix(.171429 .00031117 -.00031117 .171429 0 0)" gradientUnits="userSpaceOnUse" x1="25.799999" x2="33.950001" y1="33.599998" y2="17.309999"><stop offset="0" stop-color="#af1df5"/><stop offset=".21" stop-color="#bc20e4"/><stop offset=".63" stop-color="#dd29b8"/><stop offset="1" stop-color="#ff318c"/></linearGradient><linearGradient id="b" gradientTransform="matrix(.171429 .00031117 -.00031117 .171429 0 0)" gradientUnits="userSpaceOnUse" x1="1.56" x2="35.950001" y1="67.230003" y2="21.799999"><stop offset=".02" stop-color="#6b57ff"/><stop offset=".42" stop-color="#b74af7"/><stop offset=".75" stop-color="#ff318c"/></linearGradient><linearGradient id="c" gradientTransform="matrix(.171429 .00031117 -.00031117 .171429 0 0)" gradientUnits="userSpaceOnUse" x1="89.300003" x2="65.459999" y1="65.790001" y2="9.23"><stop offset="0" stop-color="#293896"/><stop offset=".08" stop-color="#3b3aa2"/><stop offset=".29" stop-color="#6740c0"/><stop offset=".49" stop-color="#8a44d8"/><stop offset=".68" stop-color="#a347e9"/><stop offset=".86" stop-color="#b249f3"/><stop offset="1" stop-color="#b74af7"/></linearGradient><linearGradient id="d" gradientTransform="matrix(.171429 .00031117 -.00031117 .171429 0 0)" gradientUnits="userSpaceOnUse" x1="74.68" x2="58.599998" y1="93.589996" y2="70.029999"><stop offset=".02" stop-color="#6b57ff"/><stop offset=".78" stop-color="#b74af7"/></linearGradient><path d="m9.855469 3.835938-.546875-1.660157-5.730469-1.234375-2.808594 3.179688 3.085938 1.578125v-1.863281zm0 0" fill="url(#a)"/><path d="m3.855469 4.917969-3.085938-.796875 1.570313 9.421875 1.511718-.015625zm0 0" fill="url(#b)"/><path d="m14.144531 3.835938h-5.371093l2.160156-1.917969 4.152344.773437 2.144531 5.320313-3.085938 3.0625zm0 0" fill="url(#c)"/><path d="m14.148438 7.941406-.003907 6.179688h-8.835937l.226562 1.34375 5.546875 1.933594 6.148438-3.675782zm0 0" fill="url(#d)"/><path d="m3.855469 3.855469h10.289062v10.289062h-10.289062zm0 0"/><path d="m5.140625 12.199219h3.855469v.644531h-3.855469zm3.363281-3.753907.5-.601562c.316406.292969.726563.460938 1.15625.46875.34375 0 .558594-.136719.558594-.363281v-.011719c0-.214844-.132812-.328125-.78125-.492188-.777344-.195312-1.28125-.414062-1.28125-1.179687v-.015625c0-.699219.566406-1.164062 1.355469-1.164062.519531-.007813 1.03125.164062 1.4375.492187l-.445313.640625c-.289062-.226562-.636718-.359375-1.003906-.378906-.328125 0-.496094.148437-.496094.339844v.015624c0 .253907.167969.339844.832032.511719.785156.207031 1.230468.488281 1.230468 1.160157v.011718c0 .769532-.589844 1.203125-1.421875 1.203125-.605469 0-1.1875-.21875-1.640625-.621093m-3.359375-3.316407h1.574219c.921875 0 1.476562.542969 1.476562 1.332031v.007813c0 .890625-.695312 1.355469-1.558593 1.355469h-.636719v1.15625h-.855469zm1.515625 1.941407c.425782 0 .671875-.253907.671875-.582032v-.011718c0-.378907-.261719-.585938-.683593-.585938h-.648438v1.179688zm0 0" fill="#fff"/></svg>