<svg height="18" viewBox="0 0 18 18" width="18" xmlns="http://www.w3.org/2000/svg"><path d="m17.802083 19.197917-1.802083-8.197917 3.5-3.5c1.5-1.5 2-3.5 1.5-4.5-1-.5-3 0-4.5 1.5l-3.5 3.5-8.197917-1.802083c-.5-.098959-.901041.104166-1.104166.5l-.296875.5c-.203125.5-.098959 1 .296875 1.302083l5.302083 3.5-2 3h-3l-1 1 3 2 2 3 1-1v-3l3-2 3.5 5.302083c.302083.395834.802083.5 1.302083.296875l.5-.197916c.395834-.302084.598959-.703125.5-1.203125" fill="none" stroke="#fff" stroke-linecap="round" stroke-linejoin="round" stroke-width="2" transform="scale(.75)"/></svg>