<svg height="18" viewBox="0 0 18 18" width="18" xmlns="http://www.w3.org/2000/svg"><path d="m2 22h20m-15.640625-4.598958-2.359375-.401042-2-4 1.098958-.552083c.567709-.28125 1.234375-.28125 1.802084 0l.166666.104166c.567709.28125 1.234375.28125 1.802084 0l1.130208-.552083-3-6 .901042-.447917c.677083-.333333 1.484375-.260416 2.088541.197917l4.020834 3c.604166.458333 1.416666.536458 2.098958.197917l4.192708-2.057292c.53125-.270833 1.151042-.333333 1.729167-.171875l.96875.28125c.40625.114583.739583.401042.90625.786458.171875.385417.15625.828125-.036458 1.203125l-.380209.760417c-.229166.458333-.598958.838542-1.067708 1.078125l-12.84375 6.369792c-.375.1875-.802083.25-1.21875.182291zm0 0" fill="none" stroke="#fff" stroke-linecap="round" stroke-linejoin="round" stroke-width="2" transform="scale(.75)"/></svg>