<svg height="18" viewBox="0 0 18 18" width="18" xmlns="http://www.w3.org/2000/svg"><path d="m6.140625 9.96875c-.582031.164062-.960937.453125-1.210937.742188.238281-.210938.5625-.402344.996093-.523438.441407-.128906.820313-.125 1.132813-.066406v-.246094c-.265625-.023438-.574219-.003906-.917969.09375zm-1.238281-2.054688-2.152344.566407s.039062.058593.109375.128906l1.828125-.480469s-.027344.335938-.25.632813c.421875-.320313.464844-.847657.464844-.847657zm1.804687 5.0625c-3.03125.816407-4.636719-2.695312-5.121093-4.519531-.222657-.839843-.324219-1.480469-.347657-1.890625-.003906-.035156-.003906-.074218 0-.109375-.15625.007813-.230469.089844-.214843.324219.023437.414062.121093 1.050781.347656 1.890625.484375 1.824219 2.089844 5.335937 5.117187 4.519531.660157-.179687 1.15625-.5 1.527344-.914062-.339844.308594-.769531.550781-1.308594.699218m.566407-7.210937v.214844h1.191406c-.027344-.078125-.050782-.144531-.074219-.214844zm0 0" fill="#2d4552"/><path d="m8.730469 7.542969c.535156.148437.816406.523437.964843.855469l.597657.171874s-.082031-1.164062-1.132813-1.460937c-.980468-.277344-1.585937.546875-1.660156.652344.285156-.203125.703125-.371094 1.230469-.21875m4.742187.863281c-.980468-.28125-1.585937.546875-1.660156.648438.289062-.203126.703125-.367188 1.230469-.21875.535156.152343.816406.527343.964843.859374l.597657.167969s-.082031-1.160156-1.132813-1.457031m-.589844 3.058594-4.960937-1.386719s.054687.273437.261719.625l4.175781 1.167969c.34375-.199219.523437-.40625.523437-.40625zm-3.4375 2.984375c-3.925781-1.050781-3.453124-6.054688-2.816406-8.425781.261719-.976563.53125-1.703126.753906-2.1875-.132812-.027344-.246093.039062-.355468.261718-.234375.480469-.539063 1.261719-.832032 2.359375-.632812 2.367188-1.109374 7.371094 2.816407 8.421875 1.851562.496094 3.292969-.257812 4.367187-1.4375-1.019531.921875-2.320312 1.441406-3.933594 1.007813zm0 0" fill="#2d4552"/><path d="m7.273438 11.804688v-1.011719l-2.804688.796875s.207031-1.203125 1.671875-1.621094c.441406-.125.820313-.125 1.132813-.0625v-4.140625h1.40625c-.152344-.472656-.300782-.835937-.425782-1.089844-.207031-.417969-.417968-.140625-.894531.257813-.335937.28125-1.1875.882812-2.46875 1.226562-1.28125.347656-2.316406.253906-2.75.179688-.613281-.105469-.933594-.238282-.902344.226562.027344.410156.125 1.046875.347657 1.890625.484374 1.824219 2.089843 5.335938 5.121093 4.519531.789063-.214843 1.347657-.636718 1.734375-1.171874zm-4.523438-3.324219 2.152344-.566407s-.0625.828126-.871094 1.042969c-.804688.210938-1.28125-.476562-1.28125-.476562zm0 0" fill="#e2574c"/><path d="m15.378906 5.8125c-.558594.097656-1.902344.222656-3.5625-.222656-1.660156-.445313-2.761718-1.222656-3.195312-1.589844-.621094-.519531-.894532-.878906-1.160156-.332031-.238282.480469-.539063 1.261719-.832032 2.355469-.636718 2.371093-1.109375 7.375 2.816406 8.425781 3.925782 1.050781 6.011719-3.519531 6.648438-5.886719.292969-1.097656.421875-1.925781.457031-2.460938.039063-.605468-.375-.429687-1.171875-.289062zm-7.886718 1.960938s.617187-.960938 1.667968-.664063c1.050782.300781 1.132813 1.460937 1.132813 1.460937zm2.5625 4.320312c-1.847657-.542969-2.132813-2.015625-2.132813-2.015625l4.960937 1.386719s-1 1.160156-2.828124.628906m1.753906-3.027344s.617187-.960937 1.664062-.660156c1.050782.296875 1.132813 1.457031 1.132813 1.457031zm0 0" fill="#2ead33"/><path d="m6.292969 11.070312-1.824219.519532s.199219-1.128906 1.542969-1.578125l-1.03125-3.878907-.089844.027344c-1.28125.347656-2.316406.253906-2.75.179688-.613281-.105469-.933594-.238282-.902344.226562.027344.410156.125 1.046875.347657 1.890625.484374 1.824219 2.089843 5.335938 5.121093 4.519531l.085938-.027343zm-3.542969-2.589843 2.152344-.566407s-.0625.828126-.871094 1.042969c-.804688.210938-1.28125-.476562-1.28125-.476562zm0 0" fill="#d65348"/><path d="m10.136719 12.113281-.082031-.019531c-1.847657-.542969-2.132813-2.015625-2.132813-2.015625l2.558594.714844 1.351562-5.199219-.015625-.003906c-1.660156-.445313-2.761718-1.222656-3.199218-1.589844-.617188-.519531-.890626-.878906-1.15625-.332031-.238282.480469-.539063 1.261719-.832032 2.355469-.636718 2.371093-1.109375 7.375 2.816406 8.425781l.078126.019531zm-2.644531-4.339843s.617187-.960938 1.667968-.664063c1.050782.300781 1.132813 1.460937 1.132813 1.460937zm0 0" fill="#1d8d22"/><path d="m6.386719 11.046875-.488281.136719c.117187.652344.320312 1.277344.640624 1.832031.054688-.015625.109376-.023437.164063-.039063.144531-.039062.285156-.089843.421875-.144531-.359375-.53125-.59375-1.140625-.738281-1.785156zm-.191407-4.589844c-.25.9375-.476562 2.289063-.414062 3.640625.117188-.050781.238281-.09375.359375-.128906l.089844-.019531c-.109375-1.445313.128906-2.921875.398437-3.925781.0625-.238282.128906-.472657.203125-.710938-.117187.078125-.238281.148438-.363281.214844-.097656.308594-.1875.617187-.273438.929687" fill="#c04b41"/></svg>