<svg height="18" viewBox="0 0 18 18" width="18" xmlns="http://www.w3.org/2000/svg"><g fill="none" stroke="#fff" stroke-linecap="round" stroke-linejoin="round" stroke-width="2" transform="scale(.75)"><path d="m16.848958 18.578125c3.369792-2.151042 4.911459-6.270833 3.791667-10.104167-1.125-3.838541-4.640625-6.473958-8.640625-6.473958s-7.515625 2.635417-8.640625 6.473958c-1.119792 3.833334.421875 7.953125 3.791667 10.104167"/><path d="m8 14c-1.546875-2.0625-1.270833-4.963542.635417-6.697917s4.822916-1.734375 6.729166 0 2.182292 4.635417.635417 6.697917"/><path d="m13 11c0 .552083-.447917 1-1 1s-1-.447917-1-1 .447917-1 1-1 1 .447917 1 1zm0 0"/><path d="m13 17c0-.552083-.447917-1-1-1s-1 .447917-1 1l.5 4.5c0 .276042.223958.5.5.5s.5-.223958.5-.5zm0 0"/></g></svg>