<svg height="18" viewBox="0 0 18 18" width="18" xmlns="http://www.w3.org/2000/svg"><g fill="#3bbced"><path d="m6.9375 4.140625h-.265625v1.371094h.265625zm1.136719 0h-.265625v1.371094h.265625zm1.554687-2.617187-.273437-.46875-4.523438 2.617187.269531.46875zm0 0"/><path d="m9.601562 1.523438.273438-.46875 4.523438 2.617187-.269532.46875zm0 0"/><path d="m15.199219 4.148438v-.542969h-12.398438v.542969zm0 0"/><path d="m10.289062 11.8125v-8.042969h.542969v8.433594c-.144531-.164063-.332031-.285156-.542969-.390625m-.925781-.136719v-11.347656h.542969v11.414063c-.152344-.074219-.523438-.066407-.542969-.066407m-5.140625 1.132813c-.660156-.492188-1.097656-1.273438-1.097656-2.160156 0-.46875.125-.933594.359375-1.335938h4.628906c.238281.402344.359375.867188.359375 1.335938 0 .410156-.054687.792968-.21875 1.140624-.351562-.339843-.867187-.484374-1.390625-.484374-.925781 0-1.71875.574218-1.925781 1.4375-.070312-.007813-.117188-.015626-.191406-.015626-.179688.007813-.351563.035157-.523438.082032m2.277344-6.6875h-1.402344v1.410156h1.402344zm-1.582031 0h-1.402344v1.410156h1.402344zm0 1.566406h-1.402344v1.414062h1.402344zm1.582031 0h-1.402344v1.414062h1.402344zm1.574219 0h-1.402344v1.414062h1.402344zm0-2.324219h-1.402344v1.410157h1.402344zm0 0"/><path d="m5.167969 13.019531c.191406-.816406.929687-1.421875 1.800781-1.421875.5625 0 1.066406.25 1.410156.648438.296875-.207032.65625-.324219 1.042969-.324219 1.019531 0 1.847656.824219 1.847656 1.847656 0 .210938-.035156.410157-.101562.601563.226562.304687.367187.6875.367187 1.097656 0 1.019531-.828125 1.847656-1.847656 1.847656-.449219 0-.859375-.15625-1.175781-.421875-.339844.46875-.886719.78125-1.511719.78125-.710938 0-1.335938-.410156-1.644531-1.007812-.125.027343-.253907.042969-.382813.042969-1.019531 0-1.855468-.832032-1.855468-1.851563s.828124-1.847656 1.855468-1.847656c.066406-.003907.128906-.003907.195313.007812"/></g></svg>