<svg height="18" viewBox="0 0 18 18" width="18" xmlns="http://www.w3.org/2000/svg"><path d="m2.71875 8.5c-.023438.042969-.046875.078125-.070312.121094l-.035157-.019532c-.027343.140626-.113281.261719-.195312.285157.023437.015625.046875.027343.066406.019531.015625-.003906.03125-.035156.042969-.054688l.164062-.238281.054688-.089843-.023438-.023438zm-2.019531 2.667969c.03125 0 .058593.007812.097656.007812 0-.023437.03125-.019531.03125-.042969h.015625c0 .03125.007812.054688.007812.085938h-.128906c-.007812-.007812-.03125-.042969-.023437-.050781zm-.050781-.277344c-.015626-.019531-.046876-.039063-.046876-.054687-.007812-.023438.011719-.054688.03125-.085938.011719.042969.015626.078125.027344.121094-.003906.007812-.011718.011718-.011718.019531m.152343-.390625c.023438.0625.050781.128906.074219.191406-.007812 0-.042969.015625-.050781.023438-.023438-.0625-.050781-.128906-.078125-.191406.007812-.003907.042968-.023438.054687-.023438zm13.519531 5.8125c.03125-.011719.066407-.015625.113282-.027344-.054688.042969-.09375.070313-.132813.109375-.003906-.007812-.011719-.011719-.015625-.011719.011719-.027343.023438-.042968.035156-.070312m-7.464843-12.847656c.035156-.023438.066406-.042969.101562-.066406l.015625.011718c-.039062.046875-.070312.097656-.109375.15625-.007812-.039062-.007812-.066406-.015625-.09375-.003906 0 0 0 .007813-.007812zm1.78125 3.078125c.054687-.027344.109375-.050781.175781-.082031-.007812.039062-.007812.0625-.007812.085937-.019532-.007813-.039063-.011719-.0625-.011719-.035157.007813-.101563.054688-.132813.0625-.003906 0 .023437-.050781.023437-.054687zm4.554687 5.15625c.011719.058593.125.089843.011719.152343.019531.011719.035156.015626.054687.03125-.003906.007813-.007812.015626-.011718.023438-.011719.003906-.039063.015625-.050782.011719-.003906 0-.015624-.023438-.015624-.035157 0-.054687.003906-.109374.011718-.183593zm0-1.21875c.003906 0 .011719.007812.011719.007812l-.007813-.007812c0-.003907 0-.003907-.003906 0zm.957032 6.011719c-.066407.046874-.132813.089843-.21875.109374-.003907-.007812-.003907-.015624-.011719-.019531.066406-.042969.140625-.085937.207031-.128906.007812.011719.019531.023437.023438.035156zm-11.386719-8.242188c.066406-.085938.136719-.167969.207031-.253906.007812.003906.054688.015625.0625.023437-.066406.085938-.160156.199219-.226562.292969-.011719-.011719-.03125-.054688-.042969-.0625zm-1.722657 2.980469c-.050781-.105469-.097656-.210938-.144531-.316407.003907-.003906.046875-.023437.050781-.023437.070313.097656.097657.210937.148438.316406 0 0-.050781.023438-.054688.023438m1.546876-2.917969c-.035157.054688-.070313.113281-.109376.167969-.003906-.003907-.070312.027343-.078124.019531.035156-.054688.128906-.152344.164062-.207031.007812.007812.011719.011719.023438.019531zm10.914062 8.425781c.007812 0 .007812-.003906.011719-.003906.042969.003906.089843.011719.140625.011719-.078125.054687-.128906.046875-.152344-.007813zm-10.902344-8.171875c.007813-.019531.019532-.035156.03125-.054687.011719 0 .03125-.007813.03125-.007813.023438-.039062.023438-.070312.046875-.109375-.003906-.003906-.011719-.003906-.019531-.011719-.035156.027344-.070312.058594-.105469.082032.011719.011718.011719.015625.011719.027344-.050781-.003907-.066406.019531-.09375.085937-.003906.019531-.035156.023437-.066406.050781-.003906.011719-.011719.042969-.023438.070313l.007813.007812c-.011719.007813-.019531.015625-.03125.019531-.035157.035157-.078125.066407-.117188.101563-.003906.019531-.011719.039063-.011719.054687.042969-.042968.117188-.121093.171876-.167968l.003906.003906c.027344-.035156.042968-.070312.070312-.109375.003906.007813.003906.011719.011719.019531-.019531.046875-.039063.101563-.054687.152344-.015626.003906-.03125.015625-.03125.011719-.023438.019531-.042969.042969-.066407.058593l-.109375.074219c-.0625.054688-.125.101563-.191406.160157-.042969.066406-.082031.125-.132812.207031.074218-.019531.089843.011719.085937.070312.085937.011719.089844-.054687.113281-.101562.007813-.011719.015625-.039063.027344-.042969.054688-.050781.113281-.09375.175781-.140625.011719-.011719.011719-.035156.011719-.054687 0-.007813-.03125-.007813-.050781-.011719.054687-.0625.136719-.164063.191406-.230469.027344-.019531.058594-.042969.058594-.0625-.003907-.066406.039062-.085938.085937-.109375-.023437-.019531-.03125-.035156-.03125-.042969zm15.351563-.742187c-.011719-.238281-.015625-.472657-.039063-.710938-.042968-.320312-.085937-.652343-.160156-.96875-.054688-.261719-.144531-.507812-.234375-.757812-.117187-.292969-.230469-.589844-.378906-.871094-.234375-.449219-.546875-.851563-.832031-1.269531-.1875-.269532-.429688-.488282-.613282-.761719-.101562-.15625-.253906-.289063-.40625-.410156-.242187-.195313-.5-.375-.753906-.542969-.195312-.132812-.386719-.261719-.59375-.378906-.164062-.089844-.339844-.164063-.511719-.242188-.195312-.089844-.382812-.199218-.601562-.242187-.054688-.011719-.101563-.03125-.15625-.050781-.140625-.046876-.273438-.101563-.414063-.144532-.210937-.066406-.417968-.144531-.636718-.199218-.210938-.054688-.429688-.09375-.648438-.125-.246094-.035157-.492188-.046876-.738281-.070313-.15625-.0195312-.3125-.0351562-.464844-.0429688-.230469-.0117187-.46875-.0117187-.699219-.0195312-.113281-.0039062-.238281-.015625-.351562-.01171875-.175782.00781255-.355469.02343755-.527344.05078125-.171875.015625-.339844.0468745-.503906.0742185-.203125.023438-.402344.035156-.601563.058594-.1875.023438-.382812.0625-.570312.089844-.066407.015625-.136719.039062-.203125.050781-.144532.03125-.296875.042969-.441406.089844-.261719.082031-.523438.171875-.777344.269531-.238282.097656-.46875.199219-.691406.320312-.230469.128907-.449219.28125-.667969.425782-.210938.140625-.414063.289062-.617188.445312-.191406.152344-.375.320313-.550781.492188-.097656.097656-.175781.214844-.265625.320312-.152344.179688-.304687.347656-.449219.53125-.121094.152344-.230468.308594-.347656.46875-.207031.277344-.382812.578125-.546875.875-.066406.121094-.125.242188-.1875.363282-.089844.183593-.1875.359374-.273437.546874-.058594.128907-.109376.269532-.144532.410157-.085937.296875-.167968.597656-.2499998.898437-.0742187.269532-.0898437.546875-.0976562.820313-.00390625.246093.0195312.480469.0429688.726562.0078124.058594-.03125.132813.0429687.179688-.0234375.066406-.0078125.105469.0312505.117187-.0429692.066406.015624.109375-.007813.171875-.003906.011719.019531.035157.03125.050781 0 .019532-.007813.042969 0 .0625.007813.054688.03125.109376.03125.171876 0 .042968.035156.089843.046875.132812.007812.019531 0 .046875-.011719.0625-.035156.039062-.03125.078125.023438.101562.03125.078126.019531.117188.011719.152344.015624.054688-.003907.074219 0 .085938.050781.097656.070312.207031.074218.316406 0 .023438.011719.046875.023438.078125.007812 0 0 .113281 0 .113281.03125-.015625.054687-.023437.085937-.035156.019531.078125.035157.152344.0625.21875.027344.050781.027344.074219.015625.078125.023438.109375.039063.214844.078125.316406 0-.113281-.011719-.230469-.027343-.339843.082031.03125.15625.0625.207031.0625.003906-.019532.011719-.042969.015625-.054688-.035156-.039062-.066406-.09375-.101563-.128906.011719.046875 0 .066406 0 .085937-.023437-.011719-.054687-.023437-.085937-.039062.023437-.027344.050781-.058594.085937-.09375 0-.054688-.03125-.105469-.117187-.097657.039062-.011718.074218-.03125.117187-.042968.066407-.035156-.007812-.105469-.007812-.1875.007812-.105469-.054688-.207032-.070313-.316406-.03125-.171876-.027344-.425782-.042968-.597657-.039063-.03125-.066407.050781-.074219.054688.019531.144531.035156.292969.046875.4375-.035156-.121094-.058594-.253907-.089844-.402344-.003906.042969-.011719.0625-.011719.085937-.03125.03125-.003906.066407.011719.109376-.042969-.015626-.089844-.011719-.089844-.011719v.171875c-.0625-.0625-.078125-.109375-.109375-.152344-.011719-.050781-.019531-.097656-.03125-.144531.011719-.03125 0-.050781 0-.070313-.003906-.042968-.011719-.089844-.015625-.144531.003906-.007813-.007812-.097656-.007812-.097656.046875.007812.078125.011719.109375.011719-.0625-.078126-.019531-.125.007812-.175782.011719-.023437.054688-.03125.066407-.054687.046874-.089844.125-.164063.125-.28125 0-.054688.019531-.113281.027343-.167969.011719-.105469.023438-.207031.027344-.3125.011719-.132812 0-.265625.03125-.394531.050781-.214844.109375-.425781.175781-.636719.050782-.152344.105469-.304688.164063-.449219.089843-.238281.175781-.476562.292969-.699219.164062-.332031.351562-.644531.535156-.96875.113281-.199218.234375-.390624.363281-.582031.121094-.191406.242187-.382812.382813-.5625.195312-.246093.40625-.480469.644531-.6875.242187-.21875.472656-.441406.734375-.644531.339844-.261719.699218-.492188 1.078125-.691406.3125-.164063.632812-.292969.957031-.414063.203125-.078125.429688-.117187.640625-.183593.246094-.078126.488281-.113282.742187-.121094.164063-.003906.320313-.023438.484376-.042969.152343-.011719.300781-.023437.449218-.042969-.015625.027344-.023437.039063-.027344.050782-.066406.097656-.140624.195312-.207031.292968-.054687.078125-.117187.164063-.171875.242188-.097656.128906-.199218.253906-.289062.390625-.140625.199219-.269532.40625-.414063.605469-.144531.195312-.304687.378906-.457031.566406-.199219.261718-.386719.527344-.585938.789062-.183593.25-.378906.488282-.554687.738282-.15625.21875-.296875.449218-.449219.671874-.222656.335938-.449218.664063-.671875 1-.179687.253907-.355469.507813-.535156.757813-.011719.019531-.03125.027344-.050781.039063-.046875.078124-.046875.121093-.066406.15625-.046876.09375-.097657.183593-.152344.269531-.027344.046875-.070313.089843-.109375.136719-.003907-.070313.097656-.109376.050781-.199219-.03125.050781-.0625.089843-.09375.140625l-.070312.144531c.023437.019531.066406.03125.023437.066406-.019531.03125-.035156.066407-.054687.097657.03125-.019532.046874-.035157.066406-.058594 0 .066406-.035156.121094-.066406.175781-.023438.046875-.085938.085937-.128907.121094.007813.003906.050781.023437.054688.03125.054687-.019531.074219-.050781.082031-.03125.015625-.023438.035156-.042969.042969-.0625.023437-.058594.058593-.109375.117187-.132813.027344-.011718.042969-.03125.0625-.046875.183594-.191406.371094-.371093.535156-.574219.253907-.308593.484376-.632812.730469-.949218.101563-.132813.222657-.265625.332031-.394532.019532.140626.007813.273438 0 .402344-.019531.222656-.03125.449219-.046874.679688-.007813.09375 0 .183594-.007813.273437 0 .027344-.019531.042969-.019531.066407 0 .0625.019531.128906.019531.191406-.019531.222656-.042969.441406-.0625.667968-.003906.046876.019531.097657.03125.140626-.03125.328124.035156.675781-.019531 1.019531.042968-.066407.054687-.109375.054687-.152344.007813-.035156 0-.070313 0-.113281v-.0625c.007813-.109375.03125-.222656.019531-.332032-.011718-.121093-.011718-.238281.011719-.355468.011719-.046875-.003906-.109375.023438-.167969v.089844c-.003907.347656.007812.695312-.039063 1.039062-.007812.03125.015625.085938-.050781.082031-.054687.105469.011719.1875-.046875.246094-.011719.011719.011719.066406.015625.105469-.023437.074219-.023437.074219.011719.078125.007812.132812.019531.253906.027344.382812.09375-.230468.046874-.46875.089843-.707031.007813.097657.011719.195313.007813.300781 0 .15625-.007813.308594-.015625.46875 0 .027344-.003907.058594-.011719.089844-.015625.085938-.023438.171875-.054688.25-.023437.058594-.011718.152344-.011718.222656v.234376c.023437.101562-.003906.15625.011718.21875-.015624.058593-.023437.078124-.015624.097656l.015624.089844c.121094-.011719.066407.078124.117188.128906-.035156.046875-.023438.066406-.023438.089844 0 .054687-.007812.105468-.011718.160156 0 .136718-.007813.277344-.007813.410156 0 .019531.007813.039062.007813.054688 0 .015624-.007813.171874-.007813.171874.011719.019532 0 .035157-.019531.054688-.003906 0-.023438-.773438-.023438-.773438h-.089843c-.011719.367188.019531.695313-.050781 1.035157-.070313.003906-.09375.019531-.175782.019531-.1875 0-.375 0-.5625.003906-.226562 0-.445312.007813-.667968.007813-.109376 0-.226563.011719-.335938.011719-.144531 0-.296875-.019532-.441406-.019532-.226563 0-.445313.019532-.667969.023438-.164063.007812-.328125.007812-.492187.015625-.109376.003906-.21875.007812-.328126.023437-.050781.003906-.089843.023438-.152343.042969-.019531 0-.0625-.007813-.097657 0-.0625.011719-.113281.046875-.175781.058594-.089843.019531-.117187.042969-.105469.132812v.0625c-.003906.011719.136719-.019531.136719-.019531-.011719 0-.019531.035156-.039062.066406.050781-.015625.082031-.03125.109375-.042968.09375.042968.171875.019531.246094.039062.234374.058594.476562.085938.71875.109375.160156.011719.3125.019531.46875.023437.226562.011719.449218.023438.675781.023438.1875 0 .371093-.019531.558593-.019531.257813 0 .519532.015625.78125.019531.054688 0 .117188-.003906.175782-.003906h.445312c.394532-.015625.789063-.019532 1.183594-.03125.226562-.007813.457031-.019532.679688-.023438l.691406-.019531c.269531-.007813.535156-.007813.796875-.011719.199219 0 .394531-.007812.597656-.011718.222656-.007813.453125-.023438.679687-.039063.121094-.003906.242188-.015625.363282-.027344.144531-.011719.296875-.03125.441406-.039062.21875-.011719.445312-.015625.664062-.027344.273438-.019531.546876-.042969.824219-.050781.257813-.011719.515625-.003906.773438-.011719.222656-.007813.449219-.019531.679687-.023437l.382813-.019532s.253906-.003906.382812-.019531c.21875-.011719.4375-.035156.65625-.042969.136719-.003906.277344 0 .417969-.003906.222656-.007812.453125-.019531.679688-.019531.085937 0 .175781.011719.285156.019531-.046875.042969-.078125.066406-.113282.097656.023438.003906.046876.019532.070313.03125-.027344.019532-.0625.027344-.097656.027344-.011719.03125-.023438.042969-.035157.105469h.109376c-.042969 0-.078126.054687-.121094.089843-.046875-.011718-.089844 0-.117188.066407.042969.027343.039063.042969.03125.070312-.070312.023438-.128906.046875-.097656.125-.023438.011719-.054688.023438-.085938.042969-.027343.046875-.082031.058594-.070312.128906.023438.003906.046875.015625.066406.023438-.03125.011718-.0625.03125-.089844.042968-.109374.066407-.0625.097657-.039062.125-.015625.011719-.035156.027344-.054688.03125.011719.054688.03125.066407.039063.066407-.027344.019531-.054687.042969-.09375.074219-.015625.054687-.042969.078124-.066406.117187-.023438.035156-.035157.082031-.066407.121094-.128906.136719-.21875.304687-.382812.414062-.0625.039063-.113281.097657-.167969.152344-.109375.101563-.207031.21875-.324219.316406-.152343.125-.308593.242188-.472656.355469-.199218.140625-.402344.28125-.601562.414062-.109375.074219-.230469.128907-.34375.195313-.117188.066406-.226563.128906-.34375.195313-.070313.046874-.136719.113281-.21875.152343-.199219.085938-.410156.15625-.617188.234375-.203125.085938-.347656.160156-.5.214844-.140625.046875-.285156.085938-.429687.117188-.046875.011718-.101563 0-.160157.003906-.101562.019531-.203124.042968-.308593.054687-.265625.035157-.535157.0625-.800781.097657-.160157.019531-.308594.046874-.46875.066406-.109376.007812-.222657-.003906-.332032-.003906-.078125 0-.164062.015624-.242187.003906-.128907-.019532-.257813-.046875-.382813-.070313-.03125-.007812-.074218-.019531-.097656-.007812-.050781.023437-.09375-.011719-.140625 0-.03125.007812-.0625-.019531-.089844-.019531-.027343-.003907-.054687.007812-.085937 0-.066406-.015626-.128906-.042969-.203125-.035157-.070313.007813-.144531-.03125-.222657-.046875-.109374-.027344-.210937-.050781-.320312-.074218-.042969-.011719-.078125-.03125-.121094-.054688-.160156 0-.261718-.007812-.359375-.042969-.085937-.03125-.164062-.074219-.257812-.0625-.023438.007813-.039063-.003906-.066407-.003906-.015624-.023437-.035156-.074219-.050781-.074219-.125.007813-.195312-.097656-.300781-.125-.054688-.019531-.097656-.082031-.148438-.097656-.136718-.054688-.246093-.171875-.394531-.191406-.050781-.003906-.097656-.027344-.152343-.046875.015624.023437.027343.042969.046874.0625-.175781-.085938-.339843-.183594-.503906-.277344-.023437-.003906-.042968-.027344-.058594-.039063l-.164062-.109374c-.09375.015624-.128906-.019532-.152344-.03125-.164062-.117188-.351562-.191407-.511718-.316407-.066407-.054687-.144532-.09375-.195313-.160156-.085937-.101563-.1875-.175781-.300781-.234375-.09375-.050781-.175782-.105469-.261719-.160156-.042969-.03125-.085937-.066406-.085937-.132813 0-.042969-.019532-.085937-.074219-.0625-.023438-.035156-.046875-.078125-.078125-.089843-.070313-.03125-.121094-.085938-.175782-.132813-.054687-.050781-.097656-.117187-.164062-.140625-.121094-.046875-.195312-.152344-.265625-.238281-.171875-.199219-.324219-.417969-.480469-.632813-.011718-.015625-.035156-.027344-.054687-.046875.023437.066407.054687.121094.085937.183594-.0625-.027344-.105468-.070313-.140625-.109375-.007812.003906.417969.703125.417969.703125.039062.054687.066406.109375.105469.164063-.078125.007812-.148438-.03125-.183594-.097657-.054687-.097656-.117187-.15625-.238281-.144531-.011719-.042969-.023438-.089844-.027344-.132812-.027344 0-.042969 0-.085938-.007813.082032.128906.160157.253906.234376.382813-.027344-.015626-.046876-.03125-.058594-.035157.109375.113281.1875.261719.328125.335938.027343.136719.1875.203125.222656.339843-.027344-.007812-.054687-.015624-.085937-.019531-.046876-.058593-.101563-.121093-.15625-.1875.011718.042969.03125.078125.054687.109375.074219.089844.140625.179688.222656.261719.03125.03125.074219.042969.074219.097656.050781.023438.066406.027344.085938.027344.011718.039063-.007813.09375.066406.082031.050781.089844.097656.089844.164062.058594.078125.082031.121094.085938.175782.039062 0 .027344.007812.058594.007812.085938.023438-.015625.015625-.03125.015625-.0625.03125.023438.050781.035156.0625.046875.058594.085937.113281.164063.199219.234375.117187.09375.21875.199219.328125.289062.214843.175782.449219.324219.6875.457032.289062.164062.570312.339844.867187.5.359375.1875.742188.316406 1.136719.40625.144531.03125.285156.0625.429687.097656.128907.035156.257813.089844.382813.121094.195313.042968.394531.078125.589844.117187.042969.003907.085937.011719.132812.015625.054688.015625.121094-.011718.132813.007813.03125.046875.054687.023437.09375.015625.039062-.011719.089844-.011719.136718-.011719.171876.007813.335938.042969.503907.03125.039062 0 .09375-.03125.125.03125.054687-.023437.082031-.023437.105469-.03125.007812.054687 0 .054687-.007813.0625-.015625.003906-.03125.011719-.058594.027344.21875.042969.425781.050781.609375 0 .316406.027343.589844-.011719.851563-.101563.023437.03125.042969.074219.078125.011719.011718-.019531.042968-.023437.066406-.03125.054688-.011719.121094-.035156.167969-.015625.054687.015625.074219-.03125.117187-.03125.070313 0 .136719-.007812.207032-.019531.035156-.003907.074218-.023438.113281-.035157-.039063-.019531-.085938-.03125-.132813-.03125.074219-.035156.140625-.066406.207032-.097656-.011719.019532-.023438.042969-.046876.042969h.082032c-.015625 0-.042969.054687-.070313.089844.21875-.054688.417969-.101563.613281-.152344-.066406-.125.070313-.082031.121094-.15625-.0625.019531-.121094.035156-.183594.046875.207032-.101562.417969-.191406.625-.285156-.027343.039062-.066406.054687-.121093.085937.035156.007813.0625.007813.078125.011719.097656.03125.074218-.058594.105468-.113281.113282 0 .164063-.019531.21875-.039063.058594-.019531.121094-.035156.179688-.058594.097656-.042968.191406-.097656.289062-.148437.015626-.003906.046876 0 .070313 0 .066406-.042969.089844-.078125.109375-.070313.085938.011719.144531-.019531.171875-.097656.039063-.03125.070313-.054687.101563-.074218.132812-.074219.261718-.144532.394531-.21875.046875 0 .074219 0 .085937-.007813.074219-.035156.152344-.074219.222656-.121094-.019531-.007812-.039062-.015625-.058593-.027343.058593-.015626.078125-.019532.113281-.03125.148438-.171876.347656-.289063.5-.421876.066406-.003906.066406-.023437.066406-.035156.023438-.03125.046875-.066406.078125-.089844.132813-.125.277344-.226562.402344-.355468.175781-.175782.34375-.355469.503906-.546875.144531-.171875.289063-.339844.410157-.527344.171874-.261719.316406-.53125.46875-.804687.109374-.195313.207031-.390626.316406-.582032.011718-.019531.035156-.042968.054687-.042968.164063-.019532.328125-.03125.484375-.050782.039063-.003906.078125-.027344.117188-.046875-.019532-.03125-.03125-.066406-.046875-.097656-.027344-.035156-.0625-.066406-.085938-.101563-.027343-.03125-.042969-.070312-.0625-.105468-.019531-.03125-.035156-.054688-.054687-.085938-.035156-.066406-.074219-.132812-.105469-.207031-.003906-.015625-.015625-.046875-.007813-.066406.105469-.234375.148438-.492188.253907-.730469.101562-.242188.132812-.515625.179687-.777344.042969-.25.066406-.496094.097656-.746094.019532-.175781.042969-.347656.050782-.523437.035156-.28125.023437-.542969.015625-.804687-.003907-.230469-.015625-.464844-.027344-.699219zm-15.234375 7.488281c-.042969-.050781-.078125-.105469-.121094-.152344l.019531-.019531c.066407.074219.132813.144531.199219.226563-.039062-.019532-.078125-.03125-.097656-.054688m.097656.054688c.019531-.007813.035156-.007813.054688-.015626.019531.03125.03125.066407.046874.105469-.082031-.007812-.125-.042969-.101562-.089843zm6.316406 2.507812v-.015625c.113282-.011719.222656-.023437.339844-.039063v.019532c-.117188.019531-.226562.03125-.339844.035156zm1.527344-.15625c-.082031.019531-.175781.03125-.257812.042969-.03125.007812-.070313.035156-.082032-.019531-.011718.007812-.023437.007812-.035156.011718.03125.09375.105469.019532.164062.054688-.132812.019531-.261718.03125-.386718.050781v-.011719c.035156-.007812.078125-.011718.113281-.019531v-.019531c-.058594-.003906-.121094-.011719-.183594-.011719-.015625 0-.039062.027344-.058593.03125-.027344.007813-.050782.011719-.078126.011719-.105468.007812-.207031.007812-.304687.011718-.007813 0-.019531-.003906-.023437-.003906v-.019531c.40625-.054687.804687-.109375 1.214843-.164063.003907.011719.003907.023438.011719.035157-.035156 0-.0625.015625-.09375.019531zm.09375-.058594c.140625-.019531.265625-.03125.398438-.050781-.277344.078125-.367188.089844-.398438.050781zm-5.289062-12.28125c.191406-.265625.394531-.535156.585937-.808594.0625-.078124.109375-.164062.171875-.242187.019531-.023437.042969-.035156.074219-.0625l-.007813-.011719c.023438-.027344.046875-.054687.0625-.078125.03125-.046875.046875-.101562.070313-.15625.007812-.011719.027343-.027343.027343-.027343.085938.042968.085938-.046876.113282-.078126.054687-.058593.109375-.125.160156-.1875.035156-.050781.070312-.089843.101562-.144531.007813-.019531-.011718-.050781-.019531-.074219h-.015625c.015625-.011718.035156-.03125.054688-.042968.003906 0 .003906 0 .011718-.003906.035157-.058594.070313-.113282.109376-.160157.070312-.097656.152343-.195312.234374-.28125-.011718.03125-.023437.058594-.035156.085938.007813 0 .007813.007812.011719.007812.074219-.097656.152344-.1875.226563-.285156-.007813-.007813-.015626-.015625-.019532-.015625-.03125.03125-.054687.0625-.085937.09375-.003907-.007812-.011719-.011719-.019531-.011719.0625-.082031.125-.160156.183593-.25.011719.019531.023438.042969.050781.089844.023438-.058594.046876-.101563.066407-.144531-.019531.019531-.042969.035156-.0625.054687l-.019531-.019531.109374-.164062c.117188-.164063.230469-.332032.347657-.496094.042969-.0625.097656-.109375.132812-.171875.117188-.230469.300781-.414063.4375-.625.03125-.042969.074219-.082031.109375-.117188.03125-.035156.054688-.023437.082032.007813.160156.207031.324218.417968.488281.625.121093.152344.246093.296875.359375.457031.140625.195313.273437.386719.414062.582031.15625.226563.316406.449219.464844.679688.234375.34375.453125.683594.683594 1.023437.167968.25.339844.492188.503906.742188h-.3125c-.285156-.007813-.574219-.03125-.859375-.019531-.390625.019531-.785156.0625-1.175781.09375-.488282.042968-.988282.046874-1.480469.046874-.175781 0-.351563.027344-.527344.039063-.210937.011719-.417969.023437-.632812.027344-.25.011719-.492188.019531-.738281.027343-.140626.003907-.285157 0-.4375 0zm6.964843 2.796875v.054688c-.007812 0-.011719.007812-.023437.007812-.027344-.085937-.050782-.175781-.082032-.261719-.058593-.175781-.125-.351562-.234374-.511718-.121094-.167969-.230469-.347656-.351563-.523438-.03125-.042968-.074219-.078125-.109375-.113281-.128906-.140625-.257812-.285156-.421875-.390625-.242187-.152344-.496094-.28125-.757813-.390625-.074218-.027344-.140624-.066406-.214843-.109375h.148437l1.039063-.015625c.222656-.007813.441406-.007813.667969-.019531.054687 0 .082031.019531.113281.066406.054687.09375.109375.183594.171875.273438.003906.011718.015625.03125.015625.050781 0 .132812 0 .273437.007812.40625.003907.140625.019531.273437.023438.414062 0 .140625-.011719.285157-.007813.429688.007813.207031.015625.421875.015625.632812zm-6.535156-2.035156c.285156-.011719.558594-.03125.839844-.042969.214843-.011718.441406-.019531.660156-.03125.089844-.003906.175781-.011718.265625 0-.097656.050782-.191406.097656-.277344.160156-.109375.074219-.214844.167969-.324218.25-.109376.078126-.207032.175782-.296876.277344-.113281.140625-.242187.261719-.363281.394532-.085937.097656-.183593.191406-.253906.292968-.105469.132813-.195313.28125-.292969.433594.03125-.578125.066406-1.152344.042969-1.734375zm3.964844 5.851563c-.195313.046874-.394531.101562-.59375.125-.171875.027343-.347657.019531-.523438.019531-.15625 0-.3125-.003907-.46875-.019531-.175781-.015626-.351562-.035157-.519531-.113282-.148438-.066406-.300781-.128906-.445312-.203125-.144532-.070312-.292969-.15625-.402344-.289062-.078125-.097657-.1875-.175781-.285156-.261719.019531.070312.0625.132812.128906.175781-.03125.035157-.074219.019531-.132813-.078125-.019531.011719-.039062.015625-.050781.023438.019531-.042969.039062-.085938.054688-.121094-.023438-.050781-.054688-.105469-.078126-.152344-.046874-.082031-.09375-.160156-.140624-.246094-.011719-.015624-.011719-.035156-.023438-.050781-.03125-.035156-.058594-.074219-.085938-.113281-.046874-.070312-.089843-.148438-.152343-.222656 0 .019531.007812.035156.007812.0625-.007812 0-.011719.003906-.011719.003906l-.128906-.308594c-.003906 0-.003906 0-.011718.003906l.109374.402344c-.003906 0-.011718.007813-.019531.007813-.015625-.027344-.035156-.050781-.046875-.082031-.011718-.046876-.046875-.046876-.078125-.027344-.019531.011718-.03125.054687-.023437.070312.042968.105469.089844.207032.136718.3125.015626.035156.027344.066406.042969.101563.007813.011719.027344.023437.027344.042969.023437.046874.039063.097656.070313.140624.054687.070313.117187.144532.171874.21875.054688.070313.101563.152344.152344.222657.003906.015625.023438.015625.027344.019531.03125.089844.132812.15625.207031.121094.019531.140625.171875.1875.230469.324218-.070312-.03125-.125-.054687-.175781-.082031-.003907.007813-.003907.015625-.011719.027344.074219.035156.144531.070313.210938.113281.0625.039063.125.074219.175781.117188.074219.066406.160156.101562.261719.125-.003907-.015625-.011719-.023438-.011719-.023438.171875.078125.347656.164063.480469.230469-.632813.011719-1.304688.027344-2.003907.039063 0-.117188-.003906-.226563-.003906-.34375 0-.046876.007813-.089844.003906-.136719-.019531-.28125-.019531-.5625-.054687-.835938-.035156-.289062-.035156-.578125-.03125-.867187.007812-.160156-.003906-.324219-.011719-.480469 0-.214844 0-.421875.007813-.632813 0-.03125.011718-.054687.023437-.085937h.019531c.003906.011719 0 .03125.011719.035156.015625.019531.046875.050781.058594.042969.039062-.023438.09375-.046875.105469-.082031.027343-.074219.042968-.148438.042968-.226563 0-.054687.023438-.089844.046875-.128906.011719-.015625.019531-.035156.03125-.058594-.023437-.019531-.050781-.03125-.078125-.054687.023438-.066407.015625-.148438.109375-.183594.011719-.007813.011719-.035156.015625-.054687.007813-.050782.011719-.105469.019532-.152344.011718.019531.019531.023437.03125.035156.003906-.003906.007812-.011719.011718-.015625 0-.027344-.007812-.074219 0-.074219.074219-.011718.042969-.089844.078125-.128906.007813-.003906-.003906-.023438-.003906-.035156 0-.011719 0-.03125.003906-.03125.085938-.019532.074219-.109375.128907-.152344.015624-.011719.023437-.03125.046874-.058594.050782.082032-.035156.125-.042968.1875.105468-.0625.132812-.207031.074218-.25.023438-.019531.046876-.042968.066407-.066406.066406-.074219.140625-.140625.199219-.214844.042968-.054687.066406-.121094.109374-.175781.027344-.027344.074219-.054687.109376-.070313.109374-.0625.214843-.128906.28125-.230468.011718-.015625.03125-.027344.046874-.039063.019532-.011719.054688-.011719.0625-.03125.003907-.011719-.011718-.039062-.023437-.058593.023437-.011719.046875-.035157.09375-.0625-.015625.039062-.023437.0625-.035156.085937l.03125.03125c.054687-.042969.136719-.089844.195312-.128906 0-.003907-.03125-.027344-.03125-.027344-.039062.015625-.09375.046875-.148437.070313.011718-.015626.011718-.03125.019531-.035157.085937-.054687.171875-.109375.261719-.152343.210937-.097657.421875-.191407.636718-.285157.039063-.019531.085938-.007812.128907-.007812.019531 0 .027343 0 .046875-.003907.097656-.03125.195312-.0625.292968-.085937.042969-.011719.089844-.019531.132813-.019531.183594.007812.363281.007812.546875.019531.074219.007813.152344.023437.222656.046875.09375.03125.191406.074219.273438.117188.105468.054687.203125.117187.300781.183593.175781.113281.339844.242188.515625.34375.167969.105469.300781.246094.410156.402344.136719.1875.289063.359375.347656.589844l.089844.402343c.019532.074219.0625.144532.042969.230469-.03125.152344-.054687.308594-.078125.460938-.011719.0625-.023438.125-.019531.183593.011719.1875-.058594.351563-.132813.523438-.023437.054688-.058594.109375-.089844.171875.003907.003906.042969.023437.046876.023437l.054687-.109374c.007813 0 .007813 0 .011719.007812-.027344.082031-.054688.175781-.082032.257812-.074218.191407-.148437.382813-.238281.566407-.046875.105469-.132812.1875-.195312.285156-.058594.085937-.109375.175781-.167969.257813-.054688.066406-.109375.132812-.183594.179687-.164062.125-.332031.246094-.511718.34375-.105469.066406-.234376.101563-.355469.132813zm-3.234375-.324219-.007813.007812c-.011719-.007812-.03125-.015625-.042969-.027343l-.144531-.21875c-.011719-.015626-.019531-.035157-.011719-.058594.0625.101562.132813.199218.207032.296875m3.777344.832031c.273437-.113281.496093-.277344.703124-.46875.03125-.027344.058594-.058594.097657-.082031.253906-.160157.441406-.378907.613281-.621094.195312-.28125.320312-.597656.480469-.894531.011719-.023438.023437-.046875.035156-.066406-.011719.691406.066406 1.375.15625 2.0625-.683594.023437-1.382813.046874-2.085937.070312zm6.15625-.179688c-.007813.011719-.019532.023438-.023438.035157-.007812-.011719-.007812-.03125-.011719-.054688-.039062.097657-.117187.046875-.171875.046875-.328125.007813-.660156.007813-.988281.007813-.316406 0-.640625 0-.953125.003906-.105469 0-.214844.027344-.316406.03125-.25.011719-.5.019531-.746094.023437-.019531 0-.039062-.027343-.070312-.054687-.007813.019531-.019532.039063-.035157.054687-.007812-.011718-.019531-.023437-.03125-.039062-.003906.015625-.011719.03125-.015625.046875h-.019531c-.011719-.085937-.035156-.164063-.035156-.25 0-.179687.015625-.363281.023437-.546875.007813-.085938 0-.164062 0-.242188.023438.019532.042969.03125.066406.046876.011719-.023438.023438-.042969.035157-.058594 0 0-.011719-.007813-.023438-.019532.011719-.003906.023438-.019531.023438-.023437.007812-.019531.019531-.035156.019531-.050781 0-.042969-.011719-.078125-.019531-.113282.007812 0 .011719 0 .019531-.007812l.035156.183594h.019532c-.023438-.042969.054687-.078125-.011719-.128906-.007813-.003907.003906-.042969.003906-.058594-.015625-.039063-.027344-.074219-.046875-.121094.003906-.007812.023438-.011719.042969-.019531-.023438-.011719-.042969-.023438-.0625-.03125.0625-.054688.0625-.085938.007812-.144531.011719-.007813.023438-.007813.023438-.011719 0-.054688 0-.109375-.011719-.164063-.011719-.0625.019531-.132812-.074219-.171875.007813.019531.011719.03125.027344.050781 0 0-.019531.003907-.039063.015626-.078124-.070313-.027343-.167969-.046874-.277344.042968.011718.070312.023437.101562.035156-.011719-.042969-.042969-.089844-.058594-.144531h-.027344v-.402344c0 .007813.042969.007813.070313.011719 0-.003906.003906-.011719.003906-.019532-.019531-.023437-.042969-.046874-.066406-.078124l.011719-.011719c-.046875-.0625-.023438-.144531-.023438-.164063v-.425781c.058594.0625-.03125.140625.058594.175781v-.058594h-.003906c-.007813-.09375-.007813-.183593-.011719-.273437h-.011719c-.007812.011719-.007812.015625-.015625.027344h-.011719l.039063-1.453125c.058594.082031.125.152344.167969.230468.140625.257813.324218.476563.492187.707032.148438.203125.28125.421875.414063.625.164062.25.320312.5.484375.75.121093.1875.25.375.375.558594.117187.164062.238281.324218.359375.480468.105468.140625.214844.28125.316406.421875.121094.167969.242188.339844.363281.503907.0625.082031.128907.167968.195313.253906.035156.050781.089844.085937.128906.117187-.007812 0-.011719 0-.023438-.007812.015626.023437.027344.042969.039063.054687.070313.035156.074219.074219.039063.128906zm.308593-1.523437v-.039063c0 .011719.007813.027344 0 .039063m.207031-2.679687c-.003906 0-.042968-.035157-.046874-.042969-.007813.019531 0 .035156-.011719.0625-.007813-.019531-.050781-.011719-.050781-.03125-.003907.085937.039062.167969.03125.253906.019531-.011719.089843-.015625.109374-.035156.007813.003906.015626.011719.023438.011719-.121094.089843-.089844.183593-.035156.285156.011718.023437.046875.074218.011718.121094-.011718.011718.003907.050781.011719.082031h.019531v.011719l-.058593.015624c-.007813-.015624-.082031-.054687-.082031-.085937v.3125c.058593.019531.058593.101563.085937.144531.011719-.015625.015625-.027344.023437-.046875l.003907.003907c-.003907.039062-.011719.074218-.023438.109374-.011719.054688-.023437.105469-.027343.160157 0 .003906.011718.019531.011718.023437-.066406.152344-.03125.324219-.054687.480469-.019531.113281 0 .238281-.011719.359375-.015625.101562-.039062.210938-.0625.316406-.007812.015625-.019531.023438-.046875.035156.011719-.074218.003906-.121093-.007813-.1875-.007812 0-.085937-.042968-.09375-.042968 0 .085937.050782.199218.070313.296875-.019531-.003907-.09375-.046875-.097656-.046875-.015625.070312-.015625.167968-.019531.25-.007813.058594-.058594.113281-.066407.179687 0 .039063.042969.0625.035157.121094h.050781c0-.121094.054687-.230469.054687-.355469h.015625c.007813.011719.027344.023438.019531.027344-.011718.070312-.035156.140625-.03125.207031 0 .039063.03125.074219.019532.117188-.011719.035156-.019532.074219-.023438.128906-.007812-.03125-.011718-.042969-.011718-.0625-.007813 0-.0625-.003906-.070313-.003906-.003906.035156.042969.070312.039063.101562-.007813.007813-.011719.007813-.023438.011719l-.203125-.292969c-.160156-.230469-.316406-.464843-.472656-.699219-.042969-.058593-.078125-.117187-.109375-.179687-.1875-.324219-.398438-.636719-.625-.933594-.175782-.222656-.316406-.46875-.480469-.703125-.152344-.226562-.304687-.445312-.457031-.671875-.054688-.070312-.121094-.136719-.167969-.214843-.15625-.25-.296875-.507813-.457031-.753907-.132813-.207031-.277344-.410156-.417969-.609375-.046875-.066406-.097656-.140625-.144531-.214844-.007813-.011718-.011719-.027343-.011719-.039062-.011719-.136719-.027344-.269531-.03125-.398438 0-.121093.011719-.242187.011719-.371093v-.109375c0-.03125.003906-.054688.003906-.085938.007812-.003906.015625-.015625.019531-.023437-.175781 0-.359375-.003907-.535156 0-.113281.007812-.175781-.042969-.253906-.128907-.230469-.257812-.402344-.558593-.601563-.835937-.1875-.269531-.382812-.53125-.578125-.792969-.15625-.210937-.316406-.417968-.472656-.632812-.175781-.242188-.34375-.484375-.527344-.726563-.21875-.292969-.445312-.585937-.667969-.878906-.105468-.132813-.21875-.257813-.335937-.398437.078125.011718.152344.023437.226563.03125l.289062.015624c.21875.019532.4375.03125.65625.0625.183594.023438.367188.058594.554688.089844.398437.066406.792968.175782 1.175781.304688.226562.074218.445312.167968.664062.261718.492188.199219.960938.441407 1.421875.699219.144532.078125.230469.207031.339844.320313.15625.164062.316406.328125.464844.5.175781.199218.339844.40625.511718.613281.152344.183594.308594.367187.460938.546875.046875.054688.085938.121094.128906.183594.097656.148437.203125.285156.289063.445312.0625.113282.097656.25.140625.375.058594.191406.121094.371094.183594.558594.039062.140625.078124.289062.109374.433594.023438.097656.015626.199218.046876.296875.035156.128906 0 .269531.035156.394531.007812.015625.011718.03125.019531.042969.023437.027343.042969.050781.007813.085937-.007813.007813-.007813.03125 0 .050782.011718-.011719.015624-.027344.027343-.042969 0 .011719.007813.015625.007813.023437 0 .023438-.007813.046875 0 .074219 0 .011719.011718.027344.015625.039063.015625-.011719.027343-.015626.050781-.035157.054688.207031.058594.414063.058594.625 0 .203125.039062.402344-.046875.597657.019531-.066407-.023438-.128907-.003907-.1875zm-13.71875-.601563c.023438.019531.066407.027344.023438.066406-.027344.042969-.066406.078125-.089844.128907-.023437.039062-.042968.054687-.078125.023437.042969-.074219.09375-.148437.144531-.21875zm12.207032 6.371094c0 .019531.003906.03125.003906.050781.015625-.027344.015625-.039062.019531-.050781zm0 .054687v-.003906zm-1.238282 2.371094-1.058593-5.859375c-.015625-.007813-.042969-.019531-.082031-.03125.011718.023437.015624.042969.023437.0625.03125-.007813.042969-.007813.054687-.015625 0-.003906 0-.011719.003907-.015625l1.058593 5.863281zm-1.09375-7.179688c-.007812.019532-.007812.035157-.007812.054688 0-.019531 0-.039062.007812-.054688zm.007813.121094c-.007813 0-.007813 0-.015625-.007812v.007812c.007812.003906.007812.003906.015625 0zm-.015625.046875v-.042969c-.015625.007813-.035156.007813-.058594.015626.03125.011718.0625.015624.0625.027343zm0 0" fill="#dd3a0a"/></svg>