<svg height="18" viewBox="0 0 18 18" width="18" xmlns="http://www.w3.org/2000/svg"><path d="m-1.8-1.8h21.6v21.6h-21.6z" fill="#2a0634"/><g fill="#e976b9"><path d="m0 0v18h18v-18zm17.296875 17.296875h-16.59375v-16.59375h16.59375zm0 0"/><path d="m9.703125 6.625c-.015625-1.324219-1.097656-2.378906-2.417969-2.363281h-2.601562v8.226562h1.347656v-2.996093h1.167969c1.378906-.015626 2.503906-1.152344 2.503906-2.546876zm-1.351563.421875c0 .703125-.574218 1.277344-1.277343 1.277344h-1.042969v-2.910157h1.042969c.703125 0 1.277343.578126 1.277343 1.28125zm2.492188 5.441406v-5.613281s1.433594-.714844 2.839844-.53125v1.164062s-.984375 0-1.421875.183594v4.808594h-1.417969zm0 0"/></g></svg>