<svg height="18" viewBox="0 0 18 18" width="18" xmlns="http://www.w3.org/2000/svg"><path d="m9.015625.0703125c-4.949219 0-9.01171875 3.9843755-9.015625 8.8515625-.00390625 4.972656 3.984375 9.003906 8.914062 9.007813 5.042969.003906 9.078126-3.96875 9.085938-8.9375.007812-4.894532-4.046875-8.9218755-8.984375-8.9218755m0 .1406255c4.863281 0 8.851563 3.960937 8.84375 8.78125-.003906 4.894531-3.976563 8.800781-8.945313 8.796874-4.855468-.003906-8.777343-3.96875-8.773437-8.867187.003906-4.789063 4-8.710937 8.875-8.710937m.109375.824218-.164062.089844c-.183594.097656-.359376.195312-.488282.34375-.363281.421875-.511718.929688-.550781 1.472656-.035156.457032-.078125.914063-.160156 1.363282-.078125.402343-.210938.789062-.441407 1.160156-.046874-.390625-.089843-.78125-.195312-1.140625-.125-.429688-.347656-.824219-.773438-1.128907l-.144531-.105468.035157.175781c.109374.535156.003906 1.035156-.160157 1.539063-.113281.34375-.273437.683593-.371093 1.046874-.15625.585938-.335938 1.179688-.402344 1.789063-.089844.828125.222656 1.5625.742187 2.28125l-2.585937-.546875.003906.09375c.003906.078125-.003906.109375.011719.160156.257812.753906.707031 1.386719 1.210937 1.980469.078125.09375.207032.117187.3125.117187 2.660156.007813 5.316406.003907 7.976563.003907.089843 0 .210937-.007813.292969-.09375.574218-.605469 1.019531-1.296875 1.292968-2.164063l.035156-.113281-2.792968.546875c.167968-.308594.347656-.601562.457031-.917969.425781-1.226562.246094-2.417969-.359375-3.527343-.480469-.882813-.914062-1.742188-.679688-2.777344l.054688-.234375-.171875.167969c-.523437.519531-.722656 1.171874-.847656 1.835937-.097657.519531-.15625 1.039063-.226563 1.5625-.070312-1.03125-.273437-2.027344-.699218-2.980469-.261719-.585937-.539063-1.15625-.277344-1.824218zm-.238281.308594c-.167969.644531.082031 1.21875.320312 1.75.441407.980469.652344 2.011719.707031 3.082031.007813.074219.015626.144531.027344.214844.007813.054687.035156.070313.042969.082031l.101563.148438.027343-.179688c.09375-.660156.164063-1.316406.285157-1.960937.109374-.582031.289062-1.136719.671874-1.597657-.132812.984376.265626 1.824219.710938 2.644532.59375 1.085937.761719 2.226562.351562 3.414062-.117187.339844-.328124.660156-.515624 1.03125l-.066407.125 2.839844-.554687c-.269531.792969-.679687 1.433593-1.21875 2-.019531.019531-.117187.046875-.191406.046875-2.660157.003906-5.316407.003906-7.976563 0-.070312 0-.179687-.039063-.207031-.070313-.496094-.589843-.933594-1.207031-1.183594-1.9375 0 0 0-.027343 0-.03125l2.761719.582031-.113281-.152343c-.574219-.746094-.902344-1.484375-.8125-2.328125.0625-.589844.238281-1.175782.398437-1.761719.089844-.351563.25-.6875.367188-1.042969.144531-.449218.242187-.914062.1875-1.40625.296875.265625.484375.566406.589844.921875.117187.40625.15625.867188.21875 1.335938l.023437.167969.101563-.136719c.328124-.449219.472656-.921875.5625-1.402344.085937-.453125.128906-.917969.160156-1.375.039062-.527344.179687-1 .519531-1.394531.074219-.085938.195313-.148438.308594-.214844m-4.128907 11.058594v1.585937h8.476563v-1.585937zm.136719.140625h8.199219v1.308593h-8.199219zm1.515625 2.054687v.070313c-.003906.628906.316406 1.175781.824219 1.554687.511719.375 1.214844.589844 1.988281.554688.644532-.027344 1.253906-.292969 1.6875-.683594.4375-.390625.707032-.90625.65625-1.429688l-.007812-.066406zm.148438.140625h4.863281c.019531.449219-.210937.898438-.601563 1.25-.414062.367188-.992187.625-1.605468.648438-.742188.035156-1.414063-.171875-1.894532-.527344-.460937-.34375-.742187-.820313-.761718-1.371094zm0 0" fill="#e75225"/></svg>