<svg height="18" viewBox="0 0 18 18" width="18" xmlns="http://www.w3.org/2000/svg"><path d="m9 0c-4.96875 0-9 4.03125-9 9s4.03125 9 9 9 9-4.03125 9-9-4.03125-9-9-9m0 .140625c4.894531 0 8.859375 3.964844 8.859375 8.859375s-3.964844 8.859375-8.859375 8.859375-8.859375-3.964844-8.859375-8.859375 3.964844-8.859375 8.859375-8.859375m-.132812 2.675781-.070313.003906c-1.671875.046876-3.269531.707032-4.484375 1.855469l-.050781.046875.953125.953125-.191406.1875-.949219-.949219-.050781.050782c-1.148438 1.214844-1.808594 2.8125-1.855469 4.480468l-.003907.074219h1.277344v.265625h-1.28125v1.628906h13.679688v-1.628906h-1.28125v-.265625h1.277344l-.003907-.074219c-.046875-1.667968-.707031-3.265624-1.855469-4.480468l-.050781-.050782-.949219.949219-.1875-.1875.949219-.953125-.050781-.046875c-1.214844-1.148437-2.8125-1.808593-4.484375-1.855469l-.070313-.003906v1.273438h-.265624zm-.140626.152344v1.261719h.546876v-1.261719c1.585937.058594 3.097656.6875 4.261718 1.761719l-.945312.945312.386718.386719.945313-.945312c1.074219 1.164062 1.699219 2.675781 1.761719 4.261718h-1.261719v.546875h1.277344v1.347657h-13.398438v-1.347657h1.277344v-.546875h-1.261719c.0625-1.585937.6875-3.097656 1.761719-4.261718l.945313.945312.386718-.386719-.945312-.945312c1.167968-1.074219 2.675781-1.703125 4.261718-1.765625zm-.097656 2.226562c-2.316406.195313-4.097656 2.132813-4.097656 4.457032v.070312h8.9375v-.070312c0-2.613282-2.234375-4.671875-4.839844-4.453125zm.011719.140626c2.503906-.207032 4.640625 1.746093 4.679687 4.246093h-8.644531c.035157-2.222656 1.742188-4.0625 3.964844-4.246093" fill="#d51c2f"/></svg>