<svg height="18" viewBox="0 0 18 18" width="18" xmlns="http://www.w3.org/2000/svg"><path d="m9 0c-4.972656 0-9 4.027344-9 9s4.027344 9 9 9c4.96875 0 9-4.03125 9-9 0-4.972656-4.03125-9-9-9m-.203125 2.839844v1.285156h.40625v-1.285156c1.667969.046875 3.257813.707031 4.472656 1.851562l-.957031.960938.285156.289062.960938-.960937c1.144531 1.214843 1.804687 2.804687 1.851562 4.472656h-1.285156v.410156h1.289062v1.5h-13.644531v-1.503906h1.289063v-.40625h-1.28125c.046875-1.667969.707031-3.257813 1.851562-4.472656l.957032.960937.289062-.289062-.957031-.960938c1.214843-1.144531 2.804687-1.804687 4.472656-1.851562zm-.164063 2.398437c-2.300781.191407-4.066406 2.113281-4.066406 4.417969h8.867188c0-1.238281-.519532-2.421875-1.429688-3.261719-.914062-.839843-2.136718-1.257812-3.371094-1.15625" fill="#d51c2f"/></svg>