<svg height="18" viewBox="0 0 18 18" width="18" xmlns="http://www.w3.org/2000/svg"><path d="m8.996094 0c-1.328125 0-2.402344.621094-2.402344 1.390625s1.074219 1.394531 2.402344 1.394531c1.332031 0 2.40625-.625 2.40625-1.394531s-1.074219-1.390625-2.40625-1.390625m-4.535156 2.617188c-1.328126 0-2.40625.621093-2.40625 1.390624 0 .769532 1.078124 1.390626 2.40625 1.390626 1.328124 0 2.40625-.621094 2.40625-1.390626 0-.769531-1.078126-1.390624-2.40625-1.390624m9.078124 0c-1.328124 0-2.40625.621093-2.40625 1.390624 0 .769532 1.078126 1.390626 2.40625 1.390626 1.328126 0 2.40625-.621094 2.40625-1.390626 0-.769531-1.078124-1.390624-2.40625-1.390624m-4.542968 2.621093c-1.328125 0-2.402344.621094-2.402344 1.390625 0 .769532 1.074219 1.394532 2.402344 1.394532 1.332031 0 2.40625-.625 2.40625-1.394532 0-.769531-1.074219-1.390625-2.40625-1.390625m-7.59375.5c-.148438.007813-.289063.042969-.414063.113281-.664062.386719-.664062 1.628907 0 2.78125.664063 1.152344 1.742188 1.773438 2.40625 1.386719.667969-.382812.667969-1.628906.003907-2.777343-.539063-.9375-1.355469-1.523438-1.996094-1.503907m15.191406.003907c-.640625-.019532-1.453125.566406-1.996094 1.5-.664062 1.152343-.660156 2.398437.003906 2.78125.664063.382812 1.746094-.238282 2.410157-1.386719.664062-1.152344.664062-2.394531-.003907-2.78125-.125-.070313-.265624-.109375-.414062-.113281m-4.535156 2.621093c-.640625-.019531-1.453125.5625-1.996094 1.5-.664062 1.148438-.660156 2.394531.003906 2.777344.664063.386719 1.742188-.234375 2.40625-1.386719.667969-1.148437.664063-2.394531 0-2.777344-.125-.074218-.265625-.109374-.414062-.113281zm-6.121094 0c-.148438.003907-.285156.039063-.410156.113281-.667969.382813-.667969 1.628907-.003906 2.777344.664062 1.152344 1.742187 1.773438 2.410156 1.390625.664062-.386719.664062-1.628906 0-2.78125-.539063-.933593-1.351563-1.519531-1.996094-1.5m-4.535156 2.621094c-.148438.003906-.285156.039063-.410156.113281-.667969.382813-.667969 1.628906-.003907 2.777344.664063 1.152344 1.742188 1.773438 2.410157 1.386719.664062-.382813.664062-1.625 0-2.777344-.539063-.933594-1.351563-1.519531-1.996094-1.5zm15.195312 0c-.640625-.019531-1.457031.566406-1.996094 1.5-.664062 1.152344-.664062 2.394531.003907 2.78125.664062.382813 1.742187-.238281 2.40625-1.386719.664062-1.152344.664062-2.394531 0-2.78125-.125-.070312-.265625-.109375-.414063-.113281m-4.535156 2.617187c-.644531-.019531-1.457031.566407-1.996094 1.5-.664062 1.152344-.664062 2.398438.003906 2.78125.664063.386719 1.742188-.238281 2.40625-1.386718.664063-1.152344.664063-2.394532 0-2.78125-.125-.070313-.265624-.109375-.414062-.113282m-6.121094.003907c-.148437.003906-.289062.042969-.414062.113281-.664063.386719-.667969 1.628906 0 2.78125.664062 1.148438 1.742187 1.769531 2.40625 1.386719.667968-.386719.667968-1.628907.003906-2.78125-.539062-.933594-1.355469-1.519531-1.996094-1.5zm0 0" fill="#f6bf29"/></svg>