<svg height="18" viewBox="0 0 18 18" width="18" xmlns="http://www.w3.org/2000/svg"><path d="m6.664062 12.691406h6.078126l-1.382813-1.285156h-6.078125zm6.078126-4.503906h-6.078126l-1.382812 1.285156h6.078125zm-6.078126-1.933594h6.078126l-1.382813-1.285156h-6.078125zm-2.023437 1.269532-.914063-.90625-3.386718 3.367187c-.121094.121094-.191406.285156-.191406.457031s.070312.332032.191406.453125l3.386718 3.371094.914063-.910156-2.929687-2.914063zm13.042969-.757813-3.386719-3.371094-.914063.910157 2.929688 2.914062-2.929688 2.917969.914063.910156 3.386719-3.371094c.121094-.121093.191406-.285156.191406-.457031 0-.167969-.070312-.332031-.191406-.453125" fill="#111419"/></svg>