<svg height="18" viewBox="0 0 18 18" width="18" xmlns="http://www.w3.org/2000/svg"><path d="m15.390625 4.390625c.255208.255208.630208.354167.979167.255208.348958-.098958.614583-.380208.697916-.729166.291667-1.197917 1.40625-2.005209 2.630209-1.911459 1.223958.098959 2.197916 1.072917 2.296875 2.296875.09375 1.229167-.713542 2.34375-1.911459 2.630209-.348958.083333-.630208.348958-.729166.697916-.098959.348959 0 .723959.255208.979167l1.682292 1.682292c.942708.942708.942708 2.473958 0 3.416666l-1.682292 1.682292c-.255208.255208-.630208.354167-.979167.255208-.348958-.098958-.614583-.380208-.697916-.729166-.291667-1.197917-1.40625-2.005209-2.630209-1.911459-1.223958.098959-2.197916 1.072917-2.296875 2.296875-.09375 1.229167.713542 2.34375 1.911459 2.630209.348958.083333.630208.348958.729166.697916.098959.348959 0 .723959-.255208.979167l-1.682292 1.682292c-.942708.942708-2.473958.942708-3.416666 0l-1.682292-1.682292c-.255208-.255208-.630208-.354167-.979167-.255208-.348958.098958-.614583.380208-.697916.729166-.291667 1.197917-1.40625 2.005209-2.630209 1.911459-1.223958-.098959-2.197916-1.072917-2.296875-2.296875-.09375-1.229167.713542-2.34375 1.911459-2.630209.348958-.083333.630208-.348958.729166-.697916.098959-.348959 0-.723959-.255208-.979167l-1.682292-1.682292c-.942708-.942708-.942708-2.473958 0-3.416666l1.682292-1.682292c.255208-.255208.630208-.354167.979167-.255208.348958.098958.614583.380208.697916.729166.291667 1.197917 1.40625 2.005209 2.630209 1.911459 1.223958-.098959 2.197916-1.072917 2.296875-2.296875.09375-1.229167-.713542-2.34375-1.911459-2.630209-.348958-.083333-.630208-.348958-.729166-.697916-.098959-.348959 0-.723959.255208-.979167l1.682292-1.682292c.942708-.942708 2.473958-.942708 3.416666 0zm0 0" fill="none" stroke="#fff" stroke-linecap="round" stroke-linejoin="round" stroke-width="2" transform="scale(.75)"/></svg>