<svg height="18" viewBox="0 0 18 18" width="18" xmlns="http://www.w3.org/2000/svg" xmlns:xlink="http://www.w3.org/1999/xlink"><linearGradient id="a" gradientUnits="userSpaceOnUse" x1="5.45343735937" x2="13.4873443125" y1="5.84859375" y2="5.84859375"><stop offset="0" stop-color="#21d789"/><stop offset="1" stop-color="#07c3f2"/></linearGradient><linearGradient id="b" gradientUnits="userSpaceOnUse" x1="-4.1034375" x2="12.43968735938" y1="12.02624957813" y2="-.185625"><stop offset=".01" stop-color="#fcf84a"/><stop offset=".11" stop-color="#a7eb62"/><stop offset=".21" stop-color="#5fe077"/><stop offset=".27" stop-color="#32da84"/><stop offset=".31" stop-color="#21d789"/><stop offset=".58" stop-color="#21d789"/><stop offset=".6" stop-color="#21d789"/><stop offset=".69" stop-color="#20d68c"/><stop offset=".76" stop-color="#1ed497"/><stop offset=".83" stop-color="#19d1a9"/><stop offset=".9" stop-color="#13ccc2"/><stop offset=".97" stop-color="#0bc6e1"/><stop offset="1" stop-color="#07c3f2"/></linearGradient><linearGradient id="c" gradientUnits="userSpaceOnUse" x1="2.43281235938" x2="5.19187471875" y1="15.60796846875" y2="6.94968721875"><stop offset="0" stop-color="#21d789"/><stop offset=".16" stop-color="#24d888"/><stop offset=".3" stop-color="#2fd985"/><stop offset=".43" stop-color="#41dc80"/><stop offset=".55" stop-color="#5ae079"/><stop offset=".67" stop-color="#7ae46f"/><stop offset=".79" stop-color="#a1ea64"/><stop offset=".9" stop-color="#cff157"/><stop offset="1" stop-color="#fcf84a"/></linearGradient><linearGradient id="d" gradientUnits="userSpaceOnUse" x1="6.08624985937" x2="12.08953139063" y1="8.08031235938" y2=".0084375"><stop offset="0" stop-color="#21d789"/><stop offset=".09" stop-color="#23d986"/><stop offset=".17" stop-color="#2ade7b"/><stop offset=".25" stop-color="#36e669"/><stop offset=".27" stop-color="#3bea62"/><stop offset=".35" stop-color="#47eb61"/><stop offset=".49" stop-color="#67ed5d"/><stop offset=".69" stop-color="#9af156"/><stop offset=".92" stop-color="#e0f64d"/><stop offset="1" stop-color="#fcf84a"/></linearGradient><linearGradient id="e" gradientUnits="userSpaceOnUse" x1="15.26906278125" x2="3.17109360938" y1="9.10828082813" y2="8.99578139063"><stop offset=".39" stop-color="#fcf84a"/><stop offset=".46" stop-color="#ecf74c"/><stop offset=".61" stop-color="#c1f451"/><stop offset=".82" stop-color="#7eef5a"/><stop offset="1" stop-color="#3bea62"/></linearGradient><path d="m12.308594 3.367188 4.808594 4-1.730469 3.523437-2.898438-.804687h-2.507812zm0 0" fill="url(#a)"/><path d="m7.464844 5.964844-.929688 4.925781-.089844 1.671875-2.347656 1.019531-3.328125.355469 1.011719-10.640625 6.027344-2.527344 3.714844 2.4375zm0 0" fill="url(#b)"/><path d="m7.464844 5.964844.453125 9.492187-1.503907 1.773438-5.644531-3.292969 4.636719-6.902344zm0 0" fill="url(#c)"/><path d="m13.675781 5.273438h-5.703125l5.039063-4.503907zm0 0" fill="url(#d)"/><path d="m17.230469 15.492188-5.019531 1.707031-6.6875-1.882813 1.941406-9.351562.777344-.691406 4.066406-.382813-.367188 4.085937 3.238282-1.253906zm0 0" fill="url(#e)"/><path d="m3.855469 3.855469h10.289062v10.289062h-10.289062zm0 0"/><path d="m5.140625 12.199219h3.855469v.640625h-3.855469zm.003906-7.054688h1.574219c.921875 0 1.476562.542969 1.476562 1.332031v.007813c0 .890625-.695312 1.355469-1.558593 1.355469h-.636719v1.15625h-.855469zm1.515625 1.941407c.425782 0 .671875-.253907.671875-.582032v-.011718c0-.378907-.261719-.585938-.683593-.585938h-.648438v1.179688zm1.996094-.003907v-.011719c-.011719-.53125.199219-1.046874.578125-1.425781.378906-.375.894531-.578125 1.429687-.566406.566407-.027344 1.121094.1875 1.519532.59375l-.539063.621094c-.261719-.265625-.613281-.421875-.988281-.433594-.648438 0-1.117188.539063-1.117188 1.199219v.011718c0 .660157.457032 1.210938 1.117188 1.210938.441406 0 .710938-.171875 1.015625-.449219l.539063.542969c-.394532.457031-.976563.710938-1.582032.683594-.523437.007812-1.03125-.195313-1.40625-.570313-.371094-.371093-.574218-.878906-.566406-1.40625" fill="#fff"/></svg>