<svg height="18" viewBox="0 0 18 18" width="18" xmlns="http://www.w3.org/2000/svg"><path d="m7.738281 4.144531-2.585937.9375 2.546875.925781 2.589843-.941406zm-2.5625 2.085938-2.585937.9375 2.550781.921875 2.585937-.9375zm0 0" fill="#f7f7f4"/><path d="m5.152344 5.082031v2.984375l2.546875.921875v-2.980469zm-2.5625 2.085938v2.984375l2.550781.921875v-2.984375zm0 0" fill="#efeeea"/><path d="m5.175781 8.082031-2.585937.941407 2.550781.921874 2.585937-.9375zm-2.558593 2.089844-2.585938.9375 2.546875.921875 2.585937-.9375zm0 0" fill="#f7f7f4"/><path d="m2.589844 9.023438v2.980468l2.550781.925782v-2.984376zm-2.558594 2.085937-.0039062 2.980469 2.5507812.925781v-2.984375zm2.558594.925781v2.984375l2.550781.921875v-2.980468zm2.5625.925782v2.984374l2.546875.925782v-2.984375zm0 0" fill="#efeeea"/><path d="m12.859375 1.128906-2.558594.929688-2.589843.9375v2.980468l2.550781.925782v-2.984375l2.558593-.925781h.003907l2.585937-.9375zm-5.121094 4.867188-2.585937.9375 2.546875.925781 2.589843-.9375zm-2.585937.9375v2.984375l2.546875.925781v-2.984375zm0 3.015625v2.984375l2.546875.921875v-2.980469zm0 0" fill="#2f6491"/><path d="m12.832031 4.152344 2.550781.925781 2.589844-.9375-2.550781-.925781zm0 0" fill="#ffc91d"/><path d="m17.972656 4.140625-2.589844.9375v2.984375l2.589844-.9375zm0 3.011719-2.589844.9375-2.535156.917968-2.585937.9375v2.984376l2.5625-.929688v.003906l2.558593-.929687 2.589844-.9375zm-2.5625 3.941406-2.5625.929688-2.585937.9375v2.980468l2.5625-.925781 2.585937-.9375zm0 0" fill="#ffd242"/><path d="m15.410156 2.054688-2.5625.929687v-.003906l-2.585937.9375v2.984375l2.5625-.929688v.003906l2.585937-.9375zm0 3.011718-2.5625.929688-2.585937.933594-2.5625.929687v2.984375l2.5625-.929688v.003907l2.5625-.929688 2.585937-.9375zm-5.121094 4.871094-2.589843.9375v2.980469l2.589843-.9375zm0 0" fill="#3775a9"/><path d="m11.375 4.5c-.050781.003906-.101562.011719-.148438.03125-.273437.101562-.496093.414062-.496093.707031 0 .289063.222656.445313.496093.347657.273438-.101563.496094-.417969.496094-.707032 0-.238281-.144531-.382812-.347656-.378906zm6.597656 5.667969-2.589844.9375v2.984375l2.589844-.9375zm-3.382812 2.214843c-.046875.003907-.097656.011719-.144532.03125-.277343.097657-.5.414063-.5.707032 0 .289062.222657.445312.5.34375.273438-.097656.496094-.414063.496094-.707032 0-.234374-.148437-.382812-.351562-.375zm-4.300782.566407-2.589843.9375v2.984375l2.589843-.9375zm0 0" fill="#fff"/><path d="m12.851562 1.101562-5.148437 1.867188c-.011719.003906-.019531.015625-.019531.027344v1.136718l-2.542969.921876c-.011719.003906-.019531.015624-.019531.027343v1.136719l-2.539063.921875c-.011719.003906-.019531.015625-.019531.027344v2.960937l-2.5429688.953125c-.0117187.003907-.0195312.011719-.0195312.027344v2.980469c0 .015625.0078125.023437.0195312.027344l7.6718748 2.78125c.007813.003906.011719.003906.019532 0l10.269531-3.71875c.011719-.003907.019531-.015626.019531-.027344v-9.011719c0-.011719-.007812-.023437-.019531-.027344l-2.53125-.917969-.011719-1.140624c0-.011719-.007812-.023438-.015625-.027344l-2.550781-.925782c-.007813-.003906-.015625-.003906-.019532 0zm.007813.058594 2.464844.894532-2.472657.894531-2.464843-.890625zm2.519531.9375v2.917969l-2.527344.917969v-2.921875zm-5.105468 0 2.460937.894532-2.472656.894531-2.464844-.890625zm2.519531.933594v2.945312l.007812.003907-2.511719.910156v-2.949219zm-5.050781.003906 2.492187.90625v2.917969l-2.492187-.902344zm7.671874.210938 2.472657.894531-2.449219.886719c.019531-.613282-.003906-1.195313-.023438-1.78125m2.527344.9375v2.921875l-2.503906.90625v-2.921875zm-10.257812.011718v1.773438l-2.445313-.886719zm7.671875.921876v2.925781l-2.476563.894531v-2.921875zm-10.175781.007812 2.441406.882812-2.441406.886719zm2.558593.902344 2.464844.894531-2.503906.90625-2.460938-.894531zm5.054688.019531v2.921875l-2.476563.898438v-2.925782zm-7.671875.234375v1.773438l-2.445313-.886719zm5.113281.691406v2.921875l-2.503906.90625v-2.921875zm-5.054687.003906 2.492187.902344v2.921875l-2.492187-.902343zm12.761718.21875v2.921876l-2.503906.90625v-2.921876zm-15.320312.015626 2.441406.882812-2.441406.886719zm12.734375.921874v2.921876l-2.476563.898437v-2.921875zm-10.246094.003907v1.769531l-2.433594-.882812zm7.683594.921875v2.921875l-2.503907.90625v-2.917969zm-10.171875.003906 2.488281.90625v2.917969l-2.488281-.902344zm7.609375.894531v2.972657l.011719.007812-2.511719.90625v-2.96875l-.003907-.007812zm-5.050781.035157 2.492187.902343v2.921875l-2.492187-.902344zm12.761718.214843v2.921875l-2.503906.90625v-2.917968zm-15.378906.015625v1.773438l-2.445312-.886719zm12.792969.921875v2.921875c-1.054688.382813-.578125.210938.070312-.023437l-2.546875.921875v-2.921875zm-15.2968752.003907 2.4921872.90625v2.917968l-2.4921872-.902344zm12.7343752.925781v2.917969l-2.476563.898437v-2.921875zm-10.171875.003906 2.488281.902344v2.921875l.070313.023437v-2.921875l2.492187.902344v2.921875l-5.050781-1.828125zm0 2.921875 2.488281.902344c3.167969 1.148437-1.257813-.457032-2.488281-.902344m7.609375-2v2.921875l-2.234375.808594-.265625.097656v-2.921875zm0 0" fill="#ccc"/></svg>