<svg height="18" viewBox="0 0 18 18" width="18" xmlns="http://www.w3.org/2000/svg"><path d="m4.429688 4.273438h8.621093c.234375 0 .425781.191406.425781.425781 0 .230469-.191406.421875-.425781.421875h-8.621093c-.230469 0-.421876-.191406-.421876-.421875 0-.234375.191407-.425781.421876-.425781m.078124-.851563h1.730469v.398437h-1.730469zm2.265626 0h1.734374v.398437h-1.734374zm2.238281 0h1.730469v.398437h-1.730469zm2.226562 0h1.730469v.398437h-1.730469zm0 2.136719h1.730469v2.933594h-1.730469zm-2.226562 0h1.734375v4.761718h-1.734375zm-2.238281 0h1.734374v7.132812h-1.734374zm-2.265626 0h1.730469v8.691406h-1.730469zm0 0" fill="#009fe3"/></svg>