<svg height="18" viewBox="0 0 18 18" width="18" xmlns="http://www.w3.org/2000/svg"><path d="m6.9375 8.71875h4.101562c1.140626 0 2.039063-.964844 2.039063-2.113281v-3.90625c0-1.113281-.933594-1.949219-2.046875-2.136719-.703125-.117188-1.433594-.167969-2.136719-.167969-.699219.003907-1.351562.066407-1.941406.167969-1.734375.308594-2.03125.949219-2.03125 2.136719v1.519531h4.078125v.5625h-5.65625c-1.191406 0-2.238281.71875-2.566406 2.082031-.375 1.566407-.390625 2.519531 0 4.152344.292968 1.214844.988281 2.0625 2.183594 2.0625h1.398437v-1.835937c0-1.355469 1.183594-2.523438 2.578125-2.523438m-.257812-5.5c-.425782 0-.769532-.347656-.769532-.78125 0-.429688.34375-.78125.769532-.78125.421874 0 .769531.351562.769531.78125 0 .433594-.347657.78125-.769531.78125m10.515624 3.644531c-.292968-1.1875-.859374-2.082031-2.050781-2.082031h-1.503906v1.824219c0 1.414062-1.238281 2.535156-2.601563 2.535156h-4.101562c-1.125 0-2.015625 1.03125-2.015625 2.15625v3.910156c0 1.109375.949219 1.765625 2.035156 2.085938 1.296875.378906 2.527344.449219 4.082031 0 1.035157-.300781 2.039063-.902344 2.039063-2.085938v-1.566406h-4.078125v-.5625h6.144531c1.191407 0 1.636719-.8125 2.050781-2.0625.429688-1.285156.410157-2.503906 0-4.152344m-5.898437 7.820313c.425781 0 .769531.347656.769531.78125 0 .429687-.34375.785156-.769531.785156s-.769531-.355469-.769531-.785156c0-.433594.34375-.78125.769531-.78125" fill="#ffd845"/></svg>