<svg height="18" viewBox="0 0 18 18" width="18" xmlns="http://www.w3.org/2000/svg" xmlns:xlink="http://www.w3.org/1999/xlink"><filter id="a" height="100%" width="100%" x="0%" y="0%"><feColorMatrix color-interpolation-filters="sRGB" values="0 0 0 0 1 0 0 0 0 1 0 0 0 0 1 0 0 0 1 0"/></filter><linearGradient id="b" gradientTransform="matrix(.0791719 0 0 -.079875 -4.108359 100.97958)" gradientUnits="userSpaceOnUse" x1="70.251999" x2="170.658997" y1="1237.475952" y2="1151.088989"><stop offset="0" stop-color="#5a9fd4"/><stop offset="1" stop-color="#306998"/></linearGradient><linearGradient id="c" gradientTransform="matrix(.0791719 0 0 -.079875 -4.108359 100.97958)" gradientUnits="userSpaceOnUse" x1="209.473999" x2="173.619995" y1="1098.811035" y2="1149.536987"><stop offset="0" stop-color="#ffd43b"/><stop offset="1" stop-color="#ffe873"/></linearGradient><mask id="d"><g filter="url(#a)"><path d="m-1.8-1.8h21.6v21.6h-21.6z" fill-opacity=".444"/></g></mask><radialGradient id="e" cx="1825.677979" cy="444.450012" gradientTransform="matrix(0 -.03375 -.148359 0 74.950172 78.409123)" gradientUnits="userSpaceOnUse" r="26.743"><stop offset="0" stop-color="#b8b8b8" stop-opacity=".498"/><stop offset="1" stop-color="#7f7f7f" stop-opacity="0"/></radialGradient><clipPath id="f"><path d="m0 0h18v18h-18z"/></clipPath><path d="m8.914062 1.722656c-.59375.003906-1.160156.054688-1.660156.140625-1.46875.261719-1.734375.804688-1.734375 1.804688v1.324219h3.472657v.441406h-4.777344c-1.007813 0-1.890625.605468-2.167969 1.761718-.320313 1.320313-.332031 2.148438 0 3.527344.246094 1.027344.835937 1.761719 1.84375 1.761719h1.195313v-1.585937c0-1.148438.992187-2.15625 2.167968-2.15625h3.46875c.964844 0 1.738282-.796876 1.738282-1.765626v-3.308593c0-.941407-.796876-1.648438-1.738282-1.804688-.597656-.097656-1.214844-.144531-1.808594-.140625m-1.878906 1.0625c.359375 0 .652344.300782.652344.664063 0 .367187-.292969.660156-.652344.660156s-.648437-.292969-.648437-.660156c0-.363281.289062-.664063.648437-.664063" fill="url(#b)"/><path d="m12.894531 5.433594v1.542968c0 1.195313-1.015625 2.199219-2.171875 2.199219h-3.46875c-.949218 0-1.734375.816407-1.734375 1.765625v3.308594c0 .941406.816407 1.492188 1.734375 1.761719 1.101563.324219 2.15625.382812 3.46875 0 .875-.25 1.738282-.761719 1.738282-1.761719v-1.324219h-3.46875v-.441406h5.203124c1.011719 0 1.386719-.703125 1.738282-1.761719.363281-1.085937.347656-2.132812 0-3.527344-.25-1.003906-.726563-1.761718-1.738282-1.761718zm-1.953125 8.375c.359375 0 .652344.292968.652344.660156 0 .363281-.292969.664062-.652344.664062s-.652344-.300781-.652344-.664062c0-.367188.292969-.660156.652344-.660156" fill="url(#c)"/><g mask="url(#d)"><g clip-path="url(#f)"><path d="m13.683594 16.816406c0 .5-2.082032.902344-4.652344.902344s-4.652344-.402344-4.652344-.902344c0-.496094 2.082032-.902344 4.652344-.902344s4.652344.40625 4.652344.902344" fill="url(#e)"/></g></g></svg>