<svg height="18" viewBox="0 0 18 18" width="18" xmlns="http://www.w3.org/2000/svg"><path d="m4.597656 0c-.070312 0-.128906.0078125-.195312.0078125-.476563-.00390625-.972656.0625-1.488282.2148435-.484374.140625-.9375.386719-1.320312.714844-.195312.164062-.371094.347656-.523438.550781-.101562.132813-.199218.269531-.289062.410157-.015625.023437-.027344.050781-.042969.074218-.074219.117188-.140625.238282-.203125.363282-.011718.019531-.023437.039062-.03125.0625-.21875.4375-.359375.878906-.4374998 1.320312l-.0039062.023438c-.0234375.144531-.0390625.292968-.0507812.4375-.0195313.292968-.0117188.589843.0273437.878906v.015625c.0195313.136719.0429687.269531.0703125.402343l.007813.03125c.0625.273438.152343.542969.265624.796876.003907.003906.003907.007812.003907.007812.0625.136719.128906.273438.207031.402344.058594.109375.125.214844.195312.316406.007813.007812.011719.019531.019532.027344.15625.222656.332031.429687.523437.621094.015625.015624.03125.03125.046875.046874.082032.074219.164063.148438.253906.21875.011719.011719.023438.023438.035157.035157l1.636719 1.367187v-6.042968h11.390624v2.039062l2.152344-.8125c.328125-.074219.617188-.269531.804688-.550781.703125-1.0625-.015625-2.351563-1.167969-2.359375l-11.339844-1.5468752c-.117187-.0195313-.234375-.0351563-.355469-.046875zm-1.152344 3.445312v11.109376h11.109376v-11.109376zm3.304688 1.269532c1.304688 0 2.230469.964844 2.230469 2.164062v.011719c0 .429687-.132813.851563-.371094 1.207031l.429687.367188-.601562.648437-.464844-.421875c-.371094.238282-.804687.363282-1.25.359375-1.296875.007813-2.222656-.960937-2.222656-2.160156 0-1.195313.945312-2.175781 2.25-2.175781m2.933594.066406h1.585937c1.324219 0 2.238281.910156 2.238281 2.09375v.015625c0 1.183594-.914062 2.109375-2.238281 2.109375h-1.585937zm-2.960938.785156c-.746094 0-1.265625.589844-1.265625 1.3125v.011719c-.011719.347656.117188.679687.359375.929687.238282.25.570313.390626.914063.390626.195312.003906.382812-.035157.558593-.121094l-.679687-.582032.589844-.660156.691406.625c.074219-.183594.113281-.382812.109375-.582031.011719-.347656-.117188-.683594-.359375-.933594-.238281-.246093-.570313-.390625-.917969-.390625m3.886719.058594v2.53125h.660156c.757813 0 1.265625-.511719 1.265625-1.257812v-.007813c.019532-.339844-.109375-.671875-.351562-.914063-.242188-.238281-.570313-.367187-.914063-.351562zm4.085937 1.617188v7.453124h-11.390624v-5.015624c-.191407.03125-.378907.074218-.5625.125-.691407.203124-1.296876.621093-1.734376 1.191406-2.59375 3.367187.1875 7.765625 4.160157 6.890625l9.523437-1.378907c1.003906-.222656 1.882813-.828124 2.453125-1.6875.085938-.132812.167969-.269531.246094-.40625l.011719-.027343c.066406-.121094.128906-.25.1875-.378907.003906-.011718.011718-.023437.015625-.035156.058593-.132812.109375-.269531.15625-.40625l.003906-.011718c.082031-.25.140625-.507813.179687-.765626.003907-.03125.011719-.0625.015626-.09375.015624-.125.027343-.246093.03125-.367187.003906-.035156.003906-.070313.003906-.105469.003906-.136718 0-.269531-.007813-.402344-.003906-.089843-.011719-.175781-.023437-.265624-.003906-.03125-.007813-.0625-.011719-.097657-.015625-.109375-.039063-.222656-.0625-.332031-.007813-.046875-.023437-.089844-.03125-.136719-.019531-.070312-.039063-.144531-.0625-.214843-.011719-.046876-.027344-.09375-.042969-.136719-.027344-.074219-.050781-.144531-.082031-.21875-.027344-.070313-.058594-.140625-.089844-.207031-.027343-.066407-.058593-.128907-.09375-.195313-.023437-.050781-.054687-.101563-.082031-.148437-.027344-.050782-.058594-.101563-.085938-.148438-.035156-.050781-.066406-.105469-.101562-.15625-.027344-.039062-.054688-.078125-.085938-.121094-.074218-.097656-.148437-.195312-.230468-.289062-.023438-.027344-.046875-.054688-.070313-.082032-.070312-.082031-.148437-.160156-.226562-.234374-.042969-.039063-.082031-.078126-.121094-.117188zm-9.914062 5.273437h4.21875v.703125h-4.21875zm0 0" fill="#ff318c"/></svg>