<svg height="18" viewBox="0 0 18 18" width="18" xmlns="http://www.w3.org/2000/svg"><g fill="none" stroke="#fff" stroke-linecap="round" stroke-linejoin="round" stroke-width="2" transform="scale(.75)"><path d="m4 3h3c.552083 0 1 .447917 1 1v3c0 .552083-.447917 1-1 1h-3c-.552083 0-1-.447917-1-1v-3c0-.552083.447917-1 1-1zm0 0"/><path d="m17 3h3c.552083 0 1 .447917 1 1v3c0 .552083-.447917 1-1 1h-3c-.552083 0-1-.447917-1-1v-3c0-.552083.447917-1 1-1zm0 0"/><path d="m4 16h3c.552083 0 1 .447917 1 1v3c0 .552083-.447917 1-1 1h-3c-.552083 0-1-.447917-1-1v-3c0-.552083.447917-1 1-1zm0 0"/><path d="m21 16h-3c-1.104167 0-2 .895833-2 2v3m5 0v.010417m-9-14.010417v3c0 1.104167-.895833 2-2 2h-3m-4 0h.010417m8.989583-9h.010417m-.010417 13v.010417m4-4.010417h1m4 0v.010417m-9 8.989583v-1"/></g></svg>