<svg height="18" viewBox="0 0 18 18" width="18" xmlns="http://www.w3.org/2000/svg"><path d="m11.527344 3.671875-2.527344 1.460937 2.527344 1.460938zm-5.054688 0v2.921875l2.527344-1.460938zm5.054688 2.921875-2.527344-1.460938-2.527344 1.460938 2.527344 1.460938zm-7.722656 1.699219 2.527343 1.457031v-2.917969zm2.527343 4.378906 2.53125-1.460937-2.53125-1.460938zm0-5.839844v2.917969l2.53125 1.460938v-2.917969zm5.335938 5.839844v-2.921875l-2.53125 1.460938zm2.527343-4.378906-2.527343-1.460938v2.917969zm-5.058593 2.917969 2.53125-1.460938v-2.917969l-2.53125 1.460938zm5.351562-10.421876h-10.976562c-1.5 0-2.722657 1.222657-2.722657 2.722657v10.976562c0 1.5 1.222657 2.722657 2.722657 2.722657h7.515625l-2.027344-4.925782-1.472656 3.109375h-4.015625c-.492188 0-.90625-.414062-.90625-.90625v-10.976562c0-.492188.414062-.90625.90625-.90625h10.976562c.492188 0 .910157.414062.910157.90625v10.976562c0 .492188-.417969.90625-.910157.90625h-2.382812l.75 1.816407h1.632812c1.5 0 2.722657-1.222657 2.722657-2.722657v-10.976562c0-1.5-1.222657-2.722657-2.722657-2.722657m0 0" fill="#4695eb"/></svg>