<svg height="18" viewBox="0 0 18 18" width="18" xmlns="http://www.w3.org/2000/svg"><path d="m10.304688 9c0 .71875-.585938 1.304688-1.304688 1.304688s-1.304688-.585938-1.304688-1.304688.585938-1.304688 1.304688-1.304688 1.304688.585938 1.304688 1.304688m4.484374-3.34375c-.285156-.488281-.628906-.9375-1.023437-1.339844l-1.511719.871094c-.464844-.398438-.996094-.707031-1.570312-.914062-.503906.507812-.917969 1.09375-1.21875 1.738281 1.679687-.113281 3.410156.496093 5.019531 1.753906l.949219-.550781c-.148438-.542969-.363282-1.066406-.644532-1.558594zm-5.789062 10.027344c.5625-.003906 1.125-.074219 1.671875-.21875v-1.738282c.578125-.207031 1.109375-.511718 1.578125-.910156-.1875-.6875-.492188-1.339844-.898438-1.921875-.738281 1.507813-2.132812 2.707031-4.023437 3.46875v1.097657c.542969.144531 1.105469.21875 1.671875.222656zm-5.789062-10.023438c-.28125.488282-.496094 1.011719-.644532 1.554688l1.507813.871094c-.113281.601562-.113281 1.21875-.003907 1.820312.6875.183594 1.402344.246094 2.113282.183594-.9375-1.394532-1.277344-3.199219-.996094-5.222656l-.949219-.546876c-.398437.402344-.742187.851563-1.027343 1.339844m5.789062-5.644531c-4.960938 0-8.984375 4.023437-8.984375 8.984375s4.023437 8.984375 8.984375 8.984375 8.984375-4.023437 8.984375-8.984375-4.023437-8.984375-8.984375-8.984375m0 1.152344c4.320312 0 7.832031 3.511719 7.832031 7.832031s-3.511719 7.832031-7.832031 7.832031-7.832031-3.511719-7.832031-7.832031 3.511719-7.832031 7.832031-7.832031zm0 1.148437c-.5625 0-1.125.074219-1.671875.214844v1.742188c-.578125.203124-1.109375.511718-1.578125.90625.1875.6875.492188 1.339843.898438 1.925781.738281-1.511719 2.132812-2.707031 4.023437-3.472657v-1.09375c-.542969-.144531-1.105469-.222656-1.671875-.222656zm3.527344 5.574219c-.234375-.007813-.472656-.003906-.710938.019531.941406 1.394532 1.277344 3.199219.996094 5.21875l.949219.550782c.398437-.402344.742187-.851563 1.027343-1.339844.28125-.488282.496094-1.011719.644532-1.554688l-1.503906-.871094c.113281-.609374.113281-1.222656.003906-1.820312-.460938-.121094-.929688-.191406-1.40625-.203125zm-9.011719 2.34375-.949219.546875c.148438.546875.367188 1.070312.644532 1.558594.285156.492187.628906.941406 1.023437 1.339844l1.511719-.867188c.464844.394531.996094.703125 1.570312.910156.503906-.503906.917969-1.09375 1.21875-1.738281-1.679687.113281-3.410156-.492187-5.019531-1.75m0 0" fill="#00b4ff"/></svg>