<svg height="18" viewBox="0 0 18 18" width="18" xmlns="http://www.w3.org/2000/svg"><path d="m8.929688 2.042969v.003906c-2.449219.015625-4.667969.679687-6.28125 1.761719-1.632813 1.089844-2.648438 2.605468-2.648438 4.285156 0 1.472656.78125 2.824219 2.074219 3.867188 1.292969 1.042968 3.09375 1.789062 5.148437 2.066406l.078125.011718v-1.921874l-.050781-.015626c-1.074219-.339843-1.980469-.847656-2.609375-1.460937-.632813-.617187-.992187-1.332031-.992187-2.101563 0-1.097656.738281-2.097656 1.953124-2.828124 1.214844-.734376 2.902344-1.1875 4.765626-1.1875 1.867187 0 3.484374.3125 4.628906.96875 1.144531.660156 1.816406 1.652343 1.816406 3.046874 0 1.441407-.714844 2.453126-1.925781 3.109376l-.097657.054687.089844.0625c.160156.121094.292969.277344.382813.453125v.003906l.09375.15625.0625-.042968c1.589843-1.085938 2.582031-2.585938 2.582031-4.242188 0-1.679688-1.015625-3.195312-2.648438-4.285156-1.628906-1.09375-3.871093-1.765625-6.351562-1.765625zm.070312.140625h.003906c2.453125 0 4.671875.667968 6.273438 1.738281 1.601562 1.074219 2.582031 2.550781 2.582031 4.171875 0 1.582031-.933594 3.015625-2.460937 4.082031l-.015626-.023437.003907.003906c-.085938-.171875-.214844-.3125-.355469-.4375 1.191406-.675781 1.921875-1.726562 1.921875-3.179688 0-1.441406-.710937-2.488281-1.886719-3.167968-1.175781-.675782-2.816406-.988282-4.699218-.988282-1.886719 0-3.59375.457032-4.835938 1.207032-1.242188.746094-2.023438 1.789062-2.023438 2.949218 0 .8125.382813 1.566407 1.035157 2.199219.640625.625 1.546875 1.132813 2.617187 1.476563v1.65625c-1.996094-.28125-3.746094-1.007813-4.996094-2.019532-1.269531-1.023437-2.023437-2.332031-2.023437-3.757812 0-1.621094.980469-3.097656 2.582031-4.171875 1.605469-1.070313 3.824219-1.738281 6.277344-1.738281m-1.640625 3.574218v10.199219l3.183594-.003906v-3.9375h.75c.074219 0 .121093.011719.171875.035156.050781.023438.109375.066407.191406.136719.085938.066406.222656.25.328125.410156.066406.097656.128906.199219.1875.300782l1.628906 3.058593 3.609375-.003906-2.195312-3.695313.003906.003907c-.054688-.109375-.125-.210938-.210938-.300781-.144531-.15625-.339843-.265626-.453124-.324219-.160157-.082031-.375-.164063-.550782-.222657-.027344-.011718-.023437-.007812-.046875-.015624.25-.042969.625-.128907 1.078125-.390626.683594-.390624 1.367188-1.128906 1.367188-2.480468 0-1.347656-.71875-2.054688-1.433594-2.40625-.710938-.351563-1.421875-.363282-1.421875-.363282zm.140625.140626h6.042969s.683593.011718 1.367187.347656c.679688.335937 1.351563.980468 1.351563 2.28125 0 1.304687-.644531 1.988281-1.296875 2.359375-.648438.371093-1.300782.421875-1.300782.421875l-.015624.136718c-.003907-.003906.136718.039063.308593.097657.171875.0625.386719.140625.535157.21875.105468.050781.289062.160156.414062.292969v.003906c.078125.078125.140625.167968.1875.265625v.003906l2.070312 3.488281h-3.277343l-1.59375-2.988281s-.082031-.144531-.191407-.308594c-.109374-.164062-.238281-.347656-.355468-.441406-.085938-.070313-.148438-.117187-.21875-.152344-.070313-.035156-.144532-.046875-.234375-.046875h-.886719v3.9375h-2.90625zm2.929688 2.039062v1.851562h1.914062s.230469 0 .460938-.117187c.230468-.121094.464843-.367187.464843-.824219 0-.464844-.238281-.707031-.46875-.8125-.230469-.109375-.460937-.097656-.460937-.097656zm.140624.140625h1.777344s.199219-.007813.394532.082031c.195312.089844.386718.269532.386718.6875 0 .410156-.191406.597656-.386718.699219-.199219.097656-.398438.101563-.398438.101563h-1.773438zm1.304688 4.40625-.078125.007813c-.375.035156-.75.058593-1.125.066406h-.070313v1.492187l.078126-.011719c.59375-.074218 1.179687-.191406 1.753906-.347656l.082031-.023437-.109375-.210938c-.097656-.175781-.1875-.351562-.285156-.53125-.078125-.132812-.160156-.257812-.246094-.382812zm-.105469.148437c.078125.117188.15625.238282.230469.359376v.003906c.09375.175781.1875.351562.28125.527344l.027344.050781c-.515625.136719-1.039063.242187-1.566406.3125v-1.195313c.351562-.007812.695312-.027344 1.027343-.058594" fill="#1f65b7"/></svg>