<svg height="18" viewBox="0 0 18 18" width="18" xmlns="http://www.w3.org/2000/svg" xmlns:xlink="http://www.w3.org/1999/xlink"><linearGradient id="a" gradientTransform="matrix(.0305016 0 0 .0204286 -.0225 1.9845)" gradientUnits="userSpaceOnUse" x1=".741" x2="590.859985" y1="3.666" y2="593.789978"><stop offset="0" stop-color="#cbced0"/><stop offset="1" stop-color="#84838b"/></linearGradient><linearGradient id="b" gradientTransform="matrix(.0247106 0 0 .0252155 -.0225 1.9845)" gradientUnits="userSpaceOnUse" x1="301.029999" x2="703.070007" y1="151.399994" y2="553.440002"><stop offset="0" stop-color="#276dc3"/><stop offset="1" stop-color="#165caa"/></linearGradient><g fill-rule="evenodd"><path d="m9 14.117188c-4.96875 0-9-2.699219-9-6.027344 0-3.332032 4.03125-6.027344 9-6.027344s9 2.695312 9 6.027344c0 3.328125-4.03125 6.027344-9 6.027344m1.378906-9.699219c-3.78125 0-6.84375 1.84375-6.84375 4.121093 0 2.273438 3.0625 4.121094 6.84375 4.121094 3.777344 0 6.566406-1.261718 6.566406-4.121094 0-2.859374-2.789062-4.121093-6.566406-4.121093" fill="url(#a)"/><path d="m13.707031 11.394531s.542969.164063.859375.324219c.109375.054688.300782.167969.4375.3125.082032.085938.148438.183594.199219.289062l2.148437 3.617188-3.46875.003906-1.625-3.046875s-.332031-.574219-.535156-.738281c-.171875-.136719-.242187-.1875-.414062-.1875h-.824219l.003906 3.96875h-3.070312v-10.136719h6.164062s2.808594.050781 2.808594 2.722657c0 2.671874-2.683594 2.871093-2.683594 2.871093zm-1.335937-3.394531h-1.859375v1.722656h1.859375s.859375-.003906.859375-.875c0-.894531-.859375-.847656-.859375-.847656" fill="url(#b)"/></g></svg>