<svg height="18" viewBox="0 0 18 18" width="18" xmlns="http://www.w3.org/2000/svg"><path d="m9 2.058594c-4.96875 0-9 2.699218-9 6.027344 0 2.921874 3.101562 5.355468 7.214844 5.910156v-1.804688c-2.183594-.6875-3.679688-2.066406-3.679688-3.65625 0-2.273437 3.0625-4.117187 6.84375-4.117187 3.777344 0 6.566406 1.261719 6.566406 4.117187 0 1.476563-.742187 2.527344-1.980468 3.195313.171875.128906.3125.292969.410156.480469l.054688.09375c1.589843-1.085938 2.570312-2.574219 2.570312-4.21875 0-3.328126-4.03125-6.027344-9-6.027344m-1.585938 3.746094v10.136718l3.074219-.003906-.003906-3.96875h.824219c.171875 0 .242187.050781.414062.1875.203125.167969.535156.738281.535156.738281l1.625 3.046875 3.46875-.003906-2.148437-3.617188c-.050781-.105468-.117187-.203124-.199219-.289062-.136718-.144531-.328125-.253906-.4375-.3125-.316406-.160156-.859375-.324219-.859375-.324219s2.683594-.199219 2.683594-2.871093c0-2.671876-2.808594-2.71875-2.808594-2.71875zm3.097657 2.195312h1.859375s.859375-.046875.859375.847656c0 .871094-.859375.875-.859375.875h-1.859375zm1.316406 4.589844c-.382813.035156-.761719.058594-1.144531.066406l.003906 1.351562c.589844-.074218 1.175781-.191406 1.753906-.347656l-.070312-.132812c-.097656-.179688-.191406-.359375-.289063-.535156-.078125-.136719-.164062-.273438-.253906-.402344zm0 0" fill="#1f65b7"/></svg>