<svg height="18" viewBox="0 0 18 18" width="18" xmlns="http://www.w3.org/2000/svg"><g fill="none" stroke="#fff" stroke-linecap="round" stroke-linejoin="round" stroke-width="2" transform="scale(.75)"><path d="m13 16c1.182292 0 2.255208.692708 2.739583 1.776042.484375 1.078125.291667 2.34375-.5 3.223958m2.760417-9h.010417"/><path d="m18 21h-8c-2.208333 0-4-1.791667-4-4 0-3.864583 3.135417-7 7-7h.197917l-3.598959-3.598958c-.770833-.776042-.770833-2.026042 0-2.802084.776042-.770833 2.026042-.770833 2.802084 0l3.401041 3.401042h.197917c3.302083 0 6 2.697917 6 6v1c0 1.104167-.895833 2-2 2h-1c-1.65625 0-3 1.34375-3 3"/><path d="m20 8.541667v-4.541667c0-1.104167-.895833-2-2-2s-2 .895833-2 2v3m-8.385417 5.526042c-.786458-1.385417-2.510416-1.921875-3.9375-1.21875-1.427083.703125-2.057291 2.395833-1.4375 3.864583.619792 1.463542 2.276042 2.1875 3.770834 1.651042"/></g></svg>