<svg height="18" viewBox="0 0 18 18" width="18" xmlns="http://www.w3.org/2000/svg"><g fill="none" stroke="#fff" stroke-linecap="round" stroke-linejoin="round" stroke-width="2" transform="scale(.75)"><path d="m19.067708 4.932292c-3.197916-3.208334-8.15625-3.859375-12.078125-1.59375m-2.989583 2.661458h.010417m-1.71875 3.619792c-1.03125 4.192708.744791 8.567708 4.401041 10.859375 3.661459 2.291666 8.375 1.973958 11.697917-.78125 3.317708-2.755209 4.494792-7.328125 2.921875-11.348959"/><path d="m16.239583 7.760417c-1.567708-1.578125-3.880208-2.15625-6.005208-1.510417-2.130208.651042-3.723958 2.421875-4.140625 4.609375-.421875 2.182292.401042 4.416667 2.135417 5.8125m3.770833 1.328125h.010417m5.979166-6.338542c.109375 1.927084-.713541 3.791667-2.21875 5.010417"/><path d="m14 12c0 1.104167-.895833 2-2 2s-2-.895833-2-2 .895833-2 2-2 2 .895833 2 2zm0 0"/><path d="m13.411458 10.588542 5.65625-5.65625"/></g></svg>