<svg height="18" viewBox="0 0 18 18" width="18" xmlns="http://www.w3.org/2000/svg"><path d="m12 12h.010417m-4.510417-7.802083c-.302083-.5-.901042-.697917-1.302083-.395834-2.296875 1.697917-3.895834 4.296875-4.197917 7.197917-.098958.5.401042 1 1 1h5c0-1.5.802083-2.802083 2-3.401042-1.098958-1.901041-2-3.5-2.5-4.401041m13.5 7.802083c.598958 0 1-.401042 1-1-.302083-2.901042-1.802083-5.5-4.098958-7.098958-.401042-.302084-1.098959-.203125-1.302084.296875-.598958.901041-1.5 2.5-2.598958 4.302083 1.197917.697917 2 2 2 3.5zm-13.5 7.802083c-.302083.5-.098958 1.098959.401042 1.296875 2.598958 1.203125 5.598958 1.203125 8.197916 0 .5-.197916.703125-.796875.401042-1.296875-.5-.901041-1.401042-2.5-2.5-4.302083-1.197917.697917-2.802083.697917-4 0-1.098958 1.802083-2 3.401042-2.5 4.302083" fill="none" stroke="#fff" stroke-linecap="round" stroke-linejoin="round" stroke-width="2" transform="scale(.75)"/></svg>