<svg height="18" viewBox="0 0 18 18" width="18" xmlns="http://www.w3.org/2000/svg"><g fill="none" stroke="#fff" stroke-linecap="round" stroke-linejoin="round" stroke-width="2" transform="scale(.75)"><path d="m20.338542 17.520833c2.833333-4.28125 1.963541-10.015625-2.010417-13.265625-3.979167-3.244791-9.765625-2.958333-13.395833.677084-3.635417 3.630208-3.921875 9.416666-.677084 13.395833 3.25 3.973958 8.984375 4.84375 13.265625 2.010417"/><path d="m21 19c0 1.104167-.895833 2-2 2s-2-.895833-2-2 .895833-2 2-2 2 .895833 2 2zm0 0"/><path d="m13.411458 13.411458 4.177084 4.177084"/><path d="m14 12c0 1.104167-.895833 2-2 2s-2-.895833-2-2 .895833-2 2-2 2 .895833 2 2zm0 0"/></g></svg>