<svg height="18" viewBox="0 0 18 18" width="18" xmlns="http://www.w3.org/2000/svg"><path d="m15.425781 2.074219c-1.71875-.847657-3.476562-.933594-5.277343-.296875-1.65625.582031-2.976563 1.632812-3.957032 3.058594-1.664062 2.414062-2.871094 5.050781-3.546875 7.910156-.347656 1.464844-.570312 3.019531-.511719 4.535156.003907.121094.023438.15625.035157.4375h8.488281c-.023438-.28125-.039062-.199219-.058594-.253906-.449218-1.148438-.800781-2.332032-1.046875-3.542969-.351562-1.722656-.535156-3.476563-.171875-5.214844.507813-2.433593 1.894532-4.191406 4.234375-5.101562 1.324219-.515625 2.582031-.371094 3.6875.597656.007813.007813.03125.003906.058594.007813l.359375-.546876c-.695312-.660156-1.457031-1.179687-2.292969-1.589843m-14.957031 11.199219c-.0625.550781-.125 1.070312-.1875 1.609374l1.566406.191407.285156-1.675781zm3.074219-4.808594-1.472657-.574219-.476562 1.351563 1.5.480468c.152344-.425781.296875-.828125.449219-1.257812m6.949219 7.546875c.5.039062 1.003906.0625 1.558593.097656-.199219-.421875-.378906-.800781-.566406-1.171875-.019531-.042969-.089844-.082031-.136719-.082031-.425781-.007813-.851562-.003907-1.304687-.003907.101562.371094.1875.710938.292969 1.046876.015624.050781.097656.109374.15625.113281m-4.453126-11.636719-1.121093-.742188-.894531 1 1.152343.773438zm3.5625 7.503906c-.003906.046875.039063.117188.078126.136719.402343.179687.808593.351563 1.253906.542969-.019532-.351563-.03125-.644532-.054688-.9375-.003906-.050782-.027344-.125-.066406-.148438-.371094-.203125-.746094-.398437-1.15625-.617187-.019531.375-.042969.699219-.054688 1.023437m-.332031-10.148437-.765625-.871094-1.054687.550781.765625.933594zm.480469 6.914062c-.023438.054688.007812.164063.050781.207031.304688.273438.621094.539063.972657.839844.082031-.339844.160156-.640625.222656-.941406.011718-.054688-.003906-.144531-.042969-.171875-.273437-.222656-.554687-.433594-.847656-.65625-.128907.257813-.253907.484375-.355469.722656m1.75-7.371093c.390625.011718.78125.003906 1.195312.003906-.042968-.285156-.0625-.503906-.109374-.714844-.015626-.0625-.109376-.144531-.171876-.152344-.394531-.03125-.789062-.042968-1.21875-.0625.058594.289063.101563.542969.164063.796875.011719.050781.089844.128907.140625.128907m.476562 5.015624c.019532-.035156.023438-.105468.003907-.136718-.191407-.300782-.390625-.597656-.597657-.910156l-.671874.617187.925781 1.023437c.125-.214843.238281-.402343.339843-.59375m.722657-2.042968.398437.742187c.625-.339843.683594-.464843.464844-.960937zm2.992187-2.289063c.261719.160157.535156.300781.8125.449219l.1875-.289062c-.339844-.25-.667968-.492188-1.042968-.765626-.011719.15625-.035157.265626-.027344.371094.003906.082032.015625.203125.070312.234375m-.363281 2.351563c.28125.03125.703125.0625.984375.089844v-.378907c-.28125-.0625-.703125-.125-.984375-.1875zm0 0" fill="#c00" fill-rule="evenodd"/></svg>