<svg height="18" viewBox="0 0 18 18" width="18" xmlns="http://www.w3.org/2000/svg"><path d="m11.113281 4.734375c-.058593 0-.101562.035156-.140625.078125-.035156.042969-.070312.097656-.097656.164062-.0625.128907-.117188.304688-.152344.492188h-.003906l-.195312 1.164062c-.0625.40625.226562.761719.648437.761719h1.144531c.070313 0 .136719-.019531.203125-.027343-.058593.105468-.148437.183593-.285156.183593h-1.613281c-.210938 0-.378906-.203125-.34375-.414062l.171875-.976563c.046875-.296875-.183594-.578125-.480469-.578125h-7.996094c-.199218 0-.367187.121094-.445312.296875l.003906-.007812-1.5 2.304687c-.0195312.03125-.03515625.066407-.03125.109375.00390625.039063.0234375.078125.0546875.105469l.2812505.339844c.066406.066406.164062.066406.230468.023437h.003906l.90625-.71875v4.738282c0 .128906.050782.257812.144532.347656.09375.09375.21875.144531.351562.144531h2.265625c.128907 0 .257813-.050781.347657-.144531.09375-.089844.144531-.21875.144531-.347656v-1.699219c0-.207031.148437-.355469.355469-.355469h5.648437c.203125 0 .351563.148438.351563.355469v1.699219c0 .128906.050781.257812.144531.347656.09375.09375.21875.144531.351562.144531h2.265625c.128906 0 .257813-.050781.347656-.144531.09375-.089844.148438-.21875.144532-.347656v-1.898438h-1.273438c-.328125 0-.621094-.28125-.621094-.621094v-1.175781c0-.136719.054688-.253906.128907-.355469v1.203125c0 .410157.339843.765625.761719.765625h1.855468c.40625 0 .761719-.34375.761719-.765625v-3.554687c-.015625-.429688-.355469-.773438-.777344-.773438h-3.777343v-.101562c0-.191406-.027344-.367188-.066407-.503906-.023437-.070313-.046875-.125-.078125-.171876-.03125-.046874-.078125-.085937-.140625-.085937m6.285157.011719c-.058594 0-.105469.039062-.136719.085937-.03125.042969-.058594.101563-.078125.167969-.042969.136719-.066406.3125-.066406.511719v.3125c0 .328125-.28125.621093-.625.621093h-.4375v.976563h1.277343c.429688-.03125.722657-.371094.660157-.773437v-.003907l-.199219-1.160156c-.027344-.1875-.082031-.363281-.148438-.496094-.03125-.066406-.066406-.121093-.101562-.164062-.039063-.039063-.082031-.078125-.144531-.078125zm-6.285157.128906c-.003906 0 .007813 0 .027344.023438.015625.027343.039063.074218.054687.132812.039063.121094.0625.289062.0625.464844v.351562l.113282-.109375h.011718 3.792969c.34375 0 .625.277344.640625.640625v3.546875c0 .34375-.296875.625-.625.625h-1.855468c-.339844 0-.621094-.296875-.621094-.625v-1.546875l-.117188.09375c-.167968.136719-.292968.355469-.292968.605469v1.175781c0 .421875.355468.761719.761718.761719h1.132813v1.757813c0 .203124-.148438.351562-.351563.351562h-2.265625c-.207031 0-.355469-.148438-.355469-.351562v-1.699219c0-.132813-.050781-.257813-.144531-.351563-.089843-.09375-.21875-.144531-.347656-.144531h-5.648437c-.132813 0-.257813.050781-.351563.144531s-.144531.21875-.144531.351563v1.699219c0 .203124-.148438.351562-.351563.351562h-2.265625c-.207031 0-.355468-.148438-.355468-.351562v-5.027344l-1.128907.890625c-.019531.011719-.03125.015625-.050781-.003907l-.28125-.339843h-.003906c-.011719-.011719-.011719-.019531-.011719-.019531 0-.003907 0-.007813.007813-.019532l1.503906-2.3125v-.003906c.0625-.136719.175781-.214844.320312-.214844h7.996094c.210938 0 .375.199219.339844.414063l-.167969.976562c-.050781.296875.179687.578125.480469.578125h1.613281c.242187 0 .429687-.171875.476563-.394531l.023437-.117187-.109375.035156c-.101562.027344-.203125.039062-.308594.039062h-1.144531c-.34375 0-.5625-.269531-.511719-.601562l.199219-1.15625c.035156-.179688.085937-.34375.140625-.460938.027344-.058594.054688-.105468.078125-.132812s.039063-.027344.035156-.027344zm6.285157.011719c-.003907 0 .015624.003906.039062.03125.023438.027343.054688.074219.082031.132812.058594.113281.109375.28125.136719.457031l.199219 1.160157c.050781.332031-.167969.585937-.53125.613281h-1.128907v-.695312h.296876c.421874 0 .765624-.355469.765624-.761719v-.3125c0-.183594.023438-.355469.058594-.46875.019532-.058594.039063-.105469.058594-.128907.019531-.027343.027344-.027343.023438-.027343zm0 0" fill="#2453ff"/></svg>