<svg height="18" viewBox="0 0 18 18" width="18" xmlns="http://www.w3.org/2000/svg"><path d="m11.132812 4.769531c-.117187 0-.257812.316407-.328124.6875l-.203126 1.167969c-.054687.371094.203126.683594.585938.683594h1.15625c.113281 0 .226562-.011719.328125-.042969-.042969.199219-.199219.34375-.414063.34375h-1.625c-.257812 0-.457031-.242187-.414062-.5l.171875-.984375c.042969-.253906-.15625-.5-.414063-.5h-8.058593c-.171875 0-.316407.101562-.386719.257812l-1.5117188 2.324219c-.0273437.042969-.0273437.085938.015625.128907l.2851558.34375c.035157.039062.097657.042968.140626.011718l1.027343-.8125v4.921875c0 .242188.1875.429688.429688.429688h2.28125c.242187 0 .429687-.1875.429687-.429688v-1.710937c0-.242188.183594-.429688.425782-.429688h5.691406c.242187 0 .425781.1875.425781.429688v1.710937c0 .242188.1875.429688.429687.429688h2.28125c.242188 0 .429688-.1875.429688-.429688v-1.839843h-1.214844c-.367187 0-.695312-.3125-.695312-.699219v-1.183594c0-.226563.113281-.425781.269531-.554687v1.410156c0 .371094.3125.699218.699219.699218h1.867187c.371094 0 .699219-.3125.699219-.699218v-3.578125c-.015625-.402344-.328125-.714844-.710938-.714844h-3.824218c-.027344 0-.042969 0-.058594.015625v-.1875c0-.371094-.097656-.699219-.210938-.699219zm6.332032.015625c-.113282 0-.214844.3125-.214844.699219v.3125c0 .371094-.3125.699219-.699219.699219h-.371093v.84375h1.214843c.398438-.03125.65625-.328125.597657-.699219l-.199219-1.171875c-.058594-.371094-.214844-.683594-.328125-.683594zm0 0" fill="#2453ff"/></svg>