<svg height="18" viewBox="0 0 18 18" width="18" xmlns="http://www.w3.org/2000/svg"><path d="m5.71875 0c-.09375.00390625-.191406.0351562-.304688.125-.277343-.1054688-.542968-.140625-.785156.070312-.371094-.046874-.488281.050782-.582031.164063-.082031 0-.605469-.082031-.847656.273437-.609375-.070312-.800781.351563-.582031.746094-.125.191406-.253907.375.035156.738282-.101563.199218-.039063.417968.203125.679687-.0625.285156.0625.484375.289062.636719-.042969.386718.359375.613281.476563.691406.046875.226562.144531.4375.601562.554688.074219.335937.351563.394531.617188.464843-.878906.503907-1.636719 1.167969-1.632813 2.800781l-.128906.226563c-1.011719.605469-1.921875 2.554687-.5 4.136719.09375.496094.25.851562.390625 1.246094.207031 1.589843 1.5625 2.332031 1.917969 2.421874.523437.390626 1.082031.765626 1.839843 1.023438.710938.726562 1.480469 1 2.257813 1h.03125c.777344 0 1.546875-.273438 2.257813-1 .757812-.257812 1.316406-.632812 1.839843-1.023438.355469-.089843 1.710938-.832031 1.917969-2.421874.140625-.394532.296875-.75.390625-1.246094 1.421875-1.582032.511719-3.53125-.5-4.136719l-.128906-.226563c.003906-1.632812-.753907-2.296874-1.636719-2.800781.269531-.070312.542969-.128906.621094-.464843.457031-.117188.554687-.328126.601562-.554688.117188-.078125.519532-.304688.476563-.691406.226562-.152344.351562-.351563.289062-.636719.242188-.261719.304688-.480469.199219-.679687.292969-.363282.164062-.546876.039062-.738282.21875-.394531.027344-.816406-.582031-.746094-.242187-.355468-.769531-.273437-.847656-.273437-.09375-.113281-.210937-.210937-.582031-.164063-.242188-.210937-.507813-.1757808-.785156-.070312-.328126-.253906-.546876-.0507812-.792969.027344-.398438-.1289065-.488281.046875-.683594.117187-.433594-.089843-.566406.105469-.773437.3125l-.242188-.003906c-.65625.378906-.980469 1.152344-1.09375 1.550781-.117188-.398437-.441406-1.171875-1.09375-1.550781l-.242188.003906c-.207031-.207031-.339843-.402343-.773437-.3125-.195313-.070312-.285156-.2460935-.683594-.117187-.164062-.050782-.3125-.15625025-.488281-.152344" fill="#050606"/><path d="m4.429688 1.671875c1.734374.878906 2.742187 1.59375 3.296874 2.199219-.285156 1.117187-1.761718 1.167968-2.300781 1.136718.113281-.050781.203125-.113281.238281-.203124-.136718-.097657-.617187-.011719-.953124-.195313.128906-.027344.191406-.054687.25-.148437-.316407-.097657-.65625-.183594-.859376-.347657.109376 0 .210938.023438.351563-.074219-.285156-.152343-.585937-.269531-.820313-.5.144532-.003906.304688 0 .347657-.054687-.257813-.160156-.476563-.335937-.660157-.527344.207032.023438.292969.003907.34375-.03125-.195312-.199219-.445312-.367187-.5625-.609375.152344.050782.289063.070313.390626-.003906-.066407-.148438-.351563-.238281-.515626-.582031.160157.015625.328126.035156.363282 0-.074219-.300781-.203125-.46875-.328125-.640625.34375-.007813.863281 0 .839843-.027344l-.210937-.214844c.335937-.089844.679687.015625.929687.089844.109376-.085938-.003906-.195312-.140624-.308594.285156.039063.542968.101563.777343.191406.121094-.109374-.082031-.222656-.183593-.332031.441406.082031.628906.199219.8125.3125.136718-.125.007812-.234375-.082032-.34375.332032.121094.503906.277344.683594.429688.0625-.078125.15625-.140625.042969-.335938.234375.136719.414062.292969.542969.46875.148437-.089843.085937-.214843.089843-.332031.242188.195312.398438.40625.589844.609375.039063-.027344.070313-.121094.101563-.269531.585937.558594 1.410156 1.96875.210937 2.527344-1.019531-.832032-2.238281-1.433594-3.585937-1.882813m9.1875 0c-1.734376.878906-2.742188 1.59375-3.292969 2.199219.28125 1.117187 1.757812 1.167968 2.296875 1.136718-.109375-.050781-.203125-.113281-.234375-.203124.136719-.097657.613281-.011719.949219-.195313-.128907-.027344-.1875-.054687-.246094-.148437.316406-.097657.65625-.183594.855468-.347657-.105468 0-.207031.023438-.351562-.074219.285156-.152343.589844-.269531.824219-.5-.148438-.003906-.304688 0-.351563-.054687.261719-.160156.480469-.335937.660156-.527344-.207031.023438-.292968.003907-.339843-.03125.195312-.199219.441406-.367187.5625-.609375-.152344.050782-.292969.070313-.394531-.003906.066406-.148438.355468-.238281.519531-.582031-.160157.015625-.332031.035156-.367188 0 .074219-.300781.203125-.46875.328125-.640625-.34375-.007813-.863281 0-.839844-.027344l.214844-.214844c-.335937-.089844-.679687.015625-.929687.089844-.113281-.085938 0-.195312.136719-.308594-.285157.039063-.542969.101563-.773438.191406-.125-.109374.082031-.222656.179688-.332031-.441407.082031-.628907.199219-.8125.3125-.132813-.125-.007813-.234375.082031-.34375-.332031.121094-.503907.277344-.683594.429688-.058594-.078125-.152344-.140625-.039063-.335938-.238281.132813-.414062.292969-.546874.46875-.144532-.089843-.085938-.214843-.085938-.332031-.246094.195312-.402344.40625-.589844.609375-.039062-.027344-.074218-.121094-.101562-.269531-.585938.558594-1.414063 1.96875-.214844 2.523437 1.019531-.828125 2.238281-1.429687 3.585938-1.878906" fill="#63c54d"/><path d="m11.121094 13.046875c.007812 1.039063-.917969 1.890625-2.066406 1.894531-1.148438.007813-2.082032-.832031-2.089844-1.875v-.019531c-.003906-1.042969.921875-1.894531 2.070312-1.898437 1.144532-.007813 2.082032.835937 2.085938 1.875zm-3.238282-5.394531c.859376.558594 1.015626 1.816406.347657 2.8125-.671875 1-1.910157 1.359375-2.773438.804687-.859375-.558593-1.015625-1.816406-.347656-2.816406.671875-.996094 1.910156-1.355469 2.773437-.800781m2.324219-.097656c-.863281.554687-1.015625 1.8125-.347656 2.8125.671875.996093 1.910156 1.355468 2.773437.800781.859376-.554688 1.015626-1.816407.34375-2.8125-.667968-1-1.910156-1.359375-2.769531-.800781m-6.574219 1.011718c.929688-.242187.3125 3.789063-.445312 3.457032-.832031-.65625-1.097656-2.589844.445312-3.457032m10.742188-.050781c-.929688-.242187-.3125 3.789063.441406 3.460937.832032-.660156 1.101563-2.589843-.441406-3.460937m-3.117188-3.007813c1.605469-.265624 2.9375.671876 2.886719 2.386719-.054687.65625-3.476562-2.289062-2.886719-2.386719m-4.433593-.050781c-1.605469-.265625-2.9375.671875-2.886719 2.386719.054688.65625 3.476562-2.289062 2.886719-2.386719m2.210937-.398437c-.957031-.023438-1.875.699218-1.878906 1.121094-.003906.507812.757812 1.03125 1.886719 1.046874 1.152343.007813 1.886719-.421874 1.890625-.945312.003906-.597656-1.050782-1.234375-1.898438-1.222656m.074219 10.46875c.835937-.035156 1.953125.265625 1.957031.664062.011719.390625-1.015625 1.265625-2.011718 1.246094-1.035157.046875-2.046876-.832031-2.03125-1.136719-.015626-.445312 1.253906-.792969 2.085937-.773437m-3.089844-2.363282c.59375.707032.863281 1.945313.367188 2.308594-.46875.28125-1.605469.164063-2.417969-.980468-.546875-.960938-.476562-1.941407-.089844-2.226563.570313-.34375 1.457032.121094 2.140625.898437m5.984375-.222656c-.644531.742188-1 2.09375-.53125 2.53125.449219.339844 1.652344.289063 2.539063-.925781.648437-.816406.429687-2.179687.0625-2.542969-.546875-.414062-1.335938.117188-2.070313.9375" fill="#c51850"/></svg>