<svg height="18" viewBox="0 0 18 18" width="18" xmlns="http://www.w3.org/2000/svg"><path d="m5.742188 0c-.09375.00390625-.199219.0507812-.304688.121094-.132812-.0468752-.265625-.0859378-.402344-.0820315-.132812.0078125-.269531.0585937-.394531.1601565-.167969-.019531-.300781-.011719-.394531.023437-.085938.03125-.132813.082032-.179688.132813-.019531 0-.054687-.003907-.109375-.003907-.082031-.003906-.164062 0-.242187.011719-.171875.023438-.363282.097657-.5.269531-.296875-.027343-.515625.058594-.625.222657-.105469.164062-.09375.375.003906.578125-.058594.085937-.121094.175781-.132812.300781-.011719.125.039062.273437.167968.445313-.042968.101562-.054687.214843-.019531.324218.035156.117188.117187.234375.226563.359375-.027344.140625-.011719.269531.039062.375.054688.109375.144531.195313.25.269531-.015625.398438.367188.625.484375.703126.027344.105468.058594.21875.148437.3125.09375.105468.238282.1875.453126.246093.046874.15625.136718.265625.25.332031.082031.046876.171874.066407.257812.09375-.394531.234376-.765625.507813-1.042969.910157-.300781.4375-.492187 1.019531-.492187 1.828125l-.113282.199218c-.515624.316407-.992187.953126-1.167968 1.71875-.175782.769532-.042969 1.664063.664062 2.460938.09375.492188.246094.847656.382813 1.230469.105469.796875.5 1.386719.914062 1.785156.402344.390625.808594.59375 1.019531.648437.515626.390626 1.074219.761719 1.820313 1.023438.714844.71875 1.5 1 2.28125 1h.03125c.78125 0 1.566406-.28125 2.28125-1 .746094-.261719 1.304687-.632812 1.824219-1.023438.207031-.054687.613281-.257812 1.015625-.648437.414062-.398437.808593-.988281.914062-1.785156.136719-.382813.289063-.738281.382813-1.230469.707031-.796875.839844-1.691406.664062-2.460938-.175781-.765624-.652344-1.402343-1.167968-1.71875l-.113282-.199218c0-.808594-.191406-1.390625-.492187-1.828125-.277344-.402344-.648438-.675781-1.042969-.914063.085938-.023437.175781-.042968.257812-.089844.113282-.066406.203126-.175781.25-.332031.214844-.0625.363282-.140625.453126-.246093.089843-.09375.121093-.207032.148437-.3125.117187-.078126.5-.304688.484375-.703126.105469-.074218.195312-.160156.25-.269531.050781-.105469.066406-.234375.039062-.375.109376-.125.191407-.242187.226563-.359375.035156-.113281.023437-.222656-.019531-.324218.128906-.171876.179687-.320313.167968-.445313-.011718-.125-.074218-.214844-.132812-.300781.097656-.203125.109375-.414063.003906-.578125-.109375-.164063-.328125-.25-.625-.222657-.136718-.171874-.328125-.246093-.5-.273437-.082031-.007813-.160156-.011719-.242187-.007813-.054688 0-.09375.003907-.109375.003907-.046875-.050781-.097656-.101563-.179688-.136719-.09375-.035156-.226562-.039062-.394531-.019531-.125-.105469-.261719-.152344-.394531-.1601565-.136719-.0039063-.265625.0351563-.398438.0820315-.164062-.1132815-.316406-.136719-.449218-.105469-.132813.03125-.246094.097656-.355469.132813-.1875-.054688-.328125-.0507818-.429688-.007813-.105469.039063-.175781.09375-.253906.125-.210937-.035156-.367187-.011719-.488281.054687-.117188.066407-.199219.164063-.289063.257813l-.234375-.003906-.015625.007812c-.613281.355469-.90625 1.003907-1.050781 1.429688-.144531-.425781-.4375-1.074219-1.050781-1.429688l-.015625-.007812-.234375.003906c-.089844-.09375-.171875-.191406-.289063-.257813-.121094-.066406-.277344-.089843-.488281-.054687-.078125-.03125-.148437-.085937-.253906-.125-.101563-.039063-.242188-.046875-.429688.007813-.144531-.046876-.296875-.15234425-.496093-.148438m.003906.140625c.144531-.003906.285156.089844.460937.144531l.023438.007813.019531-.007813c.1875-.058594.285156-.046875.367188-.015625.085937.03125.15625.09375.265624.132813l.019532.007812.019531-.003906c.203125-.042969.320313-.019531.417969.035156.097656.054688.179687.152344.285156.257813l.023438.019531.242187-.003906c.613281.363281.929687 1.105468 1.042969 1.484375l.066406.234375.066406-.234375c.109375-.378907.429688-1.121094 1.042969-1.484375l.242187.003906.023438-.019531c.105469-.105469.1875-.199219.285156-.257813.097656-.054687.214844-.078125.417969-.035156l.019531.003906.019532-.007812c.109374-.039063.179687-.101563.261718-.132813.085938-.03125.183594-.042969.371094.015625l.019531.007813.019531-.007813c.136719-.039062.25-.109375.359376-.132812.113281-.027344.21875-.019532.367187.097656l.03125.023438.035156-.015626c.132813-.050781.261719-.082031.375-.078124.117188.003906.226563.042968.332031.136718l.023438.023438.03125-.003906c.179688-.023438.289062-.011719.359375.015624.074219.027344.113281.066407.15625.121094l.019531.027344.035156-.003906c.03125 0 .074219-.003906.132813-.007813.074219 0 .148437 0 .21875.011719.160156.023438.328125.082031.433594.238281l.023437.035157.042969-.003907c.285156-.035156.449219.046875.527344.164063.078125.117187.078125.292968-.019531.472656l-.019532.035156.023438.035156c.058594.09375.113281.175782.121094.269532.011718.09375-.019532.207031-.15625.378906l-.027344.035156.019531.039063c.042969.085937.050781.167969.023437.265625-.027343.097656-.097656.207031-.214843.335937l-.023438.023438.007813.035156c.027344.128906.015625.230469-.027344.320313-.046875.089843-.121094.167968-.226562.242187l-.035157.019531.003907.042969c.035156.332031-.316407.535156-.445313.621094l-.023437.015625-.007813.027344c-.019531.105468-.050781.199218-.125.28125-.074219.085937-.199219.160156-.417969.214843l-.042968.011719-.007813.042969c-.035156.148437-.105469.226562-.203125.28125-.097656.058593-.226562.089843-.359375.125l-.164063.042969.144532.085937c.433594.25.832031.53125 1.121094.949219.285156.417968.46875.972656.464843 1.769531v.019531l.148438.257813.015625.007812c.480468.289063.953125.910157 1.121094 1.644531.171874.738282.050781 1.585938-.640626 2.355469l-.015624.015625-.003907.015625c-.089843.484375-.242187.832031-.378906 1.226563l-.003906.007812v.007813c-.101563.769531-.480469 1.332031-.878907 1.714843-.398437.386719-.824218.589844-.976562.625l-.011719.003907-.011719.007812c-.519531.390625-1.066406.753907-1.804687 1.011719l-.015625.003906-.011719.011719c-.695312.707031-1.4375.96875-2.191406.96875h-.03125c-.753906 0-1.496094-.261719-2.191406-.96875l-.011719-.011719-.015625-.003906c-.738281-.257812-1.285156-.621094-1.804687-1.011719l-.011719-.007812-.011719-.003907c-.152344-.035156-.582031-.238281-.976562-.625-.398438-.382812-.777344-.945312-.878907-1.714843v-.015625c-.140625-.394532-.292969-.742188-.382812-1.226563l-.003907-.015625-.015624-.015625c-.691407-.769531-.8125-1.617187-.640626-2.355469.167969-.734374.640626-1.355468 1.121094-1.644531l.015625-.007812.148438-.257813v-.019531c-.003907-.796875.179687-1.351563.464843-1.769531.289063-.417969.6875-.699219 1.121094-.949219l.144532-.085937-.164063-.042969c-.132813-.035157-.261719-.066407-.359375-.125-.097656-.054688-.167969-.132813-.203125-.28125l-.007813-.042969-.042968-.011719c-.21875-.054687-.34375-.128906-.417969-.214843-.074219-.082032-.105469-.175782-.128906-.28125l-.003907-.027344-.023437-.015625c-.128906-.085938-.480469-.289063-.445313-.621094l.003907-.039063-.035157-.023437c-.105468-.074219-.179687-.152344-.226562-.242187-.042969-.089844-.054688-.191407-.027344-.316407l.007813-.039062-.023438-.023438c-.117187-.128906-.1875-.238281-.214843-.335937-.027344-.097656-.019532-.179688.023437-.265625l.019531-.039063-.027344-.035156c-.136718-.167969-.167968-.285156-.160156-.378906.011719-.09375.066406-.175782.125-.269532l.023438-.035156-.019532-.035156c-.097656-.179688-.097656-.351562-.019531-.472656.078125-.117188.242188-.199219.527344-.164063l.042969.003907.023437-.035157c.105469-.15625.273438-.214843.433594-.238281.070313-.011719.144531-.011719.21875-.011719.058594.003907.101563.007813.132813.007813l.03125.003906.023437-.027344c.042969-.054687.082031-.09375.15625-.121094.070313-.027343.179687-.039062.359375-.015624l.03125.003906.023438-.023438c.105468-.097656.214843-.132812.332031-.136718.113281-.003907.242187.027343.375.078124l.035156.015626.03125-.023438c.101563-.082031.183594-.109375.261719-.109375zm6.738281.230469-.238281.085937c-.308594.109375-.480469.253907-.640625.394531-.011719-.015624-.03125-.035156-.035157-.046874-.007812-.027344-.011718-.066407.039063-.152344l.128906-.222656-.222656.125c-.191406.109374-.359375.25-.5.417968-.011719-.015625-.035156-.03125-.035156-.050781-.003907-.042969.011719-.101563.011719-.171875l-.003907-.140625-.109375.089844c-.226562.179687-.371094.367187-.53125.546875v-.003906c-.019531-.050782-.035156-.109376-.042968-.164063l-.027344-.125-.089844.085937c-.300781.285157-.65625.78125-.789062 1.285157-.066407.253906-.078126.511719.011718.746093.085938.238282.273438.441407.585938.585938l.039062.019531.03125-.027343c.761719-.617188 1.632813-1.105469 2.589844-1.5-1.179688.65625-1.945312 1.21875-2.394531 1.714843l-.027344.027344.011719.039063c.144531.582031.609375.886718 1.089844 1.039062.480468.152344.988281.15625 1.261718.140625l.023438-.132813c-.066406-.03125-.09375-.070312-.128906-.109374.015624 0 .015624-.003907.035156-.007813.0625-.007813.144531-.011719.234375-.019531.179687-.011719.394531-.035156.574219-.136719l.167968-.09375-.1875-.035156c-.058594-.015625-.101562-.027344-.128906-.042969 0 0 0 0-.003906 0 .28125-.085938.574218-.167969.769531-.328125l.152344-.125h-.199219c-.066406.003906-.121094.003906-.179688-.007813.238282-.121093.488282-.238281.699219-.441406l.117188-.113281-.167969-.003906c-.070312-.003907-.144531-.003907-.203125-.007813-.003906 0 0 0-.003906 0 .210937-.140625.410156-.289062.566406-.453125l.128906-.140625-.1875.023438c-.121093.015625-.132812-.003906-.175781-.011719.167969-.152344.359375-.304687.464844-.523437l.074218-.152344-.160156.054687c-.070312.023438-.136718.039063-.191406.042969-.019531 0-.03125-.011719-.046875-.011719.035156-.039062.066406-.074219.136719-.128906.101562-.085937.222656-.203125.3125-.386719l.050781-.113281-.121094.011719c-.082031.007812-.160156.015625-.222656.019531-.015625 0-.027344 0-.039063 0 .074219-.234375.175782-.386719.289063-.542969l.078125-.109375-.136719-.003906c-.167969 0-.382812 0-.550781-.003906-.054688 0-.089844-.003907-.132812-.003907l.195312-.195312-.117188-.03125c-.335937-.089844-.667968.003906-.910156.078125-.003906-.003906 0-.011719.007813-.03125.023437-.035156.082031-.089844.148437-.144531l.1875-.152344-.242187.03125c-.265625.035156-.503907.097656-.726563.179688.003906-.015626.015625-.03125.023438-.039063.039062-.046875.117187-.101563.171875-.164063l.136719-.15625-.199219.039063c-.40625.078125-.601563.183594-.773438.289063 0-.003907-.007812-.007813-.007812-.011719-.003907-.011719 0-.027344.007812-.046875.015625-.035156.066407-.089844.117188-.148438zm-6.921875 0 .164062.195312c.046876.058594.097657.113282.117188.152344.007812.019531.007812.03125.007812.042969-.003906.003906-.007812.007812-.011718.011719-.171875-.105469-.367188-.210938-.769532-.289063l-.203124-.035156.136718.152343c.058594.0625.132813.117188.171875.164063.015625.019531.023438.03125.023438.039063-.234375-.085938-.476563-.148438-.722657-.179688l-.242187-.03125.1875.152344c.066406.054687.125.109375.144531.144531.011719.019531.011719.027344.011719.03125-.246094-.074219-.574219-.167969-.914063-.078125l-.117187.03125.195313.195312c-.039063.003907-.078126.003907-.128907.003907-.167969.003906-.382812.003906-.554687.003906l-.132813.003906.078125.109375c.113282.15625.214844.308594.285156.542969-.011718 0-.019531 0-.035156 0-.0625-.003906-.144531-.011719-.226562-.019531l-.121094-.011719.054688.113281c.085937.183594.207031.300782.308593.386719.070313.058594.101563.089844.136719.128906-.015625 0-.023438.011719-.042969.011719-.054687-.003906-.121093-.019531-.195312-.042969l-.15625-.054687.070312.152344c.109375.21875.296875.371093.464844.523437-.042969.007813-.054687.027344-.171875.011719l-.191406-.023438.132812.140625c.15625.164063.351563.3125.5625.453125-.058594.003906-.132812.003906-.207031.007813l-.164063.003906.117188.117187c.207031.203126.457031.316407.695312.4375-.054687.011719-.109374.011719-.179687.007813h-.199219l.15625.125c.191406.160156.484375.242187.765625.328125 0 0 0 0-.003906 0-.027344.015625-.066406.027344-.128906.042969l-.183594.035156.164063.09375c.183593.101563.394531.125.574218.136719.089844.007812.171875.011718.238282.019531.015624.003906.015624.007813.03125.007813-.035157.039062-.0625.078124-.128907.109374l.023438.132813c.273437.015625.78125.011719 1.261719-.140625.480468-.152344.945312-.457031 1.09375-1.039062l.007812-.039063-.023438-.027344c-.453124-.496093-1.21875-1.058593-2.394531-1.714843.957031.394531 1.828125.882812 2.585938 1.5l.035156.027343.039063-.019531c.308593-.144531.496093-.347656.585937-.585938.085937-.234374.074219-.492187.007813-.746093-.132813-.503907-.488282-.996094-.785157-1.285157l-.09375-.085937-.023437.125c-.011719.054687-.027344.113281-.046875.164063v.003906c-.160157-.183594-.304688-.367188-.527344-.546875l-.113281-.089844v.140625c-.003906.070312.011718.128906.007812.171875 0 .019531-.023437.035156-.03125.050781-.140625-.167968-.3125-.308594-.5-.417968l-.226562-.125.128906.222656c.050781.085937.050781.125.039062.152344-.003906.011718-.019531.03125-.03125.046874-.164062-.140624-.335937-.28125-.640624-.394531zm7.195312.320312c-.023437.03125-.046874.058594-.050781.101563-.007812.050781.019531.105469.058594.140625l.035156.03125.039063-.015625c.15625-.0625.339844-.09375.523437-.128907-.023437.035157-.035156.074219-.03125.121094.003907.042969.03125.085938.070313.113282l.03125.023437.03125-.011719c.210937-.0625.476562-.121094.742187-.09375l-.105469.105469c-.011718.011719-.019531.046875-.011718.070313.007812.027343.023437.035156.03125.039062.019531.011719.027344.011719.035156.011719.019531.003906.039062.007812.066406.007812.054688.003907.128906.007813.210938.007813.132812 0 .285156.003906.425781.003906-.101563.144531-.199219.300781-.261719.550781l-.011718.039063.027343.027344c.03125.03125.0625.03125.089844.035156.03125.003906.0625.003906.097656.003906.019531 0 .046875-.003906.070313-.007812-.058594.082031-.117188.171874-.183594.226562-.097656.082031-.191406.136719-.238281.242188l-.023438.050781.046875.03125c.0625.050781.140625.066406.21875.066406.011719-.003906.027344-.007813.039063-.011719-.121094.15625-.28125.292969-.4375.449219l-.058594.058594.070313.046875c.039062.03125.097656.042968.175781.050781-.148438.136719-.296875.273437-.488281.390625l-.070313.042969.054687.0625c.046876.054687.113282.058593.179688.066406h.015625c-.195313.144531-.417969.253906-.644531.375l-.101563.054687.09375.066407c.054688.035156.105469.042969.152344.058593-.183594.085938-.402344.160157-.636719.234376l-.085937.027343.046875.078125c.027344.039063.058594.0625.09375.089844-.113282.03125-.222656.070312-.335938.078125-.089844.007813-.171875.011719-.246094.019531-.070312.007813-.132812.019532-.1875.054688l-.042968.03125.015625.050781c.015625.042969.050781.074219.078125.105469-.273438.003906-.628906-.015625-.992188-.128906-.445312-.140626-.839844-.40625-.984375-.90625.542969-.585938 1.527344-1.28125 3.21875-2.140626l-.054687-.128906c-1.324219.445313-2.527344 1.039063-3.535156 1.851563-.261719-.132813-.414063-.296875-.484376-.488281-.074218-.199219-.066406-.429688-.003906-.664063.109375-.421875.402344-.839844.667969-1.121094.003906.019531.007813.039063.011719.054688.019531.050781.039062.089843.078125.121093l.050781.035157.042969-.042969c.152343-.164062.292969-.320312.457031-.472656.007812.085937.054688.164062.128906.207031l.054688.035156.039062-.054687c.09375-.128906.230469-.246094.386719-.351563 0 .023438-.023437.058594-.015625.078125.027344.070313.074219.113282.097656.144532l.042969.058593.058594-.046875c.132812-.117187.28125-.21875.4375-.304687-.007813.027343-.019531.054687-.011719.085937.007812.046875.035156.09375.074219.128906l.039062.039063.046875-.027344c.136719-.085937.300782-.164062.535156-.234375m-7.464843.003906c.230469.066407.394531.144532.53125.230469l.046875.027344.039062-.035156c.042969-.039063.066406-.085938.078125-.132813.003907-.03125-.007812-.058594-.015625-.085937.160156.085937.304688.1875.441406.304687l.054688.046875.046875-.058593c.023437-.03125.070313-.074219.09375-.144532.007813-.019531-.015625-.054687-.015625-.078125.160156.105469.292969.222657.390625.355469l.039063.050781.054687-.035156c.085937-.054687.121094-.136719.125-.207031.164063.152344.308594.308594.457031.472656l.042969.042969.050781-.035157c.042969-.03125.058594-.070312.078125-.121093.003907-.015625.007813-.035157.015625-.050781.261719.277343.554688.695312.667969 1.117187.0625.234375.066406.464844-.007813.664063-.070312.191406-.222656.355468-.480468.488281-1.011719-.8125-2.214844-1.40625-3.539063-1.851563l-.054687.128906c1.691406.859376 2.675781 1.554688 3.21875 2.140626-.140625.5-.539063.765624-.984375.90625-.359375.113281-.71875.132812-.992188.128906.03125-.03125.0625-.0625.078125-.105469l.019532-.050781-.046876-.03125c-.050781-.035156-.113281-.046875-.1875-.054688-.074218-.007812-.15625-.011718-.242187-.019531-.113281-.007813-.222656-.046875-.335937-.078125.03125-.027344.066406-.050781.089843-.089844l.050781-.078125-.089843-.027343c-.230469-.074219-.453125-.148438-.636719-.234376.050781-.015624.097656-.023437.152344-.058593l.09375-.066407-.101563-.054687c-.226562-.121094-.445312-.230469-.640625-.371094.003906-.003906.007813-.003906.011719-.003906.070313-.003906.132813-.011719.183594-.066406l.054687-.0625-.070312-.042969c-.195313-.117188-.339844-.253906-.488282-.390625.074219-.007813.136719-.019531.175782-.050781l.066406-.046875-.058594-.058594c-.15625-.15625-.316406-.292969-.4375-.449219.015625.003906.027344.007813.042969.011719.074219 0 .152344-.015625.21875-.066406l.042969-.03125-.023438-.050781c-.046875-.105469-.140625-.160157-.238281-.242188-.0625-.054688-.121094-.144531-.183594-.226562.023438.003906.050781.007812.070313.007812.035156 0 .070312 0 .097656-.003906.03125-.003906.058594-.003906.089844-.035156l.027344-.027344-.007813-.039063c-.0625-.25-.164063-.40625-.265625-.550781.144531 0 .296875-.003906.425781-.003906.070313 0 .140625-.003906.210938-.007813.023437 0 .046875-.003906.066406-.007812.011719 0 .019531 0 .035156-.011719.007813-.003906.023438-.011719.035157-.039062.007812-.023438-.003907-.058594-.015626-.070313v-.003906l-.101562-.101563c.261719-.027344.53125.03125.738281.09375l.035157.011719.027343-.023437c.039063-.027344.066407-.070313.070313-.113282.007812-.046875-.007813-.085937-.027344-.121094h-.003906c.183594.035157.371094.070313.527344.128907l.039062.015625.03125-.03125c.042969-.035156.066406-.089844.0625-.140625-.007812-.042969-.03125-.070313-.050781-.097657m3.742187 4.324219h-.070312v.011719c-.464844.003906-.917969.164062-1.257813.390625-.175781.117187-.324219.25-.433593.382813-.105469.132812-.171876.265624-.171876.394531-.003906.289062.207032.5625.546876.765625.34375.203125.820312.335937 1.390624.34375.582032.003906 1.058594-.101563 1.398438-.277344.339844-.179688.546875-.4375.550781-.730469 0-.335937-.28125-.652343-.65625-.890625-.378906-.238281-.855469-.394531-1.296875-.390625zm-.003906.136719h.007812c.402344 0 .863282.148438 1.21875.371094.355469.222656.589844.515625.589844.773437 0 .226563-.160156.441407-.472656.605469s-.769531.265625-1.332031.261719c-.550781-.003907-1.007813-.136719-1.324219-.324219-.3125-.1875-.480469-.425781-.480469-.644531.003907-.078125.050781-.191407.144531-.308594s.234376-.242187.402344-.355469c.335938-.21875.789063-.390625 1.246094-.378906m-2.773438.214844c-.675781.011718-1.277343.25-1.699218.675781-.425782.429687-.675782 1.046875-.648438 1.808594v.003906c.003906.054687.035156.109375.082032.136719.050781.027344.105468.023437.160156.015625.113281-.023438.25-.085938.414062-.179688.320313-.1875.734375-.496093 1.128906-.828125.390626-.332031.765626-.6875 1.007813-.972656.121094-.140625.207031-.261719.25-.363281.023437-.050781.035156-.097657.019531-.152344-.011718-.050781-.066406-.089844-.121094-.097656-.195312-.035157-.394531-.050781-.59375-.046875m5.566407.050781c-.171875-.003906-.34375.011719-.515625.039063v-.007813l-.082032.011719c-.050781.011718-.105468.046875-.117187.101562-.015625.050782-.003906.101563.019531.152344.042969.101562.128906.222656.25.363281.242188.28125.613282.636719 1.007813.96875.394531.335938.804687.644531 1.128906.832031.160156.09375.300781.15625.414063.175782.054687.011718.109374.011718.15625-.011719.050781-.027344.082031-.082031.085937-.140625v-.003906c.023437-.757813-.222656-1.375-.648437-1.804688-.425782-.425781-1.023438-.664062-1.699219-.675781zm-5.5625.089844c.1875-.003907.378906.011719.566406.042969.023437.003906.011719-.003907.011719 0 0 0 0 .023437-.015625.058593-.03125.074219-.113281.191407-.230469.328125-.230469.273438-.601562.625-.988281.953125-.390625.332031-.800781.636719-1.109375.816407-.15625.089843-.289063.148437-.367188.160156-.042968.007812-.066406.003906-.070312 0-.007813 0-.007813-.003906-.011719-.023438-.019531-.726562.210937-1.300781.609375-1.699218.394531-.402344.960938-.625 1.605469-.636719m5.558593.050781c.644532.011719 1.207032.234375 1.605469.632812.394531.402344.628907.976563.605469 1.703126 0 .019531-.003906.019531-.007812.023437-.007813.003906-.03125.007813-.070313 0-.082031-.015625-.210937-.070313-.367187-.160156-.308594-.179688-.71875-.488281-1.109376-.816407-.390624-.328124-.757812-.679687-.992187-.953124-.117187-.136719-.195313-.253907-.226563-.328126-.015624-.035156-.015624-.054687-.015624-.058593h.007812c.191406-.035157.378906-.046875.570312-.042969m-.742187 1.671875c-.324219.003906-.640625.089844-.917969.269531-.890625.578125-1.046875 1.875-.363281 2.890625.679687 1.015625 1.953125 1.390625 2.84375.8125.890625-.574219 1.046875-1.871093.363281-2.886719-.46875-.699218-1.210937-1.09375-1.925781-1.085937zm-4.070313.101563c-.710937-.007813-1.457031.382812-1.925781 1.082031-.679687 1.019531-.527343 2.316406.363281 2.890625.894532.574218 2.164063.203125 2.847657-.8125.683593-1.019532.527343-2.316406-.363281-2.890625-.28125-.179688-.597657-.265625-.921876-.269531zm4.074219.039062c.65625-.007812 1.363281.359375 1.808594 1.023438.644531.964843.492187 2.164062-.324219 2.691406-.820312.527344-2.007812.191406-2.65625-.773438-.644531-.964844-.492187-2.167968.324219-2.695312.253906-.164063.546875-.242188.847656-.246094m-4.074219.097656c.300782.003906.589844.085938.84375.25.820313.527344.972657 1.730469.324219 2.695313-.644531.960937-1.835937 1.300781-2.652343.773437-.816407-.527344-.972657-1.730468-.324219-2.695312.445312-.660156 1.148437-1.027344 1.808593-1.023438m7.242188.96875c-.128906 0-.230469.082032-.296875.199219s-.105469.269531-.128906.449219c-.046875.359375-.023438.824218.046875 1.277344.070312.453124.1875.894531.335937 1.214843.078125.15625.160157.285157.257813.367188.09375.082031.21875.117187.335937.066406l.015625-.007813c.433594-.347656.710938-1.007812.691406-1.695312-.023437-.6875-.355468-1.410156-1.140624-1.851562l-.015626-.007813c-.03125-.007813-.066406-.011719-.101562-.011719zm-10.492188.050782c-.035156 0-.070312.003906-.101562.011718h-.007812l-.007813.007813c-.789063.441406-1.117187 1.160156-1.140625 1.851562-.023438.6875.253906 1.347657.691406 1.691407l.007813.007812.007812.003906c.113281.050782.238281.015625.335938-.066406.097656-.085938.179687-.210938.253906-.371094.152344-.316406.269531-.757812.339844-1.210937.070312-.457031.09375-.917969.046875-1.277344-.023438-.179687-.0625-.335937-.128906-.449219-.066407-.117187-.171876-.199218-.296876-.199218zm10.496094.089843c.015625 0 .035156 0 .054688.003907.738281.421874 1.039062 1.085937 1.058594 1.730468.019531.640625-.246094 1.257813-.628907 1.570313-.0625.027343-.113281.015625-.183593-.042969-.074219-.0625-.148438-.175781-.21875-.324219-.140626-.296875-.257813-.730469-.328126-1.175781-.070312-.441406-.089843-.898438-.046874-1.234375.023437-.171875.0625-.308594.113281-.398437.050781-.089844.105469-.128907.179687-.128907zm-10.5.046875c.074219.003906.128906.039063.179688.132813.050781.089843.089844.226562.113281.394531.042969.339844.023437.792969-.046875 1.238281-.070312.445313-.1875.878907-.328125 1.175781-.070313.148438-.148437.261719-.21875.324219-.070313.058594-.121094.066407-.183594.042969-.386719-.3125-.652343-.929688-.628906-1.570312.019531-.648438.320313-1.3125 1.058594-1.730469.019531-.003907.035156-.007813.054687-.007813m5.277344 2.433594c-1.171875.003906-2.125.875-2.117188 1.953125v.019531c.003907 1.074219.96875 1.9375 2.140626 1.929688 1.171874-.003906 2.128906-.875 2.121093-1.949219v-.023437c-.007812-1.074219-.96875-1.9375-2.144531-1.929688zm0 .136719h.003906c1.101563-.003907 1.996094.800781 2 1.796875v.019531c.007813.992187-.875 1.804687-1.980468 1.8125-1.105469.003906-1.996094-.800781-2.003907-1.792969v-.019531c-.003906-.996094.878907-1.808594 1.980469-1.816406zm4.554688.570312c-.527344.011719-1.105469.480469-1.65625 1.09375l-.019532.019531v.007813c-.320312.378906-.566406.890625-.675781 1.375-.113281.492187-.09375.960937.171875 1.207031v.003906h.003906c.246094.1875.675782.257813 1.15625.132813.480469-.125 1.011719-.449219 1.464844-1.0625.332031-.421875.441406-.980469.421875-1.476563-.019531-.496093-.160156-.933593-.371094-1.136718v-.003906l-.003906-.003907c-.140625-.109375-.316406-.164062-.492187-.15625zm.003906.136719c.144531-.003906.285156.042969.398437.128906.15625.15625.304688.570313.324219 1.042969s-.085938.996094-.390625 1.382813h-.003906v.003906c-.433594.589844-.9375.894531-1.386719 1.007812-.445312.117188-.835938.042969-1.035156-.105468-.195313-.1875-.234375-.605469-.125-1.070313.105468-.472656.351562-.984375.660156-1.339844l.003906-.003906c.542969-.601563 1.113282-1.035156 1.554688-1.046875m-9.191406.148438c-.1875-.007813-.363282.03125-.515626.125h-.003906l-.003906.003906c-.21875.164062-.332031.5-.328125.910156s.125.902344.402344 1.390625v.003906h.003906c.410156.582031.90625.90625 1.363281 1.046875.453125.140625.871094.101563 1.128906-.050781v-.003906h.003907c.140625-.105469.222656-.265625.261719-.457031.035156-.1875.03125-.40625-.011719-.632813-.082031-.453125-.300781-.941406-.605469-1.304687l-.019531-.023438h-.003907c-.492187-.554688-1.078124-.941406-1.605468-.992188v-.011718zm-.007813.140624c.484375.019532 1.097656.410157 1.597656.984376.285157.335937.496094.808593.574219 1.238281.039062.210937.042969.414062.011719.578125-.03125.164062-.101563.289062-.203125.367187-.210938.125-.589844.167969-1.015625.039063-.425781-.132813-.894531-.433594-1.289063-.988282-.261718-.46875-.378906-.9375-.378906-1.320312-.003906-.382812.109375-.671875.269531-.796875.128907-.074219.273438-.109375.433594-.101563m4.714844 3.214844c-.421875-.011718-.945313.070313-1.371094.210938-.210937.070312-.398437.15625-.535156.257812-.140625.101563-.234375.222656-.230469.367188-.003906.113281.070312.226562.183594.355468.113281.128907.273437.265626.464844.394532.386718.257812.90625.46875 1.4375.445312.515624.007813 1.027343-.210937 1.414062-.480468.191406-.132813.355469-.28125.46875-.421876.113281-.140624.1875-.277343.183594-.402343-.003906-.132813-.09375-.242188-.21875-.332031-.125-.089844-.296875-.164063-.492188-.226563-.390625-.121094-.878906-.1875-1.300781-.167969zm.003906.054688v.082031c.40625-.015625.886719.050781 1.257813.164063.1875.058593.347656.132812.453124.207031.109376.078125.160157.152343.160157.21875v.003906c.003906.0625-.046875.179687-.152344.308594-.105469.128906-.257813.269531-.441406.398437-.367188.257813-.859375.464844-1.332031.457032h-.003907c-.492187.019531-.988281-.179688-1.355469-.425782-.183593-.121094-.335937-.253906-.441406-.371094-.101562-.117187-.148437-.222656-.148437-.257812l.003906-.003906v-.003906c-.003906-.078126.050781-.164063.171875-.25.117188-.085938.296875-.167969.5-.238282.40625-.136718.925781-.214844 1.324219-.207031v-.046875l.003906.046875zm0 0" fill="#c51850"/></svg>