<svg height="18" viewBox="0 0 18 18" width="18" xmlns="http://www.w3.org/2000/svg"><path d="m13.925781 7.074219c-.511719-.160157-.777343-.105469-1.3125-.164063-.832031-.089844-1.164062-.417968-1.304687-1.253906-.078125-.46875.015625-1.152344-.183594-1.574219-.386719-.808593-1.285156-1.171875-2.1875-.964843-.761719.175781-1.394531.9375-1.429688 1.71875-.039062.894531.46875 1.65625 1.34375 1.921874.414063.125.855469.1875 1.285157.21875.796875.058594.855469.5 1.070312.863282.136719.230468.269531.457031.269531 1.140625 0 .683593-.132812.910156-.269531 1.140625-.214843.363281-.476562.601562-1.273437.660156-.433594.03125-.875.09375-1.289063.21875-.871093.265625-1.378906 1.027344-1.339843 1.921875.035156.78125.667968 1.542969 1.429687 1.71875.902344.207031 1.800781-.15625 2.183594-.964844.203125-.421875.3125-.902343.390625-1.371093.140625-.835938.472656-1.160157 1.304687-1.253907.535157-.058593 1.09375 0 1.597657-.285156.53125-.390625 1.007812-.972656 1.007812-1.785156 0-.808594-.511719-1.660157-1.292969-1.90625m-8.527343 3.804687c-1.046876 0-1.902344-.855468-1.902344-1.90625 0-1.050781.855468-1.910156 1.902344-1.910156 1.050781 0 1.902343.859375 1.902343 1.910156 0 1.050782-.855469 1.90625-1.902343 1.90625zm-3.503907 3.882813c-1.046875-.003907-1.89843725-.863281-1.894531-1.917969.00390625-1.050781.859375-1.90625 1.910156-1.902344 1.046875.003906 1.898438.863282 1.894532 1.917969-.003907 1.046875-.859376 1.902344-1.910157 1.902344m14.136719 0c-1.050781.003906-1.910156-.847657-1.917969-1.894531-.003906-1.054688.84375-1.917969 1.886719-1.925782 1.050781-.003906 1.914062.847656 1.917969 1.894532.007812 1.054687-.84375 1.917968-1.886719 1.925781"/></svg>