<svg height="18" viewBox="0 0 18 18" width="18" xmlns="http://www.w3.org/2000/svg"><path d="m12.289062 18c-.152343 0-.3125 0-.476562-.003906-1.722656-.035156-2.667969-.3125-3.585938-.582032-.777343-.226562-1.511718-.441406-2.679687-.488281-2.429687-.101562-3.222656.527344-3.230469.53125-.0625.050781-.148437.0625-.21875.03125-.074218-.035156-.121094-.105469-.121094-.1875v-16.402343c0-.058594.027344-.117188.074219-.15625.035157-.03125.898438-.726563 3.140625-.742188h.003906c.152344 0 .308594.00390625.46875.015625 1.195313.0390625 1.992188.222656 2.761719.402344.894531.203125 1.746094.398437 3.195313.386719 2.707031-.019532 4.125-.414063 4.140625-.417969.0625-.019531.128906-.003907.179687.03125.054688.039062.082032.101562.082032.164062l-.042969 16.71875c0 .066407-.035157.132813-.089844.167969-.03125.023438-.796875.53125-3.597656.53125zm-7.253906-1.496094c.167969 0 .34375 0 .53125.007813 1.21875.050781 1.976563.273437 2.777344.507812.890625.261719 1.8125.53125 3.480469.5625 2.464843.050781 3.460937-.28125 3.742187-.40625l.042969-16.328125c-.53125.117188-1.859375.351563-3.984375.371094-1.5.011719-2.410156-.199219-3.289062-.398438-.753907-.171874-1.527344-.351562-2.691407-.390624-.160156-.011719-.304687-.015626-.449219-.015626-1.71875.011719-2.5625.445313-2.804687.59375v15.9375c.40625-.1875 1.222656-.441406 2.644531-.441406m7.308594.597656c-.324219 0-.679688-.011718-1.066406-.039062-2.046875-.144531-4.246094-.898438-4.339844-.929688-.082031-.03125-.140625-.105468-.140625-.195312l.027344-14.660156c0-.066406.035156-.128906.085937-.167969.054688-.035156.125-.046875.1875-.027344.011719.003907 1.339844.429688 3.734375.550781 2.035157.101563 4.097657-.203124 4.117188-.207031.0625-.007812.121093.011719.164062.050781.046875.039063.074219.09375.074219.15625v14.859376c0 .074218-.042969.144531-.109375.183593-.039063.019531-.84375.425781-2.734375.425781zm-5.132812-1.3125c.519531.167969 2.390624.742188 4.09375.863282 2.066406.148437 3.140624-.175782 3.46875-.296875v-14.488281c-.609376.078124-2.296876.261718-3.964844.175781-1.851563-.089844-3.0625-.359375-3.570313-.492188zm4.539062-5.5625c-.304688 0-.617188-.011718-.925781-.035156-1.75-.144531-2.777344-.476562-2.820313-.492187-.234375-.066407-.410156-.269531-.445312-.519531-.023438-.160157.019531-.320313.117187-.453126.101563-.136718.25-.222656.417969-.25.09375-.015624.195312-.003906.300781.03125.007813.003907.910157.300782 2.53125.429688 1.183594.097656 2.660157-.074219 2.773438-.085938.035156-.007812.082031-.015624.132812-.015624.15625 0 .308594.0625.425781.175781.125.113281.191407.269531.195313.4375.007813.167969-.054687.328125-.167969.449219-.113281.117187-.265625.1875-.429687.195312-.117188.015625-1.054688.136719-2.101563.136719zm-3.570312-1.34375c-.007813 0-.015626 0-.023438 0h-.003906c-.058594.011719-.109375.042969-.144532.085938-.03125.046875-.046874.101562-.039062.152344.011719.085937.074219.160156.15625.179687.019531.007813 1.035156.335938 2.734375.476563 1.363281.113281 2.933594-.097656 2.949219-.097656h.023437c.058594 0 .109375-.027344.148438-.066407.042969-.042969.0625-.097656.0625-.15625 0-.058593-.027344-.109375-.066407-.152343-.042968-.039063-.101562-.0625-.15625-.058594-.019531 0-.03125.003906-.046874.007812-.003907 0-.011719.003906-.015626.003906-.0625.007813-1.59375.195313-2.863281.089844-1.675781-.132812-2.589843-.4375-2.628906-.449218-.03125-.007813-.0625-.015626-.085937-.015626m3.570312-.746093c-.304688 0-.617188-.011719-.925781-.035157-1.75-.144531-2.777344-.480468-2.820313-.492187-.234375-.066406-.410156-.269531-.445312-.519531-.023438-.160156.019531-.324219.117187-.457032.101563-.132812.25-.21875.417969-.246093.09375-.015625.195312-.003907.300781.03125.011719.003906.910157.300781 2.53125.429687 1.1875.097656 2.660157-.074218 2.773438-.085937.039062-.007813.085937-.015625.132812-.015625.335938 0 .617188.269531.625.613281.003907.164063-.058593.324219-.171875.445313-.113281.121093-.265625.191406-.429687.195312-.117188.015625-1.050781.136719-2.101563.136719zm-3.570312-1.34375c-.007813 0-.015626 0-.019532 0h-.007812c-.058594.007812-.113282.039062-.144532.085937-.03125.042969-.046874.097656-.039062.152344.011719.085938.074219.15625.15625.179688.019531.007812 1.035156.335937 2.734375.476562 1.363281.113281 2.933594-.097656 2.949219-.097656.007812 0 .015625-.003906.023437-.003906.058594 0 .109375-.023438.148438-.066407.042969-.042969.0625-.097656.0625-.152343-.003907-.121094-.101563-.210938-.222657-.210938-.019531 0-.035156.003906-.046874.007812-.007813 0-.011719 0-.015626.003907-.066406.007812-1.59375.195312-2.867187.089843-1.675781-.136718-2.589844-.4375-2.628906-.449218-.03125-.011719-.058594-.015625-.085938-.015625zm-4.921876.53125c-.0625 0-.125-.011719-.1875-.027344-.160156-.050781-.292968-.164063-.371093-.3125-.078125-.144531-.09375-.316406-.042969-.476563.046875-.160156.160156-.292968.308594-.371093.023437-.011719.671875-.351563 1.574218-.4375.503907-.058594 1.175782-.054688 1.210938-.054688.351562 0 .632812.28125.632812.632813 0 .347656-.277343.632812-.632812.632812-.007812 0-.679688-.007812-1.085938.035156-.652343.070313-1.109374.304688-1.113281.308594-.089843.046875-.1875.070313-.289062.070313zm2.449219-1.269531c-.152343 0-.707031.003906-1.125.054687-.820312.078125-1.421875.390625-1.425781.394531-.054688.023438-.089844.070313-.109375.125-.015625.058594-.011719.117188.015625.164063.027344.054687.074219.09375.128906.109375.054688.015625.113282.011718.164063-.015625.023437-.011719.527343-.273438 1.265625-.351563.425781-.042968 1.101562-.039062 1.128906-.039062.125 0 .222656-.097656.222656-.21875 0-.125-.101562-.222656-.222656-.222656zm6.042969-.011719c-.304688 0-.621094-.007813-.925781-.035157-1.75-.144531-2.777344-.476562-2.820313-.492187-.234375-.0625-.414062-.265625-.445312-.515625-.023438-.160156.019531-.324219.117187-.457031.101563-.132813.25-.222657.417969-.246094h.011719c.101562-.007813.199219.003906.285156.03125.011719.003906.914063.300781 2.53125.429687 1.1875.097657 2.660156-.074218 2.773437-.085937.035157-.007813.085938-.015625.132813-.015625.15625 0 .308594.058594.429687.171875.121094.117187.191407.273437.195313.441406.003906.164063-.058594.324219-.171875.445313s-.265625.191406-.429688.195312c-.117187.015625-1.050781.136719-2.101562.136719zm-3.605469-1.335938c-.054687.007813-.105469.039063-.140625.082031-.03125.042969-.042968.097657-.039062.152344.011718.085938.074218.15625.15625.179688.019531.007812 1.039062.335937 2.738281.476562 1.363281.113282 2.933594-.097656 2.949219-.097656.007812 0 .015625-.003906.023437-.003906.054688 0 .109375-.023438.148438-.066406.039062-.039063.0625-.097657.058593-.152344 0-.058594-.023437-.113282-.066406-.152344-.039062-.039062-.097656-.0625-.152344-.058594-.019531 0-.035156.003906-.050781.007813-.003906 0-.007812 0-.011719.003906-.066406.007813-1.59375.195313-2.867187.089844-1.675781-.136719-2.589844-.4375-2.628906-.449219-.039063-.011719-.078125-.015625-.117188-.011719zm-4.886719.527344c-.0625 0-.125-.011719-.1875-.03125-.160156-.046875-.292968-.160156-.371093-.308594-.078125-.148437-.09375-.320312-.042969-.476562.046875-.160157.160156-.296875.308594-.375.023437-.011719.671875-.351563 1.574218-.4375.261719-.03125.5625-.042969.796876-.050781.234374-.003907.414062 0 .421874 0 .003907 0 .011719 0 .019532.003906.34375.039062.589844.355468.550781.699218-.035156.289063-.265625.519532-.554687.554688h-.023438c-.003906 0-.683594.003906-1.089844.042969-.652344.066406-1.105468.300781-1.109375.304687-.089843.046875-.191406.074219-.292969.074219m2.085938-1.265625c-.207031.003906-.507812.015625-.761719.046875-.824219.078125-1.421875.390625-1.425781.394531-.054688.027344-.089844.070313-.109375.128906-.015625.054688-.011719.113282.015625.160157.027344.058593.074219.09375.128906.109375.054688.019531.113282.011718.164063-.011719.023437-.015625.527343-.277344 1.265625-.351563.398437-.039062 1.015625-.046874 1.113281-.046874.097656-.015626.167969-.09375.183594-.1875.011719-.117188-.070313-.226563-.183594-.242188-.042969 0-.195313-.003906-.390625 0m6.40625-.011719c-.304688 0-.621094-.007812-.925781-.035156-1.75-.144531-2.777344-.476563-2.820313-.492187-.234375-.0625-.414062-.265626-.445312-.515626-.023438-.160156.019531-.324218.117187-.457031.097657-.132812.25-.222656.414063-.246093.105468-.015626.210937-.007813.308594.03125.078124.027343.972656.304687 2.523437.425781 1.1875.097656 2.660156-.070313 2.777344-.085938.035156-.007812.082031-.015625.128906-.015625.160156 0 .3125.0625.429687.175782.121094.113281.191407.269531.195313.4375.003906.167968-.058594.324218-.171875.449218-.109375.117188-.265625.1875-.425781.195313-.121094.015625-1.054688.132812-2.105469.132812zm-3.5625-1.339843c-.011719 0-.019531 0-.03125 0h-.003906c-.058594.007812-.113282.039062-.148438.085937-.03125.042969-.042968.097656-.039062.152344.011718.085937.074218.15625.15625.179687.019531.007813 1.039062.335938 2.738281.476563 1.363281.113281 2.933594-.097657 2.949219-.097657.007812 0 .015625-.003906.023437-.003906.054688 0 .109375-.023437.148438-.066406.039062-.039062.0625-.09375.058593-.152344 0-.058594-.023437-.113281-.066406-.152344-.039062-.039062-.097656-.0625-.152344-.058593-.019531 0-.035156.003906-.050781.007812-.003906 0-.007812 0-.011719.003907-.066406.007812-1.59375.195312-2.867187.089843-1.675781-.132812-2.589844-.4375-2.628906-.449219-.003907 0-.011719-.003906-.015625-.007812-.019532-.003906-.039063-.007812-.058594-.007812zm-4.929688.53125c-.0625 0-.128906-.011719-.1875-.03125-.164062-.046876-.296874-.160157-.375-.308594-.078124-.148438-.09375-.320313-.042968-.476563.050781-.160156.164062-.296875.3125-.375.023437-.011719.671875-.351562 1.570312-.433593.507813-.058594 1.183594-.0625 1.210938-.0625h.003906c.347656 0 .632812.28125.632812.632812 0 .347656-.285156.632812-.632812.632812-.007812 0-.683594.003907-1.089844.042969-.652344.066407-1.105468.300781-1.109375.304688-.089843.050781-.191406.074219-.292969.074219zm2.492188-1.277344c-.027344 0-.691406.007812-1.171875.0625-.820313.078125-1.417969.386718-1.425781.390625-.050782.027343-.089844.074219-.105469.128906-.015625.058594-.011719.113281.015625.164063.027344.054687.070312.089843.128906.109374.054688.015626.113282.011719.164063-.015624.019531-.011719.527343-.273438 1.261719-.351563.429687-.039063 1.101562-.042969 1.128906-.042969.125 0 .222656-.101562.222656-.222656s-.097656-.21875-.21875-.21875zm0 0"/></svg>