<svg height="18" viewBox="0 0 18 18" width="18" xmlns="http://www.w3.org/2000/svg"><path d="m12.699219.929688c-1.578125-.773438-3.347657-1.03125-5.074219-.746094-1.722656.289062-3.324219 1.109375-4.589844 2.359375-1.648437 1.644531 12.582032-.179688 9.664063-1.613281zm0 0" fill="#fcc397"/><path d="m15.71875 3.421875s-.679688 1-2.84375 1.285156c-4.332031.585938-11.765625.621094-11.753906.585938.460937-1.035157 1.113281-1.96875 1.914062-2.75.941406.304687 1.941406.371093 2.914063.191406 1.59375-.3125 3.003906-1.253906 4.578125-1.640625.710937-.167969 1.445312-.226562 2.171875-.164062 1.175781.585937 2.207031 1.4375 3.023437 2.492187zm0 0" fill="#fc9f95"/><path d="m17.523438 7.601562c0 .035157-9.765626.988282-14.527344.710938-.929688-.023438-1.8125-.425781-2.457032-1.117188.128907-.652343.328126-1.285156.597657-1.890624 1.390625-.792969 2.957031-1.210938 4.550781-1.210938 1.964844 0 3.894531.699219 5.867188.648438 1.476562-.054688 2.914062-.507813 4.164062-1.320313.945312 1.207031 1.566406 2.648437 1.804688 4.179687zm0 0" fill="#f77c88"/><path d="m17.632812 9v.148438c-2.035156.472656-4.121093.695312-6.210937.664062-3.699219-.101562-7.390625-.398438-11.058594-.886719.007813-.582031.066407-1.160156.175781-1.730469 1.191407.761719 2.589844 1.101563 3.980469.957032 1.089844-.167969 2.144531-.5 3.136719-.980469.988281-.480469 2.019531-.875 3.074219-1.175781 1.183593-.285156 2.410156-.289063 3.59375-.011719 1.183593.277344 2.289062.832031 3.234375 1.617187.0625.460938.085937.929688.074218 1.398438zm0 0" fill="#f25192"/><path d="m7.835938 11.902344c-2.585938.523437-7.035157-.066406-7.046876-.113282-.285156-.902343-.429687-1.84375-.425781-2.789062v-.074219c.402344-.328125.839844-.609375 1.300781-.835937 1.117188-.554688 2.363282-.785156 3.597657-.664063 1.210937.179688 2.386719.546875 3.484375 1.09375.925781.441407 1.875.835938 2.84375 1.175781.148437.039063-.898438 1.65625-3.753906 2.207032zm0 0" fill="#d34ca3"/><path d="m17.316406 11.382812c-.179687.316407-1.898437 1.382813-4.230468 1.566407-3.089844.238281-6.734376-.726563-5.523438-1.214844 1.902344-.773437 3.554688-2.164063 5.523438-2.746094 1.496093-.429687 3.089843-.371093 4.550781.160157-.011719.753906-.121094 1.503906-.320313 2.234374" fill="#9a50a5"/><path d="m16.484375 13.453125c-1.492187 2.675781-12.304687 3.347656-13.886719 1.546875-.808594-.929688-1.425781-2.023438-1.808594-3.210938 1.324219-.792968 2.863282-1.109374 4.378907-.90625 1.9375.269532 3.664062 1.386719 5.574219 1.824219 1.546874.359375 3.164062.261719 4.652343-.28125.683594-.253906 1.328125-.59375 1.925781-1.011719-.195312.710938-.476562 1.394532-.835937 2.039063zm0 0" fill="#59569e"/><path d="m16.492188 13.429688c-.675782 1.226562-1.621094 2.265624-2.761719 3.039062s-2.441407 1.253906-3.796875 1.410156c-1.359375.152344-2.730469-.03125-4.003906-.53125-1.273438-.5-2.414063-1.308594-3.332032-2.351562.261719.105468.570313.191406.824219.277344 1.511719.421874 3.113281.410156 4.613281-.042969.960938-.292969 1.859375-.757813 2.800782-1.105469 1.8125-.675781 3.761718-.910156 5.6875-.695312zm0 0" fill="#39477f"/></svg>