<svg height="18" viewBox="0 0 18 18" width="18" xmlns="http://www.w3.org/2000/svg"><path d="m7.566406.410156c-1.25.210938-2.964844.96875-4.132812 2.035156 2.503906.707032 4.570312-.902343 6.933594-1.535156.992187-.246094.648437-.160156 1-.167968-1.769532-.554688-2.550782-.542969-3.800782-.332032m2.902344.902344c-2.953125.824219-4.601562 2.277344-7.46875 1.464844-.597656.601562-1.066406 1.300781-1.464844 2.03125 1.097656-.53125 1.777344-.75 3.5-.898438 1.722656-.144531 4.46875.640625 6.398438.632813 1.367187-.066407 2.667968-.464844 3.832031-1.164063-.765625-.933594-1.664063-1.703125-2.730469-2.234375-.707031-.089843-.75-.144531-2.066406.167969m5.066406 2.398438c-1.234375.765624-2.632812 1.199218-4.066406 1.234374-2.035156.066407-3.96875-.632812-5.902344-.632812h-.566406c-1.332031.097656-2.632812.5-3.800781 1.164062-.234375.5-.398438 1.066407-.5 1.601563.390625.257813.820312.460937 1.269531.597656.746094-.25 1.386719-.402343 2.132812-.464843.742188-.0625 1.542969.101562 2.199219.234374 1.609375-.691406 4.070313-1.871093 6.132813-1.867187 1.128906.027344 3.347656.4375 4.601562 1.464844-.269531-1.199219-.765625-2.363281-1.5-3.332031zm-3.566406 2.300781c-1.636719.183593-2.953125.664062-5 1.632812 1.5.464844 2.984375 1.289063 4.398438 1.765625 1.199218-.589844 2.636718-.933594 3.898437-.898437.703125.03125 1.367187.132812 2.035156.367187 0-.402344 0-.800781-.066406-1.167968-1.550781-1.277344-3.652344-1.863282-5.265625-1.699219zm-11.367188 1.53125c-.035156.300781-.066406.632812-.101562.933593.289062-.195312.601562-.382812.898438-.53125-.3125-.132812-.535157-.285156-.796876-.402343m3.464844.066406c-1.785156.085937-2.546875.585937-3.597656 1.433594 0 .835937.132812 1.632812.367188 2.433593.929687-.53125 1.878906-.8125 3.066406-.867187 1.183594-.050781 2.578125.355469 3.730468.800781 1.117188-.453125 2.21875-1.195312 3.234376-1.730468-2.804688-1.300782-5.011719-2.152344-6.800782-2.070313zm7.402344 2.234375c-1.101562.535156-2.132812 1.234375-3.269531 1.800781 1.433593.578125 2.722656 1.066407 4.203125 1.066407 1.761718-.117188 3.207031-.394532 4.597656-1.433594.199219-.632813.269531-1.300782.300781-1.964844-2.035156-.800781-4.164062-.375-5.832031.53125m-7.257812 1.1875c-.09375 0-.183594.003906-.277344.011719-1.042969.054687-2.179688.417969-2.964844.867187.367188 1.066406.898438 2.066406 1.632812 2.902344 3.785157 1.210938 5.179688.179688 8.066407-.867188 1.726562-.652343 4.03125-.859374 5.601562-.734374.199219-.398438.363281-.832032.496094-1.265626-.429687.265626-.898437.5-1.398437.664063-2.648438.769531-4.457032.5625-6.765626-.367187-1.449218-.535157-2.859374-1.210938-4.390624-1.210938zm5.222656 3.847656c-1.589844.664063-4.085938 1.027344-6.066406.632813.734374.667969 1.566406 1.265625 2.535156 1.632812 1.230468.5 2.566406.667969 3.898437.535157 1.332031-.167969 2.601563-.632813 3.699219-1.367188 1.035156-.699219 1.867188-1.632812 2.5-2.699219-3.183594-.28125-4.691406.480469-6.566406 1.265625"/></svg>