<svg height="18" viewBox="0 0 18 18" width="18" xmlns="http://www.w3.org/2000/svg"><path d="m-1.8-1.8h21.6v21.6h-21.6z" fill="#292929"/><path d="m5.75 5.75h116.5v116.5h-116.5zm0 0" stroke="#fff" stroke-width="4.853" transform="scale(.140625)"/><g fill="#fff"><path d="m10.558594 13.371094h-2.667969v2.667968h2.667969v-.535156h-2.132813v-.53125h1.042969v-.535156h-1.042969v-.53125h2.132813zm3.175781 0h-2.644531v2.667968h2.644531v-.535156h-2.132813v-1.597656h2.132813zm3.113281 0h-2.558594v.535156h1.066407v2.132812h.53125v-2.132812h.960937zm-12.175781 0v2.667968h.53125v-2.132812h1.601563v1.066406h.53125v-1.601562zm0 0"/><path d="m6.804688 14.4375h-1.601563v.535156h1.066406v.53125h.535157zm.53125 1.066406h-.53125v.535156h.53125zm0 0"/></g></svg>