<svg height="18" viewBox="0 0 18 18" width="18" xmlns="http://www.w3.org/2000/svg"><path d="m16.367188 13.765625c-.335938-.070313-.703126-.125-1.054688-.125-.617188 0-1.179688.113281-1.601562.28125-.042969.027344-.085938.070313-.085938.125 0 .015625 0 .042969.015625.058594.042969.140625-.027344.292969-.4375.378906-.601563.125-.96875.746094-1.195313.957031-.25.238282-.96875.394532-.855468.238282.082031-.113282.40625-.464844.605468-.84375.179688-.335938.335938-.4375.546876-.757813.070312-.101563.308593-.421875.378906-.691406.085937-.253907.058594-.574219.085937-.714844.042969-.199219.222657-.605469.238281-.84375.015626-.128906-.546874.195313-.816406.195313-.265625 0-.519531-.15625-.757812-.167969-.296875-.015625-.480469.222656-.746094.183593-.15625-.03125-.28125-.15625-.546875-.171874-.382813-.011719-.84375.210937-1.71875.183593-.855469-.027343-1.644531-1.082031-1.757813-1.25-.125-.199219-.28125-.199219-.449218-.042969-.167969.15625-.378906.027344-.433594-.070312-.113281-.195312-.410156-.773438-.875-.886719-.644531-.167969-.96875.351563-.925781.773438s.308593.535156.433593.761719c.128907.222656.199219.363281.421876.460937.171874.070313.226562.171875.183593.3125-.042969.125-.222656.152344-.335937.152344-.238282.015625-.421875-.054688-.535156-.140625-.140626-.097656-.265626-.222656-.394532-.433594-.140625-.242188-.378906-.351562-.644531-.351562-.128906 0-.253906.027343-.351563.082031-.421874.226562-.929687.351562-1.464843.351562h-.605469c1.167969 3.472657 4.460938 5.964844 8.328125 5.964844 3.078125.039063 5.792969-1.546875 7.351563-3.96875" fill="#fff"/><path d="m16.367188 13.765625c-.335938-.082031-.703126-.125-1.054688-.125-.617188 0-1.179688.113281-1.601562.28125-.042969.027344-.085938.070313-.085938.125 0 .015625 0 .042969.015625.058594.042969.140625-.027344.292969-.4375.394531-.601563.125-.96875.742188-1.195313.953125-.25.242187-.96875.394531-.855468.242187.082031-.113281.40625-.464843.605468-.84375.179688-.339843.335938-.4375.546876-.761718.070312-.097656.308593-.421875.378906-.6875.085937-.253906.058594-.578125.085937-.71875.042969-.195313.222657-.605469.238281-.84375.015626-.125-.546874.183594-.816406.183594-.265625 0-.519531-.15625-.757812-.167969-.296875-.015625-.480469.222656-.746094.183593-.15625-.03125-.28125-.15625-.546875-.171874-.382813-.011719-.84375.210937-1.71875.183593-.855469-.027343-1.644531-1.082031-1.757813-1.25-.125-.199219-.28125-.199219-.449218-.042969-.167969.15625-.378906.027344-.433594-.070312-.113281-.195312-.410156-.773438-.875-.886719-.644531-.167969-.96875.351563-.925781.773438s.308593.535156.433593.761719c.128907.222656.199219.363281.421876.460937.171874.070313.226562.171875.183593.3125-.042969.125-.222656.152344-.335937.152344-.238282.015625-.421875-.054688-.535156-.140625-.140626-.097656-.265626-.222656-.394532-.433594-.140625-.242188-.378906-.351562-.644531-.351562-.128906 0-.253906.027343-.351563.082031-.421874.226562-.929687.351562-1.464843.351562h-.617188c-.296875-.84375-.449219-1.785156-.449219-2.769531 0-4.851562 3.921876-8.773438 8.773438-8.773438s8.773438 3.921876 8.773438 8.773438c0 1.757812-.519532 3.390625-1.40625 4.765625m-5.441407-.800781c.042969.042968.128907.199218.027344.378906-.054687.101562-.109375.171875-.210937.253906-.125.097656-.363282.210938-.6875 0-.183594-.113281-.183594-.152344-.4375-.113281-.167969.03125-.238282-.152344-.179688-.292969.070312-.140625.320312-.269531.644531-.070312.140625.082031.367188.265625.5625.097656.085938-.070312.128907-.113281.238281-.238281l.015626-.015625c.027343-.011719.027343 0 .027343 0"/><path d="m8.3125 4.402344c-1.015625.070312-1.125.183594-1.308594.378906-.269531.28125-.621094-.367188-.621094-.367188-.210937-.039062-.460937-.378906-.320312-.703124.140625-.308594.390625-.222657.460938-.125.101562.113281.296874.308593.5625.308593.269531-.011719.578124-.054687 1-.054687.4375 0 .730468.152344.746093.292968.011719.128907-.027343.242188-.519531.269532m1.066406-1.675782c-.011718 0-.027344-.011718-.027344-.027343 0-.011719 0-.011719.015626-.027344.195312-.097656.492187-.183594.828124-.226563.097657-.011718.195313-.011718.296876-.011718h.054687c.5625.011718 1.011719.238281 1.011719.503906-.011719.269531-.464844.464844-1.027344.453125-.179688 0-.351562-.03125-.503906-.070313-.015625 0-.027344-.015624-.027344-.042968 0-.015625.011719-.027344.027344-.042969.351562-.085937.589844-.210937.574218-.335937-.027343-.171876-.476562-.253907-1.023437-.199219-.085937.015625-.140625.027343-.199219.027343m4.570313 3.9375c-.082031.296876-.210938.664063-.757813.945313-.085937.039063-.113281-.03125-.070312-.085937.210937-.351563.238281-.4375.308594-.578126.085937-.195312.125-.492187-.042969-1.09375-.324219-1.183593-1.011719-2.773437-1.519531-3.292968-.476563-.492188-1.363282-.632813-2.148438-.433594-.296875.070312-.859375.363281-1.914062.125-1.828126-.40625-2.09375.507812-2.207032.898438-.113281.394531-.351562 1.535156-.351562 1.535156-.085938.464844-.199219 1.265625 2.644531 1.800781 1.320313.25 1.390625.589844 1.445313.84375.101562.433594.269531.6875.464843.8125.183594.128906 0 .226563-.210937.253906-.5625.058594-2.644532-.535156-3.878906-1.238281-1.015626-.617188-1.027344-1.164062-.789063-1.644531-1.519531-.167969-2.671875.140625-2.867187.859375-.367188 1.265625 2.699218 3.375 6.199218 4.429687 3.671875 1.109375 7.453125.335938 7.875-1.96875.199219-1.054687-.6875-1.828125-2.179687-2.167969" fill="#e93442"/></svg>