<svg height="18" viewBox="0 0 18 18" width="18" xmlns="http://www.w3.org/2000/svg"><path d="m10.914062 12.992188c-.015624 0-.015624 0-.015624.015624-.113282.125-.167969.183594-.238282.238282-.199218.15625-.421875-.011719-.5625-.097656-.324218-.183594-.578125-.070313-.648437.070312-.054688.140625.015625.324219.183593.296875.238282-.03125.253907 0 .4375.109375.335938.210938.574219.101562.6875 0 .097657-.082031.15625-.152344.210938-.25.097656-.183594.015625-.339844-.027344-.382812zm-.382812-10.601563h-.054688c-.097656 0-.195312.042969-.296874.054687-.335938.03125-.632813.140626-.828126.242188-.015624 0-.015624-.015625-.015624-.015625l.03125-.015625.167968.03125c.546875-.058594.996094.054688 1.027344.222656.011719.128906-.226562.269532-.578125.351563-.015625 0-.027344.027343-.027344.042969 0 .015624.011719.042968.027344.042968.140625.042969.324219.070313.507813.070313.5625.011719 1.023437-.226563 1.023437-.492188.03125-.253906-.421875-.535156-.984375-.535156m-1.53125-2.136719c-4.851562 0-8.773438 3.921875-8.773438 8.761719 0 .984375.152344 1.953125.460938 2.796875h.605469c.535156 0 1.042969-.125 1.464843-.335938.109376-.058593.222657-.085937.351563-.085937.265625 0 .503906.113281.644531.351563.128906.226562.238282.351562.394532.4375.125.082031.296874.140624.535156.140624.113281 0 .292968-.03125.335937-.15625.058594-.140624-.011719-.238281-.183593-.308593-.238282-.097657-.292969-.238281-.421876-.464844-.125-.226563-.390624-.335937-.433593-.757813-.042969-.421874.28125-.945312.925781-.773437.464844.125.761719.6875.875.882813.054688.101562.265625.226562.433594.070312.167968-.152344.324218-.152344.449218.042969.113282.167969.902344 1.222656 1.757813 1.253906.875.027344 1.335937-.199219 1.71875-.183594.265625.011719.390625.140625.546875.167969.265625.042969.449219-.195312.746094-.183594.238281.015625.492187.167969.757812.167969.269532 0 .832032-.320313.816406-.179687-.015624.238281-.195312.644531-.238281.84375-.027343.125 0 .449218-.085937.714843-.070313.269531-.308594.589844-.378906.691407-.210938.320312-.367188.421874-.546876.757812-.199218.378906-.523437.730469-.605468.84375-.113282.140625.605468 0 .855468-.238281.210938-.199219.59375-.816407 1.195313-.957031.410156-.085938.480469-.238282.4375-.394532-.015625-.011718-.015625-.042968-.015625-.054687 0-.058594.03125-.097657.085938-.128907.421874-.167968.984374-.28125 1.601562-.28125.367188 0 .71875.042969 1.054688.128907.886718-1.378907 1.40625-3.011719 1.40625-4.769531 0-4.863282-3.921876-8.800782-8.773438-8.800782m7.144531 8.605469c-.421875 2.304687-4.207031 3.078125-7.875 1.96875-3.515625-1.054687-6.582031-3.164063-6.230469-4.402344.210938-.714843 1.351563-1.027343 2.867188-.855469-.222656.460938-.210938 1.023438.789062 1.644532 1.238282.703125 3.320313 1.292968 3.882813 1.238281.210937-.015625.390625-.128906.210937-.253906-.183593-.128907-.351562-.378907-.464843-.816407-.058594-.238281-.128907-.589843-1.449219-.84375-2.839844-.546874-2.726562-1.351562-2.644531-1.800781 0 0 .253906-1.136719.351562-1.53125.097657-.394531.378907-1.308593 2.207031-.902343 1.054688.242187 1.632813-.054688 1.914063-.125.789063-.195313 1.671875-.054688 2.152344.4375.503906.519531 1.195312 2.09375 1.519531 3.289062.167969.605469.125.886719.039062 1.097656-.054687.140625-.097656.222656-.308593.574219-.042969.058594 0 .128906.070312.085937.550781-.28125.675781-.660156.761719-.941406 1.503906.308594 2.390625 1.082032 2.207031 2.136719m-8.042969-4.992187c-.421874 0-.734374.054687-1 .054687-.265624 0-.476562-.179687-.5625-.308594-.085937-.097656-.335937-.195312-.464843.128907-.140625.320312.113281.660156.324219.703124 0 0 .351562.660157.617187.363282.183594-.195313.296875-.308594 1.308594-.378906.480469-.042969.535156-.140626.519531-.265626-.027344-.140624-.320312-.296874-.742188-.296874" fill="#e93442"/></svg>