<svg height="18" viewBox="0 0 18 18" width="18" xmlns="http://www.w3.org/2000/svg"><path d="m12.472656 12.390625c-1.265625 2.585937-3.484375 4.328125-6.414062 4.902344-.449219.109375-.910156.164062-1.375.160156-1.6875 0-3.234375-.703125-3.984375-1.855469-1.007813-1.535156-1.351563-4.789062 1.972656-7.195312.066406.367187.207031.871094.296875 1.171875-.652344.484375-1.1875 1.109375-1.5625 1.832031-.617188 1.214844-.550781 2.425781.183594 3.550781.503906.753907 1.308594 1.214844 2.335937 1.355469 1.289063.164062 2.59375-.082031 3.734375-.703125 1.789063-.9375 2.980469-2.0625 3.757813-3.597656-.21875-.226563-.351563-.527344-.367188-.84375-.023437-.703125.527344-1.296875 1.234375-1.324219h.050782c.683593-.003906 1.253906.53125 1.289062 1.214844.039062.6875-.46875 1.28125-1.148438 1.351562zm4.03125-2.839844c1.71875 1.945313 1.761719 4.234375 1.097656 5.566407-.617187 1.210937-2.25 2.425781-4.441406 2.425781-1.023437-.019531-2.03125-.261719-2.953125-.707031.320313-.230469.777344-.597657 1.03125-.828126.710938.308594 1.472657.472657 2.25.480469 1.417969 0 2.496094-.664062 3.136719-1.875.410156-.800781.4375-1.742187.046875-2.703125-.480469-1.210937-1.328125-2.238281-2.429687-2.933594-1.441407-.972656-3.144532-1.492187-4.886719-1.488281h-.410157c-.195312.453125-.632812.753907-1.125.777344h-.042968c-.695313-.007813-1.257813-.566406-1.269532-1.261719-.011718-.695312.53125-1.273437 1.226563-1.304687h.046875c.472656.003906.90625.265625 1.125.6875h.367188c2.925781 0 5.492187 1.125 7.230468 3.164062m-11.636718 3.234375c-.023438-.234375.03125-.46875.160156-.667968-1.28125-2.21875-1.96875-5.035157-.914063-7.96875.753907-2.203126 2.65625-3.691407 4.714844-3.691407 2.199219 0 4.492187 1.921875 4.765625 5.632813-.34375-.113282-.84375-.28125-1.144531-.34375-.074219-1.210938-1.097657-4.234375-3.527344-4.191406-.871094.023437-2.152344.4375-2.8125 1.28125-.816406 1.011718-1.289063 2.253906-1.355469 3.550781-.15625 1.78125.261719 3.5625 1.191406 5.085937.050782-.019531.105469-.027344.160157-.023437h.042969c.710937-.011719 1.292968.554687 1.308593 1.261719.011719.707031-.554687 1.292968-1.261719 1.304687h-.046874c-.6875-.003906-1.253907-.546875-1.28125-1.234375zm0 0" fill="#764abc"/></svg>