<svg height="18" viewBox="0 0 18 18" width="18" xmlns="http://www.w3.org/2000/svg"><path d="m7.707031.105469c-.070312 0-.136719.019531-.207031.050781-1.84375.921875-2.546875 2.296875-2.742188 3.484375-.554687.394531-1.011718.800781-1.460937 1.277344-.082031.09375-.085937.160156-.03125.199219.148437.105468.859375.21875 1.328125.257812-.09375 1.175781-.300781 2.3125-.535156 3.429688l.207031-.261719-.070313.3125.703126-.011719c.0625-.125.113281-.242188.132812-.378906.039062.140625.0625.273437.074219.398437l.105469-.078125.050781.101563.164062.066406c-.070312.15625-.128906.371094-.15625.675781l-.324219.386719c-.152343.007813-.304687.070313-.472656.367187-.015625.03125.011719.121094.023438.144532.058594.070312.113281.136718.105468.183594-.042968.4375-.179687.941406-.277343 1.414062-.183594.199219-.375.394531-.445313.691406v.761719c-.015625.113281.035156.148437.113282.207031.367187.269532.855468.546875 1.132812.601563.125.003906.546875-.273438.976562-.539063l.332032.003906c.195312.234376.4375.390626.703125.402344.015625.160156.027343.3125.039062.335938h.003907c-.054688.023437-.105469.0625-.121094.125-.011719.066406.0625.121094.121094.152344-.164063.066406-.328126.175781-.464844.3125-.175782.175781-.308594.402343-.332032.644531-.019531.191406.0625.40625.175782.550781.269531.347656.75.46875 1.273437.445312.488281-.019531 1.015625-.167968 1.449219-.382812.113281.0625.34375.023438.65625-.066406-.117188.148437-.253906.371094-.285156.78125-.03125.359375.210937.625.40625.730468.125.042969.109375-.050781.003906-.175781-.125-.144531-.1875-.273437-.191406-.394531-.003906-.253906.289062-.453125.796875-.476562.625-.035157 1.570312.59375 2.371093.527343.105469-.007812.207032-.035156.3125-.082031.78125-.292969 1.363282-.746094 1.417969-1.570312.023438-.6875-.496093-1.199219-1.015625-1.714844 0-.007813 0-.019532 0-.03125-.070312-.222656-.214844-.335938-.371094-.425782-.097656-.027343-.148437-.03125-.222656-.023437-.179687.023437-.425781.085937-.527344.101563-.042968-.039063-.082031-.078126-.128906-.097657.367188-.546875.621094-1.128906.65625-1.738281.042969-.425781-.09375-1.175781-.398437-1.8125-.15625-.316406-.351563-.605469-.597657-.808594-.105468-.078125-.207031-.144531-.3125-.191406.152344-.140625.261719-.300781.445313-.625-.019531.285156-.050781.542969-.113281.785156.082031-.058594.179687-.117187.242187-.214844-.003906.09375.011719.15625.039063.207032.28125-.328125.382812-.597656.398437-.804688.027344.347656.023438.660156-.023437.871094.292968-.285156.359375-.542969.550781-1.386719l.039063.980469c.054687-.1875.070312-.292969.105468-.511719.144532-2.078125-.035156-3.421875-.3125-4.273437.3125-.226563.523438-.398438.855469-.746094.027344-.027344.035156-.0625.011719-.089844-.339844-.285156-1.03125-.632812-2.054688-.847656-1.003906-.980469-1.855468-1.890625-4.191406-2.1875-.042969-.011719-.089844-.015625-.136719-.019531zm.035157.109375c.035156 0 .070312 0 .105468.003906 1.234375.136719 2.617188.515625 4.109375 2.152344.722657.207031 1.503907.308594 2.050781.828125-2.429687-.535157-5.324218-.394531-9.261718 1.269531l.003906-.019531-.003906.019531c-.40625.171875-.808594.351562-1.210938.542969.402344-.164063.800782-.324219 1.203125-.484375l-.113281.824218c-.457031-.082031-1.277344-.226562-1.257812-.34375 0-.128906.566406-.664062 1.484374-1.3125.25-1.796874 1.554688-3.007812 2.71875-3.460937.058594-.015625.117188-.019531.171876-.019531m.285156.113281c.960937.289063 1.652344 1.253906 2.132812 1.808594-.515625-.722657-.933594-1.472657-2.132812-1.808594m-.519532.046875c-1.179687.882812-1.261718 1.761719-1.480468 2.550781.308594-.996093.683594-1.890625 1.480468-2.550781m2.722657 1.890625c-1.652344.003906-3.347657.390625-5.105469 1.328125 1.644531-.796875 3.480469-1.464844 6.613281-1.226562-.5-.066407-1-.101563-1.503906-.101563zm1.257812.738281c.300781 0 .609375.007813.921875.027344.738282 1.011719.898438 1.605469.792969 2.414062-.023437-.261718-.042969-.625-.1875-.859374.023437.234374-.003906.4375-.019531.65625.019531-.132813.042968-.371094.050781-.503907.128906.296875.121094.753907.0625 1.390625.222656-1.066406.359375-1.792968-.695313-3.097656.105469.003906.214844.011719.324219.023438.890625 1.398437.84375 3.773437.742188 5.15625-.019531-.351563-.0625-.640626-.027344-1.167969-.117187.742187-.207031 1.546875-.539063 2.027343.023438-.320312-.007812-.777343-.066406-.980468.003906.40625-.214844.816406-.351562.925781-.023438-.109375.003906-.214844.035156-.320313-.109375.171876-.191406.242188-.289062.335938.085937-.328125.109374-.558594.113281-.910156-.148438.347656-.328125.617187-.539063.832031-.175781-.03125-.359375-.054687-.523437-.039063-.171875.015626-.320313.046876-.445313.085938v-.140625c.191406-.105469.375-.222656.554688-.347656.023437-.015625.066406-.074219.082031-.105469l.589844-1.488281-.636719 1.464843c-.015625.042969-.058594.109376-.097656.136719-.5.355469-1.003906.605469-1.691406.789063-.378907.050781-1.289063-.054688-1.546876-.121094-.097656-.09375-.160156-.226562-.226562-.332031-.21875-.300781-.324219-.441407-.523438-.511719-.050781-.015625-.09375-.03125-.136718-.03125-.175782.019531-.316406.132812-.449219.207031-.320313-1.5625-.339844-2.339843-.214844-3.003906.183594-.320313.382813-.5625.585938-.75-.019531.058594-.03125.082031-.046875.121094.039062-.074219.097656-.164063.097656-.214844-.210938.222656-.429688.433594-.617188.738281.0625-.285156.148438-.558594.246094-.871094-.257812.753907-.625 1.460938-.085937 4-.050781.027344-.101563.046876-.15625.050782-.261719.015625-.5-.101563-.789063-.035156-.058594.023437-.203125.09375-.324218.320312l-.171876-.039062c-.023437-.082032-.03125-.164063-.039062-.242188-.035156.097656-.074219.164062-.125.203125-.015625-.230469-.027344-.367187-.082031-.523437-.054688.175781-.109375.394531-.167969.503906l-.59375-.007813c.085938-.195312.066406-.449219.082031-.683593-.054687.160156-.109375.3125-.179687.398437.320312-1.289063.386718-2.636719.554687-3.957031 2.011719-.804688 4.089844-1.523438 6.75-1.523438m1.507813 2.238282c-.0625.394531-.097656.679687-.3125.90625.066406-.757813-.078125-1.105469-.175782-1.335938-.050781.570312-.027343 1.082031-.382812 1.910156-.011719-.003906-.019531-.046875-.023438-.09375-.007812.066406-.015624.136719 0 .199219.25-.425781.351563-1.015625.4375-1.894531.171876.472656.148438.976562.085938 1.433594.214844-.277344.339844-.636719.371094-1.125m-.246094-2.1875c.40625.03125.824219.082031 1.257812.148437-.222656.3125-.558593.546875-.804687.734375-.136719-.402344-.296875-.6875-.453125-.882812m-3.480469 1.171874c-.246093.679688-.628906 1.359376-.519531 2.039063.027344-.175781.003906-.320313.152344-.5625-.027344.589844.019531.71875.070312.984375.097656-.421875.265625-.820312.480469-1.210938-.175781.316407-.355469.636719-.484375 1.066407-.085938-.328125-.039062-.664063-.039062-.957031-.066407.074218-.121094.164062-.152344.289062.023437-.546875.324218-1.097656.492187-1.648438zm0 0c-.261719.402344-.410156.621094-.597656 1.035157-.027344-.027344-.054687-.058594-.085937-.082031.101562-.289063.226562-.515626.34375-.769532-.152344.25-.273438.5-.363282.75-.058594-.050781-.121094-.09375-.183594-.132812.164063-.210938.347657-.410156.546876-.617188-.203126.207032-.390626.402344-.5625.609375-.113282-.0625-.234376-.097656-.367188-.09375.019531-.054687.042969-.105469.066406-.160156-.023437.050781-.050781.101563-.074218.160156-.0625 0-.128907.011719-.195313.027344l.046875-.0625-.050781.0625c-.273438.078125-.585938.300781-.957031.730469.066406-.285156.160156-.507813.253906-.796875-.132813.320312-.214844.578125-.269532.808593-.035156.042969-.070312.085938-.109374.128907.039062-.039063.074218-.078125.105468-.113281-.046875.203124-.074218.386718-.101562.574218.0625-.109375.125-.210937.171875-.339844-.003907.214844.019531.414063.097656.589844.148437-.582031.441406-1.0625.765625-1.515625.070312-.023437.144531-.035156.21875-.039062-.132812.304687-.277344.691406-.300781 1.179687-.324219.046875-.636719.28125-.75.925782l.21875.207031c-.003907-.015625-.003907-.03125-.007813-.042969-.011718-.097656-.011718-.183594-.003906-.265625.011719.066406.035156.132813.074219.210937.097656.25.363281.429688.640625.40625.277344-.023437.714844-.125.691406-.996093l-.003906-.148438.046875.023438c-.089844-.132813-.492188-.363281-.882813-.320313.195313-.433594.414063-.777344.660156-1.097656.070313.035156.136719.074219.203126.125-.109376.3125-.167969.621094-.164063.929688.0625-.285157.167969-.5625.289063-.832032.027343.023438.050781.042969.074218.066406-.019531-.027343-.042968-.050781-.066406-.074218.179688-.390625.394531-.75.582031-1.050782m-1.203125.539063c.042969-.101563.082032-.191406.109375-.273437zm.109375-.273437.042969-.105469-.078125.09375.050781-.054688zm1.277344.984374c.019531-.023437.035156-.054687.058594-.058593-.027344.269531-.046875.601562-.023438.890625.050781-.261719.066407-.6875.289063-1.140625-.0625.441406-.132813.871093-.027344 1.300781.039062.160156.105469.363281.207031.527344.273438-.25.414063-.597656.472657-.863282.042968.078126.035156.226563.050781.335938.230469-.375.371093-.949219.382812-1.710938.070313.203126.128907.433594.175781.664063-.046874.035156-.097656.066406-.144531.097656.046875-.03125.097657-.0625.148438-.09375.054687.273438.097656.550781.125.832031-.339844-.078124-.59375.117188-.855469.496094.050781-.042968.097656-.078125.148438-.121094-.101563.222657-.136719.550782-.082032.710938.042969.089844.113282.160156.207032.199219.070312.03125.148437.046875.222656.039062.308594-.027343.542968-.3125.597656-.714843.003906-.050782.007812-.085938.011719-.125-.058594.03125-.140625.003906-.1875-.046876-.054688-.058593-.070313-.203124-.015625-.253906.019531-.019531.046875-.027344.074218-.027344.199219.117188.320313.371094.277344.695313-.011718.09375-.070312.140625-.109375.246094l.222657-.191407c.019531-.394531-.085938-.636718-.222657-.773437.09375-.316406.144531-.691406.1875-1.085937.039063.015624.082031.042968.125.078124.054688.453126.074219 1.085938-.007812 1.550782.121093-.125.214843-.292969.277343-.511719.007813.039063.015626.050781.023438.074219-.007812-.050782-.007812-.105469-.011719-.160156-.042969.191406-.140625.382812-.238281.453124.023438-.445312.035156-.894531-.015625-1.382812.117187.109375.242187.289062.375.5625-.132813-.3125-.257813-.507812-.382813-.617188-.03125-.285156-.082031-.5625-.148437-.839843.003906.226562 0 .480469-.015625.734375-.195312-.070313-.382812.042968-.566406.164062-.066406-.316406-.148438-.65625-.25-.964844.078125.730469-.066406 1.628907-.320313 1.953126.007813-.203126-.015625-.265626-.070312-.347657-.03125.359375-.324219.820313-.457031.882813-.074219-.109375-.136719-.308594-.175782-.429688-.113281-.34375-.085937-.769531.027344-1.484375-.132812.261719-.222656.582031-.304688.898438-.015624-.15625.015626-.390625.035157-.59375-.039063.042969-.0625.097656-.089844.152343m2.226563-.554687c.03125.089844.058593.230469.082031.402344-.035157-.027344-.074219-.050781-.113281-.070313.011718-.109375.023437-.222656.03125-.332031m-3.675782.058594c.117188 0 .226563.027343.335938.078125-.234375.285156-.441406.605468-.640625 1.03125-.019531-.296875.109375-.683594.277343-1.109375.011719 0 .019532-.003907.027344 0m-.257812.039062c-.328125.445313-.632813.898438-.746094 1.414063-.089844-.109375-.085938-.34375-.105469-.542969-.042969.097656-.082031.203125-.144531.285156.019531-.1875.046875-.339843.082031-.476562.359375-.386719.65625-.597657.914063-.679688m.832031.183594c.03125.023437.058594.046875.089844.070313-.089844.203124-.171875.402343-.246094.609374.035156-.273437.089844-.488281.15625-.679687m2.882813.0625h.015624c.046876 0 .097657.007813.144532.027344-.027344.40625-.082032.800781-.183594 1.082031-.074219-.066406-.160156-.101562-.25-.117188-.019531-.210937-.0625-.511718-.128906-.839843.132812-.082031.265625-.152344.402344-.152344m-3.210938 1.085937c.019531 0 .039062 0 .058594.011719.011718.003907.019531.007813.027344.015625.015624.007813.027343.011719.039062.023438.042969.039062.078125.128906.042969.175781-.035157.050781-.125.054687-.179688.015625-.050781-.042969-.078125-.175781-.03125-.21875.011719-.011719.027344-.019531.042969-.023438m.132812.609376c.019532-.007813.015626.03125.003907.105468-.050781.203125-.226563.4375-.488281.464844-.210938.023438-.40625-.039062-.519532-.15625-.015625-.003906-.027344-.011719-.039062-.023438-.015625-.015624-.023438-.042968-.023438-.066406-.003906-.007812-.007812-.015625-.011718-.027344-.042969-.117187-.003907-.089843.058593-.042968.015625-.011719.035157-.015625.050781-.011719.011719 0 .023438.003906.03125.011719.019532.011718.035157.046875.042969.078125.261719.148437.519531.144531.835938-.257813.03125-.046875.050781-.070312.058593-.074218m2.917969.058593c.003907 0-.003906.023438-.015625.074219-.070312.191406-.265625.445312-.558594.414062-.109374-.011718-.179687-.050781-.226562-.097656-.011719-.007812-.019531-.011718-.03125-.019531-.011719-.015625-.019531-.039063-.027344-.0625-.019531-.050781-.03125-.105469-.027344-.160156.023438-.136719.039063-.066407.066407.015625.007812.015625.015625.027344.023437.039062h.011719c.019531.003906.042969.015625.058594.03125.019531.019532.027343.054688.027343.089844.152344.121094.386719.105469.65625-.269531.023438-.035157.035157-.054688.042969-.054688m-1.960937 1.191407c-.128906 0-.257813.015624-.394532.039062-.03125.007812-.046874.011719-.050781.046875-.003906.097656.066407.203125.101563.28125l-.007813-.019531c-.035156-.09375-.0625-.164063-.0625-.21875 0-.042969.019531-.042969.046875-.046875.203125-.03125.402344-.074219.730469-.007813.011719.007813.023437.015625.023437.035156.003907.09375-.027343.167969-.0625.25.042969-.082031.089844-.171874.101563-.261718.003906-.011719.027344-.039063.039063-.046875-.167969-.039063-.308594-.042969-.464844-.050781zm-2.117188.144531c.070313 0 .140625.035156.195313.070312.164062.121094.359375.371094.558593.675781.050782.089844.109376.183594.171876.246094.152343.144532.363281.289063.425781.445313.050781.132812-.234375.617187-.417969.886719.046875-.140626.023438-.289063-.105469-.4375-.074219-.097657-.183593-.171876-.316406-.226563-.164063-.058594-.367187-.089844-.519531-.09375-.074219-.003906-.152344 0-.226563.007813-.199219-1.121094.058594-1.277344.34375-1.273438.160157.019531.3125.144531.386719.40625.070312.265625.042969.445312.015625.953125.042969-.300781.109375-.632813 0-1-.113281-.324219-.28125-.390625-.433594-.390625-.046875 0-.085937.003906-.128906.011719-.253906.046875-.394531.414062-.1875 1.292969-.078125.003906-.160156.015624-.238281.03125-.0625.011718-.121094.027343-.179688.042968.011719-.878906-.261718-1.230468-.519531-1.210937-.183594.023437-.402344.070312-.441406.558593-.011719.386719.199219.816407.351562 1.035157-.273437-.460938-.320312-.746094-.316406-1.019531 0-.269532.109375-.453126.257813-.515626.273437-.074218.617187-.039062.667968 1.152344-.054687.019532-.113281.039063-.164062.0625.042968-.039062.046875-.121094.027344-.179687-.015626.035156-.054688.054687-.09375.042969-.039063-.011719-.0625-.046876-.058594-.089844.003906-.039063.039062-.066406.078125-.066406-.03125-.03125-.070313-.035157-.101563-.023438-.066406.03125-.066406.148438-.039062.210938.023437.066406.082031.132812.148437.121093-.132812.066407-.242187.148438-.328125.242188-.089844.097656-.152344.207031-.179687.324219-.035157.121093-.035157.222656-.011719.308593-.28125-.183593-.714844-.363281-.742188-.546875-.023437-.164062.113282-.386718.207032-.589844.03125-.050781.03125-.085937.03125-.144531.015625-.542969.226562-.960937.453125-1.070312.109375-.042969.398437-.003907.59375.023437.359375.0625.5-.160156.761719-.261718.023437-.007813.046874-.011719.074218-.011719m3.574219.53125-.007813.136719c-.042968.015624-.078124.035156-.117187.046874l-.191406-.03125c.105469-.046874.210937-.097656.316406-.152343m.527344.050781c.167969 0 .34375.039062.492187.105469.105469.046875.203125.105469.296875.183593.230469.191407.421875.46875.574219.78125.296875.621094.429688 1.367188.390625 1.765626-.035156.59375-.285156 1.160156-.644531 1.699218-.046875.089844-.097656.175782-.144532.261719-.445312.601563-1.011718 1.160156-1.558593 1.671875-.34375.300781-.734375.5625-1.09375.769531-.125.066407-.269531.128907-.386719.1875-.421875.207031-.945312.351563-1.421875.375-.507813.019531-.960937-.097656-1.203125-.414062-.097656-.128907-.175781-.332031-.160156-.492188.023437-.21875.144531-.425781.308594-.59375.148437-.148437.328124-.257812.496093-.3125.128907-.035156.347657-.070312.503907-.082031.292968-.027344.59375-.058594 1.210937-.371094h.003906c.199219-.109375.589844-.4375.910157-.789062.324218-.351563.640624-.757813.828124-1.078125.238282-.417969.433594-.800781.480469-1.238281.015625-.125-.019531-.359376-.117187-.609376-.085938-.226562-.21875-.464843-.40625-.636718-.03125-.03125-.066406-.054688-.101563-.070313-.078125-.035156-.15625-.054687-.230469-.074219l-.152343-.09375c.058593-.21875.117187-.421874.234375-.558593.066406-.078125.148437-.140625.238281-.1875.105469-.050781.21875-.132813.542969-.191407.035156-.003906.074218-.007812.109375-.007812zm-.847657.136719.089844.027343c-.074218.046876-.140625.101563-.195312.167969-.160156.179688-.214844.394531-.25.5625l-.480469-.304687c-.015625-.007813-.023437-.011719-.03125-.011719s-.007813.003906-.015625.011719l-.007812.019531c0-.0625.007812-.125.023437-.183594.308594-.0625.582031-.167969.867187-.289062zm-2.289062.191406.289062.035156c.023438.078125.011719.144531.007813.214844-.121094-.078125-.226563-.164063-.296875-.25m.339844.019531c.382812.039063.722656.058594 1.015625.050782-.015625.109374 0 .199218.003906.292968l-.21875.476563.265625-.507813c.007812-.023437.015625-.011718.035156 0l.804688.496094c.019531.011719.015625.011719.003906.035156l-.140625.273438c-.003906.015625-.003906.015625-.015625.003906l-.636719-.597656c-.027343-.023438-.03125-.027344-.042969-.011719l-.269531.335937c-.011719.007813-.007812.015626-.007812.03125v.089844l.003906-.085937c0-.011719.003906-.019531.011719-.027344l.25-.273437c.023437-.03125.019531-.023438.046875 0l.5625.550781-.554688 1.304687-1.285156-1.332031 1.269531 1.367187-.070312.171876c-.023438.046874-.023438.085937-.023438.132812l.027344 1.933594c-.203125.199218-.457031.386718-.585938.457031-.617187.308594-.914062.339844-1.203124.367187-.160157.003907-.324219.039063-.460938.046876-.085938-.023438-.183594-.070313-.203125-.132813-.023437-.066406.046875-.144531.15625-.167969-.011719 0-.023437.003906-.035156.003906-.066407-.078124-.03125-.554687-.136719-.753906-.007812-.015625-.015625-.035156-.019531-.050781-.011719-.089844.003906-.148437.019531-.203125.003906-.015625-.003906-.03125-.019531-.035156-.023438-.007813-.046875-.011719-.0625-.03125-.007813-.007813-.03125-.019532-.011719-.050782.121094-.183593.214844-.371093.375-.542968l-.066406.007812c-.054688-.058594.039062-.308594.058594-.445312.078124-.023438.152343-.050782.222656-.082032.117187-.050781.21875-.128906.269531-.28125.007813-.03125.011719-.0625.003906-.09375.007813 0 .140625.015626.226563.046876.144531.050781.269531.046874.402344-.015626.214843-.09375.328124-.347656.375-.542968.027343-.234375-.074219-.480469-.351563-.675782.296875.238282.355469.484376.3125.683594-.039063.1875-.152344.414063-.371094.507813-.089843.039062-.195312.054687-.289062.023437-.109375-.03125-.3125-.074218-.328125-.078125-.03125-.039062-.078125-.0625-.125-.054687-.226563.035156-.390625.09375-.496094.117187-.09375.011719-.320312-.011719-.460938.039063-.039062.011718-.074218.042968-.085937.082031-.003906.03125-.007813.058594-.007813.085937-.046874 0-.121093.03125-.195312.054688-.136719.039062-.28125.046875-.421875.023438-.070313-.015626-.160156-.046876-.230469-.089844-.195312-.121094-.308594-.289063-.316406-.523438-.019531-.300781.210938-.601562.363281-.679687.070313.152343.226563.253906.414063.316406.027344.070313.046875.140625.082031.203125l-.101563.015625s-.003906-.042969-.011718-.097656c-.015625-.101563-.015625-.097657-.027344-.105469-.003906 0-.011719 0-.082031.011719-.050781.007812-.082031.011719-.082031.011719-.007813.003906-.011719.011718-.011719.015624 0 0 .007812.046876.015625.097657.003906.050781.011718.09375.011718.09375s-.042968.007812-.09375.015625c-.035156.003906-.066406.007812-.101562.015625-.003906 0-.007812.007812-.007812.015625 0 .003906.003906.039062.011718.082031.007813.050781.011719.074219.011719.078125.003906.003906.003906.003906.007813.007812.003906 0 .007812 0 .101562-.011718.050781-.007813.097656-.015625.097656-.011719 0 0 .007813.039063.011719.089844.007813.046875.015625.089843.015625.09375.003906.011719.007812.015625.019531.015625.003907 0 .039063-.003906.078125-.007813.082032-.011719.082032-.011719.085938-.023437.003906-.003906.003906-.007813-.007813-.101563-.011719-.0625-.015625-.097656-.015625-.097656.003906 0 .042969-.003906.09375-.011719.046875-.007812.089844-.011718.09375-.015625.007813 0 .015625-.007812.015625-.011719-.003906-.054687-.011719-.109374-.023437-.164062-.003906-.003906-.007813-.007812-.015625-.011719-.007813.003907-.015625.003907-.027344.003907-.003906-.019532-.003906-.035157-.003906-.054688.003906-.039062.019531-.070312.039062-.09375.246094.046875.507813.042969.683594.011719.148437-.027344.339844-.09375.515625-.195313-.0625.171875-.039062.367188.066406.519532.105469.152343.28125.242187.464844.242187.3125 0 .566406-.253906.566406-.566406 0-.167969-.074218-.328125-.203125-.4375-.132812-.105469-.304687-.148438-.46875-.117188.03125-.046875.054688-.09375.074219-.144531l.03125-.042969s.132812.0625.246094.125c-.105469-.058593-.238282-.132812-.242188-.132812.148438-.214844.285156-.433594.417969-.65625l.664063.15625-.644532-.183594c.027344-.058594.03125-.144531.015625-.207031l.628907.390625c-.226563-.191407-.53125-.328125-.746094-.546875.003906-.113282.007812-.21875 0-.304688zm-1.320313.28125c-.097656.011719-.109375.140625-.101562.199219.007812.070313.054687.15625.128906.152344.070313-.003907.101563-.101563.097656-.179688-.023437.035157-.066406.042969-.101562.023438-.035157-.019531-.050781-.0625-.039063-.097657.015625-.039062.054688-.058593.09375-.050781-.015625-.019531-.042968-.042969-.078125-.046875m-1.941406.144532c-.039063.109374-.097656.21875-.136719.308593-.042968 0-.121094-.003906-.132812-.003906zm1.890625.214843c.019531-.003906.039062 0 .058594 0 .265625.011719.539062.0625.738281.21875.617187.589844-.351563 1.117188-.828125 1.199219-.46875.078125-1.542969.03125-1.199219-.851562.023438-.066407.066407-.121094.113281-.167969.207032-.207031.4375-.308594.707032-.363281.148437-.019532.269531-.035157.410156-.035157m3.253906.089844c.050782.011719.101563.027344.152344.050781.042969.015625.078125.046875.109375.074219.183594.167969.3125.402344.398437.625.09375.246094.128907.480469.113282.597656-.019532.183594-.0625.355469-.125.523438l-.015625-.03125c-.003907-.011719-.011719-.007813-.019531-.003907l-.976563.355469c-.03125.007813-.03125.011719-.027344.042969l.011719 1.253906c-.046875.054688-.097656.109375-.148438.164063-.09375.105469-.195312.207031-.296874.308593l-.003907-1.902343c-.003906-.039063-.003906-.085938.007813-.117188l.628906-1.519531.070312.070312c.019532.019532.015626.015626.027344-.007812l.195313-.371094c.019531-.035156.015625-.039062-.003907-.050781zm-5.28125.011719c-.039062.089844-.070312.183594-.085937.285156-.011719.085938-.027344.121094.023437.1875.132813.167969.5.308594.78125.460938.003906.015624.007813.03125.015625.046874-.097656.023438-.371093.28125-.414062.679688-.007813.234375.105469.421875.320312.5625.132813.085938.28125.089844.457031.109375.050782 0 .089844-.003906.132813-.015625.003906.195312.011719.484375-.042969.695312-.027344.109376-.238281.421876-.359375.632813.136719-.207031.320313-.414063.390625-.625.027344-.078125.039063-.1875.039063-.300781.003906-.023438.007812-.082032.019531-.109375l.019531.023437c.027344.042969.046875.089844.0625.132813.074219.234375.128907.453125.097657.445312-.027344 0-.050782-.039062-.082032-.070312.027344.058593.066406.117187.09375.125.121094.015625-.1875-.777344-.238281-.949219.042969-.007812.085937-.023438.136719-.042969.039062-.011719.09375-.03125.175781-.023437.015625.074218.058594.136718.125.171875.070313.039062.148437.058593.226563.0625.109374.007812.230468-.015625.34375-.046875-.046876.167968-.125.339844-.105469.5-.136719.171875-.238281.347656-.34375.523437.035156.023438.074219.050781.125.066407.011719.003906.015625.019531.015625.03125-.015625.070312-.019532.140624-.015625.210937.003906.039063.019531.066406.03125.09375.027343.074219.046875.199219.058593.324219-.257812-.019532-.578124-.234375-.644531-.40625h.113281l.261719-.289063-.289062.238281-.484375.011719c-.285156.191407-.785156.527344-.972656.515625-.386719-.078125-.789063-.386718-1.0625-.566406-.085938-.039062-.097657-.074219-.097657-.15625-.003906-.246094-.007812-.492188-.007812-.738281.074219-.257813.257812-.472657.449219-.6875.101562-.472657.285156-1.050781.304687-1.414063.003906-.058594-.027344-.113281-.125-.222656-.042969-.042969-.023437-.105469-.023437-.105469.128906-.308593.277343-.339843.574218-.367187m4.214844.261718c-.007812 0-.019531 0-.03125.007813-.050781.023437-.027344.152344.011719.222656.035156.070313.125.171875.148437.332031.023438.160157-.003906.265626.019532.292969.03125.042969.066406.105469.117187.265625.007813-.09375-.066406-.210937-.097656-.277344-.023438-.039062.007812-.105468-.011719-.269531-.019531-.167969-.1875-.371093-.1875-.460937s.082031-.082032.082031-.082032-.015625-.03125-.050781-.03125m-1.957031.175782c-.085938.003906-.167969.058594-.160157.175781-.007812-.15625.1875-.238281.308594-.097656-.023437-.050781-.089844-.078125-.148437-.078125m-.847657.144531c-.082031.003906-.164062.058594-.15625.179687-.007812-.160156.1875-.238281.308594-.097656-.027344-.054687-.089844-.082031-.152344-.082031m3.800782.257813c-.046875-.003907-.085938.097656-.039063.121093l.570313.285157-.554688-.308594c-.03125-.015625.003906-.078125.035156-.0625l.601563.335937-.597656-.367187c-.003907-.003906-.007813-.003906-.015625-.003906m-2.0625.109374c.050781 0 .097656.03125.117187.078126.015625.046874.003907.101562-.035156.136718l-.34375.304688c-.023437.023437-.054687.03125-.085937.03125-.035157 0-.0625-.015625-.085938-.042969-.023438-.023437-.03125-.054687-.03125-.085937 0-.035157.015625-.0625.039062-.085938l.070313-.0625c.003906.023438.011719.046875.015625.074219 0-.003907 0-.007813 0-.007813l-.003906-.015625-.003906-.003906h-.003907c-.042969.003906-.082031.035156-.09375.074219-.003906.011718-.007812.023437-.007812.035156s.003906.023438.007812.03125c.011719.042969.046875.070312.089844.074219.058594.011719.113281-.03125.121094-.089844.007812-.058594-.03125-.113281-.09375-.121094 0 0-.003907.007813-.007813.019531 0 .003907 0 0-.003906.003907.007812-.011719.011719-.019531.015625-.03125.007813-.023438.011719-.046875.015625-.082031l.226562-.203126c.023438-.019531.050782-.03125.082032-.03125m-.328125.007813c.023437.164063.019531.257813-.007813.328125-.011718-.0625-.027344-.113281-.046875-.148438-.019531-.03125-.046875-.058593-.082031-.070312.046875-.035156.09375-.070312.136719-.109375m.511719.003906h.015624l.015626.023438.015624-.023438h.019532l-.023438.035157.023438.035156h-.015625l-.019531-.023438-.015626.023438h-.019531l.027344-.035156zm-.179688 0c-.03125 0-.058594.011719-.078125.03125-.023437.023438-.035156.058594-.03125.09375.007813.046875.046875.085938.097656.089844.027344.003906.054688-.003906.078125-.023437.03125-.023438.046875-.070313.035156-.109376-.011718-.046874-.054687-.082031-.101562-.082031m-.421875.144531.007813.007813zm.773437.109376h.019532l.027344.070312h-.019532l-.003906-.011719h-.027344l-.003906.011719h-.019531zm.011719.015624-.011719.027344h.019532zm-.183593.035157c.050781 0 .097656.03125.113281.078125.019531.050781.003906.101562-.03125.136718l-.34375.304688c-.023438.023438-.054688.035156-.089844.03125-.03125 0-.0625-.015625-.082031-.039062-.023438-.027344-.035156-.058594-.03125-.089844 0-.035156.015625-.0625.039062-.085938l.34375-.304687c.019532-.019531.050782-.03125.082032-.03125m0 .011719c-.046876 0-.089844.035156-.101563.082031-.015625.046875.007813.097656.046875.121093.042969.023438.097656.015626.132812-.015624.023438-.027344.035157-.0625.027344-.097657-.003906-.03125-.027344-.0625-.058594-.078125-.011718-.007812-.03125-.011718-.046874-.011718m-2.179688.023437c.054688.019531.113281.03125.171875.042969-.023437.023437-.035156.058594-.039063.097656-.003906.042969.007813.09375.027344.15625-.058594-.050781-.109375-.136719-.160156-.296875m1.4375.15625h.019531l.015625.023437.015625-.023437h.019531l-.027343.039063v.03125h-.015625v-.03125zm-.324219.070313c-.007812 0-.015625 0-.019531.003906-.007812.003906-.015625.011718-.019531.019531-.003907.007813-.050781.140625-.054688.144531-.003906.023438.011719.042969.035157.046875.019531.003907.035156-.003906.042968-.019531.003906-.003906.007813-.007812.007813-.015625.035156-.09375.046875-.125.046875-.128906.003906-.003907.003906-.011719 0-.019531-.003906-.019532-.019532-.03125-.039063-.03125m.722657.058593v.003907h-.003907c-.03125 0-.058593.011718-.078125.035156-.019531.023437-.03125.054687-.027344.082031.007813.050781.046876.089844.097657.097656.039062.003907.078125-.015625.101562-.050781.019531-.03125.023438-.074219.003907-.109375-.015626-.035156-.054688-.054687-.09375-.058594m-1.078126.03125c-.015624-.003906-.03125.007813-.039062.019531 0 .003907-.046875.132813-.050781.140626-.003907.015624 0 .03125.011719.042968.007812.007813.015624.011719.027343.011719.007813 0 .015625-.003906.023438-.007813.007812-.003906.011719-.007812.015625-.015624.003906-.007813.050781-.136719.050781-.140626.003906-.015624 0-.03125-.011719-.042968-.007812-.007813-.015625-.011719-.027344-.007813m.882813.117188h.027344c.007812 0 .015625 0 .019531.003906.007812 0 .007812.007813.007812.011719 0 .007812-.003906.011718-.007812.015625.003906 0 .003906.003906.007812.007812.003907 0 .003907.003907.003907.007813 0 .007812-.003907.011718-.007813.015625-.003906.003906-.011718.007812-.019531.007812h-.03125zm.019531.011719v.011718h.007813.007812v-.003906c0-.003906 0-.003906 0-.007812 0 0-.003906 0-.007812 0zm0 .027343v.015625h.007813.007812c.003907-.003906.003907-.003906.003907-.007812s0-.003906-.003907-.007813c0 0-.003906 0-.007812 0zm3.074219.089844c.007813 0 .011719.003906.011719.011719l.011718.027344c-.070312.1875-.167968.371093-.273437.5625l-.476563.171874c-.023437-.234374-.066406-.351562-.117187-.351562-.007813 0-.015625.003906-.023437.007812.066406.035157.105468.183594.097656.355469-.003906.019531.003906.027344.027344.019531l.457031-.140624-.023438.039062c-.09375.164062-.226562.351562-.371093.542969-.007813-.109375-.023438-.214844-.046876-.316407.007813.128907.03125.269532.007813.363282-.082031.105468-.171875.214844-.265625.320312l.019531-1.226562c-.003906-.023438.003907-.023438.023438-.03125l.9375-.355469zm-3.28125.019531c.082031 0 .140625.085938.117187.175782-.015624.058593-.042968.113281-.082031.160156-.070312.082031-.183593.144531-.351562.183594-.164063.042968-.316407.066406-.441407.054687-.171874-.035156-.304687-.132813-.28125-.304687.003907-.054688.035157-.097657.097657-.117188.117187-.046875.320312-.003906.464843-.039062.121094-.03125.246094-.078126.375-.097657.035157-.007812.070313-.011719.101563-.015625m.695313.46875c-.257813 0-.476563.011719-.59375.046875-.015626 0-.019532.007813-.023438.019531-.070312.136719-.089844.246094-.070312.402344 0 .027344 0 .027344.023437.027344.617187-.011719 1.058594-.03125 1.585937-.070312.023438 0 .027344.003906.03125-.019532.011719-.117187 0-.242187-.082031-.386718-.003906-.007813-.011719-.011719-.019531-.011719-.246094 0-.507812-.007813-.75-.007813-.035156 0-.070312 0-.101562 0m.289062.027344c.292969 0 .550781.007812.566406.019531.039063.085938.089844.15625.070313.328125 0 .015625 0 .019532-.015625.019532-.511719.023437-.828125.074218-1.539063.058593-.03125 0-.03125-.003906-.035156-.027343-.023437-.136719.046875-.257813.078125-.335938.0625-.046875.496094-.0625.875-.0625m.542969.46875c-.027344.210938-.042969.601562.019531.800781.015625.058594.027344.113281.015625.175781-.042969.101563-.835937.113282-1.375.089844-.015625 0-.015625.003906-.023437-.007812-.035157-.105469.027343-.617188-.027344-.851563.027344.3125-.039063.828125-.003906.902344.003906.011719.011718.011719.019531.011719.460937.027344.921875.050781 1.4375-.078125.015625-.003907.023437-.015625.023437-.027344.007813-.117187-.050781-.234375-.058594-.324219-.03125-.289062-.011718-.453125-.027343-.691406zm-.863281.199219c-.011719.25-.019532.496093-.019532.746093.027344-.222656.054688-.441406.019532-.746093m.335937.03125c-.019531.242187-.03125.480469.011719.742187.027344-.246094.011718-.492187-.011719-.742187m4.457031.449219c.054688 0 .097656.007812.125.019531.167969.105469.332032.210937.410156.40625.011719.03125 0 .085937-.035156.089843-.023437 0-.050781-.007812-.074218-.019531-.144532-.074219-.183594-.210937-.332032-.347656.109375.167969.183594.230469.195313.453125 0 .011719-.007813.015625-.015625.015625-.171875 0-.351563-.351563-.578125-.398437-.058594-.015626-.136719-.023438-.21875-.027344-.015625 0-.035157 0-.050781 0 .003906-.050782.015624-.058594.035156-.070313.148437-.058593.382812-.117187.539062-.121093zm-.746094.046874h.007813c.0625 0 .128906.019532.195313.058594l-.007813.003906c-.019531.011719-.027344.054688-.027344.082032h-.042969c-.089843 0-.179687.003906-.273437.011718.035156-.042968.070313-.089843.101563-.136718.015624-.015625.03125-.019532.046874-.019532m.132813.148438c.03125 0 .058594.003906.089844.003906.117187.003906.222656.015625.28125.046875h.003906l.007813.003907c.148437.085937.28125.28125.433593.375.074219.03125.109375.011718.101563-.046876-.011719-.113281-.019532-.148437-.0625-.21875.078125.074219.136718.144532.238281.167969.601563.503907 1.03125 1.046875 1.011719 1.640625-.046875.816406-.820313 1.371094-1.539063 1.542969-.890625.144531-1.9375-.636719-2.558593-.484375-.195313.039062-.71875.152344-.761719.5-.019531.125.054687.265625.089843.324219.03125.058593.128907.144531.03125.089843-.136718-.070312-.210937-.1875-.246093-.335937-.046875-.382813.167969-.929687.539062-1.152344.132813-.074219.597657-.300781 1.136719-.21875.414062.101563.851562.265625 1.25.296875.273438.03125.867188-.234375.890625-.578125.011719-.210937-.46875-.542969-.929687-.546875-.140626.007813-.320313.003906-.375.007813-.007813-.019531-.015626-.039063-.027344-.058594l.273437-.210937c.019531-.015626.03125-.03125.023438-.066407-.035157-.214843-.054688-.5-.113281-.550781-.101563-.089844-.234376-.105469-.367188-.144531.101562-.121094.199219-.246094.292969-.371094.097656-.007813.191406-.011719.285156-.015625m-.59375.402344c.050781.011718.246094.0625.296875.09375.09375.050781.085938.082031.097656.117187.027344.101563.054688.332031.074219.453125.003906.027344 0 .035156-.011719.046875l-.523437.40625c-.03125.023438-.03125.015625-.03125 0-.007813-.148437-.011719-.3125-.03125-.402343-.003907-.011719-.007813-.019532-.011719-.027344-.03125-.042969-.171875-.082032-.242188-.105469l.007813.019531c.070313.03125.199219.0625.21875.117188.027344.097656.027344.25.027344.394531 0 .050781.023437.058594.046875.042969l.257812-.199219c.035156.121094.0625.253906-.011718.359375-.144532.160156-.523438.339844-.867188.453125-.394531-.007813-.820312.082031-1.144531.324219-.289063.085937-.542969.164062-.691407.148437-.128906-.023437.042969-.109375.078126-.128906.394531-.214844.839843-.507813 1.222656-.839844.421875-.398437.855468-.824219 1.238281-1.273437zm-.398437.796875c-.023438.222656-.011719.417969-.011719.621093.007812-.203124.023437-.386718.011719-.621093m.964843.238281c.304688-.003906.929688.308594.910157.539062-.027344.195313-.40625.492188-.824219.503907-.234375.007812-.832031-.183594-1.238281-.296875.289062-.101563.585937-.222656.789062-.421875.066406-.058594.078125-.1875.035156-.3125.113282-.007813.226563-.007813.328125-.011719"/></svg>