<svg height="18" viewBox="0 0 18 18" width="18" xmlns="http://www.w3.org/2000/svg"><g fill="none" stroke="#fff" stroke-linecap="round" stroke-linejoin="round" stroke-width="2" transform="scale(.75)"><path d="m14 14c1.104167 0 2 .895833 2 2v4c0 1.104167-.895833 2-2 2m0-18c0-1.104167.895833-2 2-2m0 8c-1.104167 0-2-.895833-2-2m6 6c1.104167 0 2 .895833 2 2v4c0 1.104167-.895833 2-2 2m0-20c1.104167 0 2 .895833 2 2m0 4c0 1.104167-.895833 2-2 2m-17-3 3 3 3-3"/><path d="m6 10v-5c0-1.65625 1.34375-3 3-3h1"/><path d="m4 14h4c1.104167 0 2 .895833 2 2v4c0 1.104167-.895833 2-2 2h-4c-1.104167 0-2-.895833-2-2v-4c0-1.104167.895833-2 2-2zm0 0"/></g></svg>