<svg height="18" viewBox="0 0 18 18" width="18" xmlns="http://www.w3.org/2000/svg"><path d="m14.613281 1.851562c-.070312.003907-.140625.023438-.203125.054688l-1.628906.761719.042969.042969.003906.011718c.046875.089844.117187.152344.191406.210938-1.84375.96875-2.640625 2.246094-2.664062 2.285156l-7.261719 3.910156c-.398438.214844-.902344.066406-1.117188-.335937h-.003906c-.210937-.398438-.0625-.902344.339844-1.117188l2.0625-1.109375c.539062-.289062.851562-.832031.894531-1.394531l.007813-.09375-1.320313.710937-2.0625 1.105469c-.828125.449219-1.144531 1.488281-.699219 2.320313.308594.574218.898438.902344 1.511719.902344.273438 0 .550781-.066407.808594-.207032l.847656-.457031c-.046875.347656-.019531.710937.117188 1.058594.050781.128906.082031.203125.082031.203125v.003906c.160156.34375.132812.644531.003906.855469-.128906.214843-.363281.34375-.628906.34375h-.222656l-.652344 2.824219c-.082031-.066407-.167969-.132813-.28125-.160157l-.050781-.015625-.351563 1.449219.054688.011719c.351562.082031.703125-.097656.84375-.421875v.007812l1.472656-2.640625c.933594-.097656 1.65625-.460937 2.132812-1.03125.476563-.5625.710938-1.324218.699219-2.207031 1.945313.09375 4.46875-1.097656 5.640625-2.746094.445313.53125 1.070313.765625 1.675782.832031.621093.066407 1.226562-.042968 1.601562-.1875l.046875-.019531c-.027344.082031-.058594.160157-.058594.25v.054688l1.488281-.015625v-.050782c-.003906-.425781-.335937-.753906-.746093-.75h-.007813l-2.34375-.199218-.527344-1.386719v-1.433594c.097657.039063.195313.078125.304688.078125.410156 0 .742188-.308594.796875-.699218l.578125-.382813-.027344-.792969c-.007812-.101562-.085937-.191406-.191406-.191406l-.695312-.007812c-.121094-.152344-.308594-.246094-.503907-.234376m.007813.105469c.167968-.011719.335937.070313.4375.210938l.015625.023437.738281.007813c.046875 0 .082031.039062.085938.089843l.027343.734376-.566406.375-.003906.023437c-.03125.355469-.332031.636719-.699219.636719-.121094 0-.230469-.035156-.332031-.089844l-.078125-.042969v1.609375l.558594 1.464844 2.414062.207031h.011719c.335937-.003906.601562.25.628906.59375l-1.253906.011719c.007812-.09375.019531-.179688.0625-.253906l.066406-.121094-.273437.097656c-.355469.136719-.949219.246094-1.554688.179688-.605469-.0625-1.21875-.296875-1.644531-.835938l-.046875-.058594-.039063.058594c-1.140625 1.648438-3.71875 2.867188-5.640625 2.75h-.054687v.054688c.023437.886718-.210938 1.636718-.675781 2.191406-.464844.554688-1.167969.910156-2.09375 1l-.027344.003906-1.5 2.683594v.003906c-.113282.257813-.386719.402344-.675782.359375l.296876-1.214843c.097656.03125.191406.078124.257812.148437l.066406.070313.667969-2.90625h.140625c.300781 0 .570312-.148438.71875-.394532s.171875-.585937.003906-.953125c-.003906-.003906-.03125-.078125-.082031-.203125-.136719-.351562-.171875-.730468-.105469-1.101562l.019532-.105469-1.027344.550781c-.234375.128906-.492188.195313-.757813.195313-.574219 0-1.132812-.308594-1.421875-.847657-.414062-.777343-.121094-1.753906.660156-2.175781l2.0625-1.109375 1.136719-.613281c-.066406.492187-.347656.957031-.820312 1.210937l-2.0625 1.105469c-.453125.246094-.621094.8125-.378907 1.261719.242188.449219.808594.617188 1.257813.378906h.003906l7.285157-3.925781.007812-.011719s.796875-1.316406 2.6875-2.292968l.082031-.039063-.078125-.050781c-.074218-.046875-.132812-.117188-.179687-.195313l1.503906-.707031c.054687-.027344.113281-.039062.167969-.042969m0 .308594c-.148438 0-.273438.125-.273438.277344 0 .152343.121094.28125.273438.28125s.277344-.125.277344-.28125c0-.152344-.125-.277344-.277344-.277344m0 .105469c.09375 0 .175781.074218.175781.171875 0 .101562-.082031.175781-.175781.175781s-.167969-.082031-.167969-.175781c0-.097657.074219-.171875.167969-.171875m-10.335938.980468c-.058594.003907-.117187.019532-.167968.046876-.21875.113281-.296876.386718-.1875.601562l.121093.210938.78125-.417969-.117187-.210938c-.082032-.160156-.257813-.246093-.429688-.230469zm.007813.101563c.132812-.011719.265625.054687.332031.179687l.0625.117188-.59375.320312-.070312-.121093c-.085938-.164063-.023438-.371094.140624-.457031.042969-.023438.085938-.035157.128907-.039063zm9.148437.128906c-.148437 0-.25.128907-.25.128907l-.027344.03125.027344.03125s.027344.023437.039063.035156c-.035157.023437-.085938.054687-.085938.054687l-.042969.035157.039063.039062s.054687.03125.089844.058594c-.011719.011718-.027344.023437-.039063.03125l-.027344.035156.027344.03125s.101563.128906.25.128906c.144532 0 .246094-.128906.246094-.128906l.027344-.03125-.023438-.035156s-.03125-.023438-.042968-.03125c.035156-.023438.089843-.054688.089843-.054688l.039063-.039062-.039063-.039063s-.054687-.03125-.089843-.054687c.011718-.011719.042968-.035156.042968-.035156l.023438-.03125-.027344-.03125s-.101562-.128907-.246094-.128907m0 .105469c.054688 0 .085938.039062.117188.0625-.007813.011719-.007813.011719-.023438.019531l-.09375.058594.101563.035156c.039062.015625.039062.023438.0625.039063-.023438.015625-.027344.023437-.0625.035156l-.101563.039062.09375.054688c.015625.011719.015625.011719.023438.019531-.03125.027344-.0625.066407-.117188.066407-.058594 0-.089844-.039063-.121094-.066407.011719-.007812.011719-.007812.023438-.019531l.101562-.054688-.109374-.039062c-.035157-.011719-.039063-.019531-.058594-.035156.019531-.015625.023437-.023438.058594-.039063l.101562-.039062-.09375-.054688c-.011719-.007812-.011719-.007812-.023438-.019531.03125-.023438.0625-.0625.121094-.0625m-1.085937.414062c-.152344 0-.25.128907-.25.128907l-.027344.03125.027344.035156s.027343.019531.039062.03125c-.035156.023437-.085937.054687-.085937.054687l-.042969.039063.039063.039063s.054687.03125.089843.054687c-.011719.011719-.023437.023437-.039062.03125l-.027344.035156.03125.03125s.097656.128907.246094.128907c.148437 0 .246093-.128907.246093-.128907l.027344-.03125-.023437-.035156s-.03125-.019531-.039063-.03125c.03125-.023437.085938-.054687.085938-.054687l.039062-.039063-.035156-.035156s-.058594-.03125-.089844-.058594c.007813-.007813.035156-.03125.035156-.03125l.03125-.03125-.03125-.035156s-.101562-.128907-.246093-.128907m-7.34375.019532-.046875.023437-.730469.394531.058594.121094c.0625.117188.09375.246094.097656.375l.003906.082032.835938-.453126-.007813-.039062c-.03125-.132812-.082031-.265625-.148437-.386719zm7.34375.085937c.054687 0 .085937.039063.117187.0625-.011718.011719-.007812.011719-.023437.023438l-.085938.054687.097657.039063c.035156.011719.039062.019531.058593.035156-.023437.015625-.027343.023437-.0625.039063l-.101562.039062.09375.054688c.015625.007812.015625.007812.023437.019531-.027344.023437-.058594.0625-.117187.0625-.058594 0-.089844-.039063-.121094-.0625.011719-.011719.011719-.011719.023437-.019531l.097657-.058594-.105469-.039063c-.035156-.011719-.039062-.019531-.058594-.035156.019532-.015625.027344-.023437.058594-.039063l.101562-.039062-.09375-.054688c-.011718-.007812-.011718-.007812-.023437-.019531.03125-.023437.058594-.0625.121094-.0625m-7.386719.054688.011719.027343c.058593.105469.097656.214844.125.324219l-.628907.34375c-.011718-.117187-.03125-.238281-.089843-.347656l-.015625-.023437zm8.382812.582031c-.148437 0-.25.128906-.25.128906l-.027343.03125.027343.035156s.027344.019532.039063.03125c-.035156.023438-.089844.054688-.089844.054688l-.039062.039062.039062.035157s.054688.03125.089844.058593c-.011719.011719-.027344.019532-.039063.03125l-.027343.035157.027343.03125s.101563.128906.25.128906c.144532 0 .246094-.128906.246094-.128906l.027344-.03125-.023438-.035157s-.03125-.019531-.042968-.03125c.035156-.023437.089844-.054687.089844-.054687l.039062-.039063-.039062-.039062s-.054688-.03125-.089844-.054688c.011718-.011718.042968-.03125.042968-.03125l.023438-.035156-.027344-.03125s-.101562-.128906-.246094-.128906zm0 .105469c.054688 0 .085938.039062.117188.0625-.011719.011719-.007812.011719-.023438.019531l-.09375.058594.101563.039062c.039063.011719.039063.019532.0625.035156-.023437.015626-.027344.023438-.0625.035157l-.101563.042969.09375.054687c.015626.007813.011719.007813.023438.019531-.03125.023438-.0625.0625-.117188.0625-.058593 0-.089843-.039062-.121093-.0625.011719-.011718.007812-.011718.023437-.019531l.097656-.058594-.105468-.039062c-.039063-.011719-.039063-.019531-.058594-.035157.019531-.015624.023438-.023437.058594-.039062l.101562-.039062-.09375-.054688c-.015625-.007812-.011718-.007812-.023437-.019531.03125-.023438.0625-.0625.121093-.0625m-2.117187.191406c-.152344 0-.25.125-.25.125l-.027344.03125.027344.035156s.027344.023438.039063.03125c-.035157.023438-.089844.054688-.089844.054688l-.039063.039062.039063.039063s.054687.03125.089844.054687c-.011719.011719-.039063.03125-.039063.03125l-.027344.035157.027344.035156s.101563.125.25.125.246094-.128906.246094-.128906l.027343-.03125-.023437-.035157s-.03125-.019531-.042969-.03125c.035156-.023437.089844-.054687.089844-.054687l.042969-.039063-.042969-.039062s-.054688-.03125-.089844-.054688c.011719-.007812.042969-.03125.042969-.03125l.023437-.035156-.027343-.03125s-.101563-.125-.246094-.125m6.082031.09375c-.097656-.007813-.199218.007813-.292968.042969h-.003907v.003906c-.003906 0-.015625.007812-.023437.011719v-.003907l-2.070313.75.277344.734376.046875-.011719c.375-.09375.90625-.472657 1.308594-.789063 0 .085938-.003906.171875.027344.257813l.015624.050781 1.398438-.515625-.019531-.050781c-.105469-.277344-.367188-.46875-.664063-.480469m-6.082031.007813c.054687 0 .085937.039062.117187.066406-.007812.007812-.007812.007812-.023437.019531l-.089844.050781.097657.042969c.039062.015625.039062.019531.0625.035156-.023438.015625-.027344.023438-.0625.039063l-.101563.039062.09375.054688c.015625.007812.011719.011718.023437.019531-.027343.027344-.058593.0625-.117187.0625s-.089844-.035156-.121094-.0625c.011719-.007813.007813-.011719.023438-.019531l.097656-.054688-.105469-.039062c-.035156-.015625-.039062-.023438-.058594-.039063.019532-.015625.023438-.023437.058594-.035156l.101563-.039063-.09375-.054687c-.015625-.011719-.011719-.011719-.023438-.019531.03125-.027344.058594-.066406.121094-.066406zm5.757813.085937.054687.054687c-.003906 0 .003906-.003906.011719-.007812.082031-.027344.167968-.042969.253906-.039062.230469.011718.433594.15625.539062.371093l-1.171874.433594c-.023438-.082031-.035157-.167969-.023438-.253906l.011719-.128907-.097657.078126c-.390624.3125-.949218.699218-1.304687.804687l-.207031-.539063 1.972656-.710937zm-4.6875.136719c-.144532 0-.246094.125-.246094.125l-.03125.035156.027344.03125s.03125.023438.039062.035156c-.03125.023438-.085938.054688-.085938.054688l-.039062.035156.035156.039062s.058594.03125.09375.054688c-.011718.011719-.042968.035156-.042968.035156l-.027344.035156.03125.03125s.101562.125.246094.125c.148437 0 .246093-.125.246093-.125l.03125-.03125-.027343-.035156s-.027344-.023437-.039063-.035156c.035156-.023438.085937-.054688.085937-.054688l.042969-.039062-.042969-.035156s-.050781-.03125-.085937-.054688c.011719-.011718.039063-.035156.039063-.035156l.027343-.035156-.03125-.03125s-.097656-.125-.246093-.125zm0 .105468c.058593 0 .089843.035157.121093.0625-.011719.007813-.011719.011719-.023437.019532l-.09375.054687.097656.039063c.039062.015625.042969.023437.0625.039062-.023438.015625-.027344.023438-.0625.035156l-.097656.039063.09375.054687c.011718.007813.011718.011719.023437.019532-.03125.027344-.066406.066406-.121093.066406-.054688 0-.085938-.039062-.117188-.066406.007812-.007813.007812-.011719.023438-.019532l.09375-.054687-.105469-.039063c-.035157-.011718-.039063-.023437-.058594-.035156.023437-.015625.027344-.023437.0625-.039062l.101563-.039063-.09375-.054687c-.015626-.007813-.015626-.011719-.023438-.019532.03125-.027343.0625-.0625.117188-.0625m1.320312.308594c-.144531 0-.246094.128906-.246094.128906l-.027344.03125.023438.035157s.03125.023437.042969.03125c-.035157.023437-.089844.054687-.089844.054687l-.039063.039063.039063.039062s.054687.03125.089844.054688c-.011719.011719-.042969.03125-.042969.03125l-.023438.035156.027344.035156s.101563.125.246094.125c.148438 0 .25-.125.25-.125l.027344-.035156-.027344-.035156s-.027344-.019531-.039062-.03125c.035156-.023438.089843-.054688.089843-.054688l.039063-.035156-.039063-.039063s-.054687-.03125-.089843-.054687c.011718-.011719.039062-.035156.039062-.035156l.027344-.035157-.027344-.03125s-.101562-.128906-.25-.128906m0 .105469c.058594 0 .089844.039063.121094.066406-.011719.007813-.007813.007813-.023438.019531l-.101562.054688.109375.039062c.035156.011719.039062.019532.058593.035157-.019531.015625-.023437.023437-.058593.039062l-.101563.039063.09375.054687c.015625.007813.011719.007813.023438.019531-.03125.023438-.0625.0625-.121094.0625-.054688 0-.085938-.039062-.117188-.0625.007813-.011718.007813-.011718.023438-.019531l.09375-.058593-.101562-.035157c-.039063-.015625-.039063-.023437-.0625-.039062.023437-.015625.027343-.023438.0625-.035157l.101562-.039062-.09375-.054688c-.015625-.011718-.015625-.011718-.023438-.019531.03125-.027343.0625-.066406.117188-.066406m-2.890625.179687c-.148437 0-.246094.128907-.246094.128907l-.027343.03125.023437.035156s.03125.019531.042969.03125c-.035156.023437-.089844.054687-.089844.054687l-.039062.039063.039062.039063s.054688.03125.089844.054687c-.011719.011719-.042969.03125-.042969.03125l-.023437.035156.027343.03125s.101563.128907.246094.128907c.148437 0 .25-.128907.25-.128907l.027344-.03125-.027344-.035156s-.027344-.019531-.039063-.03125c.035157-.023437.089844-.054687.089844-.054687l.039063-.039063-.039063-.035156s-.054687-.035157-.089844-.058594c.011719-.011719.039063-.03125.039063-.03125l.027344-.035156-.027344-.03125s-.101563-.128907-.25-.128907zm0 .105469c.058594 0 .089844.039063.121094.066407-.011719.007812-.007813.007812-.023438.019531l-.097656.054687.105469.039063c.035156.011719.039062.019531.058594.035156-.019532.015625-.023438.023437-.058594.039063l-.101563.039062.09375.054688c.015625.007812.011719.007812.023438.019531-.03125.023437-.0625.0625-.121094.0625-.054687 0-.085937-.039063-.117187-.0625.007812-.011719.007812-.011719.023437-.019531l.09375-.058594-.101563-.035156c-.039062-.015626-.039062-.023438-.0625-.039063.023438-.015625.027344-.023437.0625-.035156l.101563-.039063-.09375-.058594c-.015625-.007812-.015625-.007812-.023437-.019531.027343-.023437.058593-.0625.117187-.0625m-1.417969.082031c-.148437 0-.25.125-.25.125l-.027344.03125.027344.035157s.027344.023437.039063.035156c-.027344.019531-.058594.035156-.089844.054687l-.039063.035157.039063.039062s.054687.03125.089844.054688c-.011719.011719-.039063.03125-.039063.03125l-.027344.035156.027344.035156s.101563.125.25.125c.144532 0 .246094-.125.246094-.125l.027344-.03125-.023438-.035156s-.03125-.023437-.042968-.035156c.035156-.023438.089843-.054688.089843-.054688l.039063-.035156-.039063-.039063s-.054687-.03125-.089843-.054687c.011718-.011719.042968-.035156.042968-.035156l.023438-.035157-.027344-.03125s-.101562-.125-.246094-.125m0 .105469c.054688 0 .085938.035157.117188.0625-.011719.007813-.007813.011719-.023438.019531l-.09375.054688.101563.039062c.039062.015626.039062.023438.0625.039063-.023438.011719-.027344.023437-.0625.035156l-.101563.039063.09375.054687c.015625.007813.011719.011719.023438.019531-.03125.027344-.0625.0625-.117188.0625-.058594 0-.089844-.035156-.121094-.0625.011719-.007812.011719-.007812.027344-.019531l.085938-.058593-.097656-.035157c-.035157-.015625-.039063-.023437-.058594-.035156.019531-.015625.023437-.023437.058594-.039063l.101562-.039062-.09375-.054688c-.015625-.007812-.011719-.011718-.023438-.019531.03125-.027343.0625-.0625.121094-.0625m2.691406.152344c-.152343 0-.25.125-.25.125l-.027343.035156.027343.03125s.027344.023438.039063.035157c-.035156.023437-.089844.054687-.089844.054687l-.039062.035156.039062.039063s.054688.03125.089844.054687c-.011719.011719-.039063.035157-.039063.035157l-.027343.035156.027343.03125s.101563.125.25.125c.148438 0 .246094-.125.246094-.125l.027344-.035156-.023438-.03125s-.03125-.023438-.042968-.035157c.035156-.023437.089844-.054687.089844-.054687l.042968-.035156-.042968-.039063s-.054688-.03125-.089844-.054687c.011718-.011719.039062-.035157.039062-.035157l.027344-.03125-.027344-.035156s-.101562-.125-.246094-.125zm0 .105469c.054688 0 .085938.035156.117188.0625-.011719.007812-.007812.011718-.023438.019531l-.09375.054687.101563.039063c.035156.015625.039063.023437.0625.039063-.023437.015624-.027344.023437-.0625.035156l-.101563.039062.09375.054688c.015626.007812.011719.011718.023438.019531-.027344.027344-.058594.066406-.117188.066406-.058593 0-.089843-.039062-.121093-.066406.011719-.007813.007812-.011719.023437-.019531l.097656-.054688-.105468-.039062c-.035156-.011719-.039063-.023438-.058594-.035156.019531-.015626.023438-.023438.058594-.039063l.101562-.039063-.09375-.054687c-.015625-.007813-.011718-.011719-.023437-.019531.03125-.027344.058593-.0625.121093-.0625m-2.015624.527344c-.148438 0-.246094.128906-.246094.128906l-.027344.03125.027344.03125s.027344.023437.039062.035156c-.03125.019531-.058594.035156-.089844.054688l-.039062.035156.039062.039062s.054688.03125.089844.054688c-.011718.011718-.039062.035156-.039062.035156l-.027344.035156.027344.03125s.101562.125.246094.125c.152343 0 .25-.125.25-.125l.027343-.03125-.027343-.035156s-.027344-.023438-.039063-.035156c.035156-.023438.089844-.050782.089844-.050782l.039062-.039062-.039062-.039062s-.054688-.03125-.089844-.054688c.011719-.011719.039063-.035156.039063-.035156l.027343-.03125-.027343-.035156s-.101563-.125-.25-.125m-1.6875.011718c-.144532 0-.246094.128906-.246094.128906l-.027344.03125.027344.035157s.027344.023437.039062.03125c-.035156.023437-.089844.054687-.089844.054687l-.039062.039063.039062.039062s.054688.03125.089844.054688c-.011718.011719-.027344.023437-.039062.035156l-.027344.03125.027344.035156s.101562.125.25.125c.144531 0 .246094-.128906.246094-.128906l.027343-.03125-.027343-.03125s-.027344-.023437-.039063-.035156c.035156-.023438.089844-.054688.089844-.054688l.039062-.039062-.039062-.039063s-.054688-.03125-.089844-.054687c.011719-.007813.039063-.03125.039063-.03125l.027343-.035157-.027343-.03125s-.101563-.128906-.25-.128906zm1.6875.09375c.058593 0 .089843.035156.121093.0625-.011719.007813-.007812.011719-.023437.019532l-.101563.058593.109375.035157c.035156.011718.039063.023437.0625.039062-.023437.015625-.027344.023438-.0625.035156l-.101562.039063.09375.054687c.015625.011719.011718.011719.023437.019532-.03125.027343-.058593.066406-.121093.066406-.054688 0-.085938-.039063-.117188-.066406.011719-.007813.007812-.007813.023438-.019532l.09375-.054687-.101563-.039063c-.039063-.011718-.039063-.019531-.0625-.035156.023437-.015625.027344-.023438.0625-.039062l.101563-.039063-.09375-.054687c-.015626-.007813-.011719-.011719-.023438-.019532.027344-.027344.058594-.0625.117188-.0625m-1.6875.011719c.058593 0 .089843.039063.121093.066406-.011719.007813-.007812.007813-.023437.019531l-.09375.054688.101562.039062c.035156.011719.039063.019532.058594.035157-.019531.015625-.023438.023437-.058594.039062l-.101562.039063.09375.054687c.015625.007813.011718.007813.023437.019531-.03125.027344-.0625.0625-.121093.0625-.054688 0-.085938-.039062-.117188-.0625.011719-.011718.007812-.011718.023438-.019531l.09375-.058593-.101563-.035157c-.039063-.015625-.039063-.023437-.0625-.039062.023437-.015625.027344-.023438.0625-.035157l.101563-.039062-.09375-.054688c-.015626-.011718-.011719-.011718-.023438-.019531.03125-.027343.0625-.066406.117188-.066406m2.796874.121094c-.148437 0-.246093.128906-.246093.128906l-.027344.03125.023437.035156s.03125.019531.039063.03125c-.03125.023438-.085937.054688-.085937.054688l-.039063.039062.035156.039063s.058594.03125.09375.054687c-.015625.011719-.027343.023438-.042969.03125l-.023437.035157.027344.03125s.101562.128906.246093.128906c.148438 0 .25-.128906.25-.128906l.027344-.03125-.027344-.035157s-.027343-.019531-.039062-.03125c.035156-.023437.085938-.054687.085938-.054687l.042968-.039063-.042968-.039062s-.050782-.03125-.085938-.054688c.011719-.011719.039062-.03125.039062-.03125l.027344-.035156-.03125-.03125s-.097656-.128906-.246094-.128906m0 .105469c.054688 0 .089844.039062.121094.066406-.011718.007812-.011718.007812-.023437.019531l-.089844.050781.09375.039063c.035156.015625.039063.023437.0625.039062-.023437.015625-.027344.023438-.058594.039063l-.101562.039062.09375.054688c.011719.007812.011719.007812.023437.019531-.03125.023437-.058594.0625-.121094.0625-.054687 0-.085937-.039063-.117187-.0625.007813-.011719.007813-.011719.023437-.019531l.09375-.058594-.105468-.039062c-.035156-.011719-.039063-.019532-.058594-.035157.023438-.015625.027344-.023437.0625-.035156l.101562-.039063-.09375-.054687c-.015624-.011719-.015624-.011719-.023437-.023437.027344-.023438.058594-.0625.117187-.0625m-4.214843.136718c-.152344 0-.25.125-.25.125l-.027344.035156.027344.03125s.027343.023438.039062.035157c-.035156.023437-.085937.054687-.085937.054687l-.042969.035156.039063.039063s.054687.03125.089843.054687c-.011719.011719-.023437.023438-.039062.035157l-.027344.035156.03125.03125s.097656.125.246094.125c.148437 0 .246093-.125.246093-.125l.027344-.035156-.023437-.03125s-.03125-.023438-.039063-.035157c.03125-.023437.085938-.054687.085938-.054687l.039062-.035156-.039062-.039063s-.054688-.03125-.089844-.054687c.011719-.011719.042969-.035157.042969-.035157l.027343-.035156-.03125-.03125s-.101562-.125-.246093-.125zm0 .101563c.054687 0 .085937.039062.117187.066406-.007812.007813-.007812.011719-.023437.019531l-.09375.054688.101562.039062c.039063.011719.042969.023438.0625.035156-.023437.015626-.027343.023438-.0625.039063l-.101562.039063.09375.054687c.015625.007813.015625.011719.023437.019531-.027344.027344-.058594.0625-.117187.0625-.058594 0-.089844-.035156-.121094-.0625.011719-.007812.011719-.011718.023437-.019531l.097657-.054687-.105469-.039063c-.035156-.015625-.039062-.023437-.058594-.035156.019532-.015625.027344-.027344.058594-.039063l.101562-.039062-.09375-.054688c-.011718-.007812-.011718-.011718-.023437-.019531.03125-.027344.058594-.066406.121094-.066406zm2.496093.496093c-.144531 0-.246093.125-.246093.125l-.03125.03125.027343.035157s.03125.023437.039063.035156c-.03125.023437-.085937.050781-.085937.050781l-.039063.039063.035156.039062s.058594.03125.089844.054688c-.011719.011719-.023437.023437-.039063.035156l-.023437.03125.027344.035156s.101562.125.246093.125c.148438 0 .246094-.125.246094-.125l.03125-.035156-.027344-.03125s-.027343-.023437-.039062-.035156c.035156-.023438.085938-.054688.085938-.054688l.042968-.035156-.039062-.039063s-.054688-.03125-.089844-.054687c.011719-.011719.039062-.035156.039062-.035156l.027344-.035157-.03125-.03125s-.097656-.125-.246094-.125zm0 .101563c.054688 0 .089844.039063.121094.066406-.011718.007813-.011718.007813-.023437.019531l-.097657.054688.105469.039062c.035157.011719.039063.019532.058594.035157-.019531.015625-.027344.023437-.0625.039062l-.097656.039063.09375.054687c.011719.007813.011719.011719.023437.019531-.03125.027344-.066406.0625-.121094.0625-.054687 0-.089843-.035156-.117187-.0625.007813-.007812.007813-.011718.023437-.019531l.09375-.054687-.105468-.039063c-.035156-.015625-.039063-.023437-.058594-.039062.023438-.015625.027344-.023438.0625-.035157l.101562-.039062-.09375-.054688c-.015624-.011718-.015624-.011718-.023437-.019531.03125-.027343.0625-.066406.117187-.066406m-1.375.089844c-.148437 0-.25.128906-.25.128906l-.027343.03125.027343.035156s.03125.023438.039063.03125c-.03125.023438-.085937.054688-.085937.054688l-.039063.039062.035156.039063s.058594.03125.089844.054687c-.011719.011719-.023437.023438-.039063.03125l-.027343.035157.03125.035156s.101562.125.246093.125c.148438 0 .25-.128906.25-.128906l.027344-.03125-.027344-.035157s-.027343-.019531-.039062-.03125c.035156-.023437.085938-.054687.085938-.054687l.042968-.035156-.039062-.039063s-.054688-.03125-.089844-.058594c.011719-.007812.039062-.03125.039062-.03125l.027344-.035156-.03125-.03125s-.097656-.128906-.246094-.128906m-2.46875.066406c-.148437 0-.25.125-.25.125l-.027343.03125.027343.035156s.027344.023438.039063.035157c-.027344.015624-.058594.035156-.085937.050781l-.046876.042969.046876.039062s.050781.027344.085937.050781c-.011719.011719-.039063.035157-.039063.035157l-.027343.03125.027343.035156s.101563.125.25.125c.144532 0 .246094-.125.246094-.125l.027344-.035156-.023438-.03125s-.03125-.023438-.042968-.035157c.035156-.023437.089844-.054687.089844-.054687l.039062-.035156-.039062-.039063s-.054688-.03125-.089844-.054687c.011718-.011719.042968-.035157.042968-.035157l.023438-.035156-.027344-.03125s-.101562-.125-.246094-.125m2.46875.039063c.054688 0 .089844.039062.121094.066406-.011718.007812-.011718.007812-.023437.019531l-.097657.054687.105469.039063c.035157.011719.039063.019531.058594.035156-.023437.015625-.027344.023438-.0625.039063l-.097656.039062.09375.054688c.011719.007812.011719.007812.023437.019531-.03125.023437-.058594.0625-.121094.0625-.054687 0-.085937-.039063-.117187-.0625.007813-.011719.007813-.011719.023437-.019531l.09375-.058594-.105468-.035156c-.035156-.015625-.039063-.023438-.058594-.039063.023438-.015625.027344-.023437.0625-.035156l.101562-.039063-.09375-.058593c-.015624-.007813-.015624-.007813-.023437-.019531.027344-.023438.058594-.0625.117187-.0625m-2.46875.0625c.054688 0 .085938.039062.117188.066406-.007812.007812-.007812.011718-.023438.019531l-.09375.054687.101563.039063c.039063.011719.039063.019531.0625.035156-.023437.015625-.027344.023438-.0625.039063l-.101563.039062.09375.054688c.015626.007812.015626.011718.023438.019531-.03125.027344-.0625.0625-.117188.0625-.058593 0-.089843-.035156-.121093-.0625.011719-.007813.007812-.011719.023437-.019531l.089844-.050782-.09375-.042968c-.035156-.015625-.039062-.023438-.0625-.039063.019531-.015625.027344-.023437.058594-.035156l.101562-.039063-.09375-.054687c-.015625-.007813-.011718-.011719-.023437-.019531.03125-.027344.0625-.066406.121093-.066406m12.441407.277343-.066407.015625-4.261718 1.0625-1.652344 1.878906-2.429688.058594-.917968 2.101563-2.363282.617187-1.597656 1.457032h12.109375c.648438 0 1.179688-.53125 1.179688-1.175782zm-.105469.132813v5.882812c0 .589844-.480469 1.070313-1.074219 1.070313h-11.839843l1.378906-1.253907 2.390625-.625.910156-2.085937 2.410156-.058594 1.65625-1.890625zm-11.148438.039062c-.148437 0-.246093.125-.246093.125l-.027344.035156.023437.03125s.03125.023438.042969.035157c-.035156.023437-.089843.054687-.089843.054687l-.039063.035156.039063.039063s.054687.03125.089843.054687c-.011719.011719-.042969.035157-.042969.035157l-.023437.035156.027344.03125s.101562.125.246093.125c.152344 0 .25-.125.25-.125l.027344-.035156-.027344-.03125s-.027343-.023438-.039062-.035157c.035156-.023437.089844-.054687.089844-.054687l.039062-.035156-.039062-.039063s-.054688-.03125-.089844-.054687c.011719-.011719.039062-.035157.039062-.035157l.027344-.03125-.027344-.035156s-.101562-.125-.25-.125zm0 .105469c.058594 0 .089844.035156.121094.0625-.011718.007813-.007812.011719-.023437.019531l-.101563.058594.109375.035156c.035157.011719.039063.023438.058594.035156-.019531.015626-.023437.027344-.058594.039063l-.101562.039063.09375.054687c.015625.007813.011719.011719.023437.019531-.03125.027344-.058594.066406-.121094.066406-.054687 0-.085937-.039062-.117187-.066406.011719-.007812.007813-.011718.023437-.019531l.09375-.054687-.101562-.039063c-.039062-.011719-.039062-.023437-.0625-.035156.023438-.015625.027344-.023438.0625-.039063l.101562-.039062-.09375-.054688c-.015624-.007812-.015624-.011718-.023437-.019531.027344-.027344.058594-.0625.117187-.0625m-1.410156.644531c-.148437 0-.25.128906-.25.128906l-.023437.03125.023437.035157s.03125.019531.039063.03125c-.03125.023437-.085938.054687-.085938.054687l-.039062.035156.035156.039063s.058594.03125.089844.054687c-.011719.015626-.023438.023438-.039063.035157l-.027344.035156.03125.03125s.097657.125.246094.125c.144532.007813.246094-.125.246094-.125l.03125-.03125-.027344-.035156s-.03125-.023438-.039062-.03125c.035156-.023438.085937-.054688.085937-.054688l.042969-.039062-.039062-.039063s-.054688-.03125-.089844-.054687c.007812-.011719.039062-.03125.039062-.03125l.027344-.035157-.03125-.03125s-.097656-.128906-.246094-.128906m0 .105469c.054688 0 .089844.035156.121094.0625-.011719.007813-.011719.011719-.027344.019531l-.09375.054688.105469.039062c.035156.015625.039063.023438.058594.039063-.023438.015625-.027344.023437-.0625.035156l-.101563.039063.09375.054687c.015625.011719.015625.011719.027344.019531-.035156.027344-.070312.066406-.117188.066406h-.003906c-.054687 0-.089844-.039062-.117187-.066406.007812-.007812.007812-.007812.023437-.019531l.09375-.054687-.105468-.039063c-.035157-.011719-.039063-.019531-.058594-.035156.023437-.015625.027344-.023438.0625-.039063l.101562-.039062-.09375-.054688c-.015625-.007812-.015625-.011718-.023437-.019531.027343-.027344.054687-.0625.117187-.0625m1.175782.3125c-.148438 0-.246094.125-.246094.125l-.027344.035156.023438.03125s.03125.023438.039062.035157c-.03125.023437-.085938.054687-.085938.054687l-.039062.035156.039062.039063s.054688.03125.089844.054687c-.015625.011719-.027344.023438-.042968.035157l-.023438.03125.027344.035156s.101562.125.246094.125c.148437 0 .25-.128906.25-.128906l.027343-.03125-.027343-.03125s-.027344-.023438-.039063-.035157c.035156-.023437.085937-.054687.085937-.054687l.042969-.039063-.042969-.035156s-.050781-.03125-.085937-.054687c.011719-.011719.039063-.035157.039063-.035157l.027343-.035156-.03125-.03125s-.097656-.125-.246093-.125zm0 .101563c.054687 0 .089843.039062.121093.066406-.011719.007812-.011719.011718-.023437.019531l-.09375.054687.097656.039063c.035156.011719.039062.019531.0625.035156-.023438.015625-.027344.023438-.0625.039063l-.097656.039062.09375.054688c.011718.007812.011718.011718.023437.019531-.03125.027344-.058593.0625-.121093.0625-.054688 0-.085938-.035156-.117188-.0625.007812-.007813.007812-.011719.023438-.019531l.09375-.054688-.105469-.039062c-.035157-.015625-.039063-.023438-.058594-.039063.023437-.015625.027344-.023437.0625-.035156l.101563-.039063-.09375-.054687c-.015626-.007813-.015626-.011719-.023438-.019531.027344-.027344.058594-.066406.117188-.066406m-.808594.828124c-.152344 0-.25.128907-.25.128907l-.027344.03125.027344.035156s.027344.019531.039062.03125c-.035156.023437-.085937.054687-.085937.054687l-.042969.039063.039062.035156s.054688.03125.089844.058594c-.011718.011719-.039062.03125-.039062.03125l-.027344.035156.03125.03125s.097656.128907.246094.128907c.148437 0 .246094-.128907.246094-.128907l.027343-.03125-.023437-.035156s-.03125-.019531-.039063-.03125c.03125-.023437.085938-.054687.085938-.054687l.039062-.039063-.035156-.039063s-.058594-.03125-.09375-.054687c.011719-.011719.042969-.03125.042969-.03125l.023437-.035156-.027343-.03125s-.101563-.128907-.246094-.128907zm0 .105469c.054687 0 .085937.039063.117187.0625-.007812.011719-.007812.011719-.023437.019531l-.09375.058594.105468.035156c.035157.015626.039063.023438.058594.039063-.023437.015625-.027344.023437-.0625.035156l-.101562.039063.09375.058594c.015625.007812.015625.007812.023437.019531-.027343.023437-.058593.0625-.117187.0625s-.089844-.039063-.121094-.066407c.011719-.007812.011719-.007812.023438-.019531l.097656-.054687-.105469-.039063c-.035156-.011719-.039063-.019531-.058594-.035156.019531-.015625.027344-.023437.058594-.039063l.101563-.039062-.09375-.054688c-.011719-.007812-.011719-.011718-.023438-.019531.03125-.023437.058594-.0625.121094-.0625m-2.296875.667969-.121094.105469-1.960937 1.683593c-.027344-.105468-.058594-.214843-.132813-.304687l-.03125-.039063-1.140625.957032.0351562.042968c.2421878.285157.6484378.339844.9570318.148438l-.003907.003906 1.988281-.902344zm-.175781.289062-.324219 1.332032-1.945313.882812h-.003906c-.253906.15625-.570312.117188-.78125-.09375l.957031-.808594c.058594.085938.105469.183594.121094.277344l.015625.09375zm0 0" fill="#ffbe00"/></svg>