<svg height="18" viewBox="0 0 18 18" width="18" xmlns="http://www.w3.org/2000/svg"><g fill="none" stroke="#fff" stroke-linecap="round" stroke-linejoin="round" stroke-width="2" transform="scale(.75)"><path d="m4.5 16.5c-1.5 1.260417-2 5-2 5s3.739583-.5 5-2c.708333-.838542.697917-2.130208-.088542-2.911458-.807291-.765625-2.0625-.807292-2.911458-.088542m7.5-1.5-3-3c.53125-1.380208 1.203125-2.703125 2-3.947917 2.369792-3.791666 6.53125-6.078125 11-6.052083 0 2.71875-.78125 7.5-6 11-1.265625.796875-2.604167 1.46875-4 2"/><path d="m9 12h-5s.552083-3.03125 2-4c1.619792-1.078125 5 0 5 0m1 7v5s3.03125-.552083 4-2c1.078125-1.619792 0-5 0-5"/></g></svg>