<svg height="18" viewBox="0 0 18 18" width="18" xmlns="http://www.w3.org/2000/svg"><path d="m3.042969.28125c-.144531 0-.265625.121094-.265625.265625v13.882813c-.199219.523437-.335938.957031-.414063 1.304687-.058593.269531-.109375.582031-.105469.851563.003907.234374.09375.496093.203126.664062.121093.199219.28125.320312.484374.417969.410157.160156.960938.105469 1.273438-.066407.011719-.007812.027344-.019531.039062-.03125h11.132813c.199219 0 .328125-.210937.238281-.386718l-2.945312-5.828125c-.0625-.128907-.019532-.28125.105468-.351563 1.722657-.992187 2.882813-2.847656 2.882813-4.980468 0-1.003907-.257813-1.941407-.710937-2.761719h.003906l-.007813-.011719c-.011719-.015625-.019531-.035156-.027343-.050781l-.007813-.007813c-.039063-.070312-.082031-.136718-.125-.207031l.015625.015625c-.082031-.132812-.171875-.261719-.265625-.386719v-.003906h-.003906c-1.027344-1.390625-2.667969-2.300781-4.523438-2.328125zm8.777343 1.378906v.003906c.15625-.003906.265626.007813.414063.019532.066406.007812.132813.019531.199219.03125.011718 0 .027344.003906.046875.007812.054687.007813.105469.019532.160156.03125l.03125.007813c.054687.011719.109375.027343.164063.039062.015624.007813.035156.011719.054687.015625.046875.015625.09375.03125.140625.046875.015625.003907.035156.011719.054688.019531.046874.015626.097656.035157.148437.054688l.03125.011719c.050781.019531.105469.042969.15625.066406l.035156.019531c.054688.023438.105469.046875.152344.074219l.035156.019531c.042969.023438.089844.050782.136719.074219.019531.011719.039062.027344.058594.039063.039062.023437.078125.050781.117187.074218.054688.039063.109375.078125.164063.117188.105468.082031.210937.167968.308594.261718l.023437.019532c-.605469-.398438-1.355469-.640625-2.066406-.667969-.945313-.039063-1.832031.292969-2.183594 1.117187-.363281.84375-.058594 1.730469.433594 2.378907.035156.046875.074219.089843.109375.132812.746094-1.074219 1.261718-1.800781 1.261718-1.800781l.066407-.09375.054687.101562c.398438.746094.671875 1.25.820313 1.636719.058593.15625.070312.296875.054687.457031-.105468.5625-.59375.925782-.941406 1.21875-.410156.347657-.976562.804688-1.695312 1.496094-1.445313 1.382813-2.894532 3.523438-4.042969 5.351563-.574219.914062-1.070313 1.75-1.449219 2.371093-.191406.308594-.351562.566407-.476562.753907-.0625.089843-.117188.167969-.160157.21875-.042969.054687-.082031.089843-.089843.09375-.304688.179687-.792969.199219-1.121094.074219-.191406-.074219-.304688-.1875-.425782-.339844-.121093-.1875-.183593-.402344-.199218-.609375.003906-.351563.035156-.570313.101562-.867188.210938-.894531.773438-2.332031 2.003906-4.6875.183594-.351562.378907-.722656.59375-1.113281v-.003906c.769532-1.414063 1.414063-2.589844 1.964844-3.566406l.003906-.003907c.367188-.648437.695313-1.210937.992188-1.695312v-.003907c.445312-.726562.820312-1.28125 1.160156-1.703124v-.003907c.171875-.207031.332032-.386719.488282-.535156.101562-.097656.203124-.183594.304687-.257813.203125-.152343.398437-.257812.601563-.335937.101562-.035156.207031-.066406.316406-.089844.265625-.058593.554687-.078125.886718-.078125zm.238282 2.390625c-.035156.046875-.523438.734375-1.21875 1.738281.195312.214844.410156.398438.625.53125.328125.1875.625.304688.898437.195313.234375-.089844.316407-.28125.363281-.496094.089844-.75-.378906-1.425781-.667968-1.96875zm0 0" fill="#f33"/></svg>