<svg height="18" viewBox="0 0 18 18" width="18" xmlns="http://www.w3.org/2000/svg"><path d="m3.09375.28125c-.183594 0-.335938.15625-.335938.335938v13.953124c-.183593.476563-.296874.871094-.367187 1.195313v.011719c-.085937.378906-.097656.675781-.070313.886718 0 .042969.015626.085938.015626.125.011718.113282.054687.210938.109374.296876.03125.054687.058594.097656.085938.140624.042969.054688.085938.097657.113281.140626l.097657.097656c.015624 0 .015624.015625.015624.015625.027344.011719.054688.042969.082032.054687l.015625.015625h.011719c.394531.238281.929687.210938 1.308593.027344h11.167969c.25 0 .40625-.265625.292969-.492187l-2.925781-5.78125c-.039063-.097657-.011719-.210938.070312-.25 1.730469-1 2.898438-2.855469 2.898438-5.007813 0-1.027344-.265626-1.996094-.746094-2.828125-.042969-.070312-.082032-.140625-.113282-.195312v-.015626c-.996093-1.617187-2.78125-2.699218-4.808593-2.726562zm0 .140625h6.917969c1.675781.027344 3.164062.789063 4.175781 1.96875l-.011719-.015625-.015625-.011719c-.042968-.027343-.070312-.058593-.113281-.085937-.011719-.011719-.027344-.027344-.054687-.042969-.015626-.011719-.027344-.011719-.027344-.027344-.015625-.011719-.042969-.027343-.058594-.042969-.011719 0-.011719-.011718-.027344-.011718-.011718-.015625-.042968-.027344-.054687-.042969-.042969-.027344-.097657-.054687-.140625-.085937-.015625 0-.015625-.011719-.027344-.011719-.058594-.027344-.101562-.058594-.15625-.085938-.015625 0-.027344-.011719-.042969-.011719-.011719-.015624-.027343-.015624-.054687-.03125-.027344-.011718-.042969-.027343-.070313-.027343-.015625 0-.027343-.011719-.042969-.011719-.015624 0-.015624-.015625-.027343-.015625-.058594-.015625-.097657-.042969-.15625-.054687h-.011719c-.015625 0-.03125-.015626-.042969-.015626h-.015625c-.042968-.015624-.097656-.027343-.140625-.042968-.011719 0-.027343-.011719-.054687-.011719-.015625 0-.027344-.015625-.058594-.015625-.027344-.015625-.054688-.015625-.082031-.027344-.015625 0-.015625 0-.027344-.015625-.015625 0-.03125 0-.03125-.011719-.054687-.015624-.109375-.03125-.167969-.03125h-.054687c-.070313-.011718-.128907-.011718-.199219-.027343h-.054688c-.027343 0-.054687 0-.085937-.011719h-.054687c-.015626 0-.015626 0 0 0h-.210938c-.125 0-.238281 0-.351562.011719h-.042969c-.183594.015625-.351563.027343-.503907.070312-.113281.027344-.226562.058594-.324218.097657-.210938.085937-.421875.199218-.632813.351562-.097656.085938-.210937.171875-.308593.269531l-.042969.042969c-.042969.039062-.097657.097656-.140625.152344-.097656.113281-.199219.226562-.308594.351562-.015625.015625-.03125.042969-.042969.058594-.085937.109375-.167969.222656-.269531.351562-.039062.054688-.082031.125-.140625.195313-.070313.097656-.140625.210937-.210937.308594-.039063.070312-.082032.140625-.140626.210937-.097656.15625-.195312.308594-.292968.480469-.492188.800781-1.097656 1.855469-1.816406 3.148437-.363282.660157-.757813 1.363282-1.195313 2.179688 0 .015625-.011719.027344-.011719.042969-.210937.378906-.394531.730469-.578125 1.066406-.714843 1.367187-1.195312 2.421875-1.519531 3.234375v-13.570312c-.039062-.109376.042969-.195313.15625-.195313m8.703125 1.292969c.113281 0 .210937 0 .324219.015625h.042968c.789063.082031 1.546876.421875 2.152344.96875-.4375-.265625-.941406-.464844-1.449218-.546875l-.253907-.042969h-.027343c-.070313-.015625-.15625-.015625-.226563-.015625h-.335937c-.125.015625-.238282.03125-.367188.042969-.097656.015625-.179688.042969-.28125.070312-.53125.15625-.96875.480469-1.179688 1-.351562.828125-.054687 1.714844.4375 2.363281.238282.320313.53125.589844.8125.773438.03125.011719.042969.027344.070313.039062h.015625c.015625.015626.027344.015626.042969.015626.042969.027343.082031.042968.140625.070312.042968.015625.097656.042969.140625.054688.011719 0 .027343.015624.042969.015624l.167968.042969h.113282c.027343 0 .054687 0 .082031-.015625.042969 0 .070312-.011718.097656-.027344l.085937-.042968c.054688-.027344.097657-.070313.125-.113282.070313-.082031.113282-.195312.140626-.320312.042968-.242188 0-.507812-.070313-.789062.042969.097656.128906.238281.15625.308593.097656.253907.125.449219.097656.605469v.027344c-.011719.058594-.027343.113281-.054687.167968-.113282.226563-.367188.453126-.789063.804688-.40625.335938-.96875.800781-1.6875 1.488281-1.433593 1.378907-2.867187 3.503907-4.007812 5.316407-.5625.898437-1.066407 1.730468-1.433594 2.347656-.183594.308594-.351563.5625-.476563.746094-.058593.097656-.113281.167968-.15625.226562-.042968.054688-.085937.082031-.085937.082031-.335937.199219-.882813.238281-1.25.015625l-.015625-.015625c-.027344-.011719-.039062-.027343-.070312-.054687l-.011719-.015625-.085938-.082031c-.042969-.042969-.082031-.101563-.125-.15625-.070312-.097657-.113281-.210938-.140625-.324219-.015625-.042969-.015625-.097657-.027344-.152344-.03125-.199219-.015624-.480469.070313-.859375.082031-.378906.238281-.871094.476563-1.503906.070312-.183594.140624-.367188.238281-.578125.28125-.644531.648437-1.417969 1.113281-2.320313.222656-.449218.476562-.914062.757812-1.433594 0-.015624.015626-.015624.015626-.027343.449218-.816407.828124-1.535157 1.195312-2.195313.265625-.476562.519531-.941406.742188-1.347656.535156-.945312.984374-1.6875 1.367187-2.292969l.082031-.128906c.097656-.140625.183594-.28125.269532-.40625l.082031-.125c.113281-.15625.210937-.296875.324219-.421875.097656-.128906.195312-.226562.28125-.324219.070312-.070312.125-.140625.195312-.199219.101562-.097656.199219-.179687.3125-.25.195312-.15625.390625-.253906.601562-.324218.085938-.027344.15625-.058594.242188-.070313.039062-.015625.097656-.027343.152344-.027343.042968-.015626.085937-.015626.128906-.03125.082031-.011719.167969-.011719.25-.027344.128906.015625.269531 0 .421875 0m.550781.519531c.898438.042969 1.871094.421875 2.472656 1.042969.464844.816406.71875 1.757812.71875 2.753906 0 2.097656-1.140624 3.910156-2.828124 4.882812-.152344.082032-.210938.28125-.125.433594l2.925781 5.78125c.070312.125-.027344.28125-.167969.28125h-10.984375l.027344-.027344c.042969-.058593.097656-.140624.167969-.226562.128906-.183594.28125-.4375.464843-.730469 0-.015625.015625-.015625.015625-.027343.378906-.621094.871094-1.449219 1.433594-2.351563 1.125-1.769531 2.574219-3.894531 3.980469-5.242187.714843-.675782 1.265625-1.140626 1.671875-1.476563.410156-.351563.675781-.578125.816406-.84375.027344-.070313.054688-.128906.070312-.199219.042969-.210937.015626-.433594-.097656-.714844-.140625-.382812-.421875-.886718-.816406-1.617187-.015625-.03125-.027344-.042969-.054688-.042969-.03125 0-.042968.011719-.058593.027344 0 0-.476563.675781-1.167969 1.671875-.027344-.027344-.054688-.054687-.082031-.097656-.253907-.335938-.449219-.730469-.519531-1.136719 0-.042969-.015626-.070312-.015626-.113281-.042968-.324219-.015624-.648438.125-.972657.28125-.660156.945313-.984374 1.703126-1.023437.097656-.03125.210937-.03125.324218-.03125m-.324218 1.859375c.070312.125.28125.5625.421874 1.082031.085938.292969.140626.605469.113282.84375-.015625.113281-.042969.210938-.097656.28125-.058594.070313-.128907.113281-.242188.140625-.039062.011719-.082031.011719-.140625 0-.039063 0-.097656-.015625-.152344-.027344-.015625 0-.015625 0-.027343-.015624-.042969-.015626-.101563-.027344-.15625-.054688-.015626 0-.027344-.015625-.042969-.015625-.042969-.027344-.097657-.042969-.140625-.070313-.027344-.015624-.070313-.042968-.097656-.070312-.015626-.015625-.042969-.027344-.054688-.042969-.171875-.125-.339844-.265625-.492188-.449219.644532-.941406 1.066407-1.53125 1.109376-1.601562m-9.492188 11.683594" fill="#f33"/></svg>