<svg height="18" viewBox="0 0 18 18" width="18" xmlns="http://www.w3.org/2000/svg"><path d="m6.652344 17.71875c-2.265625-.59375-4.035156-1.917969-5.351563-4.007812-.480469-.769532-.492187-1.039063-.046875-1.582032.335938-.410156.355469-.414062 1.125-.234375.617188.140625.84375.277344 1.074219.652344.449219.726563 1.8125 1.949219 2.632813 2.359375 2.535156 1.273438 5.625.75 7.617187-1.289062.433594-.445313.875-1.019532.980469-1.277344.109375-.257813.246094-.46875.304687-.46875.058594 0 .234375.277344.386719.617187l.277344.617188.734375-.089844c.855469-.101563.855469-.074219.015625 1.191406-1.085938 1.636719-3.164063 3.0625-5.226563 3.582031-1.207031.308594-3.203125.273438-4.523437-.070312m0 0" fill="#6de1fa"/><path d="m6.75 11.402344c-1.160156-1.410156-2.25-2.835938-2.417969-3.167969l-.308593-.601563 2.492187-2.507812h4.8125l2.507813 2.523438-.335938.574218c-.410156.691406-4.382812 5.726563-4.53125 5.738282-.058594.003906-1.054688-1.148438-2.21875-2.558594m0 0" fill="#fe405f"/><path d="m15.625 11.945312c-.296875-.609374-.3125-.761718-.164062-1.355468.09375-.371094.140624-1.269532.105468-2-.054687-1.109375-.140625-1.488282-.535156-2.285156-.914062-1.863282-2.433594-3.152344-4.296875-3.65625l-.972656-.261719.390625-.511719c.386718-.507812.386718-.523438.136718-1.050781-.140624-.292969-.21875-.570313-.175781-.613281.164063-.164063 1.835938.308593 2.914063.820312 1.539062.734375 3.210937 2.394531 3.96875 3.945312.996094 2.039063 1.230468 4.128907.695312 6.21875-.164062.648438-.316406 1.1875-.335937 1.207032-.023438.015625-.34375.074218-.71875.128906l-.679688.097656zm0 0" fill="#97f0ff"/><path d="m.472656 11.992188c-.582031-1.523438-.589844-4.148438-.023437-5.816407 1.160156-3.417969 4.300781-5.875 7.796875-6.1015622l1.125-.0742188.6875 1.234375-.410156.574219c-.382813.535156-.488282.585937-1.515626.746094-1.519531.234374-2.632812.796874-3.71875 1.882812-1.835937 1.835938-2.359374 4.058594-1.613281 6.816406.089844.328125.0625.351563-.300781.261719l-.742188-.179687c-.273437-.066407-.425781.03125-.742187.476562l-.398437.5625zm0 0" fill="#40daf4"/></svg>