<svg height="18" viewBox="0 0 18 18" width="18" xmlns="http://www.w3.org/2000/svg"><g fill="#75aadb"><path d="m10.039062 5.457031c-.210937-.085937-.546874-.140625-.96875-.15625-.589843-.011719-1.265624.058594-1.292968.070313v2.8125c1.871094.085937 2.179687-.238282 2.179687-.238282 1.628907-.828124.605469-2.277343.082031-2.488281"/><path d="m9 0c-4.976562 0-9 4.023438-9 9s4.023438 9 9 9 9-4.023438 9-9-4.035156-9-9-9m4.023438 12.628906h-1.492188l-2.476562-3.699218h-1.265626v2.882812h1.265626v.816406h-3.21875v-.800781l1.070312-.015625-.015625-6.453125c-.113281-.03125-1.054687-.113281-1.054687-.113281v-.746094c.140624.140625 1.109374.167969 1.109374.167969.226563.015625.550782.027343.734376-.011719 1.304687-.242188 2.304687-.058594 2.304687-.058594 1.96875.449219 1.996094 2.222656 1.449219 3.179688-.492188.816406-1.449219 1.011718-1.449219 1.011718l2.023437 3.066407 1.015626-.015625zm0 0"/></g></svg>