<svg height="18" viewBox="0 0 18 18" width="18" xmlns="http://www.w3.org/2000/svg"><path d="m5.867188.769531-.714844 1.796875-4.550782 1.121094.003907 8.636719 3.464843 4.90625 3.363282-.429688h.015625l6.152343-.820312-.917968-1.765625h-8.898438v-10.429688h10.429688v9.246094l1.066406.007812 1.777344-9.050781-2.773438-3.21875-4.707031 1.6875zm-1.941407 3.15625v10.148438h10.148438v-10.148438zm5.023438 1.210938h.917969l1.015624 1.636719 1.019532-1.636719h.914062v3.867187h-.84375v-2.523437l-1.089844 1.648437h-.019531l-1.078125-1.632812v2.507812h-.835937zm-3.804688.007812h1.765625c.488282 0 .863282.128907 1.121094.390625.226562.234375.347656.554688.332031.882813v.011719c.011719.273437-.066406.539062-.230469.761718-.152343.199219-.359374.347656-.597656.433594l.945313 1.371094h-.992188l-.800781-1.183594h-.703125v1.1875h-.839844zm.84375.753907v1.109374l.867188.003907c.171875.007812.34375-.046875.476562-.15625.113281-.097657.175781-.246094.171875-.394531v-.011719c.011719-.15625-.050781-.3125-.171875-.414063-.144531-.097656-.316406-.148437-.492187-.136718zm-.847656 6.300781h3.855469v.640625h-3.855469zm0 0" fill="#fc801d"/></svg>