<svg height="18" viewBox="0 0 18 18" width="18" xmlns="http://www.w3.org/2000/svg"><path d="m6.535156.128906c-.496094-.019531-.980468.128906-1.347656.507813-.21875.226562-.402344.476562-.609375.703125-.234375.253906-.519531.46875-.84375.585937-.285156.109375-.566406.085938-.859375.136719-.296875.050781-.601562.15625-.84375.347656-.261719.214844-.371094.496094-.398438.824219-.027343.253906-.019531.515625-.035156.773437-.035156.75-.277344.964844-.816406 1.382813-.226562.171875-.417969.398437-.558594.640625-.425781.75.253906 1.53125.289063 2.292969.007812.15625-.007813.308593-.0625.460937-.058594.160156-.171875.269532-.261719.402344-.1289062.179688-.2148438.390625-.1796875.609375.0351563.222656.1484375.429687.2578125.621094.203125.339843.460937.644531.730469.933593.007812 0 .019531.011719.03125.019532.171875.523437.257812.710937.257812.710937-.003906-.007812-.007812-.039062-.015625-.070312.230469.5625.523438 1.105469.875 1.632812 1.847657 2.753907 4.839844 3.707031 4.839844 3.707031 4.4375 1.503907 7.46875-.710937 7.46875-.710937 2.789063-1.917969 3.347656-4.132813 3.347656-4.132813-2.25 1.761719-3.21875 1.597657-3.21875 1.597657 1.628907-.707031 2.324219-1.9375 2.324219-1.9375 1.527344-2.078125 1.011719-4.273438 1.011719-4.273438-.972657 2.117188-1.863281 2.699219-1.863281 2.699219 2.394531-3.640625.015624-5.84375.015624-5.84375.972657 2.074219-.320312 4.601562-.320312 4.601562-1.085938 2.285157-2.625 3.101563-2.625 3.101563 1.71875.320313 2.980469-.839844 2.980469-.839844-2.460938 2.664063-5.132813 2.535157-5.132813 2.535157 1.125 1.257812 2.804688 1.152343 2.804688 1.152343-2.199219.515625-4.265625-.214843-5.960938-1.628906-.320312-.261719-.625-.546875-.910156-.851563 0 0-.253906-.269531-.304688-.339843l-.007812-.007813c-.035156 1.316406 1.335938 2.535156 1.335938 2.535156-1.71875-.710937-2.503907-2.25-2.503907-2.25s-1.160156-1.972656-.320312-4.222656c.835937-2.25 3.371093-2.734375 3.371093-2.734375.078126.039063.15625.070313.234376.109375.085937.039063.171874.078125.257812.117188 1.871094.832031 3.375 1.109375 3.375 1.109375 3.742188.625 3.527344-1.207031 3.527344-1.207031.019531-.804688-.589844-1.628907-1.191406-2.25-.121094-.125-.246094-.246094-.375-.363282-.011719-.007812-.023438-.019531-.03125-.03125-.121094-.109375-.246094-.214844-.371094-.320312h-.003906c-.121094-.101563-.246094-.199219-.375-.292969-.21875-.160156-.441407-.308594-.667969-.449219-.039063-.027344-.082031-.054687-.121094-.078125-.019531-.011719-.042969-.023437-.0625-.035156-.773437-.457031-1.519531-.757813-2.226563-.9375-.027343-.007813-.054687-.015625-.082031-.019531-.082031-.023438-.164062-.042969-.246093-.058594-.59375-.132812-1.203126-.195312-1.8125-.1875-.023438-.023438-.226563-.21875-.367188-.3125-.40625-.269531-.910156-.449219-1.402344-.464844zm4.582032 3.628906c.113281 0 .222656.050782.292968.140626.074219.085937.101563.203124.082032.316406-.039063.175781-.195313.304687-.375.300781-.113282.003906-.222657-.046875-.296876-.136719-.070312-.085937-.101562-.203125-.082031-.316406.039063-.175781.195313-.304688.378907-.304688" fill="#df1c85"/></svg>