<svg height="18" viewBox="0 0 18 18" width="18" xmlns="http://www.w3.org/2000/svg"><path d="m9 .183594c-4.867188 0-8.816406 3.949218-8.816406 8.816406s3.949218 8.816406 8.816406 8.816406 8.816406-3.949218 8.816406-8.816406-3.949218-8.816406-8.816406-8.816406m0 17.351562c-4.710938 0-8.535156-3.824218-8.535156-8.535156s3.824218-8.535156 8.535156-8.535156 8.535156 3.824218 8.535156 8.535156-3.824218 8.535156-8.535156 8.535156m0-16.410156h.140625v1.265625h-.140625zm0 14.34375h.140625v1.265625h-.140625zm1.292969-14.175781.136719.023437-.21875 1.261719-.140626-.023437zm-2.585938 15.375-.136719-.023438.21875-1.261719.140626.023438zm3.890625-15.035157.132813.046876-.4375 1.203124-.132813-.050781zm-5.199218 14.695313-.132813-.046875.441406-1.203125.128907.046875zm1.316406-15.042969.222656 1.261719-.140625.023437-.21875-1.257812zm2.570312 15.390625-.21875-1.261719.136719-.023437.222656 1.261719zm-3.886718-15.054687.4375 1.203125-.132813.046875-.4375-1.203125zm5.199218 14.707031-.4375-1.199219.132813-.050781.4375 1.203125zm-6.441406-14.132813.640625 1.105469-.121094.070313-.644531-1.105469zm7.691406 13.578126-.636718-1.109376.121093-.070312.636719 1.109375zm-8.804687-12.820313.820312.980469-.105469.089844-.824218-.980469zm9.917969 12.046875-.824219-.980469.109375-.089843.820312.980468zm-10.894532-11.09375.980469.824219-.089844.105469-.980469-.820313zm11.863282 10.140625-.980469-.824219.089843-.105468.980469.820312zm-12.644532-9.023437 1.109375.640624-.070312.121094-1.109375-.640625zm13.425782 7.921874-1.105469-.640624.070312-.121094 1.105469.640625zm-14.019532-6.691406 1.203125.4375-.050781.132813-1.199219-.4375zm14.617188 5.457032-1.203125-.4375.046875-.132813 1.203125.4375zm-14.976563-4.15625 1.257813.222656-.023438.136718-1.261718-.222656zm15.335938 2.851562-1.261719-.21875.023438-.140625 1.261718.222656zm-15.402344-1.546875h1.265625v.140625h-1.265625zm14.34375 0h1.265625v.140625h-1.265625zm-14.304687 1.40625 1.261718-.222656.023438.140625-1.261719.21875zm15.390624-2.570313-1.261718.222657-.023438-.140625 1.257813-.21875zm-15.046874 3.890626 1.199218-.4375.050782.132812-1.203126.4375zm14.703124-5.210938-1.203124.4375-.046876-.132812 1.203126-.4375zm-14.140624 6.4375 1.109374-.636719.070313.121094-1.109375.636719zm13.574218-7.664062-1.105468.636718-.070313-.121094 1.105469-.640624zm-11.832031 7.976562.089844.109375-.980469.824219-.089844-.109375zm11.070313-9.097656-.980469.820312-.089844-.105468.980469-.824219zm-11.089844 10.890625.820312-.980469.109375.089844-.824219.980468zm10.136718-11.863281-.820312.980468-.109375-.089844.820313-.980468zm-9.027343 12.648437.640625-1.109375.125.070312-.644532 1.109376zm7.917969-13.449219-.640626 1.109375-.121093-.070312.640625-1.109375zm-4.574219-1.050781.058593.6875-.140624.011719-.058594-.683594zm1.230469 15.546875-.0625-.6875.140624-.011719.0625.6875zm-2.570313-15.320312.183594.679687-.136719.035156-.183594-.679687zm3.902344 15.109374-.183594-.679687.136719-.035156.183594.679687zm-5.179688-14.660156.296875.636719-.128906.058594-.296875-.636719zm6.46875 14.203125-.300781-.636719.128906-.058593.296875.632812zm-7.664062-13.53125.402343.578125-.113281.082032-.402343-.578126zm8.847656 12.863281-.402344-.578124.117188-.082032.402343.578125zm-9.894531-12.003906.488281.488282-.101563.101562-.488281-.488281zm10.945312 11.132813-.488281-.488281.101563-.101563.488281.488281zm-11.828125-10.089844.578125.402344-.082031.113281-.578125-.402344zm12.714844 9.058594-.578125-.402344.082031-.113281.574219.402344zm-13.402344-7.886719.636719.296875-.058594.128906-.636718-.296875zm14.089844 6.714844-.636719-.300782.0625-.125.632813.300782zm-14.566406-5.453125.679687.179687-.039062.136719-.675782-.183594zm15.035156 4.179687-.679687-.183594.039062-.136718.675781.183594zm-15.285156-2.84375.6875.0625-.011719.140625-.6875-.0625zm15.535156 1.507813-.6875-.0625.015625-.136719.683594.058594zm-15.546875-.136719.6875-.0625.011719.140625-.6875.0625zm15.558594-1.21875-.683594.0625-.011719-.140625.683594-.0625zm-15.335938 2.5625.679688-.183594.039062.136719-.679687.183594zm15.113282-3.902344-.679688.179688-.039062-.132813.679687-.183593zm-14.652344 5.183594.636718-.296875.0625.128906-.640624.296875zm14.1875-6.476562-.636719.296874-.0625-.128906.640625-.296875zm-13.519532 7.660156.578126-.402344.078124.117188-.574218.398437zm12.859376-8.847656-.574219.402343-.082031-.113281.578124-.402344zm-10.847657 10.855468-.113281-.078125.398438-.578125.117187.082032zm8.832031-12.855468.117188.078124-.40625.578126-.113281-.082032zm-7.648437 13.527343-.128906-.058593.300781-.636719.128906.058593zm6.46875-14.195312.125.0625-.300781.632812-.125-.058593zm-5.1875 14.640625-.136719-.035156.183594-.679688.132812.035156zm3.902344-15.101563.136719.039063-.183594.675781-.136719-.035156zm-2.5625 15.328125-.140625-.011718.0625-.6875.136718.011718zm1.21875-15.550781.140625.011719-.058594.6875-.140625-.011719zm-1.335938 7.066406-5.230469 6.652344 6.777344-5.105469 5.105469-6.777344zm0 0" fill="#1b88ca"/></svg>