<svg height="18" viewBox="0 0 18 18" width="18" xmlns="http://www.w3.org/2000/svg"><path d="m9 .210938c-4.851562 0-8.789062 3.9375-8.789062 8.789062s3.9375 8.789062 8.789062 8.789062 8.789062-3.9375 8.789062-8.789062-3.9375-8.789062-8.789062-8.789062m7.875 8.140624-.703125.058594-.015625-.140625.703125-.058593zm0 .507813v.140625h-1.265625v-.140625zm-.085938-1.179687-1.277343.222656-.027344-.140625 1.277344-.222657zm-.140624-.675782-.6875.183594-.042969-.140625.691406-.183594zm-.195313-.660156-1.210937.449219-.039063-.128907 1.207031-.449218zm-.253906-.648438-.632813.296876-.054687-.128907.632812-.292969zm-.324219-.605468-1.125.648437-.070312-.128906 1.125-.644531zm-.433594-.703125.082032.113281-.574219.40625-.085938-.109375zm-.339844-.433594-.996093.828125-.085938-.113281 1-.828125zm-.96875-.984375-.828124.996094-.113282-.082032.828125-1zm-.660156-.507812.113282.085937-.410157.574219-.113281-.082032zm-.449218-.296876-.648438 1.125-.125-.070312.644531-1.125zm-.746094-.378906.125.058594-.292969.632812-.128906-.058593zm-.632813-.253906.125.042969-.449219 1.210937-.125-.042968zm-.660156-.210938.140625.042969-.183594.691407-.140625-.042969zm-.675781-.140624.140625.03125-.226563 1.277343-.140625-.027343zm-.691406-.082032.140624.011719-.054687.703125-.140625-.011719zm-.757813.027344h.140625v1.265625h-.140625zm-.476563-.027344.054688.703125-.140625.011719-.054687-.703125zm-.691406.082032.226563 1.28125-.140625.027343-.226563-1.277343zm-.675781.140624.183594.691407-.140625.042969-.167969-.691407zm-.660156.210938.449219 1.210938-.125.042968-.449219-1.210937zm-.632813.253906.296875.632813-.128906.058593-.292969-.632812zm-.617187.308594.644531 1.125-.125.070312-.648438-1.125zm-.578125.367188.410156.578124-.113281.082032-.410157-.574219zm-.546875.421874.828125 1-.113282.082032-.828124-.996094zm-.519531.449219.492187.492188-.101563.113281-.492187-.492188zm-.480469.507813 1 .828125-.085938.113281-.996093-.828125zm-.421875.546875.578125.410156-.085938.109375-.574219-.40625zm-.363282.578125 1.125.644531-.085937.128906-1.125-.648437zm-.324218.605468.632812.292969-.058594.128907-.632812-.296876zm-.269532.644532 1.210938.449218-.042969.128907-1.222656-.449219zm-.222656.648437.6875.183594-.042968.140625-.6875-.183594zm-.15625.675781 1.28125.222657-.027344.140625-1.28125-.222656zm-.097656.6875.703125.054688-.015625.140625-.703125-.054687zm1.265625.632813v.140625h-1.265625v-.140625zm-1.265625.746094.703125-.058594.015625.140625-.703125.058594zm.085938.675781 1.277343-.226562.027344.140624-1.277344.226563zm.140624.671875.6875-.179687.042969.140624-.691406.179688zm.195313.664063 1.210937-.453126.039063.128907-1.207031.449219zm.253906.644531.632813-.292969.054687.125-.632812.296875zm.324219.621093 1.125-.648437.070312.125-1.125.648437zm.433594.6875-.082032-.113281.574219-.40625.085938.113281zm1.335937-.394531.085938.113281-1 .828126-.082031-.109376zm-.027343 1.816407.828124-1 .113282.085937-.828125.996094zm.660156.503906-.113282-.082032.410157-.578124.113281.085937zm.449218.296875.648438-1.125.125.070312-.644531 1.125zm.746094.378906-.125-.054687.292969-.632813.128906.054687zm.632813.265625-.125-.039062.449219-1.210938.125.042969zm.660156.199219-.140625-.042969.183594-.6875.140625.039062zm.675781.140625-.140625-.027344.226563-1.28125.140625.027344zm.691406.082031-.140624-.011719.054687-.703125.140625.011719zm.617188.015625h-.140625v-1.265625h.140625zm.617188-.015625-.054688-.703125.140625-.011719.054687.703125zm-6.664063-1.855469 5.300781-6.75 6.75-5.300781-5.175781 6.875zm7.355469 1.773438-.226563-1.28125.140625-.027344.226563 1.28125zm.675781-.140625-.183594-.691407.140625-.039062.167969.6875zm.660156-.199219-.449219-1.207031.125-.042969.449219 1.210938zm.632813-.265625-.296875-.632813.128906-.054687.292969.632813zm.617187-.308594-.644531-1.125.125-.070312.648438 1.125zm.578125-.367187-.410156-.574219.113281-.085937.410157.578124zm.546875-.40625-.828125-1 .113282-.082032.828124.996094zm.519531-.464844-.492187-.492188.101563-.097656.492187.492188zm.480469-.507812-1-.828126.085938-.113281.996093.832031zm.421875-.546876-.578125-.40625.085938-.113281.574219.40625zm.363282-.578124-1.125-.644532.070312-.128906 1.125.648438zm.324218-.601563-.632812-.296875.058594-.125.632812.292969zm.269532-.632813-1.210938-.453124.042969-.125 1.207031.449218zm.222656-.664062-.6875-.179688.042968-.140624.6875.179687zm.15625-.671875-1.28125-.226563.027344-.140624 1.28125.226562zm.097656-.675781-.703125-.058594.015625-.140625.703125.058594zm0 0" fill="#1b88ca"/></svg>