<svg height="18" viewBox="0 0 18 18" width="18" xmlns="http://www.w3.org/2000/svg"><path d="m7.453125 4.421875c.5625-.582031 1.339844-.945313 2.199219-.945313 1.144531 0 2.144531.640626 2.675781 1.585938.476563-.210938.992187-.320312 1.511719-.320312 2.066406 0 3.738281 1.6875 3.738281 3.769531s-1.671875 3.773437-3.738281 3.773437c-.25 0-.496094-.027344-.738282-.074218-.464843.835937-1.359374 1.398437-2.382812 1.398437-.429688 0-.835938-.097656-1.195312-.273437-.476563 1.113281-1.582032 1.898437-2.871094 1.898437-1.34375 0-2.484375-.851563-2.925782-2.039063-.191406.039063-.390624.058594-.59375.058594-1.597656 0-2.894531-1.308594-2.894531-2.921875 0-1.082031.582031-2.027343 1.449219-2.53125-.183594-.421875-.28125-.878906-.277344-1.339843 0-1.855469 1.507813-3.363282 3.367188-3.363282 1.089844 0 2.0625.519532 2.675781 1.324219" fill="#00a1e0"/><g fill="#fff"><path d="m2.75 9.390625c-.011719.027344.003906.035156.007812.039063.03125.023437.066407.042968.097657.0625.179687.09375.34375.121093.519531.121093.355469 0 .578125-.191406.578125-.496093v-.003907c0-.28125-.25-.382812-.484375-.457031l-.03125-.011719c-.175781-.054687-.328125-.105469-.328125-.222656v-.003906c0-.101563.085937-.171875.226563-.171875.152343 0 .332031.050781.449218.113281 0 0 .035156.023437.046875-.011719.007813-.015625.066407-.175781.070313-.191406.007812-.019531-.003906-.035156-.015625-.039062-.132813-.082032-.316407-.136719-.507813-.136719h-.035156c-.324219 0-.554688.195312-.554688.476562v.003907c0 .296874.25.394531.484376.464843l.039062.007813c.171875.054687.320312.101562.320312.21875v.007812c0 .109375-.097656.191406-.25.191406-.0625 0-.253906 0-.460937-.132812-.023437-.011719-.039063-.023438-.058594-.035156-.007812-.007813-.035156-.019532-.046875.015625zm5.207031 0c-.011719.027344.003907.035156.007813.039063.03125.023437.066406.042968.097656.0625.179688.09375.34375.121093.519531.121093.355469 0 .578125-.191406.578125-.496093v-.003907c0-.28125-.25-.382812-.484375-.457031l-.03125-.011719c-.175781-.054687-.328125-.105469-.328125-.222656v-.003906c0-.101563.085938-.171875.226563-.171875.152343 0 .332031.050781.449219.113281 0 0 .035156.023437.046874-.011719.007813-.015625.066407-.175781.070313-.191406.007813-.019531-.003906-.035156-.015625-.039062-.132812-.082032-.316406-.136719-.507812-.136719h-.035157c-.324219 0-.554687.195312-.554687.476562v.003907c0 .296874.25.394531.488281.464843l.035156.007813c.171875.054687.320313.101562.320313.21875v.007812c0 .109375-.097656.191406-.25.191406-.0625 0-.253906 0-.457032-.132812-.027343-.011719-.042968-.023438-.0625-.035156-.003906-.003906-.035156-.015625-.042968.015625zm3.554688-.597656c0 .171875-.03125.308593-.097657.40625-.058593.09375-.15625.140625-.285156.140625-.132812 0-.226562-.046875-.289062-.140625-.0625-.097657-.09375-.234375-.09375-.40625 0-.167969.03125-.304688.09375-.402344.0625-.09375.15625-.136719.289062-.136719.132813 0 .226563.042969.289063.136719.0625.097656.09375.230469.09375.402344m.296875-.316407c-.03125-.097656-.074219-.1875-.136719-.257812-.058594-.074219-.136719-.132812-.226563-.171875-.089843-.042969-.199218-.066406-.316406-.066406-.121094 0-.230468.023437-.320312.066406-.089844.039063-.167969.097656-.226563.171875-.058593.074219-.105469.160156-.136719.257812-.027343.097657-.042968.203126-.042968.316407 0 .117187.015625.222656.042968.320312.03125.097657.078126.1875.136719.257813.058594.074218.136719.132812.226563.171875.09375.039062.199218.0625.320312.0625s.226563-.023438.316406-.0625c.089844-.039063.167969-.101563.226563-.171875.0625-.070313.105469-.160156.136719-.257813.027344-.097656.042968-.203125.042968-.320312 0-.113281-.015624-.21875-.042968-.316407m2.4375.816407c-.007813-.03125-.039063-.019531-.039063-.019531-.042969.019531-.085937.03125-.136719.039062-.046874.007812-.101562.011719-.164062.011719-.140625 0-.253906-.042969-.339844-.125-.082031-.085938-.125-.222657-.125-.40625 0-.167969.039063-.296875.113282-.390625.070312-.097656.179687-.144532.328124-.144532.121094 0 .214844.011719.3125.042969 0 0 .023438.011719.035157-.019531.027343-.074219.046875-.125.074219-.203125.007812-.023437-.011719-.03125-.019532-.035156-.035156-.015625-.128906-.039063-.199218-.050781-.0625-.007813-.136719-.015626-.21875-.015626-.125 0-.238282.023438-.332032.0625-.09375.042969-.175781.101563-.238281.175782-.066406.074218-.113281.160156-.144531.257812-.035156.097656-.050782.203125-.050782.316406 0 .246094.066407.445313.199219.59375.132813.144532.328125.21875.585938.21875.152343 0 .308593-.03125.421875-.074218 0 0 .019531-.011719.011718-.035156zm.519531-.664063c.015625-.097656.042969-.175781.082031-.238281.0625-.09375.15625-.144531.289063-.144531.132812 0 .21875.050781.28125.144531.039062.0625.058593.144531.066406.238281zm1-.210937c-.027344-.09375-.085937-.191407-.128906-.234375-.066407-.070313-.128907-.117188-.191407-.144532-.089843-.039062-.191406-.058593-.289062-.058593-.125 0-.238281.023437-.332031.066406s-.167969.101563-.230469.175781c-.0625.074219-.109375.164063-.136719.261719-.03125.097656-.042969.207031-.042969.320313 0 .113281.015626.222656.042969.320312.03125.097656.082031.183594.148438.257812.066406.070313.148437.125.25.164063.101562.039063.226562.0625.367187.0625.289063-.003906.441406-.066406.503906-.101563.011719-.003906.023438-.015624.007813-.046874l-.066406-.183594c-.007813-.027344-.035157-.019532-.035157-.019532-.074218.027344-.175781.074219-.414062.074219-.15625 0-.269531-.046875-.34375-.117187-.074219-.074219-.109375-.179688-.113281-.335938l1.003906.003906s.027344 0 .03125-.027343c0-.015625.035156-.210938-.03125-.4375m-9.046875.210937c.011719-.097656.039062-.175781.082031-.238281.058594-.09375.152344-.144531.285157-.144531.132812 0 .21875.050781.28125.144531.039062.0625.058593.144531.066406.238281zm1-.210937c-.027344-.09375-.089844-.191407-.128906-.234375-.066406-.070313-.128906-.117188-.191406-.144532-.089844-.039062-.1875-.058593-.289063-.058593-.125 0-.238281.023437-.332031.066406s-.167969.101563-.230469.175781c-.0625.074219-.109375.164063-.136719.261719-.03125.097656-.042968.207031-.042968.320313 0 .113281.015624.222656.042968.320312.03125.097656.082032.183594.148438.257812.066406.070313.148437.125.25.164063.101562.039063.226562.0625.367187.0625.289063-.003906.441407-.066406.503907-.101563.011718-.003906.023437-.015624.007812-.046874l-.0625-.183594c-.011719-.027344-.039062-.019532-.039062-.019532-.074219.027344-.175782.074219-.414063.074219-.15625 0-.269531-.046875-.339844-.117187-.078125-.074219-.113281-.179688-.117187-.335938l1.003906.003906s.027344 0 .03125-.027343c0-.015625.03125-.210938-.03125-.4375m-3.171875.867187c-.042969-.027344-.046875-.039062-.058594-.058594-.019531-.03125-.03125-.074218-.03125-.128906 0-.089844.03125-.152344.089844-.195312 0 0 .085937-.074219.292969-.074219.140625.003906.273437.027344.273437.027344v.457031s-.128906.023438-.273437.035156c-.203125.011719-.292969-.0625-.292969-.0625m.398437-.703125c-.039062-.003906-.09375-.003906-.15625-.003906-.085937 0-.167968.011719-.25.03125-.078124.019531-.148437.054687-.207031.097656-.0625.042969-.109375.097657-.148437.164063-.035156.066406-.050782.144531-.050782.234375 0 .085937.015626.164062.046876.226562.027343.066407.074218.117188.128906.160157.054687.039062.125.070312.207031.085937.078125.019531.167969.027344.265625.027344.101562 0 .203125-.007813.304688-.023438.097656-.019531.21875-.042969.253906-.050781.03125-.007812.070312-.019531.070312-.019531.023438-.003907.019532-.03125.019532-.03125v-.917969c0-.203125-.050782-.351562-.160157-.445312-.105469-.089844-.257812-.136719-.460937-.136719-.074219 0-.195313.007812-.269532.023437 0 0-.21875.042969-.308593.113282 0 0-.019531.011718-.007813.039062l.070313.191406c.011719.023438.035156.015625.035156.015625s.007813 0 .015625-.007812c.195312-.105469.4375-.101563.4375-.101563.109375 0 .191406.019532.25.0625.054688.042969.082031.105469.082031.242188v.039062c-.089843-.007812-.167969-.015625-.167969-.015625m8.105469-.519531c.007813-.011719 0-.03125-.015625-.035156-.015625-.007813-.101562-.027344-.167968-.03125-.125-.003906-.195313.015625-.257813.042968-.0625.027344-.132813.074219-.171875.125v-.121093c0-.015625-.011719-.03125-.027344-.03125h-.257812c-.019532 0-.03125.015625-.03125.03125v1.5c0 .015625.015625.03125.03125.03125h.265625c.015625 0 .03125-.015625.03125-.03125v-.75c0-.101563.011719-.203125.03125-.265625.023437-.0625.054687-.113282.089843-.148438.035157-.035156.078126-.058594.125-.074218.046876-.011719.097657-.019532.132813-.019532.054687 0 .113281.015625.113281.015625.019532 0 .027344-.011719.035156-.027343.015626-.046876.066407-.183594.074219-.210938"/><path d="m10.570312 7.367188c-.03125-.007813-.058593-.015626-.097656-.023438-.039062-.007812-.085937-.007812-.136718-.007812-.179688 0-.324219.050781-.425782.152343-.101562.101563-.167968.253907-.203125.457031l-.011719.066407h-.226562s-.03125 0-.035156.027343l-.039063.210938c-.003906.019531.007813.03125.03125.03125h.222657l-.222657 1.257812c-.019531.101563-.039062.183594-.0625.25-.023437.058594-.042969.105469-.070312.140626-.023438.035156-.046875.058593-.089844.070312-.035156.011719-.074219.019531-.117187.019531-.027344 0-.058594-.003906-.082032-.011719-.023437-.003906-.035156-.007812-.054687-.015624 0 0-.023438-.007813-.035157.015624-.007812.023438-.070312.183594-.074218.203126-.007813.019531 0 .035156.015625.042968.027343.007813.050781.015625.089843.027344.054688.011719.101563.011719.148438.011719.09375 0 .175781-.011719.246094-.039063.070312-.023437.128906-.070312.183594-.128906.058593-.0625.097656-.128906.132812-.222656s.0625-.207032.085938-.339844l.226562-1.28125h.332031s.027344.003906.035157-.027344l.035156-.210937c.003906-.019531-.003906-.03125-.03125-.03125h-.320313c0-.007813.015625-.121094.050781-.226563.015626-.046875.046876-.082031.070313-.105468.027344-.027344.054687-.042969.085937-.054688.03125-.007812.066407-.015625.109376-.015625.027343 0 .058593.003906.082031.007813.03125.007812.042969.011718.050781.015624.03125.007813.039062 0 .042969-.015624l.078125-.210938c.007812-.023438-.011719-.035156-.019532-.039062m-4.488281 2.175781c0 .015625-.011719.03125-.027343.03125h-.269532c-.015625 0-.027344-.015625-.027344-.03125v-2.144531c0-.019532.011719-.03125.027344-.03125h.269532c.015624 0 .027343.011718.027343.03125zm0 0"/></g></svg>