<svg height="18" viewBox="0 0 18 18" width="18" xmlns="http://www.w3.org/2000/svg"><path d="m4.777344 3.097656c-1.859375 0-3.367188 1.507813-3.367188 3.363282 0 .476562.097656.929687.277344 1.339843-.898438.523438-1.453125 1.488281-1.449219 2.53125 0 1.613281 1.296875 2.921875 2.894531 2.921875.203126 0 .402344-.019531.59375-.058594.441407 1.1875 1.582032 2.039063 2.925782 2.039063 1.289062 0 2.394531-.785156 2.871094-1.898437.371093.179687.78125.273437 1.195312.273437 1.023438 0 1.917969-.5625 2.382812-1.398437.242188.046874.488282.074218.738282.074218 2.066406 0 3.738281-1.691406 3.738281-3.773437s-1.671875-3.769531-3.738281-3.769531c-.539063 0-1.046875.113281-1.511719.320312-.53125-.945312-1.53125-1.585938-2.675781-1.585938-.859375 0-1.636719.363282-2.199219.945313-.613281-.804687-1.585937-1.324219-2.675781-1.324219m5.558594 4.238282c.050781 0 .097656 0 .136718.007812.039063.007812.066406.015625.097656.023438.007813.003906.027344.015624.019532.039062l-.078125.210938c-.003907.015624-.011719.023437-.042969.015624-.007812-.003906-.019531-.007812-.050781-.015624-.027344-.003907-.054688-.007813-.082031-.007813-.042969 0-.078126.007813-.109376.015625-.03125.011719-.058593.027344-.085937.054688-.023437.023437-.054687.058593-.070313.105468-.035156.105469-.050781.21875-.050781.226563h.320313c.027344 0 .035156.011719.03125.03125l-.035156.210937c-.007813.03125-.035157.027344-.035157.027344h-.332031l-.226562 1.28125c-.023438.132812-.050782.246094-.085938.339844s-.074219.160156-.132812.222656c-.054688.058594-.113282.105469-.183594.128906-.070313.027344-.152344.039063-.246094.039063-.046875 0-.09375 0-.148438-.011719-.03125-.007812-.0625-.019531-.089843-.027344-.015625-.007812-.023438-.023437-.015625-.042968.003906-.019532.066406-.179688.074218-.203126.011719-.023437.035157-.015624.035157-.015624.019531.007812.03125.011718.054687.015624.023438.007813.054688.011719.082032.011719.042968 0 .082031-.007812.117187-.019531.042969-.011719.066406-.035156.089844-.070312.027343-.035157.046875-.082032.070312-.140626.023438-.066406.042969-.148437.0625-.25l.222657-1.257812h-.222657c-.023437 0-.035156-.011719-.03125-.03125l.039063-.210938c.003906-.027343.035156-.027343.035156-.027343h.226562l.011719-.066407c.035157-.203124.101563-.355468.203125-.457031.101563-.101562.246094-.152343.425782-.152343m-4.550782.03125h.269532c.015624 0 .027343.011718.027343.03125v2.144531c0 .015625-.011719.03125-.027343.03125h-.269532c-.015625 0-.027344-.015625-.027344-.03125v-2.144531c0-.019532.011719-.03125.027344-.03125m8.082032.609374c.082031 0 .15625.007813.21875.015626.070312.011718.164062.035156.199218.050781.007813.003906.027344.011719.019532.035156-.027344.078125-.046876.128906-.074219.203125-.011719.03125-.035157.019531-.035157.019531-.097656-.03125-.191406-.042969-.3125-.042969-.148437 0-.257812.046876-.328124.144532-.074219.09375-.113282.222656-.113282.390625 0 .183593.042969.320312.125.40625.085938.082031.199219.125.339844.125.0625 0 .117188-.003907.164062-.011719.050782-.007812.09375-.019531.136719-.039062 0 0 .03125-.011719.039063.019531l.074218.199219c.007813.023437-.011718.035156-.011718.035156-.113282.042968-.269532.074218-.421875.074218-.257813 0-.453125-.074218-.585938-.21875-.132812-.148437-.199219-.347656-.199219-.59375 0-.113281.015626-.21875.050782-.316406.03125-.097656.078125-.183594.144531-.257812.0625-.074219.144531-.132813.238281-.175782.09375-.039062.207032-.0625.332032-.0625m-10.523438.003907h.035156c.191406 0 .375.054687.507813.136719.011719.003906.023437.019531.015625.039062-.003906.015625-.0625.175781-.070313.191406-.011719.035156-.046875.011719-.046875.011719-.117187-.0625-.296875-.113281-.449218-.113281-.140626 0-.226563.070312-.226563.171875v.003906c0 .117187.152344.167969.328125.222656l.03125.011719c.234375.074219.484375.175781.484375.457031v.003907c0 .304687-.222656.496093-.578125.496093-.175781 0-.339844-.027343-.519531-.121093-.03125-.019532-.066407-.039063-.097657-.0625-.003906-.003907-.019531-.011719-.007812-.039063l.066406-.191406c.011719-.035157.039063-.023438.046875-.015625.019531.011718.035157.023437.058594.035156.207031.132812.398437.132812.460937.132812.152344 0 .25-.082031.25-.191406v-.007812c0-.117188-.148437-.164063-.320312-.21875l-.039062-.007813c-.234376-.070312-.484376-.167969-.484376-.464843v-.003907c0-.28125.230469-.476562.554688-.476562m1.464844 0c.203125 0 .355468.046875.460937.136719.109375.09375.160157.242187.160157.445312v.917969s.003906.027343-.019532.03125c0 0-.039062.011719-.070312.019531-.035156.007812-.15625.03125-.253906.050781-.101563.015625-.203126.023438-.304688.023438-.089844 0-.179688-.007813-.265625-.027344-.082031-.015625-.152344-.046875-.207031-.085937-.054688-.042969-.101563-.09375-.128906-.160157-.03125-.0625-.046876-.140625-.046876-.226562 0-.089844.015626-.167969.050782-.234375.039062-.066406.085937-.121094.148437-.164063.058594-.042969.128907-.078125.207031-.097656.082032-.019531.164063-.03125.25-.03125.0625 0 .117188 0 .15625.003906 0 0 .078126.007813.167969.015625v-.039062c0-.136719-.027343-.199219-.082031-.242188-.058594-.042968-.140625-.0625-.25-.0625 0 0-.242188-.003906-.4375.101563-.007812.007812-.015625.007812-.015625.007812s-.023437.007813-.035156-.015625l-.070313-.191406c-.011718-.027344.007813-.039062.007813-.039062.089843-.070313.308593-.113282.308593-.113282.074219-.015625.195313-.023437.269532-.023437m3.742187 0h.035157c.191406 0 .375.054687.507812.136719.011719.003906.023438.019531.015625.039062-.003906.015625-.0625.175781-.070313.191406-.011718.035156-.046874.011719-.046874.011719-.117188-.0625-.296876-.113281-.449219-.113281-.140625 0-.226563.070312-.226563.171875v.003906c0 .117187.152344.167969.328125.222656l.03125.011719c.234375.074219.484375.175781.484375.457031v.003907c0 .304687-.222656.496093-.578125.496093-.175781 0-.339843-.027343-.519531-.121093-.03125-.019532-.066406-.039063-.097656-.0625-.003906-.003907-.019532-.011719-.007813-.039063l.070313-.191406c.007812-.03125.039062-.019531.042968-.015625.019532.011718.035157.023437.0625.035156.203126.132812.394532.132812.457032.132812.152344 0 .25-.082031.25-.191406v-.007812c0-.117188-.148438-.164063-.320313-.21875l-.035156-.007813c-.238281-.070312-.488281-.167969-.488281-.464843v-.003907c0-.28125.230468-.476562.554687-.476562m-1.441406 0c.109375 0 .207031.023437.289063.058593.0625.027344.125.074219.191406.144532.039062.042968.101562.140625.128906.234375.0625.226562.03125.421875.03125.4375-.003906.027343-.03125.027343-.03125.027343l-1.003906-.003906c.003906.15625.039062.261719.117187.335938.070313.070312.183594.117187.339844.117187.238281 0 .339844-.046875.414063-.074219 0 0 .027343-.007812.039062.019532l.0625.183594c.015625.03125.003906.042968-.007812.046874-.0625.035157-.214844.097657-.503907.101563-.140625 0-.265625-.023437-.367187-.0625-.101563-.039063-.183594-.09375-.25-.164063-.066406-.074218-.117188-.164062-.148438-.257812-.03125-.105469-.042968-.210938-.042968-.320312 0-.113282.011718-.222657.042968-.320313.027344-.097656.074219-.1875.136719-.261719.0625-.074218.136719-.132812.230469-.175781s.207031-.066406.332031-.066406m4.019531 0c.117188 0 .226563.023437.316406.066406.089844.039063.167969.097656.226563.171875.0625.070312.105469.160156.136719.257812.027344.097657.042968.203126.042968.316407 0 .117187-.015624.222656-.042968.320312-.03125.097657-.074219.1875-.136719.257813-.058594.070312-.136719.132812-.226563.171875-.089843.039062-.195312.0625-.316406.0625s-.226562-.023438-.320312-.0625c-.085938-.039063-.164063-.097657-.226563-.171875-.058593-.070313-.105469-.160156-.136719-.257813-.027343-.101562-.042968-.210937-.042968-.320312 0-.113281.015625-.21875.042968-.316407.03125-.097656.078126-.183593.136719-.257812.058594-.074219.136719-.132812.226563-.171875.089844-.042969.199218-.066406.320312-.066406m4.027344 0c.109375 0 .207031.023437.289062.058593.0625.027344.125.074219.191407.144532.042969.042968.101562.140625.128906.234375.066406.226562.03125.421875.03125.4375-.003906.027343-.03125.027343-.03125.027343l-1.003906-.003906c.003906.15625.039062.261719.113281.335938.074219.070312.1875.117187.34375.117187.238281 0 .339844-.046875.414062-.074219 0 0 .027344-.007812.035157.019532l.066406.183594c.015625.03125.003906.042968-.007813.046874-.0625.035157-.214843.097657-.503906.101563-.140625 0-.265625-.023437-.367187-.0625-.101563-.039063-.183594-.09375-.25-.164063-.066407-.074218-.117188-.160156-.148438-.257812-.03125-.105469-.046875-.210938-.042969-.320312 0-.113282.011719-.222657.042969-.320313.027344-.097656.074219-.1875.136719-.261719.0625-.074218.136719-.132812.230469-.175781s.207031-.066406.332031-.066406m-2.375.015625h.085938c.066406.003906.152343.023437.167968.03125.007813.003906.023438.011718.015625.035156-.007812.027344-.058593.164062-.074219.210938-.007812.015624-.015624.027343-.035156.027343 0 0-.058594-.015625-.113281-.015625-.035156 0-.085937.007813-.132813.019532-.046874.015624-.089843.039062-.125.074218-.035156.035156-.066406.085938-.089843.148438-.019531.0625-.03125.164062-.03125.265625v.75c0 .015625-.015625.03125-.03125.03125h-.265625c-.015625 0-.03125-.015625-.03125-.03125v-1.5c0-.015625.011718-.03125.03125-.03125h.257812c.015625 0 .027344.015625.027344.03125v.121093c.039062-.050781.109375-.097656.171875-.125.046875-.019531.097656-.039062.171875-.042968m-5.695312.25c-.132813 0-.226563.050781-.285157.144531-.042969.0625-.070312.140625-.082031.238281h.714844c-.007813-.09375-.027344-.175781-.066406-.238281-.0625-.09375-.148438-.144531-.28125-.144531zm8.050781 0c-.132813 0-.226563.050781-.289063.144531-.039062.0625-.066406.140625-.082031.238281h.71875c-.007813-.09375-.027344-.175781-.066406-.238281-.0625-.09375-.152344-.144531-.28125-.144531zm-4.007813.007812c-.132812 0-.226562.042969-.289062.136719-.0625.097656-.09375.230469-.09375.402344s.03125.308593.09375.40625c.0625.09375.15625.140625.289062.140625.128906 0 .226563-.046875.285156-.140625.066407-.097657.097657-.234375.097657-.40625s-.03125-.304688-.09375-.402344c-.0625-.09375-.160157-.136719-.289063-.136719zm-6.289062.574219c-.207032 0-.292969.074219-.292969.074219-.058594.042968-.089844.105468-.089844.195312 0 .054688.011719.097656.03125.128906.011719.019532.015625.027344.054688.058594 0 0 .09375.074219.296875.0625.144531-.011718.273437-.035156.273437-.035156v-.457031s-.132812-.023438-.273437-.027344zm0 0" fill="#00a1e0"/></svg>