<svg height="18" viewBox="0 0 18 18" width="18" xmlns="http://www.w3.org/2000/svg"><path d="m-1.8-1.8h21.6v21.6h-21.6z" fill="#f03e2f"/><path d="m5.542969 4.664062c0 1.546876.972656 2.464844 2.917969 2.953126l2.0625.46875c1.84375.414062 2.964843 1.449218 2.964843 3.128906.015625.734375-.230469 1.453125-.6875 2.027344 0-1.679688-.882812-2.585938-3.015625-3.128907l-2.023437-.453125c-1.621094-.363281-2.875-1.214844-2.875-3.039062-.007813-.707032.226562-1.398438.65625-1.957032" fill="#fff"/><path d="m11.535156 10.804688c.878906.550781 1.265625 1.324218 1.265625 2.433593-.730469.917969-2.007812 1.433594-3.511719 1.433594-2.53125 0-4.300781-1.226563-4.695312-3.351563h2.429688c.3125.976563 1.140624 1.429688 2.246093 1.429688 1.351563 0 2.25-.707031 2.265625-1.949219m-4.726562-3.84375c-.402344-.234375-.730469-.570312-.953125-.976562-.222657-.402344-.332031-.859375-.3125-1.316407.703125-.910156 1.925781-1.464843 3.414062-1.464843 2.578125 0 4.070313 1.339843 4.4375 3.222656h-2.335937c-.257813-.742187-.902344-1.320313-2.082032-1.320313-1.257812 0-2.113281.71875-2.164062 1.855469" fill="#f9b1ab"/></svg>