<svg height="18" viewBox="0 0 18 18" width="18" xmlns="http://www.w3.org/2000/svg"><path d="m.171875 7.898438c0 .097656.027344.164062.046875.226562.105469.410156.332031.765625.605469 1.089844.382812.460937.859375.828125 1.34375 1.179687.417969.300781.847656.59375 1.269531.894531.070312.050782.140625.113282.21875.175782-.066406.035156-.125.066406-.183594.097656-.554687.28125-1.089844.597656-1.585937.980469-.296875.234375-.582031.476562-.785157.800781-.328124.515625-.445312 1.066406-.199218 1.652344.070312.171875.179687.320312.332031.429687.046875.035157.105469.070313.164063.085938.148437.035156.300781.054687.449218.082031h.425782c.472656-.039062.902343-.203125 1.289062-.46875.605469-.417969 1.015625-.980469 1.191406-1.699219.128906-.523437.132813-1.050781-.015625-1.570312-.015625-.046875-.03125-.09375-.050781-.140625s-.039062-.09375-.066406-.152344l.96875-.554688.011718.011719c-.015624.058594-.035156.113281-.050781.171875-.113281.421875-.191406.847656-.164062 1.28125.03125.464844.160156.898438.429687 1.289063.21875.3125.742188.324219.976563.007812.082031-.109375.164062-.226562.222656-.351562.160156-.328125.304687-.65625.457031-.988281l.023438-.058594c-.007813.15625-.023438.292968-.027344.429687-.007812.214844.003906.425781.078125.628907.0625.175781.167969.304687.367187.328124.136719.015626.246094-.046874.34375-.125.15625-.125.285157-.277343.378907-.449218.269531-.492188.542969-.980469.785156-1.484375.261719-.542969.492187-1.105469.734375-1.65625l.039062-.101563c.058594.226563.097657.449219.171876.660156.085937.242188.191406.480469.308593.710938.054688.109375.046875.179688-.027343.269531-.316407.382813-.628907.769531-.941407 1.15625-.070312.085938-.136719.171875-.195312.265625-.035157.058594-.058594.125-.066407.191406-.019531.128907.066407.253907.195313.277344.125.027344.25.035156.378906.027344.433594-.03125.832031-.183594 1.179688-.445312.453125-.332032.597656-.792969.488281-1.335938-.027344-.144531-.082031-.289062-.132812-.429688-.023438-.066406-.023438-.109374.019531-.167968.359375-.519532.671875-1.066406.957031-1.628906.011719-.019532.023438-.042969.042969-.066407.09375.484375.234375.953125.484375 1.375-.125.125-.253906.238281-.367188.359375-.253906.273438-.472656.570313-.589844.929688-.046874.152344-.085937.3125-.0625.476562.03125.257813.242188.425782.496094.367188.542969-.125 1.011719-.378906 1.351563-.832032.230469-.304687.253906-.644531.15625-1-.027344-.097656-.058594-.191406-.09375-.304687.136719-.042969.265625-.089844.402343-.121094.699219-.160156 1.390626-.132812 2.066407.121094.394531.148437.710937.394531.902343.78125.230469.476563.101563.925781-.347656 1.226563-.039062.03125-.089844.050781-.125.085937-.019531.027344-.03125.0625-.027344.09375.003907.019531.050782.039063.074219.039063.148438 0 .269531-.078126.382813-.15625.285156-.199219.496094-.46875.542968-.820313l.007813-.023437-.011719-.230469c-.003906-.011719.003906-.027344.003906-.035157-.0625-.515624-.335937-.910156-.734374-1.222656-.460938-.359375-1.007813-.507812-1.582032-.53125-.46875-.023437-.933594.050782-1.375.210938-.125.042968-.25.097656-.375.148437-.019531-.03125-.035156-.058593-.050781-.089843-.132813-.265626-.289063-.523438-.324219-.828126-.023437-.214843-.054687-.433593-.003906-.648437.050781-.207031.117188-.410156.175781-.613281.03125-.105469.007813-.164063-.089843-.210938-.035157-.015625-.074219-.027344-.109376-.035156-.246093-.035156-.492187-.015625-.730468.054688-.082032.023437-.144532.070312-.164063.164062-.007812.054688-.03125.105469-.046875.15625-.0625.222656-.105468.445312-.207031.65625-.253906.523438-.539063 1.027344-.835937 1.53125-.03125.054688-.0625.105469-.105469.171875-.101563-.214844-.214844-.410156-.246094-.636719-.039063-.257812-.066406-.515625-.003906-.773437.046875-.1875.109375-.375.167969-.566407.027343-.085937.015624-.132812-.066407-.179687-.042969-.027344-.085937-.046875-.132812-.054687-.253907-.039063-.511719-.015626-.753907.0625-.078124.023437-.117187.074218-.140624.152343-.066407.234375-.125.472657-.222657.691407-.390625.894531-.792969 1.785156-1.191406 2.675781-.085937.183593-.183594.363281-.277344.542969-.023437.046874-.058593.085937-.089843.128906-.023438-.027344-.03125-.046875-.03125-.066406 0-.113282-.011719-.230469.007812-.339844.066406-.335938.140625-.667969.222656-1 .066406-.273438.144532-.542969.214844-.816406.027344-.089844.027344-.175782-.039062-.253907-.109376-.128906-.339844-.15625-.476563-.054687l-.058594.03125.011719-.097656c.027344-.207032.035156-.414063-.023438-.617188-.070312-.257812-.253906-.402344-.519531-.394531-.121093.003906-.25.023437-.367187.070312-.480469.1875-.847656.519531-1.164063.921875-.027343.039063-.066406.070313-.105469.09375-.40625.222656-.816406.445313-1.222656.671875l-.453125.246094c-.125-.113281-.234375-.234375-.359375-.335937-.382812-.3125-.773437-.621094-1.160156-.929688-.34375-.273438-.671875-.558594-.925781-.921875-.191407-.269531-.3125-.566406-.324219-.898437-.015625-.425782.105469-.816407.324219-1.175782.277343-.464844.652343-.835937 1.070312-1.171875.4375-.355469.914063-.65625 1.40625-.933593.6875-.386719 1.398438-.726563 2.160157-.953126.777343-.230468 1.566406-.363281 2.382812-.269531.320312.035157.632812.109375.917969.265625.21875.121094.398437.277344.484375.523438.082031.242187.078125.484375.019531.730468-.113281.496094-.386719.90625-.730469 1.273438-.558594.601562-1.246094 1.007812-2.015625 1.277344-.445312.15625-.90625.253906-1.375.292968-.382812.03125-.757812 0-1.121093-.132812-.242188-.089844-.449219-.226562-.621094-.421875-.027344-.035156-.066406-.074219-.121094-.039063-.058594.03125-.066406.082032-.046875.136719.03125.085938.058594.179688.105469.257813.121094.199218.296875.339844.488281.464844.375.234374.789063.316406 1.21875.332031.65625.03125 1.292969-.066407 1.921875-.242188.898438-.25 1.675781-.695312 2.304688-1.390625.519531-.582031.890624-1.238281.972656-2.027344.039062-.386718-.003906-.765624-.183594-1.117187-.195312-.382813-.507812-.667969-.882812-.863281-.542969-.285156-1.128907-.449219-1.734376-.449219h-.605468c-.730469 0-1.441406.210937-2.128906.460937-.519532.1875-1.03125.414063-1.527344.660157-1.082032.539062-2.085938 1.191406-2.914063 2.085937-.410156.445313-.761719.9375-.960937 1.519532-.058594.171874-.113282.347656-.15625.523437m3.914062 5.066406c-.046875.625-.332031 1.136719-.792968 1.546875-.261719.230469-.5625.394532-.910157.453125-.128906.023438-.257812.027344-.378906-.023437-.175781-.078125-.214844-.230469-.21875-.398438-.003906-.261718.085937-.5.214844-.726562.164062-.296875.40625-.523438.664062-.734375.410157-.332031.851563-.613281 1.304688-.878907l.035156-.011718c.070313.257812.101563.511718.082031.773437m3.539063-2.726562c-.035157.203125-.074219.402343-.132813.597656-.203125.667969-.460937 1.320313-.742187 1.964844-.054688.117187-.128907.226562-.195313.339843-.011718.015626-.023437.03125-.039062.046876-.082032.078124-.15625.074218-.199219-.03125-.046875-.121094-.078125-.253907-.101563-.382813-.019531-.085937-.011718-.175781-.019531-.265625.007813-.632812.199219-1.207031.527344-1.742188.132813-.21875.28125-.429687.503906-.570312.070313-.042969.144531-.074219.226563-.097656.117187-.035156.191406.023437.171875.140625m2.414062 3.078125.867188-1.015625c.035156.378906-.605469 1.128906-.867188 1.015625m2.769531-.683594c-.0625.035156-.128906.0625-.191406.09375-.054687.027344-.074218 0-.078125-.050781 0-.035157.003907-.066407.015625-.101563.117188-.414062.332032-.765625.652344-1.050781l.023438-.011719c.152343.425782-.023438.894532-.421876 1.121094" fill="#cb6699" fill-rule="evenodd"/></svg>