<svg height="18" viewBox="0 0 18 18" width="18" xmlns="http://www.w3.org/2000/svg"><path d="m3.574219 15.550781v-2.179687l1.664062-.066406c1.730469-.066407 3.015625-.210938 4.902344-.535157 2.140625-.371093 4.25-1.035156 4.472656-1.417969.054688-.09375.09375.640626.09375 2.058594v2.207032l-.25.1875c-.265625.210937-1.292969.5625-2.460937.859374-1.828125.457032-6.292969 1.054688-7.8125 1.054688h-.609375zm0-5.519531v-2.179688l1.664062-.058593c1.847657-.074219 3.28125-.238281 5.1875-.589844 2.128907-.398437 4.070313-1.046875 4.214844-1.398437.027344-.066407.054687.855468.054687 2.054687.011719 1.90625-.007812 2.207031-.152343 2.359375-.332031.371094-2.902344 1.039062-5.546875 1.449219-1.605469.246093-4.269532.53125-5.011719.53125h-.410156zm0-5.480469v-2.132812l.292969-.058594c.164062-.027344.5625-.054687.886718-.054687 1.597656 0 5.394532-.523438 7.257813-1 1.304687-.34375 2.210937-.683594 2.523437-.96875.160156-.144532.171875-.058594.171875 2.035156 0 2.046875-.011719 2.195312-.179687 2.351562-.257813.234375-2.019532.777344-3.390625 1.054688-2.214844.4375-5.898438.902344-7.152344.902344h-.410156zm0 0" fill="#390d09"/></svg>