<svg height="18" viewBox="0 0 18 18" width="18" xmlns="http://www.w3.org/2000/svg"><path d="m9.523438 0c-.773438.00390625-1.535157.402344-1.941407 1.105469l-4.035156 6.929687c-.597656 1.023438-.226563 2.300782.824219 2.851563 1.050781.554687 2.386718.171875 2.984375-.851563l4.03125-6.929687c.597656-1.023438.226562-2.300781-.824219-2.851563-.320312-.1679685-.675781-.253906-1.035156-.253906zm3.066406 6.859375c-.773438 0-1.535156.402344-1.945313 1.105469l-4.03125 6.929687c-.597656 1.023438-.226562 2.300781.824219 2.851563 1.050781.554687 2.386719.171875 2.984375-.851563l4.03125-6.929687c.597656-1.023438.226563-2.300782-.824219-2.855469-.320312-.164063-.675781-.253906-1.039062-.25zm0 0" fill="#173aee"/></svg>