<svg height="18" viewBox="0 0 18 18" width="18" xmlns="http://www.w3.org/2000/svg"><path d="m3.515625 15.53125v-2.191406h.789063c.4375 0 1.132812-.027344 1.550781-.066406l.742187-.054688-.988281-.265625c-.550781-.144531-1.246094-.355469-1.542969-.46875l-.550781-.199219v-4.460937h.886719c.472656 0 1.167968-.03125 1.53125-.066407l.664062-.058593-1.167968-.3125c-.648438-.164063-1.332032-.382813-1.542969-.46875l-.371094-.171875v-4.320313l.296875-.066406c.160156-.027344.558594-.054687.882812-.054687 1.597657 0 5.394532-.523438 7.261719-1 1.300781-.34375 2.207031-.683594 2.519531-.96875.164063-.144532.171876-.058594.171876 2.042968v2.199219l-.226563.171875-.230469.179688.457032.398437v4.769531l-.226563.171875-.230469.179688.457032.398437v4.769532l-.246094.1875c-.265625.210937-1.296875.5625-2.464844.859374-1.828125.457032-6.289062 1.054688-7.8125 1.054688h-.609375zm0 0" fill="#390d09"/><path d="m3.515625 15.550781v-2.179687l1.664063-.066406c1.734374-.066407 3.019531-.210938 4.902343-.535157 2.140625-.371093 4.253907-1.035156 4.472657-1.417969.054687-.09375.09375.640626.09375 2.058594v2.207032l-.246094.1875c-.265625.210937-1.296875.5625-2.464844.859374-1.828125.457032-6.289062 1.054688-7.8125 1.054688h-.609375zm0-5.519531v-2.179688l1.664063-.058593c1.847656-.074219 3.285156-.238281 5.1875-.589844 2.132812-.398437 4.070312-1.046875 4.214843-1.398437.027344-.066407.058594.855468.058594 2.054687.007813 1.90625-.011719 2.207031-.152344 2.359375-.335937.371094-2.902343 1.039062-5.550781 1.449219-1.605469.246093-4.269531.53125-5.011719.53125h-.410156zm0-5.480469v-2.132812l.296875-.058594c.160156-.027344.558594-.054687.882812-.054687 1.597657 0 5.394532-.523438 7.261719-1 1.300781-.34375 2.207031-.683594 2.519531-.96875.164063-.144532.171876-.058594.171876 2.035156 0 2.046875-.007813 2.195312-.179688 2.351562-.257812.234375-2.019531.777344-3.386719 1.054688-2.21875.4375-5.902343.902344-7.15625.902344h-.410156zm0 0" fill="#de3423"/></svg>