<svg height="18" viewBox="0 0 18 18" width="18" xmlns="http://www.w3.org/2000/svg"><path d="m7.582031 1.105469c.59375-1.0234378 1.929688-1.40625 2.980469-.851563 1.050781.550782 1.421875 1.828125.824219 2.851563l-4.03125 6.929687c-.597657 1.023438-1.933594 1.40625-2.984375.851563-1.050782-.550781-1.421875-1.828125-.824219-2.851563zm0 0" fill="#21cfee"/><path d="m10.644531 7.964844c.597657-1.023438 1.933594-1.40625 2.984375-.855469 1.050782.554687 1.421875 1.832031.824219 2.855469l-4.035156 6.929687c-.59375 1.023438-1.929688 1.40625-2.980469.851563-1.050781-.550782-1.421875-1.828125-.824219-2.851563zm0 0" fill="#173aee"/></svg>