<svg height="18" viewBox="0 0 18 18" width="18" xmlns="http://www.w3.org/2000/svg"><g fill="none" stroke="#fff" stroke-linecap="round" stroke-linejoin="round" stroke-width="2" transform="scale(.75)"><path d="m17 12v4c0 .552083-.447917 1-1 1h-4m5-14h2c1.104167 0 2 .895833 2 2v2m-4 1v-1m4 10v2c0 1.104167-.895833 2-2 2h-2m-14-14v-2c0-1.104167.895833-2 2-2h2m0 14h.010417m-.010417 4h-2c-1.104167 0-2-.895833-2-2v-2"/><path d="m8 7h3c.552083 0 1 .447917 1 1v3c0 .552083-.447917 1-1 1h-3c-.552083 0-1-.447917-1-1v-3c0-.552083.447917-1 1-1zm0 0"/></g></svg>