<svg height="18" viewBox="0 0 18 18" width="18" xmlns="http://www.w3.org/2000/svg"><path d="m11.244792 16.65625c.192708.21875.463541.34375.755208.34375s.5625-.125.755208-.34375l3.567709-4.098958c.666666-.770834.854166-1.838542.489583-2.786459-.359375-.947916-1.21875-1.619791-2.223958-1.744791-1.010417-.125-2.005209.3125-2.588542 1.140625-.583333-.828125-1.578125-1.265625-2.588542-1.140625-1.005208.125-1.864583.796875-2.223958 1.744791-.364583.947917-.177083 2.015625.489583 2.786459zm5.755208-13.65625h2c1.104167 0 2 .895833 2 2v2m0 10v2c0 1.104167-.895833 2-2 2h-2m-14-14v-2c0-1.104167.895833-2 2-2h2m0 18h-2c-1.104167 0-2-.895833-2-2v-2" fill="none" stroke="#fff" stroke-linecap="round" stroke-linejoin="round" stroke-width="2" transform="scale(.75)"/></svg>