<svg height="18" viewBox="0 0 18 18" width="18" xmlns="http://www.w3.org/2000/svg"><path d="m13.804688 12.394531c2.199218-2.199219 2.566406-5.394531.816406-7.140625-1.746094-1.75-4.945313-1.382812-7.144532.8125-2.195312 2.199219-1.558593 6.398438-.8125 7.140625.601563.605469 4.945313 1.382813 7.140626-.8125" fill="#f89939"/><path d="m4.785156 9.21875c-1.273437-1.273438-3.128906-1.484375-4.144531-.472656-1.011719 1.011718-.800781 2.867187.472656 4.140625 1.277344 1.277343 3.714844.90625 4.148438.476562.347656-.351562.800781-2.871093-.476563-4.144531" fill="#3499cd"/><path d="m17.414062 12.046875c-.082031 0-.125-.046875-.125-.148437 0-.074219.050782-.238282.148438-.484376.140625-.363281.210938-.625.210938-.785156 0-.097656-.027344-.175781-.082032-.238281-.058594-.066406-.128906-.097656-.210937-.097656-.125 0-.265625.058593-.425781.175781-.160157.117188-.375.324219-.648438.628906.039062-.195312.125-.464844.25-.808594l-.605469.117188c-.136719.296875-.238281.566406-.300781.804688-.03125.117187-.050781.238281-.066406.359374-.191406.183594-.316406.296876-.367188.335938-.054687.042969-.113281.0625-.171875.0625-.054687 0-.097656-.023438-.132812-.0625-.03125-.042969-.046875-.097656-.046875-.167969 0-.074219.015625-.160156.042968-.257812.042969-.144531.089844-.277344.1875-.546875l.230469-.636719-.226562.011719c-.207031.390625-.445313.601562-.722657.628906.074219-.191406.113282-.339844.113282-.445312 0-.132813-.066406-.199219-.195313-.199219-.152343 0-.273437.074219-.359375.21875-.085937.144531-.128906.28125-.128906.40625 0 .195312.070312.21875.214844.28125-.09375.136719-.199219.265625-.308594.386719-.136719.132812-.238281.234374-.316406.300781-.078125.066406-.148438.101562-.210938.101562-.101562 0-.152344-.070312-.152344-.214843 0-.140626.054688-.386719.167969-.75l.21875-.730469h-.140625l-.507812.28125c-.082032-.1875-.226563-.285157-.433594-.285157-.164062 0-.351562.070313-.566406.210938-.214844.136719-.390625.320312-.527344.546875-.105469.171875-.167969.355469-.191406.542969-.191406.191406-.335938.316406-.429688.375-.101562.058594-.207031.089844-.316406.089844-.277344 0-.453125-.164063-.519531-.488282.730469-.210937 1.097656-.492187 1.097656-.832031 0-.132813-.046875-.234375-.140625-.316406-.09375-.078125-.21875-.117188-.371094-.117188-.296875 0-.566406.140625-.808594.425781-.222656.257813-.339843.542969-.363281.855469-.199219.199219-.351562.328125-.449219.390625-.101562.066406-.199218.097656-.285156.097656-.089844 0-.160156-.042968-.210937-.125-.054688-.085937-.082031-.199218-.082031-.34375 0-.066406.007812-.183593.019531-.355468.332031-.359375.574219-.699219.730469-1.015625.15625-.316407.234374-.644531.234374-.980469 0-.121094-.015624-.214844-.046874-.285156-.03125-.070313-.070313-.105469-.117188-.105469-.007812 0-.023438.003906-.042969.011719l-.632812.234375c-.214844.410156-.398438.859375-.550781 1.347656-.148438.484375-.226563.902344-.226563 1.25 0 .230469.054687.414063.164063.554687.109374.136719.25.207032.429687.207032.152344 0 .316406-.050782.484375-.148438.171875-.097656.367188-.253906.59375-.457031.226562-.207031 0-.003906 0-.003906.027344.15625.09375.285156.195312.394531.136719.140625.320313.214844.542969.214844.203125 0 .386719-.050782.554688-.148438.160156-.09375.34375-.242187.546875-.4375.015625.148438.0625.273438.144531.382813.101563.136719.226563.203125.371094.203125s.292969-.054688.433593-.167969c.140626-.113281.292969-.289063.457032-.523437-.011719.460937.109375.691406.371094.691406.105468 0 .214843-.035156.328124-.113282.113282-.074218.304688-.238281.570313-.492187.230469-.226563.398437-.441406.507813-.640625.144531-.023438.277343-.070312.402343-.132812-.25.394531-.375.707031-.375.941406 0 .125.035157.230468.101563.316406.070312.082031.15625.125.257812.125.21875 0 .535156-.195312.9375-.589844v.09375c0 .109375.007813.273438.023438.496094l.550781-.128906c0-.148438.003906-.265625.007813-.355469.007812-.117187.023437-.246094.050781-.386719.015625-.082031.050781-.160156.113281-.238281l.136719-.160156c.050781-.058594.101562-.113281.144531-.160157.050781-.054687.097656-.101562.140625-.136718.046875-.042969.085937-.074219.121094-.097656.039062-.023438.070312-.035157.089843-.035157.042969 0 .0625.027344.0625.078125 0 .054688-.039062.179688-.117187.375-.144531.363282-.21875.636719-.21875.8125 0 .128906.035156.234375.105469.3125.066406.078125.15625.117188.265625.117188.273437 0 .601562-.203125.984375-.605469v-.285156c-.269532.320312-.464844.480469-.585938.480469zm-9.179687-1.164063c.113281-.550781.226563-.976562.34375-1.28125.117187-.304687.207031-.457031.269531-.457031.027344 0 .050782.015625.070313.054688.015625.035156.027343.085937.027343.148437 0 .210938-.066406.457032-.199218.75-.128906.289063-.300782.550782-.511719.785156m1.660156-.136718c.097657-.167969.203125-.25.3125-.25.113281 0 .175781.078125.175781.238281 0 .320313-.214843.539063-.640624.660156 0-.265625.050781-.484375.152343-.648437m2.457031.820312c-.148437.285156-.304687.425782-.46875.425782-.066406 0-.125-.027344-.167968-.085938-.042969-.054688-.066406-.125-.066406-.214844 0-.238281.074218-.496094.222656-.777344.148437-.28125.304687-.421874.472656-.421874.066406 0 .125.023437.164062.078124.042969.050782.0625.125.0625.21875 0 .238282-.074218.496094-.21875.78125zm0 0" fill="#010101"/><path d="m10.613281 9.125c.019531.027344.027344.066406.027344.109375 0 .046875-.011719.085937-.035156.125-.027344.039063-.0625.070313-.113281.089844-.046876.023437-.101563.03125-.160157.03125-.101562 0-.179687-.019531-.230469-.0625-.054687-.042969-.089843-.101563-.101562-.1875l.128906-.019531c.007813.050781.027344.09375.0625.121093.03125.027344.078125.039063.140625.039063.058594 0 .105469-.011719.132813-.035156.03125-.023438.042968-.054688.042968-.085938s-.011718-.054688-.039062-.070312c-.015625-.011719-.0625-.027344-.132812-.046876-.097657-.023437-.164063-.042968-.203126-.0625-.039062-.019531-.066406-.042968-.082031-.074218-.019531-.03125-.03125-.066406-.03125-.105469 0-.035156.007813-.066406.023438-.09375.015625-.03125.039062-.054687.066406-.074219.019531-.015625.046875-.027344.082031-.039062.035156-.007813.074219-.015625.113282-.015625.0625 0 .113281.011719.160156.027343.046875.019532.082031.042969.101562.074219.023438.027344.039063.070313.046875.121094l-.128906.015625c-.007813-.039062-.023437-.070312-.050781-.09375s-.066406-.035156-.121094-.035156c-.058594 0-.101562.011718-.128906.03125-.023438.019531-.039063.042968-.039063.070312 0 .015625.003907.03125.015625.046875.011719.011719.027344.023438.050782.035157.011718.003906.050781.015624.117187.03125.09375.027343.15625.046874.195313.0625.035156.015624.066406.039062.085937.066406zm.625.203125c-.035156.03125-.074219.046875-.128906.046875-.0625 0-.117187-.023438-.15625-.070312-.039063-.046876-.058594-.125-.058594-.230469 0-.101563.019531-.175781.0625-.222657.039063-.046874.09375-.074218.160157-.074218.042968 0 .082031.015625.113281.042968.03125.023438.050781.0625.066406.117188l.125-.019531c-.015625-.078125-.046875-.140625-.101563-.183594-.054687-.039063-.121093-.0625-.207031-.0625-.066406 0-.128906.015625-.183593.046875-.058594.03125-.101563.082031-.128907.144531-.027343.0625-.042969.136719-.042969.21875 0 .128907.035157.230469.097657.300781.066406.066407.152343.101563.257812.101563.082031 0 .15625-.023437.214844-.074219.058594-.050781.09375-.121094.109375-.210937l-.132812-.015625c-.007813.066406-.03125.113281-.066407.144531zm.308594.136719h.132813v-.777344h-.132813zm0-.921875h.132813v-.152344h-.132813zm.949219.144531h-.171875l-.3125.316406v-.613281h-.132813v1.070313h.132813v-.304688l.09375-.089844.257812.394532h.164063l-.328125-.484376zm.132812-.144531h.132813v-.152344h-.132813zm0 .921875h.132813v-.777344h-.132813zm.621094-.117188c-.023438 0-.042969.003906-.058594.003906-.019531 0-.035156-.003906-.042968-.011718-.011719-.003906-.019532-.011719-.023438-.023438-.003906-.011718-.007812-.035156-.007812-.070312v-.457032h.132812v-.101562h-.132812v-.269531l-.128907.078125v.191406h-.097656v.101562h.097656v.449219c0 .078125.003907.128907.015625.152344.007813.027344.027344.046875.054688.0625.023437.015625.0625.019531.109375.019531.03125 0 .0625-.003906.101562-.011718zm0 0" fill="#fff"/></svg>