<svg height="18" viewBox="0 0 18 18" width="18" xmlns="http://www.w3.org/2000/svg"><path d="m4.785156 9.21875c-1.273437-1.273438-3.128906-1.484375-4.144531-.472656-1.011719 1.011718-.800781 2.867187.472656 4.140625 1.277344 1.277343 3.714844.90625 4.148438.476562.347656-.351562.800781-2.871093-.476563-4.144531m9.839844-3.964844c-1.75-1.746094-4.945312-1.382812-7.144531.816406-2.199219 2.195313-1.5625 6.394532-.816407 7.140626.601563.601562 4.945313 1.378906 7.144532-.816407.15625-.15625.300781-.316406.4375-.480469.03125-.222656.152344-.496093.367187-.832031-.125.0625-.257812.109375-.402343.132813-.109376.199218-.277344.410156-.507813.640625-.265625.253906-.457031.417969-.570313.492187-.113281.078125-.222656.113282-.328124.113282-.261719 0-.382813-.230469-.371094-.691407-.164063.234375-.316406.410157-.457032.523438-.140624.113281-.285156.167969-.433593.167969-.152344 0-.269531-.066407-.371094-.203126-.082031-.109374-.128906-.234374-.144531-.382812-.203125.199219-.386719.34375-.546875.4375-.167969.097656-.351563.148438-.554688.148438-.222656 0-.40625-.070313-.542969-.214844-.105468-.109375-.167968-.238282-.195312-.394532-.222656.207032-.421875.363282-.59375.460938-.167969.097656-.332031.148438-.484375.148438-.179687 0-.320313-.070313-.429687-.207032-.109376-.140625-.164063-.324218-.164063-.554687 0-.347657.078125-.765625.226563-1.253907.152343-.484374.332031-.933593.550781-1.34375l.632812-.234374c.019531-.007813.035157-.011719.042969-.011719.046875 0 .085938.035156.117188.105469.03125.070312.046874.167968.046874.285156 0 .335937-.078124.664062-.234374.980468-.15625.316407-.398438.65625-.730469 1.015626-.011719.171874-.019531.289062-.019531.355468 0 .144532.027343.257813.082031.34375.050781.082032.121093.125.210937.125.128906 0 .183594-.03125.285156-.097656.097657-.0625.25-.191406.449219-.390625.023438-.3125.140625-.597656.363281-.855469.242188-.285156.511719-.425781.808594-.425781.15625 0 .277344.039063.371094.117187.09375.082032.140625.183594.140625.3125 0 .34375-.367187.625-1.097656.835938.066406.324219.242187.484375.519531.484375.109375 0 .214844-.027344.316406-.085937.09375-.058594.238282-.183594.429688-.375.023437-.1875.085937-.371094.191406-.542969.136719-.226563.3125-.410157.527344-.546875.214844-.140625.402344-.210938.566406-.210938.207031 0 .355469.097656.433594.285156l.507812-.28125h.140625l-.21875.730469c-.113281.363281-.167969.617188-.167969.75 0 .136719.050782.214844.152344.214844.0625 0 .132813-.035156.210938-.101563.074218-.066406.179687-.167968.316406-.300781.109375-.121093.214844-.25.308594-.386719-.144532-.0625-.214844-.15625-.214844-.28125s.042969-.261718.128906-.40625c.089844-.148437.207032-.21875.359375-.21875.128907 0 .195313.066407.195313.199219 0 .105469-.035156.253907-.113282.445313.277344-.027344.515626-.238282.722657-.628906l.167969-.007813c.796874-1.828125.625-3.804687-.621094-5.046875zm-4.019531 4.109375c-.023438.039063-.0625.066407-.109375.089844-.050782.019531-.105469.03125-.164063.03125-.101562 0-.175781-.023437-.230469-.0625-.054687-.042969-.085937-.105469-.101562-.1875l.128906-.023437c.007813.054687.03125.09375.0625.121093.035156.027344.078125.042969.140625.042969.058594 0 .105469-.011719.132813-.039062.03125-.023438.046875-.050782.046875-.085938 0-.027344-.015625-.054688-.039063-.070312-.019531-.011719-.066406-.027344-.136718-.042969-.097657-.027344-.164063-.046875-.199219-.066407-.039063-.015624-.066407-.039062-.085938-.074218-.019531-.03125-.03125-.066406-.03125-.101563 0-.035156.011719-.066406.023438-.097656.015625-.027344.039062-.054687.066406-.074219.019531-.015625.046875-.027344.082031-.035156.035156-.011719.074219-.015625.113282-.015625.0625 0 .117187.007813.160156.027344.046875.015625.082031.039062.105468.070312.023438.03125.035157.070313.042969.121094l-.128906.015625c-.003906-.039062-.023437-.070312-.050781-.09375s-.066406-.035156-.117188-.035156c-.0625 0-.105468.011718-.132812.03125-.023438.019531-.039063.042968-.039063.070312 0 .015625.007813.03125.015625.046875.011719.015625.03125.023438.050782.035157.015624.003906.054687.015624.117187.035156.09375.023437.160156.042968.195313.058594.039062.015624.066406.039062.089843.070312.019531.027344.027344.066406.027344.109375 0 .046875-.011719.085937-.035156.125zm.722656.042969c-.058594.050781-.128906.078125-.214844.078125-.105469 0-.191406-.035156-.253906-.105469-.066406-.066406-.097656-.167968-.097656-.296875 0-.085937.011719-.15625.042969-.222656.027343-.0625.070312-.109375.125-.140625.054687-.03125.117187-.046875.183593-.046875.085938 0 .15625.019531.207031.0625.054688.042969.089844.101563.105469.179687l-.128906.019532c-.011719-.050782-.035156-.089844-.066406-.117188s-.066407-.039062-.109375-.039062c-.066406 0-.121094.023437-.164063.070312-.042969.050782-.0625.125-.0625.226563 0 .101562.019531.179687.0625.226562.039063.050781.09375.070313.15625.070313.050781 0 .09375-.015625.128907-.046875.035156-.03125.054687-.078125.066406-.144531l.128906.015624c-.015625.089844-.050781.160157-.109375.210938zm.355469.058594h-.132813v-.777344h.132813zm0-.921875h-.132813v-.152344h.132813zm.679687.921875-.253906-.394532-.09375.085938v.308594h-.132813v-1.070313h.132813v.609375l.3125-.316406h.167969l-.296875.289062.328125.488282zm.402344 0h-.132813v-.777344h.132813zm0-.921875h-.132813v-.152344h.132813zm.40625.933593c-.046875 0-.082031-.007812-.109375-.023437-.027344-.011719-.046875-.035156-.054688-.058594-.011718-.027343-.015624-.078125-.015624-.15625v-.445312h-.097657v-.105469h.097657v-.191406l.128906-.078125v.269531h.132812v.105469h-.132812v.453125c0 .039062.003906.0625.007812.070312.003906.011719.011719.019532.023438.027344.007812.007812.023437.007812.042968.007812.015626 0 .035157 0 .058594-.003906l.019532.117188c-.035157.007812-.070313.011718-.101563.011718zm-.660156 1.09375c.039062.050782.058593.125.058593.21875 0 .238282-.070312.496094-.21875.78125-.144531.28125-.304687.421876-.46875.421876-.066406 0-.121093-.027344-.164062-.082032-.046875-.054687-.066406-.128906-.066406-.21875 0-.234375.074218-.496094.21875-.777344.148437-.28125.308594-.421874.472656-.421874.070312 0 .125.023437.167969.078124zm-2.128907.164063c0 .324219-.210937.542969-.636718.660156 0-.265625.046875-.480469.148437-.648437.101563-.167969.203125-.25.3125-.25.117188 0 .175781.082031.175781.238281m-1.4375-1.386719c0 .210938-.066406.460938-.195312.75-.132812.289063-.304688.554688-.511719.785156.109375-.546874.226563-.972656.34375-1.28125.117188-.304687.207031-.457031.265625-.457031.027344 0 .050782.019531.070313.054688.019531.039062.027343.089843.027343.148437m9.058594 2.222656v.285157c-.382812.40625-.710937.605469-.984375.605469-.113281 0-.203125-.039063-.269531-.117188-.066406-.074219-.101562-.179688-.101562-.3125 0-.175781.070312-.449219.21875-.8125.078124-.195312.117187-.320312.117187-.371094 0-.054687-.023437-.082031-.0625-.082031-.023437 0-.054687.011719-.09375.035156-.035156.023438-.074219.058594-.121094.097657-.039062.039062-.085937.085937-.136719.140624-.046874.046876-.09375.097657-.144531.15625l-.140625.164063c-.0625.074219-.097656.152344-.113281.234375-.023437.140625-.039063.269531-.050781.390625-.003906.085937-.003906.203125-.003906.355469l-.550782.128906c-.019531-.222656-.027344-.390625-.027344-.5 0-.03125 0-.0625.003907-.089844-.40625.390625-.71875.589844-.941407.589844-.101562 0-.1875-.042969-.253906-.128906-.070312-.085938-.105468-.191406-.105468-.316406 0-.035157.003906-.070313.011718-.109376.421875-.507812.753906-1.050781 1-1.613281l.054688-.003906-.230469.636719c-.097656.269531-.160156.453125-.1875.546875-.027344.097656-.042969.183593-.042969.257812 0 .070313.019532.125.046875.167969.035157.042969.078125.0625.132813.0625.058594 0 .117187-.019531.171875-.0625.054687-.039062.175781-.152344.367187-.335938.015625-.125.039063-.242187.066406-.359374.0625-.238282.164063-.507813.300782-.804688l.605468-.117188c-.125.34375-.210937.613282-.25.808594.273438-.304687.488282-.511718.648438-.628906s.300781-.175781.425781-.175781c.085938 0 .15625.03125.210938.097656.054687.0625.085937.140625.085937.238281 0 .160156-.074218.421875-.214844.785156-.097656.25-.148437.410157-.148437.484376 0 .101562.042969.148437.125.148437.121094 0 .316406-.160156.585937-.476563zm0 0"/></svg>