<svg height="18" viewBox="0 0 18 18" width="18" xmlns="http://www.w3.org/2000/svg"><path d="m2.265625 8.109375c-.621094 0-1.199219.210937-1.628906.636719-1.007813 1.007812-.796875 2.847656.46875 4.109375.652343.65625 1.613281.871093 2.445312.871093.785157 0 1.460938-.191406 1.667969-.398437.347656-.347656.796875-2.847656-.46875-4.113281-.726562-.726563-1.644531-1.105469-2.484375-1.105469m2.851563 5.121094c-.148438.148437-.734376.359375-1.566407.359375-.566406 0-1.625-.109375-2.34375-.832032-.589843-.589843-.964843-1.324218-1.046875-2.066406-.0859372-.734375.121094-1.390625.574219-1.84375.390625-.390625.917969-.597656 1.53125-.597656.839844 0 1.707031.390625 2.382813 1.066406.695312.695313.800781 1.75.800781 2.320313 0 .839843-.210938 1.476562-.332031 1.59375m3.726562-4.03125c-.015625-.039063-.039062-.058594-.066406-.058594-.0625 0-.148438.152344-.265625.457031-.117188.300782-.230469.726563-.34375 1.269532.210937-.230469.382812-.496094.507812-.78125.128907-.289063.195313-.535157.195313-.742188 0-.0625-.007813-.109375-.027344-.148438zm-.292969.832031c-.023437.054688-.050781.109375-.078125.160156.054688-.210937.113282-.394531.171875-.542968.03125-.085938.058594-.152344.082031-.203126-.015624.167969-.074218.363282-.175781.585938zm4.605469-.828125v-.269531c.074219-.003906.132812-.066406.132812-.140625v-.101563c0-.074218-.058593-.136718-.132812-.140625v-.128906c0-.050781-.027344-.097656-.070312-.125-.023438-.011719-.046876-.015625-.070313-.015625s-.050781.003906-.074219.019531l-.128906.078125s-.003906.003906-.007812.007813c-.007813-.074219-.066407-.128907-.140626-.128907h-.132812c-.074219 0-.140625.0625-.140625.140626v.152343h-.160156c-.039063 0-.074219.015625-.101563.042969l-.070312.066406v-.261718c0-.078126-.0625-.140626-.140625-.140626h-.128907c-.039062 0-.074218.015626-.101562.042969-.023438-.027343-.058594-.042969-.097656-.042969h-.132813c-.078125 0-.140625.0625-.140625.140626v.148437c0 .027344.007813.050781.019532.074219 0 .003906-.003907.007812-.007813.015625-.003906-.003907-.007813-.007813-.007813-.007813-.082031-.0625-.179687-.097656-.292968-.097656-.089844 0-.175782.023438-.253906.066406-.058594.035156-.109376.078125-.144532.136719-.011718-.015625-.019531-.03125-.03125-.046875-.035156-.050781-.089844-.089844-.164062-.121094-.0625-.023437-.132813-.035156-.207032-.035156-.054687 0-.105468.007812-.15625.023438-.050781.015624-.089843.035156-.125.058593-.042968.03125-.078124.070313-.105468.121094-.027344.046875-.042969.101563-.042969.160156 0 .0625.019531.125.050781.175781.007813.011719.011719.019532.019532.03125-.023438.007813-.046876.023438-.0625.046876-.023438.03125-.03125.070312-.027344.109374.023437.113282.074218.203126.152344.269532.078124.058594.183593.089844.316406.089844.082031 0 .15625-.011719.21875-.042969.074218-.03125.132812-.078125.171875-.140625.011719.011718.019531.023437.03125.035156.089843.097656.210937.148438.355469.148438.117187 0 .21875-.035157.300781-.105469.023437.050781.074219.089843.132812.089843h.128907c.039062 0 .074218-.015624.101562-.042968.023438.023437.058594.042968.101562.042968h.128907c.078125 0 .140625-.0625.140625-.140624v-.0625l.089844.136718c.023437.039063.070312.066406.117187.066406h.160156c.019531 0 .039063-.003906.054688-.011718.015625.007812.03125.011718.050781.011718h.128906c.066406 0 .125-.046874.136719-.109374.023437.03125.054687.058593.089844.078124.046875.027344.105469.039063.179687.039063.039063 0 .082032-.003906.128906-.011719.070313-.015625.121094-.085937.109376-.160156l-.019532-.117188c-.011718-.066406-.066406-.113281-.128906-.117187zm-2.632812.152344c-.027344.039062-.0625.070312-.113282.089843-.046875.023438-.101562.03125-.160156.03125-.101562 0-.175781-.019531-.230469-.0625-.054687-.039062-.085937-.101562-.101562-.183593l.132812-.019531c.003907.050781.023438.089843.058594.117187s.082031.042969.140625.042969.101562-.015625.132812-.039063c.027344-.023437.042969-.050781.042969-.085937 0-.027344-.011719-.050782-.039062-.066406-.015625-.011719-.0625-.027344-.132813-.042969-.09375-.027344-.160156-.046875-.199218-.066407-.035157-.015624-.066407-.039062-.085938-.070312s-.027344-.066406-.027344-.105469c0-.035156.007813-.066406.023438-.09375.015625-.03125.039062-.054687.066406-.074219.019531-.015624.046875-.027343.082031-.039062.035157-.007812.074219-.015625.113281-.015625.058594 0 .113282.007813.160157.027344.042969.015625.078125.039062.101562.070312.019531.03125.035157.070313.042969.121094l-.128906.015625c-.003906-.035156-.019532-.070312-.050782-.09375-.027343-.023438-.066406-.035156-.117187-.035156-.058594 0-.101563.011718-.128906.03125-.023438.019531-.035157.042968-.035157.070312 0 .015625.003907.03125.015626.046875.007812.011719.023437.023438.050781.035157.011719.003906.050781.015624.113281.03125.09375.027343.15625.046874.195312.0625.035157.015624.0625.035156.085938.066406.019531.03125.03125.070312.03125.113281s-.015625.082031-.039062.121094zm.714843.046875c-.058593.050781-.128906.074218-.214843.074218-.105469 0-.1875-.035156-.253907-.101562-.0625-.070312-.09375-.167969-.09375-.296875 0-.082031.011719-.15625.039063-.21875s.070312-.109375.128906-.140625c.054688-.03125.117188-.046875.183594-.046875.082031 0 .152344.023437.203125.0625.054687.042969.089843.105469.105469.179687l-.128907.019532c-.011719-.050782-.03125-.089844-.0625-.113282-.03125-.027343-.070312-.042968-.113281-.042968-.066406 0-.117188.027344-.160156.070312-.039063.050782-.0625.125-.0625.226563 0 .101562.019531.175781.058594.222656.042968.046875.09375.070313.15625.070313.050781 0 .09375-.015626.128906-.046876.03125-.03125.054687-.078124.0625-.144531l.128906.015625c-.011719.089844-.050781.160156-.109375.210938zm-.097656-.34375c-.03125.023437-.054687.058594-.0625.101562-.003906.035156-.015625.054688-.019531.058594s-.011719.011719-.035156.011719c-.023438 0-.035157-.007813-.046876-.023438-.003906-.003906-.027343-.035156-.027343-.132812 0-.09375.019531-.125.027343-.132813.011719-.011718.023438-.023437.054688-.023437.011719 0 .019531.003906.019531.007812.003907.003907.011719.019531.019531.042969.007813.039062.035157.074219.070313.089844zm.449219.402344h-.128906v-.769532h.128906zm0-.914063h-.128906v-.148437h.128906zm.675781.914063-.253906-.394532-.089844.089844v.304688h-.132813v-1.0625h.132813v.605468l.308594-.3125h.167969l-.292969.285156.324219.484376zm.125-.566407v.261719l-.105469-.160156zm.273437.566407h-.132812v-.769532h.132812zm0-.914063h-.132812v-.148437h.132812zm.402344.925781c-.046875 0-.082031-.007812-.109375-.023437-.023437-.011719-.042969-.03125-.054687-.058594-.011719-.023437-.015625-.074219-.015625-.15625v-.441406h-.09375v-.101563h.09375v-.191406l.128906-.078125v.269531h.132813v.101563h-.132813v.449219c0 .035156.003906.0625.007813.070312.003906.011719.011718.019531.023437.027344.007813.003906.023437.007812.042969.007812.015625 0 .035156 0 .058594-.003906l.019531.113281c-.039063.011719-.070313.011719-.101563.011719zm4.839844 1.945313c-.015625-.003907-.03125-.007813-.046875-.007813-.039063 0-.082031.015625-.105469.050782-.28125.328124-.410156.402343-.457031.421874v-.003906c0-.019531.007813-.109375.136719-.433594.148437-.382812.21875-.652343.21875-.828124 0-.132813-.039063-.242188-.117188-.332032s-.195312-.144531-.316406-.140625c-.15625 0-.320312.066407-.503906.199219-.078125.058594-.167969.132812-.265625.226562.023437-.074218.054687-.152343.085937-.234374.007813-.015626.011719-.035157.011719-.058594 0-.078125-.0625-.140625-.140625-.140625h-.007812c-.007813 0-.015626 0-.019532.003906l-.601562.113281c-.042969.011719-.082032.039063-.101563.082032-.136719.300781-.242187.578124-.304687.820312-.027344.105469-.046875.214844-.0625.328125-.214844.203125-.292969.269531-.316406.289063-.03125.019531-.058594.03125-.085938.03125-.015625 0-.015625-.003907-.019531-.007813-.011719-.015625-.019531-.042969-.019531-.078125 0-.0625.015624-.132812.039062-.21875.023438-.089844.085938-.269531.179688-.535156l.226562-.621094c.007812-.015625.015625-.035156.015625-.054688 0-.078124-.0625-.140624-.140625-.140624.71875-1.773438.527344-3.664063-.671875-4.863282-.738281-.738281-1.738281-1.097656-2.808594-1.097656-1.449219 0-3.027343.652344-4.28125 1.90625-2.183593 2.179688-1.550781 6.34375-.8125 7.082031.296875.296875 1.511719.636719 2.925781.636719 1.410157 0 3.066407-.347656 4.164063-1.445312.101563-.101563.195313-.207032.289063-.3125.011718.132812.050781.25.128906.34375.097656.117187.222656.179687.363281.179687.210937 0 .472656-.132813.796875-.410156.007812.078125.011719.171875.023438.28125 0 .042969.023437.078125.054687.101562.023437.019531.054687.027344.085937.027344.007813 0 .019532 0 .03125-.003906l.542969-.128907c.066407-.015624.109375-.070312.109375-.136718 0-.144532.003906-.261719.007813-.34375.007812-.109375.023437-.234375.046875-.367188.011718-.058594.039062-.113281.082031-.167968l.136719-.160157c.050781-.054687.097656-.105469.140625-.148437.042969-.050782.085937-.089844.121093-.125-.015624.042968-.035156.09375-.058593.152344-.152344.382812-.226563.664062-.226563.859374 0 .164063.042969.300782.132813.402344.09375.109375.222656.164063.375.164063.316406 0 .667969-.210938 1.078125-.644531.023437-.027344.039062-.058594.039062-.097657v-.28125c0-.058593-.039062-.109375-.09375-.132812zm-3.90625.410156c-.128906.15625-.265625.304687-.402344.441406-1.222656 1.222657-3.070312 1.402344-4.066406 1.402344-1.433594 0-2.578125-.351563-2.820312-.59375-.335938-.335937-.675782-1.515625-.652344-2.902344.015625-.960937.226562-2.753906 1.460937-3.984375 1.183594-1.183594 2.707031-1.863281 4.179688-1.863281 1.082031 0 2.019531.363281 2.710937 1.054687 1.140625 1.140626 1.375 2.960938.621094 4.769532l-.082031.003906c-.050781.003906-.09375.03125-.117188.074219-.113281.21875-.238281.371093-.367187.460937.019531-.082031.027344-.152344.027344-.210937 0-.210938-.128907-.339844-.332032-.339844-.207031 0-.367187.101563-.476562.285156-.101563.164063-.148438.328125-.148438.476563 0 .097656.027344.21875.148438.320312-.0625.082032-.128906.164063-.203125.242188-.132813.132812-.234375.230468-.304688.292968-.070312.058594-.109375.066407-.117187.066407-.003906-.011719-.011719-.03125-.011719-.070313 0-.085937.03125-.273437.164063-.707031l.21875-.722656c.011718-.042969.003906-.089844-.023438-.125-.027344-.035157-.066406-.058594-.113281-.058594h-.136719c-.023438 0-.046875.007813-.066406.019531l-.382813.210938c-.109375-.15625-.277343-.234375-.484375-.234375-.191406 0-.40625.078125-.640625.230469-.230469.148437-.421875.351562-.5625.585937-.105469.175781-.175781.359375-.207031.550781-.203125.199219-.3125.28125-.367188.3125-.078124.046875-.15625.070313-.238281.070313-.121093 0-.261719-.03125-.34375-.246094.707031-.230469 1.054688-.53125 1.054688-.921875 0-.167969-.066407-.3125-.1875-.417969-.117188-.101562-.273438-.152343-.460938-.152343-.335937 0-.640625.15625-.910156.472656-.222656.261718-.355469.554687-.386719.875-.214844.210937-.328125.296875-.390625.335937-.074219.050781-.144531.074219-.207031.074219-.023438 0-.054688-.003906-.089844-.0625-.039062-.058594-.058594-.148438-.058594-.265625 0-.054687.007813-.152344.015626-.292969.320312-.351562.5625-.6875.714843-1.003906.164063-.332031.246094-.679688.246094-1.035156 0-.140625-.015625-.25-.058594-.339844-.070312-.164062-.183593-.1875-.246093-.1875-.023438 0-.050782.003906-.089844.015625l-.628906.234375c-.03125.011719-.058594.035156-.074219.066406-.21875.414063-.40625.871094-.558594 1.359375-.152344.492188-.230469.925781-.230469 1.28125 0 .261719.066406.476563.191406.640625.136719.167969.316407.257813.539063.257813.175781 0 .359375-.058594.550781-.167969.132813-.078125.285156-.1875.449219-.328125.039063.089844.09375.167969.160156.238281.164063.167969.378907.253906.640625.253906.226563 0 .433594-.054687.621094-.164062.121094-.070312.25-.167969.390625-.292969.027344.074219.066406.140625.109375.199219.128906.171875.292969.257812.480469.257812.183593 0 .355469-.066406.519531-.195312.082031-.066406.167969-.152344.253906-.25.027344.132812.078125.238281.152344.316406.085938.085938.199219.128906.328125.128906.132813 0 .269531-.042968.40625-.136718.121094-.078125.308594-.242188.578125-.496094l.007812-.007812c.207032-.207032.371094-.40625.484376-.59375-.09375.183593-.152344.34375-.175782.492187zm3.859375.003906c-.378906.402344-.707031.601563-.976563.601563-.109374 0-.199218-.035156-.265624-.113282-.070313-.078124-.101563-.179687-.101563-.3125 0-.175781.074219-.441406.214844-.804687.078125-.195313.117187-.316406.117187-.371094 0-.050781-.023437-.078125-.0625-.078125-.023437 0-.054687.011719-.089844.035156-.035156.023438-.078124.054688-.121093.09375-.042969.039063-.089844.085938-.140625.140626-.042969.046874-.089844.097656-.140625.15625l-.140625.160156c-.058594.074218-.097656.152344-.113282.234375-.023437.136719-.039062.269531-.046874.382812-.007813.089844-.007813.207031-.007813.355469l-.546875.128906c-.019531-.222656-.027344-.386718-.027344-.496094 0-.03125.003906-.0625.003906-.089843-.402343.390625-.714843.585937-.933593.585937-.097657 0-.183594-.042968-.253907-.125-.070312-.085937-.105468-.191406-.105468-.316406 0-.035156.007812-.070312.011718-.109375.03125-.21875.152344-.492187.363282-.824219-.125.0625-.257813.105469-.402344.132813-.105469.195312-.273438.40625-.503906.632812-.261719.25-.449219.414063-.5625.488281-.113282.078126-.222656.113282-.328125.113282-.257813 0-.382813-.226563-.367188-.6875-.164062.238281-.316406.410156-.453125.523437-.140625.109375-.285156.164063-.433594.164063-.144531 0-.265624-.066406-.367187-.203125-.078125-.105469-.125-.230469-.144531-.378907-.199219.195313-.378906.34375-.539063.4375-.167969.097657-.351562.144532-.550781.144532-.222656 0-.402344-.070313-.542969-.214844-.101562-.105469-.164062-.234375-.191406-.390625v.003906c-.222656.207031-.417969.355469-.585937.457031-.167969.097657-.328126.144532-.484376.144532-.175781 0-.316406-.066406-.425781-.203125-.105469-.136719-.160156-.320313-.160156-.550781 0-.34375.074219-.757813.226563-1.242188.148437-.484375.332031-.929688.542968-1.335938l.628906-.230468c.019532-.007813.035157-.011719.042969-.011719.050781 0 .089844.035156.117188.105469.03125.070312.046875.164062.046875.28125 0 .335937-.078125.660156-.230469.972656-.15625.316406-.398437.652344-.726563 1.007812-.011718.171876-.019531.289063-.019531.351563 0 .144531.027344.257813.078125.339844.050782.085937.121094.125.210938.125.085937 0 .183594-.03125.28125-.09375.101562-.0625.25-.191407.449218-.390625.019532-.308594.140626-.59375.359376-.847656.242187-.285157.507812-.425782.804687-.425782.152344 0 .277344.039063.367187.121094.089844.078125.136719.179688.136719.308594 0 .339844-.359375.617187-1.085937.828125.066406.320312.238281.480469.515625.480469.109375 0 .214843-.027344.3125-.085938.09375-.054688.238281-.179688.425781-.371094.027344-.1875.089844-.367187.195312-.539062.136719-.222656.308594-.40625.519532-.542969.214844-.140625.402344-.207031.5625-.207031.207031 0 .351562.09375.433594.285156l.503906-.28125h.136718l-.21875.722656c-.109374.363282-.167968.613282-.167968.75 0 .132813.050781.210938.152344.210938.0625 0 .132812-.035156.210937-.101563.074219-.066406.179687-.167969.3125-.296875.109375-.121094.214844-.246094.304687-.382812-.140624-.0625-.210937-.15625-.210937-.28125 0-.121094.042969-.261719.128906-.40625.085938-.140625.207031-.214844.355469-.214844.128906 0 .191406.066406.191406.199219 0 .101562-.035156.25-.109375.441406.273438-.027344.511719-.234375.714844-.625h.011719l.117187-.003906h.042969l.054688-.003907-.230469.628907c-.09375.265625-.15625.449219-.183594.546875-.027344.09375-.042969.179687-.042969.253906 0 .070312.015625.125.046875.164062.035157.039063.078125.0625.132813.0625.058594 0 .113281-.019531.167968-.0625.054688-.039062.175782-.152343.363282-.332031.015625-.121093.039062-.242187.070312-.355469.0625-.238281.160156-.503906.296875-.800781l.601563-.113281c-.125.339844-.210938.605469-.25.800781.269531-.300781.484375-.507812.644531-.625.160156-.113281.300781-.171875.421875-.171875.082031 0 .152344.03125.207031.09375.058594.0625.085938.144532.085938.238282 0 .15625-.070313.417968-.210938.777343-.097656.25-.148437.410157-.148437.484375 0 .097656.042968.148438.121094.148438.121093 0 .316406-.15625.585937-.472656v.28125zm-5.613281-1.351562c-.164063 0-.320313.140625-.46875.417969-.144532.28125-.21875.539062-.21875.773437 0 .089844.023437.160156.066406.214844.042969.058593.097656.085937.164062.085937.164063 0 .320313-.140625.464844-.421875.144532-.28125.21875-.539062.21875-.777343 0-.089844-.019531-.164063-.0625-.214844-.039062-.050782-.09375-.078125-.164062-.078125zm-.117188 1.003906c-.117187.222656-.234375.34375-.339844.34375-.023437 0-.035156-.003906-.058593-.027344-.023438-.03125-.035157-.074219-.035157-.128906 0-.210937.070313-.449219.207032-.707031.117187-.222656.238281-.34375.34375-.34375.027344 0 .042968.007812.054687.023437.019531.023438.03125.070313.03125.128907 0 .210937-.066406.449218-.203125.707031zm-2.003906-.996094c-.105469 0-.210938.082031-.308594.246094s-.148437.378906-.148437.644531c.421875-.117187.632812-.339844.632812-.65625 0-.15625-.058593-.234375-.175781-.234375m-.304688.6875c.019532-.148437.058594-.269531.117188-.371093.066406-.113282.136719-.175782.1875-.175782h.015625s.019531.019532.019531.09375c0 .136719-.039062.320313-.339844.453125"/></svg>