<svg height="18" viewBox="0 0 18 18" width="18" xmlns="http://www.w3.org/2000/svg"><path d="m8.988281 0c-4.960937 0-8.988281 4.03125-8.988281 9s4.027344 9 8.988281 9c4.964844 0 8.992188-4.03125 8.992188-9s-4.027344-9-8.992188-9m-4.421875 14.296875 3.097656-11.523437h1.722657l-3.097657 11.523437zm9.894532-4.234375-.941407.761719-1.496093-1.699219-1.5625 1.699219-.976563-.71875 1.238281-1.878907-2.042968-.800781.363281-1.300781 2.15625.558594.179687-2.136719h1.21875l.179688 2.136719 2.042968-.515625.417969 1.257812-2.019531.800781zm0 0"/></svg>