<svg height="18" viewBox="0 0 18 18" width="18" xmlns="http://www.w3.org/2000/svg"><g fill="#2f406a"><path d="m14.320312 5.867188v6.226562l-5.296874 3.140625-.046876.042969v2.328125l.046876.046875 7.453124-4.308594v-8.6875l-.070312-.015625-2.109375 1.175781.011719.050782"/><path d="m3.710938 12.148438 5.3125 3.085937v2.417969l-7.507813-4.328125v-8.648438l.078125-.011719 2.097656 1.21875.019532.070313zm0 0"/><path d="m3.710938 5.953125-2.195313-1.277344 7.492187-4.328125 7.476563 4.308594-2.164063 1.210938-5.3125-3.03125zm.515624 5.859375v-2.546875l.058594.035156 2.042969 1.1875.015625.011719v2.464844zm7.484376 1.210938v-2.476563l.011718-.007813 2.007813-1.171874.0625-.039063v2.460937zm-2.589844 1.527343-.058594-.0625v-2.394531l.070312-.023438 2.007813-1.171874.0625-.035157v2.453125z"/><path d="m7.003906 13.390625v-2.539063l.058594.03125 2.039062 1.191407.015626 2.476562zm1.894532-10.164063-2.082032 1.230469 2.117188 1.234375 2.082031-1.214844zm-4.671876 5.261719v-2.503906h.058594l2.042969 1.1875.015625.046875v2.425781zm0 0"/><path d="m6.308594 4.753906-2.082032 1.230469 2.117188 1.234375 2.082031-1.21875zm5.402344 4.949219v-2.433594l.011718-.058593 2.007813-1.164063.0625.015625v2.40625zm0 0"/><path d="m11.671875 4.8125-2.078125 1.234375 2.117188 1.230469 2.082031-1.214844zm-2.550781 6.417969-.058594-.0625v-2.339844l.058594-.027344.011718-.058593 2.007813-1.167969.0625.011719v2.410156z"/><path d="m7.003906 10.074219v-2.503907h.058594l2.039062 1.1875.015626.046876v2.425781zm0 0"/><path d="m9.085938 6.335938-2.082032 1.234374 2.117188 1.230469 2.078125-1.214843zm0 0"/></g></svg>