<svg height="18" viewBox="0 0 18 18" width="18" xmlns="http://www.w3.org/2000/svg"><g fill="none" stroke="#fff" stroke-linecap="round" stroke-linejoin="round" stroke-width="2" transform="scale(.75)"><path d="m12.21875 2h-.4375c-1.104167 0-2 .895833-2 2v.182292c0 .713541-.385417 1.369791-1 1.729166l-.432292.25c-.619791.354167-1.380208.354167-2 0l-.151041-.083333c-.953125-.546875-2.177084-.223958-2.729167.734375l-.21875.375c-.552083.958333-.223958 2.177083.729167 2.734375l.151041.098958c.614584.354167.994792 1.010417 1 1.71875v.510417c.005209.71875-.380208 1.380208-1 1.739583l-.151041.088542c-.953125.557292-1.28125 1.776042-.729167 2.734375l.21875.375c.552083.958333 1.776042 1.28125 2.729167.734375l.151041-.083333c.619792-.354167 1.380209-.354167 2 0l.432292.25c.614583.359375 1 1.015625 1 1.729166v.182292c0 1.104167.895833 2 2 2h.4375c1.104167 0 2-.895833 2-2v-.182292c0-.713541.385417-1.369791 1-1.729166l.432292-.25c.619791-.354167 1.380208-.354167 2 0l.151041.083333c.953125.546875 2.177084.223958 2.729167-.734375l.21875-.385417c.552083-.958333.223958-2.177083-.729167-2.734375l-.151041-.078125c-.619792-.359375-1.005209-1.020833-1-1.739583v-.5c-.005209-.71875.380208-1.380208 1-1.739583l.151041-.088542c.953125-.557292 1.28125-1.776042.729167-2.734375l-.21875-.375c-.552083-.958333-1.776042-1.28125-2.729167-.734375l-.151041.083333c-.619792.354167-1.380209.354167-2 0l-.432292-.25c-.614583-.359375-1-1.015625-1-1.729166v-.182292c0-1.104167-.895833-2-2-2"/><path d="m15 12c0 1.65625-1.34375 3-3 3s-3-1.34375-3-3 1.34375-3 3-3 3 1.34375 3 3zm0 0"/></g></svg>