<svg height="18" viewBox="0 0 18 18" width="18" xmlns="http://www.w3.org/2000/svg"><path d="m14 11c0 1.104167-.895833 2-2 2s-2-.895833-2-2c0-2.208333 1.791667-4 4-4s4 1.791667 4 4c0 3.3125-2.6875 6-6 6s-6-2.6875-6-6c0-4.416667 3.583333-8 8-8s8 3.583333 8 8c0 5.520833-4.479167 10-10 10s-10-4.479167-10-10c-.005208-2.604167.84375-5.140625 2.421875-7.21875.416667-.614583 1.140625-.947917 1.880208-.864583.739584.083333 1.369792.567708 1.640625 1.265625.265625.692708.125 1.479166-.364583 2.036458" fill="none" stroke="#fff" stroke-linecap="round" stroke-linejoin="round" stroke-width="2" transform="scale(.75)"/></svg>