<svg height="18" viewBox="0 0 18 18" width="18" xmlns="http://www.w3.org/2000/svg"><path d="m21 17-2.15625-1.869792c-.145833-.135416-.359375-.171875-.541667-.09375-.1875.078125-.302083.260417-.302083.463542v.5c0 .552083-.447917 1-1 1h-2c-.552083 0-1-.447917-1-1 0-2.546875-3.989583-3.96875-8.5-4-1.380208 0-2.5 1.119792-2.5 2.5s1.119792 2.5 2.5 2.5c4.151042 0 4.744792-11.296875 5.708333-13.5.447917-1.026042 1.520834-1.625 2.625-1.473958 1.109375.145833 1.979167 1.015625 2.140625 2.119791.15625 1.104167-.4375 2.182292-1.458333 2.640625m-11.515625 14.213542h18" fill="none" stroke="#fff" stroke-linecap="round" stroke-linejoin="round" stroke-width="2" transform="scale(.75)"/></svg>