<svg height="18" viewBox="0 0 18 18" width="18" xmlns="http://www.w3.org/2000/svg"><path d="m12 13v8m0-18v3m6 0c.515625 0 1.015625.203125 1.385417.5625l2.307291 2.21875c.197917.1875.307292.447917.307292.71875s-.109375.53125-.307292.71875l-2.307291 2.21875c-.369792.359375-.869792.5625-1.385417.5625h-12c-.515625 0-1.015625-.203125-1.385417-.5625l-2.307291-2.21875c-.197917-.1875-.307292-.447917-.307292-.71875s.109375-.53125.307292-.71875l2.307291-2.21875c.369792-.359375.869792-.5625 1.385417-.5625zm0 0" fill="none" stroke="#fff" stroke-linecap="round" stroke-linejoin="round" stroke-width="2" transform="scale(.75)"/></svg>