<svg height="18" viewBox="0 0 18 18" width="18" xmlns="http://www.w3.org/2000/svg"><path d="m9 .917969-5.058594.53125-.027344.011719-3.914062 5.214843v.046875l8.972656 10.359375h.058594l8.96875-10.363281v-.042969l-3.910156-5.214843-.027344-.011719-.007812-.003907zm.09375.082031 4.925781.515625.011719.238281.257812 4.835938-.488281-.523438zm-.1875 0-5.195312 5.589844.144531-2.75.128906-2.324219zm.09375.011719 5.253906 5.648437h-10.503906l1.378906-1.484375zm5.101562.589843 3.792969 5.058594h-3.523437zm-10.199218.007813-.273438 5.050781h-3.523437l.695312-.925781zm-3.792969 5.125h3.53125l5.183594 10.066406-2.140625-2.476562zm3.613281 0h10.554688l-5.277344 10.242187zm10.636719 0h3.53125l-6.574219 7.589844-2.140625 2.476562zm0 0" fill="#fdad00"/></svg>