<svg height="18" viewBox="0 0 18 18" width="18" xmlns="http://www.w3.org/2000/svg"><path d="m3.925781 1.453125 5.074219-.53125 5.074219.53125 3.925781 5.230469-9 10.394531-9-10.394531zm0 0" fill="#fdb300"/><path d="m3.644531 6.683594 5.355469 10.394531-9-10.394531zm10.710938 0-5.355469 10.394531 9-10.394531zm0 0" fill="#ea6c00"/><path d="m3.644531 6.683594h10.710938l-5.355469 10.394531zm0 0" fill="#fdad00"/><path d="m9 .921875-5.074219.53125-.28125 5.230469zm0 0 5.074219.53125.28125 5.230469zm0 0" fill="#fdd231"/><path d="m18 6.683594-3.925781-5.230469.28125 5.230469zm0 0" fill="#fdad00"/><path d="m9 .921875-5.355469 5.761719h10.710938zm0 0" fill="#feeeb7"/><path d="m0 6.683594 3.925781-5.230469-.28125 5.230469zm0 0" fill="#fdad00"/></svg>