<svg height="18" viewBox="0 0 18 18" width="18" xmlns="http://www.w3.org/2000/svg"><path d="m3.816406 11.359375c0 1.03125-.839844 1.875-1.875 1.875s-1.878906-.84375-1.878906-1.875c0-1.035156.84375-1.878906 1.878906-1.878906h1.875zm.949219 0c0-1.035156.84375-1.878906 1.875-1.878906 1.035156 0 1.878906.84375 1.878906 1.878906v4.699219c0 1.035156-.84375 1.878906-1.878906 1.878906-1.03125 0-1.875-.84375-1.875-1.878906zm1.875-7.542969c-1.03125 0-1.875-.839844-1.875-1.875s.84375-1.878906 1.875-1.878906c1.035156 0 1.878906.84375 1.878906 1.878906v1.875zm0 .949219c1.035156 0 1.878906.84375 1.878906 1.875 0 1.035156-.84375 1.878906-1.878906 1.878906h-4.699219c-1.035156 0-1.878906-.84375-1.878906-1.878906 0-1.03125.84375-1.875 1.878906-1.875zm7.542969 1.875c0-1.03125.839844-1.875 1.875-1.875s1.878906.84375 1.878906 1.875c0 1.035156-.84375 1.878906-1.878906 1.878906h-1.875zm-.949219 0c0 1.035156-.84375 1.878906-1.875 1.878906-1.035156 0-1.878906-.84375-1.878906-1.878906v-4.699219c0-1.035156.84375-1.878906 1.878906-1.878906 1.03125 0 1.875.84375 1.875 1.878906zm-1.875 7.542969c1.03125 0 1.875.839844 1.875 1.875s-.84375 1.878906-1.875 1.878906c-1.035156 0-1.878906-.84375-1.878906-1.878906v-1.875zm0-.949219c-1.035156 0-1.878906-.84375-1.878906-1.875 0-1.035156.84375-1.878906 1.878906-1.878906h4.699219c1.035156 0 1.878906.84375 1.878906 1.878906 0 1.03125-.84375 1.875-1.878906 1.875zm0 0"/></svg>