<svg height="18" viewBox="0 0 18 18" width="18" xmlns="http://www.w3.org/2000/svg"><path d="m3.832031 11.351562c0 1.03125-.839843 1.871094-1.871093 1.871094s-1.8710942-.839844-1.8710942-1.871094.8398442-1.875 1.8710942-1.875h1.871093zm.945313 0c0-1.03125.839844-1.875 1.871094-1.875s1.875.84375 1.875 1.875v4.6875c0 1.03125-.84375 1.871094-1.875 1.871094s-1.871094-.839844-1.871094-1.871094zm0 0" fill="#de1c59"/><path d="m6.648438 3.832031c-1.03125 0-1.871094-.839843-1.871094-1.871093s.839844-1.8710942 1.871094-1.8710942 1.875.8398442 1.875 1.8710942v1.871093zm0 .945313c1.03125 0 1.875.839844 1.875 1.871094s-.84375 1.875-1.875 1.875h-4.6875c-1.03125 0-1.8710942-.84375-1.8710942-1.875s.8398442-1.871094 1.8710942-1.871094zm0 0" fill="#35c5f0"/><path d="m14.167969 6.648438c0-1.03125.839843-1.871094 1.871093-1.871094s1.871094.839844 1.871094 1.871094-.839844 1.875-1.871094 1.875h-1.871093zm-.945313 0c0 1.03125-.839844 1.875-1.871094 1.875s-1.875-.84375-1.875-1.875v-4.6875c0-1.03125.84375-1.8710942 1.875-1.8710942s1.871094.8398442 1.871094 1.8710942zm0 0" fill="#2eb57d"/><path d="m11.351562 14.167969c1.03125 0 1.871094.839843 1.871094 1.871093s-.839844 1.871094-1.871094 1.871094-1.875-.839844-1.875-1.871094v-1.871093zm0-.945313c-1.03125 0-1.875-.839844-1.875-1.871094s.84375-1.875 1.875-1.875h4.6875c1.03125 0 1.871094.84375 1.871094 1.875s-.839844 1.871094-1.871094 1.871094zm0 0" fill="#ebb02e"/></svg>