<svg height="18" viewBox="0 0 18 18" width="18" xmlns="http://www.w3.org/2000/svg"><g fill="none" stroke="#fff" stroke-linecap="round" stroke-linejoin="round" stroke-width="2" transform="scale(.75)"><path d="m2 13c0 3.3125 2.6875 6 6 6s6-2.6875 6-6c0-2.208333-1.791667-4-4-4s-4 1.791667-4 4c0 1.104167.895833 2 2 2s2-.895833 2-2"/><path d="m18 13c0 4.416667-3.583333 8-8 8s-8-3.583333-8-8 3.583333-8 8-8 8 3.583333 8 8zm0 0"/><path d="m2 21h12c4.401042 0 8-3.598958 8-8v-6c0-1.104167-.895833-2-2-2s-2 .895833-2 2v6m0-10 1.098958 2.197917m2.901042-2.197917-1.098958 2.197917"/></g></svg>