<svg height="18" viewBox="0 0 18 18" width="18" xmlns="http://www.w3.org/2000/svg"><path d="m8.695312.667969c-.449218.007812-.894531.054687-1.328124.148437l-.339844.113282c-.675782.226562-1.238282.5625-1.574219 1.015624l-.226563.335938-1.691406 2.929688.023438.003906c-.671875.820312-.703125 1.980468-.023438 3.039062.253906.328125.574219.621094.933594.875l-2.171875.703125-2.2539062 3.941407s5.9726562 4.507812 10.5898432 3.378906l.339844-.113282c.746094-.21875 1.304688-.628906 1.640625-1.132812l.046875.007812 2.253906-4.054687c.449219-.789063.339844-1.691406-.226562-2.59375-.285156-.351563-.621094-.667969-.992188-.933594l2.234376-.753906 2.027343-3.378906s-4.90625-3.609375-9.261719-3.53125zm0 0"/></svg>