<svg height="18" viewBox="0 0 18 18" width="18" xmlns="http://www.w3.org/2000/svg"><path d="m11.703125.285156-.417969.6875.058594.039063c2.570312 1.5625 4.667969 3.898437 5.894531 6.574219l.027344.0625.0625-.027344.671875-.308594-.027344-.0625c-1.296875-2.824219-3.5-5.28125-6.210937-6.929688zm.046875.195313c2.636719 1.617187 4.785156 4.015625 6.0625 6.765625l-.480469.21875c-1.234375-2.65625-3.308593-4.972656-5.855469-6.535156zm-5.433594.203125-.269531.933594.066406.019531c5.09375 1.460937 9.160157 5.65625 10.351563 10.667969l.015625.066406.070312-.015625.875-.207031-.015625-.070313c-1.269531-5.351563-5.601562-9.816406-11.027344-11.375zm.09375.175781c5.324219 1.554687 9.570313 5.933594 10.847656 11.183594l-.675781.160156c-1.222656-5.011719-5.273437-9.1875-10.363281-10.675781zm-6.410156 1.148437v1.136719h.0703125c8.1093755 0 14.7070315 6.503907 14.7070315 14.5v.070313h1.136718v-.070313c0-8.621093-7.109374-15.636719-15.8437495-15.636719zm.140625.144532c8.601563.035156 15.589844 6.933594 15.628906 15.421875h-.859375c-.035156-8.015625-6.640625-14.527344-14.769531-14.566407zm0 0" fill="#549dd0"/></svg>