<svg height="18" viewBox="0 0 18 18" width="18" xmlns="http://www.w3.org/2000/svg"><path d="m12 21c4.96875 0 9-4.03125 9-9h-18c0 4.96875 4.03125 9 9 9m-5 0h10m2.5-9 2.5-6m-5.75-3c.270833.098958.802083.53125.75 1.359375-.0625.828125-.932292 1.203125-1 2.020833-.052083.78125.338542 1.239584.729167 1.619792m-5.479167-5c.270833.098958.802083.53125.739583 1.359375-.052083.828125-.927083 1.203125-.979166 2.020833-.0625.78125.328125 1.239584.71875 1.619792m-5.479167-5c.270833.098958.802083.53125.75 1.359375-.0625.828125-.932292 1.203125-1 2.020833-.052083.78125.338542 1.239584.739583 1.619792" fill="none" stroke="#fff" stroke-linecap="round" stroke-linejoin="round" stroke-width="2" transform="scale(.75)"/></svg>