<svg height="18" viewBox="0 0 18 18" width="18" xmlns="http://www.w3.org/2000/svg"><path d="m16.375.933594c-.25.605468-.574219 1.179687-.960938 1.707031-1.695312-1.691406-3.992187-2.64453125-6.386718-2.64453125-4.953125 0-9.027344 4.07812525-9.027344 9.03906225 0 2.472656 1.011719 4.839844 2.804688 6.546875l.332031.296875c1.628906 1.371094 3.6875 2.125 5.816406 2.125 4.710937 0 8.667969-3.691406 9.003906-8.394531.246094-2.300781-.429687-5.210937-1.582031-8.675781m-12.289062 14.699218c-.144532.179688-.367188.285157-.597657.285157-.425781 0-.773437-.347657-.773437-.773438 0-.421875.351562-.773437.773437-.773437.175781 0 .347657.0625.484375.175781.332032.265625.382813.753906.113282 1.085937m12.253906-2.703124c-2.230469 2.96875-6.988282 1.96875-10.039063 2.109374 0 0-.542969.035157-1.085937.121094 0 0 .203125-.085937.46875-.1875 2.140625-.742187 3.15625-.890625 4.457031-1.558594 2.449219-1.246093 4.871094-3.976562 5.378906-6.8125-.933593 2.730469-3.761719 5.078126-6.339843 6.03125-1.765626.652344-4.957032 1.285157-4.957032 1.285157l-.128906-.070313c-2.171875-1.054687-2.238281-5.761718 1.710938-7.28125 1.726562-.664062 3.382812-.300781 5.246093-.746094 1.996094-.472656 4.300781-1.96875 5.238281-3.917968 1.050782 3.121094 2.316407 8.007812.050782 11.027344zm0 0" fill="#77bc1f"/></svg>