<svg height="18" viewBox="0 0 18 18" width="18" xmlns="http://www.w3.org/2000/svg"><path d="m17.578125 11.320312c-.238281 0-.4375.183594-.4375.421876 0 .238281.183594.421874.4375.421874.238281 0 .421875-.183593.421875-.421874 0-.238282-.183594-.421876-.421875-.421876m-.015625.070313c.199219 0 .339844.15625.339844.351563 0 .195312-.140625.351562-.324219.351562-.195313 0-.335937-.15625-.335937-.351562 0-.195313.125-.335938.320312-.351563m-.140625.113281v.476563h.085937v-.210938h.085938l.125.210938h.085938l-.128907-.222657c.085938 0 .113281-.058593.113281-.128906 0-.082031-.054687-.125-.167968-.125zm.070313.210938v-.15625h.101562c.070312 0 .097656.027344.097656.085937 0 .054688-.042968.082031-.085937.082031zm-13.089844 1.460937c-.226563-.167969-.492188-.308593-.859375-.421875-.464844-.152344-1.136719-.308594-1.40625-.40625-.167969-.070312-.238281-.167968-.238281-.308594 0-.199218.238281-.3125.519531-.324218.464843.011718.605469.28125.632812.464844h1.351563zm1.6875 1.253907h.996094c.875-.015626 1.578124-.453126 1.929687-1.085938.027344-.054688.054687-.097656.082031-.152344.058594.070313.097656.097656.15625.152344.238282.210938.546875.367188.871094.464844.519531.183594.929688.308594 1.070312.367187.265626.113281.433594.195313.433594.433594 0 .28125-.308594.394531-.632812.410156-.433594-.015625-.871094-.226562-.855469-.660156h-1.703125c.085938 1.136719 1.210938 2.023437 2.53125 2.039063.800781-.015626 1.546875-.242188 2.023438-.816407.480468.492188 1.042968.800781 1.828124.816407 1.253907-.015626 2.546876-.632813 2.5625-1.957032 0-.421875-.113281-.785156-.382812-1.097656-.238281-.28125-.574219-.460938-1.039062-.589844-.464844-.152344-1.140626-.308594-1.40625-.40625-.167969-.070312-.238282-.167968-.238282-.308594 0-.199218.238282-.3125.519532-.324218.464843.011718.605468.28125.632812.464844h1.632812c.011719-1.125-.929687-1.871094-2.265624-1.871094-1 0-1.671876.378906-2.011719.925781-.363281-.574219-1.097657-.925781-2.011719-.925781-.953125 0-1.617188.363281-1.96875.886718-.390625-.507812-1.039062-.832031-1.828125-.832031h-2.613281v.859375c-.367188-.578125-1.097656-.914062-1.996094-.914062-1.394531 0-2.152344.773437-2.222656 1.660156 0 .546875.265625 1.039062.675781 1.390625.238281.210937.519531.367187.84375.464844.519531.183593.925781.308593 1.066406.363281.269531.113281.4375.199219.4375.4375 0 .28125-.324219.394531-.632812.40625-.4375-.011719-.871094-.222656-.859375-.660156h-1.730469c.0859375 1.140625 1.210937 2.027344 2.53125 2.039062.734375-.011718 1.40625-.210937 1.859375-.632812v.535156h1.6875zm0-2.660157h.914062c.335938 0 .632813.28125.632813.632813 0 .351562-.28125.632812-.632813.632812h-.914062zm6.917968 1.589844c-.238281-.28125-.578124-.464844-1.039062-.589844-.464844-.15625-1.140625-.308593-1.394531-.410156-.183594-.070313-.265625-.167969-.265625-.308594 0-.195312.238281-.308593.519531-.324219.476563.015626.605469.28125.632813.464844h1.152343c.070313.449219.296875.859375.660157 1.167969.242187.210937.535156.367187.859374.464844.519532.183593.929688.308593 1.054688.363281.28125.113281.4375.199219.4375.4375 0 .28125-.324219.394531-.632812.40625-.4375-.011719-.875-.222656-.859376-.660156h-.773437c0-.40625-.125-.746094-.351563-1.011719m-12.992187-11.785156v.492187h3.5v-.492187zm3.976563 0v.492187h5.007812s-.507812-.492187-1.179688-.492187zm5.992187 0v.492187h3.023437l-.183593-.492187zm5.1875 0-.179687.492187h2.992187v-.492187zm-15.15625.957031v.492188h3.5v-.492188zm3.976563 0v.492188h5.570312s-.070312-.378907-.183594-.492188zm5.992187 0v.492188h3.347656l-.167969-.492188zm4.824219 0-.167969.492188h3.332031v-.492188zm-13.78125.957031v.492188h1.503906v-.492188zm3.980468 0v.492188h1.515626v-.492188zm3.007813 0v.492188h1.519531s.097656-.269531.097656-.492188zm2.980469 0v.492188h2.6875l-.183594-.492188zm3.488281 0-.183594.492188h2.699219v-.492188zm-13.457031.96875v.492188h1.503906v-.492188zm3.980468 0v.492188h3.878907s.324219-.253907.421875-.492188zm5.988282 0v.492188h1.519531v-.265625l.097656.265625h2.785157l.097656-.265625v.265625h1.519531v-.492188h-2.855469l-.152344.421875-.15625-.421875zm-9.96875.957031v.492188h1.503906v-.492188zm3.980468 0v.492188h4.300782c-.097656-.238281-.421875-.492188-.421875-.492188zm5.988282 0v.492188h1.519531v-.492188zm1.785156 0 .183594.492188h2.082031l.167969-.492188zm2.714844 0v.492188h1.519531v-.492188zm-14.46875.957032v.492187h1.503906v-.492187zm3.980468 0v.492187h1.515626v-.492187zm3.007813 0v.492187h1.617187c0-.238281-.097656-.492187-.097656-.492187zm2.980469 0v.492187h1.519531v-.492187zm2.136718 0 .183594.492187h1.394532l.179687-.492187zm2.363282 0v.492187h1.519531v-.492187zm-15.4531252.957031v.492187h3.5000002v-.492187zm3.9492192 0v.492187h5.402343c.113281-.113281.183594-.492187.183594-.492187zm6.019531 0v.492187h2.503906v-.492187zm3.460937 0 .183594.492187h.714844l.167968-.492187zm2.023438 0v.492187h2.519531v-.492187zm-15.4531252.953125v.492188h3.5000002v-.492188zm3.9492192 0v.492188h3.8125c.675781 0 1.179687-.492188 1.179687-.492188zm6.019531 0v.492188h2.503906v-.492188zm3.8125 0 .183593.492188h.027344l.183594-.492188zm1.671875 0v.492188h2.519531v-.492188zm0 0" fill="#cc1e4c"/></svg>