<svg height="18" viewBox="0 0 18 18" width="18" xmlns="http://www.w3.org/2000/svg"><path d="m3.042969.179688c-.496094 0-.980469.117187-1.417969.347656-.515625.273437-.941406.6875-1.230469 1.191406-.054687.097656-.105469.199219-.152343.300781-.027344.070313-.054688.136719-.078126.203125-.050781.140625-.085937.28125-.1093745.425782-.0390625.1875-.0546875.378906-.0546875.570312v11.566406c0 .453125.101562.90625.300781 1.316406.507813 1.050782 1.574219 1.722657 2.742188 1.71875h6.171875c.046875 0 .085937-.015624.117187-.046874s.046875-.070313.046875-.117188v-.734375c0-.046875-.015625-.085937-.046875-.117187s-.070312-.050782-.117187-.050782h-.800782l-2.390624-4.84375 5.457031-7.230468c.046875-.0625.082031-.136719.101562-.210938l5 .765625v1.125c0 .09375.074219.164063.164063.164063h.742187c.089844 0 .164063-.070313.164063-.164063v-3.140625c0-.917969-.414063-1.785156-1.128906-2.359375-.539063-.441406-1.214844-.683594-1.914063-.679687zm0 1.0625h2.226562l.160157 1.289062-2.953126-.453125-.933593-.140625c.375-.441406.921875-.695312 1.5-.695312m7.1875 0 .257812 2.0625-4.042969-.617188-.183593-1.4375zm.988281 0h3.226562c1.179688.003906 2.132813.957031 2.136719 2.136718v.855469l-5.085937-.777344zm-9.621094 1.699218 3.695313.566406-2.0625 2.738282zm4.796875.734375 4.128907.632813-4.988282 6.617187-1.820312-3.695312 2.679687-3.550781zm-5.328125.414063 1.324219 2.675781-1.324219.164063zm13.472656 3.457031c-1.964843 0-3.734374.277344-3.734374 2.300781v.386719c0 1.011719.351562 2.078125 1.769531 2.628906l2.609375 1c.847656.347657 1.070312.699219 1.070312 1.230469v.222656c0 .792969-.460937.957032-1.933594.957032h-3.402343c-.078125-.011719-.152344.015624-.207031.070312-.054688.054688-.082032.128906-.070313.207031v.808594c0 .148437.054687.257813.277344.273437.3125.039063 1.765625.167969 3.367187.167969 2.484375 0 3.714844-.402343 3.714844-2.464843v-.203126c0-1.011718-.148438-1.949218-1.839844-2.59375l-2.445312-.976562c-.902344-.332031-1.140625-.773438-1.140625-1.289062v-.238282c0-.664062.496093-.957031 1.34375-.957031h3.421875c.074218.011719.152344-.011719.203125-.066406.054687-.054688.082031-.132813.070312-.207031v-.792969c.007813-.074219-.015625-.144531-.066406-.199219-.046875-.058594-.117187-.089844-.191406-.09375-.933594-.113281-1.875-.171875-2.816407-.171875m-11.691406.152344 1.847656 3.734375-3.628906.457031v-3.964844zm2.304688 4.671875 2.164062 4.382812h-4.109375c-1.179687 0-2.136719-.957031-2.140625-2.132812v-1.738282zm0 0" fill="#8c0000"/></svg>