<svg height="18" viewBox="0 0 18 18" width="18" xmlns="http://www.w3.org/2000/svg"><path d="m1.320312 10.265625c-.105468-.015625-.378906-.085937-.605468-.148437l-.410156-.113282.210937-.390625.210937-.386719-.171874-.210937c-.242188-.300781-.55078175-.953125-.554688-1.164063-.00390625-.496093.636719-1.210937 1.421875-1.59375.542969-.265624.96875-.269531 1.507813-.019531l.40625.191407.117187-.167969c.0625-.09375.117187-.214844.117187-.269531 0-.050782.054688-.097657.117188-.097657s.117188.015625.117188.035157c0 .046874-.472657 1.238281-.5 1.265624-.015626.015626-.140626-.046874-.289063-.132812-.40625-.238281-.921875-.398438-1.320313-.410156-.929687-.023438-1.25.882812-.597656 1.675781l.230469.28125.628906-.511719c.707031-.566406.789063-.582031 1.339844-.199218.617187.425781.628906 1.074218.03125 1.753906-.527344.601562-1.074219.769531-2.007813.613281zm1.585938-.652344c.304688-.238281.285156-.6875-.050781-1.039062-.417969-.445313-.546875-.425781-1.28125.1875s-.738281.589843.136719.867187c.578124.1875.941406.183594 1.195312-.015625m5.945312 2.351563c-.210937-.074219-.773437-.308594-1.257812-.515625-1.300781-.570313-1.484375-.578125-1.871094-.109375-.089844.109375-.1875.179687-.21875.152344-.082031-.085938.167969-.484376.464844-.746094.242188-.214844.324219-.242188.59375-.214844.171875.019531.738281.21875 1.261719.441406 1.179687.5 1.523437.605469 1.976562.605469.546875 0 .828125-.382813.65625-.890625-.042969-.128906-.03125-.171875.054688-.171875.160156 0 .242187.597656.125.941406-.046875.144531-.191407.355469-.316407.460938-.1875.15625-.308593.191406-.660156.1875-.238281 0-.601562-.0625-.8125-.140625zm-3.042968-1.824219c-.484375-.226563-.921875-.65625-1.171875-1.160156-.40625-.804688-.28125-1.324219.484375-2.019531.640625-.585938 1.164062-.816407 1.871094-.816407.511718 0 .621093.027344.949218.230469.785156.484375.980469 1.410156.507813 2.414062-.554688 1.183594-1.722657 1.78125-2.640625 1.351563zm1.621094-.558594c.363281-.179687.613281-1.007812.511718-1.695312-.128906-.847657-1.273437-1.425781-2.117187-1.066407-.863281.367188-.875 1.351563-.027344 2.238282.59375.621094 1.105469.78125 1.632813.523437m1.644531.714844c0-.035156.136719-.097656.300781-.140625l.300781-.074219.066407-1.085937c.070312-1.199219.019531-2.378906-.113282-2.535156-.046875-.054688-.1875-.125-.316406-.152344-.53125-.117188-.179688-.199219.847656-.199219s1.351563.074219.863282.199219c-.417969.101562-.421876.109375-.421876 1.820312 0 .949219.035157 1.664063.082032 1.757813.070312.125.171875.15625.566406.15625.808594 0 1.089844-.195313 1.308594-.90625.066406-.210938.238281-.171875.175781.042969-.027344.101562-.070313.40625-.097656.683593l-.050781.5h-1.757813c-.960937 0-1.753906-.03125-1.753906-.066406" fill="#333"/><path d="m13.058594 10.246094c0-.0625.0625-.128906.164062-.175782.136719-.066406.226563-.199218.550782-.832031.515624-1.003906 1.328124-2.726562 1.402343-2.984375.0625-.195312.074219-.207031.296875-.234375.125-.011719.234375-.023437.234375-.019531.003907.007812.179688.394531.394531.867188.214844.46875.644532 1.367187.957032 1.988281.519531 1.050781.578125 1.144531.75 1.226562.109375.054688.191406.132813.191406.179688 0 .074219-.089844.082031-.882812.082031-.789063 0-.878907-.007812-.878907-.085938 0-.050781.066407-.105468.175781-.140624.101563-.03125.175782-.09375.175782-.136719s-.101563-.324219-.230469-.625l-.234375-.550781h-1.761719l-.167969.371093c-.316406.695313-.324218.863281-.027343.941407.148437.039062.1875.070312.171875.136718-.019532.078125-.097656.089844-.652344.089844-.59375.003906-.628906 0-.628906-.097656m2.890625-1.726563c.03125-.054687-.632813-1.5-.695313-1.515625-.046875-.015625-.730468 1.402344-.730468 1.507813 0 .054687 1.394531.0625 1.425781.007812" fill="#ca2727"/></svg>