<svg height="18" viewBox="0 0 18 18" width="18" xmlns="http://www.w3.org/2000/svg"><path d="m7.226562 1.089844c-3.851562 0-6.976562.539062-6.980468 1.203125v-.003907 3.839844c0 .664063 3.125 1.199219 6.980468 1.199219 3.855469 0 6.984376-.539063 6.984376-1.199219v-3.839844l-.003907.003907c-.003906-.664063-3.128906-1.203125-6.980469-1.203125m-2.425781 2.332031c.195313.011719.394531.023437.597657.03125-.082032-.003906-.167969-.003906-.246094-.007813-.121094-.007812-.234375-.015624-.351563-.023437m2.875.070313c-.148437.003906-.296875.007812-.449219.007812-.089843 0-.179687-.003906-.269531-.003906h.269531c.152344 0 .300782 0 .449219-.003906m-7.429687 3.617187v3.34375c0 .664063 3.125 1.199219 6.980468 1.199219.914063 0 1.78125-.03125 2.582032-.085938.609375-1.535156 2.105468-2.621094 3.855468-2.621094.183594 0 .367188.011719.546876.035157v-1.871094c0 .664063-3.128907 1.203125-6.984376 1.203125-3.855468 0-6.980468-.539062-6.980468-1.203125zm13.417968 2.347656c-1.445312 0-2.695312.84375-3.277343 2.066407-.042969.085937-.082031.175781-.113281.265624-.03125.070313-.054688.144532-.082032.222657-.023437.074219-.042968.152343-.0625.230469-.003906.015624-.007812.035156-.011718.050781-.015626.078125-.03125.160156-.042969.238281-.03125.183594-.042969.371094-.042969.558594 0 1.308594.6875 2.453125 1.722656 3.09375.066406.039062.136719.082031.207032.117187l.015624.007813c.0625.03125.128907.066406.191407.09375l.035156.015625c.140625.0625.285156.113281.433594.160156.078125.019531.15625.042969.234375.058594l.039062.007812c.074219.015625.152344.03125.226563.042969l.035156.003906c.066406.007813.132813.015625.203125.019532l.050781.003906c.078125.007812.15625.007812.238281.007812.722657.003906 1.429688-.214844 2.03125-.617187.191407-.132813.375-.28125.539063-.445313.414063-.417968.722656-.925781.898437-1.488281.074219-.230469.121094-.46875.144532-.710937.023437-.226563.027344-.457032.003906-.683594 0-.011719 0-.023438 0-.035156-.011719-.113282-.027344-.226563-.050781-.339844-.015625-.089844-.039063-.179688-.0625-.269532-.003907-.019531-.011719-.039062-.015625-.054687-.023438-.089844-.054688-.179687-.085938-.265625l-.015625-.039062c-.035156-.089844-.074219-.179688-.117187-.265626 0-.003906-.003906-.011718-.007813-.019531-.042969-.085937-.089843-.171875-.140625-.253906l-.007812-.015625c-.050782-.082031-.101563-.164062-.160156-.242188l-.019532-.027343c-.054687-.074219-.113281-.148438-.171875-.21875-.011719-.011719-.023437-.027344-.035156-.039063-.058594-.066406-.121094-.136718-.1875-.199218l-.03125-.027344c-.066406-.066406-.140625-.128906-.210937-.191406l-.019532-.011719c-.074218-.0625-.152344-.121094-.234375-.175781-.003906 0-.007812-.003907-.011719-.007813-.078124-.054687-.164062-.105469-.246093-.152344l-.03125-.015625c-.097657-.054687-.195313-.101562-.292969-.148437-.085938-.035157-.171875-.070313-.257812-.101563-.019532-.003906-.035157-.011718-.050782-.015625-.089844-.03125-.179687-.054687-.269531-.078125-.015625-.003906-.027344-.007812-.042969-.011718-.097656-.023438-.195312-.042969-.292968-.058594-.183594-.027344-.363282-.039063-.546876-.039063m-1.28125 1.535157 3.378907 1.949218-3.378907 1.953125zm-12.136718.441406v3.839844c0 .664062 3.125 1.199218 6.980468 1.199218 1.40625 0 2.691407-.074218 3.78125-.199218-.910156-.757813-1.488281-1.902344-1.488281-3.183594 0-.175782.011719-.351563.03125-.523438-.773437.046875-1.546875.070313-2.324219.070313-3.855468 0-6.980468-.539063-6.980468-1.203125" fill="#adadad"/></svg>