<svg height="18" viewBox="0 0 18 18" width="18" xmlns="http://www.w3.org/2000/svg" xmlns:xlink="http://www.w3.org/1999/xlink"><linearGradient id="a" gradientTransform="matrix(0 1.303763 -1.303763 0 -3.635437 21.81375)" gradientUnits="userSpaceOnUse" x1="-15.615" x2="-6.741" y1="-9.108" y2="-9.108"><stop offset="0" stop-color="#95d7f4"/><stop offset=".92" stop-color="#0f7fcc"/><stop offset="1" stop-color="#0f7fcc"/></linearGradient><path d="m9.773438 13.945312c-.007813-.101562-.011719-.167968-.011719-.167968s-.3125-2.09375-.679688-2.71875c-.058593-.097656.003907-.503906.167969-1.109375.09375.167969.496094.871093.578125 1.101562.09375.253907.109375.328125.109375.328125s-.21875-1.136718-.582031-1.800781c.089843-.292969.183593-.585937.28125-.878906.136719.238281.46875.824219.539062 1.027343.015625.039063.027344.074219.039063.109376l.007812-.058594c-.082031-.355469-.246094-.964844-.46875-1.417969.496094-2.578125 2.183594-6.023437 3.917969-7.558594h-11.296875c-.757812 0-1.375.617188-1.375 1.375v12.453125c0 .757813.621094 1.378906 1.375 1.378906h7.441406c-.058594-.6875-.070312-1.375-.042968-2.0625" fill="#0b7fcc"/><path d="m9.25 9.949219c.09375.164062.496094.871093.578125 1.101562.09375.253907.109375.328125.109375.328125s-.21875-1.136718-.582031-1.800781c.089843-.292969.183593-.589844.28125-.878906.125.21875.410156.726562.515625.964843l.011718-.136718c-.09375-.347656-.230468-.808594-.410156-1.167969.457032-2.375 1.925782-5.480469 3.507813-7.160156h-10.886719c-.535156 0-.972656.4375-.972656.976562v11.546875c2.464844-.945312 5.4375-1.8125 7.996094-1.773437-.097657-.367188-.203126-.699219-.316407-.890625-.058593-.097656.003907-.503906.167969-1.109375" fill="url(#a)"/><path d="m16.304688.390625c-.773438-.6875-1.710938-.4101562-2.632813.40625-.144531.128906-.28125.261719-.410156.402344-1.582031 1.679687-3.050781 4.785156-3.503907 7.160156.175782.359375.316407.820313.40625 1.167969.023438.089844.042969.175781.0625.25.039063.167968.058594.277344.058594.277344s-.011718-.050782-.070312-.222657c-.011719-.03125-.023438-.066406-.039063-.105469-.007812-.023437-.015625-.042968-.023437-.0625-.105469-.238281-.390625-.746093-.515625-.964843-.105469.316406-.199219.613281-.28125.878906.363281.664063.585937 1.800781.585937 1.800781s-.019531-.074218-.113281-.328125c-.078125-.230469-.484375-.933593-.578125-1.101562-.164062.605469-.226562 1.011719-.167969 1.109375.113281.191406.21875.523437.316407.890625.214843.824219.363281 1.828125.363281 1.828125s.003906.066406.011719.167968c-.027344.6875-.015626 1.375.042968 2.0625.070313.859376.203125 1.597657.375 1.992188l.117188-.0625c-.253906-.777344-.355469-1.800781-.308594-2.976562.066406-1.796876.480469-3.96875 1.246094-6.226563 1.292968-3.414063 3.082031-6.152344 4.722656-7.457031-1.492188 1.347656-3.519531 5.71875-4.125 7.339844-.675781 1.8125-1.15625 3.511718-1.445312 5.140624.496093-1.527343 2.113281-2.183593 2.113281-2.183593s.792969-.976563 1.71875-2.375c-.554688.128906-1.464844.34375-1.769531.472656-.449219.1875-.574219.253906-.574219.253906s1.460937-.890625 2.710937-1.289062c1.722656-2.710938 3.59375-6.5625 1.707032-8.246094" fill="#003956"/></svg>