<svg height="18" viewBox="0 0 18 18" width="18" xmlns="http://www.w3.org/2000/svg"><path d="m16.304688.390625c-.773438-.6875-1.710938-.4101562-2.632813.410156-.144531.125-.28125.261719-.410156.398438-1.582031 1.679687-3.050781 4.785156-3.507813 7.160156.179688.359375.316406.820313.410156 1.167969.042969.175781.085938.351562.121094.527344 0 0-.011718-.050782-.070312-.222657l-.039063-.105469c-.007812-.023437-.015625-.042968-.023437-.0625-.105469-.238281-.390625-.746093-.515625-.964843-.097657.289062-.191407.585937-.28125.878906.363281.664063.582031 1.800781.582031 1.800781s-.019531-.074218-.109375-.332031c-.078125-.226563-.484375-.933594-.578125-1.097656-.164062.605469-.226562 1.011719-.171875 1.109375.117187.191406.222656.523437.316406.890625.214844.824219.367188 1.828125.367188 1.828125l.011719.167968c-.027344.6875-.015626 1.375.042968 2.0625.070313.859376.203125 1.597657.375 1.992188l.113282-.0625c-.25-.777344-.351563-1.800781-.304688-2.976562.066406-1.796876.480469-3.964844 1.242188-6.226563 1.292968-3.414063 3.085937-6.152344 4.726562-7.457031-1.496094 1.347656-3.519531 5.722656-4.125 7.339844-.675781 1.8125-1.15625 3.511718-1.449219 5.140624.5-1.527343 2.117188-2.183593 2.117188-2.183593s.792969-.976563 1.71875-2.375c-.554688.128906-1.464844.34375-1.769531.472656-.453126.1875-.574219.253906-.574219.253906s1.460937-.886719 2.710937-1.289062c1.71875-2.710938 3.59375-6.5625 1.707032-8.246094m-13.929688.410156c-.757812 0-1.371094.617188-1.375 1.375v12.457031c.003906.757813.617188 1.371094 1.375 1.375h7.0625c-.050781-.675781-.0625-1.355468-.039062-2.03125-.003907-.046874-.007813-.105468-.011719-.148437-.089844-.601563-.207031-1.195313-.351563-1.785156-.09375-.351563-.207031-.671875-.277344-.792969-.089843-.148438-.074218-.230469-.074218-.324219 0-.089843.011718-.183593.027344-.289062.046874-.265625.105468-.523438.175781-.785157l.164062-.019531c-.011719-.027343-.011719-.046875-.023437-.074219l-.03125-.285156c.089844-.300781.183594-.597656.285156-.894531l.152344-.015625c-.007813-.011719-.007813-.027344-.015625-.039062l-.03125-.234376c.472656-2.460937 1.941406-5.585937 3.601562-7.34375.046875-.054687.097657-.097656.148438-.148437zm0 0"/></svg>