<svg height="18" viewBox="0 0 18 18" width="18" xmlns="http://www.w3.org/2000/svg"><g fill="none" stroke="#fff" stroke-linecap="round" stroke-linejoin="round" stroke-width="2" transform="scale(.75)"><path d="m12 3h-7c-1.104167 0-2 .895833-2 2v14c0 1.104167.895833 2 2 2h14c1.104167 0 2-.895833 2-2v-7"/><path d="m18.375 2.625c.828125-.828125 2.171875-.828125 3 0s.828125 2.171875 0 3l-9.010417 9.015625c-.239583.234375-.53125.411458-.854166.505208l-2.875.838542c-.177084.052083-.364584 0-.494792-.125-.125-.130208-.177083-.317708-.125-.494792l.838542-2.875c.098958-.322916.270833-.614583.510416-.848958zm0 0"/></g></svg>