<svg height="18" viewBox="0 0 18 18" width="18" xmlns="http://www.w3.org/2000/svg"><path d="m11.769531 0-.054687.0429688-1.335938.9882812 4.832032 6.492188 1.390624-1.03125zm-.027343.195312 4.664062 6.269532-1.164062.863281-4.667969-6.265625zm-2.925782 2.34375-.042968.054688-1.0625 1.273438 6.21875 5.179687 1.109374-1.328125zm.019532.195313 6.007812 5-.929688 1.117187-6.007812-5zm-2.386719 3.125-.027344.066406-.703125 1.503907 7.339844 3.414062.730468-1.566406zm.070312.1875 7.085938 3.296875-.613281 1.316406-7.085938-3.296875zm-1.464843 3.4375-.011719.066406-.34375 1.625 7.921875 1.664063.355468-1.691406zm.109374.164063 7.648438 1.605468-.296875 1.421875-7.652344-1.609375zm-3.765624 1.875v6.476562h14.40625v-6.476562h-1.722657v4.753906h-10.957031v-4.753906zm.140624.140624h1.445313v4.75h11.234375l.003906-4.75h1.445313v6.195313h-14.128907zm3.101563 1.441407v.140625l-.070313-.070313v1.65625h8.066407v-1.726562zm.070313.140625h7.785156v1.445312h-7.785156zm0 0"/></svg>