<svg height="18" viewBox="0 0 18 18" width="18" xmlns="http://www.w3.org/2000/svg"><path d="m0 2.390625v4.722656c2.433594-1.015625 5.683594-2.03125 9.773438-3.058593 2.621093-.660157 5.15625-1.210938 7.601562-1.664063zm18 1.007813c-2.371094.351562-4.5.765624-6.371094 1.234374-2.144531.539063-3.871094 1.082032-5.175781 1.636719-1.304687.546875-1.914063.988281-1.828125 1.328125.078125.296875.625.433594 1.644531.40625.523438-.007812 1.375-.066406 2.554688-.171875l4.570312-.453125c1.847657-.191406 3.378907-.320312 4.605469-.394531zm-5.269531 5.988281c-.523438.007812-1.246094.046875-2.171875.113281-.929688.070312-2.078125.171875-3.453125.3125l-5.328125.523438c-.675782.058593-1.265625.09375-1.777344.121093v3.828125c2.804688-.410156 5.339844-.898437 7.601562-1.464844 2.222657-.554687 3.929688-1.097656 5.128907-1.625 1.203125-.523437 1.761719-.96875 1.667969-1.332031-.078126-.308593-.640626-.46875-1.667969-.476562zm5.269531 1.34375c-2.464844.964843-5.523438 1.914062-9.175781 2.828125-3.402344.855468-6.339844 1.464844-8.824219 1.84375v.03125h18zm-17.246094.804687c.007813-.003906.015625 0 .023438 0 .046875 0 .097656.015625.128906.050782.050781.054687.058594.136718.023438.203124-.035157.066407-.109376.101563-.183594.089844-.085938-.015625-.15625-.097656-.148438-.183594.003906-.082031.074219-.152343.15625-.160156m.636719 0c.039063 0 .078125.007813.105469.039063.058594.046875.078125.125.050781.195312-.023437.070313-.09375.121094-.171875.113281-.0625 0-.125-.042968-.152344-.101562-.035156-.074219-.007812-.179688.070313-.222656.027343-.015625.0625-.023438.097656-.023438zm-.613281 1.125c.074218 0 .144531.054688.164062.121094.023438.078125-.011718.179688-.085937.210938-.078125.039062-.175781.015624-.226563-.054688-.046875-.070312-.039062-.175781.027344-.230469.03125-.03125.078125-.046875.121094-.046875m.613281 0c.058594 0 .113281.035156.144531.085938.046875.074218.027344.175781-.042968.226562-.074219.054688-.1875.046875-.242188-.023437-.0625-.070313-.054688-.191407.019531-.25.03125-.027344.078125-.039063.121094-.039063m0 0" fill="#809cc8"/></svg>