<svg height="18" viewBox="0 0 18 18" width="18" xmlns="http://www.w3.org/2000/svg"><path d="m8.164062 0c-.25-.0117188-.488281.101562-.640624.300781l-6.941407 8.738281c-.820312 1.03125-.085937 2.554688 1.230469 2.554688h7.171875l.074219 5.605469c0 .507812.367187.800781.804687.800781.21875 0 .4375-.074219.582031-.292969l6.933594-8.746093c.875-1.023438.148438-2.550782-1.167968-2.550782h-7.246094l-.039063-5.632812c-.007812-.460938-.375-.761719-.761719-.777344zm1.480469 7.136719h6.570313c.363281 0 .582031.148437.726562.511719.148438.292968.074219.65625-.070312.875l-6.933594 8.746093h-.074219s-.074219 0-.074219-.074219zm0 0"/></svg>