<svg height="18" viewBox="0 0 18 18" width="18" xmlns="http://www.w3.org/2000/svg"><path d="m15.527344 2.382812c-1.667969-2.3945308-4.96875-3.101562-7.351563-1.582031l-4.191406 2.671875c-1.144531.71875-1.9375 1.886719-2.175781 3.21875-.054688.296875-.082032.597656-.082032.902344.003907.820312.203126 1.625.585938 2.351562-.359375.542969-.601562 1.15625-.71875 1.796876-.117188.671874-.101562 1.367187.050781 2.027343.148438.664063.429688 1.292969.828125 1.847657 1.671875 2.394531 4.976563 3.101562 7.355469 1.582031l4.183594-2.671875c1.148437-.71875 1.933593-1.890625 2.171875-3.222656.054687-.296876.082031-.597657.082031-.898438-.003906-.820312-.199219-1.625-.578125-2.351562.355469-.542969.601562-1.152344.71875-1.792969.050781-.296875.078125-.597657.078125-.898438 0-1.070312-.332031-2.109375-.953125-2.980469zm0 0" fill="#ff3e00"/><path d="m7.765625 15.84375c-.277344.070312-.554687.105469-.835937.105469-1.09375 0-2.113282-.535157-2.734376-1.433594-.375-.519531-.574218-1.148437-.574218-1.789063 0-.183593.015625-.363281.046875-.539062.023437-.132812.058593-.265625.101562-.390625l.078125-.242187.214844.164062c.496094.363281 1.050781.640625 1.640625.820312l.152344.046876-.011719.15625v.078124c-.003906.195313.058594.382813.171875.542969.089844.132813.210937.246094.355469.320313.148437.078125.304687.117187.464844.117187.085937.003907.171874-.007812.253906-.03125.089844-.023437.175781-.0625.257812-.113281l4.183594-2.683594c.253906-.164062.410156-.445312.410156-.746094-.003906-.195312-.066406-.382812-.179687-.539062-.089844-.132812-.214844-.242188-.359375-.316406-.144532-.078125-.304688-.117188-.464844-.117188-.082031 0-.167969.011719-.25.035156-.089844.023438-.175781.058594-.257812.113282l-1.59375 1.019531c-.269532.167969-.554688.292969-.851563.371094-1.351563.351562-2.777344-.175781-3.570313-1.324219-.371093-.523438-.574218-1.148438-.574218-1.789062 0-.183594.015625-.363282.046875-.539063.144531-.800781.617187-1.503906 1.304687-1.941406l4.191406-2.667969c.261719-.167969.550782-.292969.851563-.375.273437-.070312.554687-.105469.835937-.105469 1.09375-.003906 2.117188.53125 2.742188 1.429688.371094.523437.570312 1.148437.566406 1.792969 0 .179687-.015625.363281-.046875.539062-.023437.132812-.058593.265625-.101562.390625l-.078125.242187-.214844-.15625c-.496094-.367187-1.050781-.644531-1.640625-.820312l-.152344-.050781.011719-.152344v-.082031c0-.195313-.058594-.382813-.171875-.542969-.089844-.132813-.214844-.242187-.359375-.316406-.144531-.078125-.304688-.117188-.460938-.113281-.085937 0-.167968.011718-.25.035156-.089843.023437-.175781.0625-.257812.113281l-4.191406 2.671875c-.097656.0625-.183594.148438-.257813.25-.066406.097656-.109375.210938-.132812.335938-.011719.050781-.019531.101562-.019531.15625 0 .191406.058593.382812.171874.539062.09375.132812.214844.242188.359376.316406.144531.074219.304687.113282.464843.113282.082031 0 .167969-.011719.25-.03125.089844-.023438.175781-.0625.257813-.113282l1.597656-1.023437c.269531-.171875.554688-.296875.851562-.375.273438-.070313.554688-.105469.835938-.105469 1.09375 0 2.113281.53125 2.734375 1.429688.484375.675781.671875 1.519531.527344 2.335937-.144531.800781-.617188 1.503906-1.304688 1.9375l-4.183593 2.671875c-.269532.167969-.554688.296875-.851563.375zm0 0" fill="#fff"/></svg>