<svg height="18" viewBox="0 0 18 18" width="18" xmlns="http://www.w3.org/2000/svg"><path d="m15.511719 2.378906c-1.648438-2.3906248-4.871094-3.082031-7.351563-1.578125l-4.199218 2.671875c-1.148438.71875-1.9375 1.890625-2.167969 3.222656-.203125 1.109376-.027344 2.253907.5 3.25-.359375.542969-.601563 1.15625-.710938 1.800782-.242187 1.351562.074219 2.746094.871094 3.867187 1.648437 2.386719 4.863281 3.082031 7.347656 1.59375l4.203125-2.671875c1.144532-.722656 1.929688-1.894531 2.160156-3.226562.199219-1.105469.023438-2.246094-.503906-3.238282 1.117188-1.75 1.058594-4.003906-.148437-5.691406m-7.773438 13.46875c-1.347656.351563-2.777343-.179687-3.570312-1.328125-.484375-.671875-.664063-1.503906-.523438-2.332031l.082031-.398438.074219-.246093.226563.148437c.496094.375 1.050781.644532 1.640625.828125l.152343.050781-.015624.152344c-.015626.207032.046874.441406.167968.621094.246094.351562.671875.523438 1.085938.410156.089844-.027344.179687-.058594.253906-.105468l4.183594-2.667969c.210937-.132813.347656-.335938.398437-.578125.046875-.25-.015625-.503906-.148437-.703125-.25-.347657-.675782-.503907-1.085938-.398438-.09375.03125-.1875.066407-.265625.113281l-1.582031 1.003907c-1.496094.890625-3.429688.472656-4.425781-.960938-.480469-.671875-.671875-1.515625-.527344-2.332031.148437-.808594.632813-1.519531 1.332031-1.949219l4.175782-2.671875c.261718-.164062.546874-.28125.855468-.375 1.347656-.351562 2.773438.179688 3.570313 1.320313.5625.792969.71875 1.804687.425781 2.730469l-.074219.246093-.21875-.148437c-.5-.363282-1.054687-.644532-1.648437-.824219l-.148438-.046875.015625-.148438c.011719-.21875-.046875-.449218-.167969-.628906-.246093-.355468-.675781-.503906-1.085937-.398437-.089844.027343-.179687.058593-.257813.105469l-4.191406 2.691406c-.210937.140625-.34375.335937-.390625.582031-.042969.242187.015625.503906.152344.699219.238281.355468.675781.503906 1.082031.398437.09375-.03125.183594-.058593.257813-.105469l1.601562-1.019531c.261719-.175781.554688-.300781.851563-.382812 1.359375-.355469 2.777344.179687 3.570312 1.328125.488282.671875.675782 1.503906.539063 2.324218-.140625.804688-.617188 1.515626-1.3125 1.949219l-4.183594 2.664063c-.269531.164062-.5625.292968-.867187.378906zm0 0"/></svg>