<svg height="18" viewBox="0 0 18 18" width="18" xmlns="http://www.w3.org/2000/svg"><path d="m9 0c-4.960938 0-9 4.039062-9 9s4.039062 9 9 9 9-4.039062 9-9-4.039062-9-9-9m-2.882812 4.402344c.160156-.003906.324218.003906.5.003906v.980469c-.097657.007812-.183594.023437-.273438.023437-.601562-.023437-.632812.183594-.675781.679688-.027344.308594.007812.628906-.011719.9375-.023438.3125-.0625.621094-.125.929687-.085938.4375-.359375.769531-.734375 1.046875.730469.476563.816406 1.21875.863281 1.96875.023438.40625.015625.8125.054688 1.214844.03125.3125.152344.390625.476562.402344.128906.003906.265625 0 .417969 0v.960937c-.953125.164063-1.738281-.105469-1.933594-.914062-.0625-.292969-.101562-.597657-.117187-.898438-.019532-.320312.015625-.644531-.007813-.964843-.070312-.882813-.183593-1.179688-1.027343-1.222657v-1.097656c.058593-.011719.121093-.023437.179687-.03125.464844-.023437.664063-.164063.761719-.621094.050781-.257812.078125-.515625.089844-.78125.03125-.5.019531-1.011719.105468-1.511719.121094-.714843.5625-1.0625 1.300782-1.101562.050781-.003906.105468-.003906.15625-.003906zm5.761718.003906c.871094-.003906 1.449219.414062 1.507813 1.339844.03125.464844.027343.933594.058593 1.394531.011719.25.050782.503906.113282.746094.097656.378906.300781.515625.703125.53125.0625.003906.125.015625.21875.027343v1.09375c-.050781.019532-.101563.03125-.152344.035157-.535156.035156-.78125.257812-.832031.792969-.035156.34375-.03125.691406-.054688 1.039062-.011718.378906-.046875.753906-.105468 1.128906-.136719.675782-.558594 1.015625-1.257813 1.058594-.226563.011719-.449219 0-.695313 0v-.980469c.128907-.007812.242188-.015625.363282-.019531.417968-.011719.5625-.144531.582031-.5625.027344-.457031.035156-.914062.054687-1.367188.03125-.660156.210938-1.25.820313-1.660156-.347656-.25-.628906-.554687-.703125-.960937-.085938-.496094-.117188-1.003907-.164062-1.507813-.023438-.25-.023438-.503906-.046876-.753906-.027343-.273438-.210937-.367188-.457031-.371094-.15625 0-.3125-.003906-.46875-.003906v-.953125c.171875-.027344.34375-.042969.515625-.046875zm-5.074218 3.960938h.015624c.347657.007812.628907.292968.621094.644531v.035156c-.019531.339844-.3125.605469-.65625.582031h-.042968c-.34375-.015625-.613282-.3125-.597657-.664062.015625-.34375.316407-.613282.660157-.597656m2.183593 0c.386719-.003907.636719.246093.640625.625 0 .390624-.238281.636718-.617187.636718-.390625 0-.644531-.242187-.644531-.617187-.003907-.019531-.003907-.039063-.003907-.058594.011719-.332031.289063-.597656.625-.585937m2.222657 0c.351562 0 .664062.296874.648437.640624-.023437.371094-.34375.679688-.660156.621094h-.007813c-.171875.003906-.332031-.066406-.453125-.183594-.117187-.121093-.183593-.28125-.183593-.453124.011718-.351563.304687-.632813.65625-.625zm0 0"/></svg>