<svg height="18" viewBox="0 0 18 18" width="18" xmlns="http://www.w3.org/2000/svg"><path d="m9 17.570312c-4.726562 0-8.570312-3.84375-8.570312-8.570312s3.84375-8.570312 8.570312-8.570312 8.570312 3.84375 8.570312 8.570312-3.84375 8.570312-8.570312 8.570312zm0 0" fill="#85ea2d"/><path d="m5.667969 6.089844c-.027344.308594.007812.628906-.011719.9375-.023438.3125-.0625.621094-.125.929687-.085938.4375-.359375.769531-.734375 1.046875.730469.476563.816406 1.21875.863281 1.96875.023438.40625.015625.816406.054688 1.214844.03125.3125.152344.390625.476562.402344.128906.003906.265625 0 .417969 0v.960937c-.953125.164063-1.738281-.105469-1.933594-.914062-.0625-.292969-.101562-.59375-.117187-.898438-.019532-.320312.015625-.644531-.007813-.964843-.070312-.882813-.183593-1.179688-1.027343-1.222657v-1.097656c.058593-.011719.121093-.023437.179687-.03125.464844-.023437.664063-.164063.761719-.621094.050781-.257812.078125-.519531.089844-.777343.03125-.503907.019531-1.015626.105468-1.515626.121094-.714843.5625-1.0625 1.300782-1.101562.207031-.011719.417968 0 .65625 0v.980469c-.097657.007812-.183594.023437-.273438.023437-.601562-.023437-.632812.183594-.675781.679688zm1.152343 2.277344h-.015624c-.34375-.015626-.644532.253906-.660157.597656-.015625.351562.253907.648437.597657.664062h.042968c.34375.023438.636719-.242187.65625-.582031v-.035156c.007813-.351563-.273437-.636719-.621094-.644531zm2.167969 0c-.335937-.011719-.613281.253906-.625.585937 0 .019531 0 .039063.003907.058594 0 .378906.253906.621093.644531.621093.378906 0 .617187-.25.617187-.640624-.003906-.378907-.253906-.628907-.640625-.625m2.222657 0c-.351563-.003907-.644532.273437-.65625.625 0 .171874.066406.332031.183593.453124.121094.117188.285157.1875.453125.183594h.007813c.316406.058594.640625-.25.660156-.621094.015625-.34375-.292969-.640624-.648437-.640624zm3.050781.050781c-.402344-.015625-.605469-.152344-.703125-.53125-.0625-.242188-.101563-.492188-.113282-.746094-.027343-.460937-.027343-.929687-.058593-1.394531-.070313-1.097656-.867188-1.484375-2.023438-1.292969v.957031h.46875c.246094.003906.429688.097656.457031.371094.023438.25.023438.503906.046876.753906.050781.503906.078124 1.011719.164062 1.507813.074219.40625.355469.710937.703125.960937-.609375.414063-.789063 1-.820313 1.660156-.019531.453126-.027343.910157-.054687 1.367188-.019531.417969-.164063.550781-.582031.5625-.117188.003906-.234375.011719-.363282.019531v.980469c.246094 0 .46875.015625.695313 0 .699219-.042969 1.121094-.378906 1.257813-1.058594.058593-.375.09375-.75.105468-1.128906.023438-.347656.019532-.695312.054688-1.039062.050781-.535157.296875-.757813.832031-.792969.050781-.003907.101563-.015625.152344-.03125v-1.097657c-.089844-.011718-.152344-.023437-.21875-.027343zm-5.261719-7.558594c4.496094 0 8.140625 3.644531 8.140625 8.140625s-3.644531 8.140625-8.140625 8.140625-8.140625-3.644531-8.140625-8.140625 3.644531-8.140625 8.140625-8.140625m0-.859375c-4.960938 0-9 4.039062-9 9s4.039062 9 9 9 9-4.039062 9-9c0-4.964844-4.039062-9-9-9zm0 0" fill="#173647"/></svg>