<svg height="18" viewBox="0 0 18 18" width="18" xmlns="http://www.w3.org/2000/svg"><g fill="none" stroke="#fff" stroke-linecap="round" stroke-linejoin="round" stroke-width="2" transform="scale(.75)"><path d="m11 17c0 2.208333-1.791667 4-4 4s-4-1.791667-4-4v-12c0-1.104167.895833-2 2-2h4c1.104167 0 2 .895833 2 2zm0 0"/><path d="m16.697917 13h2.302083c1.104167 0 2 .895833 2 2v4c0 1.104167-.895833 2-2 2h-12m0-4h.010417"/><path d="m11 8 2.302083-2.302083c.447917-.447917 1.0625-.703125 1.703125-.703125.635417 0 1.25.255208 1.697917.708333l1.895833 1.895833c.46875.447917.734375 1.067709.739584 1.713542 0 .645833-.255209 1.265625-.713542 1.723958l-8.723958 8.765625"/></g></svg>