<svg height="18" viewBox="0 0 18 18" width="18" xmlns="http://www.w3.org/2000/svg"><path d="m17.652344 3.6875c-.070313-.371094-.199219-.730469-.371094-1.066406-.179688-.324219-.40625-.625-.667969-.886719-.273437-.265625-.585937-.480469-.933593-.640625-.339844-.171875-.703126-.292969-1.078126-.355469-.375-.070312-.78125-.070312-1.15625-.105469h-9.191406c-.285156.003907-.574218.027344-.855468.070313-.28125.03125-.558594.105469-.820313.214844-.074219.035156-.183594.070312-.257813.105469-.25.132812-.484374.289062-.703124.460937-.074219.074219-.152344.109375-.226563.179687-.273437.253907-.5.554688-.667969.886719-.183594.332031-.308594.691407-.371094 1.066407-.058593.363281-.09375.730468-.113281 1.101562v8.492188c0 .371093.039063.738281.113281 1.101562.074219.371094.199219.730469.371094 1.066406.179688.324219.40625.625.667969.886719.273437.265625.585937.480469.933594.640625.339843.171875.703125.292969 1.078125.355469.375.070312.78125.070312 1.15625.105469h8.890625c.386719 0 .773437-.035157 1.152343-.105469.375-.0625.742188-.183594 1.082032-.355469.335937-.171875.648437-.386719.929687-.640625.273438-.253906.5-.554687.667969-.886719.1875-.332031.3125-.695312.375-1.066406.054688-.367188.089844-.734375.109375-1.101562v-8.421876c0-.371093-.039063-.738281-.113281-1.101562m-2.640625 10.625c-.808594-1.515625-2.304688-1.046875-3.058594-.742188-1.5625.863282-3.710937.949219-5.871094.066407-1.683593-.683594-3.125-1.859375-4.136719-3.371094.46875.359375.984376.65625 1.527344.890625 2.230469.996094 4.460938.925781 6.03125 0-2.234375-1.640625-4.132812-3.773438-5.546875-5.515625-.28125-.292969-.53125-.613281-.746093-.957031 1.710937 1.492187 4.429687 3.375 5.398437 3.90625-1.382813-1.414063-2.652344-2.933594-3.796875-4.546875 1.90625 1.851562 4 3.496093 6.253906 4.902343.097656.054688.175782.101563.238282.140626.066406-.160157.121093-.324219.171874-.492188.519532-1.8125-.074218-3.871094-1.378906-5.578125 3.015625 1.738281 4.808594 5.007813 4.058594 7.742187-.019531.074219-.042969.140626-.0625.21875l.023438.03125c1.492187 1.777344 1.082031 3.660157.894531 3.304688"/></svg>