<svg height="18" viewBox="0 0 18 18" width="18" xmlns="http://www.w3.org/2000/svg"><path d="m9 .324219c-4.796875 0-8.675781 3.878906-8.675781 8.675781s3.878906 8.675781 8.675781 8.675781 8.675781-3.878906 8.675781-8.675781-3.878906-8.675781-8.675781-8.675781m4.683594 5.019531c-.410156.015625-.675782-.226562-.691406-.589844 0-.140625.03125-.253906.128906-.394531.082031-.167969.113281-.195313.113281-.265625-.015625-.226562-.351563-.242188-.453125-.242188-1.304688.042969-1.644531 1.800782-1.925781 3.234376l-.140625.761718c.746094.113282 1.28125-.027344 1.574218-.210937.421876-.269531-.109374-.550781-.054687-.859375.070313-.308594.351563-.464844.578125-.476563.320312-.015625.546875.324219.53125.660157-.011719.546874-.742188 1.320312-2.21875 1.28125-.183594 0-.339844-.015626-.492188-.03125l-.28125 1.535156c-.253906 1.152344-.578124 2.742187-1.757812 4.121094-1.015625 1.207031-2.039062 1.390624-2.503906 1.40625-.859375.027343-1.433594-.4375-1.449219-1.042969-.015625-.589844.507813-.914063.84375-.925781.464844-.015626.773437.320312.789063.703124.011718.320313-.15625.421876-.269532.492188-.070312.054688-.183594.125-.183594.25 0 .058594.070313.183594.253907.183594.367187-.011719.605469-.195313.773437-.308594.84375-.703125 1.167969-1.925781 1.589844-4.132812l.085938-.535157c.140624-.71875.308593-1.535156.546874-2.335937-.589843-.449219-.941406-.996094-1.742187-1.207032-.550781-.15625-.875-.03125-1.113281.265626-.28125.351562-.183594.800781.085937 1.070312l.433594.492188c.550781.632812.84375 1.109374.734375 1.769531-.15625 1.027343-1.40625 1.828125-2.882812 1.378906-1.265626-.394531-1.492188-1.28125-1.335938-1.773437.125-.433594.476562-.519532.8125-.40625.367188.113281.507812.546874.394531.886718-.011719.042969-.027343.097656-.070312.167969-.042969.097656-.113281.167969-.152344.28125-.085937.265625.28125.449219.53125.535156.5625.167969 1.113281-.128906 1.253906-.578125.125-.421875-.140625-.714844-.238281-.828125l-.535156-.578125c-.238282-.265625-.789063-1.027344-.519532-1.882812.097657-.324219.308594-.675782.617188-.902344.648438-.492188 1.363281-.5625 2.039062-.363281.871094.253906 1.292969.828125 1.84375 1.277343.308594-.882812.730469-1.769531 1.363282-2.5.574218-.675781 1.335937-1.15625 2.222656-1.195312.882812-.03125 1.546875.363281 1.574219.996094-.015625.28125-.167969.800781-.703125.816406" fill="#1a171b"/></svg>