<svg height="18" viewBox="0 0 18 18" width="18" xmlns="http://www.w3.org/2000/svg"><g stroke="#fff" stroke-linecap="round" stroke-linejoin="round" stroke-width="2" transform="scale(.75)"><path d="m15 5 6.302083 6.302083c.447917.447917.703125 1.0625.703125 1.697917s-.255208 1.25-.703125 1.697917l-4.302083 4.302083" fill="none"/><path d="m9.588542 5.588542c-.375-.380209-.885417-.588542-1.416667-.588542h-5.171875c-.552083 0-1 .447917-1 1v5.171875c0 .53125.208333 1.041667.588542 1.416667l5.703125 5.703125c.942708.9375 2.473958.9375 3.416666 0l3.583334-3.583334c.9375-.942708.9375-2.473958 0-3.416666zm0 0" fill="none"/><path d="m7 9.5c0 .276042-.223958.5-.5.5s-.5-.223958-.5-.5.223958-.5.5-.5.5.223958.5.5zm0 0" fill="#fff"/></g></svg>