<svg height="18" viewBox="0 0 18 18" width="18" xmlns="http://www.w3.org/2000/svg"><path d="m9 3.601562c-2.398438 0-3.898438 1.199219-4.5 3.597657.898438-1.199219 1.949219-1.648438 3.148438-1.347657.6875.167969 1.175781.667969 1.71875 1.214844.882812.898438 1.902343 1.933594 4.132812 1.933594 2.402344 0 3.898438-1.199219 4.5-3.601562-.898438 1.203124-1.949219 1.652343-3.148438 1.351562-.6875-.171875-1.175781-.667969-1.71875-1.21875-.878906-.894531-1.902343-1.929688-4.132812-1.929688m-4.5 5.398438c-2.398438 0-3.898438 1.199219-4.5 3.601562.902344-1.203124 1.949219-1.652343 3.148438-1.351562.6875.171875 1.175781.667969 1.71875 1.21875.882812.894531 1.902343 1.929688 4.132812 1.929688 2.402344 0 3.898438-1.199219 4.5-3.597657-.898438 1.199219-1.949219 1.648438-3.148438 1.347657-.6875-.167969-1.175781-.667969-1.71875-1.214844-.878906-.898438-1.902343-1.933594-4.132812-1.933594m0 0" fill="#38bdf8"/></svg>