<svg height="18" viewBox="0 0 18 18" width="18" xmlns="http://www.w3.org/2000/svg"><path d="m10.398438.0703125c-.652344 0-1.300782.0976565-1.921876.2929685-2.046874.632813-3.652343 2.234375-4.289062 4.28125.785156-.382812 1.628906-.628906 2.5-.726562.0625-.089844.132812-.179688.207031-.265625.5625-.679688 1.3125-1.175782 2.15625-1.4375.839844-.261719 1.742188-.277344 2.589844-.039063.851563.238281 1.613281.714844 2.195313 1.375.585937.660157.96875 1.476563 1.097656 2.347657.132812.875.011718 1.765624-.351563 2.570312s-.949219 1.484375-1.6875 1.964844c-.308593.195312-.636719.359375-.980469.476562.023438.1875.035157.375.035157.5625 0 .511719-.085938 1.019532-.253907 1.503906.800782-.164062 1.5625-.472656 2.25-.914062 1.054688-.683594 1.890626-1.65625 2.40625-2.800781.511719-1.144531.6875-2.410157.5-3.652344s-.730468-2.402344-1.5625-3.339844c-.832031-.941406-1.917968-1.621093-3.125-1.957031-.574218-.164062-1.167968-.2421875-1.765624-.2421875m.007812 4.8085935c-.941406 0-1.707031.765625-1.707031 1.707032 0 .945312.765625 1.707031 1.707031 1.707031.945312 0 1.707031-.761719 1.707031-1.707031 0-.941407-.761719-1.707032-1.707031-1.707032zm-4.152344.203125c-.0625.015625-.125.03125-.1875.046875l.003906-.003906-.101562.027344c-.121094.027344-.242188.0625-.363281.101562-.105469.03125-.207031.066406-.3125.105469-.097657.035156-.195313.074219-.292969.113281-.101562.042969-.203125.089844-.300781.136719-.148438.070313-.195313.097656-.292969.148437l-.140625.074219.011719.003907c-.097656.050781-.195313.105468-.289063.164062-1.054687.683594-1.890625 1.652344-2.40625 2.796875s-.6875 2.414063-.5 3.65625c.1875 1.238281.730469 2.398437 1.5625 3.339844.832031.941406 1.917969 1.621093 3.125 1.957031 1.210938.339844 2.492188.320312 3.6875-.050781 1.199219-.371094 2.265625-1.082031 3.070313-2.046875.550781-.660156.964844-1.421875 1.222656-2.242188-.785156.386719-1.632812.632813-2.5.734375-.066406.089844-.136719.179688-.210938.265625-.5625.679688-1.3125 1.175782-2.15625 1.4375-.839843.261719-1.742187.273438-2.589843.039063-1.734375-.484375-3.023438-1.945313-3.292969-3.726563-.132812-.871094-.011719-1.761718.351562-2.566406.359376-.804688.949219-1.484375 1.6875-1.964844.300782-.195312.625-.351562.960938-.472656-.015625-.164062-.027344-.328125-.027344-.492188 0-.554687.101563-1.089843.28125-1.582031zm1.285156 4.6875c-.945312 0-1.710937.761719-1.710937 1.703125 0 .945313.765625 1.710938 1.710937 1.710938.941407 0 1.703126-.765625 1.703126-1.710938 0-.941406-.761719-1.703125-1.703126-1.703125m6.121094 2.457031"/></svg>