<svg height="18" viewBox="0 0 18 18" width="18" xmlns="http://www.w3.org/2000/svg"><path d="m7 10v12m8-16.119792-1 4.119792h5.828125c.630208 0 1.223958.296875 1.604167.802083.375.5.494791 1.151042.317708 1.760417l-2.328125 8c-.25.848958-1.03125 1.4375-1.921875 1.4375h-13.5c-1.104167 0-2-.895833-2-2v-8c0-1.104167.895833-2 2-2h2.760417c.760416 0 1.453125-.432292 1.791666-1.109375l3.447917-6.890625c.953125.010417 1.854167.458333 2.4375 1.213542.583333.755208.791667 1.739583.5625 2.666666" fill="none" stroke="#fff" stroke-linecap="round" stroke-linejoin="round" stroke-width="2" transform="scale(.75)"/></svg>