<svg height="18" viewBox="0 0 18 18" width="18" xmlns="http://www.w3.org/2000/svg"><path d="m13.351562 17.988281c-.238281-.023437-.476562-.0625-.710937-.121093-.460937-.113282-.835937-.261719-1.433594-.5625-.492187-.246094-.914062-.496094-1.867187-1.097657l-.328125-.210937-.535157.351562c-1.28125.847656-2.164062 1.273438-3.15625 1.53125-.25.0625-.617187.109375-.761718.09375-.347656-.039062-.457032-.058594-.5625-.097656-.542969-.203125-.855469-.617188-.921875-1.230469-.050781-.476562.089843-1.164062.347656-1.691406.082031-.171875.109375-.207031.21875-.292969.152344-.128906.636719-.410156 1.816406-1.0625.199219-.109375.367188-.203125.371094-.203125 0-.003906-.183594-.210937-.410156-.460937l-.5625-.621094-.152344-.164062-.066406.085937c-.140625.195313-.429688.644531-.636719.988281-.503906.835938-.871094 1.691406-1.074219 2.496094-.152343.585938-.148437 1.007812.003907 1.464844.023437.070312.039062.132812.027343.132812-.023437 0-2.570312-2.550781-2.648437-2.652344-.117188-.164062-.203125-.34375-.261719-.535156-.0585938-.210937-.0546875-.652344.0039062-.964844.1054688-.566406.2851568-1.117187.5234378-1.640624.214843-.476563.78125-1.488282 1.238281-2.21875l.253906-.40625-.058594-.070313c-.109374-.140625-.480468-.746094-.757812-1.234375-.214844-.390625-.414062-.792969-.59375-1.203125-.214844-.53125-.390625-1.144531-.433594-1.496094-.019531-.335937-.015625-.671875.023438-1.003906.058594-.398437.378906-.699219.871094-.804687.1875-.042969.6875-.019532 1.027343.042968.390625.070313 1.082031.308594 1.230469.421875.042969.03125.125.15625.25.382813.101562.1875.328125.597656.503906.910156.175782.316406.367188.660156.421875.769531.058594.105469.109375.195313.113281.195313.011719 0 1.207032-1.1875 1.199219-1.195313-.144531-.082031-.289062-.167969-.433593-.25l-.75-.429687c-1.183594-.679688-1.933594-.964844-2.808594-1.0625-.210938-.027344-.835938-.015625-.988282.015625-.078124.015625-.054687-.011719.777344-.855469 1.328125-1.339844 1.769532-1.765625 1.945313-1.871094.082031-.046875.167969-.0859372.253906-.113281.128906-.04296875.183594-.046875.453125-.046875.277344 0 .324219.0078125.542969.0625.664062.167969 1.570312.507812 2.300781.875.367188.183594.691406.375 1.171875.691406.230469.152344.460937.292969.511719.3125.195312.074219.3125.039063.65625-.203125 1.230468-.863281 2.542968-1.480469 3.53125-1.660156.679687-.125 1.015625-.1015625 1.40625.101563.171875.085937.171875.089843 1.394531 1.316406.675781.679687 1.265625 1.277344 1.316406 1.332031l.089844.097656-.167969-.035156c-.511718-.109375-1.121094-.074219-1.675781.097656-.609375.1875-1.183594.460938-2.441406 1.15625-.425781.238281-.78125.4375-.792969.445313-.007812.007812.242188.277344.574219.617187l.589843.605469.058594-.113281c.035156-.058594.28125-.515625.546875-1.015625.265625-.496094.507813-.941406.539063-.984375.101562-.152344.210937-.226563.449218-.3125.621094-.21875 1.324219-.347657 1.726563-.3125.636719.050781 1.027344.453125 1.109375 1.144531.027344.214844.019531.382812-.039062.734375-.171876 1.042969-.632813 2.105469-1.566407 3.613281-.066406.105469-.128906.210938-.191406.320313-.015625.023437.035156.113281.207031.382812.847656 1.304688 1.261719 2.097657 1.554688 2.96875.210937.628907.292968 1.023438.289062 1.421875 0 .332032-.050781.558594-.183594.804688-.117187.222656-.226562.355468-.464843.574218-.519531.476563-.710938.664063-1.234375 1.207032-.566406.589844-1.007813 1.039062-1.019532 1.027344 0-.042969.007813-.085938.019532-.128907.152344-.730469.039062-1.503906-.367188-2.457031-.167968-.398438-.617187-1.285156-.804687-1.597656-.234375-.390625-.582031-.90625-.605469-.902344-.03125 0-1.121094 1.167969-1.121094 1.199219 0 .015625.308594.199219.9375.550781 1.347656.757812 1.296875.71875 1.449219 1.09375.242187.59375.367187 1.167969.367187 1.710938 0 .222656-.023437.371093-.089843.535156-.140625.359375-.453125.621094-.832031.695312-.136719.027344-.460938.035156-.703126.019532zm-8.378906-.476562c.558594-.113281 1.046875-.289063 1.671875-.597657.617188-.304687 1.207031-.664062 2.015625-1.226562l.269532-.1875.273437.160156c.367187.222656.535156.328125.949219.582032.59375.367187 1.382812.792968 1.746094.945312.542968.226562 1.085937.351562 1.652343.382812.4375.027344.683594-.070312.847657-.328124.09375-.148438.125-.285157.121093-.566407-.003906-.496093-.101562-.945312-.328125-1.507812-.074218-.183594-.089844-.203125-.25-.296875-.515625-.292969-1.035156-.582032-1.558594-.871094-.175781-.097656-.355468-.195312-.53125-.296875l-.335937-.191406.222656-.238281c.121094-.132813.417969-.445313.65625-.691407.234375-.246093.492188-.519531.566407-.601562l.140624-.15625-.222656-.292969c-.296875-.390625-.597656-.773438-.90625-1.152344-.632812-.789062-.898437-1.097656-.925781-1.085937-.035156.023437-.5625.527343-1.394531 1.328125l-.785156.761718-.222657-.234374c-.59375-.621094-1.71875-1.761719-1.746093-1.761719-.046876 0-1.09375 1.277343-1.683594 2.0625l-.320313.421875.25.273437c.539063.605469 1.238281 1.398438 1.238281 1.410157 0 .015624-.359374.222656-1.316406.746093-1.113281.609375-1.210937.664063-1.25.703125-.078125.074219-.269531.605469-.339844.929688-.050781.242187-.070312.671875-.039062.859375.054688.332031.269531.589843.597656.71875.207032.078125.554688.082031.9375 0zm5.253906-8.03125c.296876-.292969.539063-.539063.535157-.546875-.015625-.039063-.582031-.652344-.902344-.972656-.332031-.335938-.835937-.796876-.871094-.796876-.023437 0-1.207031 1.199219-1.488281 1.507813l-.269531.296875.136719.140625c.074218.078125.460937.476563.859374.886719l.726563.738281.367187-.359375.90625-.890625zm-7.78125-1.128907c.441407-.617187 1.046876-1.328124 1.714844-2.011718l.234375-.242188-.046875-.0625c-.046875-.070312-.089844-.144531-.132812-.21875-.195313-.359375-.394532-.714844-.597656-1.070312l-.515626-.917969-.34375-.113281c-.324218-.109375-.675781-.199219-.871093-.222656-.046875-.003907-.21875-.019532-.378907-.03125-.273437-.015626-.300781-.015626-.410156.023437-.160156.050781-.3125.15625-.371094.253906-.074218.125-.109374.4375-.097656.859375.007813.328125.011719.359375.085938.640625.21875.828125.527344 1.515625 1.160156 2.566407.242188.402343.4375.714843.445312.714843 0 0 .058594-.074219.121094-.167969zm13.464844-.222656c.75-1.253906 1.09375-1.996094 1.292969-2.765625.144531-.5625.179687-.976562.105469-1.261719-.0625-.25-.21875-.46875-.390625-.550781-.15625-.078125-.429688-.113281-.667969-.085937-.417969.050781-.828125.148437-1.222656.292968-.152344.058594-.144532.054688-.4375.601563-.1875.351563-.375.703125-.566406 1.054687-.203126.375-.367188.683594-.367188.691407 0 .007812.121094.140625.269531.292969.289063.296874 1.078125 1.242187 1.492188 1.792968.136719.183594.253906.324219.261719.316406.007812-.011718.113281-.179687.230468-.378906zm0 0" fill="#bd222b"/></svg>