<svg height="18" viewBox="0 0 18 18" width="18" xmlns="http://www.w3.org/2000/svg"><g fill="none" stroke="#fff" stroke-linecap="round" stroke-linejoin="round" stroke-width="2" transform="scale(.75)"><path d="m7 12h13c.552083 0 1 .447917 1 1 0 2.760417-2.239583 5-5 5h-.598958c-.182292 0-.348959.098958-.4375.255208-.088542.161459-.083334.354167.015625.510417l1.541666 2.46875c.098959.15625.104167.348958.015625.510417-.088541.15625-.255208.255208-.4375.255208h-10.697916c-.182292 0-.348959-.098958-.4375-.255208-.088542-.161459-.083334-.354167.015625-.510417l2.020833-3.234375"/><path d="m8 18c-2.760417 0-5-2.239583-5-5v-9c0-1.104167.895833-2 2-2h8c1.104167 0 2 .895833 2 2v8"/></g></svg>