<svg height="18" viewBox="0 0 18 18" width="18" xmlns="http://www.w3.org/2000/svg"><path d="m3.113281 11.011719c.21875.265625.445313.519531.683594.765625-.730469.21875-1.207031.628906-1.503906.988281-.472657.566406-.722657 1.320313-.664063 1.964844h-1.257812c.253906-.546875 1.257812-2.125 2.742187-3.71875zm14.546875 4.0625h-1.523437c-3.503907-1.828125-6.578125-3.117188-9.847657-3.398438.007813-.457031.089844-.96875.246094-1.542969l-.304687-.082031c-.15625.589844-.242188 1.125-.25 1.601563-.339844-.023438-.683594-.035156-1.03125-.035156-.292969 0-.558594.027343-.800781.074218-.320313-.316406-.589844-.621094-.820313-.90625 1.507813-1.570312 3.988281-2.988281 6.148437-3.523437.609376 2.023437 1.914063 3.40625 3.5 4.339843.117188-.066406.230469-.136718.34375-.210937l2.761719 2.976563.121094-.011719c.753906-.0625 1.183594.347656 1.296875.472656.085938.09375.132812.179687.160156.246094" fill="#d1a41a"/><path d="m16.3125 5.121094c.058594 2.746094-1.34375 4.929687-3.304688 6.050781-3.328124-1.65625-3.957031-5.859375-3.390624-8.113281.160156.863281.445312 1.402344 1.066406 1.667968 1.351562-.386718 3.210937-.417968 4.582031-.039062.570313-.417969.792969-1.050781.914063-1.605469.152343.644531.132812 2.039063.132812 2.039063zm0 0" fill="#ffdc76"/><path d="m6.902344 8.191406 1.035156-.472656.507812 1.507812zm-1.050782.546875.601563-.359375.546875.941406zm-1.167968.769531.527344-.394531.261718.941407zm9.3125 2.484376-.375-.359376-.488282.753907zm.699218.828124-.304687-.320312-.789063.601562zm-1.261718-8.503906-.960938.015625.585938 1.28125zm-3.820313 2.425782-.09375-.546876.921875.492188zm.226563.808593-.09375-.355469.5625.222657zm6.359375-.582031.132812-.414062-.753906.320312zm-.28125.847656.109375-.339844-.582032.167969zm0 0"/><path d="m9.214844 8.886719h1.816406v.226562h-1.816406zm0-.535157h1.816406v.222657h-1.816406zm5.546875.535157h1.816406v.226562h-1.816406zm0-.535157h1.816406v.222657h-1.816406zm-.640625-1.332031h-2.960938v-.199219h.921875c.113281-.488281.136719-.949218 0-1.1875-.058593-.097656-.140625-.144531-.253906-.144531-.527344 0-.746094.554688-.753906.578125l-.1875-.070312c.011719-.027344.273437-.710938.941406-.710938.1875 0 .332031.085938.429687.246094.164063.289062.144532.785156.03125 1.289062h1.617188c.214844-.632812.664062-.929687 1.410156-.929687v.203125c-.808594 0-1.039062.34375-1.199218.726562h.882812l-.003906.199219z"/><path d="m14.253906 8.015625c-.238281-.351563-.3125-.652344-.214844-.996094h-.203124c-.074219.230469-.042969.574219.132812.867188h-2.054688c.125-.25.242188-.554688.328126-.867188h-.210938c-.09375.332031-.222656.660157-.371094.917969l-.046875.085938 1.152344.726562-.648437.425781.109374.167969.726563-.476562.78125.511718.105469-.171875-.722656-.449219s1.082031-.703124 1.136718-.738281c0 0 0 0 0-.003906zm-1.304687.609375-.851563-.535156h1.664063zm0 0"/><path d="m16.652344 4.878906c0-.351562-.109375-1.835937-.3125-2.242187-.542969.207031-1.535156.875-1.757813 1.5625-1.074219-.160157-2.285156-.140625-3.347656.042969-.179687-.738282-1.066406-1.304688-1.738281-1.621094-.285156.476562-.410156 1.585937-.378906 2.371094l-.003907.003906c.125 3.296875 1.746094 5.355468 3.863281 6.597656 2.175782-1.242188 3.734376-3.667969 3.671876-6.71875zm-1.8125-.636718.023437.003906zm-.136719-.023438c.019531 0 .039063.003906.058594.007812zm1.609375.898438c.058594 2.746093-1.34375 4.929687-3.304688 6.050781-3.332031-1.660157-3.957031-5.859375-3.390624-8.113281.160156.859374.445312 1.402343 1.066406 1.664062 1.351562-.386719 3.210937-.414062 4.582031-.039062.570313-.414063.792969-1.046876.914063-1.601563.152343.644531.132812 2.035156.132812 2.039063zm1.421875 9.5"/><path d="m17.734375 14.617188c-.34375-.382813-1.011719-.566407-1.570313-.550782-.398437-.472656-2.699218-2.898437-2.699218-2.898437l-.160156.203125 2.777343 2.992187.121094-.011719c.753906-.066406 1.183594.34375 1.296875.472657.085938.09375.136719.175781.164062.242187h-1.527343c-3.503907-1.828125-6.582031-3.113281-9.847657-3.394531.007813-.457031.089844-.972656.242188-1.542969l-.300781-.082031c-.15625.589844-.242188 1.121094-.25 1.601563-.339844-.023438-.683594-.035157-1.03125-.035157-.292969 0-.558594.027344-.800781.074219-.320313-.316406-.589844-.621094-.820313-.90625 1.519531-1.582031 4.023437-3.011719 6.195313-3.535156l-.070313-.304688c-2.339844.5625-4.898437 2.097656-6.324219 3.582032-.660156-.894532-.921875-1.628907-1-2.183594-.101562-.699219.066406-1.34375.484375-1.859375.648438-.808594 1.574219-.867188 2.523438-.707031-.019531.152343 0 .292968.058593.382812.253907.371094 1.601563.5 2.410157.140625-.597657-.832031-1.800781-1.238281-2.132813-1.074219-.113281.050782-.195312.152344-.253906.265625-.328125-.058593-.652344-.101562-.890625-.097656-.839844.003906-1.480469.296875-1.960937.894531-.46875.582032-.660157 1.308594-.546876 2.097656.105469.75.472657 1.542969 1.09375 2.367188-.101562.109375-.203124.21875-.296874.328125-1.511719 1.691406-2.617188 3.503906-2.617188 3.804687v.15625h1.992188l-.035157-.1875c-.109375-.59375.113281-1.335937.574219-1.894531.289062-.347656.769531-.746093 1.519531-.929687.667969.652344 1.519531 1.34375 2.46875 2.011718h1.480469v-.152343c0-.175781-.085938-.332031-.242188-.433594-.234374-.152344-.597656-.175781-.929687-.0625-.316406-.351563-.492187-.824219-.53125-1.40625 3.214844.285156 6.289063 1.582031 9.761719 3.394531h1.910156l.023438-.125c.035156-.175781-.0625-.417968-.257813-.636718zm-15.441406-1.859376c-.472657.570313-.722657 1.320313-.664063 1.96875h-1.257812c.253906-.546874 1.257812-2.125 2.742187-3.71875.21875.265626.445313.519532.683594.765626-.726563.21875-1.207031.625-1.503906.984374zm0 0"/></svg>