<svg height="18" viewBox="0 0 18 18" width="18" xmlns="http://www.w3.org/2000/svg"><path d="m16.839844 4.011719c-.203125 0-.386719.105469-.53125.265625-.105469-.070313-.226563-.113282-.355469-.113282-.257813 0-.480469.167969-.632813.410157-.027343.042969-.050781.085937-.074218.132812-.023438-.035156-.054688-.0625-.089844-.085937-.042969-.023438-.089844-.03125-.136719-.03125-.019531 0-.035156 0-.050781.003906-.0625.011719-.125.039062-.191406.082031l-.015625.015625c-.199219.191406-.316407.3125-.402344.539063-.078125.222656-.132813.542969-.234375 1.152343-.109375.308594-.269531.578126-.5.757813-.1875.148437-.425781.238281-.734375.242187.027344-.046874.042969-.101562.050781-.15625.011719-.097656-.023437-.199218-.09375-.28125-.074218-.082031-.179687-.148437-.328125-.210937l-.011719-.003906h-.011718c-.042969-.011719-.085938-.015625-.128906-.019531-.042969 0-.082032.003906-.125.007812-.0625.011719-.125.027344-.179688.054688-.011719-.042969-.023438-.082032-.039062-.125-.066407-.152344-.179688-.277344-.3125-.390626-.261719-.222656-.597657-.390624-.785157-.535156l-.003906-.003906-.007813-.003906c-1.546874-.894532-2.214843-.832032-3.546874-.847656h-.003907l-.007812.003906c-1.390625.152344-2.335938.574218-3.039063 1.265625l-.011718-.003907-.046876.050782c-.554687.578125-1.199218 1.550781-1.328124 2.363281l-2.042969-.714844c-.011719-.007812-.308594-.128906-.550781-.152343-.03125-.003907-.0625-.003907-.09375-.003907s-.058594.003907-.089844.011719c-.058594.015625-.1328128.074219-.14843775.148438-.01562505.078124.01171875.148437.05468755.222656.0429682.074218.1093752.160156.2031252.265625l.003906.003906.007813.003906s1 .816407 2.203124 1.535157l.023438.066406c-.078125.078125-.15625.15625-.230469.238281-.171875.183594-.363281.421875-.503906.679687-.28125.519532-.34375 1.089844-.019531 1.800782.136718.355468.410156.5625.734375.699218.328125.136719.714843.214844 1.125.335938l.023437.007812.027344-.003906c.03125-.003906.058594-.007812.089844-.007812.128906.019531.246094.023437.351562.023437h.015625c.0625 0 .125-.003906.191407-.023437.105468-.019532.199218-.058594.269531-.113282.136719-.09375.234375-.195312.296875-.300781.027344-.027343.058594-.058593.082031-.101562.039063-.0625.054687-.148438.039063-.234375-.015626-.089844-.050782-.1875-.109376-.320313l-.003906-.011719c-.101562-.238281-.257812-.464843-.335937-.644531-.046875-.117187-.074219-.222656-.085938-.320312-.027343-.234375.03125-.421875.203125-.609375.058594.042968.117188.078125.183594.109375l.007812.003906h.011719c.136719.035156.261719.078125.386719.125h-.003906l.078125.054687c-.0625.09375-.128907.179688-.140625.269532-.019532.121094.003906.238281.03125.429687l.003906.015625.003906.011719c.074219.175781.09375.316406.207032.4375.113281.121094.289062.183594.617187.222656l.023437.003907.019532-.007813c.15625-.046875.28125-.105469.386718-.171875 0 .117188.011719.226562.03125.328125v.003906.007813l.015626.066406.003906.003906c.058594.269532.265625.480469.570312.632813.285156.140625.65625.246093 1.101563.332031.007812.003906.015625.007812.027343.011719.085938.03125.167969.035156.289063.042969h.011719c.1875-.011719.378906 0 .566406.007812.167969.011719.332031.023438.492188.019531.132812-.003906.261718-.027343.386718-.066406.070313-.019531.136719-.042969.203125-.070313l.007813-.003906.003906-.003906c.074219-.046875.140625-.105469.199219-.171875.078125-.074219.148437-.160156.210937-.253906l.011719-.019531.003906-.023438c.050781-.316406.042969-.695312-.039062-1.050781-.058594-.242188-.144531-.472657-.277344-.660157.140625-.007812.273437-.039062.390625-.097656-.011719.335938.050781.710938.203125 1.03125.179687.378906.503906.683594.960937.6875.039063.003906.078126.007813.113282.007813.351562.085937.609375.078125.835937-.003907.074219-.027343.148438-.0625.21875-.101562.0625-.023438.121094-.050781.179688-.082031.136719-.078125.257812-.175781.359375-.296875.019531-.011719.035156-.023438.054687-.039063l.007813-.003906.003906-.007813c.082031-.078124.144531-.175781.183594-.285156l.007812-.011718.003906-.019532c.007813-.023437.011719-.046875.019532-.070312.046875-.195313.035156-.417969-.019532-.632813-.089843-.34375-.285156-.6875-.5625-.949219-.207031-.253906-.441406-.484374-.65625-.679687.257813.011719.464844-.023437.632813-.085937.335937-.121094.53125-.339844.6875-.464844h.003906l.003907-.003906c.175781-.164063.277343-.355469.417968-.5.144532-.148438.3125-.257813.640625-.289063.546875-.007813.902344-.03125 1.160157-.109375.226562-.070312.363281-.210938.445312-.394531.28125-.085938.464844-.058594.671875-.097657.121094-.027343.234375-.082031.328125-.164062.109375-.09375.214844-.234375.335938-.4375.078124-.117188.097656-.277344.023437-.425781-.074219-.148438-.222656-.304688-.457031-.511719-.058594-.070312-.136719-.113281-.21875-.144531.074218-.066407.140625-.144531.195312-.230469.152344-.242188.238282-.5625.238282-.917969 0-.351562-.085938-.671875-.238282-.914062-.152344-.242188-.375-.40625-.632812-.40625m0 .222656c.160156 0 .320312.105469.441406.304687.125.195313.207031.480469.207031.792969 0 .316407-.082031.601563-.207031.796875-.121094.199219-.28125.300782-.441406.300782-.078125 0-.15625-.023438-.226563-.070313.132813-.234375.210938-.539063.210938-.871094 0-.351562-.085938-.675781-.238281-.914062-.03125-.050781-.066407-.101563-.109376-.144531.109376-.128907.234376-.195313.363282-.195313m-.886719.15625c.160156 0 .320313.105469.441406.300781.125.199219.207031.480469.207031.796875 0 .316407-.082031.597657-.207031.796875-.121093.195313-.28125.300782-.441406.300782s-.316406-.105469-.441406-.300782c-.125-.199218-.207031-.480468-.207031-.796875 0-.316406.082031-.597656.207031-.796875.125-.195312.28125-.300781.441406-.300781m-.921875.421875c.003906.003906.011719.003906.011719.003906.015625.011719.050781.058594.078125.15625.003906.019532.007812.039063.011718.0625-.035156.140625-.050781.292969-.050781.453125 0 .351563.085938.675781.238281.914063.152344.242187.375.410156.632813.410156.195313 0 .375-.097656.511719-.25l.027344-.015625c.105468.070313.222656.109375.347656.109375.046875 0 .09375-.003906.136718-.015625.160157.027344.304688.074219.351563.132813l.003906.003906.007813.003906c.234375.210938.363281.359375.410156.457031.050781.097657.042969.128907-.007812.199219v.003906l-.003907.003906c-.113281.195313-.210937.3125-.292969.382813-.082031.070313-.144531.097656-.222656.113281-.132812.027344-.320312.007813-.578125.070313v-.019531c-.757812-.027344-1.058593-.289063-1.3125-.742188l-.195312.109375c.246093.441406.601562.757813 1.253906.839844-.054687.121093-.132813.1875-.308594.242187-.210937.0625-.558593.09375-1.105469.101563h-.007812c-.375.03125-.613281.183593-.78125.355469-.167969.171874-.269531.359374-.410156.488281-.183594.144531-.339844.328125-.617188.425781-.226562.082031-.550781.101562-1.027344-.011719-.082031-.019531-.160156-.039062-.238281-.0625.046875-.148437.082031-.296875.113281-.4375.0625-.261719.121094-.507812.183594-.726562.109375-.386719.234375-.699219.445313-.90625.027343-.023438.054687-.046875.082031-.074219.433594.035156.785156-.070312 1.046875-.273438.261719-.207031.4375-.507812.554687-.828124l.015626-.011719.007812-.042969c.105469-.625.160156-.941406.230469-1.128906.066406-.183594.144531-.265625.332031-.445313.046875-.027343.082031-.042969.101562-.046875.007813-.003906.015626-.003906.023438-.003906zm2.121094.148438c-.164063 0-.296875.214843-.296875.476562 0 .265625.132812.480469.296875.480469.160156 0 .292968-.214844.292968-.480469 0-.261719-.132812-.476562-.292968-.476562m-9.777344.132812c1.332031.015625 1.910156-.0625 3.425781.816406.21875.164063.539063.328125.765625.519532.113282.097656.203125.203124.25.308593.023438.058594.035156.121094.03125.1875-.070312.070313-.132812.148438-.183594.230469-.195312.316406-.34375.761719-.507812 1.296875v.011719c-.097656.460937-.242188.976562-.433594 1.308594-.09375.167968-.199218.285156-.300781.335937s-.195313.050781-.339844-.03125l-.007812-.007813-.011719-.003906c-.582031-.195312-.75-.261718-.867188-.285156-.058593-.015625-.105468-.011719-.15625-.011719-.054687 0-.125.003907-.257812-.003906h-.015625c-.546875.039063-1.027344.261719-1.523437.375-.496094.117187-1.007813.132813-1.660157-.21875-.3125-.226563-.5625-.402344-.796875-.546875-.097656-.078125-.207031-.144531-.367187-.207031-.355469-.175781-.730469-.304688-1.28125-.445313.058593-.71875.710937-1.773437 1.265625-2.363281l.019531-.019531c.667969-.683594 1.566406-1.09375 2.953125-1.246094m8.84375.054688c-.179688 0-.324219.226562-.324219.5 0 .277343.144531.5.324219.5s.324219-.222657.324219-.5c0-.273438-.144531-.5-.324219-.5m-9.535156 1.140624c-.421875 0-.75.121094-.988282.359376-.238281.234374-.359374.558593-.359374.96875 0 .226562.03125.421874.097656.589843.0625.164063.15625.304688.273437.414063.117188.113281.257813.195312.425781.25.164063.054687.347657.082031.550782.082031.152344 0 .3125-.023437.480468-.070313.15625-.042968.308594-.101562.457032-.167968v-1.101563h-1.023438v.300781h.6875v.628907c-.09375.035156-.191406.066406-.289062.082031-.109375.023438-.21875.035156-.328125.035156-.300781 0-.539063-.09375-.714844-.277344-.175781-.183593-.261719-.441406-.261719-.773437 0-.316406.082032-.566406.25-.75.167969-.183594.394532-.277344.683594-.277344.125 0 .238281.011719.339844.035157.101562.023437.191406.054687.269531.089843.066406.027344.132813.066407.199219.109375.070312.046875.121094.082032.15625.109375h.03125v-.402343c-.175782-.085938-.339844-.144532-.492188-.179688-.148437-.035156-.296875-.050781-.445312-.054688m1.496094.03125v.335938h.363281v-.335938zm.984374.105469v.554688h-.21875v.269531h.21875v1.023438c0 .234374.050782.402343.152344.507812.101563.109375.253906.160156.449219.160156.054687 0 .121094-.003906.191406-.015625.066407-.007812.132813-.023437.199219-.039062v-.292969h-.015625c-.027344.011719-.066406.023438-.125.042969-.058594.011719-.113281.019531-.164063.019531-.09375 0-.160156-.007812-.207031-.03125-.042969-.019531-.078125-.054688-.101562-.101562-.027344-.046876-.042969-.101563-.046875-.15625-.007813-.082032-.007813-.160157-.007813-.238282v-.878906h.667969v-.269531h-.667969v-.554688zm3.148438.515625c.042969-.003906.089844 0 .132812.007813.117188.050781.195313.101562.230469.144531.039063.042969.046875.070312.042969.105469-.007812.054687-.0625.136719-.140625.21875-.386719.28125-.542969.660156-.636719 1.0625-.046875.207031-.082031.421875-.121094.640625-.058593.226562-.117187.464844-.195312.703125-.035156.074219-.0625.132812-.09375.199219-.023438.03125-.046875.066406-.066406.097656-.089844.152344-.164063.324218-.234375.496094l-.011719.023437c-.109375.195313-.210938.351563-.308594.46875-.210937.25-.402344.335937-.695312.332031-.054688-.015625-.113282-.03125-.167969-.042968-.292969-.230469-.804687-.324219-1.339844-.347657-.558593-.027343-1.140625.027344-1.523437.175781h-.007813l-.003906.003907c-.109375.0625-.210937.136719-.300781.226562-.019532.007813-.039063.015625-.0625.023438-.746094-.027344-1.171875-.371094-1.871094-.550781-.089844-.039063-.171875-.097657-.257812-.167969-.058594-.132813-.144532-.253907-.25-.351563-.152344-.144531-.363282-.285156-.707032-.488281l-.007812-.003906-.011719-.003907c-.21875-.082031-.507813-.167968-.871094-.148437-.265625-.226563-.40625-.410156-.457031-.527344-.054688-.128906-.03125-.175781.023438-.226562.054687-.050781.164062-.09375.277343-.109375s.230469-.007813.269531.003906c1.199219.296875 1.503907.46875 2.511719 1.203125l.003907.007813.007812.003906c.703125.378906 1.296875.363281 1.824219.242187.527343-.125.992187-.339843 1.488281-.371093.128906.003906.214844.003906.261719.003906.054687-.003906.066406-.003906.105469.003906.074218.015625.257812.085938.832031.277344-.003907 0-.007813-.003906-.011719-.003906l.023438.007812-.011719-.003906c.1875.105468.382812.113281.542969.03125.164062-.082032.289062-.234375.394531-.421875.214843-.375.355469-.894531.453125-1.367188.164062-.53125.3125-.96875.484375-1.246093.085937-.136719.175781-.230469.269531-.28125.058594-.03125.121094-.050782.1875-.050782m-4.113281.035156v1.925782h.324219v-1.925782zm-7.933594.925782h.046875c.1875.019531.496094.140625.496094.140625h.003906l1.820312.640625c-.136718.019531-.28125.0625-.390624.164062-.109376.105469-.152344.285156-.074219.476563.011719.035156.03125.070312.054687.109375-.992187-.632813-1.789062-1.261719-1.800781-1.269532-.082031-.09375-.140625-.167968-.167969-.21875-.019531-.03125-.015625-.03125-.019531-.039062.011719-.003906.019531-.003906.03125-.003906m2.742187 2.09375c.238282.007812.4375.0625.609376.125.328124.195312.53125.332031.65625.453125.113281.105469.160156.203125.214843.332031-.191406.222656-.289062.476562-.253906.757812 0 .015626.003906.035157.007813.054688-.1875-.027344-.371094-.050781-.539063-.050781-.222656-.003907-.425781.023437-.617187.109375-.363282.160156-.632813.527344-.808594 1.207031-.144532-.101563-.25-.230469-.320313-.414063l-.003906-.003906v-.003906c-.304687-.664062-.246094-1.125.011719-1.601562.125-.234376.308594-.460938.46875-.636719.148437-.164063.257812-.261719.316406-.320313.085938-.007812.171875-.011718.253906-.007812m8.878906.011718c.054688.003907.097657.003907.136719.007813.054688.015625.109375.027344.160157.039063.046874.023437.101562.066406.191406.148437.171875.15625.363281.335937.542968.53125-.316406.128906-.71875.40625-1.023437.78125-.027344.035156-.050781.070313-.078125.105469l-.003906.003906v.003906c-.273438.386719-.421875.875-.226563 1.378906-.214843-.085937-.375-.269531-.488281-.507812-.148438-.316406-.199219-.722656-.167969-1.046875.113281-.0625.203125-.152344.269531-.261719.085938-.132812.152344-.285156.21875-.441406.097657-.171875.199219-.378906.308594-.605469.050782-.070312.105469-.113281.160156-.136719zm1.183594.921876c.027344.023437.050782.046874.070313.070312.058593.070312.117187.148438.167969.222656.25.371094.390624.757813.304687 1.121094 0 .011719-.003906.019531-.007813.03125-.035156.050781-.066406.101562-.101562.148438-.222656-.765626-.699219-1.125-.933594-1.324219.1875-.132813.367188-.226563.5-.269531zm-4.570312.339843c.066406 0 .132812 0 .199218.003907.539063.027343 1.046876.152343 1.242188.324218l.003906.003906c.09375.074219.175782.183594.246094.3125-.417969.03125-.828125.128907-1.199219.367188-.398437.257812-.746093.683594-1.007812 1.34375v.003906c-.316407-.070312-.582031-.15625-.785157-.257812-.296874-.148438-.441406-.316406-.464843-.53125l-.003907-.066406c-.035156-.210938-.035156-.464844.039063-.703126.078125-.253906.234375-.484374.507813-.636718.285156-.109375.753906-.167969 1.222656-.164063m3.886718.070313c.261719.230468.738282.539062.929688 1.371094-.148438.109374-.277344.203124-.394531.273437l-.019531.007813c-.101563-.519532-.328126-.871094-.53125-1.097657-.085938-.09375-.179688-.175781-.28125-.25l-.003907-.003906c.089844-.109375.191407-.210937.300781-.300781m-6.847656.054687c.003906 0 .003906 0 .046875.015625.0625.023438.148438.0625.261719.105469.195312.082031.480469.160156.835938.191406-.054688.09375-.097657.191407-.128907.296875-.023437.074219-.042969.148438-.054687.226563-.089844.09375-.230469.179687-.449219.246093-.28125-.035156-.394531-.085937-.449219-.144531-.054687-.058593-.085937-.175781-.160156-.355469-.027344-.183593-.042969-.289062-.03125-.351562.007812-.058594.054688-.128906.128906-.230469zm6.414063.425781.007812.007813c.085938.0625.167969.136719.242188.21875.183593.199219.386719.519531.480469 1-.171876.03125-.382813.042969-.644532.027344-.0625-.015625-.132812-.03125-.203125-.054688-.210937-.4375-.117187-.84375.117188-1.199219zm-8.246094.074219c.039063 0 .078125.003907.117187.007813.234376.433594.429688.832031.320313 1.574218-.027344 0-.054687 0-.082031 0-.070313-.003906-.152344-.011718-.242188-.011718-.019531-.003906-.03125-.003906-.050781-.003906-.003906-.003907-.011719-.003907-.019531-.003907.082031-.480469.066406-.808593-.007813-1.0625-.054687-.203125-.144531-.355469-.234375-.492187.066406-.003906.128906-.007813.199219-.007813m.386719.03125c.070312.007813.136718.019531.210937.027344.074219.226563.203125.472656.375.746094v.003906c.050781.121094.070313.230469.046875.335937-.007812.023438-.011718.046876-.023437.066407-.050781.042969-.125.105469-.214844.203125h-.003906c-.03125.039062-.066407.070312-.101563.101562.074219-.660156-.09375-1.09375-.289062-1.484375m-.824219.023438c.101563.160156.199219.300781.257813.503906.0625.214844.082031.507813.003906.960937-.289063-.066406-.636719-.183593-1.035156-.351562.167968-.652344.398437-.953125.683593-1.078125.03125-.015625.0625-.027344.089844-.035156m7.003906.1875-.003906.019531c-.035156-.003906-.039063-.015625-.039063-.015625.003907.003906.011719.011719.019532.023437.015625.027344.039062.074219.058594.128907.046874.113281.085937.273437.105468.445312.023438.25-.003906.515625-.144531.71875-.066406-.652343-.34375-.964843-.617187-1.222656.199218-.054687.40625-.085937.621093-.097656m-.859375.179687c.324219.296875.613282.535156.640625 1.328125-.023437.015625-.042969.027344-.066406.035157-.089844.027343-.191406.042968-.300781.050781-.105469-.617188-.386719-1-.667969-1.191407.03125-.023437.0625-.046874.097656-.070312.09375-.058594.195313-.109375.296875-.152344m-.574218.378906c.226562.128907.511718.453126.621093 1.046876-.152343 0-.3125-.003907-.476562-.007813-.164063-.011719-.335938-.019531-.515625-.011719-.058594-.007812-.121094-.019531-.183594-.03125-.015625-.015625-.035156-.035156-.054688-.050781.175782-.417969.378907-.722656.609376-.945313zm0 0"/></svg>