<svg height="18" viewBox="0 0 18 18" width="18" xmlns="http://www.w3.org/2000/svg"><g fill="#ffc600"><path d="m11.757812 6.359375h-5.488281v-.199219h5.488281zm-1.6875-2.136719h.214844v1.9375h-.214844zm-2.328124 0h.214843v1.9375h-.214843zm0 0"/><path d="m11.542969 4.222656h.214843v1.9375h-.214843zm-5.273438 0h.214844v1.9375h-.214844zm0 0"/><path d="m12.023438 6.863281-.082032-.460937c-.003906-.023438-.023437-.042969-.046875-.042969h-5.761719c-.023437 0-.046874.019531-.050781.042969l-.082031.460937zm0 0"/><path d="m5.304688 2.898438h7.421874l-.101562-.378907c-.007812-.023437-.03125-.042969-.054688-.042969h-7.125c-.027343.003907-.046874.019532-.054687.046876zm0 0"/><path d="m13.757812 8.875-.203124-.828125c-.011719-.042969-.054688-.078125-.101563-.078125h-8.886719c-.046875 0-.085937.03125-.097656.078125l-.203125.832031c-.003906.011719-.003906.027344.003906.039063l1.5625 2.375c.015625.027343.046875.042969.078125.042969h6.207032c.03125 0 .0625-.015626.078124-.042969l1.558594-2.375c.003906-.011719.007813-.027344.003906-.042969zm-8.71875-1.03125c.015626-.0625.148438-.800781.148438-.820312 0-.011719 1.71875-.019532 3.824219-.019532l3.824219.007813c0 .003906.035156.195312.078124.425781l.074219.4375c0 .007812-1.789062.015625-3.980469.015625h-3.980468zm-.007812-3.71875c0-.011719-.035156-.246094-.078125-.523438l-.078125-.523437c0-.011719 1.863281-.019531 4.140625-.019531h4.144531l-.085937.539062-.082031.542969c-.003907.015625-7.960938 0-7.960938-.015625zm1.425781 10.957031-.050781-.03125v-3.699219h5.210938v3.699219l-.050782.03125c-.042968.03125-.324218.035157-2.554687.035157-2.234375 0-2.511719-.003907-2.554688-.035157m.273438.398438c-.007813-.007813-.015625-.078125-.015625-.15625v-.140625h4.546875l-.003907.152344-.007812.148437-2.25.003906c-1.242188.003907-2.261719 0-2.269531-.007812"/></g></svg>