<svg height="18" viewBox="0 0 18 18" width="18" xmlns="http://www.w3.org/2000/svg"><path d="m6.199219 3.457031c-.414063-.011719-.710938.261719-.800781.589844-.089844.328125.019531.71875.378906.921875l1.273437.71875c.058594.027344.09375.085938.09375.152344 0 .0625-.035156.121094-.09375.148437l-3.425781 1.929688c-.125.070312-.28125.070312-.410156 0l-1.996094-1.125-.027344-.015625c-.230468-.117188-.457031-.121094-.644531-.050782-.1875.074219-.339844.214844-.433594.390626-.0898435.171874-.128906.378906-.082031.574218.0429688.195313.171875.382813.394531.507813l1.078125.609375c.054688.03125.089844.089844.089844.152344s-.035156.121093-.089844.152343l-1.082031.605469-.023437.015625c-.3867192.226563-.511719.722656-.285157 1.105469.226563.386718.71875.515625 1.101563.289062h.003906l1.996094-1.125c.125-.070312.28125-.070312.410156 0l3.394531 1.914063c.054688.03125.085938.085937.085938.152343 0 .0625-.03125.121094-.085938.148438h-.003906l-1.433594.8125-.027343.015625c-.210938.136719-.328126.328125-.363282.523437-.039062.195313.007813.398438.105469.566407.101563.167969.253906.304687.441406.367187.191407.066406.414063.054688.636719-.066406l2.351562-1.324219c.128907-.074219.285157-.074219.414063 0l2.328125 1.3125.027344.015625c.390625.195313.867187.046875 1.078125-.339844.207031-.386718.070312-.867187-.3125-1.085937l-1.414063-.796875c-.054687-.027344-.089844-.085938-.089844-.152344 0-.0625.035157-.121094.089844-.148437l3.421875-1.929688c.128907-.074219.285157-.074219.414063 0l2.097656 1.183594.027344.015625c.394531.207031.882812.0625 1.09375-.332031.210937-.390625.066406-.882813-.328125-1.09375h.003906l-1.1875-.667969c-.054687-.03125-.085937-.085938-.085937-.148438v-.003906c0-.0625.03125-.117187.085937-.148437l1.179687-.664063.027344-.015625v-.003906c.214844-.136719.332032-.328125.367188-.523437.035156-.195313-.011719-.398438-.109375-.566407-.097657-.167969-.253907-.300781-.441407-.367187-.191406-.0625-.414062-.054688-.636718.066406l-2.09375 1.179688c-.128906.074218-.285156.074218-.414063 0l-3.382812-1.90625c-.058594-.03125-.09375-.089844-.09375-.152344s.035156-.121094.09375-.152344l1.253906-.707031.023437-.015625h.003907c.21875-.132813.34375-.324219.382812-.523438.035157-.199218-.007812-.40625-.109375-.574218-.101562-.171876-.257812-.308594-.449218-.375-.191407-.0625-.421876-.046876-.644532.082031l-2.171875 1.21875c-.128906.074219-.285156.074219-.414062 0l-2.1875-1.234375-.09375-.046875-.007813.015625c-.085937-.035156-.175781-.066406-.269531-.070313zm-.003907.144531c.101563 0 .195313.027344.285157.070313l.023437.011719 2.1875 1.234375c.171875.097656.382813.097656.554688 0l2.171875-1.21875c.195312-.113281.375-.121094.527343-.070313.15625.050782.289063.164063.375.308594.082032.144531.117188.316406.089844.476562-.03125.160157-.125.3125-.316406.429688l-.023438.011719-1.253906.707031c-.210937.121094-.210937.433594 0 .554688l3.382813 1.90625c.171875.097656.382812.097656.554687 0l2.089844-1.179688c.191406-.101562.371094-.109375.523438-.054688.152343.050782.28125.164063.363281.304688.085937.140625.121093.308594.09375.46875-.03125.15625-.121094.308594-.304688.429688l-.019531.011718-1.179688.664063c-.097656.054687-.160156.160156-.160156.273437v.003906c0 .113282.0625.21875.160156.273438l1.1875.667969c.15625.085937.269532.226562.320313.394531.050781.171875.035156.351562-.050781.507812-.082032.15625-.222656.273438-.394532.324219-.167968.050781-.351562.03125-.503906-.054687l-.027344-.011719-2.097656-1.183594c-.171875-.097656-.382812-.097656-.554687 0l-3.421875 1.929688c-.210938.117187-.210938.429687 0 .550781l1.414062.796875c.3125.179687.425782.574219.253906.894531-.167968.316406-.5625.441406-.882812.277344l-.023438-.011719-2.328124-1.3125c-.171876-.097656-.382813-.097656-.554688 0l-2.347656 1.324219c-.191406.101562-.371094.109375-.523438.058594-.152344-.054688-.28125-.167969-.363281-.308594-.085937-.140625-.121094-.308594-.09375-.464844.03125-.160156.121094-.3125.304687-.429687v-.003907l.023438-.011718 1.429688-.808594c.101562-.054688.164062-.160156.164062-.273438 0-.117187-.0625-.222656-.164062-.277343l-3.390626-1.914063c-.171874-.09375-.378906-.09375-.550781 0l-2 1.125c-.152343.089844-.332031.117188-.503906.074219-.171875-.046875-.316406-.15625-.40625-.308594-.089844-.152343-.117187-.332031-.070313-.503906.042969-.171875.152344-.316406.304688-.40625l.023438-.015625 1.082031-.605469c.210937-.121093.210937-.433593 0-.554687l-1.078125-.605469c-.191406-.113281-.292969-.261719-.328125-.417969-.035157-.160156-.007813-.332031.074219-.476562.078124-.144532.203124-.265625.355468-.320313.152344-.058593.332032-.058593.527344.039063l.023438.015625 1.996093 1.125c.171875.09375.378907.09375.550781 0l3.425782-1.929688c.210937-.117187.214844-.429687 0-.550781l-1.273438-.71875c-.304687-.171875-.386718-.484375-.3125-.757812.074219-.273438.308594-.496094.660156-.484376zm2.773438 3.082032c-.011719 0-.019531.007812-.03125.011718v-.003906.003906c-.085938.003907-.171875.019532-.246094.0625l-.035156.019532-3.390625 1.90625c-.097656.058594-.160156.164062-.160156.277344 0 .113281.0625.222656.160156.277343l3.390625 1.910157c.171875.097656.382812.097656.554688 0l3.421874-1.929688c.210938-.117188.210938-.433594 0-.550781l-3.386718-1.910157c-.085938-.046874-.179688-.074218-.277344-.074218zm0 .144531c.070312 0 .140625.019531.207031.054687l3.386719 1.910157c.054688.027343.089844.085937.089844.152343 0 .0625-.035156.121094-.089844.148438l-3.421875 1.929688c-.128906.074218-.285156.074218-.414063 0l-3.390624-1.910157c-.054688-.03125-.089844-.089843-.089844-.152343s.035156-.121094.089844-.152344l3.425781-1.925782c.0625-.035156.132812-.054687.207031-.054687" fill="#9d0fb0"/></svg>