<svg height="18" viewBox="0 0 18 18" width="18" xmlns="http://www.w3.org/2000/svg"><g fill="none" stroke="#fff" stroke-linecap="round" stroke-linejoin="round" stroke-width="2" transform="scale(.75)"><path d="m9.302083 6.197917c1.604167 1.1875 3.791667 1.1875 5.395834 0m-6.796875 4.5c.901041.802083 2.401041 1.302083 4.098958 1.302083s3.197917-.5 4.098958-1.302083"/><path d="m13.901042 3.5c-.140625-.927083-.921875-1.619792-1.859375-1.645833-.9375-.020834-1.755209.630208-1.942709 1.546875l-3 10c-.098958.197916-.098958.401041-.098958.598958 0 1.697917 2.197917 3 5 3s5-1.302083 5-3c0-.197917 0-.401042-.098958-.5zm0 0"/><path d="m7.5 12.197917-4.697917 2.703125c-.5.296875-.802083.697916-.802083 1.098958s.302083.802083.802083 1.098958l7.598959 4.5c.901041.5 2.098958.5 3 0l7.598958-4.5c.697917-.296875 1-.697916 1-1.098958s-.302083-.802083-.802083-1.098958l-4.697917-2.802084"/></g></svg>