<svg height="18" viewBox="0 0 18 18" width="18" xmlns="http://www.w3.org/2000/svg"><path d="m0 5.34375c0-2.953125 2.390625-5.34375 5.34375-5.34375h7.3125c2.953125 0 5.34375 2.390625 5.34375 5.34375v7.3125c0 2.953125-2.390625 5.34375-5.34375 5.34375h-7.3125c-2.953125 0-5.34375-2.390625-5.34375-5.34375zm6.484375-1.265625v.828125l-2.953125 1.71875v2.992188l-.789062.453124v2.882813l2.503906 1.445313 1.082031-.632813 2.6875 1.546875 2.699219-1.558594 1.109375.644532 2.488281-1.433594v-2.894532l-.8125-.464843v-2.980469l-3.023438-1.757812v-.789063l-2.492187-1.449219zm7.367187 2.925781v2.234375l-1.039062-.605469-2.503906 1.449219v2.882813l.746094.421875-2.054688 1.183593-2.023438-1.167968.757813-.4375v-2.882813l-2.503906-1.449219-1.066407.621094v-2.25l2.304688-1.335937h.015625v1.308593l2.488281 1.433594 2.503906-1.433594v-1.351562zm-2.882812 5.597656v-1.757812l1.519531.871094v1.757812zm3.699219 0-1.535157.882813v-1.757813l1.535157-.882812zm-11.277344 0v-1.757812l1.53125.871094v1.769531zm3.683594 0-1.519531.871094v-1.757812l1.519531-.886719zm4.203125-2.308593 1.535156-.886719 1.515625.886719-1.515625.871093zm-4.527344 0-1.53125.886719-1.519531-.886719 1.519531-.886719zm.378906-3.667969v-1.757812l1.519532.871093v1.769531zm3.683594 0-1.515625.871094v-1.757813l1.515625-.886719zm-3.359375-2.320312 1.519531-.875 1.519532.875-1.519532.882812zm0 0"/></svg>