<svg height="18" viewBox="0 0 18 18" width="18" xmlns="http://www.w3.org/2000/svg"><g fill="none" stroke="#fff" stroke-linecap="round" stroke-linejoin="round" stroke-width="2" transform="scale(.75)"><path d="m14 18v-12c0-1.104167-.895833-2-2-2h-8c-1.104167 0-2 .895833-2 2v11c0 .552083.447917 1 1 1h2m10 0h-6m10 0h2c.552083 0 1-.447917 1-1v-3.651042c0-.223958-.078125-.447916-.21875-.625l-3.479167-4.348958c-.192708-.234375-.479166-.375-.78125-.375h-3.520833"/><path d="m19 18c0 1.104167-.895833 2-2 2s-2-.895833-2-2 .895833-2 2-2 2 .895833 2 2zm0 0"/><path d="m9 18c0 1.104167-.895833 2-2 2s-2-.895833-2-2 .895833-2 2-2 2 .895833 2 2zm0 0"/></g></svg>