<svg height="18" viewBox="0 0 18 18" width="18" xmlns="http://www.w3.org/2000/svg"><path d="m14 16.5c0 .276042.223958.5.5.5h.5c1.104167 0 2 .895833 2 2s-.895833 2-2 2h-6c-1.104167 0-2-.895833-2-2s.895833-2 2-2h.5c.276042 0 .5-.223958.5-.5v-9c0-.276042-.223958-.5-.5-.5h-3c-.276042 0-.5.223958-.5.5v.5c0 1.104167-.895833 2-2 2s-2-.895833-2-2v-3c0-1.104167.895833-2 2-2h16c1.104167 0 2 .895833 2 2v3c0 1.104167-.895833 2-2 2s-2-.895833-2-2v-.5c0-.276042-.223958-.5-.5-.5h-3c-.276042 0-.5.223958-.5.5zm0 0" fill="none" stroke="#fff" stroke-linecap="round" stroke-linejoin="round" stroke-width="2" transform="scale(.75)"/></svg>