<svg height="18" viewBox="0 0 18 18" width="18" xmlns="http://www.w3.org/2000/svg"><path d="m2 63.916667v62.5h125v-125h-125zm100.722222-5c3 .694444 5.722222 2.25 7.833334 4.5 1.166666 1.194444 2.166666 2.555555 3 4 0 .166666-5.416667 3.805555-8.694445 5.833333-.111111.083333-.611111-.416667-1.138889-1.222222-1.222222-2.111111-3.416666-3.444445-5.861111-3.527778-3.777778-.25-6.222222 1.722222-6.222222 5-.027778.805556.166667 1.611111.555555 2.333333.833334 1.75 2.388889 2.777778 7.222223 4.861111 8.972222 3.861112 12.805555 6.388889 15.166666 10 2.666667 4 3.25 10.472223 1.444445 15.25-2 5.194445-6.888889 8.722223-13.805556 9.888889-3.166666.361111-6.388889.333334-9.527778-.083333-4.833333-.777778-9.277777-3.083333-12.694444-6.555556-1.138889-1.277777-3.388889-4.583333-3.25-4.833333.361111-.25.75-.5 1.138889-.722222l4.611111-2.638889 3.583333-2.083333.75 1.111111c1.277778 1.805555 2.888889 3.361111 4.75 4.555555 4 2.083334 9.444445 1.805556 12.166667-.638889 1.861111-1.833333 2.138889-4.75.666667-6.916666-1-1.388889-3-2.555556-8.583334-5-6.444444-2.777778-9.222222-4.5-11.75-7.25-1.611111-1.805556-2.777777-3.916667-3.444444-6.25-.5-2.638889-.583333-5.333334-.222222-8 1.333333-6.222222 6-10.555556 12.833333-11.861111 3.138889-.388889 6.361111-.305556 9.472222.25zm-29.333333 5.222222v5.138889h-16.222222v46.222222h-11.527778v-46.25h-16.25v-5c-.055556-1.722222 0-3.444444.138889-5.138889.055555-.083333 10-.138889 22-.111111h21.805555zm0 0" fill="none" stroke="#fff" stroke-linecap="round" stroke-linejoin="round" stroke-width="2" transform="scale(.140625)"/></svg>