<svg height="18" viewBox="0 0 18 18" width="18" xmlns="http://www.w3.org/2000/svg"><path d="m13.511719 12.359375c-.246094.078125-.5.113281-.757813.109375-2.277344 0-5.621094-7.960938-5.621094-10.609375 0-.972656.230469-1.300781.558594-1.578125-2.789062.324219-6.132812 1.347656-7.203125 2.65625-.226562.316406-.371093.828125-.371093 1.476562 0 4.132813 4.414062 13.519532 7.523437 13.519532 1.441406 0 3.867187-2.359375 5.867187-5.574219m-1.449218-12.359375c2.878906 0 5.761718.464844 5.761718 2.089844 0 3.300781-2.09375 7.296875-3.160156 7.296875-1.90625 0-4.277344-5.296875-4.277344-7.945313 0-1.210937.460938-1.441406 1.667969-1.441406" fill="#f49700"/></svg>