<svg height="18" viewBox="0 0 18 18" width="18" xmlns="http://www.w3.org/2000/svg"><path d="m12.027344 0c-.605469 0-1.035156.0546875-1.324219.28125-.289063.226562-.40625.613281-.40625 1.21875 0 1.335938.589844 3.3125 1.421875 4.960938.414062.828124.886719 1.570312 1.378906 2.109374.496094.542969 1.011719.886719 1.515625.886719.3125 0 .644531-.265625.992188-.695312.351562-.429688.710937-1.035157 1.039062-1.738281.65625-1.410157 1.175781-3.226563 1.175781-4.875 0-.425782-.191406-.78125-.515624-1.0625-.324219-.28125-.78125-.492188-1.324219-.652344-1.082031-.320313-2.515625-.433594-3.949219-.433594v.144531c1.425781 0 2.851562.117188 3.910156.429688.527344.15625.96875.363281 1.265625.625.304688.257812.46875.566406.46875.949219 0 1.617187-.515625 3.421874-1.164062 4.8125-.324219.695312-.679688 1.289062-1.019531 1.707031-.335938.414062-.660157.644531-.878907.644531-.4375 0-.925781-.3125-1.40625-.839844-.480469-.523437-.949219-1.261718-1.359375-2.078125-.820312-1.632812-1.40625-3.601562-1.40625-4.894531 0-.589844.113282-.917969.351563-1.105469.242187-.1875.640625-.25 1.234375-.25zm-4.097656.25-.238282.027344c-1.386718.164062-2.914062.496094-4.226562.957031-1.3125.457031-2.417969 1.035156-2.964844 1.703125l-.003906.003906c-.234375.335938-.382813.855469-.382813 1.511719 0 2.074219 1.097657 5.425781 2.582031 8.273437.742188 1.425782 1.582032 2.722657 2.433594 3.664063.851563.945313 1.714844 1.546875 2.523438 1.546875.753906 0 1.71875-.601562 2.753906-1.589844 1.03125-.992187 2.132812-2.378906 3.125-3.976562l-.058594-.035156-.019531-.070313c-.238281.070313-.480469.105469-.726563.101563h-.003906c-.519531 0-1.140625-.472657-1.765625-1.246094-.625-.773438-1.25-1.839844-1.800781-2.988282-1.109375-2.296874-1.9375-4.933593-1.9375-6.214843 0-.476563.058594-.789063.152344-1.015625.09375-.222656.21875-.359375.378906-.496094zm-.441407.210938c-.097656.105468-.1875.226562-.253906.386718-.101563.25-.160156.582032-.160156 1.070313 0 1.34375.832031 3.96875 1.949219 6.277343.558593 1.15625 1.183593 2.226563 1.820312 3.015626.632812.789062 1.273438 1.300781 1.878906 1.300781.203125.003906.402344-.039063.597656-.082031-.964843 1.53125-2.023437 2.859374-3.015624 3.808593-1.023438.980469-1.980469 1.550781-2.652344 1.550781-.734375 0-1.578125-.566406-2.414063-1.496093-.839843-.929688-1.671875-2.214844-2.410156-3.632813-1.476563-2.832031-2.566406-6.1875-2.566406-8.207031 0-.636719.144531-1.128906.355469-1.421875.511718-.628906 1.597656-1.207031 2.894531-1.660156 1.234375-.429688 2.660156-.742188 3.976562-.910156zm0 0" fill="#f49700"/></svg>