<svg height="18" viewBox="0 0 18 18" width="18" xmlns="http://www.w3.org/2000/svg"><path d="m3.375 0v18h11.34375v-18zm7.484375 7.738281c.648437 0 1.175781.527344 1.175781 1.183594 0 .652344-.527344 1.183594-1.175781 1.183594s-1.175781-.53125-1.175781-1.183594c0-.65625.527344-1.183594 1.175781-1.183594m-1.617187.121094c.09375 0 .1875.003906.277343.011719-.214843.273437-.335937.609375-.355469.957031-.925781.019531-1.777343.476563-2.304687 1.246094-.167969-.105469-.347656-.179688-.539063-.21875-.113281-.027344-.234374-.039063-.351562-.039063-.03125 0-.0625 0-.089844.003906.683594-1.21875 1.988282-1.96875 3.363282-1.960937zm3.179687 1.730469c.570313.871094.769531 1.933594.554687 2.949218-.125.582032-.378906 1.128907-.746093 1.59375v.003907-.003907c-.089844-.34375-.289063-.652343-.5625-.878906.171875-.285156.296875-.59375.363281-.917968.144531-.667969.046875-1.363282-.269531-1.964844.292969-.1875.523437-.457032.660156-.78125zm-6.453125.742187c.648438 0 1.175781.53125 1.175781 1.183594 0 .65625-.527343 1.183594-1.175781 1.183594s-1.175781-.527344-1.175781-1.183594c0-.652344.527343-1.183594 1.175781-1.183594m.699219 2.730469c.394531.773438 1.101562 1.316406 1.949219 1.5.09375.019531.191406.035156.289062.046875.007812.359375.125.703125.34375.988281-.28125.003906-.5625-.023437-.835938-.085937-1.25-.269531-2.269531-1.132813-2.75-2.324219.339844.0625.6875.019531 1.003907-.125m3.925781.324219c.648438 0 1.175781.527343 1.175781 1.183593 0 .652344-.527343 1.183594-1.175781 1.183594s-1.171875-.53125-1.171875-1.183594c0-.65625.523437-1.183593 1.171875-1.183593zm0 0"/></svg>