<svg height="18" viewBox="0 0 18 18" width="18" xmlns="http://www.w3.org/2000/svg"><path d="m8.324219 0c-.019531 0-.039063 0-.050781.0117188l-7.210938 4.1601562c-.023438.015625-.039062.039063-.039062.066406v8.324219c0 .027344.015624.054688.039062.066406.023438.015625.050781.015625.074219 0l2.765625-1.597656c.023437-.011719.035156-.035156.035156-.0625v-3.261719c.003906-.027343.019531-.054687.042969-.070312.027343-.015625.058593-.015625.082031 0l3.359375 1.9375c.074219.042969.121094.121093.121094.207031v3.875c0 .03125-.015625.058594-.042969.074219-.023438.015625-.054688.015625-.082031 0l-2.824219-1.632813c-.023438-.015625-.050781-.015625-.074219 0l-2.765625 1.597656c-.023437.015626-.039062.039063-.039062.066407 0 .027343.015625.050781.039062.066406l7.207032 4.160156c.023437.015625.050781.015625.074218 0l7.210938-4.160156c.023437-.015625.039062-.039063.039062-.066406 0-.027344-.015625-.050781-.039062-.066407l-2.761719-1.597656c-.023437-.011718-.054687-.011718-.078125 0l-2.824219 1.632813c-.023437.011719-.054687.011719-.082031-.003907-.023438-.011718-.039062-.039062-.039062-.070312v-3.875c0-.085938.042968-.164062.117187-.207031l3.359375-1.941407c.023438-.011718.054688-.011718.078125.003907h.003906c.023438.011719.039063.039062.039063.070312v3.261719c0 .023438.015625.050781.039062.0625l2.765625 1.597656c.023438.015625.050781.015625.074219 0 .023438-.011718.039062-.039062.039062-.066406v-8.324219c0-.007812-.003906-.011719-.003906-.019531l-.003906-.007812c-.007812-.015626-.015625-.027344-.03125-.039063l-7.207031-4.1601562c-.023438-.01562505-.054688-.01562505-.078125 0-.023438.0117187-.035156.0351562-.035156.0625v3.1953122c0 .027344.011718.050781.035156.066407l2.828125 1.628906c.023437.015625.039062.042968.039062.074218 0 .027344-.015625.054688-.042969.070313l-3.355468 1.9375c-.074219.042969-.167969.042969-.242188 0l-3.355468-1.9375c-.027344-.015625-.042969-.042969-.042969-.070313v-.003906c0-.027344.015625-.054687.042969-.070312l2.824218-1.628906c.023438-.015626.039063-.039063.039063-.066407v-3.1953122c0-.0351563-.027344-.0664063-.0625-.0742188zm-.089844.207031v3.019531l-2.789063 1.609376c-.070312.039062-.113281.117187-.113281.199218 0 .085938.042969.160156.113281.203125l3.359376 1.941407c.121093.066406.269531.066406.390624 0l3.359376-1.941407c.070312-.042969.117187-.117187.117187-.199219 0-.085937-.042969-.164062-.117187-.203124l-2.789063-1.609376v-3.019531l6.984375 4.03125-4.285156 2.472657-3.464844 2-7.75-4.472657zm-7.058594 4.164063 7.746094 4.472656v8.949219l-6.980469-4.03125 2.613282-1.511719 2.789062 1.613281.035156-.0625-.035156.0625c.074219.039063.164062.039063.234375-.003906s.113281-.117187.113281-.199219v-3.878906c0-.140625-.074218-.269531-.195312-.339844l-3.359375-1.9375c-.070313-.042968-.160157-.039062-.230469 0-.074219.042969-.117188.117188-.117188.199219v3.21875l-2.613281 1.511719zm15.648438 0v8.0625l-2.613281-1.511719v-3.21875c0-.082031-.046876-.15625-.117188-.199219-.074219-.039062-.160156-.042968-.234375 0l-3.355469 1.9375c-.121094.070313-.195312.199219-.195312.339844v3.878906c0 .082032.042968.15625.117187.199219.070313.039063.160157.042969.230469.003906v-.003906l2.789062-1.609375 2.613282 1.511719-6.984375 4.03125v-8.949219zm0 0"/></svg>