<svg height="18" viewBox="0 0 18 18" width="18" xmlns="http://www.w3.org/2000/svg"><path d="m9 18 7.269531-4.199219-2.785156-1.609375-2.851563 1.644532c-.046874.027343-.109374.027343-.15625 0-.050781-.03125-.082031-.082032-.082031-.136719v-3.910157c0-.117187.058594-.21875.160157-.277343l3.386718-1.953125c.046875-.03125.109375-.03125.15625 0 .050782.027344.082032.078125.082032.136718v3.289063l2.789062 1.609375v-8.394531l-7.96875 4.597656zm0 0"/><path d="m7.367188 13.835938-2.847657-1.644532-2.789062 1.609375 7.269531 4.199219v-9.203125l-7.96875-4.597656v8.394531l2.789062-1.609375v-3.289063c0-.058593.03125-.109374.082032-.136718.046875-.027344.109375-.03125.15625 0l3.386718 1.953125c.101563.058593.160157.164062.160157.277343v3.910157c0 .054687-.03125.109375-.078125.136719-.050782.027343-.109375.03125-.160156 0" fill="#4d4d4d"/><path d="m9.699219 0v3.21875l2.847656 1.644531c.046875.03125.078125.082031.078125.140625 0 .054688-.03125.109375-.078125.136719l-3.386719 1.957031c-.097656.054688-.21875.054688-.320312 0l-3.386719-1.957031c-.046875-.027344-.078125-.082031-.078125-.136719 0-.058594.03125-.109375.078125-.140625l2.851563-1.644531v-3.21875l-7.273438 4.199219 7.96875 4.597656 7.96875-4.597656zm0 0" fill="#808080"/></svg>