<svg height="18" viewBox="0 0 18 18" width="18" xmlns="http://www.w3.org/2000/svg"><g fill="none" stroke="#fff" stroke-linecap="round" stroke-linejoin="round" stroke-width="2" transform="scale(.75)"><path d="m13 10c0 .552083-.447917 1-1 1s-1-.447917-1-1 .447917-1 1-1 1 .447917 1 1zm0 0"/><path d="m22 20v-12h-4l-6-4-6 4h-4v12c0 1.104167.895833 2 2 2h16c1.104167 0 2-.895833 2-2m-16-3v.010417m0-4.010417v.010417m12 3.989583v.010417m0-4.010417v.010417"/><path d="m14 22v-5c0-1.104167-.895833-2-2-2s-2 .895833-2 2v5"/></g></svg>