<svg height="18" viewBox="0 0 18 18" width="18" xmlns="http://www.w3.org/2000/svg"><path d="m.984375.421875v.921875h5.738281v-.921875zm10.089844 0v.921875h5.941406v-.921875zm-10.089844 1.945313v.921874h5.738281v-.921874zm10.089844 0v.921874h5.941406v-.921874zm-10.089844 1.894531v.921875h5.738281v-.921875zm10.089844 0v.921875h5.941406v-.921875zm-10.089844 4.257812c0 3.175781.011719 3.308594.359375 4.347657.371094 1.132812.875 1.953124 1.660156 2.734374 1.371094 1.363282 3.148438 2.035157 5.585938 2.109376 2.796875.085937 4.921875-.613282 6.429687-2.128907.773438-.777343 1.351563-1.757812 1.683594-2.847656.300781-.980469.3125-1.144531.3125-4.226563v-2.8125l-2.957031.011719-2.957032.015625s-.027343.007813-.027343 4.070313c0 4.636719-.777344 5.46875-2.277344 5.46875s-2.09375-.796875-2.066406-5.589844c.023437-3.964844-.015625-3.976563-.015625-3.976563h-5.730469zm0 0" fill="#4051b5"/></svg>