<svg height="18" viewBox="0 0 18 18" width="18" xmlns="http://www.w3.org/2000/svg"><g fill-rule="evenodd"><path d="m14.148438 10.25c-.148438.71875-.8125 2.566406-2.933594 3.566406l-.851563-.957031-1.433593 1.445313c-1.65625-.023438-3.207032-.820313-4.191407-2.152344.152344.050781.3125.078125.46875.089844.234375.003906.492188-.082032.492188-.476563v-3.894531c.003906-.203125-.082031-.398438-.242188-.523438-.160156-.125-.367187-.171875-.566406-.117187-.664063.152343-1.195313 1.808593-1.195313 1.808593-.015624-1.546874.652344-3.027343 1.824219-4.039062.765625-.660156 1.699219-1.089844 2.695313-1.242188-.726563.414063-1.132813 1.085938-1.132813 1.652344 0 .910156.546875.800782.710938.667969v5.253906c.027343.066407.0625.128907.105469.1875.148437.203125.382812.320313.636718.320313.546875 0 1.257813-.628906 1.257813-.628906v-4.253907c0-.433593-.324219-.953125-.652344-1.132812 0 0 .605469-.109375 1.074219.25.085937-.109375.179687-.210938.277344-.308594 1.089843-1.066406 2.117187-1.371094 2.96875-1.523437 0 0-1.550782 1.21875-1.550782 2.859374 0 1.21875.03125 4.1875.03125 4.1875.574219.554688 1.433594-.246093 2.207032-1.039062zm0 0"/><path d="m9 .335938c-4.785156 0-8.664062 3.878906-8.664062 8.664062s3.878906 8.664062 8.664062 8.664062 8.664062-3.878906 8.664062-8.664062-3.878906-8.664062-8.664062-8.664062m0 16.984374c-4.59375 0-8.316406-3.726562-8.316406-8.320312s3.722656-8.316406 8.316406-8.316406 8.316406 3.722656 8.316406 8.316406-3.722656 8.320312-8.316406 8.320312zm0 0"/></g></svg>