<svg height="18" viewBox="0 0 18 18" width="18" xmlns="http://www.w3.org/2000/svg"><g fill="none" stroke="#fff" stroke-linecap="round" stroke-linejoin="round" stroke-width="2" transform="scale(.75)"><path d="m21 15c0 1.65625-1.34375 3-3 3s-3-1.34375-3-3 1.34375-3 3-3 3 1.34375 3 3zm0 0"/><path d="m13 7c0 2.208333-1.791667 4-4 4s-4-1.791667-4-4 1.791667-4 4-4 4 1.791667 4 4zm0 0"/><path d="m10 15h-4c-2.208333 0-4 1.791667-4 4v2m19.697917-4.598958-.895834-.302084m-5.604166-2.197916-.895834-.302084m2.296875 5.098959.302084-.895834m2.197916-5.604166.302084-.895834m.197916 7.395834-.401041-1m-2.395834-5.395834-.401041-1m-2.098959 5.296875 1-.401041m5.395834-2.395834 1-.401041"/></g></svg>