<svg height="18" viewBox="0 0 18 18" width="18" xmlns="http://www.w3.org/2000/svg"><path d="m.53125 3.070312 1.539062 2.695313h.003907l.4375.769531h1.042969l1.269531 2.414063c.222656-.882813.71875-1.671875 1.421875-2.253907-.441406-.644531-.644532-1.417968-.570313-2.195312l-.71875-1.429688zm12.511719 0-.730469 1.28125c.113281.824219-.085938 1.660157-.558594 2.34375.703125.585938 1.199219 1.378907 1.421875 2.265626l1.273438-2.425782h1.039062l.058594-.09375.378906-.675781h.003907l1.539062-2.695313zm-3.152344 5.765626-.898437 1.714843-.921876-1.6875c-.320312.261719-.539062.65625-.539062 1.136719 0 .808594.660156 1.472656 1.46875 1.472656.390625 0 .765625-.15625 1.039062-.433594.277344-.273437.429688-.648437.429688-1.039062 0-.453125-.210938-.878906-.570312-1.15625zm-2.242187 5.253906 1.351562 2.457031 1.351562-2.453125c-.4375.144531-.894531.214844-1.351562.214844-.457031-.003906-.914062-.074219-1.351562-.21875m5.480468-5.042969c-.214844-.917969-.726562-1.742187-1.460937-2.335937.800781-1.121094.816406-2.625.035156-3.761719s-2.191406-1.660157-3.523437-1.3125c-1.335938.347656-2.308594 1.496093-2.433594 2.867187-.074219.78125.132812 1.566406.585937 2.207032-.730469.589843-1.246093 1.410156-1.460937 2.328124-.074219.316407-.109375.636719-.105469.960938 0 1.792969 1.117187 3.332031 2.695313 3.949219.488281.1875 1.011718.289062 1.539062.285156 1.292969.007813 2.515625-.582031 3.320312-1.59375.804688-1.011719 1.105469-2.332031.808594-3.59375zm-4.128906-5.398437c.746094 0 1.347656.601562 1.347656 1.347656 0 .742187-.601562 1.347656-1.347656 1.347656s-1.347656-.605469-1.347656-1.347656c0-.746094.601562-1.347656 1.347656-1.347656m0 7.894531c-.847656 0-1.539062-.695313-1.539062-1.542969 0-.585938.335937-1.121094.863281-1.378906.527343-.257813 1.15625-.191406 1.617187.167968.378906.289063.597656.738282.597656 1.210938 0 .851562-.6875 1.542969-1.539062 1.542969" fill="#4889f4"/></svg>