<svg height="18" viewBox="0 0 18 18" width="18" xmlns="http://www.w3.org/2000/svg"><path d="m2.375 0h13.25c.632812 0 1.234375.25 1.679688.695312.445312.445313.695312 1.046876.695312 1.679688v13.25c0 .632812-.25 1.234375-.695312 1.679688-.445313.445312-1.046876.695312-1.679688.695312h-13.25c-.632812 0-1.234375-.25-1.679688-.695312-.445312-.445313-.695312-1.046876-.695312-1.679688v-13.25c0-.632812.25-1.234375.695312-1.679688.445313-.445312 1.046876-.695312 1.679688-.695312" fill="#782a91"/><path d="m0 3.699219v.847656l3.738281 8.488281.535157 1.214844h1.050781l-.003907-.023438c.003907-.992187.605469-1.882812 1.527344-2.25l2.753906-6.023437 2.132813 3-2.417969 3.414063c.535156.449218.847656 1.105468.863282 1.804687h1.09375l1.957031-2.761719 1.296875-1.832031 3.445312-4.863281v-1.015625h-2.585937l-2.046875 2.988281-2.046875-2.988281h-3.296875l.003906.007812-2.832031 6.203125-2.734375-6.210937zm15.4375 6.496093-1.539062 2.210938 1.191406 1.765625h2.882812v-.417969zm-7.6875 2.515626c-.835938 0-1.515625.675781-1.515625 1.515624 0 .835938.679687 1.515626 1.515625 1.515626.839844 0 1.515625-.679688 1.515625-1.515626 0-.839843-.675781-1.515624-1.515625-1.515624zm0 0" fill="#fff"/></svg>