<svg height="18" viewBox="0 0 18 18" width="18" xmlns="http://www.w3.org/2000/svg"><path d="m9.066406 1.003906-7.867187 7.878906 7.84375 7.863282 7.886719-7.882813zm0 0" fill="#019833"/><path d="m9.042969 16.765625-7.863281-7.882813.019531-.019531 7.886719-7.898437 7.867187 7.878906-.023437.019531zm-7.820313-7.882813 7.820313 7.84375 7.867187-7.863281-7.824218-7.839843zm0 0"/><path d="m9.042969 1.023438v-.6875l-8.578125 8.585937h.734375zm0 0" fill="#66fe98"/><path d="m1.199219 8.921875h-.777344l.023437-.019531 8.597657-8.605469v.726563zm-.691407-.019531h.671876l7.84375-7.878906v-.648438zm0 0"/><path d="m9.023438 1.023438v-.6875l8.574218 8.585937h-.730468zm0 0" fill="#45fe02"/><path d="m17.621094 8.921875h-.777344l-7.84375-7.878906v-.726563l.023438.019532zm-.753906-.019531h.667968l-8.492187-8.527344v.648438zm0 0"/><path d="m9.042969 16.785156v.683594l-8.578125-8.566406h.734375zm0 0" fill="#017d17"/><path d="m9.042969 17.507812-.019531-.019531-8.601563-8.605469h.777344l7.84375 7.902344zm-8.535157-8.605468 8.515626 8.527344v-.644532l-7.84375-7.882812zm0 0"/><path d="m4.710938 15.84375h-1.660157l-.644531-.375v-12.289062h-.515625l-.433594-.433594v-1.351563l.453125-.488281h5.796875l.515625.527344v1.273437l-.429687.53125h-.429688v4.078125l4.113281-4.078125h-.234374l-.476563-.507812v-1.355469l.476563-.429688h5.839843l.453125.46875v1.273438zm-1.484376-.628906h1.226563l12.476563-12.800782v-.765624l-.085938-.097657h-5.367188l-.085937.078125v.824219l.132813.136719h1.484374l-6.269531 6.195312v-6.195312h.773438l.109375-.117188v-.78125l-.152344-.160156h-5.277344l-.109375.121094v.839844l.066407.078124h.902343v12.527344zm0 0"/><path d="m9.023438 16.785156v.683594l8.574218-8.585938h-.730468zm0 0" fill="#005d04"/><path d="m9 17.507812v-.722656l7.84375-7.902344h.777344l-.023438.019532zm.042969-.722656v.644532l8.511719-8.527344h-.667969zm0 0"/><path d="m8.980469 17.585938-8.707031-8.703126 8.726562-8.742187 8.707031 8.703125zm-8.425781-8.703126 8.425781 8.449219 8.46875-8.46875-8.425781-8.449219zm0 0"/><path d="m7.640625 1.730469.304687-.160157-.324218-.3125h-5.558594l-.28125.273438v1.078125l.324219.316406.148437-.316406-.191406-.195313v-.761718l.148438-.140625h5.324218zm0 0" fill="#fefefe"/><path d="m2.105469 2.945312-.347657-.335937v-1.078125l.304688-.292969h5.578125l.347656.332031-.347656.179688-.128906-.21875h-5.320313l-.128906.117188v.746093l.191406.195313zm-.300781-.355468.300781.296875.128906-.277344-.195313-.195313v-.765624l.152344-.136719h5.320313l.128906.21875.28125-.160157-.300781-.292968h-5.558594l-.28125.273437v1.039063zm0 0"/><path d="m4.324219 15.3125h-1.054688l-.175781-.175781v-12.527344h-.902344l-.195312-.175781v-.761719l.171875-.179687h5.28125l.191406.15625v.746093l-.214844.214844h-.988281v6.746094l5.988281-6.078125v-.667969h-.90625l-.171875-.175781v-.746094l.214844-.214844h5.195312l.214844.214844v.589844zm-1.035157-.019531h1.035157l12.605469-13.035157v-.566406l-.191407-.199218h-5.152343l-.195313.199218v.703125l.175781.15625h.925782v.726563l-6.054688 6.15625v-6.863282h1.011719l.191406-.195312v-.726562l-.171875-.136719h-5.277344l-.171875.15625v.726562l.171875.15625h.925782v12.546875zm0 0"/><path d="m3.097656 2.570312v12.546876l.171875.175781-.128906.234375-.367187-.351563v-12.269531zm0 0" fill="#fefefe"/><path d="m3.140625 15.585938-.390625-.371094v-12.308594l.367188-.355469v12.585938l.171874.195312zm-.347656-.390626.347656.332032.105469-.214844-.152344-.175781v-12.527344l-.300781.296875zm0 0"/><path d="m2.210938 2.570312-.085938.296876h.667969l.367187-.296876zm0 0" fill="#808080"/><path d="m2.792969 2.90625h-.6875l.105469-.335938h1.015624zm-.667969-.039062h.648438l.324218-.277344h-.90625zm0 0"/><path d="m11.457031 2.925781.152344-.316406-.21875-.195313v-.664062l.238281-.257812h5.128906l.195313.257812.277344-.199219-.277344-.292969h-5.519531l-.277344.273438v1.078125zm-4.484375 5.15625-.535156 1.292969 6.054688-6.078125v-.726563zm0 0" fill="#fefefe"/><path d="m6.457031 9.414062-.019531-.019531.535156-1.316406 5.539063-5.527344v.765625zm.539063-1.316406-.496094 1.238282 5.992188-6.019532v-.6875zm4.460937-5.171875-.023437-.019531-.277344-.277344v-1.097656l.277344-.292969h5.539062l.300782.332031-.300782.21875-.191406-.277343h-5.152344l-.238281.238281v.664062l.21875.195313zm-.28125-.296875.28125.257813.128907-.277344-.214844-.195313v-.683593l.257812-.257813h5.152344l.191406.257813.257813-.179688-.277344-.273437h-5.519531l-.257813.273437zm0 0"/><path d="m7.621094 1.691406.257812-.179687v1.058593l-.300781.316407h-.605469v5.210937l-.535156 1.296875v-6.824219h.988281l.195313-.15625zm0 0" fill="#808080"/><path d="m6.457031 9.394531h-.019531v-6.824219h1.011719l.171875-.136718v-.722656l.300781-.199219v1.097656l-.324219.316406h-.578125v5.191407zm0-6.804687v6.726562l.515625-1.21875v-5.230468h.605469l.300781-.296876v-1.019531l-.238281.160157v.722656l-.191406.15625zm0 0"/><path d="m11.585938 1.492188-.195313.199218v.722656l.175781.175782h.902344v.707031l-6.03125 6.097656v-6.804687h.988281l.214844-.195313v-.722656l-.191406-.140625h-5.257813l-.171875.179688v.742187l.171875.175781h.925782v12.527344l.171874.175781h1.035157l12.628906-13.035156v-.566406l-.195313-.199219h-5.171874zm0 0" fill="#ccc"/><path d="m4.324219 15.3125h-1.054688l-.175781-.175781v-12.527344h-.902344l-.195312-.175781v-.761719l.171875-.179687h5.28125l.191406.15625v.746093l-.214844.214844h-.988281v6.746094l5.988281-6.078125v-.667969h-.90625l-.171875-.175781v-.746094l.214844-.214844h5.195312l.214844.214844v.589844zm-1.035157-.019531h1.035157l12.605469-13.035157v-.566406l-.191407-.199218h-5.152343l-.195313.199218v.703125l.175781.15625h.925782v.726563l-6.054688 6.15625v-6.863282h1.011719l.191406-.195312v-.726562l-.171875-.136719h-5.277344l-.171875.15625v.726562l.171875.15625h.925782v12.546875zm0 0"/><path d="m16.972656 1.710938.28125-.160157v1l-12.714844 13.015625h-1.355468l.128906-.253906h1.03125l12.609375-13.035156zm0 0" fill="#808080"/><path d="m4.539062 15.585938h-1.378906l.152344-.292969h1.03125l12.585938-13.015625.023437-.566406.300781-.179688v1.058594zm-1.335937-.039063h1.316406l12.710938-12.996094v-.980469l-.257813.140626-.019531.566406-12.609375 13.054687h-1.03125zm0 0"/><path d="m12.46875 2.589844-.277344.296875h-.734375l.171875-.296875zm0 0" fill="#808080"/><path d="m12.191406 2.90625h-.777344l.195313-.335938h.902344zm-.714844-.019531h.714844l.257813-.277344h-.796875zm0 0"/><path d="m9.453125 9.921875s-.023437 0-.023437.019531l-.234376.214844-.023437.019531-.238281.6875c0 .019531 0 .039063.023437.058594l.195313.195313c.019531.019531.019531.019531.042968.019531h.753907c.019531 0 .019531 0 .042969-.019531l.191406-.195313.023437-.019531.214844-.726563c0-.019531 0-.039062-.019531-.058593l-.175782-.15625c-.019531-.019532-.019531-.019532-.042968-.019532h-.730469zm-1.402344 1.941406c-.019531 0-.042969.019531-.042969.039063l-.085937.371094c0 .039062.023437.058593.042969.078124h.476562l-1.101562 3.136719c0 .039063 0 .058594.042968.078125h1.617188c.023438 0 .042969-.019531.066406-.039062l.105469-.332032c0-.039062 0-.058593-.042969-.078124h-.386718l1.097656-3.175782c0-.039062 0-.058594-.042969-.078125zm5.109375.019531c-.023437 0-.023437 0-.023437.019532l-.324219.371094h-.535156l-.347656-.371094c0-.019532-.019532-.019532-.042969-.019532h-1.292969c-.019531 0-.042969.019532-.042969.039063l-.105469.351563c0 .039062 0 .058593.042969.078124h.363281l-1.054687 3.117188c0 .039062 0 .058594.042969.078125h1.378906c.023438 0 .042969-.019531.042969-.039063l.109375-.292968c0-.039063 0-.058594-.042969-.078125h-.257813l.667969-2.117188h1.207031l-.777343 2.46875c0 .039063 0 .058594.042969.078125h1.3125c.023437 0 .042968-.019531.042968-.039062l.109375-.273438c.023438-.019531 0-.058594-.023437-.078125h-.257813l.691407-2.15625h1.164062l-.777344 2.46875c0 .039063 0 .058594.042969.078125h1.445313c.019531 0 .042968-.019531.042968-.039062l.105469-.292969c0-.039063 0-.058594-.042969-.078125h-.300781l.863281-2.804688v-.058593l-.257812-.351563c-.023438-.019531-.023438-.019531-.042969-.019531h-1.015625c-.019531 0-.019531 0-.042969.019531l-.320312.351563h-.5625l-.324219-.371094c-.019531-.019531-.019531-.019531-.042969-.019531h-.859375zm0 0" fill="#ccc"/><path d="m8.980469 15.707031h-1.597657c-.019531 0-.042968 0-.0625-.019531-.109374-.039062-.152343-.140625-.128906-.238281l1.03125-2.957031h-.300781c-.105469-.019532-.171875-.140626-.128906-.238282l.085937-.371094c.023438-.078124.066406-.117187.152344-.136718h1.722656c.023438 0 .042969 0 .066406.019531.105469.039063.148438.136719.128907.234375l-1.035157 3h.238282c.105468.039062.148437.136719.128906.234375l-.109375.332031c-.042969.082032-.105469.140625-.191406.140625zm-.5625-3.492187h.195312l-1.121093 3.214844h1.445312l.0625-.175782h-.453125l1.121094-3.253906h-1.507813l-.066406.214844zm7.519531 3.453125h-1.484375c-.109375-.042969-.152344-.140625-.128906-.238281l.730469-2.292969h-.882813l-.601563 1.882812h.042969c.019531 0 .042969 0 .0625.019531.109375.039063.152344.15625.109375.253907l-.109375.273437c-.019531.082032-.105469.121094-.171875.121094h-1.359375c-.105469-.039062-.148437-.140625-.128906-.238281l.734375-2.3125h-.949219l-.582031 1.84375h.042969c.023437 0 .042969 0 .066406.019531.105469.039062.148437.136719.128906.234375l-.109375.3125c-.019531.078125-.105468.117187-.171875.140625h-1.355469c-.023437 0-.042968 0-.066406-.019531-.109375-.042969-.152344-.140625-.128906-.238281l.992188-2.9375h-.152344c-.019532 0-.042969 0-.0625-.019532-.109375-.042968-.152344-.140625-.132813-.238281l.109375-.351563c.023438-.078124.109375-.136718.171875-.136718h1.273438c.042969 0 .105469.019531.128906.058594l.324219.332031h.40625l.304687-.332031c.019531-.039063.0625-.058594.105469-.058594h.863281c.042969 0 .105469.019531.128907.058594l.300781.3125h.453125l.28125-.3125c.042968-.039063.085937-.058594.128906-.058594h1.011719c.066406 0 .109375.019531.152343.078125l.257813.351562c.042969.039063.042969.117188.019531.175781l-.796875 2.628907h.109375c.019532 0 .042969 0 .0625.019531.109375.039062.152344.136719.109375.234375l-.109375.3125c.023438.058594-.042968.117187-.128906.117187zm-5.105469-3.453125h.195313l-1.078125 3.175781h1.183593l.042969-.15625h-.300781l.753906-2.390625h1.488282l-.796876 2.546875h1.140626l.042968-.117187h-.300781l.773437-2.410157h1.445313l-.796875 2.546875h1.269531l.066407-.15625h-.34375l.902343-2.941406-.214843-.292969h-.949219l-.34375.375h-.6875l-.347657-.394531h-.753906l-.34375.394531h-.648437l-.363281-.394531h-1.1875l-.0625.195312h.214843zm-.925781-.960938h-.753906c-.042969 0-.109375-.019531-.128906-.058594l-.195313-.195312c-.042969-.058594-.066406-.136719-.042969-.195312l.238282-.6875c0-.039063.019531-.058594.042968-.078126l.234375-.214843c.023438-.019531.042969-.039063.085938-.039063h.734375c.042968 0 .085937.019532.128906.058594l.171875.15625c.042969.039062.066406.117188.042969.195312l-.214844.726563c0 .039063-.019531.058594-.042969.078125l-.195312.195312c0 .039063-.0625.058594-.105469.058594zm-.839844-.390625.128906.136719h.6875l.152344-.15625.191406-.667969-.105468-.097656h-.648438l-.214844.179687zm0 0"/><path d="m9.453125 9.980469-.238281.214843-.238282.6875.195313.195313h.753906l.195313-.195313.214844-.726562-.171876-.15625h-.710937zm-1.378906 1.941406-.085938.371094h.515625l-1.121094 3.214843h1.597657l.105469-.332031h-.429688l1.121094-3.253906zm5.085937 0-.347656.390625h-.578125l-.367187-.390625h-1.273438l-.105469.351563h.410157l-1.078126 3.175781h1.355469l.109375-.292969h-.324218l.710937-2.214844h1.335937l-.796874 2.527344h1.292968l.109375-.273438h-.324219l.710938-2.273437h1.269531l-.796875 2.546875h1.421875l.109375-.292969h-.367187l.882812-2.863281-.257812-.351562h-1.011719l-.34375.371093h-.625l-.347656-.390625h-.773438zm0 0" fill="#ccc"/><path d="m9 15.527344h-1.636719l1.121094-3.214844h-.519531l.109375-.410156h1.722656l-1.140625 3.253906h.429688zm-1.59375-.039063h1.570312l.089844-.3125h-.433594l1.101563-3.234375h-1.640625l-.085938.332032h.519532zm8.554688 0h-1.464844l.796875-2.546875h-1.25l-.710938 2.234375h.324219l-.128906.3125h-1.335938l.796875-2.527343h-1.292969l-.691406 2.195312h.324219l-.109375.332031h-1.378906l1.078125-3.175781h-.410157l.128907-.371094h1.292969l.367187.390625h.5625l.34375-.390625h.839844l.34375.390625h.605469l.34375-.371093h1.035156l.277344.371093-.882813 2.84375h.367187zm-1.421876-.039062h1.398438l.109375-.273438h-.367187l.882812-2.882812-.257812-.351563h-1.011719l-.34375.371094h-.625l-.347657-.390625h-.796874l-.34375.390625h-.605469l-.363281-.390625h-1.25l-.109376.3125h.410157l-1.078125 3.175781h1.316406l.085938-.273437h-.324219l.710937-2.253907h1.378906l-.796874 2.527344h1.269531l.109375-.253906h-.300782l.730469-2.292969h1.316407zm-4.632812-4.371094h-.777344l-.195312-.195313.261718-.707031.257813-.214843h.710937l.171876.175781-.214844.726562zm-.753906-.019531h.730468l.195313-.195313.214844-.707031-.152344-.15625h-.6875l-.238281.199219-.238282.664062zm0 0"/></svg>