<svg height="18" viewBox="0 0 18 18" width="18" xmlns="http://www.w3.org/2000/svg"><path d="m10.210938 11.320312c.027343.027344.082031.070313.125.070313h.746093c.042969 0 .097657-.042969.125-.070313l.199219-.210937c.027344-.027344.039062-.054687.039062-.085937l.210938-.714844c.015625-.070313 0-.140625-.039062-.183594l-.15625-.125c-.027344-.03125-.085938-.015625-.125-.015625h-.675782l-.042968-.042969c-.027344 0-.054688-.011718-.085938.015625l-.265625.167969c-.027344 0-.042969.070312-.054687.097656l-.226563.691406c-.027344.070313-.015625.152344.042969.210938zm.109374 3.710938-.054687.015625h-.167969l1.011719-2.96875c.027344-.097656-.015625-.210937-.113281-.238281l-.054688-.011719h-1.703125c-.070312.011719-.125.070313-.140625.140625l-.097656.351562c-.027344.097657.042969.179688.140625.210938l.042969-.015625h.253906l-1.027344 2.9375c-.027344.101563.011719.226563.113282.269531l.054687.042969h1.574219c.085937 0 .15625-.070313.183594-.15625l.097656-.335937c.042968-.101563-.011719-.210938-.113282-.242188m7.46875-2.769531-.265624-.351563v-.011718c-.042969-.042969-.085938-.085938-.140626-.085938h-1.015624c-.054688 0-.097657.054688-.140626.085938l-.28125.335937h-.433593l-.296875-.335937v-.015626c-.027344-.042968-.082032-.070312-.140625-.070312h-.5625l2.839843-2.839844-3.175781-3.152344 2.839844-2.921874v-1.265626l-.394531-.507812h-5.75l-.464844.492188v.40625l-1.589844-1.601563-1.082031 1.054687-.335937-.351562h-5.683594l-.449219.519531v1.324219l.421875.40625h.421875v3.671875l-1.96875 1.96875 1.96875 1.96875v4.5l.730469.40625h1.632812l1.277344-1.335937 3.039062 3.039062 2.039063-2.039062c.015625.054687.054687.070312.125.097656l.058594-.027344h1.320312c.085938 0 .15625-.015625.167969-.085938l.101562-.28125c.027344-.097656-.015624-.183593-.113281-.210937l-.058593.015625h-.054688l.476562-1.507812.324219-.320313h.703125l-.703125 2.234375c-.027343.097656.027344.15625.128907.195312l.054687-.027343h1.28125c.070313 0 .140625-.011719.167969-.082031l.113281-.253907c.039063-.097656-.015625-.183593-.101563-.226562-.011718-.011719-.039062 0-.070312 0h-.054688l.589844-1.828125h.859375l-.71875 2.238281c-.027343.097656.027344.152344.128907.179687l.054687-.039062h1.40625c.070313 0 .140625-.015625.167969-.085938l.113281-.28125c.042969-.097656-.015625-.183593-.113281-.210937-.011719-.015625-.042969.015625-.070313.015625h-.097656l.789063-2.601562c.027343-.070313.011718-.15625-.015626-.199219m-8.972656-11.574219 1.589844 1.589844v.660156l.476562.578125h.226563l-4.078125 3.9375v-3.9375h.464844l.378906-.589844v-1.253906l-.027344-.039063zm-8.410156 8.328125 1.703125-1.703125v3.402344zm5.472656 5.382813 8.210938-8.4375 3.011718 3.023437-2.84375 2.84375h-.011718c-.042969.011719-.070313.039063-.097656.070313l-.296876.335937h-.40625l-.3125-.335937c-.027343-.042969-.082031-.085938-.140624-.085938h-1.234376c-.085937 0-.15625.054688-.183593.140625l-.113281.351563c-.027344.097656.015624.183593.113281.226562h.210937l-.902344 2.65625-2.121093 2.136719zm0 0" fill="#179a33"/></svg>