<svg height="18" viewBox="0 0 18 18" width="18" xmlns="http://www.w3.org/2000/svg" xmlns:xlink="http://www.w3.org/1999/xlink"><filter id="a" height="100%" width="100%" x="0%" y="0%"><feColorMatrix color-interpolation-filters="sRGB" values="0 0 0 0 1 0 0 0 0 1 0 0 0 0 1 0 0 0 1 0"/></filter><mask id="b"><g filter="url(#a)"><path d="m-1.8-1.8h21.6v21.6h-21.6z" fill-opacity=".1"/></g></mask><clipPath id="c"><path d="m0 0h18v18h-18z"/></clipPath><path d="m18 8.875c0 4.902344-3.972656 8.878906-8.875 8.878906s-8.878906-3.976562-8.878906-8.878906 3.976562-8.875 8.878906-8.875 8.875 3.972656 8.875 8.875" fill="#004e8c"/><path d="m8.601562 5.367188-1.976562 5.546874c-.070312.207032-.125.417969-.152344.632813h-.019531c-.027344-.210937-.074219-.417969-.140625-.617187l-1.945312-5.546876h-.910157l2.535157 6.988282h.914062l2.574219-6.988282zm1.886719.015624v6.988282h2.03125c.589844.023437 1.167969-.175782 1.621094-.554688.425781-.359375.664063-.894531.644531-1.453125.019532-.433593-.132812-.851562-.425781-1.171875-.300781-.308594-.699219-.5-1.128906-.535156v-.019531c.351562-.105469.664062-.324219.886719-.625.21875-.296875.335937-.660157.328124-1.03125.015626-.445313-.183593-.875-.53125-1.15625-.410156-.3125-.921874-.46875-1.4375-.441407zm1.761719.726563c.894531 0 1.339844.339844 1.339844 1.019531.019531.347656-.121094.6875-.386719.914063-.296875.234375-.671875.351562-1.050781.335937h-.832032v-2.257812zm-.929688 3.003906.929688.003907c1.125 0 1.6875.410156 1.6875 1.234374.015625.355469-.128906.699219-.398438.9375-.316406.242188-.710937.363282-1.109374.339844h-1.109376zm0 0" fill="#fff"/><g mask="url(#b)"><g clip-path="url(#c)"><path d="m2.972656 2.496094c-2.460937 2.191406-3.503906 5.5625-2.710937 8.757812.792969 3.199219 3.285156 5.691406 6.484375 6.484375 3.195312.792969 6.566406-.25 8.757812-2.710937zm0 0" fill="#fff"/></g></g></svg>