<svg height="18" viewBox="0 0 18 18" width="18" xmlns="http://www.w3.org/2000/svg"><path d="m9 0c-4.96875 0-9 4.03125-9 9s4.03125 9 9 9 9-4.03125 9-9-4.03125-9-9-9m0 .140625c4.894531 0 8.859375 3.964844 8.859375 8.859375s-3.964844 8.859375-8.859375 8.859375-8.859375-3.964844-8.859375-8.859375 3.964844-8.859375 8.859375-8.859375m-.574219 5.257813-.015625.046874-1.988281 5.582032c-.046875.128906-.066406.265625-.097656.402344-.027344-.128907-.046875-.261719-.085938-.386719h-.003906l-1.96875-5.628907h-1.066406l2.601562 7.171876h1.015625l2.644532-7.171876zm1.878907.015624v7.171876h2.109374c.609376.023437 1.207032-.183594 1.679688-.574219.441406-.375.691406-.933594.671875-1.515625.019531-.453125-.140625-.890625-.445313-1.226563v-.003906c-.273437-.28125-.636718-.445313-1.019531-.511719.304688-.125.578125-.3125.777344-.582031.230469-.3125.351563-.691406.347656-1.078125.011719-.46875-.195312-.921875-.5625-1.21875-.425781-.324219-.953125-.488281-1.488281-.460938zm-1.78125.125.738281.011719-2.542969 6.894531h-.820312l-2.5-6.890624h.769531l1.9375 5.53125c.066406.199218.109375.402343.136719.609374l.007812.0625h.144531l.007813-.0625c.027344-.210937.078125-.417968.152344-.621093zm3.855468.015626c.5-.027344.996094.125 1.398438.429687.332031.269531.519531.679687.507812 1.109375.003906.359375-.105468.707031-.316406.996094-.214844.289062-.515625.5-.859375.601562l-.050781.015625v.136719l.066406.003906c.414062.035156.804688.21875 1.09375.515625.277344.308594.425781.714844.40625 1.128907v.007812c.019531.539062-.210938 1.054688-.621094 1.40625-.445312.367188-1.007812.5625-1.585937.539062h-1.976563v-6.890624zm-.234375.59375-1.003906.007812v2.410156h.902344c.398437.019532.789062-.105468 1.105469-.347656l.003906-.003906c.277344-.242188.429687-.605469.410156-.976563 0-.355469-.121094-.636719-.363281-.820312-.242188-.183594-.597657-.269531-1.054688-.269531zm0 .140624c.441407 0 .761719.082032.96875.238282.207031.160156.308594.386718.308594.714844v.003906c.019531.328125-.113281.648437-.363281.863281-.285156.222656-.644532.335937-1.007813.320313h-.769531v-2.132813zm-1.003906 2.878907v2.671875h1.1875-.003906c.417969.023437.828125-.105469 1.160156-.359375h.003906v-.003907c.285157-.25.441407-.613281.421875-.992187 0-.429687-.152344-.769531-.453125-.988281-.296875-.222656-.738281-.324219-1.3125-.324219zm.140625.140625h.863281c.558594 0 .96875.105468 1.230469.300781.265625.191406.398438.476563.398438.875v.003906c.015624.335938-.121094.660157-.375.882813-.304688.234375-.683594.351562-1.066407.328125h-1.050781zm0 0" fill="#004e8c"/></svg>