<svg height="18" viewBox="0 0 18 18" width="18" xmlns="http://www.w3.org/2000/svg"><path d="m10.171875 10.816406.003906-.007812.578125-3.378906zm4.167969-3.394531-1.871094 3.382813 1.871094-3.382813 2.046875-3.707031zm.0625-6.636719-.597656 1.097656zm-11.273438 5.78125 2.296875-2.464844zm.488282.894532 2.535156-2.015626zm0 0-.167969-.3125.167969.3125 1.804687 3.308593zm.632812-1.175782 1.175781-2.179687 2.144531 3.945312-2.144531-3.945312-1.816406-3.320313 1.816406 3.320313zm5.285156 5.386719.007813.015625.339843.625zm2.398438-6.382813-1.183594 2.136719-1.3125 2.417969 1.3125-2.417969zm0 0" fill="#284e64"/><path d="m7.222656 14.09375 1.707032 3.125.9375-4.828125zm0 0" fill="#f16827"/><path d="m9.882812 12.316406-1.503906-2.765625-1.15625 4.542969 2.644532-1.703125zm0 0" fill="#f48029"/><path d="m5.421875 10.769531 1.800781 3.324219 1.15625-4.542969zm0 0" fill="#f89a2e"/><path d="m5.421875 10.769531 2.957031-1.222656-2.226562-4.101563zm0 0" fill="#f16827"/><path d="m10.171875 10.816406.582031-3.386718-1.765625 3.246093.894531 1.640625zm0 0" fill="#f89921"/><path d="m3.617188 7.460938 1.804687 3.308593.730469-5.320312zm0 0" fill="#f89a2e"/><path d="m12.46875 10.804688 1.871094-3.382813-4.164063 3.386719zm0 0" fill="#f48029"/><path d="m5.425781 4.105469-1.808593 3.355469 2.535156-2.015626zm4.75 6.703125 2.398438-6.683594-1.820313 3.304688zm0 0" fill="#f4ae5c"/><path d="m3.617188 7.460938 1.808593-3.355469-2.296875 2.464843.320313.582032zm0 0" fill="#cd4e27"/><path d="m14.339844 7.421875-1.765625-3.296875-2.398438 6.683594zm-11.210938-.855469 2.296875-2.464844-1.816406-3.320312zm0 0" fill="#f16938"/><path d="m14.339844 7.421875.066406-6.636719-1.832031 3.339844zm-10.730469-6.636719h-3.609375l3.128906 5.78125zm0 0" fill="#f89a2e"/><path d="m14.40625.785156-.066406 6.636719 3.660156-6.636719zm-4.230469 10.023438-.003906.007812-1.242187 6.402344 3.539062-6.414062zm0 0" fill="#cd4e27"/></svg>