<svg height="18" viewBox="0 0 18 18" width="18" xmlns="http://www.w3.org/2000/svg"><path d="m0 .8125 3 5.546875.460938-5.546875zm14.546875 0-.046875 5.054688-.015625 1.320312 3.515625-6.375zm-10.957031.171875-.449219 5.417969 2.152344-2.308594zm10.8125.042969-1.699219 3.101562 1.640625 3.058594.046875-4.871094zm-9.023438 3.230468-1.605468 2.976563.960937-.761719 1.289063-1.023437zm7.257813.046876-2.292969 6.378906 2.082031-1.695313 1.894531-1.539062-.777343-1.453125zm-7.582031.253906-1.914063 2.054687.40625.742188zm7.199218.386718-1.410156 2.554688-.445312 2.613281 1.078124-3zm-6.230468.6875-2.382813 1.890626 1.691406 3.113281.074219-.519531zm.132812.058594-.695312 5.054688 2.628906-1.085938.179687-.074218zm8.015625 2.0625-3.777344 3.074219 2.078125-.003906zm-3.539063.132813-1.5625 2.875.792969 1.457031.253907-1.3125zm-2.367187 1.855469-2.789063 1.152343 1.699219 3.140625.0625-.253906zm.128906.074218-1.082031 4.253906 2.503906-1.613281.003906-.019531zm4 1.152344h-2.144531l-.257812 1.515625-.902344 4.46875zm-2.617187 1.683594-2.429688 1.566406-.054687.03125 1.601562 2.9375zm0 0"/></svg>