<svg height="18" viewBox="0 0 18 18" width="18" xmlns="http://www.w3.org/2000/svg"><path d="m5.507812 11.585938-4.027343-4.023438c-.339844-.332031-.886719-.332031-1.222657.007812-.3398432.335938-.3437495.882813-.007812 1.226563l8.132812 8.128906c.164063.164063.382813.257813.613282.257813h.003906c.234375 0 .453125-.09375.617188-.257813l8.132812-8.128906c.160156-.164063.25-.386719.25-.617187 0-.347657-.214844-.664063-.535156-.800782-.324219-.132812-.699219-.0625-.949219.183594l-4.023437 4.023438c-.015626.015624-.03125.027343-.042969.042968l-3.449219 3.449219-3.449219-3.449219c-.015625-.015625-.027343-.027344-.042969-.042968zm8-5.84375-4.304687 6.21875c-.066406.101562-.179687.160156-.304687.160156-.121094 0-.234376-.058594-.304688-.160156-.042969-.066407-.066406-.144532-.0625-.226563l.171875-3.433594-2.78125-.589843c-.117187-.023438-.21875-.109376-.265625-.222657-.042969-.113281-.03125-.246093.039062-.34375l4.304688-6.222656c.09375-.136719.265625-.195313.421875-.140625.078125.023438.140625.074219.1875.140625s.066406.144531.0625.226563l-.171875 3.433593 2.78125.589844c.058594.011719.113281.039063.160156.078125.144532.121094.175782.335938.066406.488281zm0 0"/></svg>