<svg height="18" viewBox="0 0 18 18" width="18" xmlns="http://www.w3.org/2000/svg" xmlns:xlink="http://www.w3.org/1999/xlink"><linearGradient id="a" gradientUnits="userSpaceOnUse" x1=".2634186" x2="10.3172285" y1="1.5805683" y2="15.2344324"><stop offset="0" stop-color="#41d1ff"/><stop offset="1" stop-color="#bd34fe"/></linearGradient><linearGradient id="b" gradientUnits="userSpaceOnUse" x1="8.545782362" x2="10.36446841121" y1=".5189035358" y2="12.99489198054"><stop offset="0" stop-color="#ffea83"/><stop offset=".083" stop-color="#ffdd35"/><stop offset="1" stop-color="#ffa800"/></linearGradient><path d="m17.546875 2.746094-8.078125 14.445312c-.167969.296875-.597656.296875-.765625 0l-8.238281-14.445312c-.183594-.324219.089844-.714844.457031-.648438l8.089844 1.445313c.050781.007812.101562.007812.152343 0l7.917969-1.445313c.367188-.066406.644531.324219.464844.648438m0 0" fill="url(#a)"/><path d="m12.863281.199219-5.980469 1.171875c-.097656.019531-.167968.101562-.175781.203125l-.367187 6.210937c-.003906.070313.023437.136719.078125.179688.050781.046875.121093.0625.191406.046875l1.664063-.382813c.070312-.019531.148437.003906.203124.054688.050782.054687.074219.128906.058594.203125l-.492187 2.421875c-.015625.074218.007812.152344.066406.203125.058594.054687.136719.070312.210937.050781l1.027344-.3125c.160156-.050781.3125.089844.28125.253906l-.785156 3.804688c-.050781.234375.265625.367187.398438.160156l.085937-.132812 4.871094-9.722657c.082031-.164062-.058594-.347656-.238281-.3125l-1.710938.328125c-.074219.015625-.152344-.011718-.203125-.066406-.050781-.058594-.070313-.136719-.050781-.210938l1.117187-3.875c.023438-.074218.003907-.152343-.046875-.207031-.050781-.058593-.128906-.082031-.203125-.070312m0 0" fill="url(#b)"/></svg>