<?xml version="1.0" encoding="UTF-8"?>
<svg version="1.1" xmlns="http://www.w3.org/2000/svg" width="520" height="518">
<path d="M0 0 C9.13452177 5.16571181 18.16898598 10.46604294 27.125 15.9375 C28.32979411 16.67158577 29.53471253 17.40546754 30.73974609 18.13916016 C33.23711584 19.65988765 35.73395806 21.18147597 38.23046875 22.70361328 C42.56057995 25.34271242 46.89526581 27.97425017 51.23191833 30.60258484 C54.20614403 32.40545615 57.17813447 34.2117697 60.14477539 36.02709961 C65.27228504 39.16096332 70.40927242 42.25739268 75.65234375 45.1953125 C76.49265137 45.67629395 77.33295898 46.15727539 78.19873047 46.65283203 C79.7071409 47.51251069 81.22750325 48.35176531 82.76220703 49.16357422 C88.3432714 52.38305067 89.36867436 55.96316454 91 62 C91.75748823 65.20011926 92.38368209 68.414859 92.98046875 71.6484375 C93.15438644 72.56333954 93.32830414 73.47824158 93.50749207 74.42086792 C93.87987216 76.38506584 94.24934607 78.34981659 94.6161499 80.31506348 C95.19503578 83.41535881 95.78244163 86.51394287 96.37158203 89.61230469 C98.19456404 99.22751094 99.9818651 108.84854942 101.71022034 118.48123169 C102.42374845 122.45766583 103.14443893 126.43279256 103.86465454 130.40802002 C104.36847405 133.21365869 104.85867113 136.02146068 105.34838867 138.82958984 C105.65614519 140.53754187 105.96446298 142.24539289 106.2734375 143.953125 C106.40437302 144.72904999 106.53530853 145.50497498 106.67021179 146.30441284 C107.17441678 149.03502499 107.63155837 151.43531391 109.16333008 153.78295898 C112.00432063 155.66549758 115.02646933 157.09672523 118.11328125 158.51953125 C118.82652054 158.85456665 119.53975983 159.18960205 120.27461243 159.53479004 C122.61772023 160.63358108 124.96502386 161.72307683 127.3125 162.8125 C128.94801809 163.57715329 130.58326932 164.34237762 132.21826172 165.1081543 C136.3608651 167.04669786 140.50688011 168.97782514 144.65374756 170.90722656 C148.15313344 172.53707503 151.64888397 174.17465268 155.14453125 175.8125 C171.06838772 183.2688052 187.02752766 190.64849919 203 198 C203 198.66 203 199.32 203 200 C200.94345999 201.00716581 198.88688938 202.01426904 196.83027649 203.02128601 C194.96892022 203.9327958 193.10766688 204.84451581 191.24650574 205.75642395 C186.01150398 208.32071798 180.77420032 210.88013483 175.53271484 213.43115234 C166.07550798 218.03833162 156.62574848 222.65092102 147.26509094 227.45201111 C143.72576642 229.26612946 140.17614222 231.05952905 136.6255188 232.85140991 C134.96724536 233.69601888 133.31434594 234.55126853 131.66720581 235.41738892 C129.37688345 236.62067157 127.0706936 237.78613748 124.7578125 238.9453125 C124.10032516 239.30341507 123.44283783 239.66151764 122.76542664 240.0304718 C118.96828195 241.88175393 116.49003105 242.1812887 112.56518555 240.93383789 C111.03142113 240.31841134 109.50925322 239.67330368 108 239 C107.28807495 238.70043396 106.5761499 238.40086792 105.84265137 238.09222412 C103.61113903 237.13355242 101.40492863 236.12984275 99.19921875 235.11328125 C97.96544243 234.5516629 97.96544243 234.5516629 96.70674133 233.97869873 C94.94514087 233.1763638 93.18443496 232.37206236 91.42456055 231.56594849 C86.74962713 229.4250429 82.06763399 227.2996613 77.38671875 225.171875 C76.43683075 224.73960098 75.48694275 224.30732697 74.50827026 223.86195374 C65.79351272 219.89848901 57.05899531 215.980355 48.31118774 212.09042358 C46.78817539 211.41304879 45.26552218 210.73486582 43.74325562 210.05581665 C35.8878577 206.55218001 28.02766308 203.09600528 20 200 C22.92084882 198.05276745 25.84782606 196.47930041 28.96875 194.875 C29.85039322 194.42064323 29.85039322 194.42064323 30.74984741 193.95710754 C32.01040077 193.30762779 33.27134929 192.65891453 34.53265381 192.01089478 C37.84927783 190.30669146 41.16283025 188.59653629 44.4765625 186.88671875 C45.13254425 186.54839523 45.788526 186.21007172 46.46438599 185.86149597 C52.35188406 182.82304287 58.21787538 179.74492562 64.07568359 176.6496582 C68.36144825 174.38618281 72.65363664 172.13575878 76.953125 169.8984375 C77.97809082 169.36500732 79.00305664 168.83157715 80.05908203 168.28198242 C82.03868361 167.25245718 84.01879105 166.22390377 85.99951172 165.1965332 C91.13283664 162.52627736 96.20834271 159.78996392 101.21826172 156.89379883 C103 156 103 156 105 156 C101.38718552 152.15473245 97.57363805 149.1629873 93.1484375 146.28125 C92.13464523 145.61031563 92.13464523 145.61031563 91.10037231 144.92582703 C89.63179976 143.9546702 88.16150896 142.98610773 86.68969727 142.01986694 C82.67839002 139.38597897 78.68017016 136.73231822 74.6796875 134.08203125 C73.40632538 133.23962639 73.40632538 133.23962639 72.10723877 132.38020325 C62.49719053 126.0175884 52.93808521 119.57967587 43.38409424 113.13330078 C40.52952152 111.20741717 37.67373356 109.28334535 34.81787109 107.359375 C33.0555738 106.17070672 31.29336249 104.98191097 29.53125 103.79296875 C28.72551544 103.25024826 27.91978088 102.70752777 27.08963013 102.14836121 C26.34397797 101.64460464 25.59832581 101.14084808 24.83007812 100.62182617 C24.18365356 100.18569504 23.537229 99.7495639 22.87121582 99.30021667 C22.2537146 98.87114517 21.63621338 98.44207367 21 98 C20.28384521 97.52834915 19.56769043 97.0566983 18.82983398 96.570755 C15.78370888 93.95591875 15.67037472 90.22329723 15.03125 86.4375 C14.86975464 85.55980957 14.70825928 84.68211914 14.54187012 83.77783203 C14.00979956 80.85481473 13.5036474 77.92804 13 75 C12.63591928 72.93610919 12.27132661 70.87230863 11.90625 68.80859375 C10.55053067 61.08637387 9.23976569 53.35660814 7.92724609 45.62695312 C7.3600521 42.2925693 6.79041782 38.95861966 6.21875 35.625 C6.03513916 34.55419189 5.85152832 33.48338379 5.66235352 32.38012695 C4.30881478 24.57501901 2.81580241 16.80490699 1.1932373 9.05126953 C0.55618462 5.9794449 0 3.14691488 0 0 Z " fill="#E5E792" transform="translate(208,110)"/>
<path d="M0 0 C0.30212373 12.43929783 0.53265062 24.87771374 0.67355824 37.31994247 C0.74121362 43.09857127 0.83285863 48.87467818 0.98071289 54.65185547 C1.12268965 60.23475882 1.19983929 65.8152483 1.23340416 71.39981842 C1.25729927 73.52267703 1.30396662 75.64541342 1.37449074 77.7672348 C1.93129394 95.22479816 1.93129394 95.22479816 -2.78067017 100.88903809 C-5.41585486 103.53652419 -8.25677526 105.76110893 -11.3429203 107.85744476 C-13.92456873 109.63748946 -16.28755707 111.67276383 -18.6875 113.6875 C-19.57824219 114.40292969 -20.46898437 115.11835938 -21.38671875 115.85546875 C-23.99847623 117.99874956 -26.50365302 120.2238033 -29 122.5 C-33.29991791 126.41891252 -37.75919547 130.09170869 -42.28125 133.75 C-44.92147729 135.93501569 -47.4672972 138.19171391 -50 140.5 C-54.29588829 144.41523996 -58.74989923 148.08560263 -63.26953125 151.73828125 C-66.76173563 154.63096556 -70.09783815 157.67417173 -73.41796875 160.76171875 C-75.61259386 162.66416987 -77.8346351 164.4062679 -80.16137695 166.13989258 C-80.88057816 166.67657059 -81.59977936 167.2132486 -82.34077454 167.76618958 C-82.88831894 168.17334702 -83.43586334 168.58050446 -84 169 C-84.02366024 160.70383843 -84.04117782 152.40769201 -84.05181217 144.11150455 C-84.05692808 140.2550693 -84.06380636 136.39865786 -84.07543945 132.54223633 C-84.09904292 124.29504833 -84.08817742 116.04960743 -84.02123451 107.80262184 C-83.99060346 103.21128718 -84.03109758 98.62656364 -84.12155628 94.03607655 C-84.17131658 91.03023626 -84.17607946 88.02533145 -84.1717205 85.01913261 C-84.17950738 83.61037631 -84.20621983 82.20157033 -84.25380135 80.79359627 C-84.45244138 74.68661889 -84.51302608 69.92878063 -80.64285278 64.99514771 C-77.87093441 62.44562186 -75.05238269 60.2019017 -72 58 C-70.37015004 56.69352751 -68.74427112 55.3820614 -67.125 54.0625 C-66.31289062 53.42441406 -65.50078125 52.78632813 -64.6640625 52.12890625 C-61.55650419 49.64559353 -58.52702673 47.08032243 -55.5 44.5 C-50.92601209 40.60474572 -46.2883884 36.81225597 -41.578125 33.08203125 C-38.59032413 30.6691557 -35.66956516 28.18189422 -32.75 25.6875 C-27.63957638 21.32811938 -22.42094934 17.13345371 -17.11938477 13.00927734 C-12.34086983 9.28853991 -7.66398218 5.46004938 -3.01171875 1.58203125 C-1 0 -1 0 0 0 Z " fill="#8B8D0A" transform="translate(226,210)"/>
</svg>
