<svg height="18" viewBox="0 0 18 18" width="18" xmlns="http://www.w3.org/2000/svg"><path d="m11 4.703125c0-.286458-.171875-.541667-.4375-.651042-.260417-.109375-.5625-.046875-.765625.151042l-3.385417 3.385417c-.260416.265625-.619791.411458-.994791.411458h-2.416667c-.552083 0-1 .447917-1 1v6c0 .552083.447917 1 1 1h2.416667c.375 0 .734375.145833.994791.411458l3.385417 3.385417c.203125.203125.505208.260417.765625.151042.265625-.109375.4375-.364584.4375-.651042zm11 4.296875-6 6m0-6 6 6" fill="none" stroke="#fff" stroke-linecap="round" stroke-linejoin="round" stroke-width="2" transform="scale(.75)"/></svg>