<svg height="18" viewBox="0 0 18 18" width="18" xmlns="http://www.w3.org/2000/svg"><path d="m2.621094.015625s-2.300782.117187-2.621094 2.621094v12.566406s.160156 2.519531 2.78125 2.78125h5.113281l.769531-.769531h-5.796874s-1.832032-.234375-2.066407-2.070313v-12.347656s-.074219-1.863281 2.039063-2.039063h4.9375l.683594-.742187zm7.5 0-.773438.769531h5.785156s1.832032.234375 2.066407 2.070313v12.347656s.074219 1.863281-2.039063 2.039063h-4.921875l-.699219.742187h5.839844s2.300782-.117187 2.621094-2.621094v-12.566406s-.160156-2.519531-2.78125-2.78125zm-6.554688 2.082031c-.492187.015625-1.441406.347656-1.441406 1.457032v7.890624c.042969.46875.410156 1.355469 1.382812 1.355469h1.019532v-.683593h-1.03125c-.570313 0-.671875-.597657-.699219-.714844v-7.835938c0-.695312.65625-.757812.769531-.769531l7.675782.027344c.582031 0 .699218.628906.730468.742187v.800782h.695313v-.859376c-.054688-.480468-.421875-1.382812-1.410157-1.382812zm3.117188 3c-.480469.015625-1.398438.335938-1.398438 1.398438v7.890625c.042969.453125.378906 1.296875 1.328125 1.296875h7.644531c.085938 0 .65625-.011719 1.0625-.421875.277344-.261719.40625-.625.40625-1.0625v-7.746094c-.042968-.453125-.390624-1.328125-1.351562-1.328125l-7.675781-.027344zm.015625.582032 7.660156.027343c.640625 0 .773437.671875.785156.800781v7.707032c0 .277344-.070312.492187-.21875.640625-.261719.246093-.652343.246093-.667969.246093h-7.644531c-.613281 0-.730469-.65625-.746093-.773437v-7.832031c0-.742188.730468-.816406.832031-.816406" fill="#0091da"/></svg>