<svg height="18" viewBox="0 0 18 18" width="18" xmlns="http://www.w3.org/2000/svg" xmlns:xlink="http://www.w3.org/1999/xlink"><filter id="a" height="100%" width="100%" x="0%" y="0%"><feColorMatrix color-interpolation-filters="sRGB" values="0 0 0 0 1 0 0 0 0 1 0 0 0 0 1 0 0 0 1 0"/></filter><mask id="b"><g filter="url(#a)"><path d="m-1.8-1.8h21.6v21.6h-21.6z" fill-opacity=".8"/></g></mask><mask id="c"><g filter="url(#a)"><path d="m-1.8-1.8h21.6v21.6h-21.6z" fill-opacity=".6"/></g></mask><mask id="d"><g filter="url(#a)"><path d="m-1.8-1.8h21.6v21.6h-21.6z" fill-opacity=".45"/></g></mask><mask id="e"><g filter="url(#a)"><path d="m-1.8-1.8h21.6v21.6h-21.6z" fill-opacity=".3"/></g></mask><clipPath id="f"><path d="m0 0h18v18h-18z"/></clipPath><clipPath id="g"><path d="m0 0h18v18h-18z"/></clipPath><clipPath id="h"><path d="m0 0h18v18h-18z"/></clipPath><clipPath id="i"><path d="m0 0h18v18h-18z"/></clipPath><g mask="url(#b)"><g clip-path="url(#f)"><path d="m11.25 12.898438-2.25-3.898438-2.25 3.898438 2.25 3.894531zm0 0"/></g></g><g mask="url(#c)"><g clip-path="url(#g)"><path d="m13.5 9-2.25-3.898438-2.25 3.898438 2.25 3.898438zm-4.5 0-2.25-3.898438-2.25 3.898438 2.25 3.898438zm0 0"/></g></g><g mask="url(#d)"><g clip-path="url(#h)"><path d="m15.75 5.101562-2.25-3.894531-2.25 3.894531 2.25 3.898438zm-9 0 2.25 3.898438 2.25-3.898438-1.125-1.945312h-2.25zm0 0-2.25-3.894531-2.25 3.894531 2.25 3.898438zm0 0"/></g></g><g mask="url(#e)"><g clip-path="url(#i)"><path d="m18 1.207031h-4.5l2.25 3.894531zm-13.5 0h-4.5l2.25 3.894531zm0 0"/></g></g></svg>