<svg height="18" viewBox="0 0 18 18" width="18" xmlns="http://www.w3.org/2000/svg"><path d="m2 6c.598958.5 1.197917 1 2.5 1 2.5 0 2.5-2 5-2 2.598958 0 2.401042 2 5 2 2.5 0 2.5-2 5-2 1.302083 0 1.901042.5 2.5 1m-20 6c.598958.5 1.197917 1 2.5 1 2.5 0 2.5-2 5-2 2.598958 0 2.401042 2 5 2 2.5 0 2.5-2 5-2 1.302083 0 1.901042.5 2.5 1m-20 6c.598958.5 1.197917 1 2.5 1 2.5 0 2.5-2 5-2 2.598958 0 2.401042 2 5 2 2.5 0 2.5-2 5-2 1.302083 0 1.901042.5 2.5 1" fill="none" stroke="#fff" stroke-linecap="round" stroke-linejoin="round" stroke-width="2" transform="scale(.75)"/></svg>