<svg height="18" viewBox="0 0 18 18" width="18" xmlns="http://www.w3.org/2000/svg"><path d="m.140625.140625v17.71875h17.71875v-17.71875zm10.113281 5.867187s.558594 4.226563.558594 4.417969l.816406-2.546875h-.007812c.359375-.964844 1.066406-1.871094 2.414062-1.871094l-1.910156 4.605469c-.335938 1.070313-1.335938 1.796875-2.464844 1.800781 0 0-.5625-3.960937-.5625-4.050781l-.839844 2.175781c-.375.964844-1.105468 1.875-2.453124 1.875l-1.054688-6.402343c1.0625.027343 1.9375.839843 2.039062 1.890625 0 0 .136719 2.347656.136719 2.53125l.996094-2.554688c.355469-.964844 1.042969-1.871094 2.332031-1.871094" fill="#4353ff"/></svg>