<svg height="18" viewBox="0 0 18 18" width="18" xmlns="http://www.w3.org/2000/svg"><g fill="#2eccaa"><path d="m6.160156 12.980469c-.058594-.015625-.097656-.027344-.15625-.027344-.042968 0-.070312-.015625-.113281-.015625-.054687-.015625-.109375-.027344-.179687-.042969-.03125-.011719-.058594-.011719-.070313-.011719-.058594-.015624-.101563-.042968-.15625-.058593-.027344-.011719-.054687-.027344-.085937-.027344l-.082032-.042969c-.058594-.027344-.097656-.042968-.15625-.070312-.855468-.476563-1.476562-1.335938-1.871094-2.261719-.84375-1.914063-.855468-4.234375-.027343-6.203125-.816407-.421875-.816407-1.265625-.816407-1.265625s-.757812.546875-1.617187.195313c-1.136719 2.671874-1.109375 5.835937.085937 8.46875.703126 1.546874 1.84375 2.894531 3.347657 3.585937.125.054687.265625.109375.394531.167969.027344.011718.070312.027344.097656.042968.027344.011719.054688.011719.082032.027344.058593.011719.113281.042969.171874.054688.027344.015625.054688.015625.082032.027344l.167968.042968c.15625.042969.3125.070313.480469.085938.011719 0 .027344 0 .054688.011718.070312.015626.140625.015626.210937.015626h.058594c.054688 0 .109375 0 .167969.015624h.363281c.042969 0 .085938 0 .128906-.015624.042969 0 .082032 0 .125-.015626.058594 0 .113282-.011718.167969-.011718.03125 0 .058594 0 .085937-.015625.054688-.011719.113282-.011719.183594-.027344.027344 0 .054688-.015625.082032-.015625.058593-.011719.101562-.011719.15625-.027344.042968-.011718.070312-.011718.113281-.027344l.167969-.042968c.027343-.011719.054687-.011719.097656-.027344.058594-.015625.113281-.042969.167968-.054688.03125-.015624.058594-.015624.085938-.03125.054688-.011718.097656-.039062.140625-.054687.027344-.015625.070313-.027344.097656-.042969-.855469-.5625-1.628906-1.363281-2.234375-2.304687"/><path d="m17.171875 3.136719c-.859375.335937-1.617187-.199219-1.617187-.199219s0 .84375-.816407 1.265625c.828125 1.957031.816407 4.289063-.027343 6.203125-.410157.914062-1.027344 1.773438-1.871094 2.265625-.691406.390625-1.535156.460937-2.292969.140625-1.011719-.4375-1.714844-1.394531-2.164063-2.449219-.394531-.925781-.59375-1.953125-.605468-2.964843v-.113282c0-.394531.054687-.800781.195312-1.167968.15625-.4375.410156-.859376.800782-1.027344.070312-.027344.140624-.042969.226562-.042969.070312 0 .15625.015625.226562.042969.390626.167968.644532.605468.800782 1.027344.140625.378906.195312.773437.195312 1.167968v.113282c-.011718.730468-.113281 1.460937-.324218 2.164062-.027344.097656-.054688.183594-.082032.28125l-.042968.125c-.042969.128906-.097657.269531-.15625.394531-.039063.113281-.097657.210938-.140626.308594v.015625c-.054687.097656-.097656.195312-.152343.296875.394531.617187.886719 1.082031 1.449219 1.320313.25.113281.503906.15625.773437.167968.070313-.113281.140625-.238281.195313-.351562.015624-.027344.042968-.070313.054687-.097656.042969-.097657.101563-.183594.140625-.28125.015625-.027344.03125-.070313.042969-.097657l.167969-.378906c.015624-.015625.015624-.042969.03125-.058594l.125-.335937c0-.015625.015624-.027344.015624-.058594v-.011719c.390626-1.113281.574219-2.320312.574219-3.503906h-.011719v-.054687c-.015624-1.714844-.71875-3.460938-2.125-4.34375-.519531-.324219-1.125-.523438-1.730468-.523438h-.054688c-.605468 0-1.210937.199219-1.730468.523438-1.40625.898437-2.109376 2.628906-2.125 4.34375v.054687h-.011719c0 1.898437.476562 3.839844 1.503906 5.414063.703125 1.097656 1.671875 2.039062 2.882813 2.5625 1.335937.574218 2.898437.5625 4.234374-.058594 1.488282-.6875 2.640626-2.050782 3.34375-3.585938 1.210938-2.671875 1.238282-5.820312.101563-8.492187"/></g></svg>