<svg height="18" viewBox="0 0 18 18" width="18" xmlns="http://www.w3.org/2000/svg"><path d="m16.492188 13.796875-7.175782 4.0625v-3.164063l4.464844-2.460937zm.492187-.445313v-8.492187l-2.625 1.519531v5.457032l2.625 1.511718zm-15.476563.445313 7.171876 4.058594v-3.160157l-4.46875-2.460937zm-.492187-.445313v-8.492187l2.625 1.519531v5.457032zm.304687-9.042968 7.363282-4.167969v3.058594l-4.714844 2.597656-.039062.019531zm15.355469 0-7.359375-4.167969v3.058594l4.714844 2.59375.039062.023437 2.609376-1.507812zm-7.992187 9.664062-4.414063-2.425781v-4.808594l4.414063 2.542969zm.632812 0 4.414063-2.425781v-4.808594l-4.414063 2.542969zm-4.746094-7.785156 4.429688-2.4375 4.429688 2.4375-4.429688 2.554688zm0 0" fill="#1c78c0"/></svg>