<svg height="18" viewBox="0 0 18 18" width="18" xmlns="http://www.w3.org/2000/svg" xmlns:xlink="http://www.w3.org/1999/xlink"><linearGradient id="a"><stop offset=".28" stop-color="#07c3f2"/><stop offset=".94" stop-color="#087cfa"/></linearGradient><linearGradient id="b" gradientTransform="matrix(.171429 .00031117 -.00031117 .171429 0 0)" gradientUnits="userSpaceOnUse" x1="38.880001" x2="63.720001" xlink:href="#a" y1="6.5" y2="95.940002"/><linearGradient id="c" gradientTransform="matrix(.171429 .00031117 -.00031117 .171429 0 0)" gradientUnits="userSpaceOnUse" x1="46.630001" x2="88.660004" y1="17.85" y2="79.480003"><stop offset=".14" stop-color="#fcf84a"/><stop offset=".37" stop-color="#07c3f2"/></linearGradient><linearGradient id="d" gradientTransform="matrix(.171429 .00031117 -.00031117 .171429 0 0)" gradientUnits="userSpaceOnUse" x1="88.269997" x2="93.790001" xlink:href="#a" y1="25.469999" y2="45.02"/><path d="m2.988281 15.644531-2.21875-13.148437 4.105469-1.703125 2.617188 1.558593 2.402343-1.296874 5 1.921874-2.804687 14.253907zm0 0" fill="url(#b)"/><path d="m17.230469 6.34375-2.125-5.246094-3.855469-.328125-5.949219 5.71875 1.601563 7.363281 2.992187 2.097657 7.335938-4.351563-1.800781-3.375zm0 0" fill="url(#c)"/><path d="m13.933594 5.5625 1.496094 2.660156 1.800781-1.878906-1.324219-3.265625zm0 0" fill="url(#d)"/><path d="m3.855469 3.855469h10.289062v10.289062h-10.289062zm0 0"/><path d="m5.140625 12.199219h3.855469v.644531h-3.855469zm3.648437-7.0625-.574218 2.25-.65625-2.25h-.652344l-.65625 2.25-.574219-2.25h-.898437l1.101562 3.859375h.722656l.628907-2.234375.625 2.234375h.734375l1.097656-3.859375zm1.0625 3.308593.5-.601562c.316407.292969.726563.460938 1.15625.46875.34375 0 .558594-.136719.558594-.363281v-.011719c0-.214844-.132812-.324219-.78125-.492188-.777344-.195312-1.28125-.414062-1.28125-1.179687v-.015625c0-.699219.5625-1.164062 1.355469-1.164062.519531-.007813 1.03125.164062 1.4375.492187l-.445313.640625c-.289062-.226562-.636718-.359375-1.003906-.378906-.328125 0-.5.148437-.5.339844v.015624c0 .253907.171875.339844.835938.511719.785156.207031 1.230468.488281 1.230468 1.164063v.007812c0 .769532-.589843 1.203125-1.421874 1.203125-.605469 0-1.191407-.21875-1.640626-.621093" fill="#fff"/></svg>