<svg height="18" viewBox="0 0 18 18" width="18" xmlns="http://www.w3.org/2000/svg"><path d="m8 22h8m-9-12h3m7 0h-1.34375m-3.65625 5v7m-4.692708-14.692708c-.203125.885416-.302084 1.786458-.307292 2.692708 0 1.765625.927083 3.395833 2.447917 4.296875 1.515625.901042 3.395833.9375 4.942708.09375m-5.755208-11.411458c.114583-.3125.234375-.640625.364583-.979167h6c1.5 4 2 6 2 8 0 .40625-.046875.807292-.145833 1.197917m-14.854167-9.197917 20 20" fill="none" stroke="#fff" stroke-linecap="round" stroke-linejoin="round" stroke-width="2" transform="scale(.75)"/></svg>