<svg xmlns="http://www.w3.org/2000/svg" width="128" height="128" version="1.1"> <path d="m 12.046872,15.203125 c -2.6064865,0 -4.6874995,2.081017 -4.6874995,4.6875 l 0,56.84375 c 0,2.606477 2.081013,4.71875 4.6874995,4.71875 l 30.15625,0 0,-4.71875 -29.96875,0 0,-46.3125 65.125001,0 0,12.59375 4.90625,0 0,-23.125 c 0,-2.606483 -2.112271,-4.6875 -4.71875,-4.6875 l -65.500001,0 z m 38.40625,31.375 c -2.606487,0 -4.6875,2.081017 -4.6875,4.6875 l 0,56.812505 c 0,2.60647 2.081013,4.71875 4.6875,4.71875 l 65.500008,0 c 2.60648,0 4.6875,-2.11228 4.6875,-4.71875 l 0,-56.812505 c 0,-2.606483 -2.08102,-4.6875 -4.6875,-4.6875 l -65.500008,0 z m 0.1875,15.1875 65.125008,0 0,46.312505 -65.125008,0 0,-46.312505 z"/> </svg>
