<svg height="18" viewBox="0 0 18 18" width="18" xmlns="http://www.w3.org/2000/svg"><path d="m16.355469 12.53125h-14.710938c-.914062 0-1.644531-.734375-1.644531-1.648438v-5.625c0-.898437.730469-1.628906 1.644531-1.628906h14.722657c.902343 0 1.648437.730469 1.648437 1.644532v5.625c-.015625.898437-.746094 1.632812-1.660156 1.632812" fill="#7f54b3"/><path d="m1.941406 10.785156s.394532 1.660156 1.195313.550782c.800781-1.113282 1.574219-2.855469 1.574219-2.855469s.054687-.4375.28125.519531c.226562.957031 1.195312 2.25 1.195312 2.25s.886719 1.109375 1.25-.054688c-.140625-1.546874.394531-4.359374.945312-5.710937.222657-1.195313-1.027343-.859375-1.140624-.578125-.113282.28125-.886719 2.082031-.941407 3.96875 0 0-.660156-1.800781-.71875-2.449219-.054687-.660156-.746093-.828125-1.136719-.195312-.394531.632812-1.589843 3.078125-1.589843 3.078125l-.773438-3.992188s-.773437-1.027344-1.222656.222656c0 0 .800781 4.910157 1.082031 5.246094m10.292969-4.359375c-1.195313-1.996093-2.96875-.476562-2.96875-.476562s-1.347656 1.558593-.742187 3.683593c.96875 2.09375 2.332031 1.167969 2.699218 1 .378906-.183593 1.980469-2.011718 1.011719-4.207031m-.914063 1.757813c0 .832031-.6875 1.605468-1.25 1.433594-.3125-.179688-.507812-.671876-.507812-1.515626.28125-1.367187.898438-1.546874 1.222656-1.519531.605469.324219.578125 1.039063.535156 1.601563m5.398438-1.757813c-1.195312-1.996093-2.964844-.476562-2.964844-.476562s-1.351562 1.558593-.746094 3.683593c.96875 2.09375 2.335938 1.167969 2.699219 1 .367188-.183593 1.984375-2.011718 1.011719-4.207031m-.914062 1.757813c0 .832031-.6875 1.605468-1.25 1.433594-.308594-.179688-.507813-.671876-.507813-1.515626.28125-1.367187.902344-1.546874 1.226563-1.519531.589843.324219.5625 1.039063.53125 1.601563" fill="#fff"/><path d="m8.621094 12.53125 3.136718 1.839844-.664062-1.839844-1.796875-.507812zm0 0" fill="#7f54b3"/></svg>