<svg height="18" viewBox="0 0 18 18" width="18" xmlns="http://www.w3.org/2000/svg"><g fill="#7e53a4"><path d="m15.273438 6.59375c-.324219-.027344-.945313.140625-1.226563 1.519531 0 .832031.199219 1.335938.507813 1.519531.578124.167969 1.25-.605468 1.25-1.433593.03125-.578125.058593-1.292969-.53125-1.605469"/><path d="m16.355469 3.628906h-14.710938c-.914062 0-1.644531.730469-1.644531 1.628906v5.625c0 .902344.730469 1.648438 1.644531 1.648438h14.722657c.902343 0 1.648437-.734375 1.648437-1.648438v-5.625c-.015625-.898437-.746094-1.628906-1.660156-1.628906m-10.167969 7.621094s-.96875-1.28125-1.195312-2.25c-.226563-.957031-.28125-.519531-.28125-.519531s-.773438 1.742187-1.574219 2.855469c-.800781 1.109374-1.195313-.550782-1.195313-.550782-.28125-.335937-1.082031-5.246094-1.082031-5.246094.449219-1.25 1.222656-.222656 1.222656-.222656l.773438 3.992188s1.195312-2.445313 1.601562-3.078125c.394531-.632813 1.082031-.449219 1.140625.195312.054688.660157.714844 2.449219.714844 2.449219.058594-1.886719.832031-3.6875.945312-3.96875.109376-.28125 1.363282-.632812 1.136719.578125-.546875 1.335937-1.082031 4.164063-.941406 5.710937-.378906 1.164063-1.265625.054688-1.265625.054688m5.046875-.632812c-.363281.167968-1.726563 1.109374-2.699219-1-.605468-2.121094.746094-3.683594.746094-3.683594s1.757812-1.503906 2.953125.492187c.96875 2.195313-.632813 4.023438-1 4.191407m4.472656 0c-.363281.167968-1.730469 1.109374-2.699219-1-.605468-2.121094.746094-3.683594.746094-3.683594s1.769532-1.519532 2.964844.480468c.972656 2.207032-.644531 4.035157-1.011719 4.203126"/><path d="m10.785156 6.59375c-.324218-.027344-.941406.140625-1.222656 1.519531 0 .832031.195312 1.335938.507812 1.519531.574219.167969 1.25-.605468 1.25-1.433593.042969-.578125.070313-1.292969-.535156-1.605469m-2.164062 5.9375 3.136718 1.839844-.664062-1.839844-1.796875-.507812zm0 0"/></g></svg>