<svg height="18" viewBox="0 0 18 18" width="18" xmlns="http://www.w3.org/2000/svg"><path d="m3.277344.222656c-1.808594 0-3.277344 1.464844-3.277344 3.277344v11c0 1.8125 1.464844 3.277344 3.277344 3.277344h11.445312c1.808594 0 3.277344-1.464844 3.277344-3.277344v-11c0-1.8125-1.464844-3.277344-3.277344-3.277344zm0 .277344h11.445312c1.660156 0 3 1.335938 3 3v11c0 1.664062-1.339844 3-3 3h-11.445312c-1.660156 0-3-1.335938-3-3v-11c0-1.660156 1.339844-3 3-3m10.390625 3.511719c-.054688 0-.121094.019531-.160157.066406-.042968.050781-.054687.105469-.054687.152344v2.183593c-.019531 0-.054687 0-.074219-.003906-.074218-.007812-.132812-.007812-.167968-.007812-.75 0-1.394532.144531-1.9375.445312-.507813.28125-.933594.695313-1.226563 1.195313-.285156.496093-.433594 1.058593-.425781 1.628906 0 .691406.136718 1.277344.425781 1.753906v.003907c.28125.457031.683594.828124 1.175781 1.054687.515625.238281 1.082032.355469 1.648438.347656.390625 0 .777344-.039062 1.160156-.105469.421875-.074218.835938-.199218 1.234375-.363281.097656-.042969.15625-.15625.15625-.246093v-.007813c-.007813-.125-.015625-.273437-.027344-.433594-.007812-.160156-.015625-.304687-.015625-.429687v-7.0625l-.003906-.015625c-.027344-.105469-.128906-.175781-.234375-.15625h.027344zm.0625.273437h1.371093v6.960938c0 .136718.007813.285156.015626.449218v.007813c.015624.144531.019531.285156.027343.40625-.375.15625-.761719.273437-1.160156.34375-.371094.066406-.738281.101563-1.113281.101563h-.003906c-.527344.007812-1.050782-.101563-1.527344-.320313-.4375-.203125-.800782-.539063-1.054688-.949219-.257812-.425781-.386718-.960937-.386718-1.613281-.007813-.523437.128906-1.039063.386718-1.488281.269532-.457032.65625-.839844 1.121094-1.09375.496094-.273438 1.089844-.410156 1.804688-.410156.035156 0 .078124 0 .136718.007812.078125.007812.152344.007812.234375.011719l.148438.015625zm-10.875.367188c-.046875 0-.121094.015625-.171875.078125-.042969.046875-.050782.109375-.042969.148437.007813.042969.023437.070313.046875.097656l-.011719-.011718 2.195313 3.714844-2.25 3.691406c-.03125.050781-.042969.113281-.03125.179687.003906.023438 0 .042969.023437.074219.023438.039062.082031.066406.109375.066406.058594.007813.058594 0 .050782 0h1.625c.046874 0 .097656 0 .15625-.023437.058593-.023438.117187-.082031.144531-.144531l-.007813.015624c.167969-.304687.339844-.625.507813-.933593h.003906c.164063-.316407.332031-.632813.5-.945313.128906-.246094.257813-.492187.382813-.738281.136718.25.277343.5.414062.75.179688.316406.347656.625.5.925781.15625.308594.320312.613282.472656.921875l.003906.007813.007813.007812c.042969.0625.105469.105469.175781.121094.066406.019531.125.019531.1875.019531h1.714844.023438c.015624 0 .042968.003907.085937-.015625.042969-.019531.074219-.070312.082031-.105468.019532-.070313 0-.136719-.023437-.183594l-.003907-.003906-2.320312-3.808594 2.171875-3.585938-.023437.027344c.023437-.023438.035156-.042969.046874-.070312.007813-.011719.011719-.027344.015626-.050782.003906-.019531-.007813-.058594-.03125-.097656-.039063-.082031-.125-.136719-.214844-.117188l.027344-.003906h-1.558594l.027344.003906c-.066407-.015624-.136719 0-.183594.023438l-.007813.003906-.007812.007813c-.070313.042969-.089844.101562-.101563.152343l.011719-.03125c-.164063.304688-.324219.621094-.492187.929688-.171876.3125-.34375.621094-.503907.933594-.125.242187-.25.484375-.367187.730468-.125-.242187-.246094-.480468-.378906-.71875l-.003907-.003906c-.183593-.308594-.351562-.617187-.527343-.933594-.171876-.316406-.332032-.628906-.46875-.941406l-.007813-.015625-.007813-.011719c-.027343-.039062-.066406-.082031-.121093-.105468l-.015625-.007813-.015625-.003906c-.042969-.011719-.089844-.019531-.136719-.019531zm.121093.277344h1.554688c.015625 0 .03125.003906.050781.007812 0 0 .007813.003906.011719.011719.140625.316406.300781.628906.464844.941406h.003906c.175781.316406.34375.628906.53125.941406.171875.304688.335938.613281.492188.929688l.035156.078125h.191406l.035156-.078125c.152344-.320313.3125-.636719.480469-.949219.164063-.3125.328125-.621094.5-.929688.171875-.3125.332031-.628906.496094-.929687l.007812-.015625h1.441407l-2.191407 3.621094 2.339844 3.839844h-1.574219c-.054687 0-.097656-.003907-.113281-.007813-.019531-.003906-.015625-.003906-.023437-.011719-.152344-.308594-.3125-.605468-.460938-.90625l-.003906-.003906c-.15625-.304688-.324219-.617188-.503906-.933594-.175782-.316406-.355469-.632812-.53125-.957031l-.039063-.074219h-.183594l-.035156.078125c-.15625.3125-.324219.628907-.496094.949219-.167969.316406-.339843.632812-.5.945312-.171875.308594-.339843.625-.507812.925782l-.003907.007812c-.003906 0-.015624.003906-.046874.003906h-1.476563l2.273437-3.730468zm10.171876 2.847656c-.304688 0-.613282.0625-.894532.207031-.273437.136719-.507812.339844-.679687.589844-.183594.265625-.269531.613281-.269531 1.015625-.003907.273437.039062.550781.136718.808594.078125.214843.203125.414062.363282.574218v.003906h.003906c.15625.148438.347656.261719.554687.328126.214844.070312.433594.101562.652344.101562.117187 0 .226563-.007812.324219-.015625h-.023438c.117188.007813.222656-.011719.320313-.042969l.09375-.03125v-3.460937l-.105469-.023438c-.066406-.015625-.140625-.03125-.214844-.039062h-.003906c-.082031-.007813-.167969-.015625-.257812-.015625m0 .277344c.074218 0 .148437.003906.230468.011718.023438.003906.050782.011719.074219.015625v3.015625c-.035156.007813-.074219.019532-.113281.015625h-.023438c-.09375.007813-.195312.015625-.300781.015625-.191406 0-.382813-.027344-.566406-.089844h-.003907c-.167968-.050781-.320312-.140624-.445312-.261718-.132812-.136719-.234375-.296875-.300781-.472656-.082031-.226563-.121094-.46875-.117188-.710938v-.003906c0-.363282.078125-.652344.21875-.859375.148438-.210938.34375-.382813.578125-.5.234375-.121094.503906-.175781.769532-.175781zm0 0" fill="#470137"/></svg>