<svg height="18" viewBox="0 0 18 18" width="18" xmlns="http://www.w3.org/2000/svg"><path d="m3.1875.226562h11.625c1.761719 0 3.1875 1.421876 3.1875 3.1875v11.171876c0 1.765624-1.425781 3.1875-3.1875 3.1875h-11.625c-1.761719 0-3.1875-1.421876-3.1875-3.1875v-11.171876c0-1.765624 1.425781-3.1875 3.1875-3.1875" fill="#470137"/><path d="m9.464844 4.835938-2.25 3.714843 2.398437 3.9375c.015625.027344.023438.058594.015625.089844-.007812.03125-.035156.007813-.082031.015625h-1.71875c-.117187 0-.199219-.007812-.253906-.082031-.15625-.316407-.320313-.625-.480469-.9375-.15625-.308594-.328125-.625-.507812-.945313-.179688-.324218-.359376-.644531-.539063-.976562h-.015625c-.160156.324218-.332031.644531-.503906.96875-.171875.316406-.339844.636718-.511719.957031-.171875.316406-.34375.640625-.515625.945313-.03125.078124-.089844.085937-.171875.085937h-1.652344c-.027343 0-.050781.011719-.050781-.023437-.007812-.03125 0-.058594.015625-.082032l2.332031-3.828125-2.273437-3.847656c-.023438-.027344-.027344-.058594-.015625-.074219.015625-.019531.046875-.027344.078125-.027344h1.699219c.039062 0 .078124.007813.105468.011719.03125.015625.054688.039063.074219.070313.144531.320312.308594.644531.480469.964844.179687.324218.355468.640624.542968.953124.179688.316407.34375.632813.5.953126h.015626c.15625-.328126.324218-.652344.488281-.96875.164062-.3125.335937-.628907.507812-.945313.175781-.3125.339844-.636719.503907-.941406.007812-.03125.023437-.0625.046874-.078125.027344-.011719.058594-.019532.097657-.011719h1.582031c.015625-.007813.035156-.003906.050781.007813.015625.007812.027344.023437.03125.042968.007813.007813-.007812.039063-.023437.050782m3.464844 7.914062c-.554688.007812-1.109376-.105469-1.613282-.335938-.472656-.21875-.863281-.578124-1.132812-1.023437-.277344-.457031-.410156-1.027344-.410156-1.707031-.007813-.554688.132812-1.105469.410156-1.582032.285156-.488281.699218-.894531 1.195312-1.164062.523438-.292969 1.152344-.433594 1.894532-.433594.039062 0 .089843 0 .160156.007813.066406.003906.140625.003906.230468.011719v-2.367188c0-.054688.023438-.082031.074219-.082031h1.523438c.039062-.007813.066406.019531.074219.050781v7.15625c0 .132812.007812.285156.015624.449219.015626.15625.023438.308593.03125.433593 0 .054688-.023437.097657-.074218.121094-.394532.164063-.804688.285156-1.222656.359375-.382813.066407-.765626.105469-1.15625.105469m.734374-1.5v-3.300781c-.066406-.015625-.132812-.027344-.203124-.035157-.082032-.011718-.164063-.015624-.246094-.015624-.292969 0-.585938.058593-.847656.195312-.257813.125-.476563.316406-.636719.554688-.164063.238281-.246094.5625-.246094.953124-.007813.261719.035156.523438.125.769532.074219.203125.1875.382812.339844.535156.144531.136719.316406.238281.507812.296875.203125.070313.414063.097656.621094.097656.113281 0 .21875-.003906.316406-.011719.097657.007813.179688-.007812.269531-.039062" fill="#ff61f6"/></svg>