<svg height="18" viewBox="0 0 18 18" width="18" xmlns="http://www.w3.org/2000/svg"><path d="m.0703125.792969 3.0585935 4.800781v3.042969h1.964844v-3.042969l3.203125-4.800781h-2.113281l-1.960938 3.089843-1.945312-3.089843zm8.9999995.015625-3.328124 7.847656h1.574218l.722656-1.746094h3.550782l.597656 1.746094h1.683594l-3.191406-7.847656zm.839844 1.65625 1.089844 2.878906h-2.304688zm2.28125 7.050781v7.65625h5.738282v-1.636719h-4.058594v-6.019531zm-9.0625.003906v7.6875h1.652344v-5.304687l1.726562 3.566406h1.296876l1.785156-3.691406v5.429687h1.582031v-7.6875h-2.160156l-1.917969 3.476563-1.824219-3.476563zm0 0"/></svg>