<svg height="18" viewBox="0 0 18 18" width="18" xmlns="http://www.w3.org/2000/svg"><path d="m3.128906 5.59375-3.0585935-4.800781h2.2070315l1.945312 3.089843 1.960938-3.089843h2.113281l-3.203125 4.800781v3.042969h-1.964844zm0 0"/><path d="m11.589844 6.910156h-3.550782l-.722656 1.746094h-1.574218l3.328124-7.847656h1.609376l3.191406 7.847656h-1.683594zm-.589844-1.566406-1.089844-2.878906-1.214844 2.878906zm0 0" fill="#cb171e"/><path d="m3.128906 9.519531v7.6875h1.652344v-5.304687l1.726562 3.566406h1.296876l1.785156-3.691406v5.429687h1.585937v-7.6875h-2.164062l-1.917969 3.476563-1.824219-3.476563zm14.800782 6.019531h-4.058594v-6.023437h-1.679688v7.65625h5.738282zm0 0"/></svg>