<svg height="18" viewBox="0 0 18 18" width="18" xmlns="http://www.w3.org/2000/svg"><path d="m9 0c-3.640625 0-6.921875 2.191406-8.316406 5.554688-1.390625 3.363281-.621094 7.234374 1.953125 9.808593s6.445312 3.34375 9.808593 1.953125c3.363282-1.394531 5.554688-4.675781 5.554688-8.316406 0-4.96875-4.03125-9-9-9m0 .140625c4.894531 0 8.859375 3.964844 8.859375 8.859375 0 3.582031-2.15625 6.816406-5.46875 8.1875s-7.121094.613281-9.65625-1.921875c-2.535156-2.535156-3.292969-6.34375-1.921875-9.65625s4.605469-5.46875 8.1875-5.46875m.660156 2.921875c-.121094-.011719-.242187 0-.355468.042969-.3125.109375-.566407.402343-.800782.902343-.03125.054688-.054687.117188-.078125.175782-.65625.054687-1.265625.347656-1.710937.832031l.003906-.007813c-.097656.082032-.210938.144532-.335938.179688h-.003906c-.164062.058594-.289062.160156-.390625.300781-.097656.140625-.175781.320313-.261719.546875-.238281.632813-.007812 1.246094.226563 1.65625-.402344.359375-.734375.789063-.960937 1.277344v.003906h-.003907c-.214843.535156-.316406 1.109375-.296875 1.6875-.25.261719-.613281.734375-.65625 1.289063-.054687.519531.0625 1.042969.332032 1.492187h.003906c.027344.046875.066406.089844.101562.132813-.011718.09375-.015625.191406 0 .285156.054688.265625.226563.492187.46875.609375.46875.246094 1.097656.347656 1.609375.113281.195313.191407.527344.359375 1.085938.359375h.035156c.046875 0 .1875-.003906.390625-.015625.207031-.011719.476562-.03125.753906-.050781.558594-.042969 1.160156-.097656 1.449219-.167969.199219-.046875.382813-.132812.539063-.261719.792968-.25 1.546874-.597656 2.25-1.039062.644531-.417969.855468-.503906 1.332031-.617188.496093-.113281.824219-.585937.757812-1.089843-.074219-.53125-.542969-.917969-1.078125-.882813-.816406.011719-1.492187.433594-1.933594.703125-.113281.074219-.230468.132813-.347656.195313.019532-.480469-.042968-.957032-.203125-1.40625-.171875-.5-.453125-.957032-.8125-1.339844.402344-.570312.6875-1.214844.824219-1.898438.160156-.800781.117188-2.019531-.253906-2.726562v-.003906c-.078125-.152344-.21875-.265625-.386719-.3125-.128906-.035156-.265625-.03125-.394531.003906-.15625-.316406-.269532-.527344-.355469-.644531-.089844-.121094-.15625-.167969-.203125-.199219-.101562-.070312-.21875-.109375-.339844-.125zm-.015625.140625c.101563.007813.195313.042969.277344.097656.046875.03125.085937.058594.167969.167969.082031.113281.199218.3125.371094.671875l.027343.054687.058594-.019531c.117187-.042969.246094-.046875.367187-.015625h.003907c.128906.035156.238281.125.300781.246094.339844.65625.390625 1.871094.238281 2.636719-.136719.679687-.417969 1.328125-.828125 1.890625l-.035156.046875.042969.039062c.363281.382813.640625.835938.8125 1.335938.167969.46875.238281.972656.199219 1.46875l-.007813.121093.109375-.050781c.15625-.078125.308594-.160156.457031-.253906.4375-.273437 1.09375-.675781 1.863281-.683594h.003907c.460937-.03125.871093.300781.933593.761719.058594.433594-.222656.835938-.652343.933594-.484375.117187-.726563.214844-1.375.636718-.695313.4375-1.441407.78125-2.226563 1.027344l-.011718.003906-.011719.007813c-.144531.117187-.3125.199219-.492188.242187h-.003906c-.257813.0625-.871094.125-1.429687.164063-.25.019531-.5.035156-.75.050781-.125.007813-.253907.011719-.382813.019532h-.035156c-.5625 0-.867188-.175782-1.027344-.347657l-.035156-.035156-.046875.023437c-.460938.230469-1.074219.136719-1.519532-.101562h-.003906c-.203125-.097656-.347656-.289062-.394531-.511719-.015625-.089843-.015625-.179687 0-.269531l.007813-.035156-.023438-.027344c-.039062-.039062-.074219-.085938-.105469-.132812-.253906-.421876-.363281-.914063-.316406-1.40625.039063-.507813.402344-.980469.636719-1.230469l.019531-.019531v-.03125c-.019531-.5625.078125-1.128907.289063-1.652344.230468-.488282.558593-.917969.964843-1.269532l.046875-.039062-.03125-.050781c-.234375-.390625-.464844-.984375-.238281-1.585938.082031-.222656.15625-.390625.246094-.511719.085937-.125.183593-.199218.320312-.25h-.003906c.144531-.039062.273437-.109374.386719-.203124l.007812-.007813c.429688-.46875 1.027344-.753906 1.660156-.792969l.042969-.003906.019531-.039062c.027344-.070313.054688-.140626.089844-.203126v-.003906c.226563-.480468.460938-.738281.722656-.828125.09375-.035156.195313-.046875.292969-.035156zm-.070312.375c-.128907.003906-.234375.09375-.328125.207031-.09375.113282-.175782.257813-.246094.402344-.132812.261719-.203125.480469-.21875.523438-.636719-.046876-1.257812.195312-1.691406.667968l.003906-.003906c-.148438.144531-.328125.25-.527344.3125-.023437.007812-.089844.027344-.144531.101562-.054687.070313-.121094.195313-.210937.441407-.144532.390625-.019532.800781.136718 1.105469.136719.273437.269532.417968.304688.460937-.085938.0625-.859375.625-1.183594 1.386719-.21875.53125-.300781 1.109375-.253906 1.679687-.019532.019531-.152344.132813-.304688.328125-.167968.210938-.34375.496094-.367187.800782-.035157.40625.054687.816406.265625 1.164062.058594.128906.183594.175781.316406.175781-.039062.050781-.066406.074219-.101562.171875-.03125.078125-.050782.171875-.03125.265625.019531.09375.082031.183594.195312.242188.210938.109375.445312.171875.679688.183593.246093.007813.496093-.046874.675781-.222656.128906-.132812.199219-.328125.253906-.515625.039063-.152343.066406-.273437.097656-.375.019531.027344.039063.054688.066407.082031h.003906c.039062.035157.082031.0625.125.09375-.054688.027344-.105469.046876-.1875.144532-.125.140625-.21875.375-.09375.675781.046875.113281.152344.199219.296875.253906.148437.058594.335937.085938.5625.085938.195312 0 1.960937-.101563 2.476562-.222657.15625-.027343.292969-.105468.398438-.21875.785156-.234374 1.539062-.574218 2.234375-1.007812v-.003906c.679687-.441406.945312-.558594 1.492187-.6875.261719-.0625.390625-.300782.363281-.523438-.03125-.21875-.230468-.421875-.558593-.417968-.648438.007812-1.207031.339843-1.671875.628906-.425782.265625-.742188.386718-.953125.441406-.179688.050781-.234375.042969-.257813.042969 0-.007813 0 0 .003906-.015625 0-.03125.007813-.074219.015626-.128906.019531-.109376.042968-.261719.058593-.445313.03125-.363281.019531-.847656-.171875-1.375-.207031-.574219-.476562-.933594-.6875-1.160156-.105468-.109375-.195312-.191407-.253906-.246094-.015625-.015625-.03125-.03125-.046875-.046875.21875-.359375.761719-.964844.984375-2.066406.132812-.683594.105469-1.785156-.207031-2.390625-.019531-.035157-.0625-.054688-.09375-.058594s-.0625 0-.09375.007813c-.0625.011718-.128907.039062-.195313.070312-.101562.042969-.148437.074219-.191406.097656-.023438-.054687-.101562-.222656-.214844-.457031-.0625-.128906-.128906-.253906-.199218-.378906-.03125-.054688-.058594-.101563-.085938-.140625-.027344-.039063-.046875-.066406-.082031-.089844-.046875-.03125-.101563-.046875-.15625-.046875zm.003906.140625c.027344 0 .054687.007812.074219.019531l.003906.003907c-.003906-.003907.019531.019531.042969.050781.019531.03125.046875.078125.078125.128906.070312.125.132812.246094.195312.375.128906.261719.242188.515625.242188.515625l.03125.070312.066406-.035156s.121094-.070312.246094-.128906c.0625-.027344.128906-.050781.171875-.0625.019531-.003906.027343-.003906.035156-.003906.277344.550781.316406 1.640625.191406 2.285156-.21875 1.085938-.753906 1.65625-.984375 2.046875-.011718.023437-.015625.046875-.011718.074219.007812.015625.015624.03125.027343.046875.019531.023437.042969.046875.074219.074219.058594.058593.144531.132812.246094.242187.199218.214844.457031.554687.65625 1.109375.183594.503906.195312.964844.164062 1.316406-.011718.175782-.039062.324219-.054687.433594-.007813.058594-.015625.101562-.019531.140625-.003907.039063-.011719.070313.015624.113281l.03125.054688.039063.003906s.125.007812.347656-.050781c.222657-.0625.550781-.1875.988281-.460938.460938-.285156 1-.597656 1.601563-.605469.273437-.003906.394531.140626.414063.296876.023437.15625-.058594.324218-.253907.367187-.554687.132813-.851562.261719-1.535156.707031-.6875.433594-1.433594.769532-2.214844 1l-.019531.007813-.011719.015625c-.085937.097656-.203125.164062-.335937.1875h-.003906c-.453126.109375-2.3125.21875-2.449219.21875-.21875 0-.386719-.027344-.511719-.074219-.121094-.046875-.1875-.109375-.21875-.179687-.105469-.253907-.03125-.414063.070312-.53125.0625-.070313.140626-.128907.226563-.171876l.121094-.054687-.113281-.070313c-.066407-.039062-.128907-.082031-.183594-.132812h-.003906c-.023438-.023438-.054688-.070312-.085938-.109375-.015625-.015625-.027344-.035156-.054688-.050781-.019531-.011719-.042968-.019532-.066406-.011719-.027344.007813-.046875.027344-.058594.050781-.046874.121094-.078124.296875-.128906.476563-.050781.179687-.117187.355469-.21875.457031-.140625.136719-.347656.1875-.566406.179688-.222656-.007813-.453125-.078126-.621094-.164063-.082031-.046875-.113281-.09375-.125-.148437-.011718-.058594 0-.125.023438-.191407.050781-.132812.148437-.246093.148437-.246093l-.085937-.109376c-.050782.027344-.109375.03125-.160156.011719-.054688-.019531-.097657-.058593-.121094-.109375l-.003906-.003906v-.003906c-.195313-.324219-.28125-.707032-.246094-1.085938.019531-.257812.175781-.523437.335937-.726562.15625-.199219.308594-.332032.308594-.332032l.027344-.023437-.003907-.035156c-.050781-.5625.03125-1.128907.246094-1.648438.316406-.75 1.1875-1.371093 1.1875-1.371093l.0625-.046876-.050781-.054687s-.179687-.203125-.324219-.492187c-.148437-.289063-.257812-.65625-.128906-.996094.085938-.238282.148438-.355469.1875-.40625.039062-.050782.039062-.039063.078125-.050782.21875-.066406.417969-.183593.582031-.34375l.003906-.003906c.410157-.453125 1.015626-.683594 1.625-.625l.058594.003906.015625-.050781s.089844-.277343.230469-.550781c.066406-.140625.148438-.277344.230469-.375.082031-.101562.160156-.15625.222656-.15625"/></svg>