<svg height="18" viewBox="0 0 18 18" width="18" xmlns="http://www.w3.org/2000/svg"><path d="m12.519531 11.441406c-.121093-1.601562-.640625-2.640625-.890625-3.230468-.253906-.589844-.640625-1.140626-.640625-1.140626 0 .003907-.347656 1.875-.972656 3.234376-.105469.226562-.242187.507812-.382813.734374-.429687.761719-1.058593 1.492188-1.429687 2.230469-.371094.730469-.441406 1.457031-.40625 2.28125.035156.828125.226563 1.644531.410156 2.449219.695313-.148438 1.296875-.40625 1.820313-.734375 1.371094-.859375 2.203125-2.238281 2.4375-3.71875 0 0 .011718-.0625.019531-.136719.105469-1.144531.070313-1.507812.035156-1.96875" fill="#40b3d8"/><path d="m12.519531 11.441406c-.121093-1.601562-.640625-2.640625-.890625-3.230468-.253906-.589844-.640625-1.140626-.640625-1.140626l-.089843-.136718c-2.027344-2.84375-5.910157-4.261719-9.195313-2.949219-.15625 1.996094.765625 5.425781 4.136719 6.382813 1.363281.417968 2.457031.308593 3.792968.671874 0 0 1.359376.472657 2.152344 1.183594.355469.320313.710938.742188.691406 1.242188.113282-1.191406.078126-1.554688.042969-2.023438zm0 0" fill="#83c933"/><path d="m11.046875 5.402344c-.480469-1.402344-.277344-2.339844.601563-3.648438.417968-.621094 1.136718-1.34375 1.769531-1.753906 2.554687 1.597656 3.496093 4.578125 2.558593 7.34375-.683593 2.011719-1.324218 2.855469-2.945312 4.925781.191406-2.214843-.589844-3.753906-1.355469-5.460937-.195312-.4375-.464843-.929688-.628906-1.40625" fill="#f18a2a"/><path d="m12.476562 13.464844c.019532-.5-.335937-.921875-.691406-1.242188-.792968-.710937-2.152344-1.183594-2.152344-1.183594.140626-.226562.277344-.511718.382813-.734374.625-1.359376.972656-3.230469.972656-3.234376 0 0 .386719.550782.640625 1.140626.25.589843.769532 1.628906.890625 3.230468.035157.46875.070313.832032-.042969 2.023438zm0 0" fill="#7fb93c"/></svg>