<svg height="18" viewBox="0 0 18 18" width="18" xmlns="http://www.w3.org/2000/svg"><path d="m4.824219.816406c.414062 0 .617187 0 .773437.082032.136719.070312.25.179687.320313.316406.082031.15625.082031.363281.082031.777344v5.160156c0 .613281 0 .921875-.128906 1.109375-.113282.164062-.285156.277343-.484375.3125-.222657.035156-.5-.09375-1.054688-.355469l-1.449219-.675781c-1.042968-.488281-1.5625-.730469-1.949218-1.109375-.335938-.332032-.59375-.734375-.753906-1.183594-.179688-.5-.179688-1.074219-.179688-2.230469v-1.027343c0-.414063 0-.617188.078125-.773438.074219-.140625.183594-.25.320313-.320312.160156-.082032.367187-.082032.777343-.082032zm12 0c.414062 0 .617187 0 .777343.082032.136719.070312.246094.179687.320313.316406.078125.15625.078125.363281.078125.777344v1.027343c0 1.152344 0 1.730469-.179688 2.238281-.160156.445313-.417968.851563-.753906 1.183594-.382812.375-.90625.617188-1.949218 1.105469l-3.121094 1.453125v-7.007812c0-.414063 0-.617188.082031-.773438.070313-.140625.179687-.25.316406-.320312.160157-.082032.367188-.082032.78125-.082032zm-4.828125 8.183594v7.007812c0 .414063 0 .617188-.078125.773438-.070313.140625-.183594.25-.320313.320312-.15625.082032-.363281.082032-.773437.082032h-3.652344c-.414063 0-.613281 0-.773437-.082032-.136719-.070312-.25-.179687-.320313-.316406-.078125-.15625-.078125-.363281-.078125-.777344v-1.03125c0-1.152343 0-1.730468.175781-2.238281.160157-.445312.417969-.851562.757813-1.183593.378906-.375.90625-.621094 1.949218-1.101563zm0 0" fill="#ff5f3b"/></svg>