<svg height="18" viewBox="0 0 18 18" width="18" xmlns="http://www.w3.org/2000/svg"><path d="m4.828125.839844c.414063 0 .617187 0 .777344.078125.136719.070312.246093.183593.316406.320312.082031.15625.082031.363281.082031.773438v5.164062c0 .609375 0 .921875-.128906 1.109375-.109375.164063-.285156.277344-.480469.308594-.226562.039062-.503906-.09375-1.058593-.351562l-1.445313-.675782c-1.042969-.488281-1.566406-.734375-1.949219-1.109375-.339844-.332031-.597656-.738281-.757812-1.183593-.17968775-.503907-.17968775-1.074219-.17968775-2.230469v-1.03125c0-.410157 0-.613281.08203125-.773438.0703125-.136719.1835935-.25.3203125-.320312.160156-.078125.363281-.078125.773438-.078125zm12 0c.414063 0 .617187 0 .777344.078125.136719.070312.246093.183593.320312.320312.078125.15625.078125.363281.078125.773438v1.03125c0 1.148437 0 1.726562-.179687 2.234375-.160157.445312-.417969.851562-.753907 1.183594-.382812.375-.90625.621093-1.949218 1.109374l-3.121094 1.449219v-7.007812c0-.410157 0-.613281.082031-.773438.070313-.136719.183594-.25.320313-.320312.15625-.078125.363281-.078125.777344-.078125zm-4.828125 8.179687v7.007813c0 .414062 0 .617187-.078125.777344-.070313.136718-.183594.246093-.320313.320312-.15625.078125-.359374.078125-.773437.078125h-3.648437c-.414063 0-.617188 0-.777344-.078125-.136719-.074219-.246094-.183594-.320313-.320312-.078125-.15625-.078125-.363282-.078125-.777344v-1.03125c0-1.152344 0-1.730469.179688-2.238282.160156-.445312.417968-.847656.753906-1.183593.382812-.375.90625-.617188 1.949219-1.101563zm0 0"/></svg>