<svg height="18" viewBox="0 0 18 18" width="18" xmlns="http://www.w3.org/2000/svg"><path d="m1.40625 0h15.1875c.777344 0 1.40625.628906 1.40625 1.40625v15.1875c0 .777344-.628906 1.40625-1.40625 1.40625h-15.1875c-.777344 0-1.40625-.628906-1.40625-1.40625v-15.1875c0-.777344.628906-1.40625 1.40625-1.40625zm0 0"/><path d="m2.328125 16.09375c-.15625-.109375-.371094-.351562-.472656-.546875-.195313-.371094-.578125-.78125-.96875-1.03125-.273438-.171875-.417969-.691406-.253907-.890625.054688-.066406.285157-.167969.511719-.230469.230469-.0625.453125-.144531.5-.1875s.089844-.339843.09375-.667969c.03125-1.992187.046875-2.039062.65625-2.039062.722657 0 1.214844.863281.976563 1.71875-.167969.609375-.136719.738281.1875.738281.496094-.003906.523437-.058593.542968-1.152343.035157-1.648438.398438-2.171876 1.226563-1.777344.523437.25.601563.929687.242187 2.140625-.117187.394531.117188 2.03125.359376 2.527343.136718.277344-.007813.667969-.265626.707032-.117187.015625-.308593-.066406-.46875-.199219-.144531-.125-.296874-.226563-.335937-.226563s-.179687-.15625-.3125-.351562c-.234375-.335938-.5-.449219-.613281-.261719-.03125.046875-.234375.132813-.453125.1875-.382813.097657-.398438.109375-.347657.375.144532.777344.144532 1.089844.007813 1.226563-.191406.191406-.46875.171875-.8125-.058594zm8.898437-1.222656c-.191406-.109375-.5625-.523438-.726562-.804688-.058594-.105468-.109375-.375-.109375-.609375-.003906-.621093.257813-1.015625.390625-.585937.128906.402344.605469.585937.828125.3125.179687-.21875-.121094-.726563-.871094-1.464844-.671875-.664062-.703125-.710938-.703125-1.09375 0-.59375.171875-.839844.78125-1.132812.503906-.238282.550782-.246094.90625-.132813.488282.15625 1.058594.707031 1.019532.980469-.023438.171875-.078126.203125-.378907.203125-.195312 0-.402343.03125-.460937.070312-.179688.117188-.125.382813.109375.535157.214843.140624.21875.140624.21875-.105469 0-.242188.023437-.253907.769531-.417969l.765625-.171875.066406-.6875c.105469-1.164063.441407-1.394531 1.105469-.757813.199219.195313.371094.402344.378906.460938.007813.058594.019532.167969.023438.238281.007812.109375.140625.128907.765625.101563.730469-.027344.769531-.019532 1.03125.21875.1875.171875.28125.347656.296875.554687.019531.253907-.023438.328125-.269532.5-.160156.109375-.683593.324219-1.164062.476563-.6875.21875-.871094.3125-.871094.441406 0 .089844.046875.554688.101563 1.039062.113281.992188.039062 1.320313-.332031 1.488282-.324219.148437-.410157.125-.71875-.191406-.359376-.371094-.472657-.765626-.402344-1.410157.066406-.597656.03125-.640625-.515625-.597656l-.390625.03125.128906.363281c.082031.238282.109375.539063.078125.847656-.039063.410157-.09375.523438-.335937.734376-.730469.625-1.148438.78125-1.515626.566406zm-3.578124-.070313c-.421876-.074219-1.035157-.546875-1.402344-1.085937-.261719-.386719-.292969-.492188-.289063-1.011719.011719-.675781.222657-1.460937.484375-1.796875.207032-.265625.84375-.582031 1.164063-.582031.195312 0 .644531.164062 1.332031.488281.59375.28125.699219.453125.828125 1.394531l.097656.695313-.320312.679687c-.175781.378907-.410157.769531-.519531.871094-.253907.238281-.964844.417969-1.375.347656m.222656-1.660156c.316406-.121094.472656-.640625.28125-.933594-.078125-.117187-.191406-.214843-.253906-.214843-.351563 0-.71875.828124-.492188 1.105468.121094.144532.175781.152344.464844.039063zm-4.957032-4.421875c-.167968-.109375-.394531-.390625-.519531-.636719-.199219-.398437-.214843-.523437-.195312-1.394531l.023437-.957031-.527344-.503907c-.289062-.28125-.527343-.527343-.527343-.542968 0-.019532-.082031-.40625-.175781-.859375-.097657-.449219-.175782-1.03125-.175782-1.285157 0-.402343.03125-.488281.222656-.613281.34375-.226562.726563-.074219 1.0625.429688.226563.332031.289063.539062.339844 1.070312.066406.691407.179688.890625.46875.796875.175782-.054687.675782-.574218.855469-.882812.089844-.15625.109375-.152344.496094.070312.292969.171875.429687.324219.503906.546875.09375.277344.078125.351563-.121094.691407-.152343.25-.339843.476562-.554687.671874-.183594.164063-.335938.375-.34375.476563-.042969.742187-.226563 2.921875-.253906 3.011719-.054688.164062-.242188.132812-.578126-.089844m3.210938-.625c-.410156-.179688-.96875-.871094-1.097656-1.351562-.132813-.507813-.121094-2.601563.015625-3.144532.050781-.214844.140625-.386718.195312-.386718.167969 0 .746094.429687.859375.636718.0625.117188.113282.625.125 1.242188.011719.898437.035156 1.054687.171875 1.128906.121094.070312.183594.050781.273438-.070312.066406-.089844.117187-.222657.121093-.296876 0-.078124.097657-.445312.21875-.824218.121094-.375.222657-.867188.226563-1.097656.019531-.871094.210937-1.066407.671875-.679688.539062.453125.566406 1.472656.09375 3.472656-.1875.796875-.375 1.070313-.921875 1.351563-.339844.167969-.59375.175781-.953125.019531zm3.015625-.1875c-.46875-.246094-.554687-.421875-.4375-.894531.265625-1.042969.316406-2.289063.140625-3.351563-.058594-.34375-.039062-.402344.148438-.546875.113281-.089843.292968-.164062.394531-.164062.25-.003907.824219.628906 1.074219 1.183593.363281.808594.496093 1.039063.574218 1 .042969-.019531.085938-.628906.101563-1.351562.019531-1.164062.042969-1.363281.214843-1.691406.105469-.207032.25-.371094.316407-.371094.066406 0 .230469.167969.363281.371094.132812.207031.277344.398437.324219.429687.042969.035157.0625.488281.046875 1.011719-.019532.566406-.027344 1.132812-.023438 1.699219.042969 2.464843.03125 2.605469-.265625 2.71875-.28125.105469-.722656-.109375-1.253906-.613281-.253906-.242188-.496094-.4375-.539063-.4375-.042968 0-.148437.226562-.234374.503906-.253907.8125-.300782.835937-.945313.503906m4.714844-.757812c-.816407-.445313-1.097657-.847657-1.160157-1.695313-.054687-.671875.230469-1.867187.542969-2.277344.121094-.160156.222657-.332031.222657-.386719 0-.054687.175781-.21875.386718-.363281.5-.34375.964844-.359375 1.425782-.046875.644531.4375.738281.777344.765624 2.761719.011719.769531-.007812.871094-.234374 1.257813-.136719.230468-.335938.453124-.445313.496093-.105469.039063-.242187.132813-.300781.203125-.128906.15625-.945313.191406-1.203125.050782m.871093-2.125c.292969-.582032.253907-.957032-.105468-1.007813-.15625-.023437-.226563.046875-.359375.355469-.25.578125-.308594.933594-.179688 1.085937.1875.226563.378907.097657.644531-.433593" fill="#fff"/></svg>