<svg height="18" viewBox="0 0 18 18" width="18" xmlns="http://www.w3.org/2000/svg"><path d="m4 14c-.385417 0-.739583-.21875-.90625-.567708-.166667-.348959-.114583-.760417.125-1.0625l9.901042-10.197917c.151041-.177083.40625-.223958.614583-.114583.203125.109375.307292.348958.244792.572916l-1.916667 6.020834c-.119792.307291-.072917.651041.114583.921875.1875.265625.494792.427083.822917.427083h7c.385417 0 .739583.21875.90625.567708.166667.348959.114583.760417-.125 1.0625l-9.901042 10.197917c-.151041.177083-.40625.223958-.614583.114583-.203125-.109375-.307292-.348958-.244792-.572916l1.916667-6.020834c.119792-.307291.072917-.651041-.114583-.921875-.1875-.265625-.494792-.427083-.822917-.427083zm0 0" fill="none" stroke="#fff" stroke-linecap="round" stroke-linejoin="round" stroke-width="2" transform="scale(.75)"/></svg>