<svg xmlns="http://www.w3.org/2000/svg" viewBox="0 0 128 128">
    <path fill="#60be86" d="M64 26.77H11.661l8.995 77.098 43.298 22.079h.053l43.36-22.079 8.969-77.098zm37.792 48.45c0 .776 0 1.474-.68 1.766L72.173 90.895l-2.138.998-.239-2.782v-5.467l.212-1.386.963-.415 20.483-9.167-19.033-8.478-8.112 16.011-4.816 9.3-1.078 2.004-1.811-.795-29.717-13.715a2.14 2.14 0 0 1-1.281-1.766v-5.122a2.112 2.11 0 0 1 1.254-1.767l30.044-13.891 2.836-1.272v8.531l.212 1.183-1.378.619-20.686 9.14 19.308 8.505 7.113-14.13 5.487-11.172.999-2.014 1.599.804 28.718 13.68c.645.309.672 1.007.672 1.766z"/>
    <path fill="#60be86" d="M33.527 1.842q-1.575 0-3.064.33a16 16 0 0 0-2.807.889q-1.317.544-2.422 1.273-1.088.717-1.89 1.504-.788.774-1.23 1.576-.446.788-.446 1.475 0 1.09 1.232 1.09.66-.001 1.147-.317.487-.315.902-.816.43-.5.86-1.131.443-.63 1.015-1.26a6.6 6.6 0 0 1 1.233-.875 9.7 9.7 0 0 1 1.59-.715q.859-.3 1.79-.472a9.7 9.7 0 0 1 1.876-.188q1.002 0 1.748.33.744.33 1.216.916.488.588.717 1.391.243.802.244 1.746 0 1.118-.416 2.379-.401 1.26-1.146 2.52a15 15 0 0 1-1.776 2.421 15.5 15.5 0 0 1-2.29 2.106 13.6 13.6 0 0 1-2.68 1.56 9.8 9.8 0 0 1-2.979.788q.63-.859 1.29-1.862.672-1.017 1.302-2.062.645-1.045 1.232-2.076.602-1.047 1.104-1.95.515-.902.902-1.632l.645-1.174q.243-.415.387-.873.142-.46.142-.875 0-.516-.271-.887-.274-.372-.918-.373-.143 0-.414.072a2.1 2.1 0 0 0-.631.272q-.345.214-.76.601-.401.387-.816 1.031l-5.887 11.702q-.229.33-.371.716a2.3 2.3 0 0 0-.145.803q0 .529.33.887.33.373.903.373 2.636 0 4.898-.631 2.277-.63 4.139-1.703a16 16 0 0 0 3.308-2.492 16 16 0 0 0 2.422-2.994 13.5 13.5 0 0 0 1.488-3.21q.516-1.631.516-3.12a8.5 8.5 0 0 0-.443-2.78 5.9 5.9 0 0 0-1.332-2.234q-.888-.96-2.248-1.504-1.361-.545-3.196-.545m34.075 6.303q-.502 0-.873.185-.36.186-.602.473a2.1 2.1 0 0 0-.373.644q-.113.345-.113.674.042.458.4.744.358.274 1.246.274.472 0 .817-.188.344-.185.558-.457.215-.286.315-.617.114-.33.115-.601 0-.487-.33-.801-.33-.33-1.16-.33m-20.524 3.94q-1.131 0-2.135.327a7.8 7.8 0 0 0-1.818.875 8.3 8.3 0 0 0-1.504 1.26q-.66.702-1.117 1.447-.459.744-.703 1.489a4.3 4.3 0 0 0-.242 1.347q0 .802.242 1.532.243.73.703 1.289.473.559 1.13.888.675.33 1.534.33 1.002 0 2.033-.273 1.032-.257 1.977-.658a18 18 0 0 0 1.804-.873q.753-.427 1.34-.81.026.564.194 1.009.215.53.558.889.343.357.801.529.46.187.96.187 1.032 0 1.978-.644.96-.645 1.904-1.89.644.4 1.045.558.401.157.832.156 1.303.001 2.377-.457.157-.07.314-.148.007 1.242.66 1.837.674.588 1.832.588a4.4 4.4 0 0 0 1.62-.316 8.7 8.7 0 0 0 1.59-.83q.618-.41 1.212-.904.039.138.09.273.201.53.588.932.387.386.945.615.573.23 1.303.23.96 0 1.95-.3a12 12 0 0 0 1.904-.73 14 14 0 0 0 1.732-.976c.231-.154.445-.301.652-.447q.078.46.28.82.33.587.802.96.487.357 1.016.515.53.158.932.158a7 7 0 0 0 1.99-.273 7 7 0 0 0 1.748-.73 7 7 0 0 0 1.474-1.131q.66-.66 1.176-1.461.358.258.701.373.36.114.73.113.545 0 1.089-.3a6.4 6.4 0 0 0 1.047-.731l.017-.016c-.163.353-.32.697-.463 1.02q-.315.715-.515 1.26-.2.543-.2.786 0 .459.286.774.286.316.789.316.486 0 .8-.316.33-.3.588-.758.258-.473.487-1.004.244-.543.531-1.015.458-.702 1.059-1.59.6-.887 1.318-1.676a8 8 0 0 1 1.533-1.348q.83-.544 1.746-.543.245 0 .36.157a.52.52 0 0 1 .128.359q0 .243-.187.629a12 12 0 0 1-.473.889q-.272.486-.601 1.044-.33.545-.63 1.104-.286.558-.501 1.088a3.4 3.4 0 0 0-.229.974l-.029.215v.186q0 .76.344 1.19.358.414 1.117.415.258 0 .559-.058a6 6 0 0 0 .687-.172q1.089-.314 1.89-.672a16 16 0 0 0 1.518-.79q.717-.428 1.391-.915.688-.487 1.504-1.074.6-.473.873-1.018.286-.544.287-.988a.75.75 0 0 0-.144-.473.42.42 0 0 0-.372-.185.6.6 0 0 0-.214.043.8.8 0 0 0-.23.142q-.417.387-1.046.875-.616.473-1.361.96-.745.471-1.56.902a13 13 0 0 1-1.577.716 1 1 0 0 1-.314.157q-.129.015-.229.015-.159 0-.23-.086a.3.3 0 0 1-.07-.2.8.8 0 0 1 .185-.53q.142-.258.387-.645.258-.401.558-.875.3-.472.602-1.002.315-.544.558-1.103.258-.56.416-1.117a4 4 0 0 0 .157-1.075q0-.872-.516-1.23-.501-.372-1.26-.373-.673 0-1.431.215a9.4 9.4 0 0 0-1.461.558 8 8 0 0 0-1.29.76q-.586.416-.902.816a2 2 0 0 0 .2-.859q0-.487-.272-.73a.87.87 0 0 0-.615-.258q-.416 0-.846.3-.43.301-.717.917c-.067.147-.146.313-.23.488a.3.3 0 0 0-.14.084 30 30 0 0 1-.473.531 18 18 0 0 1-1.348 1.332q-.387.344-.774.615-.386.273-.757.444-.36.172-.66.172a1.1 1.1 0 0 1-.4-.07.8.8 0 0 1-.331-.245q.229-.6.344-1.146.114-.559.115-.989 0-.83-.357-1.388a2.8 2.8 0 0 0-.875-.916 3.6 3.6 0 0 0-1.16-.489 5 5 0 0 0-1.16-.142q-1.26 0-2.292.416a6.5 6.5 0 0 0-1.834 1.074q-.801.659-1.388 1.504a10.7 10.7 0 0 0-.96 1.69 10 10 0 0 0-.47 1.304c-.066.042-.104.069-.174.113q-.545.345-1.219.73-.672.388-1.402.718-.716.33-1.447.543a4.9 4.9 0 0 1-1.375.215q-.6 0-.96-.286-.342-.287-.343-.789 0-.343.172-.83.186-.486.486-1.002.315-.53.701-1.031.387-.516.79-.918.414-.4.816-.644.415-.258.744-.258.286 0 .357.187.072.172.073.43 0 .229-.014.486v.373q0 .215.07.301.087.086.373.086.53 0 .889-.316.358-.314.586-.788.23-.472.33-1.001.1-.545.1-.989a1.4 1.4 0 0 0-.13-.617.9.9 0 0 0-.327-.4 1.3 1.3 0 0 0-.489-.229 2.3 2.3 0 0 0-.586-.072q-.93 0-1.847.4a8.4 8.4 0 0 0-1.748 1.06q-.831.66-1.547 1.505a13.5 13.5 0 0 0-1.246 1.718 9.6 9.6 0 0 0-.744 1.495c-.05.046-.094.091-.145.138q-.371.359-.8.717-.431.344-.876.615-.443.273-.886.444a2.2 2.2 0 0 1-.832.172q-.359 0-.56-.114-.185-.13-.185-.515 0-.36.13-.79.142-.428.33-.872a18 18 0 0 1 .413-.86 55 55 0 0 0 .631-1.303l.201-.43.243-.488q.129-.256.33-.628a.7.7 0 0 0 .086-.258 2 2 0 0 0 .043-.258q0-.545-.4-.889a1.32 1.32 0 0 0-.932-.357q-.33 0-.645.172t-.559.572l-.486 1.002q-.2.401-.387.789-.171.387-.244.572-.2.502-.486 1.06-.246.47-.47.981a9 9 0 0 1-.991.524 7 7 0 0 1-1.104.357 4.6 4.6 0 0 1-1.06.129q-.486 0-.715-.3.53-.903.973-1.548.459-.659.789-1.19.33-.543.515-1.044.2-.501.2-1.104 0-.53-.243-.902-.244-.387-.832-.387-.343 0-.671.344-.33.33-.674.889-.33.544-.688 1.246-.343.688-.73 1.404-.373.716-.803 1.403a7.3 7.3 0 0 1-.887 1.175q-.545.73-1.004 1.145-.457.416-.83.416-.086 0-.158-.1a1 1 0 0 1-.113-.258 4 4 0 0 1-.072-.316 2 2 0 0 1-.03-.271q0-.645.172-1.418.187-.788.445-1.604.257-.816.543-1.619.301-.816.516-1.504a.6.6 0 0 0 .059-.271.63.63 0 0 0-.102-.344 1 1 0 0 0-.258-.274 1.1 1.1 0 0 0-.357-.171 1 1 0 0 0-.373-.07q-.416 0-.86.27-.428.259-.714.86-.158.473-.43 1.275-.259.801-.531 1.747a24 24 0 0 0-.457 1.873c-.217.129-.462.27-.76.433q-.559.315-1.26.674-.702.344-1.447.645-.73.3-1.49.5a5.8 5.8 0 0 1-1.403.187q-.615-.001-.988-.23a.96.96 0 0 1-.445-.659q1.948-.716 3.238-1.418 1.303-.716 2.076-1.388.774-.689 1.088-1.348.316-.66.316-1.26 0-1.017-.587-1.59-.587-.572-1.776-.572zm-.773 1.96h.129q.056 0 .129.016a.54.54 0 0 1 .3.156.44.44 0 0 1 .143.344q0 .258-.244.617-.243.344-.887.744a13 13 0 0 0-.502.33q-.344.243-.816.543-.473.3-1.018.631-.53.33-1.031.588.086-.273.244-.674.173-.4.416-.83.242-.444.543-.889a4.6 4.6 0 0 1 .703-.787 3.5 3.5 0 0 1 .873-.574 2.4 2.4 0 0 1 1.018-.215m37.482.574q.444 0 .701.172.258.157.387.414.143.258.172.575a3.87 3.87 0 0 1-.242 2.033 4.6 4.6 0 0 1-.774 1.289 4.3 4.3 0 0 1-1.117.916q-.616.344-1.275.344-.43 0-.688-.186a1.3 1.3 0 0 1-.4-.459 2.2 2.2 0 0 1-.172-.602 5 5 0 0 1-.043-.601q0-.73.285-1.418.287-.702.76-1.246a3.9 3.9 0 0 1 1.103-.887q.63-.344 1.303-.344" aria-label="Devicon" font-family="Damion" font-size="29.333"/>
</svg>
